<?xml version="1.0" encoding="utf-8" standalone="no"?>
<!DOCTYPE svg PUBLIC "-//W3C//DTD SVG 1.1//EN"
  "http://www.w3.org/Graphics/SVG/1.1/DTD/svg11.dtd">
<svg xmlns:xlink="http://www.w3.org/1999/xlink" width="921.6pt" height="518.4pt" viewBox="0 0 921.6 518.4" xmlns="http://www.w3.org/2000/svg" version="1.1">
 <metadata>
  <rdf:RDF xmlns:dc="http://purl.org/dc/elements/1.1/" xmlns:cc="http://creativecommons.org/ns#" xmlns:rdf="http://www.w3.org/1999/02/22-rdf-syntax-ns#">
   <cc:Work>
    <dc:type rdf:resource="http://purl.org/dc/dcmitype/StillImage"/>
    <dc:date>2023-08-25T20:18:03.217052</dc:date>
    <dc:format>image/svg+xml</dc:format>
    <dc:creator>
     <cc:Agent>
      <dc:title>Matplotlib v3.7.1, https://matplotlib.org/</dc:title>
     </cc:Agent>
    </dc:creator>
   </cc:Work>
  </rdf:RDF>
 </metadata>
 <defs>
  <style type="text/css">*{stroke-linejoin: round; stroke-linecap: butt}</style>
 </defs>
 <g id="figure_1">
  <g id="patch_1">
   <path d="M 0 518.4 
L 921.6 518.4 
L 921.6 0 
L 0 0 
z
" style="fill: #ffffff"/>
  </g>
  <g id="axes_1">
   <g id="patch_2">
    <path d="M 115.2 461.376 
L 829.44 461.376 
L 829.44 62.208 
L 115.2 62.208 
z
" style="fill: #ffffff"/>
   </g>
   <g id="matplotlib.axis_1">
    <g id="xtick_1">
     <g id="line2d_1">
      <defs>
       <path id="mae28e57c9e" d="M 0 0 
L 0 3.5 
" style="stroke: #000000; stroke-width: 0.8"/>
      </defs>
      <g>
       <use xlink:href="#mae28e57c9e" x="115.2" y="461.376" style="stroke: #000000; stroke-width: 0.8"/>
      </g>
     </g>
     <g id="text_1">
      <!-- 0 -->
      <g transform="translate(110.45 481.958031) scale(0.19 -0.19)">
       <defs>
        <path id="SimSun-30" d="M 1600 4225 
Q 1250 4225 1012 3687 
Q 775 3150 775 2250 
Q 775 1300 1012 775 
Q 1250 250 1600 250 
Q 1975 250 2187 775 
Q 2400 1300 2400 2250 
Q 2400 3150 2200 3687 
Q 2000 4225 1600 4225 
z
M 1600 50 
Q 1050 50 675 625 
Q 300 1200 300 2250 
Q 300 3225 662 3825 
Q 1025 4425 1600 4425 
Q 2150 4425 2512 3850 
Q 2875 3275 2875 2250 
Q 2875 1225 2512 637 
Q 2150 50 1600 50 
z
" transform="scale(0.015625)"/>
       </defs>
       <use xlink:href="#SimSun-30"/>
      </g>
     </g>
    </g>
    <g id="xtick_2">
     <g id="line2d_2">
      <g>
       <use xlink:href="#mae28e57c9e" x="186.624" y="461.376" style="stroke: #000000; stroke-width: 0.8"/>
      </g>
     </g>
     <g id="text_2">
      <!-- 10 -->
      <g transform="translate(177.124 481.958031) scale(0.19 -0.19)">
       <defs>
        <path id="SimSun-31" d="M 1825 4450 
L 1825 650 
Q 1825 450 1950 350 
Q 2075 250 2300 250 
L 2550 250 
L 2550 100 
L 725 100 
L 725 250 
L 950 250 
Q 1200 250 1312 350 
Q 1425 450 1425 650 
L 1425 3675 
Q 1425 3775 1362 3837 
Q 1300 3900 1175 3900 
L 725 3900 
L 725 4050 
L 950 4050 
Q 1250 4050 1437 4150 
Q 1625 4250 1725 4450 
L 1825 4450 
z
" transform="scale(0.015625)"/>
       </defs>
       <use xlink:href="#SimSun-31"/>
       <use xlink:href="#SimSun-30" x="50"/>
      </g>
     </g>
    </g>
    <g id="xtick_3">
     <g id="line2d_3">
      <g>
       <use xlink:href="#mae28e57c9e" x="258.048" y="461.376" style="stroke: #000000; stroke-width: 0.8"/>
      </g>
     </g>
     <g id="text_3">
      <!-- 20 -->
      <g transform="translate(248.548 481.958031) scale(0.19 -0.19)">
       <defs>
        <path id="SimSun-32" d="M 2325 3325 
Q 2325 3775 2125 4012 
Q 1925 4250 1525 4250 
Q 1225 4250 1012 4087 
Q 800 3925 800 3675 
Q 800 3525 900 3425 
Q 975 3325 975 3225 
Q 975 3100 912 3037 
Q 850 2975 725 2975 
Q 575 2975 487 3062 
Q 400 3150 400 3350 
Q 400 3875 775 4150 
Q 1150 4425 1575 4425 
Q 2175 4425 2462 4125 
Q 2750 3825 2750 3375 
Q 2750 3075 2612 2775 
Q 2475 2475 2175 2200 
Q 1450 1500 1062 1062 
Q 675 625 600 475 
L 2075 475 
Q 2300 475 2450 650 
Q 2600 825 2650 1175 
L 2800 1175 
L 2650 100 
L 325 100 
L 325 425 
Q 450 650 737 1000 
Q 1025 1350 1500 1825 
Q 1925 2250 2125 2625 
Q 2325 3000 2325 3325 
z
" transform="scale(0.015625)"/>
       </defs>
       <use xlink:href="#SimSun-32"/>
       <use xlink:href="#SimSun-30" x="50"/>
      </g>
     </g>
    </g>
    <g id="xtick_4">
     <g id="line2d_4">
      <g>
       <use xlink:href="#mae28e57c9e" x="329.472" y="461.376" style="stroke: #000000; stroke-width: 0.8"/>
      </g>
     </g>
     <g id="text_4">
      <!-- 30 -->
      <g transform="translate(319.972 481.958031) scale(0.19 -0.19)">
       <defs>
        <path id="SimSun-33" d="M 2800 1250 
Q 2800 775 2450 412 
Q 2100 50 1475 50 
Q 1025 50 700 300 
Q 375 550 375 875 
Q 375 1025 475 1137 
Q 575 1250 675 1250 
Q 825 1250 887 1137 
Q 950 1025 950 950 
Q 950 825 900 750 
Q 850 650 850 575 
Q 850 425 1037 325 
Q 1225 225 1450 225 
Q 1900 225 2125 487 
Q 2350 750 2350 1300 
Q 2350 1750 2112 2025 
Q 1875 2300 1225 2300 
L 1225 2475 
Q 1725 2475 1962 2712 
Q 2200 2950 2200 3375 
Q 2200 3725 2012 3987 
Q 1825 4250 1425 4250 
Q 1250 4250 1050 4162 
Q 850 4075 850 3875 
Q 850 3675 900 3625 
Q 950 3575 950 3500 
Q 950 3375 900 3300 
Q 850 3225 725 3225 
Q 625 3225 537 3300 
Q 450 3375 450 3575 
Q 450 3950 775 4187 
Q 1100 4425 1525 4425 
Q 2025 4425 2325 4112 
Q 2625 3800 2625 3450 
Q 2625 3075 2437 2812 
Q 2250 2550 1850 2425 
Q 2400 2225 2600 1900 
Q 2800 1575 2800 1250 
z
" transform="scale(0.015625)"/>
       </defs>
       <use xlink:href="#SimSun-33"/>
       <use xlink:href="#SimSun-30" x="50"/>
      </g>
     </g>
    </g>
    <g id="xtick_5">
     <g id="line2d_5">
      <g>
       <use xlink:href="#mae28e57c9e" x="400.896" y="461.376" style="stroke: #000000; stroke-width: 0.8"/>
      </g>
     </g>
     <g id="text_5">
      <!-- 40 -->
      <g transform="translate(391.396 481.958031) scale(0.19 -0.19)">
       <defs>
        <path id="SimSun-34" d="M 2300 575 
Q 2300 400 2400 325 
Q 2500 250 2675 250 
L 2900 250 
L 2900 100 
L 1250 100 
L 1250 250 
L 1525 250 
Q 1725 250 1812 325 
Q 1900 400 1900 575 
L 1900 1400 
L 225 1400 
L 225 1525 
L 2050 4425 
L 2300 4425 
L 2300 1550 
L 2975 1550 
L 2975 1400 
L 2300 1400 
L 2300 575 
z
M 1875 3800 
L 450 1550 
L 1900 1550 
L 1900 3800 
L 1875 3800 
z
" transform="scale(0.015625)"/>
       </defs>
       <use xlink:href="#SimSun-34"/>
       <use xlink:href="#SimSun-30" x="50"/>
      </g>
     </g>
    </g>
    <g id="xtick_6">
     <g id="line2d_6">
      <g>
       <use xlink:href="#mae28e57c9e" x="472.32" y="461.376" style="stroke: #000000; stroke-width: 0.8"/>
      </g>
     </g>
     <g id="text_6">
      <!-- 50 -->
      <g transform="translate(462.82 481.958031) scale(0.19 -0.19)">
       <defs>
        <path id="SimSun-35" d="M 1725 2850 
Q 2200 2850 2500 2487 
Q 2800 2125 2800 1525 
Q 2800 850 2487 450 
Q 2175 50 1525 50 
Q 1075 50 725 312 
Q 375 575 375 950 
Q 375 1100 462 1212 
Q 550 1325 700 1325 
Q 850 1325 900 1225 
Q 950 1125 950 1050 
Q 950 900 875 825 
Q 800 725 800 625 
Q 800 425 1037 325 
Q 1275 225 1550 225 
Q 1950 225 2162 550 
Q 2375 875 2375 1475 
Q 2375 1975 2187 2287 
Q 2000 2600 1625 2600 
Q 1350 2600 1150 2500 
Q 950 2400 775 2075 
L 550 2100 
L 675 4375 
L 2725 4375 
L 2650 4000 
L 850 4000 
L 750 2350 
Q 1000 2700 1237 2775 
Q 1475 2850 1725 2850 
z
" transform="scale(0.015625)"/>
       </defs>
       <use xlink:href="#SimSun-35"/>
       <use xlink:href="#SimSun-30" x="50"/>
      </g>
     </g>
    </g>
    <g id="xtick_7">
     <g id="line2d_7">
      <g>
       <use xlink:href="#mae28e57c9e" x="543.744" y="461.376" style="stroke: #000000; stroke-width: 0.8"/>
      </g>
     </g>
     <g id="text_7">
      <!-- 60 -->
      <g transform="translate(534.244 481.958031) scale(0.19 -0.19)">
       <defs>
        <path id="SimSun-36" d="M 775 1800 
Q 775 1050 1037 637 
Q 1300 225 1675 225 
Q 2050 225 2250 500 
Q 2450 775 2450 1525 
Q 2450 2025 2237 2300 
Q 2025 2575 1725 2575 
Q 1450 2575 1212 2412 
Q 975 2250 775 1800 
z
M 1750 2825 
Q 2350 2825 2612 2425 
Q 2875 2025 2875 1525 
Q 2875 775 2512 412 
Q 2150 50 1675 50 
Q 1000 50 650 562 
Q 300 1075 300 2050 
Q 300 3200 725 3812 
Q 1150 4425 1875 4425 
Q 2225 4425 2437 4225 
Q 2650 4025 2650 3875 
Q 2650 3725 2587 3650 
Q 2525 3575 2375 3575 
Q 2250 3575 2187 3637 
Q 2125 3700 2125 3825 
Q 2125 3875 2150 3925 
Q 2150 3975 2150 4025 
Q 2150 4125 2075 4187 
Q 2000 4250 1800 4250 
Q 1375 4250 1075 3862 
Q 775 3475 775 2175 
Q 925 2500 1187 2662 
Q 1450 2825 1750 2825 
z
" transform="scale(0.015625)"/>
       </defs>
       <use xlink:href="#SimSun-36"/>
       <use xlink:href="#SimSun-30" x="50"/>
      </g>
     </g>
    </g>
    <g id="xtick_8">
     <g id="line2d_8">
      <g>
       <use xlink:href="#mae28e57c9e" x="615.168" y="461.376" style="stroke: #000000; stroke-width: 0.8"/>
      </g>
     </g>
     <g id="text_8">
      <!-- 70 -->
      <g transform="translate(605.668 481.958031) scale(0.19 -0.19)">
       <defs>
        <path id="SimSun-37" d="M 2825 4200 
Q 2300 3350 1987 2537 
Q 1675 1725 1675 1125 
Q 1675 1025 1700 850 
Q 1700 650 1700 400 
Q 1700 200 1637 125 
Q 1575 50 1425 50 
Q 1300 50 1212 137 
Q 1125 225 1125 450 
Q 1125 925 1337 1625 
Q 1550 2325 2475 4000 
L 1225 4000 
Q 950 4000 787 3825 
Q 625 3650 550 3300 
L 400 3325 
L 575 4375 
L 2825 4375 
L 2825 4200 
z
" transform="scale(0.015625)"/>
       </defs>
       <use xlink:href="#SimSun-37"/>
       <use xlink:href="#SimSun-30" x="50"/>
      </g>
     </g>
    </g>
    <g id="xtick_9">
     <g id="line2d_9">
      <g>
       <use xlink:href="#mae28e57c9e" x="686.592" y="461.376" style="stroke: #000000; stroke-width: 0.8"/>
      </g>
     </g>
     <g id="text_9">
      <!-- 80 -->
      <g transform="translate(677.092 481.958031) scale(0.19 -0.19)">
       <defs>
        <path id="SimSun-38" d="M 625 1125 
Q 625 725 887 475 
Q 1150 225 1550 225 
Q 2025 225 2237 475 
Q 2450 725 2450 1100 
Q 2450 1425 2150 1725 
Q 1850 2025 1250 2275 
Q 950 2075 787 1775 
Q 625 1475 625 1125 
z
M 2825 1175 
Q 2825 700 2475 375 
Q 2125 50 1550 50 
Q 1025 50 650 375 
Q 275 700 275 1125 
Q 275 1550 487 1850 
Q 700 2150 1100 2375 
Q 750 2550 562 2812 
Q 375 3075 375 3400 
Q 375 3825 700 4125 
Q 1025 4425 1600 4425 
Q 2125 4425 2450 4125 
Q 2775 3825 2775 3400 
Q 2775 3100 2587 2837 
Q 2400 2575 2000 2375 
Q 2425 2125 2625 1825 
Q 2825 1525 2825 1175 
z
M 2425 3375 
Q 2425 3725 2225 3987 
Q 2025 4250 1600 4250 
Q 1125 4250 925 4000 
Q 725 3750 725 3475 
Q 725 3200 1012 2937 
Q 1300 2675 1825 2475 
Q 2125 2625 2275 2850 
Q 2425 3075 2425 3375 
z
" transform="scale(0.015625)"/>
       </defs>
       <use xlink:href="#SimSun-38"/>
       <use xlink:href="#SimSun-30" x="50"/>
      </g>
     </g>
    </g>
    <g id="xtick_10">
     <g id="line2d_10">
      <g>
       <use xlink:href="#mae28e57c9e" x="758.016" y="461.376" style="stroke: #000000; stroke-width: 0.8"/>
      </g>
     </g>
     <g id="text_10">
      <!-- 90 -->
      <g transform="translate(748.516 481.958031) scale(0.19 -0.19)">
       <defs>
        <path id="SimSun-39" d="M 700 3050 
Q 700 2500 912 2212 
Q 1125 1925 1450 1925 
Q 1825 1925 2100 2275 
Q 2375 2625 2375 2925 
Q 2375 3525 2175 3887 
Q 1975 4250 1525 4250 
Q 1100 4250 900 3912 
Q 700 3575 700 3050 
z
M 1375 1700 
Q 875 1700 575 2012 
Q 275 2325 275 3025 
Q 275 3625 600 4025 
Q 925 4425 1525 4425 
Q 2150 4425 2500 3925 
Q 2850 3425 2850 2475 
Q 2850 1425 2437 737 
Q 2025 50 1300 50 
Q 975 50 737 200 
Q 500 350 500 600 
Q 500 700 562 800 
Q 625 900 775 900 
Q 925 900 975 787 
Q 1025 675 1025 525 
Q 1025 425 1050 362 
Q 1075 300 1100 275 
Q 1125 250 1187 237 
Q 1250 225 1325 225 
Q 1775 225 2050 725 
Q 2325 1225 2375 2400 
Q 2250 2100 2000 1900 
Q 1750 1700 1375 1700 
z
" transform="scale(0.015625)"/>
       </defs>
       <use xlink:href="#SimSun-39"/>
       <use xlink:href="#SimSun-30" x="50"/>
      </g>
     </g>
    </g>
    <g id="xtick_11">
     <g id="line2d_11">
      <g>
       <use xlink:href="#mae28e57c9e" x="829.44" y="461.376" style="stroke: #000000; stroke-width: 0.8"/>
      </g>
     </g>
     <g id="text_11">
      <!-- 100 -->
      <g transform="translate(815.19 481.958031) scale(0.19 -0.19)">
       <use xlink:href="#SimSun-31"/>
       <use xlink:href="#SimSun-30" x="50"/>
       <use xlink:href="#SimSun-30" x="100"/>
      </g>
     </g>
    </g>
    <g id="text_12">
     <!-- 索引装载率 $\mathrm{(\%)}$ -->
     <g transform="translate(406.58 504.17725) scale(0.19 -0.19)">
      <defs>
       <path id="SimSun-7d22" d="M 4725 1325 
Q 4375 1250 3450 1150 
L 3450 -50 
Q 3475 -500 2875 -625 
Q 2875 -325 2200 -125 
L 2200 -25 
Q 2850 -75 2987 -75 
Q 3125 -75 3100 175 
L 3100 1100 
Q 2400 1025 2050 925 
Q 1700 825 1475 700 
L 1225 1175 
Q 1525 1250 2050 1525 
Q 2575 1800 3225 2200 
Q 2900 2200 2437 2150 
Q 1975 2100 1650 1950 
L 1425 2375 
Q 1775 2425 2212 2737 
Q 2650 3050 2875 3375 
L 1000 3375 
Q 1050 3000 975 2850 
Q 900 2700 800 2675 
Q 700 2650 625 2650 
Q 525 2650 462 2675 
Q 400 2700 400 2725 
Q 400 2800 550 2975 
Q 750 3225 875 3800 
L 975 3800 
L 1000 3525 
L 3025 3525 
L 3025 4250 
L 1575 4250 
Q 1375 4250 1100 4175 
L 875 4400 
L 3025 4400 
L 3025 4775 
Q 3025 5025 3000 5275 
L 3625 5050 
L 3375 4900 
L 3375 4400 
L 4725 4400 
L 5125 4750 
L 5575 4250 
L 3375 4250 
L 3375 3525 
L 5300 3525 
L 5500 3750 
L 5950 3325 
Q 5600 3300 5050 2675 
L 4975 2725 
L 5325 3375 
L 2925 3375 
L 3325 3100 
Q 3100 3075 2675 2800 
Q 2250 2500 1925 2350 
L 3425 2375 
Q 3775 2625 4050 3000 
L 4475 2625 
Q 4250 2600 3850 2325 
Q 3425 2050 2975 1787 
Q 2525 1525 2025 1250 
L 4625 1450 
Q 4275 1825 3950 2050 
L 4000 2125 
Q 4700 1850 4962 1662 
Q 5225 1475 5275 1312 
Q 5325 1150 5212 937 
Q 5100 725 4987 925 
Q 4875 1125 4725 1325 
z
M 3925 725 
Q 5025 375 5312 212 
Q 5600 50 5612 -150 
Q 5625 -350 5562 -425 
Q 5500 -500 5475 -500 
Q 5375 -500 5200 -275 
Q 4925 50 3900 650 
L 3925 725 
z
M 2150 750 
L 2575 350 
Q 2275 350 1775 75 
Q 1275 -225 425 -525 
L 375 -450 
Q 1600 150 2150 750 
z
" transform="scale(0.015625)"/>
       <path id="SimSun-5f15" d="M 5075 4675 
L 5075 575 
Q 5075 100 5100 -425 
L 4700 -600 
Q 4725 175 4725 725 
Q 4725 4575 4700 5150 
L 5300 4850 
L 5075 4675 
z
M 3375 4475 
Q 3375 3475 3400 3125 
L 3025 3000 
L 3025 3250 
L 1525 3250 
L 1275 2150 
L 3125 2150 
L 3325 2400 
L 3750 2050 
L 3500 1900 
Q 3375 1125 3225 575 
Q 3075 25 2850 -187 
Q 2625 -400 2250 -475 
Q 2275 -125 1600 125 
L 1600 225 
Q 2125 125 2350 112 
Q 2575 100 2675 225 
Q 2775 350 2900 787 
Q 3025 1225 3150 2000 
L 1275 2000 
L 1100 1775 
L 725 2125 
Q 925 2200 1025 2575 
Q 1125 2950 1200 3675 
L 1575 3400 
L 3025 3400 
L 3025 4550 
L 1650 4550 
Q 1325 4550 1050 4475 
L 825 4700 
L 3000 4700 
L 3175 4950 
L 3575 4650 
L 3375 4475 
z
" transform="scale(0.015625)"/>
       <path id="SimSun-88c5" d="M 700 4725 
Q 1375 4450 1462 4325 
Q 1550 4200 1550 4125 
Q 1550 4025 1475 3887 
Q 1400 3750 1350 3750 
Q 1275 3750 1200 3925 
Q 1075 4225 650 4675 
L 700 4725 
z
M 2250 4775 
L 2250 2200 
L 1900 1975 
Q 1925 2600 1925 3475 
Q 1400 3150 1062 2887 
Q 725 2625 700 2475 
L 350 2900 
Q 775 3025 1925 3625 
Q 1925 4900 1900 5250 
L 2475 4925 
L 2250 4775 
z
M 2375 4000 
L 3900 4000 
Q 3900 4850 3875 5175 
L 4450 4925 
L 4225 4750 
L 4225 4000 
L 5125 4000 
L 5475 4350 
L 5950 3850 
L 4225 3850 
L 4225 2800 
L 4900 2800 
L 5250 3100 
L 5700 2650 
L 3475 2650 
Q 3150 2650 2875 2575 
L 2650 2800 
L 3900 2800 
L 3900 3850 
L 3200 3850 
Q 2875 3850 2600 3775 
L 2375 4000 
z
M 3125 1800 
Q 3125 2100 2650 2525 
L 2700 2575 
Q 3300 2375 3387 2250 
Q 3475 2125 3475 2050 
Q 3475 1950 3350 1800 
L 5050 1800 
L 5475 2175 
L 6000 1650 
L 3325 1650 
Q 3600 1225 4150 675 
Q 4775 1225 5000 1625 
L 5425 1200 
Q 5225 1175 4987 1050 
Q 4750 925 4250 600 
Q 4550 350 5037 162 
Q 5525 -25 6100 -75 
L 6100 -175 
Q 5675 -250 5550 -550 
Q 4825 -250 4262 212 
Q 3700 675 3175 1650 
Q 2825 1325 2450 1025 
L 2450 -25 
L 3750 375 
L 3800 300 
Q 2450 -300 2300 -625 
L 2000 -200 
Q 2150 -75 2125 75 
L 2125 800 
Q 1325 300 275 0 
L 250 75 
Q 1725 700 2725 1650 
L 1200 1650 
Q 875 1650 600 1575 
L 375 1800 
L 3125 1800 
z
" transform="scale(0.015625)"/>
       <path id="SimSun-8f7d" d="M 1850 5200 
L 2375 5000 
L 2200 4825 
L 2200 4325 
L 2675 4325 
L 2975 4600 
L 3400 4175 
L 2200 4175 
L 2200 3525 
L 3700 3525 
Q 3675 4525 3650 5200 
L 4200 4950 
L 4000 4775 
Q 4000 3950 4025 3525 
L 5250 3525 
L 5625 3850 
L 6100 3375 
L 4050 3375 
Q 4125 2300 4425 1400 
Q 4925 2200 5175 3075 
L 5650 2750 
L 5450 2575 
Q 5075 1775 4575 1050 
Q 4950 350 5650 -50 
L 5875 1050 
L 5975 1025 
Q 5925 350 5950 25 
Q 5975 -300 6075 -500 
Q 6125 -625 6025 -625 
Q 5975 -625 5775 -562 
Q 5575 -500 5125 -150 
Q 4675 200 4350 775 
Q 3575 -125 2625 -600 
L 2575 -525 
Q 3575 175 4175 1075 
Q 3825 1950 3725 3375 
L 1100 3375 
Q 775 3375 500 3300 
L 275 3525 
L 1875 3525 
L 1875 4175 
L 1525 4175 
Q 1200 4175 925 4100 
L 700 4325 
L 1875 4325 
Q 1875 4800 1850 5200 
z
M 4500 4850 
Q 5000 4650 5212 4512 
Q 5425 4375 5400 4187 
Q 5375 4000 5300 3925 
Q 5225 3850 5200 3850 
Q 5125 3850 5025 4050 
Q 4900 4325 4450 4775 
L 4500 4850 
z
M 500 525 
Q 850 550 1975 725 
L 1975 1400 
L 1150 1400 
L 975 1250 
L 700 1575 
Q 900 1575 1350 2450 
L 1150 2450 
Q 850 2450 575 2375 
L 350 2600 
L 1425 2600 
Q 1625 3025 1700 3300 
L 2150 3025 
L 1975 2950 
Q 1900 2850 1775 2600 
L 2700 2600 
L 3025 2900 
L 3425 2450 
L 1700 2450 
L 1175 1550 
L 1975 1550 
Q 1975 1925 1950 2300 
L 2450 2075 
L 2300 1900 
L 2300 1550 
L 2800 1550 
L 3075 1850 
L 3475 1400 
L 2300 1400 
L 2300 775 
L 3400 925 
L 3425 850 
L 2300 575 
Q 2300 -50 2325 -400 
L 1950 -550 
Q 1975 225 1975 500 
Q 850 275 725 100 
L 500 525 
z
" transform="scale(0.015625)"/>
       <path id="SimSun-7387" d="M 875 3725 
L 925 3800 
Q 1375 3650 1550 3525 
Q 1725 3400 1725 3250 
Q 1725 3175 1662 3025 
Q 1600 2875 1550 2875 
Q 1500 2875 1425 3050 
Q 1275 3325 875 3725 
z
M 550 1850 
Q 875 1925 2000 2575 
L 2050 2500 
Q 1675 2225 1337 1937 
Q 1000 1650 875 1425 
L 550 1850 
z
M 5200 3450 
Q 4800 3150 4275 2800 
L 4225 2875 
Q 4775 3400 5050 3925 
L 5450 3525 
L 5200 3450 
z
M 4325 2500 
L 4350 2575 
Q 5225 2350 5375 2212 
Q 5525 2075 5525 1900 
Q 5525 1775 5487 1662 
Q 5450 1550 5400 1550 
Q 5325 1550 5200 1800 
Q 4975 2150 4325 2500 
z
M 3150 3900 
Q 2500 3300 2300 3150 
Q 2800 3150 3400 3175 
Q 3700 3500 3850 3825 
L 4250 3450 
Q 4050 3400 3450 2825 
Q 2850 2250 2475 1950 
Q 3150 1975 3850 2000 
Q 3750 2175 3550 2450 
L 3600 2500 
Q 4050 2250 4200 2100 
Q 4350 1950 4350 1850 
Q 4350 1775 4250 1625 
Q 4150 1475 4100 1475 
Q 4075 1475 4050 1550 
Q 4000 1700 3900 1900 
Q 3650 1875 3075 1800 
L 3500 1550 
L 3325 1425 
L 3325 975 
L 5325 975 
L 5650 1300 
L 6100 825 
L 3325 825 
Q 3325 -275 3350 -525 
L 2975 -650 
Q 3000 0 3000 825 
L 1125 825 
Q 800 825 525 750 
L 300 975 
L 3000 975 
L 3000 1775 
Q 2450 1700 2200 1525 
L 1950 1950 
Q 2275 1950 2675 2350 
Q 3075 2750 3325 3050 
Q 2400 2950 2150 2775 
L 1950 3175 
Q 2150 3150 2475 3575 
Q 2800 4000 2900 4225 
L 1450 4225 
Q 1125 4225 850 4150 
L 625 4375 
L 3100 4375 
Q 3050 4800 2675 5200 
L 2725 5250 
Q 3225 5050 3337 4912 
Q 3450 4775 3450 4700 
Q 3450 4550 3250 4375 
L 5025 4375 
L 5350 4675 
L 5775 4225 
L 3050 4225 
L 3375 3950 
L 3150 3900 
z
" transform="scale(0.015625)"/>
       <path id="SimSun-20" d="M 0 0 
Q 0 0 0 0 
z
" transform="scale(0.015625)"/>
       <path id="STIXGeneral-Regular-28" d="M 1946 -1030 
L 1869 -1133 
Q 1126 -710 716 32 
Q 307 774 307 1613 
Q 307 3386 1888 4326 
L 1946 4224 
Q 1293 3667 1075 3126 
Q 858 2586 858 1632 
Q 858 685 1082 96 
Q 1306 -493 1946 -1030 
z
" transform="scale(0.015625)"/>
       <path id="STIXGeneral-Regular-25" d="M 4390 1363 
Q 4390 781 4070 329 
Q 3750 -122 3341 -122 
Q 3014 -122 2790 134 
Q 2566 390 2566 762 
Q 2566 1274 2940 1693 
Q 3315 2112 3776 2112 
Q 4070 2112 4230 1917 
Q 4390 1722 4390 1363 
z
M 4243 1376 
Q 4243 1626 4131 1779 
Q 4019 1933 3840 1933 
Q 3654 1933 3526 1786 
Q 3315 1562 3171 1187 
Q 3027 813 3027 486 
Q 3027 301 3129 176 
Q 3232 51 3386 51 
Q 3718 51 3980 457 
Q 4243 864 4243 1376 
z
M 3974 4518 
L 1222 -115 
L 922 -115 
L 3443 4096 
Q 3264 3891 3094 3811 
Q 2925 3731 2669 3731 
Q 2445 3731 2182 3821 
Q 2208 3674 2208 3539 
Q 2208 3206 2067 2873 
Q 1926 2541 1696 2323 
Q 1453 2086 1146 2086 
Q 826 2086 608 2339 
Q 390 2592 390 2963 
Q 390 3507 761 3916 
Q 1133 4326 1626 4326 
Q 1792 4326 2010 4147 
Q 2310 3898 2624 3898 
Q 2918 3898 3084 3994 
Q 3251 4090 3693 4518 
L 3974 4518 
z
M 2054 3642 
Q 2054 3782 2025 3833 
Q 1997 3885 1894 3936 
Q 1747 4006 1613 4154 
Q 1414 4058 1331 3984 
Q 1248 3910 1152 3750 
Q 845 3264 845 2707 
Q 845 2509 944 2384 
Q 1043 2259 1210 2259 
Q 1549 2259 1801 2675 
Q 2054 3091 2054 3642 
z
" transform="scale(0.015625)"/>
       <path id="STIXGeneral-Regular-29" d="M 186 4224 
L 262 4326 
Q 992 3891 1408 3148 
Q 1824 2406 1824 1581 
Q 1824 -166 243 -1133 
L 186 -1030 
Q 845 -486 1059 54 
Q 1274 595 1274 1562 
Q 1274 2534 1059 3120 
Q 845 3706 186 4224 
z
" transform="scale(0.015625)"/>
      </defs>
      <use xlink:href="#SimSun-7d22" transform="translate(0 0.578125)"/>
      <use xlink:href="#SimSun-5f15" transform="translate(100 0.578125)"/>
      <use xlink:href="#SimSun-88c5" transform="translate(200 0.578125)"/>
      <use xlink:href="#SimSun-8f7d" transform="translate(300 0.578125)"/>
      <use xlink:href="#SimSun-7387" transform="translate(400 0.578125)"/>
      <use xlink:href="#SimSun-20" transform="translate(500 0.578125)"/>
      <use xlink:href="#STIXGeneral-Regular-28" transform="translate(550 0.578125)"/>
      <use xlink:href="#STIXGeneral-Regular-25" transform="translate(583.299988 0.578125)"/>
      <use xlink:href="#STIXGeneral-Regular-29" transform="translate(657.999969 0.578125)"/>
     </g>
    </g>
   </g>
   <g id="matplotlib.axis_2">
    <g id="ytick_1">
     <g id="line2d_12">
      <defs>
       <path id="m7aeffbf45b" d="M 0 0 
L -3.5 0 
" style="stroke: #000000; stroke-width: 0.8"/>
      </defs>
      <g>
       <use xlink:href="#m7aeffbf45b" x="115.2" y="461.376" style="stroke: #000000; stroke-width: 0.8"/>
      </g>
     </g>
     <g id="text_13">
      <!-- 0 -->
      <g transform="translate(98.7 468.167016) scale(0.19 -0.19)">
       <use xlink:href="#SimSun-30"/>
      </g>
     </g>
    </g>
    <g id="ytick_2">
     <g id="line2d_13">
      <g>
       <use xlink:href="#m7aeffbf45b" x="115.2" y="428.112" style="stroke: #000000; stroke-width: 0.8"/>
      </g>
     </g>
     <g id="text_14">
      <!-- 0.5 -->
      <g transform="translate(79.7 434.903016) scale(0.19 -0.19)">
       <defs>
        <path id="SimSun-2e" d="M 800 25 
Q 650 25 537 125 
Q 425 225 425 400 
Q 425 575 537 675 
Q 650 775 800 775 
Q 950 775 1062 662 
Q 1175 550 1175 400 
Q 1175 225 1062 125 
Q 950 25 800 25 
z
" transform="scale(0.015625)"/>
       </defs>
       <use xlink:href="#SimSun-30"/>
       <use xlink:href="#SimSun-2e" x="50"/>
       <use xlink:href="#SimSun-35" x="100"/>
      </g>
     </g>
    </g>
    <g id="ytick_3">
     <g id="line2d_14">
      <g>
       <use xlink:href="#m7aeffbf45b" x="115.2" y="394.848" style="stroke: #000000; stroke-width: 0.8"/>
      </g>
     </g>
     <g id="text_15">
      <!-- 1.0 -->
      <g transform="translate(79.7 401.639016) scale(0.19 -0.19)">
       <use xlink:href="#SimSun-31"/>
       <use xlink:href="#SimSun-2e" x="50"/>
       <use xlink:href="#SimSun-30" x="100"/>
      </g>
     </g>
    </g>
    <g id="ytick_4">
     <g id="line2d_15">
      <g>
       <use xlink:href="#m7aeffbf45b" x="115.2" y="361.584" style="stroke: #000000; stroke-width: 0.8"/>
      </g>
     </g>
     <g id="text_16">
      <!-- 1.5 -->
      <g transform="translate(79.7 368.375016) scale(0.19 -0.19)">
       <use xlink:href="#SimSun-31"/>
       <use xlink:href="#SimSun-2e" x="50"/>
       <use xlink:href="#SimSun-35" x="100"/>
      </g>
     </g>
    </g>
    <g id="ytick_5">
     <g id="line2d_16">
      <g>
       <use xlink:href="#m7aeffbf45b" x="115.2" y="328.32" style="stroke: #000000; stroke-width: 0.8"/>
      </g>
     </g>
     <g id="text_17">
      <!-- 2.0 -->
      <g transform="translate(79.7 335.111016) scale(0.19 -0.19)">
       <use xlink:href="#SimSun-32"/>
       <use xlink:href="#SimSun-2e" x="50"/>
       <use xlink:href="#SimSun-30" x="100"/>
      </g>
     </g>
    </g>
    <g id="ytick_6">
     <g id="line2d_17">
      <g>
       <use xlink:href="#m7aeffbf45b" x="115.2" y="295.056" style="stroke: #000000; stroke-width: 0.8"/>
      </g>
     </g>
     <g id="text_18">
      <!-- 2.5 -->
      <g transform="translate(79.7 301.847016) scale(0.19 -0.19)">
       <use xlink:href="#SimSun-32"/>
       <use xlink:href="#SimSun-2e" x="50"/>
       <use xlink:href="#SimSun-35" x="100"/>
      </g>
     </g>
    </g>
    <g id="ytick_7">
     <g id="line2d_18">
      <g>
       <use xlink:href="#m7aeffbf45b" x="115.2" y="261.792" style="stroke: #000000; stroke-width: 0.8"/>
      </g>
     </g>
     <g id="text_19">
      <!-- 3.0 -->
      <g transform="translate(79.7 268.583016) scale(0.19 -0.19)">
       <use xlink:href="#SimSun-33"/>
       <use xlink:href="#SimSun-2e" x="50"/>
       <use xlink:href="#SimSun-30" x="100"/>
      </g>
     </g>
    </g>
    <g id="ytick_8">
     <g id="line2d_19">
      <g>
       <use xlink:href="#m7aeffbf45b" x="115.2" y="228.528" style="stroke: #000000; stroke-width: 0.8"/>
      </g>
     </g>
     <g id="text_20">
      <!-- 3.5 -->
      <g transform="translate(79.7 235.319016) scale(0.19 -0.19)">
       <use xlink:href="#SimSun-33"/>
       <use xlink:href="#SimSun-2e" x="50"/>
       <use xlink:href="#SimSun-35" x="100"/>
      </g>
     </g>
    </g>
    <g id="ytick_9">
     <g id="line2d_20">
      <g>
       <use xlink:href="#m7aeffbf45b" x="115.2" y="195.264" style="stroke: #000000; stroke-width: 0.8"/>
      </g>
     </g>
     <g id="text_21">
      <!-- 4.0 -->
      <g transform="translate(79.7 202.055016) scale(0.19 -0.19)">
       <use xlink:href="#SimSun-34"/>
       <use xlink:href="#SimSun-2e" x="50"/>
       <use xlink:href="#SimSun-30" x="100"/>
      </g>
     </g>
    </g>
    <g id="ytick_10">
     <g id="line2d_21">
      <g>
       <use xlink:href="#m7aeffbf45b" x="115.2" y="162" style="stroke: #000000; stroke-width: 0.8"/>
      </g>
     </g>
     <g id="text_22">
      <!-- 4.5 -->
      <g transform="translate(79.7 168.791016) scale(0.19 -0.19)">
       <use xlink:href="#SimSun-34"/>
       <use xlink:href="#SimSun-2e" x="50"/>
       <use xlink:href="#SimSun-35" x="100"/>
      </g>
     </g>
    </g>
    <g id="ytick_11">
     <g id="line2d_22">
      <g>
       <use xlink:href="#m7aeffbf45b" x="115.2" y="128.736" style="stroke: #000000; stroke-width: 0.8"/>
      </g>
     </g>
     <g id="text_23">
      <!-- 5.0 -->
      <g transform="translate(79.7 135.527016) scale(0.19 -0.19)">
       <use xlink:href="#SimSun-35"/>
       <use xlink:href="#SimSun-2e" x="50"/>
       <use xlink:href="#SimSun-30" x="100"/>
      </g>
     </g>
    </g>
    <g id="ytick_12">
     <g id="line2d_23">
      <g>
       <use xlink:href="#m7aeffbf45b" x="115.2" y="95.472" style="stroke: #000000; stroke-width: 0.8"/>
      </g>
     </g>
     <g id="text_24">
      <!-- 5.5 -->
      <g transform="translate(79.7 102.263016) scale(0.19 -0.19)">
       <use xlink:href="#SimSun-35"/>
       <use xlink:href="#SimSun-2e" x="50"/>
       <use xlink:href="#SimSun-35" x="100"/>
      </g>
     </g>
    </g>
    <g id="ytick_13">
     <g id="line2d_24">
      <g>
       <use xlink:href="#m7aeffbf45b" x="115.2" y="62.208" style="stroke: #000000; stroke-width: 0.8"/>
      </g>
     </g>
     <g id="text_25">
      <!-- 6.0 -->
      <g transform="translate(79.7 68.999016) scale(0.19 -0.19)">
       <use xlink:href="#SimSun-36"/>
       <use xlink:href="#SimSun-2e" x="50"/>
       <use xlink:href="#SimSun-30" x="100"/>
      </g>
     </g>
    </g>
    <g id="text_26">
     <!-- 吞吐量 $\mathrm{(Mops)}$ -->
     <g transform="translate(71.52 323.067) rotate(-90) scale(0.19 -0.19)">
      <defs>
       <path id="SimSun-541e" d="M 2200 1700 
L 2200 75 
L 4200 75 
L 4200 1700 
L 2200 1700 
z
M 1025 4675 
L 4550 4675 
L 4875 5000 
L 5350 4525 
L 3300 4525 
Q 3150 4025 2900 3375 
L 5075 3375 
L 5450 3750 
L 5975 3225 
L 3700 3225 
Q 3925 2925 4312 2587 
Q 4700 2250 5225 2037 
Q 5750 1825 6100 1800 
L 6100 1700 
Q 5700 1675 5575 1375 
Q 4600 1900 4137 2437 
Q 3675 2975 3575 3225 
L 2825 3225 
Q 2425 2575 1950 2075 
L 2200 1850 
L 4175 1850 
L 4325 2100 
L 4750 1775 
L 4550 1600 
L 4550 375 
Q 4550 -50 4575 -375 
L 4200 -500 
L 4200 -75 
L 2200 -75 
L 2200 -450 
L 1825 -575 
Q 1850 175 1850 625 
L 1850 2000 
Q 1175 1400 375 1075 
L 325 1150 
Q 1075 1575 1600 2100 
Q 2125 2625 2450 3225 
L 1225 3225 
Q 900 3225 625 3150 
L 400 3375 
L 2525 3375 
Q 2800 4025 2900 4525 
L 1850 4525 
Q 1525 4525 1250 4450 
L 1025 4675 
z
" transform="scale(0.015625)"/>
       <path id="SimSun-5410" d="M 3775 3000 
L 3775 3750 
Q 3775 4400 3750 5175 
L 4350 4900 
L 4125 4700 
L 4125 3000 
L 4925 3000 
L 5250 3325 
L 5725 2850 
L 4125 2850 
L 4125 75 
L 5225 75 
L 5575 425 
L 6075 -75 
L 2675 -75 
Q 2350 -75 2075 -150 
L 1850 75 
L 3775 75 
L 3775 2850 
L 3225 2850 
Q 2900 2850 2625 2775 
L 2400 3000 
L 3775 3000 
z
M 575 4250 
L 950 4025 
L 1875 4025 
L 2050 4275 
L 2450 3950 
L 2250 3800 
L 2250 1950 
Q 2250 1375 2275 950 
L 1900 775 
L 1900 1225 
L 950 1225 
L 950 600 
L 575 425 
Q 600 1075 600 2375 
Q 600 3675 575 4250 
z
M 950 3875 
L 950 1375 
L 1900 1375 
L 1900 3875 
L 950 3875 
z
" transform="scale(0.015625)"/>
       <path id="SimSun-91cf" d="M 1700 2400 
L 1700 1875 
L 3025 1875 
L 3025 2400 
L 1700 2400 
z
M 3350 2400 
L 3350 1875 
L 4625 1875 
L 4625 2400 
L 3350 2400 
z
M 1700 1725 
L 1700 1225 
L 3025 1225 
L 3025 1725 
L 1700 1725 
z
M 3350 1725 
L 3350 1225 
L 4625 1225 
L 4625 1725 
L 3350 1725 
z
M 4950 2325 
Q 4950 1350 4975 1025 
L 4625 875 
L 4625 1075 
L 3350 1075 
L 3350 525 
L 4700 525 
L 5050 825 
L 5450 375 
L 3350 375 
L 3350 -225 
L 5275 -225 
L 5650 125 
L 6075 -375 
L 1175 -375 
Q 850 -375 575 -450 
L 350 -225 
L 3025 -225 
L 3025 375 
L 1725 375 
Q 1400 375 1125 300 
L 900 525 
L 3025 525 
L 3025 1075 
L 1700 1075 
L 1700 925 
L 1350 800 
Q 1375 1300 1375 1787 
Q 1375 2275 1350 2750 
L 1700 2550 
L 4600 2550 
L 4750 2750 
L 5125 2475 
L 4950 2325 
z
M 1775 4800 
L 1775 4375 
L 4550 4375 
L 4550 4800 
L 1775 4800 
z
M 1775 4225 
L 1775 3775 
L 4550 3775 
L 4550 4225 
L 1775 4225 
z
M 4875 4750 
Q 4875 3825 4900 3525 
L 4550 3375 
L 4550 3625 
L 1775 3625 
L 1775 3400 
L 1425 3250 
Q 1450 3650 1450 4262 
Q 1450 4875 1425 5125 
L 1800 4950 
L 4500 4950 
L 4650 5175 
L 5050 4900 
L 4875 4750 
z
M 250 3125 
L 5375 3125 
L 5725 3450 
L 6150 2975 
L 950 2975 
Q 750 2975 475 2900 
L 250 3125 
z
" transform="scale(0.015625)"/>
       <path id="STIXGeneral-Regular-4d" d="M 5530 0 
L 3738 0 
L 3738 122 
Q 4115 147 4214 265 
Q 4314 384 4314 787 
L 4314 3661 
L 2682 0 
L 2592 0 
L 979 3514 
L 979 966 
Q 979 448 1088 294 
Q 1197 141 1574 122 
L 1574 0 
L 77 0 
L 77 122 
Q 358 141 480 205 
Q 602 269 650 432 
Q 698 595 698 966 
L 698 3514 
Q 698 3878 589 3984 
Q 480 4090 90 4115 
L 90 4237 
L 1357 4237 
L 2835 1024 
L 4250 4237 
L 5523 4237 
L 5523 4115 
Q 5178 4109 5072 3993 
Q 4966 3878 4966 3520 
L 4966 717 
Q 4966 378 5072 262 
Q 5178 147 5530 122 
L 5530 0 
z
" transform="scale(0.015625)"/>
       <path id="STIXGeneral-Regular-6f" d="M 3008 1478 
Q 3008 806 2608 371 
Q 2208 -64 1568 -64 
Q 979 -64 582 368 
Q 186 800 186 1459 
Q 186 2125 582 2534 
Q 979 2944 1626 2944 
Q 2221 2944 2614 2537 
Q 3008 2131 3008 1478 
z
M 2432 1306 
Q 2432 2035 2112 2445 
Q 1856 2765 1504 2765 
Q 1171 2765 966 2493 
Q 762 2221 762 1747 
Q 762 928 1101 435 
Q 1318 115 1677 115 
Q 2029 115 2230 432 
Q 2432 749 2432 1306 
z
" transform="scale(0.015625)"/>
       <path id="STIXGeneral-Regular-70" d="M 1018 2931 
L 1018 2438 
Q 1421 2944 1939 2944 
Q 2406 2944 2707 2560 
Q 3008 2176 3008 1581 
Q 3008 883 2621 409 
Q 2234 -64 1664 -64 
Q 1466 -64 1328 -6 
Q 1190 51 1018 211 
L 1018 -794 
Q 1018 -1094 1120 -1180 
Q 1222 -1267 1581 -1274 
L 1581 -1389 
L 32 -1389 
L 32 -1280 
Q 314 -1254 397 -1171 
Q 480 -1088 480 -838 
L 480 2157 
Q 480 2381 429 2451 
Q 378 2522 218 2522 
Q 115 2522 58 2515 
L 58 2618 
Q 506 2752 979 2944 
L 1018 2931 
z
M 1018 2138 
L 1018 563 
Q 1018 422 1238 281 
Q 1459 141 1683 141 
Q 2029 141 2243 467 
Q 2458 794 2458 1325 
Q 2458 1888 2243 2224 
Q 2029 2560 1670 2560 
Q 1446 2560 1232 2419 
Q 1018 2278 1018 2138 
z
" transform="scale(0.015625)"/>
       <path id="STIXGeneral-Regular-73" d="M 998 1926 
L 1664 1523 
Q 1984 1331 2105 1164 
Q 2227 998 2227 736 
Q 2227 416 1961 176 
Q 1696 -64 1331 -64 
Q 1030 -64 864 -6 
Q 691 51 570 51 
Q 461 51 416 -26 
L 333 -26 
L 333 979 
L 435 979 
Q 538 512 730 294 
Q 922 77 1248 77 
Q 1485 77 1632 211 
Q 1779 346 1779 550 
Q 1779 845 1440 1030 
L 1094 1222 
Q 326 1651 326 2150 
Q 326 2522 566 2730 
Q 806 2938 1210 2938 
Q 1491 2938 1638 2867 
Q 1754 2816 1818 2816 
Q 1862 2816 1920 2880 
L 1990 2880 
L 2022 2010 
L 1926 2010 
Q 1818 2445 1654 2621 
Q 1491 2797 1203 2797 
Q 986 2797 854 2688 
Q 723 2579 723 2362 
Q 723 2253 796 2128 
Q 870 2003 998 1926 
z
" transform="scale(0.015625)"/>
      </defs>
      <use xlink:href="#SimSun-541e" transform="translate(0 0.140625)"/>
      <use xlink:href="#SimSun-5410" transform="translate(100 0.140625)"/>
      <use xlink:href="#SimSun-91cf" transform="translate(200 0.140625)"/>
      <use xlink:href="#SimSun-20" transform="translate(300 0.140625)"/>
      <use xlink:href="#STIXGeneral-Regular-28" transform="translate(350 0.140625)"/>
      <use xlink:href="#STIXGeneral-Regular-4d" transform="translate(383.299988 0.140625)"/>
      <use xlink:href="#STIXGeneral-Regular-6f" transform="translate(472.199982 0.140625)"/>
      <use xlink:href="#STIXGeneral-Regular-70" transform="translate(522.199966 0.140625)"/>
      <use xlink:href="#STIXGeneral-Regular-73" transform="translate(572.199951 0.140625)"/>
      <use xlink:href="#STIXGeneral-Regular-29" transform="translate(611.099945 0.140625)"/>
     </g>
    </g>
   </g>
   <g id="line2d_25">
    <path d="M 115.582118 456.817056 
L 116.719903 446.403069 
L 117.999107 437.691852 
L 119.090465 442.137193 
L 120.164682 442.099825 
L 121.225329 442.187994 
L 122.287404 442.052004 
L 123.337336 442.18514 
L 124.380127 442.115219 
L 125.422917 442.179492 
L 127.499213 442.050248 
L 128.537718 442.086406 
L 129.571223 442.297227 
L 130.6033 442.004164 
L 131.638234 442.204373 
L 132.667453 442.098747 
L 133.695959 442.308822 
L 134.721608 442.022745 
L 135.747256 442.209902 
L 136.771476 442.056255 
L 137.797839 442.314624 
L 138.826345 442.112359 
L 141.908291 442.174562 
L 142.940367 442.195146 
L 143.971016 442.087337 
L 147.066532 442.203615 
L 149.132114 442.104515 
L 152.237629 442.156487 
L 155.351716 442.182672 
L 156.389507 442.024462 
L 157.426583 442.224119 
L 159.510021 442.135324 
L 160.557097 442.079753 
L 162.642678 442.163259 
L 167.850916 442.114774 
L 168.891564 442.193782 
L 169.93364 442.038925 
L 170.978573 442.18685 
L 173.068439 442.123096 
L 178.293105 442.170311 
L 179.341609 442.113463 
L 180.389399 442.190935 
L 181.437189 442.122418 
L 182.484979 442.566632 
L 183.532055 441.736362 
L 184.577702 442.216801 
L 187.715359 442.133361 
L 188.764577 442.219329 
L 190.8573 442.058384 
L 192.955023 442.183663 
L 196.104822 442.035153 
L 197.149755 442.200082 
L 200.303839 442.052936 
L 201.3502 442.150333 
L 204.502856 442.0991 
L 206.602007 442.16302 
L 207.65194 442.040774 
L 208.69973 442.189145 
L 209.748948 442.104714 
L 210.798167 442.1691 
L 211.848814 441.988211 
L 212.898033 442.125731 
L 214.99647 442.131818 
L 218.147697 442.212024 
L 219.199772 442.002634 
L 220.251848 442.179625 
L 222.353856 442.134778 
L 223.400932 442.209403 
L 224.453007 442.021428 
L 225.500083 442.218511 
L 226.548588 442.038532 
L 227.594949 442.12136 
L 228.647025 442.072335 
L 230.744033 442.169692 
L 232.840328 442.110383 
L 234.940908 442.1179 
L 235.99084 442.045578 
L 237.04363 442.195924 
L 239.147067 442.054865 
L 242.298294 442.118067 
L 246.495168 442.059289 
L 247.54153 442.14352 
L 248.590748 442.057885 
L 252.790479 442.191866 
L 253.838984 442.065596 
L 254.888916 442.196383 
L 255.940278 442.073466 
L 260.133581 442.157371 
L 261.185656 442.01419 
L 262.231304 442.326432 
L 263.280522 442.057553 
L 265.376102 442.170238 
L 268.51733 442.064179 
L 269.56512 442.192285 
L 273.746995 442.125777 
L 275.84329 442.123981 
L 276.89108 442.047733 
L 280.036593 442.159494 
L 281.082954 442.051053 
L 282.130744 442.167131 
L 284.233467 442.088561 
L 287.376123 442.189311 
L 288.423913 442.034541 
L 289.47456 442.214386 
L 290.523064 442.061791 
L 292.614359 442.126689 
L 293.666435 442.066953 
L 294.712796 442.168741 
L 296.808376 442.086606 
L 299.944604 442.235475 
L 300.995251 442.018541 
L 302.041613 442.126456 
L 303.086546 442.085049 
L 304.126479 442.2077 
L 305.172127 442.116077 
L 307.258422 442.307246 
L 308.304783 442.138318 
L 309.347574 442.234398 
L 310.395364 442.045611 
L 312.486659 442.245401 
L 313.53302 442.064578 
L 314.575811 442.154537 
L 316.66282 442.164989 
L 318.755543 442.149162 
L 320.839695 442.16582 
L 321.879629 442.307472 
L 322.92599 442.072947 
L 325.012285 442.180942 
L 326.060076 442.119191 
L 327.104294 442.245894 
L 328.149942 442.042444 
L 329.192018 442.221624 
L 333.361751 442.104555 
L 334.402399 442.219183 
L 335.445189 442.072748 
L 337.52577 442.222389 
L 338.57356 442.114927 
L 339.611351 442.165907 
L 340.65557 442.056588 
L 341.694789 442.203622 
L 342.729723 442.235548 
L 343.771085 442.05742 
L 344.807447 442.194348 
L 345.848095 442.089786 
L 347.92439 442.199171 
L 348.964324 442.128831 
L 350.003543 442.204926 
L 351.044905 442.046862 
L 352.084124 442.193895 
L 358.308726 442.146228 
L 360.383593 442.200076 
L 362.457746 442.185546 
L 368.68449 442.102825 
L 370.755786 442.23179 
L 371.79572 442.046988 
L 374.906235 442.181914 
L 375.939026 442.105307 
L 378.008893 442.191247 
L 379.047398 442.006572 
L 380.08876 442.160551 
L 382.157199 442.167623 
L 383.185705 442.241622 
L 384.227067 442.066448 
L 385.263429 442.198213 
L 387.331154 442.091954 
L 388.363231 442.187083 
L 389.396022 442.135597 
L 390.430241 442.200096 
L 391.461604 442.131998 
L 392.492252 442.183424 
L 393.528614 442.038147 
L 394.560691 442.202724 
L 396.626273 442.115898 
L 399.723932 442.194308 
L 401.784515 442.070406 
L 403.848668 442.167796 
L 406.930614 442.169679 
L 412.067428 442.169479 
L 419.251968 442.089579 
L 420.279759 442.236234 
L 421.306836 442.092354 
L 425.406574 442.187036 
L 426.432223 442.121107 
L 428.479235 442.173305 
L 429.50274 442.188986 
L 430.528389 442.088096 
L 432.576115 442.18663 
L 433.60105 442.030483 
L 434.627412 442.220912 
L 436.662282 442.125411 
L 446.860915 442.297965 
L 447.874422 442.087271 
L 451.94059 442.202251 
L 453.973317 442.014988 
L 454.993252 442.299489 
L 456.011044 442.091382 
L 458.044485 442.133115 
L 459.061563 442.038446 
L 460.077212 442.17071 
L 463.122017 442.135643 
L 464.138381 442.069734 
L 465.151887 442.240944 
L 467.1789 442.118153 
L 481.330852 442.082474 
L 482.337216 442.257024 
L 483.347866 442.049064 
L 484.356372 442.166472 
L 509.457623 442.082035 
L 510.453274 442.288678 
L 511.447496 442.141677 
L 518.409907 442.21861 
L 519.406986 442.077737 
L 520.400494 442.307019 
L 521.396859 442.05086 
L 522.390367 442.245641 
L 523.380303 442.07952 
L 524.37524 442.208066 
L 526.365112 442.13384 
L 528.3507 442.160212 
L 545.156767 442.100756 
L 546.146703 442.18212 
L 547.130212 442.105639 
L 549.0958 442.165368 
L 550.080023 442.053475 
L 552.040612 442.131452 
L 556.943155 442.07952 
L 557.923807 442.214645 
L 561.843556 442.059682 
L 562.822065 442.176425 
L 565.760448 442.104255 
L 567.713894 442.185972 
L 568.689546 442.018987 
L 569.666627 442.203276 
L 571.617216 442.120182 
L 573.564234 442.222196 
L 577.452557 442.102546 
L 578.42678 442.184947 
L 580.365942 442.151078 
L 582.299389 442.172826 
L 583.26647 442.066208 
L 588.105446 442.159401 
L 589.072527 442.078516 
L 590.038894 442.163891 
L 591.008118 442.08584 
L 592.939423 442.179745 
L 595.833523 442.064246 
L 596.797033 442.219322 
L 597.759828 442.093238 
L 598.722624 442.171249 
L 599.686134 442.034574 
L 600.651786 442.113629 
L 601.607439 442.340543 
L 602.569521 442.147066 
L 604.489398 442.128711 
L 605.450051 442.192132 
L 606.412846 442.042105 
L 608.324867 442.234491 
L 609.283377 442.080485 
L 610.238316 442.142023 
L 611.198968 442.040768 
L 612.154621 442.197714 
L 613.110989 442.015194 
L 614.070213 442.189604 
L 615.024438 442.097383 
L 618.805624 442.232335 
L 619.746993 442.073579 
L 621.627587 442.131732 
L 622.568241 442.124939 
L 623.508895 442.23497 
L 624.449549 442.013032 
L 625.388774 442.194787 
L 626.330143 442.090231 
L 630.07776 442.126176 
L 631.013414 442.077445 
L 631.946926 442.198373 
L 632.884723 442.061691 
L 633.815378 442.151357 
L 637.542996 442.101448 
L 638.467937 442.158888 
L 639.399306 442.088455 
L 640.327818 442.247184 
L 641.25633 442.042185 
L 643.111212 442.144472 
L 650.495025 442.176997 
L 651.414966 442.069129 
L 652.339192 442.179166 
L 653.256276 442.084364 
L 659.669437 442.163026 
L 660.58295 442.082727 
L 661.493606 442.16626 
L 663.317061 442.122477 
L 665.139087 442.126556 
L 667.857485 442.095028 
L 678.658222 442.026138 
L 679.552451 442.164976 
L 680.445965 442.073752 
L 682.232279 442.110409 
L 684.010022 442.13708 
L 685.784909 442.087876 
L 714.31594 442.175041 
L 715.153029 441.934296 
L 715.990118 442.140566 
L 716.825065 442.051306 
L 717.65644 442.126476 
L 718.486387 442.072408 
L 719.314906 442.131924 
L 720.9698 442.059349 
L 723.426785 442.133368 
L 724.238876 442.018108 
L 725.054538 442.125358 
L 725.866629 442.047201 
L 726.675149 442.131885 
L 727.480812 442.021648 
L 728.28576 442.129396 
L 729.085709 442.03951 
L 733.054026 442.131698 
L 736.188826 442.038978 
L 736.965919 442.267415 
L 737.738726 442.069821 
L 741.566339 442.142309 
L 742.322004 442.053215 
L 743.076242 442.124992 
L 744.566147 442.029192 
L 745.308956 442.149268 
L 746.048195 441.989122 
L 746.784576 442.17425 
L 747.518815 442.010631 
L 748.245197 442.161336 
L 750.413629 442.073799 
L 751.127869 442.18828 
L 751.842824 442.032685 
L 752.553492 442.222396 
L 753.259876 442.015514 
L 753.963402 442.20456 
L 754.658358 442.018847 
L 756.041841 442.134486 
L 756.727511 442.02858 
L 757.411039 442.158775 
L 758.092424 442.056415 
L 758.766666 442.142476 
L 762.083597 442.059708 
L 762.733555 442.169353 
L 763.379942 442.031028 
L 764.024901 442.292443 
L 764.663432 442.088528 
L 765.302676 442.129995 
L 766.564024 442.040675 
L 767.188984 442.164277 
L 767.806088 442.020836 
L 768.422477 442.109378 
L 769.037437 441.98386 
L 769.641684 442.125624 
L 770.841608 442.091409 
L 773.187886 442.048458 
L 774.332813 442.083785 
L 786.226337 441.984345 
L 786.689879 442.22499 
L 787.14985 442.053841 
L 788.500477 442.137027 
L 788.94402 441.989721 
L 789.816108 442.060966 
L 791.088169 442.161949 
L 791.505285 441.990998 
L 791.915259 442.104681 
L 793.133038 442.066947 
L 794.687224 441.995183 
L 795.065772 442.151377 
L 796.176415 442.051233 
L 796.538534 442.133747 
L 796.897083 442.004244 
L 797.602038 442.09107 
L 809.98196 442.034015 
L 810.191946 442.15302 
L 810.397647 442.030137 
L 810.601206 442.106664 
L 810.80405 442.03804 
L 811.399726 442.201446 
L 811.972547 442.159161 
L 812.34038 442.220134 
L 813.053906 442.241143 
L 813.735291 442.222043 
L 814.068127 442.30517 
L 814.230259 442.234936 
L 814.38882 442.407397 
L 814.548096 442.281865 
L 814.859505 442.342193 
L 816.7151 442.450886 
L 816.847235 442.694505 
L 816.976512 442.390492 
L 817.232924 442.475262 
L 817.357916 442.436802 
L 817.482194 442.531964 
L 817.72575 442.482474 
L 818.082156 442.575586 
L 818.197862 442.575779 
L 818.313569 442.443595 
L 818.541412 442.490943 
L 818.874248 442.572699 
L 819.087805 442.52432 
L 819.704195 442.619701 
L 819.902039 442.550745 
L 819.997747 442.651335 
L 820.093455 442.531718 
L 820.280586 442.656817 
L 820.465574 442.668293 
L 820.556283 442.550439 
L 820.645563 442.707405 
L 820.734843 442.535124 
L 820.822694 442.677454 
L 820.91126 442.615257 
L 821.083392 442.575806 
L 821.252667 442.700127 
L 821.497651 442.564855 
L 821.576932 442.736744 
L 821.656212 442.56115 
L 821.734779 442.714517 
L 821.813345 442.620686 
L 821.890483 442.69227 
L 822.189036 442.757075 
L 822.261888 442.624664 
L 822.333312 442.778177 
L 822.404736 442.687959 
L 822.544727 442.692356 
L 822.613294 442.678678 
L 822.682575 442.86658 
L 822.749714 442.652872 
L 822.816138 442.747249 
L 823.013268 442.660503 
L 823.144689 442.746084 
L 823.20897 442.702322 
L 823.271823 442.801183 
L 823.335391 442.685883 
L 823.39753 442.748007 
L 823.455383 442.738154 
L 823.455383 442.738154 
" clip-path="url(#p98d1c6430e)" style="fill: none; stroke: #ff0000; stroke-width: 1.5; stroke-linecap: square"/>
   </g>
   <g id="line2d_26">
    <path d="M 116.017091 452.117425 
L 117.164874 442.165641 
L 122.547387 442.230852 
L 123.603034 442.121919 
L 124.649395 442.228237 
L 125.695043 442.124959 
L 126.737833 442.233779 
L 129.842634 442.15332 
L 130.875425 442.349198 
L 131.911788 442.120495 
L 133.968084 442.227864 
L 135.000876 442.13732 
L 136.032238 442.267821 
L 137.064315 442.133282 
L 139.119183 442.260071 
L 140.149117 442.052763 
L 142.2097 442.197135 
L 143.241777 442.120954 
L 144.271711 442.191141 
L 145.302359 442.110749 
L 147.365798 442.233805 
L 148.395732 442.116477 
L 149.425667 442.27786 
L 150.4606 442.173425 
L 153.562545 442.244323 
L 155.63884 442.131213 
L 156.672346 442.283369 
L 157.710851 442.031374 
L 158.750784 442.268067 
L 159.797146 442.139183 
L 160.842079 442.199723 
L 162.939802 442.176458 
L 163.986163 442.352099 
L 165.038953 442.125405 
L 168.197322 442.208704 
L 169.254397 442.121992 
L 170.307187 442.326379 
L 171.365691 442.042418 
L 172.426337 442.182818 
L 175.616847 442.189917 
L 177.751711 442.227385 
L 178.820928 442.130022 
L 179.892288 442.227778 
L 180.965791 442.10389 
L 182.043579 442.197794 
L 184.192727 442.131751 
L 185.263373 442.229049 
L 186.343304 442.203023 
L 187.416092 442.289383 
L 188.496737 442.074291 
L 191.730102 442.232355 
L 192.808604 442.088302 
L 193.886392 442.236626 
L 198.197545 442.126822 
L 199.273905 442.229933 
L 200.35455 442.151264 
L 201.430909 442.249612 
L 206.822707 442.064858 
L 207.896924 442.187568 
L 213.268009 442.197009 
L 214.346511 442.086359 
L 215.417157 442.179266 
L 218.641951 442.133827 
L 221.866744 442.176079 
L 222.938819 442.217712 
L 224.012321 442.07179 
L 225.08511 442.233799 
L 226.157898 442.148689 
L 227.233544 442.215843 
L 229.381978 442.103304 
L 230.450481 442.229534 
L 236.880069 442.14821 
L 237.951429 442.269571 
L 239.025646 442.113356 
L 240.098435 442.27174 
L 241.171223 442.120561 
L 243.317514 442.218198 
L 244.390303 442.089386 
L 245.462377 442.193456 
L 247.607954 442.156626 
L 250.827748 442.175673 
L 251.899108 442.122018 
L 252.971182 442.344295 
L 254.042542 442.093844 
L 256.180977 442.2683 
L 257.253765 442.086127 
L 258.325839 442.208571 
L 260.467131 442.187276 
L 261.53492 442.227179 
L 262.603423 442.102985 
L 263.675497 442.251216 
L 265.821074 442.097796 
L 266.888863 442.243805 
L 267.962365 442.062822 
L 269.035868 442.225835 
L 270.103657 442.233426 
L 271.176445 442.111933 
L 272.244234 442.243146 
L 273.316308 442.114128 
L 278.715249 442.224585 
L 279.781609 442.22356 
L 280.854397 442.091648 
L 285.121267 442.210893 
L 286.186199 442.044926 
L 287.256845 442.198506 
L 294.727795 442.197035 
L 295.790584 442.221212 
L 296.854088 442.061159 
L 297.923305 442.228896 
L 300.053169 442.076054 
L 301.114529 442.190815 
L 302.171604 442.110183 
L 304.300754 442.234471 
L 305.365686 442.081057 
L 306.425618 442.242208 
L 307.493407 442.058085 
L 308.55691 442.206449 
L 310.681774 442.173558 
L 311.739564 442.253205 
L 312.803781 442.102566 
L 313.867999 442.244151 
L 314.928645 442.104462 
L 324.46732 442.194634 
L 325.530109 442.100736 
L 326.592899 442.169539 
L 327.647831 442.096259 
L 329.759839 442.27323 
L 330.8162 442.005867 
L 331.874703 442.243578 
L 333.991711 442.117435 
L 335.050929 442.218411 
L 336.110147 442.088894 
L 338.225725 442.17552 
L 348.776479 442.230832 
L 349.835697 442.058917 
L 350.889915 442.259691 
L 351.940562 442.080784 
L 352.993352 442.235941 
L 355.101788 442.111394 
L 356.146721 442.202664 
L 360.347881 442.099984 
L 367.68884 442.162088 
L 388.552504 442.163286 
L 389.591724 442.10508 
L 390.630228 442.226574 
L 391.669448 442.081117 
L 392.71081 442.213787 
L 393.747172 442.119949 
L 395.808468 442.230273 
L 398.907556 442.129529 
L 400.968852 442.210727 
L 402.003072 442.092759 
L 408.194819 442.209037 
L 410.251116 442.091449 
L 411.283907 442.181741 
L 413.335918 442.057679 
L 414.359424 442.252513 
L 415.384358 442.094336 
L 425.586563 442.047261 
L 426.602212 442.24596 
L 427.615004 442.086685 
L 428.627796 442.176605 
L 430.660524 442.092267 
L 434.706693 442.137945 
L 449.770729 442.201466 
L 450.769951 442.09588 
L 451.76703 442.214758 
L 453.757617 442.128944 
L 467.578875 442.144319 
L 469.52875 442.175647 
L 471.484339 442.165102 
L 476.360456 442.056821 
L 477.330394 442.184581 
L 481.209431 442.061185 
L 482.175798 442.214166 
L 484.105674 442.123948 
L 486.025551 442.126363 
L 533.289669 442.114275 
L 534.179612 442.242341 
L 535.070984 442.116038 
L 539.498557 442.132876 
L 540.381358 442.240205 
L 541.259873 442.11786 
L 545.625308 442.22338 
L 546.500966 442.056109 
L 547.363054 442.19019 
L 548.230856 442.109358 
L 549.096515 442.210281 
L 549.957174 442.124899 
L 551.679206 442.158309 
L 552.539151 442.016718 
L 553.398382 442.167238 
L 555.962504 442.14378 
L 557.660252 442.10204 
L 558.508769 442.224032 
L 563.557018 442.125578 
L 564.39125 442.207374 
L 565.21834 442.057985 
L 566.875377 442.191613 
L 567.703895 442.071357 
L 568.533128 442.205604 
L 570.180879 442.069248 
L 571.001541 442.165022 
L 571.821489 442.077185 
L 572.640722 442.289782 
L 573.457098 442.055351 
L 574.273475 442.229315 
L 575.902656 442.104096 
L 579.131021 442.220121 
L 579.932398 442.118958 
L 582.332244 442.195891 
L 583.927857 442.135843 
L 584.722806 442.204719 
L 586.304133 442.14342 
L 587.092654 442.206682 
L 587.881175 442.074231 
L 588.664696 442.164423 
L 589.451789 442.101109 
L 591.009546 442.206003 
L 591.790925 442.039344 
L 592.566589 442.184581 
L 594.117204 442.133541 
L 600.244669 442.167058 
L 601.004621 442.02045 
L 601.760287 442.164596 
L 603.270904 442.083026 
L 604.020142 442.253804 
L 604.771523 442.103477 
L 607.004237 442.085674 
L 607.743475 442.186617 
L 608.484856 442.088628 
L 609.22338 442.163419 
L 610.694715 442.096379 
L 613.620242 442.160751 
L 615.07872 442.069268 
L 615.799388 442.13092 
L 617.24001 442.034421 
L 618.675633 442.136289 
L 619.387016 442.069415 
L 620.102684 442.162461 
L 620.811924 441.997678 
L 621.520451 442.177629 
L 622.227548 442.06702 
L 623.636744 442.113356 
L 624.34027 442.070932 
L 625.040225 442.229042 
L 625.741609 442.007477 
L 626.439421 442.150725 
L 628.52286 442.200368 
L 629.21353 441.963076 
L 629.902771 442.194294 
L 630.587013 442.0639 
L 636.011666 442.140739 
L 637.348009 442.093638 
L 638.011538 442.236473 
L 638.676495 442.040402 
L 639.33931 442.163239 
L 639.998554 442.083525 
L 641.969856 442.153639 
L 642.621957 442.162787 
L 643.275487 442.045651 
L 644.570404 442.162028 
L 645.217505 442.101275 
L 645.865321 442.154218 
L 646.511708 442.088508 
L 647.79734 442.137859 
L 649.698647 442.143667 
L 652.222771 442.165355 
L 654.091223 442.045731 
L 655.331858 442.117495 
L 657.183168 442.024901 
L 657.793129 442.20591 
L 659.008051 442.066481 
L 660.821507 442.209303 
L 661.425754 441.970827 
L 662.028572 442.131372 
L 665.000525 442.122956 
L 665.591916 442.041879 
L 666.763983 442.091821 
L 668.511729 442.130128 
L 669.67094 442.059542 
L 670.246618 442.180457 
L 670.821581 442.038772 
L 671.962222 442.16451 
L 674.786327 442.084377 
L 675.907684 442.152182 
L 676.465505 442.053747 
L 677.021184 442.135191 
L 677.575434 442.042983 
L 678.128256 442.182705 
L 678.676792 441.985057 
L 679.222472 442.170763 
L 681.404475 442.12937 
L 681.94444 442.229202 
L 682.479406 441.992522 
L 683.017943 442.205158 
L 683.552195 442.098647 
L 684.086446 442.218417 
L 687.785495 442.061525 
L 688.827571 442.107841 
L 690.898867 442.032472 
L 691.411692 442.164789 
L 693.446561 442.023071 
L 693.9501 442.153287 
L 695.957115 442.023916 
L 696.452797 442.110915 
L 697.929846 441.968618 
L 698.420529 442.120182 
L 698.910497 441.989288 
L 699.884006 442.070725 
L 700.368261 442.120422 
L 701.331057 442.045252 
L 701.808883 442.140234 
L 702.758108 442.067605 
L 703.234506 442.148117 
L 704.176589 442.039983 
L 705.116529 442.135198 
L 705.584356 442.033769 
L 706.05004 442.193283 
L 706.514296 442.010604 
L 706.977124 442.10359 
L 707.437809 442.042651 
L 707.899922 442.150253 
L 708.354179 442.056382 
L 709.269834 442.172806 
L 709.721234 442.061385 
L 711.966804 442.154444 
L 712.409633 442.057666 
L 713.292434 442.187023 
L 713.73312 441.998223 
L 714.171663 442.123329 
L 715.913695 442.075203 
L 724.685276 442.187189 
L 725.087393 442.050142 
L 726.282317 442.165628 
L 727.862216 442.06692 
L 729.033569 442.133341 
L 729.422116 442.03808 
L 729.809948 442.082354 
L 730.193495 442.000119 
L 730.575613 442.199963 
L 730.958446 442.059642 
L 733.223301 442.165747 
L 733.59542 442.043935 
L 734.713206 442.162813 
L 735.080325 442.000718 
L 735.811707 442.179425 
L 736.178112 441.98855 
L 736.540232 442.129363 
L 736.903066 442.026498 
L 737.262328 442.190316 
L 737.622305 442.060986 
L 737.980854 442.090165 
L 738.338688 441.993579 
L 738.695094 442.150858 
L 739.404334 442.078589 
L 741.155651 442.156041 
L 741.500628 442.022659 
L 741.840607 442.152941 
L 742.179156 442.040901 
L 742.521277 442.176651 
L 743.202662 442.133408 
L 743.542641 442.059349 
L 743.879048 442.165794 
L 744.215455 442.072029 
L 745.547512 442.180749 
L 745.877491 442.033809 
L 746.531021 442.075735 
L 747.828795 442.13714 
L 748.150917 442.060666 
L 748.470182 442.172021 
L 750.060795 442.074311 
L 750.374346 442.136116 
L 750.689326 442.051406 
L 751.001449 442.174403 
L 751.310715 442.043682 
L 752.239227 442.171422 
L 752.545636 442.038985 
L 753.156311 442.110243 
L 754.653358 442.054705 
L 754.950482 442.156147 
L 755.24832 442.06867 
L 755.838996 442.115499 
L 756.718226 442.073593 
L 757.591027 442.13559 
L 758.167419 442.094935 
L 759.024507 442.072715 
L 759.306632 442.210534 
L 759.586614 442.003352 
L 759.863025 442.179592 
L 760.143721 442.060886 
L 760.700114 442.065749 
L 762.335724 442.086958 
L 762.607849 442.047667 
L 762.879974 442.148783 
L 763.149957 442.062815 
L 763.684209 442.073905 
L 763.948477 442.047341 
L 764.214175 442.248096 
L 764.478444 442.096299 
L 766.559025 442.013571 
L 766.81258 442.176991 
L 767.064707 442.007497 
L 767.318262 442.122344 
L 767.570388 441.957135 
L 767.822515 442.11498 
L 768.566753 442.062975 
L 769.05815 442.070845 
L 770.513772 442.071949 
L 770.755185 442.026032 
L 770.994455 442.143374 
L 771.232297 441.996766 
L 771.470139 442.12462 
L 771.710124 442.009719 
L 771.945108 442.116217 
L 771.945108 442.116217 
" clip-path="url(#p98d1c6430e)" style="fill: none; stroke: #0000ff; stroke-width: 1.5; stroke-linecap: square"/>
   </g>
   <g id="line2d_27">
    <path d="M 115.488553 457.092768 
L 115.861386 455.52139 
L 116.225649 455.557415 
L 117.287009 444.25474 
L 118.217664 446.041442 
L 119.285453 443.677323 
L 120.456806 441.8846 
L 121.603876 442.038093 
L 122.747374 441.902483 
L 123.875159 442.007597 
L 124.999373 441.942905 
L 126.110016 442.070719 
L 127.223516 441.906641 
L 128.323446 442.010172 
L 130.508306 442.027748 
L 163.744036 441.931223 
L 164.747543 442.047647 
L 165.756764 441.910286 
L 166.7567 442.051871 
L 167.760922 441.898943 
L 168.758001 442.013944 
L 169.758651 441.923066 
L 170.752159 442.042072 
L 171.749952 441.921902 
L 172.739889 442.05877 
L 173.734111 441.918024 
L 174.723333 442.043702 
L 175.716841 441.939372 
L 176.701778 442.034967 
L 178.677366 441.992721 
L 182.620685 441.968878 
L 184.583416 441.969303 
L 203.066519 442.091409 
L 204.034314 441.949305 
L 206.929129 442.016884 
L 207.893353 441.925355 
L 208.852577 442.031301 
L 209.816087 441.93562 
L 210.772454 442.034261 
L 211.734536 441.931229 
L 212.690903 442.027695 
L 213.650842 441.967061 
L 214.606495 442.019891 
L 216.522086 441.987499 
L 221.304637 441.976402 
L 227.019986 441.985436 
L 227.972782 441.924417 
L 228.919864 442.049729 
L 229.871232 441.973102 
L 230.8176 442.024488 
L 231.768968 441.942007 
L 233.661704 441.999115 
L 237.449318 441.99332 
L 238.392829 442.044154 
L 239.34134 441.933072 
L 240.28628 442.014336 
L 241.235505 441.912069 
L 242.179016 442.013405 
L 243.125384 441.946045 
L 244.063895 442.065729 
L 245.009549 441.894825 
L 245.949489 442.032166 
L 246.893 441.959544 
L 247.833654 442.029757 
L 248.776451 441.945892 
L 251.596984 442.047873 
L 254.416804 441.987632 
L 256.293827 441.979901 
L 262.849121 441.989408 
L 264.72043 442.005588 
L 265.654656 442.027229 
L 266.591025 441.929713 
L 268.459476 441.994737 
L 269.393702 442.03792 
L 270.330071 441.958732 
L 272.193523 442.019565 
L 275.920428 441.973109 
L 276.846797 442.067499 
L 277.781737 441.91475 
L 279.640189 442.0219 
L 280.572273 441.934024 
L 284.292035 442.018168 
L 285.222689 441.951727 
L 286.149059 442.059003 
L 287.080428 441.906661 
L 288.006797 442.022 
L 288.936023 441.945546 
L 289.862392 442.033836 
L 290.790904 441.964008 
L 291.715131 442.024601 
L 292.643643 441.956138 
L 293.569298 442.020231 
L 295.425608 441.974765 
L 299.126799 441.989568 
L 303.747932 441.989142 
L 306.519183 441.970448 
L 307.437696 442.058943 
L 308.362637 441.922887 
L 310.20609 442.001137 
L 318.496988 442.029491 
L 319.419072 441.946185 
L 320.336156 442.043948 
L 321.256812 441.964999 
L 322.172467 442.066541 
L 323.09598 441.896987 
L 324.012349 442.026218 
L 324.935148 441.92298 
L 325.85366 442.017224 
L 326.773601 441.934815 
L 327.690685 442.019399 
L 328.609912 441.942805 
L 330.444795 442.02357 
L 331.36545 441.945633 
L 332.280392 442.022666 
L 334.120274 441.951414 
L 335.034501 442.04122 
L 335.953014 441.938321 
L 339.622065 441.98223 
L 342.374031 441.972477 
L 343.285402 442.038373 
L 344.2032 441.956018 
L 346.031654 441.975976 
L 356.086725 442.020104 
L 357.001667 441.969543 
L 357.912323 442.05092 
L 358.82655 441.971399 
L 359.738634 442.026371 
L 360.653576 441.953463 
L 361.562803 442.075821 
L 362.477745 441.924204 
L 363.388401 442.031753 
L 364.303342 441.94383 
L 365.21257 442.052989 
L 366.126083 441.956237 
L 367.036024 442.03965 
L 367.948109 441.982024 
L 368.855194 442.045864 
L 369.767992 441.962005 
L 371.590733 441.996992 
L 379.782351 441.984937 
L 388.878912 441.98366 
L 389.785997 442.048771 
L 392.512965 441.968984 
L 394.32642 442.034501 
L 397.964759 441.9583 
L 398.869701 442.036171 
L 399.781786 441.933245 
L 400.688156 442.038493 
L 403.412982 441.956071 
L 405.225723 442.016871 
L 407.94912 441.992422 
L 423.351706 442.069648 
L 424.25879 441.959204 
L 427.878559 442.050401 
L 429.690586 441.977806 
L 434.218153 442.037807 
L 435.125952 441.955412 
L 436.934408 441.989421 
L 452.301281 441.975963 
L 453.204081 442.031001 
L 454.109737 441.965285 
L 456.817421 442.062176 
L 457.723791 441.927038 
L 459.530104 441.982489 
L 462.237074 442.030004 
L 464.044101 442.011562 
L 468.557384 442.055045 
L 470.363697 441.998915 
L 471.262925 442.085055 
L 472.169295 441.925767 
L 473.069238 442.015194 
L 473.971323 441.96637 
L 474.870551 442.047015 
L 475.775493 441.951793 
L 476.67615 442.03502 
L 477.583235 441.934742 
L 478.481748 442.088468 
L 479.384548 441.970434 
L 482.092232 442.028034 
L 482.99646 441.95989 
L 483.897116 442.019778 
L 485.702715 441.991238 
L 496.531308 441.978205 
L 499.234706 442.00914 
L 547.902305 441.96281 
L 548.800819 442.059615 
L 549.705761 441.918802 
L 550.604989 442.028959 
L 551.509932 441.937536 
L 552.405588 442.112219 
L 553.309102 441.925927 
L 554.209759 442.014749 
L 556.914586 441.996074 
L 661.566459 442.070792 
L 662.475686 441.903421 
L 663.378486 442.049044 
L 664.285571 441.940397 
L 666.999683 442.032738 
L 667.906053 441.964114 
L 668.808138 442.04275 
L 671.527964 441.971033 
L 673.340705 441.977706 
L 680.593098 442.011309 
L 681.501612 441.957481 
L 682.406554 442.043283 
L 683.315067 441.949525 
L 684.220723 442.038127 
L 686.036321 441.993593 
L 688.760433 441.959211 
L 689.666089 442.058464 
L 691.482401 441.987299 
L 692.3902 442.032518 
L 693.299428 441.960076 
L 695.112883 442.026651 
L 696.026396 441.928256 
L 696.934195 442.016824 
L 697.844137 441.979655 
L 698.749793 442.062702 
L 699.662592 441.90221 
L 700.569677 442.041573 
L 701.481761 441.932986 
L 703.298788 442.02393 
L 737.085911 441.954301 
L 738.000138 442.04907 
L 740.757819 441.892736 
L 742.592701 442.009726 
L 762.877832 442.051392 
L 763.807772 441.920505 
L 764.731999 442.044207 
L 766.587594 441.955406 
L 776.794798 442.136595 
L 777.715453 442.254562 
L 778.646108 442.052211 
L 779.568906 442.232761 
L 780.492419 442.231896 
L 781.398075 442.604985 
L 784.101473 442.831759 
L 787.646246 443.275288 
L 788.527619 443.209259 
L 792.803059 444.104653 
L 793.640148 444.184047 
L 799.241219 445.564543 
L 800.011884 445.646679 
L 800.763264 446.083854 
L 801.516073 446.069251 
L 802.258168 446.248358 
L 803.000978 446.27437 
L 805.157983 447.065568 
L 805.852938 447.318607 
L 806.544323 447.380924 
L 807.222136 447.695827 
L 807.893522 447.83551 
L 808.567764 447.80025 
L 809.878395 448.311351 
L 809.878395 448.311351 
" clip-path="url(#p98d1c6430e)" style="fill: none; stroke: #9467bd; stroke-width: 1.5; stroke-linecap: square"/>
   </g>
   <g id="patch_3">
    <path d="M 115.2 461.376 
L 115.2 62.208 
" style="fill: none; stroke: #000000; stroke-width: 0.8; stroke-linejoin: miter; stroke-linecap: square"/>
   </g>
   <g id="patch_4">
    <path d="M 829.44 461.376 
L 829.44 62.208 
" style="fill: none; stroke: #000000; stroke-width: 0.8; stroke-linejoin: miter; stroke-linecap: square"/>
   </g>
   <g id="patch_5">
    <path d="M 115.2 461.376 
L 829.44 461.376 
" style="fill: none; stroke: #000000; stroke-width: 0.8; stroke-linejoin: miter; stroke-linecap: square"/>
   </g>
   <g id="patch_6">
    <path d="M 115.2 62.208 
L 829.44 62.208 
" style="fill: none; stroke: #000000; stroke-width: 0.8; stroke-linejoin: miter; stroke-linecap: square"/>
   </g>
   <g id="legend_1">
    <g id="patch_7">
     <path d="M 681.45375 158.000656 
L 816.14 158.000656 
Q 819.94 158.000656 819.94 154.200656 
L 819.94 75.508 
Q 819.94 71.708 816.14 71.708 
L 681.45375 71.708 
Q 677.65375 71.708 677.65375 75.508 
L 677.65375 154.200656 
Q 677.65375 158.000656 681.45375 158.000656 
z
" style="fill: #ffffff; opacity: 0.8; stroke: #cccccc; stroke-linejoin: miter"/>
    </g>
    <g id="line2d_28">
     <path d="M 685.25375 85.958 
L 704.25375 85.958 
L 723.25375 85.958 
" style="fill: none; stroke: #ff0000; stroke-width: 1.5; stroke-linecap: square"/>
    </g>
    <g id="text_27">
     <!-- caleKV -->
     <g transform="translate(738.45375 92.608) scale(0.19 -0.19)">
      <defs>
       <path id="TimesNewRomanPSMT-63" d="M 2631 1088 
Q 2516 522 2178 217 
Q 1841 -88 1431 -88 
Q 944 -88 581 321 
Q 219 731 219 1428 
Q 219 2103 620 2525 
Q 1022 2947 1584 2947 
Q 2006 2947 2278 2723 
Q 2550 2500 2550 2259 
Q 2550 2141 2473 2067 
Q 2397 1994 2259 1994 
Q 2075 1994 1981 2113 
Q 1928 2178 1911 2362 
Q 1894 2547 1784 2644 
Q 1675 2738 1481 2738 
Q 1169 2738 978 2506 
Q 725 2200 725 1697 
Q 725 1184 976 792 
Q 1228 400 1656 400 
Q 1963 400 2206 609 
Q 2378 753 2541 1131 
L 2631 1088 
z
" transform="scale(0.015625)"/>
       <path id="TimesNewRomanPSMT-61" d="M 1822 413 
Q 1381 72 1269 19 
Q 1100 -59 909 -59 
Q 613 -59 420 144 
Q 228 347 228 678 
Q 228 888 322 1041 
Q 450 1253 767 1440 
Q 1084 1628 1822 1897 
L 1822 2009 
Q 1822 2438 1686 2597 
Q 1550 2756 1291 2756 
Q 1094 2756 978 2650 
Q 859 2544 859 2406 
L 866 2225 
Q 866 2081 792 2003 
Q 719 1925 600 1925 
Q 484 1925 411 2006 
Q 338 2088 338 2228 
Q 338 2497 613 2722 
Q 888 2947 1384 2947 
Q 1766 2947 2009 2819 
Q 2194 2722 2281 2516 
Q 2338 2381 2338 1966 
L 2338 994 
Q 2338 584 2353 492 
Q 2369 400 2405 369 
Q 2441 338 2488 338 
Q 2538 338 2575 359 
Q 2641 400 2828 588 
L 2828 413 
Q 2478 -56 2159 -56 
Q 2006 -56 1915 50 
Q 1825 156 1822 413 
z
M 1822 616 
L 1822 1706 
Q 1350 1519 1213 1441 
Q 966 1303 859 1153 
Q 753 1003 753 825 
Q 753 600 887 451 
Q 1022 303 1197 303 
Q 1434 303 1822 616 
z
" transform="scale(0.015625)"/>
       <path id="TimesNewRomanPSMT-6c" d="M 1184 4444 
L 1184 647 
Q 1184 378 1223 290 
Q 1263 203 1344 158 
Q 1425 113 1647 113 
L 1647 0 
L 244 0 
L 244 113 
Q 441 113 512 153 
Q 584 194 625 287 
Q 666 381 666 647 
L 666 3247 
Q 666 3731 644 3842 
Q 622 3953 573 3993 
Q 525 4034 450 4034 
Q 369 4034 244 3984 
L 191 4094 
L 1044 4444 
L 1184 4444 
z
" transform="scale(0.015625)"/>
       <path id="TimesNewRomanPSMT-65" d="M 681 1784 
Q 678 1147 991 784 
Q 1303 422 1725 422 
Q 2006 422 2214 576 
Q 2422 731 2563 1106 
L 2659 1044 
Q 2594 616 2278 264 
Q 1963 -88 1488 -88 
Q 972 -88 605 314 
Q 238 716 238 1394 
Q 238 2128 614 2539 
Q 991 2950 1559 2950 
Q 2041 2950 2350 2633 
Q 2659 2316 2659 1784 
L 681 1784 
z
M 681 1966 
L 2006 1966 
Q 1991 2241 1941 2353 
Q 1863 2528 1708 2628 
Q 1553 2728 1384 2728 
Q 1125 2728 920 2526 
Q 716 2325 681 1966 
z
" transform="scale(0.015625)"/>
       <path id="TimesNewRomanPSMT-4b" d="M 1913 2350 
L 3475 797 
Q 3859 413 4131 273 
Q 4403 134 4675 116 
L 4675 0 
L 2659 0 
L 2659 116 
Q 2841 116 2920 177 
Q 3000 238 3000 313 
Q 3000 388 2970 447 
Q 2941 506 2775 669 
L 1313 2116 
L 1313 750 
Q 1313 428 1353 325 
Q 1384 247 1484 191 
Q 1619 116 1769 116 
L 1913 116 
L 1913 0 
L 106 0 
L 106 116 
L 256 116 
Q 519 116 638 269 
Q 713 369 713 750 
L 713 3488 
Q 713 3809 672 3916 
Q 641 3991 544 4047 
Q 406 4122 256 4122 
L 106 4122 
L 106 4238 
L 1913 4238 
L 1913 4122 
L 1769 4122 
Q 1622 4122 1484 4050 
Q 1388 4000 1350 3900 
Q 1313 3800 1313 3488 
L 1313 2191 
Q 1375 2250 1741 2588 
Q 2669 3438 2863 3722 
Q 2947 3847 2947 3941 
Q 2947 4013 2881 4067 
Q 2816 4122 2659 4122 
L 2563 4122 
L 2563 4238 
L 4119 4238 
L 4119 4122 
Q 3981 4119 3868 4084 
Q 3756 4050 3593 3951 
Q 3431 3853 3194 3634 
Q 3125 3572 2559 2994 
L 1913 2350 
z
" transform="scale(0.015625)"/>
       <path id="TimesNewRomanPSMT-56" d="M 4544 4238 
L 4544 4122 
Q 4319 4081 4203 3978 
Q 4038 3825 3909 3509 
L 2431 -97 
L 2316 -97 
L 728 3556 
Q 606 3838 556 3900 
Q 478 3997 364 4051 
Q 250 4106 56 4122 
L 56 4238 
L 1788 4238 
L 1788 4122 
Q 1494 4094 1406 4022 
Q 1319 3950 1319 3838 
Q 1319 3681 1463 3350 
L 2541 866 
L 3541 3319 
Q 3688 3681 3688 3822 
Q 3688 3913 3597 3995 
Q 3506 4078 3291 4113 
Q 3275 4116 3238 4122 
L 3238 4238 
L 4544 4238 
z
" transform="scale(0.015625)"/>
      </defs>
      <use xlink:href="#TimesNewRomanPSMT-63"/>
      <use xlink:href="#TimesNewRomanPSMT-61" x="44.384766"/>
      <use xlink:href="#TimesNewRomanPSMT-6c" x="88.769531"/>
      <use xlink:href="#TimesNewRomanPSMT-65" x="116.552734"/>
      <use xlink:href="#TimesNewRomanPSMT-4b" x="160.9375"/>
      <use xlink:href="#TimesNewRomanPSMT-56" x="233.154297"/>
     </g>
    </g>
    <g id="line2d_29">
     <path d="M 685.25375 112.822219 
L 704.25375 112.822219 
L 723.25375 112.822219 
" style="fill: none; stroke: #0000ff; stroke-width: 1.5; stroke-linecap: square"/>
    </g>
    <g id="text_28">
     <!-- MICA-t -->
     <g transform="translate(738.45375 119.472219) scale(0.19 -0.19)">
      <defs>
       <path id="TimesNewRomanPSMT-4d" d="M 2619 0 
L 981 3566 
L 981 734 
Q 981 344 1066 247 
Q 1181 116 1431 116 
L 1581 116 
L 1581 0 
L 106 0 
L 106 116 
L 256 116 
Q 525 116 638 278 
Q 706 378 706 734 
L 706 3503 
Q 706 3784 644 3909 
Q 600 4000 483 4061 
Q 366 4122 106 4122 
L 106 4238 
L 1306 4238 
L 2844 922 
L 4356 4238 
L 5556 4238 
L 5556 4122 
L 5409 4122 
Q 5138 4122 5025 3959 
Q 4956 3859 4956 3503 
L 4956 734 
Q 4956 344 5044 247 
Q 5159 116 5409 116 
L 5556 116 
L 5556 0 
L 3756 0 
L 3756 116 
L 3906 116 
Q 4178 116 4288 278 
Q 4356 378 4356 734 
L 4356 3566 
L 2722 0 
L 2619 0 
z
" transform="scale(0.015625)"/>
       <path id="TimesNewRomanPSMT-49" d="M 1975 116 
L 1975 0 
L 159 0 
L 159 116 
L 309 116 
Q 572 116 691 269 
Q 766 369 766 750 
L 766 3488 
Q 766 3809 725 3913 
Q 694 3991 597 4047 
Q 459 4122 309 4122 
L 159 4122 
L 159 4238 
L 1975 4238 
L 1975 4122 
L 1822 4122 
Q 1563 4122 1444 3969 
Q 1366 3869 1366 3488 
L 1366 750 
Q 1366 428 1406 325 
Q 1438 247 1538 191 
Q 1672 116 1822 116 
L 1975 116 
z
" transform="scale(0.015625)"/>
       <path id="TimesNewRomanPSMT-43" d="M 3853 4334 
L 3950 2894 
L 3853 2894 
Q 3659 3541 3300 3825 
Q 2941 4109 2438 4109 
Q 2016 4109 1675 3895 
Q 1334 3681 1139 3212 
Q 944 2744 944 2047 
Q 944 1472 1128 1050 
Q 1313 628 1683 403 
Q 2053 178 2528 178 
Q 2941 178 3256 354 
Q 3572 531 3950 1056 
L 4047 994 
Q 3728 428 3303 165 
Q 2878 -97 2294 -97 
Q 1241 -97 663 684 
Q 231 1266 231 2053 
Q 231 2688 515 3219 
Q 800 3750 1298 4042 
Q 1797 4334 2388 4334 
Q 2847 4334 3294 4109 
Q 3425 4041 3481 4041 
Q 3566 4041 3628 4100 
Q 3709 4184 3744 4334 
L 3853 4334 
z
" transform="scale(0.015625)"/>
       <path id="TimesNewRomanPSMT-41" d="M 2928 1419 
L 1288 1419 
L 1000 750 
Q 894 503 894 381 
Q 894 284 986 211 
Q 1078 138 1384 116 
L 1384 0 
L 50 0 
L 50 116 
Q 316 163 394 238 
Q 553 388 747 847 
L 2238 4334 
L 2347 4334 
L 3822 809 
Q 4000 384 4145 257 
Q 4291 131 4550 116 
L 4550 0 
L 2878 0 
L 2878 116 
Q 3131 128 3220 200 
Q 3309 272 3309 375 
Q 3309 513 3184 809 
L 2928 1419 
z
M 2841 1650 
L 2122 3363 
L 1384 1650 
L 2841 1650 
z
" transform="scale(0.015625)"/>
       <path id="TimesNewRomanPSMT-2d" d="M 259 1672 
L 1875 1672 
L 1875 1200 
L 259 1200 
L 259 1672 
z
" transform="scale(0.015625)"/>
       <path id="TimesNewRomanPSMT-74" d="M 1031 3803 
L 1031 2863 
L 1700 2863 
L 1700 2644 
L 1031 2644 
L 1031 788 
Q 1031 509 1111 412 
Q 1191 316 1316 316 
Q 1419 316 1516 380 
Q 1613 444 1666 569 
L 1788 569 
Q 1678 263 1478 108 
Q 1278 -47 1066 -47 
Q 922 -47 784 33 
Q 647 113 581 261 
Q 516 409 516 719 
L 516 2644 
L 63 2644 
L 63 2747 
Q 234 2816 414 2980 
Q 594 3144 734 3369 
Q 806 3488 934 3803 
L 1031 3803 
z
" transform="scale(0.015625)"/>
      </defs>
      <use xlink:href="#TimesNewRomanPSMT-4d"/>
      <use xlink:href="#TimesNewRomanPSMT-49" x="88.916016"/>
      <use xlink:href="#TimesNewRomanPSMT-43" x="122.216797"/>
      <use xlink:href="#TimesNewRomanPSMT-41" x="188.916016"/>
      <use xlink:href="#TimesNewRomanPSMT-2d" x="261.132812"/>
      <use xlink:href="#TimesNewRomanPSMT-74" x="294.433594"/>
     </g>
    </g>
    <g id="line2d_30">
     <path d="M 685.25375 139.686437 
L 704.25375 139.686437 
L 723.25375 139.686437 
" style="fill: none; stroke: #9467bd; stroke-width: 1.5; stroke-linecap: square"/>
    </g>
    <g id="text_29">
     <!-- MemC3-t -->
     <g transform="translate(738.45375 146.336437) scale(0.19 -0.19)">
      <defs>
       <path id="TimesNewRomanPSMT-6d" d="M 1050 2338 
Q 1363 2650 1419 2697 
Q 1559 2816 1721 2881 
Q 1884 2947 2044 2947 
Q 2313 2947 2506 2790 
Q 2700 2634 2766 2338 
Q 3088 2713 3309 2830 
Q 3531 2947 3766 2947 
Q 3994 2947 4170 2830 
Q 4347 2713 4450 2447 
Q 4519 2266 4519 1878 
L 4519 647 
Q 4519 378 4559 278 
Q 4591 209 4675 161 
Q 4759 113 4950 113 
L 4950 0 
L 3538 0 
L 3538 113 
L 3597 113 
Q 3781 113 3884 184 
Q 3956 234 3988 344 
Q 4000 397 4000 647 
L 4000 1878 
Q 4000 2228 3916 2372 
Q 3794 2572 3525 2572 
Q 3359 2572 3192 2489 
Q 3025 2406 2788 2181 
L 2781 2147 
L 2788 2013 
L 2788 647 
Q 2788 353 2820 281 
Q 2853 209 2943 161 
Q 3034 113 3253 113 
L 3253 0 
L 1806 0 
L 1806 113 
Q 2044 113 2133 169 
Q 2222 225 2256 338 
Q 2272 391 2272 647 
L 2272 1878 
Q 2272 2228 2169 2381 
Q 2031 2581 1784 2581 
Q 1616 2581 1450 2491 
Q 1191 2353 1050 2181 
L 1050 647 
Q 1050 366 1089 281 
Q 1128 197 1204 155 
Q 1281 113 1516 113 
L 1516 0 
L 100 0 
L 100 113 
Q 297 113 375 155 
Q 453 197 493 289 
Q 534 381 534 647 
L 534 1741 
Q 534 2213 506 2350 
Q 484 2453 437 2492 
Q 391 2531 309 2531 
Q 222 2531 100 2484 
L 53 2597 
L 916 2947 
L 1050 2947 
L 1050 2338 
z
" transform="scale(0.015625)"/>
       <path id="TimesNewRomanPSMT-33" d="M 325 3431 
Q 506 3859 782 4092 
Q 1059 4325 1472 4325 
Q 1981 4325 2253 3994 
Q 2459 3747 2459 3466 
Q 2459 3003 1878 2509 
Q 2269 2356 2469 2072 
Q 2669 1788 2669 1403 
Q 2669 853 2319 450 
Q 1863 -75 997 -75 
Q 569 -75 414 31 
Q 259 138 259 259 
Q 259 350 332 419 
Q 406 488 509 488 
Q 588 488 669 463 
Q 722 447 909 348 
Q 1097 250 1169 231 
Q 1284 197 1416 197 
Q 1734 197 1970 444 
Q 2206 691 2206 1028 
Q 2206 1275 2097 1509 
Q 2016 1684 1919 1775 
Q 1784 1900 1550 2001 
Q 1316 2103 1072 2103 
L 972 2103 
L 972 2197 
Q 1219 2228 1467 2375 
Q 1716 2522 1828 2728 
Q 1941 2934 1941 3181 
Q 1941 3503 1739 3701 
Q 1538 3900 1238 3900 
Q 753 3900 428 3381 
L 325 3431 
z
" transform="scale(0.015625)"/>
      </defs>
      <use xlink:href="#TimesNewRomanPSMT-4d"/>
      <use xlink:href="#TimesNewRomanPSMT-65" x="88.916016"/>
      <use xlink:href="#TimesNewRomanPSMT-6d" x="133.300781"/>
      <use xlink:href="#TimesNewRomanPSMT-43" x="211.083984"/>
      <use xlink:href="#TimesNewRomanPSMT-33" x="277.783203"/>
      <use xlink:href="#TimesNewRomanPSMT-2d" x="327.783203"/>
      <use xlink:href="#TimesNewRomanPSMT-74" x="361.083984"/>
     </g>
    </g>
   </g>
  </g>
 </g>
 <defs>
  <clipPath id="p98d1c6430e">
   <rect x="115.2" y="62.208" width="714.24" height="399.168"/>
  </clipPath>
 </defs>
</svg>
