<?xml version="1.0" encoding="utf-8" standalone="no"?>
<!DOCTYPE svg PUBLIC "-//W3C//DTD SVG 1.1//EN"
  "http://www.w3.org/Graphics/SVG/1.1/DTD/svg11.dtd">
<svg xmlns:xlink="http://www.w3.org/1999/xlink" width="921.6pt" height="518.4pt" viewBox="0 0 921.6 518.4" xmlns="http://www.w3.org/2000/svg" version="1.1">
 <metadata>
  <rdf:RDF xmlns:dc="http://purl.org/dc/elements/1.1/" xmlns:cc="http://creativecommons.org/ns#" xmlns:rdf="http://www.w3.org/1999/02/22-rdf-syntax-ns#">
   <cc:Work>
    <dc:type rdf:resource="http://purl.org/dc/dcmitype/StillImage"/>
    <dc:date>2023-08-25T20:18:03.620152</dc:date>
    <dc:format>image/svg+xml</dc:format>
    <dc:creator>
     <cc:Agent>
      <dc:title>Matplotlib v3.7.1, https://matplotlib.org/</dc:title>
     </cc:Agent>
    </dc:creator>
   </cc:Work>
  </rdf:RDF>
 </metadata>
 <defs>
  <style type="text/css">*{stroke-linejoin: round; stroke-linecap: butt}</style>
 </defs>
 <g id="figure_1">
  <g id="patch_1">
   <path d="M 0 518.4 
L 921.6 518.4 
L 921.6 0 
L 0 0 
z
" style="fill: #ffffff"/>
  </g>
  <g id="axes_1">
   <g id="patch_2">
    <path d="M 115.2 461.376 
L 829.44 461.376 
L 829.44 62.208 
L 115.2 62.208 
z
" style="fill: #ffffff"/>
   </g>
   <g id="matplotlib.axis_1">
    <g id="xtick_1">
     <g id="line2d_1">
      <defs>
       <path id="m486afb3905" d="M 0 0 
L 0 3.5 
" style="stroke: #000000; stroke-width: 0.8"/>
      </defs>
      <g>
       <use xlink:href="#m486afb3905" x="115.2" y="461.376" style="stroke: #000000; stroke-width: 0.8"/>
      </g>
     </g>
     <g id="text_1">
      <!-- 0 -->
      <g transform="translate(110.45 481.958031) scale(0.19 -0.19)">
       <defs>
        <path id="SimSun-30" d="M 1600 4225 
Q 1250 4225 1012 3687 
Q 775 3150 775 2250 
Q 775 1300 1012 775 
Q 1250 250 1600 250 
Q 1975 250 2187 775 
Q 2400 1300 2400 2250 
Q 2400 3150 2200 3687 
Q 2000 4225 1600 4225 
z
M 1600 50 
Q 1050 50 675 625 
Q 300 1200 300 2250 
Q 300 3225 662 3825 
Q 1025 4425 1600 4425 
Q 2150 4425 2512 3850 
Q 2875 3275 2875 2250 
Q 2875 1225 2512 637 
Q 2150 50 1600 50 
z
" transform="scale(0.015625)"/>
       </defs>
       <use xlink:href="#SimSun-30"/>
      </g>
     </g>
    </g>
    <g id="xtick_2">
     <g id="line2d_2">
      <g>
       <use xlink:href="#m486afb3905" x="234.24" y="461.376" style="stroke: #000000; stroke-width: 0.8"/>
      </g>
     </g>
     <g id="text_2">
      <!-- 50 -->
      <g transform="translate(224.74 481.958031) scale(0.19 -0.19)">
       <defs>
        <path id="SimSun-35" d="M 1725 2850 
Q 2200 2850 2500 2487 
Q 2800 2125 2800 1525 
Q 2800 850 2487 450 
Q 2175 50 1525 50 
Q 1075 50 725 312 
Q 375 575 375 950 
Q 375 1100 462 1212 
Q 550 1325 700 1325 
Q 850 1325 900 1225 
Q 950 1125 950 1050 
Q 950 900 875 825 
Q 800 725 800 625 
Q 800 425 1037 325 
Q 1275 225 1550 225 
Q 1950 225 2162 550 
Q 2375 875 2375 1475 
Q 2375 1975 2187 2287 
Q 2000 2600 1625 2600 
Q 1350 2600 1150 2500 
Q 950 2400 775 2075 
L 550 2100 
L 675 4375 
L 2725 4375 
L 2650 4000 
L 850 4000 
L 750 2350 
Q 1000 2700 1237 2775 
Q 1475 2850 1725 2850 
z
" transform="scale(0.015625)"/>
       </defs>
       <use xlink:href="#SimSun-35"/>
       <use xlink:href="#SimSun-30" x="50"/>
      </g>
     </g>
    </g>
    <g id="xtick_3">
     <g id="line2d_3">
      <g>
       <use xlink:href="#m486afb3905" x="353.28" y="461.376" style="stroke: #000000; stroke-width: 0.8"/>
      </g>
     </g>
     <g id="text_3">
      <!-- 100 -->
      <g transform="translate(339.03 481.958031) scale(0.19 -0.19)">
       <defs>
        <path id="SimSun-31" d="M 1825 4450 
L 1825 650 
Q 1825 450 1950 350 
Q 2075 250 2300 250 
L 2550 250 
L 2550 100 
L 725 100 
L 725 250 
L 950 250 
Q 1200 250 1312 350 
Q 1425 450 1425 650 
L 1425 3675 
Q 1425 3775 1362 3837 
Q 1300 3900 1175 3900 
L 725 3900 
L 725 4050 
L 950 4050 
Q 1250 4050 1437 4150 
Q 1625 4250 1725 4450 
L 1825 4450 
z
" transform="scale(0.015625)"/>
       </defs>
       <use xlink:href="#SimSun-31"/>
       <use xlink:href="#SimSun-30" x="50"/>
       <use xlink:href="#SimSun-30" x="100"/>
      </g>
     </g>
    </g>
    <g id="xtick_4">
     <g id="line2d_4">
      <g>
       <use xlink:href="#m486afb3905" x="472.32" y="461.376" style="stroke: #000000; stroke-width: 0.8"/>
      </g>
     </g>
     <g id="text_4">
      <!-- 150 -->
      <g transform="translate(458.07 481.958031) scale(0.19 -0.19)">
       <use xlink:href="#SimSun-31"/>
       <use xlink:href="#SimSun-35" x="50"/>
       <use xlink:href="#SimSun-30" x="100"/>
      </g>
     </g>
    </g>
    <g id="xtick_5">
     <g id="line2d_5">
      <g>
       <use xlink:href="#m486afb3905" x="591.36" y="461.376" style="stroke: #000000; stroke-width: 0.8"/>
      </g>
     </g>
     <g id="text_5">
      <!-- 200 -->
      <g transform="translate(577.11 481.958031) scale(0.19 -0.19)">
       <defs>
        <path id="SimSun-32" d="M 2325 3325 
Q 2325 3775 2125 4012 
Q 1925 4250 1525 4250 
Q 1225 4250 1012 4087 
Q 800 3925 800 3675 
Q 800 3525 900 3425 
Q 975 3325 975 3225 
Q 975 3100 912 3037 
Q 850 2975 725 2975 
Q 575 2975 487 3062 
Q 400 3150 400 3350 
Q 400 3875 775 4150 
Q 1150 4425 1575 4425 
Q 2175 4425 2462 4125 
Q 2750 3825 2750 3375 
Q 2750 3075 2612 2775 
Q 2475 2475 2175 2200 
Q 1450 1500 1062 1062 
Q 675 625 600 475 
L 2075 475 
Q 2300 475 2450 650 
Q 2600 825 2650 1175 
L 2800 1175 
L 2650 100 
L 325 100 
L 325 425 
Q 450 650 737 1000 
Q 1025 1350 1500 1825 
Q 1925 2250 2125 2625 
Q 2325 3000 2325 3325 
z
" transform="scale(0.015625)"/>
       </defs>
       <use xlink:href="#SimSun-32"/>
       <use xlink:href="#SimSun-30" x="50"/>
       <use xlink:href="#SimSun-30" x="100"/>
      </g>
     </g>
    </g>
    <g id="xtick_6">
     <g id="line2d_6">
      <g>
       <use xlink:href="#m486afb3905" x="710.4" y="461.376" style="stroke: #000000; stroke-width: 0.8"/>
      </g>
     </g>
     <g id="text_6">
      <!-- 250 -->
      <g transform="translate(696.15 481.958031) scale(0.19 -0.19)">
       <use xlink:href="#SimSun-32"/>
       <use xlink:href="#SimSun-35" x="50"/>
       <use xlink:href="#SimSun-30" x="100"/>
      </g>
     </g>
    </g>
    <g id="xtick_7">
     <g id="line2d_7">
      <g>
       <use xlink:href="#m486afb3905" x="829.44" y="461.376" style="stroke: #000000; stroke-width: 0.8"/>
      </g>
     </g>
     <g id="text_7">
      <!-- 300 -->
      <g transform="translate(815.19 481.958031) scale(0.19 -0.19)">
       <defs>
        <path id="SimSun-33" d="M 2800 1250 
Q 2800 775 2450 412 
Q 2100 50 1475 50 
Q 1025 50 700 300 
Q 375 550 375 875 
Q 375 1025 475 1137 
Q 575 1250 675 1250 
Q 825 1250 887 1137 
Q 950 1025 950 950 
Q 950 825 900 750 
Q 850 650 850 575 
Q 850 425 1037 325 
Q 1225 225 1450 225 
Q 1900 225 2125 487 
Q 2350 750 2350 1300 
Q 2350 1750 2112 2025 
Q 1875 2300 1225 2300 
L 1225 2475 
Q 1725 2475 1962 2712 
Q 2200 2950 2200 3375 
Q 2200 3725 2012 3987 
Q 1825 4250 1425 4250 
Q 1250 4250 1050 4162 
Q 850 4075 850 3875 
Q 850 3675 900 3625 
Q 950 3575 950 3500 
Q 950 3375 900 3300 
Q 850 3225 725 3225 
Q 625 3225 537 3300 
Q 450 3375 450 3575 
Q 450 3950 775 4187 
Q 1100 4425 1525 4425 
Q 2025 4425 2325 4112 
Q 2625 3800 2625 3450 
Q 2625 3075 2437 2812 
Q 2250 2550 1850 2425 
Q 2400 2225 2600 1900 
Q 2800 1575 2800 1250 
z
" transform="scale(0.015625)"/>
       </defs>
       <use xlink:href="#SimSun-33"/>
       <use xlink:href="#SimSun-30" x="50"/>
       <use xlink:href="#SimSun-30" x="100"/>
      </g>
     </g>
    </g>
    <g id="text_8">
     <!-- 请求数 $\mathrm{(M)}$ -->
     <g transform="translate(424.25 504.17725) scale(0.19 -0.19)">
      <defs>
       <path id="SimSun-8bf7" d="M 3800 4400 
Q 3800 4925 3775 5250 
L 4350 5000 
L 4150 4825 
L 4150 4400 
L 5175 4400 
L 5525 4725 
L 5950 4250 
L 4150 4250 
L 4150 3725 
L 4875 3725 
L 5200 4025 
L 5600 3575 
L 4150 3575 
L 4150 2950 
L 5325 2950 
L 5675 3275 
L 6100 2800 
L 2650 2800 
Q 2450 2800 2175 2725 
L 1950 2950 
L 3800 2950 
L 3800 3575 
L 3225 3575 
Q 3025 3575 2750 3500 
L 2525 3725 
L 3800 3725 
L 3800 4250 
L 2850 4250 
Q 2650 4250 2375 4175 
L 2150 4400 
L 3800 4400 
z
M 3075 2150 
L 3075 1650 
L 4975 1650 
L 4975 2150 
L 3075 2150 
z
M 3075 1500 
L 3075 925 
L 4975 925 
L 4975 1500 
L 3075 1500 
z
M 2725 2500 
L 3050 2300 
L 4925 2300 
L 5075 2525 
L 5475 2225 
L 5300 2075 
L 5300 50 
Q 5325 -425 4750 -600 
Q 4750 -275 4075 -125 
L 4075 -25 
Q 4500 -50 4750 -62 
Q 5000 -75 4975 175 
L 4975 775 
L 3075 775 
L 3075 -450 
L 2725 -625 
Q 2750 125 2750 1000 
Q 2750 1875 2725 2500 
z
M 850 5000 
L 925 5050 
Q 1375 4750 1512 4562 
Q 1650 4375 1600 4200 
Q 1550 4025 1450 3950 
L 1325 3875 
Q 1225 3875 1200 4150 
Q 1150 4500 850 5000 
z
M 200 3075 
L 1100 3075 
L 1300 3325 
L 1725 3000 
L 1500 2825 
L 1500 600 
L 2400 1425 
L 2475 1350 
Q 1775 525 1400 -150 
L 1050 250 
Q 1150 400 1150 600 
L 1150 2925 
L 900 2925 
Q 700 2925 425 2850 
L 200 3075 
z
" transform="scale(0.015625)"/>
       <path id="SimSun-6c42" d="M 3950 5025 
Q 4500 4825 4737 4687 
Q 4975 4550 4975 4350 
Q 4975 4300 4912 4125 
Q 4850 3950 4800 3950 
Q 4725 3950 4625 4150 
Q 4425 4475 3900 4950 
L 3950 5025 
z
M 2900 5225 
L 3500 4900 
L 3300 4700 
L 3300 3775 
L 5050 3775 
L 5400 4150 
L 5900 3625 
L 3325 3625 
Q 3650 2575 4000 2000 
Q 4725 2575 5100 3125 
L 5525 2650 
Q 5250 2600 4950 2425 
Q 4650 2225 4050 1875 
Q 4900 650 6100 375 
L 6100 275 
Q 5675 225 5525 -75 
Q 3750 900 3300 3325 
L 3300 175 
Q 3325 -425 2675 -600 
Q 2650 -250 1925 -25 
L 1925 75 
Q 2475 25 2687 25 
Q 2900 25 2925 250 
L 2925 1700 
Q 1950 1075 1387 700 
Q 825 325 700 100 
L 300 600 
Q 575 650 1225 975 
Q 1875 1300 2925 1850 
L 2925 3625 
L 1275 3625 
Q 950 3625 675 3550 
L 450 3775 
L 2925 3775 
Q 2925 4850 2900 5225 
z
M 1050 3175 
Q 1775 2900 1975 2712 
Q 2175 2525 2175 2350 
Q 2175 2250 2075 2075 
Q 1975 1900 1925 1900 
Q 1850 1900 1750 2175 
Q 1575 2575 1000 3100 
L 1050 3175 
z
" transform="scale(0.015625)"/>
       <path id="SimSun-6570" d="M 1875 1525 
Q 1675 1200 1500 900 
Q 1825 825 2275 725 
Q 2500 975 2725 1525 
L 1875 1525 
z
M 850 4900 
Q 1325 4600 1425 4450 
Q 1525 4300 1525 4225 
Q 1525 4100 1437 3975 
Q 1350 3850 1300 3850 
Q 1225 3850 1150 4100 
Q 1050 4450 775 4850 
L 850 4900 
z
M 3000 4975 
L 3450 4675 
Q 3250 4625 3100 4425 
Q 2925 4225 2525 3825 
L 2450 3875 
Q 2925 4625 3000 4975 
z
M 1875 5250 
L 2425 5000 
L 2225 4825 
L 2225 3675 
L 2850 3675 
L 3125 3950 
L 3550 3525 
L 2225 3525 
L 2225 3300 
Q 2800 3175 2937 3062 
Q 3075 2950 3075 2775 
Q 3075 2700 3050 2587 
Q 3025 2475 2975 2475 
Q 2925 2475 2800 2650 
Q 2600 2925 2225 3175 
L 2225 2400 
L 1925 2200 
L 2275 2050 
Q 2150 2000 1950 1675 
L 2725 1675 
L 2900 1900 
L 3275 1575 
L 3050 1450 
Q 2800 875 2600 650 
Q 3000 550 3137 437 
Q 3275 325 3275 150 
Q 3275 -25 3200 -25 
Q 3125 -25 3025 75 
Q 2750 275 2400 425 
Q 1525 -275 325 -500 
L 300 -425 
Q 1450 -50 2100 550 
Q 1600 725 1125 800 
Q 1225 950 1525 1525 
L 1200 1525 
Q 875 1525 600 1450 
L 375 1675 
L 1575 1675 
Q 1675 1925 1775 2275 
L 1900 2225 
L 1900 3250 
Q 1225 2475 350 2050 
L 300 2125 
Q 1225 2775 1700 3525 
L 1250 3525 
Q 925 3525 650 3450 
L 425 3675 
L 1900 3675 
Q 1900 4575 1875 5250 
z
M 3925 3525 
Q 4050 2075 4525 1100 
Q 4925 1950 5025 3525 
L 3925 3525 
z
M 4050 5250 
L 4625 4925 
Q 4425 4850 4325 4625 
Q 4225 4400 3950 3675 
L 5375 3675 
L 5675 3975 
L 6125 3525 
L 5400 3525 
Q 5250 1675 4750 775 
Q 5325 75 6100 -100 
L 6100 -200 
Q 5625 -275 5600 -500 
Q 4950 -50 4525 525 
Q 3700 -275 2550 -650 
L 2500 -575 
Q 3650 -50 4325 800 
Q 3850 1975 3825 3375 
Q 3575 2725 3100 2150 
L 3025 2200 
Q 3625 3200 4050 5250 
z
" transform="scale(0.015625)"/>
       <path id="SimSun-20" d="M 0 0 
Q 0 0 0 0 
z
" transform="scale(0.015625)"/>
       <path id="STIXGeneral-Regular-28" d="M 1946 -1030 
L 1869 -1133 
Q 1126 -710 716 32 
Q 307 774 307 1613 
Q 307 3386 1888 4326 
L 1946 4224 
Q 1293 3667 1075 3126 
Q 858 2586 858 1632 
Q 858 685 1082 96 
Q 1306 -493 1946 -1030 
z
" transform="scale(0.015625)"/>
       <path id="STIXGeneral-Regular-4d" d="M 5530 0 
L 3738 0 
L 3738 122 
Q 4115 147 4214 265 
Q 4314 384 4314 787 
L 4314 3661 
L 2682 0 
L 2592 0 
L 979 3514 
L 979 966 
Q 979 448 1088 294 
Q 1197 141 1574 122 
L 1574 0 
L 77 0 
L 77 122 
Q 358 141 480 205 
Q 602 269 650 432 
Q 698 595 698 966 
L 698 3514 
Q 698 3878 589 3984 
Q 480 4090 90 4115 
L 90 4237 
L 1357 4237 
L 2835 1024 
L 4250 4237 
L 5523 4237 
L 5523 4115 
Q 5178 4109 5072 3993 
Q 4966 3878 4966 3520 
L 4966 717 
Q 4966 378 5072 262 
Q 5178 147 5530 122 
L 5530 0 
z
" transform="scale(0.015625)"/>
       <path id="STIXGeneral-Regular-29" d="M 186 4224 
L 262 4326 
Q 992 3891 1408 3148 
Q 1824 2406 1824 1581 
Q 1824 -166 243 -1133 
L 186 -1030 
Q 845 -486 1059 54 
Q 1274 595 1274 1562 
Q 1274 2534 1059 3120 
Q 845 3706 186 4224 
z
" transform="scale(0.015625)"/>
      </defs>
      <use xlink:href="#SimSun-8bf7" transform="translate(0 0.96875)"/>
      <use xlink:href="#SimSun-6c42" transform="translate(100 0.96875)"/>
      <use xlink:href="#SimSun-6570" transform="translate(200 0.96875)"/>
      <use xlink:href="#SimSun-20" transform="translate(300 0.96875)"/>
      <use xlink:href="#STIXGeneral-Regular-28" transform="translate(350 0.96875)"/>
      <use xlink:href="#STIXGeneral-Regular-4d" transform="translate(383.299988 0.96875)"/>
      <use xlink:href="#STIXGeneral-Regular-29" transform="translate(472.199982 0.96875)"/>
     </g>
    </g>
   </g>
   <g id="matplotlib.axis_2">
    <g id="ytick_1">
     <g id="line2d_8">
      <defs>
       <path id="m5cd734ab7f" d="M 0 0 
L -3.5 0 
" style="stroke: #000000; stroke-width: 0.8"/>
      </defs>
      <g>
       <use xlink:href="#m5cd734ab7f" x="115.2" y="461.376" style="stroke: #000000; stroke-width: 0.8"/>
      </g>
     </g>
     <g id="text_9">
      <!-- 50 -->
      <g transform="translate(89.2 468.167016) scale(0.19 -0.19)">
       <use xlink:href="#SimSun-35"/>
       <use xlink:href="#SimSun-30" x="50"/>
      </g>
     </g>
    </g>
    <g id="ytick_2">
     <g id="line2d_9">
      <g>
       <use xlink:href="#m5cd734ab7f" x="115.2" y="421.4592" style="stroke: #000000; stroke-width: 0.8"/>
      </g>
     </g>
     <g id="text_10">
      <!-- 55 -->
      <g transform="translate(89.2 428.250216) scale(0.19 -0.19)">
       <use xlink:href="#SimSun-35"/>
       <use xlink:href="#SimSun-35" x="50"/>
      </g>
     </g>
    </g>
    <g id="ytick_3">
     <g id="line2d_10">
      <g>
       <use xlink:href="#m5cd734ab7f" x="115.2" y="381.5424" style="stroke: #000000; stroke-width: 0.8"/>
      </g>
     </g>
     <g id="text_11">
      <!-- 60 -->
      <g transform="translate(89.2 388.333416) scale(0.19 -0.19)">
       <defs>
        <path id="SimSun-36" d="M 775 1800 
Q 775 1050 1037 637 
Q 1300 225 1675 225 
Q 2050 225 2250 500 
Q 2450 775 2450 1525 
Q 2450 2025 2237 2300 
Q 2025 2575 1725 2575 
Q 1450 2575 1212 2412 
Q 975 2250 775 1800 
z
M 1750 2825 
Q 2350 2825 2612 2425 
Q 2875 2025 2875 1525 
Q 2875 775 2512 412 
Q 2150 50 1675 50 
Q 1000 50 650 562 
Q 300 1075 300 2050 
Q 300 3200 725 3812 
Q 1150 4425 1875 4425 
Q 2225 4425 2437 4225 
Q 2650 4025 2650 3875 
Q 2650 3725 2587 3650 
Q 2525 3575 2375 3575 
Q 2250 3575 2187 3637 
Q 2125 3700 2125 3825 
Q 2125 3875 2150 3925 
Q 2150 3975 2150 4025 
Q 2150 4125 2075 4187 
Q 2000 4250 1800 4250 
Q 1375 4250 1075 3862 
Q 775 3475 775 2175 
Q 925 2500 1187 2662 
Q 1450 2825 1750 2825 
z
" transform="scale(0.015625)"/>
       </defs>
       <use xlink:href="#SimSun-36"/>
       <use xlink:href="#SimSun-30" x="50"/>
      </g>
     </g>
    </g>
    <g id="ytick_4">
     <g id="line2d_11">
      <g>
       <use xlink:href="#m5cd734ab7f" x="115.2" y="341.6256" style="stroke: #000000; stroke-width: 0.8"/>
      </g>
     </g>
     <g id="text_12">
      <!-- 65 -->
      <g transform="translate(89.2 348.416616) scale(0.19 -0.19)">
       <use xlink:href="#SimSun-36"/>
       <use xlink:href="#SimSun-35" x="50"/>
      </g>
     </g>
    </g>
    <g id="ytick_5">
     <g id="line2d_12">
      <g>
       <use xlink:href="#m5cd734ab7f" x="115.2" y="301.7088" style="stroke: #000000; stroke-width: 0.8"/>
      </g>
     </g>
     <g id="text_13">
      <!-- 70 -->
      <g transform="translate(89.2 308.499816) scale(0.19 -0.19)">
       <defs>
        <path id="SimSun-37" d="M 2825 4200 
Q 2300 3350 1987 2537 
Q 1675 1725 1675 1125 
Q 1675 1025 1700 850 
Q 1700 650 1700 400 
Q 1700 200 1637 125 
Q 1575 50 1425 50 
Q 1300 50 1212 137 
Q 1125 225 1125 450 
Q 1125 925 1337 1625 
Q 1550 2325 2475 4000 
L 1225 4000 
Q 950 4000 787 3825 
Q 625 3650 550 3300 
L 400 3325 
L 575 4375 
L 2825 4375 
L 2825 4200 
z
" transform="scale(0.015625)"/>
       </defs>
       <use xlink:href="#SimSun-37"/>
       <use xlink:href="#SimSun-30" x="50"/>
      </g>
     </g>
    </g>
    <g id="ytick_6">
     <g id="line2d_13">
      <g>
       <use xlink:href="#m5cd734ab7f" x="115.2" y="261.792" style="stroke: #000000; stroke-width: 0.8"/>
      </g>
     </g>
     <g id="text_14">
      <!-- 75 -->
      <g transform="translate(89.2 268.583016) scale(0.19 -0.19)">
       <use xlink:href="#SimSun-37"/>
       <use xlink:href="#SimSun-35" x="50"/>
      </g>
     </g>
    </g>
    <g id="ytick_7">
     <g id="line2d_14">
      <g>
       <use xlink:href="#m5cd734ab7f" x="115.2" y="221.8752" style="stroke: #000000; stroke-width: 0.8"/>
      </g>
     </g>
     <g id="text_15">
      <!-- 80 -->
      <g transform="translate(89.2 228.666216) scale(0.19 -0.19)">
       <defs>
        <path id="SimSun-38" d="M 625 1125 
Q 625 725 887 475 
Q 1150 225 1550 225 
Q 2025 225 2237 475 
Q 2450 725 2450 1100 
Q 2450 1425 2150 1725 
Q 1850 2025 1250 2275 
Q 950 2075 787 1775 
Q 625 1475 625 1125 
z
M 2825 1175 
Q 2825 700 2475 375 
Q 2125 50 1550 50 
Q 1025 50 650 375 
Q 275 700 275 1125 
Q 275 1550 487 1850 
Q 700 2150 1100 2375 
Q 750 2550 562 2812 
Q 375 3075 375 3400 
Q 375 3825 700 4125 
Q 1025 4425 1600 4425 
Q 2125 4425 2450 4125 
Q 2775 3825 2775 3400 
Q 2775 3100 2587 2837 
Q 2400 2575 2000 2375 
Q 2425 2125 2625 1825 
Q 2825 1525 2825 1175 
z
M 2425 3375 
Q 2425 3725 2225 3987 
Q 2025 4250 1600 4250 
Q 1125 4250 925 4000 
Q 725 3750 725 3475 
Q 725 3200 1012 2937 
Q 1300 2675 1825 2475 
Q 2125 2625 2275 2850 
Q 2425 3075 2425 3375 
z
" transform="scale(0.015625)"/>
       </defs>
       <use xlink:href="#SimSun-38"/>
       <use xlink:href="#SimSun-30" x="50"/>
      </g>
     </g>
    </g>
    <g id="ytick_8">
     <g id="line2d_15">
      <g>
       <use xlink:href="#m5cd734ab7f" x="115.2" y="181.9584" style="stroke: #000000; stroke-width: 0.8"/>
      </g>
     </g>
     <g id="text_16">
      <!-- 85 -->
      <g transform="translate(89.2 188.749416) scale(0.19 -0.19)">
       <use xlink:href="#SimSun-38"/>
       <use xlink:href="#SimSun-35" x="50"/>
      </g>
     </g>
    </g>
    <g id="ytick_9">
     <g id="line2d_16">
      <g>
       <use xlink:href="#m5cd734ab7f" x="115.2" y="142.0416" style="stroke: #000000; stroke-width: 0.8"/>
      </g>
     </g>
     <g id="text_17">
      <!-- 90 -->
      <g transform="translate(89.2 148.832616) scale(0.19 -0.19)">
       <defs>
        <path id="SimSun-39" d="M 700 3050 
Q 700 2500 912 2212 
Q 1125 1925 1450 1925 
Q 1825 1925 2100 2275 
Q 2375 2625 2375 2925 
Q 2375 3525 2175 3887 
Q 1975 4250 1525 4250 
Q 1100 4250 900 3912 
Q 700 3575 700 3050 
z
M 1375 1700 
Q 875 1700 575 2012 
Q 275 2325 275 3025 
Q 275 3625 600 4025 
Q 925 4425 1525 4425 
Q 2150 4425 2500 3925 
Q 2850 3425 2850 2475 
Q 2850 1425 2437 737 
Q 2025 50 1300 50 
Q 975 50 737 200 
Q 500 350 500 600 
Q 500 700 562 800 
Q 625 900 775 900 
Q 925 900 975 787 
Q 1025 675 1025 525 
Q 1025 425 1050 362 
Q 1075 300 1100 275 
Q 1125 250 1187 237 
Q 1250 225 1325 225 
Q 1775 225 2050 725 
Q 2325 1225 2375 2400 
Q 2250 2100 2000 1900 
Q 1750 1700 1375 1700 
z
" transform="scale(0.015625)"/>
       </defs>
       <use xlink:href="#SimSun-39"/>
       <use xlink:href="#SimSun-30" x="50"/>
      </g>
     </g>
    </g>
    <g id="ytick_10">
     <g id="line2d_17">
      <g>
       <use xlink:href="#m5cd734ab7f" x="115.2" y="102.1248" style="stroke: #000000; stroke-width: 0.8"/>
      </g>
     </g>
     <g id="text_18">
      <!-- 95 -->
      <g transform="translate(89.2 108.915816) scale(0.19 -0.19)">
       <use xlink:href="#SimSun-39"/>
       <use xlink:href="#SimSun-35" x="50"/>
      </g>
     </g>
    </g>
    <g id="ytick_11">
     <g id="line2d_18">
      <g>
       <use xlink:href="#m5cd734ab7f" x="115.2" y="62.208" style="stroke: #000000; stroke-width: 0.8"/>
      </g>
     </g>
     <g id="text_19">
      <!-- 100 -->
      <g transform="translate(79.7 68.999016) scale(0.19 -0.19)">
       <use xlink:href="#SimSun-31"/>
       <use xlink:href="#SimSun-30" x="50"/>
       <use xlink:href="#SimSun-30" x="100"/>
      </g>
     </g>
    </g>
    <g id="text_20">
     <!-- 读取命中率 $\mathrm{(\%)}$ -->
     <g transform="translate(72.28 327.532) rotate(-90) scale(0.19 -0.19)">
      <defs>
       <path id="SimSun-8bfb" d="M 1450 275 
L 2375 850 
L 2425 775 
Q 1600 50 1325 -325 
L 1025 50 
Q 1125 175 1125 400 
L 1125 2850 
L 1050 2850 
Q 725 2850 450 2775 
L 225 3000 
L 1125 3000 
L 1350 3225 
L 1675 2900 
L 1450 2725 
L 1450 275 
z
M 750 4925 
L 800 5000 
Q 1150 4800 1387 4600 
Q 1625 4400 1587 4200 
Q 1550 4000 1400 3925 
Q 1250 3850 1175 4200 
Q 1100 4525 750 4925 
z
M 5100 2700 
L 5425 3325 
L 2575 3325 
Q 2375 3325 2100 3250 
L 1875 3475 
L 3650 3475 
L 3650 4250 
L 3025 4250 
Q 2700 4250 2425 4175 
L 2200 4400 
L 3650 4400 
Q 3650 4825 3625 5250 
L 4175 5000 
L 3975 4825 
L 3975 4400 
L 4875 4400 
L 5150 4675 
L 5550 4250 
L 3975 4250 
L 3975 3475 
L 5375 3475 
L 5625 3750 
L 6075 3300 
Q 5725 3275 5200 2650 
L 5100 2700 
z
M 2750 2925 
L 2775 3000 
Q 3350 2825 3462 2687 
Q 3575 2550 3575 2450 
Q 3575 2350 3512 2250 
Q 3450 2150 3425 2150 
Q 3350 2150 3275 2350 
Q 3125 2625 2750 2925 
z
M 2375 2275 
Q 2975 2075 3100 1950 
Q 3225 1825 3225 1700 
Q 3225 1625 3162 1512 
Q 3100 1400 3075 1400 
Q 3000 1400 2900 1625 
Q 2725 1925 2350 2200 
L 2375 2275 
z
M 4475 2625 
Q 4425 1550 4350 1175 
L 5275 1175 
L 5600 1500 
L 6050 1025 
L 4325 1025 
Q 4250 825 4125 575 
Q 4850 350 5200 150 
Q 5550 -50 5600 -237 
Q 5650 -425 5587 -500 
Q 5525 -575 5475 -575 
Q 5350 -575 5175 -325 
Q 4925 25 4075 475 
Q 3425 -425 1975 -650 
L 1950 -550 
Q 3600 -100 3975 1025 
L 2700 1025 
Q 2500 1025 2225 950 
L 2000 1175 
L 4000 1175 
Q 4100 1800 4100 3075 
L 4675 2800 
L 4475 2625 
z
" transform="scale(0.015625)"/>
       <path id="SimSun-53d6" d="M 1300 2225 
L 1300 1125 
L 2425 1350 
L 2425 2225 
L 1300 2225 
z
M 2750 1225 
Q 2750 100 2775 -350 
L 2400 -575 
Q 2425 125 2425 1150 
Q 775 700 575 425 
L 325 925 
Q 625 975 975 1050 
L 975 4650 
L 775 4650 
L 525 4600 
L 325 4800 
L 2675 4800 
L 2975 5100 
L 3425 4650 
L 2750 4650 
L 2750 1425 
L 3500 1575 
L 3525 1475 
L 2750 1225 
z
M 1300 4650 
L 1300 3600 
L 2425 3600 
L 2425 4650 
L 1300 4650 
z
M 2425 3450 
L 1300 3450 
L 1300 2375 
L 2425 2375 
L 2425 3450 
z
M 2925 4175 
L 5050 4175 
L 5250 4425 
L 5700 4075 
L 5475 3925 
Q 5100 2350 4550 1275 
Q 5200 375 6100 125 
L 6100 25 
Q 5775 -25 5600 -275 
Q 4875 225 4375 975 
Q 3700 25 2825 -525 
L 2775 -450 
Q 3650 325 4175 1250 
Q 3650 2625 3525 4025 
L 3350 4025 
L 3125 3975 
L 2925 4175 
z
M 3650 4025 
Q 3900 2525 4350 1600 
Q 4825 2650 5075 4025 
L 3650 4025 
z
" transform="scale(0.015625)"/>
       <path id="SimSun-547d" d="M 1775 3150 
L 3650 3150 
L 3950 3450 
L 4400 3000 
L 2550 3000 
Q 2225 3000 2000 2925 
L 1775 3150 
z
M 1450 2125 
L 1450 575 
L 2400 575 
L 2400 2125 
L 1450 2125 
z
M 1100 -250 
Q 1125 525 1125 1125 
Q 1125 1725 1100 2500 
L 1450 2275 
L 2350 2275 
L 2525 2500 
L 2900 2200 
L 2725 2050 
Q 2725 550 2750 150 
L 2400 0 
L 2400 425 
L 1450 425 
L 1450 -100 
L 1100 -250 
z
M 3775 2175 
L 3775 -450 
L 3425 -625 
Q 3450 75 3450 1050 
Q 3450 2025 3425 2550 
L 3775 2325 
L 4825 2325 
L 5000 2575 
L 5400 2275 
L 5200 2100 
L 5200 525 
Q 5225 75 4700 -125 
Q 4700 150 4025 325 
L 4025 425 
Q 4550 375 4712 375 
Q 4875 375 4875 700 
L 4875 2175 
L 3775 2175 
z
M 2975 5275 
L 3475 4900 
L 3250 4725 
Q 3750 4025 4450 3625 
Q 5150 3225 6125 3075 
L 6125 2975 
Q 5700 2950 5550 2625 
Q 4650 3050 4112 3500 
Q 3575 3950 3150 4650 
Q 2600 3900 1962 3362 
Q 1325 2825 275 2425 
L 225 2525 
Q 1250 2975 1962 3750 
Q 2675 4525 2975 5275 
z
" transform="scale(0.015625)"/>
       <path id="SimSun-4e2d" d="M 3325 3625 
L 3325 1975 
L 5125 1975 
L 5125 3625 
L 3325 3625 
z
M 2950 3775 
Q 2950 4750 2925 5250 
L 3525 4975 
L 3325 4775 
L 3325 3775 
L 5075 3775 
L 5275 4075 
L 5700 3750 
L 5475 3550 
L 5475 2100 
Q 5475 1825 5500 1525 
L 5125 1375 
L 5125 1825 
L 3325 1825 
Q 3325 -75 3350 -400 
L 2925 -625 
Q 2950 -50 2950 1825 
L 1225 1825 
L 1225 1525 
L 850 1325 
Q 875 1775 875 2625 
Q 875 3475 850 4000 
L 1225 3775 
L 2950 3775 
z
M 1225 3625 
L 1225 1975 
L 2950 1975 
L 2950 3625 
L 1225 3625 
z
" transform="scale(0.015625)"/>
       <path id="SimSun-7387" d="M 875 3725 
L 925 3800 
Q 1375 3650 1550 3525 
Q 1725 3400 1725 3250 
Q 1725 3175 1662 3025 
Q 1600 2875 1550 2875 
Q 1500 2875 1425 3050 
Q 1275 3325 875 3725 
z
M 550 1850 
Q 875 1925 2000 2575 
L 2050 2500 
Q 1675 2225 1337 1937 
Q 1000 1650 875 1425 
L 550 1850 
z
M 5200 3450 
Q 4800 3150 4275 2800 
L 4225 2875 
Q 4775 3400 5050 3925 
L 5450 3525 
L 5200 3450 
z
M 4325 2500 
L 4350 2575 
Q 5225 2350 5375 2212 
Q 5525 2075 5525 1900 
Q 5525 1775 5487 1662 
Q 5450 1550 5400 1550 
Q 5325 1550 5200 1800 
Q 4975 2150 4325 2500 
z
M 3150 3900 
Q 2500 3300 2300 3150 
Q 2800 3150 3400 3175 
Q 3700 3500 3850 3825 
L 4250 3450 
Q 4050 3400 3450 2825 
Q 2850 2250 2475 1950 
Q 3150 1975 3850 2000 
Q 3750 2175 3550 2450 
L 3600 2500 
Q 4050 2250 4200 2100 
Q 4350 1950 4350 1850 
Q 4350 1775 4250 1625 
Q 4150 1475 4100 1475 
Q 4075 1475 4050 1550 
Q 4000 1700 3900 1900 
Q 3650 1875 3075 1800 
L 3500 1550 
L 3325 1425 
L 3325 975 
L 5325 975 
L 5650 1300 
L 6100 825 
L 3325 825 
Q 3325 -275 3350 -525 
L 2975 -650 
Q 3000 0 3000 825 
L 1125 825 
Q 800 825 525 750 
L 300 975 
L 3000 975 
L 3000 1775 
Q 2450 1700 2200 1525 
L 1950 1950 
Q 2275 1950 2675 2350 
Q 3075 2750 3325 3050 
Q 2400 2950 2150 2775 
L 1950 3175 
Q 2150 3150 2475 3575 
Q 2800 4000 2900 4225 
L 1450 4225 
Q 1125 4225 850 4150 
L 625 4375 
L 3100 4375 
Q 3050 4800 2675 5200 
L 2725 5250 
Q 3225 5050 3337 4912 
Q 3450 4775 3450 4700 
Q 3450 4550 3250 4375 
L 5025 4375 
L 5350 4675 
L 5775 4225 
L 3050 4225 
L 3375 3950 
L 3150 3900 
z
" transform="scale(0.015625)"/>
       <path id="STIXGeneral-Regular-25" d="M 4390 1363 
Q 4390 781 4070 329 
Q 3750 -122 3341 -122 
Q 3014 -122 2790 134 
Q 2566 390 2566 762 
Q 2566 1274 2940 1693 
Q 3315 2112 3776 2112 
Q 4070 2112 4230 1917 
Q 4390 1722 4390 1363 
z
M 4243 1376 
Q 4243 1626 4131 1779 
Q 4019 1933 3840 1933 
Q 3654 1933 3526 1786 
Q 3315 1562 3171 1187 
Q 3027 813 3027 486 
Q 3027 301 3129 176 
Q 3232 51 3386 51 
Q 3718 51 3980 457 
Q 4243 864 4243 1376 
z
M 3974 4518 
L 1222 -115 
L 922 -115 
L 3443 4096 
Q 3264 3891 3094 3811 
Q 2925 3731 2669 3731 
Q 2445 3731 2182 3821 
Q 2208 3674 2208 3539 
Q 2208 3206 2067 2873 
Q 1926 2541 1696 2323 
Q 1453 2086 1146 2086 
Q 826 2086 608 2339 
Q 390 2592 390 2963 
Q 390 3507 761 3916 
Q 1133 4326 1626 4326 
Q 1792 4326 2010 4147 
Q 2310 3898 2624 3898 
Q 2918 3898 3084 3994 
Q 3251 4090 3693 4518 
L 3974 4518 
z
M 2054 3642 
Q 2054 3782 2025 3833 
Q 1997 3885 1894 3936 
Q 1747 4006 1613 4154 
Q 1414 4058 1331 3984 
Q 1248 3910 1152 3750 
Q 845 3264 845 2707 
Q 845 2509 944 2384 
Q 1043 2259 1210 2259 
Q 1549 2259 1801 2675 
Q 2054 3091 2054 3642 
z
" transform="scale(0.015625)"/>
      </defs>
      <use xlink:href="#SimSun-8bfb" transform="translate(0 0.578125)"/>
      <use xlink:href="#SimSun-53d6" transform="translate(100 0.578125)"/>
      <use xlink:href="#SimSun-547d" transform="translate(200 0.578125)"/>
      <use xlink:href="#SimSun-4e2d" transform="translate(300 0.578125)"/>
      <use xlink:href="#SimSun-7387" transform="translate(400 0.578125)"/>
      <use xlink:href="#SimSun-20" transform="translate(500 0.578125)"/>
      <use xlink:href="#STIXGeneral-Regular-28" transform="translate(550 0.578125)"/>
      <use xlink:href="#STIXGeneral-Regular-25" transform="translate(583.299988 0.578125)"/>
      <use xlink:href="#STIXGeneral-Regular-29" transform="translate(657.999969 0.578125)"/>
     </g>
    </g>
   </g>
   <g id="line2d_19">
    <path d="M 115.351628 477.374653 
L 115.876414 393.696267 
L 116.702499 352.898104 
L 117.357798 331.488329 
L 118.016641 316.74466 
L 118.673661 306.1707 
L 119.333393 300.608693 
L 119.9935 291.414257 
L 121.316068 277.297282 
L 121.982344 275.203246 
L 122.650616 268.663278 
L 123.319916 265.756537 
L 123.984571 261.992382 
L 124.661042 256.482267 
L 125.332878 254.476847 
L 126.009672 248.645003 
L 126.682413 246.181338 
L 127.363883 244.21823 
L 128.039745 241.515862 
L 128.722925 239.596663 
L 129.398929 236.404915 
L 130.083338 234.324452 
L 130.771411 233.803138 
L 131.457714 228.743285 
L 132.14947 228.099027 
L 133.535334 225.643346 
L 134.926283 222.32147 
L 135.623217 219.114554 
L 137.027651 216.599796 
L 138.438079 213.154178 
L 139.143498 212.580972 
L 139.849934 210.093357 
L 140.564048 208.808036 
L 141.276183 208.774506 
L 141.99474 205.614692 
L 142.706087 212.088399 
L 143.423082 204.784423 
L 144.142371 202.691984 
L 145.587746 202.774213 
L 146.307447 199.348553 
L 147.031903 198.191764 
L 147.754595 196.689296 
L 148.479118 197.716754 
L 149.203493 196.215883 
L 150.655455 193.93344 
L 151.386982 191.991887 
L 152.113454 191.455405 
L 152.846288 190.576437 
L 153.57907 190.99237 
L 154.309214 188.195799 
L 155.0484 188.441687 
L 155.781924 188.218153 
L 156.519605 186.07462 
L 157.254149 184.438032 
L 157.991559 185.39364 
L 158.729157 184.142647 
L 159.470552 183.162291 
L 160.193658 182.465343 
L 160.950027 181.262251 
L 161.689684 180.363325 
L 162.430232 178.455302 
L 163.173215 178.405805 
L 163.916194 178.141556 
L 164.655789 177.043844 
L 165.399423 176.727703 
L 166.147687 176.249499 
L 166.893751 175.9613 
L 167.639232 175.027247 
L 168.388239 173.32759 
L 169.136162 174.679971 
L 169.890442 174.451647 
L 170.638666 172.167607 
L 171.387713 171.759658 
L 172.134939 172.879723 
L 172.890081 172.320089 
L 173.641674 170.698669 
L 174.393659 169.548267 
L 175.150156 169.650454 
L 175.905955 169.107585 
L 176.662407 169.101997 
L 177.414454 168.080127 
L 178.17311 167.543645 
L 178.926059 165.018508 
L 179.682654 164.963423 
L 180.437929 165.058425 
L 181.199866 164.116389 
L 181.960018 163.464148 
L 182.718074 163.562344 
L 183.477966 161.350154 
L 184.23377 161.694237 
L 184.995773 161.545747 
L 185.753856 161.116242 
L 186.51998 161.781256 
L 187.281329 161.044392 
L 188.043212 161.018845 
L 188.806594 159.987395 
L 189.565264 159.294439 
L 190.331394 159.085275 
L 191.089974 157.474233 
L 191.855037 157.524528 
L 192.619312 157.768021 
L 193.383746 156.413245 
L 194.150525 157.075864 
L 194.911931 156.654342 
L 195.677749 154.282486 
L 196.443517 155.498352 
L 197.207465 153.63264 
L 197.977614 154.329588 
L 198.747217 152.808758 
L 199.513373 152.859053 
L 200.282157 153.607892 
L 201.053593 153.086579 
L 201.823901 152.240342 
L 202.594435 152.080675 
L 203.364612 151.097125 
L 204.134032 152.027985 
L 204.903623 149.710416 
L 205.672788 149.586674 
L 206.445669 149.939538 
L 207.216415 149.248977 
L 207.988749 149.632179 
L 208.760895 148.849011 
L 209.533598 149.284903 
L 210.30463 147.985212 
L 211.075202 146.418078 
L 211.851766 146.678335 
L 212.620762 146.804473 
L 213.396132 147.863066 
L 214.173394 144.846953 
L 214.945466 144.614637 
L 215.718412 146.99767 
L 216.49071 144.778296 
L 217.270155 145.489613 
L 218.037635 142.305051 
L 218.816528 144.081348 
L 219.592592 143.541673 
L 220.365488 142.701824 
L 221.141434 142.513417 
L 221.916032 141.55222 
L 223.468473 142.435978 
L 224.242088 141.986515 
L 225.793833 140.670857 
L 226.570193 140.378666 
L 227.344146 139.600289 
L 228.906306 139.450201 
L 229.687644 140.491231 
L 230.46807 139.126875 
L 231.247134 138.389213 
L 232.031106 138.820314 
L 232.80732 137.566927 
L 233.589201 138.55846 
L 234.373668 138.182444 
L 235.156527 137.559742 
L 235.93513 136.602537 
L 236.714384 136.107569 
L 237.498922 135.171919 
L 238.278918 135.720376 
L 239.061799 136.517913 
L 239.844603 135.001873 
L 240.625951 134.995486 
L 241.411067 134.875736 
L 242.193662 134.954771 
L 242.978774 135.743527 
L 243.763729 134.387953 
L 244.545348 134.015928 
L 245.329031 131.66882 
L 246.895983 133.222382 
L 247.682518 133.392428 
L 248.467799 132.257992 
L 249.248304 131.709535 
L 250.03102 131.575415 
L 250.811925 131.050908 
L 251.589523 131.129944 
L 252.374313 130.361944 
L 253.156742 131.248896 
L 253.944248 129.707309 
L 254.730293 130.326019 
L 255.512865 129.736049 
L 256.303452 129.530078 
L 257.089147 130.714809 
L 257.87543 129.154062 
L 258.662573 128.376483 
L 259.44558 129.253854 
L 261.021048 127.714662 
L 261.806512 127.083977 
L 262.587507 127.291544 
L 263.377535 127.121498 
L 264.164397 127.19734 
L 264.951106 126.272867 
L 265.740734 126.801366 
L 266.527619 125.957525 
L 267.321223 126.068493 
L 268.106999 125.617433 
L 269.683786 126.442115 
L 270.470543 124.140512 
L 271.261838 124.073452 
L 272.047499 125.209484 
L 272.837815 124.335306 
L 273.627077 124.681784 
L 274.413217 123.847523 
L 275.203012 125.286124 
L 275.992313 124.216354 
L 276.783889 123.64714 
L 277.571481 123.612812 
L 278.355595 122.05446 
L 279.935397 123.089902 
L 280.725579 121.878028 
L 281.514929 121.97303 
L 282.301 122.229295 
L 283.091292 121.739916 
L 283.879492 122.028913 
L 284.673613 121.466885 
L 285.461298 121.271292 
L 286.251795 120.323667 
L 287.038478 120.406694 
L 287.829063 119.785589 
L 288.615503 120.708465 
L 289.40626 119.362471 
L 290.19638 119.395203 
L 290.988246 120.22148 
L 292.567722 118.57611 
L 293.357309 118.189715 
L 294.148785 119.16608 
L 294.940748 119.609157 
L 295.733126 117.507138 
L 296.528051 117.922273 
L 297.317803 118.517831 
L 298.111867 116.567497 
L 298.905806 116.636153 
L 299.692751 117.08881 
L 300.487974 118.509848 
L 301.282159 116.835737 
L 302.867048 115.373984 
L 303.660795 116.683255 
L 305.241444 115.753194 
L 306.03924 115.429069 
L 306.833378 116.553925 
L 307.627953 115.908869 
L 308.4198 114.376064 
L 309.206204 114.558085 
L 310.000984 115.442641 
L 310.792286 114.994775 
L 311.586742 114.025595 
L 312.380299 115.221502 
L 313.171284 113.700672 
L 313.964516 113.73021 
L 314.753885 113.434028 
L 315.547401 113.74937 
L 316.337214 113.279949 
L 317.134647 113.188939 
L 317.925825 112.009796 
L 318.717838 113.253604 
L 319.510214 113.438019 
L 320.304432 111.964291 
L 321.098857 112.221355 
L 321.889578 111.50445 
L 322.682187 111.704034 
L 323.478841 111.60504 
L 324.268947 111.933156 
L 325.855403 111.023851 
L 327.434507 110.598338 
L 328.223925 110.832251 
L 329.019341 110.22791 
L 329.809521 109.16772 
L 330.597511 109.995595 
L 331.386558 109.693824 
L 332.180236 109.950888 
L 332.971769 108.824436 
L 333.759821 109.10066 
L 335.342777 108.711072 
L 336.136942 109.483861 
L 336.93048 108.465983 
L 337.720679 107.919921 
L 338.515681 109.127803 
L 340.102858 107.847272 
L 340.896847 108.903471 
L 341.685583 108.062823 
L 342.478089 107.709959 
L 343.270841 106.74477 
L 344.06173 106.363964 
L 344.849544 107.295622 
L 345.643886 107.71874 
L 346.434595 106.570733 
L 347.225835 107.060113 
L 348.022998 105.808322 
L 348.812924 107.153518 
L 349.604664 106.014293 
L 350.395408 105.616722 
L 351.185132 105.98715 
L 351.979971 105.045911 
L 352.768987 105.373229 
L 353.55958 105.409953 
L 354.352579 105.967191 
L 355.1396 105.471425 
L 355.930771 103.801306 
L 356.721006 105.106585 
L 357.512005 103.528275 
L 358.2974 103.605713 
L 359.089857 105.457853 
L 359.879609 103.604117 
L 361.458479 104.12543 
L 362.245164 103.501131 
L 363.034823 104.323417 
L 363.830299 104.11106 
L 364.614306 102.312409 
L 365.406921 102.801789 
L 366.19934 102.670063 
L 366.98957 103.335077 
L 368.572331 102.541531 
L 369.360552 103.149863 
L 370.152139 102.321989 
L 370.94052 102.434554 
L 371.731538 102.204634 
L 372.517488 101.471761 
L 373.308456 101.447811 
L 374.099629 102.845697 
L 374.887981 101.757565 
L 375.678355 101.711262 
L 376.46553 101.528443 
L 377.260489 100.416361 
L 378.048774 99.690674 
L 378.834383 100.469849 
L 379.623281 101.878913 
L 380.410285 108.068412 
L 381.20316 101.375162 
L 381.989991 100.705359 
L 383.568188 99.943746 
L 384.351123 99.330624 
L 385.140477 100.130557 
L 385.923349 99.361759 
L 386.713798 99.689875 
L 387.502274 99.209277 
L 388.28844 100.287031 
L 389.077164 98.735065 
L 389.862675 99.026458 
L 390.647754 99.7258 
L 391.433898 99.4863 
L 392.223722 98.985743 
L 393.011188 99.301086 
L 393.793483 98.48359 
L 395.371199 98.172238 
L 396.155439 97.262135 
L 396.943165 97.835341 
L 397.730957 97.953494 
L 398.515031 97.74433 
L 399.300766 97.929544 
L 400.08563 97.597437 
L 400.868797 96.154843 
L 401.651918 96.613088 
L 402.43812 97.27411 
L 403.223365 96.853387 
L 404.005791 97.116838 
L 405.575081 96.615483 
L 406.360141 95.991185 
L 407.147095 96.609895 
L 407.925286 95.788407 
L 408.706733 95.817147 
L 409.488241 95.323776 
L 410.269419 96.144465 
L 411.050971 95.702187 
L 411.830636 94.69788 
L 412.612812 94.451993 
L 413.390946 94.432034 
L 414.168262 94.162197 
L 414.952888 95.289447 
L 415.730996 94.457581 
L 416.515398 95.264699 
L 417.291991 94.455186 
L 418.074636 94.644392 
L 418.853534 92.718007 
L 419.634613 94.291527 
L 420.416936 93.703952 
L 421.198627 93.845257 
L 421.978132 93.435711 
L 422.758984 93.515545 
L 423.539577 94.047236 
L 425.096858 93.59937 
L 425.874904 93.74786 
L 426.660127 92.666115 
L 427.437073 93.587395 
L 428.214709 93.540293 
L 428.996282 92.665317 
L 429.773776 92.938348 
L 430.553547 92.308461 
L 431.333604 93.278439 
L 432.11124 91.888536 
L 432.890824 92.99982 
L 433.668643 92.286107 
L 434.443324 93.299196 
L 435.223153 92.579895 
L 436.779789 92.437791 
L 438.329026 91.833451 
L 439.106902 91.962781 
L 439.885185 91.964378 
L 440.656846 92.299679 
L 441.433796 90.945701 
L 442.206996 90.876246 
L 442.980399 90.037195 
L 443.754483 90.808387 
L 444.530379 91.403148 
L 445.30156 90.424388 
L 446.074463 90.27909 
L 446.853232 90.355731 
L 447.625583 90.60082 
L 448.402631 90.568886 
L 449.174886 89.950974 
L 449.949303 90.128205 
L 450.723851 90.148163 
L 451.498645 90.705402 
L 452.275319 89.664372 
L 453.046288 89.361802 
L 453.823927 88.621745 
L 454.591611 89.319491 
L 455.365354 89.591723 
L 456.907563 89.016123 
L 458.445593 88.890784 
L 459.216996 88.454094 
L 460.762942 89.662775 
L 461.531279 87.932781 
L 462.30302 88.028581 
L 463.071475 87.591093 
L 463.838238 88.13955 
L 465.375623 88.564265 
L 466.144355 87.806644 
L 466.912934 87.248607 
L 467.680426 87.762735 
L 468.449219 88.496406 
L 469.215418 87.367559 
L 470.749746 86.827884 
L 471.51922 87.881687 
L 472.288019 86.641073 
L 473.052844 87.219069 
L 473.81984 94.887884 
L 474.586412 87.373147 
L 475.356094 86.807926 
L 476.119859 86.783975 
L 476.887698 86.262662 
L 477.651423 86.806329 
L 478.421057 86.782379 
L 479.187437 86.983559 
L 480.707851 85.385291 
L 481.472476 86.505356 
L 482.23766 85.210455 
L 482.998664 84.920659 
L 483.766653 86.170055 
L 484.533611 85.375711 
L 485.29116 86.079843 
L 486.054423 85.192093 
L 486.818234 85.332601 
L 487.582716 86.257872 
L 488.345927 85.629582 
L 489.110125 85.908201 
L 489.870324 84.862381 
L 490.634216 84.881541 
L 491.395786 85.486679 
L 492.15634 84.306739 
L 492.915832 84.591745 
L 493.672843 75.894672 
L 494.434963 84.990913 
L 495.196588 84.031313 
L 495.955821 83.927529 
L 496.715436 84.292369 
L 497.470045 84.163038 
L 498.234487 83.824544 
L 498.991726 83.981018 
L 499.752201 84.901499 
L 500.5134 82.875322 
L 501.27309 83.429368 
L 502.034377 82.875322 
L 502.792123 83.142765 
L 503.550123 83.693617 
L 505.821056 83.191463 
L 506.57565 83.23138 
L 507.33519 83.494831 
L 508.090732 83.322391 
L 508.847495 83.703995 
L 509.599797 83.206632 
L 510.354408 83.079696 
L 511.105472 83.070915 
L 511.863595 82.274974 
L 512.619804 82.651788 
L 514.128115 82.034675 
L 514.8838 82.414682 
L 515.637732 82.308504 
L 516.388622 82.711663 
L 517.142448 82.5504 
L 517.891724 81.521345 
L 518.643797 82.179173 
L 519.395875 81.973203 
L 520.148384 82.409892 
L 520.899119 81.489411 
L 521.65349 82.031481 
L 522.406259 81.013603 
L 523.156325 81.898957 
L 523.906024 81.154908 
L 525.407414 81.412771 
L 526.157057 80.548971 
L 527.655656 81.60038 
L 528.402425 80.517836 
L 529.152751 80.719017 
L 529.900534 80.636788 
L 530.64776 82.010724 
L 531.395224 81.17327 
L 532.146104 80.811624 
L 532.895066 80.60246 
L 534.386316 80.548971 
L 535.130118 80.057196 
L 535.875056 81.12058 
L 536.621627 79.879966 
L 537.366775 80.085138 
L 538.112763 80.491491 
L 538.85588 80.163375 
L 539.60097 80.498676 
L 541.089798 80.326236 
L 541.835258 80.364556 
L 542.582196 79.705928 
L 544.067903 79.684373 
L 545.557055 79.857612 
L 546.302812 79.254869 
L 547.042608 79.351467 
L 547.785339 80.005304 
L 548.529258 78.888432 
L 549.270537 78.827759 
L 550.010487 78.992216 
L 550.753463 78.845322 
L 552.234795 79.125538 
L 552.976707 78.492458 
L 553.71919 79.231717 
L 554.457479 78.937131 
L 555.935739 78.586661 
L 556.675539 78.79822 
L 557.415889 78.79822 
L 558.153647 77.919252 
L 558.891116 78.785447 
L 559.632333 78.631368 
L 560.369341 78.086903 
L 561.111598 78.185897 
L 561.847822 78.506029 
L 562.585042 77.392351 
L 563.323168 78.116441 
L 564.063252 78.268125 
L 565.536198 77.716475 
L 566.27118 78.070936 
L 567.007613 77.432268 
L 567.742983 77.952783 
L 568.478798 78.114046 
L 569.213596 76.980409 
L 569.947956 77.289365 
L 570.681693 76.966039 
L 571.412636 77.505714 
L 572.144537 76.930114 
L 573.609543 76.930114 
L 575.071159 77.544833 
L 575.802874 77.091378 
L 578.730687 77.233482 
L 580.190746 76.54851 
L 580.919283 76.976418 
L 582.374994 76.892592 
L 583.107054 76.377666 
L 583.834284 76.234764 
L 584.564302 76.408002 
L 585.290415 76.214007 
L 586.019547 76.545316 
L 586.747595 76.063121 
L 588.201 75.747779 
L 588.926737 76.359304 
L 589.650333 75.581725 
L 590.37347 75.120286 
L 591.102826 75.925009 
L 592.55255 76.265899 
L 593.271056 66.938141 
L 593.996288 76.24594 
L 594.720716 75.741392 
L 595.442565 75.891479 
L 596.168361 75.430041 
L 596.893115 75.81883 
L 597.614809 76.075895 
L 599.779725 75.341426 
L 600.499306 75.226465 
L 601.216605 76.167703 
L 601.939359 75.740594 
L 603.375926 75.730215 
L 604.092599 75.23844 
L 604.809023 75.084361 
L 605.528429 75.469159 
L 606.244055 75.723828 
L 606.960361 74.535106 
L 608.393503 75.513068 
L 609.114785 75.187347 
L 609.828204 75.234449 
L 610.548058 74.551871 
L 611.260026 75.497899 
L 611.972362 74.313169 
L 612.690561 74.860827 
L 613.401554 74.740279 
L 614.118458 74.921501 
L 614.829112 74.486408 
L 615.542081 74.199007 
L 616.257195 74.598175 
L 616.96754 75.137052 
L 618.393227 74.666832 
L 621.230793 74.616536 
L 621.940231 74.889567 
L 622.652847 74.775405 
L 623.365328 74.872802 
L 624.071423 74.646873 
L 624.784173 74.836079 
L 625.49082 74.859231 
L 626.204636 74.227747 
L 626.914977 74.53351 
L 627.624862 74.414557 
L 628.332388 74.790574 
L 629.041855 74.792969 
L 629.749521 74.356279 
L 630.456645 74.280437 
L 631.164195 74.923896 
L 631.867786 75.057218 
L 632.573529 74.816919 
L 633.277396 74.30758 
L 633.985934 74.456071 
L 634.687989 74.439306 
L 635.39211 74.040936 
L 636.094992 74.623721 
L 636.801142 74.915912 
L 637.505735 74.135938 
L 638.211018 73.943539 
L 638.914452 74.224553 
L 639.613985 74.659647 
L 640.320423 74.860827 
L 642.426365 74.551073 
L 643.127837 74.6341 
L 643.832744 74.955031 
L 644.531785 74.318757 
L 645.234421 74.262874 
L 645.932974 74.848054 
L 646.63361 74.426532 
L 647.334263 74.571031 
L 648.028061 74.265269 
L 648.730428 74.278042 
L 649.423003 64.919149 
L 650.122913 74.561451 
L 650.820192 74.456071 
L 651.520138 74.810532 
L 652.215776 74.25489 
L 653.614482 74.371447 
L 656.401209 74.968603 
L 657.096985 74.637293 
L 657.791239 74.76343 
L 658.485623 74.413759 
L 659.182066 74.444894 
L 659.876627 74.313967 
L 660.571177 74.394599 
L 661.263983 74.349094 
L 661.954979 75.273567 
L 663.341007 75.260794 
L 664.032003 75.044445 
L 664.725057 75.140245 
L 666.107749 74.350691 
L 666.803264 75.159405 
L 667.496217 74.589393 
L 668.186402 74.982174 
L 668.877565 74.256487 
L 669.567142 75.06121 
L 670.259364 74.689185 
L 671.641276 75.273567 
L 672.333153 75.343821 
L 673.024226 75.600086 
L 674.40872 74.747464 
L 675.099026 74.948644 
L 675.786715 74.716328 
L 676.477055 75.206507 
L 677.165482 74.994149 
L 677.854388 75.046041 
L 678.541484 74.970998 
L 680.60365 75.367771 
L 681.290423 74.958224 
L 681.976893 74.888769 
L 682.663523 75.358989 
L 683.345827 75.014108 
L 684.031488 75.929001 
L 684.719682 74.502374 
L 685.406671 75.315879 
L 686.090944 75.121883 
L 686.776181 75.580926 
L 687.460144 75.645592 
L 688.146734 74.984569 
L 688.8295 75.434831 
L 689.516689 75.635213 
L 690.201429 75.16659 
L 690.886142 75.304702 
L 691.571105 75.881899 
L 692.25814 75.843579 
L 692.942505 75.08995 
L 693.62855 76.039171 
L 694.997793 75.404494 
L 695.680085 75.76614 
L 696.366477 75.905849 
L 697.049324 75.82362 
L 697.734232 76.167703 
L 698.415977 75.501891 
L 699.100295 75.78051 
L 699.780349 76.347329 
L 700.461619 75.497101 
L 701.143247 76.020011 
L 701.824351 75.258399 
L 702.505381 75.7853 
L 703.1815 66.704228 
L 703.858002 76.06871 
L 704.536785 76.125391 
L 705.21352 76.403212 
L 705.891848 76.487836 
L 706.567583 76.272285 
L 707.918302 76.678638 
L 708.594251 76.76406 
L 709.270082 77.145665 
L 709.943841 75.952153 
L 710.619357 76.54851 
L 711.293207 76.621956 
L 711.966674 76.539728 
L 712.640559 76.576451 
L 713.314023 76.110223 
L 713.984652 76.796792 
L 714.660127 76.356909 
L 715.325187 76.889399 
L 715.995344 76.989191 
L 716.661028 86.614728 
L 717.329473 77.077806 
L 717.995854 76.451911 
L 718.663 76.194847 
L 719.329826 76.955661 
L 719.996348 76.923727 
L 720.661088 76.743304 
L 721.32887 76.999569 
L 721.992413 76.784019 
L 722.65998 77.021124 
L 723.323718 77.065831 
L 723.988592 76.219595 
L 724.653995 77.454621 
L 725.318752 76.863852 
L 725.981486 77.116925 
L 726.638501 77.544833 
L 727.302735 76.835112 
L 728.628607 76.970031 
L 729.293234 77.408317 
L 729.953668 77.540043 
L 730.617839 77.867361 
L 731.279335 78.393464 
L 731.937776 77.74282 
L 732.597027 77.939211 
L 733.256001 78.006271 
L 733.911012 77.444243 
L 734.576084 77.694122 
L 735.89644 77.349241 
L 736.554559 78.183502 
L 737.21425 77.567186 
L 737.869451 77.932824 
L 738.53188 78.066945 
L 739.847813 78.046986 
L 740.505064 77.716475 
L 741.161198 77.950388 
L 741.817184 78.804607 
L 742.474378 78.565905 
L 743.129362 78.046986 
L 743.785644 78.589855 
L 744.443033 78.351951 
L 745.095927 77.7524 
L 745.754556 77.979926 
L 746.406948 77.784334 
L 747.060411 68.102913 
L 747.711898 78.331992 
L 748.365051 78.115643 
L 749.02104 88.27846 
L 749.672301 78.719983 
L 750.982717 79.569413 
L 751.637192 79.122345 
L 752.291788 79.444873 
L 752.947555 78.589855 
L 753.596016 78.72637 
L 754.246222 79.816099 
L 754.899233 79.385796 
L 755.550215 80.005304 
L 756.20333 79.26844 
L 756.852884 80.185728 
L 757.508778 79.235709 
L 758.159417 79.289995 
L 758.810837 79.154278 
L 760.111937 79.606136 
L 760.763788 79.780174 
L 761.412856 80.310269 
L 762.713733 79.670802 
L 763.362855 80.04602 
L 764.011538 79.483991 
L 764.659925 80.297495 
L 765.962965 79.765005 
L 766.605765 79.845637 
L 767.257213 79.626893 
L 768.555356 80.860322 
L 769.202436 79.849629 
L 769.856737 90.157743 
L 770.503744 80.216065 
L 771.152762 81.027973 
L 771.801906 80.163375 
L 772.449367 80.24241 
L 773.097689 79.789754 
L 773.746198 79.807317 
L 774.395302 80.097113 
L 774.395302 80.097113 
" clip-path="url(#pcdc651bde3)" style="fill: none; stroke: #ff0000; stroke-width: 1.5; stroke-linecap: square"/>
   </g>
   <g id="line2d_20">
    <path d="M 115.508242 447.271 
L 116.182497 375.788792 
L 116.844283 342.935669 
L 117.505998 322.549361 
L 118.826563 297.303582 
L 119.487659 293.390937 
L 120.153076 284.150996 
L 120.817552 276.759203 
L 121.485667 271.570019 
L 122.152638 268.768658 
L 122.822979 262.385164 
L 123.491819 258.871687 
L 124.163188 256.367307 
L 124.828453 249.979821 
L 125.508235 249.616578 
L 126.859232 240.497984 
L 127.538813 239.438592 
L 128.218457 230.219408 
L 128.902859 235.802172 
L 129.589296 231.928645 
L 130.271919 231.084006 
L 130.961998 229.940789 
L 131.654009 226.440884 
L 132.343688 225.130016 
L 133.038544 223.437544 
L 133.730314 222.744588 
L 134.4269 220.482104 
L 135.120958 219.029132 
L 135.818935 215.466957 
L 136.520066 215.76314 
L 137.216815 211.589439 
L 137.918617 211.128799 
L 138.622351 210.424667 
L 139.327206 208.900643 
L 140.030651 213.715408 
L 140.74138 206.644546 
L 141.454943 204.414793 
L 142.163691 202.600974 
L 142.884585 201.815411 
L 143.595571 201.234223 
L 144.31511 200.244286 
L 145.034307 200.361641 
L 145.756599 198.123906 
L 146.482157 197.422168 
L 147.201587 185.938105 
L 147.933255 196.02508 
L 148.661818 194.831568 
L 149.3879 191.855371 
L 150.119129 192.783038 
L 150.85538 190.415173 
L 151.586409 196.281346 
L 152.32934 189.394102 
L 153.068105 189.056405 
L 153.8119 189.854741 
L 154.555862 184.820435 
L 155.30131 185.400825 
L 156.049374 184.138656 
L 156.798292 184.260801 
L 157.549951 182.264163 
L 158.301437 182.878881 
L 159.0593 181.812305 
L 159.816663 181.007582 
L 160.576886 180.863083 
L 161.33653 180.007267 
L 162.093775 175.776086 
L 162.853581 176.185632 
L 163.610423 170.131052 
L 164.377755 175.570914 
L 165.142884 176.093025 
L 165.909143 174.47879 
L 166.674015 173.623772 
L 167.444418 173.196662 
L 168.209755 171.168889 
L 168.975072 172.43505 
L 169.744599 172.357611 
L 170.511236 170.41047 
L 171.282408 170.703459 
L 172.052721 171.496207 
L 172.823202 170.371351 
L 173.592567 168.003487 
L 174.360849 167.103762 
L 175.137899 168.055379 
L 177.45986 165.527847 
L 178.232082 165.437635 
L 179.004564 164.55228 
L 181.326415 160.617282 
L 182.101889 161.338179 
L 182.881304 160.885523 
L 183.658278 160.935818 
L 184.433545 159.983403 
L 185.206269 158.48812 
L 185.985988 159.984202 
L 186.763624 159.156327 
L 187.541489 159.831719 
L 188.319796 158.496103 
L 189.096066 156.331016 
L 189.879946 157.267464 
L 190.652623 155.101579 
L 191.433621 155.337088 
L 192.213149 153.745206 
L 192.99463 155.145487 
L 193.778192 156.021262 
L 194.554716 153.829829 
L 195.332776 152.576442 
L 196.116661 152.940483 
L 196.900109 151.592094 
L 197.681799 152.850271 
L 198.465892 149.635372 
L 199.248225 151.463561 
L 200.025133 150.320344 
L 200.809321 158.761949 
L 201.590966 148.718084 
L 202.375882 150.329924 
L 203.161542 149.890041 
L 204.733255 147.948488 
L 205.518607 147.277087 
L 206.306055 146.999267 
L 207.093935 146.950568 
L 207.879801 147.321794 
L 208.662406 138.61115 
L 209.450341 147.586044 
L 210.240617 145.996557 
L 211.023138 143.40915 
L 211.813359 145.627725 
L 212.602461 144.282529 
L 214.178539 142.98683 
L 214.967164 142.504635 
L 215.757319 144.454171 
L 216.545252 142.716992 
L 217.332882 141.555413 
L 218.126986 141.466798 
L 218.912664 140.964645 
L 219.707683 140.970233 
L 220.503782 141.583355 
L 221.291588 140.891198 
L 222.088842 139.083765 
L 222.879841 140.738716 
L 223.670536 140.409003 
L 224.466333 138.797162 
L 225.255944 138.57283 
L 226.051448 138.734094 
L 226.847176 139.612264 
L 227.686384 137.892648 
L 228.482199 136.565015 
L 229.271168 137.257971 
L 230.064205 135.917565 
L 230.856552 135.823361 
L 231.654768 137.117464 
L 232.456057 136.44766 
L 233.246806 136.358246 
L 234.042855 135.477681 
L 234.832667 136.315934 
L 235.63323 135.713989 
L 236.428122 134.191562 
L 237.22504 134.045467 
L 238.02172 134.297741 
L 238.813833 133.831513 
L 239.615227 132.702665 
L 240.411893 133.200029 
L 241.213213 132.787289 
L 242.008662 132.558965 
L 242.80518 131.96181 
L 243.606122 132.157402 
L 244.401109 132.04803 
L 245.200748 131.097212 
L 246.003207 132.141435 
L 246.802432 131.023765 
L 247.602678 129.635459 
L 248.392897 131.161877 
L 249.188874 128.048367 
L 249.995392 129.735251 
L 250.791086 129.764789 
L 251.593554 130.602243 
L 252.394395 128.241564 
L 253.195013 128.030005 
L 253.993929 127.114313 
L 254.790754 128.139377 
L 255.593257 128.529763 
L 256.391739 127.384151 
L 257.196783 127.465581 
L 257.999925 127.725839 
L 258.797407 128.145764 
L 259.600294 126.322364 
L 260.398397 133.469866 
L 261.202265 125.235829 
L 262.001949 125.310074 
L 262.806276 124.620312 
L 263.605266 133.421966 
L 264.406648 125.745966 
L 265.211987 126.54989 
L 266.016152 123.616803 
L 266.824195 124.479006 
L 267.626396 123.688654 
L 268.424029 124.700145 
L 269.231672 124.895738 
L 270.030702 123.530583 
L 270.834941 121.410203 
L 271.642613 123.926558 
L 272.44449 122.036098 
L 273.254574 122.104755 
L 274.058397 122.768971 
L 274.864476 122.274002 
L 275.668194 122.020131 
L 276.468302 121.551508 
L 277.276526 122.012148 
L 278.888211 120.256607 
L 279.698521 120.683717 
L 280.499058 119.045532 
L 282.121014 120.468166 
L 282.925446 120.393921 
L 283.733801 121.661679 
L 284.538247 119.45907 
L 285.350098 120.045048 
L 286.153008 118.204884 
L 286.961635 119.331336 
L 287.772252 119.541298 
L 288.579386 117.55903 
L 289.386013 117.539071 
L 290.195271 118.795652 
L 291.000215 118.901831 
L 291.811144 118.573715 
L 292.622404 118.661532 
L 293.430378 117.124735 
L 294.241124 117.037716 
L 295.050198 117.332302 
L 295.860358 116.331987 
L 296.669642 116.537958 
L 297.478786 116.292071 
L 298.292 115.733235 
L 299.101161 115.780337 
L 299.916066 116.60901 
L 300.724052 114.586027 
L 301.534724 116.002275 
L 302.346379 115.275789 
L 303.157356 115.156039 
L 303.971363 115.400329 
L 304.780699 113.449196 
L 305.588724 114.530143 
L 306.400012 114.304214 
L 307.212175 113.841179 
L 308.840316 113.910634 
L 309.646117 112.881579 
L 310.459015 113.52424 
L 311.272289 112.20459 
L 312.084418 114.160514 
L 312.898156 113.675125 
L 313.704254 113.556972 
L 314.51671 112.181439 
L 315.32616 112.948639 
L 316.142675 113.008515 
L 316.956249 111.473315 
L 317.772589 112.709937 
L 318.583421 110.954396 
L 319.385746 112.167867 
L 320.198798 111.112467 
L 321.015184 112.303584 
L 321.830513 109.861474 
L 322.639204 111.840549 
L 323.446274 110.396359 
L 324.26196 111.293689 
L 325.079303 110.95759 
L 325.893091 110.818679 
L 326.710312 110.933639 
L 327.522763 109.474281 
L 328.339289 110.648633 
L 329.156299 109.396843 
L 329.972149 109.991603 
L 330.789975 110.192784 
L 331.604237 109.262722 
L 332.421309 109.327387 
L 333.242387 109.862273 
L 334.054973 108.432453 
L 334.872183 108.845991 
L 335.689107 109.885424 
L 337.322102 108.450016 
L 338.136876 108.730232 
L 338.953912 109.682647 
L 339.768743 108.608087 
L 340.579839 108.360602 
L 341.390461 107.367473 
L 342.20824 108.838806 
L 343.842359 107.385834 
L 344.658666 107.532728 
L 345.472207 107.48882 
L 346.285217 107.170284 
L 347.105888 107.678025 
L 347.922919 107.02818 
L 348.737219 106.851747 
L 349.550748 107.187049 
L 350.364577 106.747964 
L 351.182699 105.603948 
L 352.005708 105.869794 
L 352.821441 106.57712 
L 353.637103 106.995448 
L 354.450801 105.923283 
L 355.267473 105.969586 
L 356.087237 106.166775 
L 356.903173 105.706135 
L 357.72582 105.842651 
L 358.538161 104.412831 
L 359.356349 105.289404 
L 360.174349 105.405163 
L 360.984812 105.372431 
L 361.801983 104.847126 
L 362.617038 105.044315 
L 363.438588 104.727375 
L 364.254652 104.087908 
L 365.071748 104.230012 
L 365.889091 104.585272 
L 366.707507 105.450668 
L 367.523738 104.099085 
L 368.338886 103.185789 
L 369.15477 104.602835 
L 369.970813 103.689539 
L 370.790889 103.54025 
L 371.608141 104.389679 
L 374.064286 103.470794 
L 374.880684 102.587835 
L 375.693468 103.47798 
L 376.509468 103.404533 
L 377.325466 103.025323 
L 378.142837 103.367809 
L 378.959268 102.717165 
L 379.770314 102.323586 
L 380.587819 103.886728 
L 381.407433 102.6046 
L 382.229288 103.085997 
L 383.045002 102.307619 
L 383.862395 103.789331 
L 384.685533 102.419386 
L 385.499885 102.382663 
L 386.315167 101.647395 
L 387.948183 103.14188 
L 388.768988 103.025323 
L 389.585693 102.02421 
L 390.404091 102.213415 
L 391.222798 102.824142 
L 392.039284 101.229067 
L 392.856884 103.806096 
L 393.67415 101.330456 
L 394.488789 102.862462 
L 395.305025 101.197932 
L 396.120089 100.595987 
L 396.938456 102.021016 
L 397.754884 102.264509 
L 399.384061 100.901749 
L 400.198857 100.785991 
L 401.016445 101.763154 
L 404.279774 101.469366 
L 405.098022 100.615945 
L 405.90907 101.066206 
L 406.721222 100.467454 
L 407.537899 101.719245 
L 408.354965 100.512161 
L 409.169687 99.768112 
L 409.987937 101.366381 
L 410.798509 100.707754 
L 411.618509 101.151628 
L 412.431552 99.476719 
L 413.245083 99.396088 
L 414.059284 100.025975 
L 414.870379 100.829899 
L 415.68447 99.956519 
L 416.501258 100.722124 
L 417.312064 99.214067 
L 418.12964 100.573633 
L 418.942433 100.1098 
L 419.756805 100.619138 
L 420.564594 98.794142 
L 421.378306 101.023895 
L 423.006347 99.404869 
L 423.818064 98.908304 
L 424.625736 99.952528 
L 425.437455 99.232429 
L 426.256824 100.351696 
L 427.068639 99.449576 
L 427.884589 100.669433 
L 428.700054 99.08314 
L 429.510609 99.851139 
L 430.324126 99.739372 
L 431.137317 100.383629 
L 431.947467 100.152112 
L 432.763944 99.452769 
L 433.570792 100.261484 
L 434.384195 99.99005 
L 435.191986 99.344994 
L 436.006022 100.801159 
L 436.820441 99.905426 
L 437.627487 99.843156 
L 438.438352 100.139338 
L 439.252447 99.52941 
L 440.062769 99.382516 
L 440.87057 99.080745 
L 441.682659 99.007298 
L 442.493038 98.1427 
L 443.299346 99.293901 
L 444.112641 99.61563 
L 444.920089 98.337494 
L 445.725805 97.409029 
L 446.538383 99.599663 
L 447.347182 99.522225 
L 448.155992 106.803049 
L 448.963835 98.925069 
L 449.773241 100.113792 
L 450.579625 98.957003 
L 451.384547 99.008096 
L 452.199016 100.160893 
L 453.813115 98.030135 
L 454.619923 99.14062 
L 455.427262 99.551763 
L 456.237851 98.863597 
L 457.042297 99.475123 
L 457.847791 99.797651 
L 458.652415 97.964671 
L 459.461454 98.755024 
L 460.268564 98.956204 
L 461.068299 99.816811 
L 461.872269 99.403273 
L 462.680084 98.328712 
L 464.293588 100.207995 
L 465.090708 99.003306 
L 465.89045 98.995323 
L 466.698605 99.344196 
L 467.500537 100.008411 
L 468.308992 99.855131 
L 469.116269 100.411571 
L 469.911876 99.594075 
L 470.719593 99.966898 
L 471.514754 98.561028 
L 472.322486 99.284321 
L 473.924612 98.763007 
L 474.728129 99.428021 
L 475.532335 98.420521 
L 476.334817 99.839164 
L 477.135492 99.458358 
L 477.932684 98.026941 
L 478.734625 98.814101 
L 479.53335 98.854017 
L 480.329916 98.766999 
L 481.13061 99.63479 
L 482.735379 98.532288 
L 483.535151 99.134233 
L 484.336071 99.977276 
L 485.13613 99.966099 
L 485.933388 99.569326 
L 486.737615 99.810424 
L 487.537376 99.281926 
L 488.337475 99.429618 
L 489.137028 99.945343 
L 489.927083 92.344386 
L 490.7295 100.442706 
L 491.526359 100.410773 
L 492.326115 100.161692 
L 493.925365 99.247597 
L 494.721216 99.238815 
L 495.515168 100.034756 
L 496.316295 100.09543 
L 497.112442 99.377726 
L 497.90856 99.563738 
L 498.709097 99.170957 
L 499.503836 101.371171 
L 500.303466 99.088728 
L 501.098596 100.599978 
L 501.895567 99.803239 
L 502.694106 100.251904 
L 503.482844 100.442706 
L 504.279321 100.2535 
L 505.076818 100.368461 
L 505.868153 98.74704 
L 506.665207 100.093833 
L 507.455375 99.878282 
L 508.251605 99.931771 
L 509.045357 101.127678 
L 509.840008 101.278564 
L 510.63496 100.742082 
L 512.220277 100.294216 
L 513.012679 100.860236 
L 513.802595 99.779289 
L 514.599461 99.804836 
L 515.394098 100.941666 
L 516.186857 101.809457 
L 516.977875 101.904459 
L 517.771884 102.514388 
L 518.563531 100.918514 
L 519.35568 101.664958 
L 520.148963 101.394323 
L 520.931801 101.689707 
L 521.729119 101.371969 
L 522.515185 101.185957 
L 523.306118 101.523653 
L 524.097319 100.675022 
L 524.885819 101.660967 
L 525.676975 102.032193 
L 526.46082 100.740485 
L 527.254517 101.27537 
L 528.043093 100.989566 
L 528.831793 101.398314 
L 529.62642 101.437433 
L 530.40967 101.296926 
L 531.202641 102.16312 
L 531.985934 101.676934 
L 532.775726 101.979503 
L 533.563611 102.090472 
L 534.351777 101.658572 
L 535.137534 102.200642 
L 535.920717 101.309699 
L 536.707284 102.308417 
L 537.487453 101.75517 
L 538.273248 103.034105 
L 539.057469 103.641638 
L 540.627876 102.935111 
L 541.405702 101.969923 
L 542.190554 102.266904 
L 542.97284 103.382179 
L 543.755064 101.706472 
L 544.535511 102.835319 
L 545.317383 102.456908 
L 546.097806 102.207827 
L 546.881763 103.789331 
L 547.666201 103.026121 
L 548.444378 102.951078 
L 549.221483 103.528275 
L 550.003266 102.927926 
L 551.564664 103.183394 
L 552.347511 102.958263 
L 553.127183 102.175894 
L 553.908795 103.272009 
L 554.680764 103.03171 
L 555.459357 104.075135 
L 556.232603 103.378986 
L 557.014329 104.200474 
L 557.795046 104.246777 
L 558.570951 105.315749 
L 559.351265 105.61273 
L 560.129723 102.779436 
L 560.909699 104.588465 
L 561.680931 104.654727 
L 562.459566 104.462328 
L 563.239359 104.061563 
L 564.015879 105.126543 
L 564.795805 104.505438 
L 565.567627 104.544556 
L 566.344075 104.283501 
L 567.120049 104.875866 
L 567.896873 104.583675 
L 568.6752 105.346884 
L 569.446441 104.183709 
L 570.227629 105.03234 
L 571.002658 106.268164 
L 571.777008 104.735359 
L 572.549368 103.969754 
L 573.320357 105.093812 
L 574.092905 105.103392 
L 574.863082 105.938451 
L 575.640492 105.522518 
L 576.41155 105.966393 
L 577.182719 105.456256 
L 577.955394 114.825527 
L 578.725742 106.644978 
L 579.49196 106.395099 
L 580.261032 104.863891 
L 581.034868 106.227449 
L 581.80239 106.724014 
L 582.574803 104.793637 
L 583.344746 105.595167 
L 584.111159 107.156712 
L 584.878805 106.108497 
L 585.644382 105.609537 
L 586.412736 105.676597 
L 587.175151 107.062508 
L 587.945823 106.05421 
L 588.715286 107.080072 
L 590.251885 106.456571 
L 591.019529 107.048936 
L 591.788789 106.697669 
L 592.549321 107.567855 
L 593.322308 107.362682 
L 594.080252 107.319572 
L 594.84226 106.703257 
L 595.607309 107.098433 
L 596.371727 108.230474 
L 597.137392 107.02818 
L 597.896415 108.033285 
L 598.665259 108.311904 
L 599.423603 107.740295 
L 600.188664 108.451613 
L 600.945427 107.858449 
L 601.705252 108.020511 
L 602.469482 108.012528 
L 603.230024 107.638907 
L 603.993991 109.036793 
L 604.756414 108.282366 
L 606.282504 107.951854 
L 607.804869 109.154947 
L 608.562497 108.557791 
L 609.324807 109.204444 
L 610.089492 108.458798 
L 610.852655 109.103853 
L 611.612875 109.042381 
L 612.372827 109.662689 
L 613.134225 108.675147 
L 613.891901 109.123812 
L 614.654609 109.25873 
L 615.410349 109.879836 
L 616.1676 110.085807 
L 617.685722 109.451129 
L 619.204918 111.195494 
L 619.961031 110.900908 
L 620.717588 109.878239 
L 621.479925 110.711702 
L 622.233419 110.955993 
L 623.746801 111.007885 
L 624.497351 110.825864 
L 625.253316 110.120933 
L 626.011068 111.720799 
L 626.768253 110.725274 
L 627.522578 111.976266 
L 628.27743 110.473798 
L 629.034774 112.301987 
L 629.779808 118.354173 
L 630.53724 112.04652 
L 631.286209 112.169464 
L 632.038973 111.212259 
L 632.790839 111.354362 
L 633.545936 112.08963 
L 634.293059 111.231419 
L 635.04918 112.773804 
L 635.80217 112.546278 
L 636.555643 112.063285 
L 637.304621 112.370644 
L 638.058571 111.805422 
L 638.806947 111.809414 
L 639.552523 112.60296 
L 640.304865 112.372241 
L 641.802395 113.835591 
L 642.549269 113.299109 
L 643.298221 113.167384 
L 644.045468 113.779707 
L 644.794278 113.298311 
L 645.540658 113.993661 
L 646.284575 113.58651 
L 647.036836 113.962526 
L 647.780622 112.919899 
L 649.276398 113.936181 
L 650.022357 113.616847 
L 650.767229 113.746975 
L 651.515636 113.526635 
L 652.263128 113.900256 
L 653.007188 115.354026 
L 653.752321 114.360098 
L 654.499523 114.564472 
L 655.994139 114.548505 
L 656.731914 115.231082 
L 657.479173 116.65691 
L 658.218776 114.902168 
L 659.70679 116.008661 
L 660.450973 114.698592 
L 661.195287 115.722857 
L 661.93873 115.091373 
L 662.681099 116.343164 
L 663.423938 115.639032 
L 664.907036 114.950866 
L 665.649859 115.756387 
L 666.387172 115.67336 
L 667.130362 116.103663 
L 667.868777 115.623065 
L 668.610218 116.569892 
L 669.343311 116.044586 
L 670.082478 117.44407 
L 670.8264 116.630565 
L 671.566826 116.415813 
L 672.307412 118.087528 
L 673.045867 118.384509 
L 673.78542 117.466423 
L 674.520756 116.771871 
L 675.262025 116.68565 
L 675.99919 117.854414 
L 676.739628 117.67878 
L 678.208429 117.842439 
L 679.683497 116.99301 
L 680.422397 117.836851 
L 681.157762 117.950215 
L 682.625447 118.611237 
L 683.360878 117.365034 
L 684.096069 118.800442 
L 684.831353 117.972568 
L 685.564523 117.703529 
L 686.30529 118.369341 
L 687.041545 119.45428 
L 687.772334 119.09902 
L 688.508918 120.136058 
L 689.237521 118.873889 
L 689.972838 119.64588 
L 690.699978 119.598778 
L 691.432557 117.54945 
L 692.166381 120.02988 
L 692.903072 120.116898 
L 693.634873 118.819602 
L 694.368602 119.372849 
L 695.101417 119.067885 
L 695.832375 119.795967 
L 696.566035 119.934878 
L 697.296391 121.448523 
L 698.029318 120.767542 
L 698.759112 120.259002 
L 699.492246 120.97511 
L 700.216661 120.177572 
L 700.948036 120.522453 
L 701.670761 119.914919 
L 702.398503 112.12316 
L 703.123804 121.672057 
L 703.853359 120.545605 
L 704.580822 120.884898 
L 705.3107 121.000656 
L 706.767766 121.903574 
L 707.495803 121.202635 
L 708.220437 121.302427 
L 708.948598 120.974311 
L 709.675882 122.337071 
L 710.403747 122.784139 
L 711.129739 122.810484 
L 711.859738 122.547033 
L 712.587393 123.169735 
L 713.308581 121.999375 
L 714.035022 122.199757 
L 714.757454 122.828846 
L 715.480377 122.340264 
L 716.19906 122.642834 
L 716.925785 121.562685 
L 717.649905 122.908679 
L 718.376192 122.967756 
L 719.100519 122.907083 
L 719.825156 123.426799 
L 720.548548 123.476296 
L 721.27634 123.862691 
L 722.000836 124.625102 
L 722.726161 122.701112 
L 723.449089 123.092297 
L 724.175418 122.693927 
L 724.898917 123.702225 
L 726.345853 124.923679 
L 727.066619 124.340096 
L 727.789799 125.233434 
L 728.512376 124.159672 
L 729.953101 125.165575 
L 730.674255 122.943806 
L 731.396178 125.726007 
L 732.116979 125.179147 
L 732.840273 125.400286 
L 733.55727 125.939163 
L 734.279443 124.998723 
L 734.998228 126.633715 
L 736.43756 125.509658 
L 737.879122 126.283246 
L 738.598317 125.543987 
L 739.320163 126.094838 
L 740.041496 126.110805 
L 740.758281 125.907229 
L 741.48192 126.332743 
L 742.199036 125.482515 
L 742.914714 126.860443 
L 743.632397 126.304002 
L 744.352798 126.768634 
L 745.070859 127.752982 
L 745.783861 127.092758 
L 746.497016 126.129965 
L 747.21372 127.429656 
L 747.932738 126.384634 
L 748.647495 126.466863 
L 749.366135 126.814937 
L 750.079641 127.927818 
L 750.799 126.560268 
L 751.51269 128.007651 
L 752.229747 128.016433 
L 752.949403 127.607685 
L 753.65825 128.281481 
L 754.376169 126.844476 
L 755.089137 127.577348 
L 755.804389 127.556592 
L 756.521936 128.585647 
L 757.238745 128.544932 
L 757.955699 129.9995 
L 758.672787 129.459026 
L 759.388469 129.540457 
L 760.104743 128.829938 
L 760.81335 129.978743 
L 761.529158 129.12133 
L 762.240784 129.896514 
L 763.670443 130.001895 
L 764.382214 130.056182 
L 765.098147 128.568083 
L 765.804797 129.735251 
L 766.513792 131.315158 
L 767.22623 129.866976 
L 767.939082 130.813004 
L 768.648193 129.328099 
L 769.36001 129.346461 
L 770.072212 130.966285 
L 770.786235 131.075657 
L 771.499758 129.412723 
L 772.215289 131.328729 
L 772.926429 130.502451 
L 773.6404 131.084438 
L 774.350421 130.950318 
L 775.066852 132.02887 
L 775.777839 130.770692 
L 775.777839 130.770692 
" clip-path="url(#pcdc651bde3)" style="fill: none; stroke: #0000ff; stroke-width: 1.5; stroke-linecap: square"/>
   </g>
   <g id="line2d_21">
    <path d="M 115.353293 481.806217 
L 115.562841 415.104445 
L 115.771102 391.643745 
L 116.932727 350.839994 
L 117.566199 344.448516 
L 118.263797 339.978633 
L 119.652972 320.888024 
L 120.346168 312.939791 
L 125.202262 277.21665 
L 125.898518 273.264887 
L 126.593256 270.758112 
L 127.981634 263.74952 
L 128.675361 259.708343 
L 129.370141 258.981857 
L 130.063963 255.026102 
L 130.757904 251.78406 
L 132.839842 245.798137 
L 134.228832 240.481219 
L 134.922833 239.805827 
L 135.617741 235.761456 
L 136.311842 233.622714 
L 137.006676 233.011189 
L 137.699341 230.132389 
L 138.393177 228.054321 
L 139.086212 226.707528 
L 139.781031 223.86625 
L 140.473932 224.532861 
L 141.170276 220.0039 
L 141.863415 220.131634 
L 142.557789 219.001989 
L 143.25264 217.590531 
L 143.947262 216.787405 
L 144.640885 215.280146 
L 145.336333 212.845222 
L 146.029655 211.760283 
L 146.725575 209.698979 
L 147.417376 210.417482 
L 148.805709 207.407755 
L 150.195763 203.293131 
L 150.89202 203.86953 
L 151.584021 202.375045 
L 152.280284 201.275736 
L 152.971702 200.787155 
L 153.66814 197.764654 
L 154.360044 198.599714 
L 155.05573 197.504397 
L 156.442777 194.311851 
L 157.136544 194.196093 
L 157.831479 194.224833 
L 158.524787 192.194664 
L 159.220011 191.945583 
L 159.914633 190.994765 
L 160.60731 189.021279 
L 161.301966 187.968273 
L 161.996393 186.163236 
L 162.689937 187.337588 
L 163.385416 186.528874 
L 164.079198 185.328975 
L 164.773146 184.890688 
L 165.46699 184.110714 
L 166.16105 182.878083 
L 166.854722 182.485302 
L 167.548323 181.674991 
L 168.242996 181.87697 
L 168.936506 181.607132 
L 169.630031 179.982518 
L 170.324208 179.312714 
L 171.01663 180.199666 
L 171.710095 179.86676 
L 172.405184 178.041764 
L 173.100142 176.758838 
L 173.795176 176.049915 
L 174.48541 175.891845 
L 175.180732 174.86758 
L 175.874543 174.854806 
L 176.56991 174.619297 
L 177.262852 173.626167 
L 177.959031 171.640706 
L 178.651417 171.848273 
L 179.34723 171.237546 
L 180.039512 169.552259 
L 180.735482 170.017688 
L 181.427999 169.096409 
L 182.122686 169.292799 
L 182.815527 167.814281 
L 183.510559 167.750414 
L 184.899308 167.074224 
L 185.592966 168.150381 
L 186.981506 166.232777 
L 187.675895 165.812054 
L 188.369933 165.196537 
L 189.063325 163.690077 
L 189.758311 164.819723 
L 190.452103 162.815899 
L 191.145301 161.884241 
L 191.83933 163.115275 
L 192.535543 161.173722 
L 193.227306 162.170844 
L 193.921778 162.153281 
L 194.61441 159.58184 
L 195.309994 160.253241 
L 196.002871 159.09725 
L 197.39053 159.707179 
L 198.083762 157.42793 
L 200.164681 158.161601 
L 200.860544 157.426333 
L 201.553499 157.4423 
L 202.250155 156.197694 
L 202.943182 156.738167 
L 203.638663 156.177736 
L 204.329824 153.955966 
L 205.719461 154.508415 
L 206.414417 153.963151 
L 207.10686 154.246561 
L 208.495593 153.432258 
L 209.190777 153.297339 
L 209.882573 152.166097 
L 210.576334 151.542597 
L 211.270275 151.090739 
L 211.964242 152.217191 
L 212.656753 152.320176 
L 213.35098 150.333118 
L 214.044781 149.517218 
L 214.738341 150.260469 
L 215.431723 150.592577 
L 216.125752 150.167862 
L 216.818067 149.185111 
L 217.510016 147.230784 
L 218.203903 148.742034 
L 218.89881 147.978825 
L 219.592154 148.220721 
L 220.284688 147.508605 
L 220.980675 146.320681 
L 221.673673 147.513395 
L 222.367374 146.786909 
L 223.059525 147.590834 
L 223.754509 146.90666 
L 224.447243 145.836091 
L 225.140051 145.708357 
L 225.833486 144.91561 
L 226.527865 145.134354 
L 227.22094 144.417448 
L 227.91541 143.477008 
L 228.606503 144.199502 
L 229.303064 144.508458 
L 229.997183 143.737266 
L 230.689911 142.5214 
L 231.38578 143.503353 
L 232.080457 142.805608 
L 232.773201 142.870273 
L 233.468876 142.210847 
L 234.161745 143.585582 
L 234.856944 141.95538 
L 235.548385 141.754997 
L 236.245234 141.434066 
L 236.937956 140.934308 
L 237.633414 140.648504 
L 238.325712 141.447638 
L 239.020511 140.297236 
L 239.713138 139.447008 
L 240.408253 139.708064 
L 241.796333 139.853361 
L 242.490746 140.473668 
L 243.879016 138.99994 
L 244.573408 137.735376 
L 245.960721 137.337804 
L 246.655932 138.140132 
L 247.349159 138.449088 
L 248.043414 137.1957 
L 248.73731 137.062378 
L 249.432382 136.664807 
L 250.125664 136.489173 
L 250.82027 136.734262 
L 251.511668 136.321523 
L 252.207938 135.491253 
L 252.901353 136.807709 
L 253.594821 134.229084 
L 254.288072 135.661299 
L 254.982303 135.298854 
L 255.675759 134.539637 
L 256.3696 135.70361 
L 257.062777 136.066853 
L 257.756766 133.859454 
L 258.451124 134.011138 
L 259.145908 134.376776 
L 260.533798 133.884203 
L 261.225735 133.12259 
L 261.920533 133.177675 
L 262.61166 131.99534 
L 263.308856 133.250324 
L 264.001426 132.644387 
L 264.697691 133.008428 
L 265.390585 132.802457 
L 266.086428 131.865211 
L 266.779282 131.650459 
L 267.474847 131.243307 
L 268.167776 132.68111 
L 268.860441 131.770209 
L 269.555897 132.055215 
L 270.248595 130.418626 
L 270.944034 130.443375 
L 271.639285 131.279232 
L 272.331357 130.217446 
L 273.027072 130.46014 
L 273.721542 130.563125 
L 274.416969 130.320431 
L 275.110184 131.292804 
L 275.804294 130.132822 
L 276.499231 129.392764 
L 277.192056 130.716406 
L 277.886518 129.249862 
L 278.578619 128.071518 
L 279.273701 128.687035 
L 279.966685 128.243161 
L 280.661019 128.441946 
L 281.354989 128.457115 
L 282.0481 128.762079 
L 282.740791 128.520183 
L 283.435454 128.150554 
L 284.125943 128.351734 
L 284.821098 127.919834 
L 285.513461 127.935003 
L 286.207983 127.08238 
L 286.900908 127.419278 
L 287.595423 126.746281 
L 288.288215 127.080783 
L 288.982813 127.222089 
L 289.674502 126.731911 
L 290.369036 126.565857 
L 291.061604 126.662455 
L 291.756795 126.248119 
L 292.447589 126.758256 
L 293.143854 125.046623 
L 293.836226 125.839371 
L 294.531743 125.864918 
L 295.223356 124.70254 
L 295.918431 125.248602 
L 296.61052 124.536487 
L 297.304671 125.831388 
L 297.996538 123.60403 
L 298.691444 124.137319 
L 299.384423 124.42951 
L 300.078038 124.993933 
L 300.771273 123.572895 
L 301.464814 123.818782 
L 302.158489 123.486675 
L 302.852259 123.326209 
L 303.545595 124.225135 
L 304.239053 124.047107 
L 304.93394 124.348079 
L 305.627069 122.68275 
L 306.321115 123.302259 
L 307.015347 124.4343 
L 307.709486 123.327007 
L 308.401896 122.611698 
L 309.096511 122.56779 
L 309.788724 122.871158 
L 310.482206 122.959773 
L 311.870167 122.258834 
L 312.56287 122.396148 
L 313.256964 122.192572 
L 313.948767 121.719159 
L 314.642302 121.804581 
L 315.335576 122.007358 
L 316.030196 121.692015 
L 316.722887 120.888889 
L 317.415162 121.472473 
L 318.108463 121.529155 
L 318.803976 121.097255 
L 319.496058 122.253246 
L 320.191058 120.773131 
L 320.883271 120.280557 
L 321.579169 120.974311 
L 322.271301 120.596698 
L 322.965002 119.923701 
L 323.657986 119.479028 
L 324.35307 121.1715 
L 325.045495 120.871326 
L 325.738401 119.968408 
L 326.432766 119.870213 
L 327.126386 120.013115 
L 327.820165 119.351294 
L 328.51379 120.163202 
L 329.207869 119.038346 
L 330.594857 118.046015 
L 331.287596 120.365979 
L 331.981594 118.800442 
L 333.36856 118.857124 
L 334.754705 118.0532 
L 335.449763 118.581698 
L 336.836195 117.970971 
L 337.530839 118.701449 
L 338.222814 117.212552 
L 338.917226 118.515436 
L 339.608242 118.03404 
L 340.303216 117.99093 
L 340.996753 117.786556 
L 341.689516 118.333416 
L 342.38369 117.74105 
L 343.075394 117.469616 
L 343.769566 116.636952 
L 344.463869 117.334697 
L 345.157494 117.313941 
L 345.851716 118.030048 
L 346.5447 116.758299 
L 347.239799 117.685167 
L 347.931954 115.979123 
L 348.62706 117.547853 
L 349.319644 117.312344 
L 350.013533 116.414216 
L 350.707608 115.874541 
L 351.40373 115.707689 
L 352.095478 115.693319 
L 352.789355 116.036603 
L 353.482385 116.616993 
L 354.176266 116.383879 
L 355.564656 116.327197 
L 356.25775 114.877419 
L 356.952001 116.555522 
L 357.643709 114.642708 
L 358.339498 115.21272 
L 359.032963 116.399846 
L 359.726956 115.043473 
L 360.419905 115.080197 
L 361.112849 114.810359 
L 363.194406 115.580753 
L 363.887459 115.21751 
L 364.581241 115.338857 
L 365.272525 113.97051 
L 365.968645 114.158917 
L 366.662001 114.198834 
L 367.356135 114.975615 
L 368.048443 114.468671 
L 368.742644 114.395224 
L 369.43509 114.439133 
L 370.129186 114.645902 
L 370.82228 114.447116 
L 371.5144 113.932189 
L 372.209172 114.282659 
L 372.902723 113.857146 
L 373.595707 114.063117 
L 374.287248 114.506193 
L 374.981642 113.905046 
L 375.67519 112.939059 
L 376.365656 114.174085 
L 377.061861 114.063117 
L 377.754826 112.262869 
L 378.449539 111.985048 
L 379.141369 113.329446 
L 380.528865 113.880298 
L 381.224711 113.895466 
L 381.915055 113.584115 
L 382.609658 113.000531 
L 383.303262 113.246419 
L 383.99776 112.696365 
L 384.690266 112.721912 
L 385.385217 113.325454 
L 386.078017 112.13274 
L 386.772768 111.577098 
L 388.160694 113.410078 
L 388.85448 113.580922 
L 389.547745 111.722395 
L 390.241499 112.699559 
L 390.935038 112.957421 
L 391.627381 112.62691 
L 392.32108 112.871999 
L 393.015766 112.623717 
L 393.709584 113.132257 
L 394.403456 112.349089 
L 395.096647 111.348774 
L 395.790936 112.472033 
L 396.483851 111.155577 
L 397.177214 111.806221 
L 398.563661 112.01778 
L 399.258857 111.296084 
L 400.64488 112.274046 
L 401.340217 110.941623 
L 402.032634 110.779561 
L 402.727454 111.60025 
L 403.420674 110.73166 
L 404.115244 110.836242 
L 404.807343 112.22854 
L 405.501689 110.829856 
L 406.194432 110.095387 
L 406.888671 111.454154 
L 408.277885 111.311252 
L 408.970774 110.50174 
L 409.665739 110.627877 
L 410.357783 110.222322 
L 411.052217 110.728467 
L 411.744632 110.759602 
L 412.43938 110.137698 
L 413.13285 110.70771 
L 413.827158 110.67418 
L 414.519333 109.578863 
L 415.214384 110.400351 
L 415.907749 110.116942 
L 416.601592 110.210347 
L 417.295631 111.429406 
L 417.989225 110.078622 
L 418.68154 110.381191 
L 419.373663 109.301042 
L 420.069059 109.423188 
L 420.762119 110.047486 
L 421.455029 109.557308 
L 422.148783 109.759287 
L 422.843031 109.619578 
L 423.535837 109.68584 
L 424.230661 109.869458 
L 424.924498 110.524093 
L 425.617763 110.376401 
L 426.311407 109.206839 
L 427.006034 109.605208 
L 427.699513 109.127803 
L 428.394154 110.321316 
L 429.085689 110.167237 
L 429.781525 109.4655 
L 431.169534 109.543736 
L 431.863468 110.596742 
L 432.557231 108.906664 
L 433.249801 109.388859 
L 433.943744 109.52298 
L 434.637867 109.459113 
L 435.332741 110.094588 
L 437.413008 109.298647 
L 438.108754 109.901391 
L 439.494418 108.618465 
L 440.187438 109.373691 
L 441.574982 109.138182 
L 442.268633 108.489933 
L 442.962272 108.248835 
L 443.656168 108.159422 
L 444.349028 108.858764 
L 445.042641 109.400036 
L 445.736787 108.470773 
L 446.431155 108.775737 
L 447.124472 108.180977 
L 447.817778 108.993683 
L 448.512657 108.61607 
L 449.205498 108.739812 
L 449.899964 108.214507 
L 450.593617 108.422873 
L 451.28767 109.281882 
L 451.980668 108.483546 
L 452.672965 108.752585 
L 453.36963 108.780527 
L 454.060762 107.963031 
L 455.449732 108.054041 
L 456.837284 108.841999 
L 457.529659 108.65439 
L 458.223926 108.828427 
L 458.915901 108.826831 
L 459.610433 108.163414 
L 460.304681 107.824121 
L 460.999367 108.237659 
L 461.69114 109.027213 
L 462.386691 107.626932 
L 463.076808 107.919123 
L 463.773892 106.535606 
L 464.46372 107.515963 
L 465.159004 109.238772 
L 465.851704 107.870424 
L 466.547029 108.052445 
L 467.239256 108.530648 
L 467.932538 107.602183 
L 468.627074 107.897568 
L 469.322056 109.261126 
L 470.014119 107.266084 
L 470.710191 107.797776 
L 471.403778 108.867546 
L 472.098317 108.172195 
L 472.791503 107.807356 
L 473.48583 107.682815 
L 474.179298 108.729434 
L 474.873718 107.339531 
L 475.566604 108.228079 
L 476.259205 107.080072 
L 476.952834 107.438524 
L 477.646442 108.138665 
L 478.341134 108.289551 
L 479.034558 108.859562 
L 479.727957 107.412179 
L 480.422393 107.923913 
L 481.117237 108.162615 
L 481.810638 107.558275 
L 482.505889 108.394931 
L 483.198263 106.46695 
L 483.892478 107.669244 
L 484.585915 108.210515 
L 485.280294 107.705169 
L 485.973081 108.715064 
L 486.665827 108.149043 
L 487.359223 107.816936 
L 488.053293 107.929501 
L 488.74657 108.413293 
L 489.440488 107.911938 
L 490.131403 108.717459 
L 490.82638 107.986183 
L 491.520114 107.642898 
L 492.215589 108.5059 
L 492.907451 107.282051 
L 493.602607 108.199339 
L 494.294684 107.447306 
L 494.990023 106.882883 
L 495.682986 108.686324 
L 496.37862 107.561468 
L 497.069235 107.435331 
L 497.764262 107.460079 
L 498.45766 107.708362 
L 499.151828 108.157825 
L 499.844862 108.291946 
L 500.538841 107.569452 
L 501.232699 107.883996 
L 501.925596 108.005343 
L 502.618949 107.2581 
L 503.313907 107.264487 
L 504.007289 107.744287 
L 504.698585 108.383754 
L 505.393776 108.395729 
L 506.087103 108.670357 
L 506.779899 108.068412 
L 507.474631 108.681534 
L 508.168475 107.884794 
L 508.861597 108.109127 
L 509.555522 108.541825 
L 510.248653 108.388544 
L 510.942259 108.11711 
L 512.329732 108.111522 
L 513.021666 107.486425 
L 513.717529 108.224885 
L 514.409275 107.963031 
L 515.103757 108.419679 
L 515.796896 108.161018 
L 516.490494 108.304719 
L 517.183976 109.421591 
L 517.87922 109.314614 
L 518.57314 107.949459 
L 519.267324 108.56338 
L 519.958346 108.304719 
L 520.65443 109.459113 
L 521.347022 109.261924 
L 522.041789 108.818049 
L 522.732733 109.712185 
L 523.429698 108.889101 
L 524.12148 109.442348 
L 524.81709 108.355014 
L 525.51035 108.295937 
L 526.205177 108.602498 
L 526.897473 108.589725 
L 527.592227 108.983305 
L 528.284168 108.631238 
L 528.9778 109.793616 
L 529.673089 108.095555 
L 530.367594 108.371779 
L 531.060209 109.550921 
L 531.754475 110.196775 
L 532.448275 109.273101 
L 533.141462 108.687122 
L 533.836108 108.948178 
L 534.528135 109.926139 
L 535.222664 109.926938 
L 535.917075 109.408019 
L 536.61174 109.954081 
L 537.304845 110.197574 
L 537.999875 109.879836 
L 538.691835 109.945299 
L 539.387148 109.843112 
L 540.079327 110.389174 
L 540.773735 110.648633 
L 541.467436 110.568002 
L 542.161804 110.662205 
L 543.549741 109.756892 
L 544.241166 110.74124 
L 544.934776 110.916076 
L 545.628772 110.014755 
L 546.321116 111.209065 
L 547.016052 110.269424 
L 548.40175 110.845822 
L 549.097826 111.616217 
L 549.790734 111.386296 
L 550.485009 110.904101 
L 551.176274 111.07734 
L 551.873282 110.974355 
L 552.565302 111.653738 
L 553.261212 110.924858 
L 553.953901 111.835759 
L 554.646569 111.910004 
L 555.339308 111.248184 
L 556.033352 112.092823 
L 556.726055 112.197405 
L 557.420765 112.031351 
L 558.113506 112.717122 
L 558.807907 113.075575 
L 559.501563 111.741555 
L 560.195649 113.437221 
L 560.888996 113.482726 
L 561.583311 112.61733 
L 562.276819 112.666029 
L 562.970203 112.868806 
L 563.66378 113.48592 
L 564.357695 112.860823 
L 565.050901 114.119798 
L 565.745558 112.978178 
L 566.439476 114.487831 
L 567.132096 113.956938 
L 567.826756 113.963325 
L 568.521607 113.445204 
L 569.213939 114.504596 
L 569.908256 115.065827 
L 570.600483 114.382451 
L 571.296022 114.418376 
L 571.990487 115.536046 
L 572.682831 115.033893 
L 573.377644 116.18669 
L 574.070849 115.423481 
L 574.764393 115.594325 
L 575.459237 115.381968 
L 576.846346 115.816262 
L 577.540713 117.248477 
L 578.234564 117.075238 
L 578.930272 115.99509 
L 579.622775 116.823762 
L 580.317921 116.97864 
L 581.009674 117.424909 
L 581.704566 117.142298 
L 582.397269 118.119462 
L 583.094617 117.894331 
L 583.787985 117.494365 
L 584.481147 118.921789 
L 585.174234 118.026855 
L 586.563724 120.026686 
L 587.261434 118.944941 
L 589.342039 120.100133 
L 590.729224 119.286629 
L 591.424051 120.251817 
L 592.117718 120.092948 
L 592.812871 120.532831 
L 593.506791 121.945088 
L 594.895228 121.712772 
L 595.588232 121.252132 
L 596.282994 122.313121 
L 596.976338 122.820064 
L 597.670332 122.929436 
L 598.363266 122.826451 
L 599.056934 123.103473 
L 599.748604 124.194 
L 601.136915 124.768802 
L 601.831654 124.391988 
L 602.526761 125.384319 
L 603.221331 126.59779 
L 603.912642 126.086057 
L 604.606664 127.657182 
L 605.300339 126.863636 
L 605.992782 127.756974 
L 606.684667 127.902271 
L 607.379344 127.383353 
L 608.07134 128.292657 
L 608.763493 128.280682 
L 609.450437 130.008281 
L 610.139039 129.442261 
L 610.823438 130.346776 
L 611.515079 130.486485 
L 612.88547 132.155805 
L 613.557363 132.111098 
L 614.227467 132.414466 
L 614.896513 133.325368 
L 615.560251 133.328561 
L 616.220387 134.569175 
L 616.879643 133.588818 
L 617.534429 133.567263 
L 618.832525 136.239294 
L 620.111945 136.099585 
L 621.366587 137.804831 
L 621.984764 138.087442 
L 623.207666 141.291164 
L 623.807483 141.743022 
L 624.402966 141.930631 
L 624.990209 142.305051 
L 625.565349 143.143304 
L 626.136046 143.378813 
L 626.701971 145.036957 
L 627.264957 144.797456 
L 627.812326 147.247549 
L 628.360189 147.672264 
L 628.90164 147.123009 
L 629.44216 148.225511 
L 629.974207 148.986325 
L 631.007858 151.764534 
L 631.51103 151.960925 
L 632.011946 151.609657 
L 632.501588 154.096474 
L 632.986231 154.573879 
L 633.472136 155.345071 
L 634.415942 157.54768 
L 634.415942 157.54768 
" clip-path="url(#pcdc651bde3)" style="fill: none; stroke: #9467bd; stroke-width: 1.5; stroke-linecap: square"/>
   </g>
   <g id="patch_3">
    <path d="M 115.2 461.376 
L 115.2 62.208 
" style="fill: none; stroke: #000000; stroke-width: 0.8; stroke-linejoin: miter; stroke-linecap: square"/>
   </g>
   <g id="patch_4">
    <path d="M 829.44 461.376 
L 829.44 62.208 
" style="fill: none; stroke: #000000; stroke-width: 0.8; stroke-linejoin: miter; stroke-linecap: square"/>
   </g>
   <g id="patch_5">
    <path d="M 115.2 461.376 
L 829.44 461.376 
" style="fill: none; stroke: #000000; stroke-width: 0.8; stroke-linejoin: miter; stroke-linecap: square"/>
   </g>
   <g id="patch_6">
    <path d="M 115.2 62.208 
L 829.44 62.208 
" style="fill: none; stroke: #000000; stroke-width: 0.8; stroke-linejoin: miter; stroke-linecap: square"/>
   </g>
   <g id="legend_1">
    <g id="patch_7">
     <path d="M 128.5 451.876 
L 263.18625 451.876 
Q 266.98625 451.876 266.98625 448.076 
L 266.98625 369.383344 
Q 266.98625 365.583344 263.18625 365.583344 
L 128.5 365.583344 
Q 124.7 365.583344 124.7 369.383344 
L 124.7 448.076 
Q 124.7 451.876 128.5 451.876 
z
" style="fill: #ffffff; opacity: 0.8; stroke: #cccccc; stroke-linejoin: miter"/>
    </g>
    <g id="line2d_22">
     <path d="M 132.3 379.833344 
L 151.3 379.833344 
L 170.3 379.833344 
" style="fill: none; stroke: #ff0000; stroke-width: 1.5; stroke-linecap: square"/>
    </g>
    <g id="text_21">
     <!-- caleKV -->
     <g transform="translate(185.5 386.483344) scale(0.19 -0.19)">
      <defs>
       <path id="TimesNewRomanPSMT-63" d="M 2631 1088 
Q 2516 522 2178 217 
Q 1841 -88 1431 -88 
Q 944 -88 581 321 
Q 219 731 219 1428 
Q 219 2103 620 2525 
Q 1022 2947 1584 2947 
Q 2006 2947 2278 2723 
Q 2550 2500 2550 2259 
Q 2550 2141 2473 2067 
Q 2397 1994 2259 1994 
Q 2075 1994 1981 2113 
Q 1928 2178 1911 2362 
Q 1894 2547 1784 2644 
Q 1675 2738 1481 2738 
Q 1169 2738 978 2506 
Q 725 2200 725 1697 
Q 725 1184 976 792 
Q 1228 400 1656 400 
Q 1963 400 2206 609 
Q 2378 753 2541 1131 
L 2631 1088 
z
" transform="scale(0.015625)"/>
       <path id="TimesNewRomanPSMT-61" d="M 1822 413 
Q 1381 72 1269 19 
Q 1100 -59 909 -59 
Q 613 -59 420 144 
Q 228 347 228 678 
Q 228 888 322 1041 
Q 450 1253 767 1440 
Q 1084 1628 1822 1897 
L 1822 2009 
Q 1822 2438 1686 2597 
Q 1550 2756 1291 2756 
Q 1094 2756 978 2650 
Q 859 2544 859 2406 
L 866 2225 
Q 866 2081 792 2003 
Q 719 1925 600 1925 
Q 484 1925 411 2006 
Q 338 2088 338 2228 
Q 338 2497 613 2722 
Q 888 2947 1384 2947 
Q 1766 2947 2009 2819 
Q 2194 2722 2281 2516 
Q 2338 2381 2338 1966 
L 2338 994 
Q 2338 584 2353 492 
Q 2369 400 2405 369 
Q 2441 338 2488 338 
Q 2538 338 2575 359 
Q 2641 400 2828 588 
L 2828 413 
Q 2478 -56 2159 -56 
Q 2006 -56 1915 50 
Q 1825 156 1822 413 
z
M 1822 616 
L 1822 1706 
Q 1350 1519 1213 1441 
Q 966 1303 859 1153 
Q 753 1003 753 825 
Q 753 600 887 451 
Q 1022 303 1197 303 
Q 1434 303 1822 616 
z
" transform="scale(0.015625)"/>
       <path id="TimesNewRomanPSMT-6c" d="M 1184 4444 
L 1184 647 
Q 1184 378 1223 290 
Q 1263 203 1344 158 
Q 1425 113 1647 113 
L 1647 0 
L 244 0 
L 244 113 
Q 441 113 512 153 
Q 584 194 625 287 
Q 666 381 666 647 
L 666 3247 
Q 666 3731 644 3842 
Q 622 3953 573 3993 
Q 525 4034 450 4034 
Q 369 4034 244 3984 
L 191 4094 
L 1044 4444 
L 1184 4444 
z
" transform="scale(0.015625)"/>
       <path id="TimesNewRomanPSMT-65" d="M 681 1784 
Q 678 1147 991 784 
Q 1303 422 1725 422 
Q 2006 422 2214 576 
Q 2422 731 2563 1106 
L 2659 1044 
Q 2594 616 2278 264 
Q 1963 -88 1488 -88 
Q 972 -88 605 314 
Q 238 716 238 1394 
Q 238 2128 614 2539 
Q 991 2950 1559 2950 
Q 2041 2950 2350 2633 
Q 2659 2316 2659 1784 
L 681 1784 
z
M 681 1966 
L 2006 1966 
Q 1991 2241 1941 2353 
Q 1863 2528 1708 2628 
Q 1553 2728 1384 2728 
Q 1125 2728 920 2526 
Q 716 2325 681 1966 
z
" transform="scale(0.015625)"/>
       <path id="TimesNewRomanPSMT-4b" d="M 1913 2350 
L 3475 797 
Q 3859 413 4131 273 
Q 4403 134 4675 116 
L 4675 0 
L 2659 0 
L 2659 116 
Q 2841 116 2920 177 
Q 3000 238 3000 313 
Q 3000 388 2970 447 
Q 2941 506 2775 669 
L 1313 2116 
L 1313 750 
Q 1313 428 1353 325 
Q 1384 247 1484 191 
Q 1619 116 1769 116 
L 1913 116 
L 1913 0 
L 106 0 
L 106 116 
L 256 116 
Q 519 116 638 269 
Q 713 369 713 750 
L 713 3488 
Q 713 3809 672 3916 
Q 641 3991 544 4047 
Q 406 4122 256 4122 
L 106 4122 
L 106 4238 
L 1913 4238 
L 1913 4122 
L 1769 4122 
Q 1622 4122 1484 4050 
Q 1388 4000 1350 3900 
Q 1313 3800 1313 3488 
L 1313 2191 
Q 1375 2250 1741 2588 
Q 2669 3438 2863 3722 
Q 2947 3847 2947 3941 
Q 2947 4013 2881 4067 
Q 2816 4122 2659 4122 
L 2563 4122 
L 2563 4238 
L 4119 4238 
L 4119 4122 
Q 3981 4119 3868 4084 
Q 3756 4050 3593 3951 
Q 3431 3853 3194 3634 
Q 3125 3572 2559 2994 
L 1913 2350 
z
" transform="scale(0.015625)"/>
       <path id="TimesNewRomanPSMT-56" d="M 4544 4238 
L 4544 4122 
Q 4319 4081 4203 3978 
Q 4038 3825 3909 3509 
L 2431 -97 
L 2316 -97 
L 728 3556 
Q 606 3838 556 3900 
Q 478 3997 364 4051 
Q 250 4106 56 4122 
L 56 4238 
L 1788 4238 
L 1788 4122 
Q 1494 4094 1406 4022 
Q 1319 3950 1319 3838 
Q 1319 3681 1463 3350 
L 2541 866 
L 3541 3319 
Q 3688 3681 3688 3822 
Q 3688 3913 3597 3995 
Q 3506 4078 3291 4113 
Q 3275 4116 3238 4122 
L 3238 4238 
L 4544 4238 
z
" transform="scale(0.015625)"/>
      </defs>
      <use xlink:href="#TimesNewRomanPSMT-63"/>
      <use xlink:href="#TimesNewRomanPSMT-61" x="44.384766"/>
      <use xlink:href="#TimesNewRomanPSMT-6c" x="88.769531"/>
      <use xlink:href="#TimesNewRomanPSMT-65" x="116.552734"/>
      <use xlink:href="#TimesNewRomanPSMT-4b" x="160.9375"/>
      <use xlink:href="#TimesNewRomanPSMT-56" x="233.154297"/>
     </g>
    </g>
    <g id="line2d_23">
     <path d="M 132.3 406.697563 
L 151.3 406.697563 
L 170.3 406.697563 
" style="fill: none; stroke: #0000ff; stroke-width: 1.5; stroke-linecap: square"/>
    </g>
    <g id="text_22">
     <!-- MICA-t -->
     <g transform="translate(185.5 413.347562) scale(0.19 -0.19)">
      <defs>
       <path id="TimesNewRomanPSMT-4d" d="M 2619 0 
L 981 3566 
L 981 734 
Q 981 344 1066 247 
Q 1181 116 1431 116 
L 1581 116 
L 1581 0 
L 106 0 
L 106 116 
L 256 116 
Q 525 116 638 278 
Q 706 378 706 734 
L 706 3503 
Q 706 3784 644 3909 
Q 600 4000 483 4061 
Q 366 4122 106 4122 
L 106 4238 
L 1306 4238 
L 2844 922 
L 4356 4238 
L 5556 4238 
L 5556 4122 
L 5409 4122 
Q 5138 4122 5025 3959 
Q 4956 3859 4956 3503 
L 4956 734 
Q 4956 344 5044 247 
Q 5159 116 5409 116 
L 5556 116 
L 5556 0 
L 3756 0 
L 3756 116 
L 3906 116 
Q 4178 116 4288 278 
Q 4356 378 4356 734 
L 4356 3566 
L 2722 0 
L 2619 0 
z
" transform="scale(0.015625)"/>
       <path id="TimesNewRomanPSMT-49" d="M 1975 116 
L 1975 0 
L 159 0 
L 159 116 
L 309 116 
Q 572 116 691 269 
Q 766 369 766 750 
L 766 3488 
Q 766 3809 725 3913 
Q 694 3991 597 4047 
Q 459 4122 309 4122 
L 159 4122 
L 159 4238 
L 1975 4238 
L 1975 4122 
L 1822 4122 
Q 1563 4122 1444 3969 
Q 1366 3869 1366 3488 
L 1366 750 
Q 1366 428 1406 325 
Q 1438 247 1538 191 
Q 1672 116 1822 116 
L 1975 116 
z
" transform="scale(0.015625)"/>
       <path id="TimesNewRomanPSMT-43" d="M 3853 4334 
L 3950 2894 
L 3853 2894 
Q 3659 3541 3300 3825 
Q 2941 4109 2438 4109 
Q 2016 4109 1675 3895 
Q 1334 3681 1139 3212 
Q 944 2744 944 2047 
Q 944 1472 1128 1050 
Q 1313 628 1683 403 
Q 2053 178 2528 178 
Q 2941 178 3256 354 
Q 3572 531 3950 1056 
L 4047 994 
Q 3728 428 3303 165 
Q 2878 -97 2294 -97 
Q 1241 -97 663 684 
Q 231 1266 231 2053 
Q 231 2688 515 3219 
Q 800 3750 1298 4042 
Q 1797 4334 2388 4334 
Q 2847 4334 3294 4109 
Q 3425 4041 3481 4041 
Q 3566 4041 3628 4100 
Q 3709 4184 3744 4334 
L 3853 4334 
z
" transform="scale(0.015625)"/>
       <path id="TimesNewRomanPSMT-41" d="M 2928 1419 
L 1288 1419 
L 1000 750 
Q 894 503 894 381 
Q 894 284 986 211 
Q 1078 138 1384 116 
L 1384 0 
L 50 0 
L 50 116 
Q 316 163 394 238 
Q 553 388 747 847 
L 2238 4334 
L 2347 4334 
L 3822 809 
Q 4000 384 4145 257 
Q 4291 131 4550 116 
L 4550 0 
L 2878 0 
L 2878 116 
Q 3131 128 3220 200 
Q 3309 272 3309 375 
Q 3309 513 3184 809 
L 2928 1419 
z
M 2841 1650 
L 2122 3363 
L 1384 1650 
L 2841 1650 
z
" transform="scale(0.015625)"/>
       <path id="TimesNewRomanPSMT-2d" d="M 259 1672 
L 1875 1672 
L 1875 1200 
L 259 1200 
L 259 1672 
z
" transform="scale(0.015625)"/>
       <path id="TimesNewRomanPSMT-74" d="M 1031 3803 
L 1031 2863 
L 1700 2863 
L 1700 2644 
L 1031 2644 
L 1031 788 
Q 1031 509 1111 412 
Q 1191 316 1316 316 
Q 1419 316 1516 380 
Q 1613 444 1666 569 
L 1788 569 
Q 1678 263 1478 108 
Q 1278 -47 1066 -47 
Q 922 -47 784 33 
Q 647 113 581 261 
Q 516 409 516 719 
L 516 2644 
L 63 2644 
L 63 2747 
Q 234 2816 414 2980 
Q 594 3144 734 3369 
Q 806 3488 934 3803 
L 1031 3803 
z
" transform="scale(0.015625)"/>
      </defs>
      <use xlink:href="#TimesNewRomanPSMT-4d"/>
      <use xlink:href="#TimesNewRomanPSMT-49" x="88.916016"/>
      <use xlink:href="#TimesNewRomanPSMT-43" x="122.216797"/>
      <use xlink:href="#TimesNewRomanPSMT-41" x="188.916016"/>
      <use xlink:href="#TimesNewRomanPSMT-2d" x="261.132812"/>
      <use xlink:href="#TimesNewRomanPSMT-74" x="294.433594"/>
     </g>
    </g>
    <g id="line2d_24">
     <path d="M 132.3 433.561781 
L 151.3 433.561781 
L 170.3 433.561781 
" style="fill: none; stroke: #9467bd; stroke-width: 1.5; stroke-linecap: square"/>
    </g>
    <g id="text_23">
     <!-- MemC3-t -->
     <g transform="translate(185.5 440.211781) scale(0.19 -0.19)">
      <defs>
       <path id="TimesNewRomanPSMT-6d" d="M 1050 2338 
Q 1363 2650 1419 2697 
Q 1559 2816 1721 2881 
Q 1884 2947 2044 2947 
Q 2313 2947 2506 2790 
Q 2700 2634 2766 2338 
Q 3088 2713 3309 2830 
Q 3531 2947 3766 2947 
Q 3994 2947 4170 2830 
Q 4347 2713 4450 2447 
Q 4519 2266 4519 1878 
L 4519 647 
Q 4519 378 4559 278 
Q 4591 209 4675 161 
Q 4759 113 4950 113 
L 4950 0 
L 3538 0 
L 3538 113 
L 3597 113 
Q 3781 113 3884 184 
Q 3956 234 3988 344 
Q 4000 397 4000 647 
L 4000 1878 
Q 4000 2228 3916 2372 
Q 3794 2572 3525 2572 
Q 3359 2572 3192 2489 
Q 3025 2406 2788 2181 
L 2781 2147 
L 2788 2013 
L 2788 647 
Q 2788 353 2820 281 
Q 2853 209 2943 161 
Q 3034 113 3253 113 
L 3253 0 
L 1806 0 
L 1806 113 
Q 2044 113 2133 169 
Q 2222 225 2256 338 
Q 2272 391 2272 647 
L 2272 1878 
Q 2272 2228 2169 2381 
Q 2031 2581 1784 2581 
Q 1616 2581 1450 2491 
Q 1191 2353 1050 2181 
L 1050 647 
Q 1050 366 1089 281 
Q 1128 197 1204 155 
Q 1281 113 1516 113 
L 1516 0 
L 100 0 
L 100 113 
Q 297 113 375 155 
Q 453 197 493 289 
Q 534 381 534 647 
L 534 1741 
Q 534 2213 506 2350 
Q 484 2453 437 2492 
Q 391 2531 309 2531 
Q 222 2531 100 2484 
L 53 2597 
L 916 2947 
L 1050 2947 
L 1050 2338 
z
" transform="scale(0.015625)"/>
       <path id="TimesNewRomanPSMT-33" d="M 325 3431 
Q 506 3859 782 4092 
Q 1059 4325 1472 4325 
Q 1981 4325 2253 3994 
Q 2459 3747 2459 3466 
Q 2459 3003 1878 2509 
Q 2269 2356 2469 2072 
Q 2669 1788 2669 1403 
Q 2669 853 2319 450 
Q 1863 -75 997 -75 
Q 569 -75 414 31 
Q 259 138 259 259 
Q 259 350 332 419 
Q 406 488 509 488 
Q 588 488 669 463 
Q 722 447 909 348 
Q 1097 250 1169 231 
Q 1284 197 1416 197 
Q 1734 197 1970 444 
Q 2206 691 2206 1028 
Q 2206 1275 2097 1509 
Q 2016 1684 1919 1775 
Q 1784 1900 1550 2001 
Q 1316 2103 1072 2103 
L 972 2103 
L 972 2197 
Q 1219 2228 1467 2375 
Q 1716 2522 1828 2728 
Q 1941 2934 1941 3181 
Q 1941 3503 1739 3701 
Q 1538 3900 1238 3900 
Q 753 3900 428 3381 
L 325 3431 
z
" transform="scale(0.015625)"/>
      </defs>
      <use xlink:href="#TimesNewRomanPSMT-4d"/>
      <use xlink:href="#TimesNewRomanPSMT-65" x="88.916016"/>
      <use xlink:href="#TimesNewRomanPSMT-6d" x="133.300781"/>
      <use xlink:href="#TimesNewRomanPSMT-43" x="211.083984"/>
      <use xlink:href="#TimesNewRomanPSMT-33" x="277.783203"/>
      <use xlink:href="#TimesNewRomanPSMT-2d" x="327.783203"/>
      <use xlink:href="#TimesNewRomanPSMT-74" x="361.083984"/>
     </g>
    </g>
   </g>
  </g>
 </g>
 <defs>
  <clipPath id="pcdc651bde3">
   <rect x="115.2" y="62.208" width="714.24" height="399.168"/>
  </clipPath>
 </defs>
</svg>
