<?xml version="1.0" encoding="utf-8" standalone="no"?>
<!DOCTYPE svg PUBLIC "-//W3C//DTD SVG 1.1//EN"
  "http://www.w3.org/Graphics/SVG/1.1/DTD/svg11.dtd">
<svg xmlns:xlink="http://www.w3.org/1999/xlink" width="921.6pt" height="518.4pt" viewBox="0 0 921.6 518.4" xmlns="http://www.w3.org/2000/svg" version="1.1">
 <metadata>
  <rdf:RDF xmlns:dc="http://purl.org/dc/elements/1.1/" xmlns:cc="http://creativecommons.org/ns#" xmlns:rdf="http://www.w3.org/1999/02/22-rdf-syntax-ns#">
   <cc:Work>
    <dc:type rdf:resource="http://purl.org/dc/dcmitype/StillImage"/>
    <dc:date>2023-08-27T01:22:56.929396</dc:date>
    <dc:format>image/svg+xml</dc:format>
    <dc:creator>
     <cc:Agent>
      <dc:title>Matplotlib v3.7.1, https://matplotlib.org/</dc:title>
     </cc:Agent>
    </dc:creator>
   </cc:Work>
  </rdf:RDF>
 </metadata>
 <defs>
  <style type="text/css">*{stroke-linejoin: round; stroke-linecap: butt}</style>
 </defs>
 <g id="figure_1">
  <g id="patch_1">
   <path d="M 0 518.4 
L 921.6 518.4 
L 921.6 0 
L 0 0 
z
" style="fill: #ffffff"/>
  </g>
  <g id="axes_1">
   <g id="patch_2">
    <path d="M 115.2 461.376 
L 829.44 461.376 
L 829.44 62.208 
L 115.2 62.208 
z
" style="fill: #ffffff"/>
   </g>
   <g id="matplotlib.axis_1">
    <g id="xtick_1">
     <g id="line2d_1">
      <defs>
       <path id="m3f83942f04" d="M 0 0 
L 0 3.5 
" style="stroke: #000000; stroke-width: 0.8"/>
      </defs>
      <g>
       <use xlink:href="#m3f83942f04" x="115.2" y="461.376" style="stroke: #000000; stroke-width: 0.8"/>
      </g>
     </g>
     <g id="text_1">
      <!-- 0 -->
      <g transform="translate(110.45 481.958031) scale(0.19 -0.19)">
       <defs>
        <path id="SimSun-30" d="M 1600 4225 
Q 1250 4225 1012 3687 
Q 775 3150 775 2250 
Q 775 1300 1012 775 
Q 1250 250 1600 250 
Q 1975 250 2187 775 
Q 2400 1300 2400 2250 
Q 2400 3150 2200 3687 
Q 2000 4225 1600 4225 
z
M 1600 50 
Q 1050 50 675 625 
Q 300 1200 300 2250 
Q 300 3225 662 3825 
Q 1025 4425 1600 4425 
Q 2150 4425 2512 3850 
Q 2875 3275 2875 2250 
Q 2875 1225 2512 637 
Q 2150 50 1600 50 
z
" transform="scale(0.015625)"/>
       </defs>
       <use xlink:href="#SimSun-30"/>
      </g>
     </g>
    </g>
    <g id="xtick_2">
     <g id="line2d_2">
      <g>
       <use xlink:href="#m3f83942f04" x="234.24" y="461.376" style="stroke: #000000; stroke-width: 0.8"/>
      </g>
     </g>
     <g id="text_2">
      <!-- 100 -->
      <g transform="translate(219.99 481.958031) scale(0.19 -0.19)">
       <defs>
        <path id="SimSun-31" d="M 1825 4450 
L 1825 650 
Q 1825 450 1950 350 
Q 2075 250 2300 250 
L 2550 250 
L 2550 100 
L 725 100 
L 725 250 
L 950 250 
Q 1200 250 1312 350 
Q 1425 450 1425 650 
L 1425 3675 
Q 1425 3775 1362 3837 
Q 1300 3900 1175 3900 
L 725 3900 
L 725 4050 
L 950 4050 
Q 1250 4050 1437 4150 
Q 1625 4250 1725 4450 
L 1825 4450 
z
" transform="scale(0.015625)"/>
       </defs>
       <use xlink:href="#SimSun-31"/>
       <use xlink:href="#SimSun-30" x="50"/>
       <use xlink:href="#SimSun-30" x="100"/>
      </g>
     </g>
    </g>
    <g id="xtick_3">
     <g id="line2d_3">
      <g>
       <use xlink:href="#m3f83942f04" x="353.28" y="461.376" style="stroke: #000000; stroke-width: 0.8"/>
      </g>
     </g>
     <g id="text_3">
      <!-- 200 -->
      <g transform="translate(339.03 481.958031) scale(0.19 -0.19)">
       <defs>
        <path id="SimSun-32" d="M 2325 3325 
Q 2325 3775 2125 4012 
Q 1925 4250 1525 4250 
Q 1225 4250 1012 4087 
Q 800 3925 800 3675 
Q 800 3525 900 3425 
Q 975 3325 975 3225 
Q 975 3100 912 3037 
Q 850 2975 725 2975 
Q 575 2975 487 3062 
Q 400 3150 400 3350 
Q 400 3875 775 4150 
Q 1150 4425 1575 4425 
Q 2175 4425 2462 4125 
Q 2750 3825 2750 3375 
Q 2750 3075 2612 2775 
Q 2475 2475 2175 2200 
Q 1450 1500 1062 1062 
Q 675 625 600 475 
L 2075 475 
Q 2300 475 2450 650 
Q 2600 825 2650 1175 
L 2800 1175 
L 2650 100 
L 325 100 
L 325 425 
Q 450 650 737 1000 
Q 1025 1350 1500 1825 
Q 1925 2250 2125 2625 
Q 2325 3000 2325 3325 
z
" transform="scale(0.015625)"/>
       </defs>
       <use xlink:href="#SimSun-32"/>
       <use xlink:href="#SimSun-30" x="50"/>
       <use xlink:href="#SimSun-30" x="100"/>
      </g>
     </g>
    </g>
    <g id="xtick_4">
     <g id="line2d_4">
      <g>
       <use xlink:href="#m3f83942f04" x="472.32" y="461.376" style="stroke: #000000; stroke-width: 0.8"/>
      </g>
     </g>
     <g id="text_4">
      <!-- 300 -->
      <g transform="translate(458.07 481.958031) scale(0.19 -0.19)">
       <defs>
        <path id="SimSun-33" d="M 2800 1250 
Q 2800 775 2450 412 
Q 2100 50 1475 50 
Q 1025 50 700 300 
Q 375 550 375 875 
Q 375 1025 475 1137 
Q 575 1250 675 1250 
Q 825 1250 887 1137 
Q 950 1025 950 950 
Q 950 825 900 750 
Q 850 650 850 575 
Q 850 425 1037 325 
Q 1225 225 1450 225 
Q 1900 225 2125 487 
Q 2350 750 2350 1300 
Q 2350 1750 2112 2025 
Q 1875 2300 1225 2300 
L 1225 2475 
Q 1725 2475 1962 2712 
Q 2200 2950 2200 3375 
Q 2200 3725 2012 3987 
Q 1825 4250 1425 4250 
Q 1250 4250 1050 4162 
Q 850 4075 850 3875 
Q 850 3675 900 3625 
Q 950 3575 950 3500 
Q 950 3375 900 3300 
Q 850 3225 725 3225 
Q 625 3225 537 3300 
Q 450 3375 450 3575 
Q 450 3950 775 4187 
Q 1100 4425 1525 4425 
Q 2025 4425 2325 4112 
Q 2625 3800 2625 3450 
Q 2625 3075 2437 2812 
Q 2250 2550 1850 2425 
Q 2400 2225 2600 1900 
Q 2800 1575 2800 1250 
z
" transform="scale(0.015625)"/>
       </defs>
       <use xlink:href="#SimSun-33"/>
       <use xlink:href="#SimSun-30" x="50"/>
       <use xlink:href="#SimSun-30" x="100"/>
      </g>
     </g>
    </g>
    <g id="xtick_5">
     <g id="line2d_5">
      <g>
       <use xlink:href="#m3f83942f04" x="591.36" y="461.376" style="stroke: #000000; stroke-width: 0.8"/>
      </g>
     </g>
     <g id="text_5">
      <!-- 400 -->
      <g transform="translate(577.11 481.958031) scale(0.19 -0.19)">
       <defs>
        <path id="SimSun-34" d="M 2300 575 
Q 2300 400 2400 325 
Q 2500 250 2675 250 
L 2900 250 
L 2900 100 
L 1250 100 
L 1250 250 
L 1525 250 
Q 1725 250 1812 325 
Q 1900 400 1900 575 
L 1900 1400 
L 225 1400 
L 225 1525 
L 2050 4425 
L 2300 4425 
L 2300 1550 
L 2975 1550 
L 2975 1400 
L 2300 1400 
L 2300 575 
z
M 1875 3800 
L 450 1550 
L 1900 1550 
L 1900 3800 
L 1875 3800 
z
" transform="scale(0.015625)"/>
       </defs>
       <use xlink:href="#SimSun-34"/>
       <use xlink:href="#SimSun-30" x="50"/>
       <use xlink:href="#SimSun-30" x="100"/>
      </g>
     </g>
    </g>
    <g id="xtick_6">
     <g id="line2d_6">
      <g>
       <use xlink:href="#m3f83942f04" x="710.4" y="461.376" style="stroke: #000000; stroke-width: 0.8"/>
      </g>
     </g>
     <g id="text_6">
      <!-- 500 -->
      <g transform="translate(696.15 481.958031) scale(0.19 -0.19)">
       <defs>
        <path id="SimSun-35" d="M 1725 2850 
Q 2200 2850 2500 2487 
Q 2800 2125 2800 1525 
Q 2800 850 2487 450 
Q 2175 50 1525 50 
Q 1075 50 725 312 
Q 375 575 375 950 
Q 375 1100 462 1212 
Q 550 1325 700 1325 
Q 850 1325 900 1225 
Q 950 1125 950 1050 
Q 950 900 875 825 
Q 800 725 800 625 
Q 800 425 1037 325 
Q 1275 225 1550 225 
Q 1950 225 2162 550 
Q 2375 875 2375 1475 
Q 2375 1975 2187 2287 
Q 2000 2600 1625 2600 
Q 1350 2600 1150 2500 
Q 950 2400 775 2075 
L 550 2100 
L 675 4375 
L 2725 4375 
L 2650 4000 
L 850 4000 
L 750 2350 
Q 1000 2700 1237 2775 
Q 1475 2850 1725 2850 
z
" transform="scale(0.015625)"/>
       </defs>
       <use xlink:href="#SimSun-35"/>
       <use xlink:href="#SimSun-30" x="50"/>
       <use xlink:href="#SimSun-30" x="100"/>
      </g>
     </g>
    </g>
    <g id="xtick_7">
     <g id="line2d_7">
      <g>
       <use xlink:href="#m3f83942f04" x="829.44" y="461.376" style="stroke: #000000; stroke-width: 0.8"/>
      </g>
     </g>
     <g id="text_7">
      <!-- 600 -->
      <g transform="translate(815.19 481.958031) scale(0.19 -0.19)">
       <defs>
        <path id="SimSun-36" d="M 775 1800 
Q 775 1050 1037 637 
Q 1300 225 1675 225 
Q 2050 225 2250 500 
Q 2450 775 2450 1525 
Q 2450 2025 2237 2300 
Q 2025 2575 1725 2575 
Q 1450 2575 1212 2412 
Q 975 2250 775 1800 
z
M 1750 2825 
Q 2350 2825 2612 2425 
Q 2875 2025 2875 1525 
Q 2875 775 2512 412 
Q 2150 50 1675 50 
Q 1000 50 650 562 
Q 300 1075 300 2050 
Q 300 3200 725 3812 
Q 1150 4425 1875 4425 
Q 2225 4425 2437 4225 
Q 2650 4025 2650 3875 
Q 2650 3725 2587 3650 
Q 2525 3575 2375 3575 
Q 2250 3575 2187 3637 
Q 2125 3700 2125 3825 
Q 2125 3875 2150 3925 
Q 2150 3975 2150 4025 
Q 2150 4125 2075 4187 
Q 2000 4250 1800 4250 
Q 1375 4250 1075 3862 
Q 775 3475 775 2175 
Q 925 2500 1187 2662 
Q 1450 2825 1750 2825 
z
" transform="scale(0.015625)"/>
       </defs>
       <use xlink:href="#SimSun-36"/>
       <use xlink:href="#SimSun-30" x="50"/>
       <use xlink:href="#SimSun-30" x="100"/>
      </g>
     </g>
    </g>
    <g id="text_8">
     <!-- 请求数 $\mathrm{(M)}$ -->
     <g transform="translate(424.25 504.17725) scale(0.19 -0.19)">
      <defs>
       <path id="SimSun-8bf7" d="M 3800 4400 
Q 3800 4925 3775 5250 
L 4350 5000 
L 4150 4825 
L 4150 4400 
L 5175 4400 
L 5525 4725 
L 5950 4250 
L 4150 4250 
L 4150 3725 
L 4875 3725 
L 5200 4025 
L 5600 3575 
L 4150 3575 
L 4150 2950 
L 5325 2950 
L 5675 3275 
L 6100 2800 
L 2650 2800 
Q 2450 2800 2175 2725 
L 1950 2950 
L 3800 2950 
L 3800 3575 
L 3225 3575 
Q 3025 3575 2750 3500 
L 2525 3725 
L 3800 3725 
L 3800 4250 
L 2850 4250 
Q 2650 4250 2375 4175 
L 2150 4400 
L 3800 4400 
z
M 3075 2150 
L 3075 1650 
L 4975 1650 
L 4975 2150 
L 3075 2150 
z
M 3075 1500 
L 3075 925 
L 4975 925 
L 4975 1500 
L 3075 1500 
z
M 2725 2500 
L 3050 2300 
L 4925 2300 
L 5075 2525 
L 5475 2225 
L 5300 2075 
L 5300 50 
Q 5325 -425 4750 -600 
Q 4750 -275 4075 -125 
L 4075 -25 
Q 4500 -50 4750 -62 
Q 5000 -75 4975 175 
L 4975 775 
L 3075 775 
L 3075 -450 
L 2725 -625 
Q 2750 125 2750 1000 
Q 2750 1875 2725 2500 
z
M 850 5000 
L 925 5050 
Q 1375 4750 1512 4562 
Q 1650 4375 1600 4200 
Q 1550 4025 1450 3950 
L 1325 3875 
Q 1225 3875 1200 4150 
Q 1150 4500 850 5000 
z
M 200 3075 
L 1100 3075 
L 1300 3325 
L 1725 3000 
L 1500 2825 
L 1500 600 
L 2400 1425 
L 2475 1350 
Q 1775 525 1400 -150 
L 1050 250 
Q 1150 400 1150 600 
L 1150 2925 
L 900 2925 
Q 700 2925 425 2850 
L 200 3075 
z
" transform="scale(0.015625)"/>
       <path id="SimSun-6c42" d="M 3950 5025 
Q 4500 4825 4737 4687 
Q 4975 4550 4975 4350 
Q 4975 4300 4912 4125 
Q 4850 3950 4800 3950 
Q 4725 3950 4625 4150 
Q 4425 4475 3900 4950 
L 3950 5025 
z
M 2900 5225 
L 3500 4900 
L 3300 4700 
L 3300 3775 
L 5050 3775 
L 5400 4150 
L 5900 3625 
L 3325 3625 
Q 3650 2575 4000 2000 
Q 4725 2575 5100 3125 
L 5525 2650 
Q 5250 2600 4950 2425 
Q 4650 2225 4050 1875 
Q 4900 650 6100 375 
L 6100 275 
Q 5675 225 5525 -75 
Q 3750 900 3300 3325 
L 3300 175 
Q 3325 -425 2675 -600 
Q 2650 -250 1925 -25 
L 1925 75 
Q 2475 25 2687 25 
Q 2900 25 2925 250 
L 2925 1700 
Q 1950 1075 1387 700 
Q 825 325 700 100 
L 300 600 
Q 575 650 1225 975 
Q 1875 1300 2925 1850 
L 2925 3625 
L 1275 3625 
Q 950 3625 675 3550 
L 450 3775 
L 2925 3775 
Q 2925 4850 2900 5225 
z
M 1050 3175 
Q 1775 2900 1975 2712 
Q 2175 2525 2175 2350 
Q 2175 2250 2075 2075 
Q 1975 1900 1925 1900 
Q 1850 1900 1750 2175 
Q 1575 2575 1000 3100 
L 1050 3175 
z
" transform="scale(0.015625)"/>
       <path id="SimSun-6570" d="M 1875 1525 
Q 1675 1200 1500 900 
Q 1825 825 2275 725 
Q 2500 975 2725 1525 
L 1875 1525 
z
M 850 4900 
Q 1325 4600 1425 4450 
Q 1525 4300 1525 4225 
Q 1525 4100 1437 3975 
Q 1350 3850 1300 3850 
Q 1225 3850 1150 4100 
Q 1050 4450 775 4850 
L 850 4900 
z
M 3000 4975 
L 3450 4675 
Q 3250 4625 3100 4425 
Q 2925 4225 2525 3825 
L 2450 3875 
Q 2925 4625 3000 4975 
z
M 1875 5250 
L 2425 5000 
L 2225 4825 
L 2225 3675 
L 2850 3675 
L 3125 3950 
L 3550 3525 
L 2225 3525 
L 2225 3300 
Q 2800 3175 2937 3062 
Q 3075 2950 3075 2775 
Q 3075 2700 3050 2587 
Q 3025 2475 2975 2475 
Q 2925 2475 2800 2650 
Q 2600 2925 2225 3175 
L 2225 2400 
L 1925 2200 
L 2275 2050 
Q 2150 2000 1950 1675 
L 2725 1675 
L 2900 1900 
L 3275 1575 
L 3050 1450 
Q 2800 875 2600 650 
Q 3000 550 3137 437 
Q 3275 325 3275 150 
Q 3275 -25 3200 -25 
Q 3125 -25 3025 75 
Q 2750 275 2400 425 
Q 1525 -275 325 -500 
L 300 -425 
Q 1450 -50 2100 550 
Q 1600 725 1125 800 
Q 1225 950 1525 1525 
L 1200 1525 
Q 875 1525 600 1450 
L 375 1675 
L 1575 1675 
Q 1675 1925 1775 2275 
L 1900 2225 
L 1900 3250 
Q 1225 2475 350 2050 
L 300 2125 
Q 1225 2775 1700 3525 
L 1250 3525 
Q 925 3525 650 3450 
L 425 3675 
L 1900 3675 
Q 1900 4575 1875 5250 
z
M 3925 3525 
Q 4050 2075 4525 1100 
Q 4925 1950 5025 3525 
L 3925 3525 
z
M 4050 5250 
L 4625 4925 
Q 4425 4850 4325 4625 
Q 4225 4400 3950 3675 
L 5375 3675 
L 5675 3975 
L 6125 3525 
L 5400 3525 
Q 5250 1675 4750 775 
Q 5325 75 6100 -100 
L 6100 -200 
Q 5625 -275 5600 -500 
Q 4950 -50 4525 525 
Q 3700 -275 2550 -650 
L 2500 -575 
Q 3650 -50 4325 800 
Q 3850 1975 3825 3375 
Q 3575 2725 3100 2150 
L 3025 2200 
Q 3625 3200 4050 5250 
z
" transform="scale(0.015625)"/>
       <path id="SimSun-20" d="M 0 0 
Q 0 0 0 0 
z
" transform="scale(0.015625)"/>
       <path id="STIXGeneral-Regular-28" d="M 1946 -1030 
L 1869 -1133 
Q 1126 -710 716 32 
Q 307 774 307 1613 
Q 307 3386 1888 4326 
L 1946 4224 
Q 1293 3667 1075 3126 
Q 858 2586 858 1632 
Q 858 685 1082 96 
Q 1306 -493 1946 -1030 
z
" transform="scale(0.015625)"/>
       <path id="STIXGeneral-Regular-4d" d="M 5530 0 
L 3738 0 
L 3738 122 
Q 4115 147 4214 265 
Q 4314 384 4314 787 
L 4314 3661 
L 2682 0 
L 2592 0 
L 979 3514 
L 979 966 
Q 979 448 1088 294 
Q 1197 141 1574 122 
L 1574 0 
L 77 0 
L 77 122 
Q 358 141 480 205 
Q 602 269 650 432 
Q 698 595 698 966 
L 698 3514 
Q 698 3878 589 3984 
Q 480 4090 90 4115 
L 90 4237 
L 1357 4237 
L 2835 1024 
L 4250 4237 
L 5523 4237 
L 5523 4115 
Q 5178 4109 5072 3993 
Q 4966 3878 4966 3520 
L 4966 717 
Q 4966 378 5072 262 
Q 5178 147 5530 122 
L 5530 0 
z
" transform="scale(0.015625)"/>
       <path id="STIXGeneral-Regular-29" d="M 186 4224 
L 262 4326 
Q 992 3891 1408 3148 
Q 1824 2406 1824 1581 
Q 1824 -166 243 -1133 
L 186 -1030 
Q 845 -486 1059 54 
Q 1274 595 1274 1562 
Q 1274 2534 1059 3120 
Q 845 3706 186 4224 
z
" transform="scale(0.015625)"/>
      </defs>
      <use xlink:href="#SimSun-8bf7" transform="translate(0 0.96875)"/>
      <use xlink:href="#SimSun-6c42" transform="translate(100 0.96875)"/>
      <use xlink:href="#SimSun-6570" transform="translate(200 0.96875)"/>
      <use xlink:href="#SimSun-20" transform="translate(300 0.96875)"/>
      <use xlink:href="#STIXGeneral-Regular-28" transform="translate(350 0.96875)"/>
      <use xlink:href="#STIXGeneral-Regular-4d" transform="translate(383.299988 0.96875)"/>
      <use xlink:href="#STIXGeneral-Regular-29" transform="translate(472.199982 0.96875)"/>
     </g>
    </g>
   </g>
   <g id="matplotlib.axis_2">
    <g id="ytick_1">
     <g id="line2d_8">
      <defs>
       <path id="m5b3e8e584b" d="M 0 0 
L -3.5 0 
" style="stroke: #000000; stroke-width: 0.8"/>
      </defs>
      <g>
       <use xlink:href="#m5b3e8e584b" x="115.2" y="461.376" style="stroke: #000000; stroke-width: 0.8"/>
      </g>
     </g>
     <g id="text_9">
      <!-- 0 -->
      <g transform="translate(98.7 468.167016) scale(0.19 -0.19)">
       <use xlink:href="#SimSun-30"/>
      </g>
     </g>
    </g>
    <g id="ytick_2">
     <g id="line2d_9">
      <g>
       <use xlink:href="#m5b3e8e584b" x="115.2" y="421.4592" style="stroke: #000000; stroke-width: 0.8"/>
      </g>
     </g>
     <g id="text_10">
      <!-- 10 -->
      <g transform="translate(89.2 428.250216) scale(0.19 -0.19)">
       <use xlink:href="#SimSun-31"/>
       <use xlink:href="#SimSun-30" x="50"/>
      </g>
     </g>
    </g>
    <g id="ytick_3">
     <g id="line2d_10">
      <g>
       <use xlink:href="#m5b3e8e584b" x="115.2" y="381.5424" style="stroke: #000000; stroke-width: 0.8"/>
      </g>
     </g>
     <g id="text_11">
      <!-- 20 -->
      <g transform="translate(89.2 388.333416) scale(0.19 -0.19)">
       <use xlink:href="#SimSun-32"/>
       <use xlink:href="#SimSun-30" x="50"/>
      </g>
     </g>
    </g>
    <g id="ytick_4">
     <g id="line2d_11">
      <g>
       <use xlink:href="#m5b3e8e584b" x="115.2" y="341.6256" style="stroke: #000000; stroke-width: 0.8"/>
      </g>
     </g>
     <g id="text_12">
      <!-- 30 -->
      <g transform="translate(89.2 348.416616) scale(0.19 -0.19)">
       <use xlink:href="#SimSun-33"/>
       <use xlink:href="#SimSun-30" x="50"/>
      </g>
     </g>
    </g>
    <g id="ytick_5">
     <g id="line2d_12">
      <g>
       <use xlink:href="#m5b3e8e584b" x="115.2" y="301.7088" style="stroke: #000000; stroke-width: 0.8"/>
      </g>
     </g>
     <g id="text_13">
      <!-- 40 -->
      <g transform="translate(89.2 308.499816) scale(0.19 -0.19)">
       <use xlink:href="#SimSun-34"/>
       <use xlink:href="#SimSun-30" x="50"/>
      </g>
     </g>
    </g>
    <g id="ytick_6">
     <g id="line2d_13">
      <g>
       <use xlink:href="#m5b3e8e584b" x="115.2" y="261.792" style="stroke: #000000; stroke-width: 0.8"/>
      </g>
     </g>
     <g id="text_14">
      <!-- 50 -->
      <g transform="translate(89.2 268.583016) scale(0.19 -0.19)">
       <use xlink:href="#SimSun-35"/>
       <use xlink:href="#SimSun-30" x="50"/>
      </g>
     </g>
    </g>
    <g id="ytick_7">
     <g id="line2d_14">
      <g>
       <use xlink:href="#m5b3e8e584b" x="115.2" y="221.8752" style="stroke: #000000; stroke-width: 0.8"/>
      </g>
     </g>
     <g id="text_15">
      <!-- 60 -->
      <g transform="translate(89.2 228.666216) scale(0.19 -0.19)">
       <use xlink:href="#SimSun-36"/>
       <use xlink:href="#SimSun-30" x="50"/>
      </g>
     </g>
    </g>
    <g id="ytick_8">
     <g id="line2d_15">
      <g>
       <use xlink:href="#m5b3e8e584b" x="115.2" y="181.9584" style="stroke: #000000; stroke-width: 0.8"/>
      </g>
     </g>
     <g id="text_16">
      <!-- 70 -->
      <g transform="translate(89.2 188.749416) scale(0.19 -0.19)">
       <defs>
        <path id="SimSun-37" d="M 2825 4200 
Q 2300 3350 1987 2537 
Q 1675 1725 1675 1125 
Q 1675 1025 1700 850 
Q 1700 650 1700 400 
Q 1700 200 1637 125 
Q 1575 50 1425 50 
Q 1300 50 1212 137 
Q 1125 225 1125 450 
Q 1125 925 1337 1625 
Q 1550 2325 2475 4000 
L 1225 4000 
Q 950 4000 787 3825 
Q 625 3650 550 3300 
L 400 3325 
L 575 4375 
L 2825 4375 
L 2825 4200 
z
" transform="scale(0.015625)"/>
       </defs>
       <use xlink:href="#SimSun-37"/>
       <use xlink:href="#SimSun-30" x="50"/>
      </g>
     </g>
    </g>
    <g id="ytick_9">
     <g id="line2d_16">
      <g>
       <use xlink:href="#m5b3e8e584b" x="115.2" y="142.0416" style="stroke: #000000; stroke-width: 0.8"/>
      </g>
     </g>
     <g id="text_17">
      <!-- 80 -->
      <g transform="translate(89.2 148.832616) scale(0.19 -0.19)">
       <defs>
        <path id="SimSun-38" d="M 625 1125 
Q 625 725 887 475 
Q 1150 225 1550 225 
Q 2025 225 2237 475 
Q 2450 725 2450 1100 
Q 2450 1425 2150 1725 
Q 1850 2025 1250 2275 
Q 950 2075 787 1775 
Q 625 1475 625 1125 
z
M 2825 1175 
Q 2825 700 2475 375 
Q 2125 50 1550 50 
Q 1025 50 650 375 
Q 275 700 275 1125 
Q 275 1550 487 1850 
Q 700 2150 1100 2375 
Q 750 2550 562 2812 
Q 375 3075 375 3400 
Q 375 3825 700 4125 
Q 1025 4425 1600 4425 
Q 2125 4425 2450 4125 
Q 2775 3825 2775 3400 
Q 2775 3100 2587 2837 
Q 2400 2575 2000 2375 
Q 2425 2125 2625 1825 
Q 2825 1525 2825 1175 
z
M 2425 3375 
Q 2425 3725 2225 3987 
Q 2025 4250 1600 4250 
Q 1125 4250 925 4000 
Q 725 3750 725 3475 
Q 725 3200 1012 2937 
Q 1300 2675 1825 2475 
Q 2125 2625 2275 2850 
Q 2425 3075 2425 3375 
z
" transform="scale(0.015625)"/>
       </defs>
       <use xlink:href="#SimSun-38"/>
       <use xlink:href="#SimSun-30" x="50"/>
      </g>
     </g>
    </g>
    <g id="ytick_10">
     <g id="line2d_17">
      <g>
       <use xlink:href="#m5b3e8e584b" x="115.2" y="102.1248" style="stroke: #000000; stroke-width: 0.8"/>
      </g>
     </g>
     <g id="text_18">
      <!-- 90 -->
      <g transform="translate(89.2 108.915816) scale(0.19 -0.19)">
       <defs>
        <path id="SimSun-39" d="M 700 3050 
Q 700 2500 912 2212 
Q 1125 1925 1450 1925 
Q 1825 1925 2100 2275 
Q 2375 2625 2375 2925 
Q 2375 3525 2175 3887 
Q 1975 4250 1525 4250 
Q 1100 4250 900 3912 
Q 700 3575 700 3050 
z
M 1375 1700 
Q 875 1700 575 2012 
Q 275 2325 275 3025 
Q 275 3625 600 4025 
Q 925 4425 1525 4425 
Q 2150 4425 2500 3925 
Q 2850 3425 2850 2475 
Q 2850 1425 2437 737 
Q 2025 50 1300 50 
Q 975 50 737 200 
Q 500 350 500 600 
Q 500 700 562 800 
Q 625 900 775 900 
Q 925 900 975 787 
Q 1025 675 1025 525 
Q 1025 425 1050 362 
Q 1075 300 1100 275 
Q 1125 250 1187 237 
Q 1250 225 1325 225 
Q 1775 225 2050 725 
Q 2325 1225 2375 2400 
Q 2250 2100 2000 1900 
Q 1750 1700 1375 1700 
z
" transform="scale(0.015625)"/>
       </defs>
       <use xlink:href="#SimSun-39"/>
       <use xlink:href="#SimSun-30" x="50"/>
      </g>
     </g>
    </g>
    <g id="ytick_11">
     <g id="line2d_18">
      <g>
       <use xlink:href="#m5b3e8e584b" x="115.2" y="62.208" style="stroke: #000000; stroke-width: 0.8"/>
      </g>
     </g>
     <g id="text_19">
      <!-- 100 -->
      <g transform="translate(79.7 68.999016) scale(0.19 -0.19)">
       <use xlink:href="#SimSun-31"/>
       <use xlink:href="#SimSun-30" x="50"/>
       <use xlink:href="#SimSun-30" x="100"/>
      </g>
     </g>
    </g>
    <g id="text_20">
     <!-- 读取命中率 $\mathrm{(\%)}$ -->
     <g transform="translate(72.28 327.532) rotate(-90) scale(0.19 -0.19)">
      <defs>
       <path id="SimSun-8bfb" d="M 1450 275 
L 2375 850 
L 2425 775 
Q 1600 50 1325 -325 
L 1025 50 
Q 1125 175 1125 400 
L 1125 2850 
L 1050 2850 
Q 725 2850 450 2775 
L 225 3000 
L 1125 3000 
L 1350 3225 
L 1675 2900 
L 1450 2725 
L 1450 275 
z
M 750 4925 
L 800 5000 
Q 1150 4800 1387 4600 
Q 1625 4400 1587 4200 
Q 1550 4000 1400 3925 
Q 1250 3850 1175 4200 
Q 1100 4525 750 4925 
z
M 5100 2700 
L 5425 3325 
L 2575 3325 
Q 2375 3325 2100 3250 
L 1875 3475 
L 3650 3475 
L 3650 4250 
L 3025 4250 
Q 2700 4250 2425 4175 
L 2200 4400 
L 3650 4400 
Q 3650 4825 3625 5250 
L 4175 5000 
L 3975 4825 
L 3975 4400 
L 4875 4400 
L 5150 4675 
L 5550 4250 
L 3975 4250 
L 3975 3475 
L 5375 3475 
L 5625 3750 
L 6075 3300 
Q 5725 3275 5200 2650 
L 5100 2700 
z
M 2750 2925 
L 2775 3000 
Q 3350 2825 3462 2687 
Q 3575 2550 3575 2450 
Q 3575 2350 3512 2250 
Q 3450 2150 3425 2150 
Q 3350 2150 3275 2350 
Q 3125 2625 2750 2925 
z
M 2375 2275 
Q 2975 2075 3100 1950 
Q 3225 1825 3225 1700 
Q 3225 1625 3162 1512 
Q 3100 1400 3075 1400 
Q 3000 1400 2900 1625 
Q 2725 1925 2350 2200 
L 2375 2275 
z
M 4475 2625 
Q 4425 1550 4350 1175 
L 5275 1175 
L 5600 1500 
L 6050 1025 
L 4325 1025 
Q 4250 825 4125 575 
Q 4850 350 5200 150 
Q 5550 -50 5600 -237 
Q 5650 -425 5587 -500 
Q 5525 -575 5475 -575 
Q 5350 -575 5175 -325 
Q 4925 25 4075 475 
Q 3425 -425 1975 -650 
L 1950 -550 
Q 3600 -100 3975 1025 
L 2700 1025 
Q 2500 1025 2225 950 
L 2000 1175 
L 4000 1175 
Q 4100 1800 4100 3075 
L 4675 2800 
L 4475 2625 
z
" transform="scale(0.015625)"/>
       <path id="SimSun-53d6" d="M 1300 2225 
L 1300 1125 
L 2425 1350 
L 2425 2225 
L 1300 2225 
z
M 2750 1225 
Q 2750 100 2775 -350 
L 2400 -575 
Q 2425 125 2425 1150 
Q 775 700 575 425 
L 325 925 
Q 625 975 975 1050 
L 975 4650 
L 775 4650 
L 525 4600 
L 325 4800 
L 2675 4800 
L 2975 5100 
L 3425 4650 
L 2750 4650 
L 2750 1425 
L 3500 1575 
L 3525 1475 
L 2750 1225 
z
M 1300 4650 
L 1300 3600 
L 2425 3600 
L 2425 4650 
L 1300 4650 
z
M 2425 3450 
L 1300 3450 
L 1300 2375 
L 2425 2375 
L 2425 3450 
z
M 2925 4175 
L 5050 4175 
L 5250 4425 
L 5700 4075 
L 5475 3925 
Q 5100 2350 4550 1275 
Q 5200 375 6100 125 
L 6100 25 
Q 5775 -25 5600 -275 
Q 4875 225 4375 975 
Q 3700 25 2825 -525 
L 2775 -450 
Q 3650 325 4175 1250 
Q 3650 2625 3525 4025 
L 3350 4025 
L 3125 3975 
L 2925 4175 
z
M 3650 4025 
Q 3900 2525 4350 1600 
Q 4825 2650 5075 4025 
L 3650 4025 
z
" transform="scale(0.015625)"/>
       <path id="SimSun-547d" d="M 1775 3150 
L 3650 3150 
L 3950 3450 
L 4400 3000 
L 2550 3000 
Q 2225 3000 2000 2925 
L 1775 3150 
z
M 1450 2125 
L 1450 575 
L 2400 575 
L 2400 2125 
L 1450 2125 
z
M 1100 -250 
Q 1125 525 1125 1125 
Q 1125 1725 1100 2500 
L 1450 2275 
L 2350 2275 
L 2525 2500 
L 2900 2200 
L 2725 2050 
Q 2725 550 2750 150 
L 2400 0 
L 2400 425 
L 1450 425 
L 1450 -100 
L 1100 -250 
z
M 3775 2175 
L 3775 -450 
L 3425 -625 
Q 3450 75 3450 1050 
Q 3450 2025 3425 2550 
L 3775 2325 
L 4825 2325 
L 5000 2575 
L 5400 2275 
L 5200 2100 
L 5200 525 
Q 5225 75 4700 -125 
Q 4700 150 4025 325 
L 4025 425 
Q 4550 375 4712 375 
Q 4875 375 4875 700 
L 4875 2175 
L 3775 2175 
z
M 2975 5275 
L 3475 4900 
L 3250 4725 
Q 3750 4025 4450 3625 
Q 5150 3225 6125 3075 
L 6125 2975 
Q 5700 2950 5550 2625 
Q 4650 3050 4112 3500 
Q 3575 3950 3150 4650 
Q 2600 3900 1962 3362 
Q 1325 2825 275 2425 
L 225 2525 
Q 1250 2975 1962 3750 
Q 2675 4525 2975 5275 
z
" transform="scale(0.015625)"/>
       <path id="SimSun-4e2d" d="M 3325 3625 
L 3325 1975 
L 5125 1975 
L 5125 3625 
L 3325 3625 
z
M 2950 3775 
Q 2950 4750 2925 5250 
L 3525 4975 
L 3325 4775 
L 3325 3775 
L 5075 3775 
L 5275 4075 
L 5700 3750 
L 5475 3550 
L 5475 2100 
Q 5475 1825 5500 1525 
L 5125 1375 
L 5125 1825 
L 3325 1825 
Q 3325 -75 3350 -400 
L 2925 -625 
Q 2950 -50 2950 1825 
L 1225 1825 
L 1225 1525 
L 850 1325 
Q 875 1775 875 2625 
Q 875 3475 850 4000 
L 1225 3775 
L 2950 3775 
z
M 1225 3625 
L 1225 1975 
L 2950 1975 
L 2950 3625 
L 1225 3625 
z
" transform="scale(0.015625)"/>
       <path id="SimSun-7387" d="M 875 3725 
L 925 3800 
Q 1375 3650 1550 3525 
Q 1725 3400 1725 3250 
Q 1725 3175 1662 3025 
Q 1600 2875 1550 2875 
Q 1500 2875 1425 3050 
Q 1275 3325 875 3725 
z
M 550 1850 
Q 875 1925 2000 2575 
L 2050 2500 
Q 1675 2225 1337 1937 
Q 1000 1650 875 1425 
L 550 1850 
z
M 5200 3450 
Q 4800 3150 4275 2800 
L 4225 2875 
Q 4775 3400 5050 3925 
L 5450 3525 
L 5200 3450 
z
M 4325 2500 
L 4350 2575 
Q 5225 2350 5375 2212 
Q 5525 2075 5525 1900 
Q 5525 1775 5487 1662 
Q 5450 1550 5400 1550 
Q 5325 1550 5200 1800 
Q 4975 2150 4325 2500 
z
M 3150 3900 
Q 2500 3300 2300 3150 
Q 2800 3150 3400 3175 
Q 3700 3500 3850 3825 
L 4250 3450 
Q 4050 3400 3450 2825 
Q 2850 2250 2475 1950 
Q 3150 1975 3850 2000 
Q 3750 2175 3550 2450 
L 3600 2500 
Q 4050 2250 4200 2100 
Q 4350 1950 4350 1850 
Q 4350 1775 4250 1625 
Q 4150 1475 4100 1475 
Q 4075 1475 4050 1550 
Q 4000 1700 3900 1900 
Q 3650 1875 3075 1800 
L 3500 1550 
L 3325 1425 
L 3325 975 
L 5325 975 
L 5650 1300 
L 6100 825 
L 3325 825 
Q 3325 -275 3350 -525 
L 2975 -650 
Q 3000 0 3000 825 
L 1125 825 
Q 800 825 525 750 
L 300 975 
L 3000 975 
L 3000 1775 
Q 2450 1700 2200 1525 
L 1950 1950 
Q 2275 1950 2675 2350 
Q 3075 2750 3325 3050 
Q 2400 2950 2150 2775 
L 1950 3175 
Q 2150 3150 2475 3575 
Q 2800 4000 2900 4225 
L 1450 4225 
Q 1125 4225 850 4150 
L 625 4375 
L 3100 4375 
Q 3050 4800 2675 5200 
L 2725 5250 
Q 3225 5050 3337 4912 
Q 3450 4775 3450 4700 
Q 3450 4550 3250 4375 
L 5025 4375 
L 5350 4675 
L 5775 4225 
L 3050 4225 
L 3375 3950 
L 3150 3900 
z
" transform="scale(0.015625)"/>
       <path id="STIXGeneral-Regular-25" d="M 4390 1363 
Q 4390 781 4070 329 
Q 3750 -122 3341 -122 
Q 3014 -122 2790 134 
Q 2566 390 2566 762 
Q 2566 1274 2940 1693 
Q 3315 2112 3776 2112 
Q 4070 2112 4230 1917 
Q 4390 1722 4390 1363 
z
M 4243 1376 
Q 4243 1626 4131 1779 
Q 4019 1933 3840 1933 
Q 3654 1933 3526 1786 
Q 3315 1562 3171 1187 
Q 3027 813 3027 486 
Q 3027 301 3129 176 
Q 3232 51 3386 51 
Q 3718 51 3980 457 
Q 4243 864 4243 1376 
z
M 3974 4518 
L 1222 -115 
L 922 -115 
L 3443 4096 
Q 3264 3891 3094 3811 
Q 2925 3731 2669 3731 
Q 2445 3731 2182 3821 
Q 2208 3674 2208 3539 
Q 2208 3206 2067 2873 
Q 1926 2541 1696 2323 
Q 1453 2086 1146 2086 
Q 826 2086 608 2339 
Q 390 2592 390 2963 
Q 390 3507 761 3916 
Q 1133 4326 1626 4326 
Q 1792 4326 2010 4147 
Q 2310 3898 2624 3898 
Q 2918 3898 3084 3994 
Q 3251 4090 3693 4518 
L 3974 4518 
z
M 2054 3642 
Q 2054 3782 2025 3833 
Q 1997 3885 1894 3936 
Q 1747 4006 1613 4154 
Q 1414 4058 1331 3984 
Q 1248 3910 1152 3750 
Q 845 3264 845 2707 
Q 845 2509 944 2384 
Q 1043 2259 1210 2259 
Q 1549 2259 1801 2675 
Q 2054 3091 2054 3642 
z
" transform="scale(0.015625)"/>
      </defs>
      <use xlink:href="#SimSun-8bfb" transform="translate(0 0.578125)"/>
      <use xlink:href="#SimSun-53d6" transform="translate(100 0.578125)"/>
      <use xlink:href="#SimSun-547d" transform="translate(200 0.578125)"/>
      <use xlink:href="#SimSun-4e2d" transform="translate(300 0.578125)"/>
      <use xlink:href="#SimSun-7387" transform="translate(400 0.578125)"/>
      <use xlink:href="#SimSun-20" transform="translate(500 0.578125)"/>
      <use xlink:href="#STIXGeneral-Regular-28" transform="translate(550 0.578125)"/>
      <use xlink:href="#STIXGeneral-Regular-25" transform="translate(583.299988 0.578125)"/>
      <use xlink:href="#STIXGeneral-Regular-29" transform="translate(657.999969 0.578125)"/>
     </g>
    </g>
   </g>
   <g id="line2d_19">
    <path d="M 115.434884 460.150953 
L 118.034128 452.693298 
L 119.550398 448.649327 
L 121.086297 443.900026 
L 122.648366 440.028096 
L 124.231317 435.620483 
L 126.672205 429.45214 
L 127.916843 425.321949 
L 129.172751 423.029527 
L 131.726364 416.080012 
L 133.010091 412.555359 
L 134.302711 410.135203 
L 138.191927 399.85543 
L 139.489061 397.701519 
L 142.100458 390.755597 
L 143.412887 388.023691 
L 144.723175 383.752194 
L 147.35881 379.751732 
L 148.679992 375.500593 
L 152.66057 367.10609 
L 153.986991 363.608181 
L 155.311708 360.433598 
L 156.638444 357.936004 
L 159.298431 352.344458 
L 160.635711 350.284751 
L 161.970385 346.861886 
L 163.306666 343.827411 
L 164.646476 342.320551 
L 165.983835 337.752473 
L 167.325749 336.274753 
L 168.665011 333.419105 
L 170.007579 330.822118 
L 171.346905 327.901007 
L 172.694665 326.462006 
L 174.035465 322.883465 
L 175.380093 320.048973 
L 176.729681 318.193241 
L 178.084064 315.542366 
L 180.792473 311.108408 
L 182.145015 308.203263 
L 183.492039 306.346334 
L 184.849967 304.223958 
L 186.209632 302.334695 
L 187.562646 299.223979 
L 188.925971 296.840547 
L 190.279536 296.267342 
L 191.637058 292.686007 
L 192.994882 290.487788 
L 194.349378 288.684347 
L 197.069197 284.13982 
L 198.42612 282.425792 
L 199.785969 279.752963 
L 201.141776 278.187426 
L 203.861262 273.648886 
L 205.224621 272.186335 
L 207.95583 267.683321 
L 209.315273 266.974797 
L 210.672983 263.988622 
L 212.033419 263.036207 
L 213.394466 260.642396 
L 214.757486 259.375038 
L 216.115729 257.204761 
L 217.47186 254.757862 
L 218.829357 253.619834 
L 220.186964 251.616409 
L 221.537268 249.987006 
L 222.894731 248.766749 
L 224.251761 246.820007 
L 226.961442 244.085307 
L 228.315545 241.633218 
L 229.670685 241.300312 
L 231.023311 238.688156 
L 232.378589 238.313337 
L 233.728604 235.958645 
L 236.430143 232.976062 
L 237.782336 231.889128 
L 241.823987 227.850346 
L 243.172669 226.024152 
L 244.515907 224.747214 
L 245.863858 223.050351 
L 248.551151 220.894444 
L 249.89306 219.270629 
L 251.236729 217.422082 
L 252.57652 217.679146 
L 253.917941 216.39622 
L 255.257835 214.40517 
L 256.598533 213.673894 
L 257.93573 212.654818 
L 259.278865 210.9364 
L 260.615796 210.128085 
L 263.28908 207.997326 
L 264.619825 206.203465 
L 265.954349 205.403932 
L 267.285406 207.161468 
L 268.613307 203.31269 
L 271.283505 201.770705 
L 272.615605 200.401957 
L 273.941826 199.813185 
L 275.267854 198.18418 
L 279.260265 195.884972 
L 280.584806 194.36055 
L 281.910445 193.618496 
L 283.23289 193.019744 
L 284.557281 191.464985 
L 285.88441 191.585135 
L 287.21404 189.90823 
L 288.538359 189.715432 
L 289.857568 188.244897 
L 291.172644 187.589862 
L 292.490813 187.223825 
L 293.810302 186.35803 
L 295.123066 185.918546 
L 296.44626 185.139769 
L 297.764326 183.638099 
L 299.089384 183.655662 
L 300.409043 182.890457 
L 301.720389 181.696147 
L 303.03749 180.980039 
L 304.352448 180.064747 
L 305.668193 179.441247 
L 306.975866 178.490428 
L 308.290328 178.717555 
L 309.598039 177.114097 
L 310.906492 176.552867 
L 312.220147 176.556459 
L 313.528963 175.383305 
L 316.143502 173.778649 
L 317.450361 174.184603 
L 320.056928 172.109728 
L 321.363145 171.508581 
L 322.663445 171.124581 
L 323.970019 170.465954 
L 325.263856 170.210087 
L 326.566515 169.395386 
L 329.166039 168.925166 
L 330.460794 167.871761 
L 331.762102 167.475787 
L 333.063089 165.692304 
L 334.357669 165.096346 
L 335.650551 165.525053 
L 336.947806 165.287947 
L 338.235275 164.632513 
L 339.528865 163.666526 
L 342.114594 162.885754 
L 343.404552 162.401164 
L 344.70078 161.485872 
L 345.998348 161.45314 
L 347.294538 161.221223 
L 348.588837 160.596525 
L 349.875901 160.189374 
L 351.169824 160.283977 
L 352.458591 159.084477 
L 355.042259 157.824304 
L 356.337373 158.873716 
L 358.922531 156.661527 
L 360.208441 156.375324 
L 361.496146 156.408455 
L 362.769001 152.919726 
L 364.053525 154.718777 
L 365.336747 155.944222 
L 366.61575 154.508814 
L 367.895447 154.330785 
L 369.180334 154.579467 
L 370.471643 154.64054 
L 371.750862 153.111327 
L 373.035488 152.993572 
L 374.315243 152.562072 
L 375.594719 152.541315 
L 376.870819 151.129458 
L 378.155295 151.693881 
L 379.431664 150.885566 
L 380.715871 151.135046 
L 381.99375 150.495978 
L 383.278928 150.050108 
L 384.558114 149.912395 
L 385.833401 149.282108 
L 387.112542 149.18551 
L 388.390844 149.3819 
L 389.662396 148.384779 
L 390.938004 147.62596 
L 392.216073 147.850692 
L 393.489712 147.548123 
L 394.764048 147.636738 
L 396.036853 146.580938 
L 397.309885 147.329778 
L 398.582366 146.715458 
L 399.853068 145.91353 
L 401.122944 145.890777 
L 404.94019 145.037755 
L 407.473105 144.604658 
L 408.743732 143.505748 
L 410.014585 143.697748 
L 411.286383 143.478206 
L 412.556798 143.90332 
L 413.825586 142.778863 
L 415.089792 142.74214 
L 416.353282 142.582073 
L 417.620489 143.390389 
L 418.886609 142.154964 
L 422.681181 141.668777 
L 423.941874 140.92832 
L 425.20869 141.37938 
L 426.472759 141.282382 
L 427.73918 140.460895 
L 429.002868 140.06971 
L 430.269003 139.945968 
L 431.535814 140.18507 
L 432.797799 139.871324 
L 434.057637 139.352804 
L 439.099519 138.966809 
L 440.359306 139.229062 
L 441.627314 138.995948 
L 442.883014 138.056706 
L 444.144381 137.537787 
L 445.404869 137.703442 
L 446.665073 138.015592 
L 447.926122 137.495476 
L 449.187013 137.238411 
L 450.448847 137.364948 
L 451.704758 136.843634 
L 452.958 136.479593 
L 454.209294 135.945905 
L 455.465424 132.50388 
L 456.718627 135.939519 
L 457.979499 135.730754 
L 459.234572 135.855694 
L 460.491318 136.424508 
L 461.741956 135.263328 
L 462.99908 135.764683 
L 464.249493 135.042987 
L 465.502853 134.857374 
L 466.757786 135.368309 
L 468.012319 134.848593 
L 469.261306 134.726846 
L 470.516749 134.805882 
L 471.770172 133.927712 
L 473.022441 134.032693 
L 474.273027 133.859454 
L 475.526883 137.026054 
L 476.780856 133.501401 
L 478.026357 133.022798 
L 480.517156 133.053933 
L 481.768515 133.57844 
L 483.013681 132.665543 
L 484.263074 132.41287 
L 485.514042 132.573335 
L 486.760907 132.268371 
L 488.010365 131.725502 
L 489.252598 128.561697 
L 490.50287 132.411273 
L 491.753594 131.736679 
L 494.24539 132.061202 
L 495.49416 132.046433 
L 496.739031 131.052505 
L 497.986813 130.591865 
L 500.476153 131.114376 
L 501.721503 131.066476 
L 502.957276 130.345578 
L 505.451648 131.070867 
L 506.700645 130.609029 
L 507.948584 130.586676 
L 509.190054 130.273329 
L 510.438164 131.123557 
L 511.682044 129.885338 
L 512.929553 129.877754 
L 514.171995 129.494552 
L 515.423591 130.129229 
L 516.674502 129.600332 
L 519.166124 130.061371 
L 520.410339 129.383584 
L 524.137855 128.665879 
L 525.384062 129.486569 
L 526.626731 128.592433 
L 527.868755 129.242677 
L 529.111382 128.923742 
L 530.358366 129.332091 
L 531.604106 129.4239 
L 532.84221 128.453921 
L 534.083704 128.439152 
L 535.323688 127.661972 
L 536.56449 124.463838 
L 537.799859 127.976516 
L 539.03601 127.723045 
L 541.519675 127.526654 
L 542.764698 127.790903 
L 544.008296 127.549806 
L 545.252609 127.774138 
L 546.495555 127.336251 
L 548.981984 127.444825 
L 550.231307 127.863153 
L 551.470949 126.998954 
L 552.709492 127.273182 
L 555.196981 127.341839 
L 556.435688 127.224484 
L 557.674106 127.344633 
L 558.91073 126.877208 
L 561.381346 126.374256 
L 562.624893 126.662056 
L 565.107085 126.660459 
L 566.348935 125.979878 
L 567.586813 126.627329 
L 568.825598 126.760651 
L 570.065378 126.600185 
L 571.302978 126.118788 
L 572.542029 126.333142 
L 573.783494 126.378647 
L 575.018488 125.80145 
L 576.261239 126.150323 
L 577.498494 125.781092 
L 578.736408 126.112003 
L 579.974881 125.922398 
L 581.214335 126.075279 
L 582.456841 125.704452 
L 583.694612 126.24772 
L 584.932627 125.165176 
L 586.169955 125.628211 
L 587.400053 125.843762 
L 588.634802 125.222257 
L 589.868943 125.433018 
L 591.101123 125.103305 
L 593.566572 125.383122 
L 594.802534 125.163579 
L 596.041475 124.796345 
L 597.277436 125.175155 
L 598.51089 125.192719 
L 599.74851 129.0878 
L 600.978596 124.542075 
L 602.216584 124.853027 
L 603.449257 124.935255 
L 604.681569 124.469027 
L 605.920969 125.042232 
L 607.159244 124.424719 
L 608.391608 124.798341 
L 609.623488 124.631888 
L 610.861139 124.797942 
L 612.095378 124.322532 
L 613.331464 124.077443 
L 614.565922 124.781975 
L 615.795844 124.060279 
L 618.26619 124.387198 
L 619.505278 124.632686 
L 620.742309 124.528503 
L 621.9741 123.908994 
L 623.203524 124.112969 
L 624.445888 124.789559 
L 625.687768 124.609933 
L 626.924965 124.15089 
L 629.399111 124.345285 
L 630.635109 123.987231 
L 631.875683 124.144903 
L 633.112463 123.852313 
L 634.350412 124.340096 
L 636.82714 124.334508 
L 638.059882 123.771281 
L 639.291286 123.429594 
L 640.527654 124.069859 
L 641.764811 124.067863 
L 642.995553 123.178517 
L 644.234409 123.684662 
L 645.470682 123.94931 
L 646.705785 123.484679 
L 647.940389 123.711805 
L 649.174937 124.105784 
L 650.41368 123.586467 
L 651.651072 123.725377 
L 652.882849 122.720671 
L 654.112675 123.330999 
L 657.813011 123.927755 
L 659.047576 123.493061 
L 660.285168 123.232804 
L 661.524076 124.152088 
L 662.75955 123.266334 
L 663.988522 123.156962 
L 665.221771 123.941726 
L 666.458611 123.186101 
L 667.692718 123.774076 
L 668.925439 123.387681 
L 670.159224 123.573693 
L 671.392511 123.041203 
L 672.620412 123.091099 
L 673.850208 123.293477 
L 675.08527 123.132613 
L 676.314319 123.841136 
L 677.548253 123.329402 
L 680.018783 122.565395 
L 682.484188 123.342176 
L 683.710689 123.385685 
L 684.944036 123.013261 
L 686.175234 122.850002 
L 687.41079 123.163748 
L 689.875111 122.915066 
L 691.107616 123.48907 
L 692.337176 122.972546 
L 693.571335 123.247972 
L 694.802557 122.525079 
L 696.035093 123.031224 
L 697.266138 123.66151 
L 698.499114 122.990908 
L 699.731185 122.663989 
L 702.194314 122.62527 
L 703.420254 122.950592 
L 707.112568 122.484364 
L 710.807801 123.059964 
L 712.038838 122.620081 
L 713.271141 122.702709 
L 714.499874 123.089103 
L 716.959654 122.46241 
L 718.187218 121.34434 
L 719.418814 122.751008 
L 721.873995 122.396946 
L 723.105492 122.698717 
L 725.570746 122.532264 
L 726.801891 121.993786 
L 728.031443 122.274401 
L 729.262643 122.264821 
L 730.683532 121.590228 
L 730.683532 121.590228 
" clip-path="url(#pbeb56d4a81)" style="fill: none; stroke: #ff0000; stroke-width: 1.5; stroke-linecap: square"/>
   </g>
   <g id="line2d_20">
    <path d="M 115.227446 459.934604 
L 116.544578 457.058998 
L 121.058708 444.114778 
L 122.612464 440.186167 
L 126.676317 429.318419 
L 132.881156 412.990053 
L 134.13574 410.610213 
L 135.390352 406.923098 
L 137.912492 400.583911 
L 139.181448 397.95539 
L 140.456426 394.069489 
L 144.281045 385.520109 
L 145.562996 382.345925 
L 146.85231 379.605238 
L 149.429896 373.616121 
L 150.725201 370.893396 
L 152.019397 368.884783 
L 153.315926 365.185693 
L 154.615223 362.736398 
L 157.222495 356.309793 
L 158.524978 354.358261 
L 159.827031 350.461583 
L 161.134298 348.586292 
L 162.449828 345.923442 
L 163.760461 342.907728 
L 165.07567 340.788944 
L 166.387111 338.158028 
L 167.695614 336.259984 
L 169.012002 333.49335 
L 170.321429 330.134352 
L 171.637418 327.617597 
L 172.950254 325.480851 
L 174.260083 322.412846 
L 175.569681 319.669364 
L 176.888785 317.821615 
L 178.208153 315.609826 
L 179.524587 311.424549 
L 180.834947 310.696068 
L 182.15034 307.887921 
L 183.468257 305.958343 
L 184.784802 303.396083 
L 187.415002 299.514174 
L 188.72968 297.126751 
L 190.047088 294.984017 
L 193.991373 288.067633 
L 195.305887 285.890171 
L 196.622164 283.394972 
L 197.96131 281.834225 
L 200.583228 277.246587 
L 201.899982 275.255138 
L 203.2128 274.022508 
L 204.520609 271.22434 
L 205.829989 269.499136 
L 207.141761 268.131187 
L 208.453117 265.325834 
L 209.762096 263.980239 
L 211.070851 261.909755 
L 212.378905 260.215286 
L 213.691633 258.16955 
L 214.995731 256.362916 
L 216.302574 254.807758 
L 217.610079 252.595169 
L 220.216218 248.842591 
L 222.822036 246.040831 
L 225.418167 241.520652 
L 226.723651 240.389809 
L 228.022428 239.066967 
L 229.321122 236.937804 
L 231.90858 233.831878 
L 233.206907 232.848727 
L 234.502584 230.836522 
L 235.787175 229.343234 
L 237.079125 227.313465 
L 238.37717 226.396177 
L 239.669427 226.695154 
L 240.956193 222.258401 
L 242.247509 221.722319 
L 243.537799 219.753622 
L 244.825545 218.648725 
L 246.110337 216.622947 
L 247.398645 215.285335 
L 248.682158 214.560446 
L 249.96236 212.536665 
L 252.531495 210.279769 
L 253.812576 208.25439 
L 255.097889 207.662025 
L 258.939293 203.493913 
L 260.264249 201.582696 
L 261.540974 200.255064 
L 262.812476 199.936528 
L 265.362577 197.034576 
L 269.175165 193.030123 
L 270.452954 192.110839 
L 271.720703 190.823123 
L 272.985988 189.703457 
L 274.257359 188.850834 
L 275.523542 186.997896 
L 276.789892 186.280192 
L 278.050441 184.868734 
L 279.313442 184.554988 
L 280.576596 183.110399 
L 281.839367 182.184329 
L 283.101101 180.994409 
L 284.363931 179.417696 
L 285.623076 178.13956 
L 286.882872 180.53816 
L 288.139998 176.628709 
L 289.394371 175.257567 
L 291.896067 173.247357 
L 294.399002 171.905753 
L 295.650096 170.219268 
L 298.15243 168.191495 
L 299.401581 167.946406 
L 300.65048 166.625958 
L 301.899091 164.881594 
L 304.389668 163.819807 
L 305.638965 162.610727 
L 306.888526 162.635076 
L 308.132187 161.028425 
L 309.37004 160.298746 
L 310.620898 158.861342 
L 311.867232 158.455787 
L 313.112202 157.645476 
L 314.354078 157.346899 
L 315.595714 156.204879 
L 316.822623 154.528373 
L 318.053877 154.512806 
L 320.527388 151.925399 
L 321.761773 151.743777 
L 322.995494 150.921092 
L 324.229008 150.568228 
L 325.464595 149.245784 
L 326.700119 149.106075 
L 327.93703 147.48226 
L 329.172111 147.15574 
L 330.400946 146.054436 
L 331.631156 146.146245 
L 332.858799 145.555077 
L 334.087183 143.947627 
L 335.312237 142.647936 
L 336.537475 142.465916 
L 337.765687 142.146182 
L 338.987695 140.859664 
L 342.662451 139.113703 
L 343.886267 138.879391 
L 345.106581 138.097022 
L 346.329572 137.493879 
L 347.549982 136.434088 
L 348.772428 135.828151 
L 349.989618 135.031412 
L 351.215317 138.939665 
L 352.433426 133.922523 
L 353.651733 133.948868 
L 354.86933 133.01721 
L 356.084111 132.273161 
L 358.524069 131.503565 
L 360.950511 129.449047 
L 362.163224 129.635459 
L 363.375186 129.627874 
L 364.586095 128.301439 
L 365.801106 128.091477 
L 367.010894 127.30791 
L 368.217133 127.127486 
L 369.436137 126.07488 
L 370.649261 125.338016 
L 373.067644 124.474615 
L 374.274272 124.292994 
L 375.481141 123.146983 
L 377.89153 122.691532 
L 379.095991 122.509511 
L 380.302854 121.797396 
L 381.506536 121.348332 
L 382.70984 120.734411 
L 383.914712 120.77832 
L 385.118769 120.46617 
L 386.323818 119.090638 
L 387.527487 118.928176 
L 388.72237 117.986539 
L 389.927823 118.021666 
L 392.334956 117.27123 
L 393.536975 117.084419 
L 395.926644 115.835822 
L 397.127788 114.95885 
L 398.326582 115.249843 
L 400.720646 113.938576 
L 401.923325 113.598485 
L 404.31346 113.126269 
L 405.5083 112.548673 
L 406.715574 112.222154 
L 408.300786 111.920782 
L 409.492897 111.524009 
L 410.685079 111.478903 
L 411.880281 110.831852 
L 413.072248 110.682962 
L 414.267749 110.295769 
L 415.851417 109.362115 
L 417.434568 108.770947 
L 419.018482 109.132593 
L 420.601785 107.924312 
L 422.184551 107.679622 
L 423.768373 107.71435 
L 425.341732 106.856138 
L 426.924304 106.937569 
L 428.509037 106.367557 
L 430.090483 106.185137 
L 431.674048 105.503757 
L 433.256273 105.069462 
L 434.83817 104.98444 
L 436.411977 104.359742 
L 439.56594 103.696324 
L 441.139937 102.969439 
L 442.718796 103.238479 
L 444.290736 102.577856 
L 445.866556 101.782314 
L 447.440936 101.543212 
L 449.012943 101.513275 
L 450.582857 100.809142 
L 452.153704 100.93967 
L 453.725234 100.795171 
L 455.289519 100.261883 
L 456.860885 99.862715 
L 458.426959 100.011605 
L 459.991632 99.822399 
L 461.561365 98.678383 
L 463.126328 98.586575 
L 464.695381 98.009378 
L 466.257508 98.031332 
L 467.820464 98.237702 
L 470.948959 97.421403 
L 472.515058 97.237786 
L 474.07469 96.740822 
L 478.755024 96.160033 
L 480.315092 95.581638 
L 481.879099 95.805971 
L 483.437271 94.812042 
L 485.000025 95.135767 
L 486.563254 95.168898 
L 488.118229 94.805656 
L 489.671082 94.700674 
L 492.778977 94.164991 
L 494.336215 93.814521 
L 495.891867 93.897948 
L 500.537859 92.559936 
L 502.090052 92.315646 
L 503.641306 92.332411 
L 505.196233 92.597857 
L 506.749171 92.498864 
L 508.301348 91.946415 
L 509.845999 91.995513 
L 512.956203 91.455838 
L 514.506903 90.836728 
L 516.057789 91.221127 
L 517.612239 91.219929 
L 520.713939 90.526175 
L 523.81026 90.214425 
L 525.360187 89.853977 
L 530.008687 89.60769 
L 531.561743 89.320688 
L 533.104143 88.865237 
L 534.650497 89.107532 
L 536.191336 88.994967 
L 537.737263 89.288755 
L 539.282557 88.812547 
L 542.373967 88.931499 
L 543.918888 88.771034 
L 545.469638 88.047741 
L 547.015244 88.199824 
L 548.55503 87.892465 
L 550.095207 87.943958 
L 551.63942 87.853346 
L 553.180069 87.623426 
L 554.719972 87.739184 
L 556.266356 87.329239 
L 557.809337 87.28094 
L 560.889426 87.389912 
L 562.42607 86.976774 
L 563.964443 86.895742 
L 565.505665 86.685381 
L 568.582176 86.552059 
L 570.115728 86.673406 
L 571.660819 86.233124 
L 573.204074 86.456258 
L 574.745542 86.271843 
L 576.279137 86.422329 
L 577.815786 86.128142 
L 579.353557 85.4767 
L 580.889913 85.777673 
L 582.428091 85.863494 
L 583.965951 85.546954 
L 585.499791 85.636367 
L 587.034026 85.895827 
L 588.572847 85.197682 
L 590.10222 85.559328 
L 594.711241 85.276318 
L 596.246248 84.678364 
L 597.775095 84.869965 
L 599.313769 84.817674 
L 600.840505 84.525483 
L 602.370936 84.827254 
L 603.905205 84.617292 
L 605.443821 84.575778 
L 606.984054 84.734647 
L 608.51638 84.117932 
L 610.044058 83.961059 
L 613.108264 84.123122 
L 617.706424 83.978224 
L 620.774508 83.64412 
L 622.306122 83.886415 
L 625.36725 83.485251 
L 626.906815 83.604203 
L 628.447 83.388253 
L 629.975519 83.63933 
L 631.51171 83.368295 
L 633.041354 83.427372 
L 634.572531 87.613447 
L 636.101555 82.908054 
L 637.630899 83.175497 
L 639.162593 82.78032 
L 640.693571 83.242557 
L 642.224203 82.858557 
L 643.746649 83.060137 
L 645.270797 82.896079 
L 646.799386 82.485335 
L 648.32729 82.798682 
L 649.856498 82.52166 
L 654.450385 82.776329 
L 655.975535 82.61746 
L 657.498511 77.596326 
L 659.026256 82.193543 
L 662.085672 82.180371 
L 663.611577 81.799565 
L 665.13853 82.148437 
L 666.666357 81.975199 
L 668.192655 81.56645 
L 669.724247 82.237851 
L 671.254558 81.757253 
L 672.777303 81.7345 
L 674.300264 82.117302 
L 675.82302 81.760446 
L 677.356024 82.078583 
L 678.879739 80.977678 
L 681.923642 81.352496 
L 683.445576 81.199615 
L 684.962573 81.364871 
L 686.487628 81.206002 
L 689.541662 81.576031 
L 691.063857 81.334135 
L 692.585552 81.582417 
L 694.132196 81.448297 
L 695.687564 81.193228 
L 697.233781 81.369661 
L 698.764715 76.776434 
L 700.292858 81.042343 
L 701.819105 81.340122 
L 703.342579 81.012405 
L 706.390852 81.442708 
L 709.442229 81.185245 
L 710.971196 81.089844 
L 712.494545 81.234343 
L 715.540047 80.702252 
L 717.066097 81.025179 
L 718.59268 81.214783 
L 721.641034 80.879083 
L 723.171553 81.163291 
L 724.690729 80.744564 
L 726.212986 80.699857 
L 727.739419 80.828389 
L 729.261634 80.815615 
L 730.5962 83.14995 
L 730.5962 83.14995 
" clip-path="url(#pbeb56d4a81)" style="fill: none; stroke: #0000ff; stroke-width: 1.5; stroke-linecap: square"/>
   </g>
   <g id="line2d_21">
    <path d="M 115.475979 459.895087 
L 116.625258 456.938849 
L 118.074456 452.478545 
L 121.172077 444.19541 
L 122.705462 440.51069 
L 124.23929 435.698321 
L 125.773548 432.182449 
L 130.377331 419.768724 
L 131.910067 415.732337 
L 133.439404 412.370145 
L 144.175393 386.369938 
L 145.711307 383.155837 
L 147.244941 380.375632 
L 148.7754 376.805873 
L 150.305966 373.967389 
L 151.839812 370.839109 
L 153.370236 367.076951 
L 154.904677 365.203256 
L 156.439261 361.750852 
L 157.967688 358.819762 
L 161.030902 353.814993 
L 162.564164 350.225675 
L 164.093446 347.125736 
L 167.156222 343.000335 
L 168.683315 341.133426 
L 170.215937 338.386352 
L 171.744762 334.830563 
L 173.272563 333.032311 
L 174.802433 330.937877 
L 176.320836 328.233514 
L 177.840215 326.004959 
L 179.34525 323.570034 
L 180.841144 322.723399 
L 182.331128 320.946702 
L 183.816862 317.678713 
L 185.297717 316.605351 
L 186.761536 314.392762 
L 188.221537 313.29545 
L 189.674205 310.991851 
L 191.121363 308.954498 
L 193.999452 306.024205 
L 195.433062 304.532914 
L 196.858424 303.288707 
L 198.285332 301.209042 
L 199.703203 300.431063 
L 202.52884 296.541171 
L 203.927589 295.480183 
L 205.329047 294.710187 
L 206.732784 293.083977 
L 208.130696 291.872901 
L 209.52198 290.289003 
L 212.285362 288.072024 
L 213.666594 286.415876 
L 216.407791 283.792144 
L 217.783972 283.604535 
L 219.151242 282.88763 
L 221.888692 280.881411 
L 223.254541 279.224465 
L 224.615685 278.202994 
L 225.971782 277.654537 
L 228.684822 275.31661 
L 230.038239 274.895488 
L 231.389035 273.572645 
L 232.740676 272.631008 
L 235.435633 270.600839 
L 236.779551 270.081522 
L 238.120641 269.091186 
L 239.456277 268.760675 
L 240.793696 266.672228 
L 242.132294 266.337326 
L 243.470718 266.407979 
L 244.801073 265.541784 
L 246.13512 264.244089 
L 247.469378 263.349154 
L 248.801104 263.554327 
L 251.456993 261.291044 
L 252.783311 261.149739 
L 254.110715 260.15621 
L 255.428378 259.961016 
L 256.750062 258.887254 
L 258.064328 257.606324 
L 259.384179 257.486175 
L 260.701467 256.877444 
L 262.017069 255.85717 
L 263.327273 255.776139 
L 264.639605 255.885112 
L 265.949945 254.185455 
L 267.255645 254.179866 
L 268.563181 253.157996 
L 269.874588 253.227851 
L 272.477903 251.898621 
L 273.782843 251.496659 
L 275.077777 251.787652 
L 276.377777 250.327496 
L 277.669025 249.957866 
L 278.961134 249.979821 
L 280.248604 248.909651 
L 281.538586 248.760362 
L 284.115597 247.863831 
L 285.404211 246.841961 
L 286.694778 247.225561 
L 287.98156 246.373338 
L 289.258379 246.733387 
L 290.536952 246.217662 
L 291.822804 245.475609 
L 293.103122 245.886353 
L 294.378485 244.979443 
L 295.652052 244.608616 
L 298.19968 243.509706 
L 299.470225 243.94919 
L 300.730543 243.483361 
L 301.992052 242.058332 
L 304.506637 242.92253 
L 305.763145 242.192053 
L 307.009315 242.069907 
L 308.258391 241.763746 
L 309.501342 241.755363 
L 311.974365 240.816121 
L 313.19754 241.377351 
L 314.41919 241.058815 
L 315.636843 241.066399 
L 316.846933 240.286425 
L 318.05018 240.905135 
L 319.535755 240.120371 
L 321.015051 240.45647 
L 322.473072 239.860113 
L 323.914533 239.959905 
L 325.350889 239.574708 
L 326.755345 240.600969 
L 328.142035 240.223356 
L 329.493165 239.599856 
L 330.812895 240.237726 
L 332.101017 240.612944 
L 333.344552 240.569036 
L 334.545332 240.976586 
L 334.545332 240.976586 
" clip-path="url(#pbeb56d4a81)" style="fill: none; stroke: #9467bd; stroke-width: 1.5; stroke-linecap: square"/>
   </g>
   <g id="patch_3">
    <path d="M 115.2 461.376 
L 115.2 62.208 
" style="fill: none; stroke: #000000; stroke-width: 0.8; stroke-linejoin: miter; stroke-linecap: square"/>
   </g>
   <g id="patch_4">
    <path d="M 829.44 461.376 
L 829.44 62.208 
" style="fill: none; stroke: #000000; stroke-width: 0.8; stroke-linejoin: miter; stroke-linecap: square"/>
   </g>
   <g id="patch_5">
    <path d="M 115.2 461.376 
L 829.44 461.376 
" style="fill: none; stroke: #000000; stroke-width: 0.8; stroke-linejoin: miter; stroke-linecap: square"/>
   </g>
   <g id="patch_6">
    <path d="M 115.2 62.208 
L 829.44 62.208 
" style="fill: none; stroke: #000000; stroke-width: 0.8; stroke-linejoin: miter; stroke-linecap: square"/>
   </g>
   <g id="legend_1">
    <g id="patch_7">
     <path d="M 128.5 158.000656 
L 263.18625 158.000656 
Q 266.98625 158.000656 266.98625 154.200656 
L 266.98625 75.508 
Q 266.98625 71.708 263.18625 71.708 
L 128.5 71.708 
Q 124.7 71.708 124.7 75.508 
L 124.7 154.200656 
Q 124.7 158.000656 128.5 158.000656 
z
" style="fill: #ffffff; opacity: 0.8; stroke: #cccccc; stroke-linejoin: miter"/>
    </g>
    <g id="line2d_22">
     <path d="M 132.3 85.958 
L 151.3 85.958 
L 170.3 85.958 
" style="fill: none; stroke: #ff0000; stroke-width: 1.5; stroke-linecap: square"/>
    </g>
    <g id="text_21">
     <!-- MICA-t -->
     <g transform="translate(185.5 92.608) scale(0.19 -0.19)">
      <defs>
       <path id="TimesNewRomanPSMT-4d" d="M 2619 0 
L 981 3566 
L 981 734 
Q 981 344 1066 247 
Q 1181 116 1431 116 
L 1581 116 
L 1581 0 
L 106 0 
L 106 116 
L 256 116 
Q 525 116 638 278 
Q 706 378 706 734 
L 706 3503 
Q 706 3784 644 3909 
Q 600 4000 483 4061 
Q 366 4122 106 4122 
L 106 4238 
L 1306 4238 
L 2844 922 
L 4356 4238 
L 5556 4238 
L 5556 4122 
L 5409 4122 
Q 5138 4122 5025 3959 
Q 4956 3859 4956 3503 
L 4956 734 
Q 4956 344 5044 247 
Q 5159 116 5409 116 
L 5556 116 
L 5556 0 
L 3756 0 
L 3756 116 
L 3906 116 
Q 4178 116 4288 278 
Q 4356 378 4356 734 
L 4356 3566 
L 2722 0 
L 2619 0 
z
" transform="scale(0.015625)"/>
       <path id="TimesNewRomanPSMT-49" d="M 1975 116 
L 1975 0 
L 159 0 
L 159 116 
L 309 116 
Q 572 116 691 269 
Q 766 369 766 750 
L 766 3488 
Q 766 3809 725 3913 
Q 694 3991 597 4047 
Q 459 4122 309 4122 
L 159 4122 
L 159 4238 
L 1975 4238 
L 1975 4122 
L 1822 4122 
Q 1563 4122 1444 3969 
Q 1366 3869 1366 3488 
L 1366 750 
Q 1366 428 1406 325 
Q 1438 247 1538 191 
Q 1672 116 1822 116 
L 1975 116 
z
" transform="scale(0.015625)"/>
       <path id="TimesNewRomanPSMT-43" d="M 3853 4334 
L 3950 2894 
L 3853 2894 
Q 3659 3541 3300 3825 
Q 2941 4109 2438 4109 
Q 2016 4109 1675 3895 
Q 1334 3681 1139 3212 
Q 944 2744 944 2047 
Q 944 1472 1128 1050 
Q 1313 628 1683 403 
Q 2053 178 2528 178 
Q 2941 178 3256 354 
Q 3572 531 3950 1056 
L 4047 994 
Q 3728 428 3303 165 
Q 2878 -97 2294 -97 
Q 1241 -97 663 684 
Q 231 1266 231 2053 
Q 231 2688 515 3219 
Q 800 3750 1298 4042 
Q 1797 4334 2388 4334 
Q 2847 4334 3294 4109 
Q 3425 4041 3481 4041 
Q 3566 4041 3628 4100 
Q 3709 4184 3744 4334 
L 3853 4334 
z
" transform="scale(0.015625)"/>
       <path id="TimesNewRomanPSMT-41" d="M 2928 1419 
L 1288 1419 
L 1000 750 
Q 894 503 894 381 
Q 894 284 986 211 
Q 1078 138 1384 116 
L 1384 0 
L 50 0 
L 50 116 
Q 316 163 394 238 
Q 553 388 747 847 
L 2238 4334 
L 2347 4334 
L 3822 809 
Q 4000 384 4145 257 
Q 4291 131 4550 116 
L 4550 0 
L 2878 0 
L 2878 116 
Q 3131 128 3220 200 
Q 3309 272 3309 375 
Q 3309 513 3184 809 
L 2928 1419 
z
M 2841 1650 
L 2122 3363 
L 1384 1650 
L 2841 1650 
z
" transform="scale(0.015625)"/>
       <path id="TimesNewRomanPSMT-2d" d="M 259 1672 
L 1875 1672 
L 1875 1200 
L 259 1200 
L 259 1672 
z
" transform="scale(0.015625)"/>
       <path id="TimesNewRomanPSMT-74" d="M 1031 3803 
L 1031 2863 
L 1700 2863 
L 1700 2644 
L 1031 2644 
L 1031 788 
Q 1031 509 1111 412 
Q 1191 316 1316 316 
Q 1419 316 1516 380 
Q 1613 444 1666 569 
L 1788 569 
Q 1678 263 1478 108 
Q 1278 -47 1066 -47 
Q 922 -47 784 33 
Q 647 113 581 261 
Q 516 409 516 719 
L 516 2644 
L 63 2644 
L 63 2747 
Q 234 2816 414 2980 
Q 594 3144 734 3369 
Q 806 3488 934 3803 
L 1031 3803 
z
" transform="scale(0.015625)"/>
      </defs>
      <use xlink:href="#TimesNewRomanPSMT-4d"/>
      <use xlink:href="#TimesNewRomanPSMT-49" x="88.916016"/>
      <use xlink:href="#TimesNewRomanPSMT-43" x="122.216797"/>
      <use xlink:href="#TimesNewRomanPSMT-41" x="188.916016"/>
      <use xlink:href="#TimesNewRomanPSMT-2d" x="261.132812"/>
      <use xlink:href="#TimesNewRomanPSMT-74" x="294.433594"/>
     </g>
    </g>
    <g id="line2d_23">
     <path d="M 132.3 112.822219 
L 151.3 112.822219 
L 170.3 112.822219 
" style="fill: none; stroke: #0000ff; stroke-width: 1.5; stroke-linecap: square"/>
    </g>
    <g id="text_22">
     <!-- caleKV -->
     <g transform="translate(185.5 119.472219) scale(0.19 -0.19)">
      <defs>
       <path id="TimesNewRomanPSMT-63" d="M 2631 1088 
Q 2516 522 2178 217 
Q 1841 -88 1431 -88 
Q 944 -88 581 321 
Q 219 731 219 1428 
Q 219 2103 620 2525 
Q 1022 2947 1584 2947 
Q 2006 2947 2278 2723 
Q 2550 2500 2550 2259 
Q 2550 2141 2473 2067 
Q 2397 1994 2259 1994 
Q 2075 1994 1981 2113 
Q 1928 2178 1911 2362 
Q 1894 2547 1784 2644 
Q 1675 2738 1481 2738 
Q 1169 2738 978 2506 
Q 725 2200 725 1697 
Q 725 1184 976 792 
Q 1228 400 1656 400 
Q 1963 400 2206 609 
Q 2378 753 2541 1131 
L 2631 1088 
z
" transform="scale(0.015625)"/>
       <path id="TimesNewRomanPSMT-61" d="M 1822 413 
Q 1381 72 1269 19 
Q 1100 -59 909 -59 
Q 613 -59 420 144 
Q 228 347 228 678 
Q 228 888 322 1041 
Q 450 1253 767 1440 
Q 1084 1628 1822 1897 
L 1822 2009 
Q 1822 2438 1686 2597 
Q 1550 2756 1291 2756 
Q 1094 2756 978 2650 
Q 859 2544 859 2406 
L 866 2225 
Q 866 2081 792 2003 
Q 719 1925 600 1925 
Q 484 1925 411 2006 
Q 338 2088 338 2228 
Q 338 2497 613 2722 
Q 888 2947 1384 2947 
Q 1766 2947 2009 2819 
Q 2194 2722 2281 2516 
Q 2338 2381 2338 1966 
L 2338 994 
Q 2338 584 2353 492 
Q 2369 400 2405 369 
Q 2441 338 2488 338 
Q 2538 338 2575 359 
Q 2641 400 2828 588 
L 2828 413 
Q 2478 -56 2159 -56 
Q 2006 -56 1915 50 
Q 1825 156 1822 413 
z
M 1822 616 
L 1822 1706 
Q 1350 1519 1213 1441 
Q 966 1303 859 1153 
Q 753 1003 753 825 
Q 753 600 887 451 
Q 1022 303 1197 303 
Q 1434 303 1822 616 
z
" transform="scale(0.015625)"/>
       <path id="TimesNewRomanPSMT-6c" d="M 1184 4444 
L 1184 647 
Q 1184 378 1223 290 
Q 1263 203 1344 158 
Q 1425 113 1647 113 
L 1647 0 
L 244 0 
L 244 113 
Q 441 113 512 153 
Q 584 194 625 287 
Q 666 381 666 647 
L 666 3247 
Q 666 3731 644 3842 
Q 622 3953 573 3993 
Q 525 4034 450 4034 
Q 369 4034 244 3984 
L 191 4094 
L 1044 4444 
L 1184 4444 
z
" transform="scale(0.015625)"/>
       <path id="TimesNewRomanPSMT-65" d="M 681 1784 
Q 678 1147 991 784 
Q 1303 422 1725 422 
Q 2006 422 2214 576 
Q 2422 731 2563 1106 
L 2659 1044 
Q 2594 616 2278 264 
Q 1963 -88 1488 -88 
Q 972 -88 605 314 
Q 238 716 238 1394 
Q 238 2128 614 2539 
Q 991 2950 1559 2950 
Q 2041 2950 2350 2633 
Q 2659 2316 2659 1784 
L 681 1784 
z
M 681 1966 
L 2006 1966 
Q 1991 2241 1941 2353 
Q 1863 2528 1708 2628 
Q 1553 2728 1384 2728 
Q 1125 2728 920 2526 
Q 716 2325 681 1966 
z
" transform="scale(0.015625)"/>
       <path id="TimesNewRomanPSMT-4b" d="M 1913 2350 
L 3475 797 
Q 3859 413 4131 273 
Q 4403 134 4675 116 
L 4675 0 
L 2659 0 
L 2659 116 
Q 2841 116 2920 177 
Q 3000 238 3000 313 
Q 3000 388 2970 447 
Q 2941 506 2775 669 
L 1313 2116 
L 1313 750 
Q 1313 428 1353 325 
Q 1384 247 1484 191 
Q 1619 116 1769 116 
L 1913 116 
L 1913 0 
L 106 0 
L 106 116 
L 256 116 
Q 519 116 638 269 
Q 713 369 713 750 
L 713 3488 
Q 713 3809 672 3916 
Q 641 3991 544 4047 
Q 406 4122 256 4122 
L 106 4122 
L 106 4238 
L 1913 4238 
L 1913 4122 
L 1769 4122 
Q 1622 4122 1484 4050 
Q 1388 4000 1350 3900 
Q 1313 3800 1313 3488 
L 1313 2191 
Q 1375 2250 1741 2588 
Q 2669 3438 2863 3722 
Q 2947 3847 2947 3941 
Q 2947 4013 2881 4067 
Q 2816 4122 2659 4122 
L 2563 4122 
L 2563 4238 
L 4119 4238 
L 4119 4122 
Q 3981 4119 3868 4084 
Q 3756 4050 3593 3951 
Q 3431 3853 3194 3634 
Q 3125 3572 2559 2994 
L 1913 2350 
z
" transform="scale(0.015625)"/>
       <path id="TimesNewRomanPSMT-56" d="M 4544 4238 
L 4544 4122 
Q 4319 4081 4203 3978 
Q 4038 3825 3909 3509 
L 2431 -97 
L 2316 -97 
L 728 3556 
Q 606 3838 556 3900 
Q 478 3997 364 4051 
Q 250 4106 56 4122 
L 56 4238 
L 1788 4238 
L 1788 4122 
Q 1494 4094 1406 4022 
Q 1319 3950 1319 3838 
Q 1319 3681 1463 3350 
L 2541 866 
L 3541 3319 
Q 3688 3681 3688 3822 
Q 3688 3913 3597 3995 
Q 3506 4078 3291 4113 
Q 3275 4116 3238 4122 
L 3238 4238 
L 4544 4238 
z
" transform="scale(0.015625)"/>
      </defs>
      <use xlink:href="#TimesNewRomanPSMT-63"/>
      <use xlink:href="#TimesNewRomanPSMT-61" x="44.384766"/>
      <use xlink:href="#TimesNewRomanPSMT-6c" x="88.769531"/>
      <use xlink:href="#TimesNewRomanPSMT-65" x="116.552734"/>
      <use xlink:href="#TimesNewRomanPSMT-4b" x="160.9375"/>
      <use xlink:href="#TimesNewRomanPSMT-56" x="233.154297"/>
     </g>
    </g>
    <g id="line2d_24">
     <path d="M 132.3 139.686437 
L 151.3 139.686437 
L 170.3 139.686437 
" style="fill: none; stroke: #9467bd; stroke-width: 1.5; stroke-linecap: square"/>
    </g>
    <g id="text_23">
     <!-- MemC3-t -->
     <g transform="translate(185.5 146.336437) scale(0.19 -0.19)">
      <defs>
       <path id="TimesNewRomanPSMT-6d" d="M 1050 2338 
Q 1363 2650 1419 2697 
Q 1559 2816 1721 2881 
Q 1884 2947 2044 2947 
Q 2313 2947 2506 2790 
Q 2700 2634 2766 2338 
Q 3088 2713 3309 2830 
Q 3531 2947 3766 2947 
Q 3994 2947 4170 2830 
Q 4347 2713 4450 2447 
Q 4519 2266 4519 1878 
L 4519 647 
Q 4519 378 4559 278 
Q 4591 209 4675 161 
Q 4759 113 4950 113 
L 4950 0 
L 3538 0 
L 3538 113 
L 3597 113 
Q 3781 113 3884 184 
Q 3956 234 3988 344 
Q 4000 397 4000 647 
L 4000 1878 
Q 4000 2228 3916 2372 
Q 3794 2572 3525 2572 
Q 3359 2572 3192 2489 
Q 3025 2406 2788 2181 
L 2781 2147 
L 2788 2013 
L 2788 647 
Q 2788 353 2820 281 
Q 2853 209 2943 161 
Q 3034 113 3253 113 
L 3253 0 
L 1806 0 
L 1806 113 
Q 2044 113 2133 169 
Q 2222 225 2256 338 
Q 2272 391 2272 647 
L 2272 1878 
Q 2272 2228 2169 2381 
Q 2031 2581 1784 2581 
Q 1616 2581 1450 2491 
Q 1191 2353 1050 2181 
L 1050 647 
Q 1050 366 1089 281 
Q 1128 197 1204 155 
Q 1281 113 1516 113 
L 1516 0 
L 100 0 
L 100 113 
Q 297 113 375 155 
Q 453 197 493 289 
Q 534 381 534 647 
L 534 1741 
Q 534 2213 506 2350 
Q 484 2453 437 2492 
Q 391 2531 309 2531 
Q 222 2531 100 2484 
L 53 2597 
L 916 2947 
L 1050 2947 
L 1050 2338 
z
" transform="scale(0.015625)"/>
       <path id="TimesNewRomanPSMT-33" d="M 325 3431 
Q 506 3859 782 4092 
Q 1059 4325 1472 4325 
Q 1981 4325 2253 3994 
Q 2459 3747 2459 3466 
Q 2459 3003 1878 2509 
Q 2269 2356 2469 2072 
Q 2669 1788 2669 1403 
Q 2669 853 2319 450 
Q 1863 -75 997 -75 
Q 569 -75 414 31 
Q 259 138 259 259 
Q 259 350 332 419 
Q 406 488 509 488 
Q 588 488 669 463 
Q 722 447 909 348 
Q 1097 250 1169 231 
Q 1284 197 1416 197 
Q 1734 197 1970 444 
Q 2206 691 2206 1028 
Q 2206 1275 2097 1509 
Q 2016 1684 1919 1775 
Q 1784 1900 1550 2001 
Q 1316 2103 1072 2103 
L 972 2103 
L 972 2197 
Q 1219 2228 1467 2375 
Q 1716 2522 1828 2728 
Q 1941 2934 1941 3181 
Q 1941 3503 1739 3701 
Q 1538 3900 1238 3900 
Q 753 3900 428 3381 
L 325 3431 
z
" transform="scale(0.015625)"/>
      </defs>
      <use xlink:href="#TimesNewRomanPSMT-4d"/>
      <use xlink:href="#TimesNewRomanPSMT-65" x="88.916016"/>
      <use xlink:href="#TimesNewRomanPSMT-6d" x="133.300781"/>
      <use xlink:href="#TimesNewRomanPSMT-43" x="211.083984"/>
      <use xlink:href="#TimesNewRomanPSMT-33" x="277.783203"/>
      <use xlink:href="#TimesNewRomanPSMT-2d" x="327.783203"/>
      <use xlink:href="#TimesNewRomanPSMT-74" x="361.083984"/>
     </g>
    </g>
   </g>
  </g>
 </g>
 <defs>
  <clipPath id="pbeb56d4a81">
   <rect x="115.2" y="62.208" width="714.24" height="399.168"/>
  </clipPath>
 </defs>
</svg>
