<?xml version="1.0" encoding="utf-8" standalone="no"?>
<!DOCTYPE svg PUBLIC "-//W3C//DTD SVG 1.1//EN"
  "http://www.w3.org/Graphics/SVG/1.1/DTD/svg11.dtd">
<svg xmlns:xlink="http://www.w3.org/1999/xlink" width="1080pt" height="720pt" viewBox="0 0 1080 720" xmlns="http://www.w3.org/2000/svg" version="1.1">
 <metadata>
  <rdf:RDF xmlns:dc="http://purl.org/dc/elements/1.1/" xmlns:cc="http://creativecommons.org/ns#" xmlns:rdf="http://www.w3.org/1999/02/22-rdf-syntax-ns#">
   <cc:Work>
    <dc:type rdf:resource="http://purl.org/dc/dcmitype/StillImage"/>
    <dc:date>2023-09-03T19:24:42.131690</dc:date>
    <dc:format>image/svg+xml</dc:format>
    <dc:creator>
     <cc:Agent>
      <dc:title>Matplotlib v3.7.1, https://matplotlib.org/</dc:title>
     </cc:Agent>
    </dc:creator>
   </cc:Work>
  </rdf:RDF>
 </metadata>
 <defs>
  <style type="text/css">*{stroke-linejoin: round; stroke-linecap: butt}</style>
 </defs>
 <g id="figure_1">
  <g id="patch_1">
   <path d="M 0 720 
L 1080 720 
L 1080 0 
L 0 0 
z
" style="fill: #ffffff"/>
  </g>
  <g id="axes_1">
   <g id="patch_2">
    <path d="M 113.4 579.6 
L 1047.6 579.6 
L 1047.6 14.4 
L 113.4 14.4 
z
" style="fill: #ffffff"/>
   </g>
   <g id="matplotlib.axis_1">
    <g id="xtick_1">
     <g id="line2d_1">
      <defs>
       <path id="mbf975101f6" d="M 0 0 
L 0 3.5 
" style="stroke: #000000; stroke-width: 0.8"/>
      </defs>
      <g>
       <use xlink:href="#mbf975101f6" x="113.4" y="579.6" style="stroke: #000000; stroke-width: 0.8"/>
      </g>
     </g>
     <g id="text_1">
      <!-- 0 -->
      <g transform="translate(103.4 615.19375) scale(0.4 -0.4)">
       <defs>
        <path id="SimSun-30" d="M 1600 4225 
Q 1250 4225 1012 3687 
Q 775 3150 775 2250 
Q 775 1300 1012 775 
Q 1250 250 1600 250 
Q 1975 250 2187 775 
Q 2400 1300 2400 2250 
Q 2400 3150 2200 3687 
Q 2000 4225 1600 4225 
z
M 1600 50 
Q 1050 50 675 625 
Q 300 1200 300 2250 
Q 300 3225 662 3825 
Q 1025 4425 1600 4425 
Q 2150 4425 2512 3850 
Q 2875 3275 2875 2250 
Q 2875 1225 2512 637 
Q 2150 50 1600 50 
z
" transform="scale(0.015625)"/>
       </defs>
       <use xlink:href="#SimSun-30"/>
      </g>
     </g>
    </g>
    <g id="xtick_2">
     <g id="line2d_2">
      <g>
       <use xlink:href="#mbf975101f6" x="300.24" y="579.6" style="stroke: #000000; stroke-width: 0.8"/>
      </g>
     </g>
     <g id="text_2">
      <!-- 20 -->
      <g transform="translate(280.24 615.19375) scale(0.4 -0.4)">
       <defs>
        <path id="SimSun-32" d="M 2325 3325 
Q 2325 3775 2125 4012 
Q 1925 4250 1525 4250 
Q 1225 4250 1012 4087 
Q 800 3925 800 3675 
Q 800 3525 900 3425 
Q 975 3325 975 3225 
Q 975 3100 912 3037 
Q 850 2975 725 2975 
Q 575 2975 487 3062 
Q 400 3150 400 3350 
Q 400 3875 775 4150 
Q 1150 4425 1575 4425 
Q 2175 4425 2462 4125 
Q 2750 3825 2750 3375 
Q 2750 3075 2612 2775 
Q 2475 2475 2175 2200 
Q 1450 1500 1062 1062 
Q 675 625 600 475 
L 2075 475 
Q 2300 475 2450 650 
Q 2600 825 2650 1175 
L 2800 1175 
L 2650 100 
L 325 100 
L 325 425 
Q 450 650 737 1000 
Q 1025 1350 1500 1825 
Q 1925 2250 2125 2625 
Q 2325 3000 2325 3325 
z
" transform="scale(0.015625)"/>
       </defs>
       <use xlink:href="#SimSun-32"/>
       <use xlink:href="#SimSun-30" x="50"/>
      </g>
     </g>
    </g>
    <g id="xtick_3">
     <g id="line2d_3">
      <g>
       <use xlink:href="#mbf975101f6" x="487.08" y="579.6" style="stroke: #000000; stroke-width: 0.8"/>
      </g>
     </g>
     <g id="text_3">
      <!-- 40 -->
      <g transform="translate(467.08 615.19375) scale(0.4 -0.4)">
       <defs>
        <path id="SimSun-34" d="M 2300 575 
Q 2300 400 2400 325 
Q 2500 250 2675 250 
L 2900 250 
L 2900 100 
L 1250 100 
L 1250 250 
L 1525 250 
Q 1725 250 1812 325 
Q 1900 400 1900 575 
L 1900 1400 
L 225 1400 
L 225 1525 
L 2050 4425 
L 2300 4425 
L 2300 1550 
L 2975 1550 
L 2975 1400 
L 2300 1400 
L 2300 575 
z
M 1875 3800 
L 450 1550 
L 1900 1550 
L 1900 3800 
L 1875 3800 
z
" transform="scale(0.015625)"/>
       </defs>
       <use xlink:href="#SimSun-34"/>
       <use xlink:href="#SimSun-30" x="50"/>
      </g>
     </g>
    </g>
    <g id="xtick_4">
     <g id="line2d_4">
      <g>
       <use xlink:href="#mbf975101f6" x="673.92" y="579.6" style="stroke: #000000; stroke-width: 0.8"/>
      </g>
     </g>
     <g id="text_4">
      <!-- 60 -->
      <g transform="translate(653.92 615.19375) scale(0.4 -0.4)">
       <defs>
        <path id="SimSun-36" d="M 775 1800 
Q 775 1050 1037 637 
Q 1300 225 1675 225 
Q 2050 225 2250 500 
Q 2450 775 2450 1525 
Q 2450 2025 2237 2300 
Q 2025 2575 1725 2575 
Q 1450 2575 1212 2412 
Q 975 2250 775 1800 
z
M 1750 2825 
Q 2350 2825 2612 2425 
Q 2875 2025 2875 1525 
Q 2875 775 2512 412 
Q 2150 50 1675 50 
Q 1000 50 650 562 
Q 300 1075 300 2050 
Q 300 3200 725 3812 
Q 1150 4425 1875 4425 
Q 2225 4425 2437 4225 
Q 2650 4025 2650 3875 
Q 2650 3725 2587 3650 
Q 2525 3575 2375 3575 
Q 2250 3575 2187 3637 
Q 2125 3700 2125 3825 
Q 2125 3875 2150 3925 
Q 2150 3975 2150 4025 
Q 2150 4125 2075 4187 
Q 2000 4250 1800 4250 
Q 1375 4250 1075 3862 
Q 775 3475 775 2175 
Q 925 2500 1187 2662 
Q 1450 2825 1750 2825 
z
" transform="scale(0.015625)"/>
       </defs>
       <use xlink:href="#SimSun-36"/>
       <use xlink:href="#SimSun-30" x="50"/>
      </g>
     </g>
    </g>
    <g id="xtick_5">
     <g id="line2d_5">
      <g>
       <use xlink:href="#mbf975101f6" x="860.76" y="579.6" style="stroke: #000000; stroke-width: 0.8"/>
      </g>
     </g>
     <g id="text_5">
      <!-- 80 -->
      <g transform="translate(840.76 615.19375) scale(0.4 -0.4)">
       <defs>
        <path id="SimSun-38" d="M 625 1125 
Q 625 725 887 475 
Q 1150 225 1550 225 
Q 2025 225 2237 475 
Q 2450 725 2450 1100 
Q 2450 1425 2150 1725 
Q 1850 2025 1250 2275 
Q 950 2075 787 1775 
Q 625 1475 625 1125 
z
M 2825 1175 
Q 2825 700 2475 375 
Q 2125 50 1550 50 
Q 1025 50 650 375 
Q 275 700 275 1125 
Q 275 1550 487 1850 
Q 700 2150 1100 2375 
Q 750 2550 562 2812 
Q 375 3075 375 3400 
Q 375 3825 700 4125 
Q 1025 4425 1600 4425 
Q 2125 4425 2450 4125 
Q 2775 3825 2775 3400 
Q 2775 3100 2587 2837 
Q 2400 2575 2000 2375 
Q 2425 2125 2625 1825 
Q 2825 1525 2825 1175 
z
M 2425 3375 
Q 2425 3725 2225 3987 
Q 2025 4250 1600 4250 
Q 1125 4250 925 4000 
Q 725 3750 725 3475 
Q 725 3200 1012 2937 
Q 1300 2675 1825 2475 
Q 2125 2625 2275 2850 
Q 2425 3075 2425 3375 
z
" transform="scale(0.015625)"/>
       </defs>
       <use xlink:href="#SimSun-38"/>
       <use xlink:href="#SimSun-30" x="50"/>
      </g>
     </g>
    </g>
    <g id="xtick_6">
     <g id="line2d_6">
      <g>
       <use xlink:href="#mbf975101f6" x="1047.6" y="579.6" style="stroke: #000000; stroke-width: 0.8"/>
      </g>
     </g>
     <g id="text_6">
      <!-- 100 -->
      <g transform="translate(1017.6 615.19375) scale(0.4 -0.4)">
       <defs>
        <path id="SimSun-31" d="M 1825 4450 
L 1825 650 
Q 1825 450 1950 350 
Q 2075 250 2300 250 
L 2550 250 
L 2550 100 
L 725 100 
L 725 250 
L 950 250 
Q 1200 250 1312 350 
Q 1425 450 1425 650 
L 1425 3675 
Q 1425 3775 1362 3837 
Q 1300 3900 1175 3900 
L 725 3900 
L 725 4050 
L 950 4050 
Q 1250 4050 1437 4150 
Q 1625 4250 1725 4450 
L 1825 4450 
z
" transform="scale(0.015625)"/>
       </defs>
       <use xlink:href="#SimSun-31"/>
       <use xlink:href="#SimSun-30" x="50"/>
       <use xlink:href="#SimSun-30" x="100"/>
      </g>
     </g>
    </g>
    <g id="text_7">
     <!-- 写入请求延迟 $\mathrm{( \mu s )}$ -->
     <g transform="translate(378.25 665.85) scale(0.5 -0.5)">
      <defs>
       <path id="SimSun-5199" d="M 4875 3850 
L 5200 4575 
L 1300 4575 
Q 1350 4100 1237 3975 
Q 1125 3850 1012 3825 
Q 900 3800 825 3800 
Q 750 3800 700 3825 
Q 650 3850 650 3875 
Q 650 3975 800 4150 
Q 1000 4425 1125 5025 
L 1250 5025 
L 1275 4725 
L 5175 4725 
L 5425 5050 
L 5925 4575 
Q 5500 4550 4950 3800 
L 4875 3850 
z
M 2150 3150 
Q 2100 2875 1975 2225 
L 5050 2225 
L 5250 2500 
L 5650 2150 
L 5425 2000 
Q 5250 50 5000 -225 
Q 4750 -500 4350 -575 
Q 4350 -175 3525 0 
L 3525 125 
Q 3950 75 4275 50 
Q 4575 0 4687 87 
Q 4800 175 4900 637 
Q 5000 1100 5075 2075 
L 2000 2075 
L 1800 1875 
L 1450 2200 
L 1625 2350 
Q 1850 3575 1900 4200 
L 2450 3950 
L 2250 3800 
Q 2200 3525 2175 3300 
L 4625 3300 
L 4950 3625 
L 5425 3150 
L 2150 3150 
z
M 425 1050 
L 3750 1050 
L 4100 1400 
L 4600 900 
L 1200 900 
Q 925 900 650 825 
L 425 1050 
z
" transform="scale(0.015625)"/>
       <path id="SimSun-5165" d="M 1825 4775 
L 2050 5000 
Q 2975 4675 3175 4287 
Q 3375 3900 3650 3075 
Q 3900 2250 4562 1375 
Q 5225 500 6125 225 
L 6125 125 
Q 5700 125 5475 -200 
Q 4850 275 4425 837 
Q 4000 1400 3737 1975 
Q 3475 2550 3250 3400 
Q 2900 2250 2250 1337 
Q 1600 425 275 -425 
L 225 -325 
Q 1350 550 2012 1562 
Q 2675 2575 2950 3850 
Q 3025 4150 2712 4375 
Q 2400 4600 1825 4775 
z
" transform="scale(0.015625)"/>
       <path id="SimSun-8bf7" d="M 3800 4400 
Q 3800 4925 3775 5250 
L 4350 5000 
L 4150 4825 
L 4150 4400 
L 5175 4400 
L 5525 4725 
L 5950 4250 
L 4150 4250 
L 4150 3725 
L 4875 3725 
L 5200 4025 
L 5600 3575 
L 4150 3575 
L 4150 2950 
L 5325 2950 
L 5675 3275 
L 6100 2800 
L 2650 2800 
Q 2450 2800 2175 2725 
L 1950 2950 
L 3800 2950 
L 3800 3575 
L 3225 3575 
Q 3025 3575 2750 3500 
L 2525 3725 
L 3800 3725 
L 3800 4250 
L 2850 4250 
Q 2650 4250 2375 4175 
L 2150 4400 
L 3800 4400 
z
M 3075 2150 
L 3075 1650 
L 4975 1650 
L 4975 2150 
L 3075 2150 
z
M 3075 1500 
L 3075 925 
L 4975 925 
L 4975 1500 
L 3075 1500 
z
M 2725 2500 
L 3050 2300 
L 4925 2300 
L 5075 2525 
L 5475 2225 
L 5300 2075 
L 5300 50 
Q 5325 -425 4750 -600 
Q 4750 -275 4075 -125 
L 4075 -25 
Q 4500 -50 4750 -62 
Q 5000 -75 4975 175 
L 4975 775 
L 3075 775 
L 3075 -450 
L 2725 -625 
Q 2750 125 2750 1000 
Q 2750 1875 2725 2500 
z
M 850 5000 
L 925 5050 
Q 1375 4750 1512 4562 
Q 1650 4375 1600 4200 
Q 1550 4025 1450 3950 
L 1325 3875 
Q 1225 3875 1200 4150 
Q 1150 4500 850 5000 
z
M 200 3075 
L 1100 3075 
L 1300 3325 
L 1725 3000 
L 1500 2825 
L 1500 600 
L 2400 1425 
L 2475 1350 
Q 1775 525 1400 -150 
L 1050 250 
Q 1150 400 1150 600 
L 1150 2925 
L 900 2925 
Q 700 2925 425 2850 
L 200 3075 
z
" transform="scale(0.015625)"/>
       <path id="SimSun-6c42" d="M 3950 5025 
Q 4500 4825 4737 4687 
Q 4975 4550 4975 4350 
Q 4975 4300 4912 4125 
Q 4850 3950 4800 3950 
Q 4725 3950 4625 4150 
Q 4425 4475 3900 4950 
L 3950 5025 
z
M 2900 5225 
L 3500 4900 
L 3300 4700 
L 3300 3775 
L 5050 3775 
L 5400 4150 
L 5900 3625 
L 3325 3625 
Q 3650 2575 4000 2000 
Q 4725 2575 5100 3125 
L 5525 2650 
Q 5250 2600 4950 2425 
Q 4650 2225 4050 1875 
Q 4900 650 6100 375 
L 6100 275 
Q 5675 225 5525 -75 
Q 3750 900 3300 3325 
L 3300 175 
Q 3325 -425 2675 -600 
Q 2650 -250 1925 -25 
L 1925 75 
Q 2475 25 2687 25 
Q 2900 25 2925 250 
L 2925 1700 
Q 1950 1075 1387 700 
Q 825 325 700 100 
L 300 600 
Q 575 650 1225 975 
Q 1875 1300 2925 1850 
L 2925 3625 
L 1275 3625 
Q 950 3625 675 3550 
L 450 3775 
L 2925 3775 
Q 2925 4850 2900 5225 
z
M 1050 3175 
Q 1775 2900 1975 2712 
Q 2175 2525 2175 2350 
Q 2175 2250 2075 2075 
Q 1975 1900 1925 1900 
Q 1850 1900 1750 2175 
Q 1575 2575 1000 3100 
L 1050 3175 
z
" transform="scale(0.015625)"/>
       <path id="SimSun-5ef6" d="M 500 4450 
L 1800 4450 
L 2050 4700 
L 2450 4300 
Q 2225 4275 1900 3775 
Q 1575 3250 1250 2750 
L 1975 2750 
L 2150 3000 
L 2525 2675 
L 2325 2525 
Q 2175 1550 1875 750 
Q 2500 250 3112 175 
Q 3725 100 4350 100 
Q 5175 100 6025 175 
L 6025 75 
Q 5525 -25 5525 -350 
Q 3800 -350 3100 -187 
Q 2400 -25 1725 525 
Q 1175 -150 325 -525 
L 275 -450 
Q 1025 0 1500 750 
Q 1175 1175 825 2025 
L 900 2050 
Q 1275 1350 1625 1000 
Q 1925 1775 2000 2600 
L 1200 2600 
L 1050 2425 
L 725 2725 
Q 1025 2925 1362 3462 
Q 1700 4000 1825 4300 
L 1000 4300 
L 700 4250 
L 500 4450 
z
M 2800 4200 
Q 3675 4300 4412 4500 
Q 5150 4700 5350 4850 
L 5775 4400 
Q 5500 4400 5162 4350 
Q 4825 4300 4500 4250 
L 4500 2800 
L 5050 2800 
L 5350 3100 
L 5800 2650 
L 4500 2650 
L 4500 1025 
L 5200 1025 
L 5500 1325 
L 5950 875 
L 3425 875 
L 3225 650 
L 2900 975 
L 3075 1125 
L 3075 2275 
Q 3075 2775 3050 3200 
L 3575 2950 
L 3400 2825 
L 3400 1025 
L 4175 1025 
L 4175 4225 
Q 3575 4150 2825 4100 
L 2800 4200 
z
" transform="scale(0.015625)"/>
       <path id="SimSun-8fdf" d="M 3100 4500 
L 3100 3175 
L 4975 3175 
L 4975 4500 
L 3100 4500 
z
M 3100 3025 
Q 3075 1400 2100 650 
L 2050 725 
Q 2475 1225 2625 1850 
Q 2775 2475 2775 3387 
Q 2775 4300 2750 4875 
L 3100 4650 
L 4925 4650 
L 5175 4900 
L 5500 4575 
L 5300 4425 
Q 5300 3250 5325 2875 
L 4975 2725 
L 4975 3025 
L 3100 3025 
z
M 3625 2400 
L 3675 2500 
Q 4250 2225 4762 1912 
Q 5275 1600 5425 1387 
Q 5575 1175 5575 1025 
Q 5575 900 5500 800 
Q 5425 700 5400 700 
Q 5300 700 5175 950 
Q 5000 1275 4650 1612 
Q 4300 1950 3625 2400 
z
M 1600 950 
Q 1825 700 2225 450 
Q 2625 200 3400 162 
Q 4175 125 4825 150 
Q 5475 175 6100 275 
L 6100 175 
Q 5675 25 5600 -250 
Q 4500 -250 3750 -212 
Q 3000 -175 2562 0 
Q 2125 175 1825 525 
Q 1500 850 1412 837 
Q 1325 825 1050 512 
Q 775 200 650 -25 
L 275 325 
Q 725 600 1275 950 
L 1275 2925 
L 1075 2925 
Q 750 2925 475 2850 
L 250 3075 
L 1225 3075 
L 1500 3350 
L 1850 3000 
L 1600 2825 
L 1600 950 
z
M 925 4975 
L 975 5050 
Q 1500 4750 1662 4575 
Q 1825 4400 1812 4225 
Q 1800 4050 1712 3987 
Q 1625 3925 1575 3925 
Q 1475 3925 1400 4225 
Q 1275 4625 925 4975 
z
" transform="scale(0.015625)"/>
       <path id="SimSun-20" d="M 0 0 
Q 0 0 0 0 
z
" transform="scale(0.015625)"/>
       <path id="STIXGeneral-Regular-28" d="M 1946 -1030 
L 1869 -1133 
Q 1126 -710 716 32 
Q 307 774 307 1613 
Q 307 3386 1888 4326 
L 1946 4224 
Q 1293 3667 1075 3126 
Q 858 2586 858 1632 
Q 858 685 1082 96 
Q 1306 -493 1946 -1030 
z
" transform="scale(0.015625)"/>
       <path id="STIXGeneral-Regular-3bc" d="M 3206 678 
L 3302 634 
Q 2963 -64 2598 -64 
Q 2208 -64 2208 454 
L 2195 454 
Q 1837 -64 1395 -64 
Q 1082 -64 992 115 
L 979 115 
L 979 -838 
Q 979 -1171 877 -1389 
L 352 -1389 
Q 454 -1152 454 -845 
L 454 2880 
L 992 2880 
L 992 883 
Q 992 621 1161 464 
Q 1331 307 1542 307 
Q 1843 307 2061 506 
Q 2150 582 2179 649 
Q 2208 717 2208 870 
L 2208 2880 
L 2746 2880 
L 2746 723 
Q 2746 358 2874 358 
Q 2970 358 3037 422 
Q 3104 486 3206 678 
z
" transform="scale(0.015625)"/>
       <path id="STIXGeneral-Regular-73" d="M 998 1926 
L 1664 1523 
Q 1984 1331 2105 1164 
Q 2227 998 2227 736 
Q 2227 416 1961 176 
Q 1696 -64 1331 -64 
Q 1030 -64 864 -6 
Q 691 51 570 51 
Q 461 51 416 -26 
L 333 -26 
L 333 979 
L 435 979 
Q 538 512 730 294 
Q 922 77 1248 77 
Q 1485 77 1632 211 
Q 1779 346 1779 550 
Q 1779 845 1440 1030 
L 1094 1222 
Q 326 1651 326 2150 
Q 326 2522 566 2730 
Q 806 2938 1210 2938 
Q 1491 2938 1638 2867 
Q 1754 2816 1818 2816 
Q 1862 2816 1920 2880 
L 1990 2880 
L 2022 2010 
L 1926 2010 
Q 1818 2445 1654 2621 
Q 1491 2797 1203 2797 
Q 986 2797 854 2688 
Q 723 2579 723 2362 
Q 723 2253 796 2128 
Q 870 2003 998 1926 
z
" transform="scale(0.015625)"/>
       <path id="STIXGeneral-Regular-29" d="M 186 4224 
L 262 4326 
Q 992 3891 1408 3148 
Q 1824 2406 1824 1581 
Q 1824 -166 243 -1133 
L 186 -1030 
Q 845 -486 1059 54 
Q 1274 595 1274 1562 
Q 1274 2534 1059 3120 
Q 845 3706 186 4224 
z
" transform="scale(0.015625)"/>
      </defs>
      <use xlink:href="#SimSun-5199" transform="translate(0 0.96875)"/>
      <use xlink:href="#SimSun-5165" transform="translate(100 0.96875)"/>
      <use xlink:href="#SimSun-8bf7" transform="translate(200 0.96875)"/>
      <use xlink:href="#SimSun-6c42" transform="translate(300 0.96875)"/>
      <use xlink:href="#SimSun-5ef6" transform="translate(400 0.96875)"/>
      <use xlink:href="#SimSun-8fdf" transform="translate(500 0.96875)"/>
      <use xlink:href="#SimSun-20" transform="translate(600 0.96875)"/>
      <use xlink:href="#STIXGeneral-Regular-28" transform="translate(650 0.96875)"/>
      <use xlink:href="#STIXGeneral-Regular-3bc" transform="translate(683.299988 0.96875)"/>
      <use xlink:href="#STIXGeneral-Regular-73" transform="translate(736.099976 0.96875)"/>
      <use xlink:href="#STIXGeneral-Regular-29" transform="translate(774.999969 0.96875)"/>
     </g>
    </g>
   </g>
   <g id="matplotlib.axis_2">
    <g id="ytick_1">
     <g id="line2d_7">
      <defs>
       <path id="me9d8ee29cc" d="M 0 0 
L -3.5 0 
" style="stroke: #000000; stroke-width: 0.8"/>
      </defs>
      <g>
       <use xlink:href="#me9d8ee29cc" x="113.4" y="553.909091" style="stroke: #000000; stroke-width: 0.8"/>
      </g>
     </g>
     <g id="text_8">
      <!-- 0.0 -->
      <g transform="translate(46.4 568.205966) scale(0.4 -0.4)">
       <defs>
        <path id="SimSun-2e" d="M 800 25 
Q 650 25 537 125 
Q 425 225 425 400 
Q 425 575 537 675 
Q 650 775 800 775 
Q 950 775 1062 662 
Q 1175 550 1175 400 
Q 1175 225 1062 125 
Q 950 25 800 25 
z
" transform="scale(0.015625)"/>
       </defs>
       <use xlink:href="#SimSun-30"/>
       <use xlink:href="#SimSun-2e" x="50"/>
       <use xlink:href="#SimSun-30" x="100"/>
      </g>
     </g>
    </g>
    <g id="ytick_2">
     <g id="line2d_8">
      <g>
       <use xlink:href="#me9d8ee29cc" x="113.4" y="502.527273" style="stroke: #000000; stroke-width: 0.8"/>
      </g>
     </g>
     <g id="text_9">
      <!-- 0.1 -->
      <g transform="translate(46.4 516.824148) scale(0.4 -0.4)">
       <use xlink:href="#SimSun-30"/>
       <use xlink:href="#SimSun-2e" x="50"/>
       <use xlink:href="#SimSun-31" x="100"/>
      </g>
     </g>
    </g>
    <g id="ytick_3">
     <g id="line2d_9">
      <g>
       <use xlink:href="#me9d8ee29cc" x="113.4" y="451.145455" style="stroke: #000000; stroke-width: 0.8"/>
      </g>
     </g>
     <g id="text_10">
      <!-- 0.2 -->
      <g transform="translate(46.4 465.44233) scale(0.4 -0.4)">
       <use xlink:href="#SimSun-30"/>
       <use xlink:href="#SimSun-2e" x="50"/>
       <use xlink:href="#SimSun-32" x="100"/>
      </g>
     </g>
    </g>
    <g id="ytick_4">
     <g id="line2d_10">
      <g>
       <use xlink:href="#me9d8ee29cc" x="113.4" y="399.763636" style="stroke: #000000; stroke-width: 0.8"/>
      </g>
     </g>
     <g id="text_11">
      <!-- 0.3 -->
      <g transform="translate(46.4 414.060511) scale(0.4 -0.4)">
       <defs>
        <path id="SimSun-33" d="M 2800 1250 
Q 2800 775 2450 412 
Q 2100 50 1475 50 
Q 1025 50 700 300 
Q 375 550 375 875 
Q 375 1025 475 1137 
Q 575 1250 675 1250 
Q 825 1250 887 1137 
Q 950 1025 950 950 
Q 950 825 900 750 
Q 850 650 850 575 
Q 850 425 1037 325 
Q 1225 225 1450 225 
Q 1900 225 2125 487 
Q 2350 750 2350 1300 
Q 2350 1750 2112 2025 
Q 1875 2300 1225 2300 
L 1225 2475 
Q 1725 2475 1962 2712 
Q 2200 2950 2200 3375 
Q 2200 3725 2012 3987 
Q 1825 4250 1425 4250 
Q 1250 4250 1050 4162 
Q 850 4075 850 3875 
Q 850 3675 900 3625 
Q 950 3575 950 3500 
Q 950 3375 900 3300 
Q 850 3225 725 3225 
Q 625 3225 537 3300 
Q 450 3375 450 3575 
Q 450 3950 775 4187 
Q 1100 4425 1525 4425 
Q 2025 4425 2325 4112 
Q 2625 3800 2625 3450 
Q 2625 3075 2437 2812 
Q 2250 2550 1850 2425 
Q 2400 2225 2600 1900 
Q 2800 1575 2800 1250 
z
" transform="scale(0.015625)"/>
       </defs>
       <use xlink:href="#SimSun-30"/>
       <use xlink:href="#SimSun-2e" x="50"/>
       <use xlink:href="#SimSun-33" x="100"/>
      </g>
     </g>
    </g>
    <g id="ytick_5">
     <g id="line2d_11">
      <g>
       <use xlink:href="#me9d8ee29cc" x="113.4" y="348.381818" style="stroke: #000000; stroke-width: 0.8"/>
      </g>
     </g>
     <g id="text_12">
      <!-- 0.4 -->
      <g transform="translate(46.4 362.678693) scale(0.4 -0.4)">
       <use xlink:href="#SimSun-30"/>
       <use xlink:href="#SimSun-2e" x="50"/>
       <use xlink:href="#SimSun-34" x="100"/>
      </g>
     </g>
    </g>
    <g id="ytick_6">
     <g id="line2d_12">
      <g>
       <use xlink:href="#me9d8ee29cc" x="113.4" y="297" style="stroke: #000000; stroke-width: 0.8"/>
      </g>
     </g>
     <g id="text_13">
      <!-- 0.5 -->
      <g transform="translate(46.4 311.296875) scale(0.4 -0.4)">
       <defs>
        <path id="SimSun-35" d="M 1725 2850 
Q 2200 2850 2500 2487 
Q 2800 2125 2800 1525 
Q 2800 850 2487 450 
Q 2175 50 1525 50 
Q 1075 50 725 312 
Q 375 575 375 950 
Q 375 1100 462 1212 
Q 550 1325 700 1325 
Q 850 1325 900 1225 
Q 950 1125 950 1050 
Q 950 900 875 825 
Q 800 725 800 625 
Q 800 425 1037 325 
Q 1275 225 1550 225 
Q 1950 225 2162 550 
Q 2375 875 2375 1475 
Q 2375 1975 2187 2287 
Q 2000 2600 1625 2600 
Q 1350 2600 1150 2500 
Q 950 2400 775 2075 
L 550 2100 
L 675 4375 
L 2725 4375 
L 2650 4000 
L 850 4000 
L 750 2350 
Q 1000 2700 1237 2775 
Q 1475 2850 1725 2850 
z
" transform="scale(0.015625)"/>
       </defs>
       <use xlink:href="#SimSun-30"/>
       <use xlink:href="#SimSun-2e" x="50"/>
       <use xlink:href="#SimSun-35" x="100"/>
      </g>
     </g>
    </g>
    <g id="ytick_7">
     <g id="line2d_13">
      <g>
       <use xlink:href="#me9d8ee29cc" x="113.4" y="245.618182" style="stroke: #000000; stroke-width: 0.8"/>
      </g>
     </g>
     <g id="text_14">
      <!-- 0.6 -->
      <g transform="translate(46.4 259.915057) scale(0.4 -0.4)">
       <use xlink:href="#SimSun-30"/>
       <use xlink:href="#SimSun-2e" x="50"/>
       <use xlink:href="#SimSun-36" x="100"/>
      </g>
     </g>
    </g>
    <g id="ytick_8">
     <g id="line2d_14">
      <g>
       <use xlink:href="#me9d8ee29cc" x="113.4" y="194.236364" style="stroke: #000000; stroke-width: 0.8"/>
      </g>
     </g>
     <g id="text_15">
      <!-- 0.7 -->
      <g transform="translate(46.4 208.533239) scale(0.4 -0.4)">
       <defs>
        <path id="SimSun-37" d="M 2825 4200 
Q 2300 3350 1987 2537 
Q 1675 1725 1675 1125 
Q 1675 1025 1700 850 
Q 1700 650 1700 400 
Q 1700 200 1637 125 
Q 1575 50 1425 50 
Q 1300 50 1212 137 
Q 1125 225 1125 450 
Q 1125 925 1337 1625 
Q 1550 2325 2475 4000 
L 1225 4000 
Q 950 4000 787 3825 
Q 625 3650 550 3300 
L 400 3325 
L 575 4375 
L 2825 4375 
L 2825 4200 
z
" transform="scale(0.015625)"/>
       </defs>
       <use xlink:href="#SimSun-30"/>
       <use xlink:href="#SimSun-2e" x="50"/>
       <use xlink:href="#SimSun-37" x="100"/>
      </g>
     </g>
    </g>
    <g id="ytick_9">
     <g id="line2d_15">
      <g>
       <use xlink:href="#me9d8ee29cc" x="113.4" y="142.854545" style="stroke: #000000; stroke-width: 0.8"/>
      </g>
     </g>
     <g id="text_16">
      <!-- 0.8 -->
      <g transform="translate(46.4 157.15142) scale(0.4 -0.4)">
       <use xlink:href="#SimSun-30"/>
       <use xlink:href="#SimSun-2e" x="50"/>
       <use xlink:href="#SimSun-38" x="100"/>
      </g>
     </g>
    </g>
    <g id="ytick_10">
     <g id="line2d_16">
      <g>
       <use xlink:href="#me9d8ee29cc" x="113.4" y="91.472727" style="stroke: #000000; stroke-width: 0.8"/>
      </g>
     </g>
     <g id="text_17">
      <!-- 0.9 -->
      <g transform="translate(46.4 105.769602) scale(0.4 -0.4)">
       <defs>
        <path id="SimSun-39" d="M 700 3050 
Q 700 2500 912 2212 
Q 1125 1925 1450 1925 
Q 1825 1925 2100 2275 
Q 2375 2625 2375 2925 
Q 2375 3525 2175 3887 
Q 1975 4250 1525 4250 
Q 1100 4250 900 3912 
Q 700 3575 700 3050 
z
M 1375 1700 
Q 875 1700 575 2012 
Q 275 2325 275 3025 
Q 275 3625 600 4025 
Q 925 4425 1525 4425 
Q 2150 4425 2500 3925 
Q 2850 3425 2850 2475 
Q 2850 1425 2437 737 
Q 2025 50 1300 50 
Q 975 50 737 200 
Q 500 350 500 600 
Q 500 700 562 800 
Q 625 900 775 900 
Q 925 900 975 787 
Q 1025 675 1025 525 
Q 1025 425 1050 362 
Q 1075 300 1100 275 
Q 1125 250 1187 237 
Q 1250 225 1325 225 
Q 1775 225 2050 725 
Q 2325 1225 2375 2400 
Q 2250 2100 2000 1900 
Q 1750 1700 1375 1700 
z
" transform="scale(0.015625)"/>
       </defs>
       <use xlink:href="#SimSun-30"/>
       <use xlink:href="#SimSun-2e" x="50"/>
       <use xlink:href="#SimSun-39" x="100"/>
      </g>
     </g>
    </g>
    <g id="ytick_11">
     <g id="line2d_17">
      <g>
       <use xlink:href="#me9d8ee29cc" x="113.4" y="40.090909" style="stroke: #000000; stroke-width: 0.8"/>
      </g>
     </g>
     <g id="text_18">
      <!-- 1.0 -->
      <g transform="translate(46.4 54.387784) scale(0.4 -0.4)">
       <use xlink:href="#SimSun-31"/>
       <use xlink:href="#SimSun-2e" x="50"/>
       <use xlink:href="#SimSun-30" x="100"/>
      </g>
     </g>
    </g>
    <g id="text_19">
     <!-- $\mathrm{CDF}$ -->
     <g transform="translate(35.954687 345.75) rotate(-90) scale(0.5 -0.5)">
      <defs>
       <path id="STIXGeneral-Regular-43" d="M 3930 838 
L 4051 723 
Q 3482 -90 2304 -90 
Q 1376 -90 794 480 
Q 179 1082 179 2080 
Q 179 3014 755 3661 
Q 1357 4326 2310 4326 
Q 2720 4326 3072 4230 
Q 3475 4115 3514 4115 
Q 3725 4115 3782 4326 
L 3910 4326 
L 3968 2874 
L 3821 2874 
Q 3718 3334 3488 3584 
Q 3034 4070 2458 4070 
Q 1747 4070 1334 3548 
Q 922 3027 922 2182 
Q 922 1152 1382 653 
Q 1811 192 2522 192 
Q 2944 192 3251 339 
Q 3558 486 3930 838 
z
" transform="scale(0.015625)"/>
       <path id="STIXGeneral-Regular-44" d="M 102 4237 
L 1830 4237 
Q 3078 4237 3750 3654 
Q 4384 3110 4384 2138 
Q 4384 966 3514 410 
Q 2880 0 1901 0 
L 102 0 
L 102 122 
Q 474 147 570 252 
Q 666 358 666 736 
L 666 3520 
Q 666 3891 570 3990 
Q 474 4090 102 4115 
L 102 4237 
z
M 1318 3731 
L 1318 538 
Q 1318 365 1379 301 
Q 1440 237 1626 237 
Q 2125 237 2432 307 
Q 2739 378 3021 570 
Q 3686 1018 3686 2099 
Q 3686 3027 3078 3558 
Q 2803 3802 2476 3901 
Q 2150 4000 1658 4000 
Q 1472 4000 1395 3942 
Q 1318 3885 1318 3731 
z
" transform="scale(0.015625)"/>
       <path id="STIXGeneral-Regular-46" d="M 3494 3322 
L 3334 3322 
Q 3264 3757 3094 3875 
Q 2925 3994 2349 3994 
L 1504 3994 
Q 1370 3994 1328 3946 
Q 1286 3898 1286 3744 
L 1286 2355 
L 2195 2355 
Q 2598 2355 2736 2470 
Q 2874 2586 2918 2963 
L 3066 2963 
L 3066 1472 
L 2918 1472 
Q 2880 1862 2745 1977 
Q 2611 2093 2195 2093 
L 1286 2093 
L 1286 717 
Q 1286 352 1392 246 
Q 1498 141 1869 122 
L 1869 0 
L 70 0 
L 70 122 
Q 435 147 534 259 
Q 634 371 634 787 
L 634 3526 
Q 634 3878 538 3984 
Q 442 4090 77 4115 
L 77 4237 
L 3462 4237 
L 3494 3322 
z
" transform="scale(0.015625)"/>
      </defs>
      <use xlink:href="#STIXGeneral-Regular-43" transform="translate(0 0.40625)"/>
      <use xlink:href="#STIXGeneral-Regular-44" transform="translate(66.699997 0.40625)"/>
      <use xlink:href="#STIXGeneral-Regular-46" transform="translate(138.899979 0.40625)"/>
     </g>
    </g>
   </g>
   <g id="line2d_18">
    <path d="M 113.4 553.909091 
L 303.9768 551.665343 
L 309.1149 549.421596 
L 324.5292 547.177848 
L 328.7331 544.934101 
L 335.7396 542.690353 
L 336.2067 540.446606 
L 337.608 538.202858 
L 341.3448 535.959111 
L 341.8119 533.715363 
L 347.4171 531.471616 
L 348.8184 529.227868 
L 349.7526 526.984121 
L 350.6868 522.496626 
L 352.0881 520.252878 
L 352.5552 518.009131 
L 352.5552 515.765383 
L 353.0223 513.521636 
L 353.9565 511.277888 
L 355.3578 509.034141 
L 355.3578 504.546645 
L 355.8249 502.302898 
L 355.8249 500.05915 
L 357.6933 497.815403 
L 359.0946 495.571655 
L 359.5617 493.327908 
L 360.963 491.08416 
L 360.963 488.840413 
L 361.4301 486.596665 
L 362.8314 484.352918 
L 363.2985 482.10917 
L 365.1669 479.865423 
L 365.1669 477.621675 
L 367.0353 475.377928 
L 367.0353 473.13418 
L 367.5024 470.890433 
L 368.9037 468.646685 
L 368.9037 466.402938 
L 369.8379 464.15919 
L 369.8379 461.915443 
L 372.1734 459.671695 
L 375.4431 457.427948 
L 376.3773 455.1842 
L 376.8444 452.940453 
L 377.7786 450.696705 
L 378.2457 448.452958 
L 379.1799 446.20921 
L 379.647 443.965462 
L 381.0483 441.721715 
L 381.0483 439.477967 
L 381.9825 437.23422 
L 383.8509 434.990472 
L 384.7851 432.746725 
L 386.1864 430.502977 
L 386.6535 428.25923 
L 386.6535 426.015482 
L 389.4561 423.771735 
L 390.8574 421.527987 
L 390.8574 419.28424 
L 391.3245 417.040492 
L 391.3245 414.796745 
L 392.2587 412.552997 
L 392.2587 408.065502 
L 395.5284 405.821755 
L 395.5284 401.33426 
L 399.7323 399.090512 
L 399.7323 396.846765 
L 400.6665 394.603017 
L 400.6665 392.35927 
L 401.1336 390.115522 
L 402.5349 387.871775 
L 402.5349 385.628027 
L 403.9362 383.384279 
L 403.9362 381.140532 
L 405.8046 378.896784 
L 406.7388 376.653037 
L 408.6072 374.409289 
L 408.6072 372.165542 
L 410.9427 369.921794 
L 412.8111 365.434299 
L 412.8111 363.190552 
L 413.2782 360.946804 
L 413.2782 358.703057 
L 414.6795 351.971814 
L 414.6795 349.728067 
L 415.6137 347.484319 
L 416.0808 345.240572 
L 416.0808 342.996824 
L 416.5479 340.753077 
L 417.9492 338.509329 
L 417.9492 334.021834 
L 418.8834 331.778087 
L 419.3505 329.534339 
L 421.2189 325.046844 
L 425.4228 318.315601 
L 425.8899 316.071854 
L 425.8899 313.828106 
L 426.357 311.584359 
L 427.2912 309.340611 
L 428.2254 304.853116 
L 429.1596 302.609369 
L 433.3635 300.365621 
L 433.3635 298.121874 
L 433.8306 295.878126 
L 433.8306 293.634379 
L 434.2977 291.390631 
L 434.2977 289.146884 
L 434.7648 286.903136 
L 434.7648 284.659389 
L 435.2319 282.415641 
L 436.1661 280.171894 
L 437.5674 277.928146 
L 437.5674 275.684399 
L 440.8371 273.440651 
L 441.7713 268.953156 
L 443.6397 266.709408 
L 445.041 259.978166 
L 445.9752 257.734418 
L 446.9094 253.246923 
L 448.7778 251.003176 
L 448.7778 246.515681 
L 449.2449 244.271933 
L 449.2449 242.028186 
L 449.712 239.784438 
L 449.712 235.296943 
L 450.1791 233.053196 
L 452.5146 230.809448 
L 452.5146 228.565701 
L 456.2514 226.321953 
L 456.7185 224.078206 
L 459.5211 217.346963 
L 460.9224 215.103216 
L 460.9224 210.615721 
L 461.3895 208.371973 
L 461.3895 206.128225 
L 462.7908 203.884478 
L 462.7908 201.64073 
L 463.725 199.396983 
L 464.1921 197.153235 
L 468.396 194.909488 
L 469.3302 190.421993 
L 469.3302 188.178245 
L 469.7973 185.934498 
L 469.7973 183.69075 
L 470.7315 179.203255 
L 470.7315 176.959508 
L 472.5999 172.472013 
L 474.4683 170.228265 
L 474.4683 163.497023 
L 479.1393 161.253275 
L 480.5406 159.009528 
L 483.8103 156.76578 
L 483.8103 154.522033 
L 484.2774 152.278285 
L 485.2116 150.034538 
L 487.08 147.79079 
L 489.8826 145.547042 
L 492.2181 143.303295 
L 492.2181 138.8158 
L 493.6194 132.084557 
L 497.3562 129.84081 
L 498.2904 127.597062 
L 500.6259 125.353315 
L 501.093 123.109567 
L 506.6982 120.86582 
L 513.2376 118.622072 
L 516.0402 116.378325 
L 516.9744 114.134577 
L 518.8428 111.89083 
L 521.1783 109.647082 
L 525.3822 107.403335 
L 526.3164 105.159587 
L 531.4545 102.91584 
L 536.1255 100.672092 
L 541.2636 98.428345 
L 544.0662 96.184597 
L 544.5333 93.94085 
L 550.6056 91.697102 
L 552.474 89.453355 
L 556.2108 87.209607 
L 562.2831 84.965859 
L 564.6186 82.722112 
L 568.3554 80.478364 
L 570.2238 78.234617 
L 585.6381 75.990869 
L 601.9866 73.747122 
L 616.4667 71.503374 
L 622.0719 69.259627 
L 631.881 67.015879 
L 637.4862 64.772132 
L 641.6901 62.528384 
L 643.0914 60.284637 
L 655.7031 58.040889 
L 659.907 55.797142 
L 673.92 53.553394 
L 712.6893 51.309647 
L 801.4383 49.065899 
L 885.5163 46.822152 
L 906.5358 44.578404 
L 995.2848 42.334657 
L 1030.3173 40.090909 
L 1030.3173 40.090909 
" clip-path="url(#p1cd858843e)" style="fill: none; stroke: #ff0000; stroke-width: 3; stroke-linecap: square"/>
   </g>
   <g id="line2d_19">
    <path d="M 113.4 553.909091 
L 225.9711 551.925237 
L 231.1092 549.941383 
L 232.0434 547.957529 
L 232.0434 545.973675 
L 232.5105 543.989821 
L 233.9118 542.005967 
L 235.7802 538.038259 
L 237.6486 536.054405 
L 239.517 532.086697 
L 242.3196 528.118989 
L 243.2538 526.135135 
L 244.6551 524.151281 
L 245.1222 522.167427 
L 246.5235 520.183573 
L 246.5235 518.199719 
L 247.9248 516.215865 
L 247.9248 514.232011 
L 250.2603 512.248157 
L 250.7274 510.264303 
L 250.7274 508.280449 
L 252.5958 506.296595 
L 253.0629 504.312741 
L 253.0629 502.328887 
L 253.53 500.345033 
L 254.9313 498.361179 
L 254.9313 494.393471 
L 255.3984 492.409617 
L 257.2668 490.425763 
L 257.7339 488.441909 
L 258.6681 486.458055 
L 259.6023 482.490347 
L 259.6023 480.506494 
L 261.4707 478.52264 
L 261.9378 476.538786 
L 263.8062 474.554932 
L 264.7404 472.571078 
L 266.1417 470.587224 
L 267.0759 466.619516 
L 268.0101 464.635662 
L 268.0101 462.651808 
L 270.8127 460.667954 
L 272.6811 458.6841 
L 272.6811 456.700246 
L 273.6153 454.716392 
L 274.0824 452.732538 
L 275.9508 450.748684 
L 276.4179 448.76483 
L 276.4179 446.780976 
L 277.3521 442.813268 
L 278.2863 440.829414 
L 278.2863 438.84556 
L 278.7534 436.861706 
L 278.7534 432.893998 
L 279.2205 430.910144 
L 279.2205 428.92629 
L 279.6876 426.942436 
L 281.556 424.958582 
L 281.556 422.974728 
L 282.4902 420.990874 
L 284.3586 413.055458 
L 284.3586 409.08775 
L 285.2928 407.103896 
L 286.6941 405.120042 
L 289.0296 403.136188 
L 289.4967 401.152334 
L 290.4309 399.16848 
L 291.3651 395.200772 
L 291.3651 393.216918 
L 292.2993 389.24921 
L 292.2993 387.265356 
L 294.1677 385.281502 
L 295.569 379.32994 
L 295.569 377.346086 
L 296.9703 375.362232 
L 296.9703 373.378378 
L 297.9045 371.394524 
L 297.9045 369.41067 
L 299.3058 367.426816 
L 299.7729 365.442962 
L 299.7729 363.459108 
L 300.24 361.475254 
L 302.1084 359.4914 
L 302.5755 357.507547 
L 303.9768 355.523693 
L 306.3123 345.604423 
L 307.2465 343.620569 
L 308.6478 337.669007 
L 309.582 335.685153 
L 310.5162 331.717445 
L 310.5162 329.733591 
L 311.9175 323.782029 
L 312.8517 321.798175 
L 312.8517 319.814321 
L 314.7201 315.846613 
L 314.7201 309.895051 
L 315.6543 307.911197 
L 317.5227 299.975781 
L 317.5227 297.991927 
L 319.3911 294.024219 
L 319.3911 292.040365 
L 319.8582 290.056511 
L 319.8582 288.072657 
L 321.2595 282.121095 
L 322.1937 280.137241 
L 322.1937 278.153387 
L 322.6608 276.169533 
L 323.595 274.185679 
L 324.0621 272.201825 
L 324.9963 270.217971 
L 326.3976 268.234117 
L 331.0686 266.250263 
L 333.8712 262.282555 
L 334.8054 258.314847 
L 337.608 256.330993 
L 338.5422 252.363285 
L 338.5422 250.379431 
L 339.4764 246.411723 
L 339.4764 244.427869 
L 339.9435 242.444015 
L 341.8119 240.460161 
L 341.8119 238.476307 
L 342.279 236.492453 
L 343.2132 234.5086 
L 343.6803 232.524746 
L 344.6145 230.540892 
L 344.6145 228.557038 
L 346.0158 226.573184 
L 346.4829 224.58933 
L 346.4829 222.605476 
L 346.95 220.621622 
L 348.8184 216.653914 
L 348.8184 214.67006 
L 349.7526 210.702352 
L 349.7526 208.718498 
L 353.0223 206.734644 
L 353.4894 204.75079 
L 354.4236 202.766936 
L 356.7591 200.783082 
L 357.2262 198.799228 
L 357.2262 196.815374 
L 358.1604 192.847666 
L 358.1604 190.863812 
L 359.0946 188.879958 
L 359.0946 186.896104 
L 360.0288 184.91225 
L 360.4959 182.928396 
L 360.4959 180.944542 
L 361.4301 176.976834 
L 362.8314 174.99298 
L 362.8314 173.009126 
L 363.2985 171.025272 
L 363.2985 169.041418 
L 363.7656 167.057564 
L 363.7656 165.07371 
L 364.6998 161.106002 
L 365.634 159.122148 
L 367.9695 157.138294 
L 367.9695 155.15444 
L 368.9037 153.170586 
L 370.305 147.219024 
L 371.7063 145.23517 
L 372.1734 143.251316 
L 373.5747 141.267462 
L 376.8444 139.283608 
L 376.8444 137.299754 
L 378.2457 135.3159 
L 378.2457 133.332046 
L 379.647 131.348192 
L 381.9825 129.364338 
L 384.7851 127.380484 
L 385.2522 125.39663 
L 385.2522 123.412776 
L 385.7193 121.428922 
L 385.7193 117.461214 
L 387.5877 113.493506 
L 388.0548 111.509653 
L 391.3245 109.525799 
L 391.3245 107.541945 
L 398.7981 105.558091 
L 400.6665 103.574237 
L 403.002 101.590383 
L 406.7388 99.606529 
L 408.1401 97.622675 
L 410.0085 93.654967 
L 410.4756 91.671113 
L 414.2124 89.687259 
L 420.2847 87.703405 
L 422.1531 85.719551 
L 423.0873 81.751843 
L 431.4951 79.767989 
L 434.7648 77.784135 
L 438.9687 75.800281 
L 456.7185 73.816427 
L 463.2579 71.832573 
L 465.5934 69.848719 
L 467.4618 67.864865 
L 467.9289 65.881011 
L 467.9289 63.897157 
L 469.7973 61.913303 
L 473.5341 59.929449 
L 486.1458 57.945595 
L 504.3627 55.961741 
L 513.2376 53.977887 
L 515.5731 51.994033 
L 516.9744 50.010179 
L 577.6974 46.042471 
L 713.1564 44.058617 
L 872.9046 42.074763 
L 957.4497 40.090909 
L 957.4497 40.090909 
" clip-path="url(#p1cd858843e)" style="fill: none; stroke-dasharray: 11.1,4.8; stroke-dashoffset: 0; stroke: #0000ff; stroke-width: 3"/>
   </g>
   <g id="patch_3">
    <path d="M 113.4 579.6 
L 113.4 14.4 
" style="fill: none; stroke: #000000; stroke-width: 0.8; stroke-linejoin: miter; stroke-linecap: square"/>
   </g>
   <g id="patch_4">
    <path d="M 1047.6 579.6 
L 1047.6 14.4 
" style="fill: none; stroke: #000000; stroke-width: 0.8; stroke-linejoin: miter; stroke-linecap: square"/>
   </g>
   <g id="patch_5">
    <path d="M 113.4 579.6 
L 1047.6 579.6 
" style="fill: none; stroke: #000000; stroke-width: 0.8; stroke-linejoin: miter; stroke-linecap: square"/>
   </g>
   <g id="patch_6">
    <path d="M 113.4 14.4 
L 1047.6 14.4 
" style="fill: none; stroke: #000000; stroke-width: 0.8; stroke-linejoin: miter; stroke-linecap: square"/>
   </g>
   <g id="legend_1">
    <g id="line2d_20">
     <path d="M 259.680109 701.174 
L 302.680109 701.174 
L 345.680109 701.174 
" style="fill: none; stroke: #ff0000; stroke-width: 3; stroke-linecap: square"/>
    </g>
    <g id="text_20">
     <!-- CaleKV -->
     <g transform="translate(380.080109 716.224) scale(0.43 -0.43)">
      <defs>
       <path id="TimesNewRomanPS-BoldMT-43" d="M 4272 4334 
L 4272 2866 
L 4150 2866 
Q 4013 3441 3638 3747 
Q 3263 4053 2788 4053 
Q 2391 4053 2059 3825 
Q 1728 3597 1575 3228 
Q 1378 2756 1378 2178 
Q 1378 1609 1522 1142 
Q 1666 675 1972 436 
Q 2278 197 2766 197 
Q 3166 197 3498 372 
Q 3831 547 4200 975 
L 4200 609 
Q 3844 238 3458 70 
Q 3072 -97 2556 -97 
Q 1878 -97 1351 175 
Q 825 447 539 956 
Q 253 1466 253 2041 
Q 253 2647 570 3190 
Q 888 3734 1427 4034 
Q 1966 4334 2572 4334 
Q 3019 4334 3516 4141 
Q 3803 4028 3881 4028 
Q 3981 4028 4054 4101 
Q 4128 4175 4150 4334 
L 4272 4334 
z
" transform="scale(0.015625)"/>
       <path id="TimesNewRomanPS-BoldMT-61" d="M 1828 431 
Q 1294 -41 869 -41 
Q 619 -41 453 123 
Q 288 288 288 534 
Q 288 869 575 1136 
Q 863 1403 1828 1847 
L 1828 2141 
Q 1828 2472 1792 2558 
Q 1756 2644 1656 2708 
Q 1556 2772 1431 2772 
Q 1228 2772 1097 2681 
Q 1016 2625 1016 2550 
Q 1016 2484 1103 2388 
Q 1222 2253 1222 2128 
Q 1222 1975 1108 1867 
Q 994 1759 809 1759 
Q 613 1759 480 1878 
Q 347 1997 347 2156 
Q 347 2381 525 2586 
Q 703 2791 1022 2900 
Q 1341 3009 1684 3009 
Q 2100 3009 2342 2832 
Q 2584 2656 2656 2450 
Q 2700 2319 2700 1847 
L 2700 713 
Q 2700 513 2715 461 
Q 2731 409 2762 384 
Q 2794 359 2834 359 
Q 2916 359 3000 475 
L 3094 400 
Q 2938 169 2770 64 
Q 2603 -41 2391 -41 
Q 2141 -41 2000 76 
Q 1859 194 1828 431 
z
M 1828 659 
L 1828 1638 
Q 1450 1416 1266 1163 
Q 1144 994 1144 822 
Q 1144 678 1247 569 
Q 1325 484 1466 484 
Q 1622 484 1828 659 
z
" transform="scale(0.015625)"/>
       <path id="TimesNewRomanPS-BoldMT-6c" d="M 1359 4238 
L 1359 606 
Q 1359 297 1431 211 
Q 1503 125 1713 113 
L 1713 0 
L 134 0 
L 134 113 
Q 328 119 422 225 
Q 484 297 484 606 
L 484 3631 
Q 484 3938 412 4023 
Q 341 4109 134 4122 
L 134 4238 
L 1359 4238 
z
" transform="scale(0.015625)"/>
       <path id="TimesNewRomanPS-BoldMT-65" d="M 2691 1566 
L 1088 1566 
Q 1116 984 1397 647 
Q 1613 388 1916 388 
Q 2103 388 2256 492 
Q 2409 597 2584 869 
L 2691 800 
Q 2453 316 2165 114 
Q 1878 -88 1500 -88 
Q 850 -88 516 413 
Q 247 816 247 1413 
Q 247 2144 642 2576 
Q 1038 3009 1569 3009 
Q 2013 3009 2339 2645 
Q 2666 2281 2691 1566 
z
M 1922 1775 
Q 1922 2278 1867 2465 
Q 1813 2653 1697 2750 
Q 1631 2806 1522 2806 
Q 1359 2806 1256 2647 
Q 1072 2369 1072 1884 
L 1072 1775 
L 1922 1775 
z
" transform="scale(0.015625)"/>
       <path id="TimesNewRomanPS-BoldMT-4b" d="M 2666 2616 
L 4156 750 
Q 4472 356 4700 216 
Q 4866 116 5050 116 
L 5050 0 
L 2844 0 
L 2844 116 
Q 3053 134 3114 181 
Q 3175 228 3175 297 
Q 3175 428 2888 791 
L 1916 2013 
L 1759 1881 
L 1759 725 
Q 1759 394 1796 312 
Q 1834 231 1940 173 
Q 2047 116 2281 116 
L 2281 0 
L 144 0 
L 144 116 
L 284 116 
Q 469 116 581 181 
Q 663 225 706 331 
Q 741 406 741 725 
L 741 3513 
Q 741 3838 706 3919 
Q 672 4000 567 4061 
Q 463 4122 284 4122 
L 144 4122 
L 144 4238 
L 2253 4238 
L 2253 4122 
Q 2038 4122 1925 4059 
Q 1844 4016 1797 3913 
Q 1759 3834 1759 3513 
L 1759 2194 
L 3331 3466 
Q 3659 3731 3659 3891 
Q 3659 4009 3525 4078 
Q 3456 4113 3184 4122 
L 3184 4238 
L 4838 4238 
L 4838 4122 
Q 4616 4106 4489 4042 
Q 4363 3978 3906 3609 
L 2666 2616 
z
" transform="scale(0.015625)"/>
       <path id="TimesNewRomanPS-BoldMT-56" d="M 4556 4238 
L 4556 4122 
Q 4325 4084 4144 3875 
Q 4013 3719 3753 3141 
L 2294 -97 
L 2191 -97 
L 738 3272 
Q 475 3881 386 3987 
Q 297 4094 50 4122 
L 50 4238 
L 2081 4238 
L 2081 4122 
L 2013 4122 
Q 1738 4122 1638 4053 
Q 1566 4006 1566 3916 
Q 1566 3859 1591 3782 
Q 1616 3706 1759 3372 
L 2663 1263 
L 3500 3141 
Q 3650 3481 3684 3597 
Q 3719 3713 3719 3794 
Q 3719 3888 3669 3959 
Q 3619 4031 3522 4069 
Q 3388 4122 3166 4122 
L 3166 4238 
L 4556 4238 
z
" transform="scale(0.015625)"/>
      </defs>
      <use xlink:href="#TimesNewRomanPS-BoldMT-43"/>
      <use xlink:href="#TimesNewRomanPS-BoldMT-61" x="72.216797"/>
      <use xlink:href="#TimesNewRomanPS-BoldMT-6c" x="122.216797"/>
      <use xlink:href="#TimesNewRomanPS-BoldMT-65" x="150"/>
      <use xlink:href="#TimesNewRomanPS-BoldMT-4b" x="194.384766"/>
      <use xlink:href="#TimesNewRomanPS-BoldMT-56" x="272.167969"/>
     </g>
    </g>
    <g id="line2d_21">
     <path d="M 614.168078 701.174 
L 657.168078 701.174 
L 700.168078 701.174 
" style="fill: none; stroke-dasharray: 11.1,4.8; stroke-dashoffset: 0; stroke: #0000ff; stroke-width: 3"/>
    </g>
    <g id="text_21">
     <!-- MICA-t -->
     <g transform="translate(734.568078 716.224) scale(0.43 -0.43)">
      <defs>
       <path id="TimesNewRomanPS-BoldMT-4d" d="M 3050 1444 
L 4200 4238 
L 5925 4238 
L 5925 4122 
L 5788 4122 
Q 5600 4122 5488 4056 
Q 5409 4013 5363 3909 
Q 5328 3834 5328 3519 
L 5328 725 
Q 5328 400 5362 319 
Q 5397 238 5503 177 
Q 5609 116 5788 116 
L 5925 116 
L 5925 0 
L 3713 0 
L 3713 116 
L 3850 116 
Q 4038 116 4150 181 
Q 4228 225 4275 331 
Q 4309 406 4309 725 
L 4309 3866 
L 2684 0 
L 2609 0 
L 959 3838 
L 959 853 
Q 959 541 975 469 
Q 1016 313 1152 214 
Q 1288 116 1578 116 
L 1578 0 
L 128 0 
L 128 116 
L 172 116 
Q 313 113 434 161 
Q 556 209 618 290 
Q 681 372 716 519 
Q 722 553 722 838 
L 722 3519 
Q 722 3841 687 3920 
Q 653 4000 547 4061 
Q 441 4122 263 4122 
L 128 4122 
L 128 4238 
L 1859 4238 
L 3050 1444 
z
" transform="scale(0.015625)"/>
       <path id="TimesNewRomanPS-BoldMT-49" d="M 2344 116 
L 2344 0 
L 128 0 
L 128 116 
L 269 116 
Q 453 116 566 181 
Q 647 225 691 331 
Q 725 406 725 725 
L 725 3513 
Q 725 3838 690 3919 
Q 656 4000 551 4061 
Q 447 4122 269 4122 
L 128 4122 
L 128 4238 
L 2344 4238 
L 2344 4122 
L 2203 4122 
Q 2019 4122 1906 4056 
Q 1825 4013 1778 3906 
Q 1744 3831 1744 3513 
L 1744 725 
Q 1744 400 1780 319 
Q 1816 238 1920 177 
Q 2025 116 2203 116 
L 2344 116 
z
" transform="scale(0.015625)"/>
       <path id="TimesNewRomanPS-BoldMT-41" d="M 2663 1206 
L 1166 1206 
L 988 794 
Q 900 588 900 453 
Q 900 275 1044 191 
Q 1128 141 1459 116 
L 1459 0 
L 50 0 
L 50 116 
Q 278 150 425 304 
Q 572 459 788 944 
L 2303 4325 
L 2363 4325 
L 3891 850 
Q 4109 356 4250 228 
Q 4356 131 4550 116 
L 4550 0 
L 2500 0 
L 2500 116 
L 2584 116 
Q 2831 116 2931 184 
Q 3000 234 3000 328 
Q 3000 384 2981 444 
Q 2975 472 2888 678 
L 2663 1206 
z
M 2556 1438 
L 1925 2897 
L 1275 1438 
L 2556 1438 
z
" transform="scale(0.015625)"/>
       <path id="TimesNewRomanPS-BoldMT-2d" d="M 1978 1147 
L 156 1147 
L 156 1794 
L 1978 1794 
L 1978 1147 
z
" transform="scale(0.015625)"/>
       <path id="TimesNewRomanPS-BoldMT-74" d="M 1375 3991 
L 1375 2922 
L 2069 2922 
L 2069 2613 
L 1375 2613 
L 1375 809 
Q 1375 556 1398 482 
Q 1422 409 1481 364 
Q 1541 319 1591 319 
Q 1794 319 1975 628 
L 2069 559 
Q 1816 -41 1247 -41 
Q 969 -41 776 114 
Q 584 269 531 459 
Q 500 566 500 1034 
L 500 2613 
L 119 2613 
L 119 2722 
Q 513 3000 789 3306 
Q 1066 3613 1272 3991 
L 1375 3991 
z
" transform="scale(0.015625)"/>
      </defs>
      <use xlink:href="#TimesNewRomanPS-BoldMT-4d"/>
      <use xlink:href="#TimesNewRomanPS-BoldMT-49" x="94.384766"/>
      <use xlink:href="#TimesNewRomanPS-BoldMT-43" x="133.300781"/>
      <use xlink:href="#TimesNewRomanPS-BoldMT-41" x="205.517578"/>
      <use xlink:href="#TimesNewRomanPS-BoldMT-2d" x="277.734375"/>
      <use xlink:href="#TimesNewRomanPS-BoldMT-74" x="311.035156"/>
     </g>
    </g>
   </g>
  </g>
 </g>
 <defs>
  <clipPath id="p1cd858843e">
   <rect x="113.4" y="14.4" width="934.2" height="565.2"/>
  </clipPath>
 </defs>
</svg>
