<?xml version="1.0" encoding="utf-8" standalone="no"?>
<!DOCTYPE svg PUBLIC "-//W3C//DTD SVG 1.1//EN"
  "http://www.w3.org/Graphics/SVG/1.1/DTD/svg11.dtd">
<svg xmlns:xlink="http://www.w3.org/1999/xlink" width="921.6pt" height="518.4pt" viewBox="0 0 921.6 518.4" xmlns="http://www.w3.org/2000/svg" version="1.1">
 <metadata>
  <rdf:RDF xmlns:dc="http://purl.org/dc/elements/1.1/" xmlns:cc="http://creativecommons.org/ns#" xmlns:rdf="http://www.w3.org/1999/02/22-rdf-syntax-ns#">
   <cc:Work>
    <dc:type rdf:resource="http://purl.org/dc/dcmitype/StillImage"/>
    <dc:date>2023-07-06T16:14:26.422457</dc:date>
    <dc:format>image/svg+xml</dc:format>
    <dc:creator>
     <cc:Agent>
      <dc:title>Matplotlib v3.7.1, https://matplotlib.org/</dc:title>
     </cc:Agent>
    </dc:creator>
   </cc:Work>
  </rdf:RDF>
 </metadata>
 <defs>
  <style type="text/css">*{stroke-linejoin: round; stroke-linecap: butt}</style>
 </defs>
 <g id="figure_1">
  <g id="patch_1">
   <path d="M 0 518.4 
L 921.6 518.4 
L 921.6 0 
L 0 0 
z
" style="fill: #ffffff"/>
  </g>
  <g id="axes_1">
   <g id="patch_2">
    <path d="M 115.2 461.376 
L 829.44 461.376 
L 829.44 62.208 
L 115.2 62.208 
z
" style="fill: #ffffff"/>
   </g>
   <g id="matplotlib.axis_1">
    <g id="xtick_1">
     <g id="line2d_1">
      <defs>
       <path id="m0af5fdfabf" d="M 0 0 
L 0 3.5 
" style="stroke: #000000; stroke-width: 0.8"/>
      </defs>
      <g>
       <use xlink:href="#m0af5fdfabf" x="115.2" y="461.376" style="stroke: #000000; stroke-width: 0.8"/>
      </g>
     </g>
     <g id="text_1">
      <!-- 0 -->
      <g transform="translate(110.45 481.958031) scale(0.19 -0.19)">
       <defs>
        <path id="SimSun-30" d="M 1600 4225 
Q 1250 4225 1012 3687 
Q 775 3150 775 2250 
Q 775 1300 1012 775 
Q 1250 250 1600 250 
Q 1975 250 2187 775 
Q 2400 1300 2400 2250 
Q 2400 3150 2200 3687 
Q 2000 4225 1600 4225 
z
M 1600 50 
Q 1050 50 675 625 
Q 300 1200 300 2250 
Q 300 3225 662 3825 
Q 1025 4425 1600 4425 
Q 2150 4425 2512 3850 
Q 2875 3275 2875 2250 
Q 2875 1225 2512 637 
Q 2150 50 1600 50 
z
" transform="scale(0.015625)"/>
       </defs>
       <use xlink:href="#SimSun-30"/>
      </g>
     </g>
    </g>
    <g id="xtick_2">
     <g id="line2d_2">
      <g>
       <use xlink:href="#m0af5fdfabf" x="194.56" y="461.376" style="stroke: #000000; stroke-width: 0.8"/>
      </g>
     </g>
     <g id="text_2">
      <!-- 10 -->
      <g transform="translate(185.06 481.958031) scale(0.19 -0.19)">
       <defs>
        <path id="SimSun-31" d="M 1825 4450 
L 1825 650 
Q 1825 450 1950 350 
Q 2075 250 2300 250 
L 2550 250 
L 2550 100 
L 725 100 
L 725 250 
L 950 250 
Q 1200 250 1312 350 
Q 1425 450 1425 650 
L 1425 3675 
Q 1425 3775 1362 3837 
Q 1300 3900 1175 3900 
L 725 3900 
L 725 4050 
L 950 4050 
Q 1250 4050 1437 4150 
Q 1625 4250 1725 4450 
L 1825 4450 
z
" transform="scale(0.015625)"/>
       </defs>
       <use xlink:href="#SimSun-31"/>
       <use xlink:href="#SimSun-30" x="50"/>
      </g>
     </g>
    </g>
    <g id="xtick_3">
     <g id="line2d_3">
      <g>
       <use xlink:href="#m0af5fdfabf" x="273.92" y="461.376" style="stroke: #000000; stroke-width: 0.8"/>
      </g>
     </g>
     <g id="text_3">
      <!-- 20 -->
      <g transform="translate(264.42 481.958031) scale(0.19 -0.19)">
       <defs>
        <path id="SimSun-32" d="M 2325 3325 
Q 2325 3775 2125 4012 
Q 1925 4250 1525 4250 
Q 1225 4250 1012 4087 
Q 800 3925 800 3675 
Q 800 3525 900 3425 
Q 975 3325 975 3225 
Q 975 3100 912 3037 
Q 850 2975 725 2975 
Q 575 2975 487 3062 
Q 400 3150 400 3350 
Q 400 3875 775 4150 
Q 1150 4425 1575 4425 
Q 2175 4425 2462 4125 
Q 2750 3825 2750 3375 
Q 2750 3075 2612 2775 
Q 2475 2475 2175 2200 
Q 1450 1500 1062 1062 
Q 675 625 600 475 
L 2075 475 
Q 2300 475 2450 650 
Q 2600 825 2650 1175 
L 2800 1175 
L 2650 100 
L 325 100 
L 325 425 
Q 450 650 737 1000 
Q 1025 1350 1500 1825 
Q 1925 2250 2125 2625 
Q 2325 3000 2325 3325 
z
" transform="scale(0.015625)"/>
       </defs>
       <use xlink:href="#SimSun-32"/>
       <use xlink:href="#SimSun-30" x="50"/>
      </g>
     </g>
    </g>
    <g id="xtick_4">
     <g id="line2d_4">
      <g>
       <use xlink:href="#m0af5fdfabf" x="353.28" y="461.376" style="stroke: #000000; stroke-width: 0.8"/>
      </g>
     </g>
     <g id="text_4">
      <!-- 30 -->
      <g transform="translate(343.78 481.958031) scale(0.19 -0.19)">
       <defs>
        <path id="SimSun-33" d="M 2800 1250 
Q 2800 775 2450 412 
Q 2100 50 1475 50 
Q 1025 50 700 300 
Q 375 550 375 875 
Q 375 1025 475 1137 
Q 575 1250 675 1250 
Q 825 1250 887 1137 
Q 950 1025 950 950 
Q 950 825 900 750 
Q 850 650 850 575 
Q 850 425 1037 325 
Q 1225 225 1450 225 
Q 1900 225 2125 487 
Q 2350 750 2350 1300 
Q 2350 1750 2112 2025 
Q 1875 2300 1225 2300 
L 1225 2475 
Q 1725 2475 1962 2712 
Q 2200 2950 2200 3375 
Q 2200 3725 2012 3987 
Q 1825 4250 1425 4250 
Q 1250 4250 1050 4162 
Q 850 4075 850 3875 
Q 850 3675 900 3625 
Q 950 3575 950 3500 
Q 950 3375 900 3300 
Q 850 3225 725 3225 
Q 625 3225 537 3300 
Q 450 3375 450 3575 
Q 450 3950 775 4187 
Q 1100 4425 1525 4425 
Q 2025 4425 2325 4112 
Q 2625 3800 2625 3450 
Q 2625 3075 2437 2812 
Q 2250 2550 1850 2425 
Q 2400 2225 2600 1900 
Q 2800 1575 2800 1250 
z
" transform="scale(0.015625)"/>
       </defs>
       <use xlink:href="#SimSun-33"/>
       <use xlink:href="#SimSun-30" x="50"/>
      </g>
     </g>
    </g>
    <g id="xtick_5">
     <g id="line2d_5">
      <g>
       <use xlink:href="#m0af5fdfabf" x="432.64" y="461.376" style="stroke: #000000; stroke-width: 0.8"/>
      </g>
     </g>
     <g id="text_5">
      <!-- 40 -->
      <g transform="translate(423.14 481.958031) scale(0.19 -0.19)">
       <defs>
        <path id="SimSun-34" d="M 2300 575 
Q 2300 400 2400 325 
Q 2500 250 2675 250 
L 2900 250 
L 2900 100 
L 1250 100 
L 1250 250 
L 1525 250 
Q 1725 250 1812 325 
Q 1900 400 1900 575 
L 1900 1400 
L 225 1400 
L 225 1525 
L 2050 4425 
L 2300 4425 
L 2300 1550 
L 2975 1550 
L 2975 1400 
L 2300 1400 
L 2300 575 
z
M 1875 3800 
L 450 1550 
L 1900 1550 
L 1900 3800 
L 1875 3800 
z
" transform="scale(0.015625)"/>
       </defs>
       <use xlink:href="#SimSun-34"/>
       <use xlink:href="#SimSun-30" x="50"/>
      </g>
     </g>
    </g>
    <g id="xtick_6">
     <g id="line2d_6">
      <g>
       <use xlink:href="#m0af5fdfabf" x="512" y="461.376" style="stroke: #000000; stroke-width: 0.8"/>
      </g>
     </g>
     <g id="text_6">
      <!-- 50 -->
      <g transform="translate(502.5 481.958031) scale(0.19 -0.19)">
       <defs>
        <path id="SimSun-35" d="M 1725 2850 
Q 2200 2850 2500 2487 
Q 2800 2125 2800 1525 
Q 2800 850 2487 450 
Q 2175 50 1525 50 
Q 1075 50 725 312 
Q 375 575 375 950 
Q 375 1100 462 1212 
Q 550 1325 700 1325 
Q 850 1325 900 1225 
Q 950 1125 950 1050 
Q 950 900 875 825 
Q 800 725 800 625 
Q 800 425 1037 325 
Q 1275 225 1550 225 
Q 1950 225 2162 550 
Q 2375 875 2375 1475 
Q 2375 1975 2187 2287 
Q 2000 2600 1625 2600 
Q 1350 2600 1150 2500 
Q 950 2400 775 2075 
L 550 2100 
L 675 4375 
L 2725 4375 
L 2650 4000 
L 850 4000 
L 750 2350 
Q 1000 2700 1237 2775 
Q 1475 2850 1725 2850 
z
" transform="scale(0.015625)"/>
       </defs>
       <use xlink:href="#SimSun-35"/>
       <use xlink:href="#SimSun-30" x="50"/>
      </g>
     </g>
    </g>
    <g id="xtick_7">
     <g id="line2d_7">
      <g>
       <use xlink:href="#m0af5fdfabf" x="591.36" y="461.376" style="stroke: #000000; stroke-width: 0.8"/>
      </g>
     </g>
     <g id="text_7">
      <!-- 60 -->
      <g transform="translate(581.86 481.958031) scale(0.19 -0.19)">
       <defs>
        <path id="SimSun-36" d="M 775 1800 
Q 775 1050 1037 637 
Q 1300 225 1675 225 
Q 2050 225 2250 500 
Q 2450 775 2450 1525 
Q 2450 2025 2237 2300 
Q 2025 2575 1725 2575 
Q 1450 2575 1212 2412 
Q 975 2250 775 1800 
z
M 1750 2825 
Q 2350 2825 2612 2425 
Q 2875 2025 2875 1525 
Q 2875 775 2512 412 
Q 2150 50 1675 50 
Q 1000 50 650 562 
Q 300 1075 300 2050 
Q 300 3200 725 3812 
Q 1150 4425 1875 4425 
Q 2225 4425 2437 4225 
Q 2650 4025 2650 3875 
Q 2650 3725 2587 3650 
Q 2525 3575 2375 3575 
Q 2250 3575 2187 3637 
Q 2125 3700 2125 3825 
Q 2125 3875 2150 3925 
Q 2150 3975 2150 4025 
Q 2150 4125 2075 4187 
Q 2000 4250 1800 4250 
Q 1375 4250 1075 3862 
Q 775 3475 775 2175 
Q 925 2500 1187 2662 
Q 1450 2825 1750 2825 
z
" transform="scale(0.015625)"/>
       </defs>
       <use xlink:href="#SimSun-36"/>
       <use xlink:href="#SimSun-30" x="50"/>
      </g>
     </g>
    </g>
    <g id="xtick_8">
     <g id="line2d_8">
      <g>
       <use xlink:href="#m0af5fdfabf" x="670.72" y="461.376" style="stroke: #000000; stroke-width: 0.8"/>
      </g>
     </g>
     <g id="text_8">
      <!-- 70 -->
      <g transform="translate(661.22 481.958031) scale(0.19 -0.19)">
       <defs>
        <path id="SimSun-37" d="M 2825 4200 
Q 2300 3350 1987 2537 
Q 1675 1725 1675 1125 
Q 1675 1025 1700 850 
Q 1700 650 1700 400 
Q 1700 200 1637 125 
Q 1575 50 1425 50 
Q 1300 50 1212 137 
Q 1125 225 1125 450 
Q 1125 925 1337 1625 
Q 1550 2325 2475 4000 
L 1225 4000 
Q 950 4000 787 3825 
Q 625 3650 550 3300 
L 400 3325 
L 575 4375 
L 2825 4375 
L 2825 4200 
z
" transform="scale(0.015625)"/>
       </defs>
       <use xlink:href="#SimSun-37"/>
       <use xlink:href="#SimSun-30" x="50"/>
      </g>
     </g>
    </g>
    <g id="xtick_9">
     <g id="line2d_9">
      <g>
       <use xlink:href="#m0af5fdfabf" x="750.08" y="461.376" style="stroke: #000000; stroke-width: 0.8"/>
      </g>
     </g>
     <g id="text_9">
      <!-- 80 -->
      <g transform="translate(740.58 481.958031) scale(0.19 -0.19)">
       <defs>
        <path id="SimSun-38" d="M 625 1125 
Q 625 725 887 475 
Q 1150 225 1550 225 
Q 2025 225 2237 475 
Q 2450 725 2450 1100 
Q 2450 1425 2150 1725 
Q 1850 2025 1250 2275 
Q 950 2075 787 1775 
Q 625 1475 625 1125 
z
M 2825 1175 
Q 2825 700 2475 375 
Q 2125 50 1550 50 
Q 1025 50 650 375 
Q 275 700 275 1125 
Q 275 1550 487 1850 
Q 700 2150 1100 2375 
Q 750 2550 562 2812 
Q 375 3075 375 3400 
Q 375 3825 700 4125 
Q 1025 4425 1600 4425 
Q 2125 4425 2450 4125 
Q 2775 3825 2775 3400 
Q 2775 3100 2587 2837 
Q 2400 2575 2000 2375 
Q 2425 2125 2625 1825 
Q 2825 1525 2825 1175 
z
M 2425 3375 
Q 2425 3725 2225 3987 
Q 2025 4250 1600 4250 
Q 1125 4250 925 4000 
Q 725 3750 725 3475 
Q 725 3200 1012 2937 
Q 1300 2675 1825 2475 
Q 2125 2625 2275 2850 
Q 2425 3075 2425 3375 
z
" transform="scale(0.015625)"/>
       </defs>
       <use xlink:href="#SimSun-38"/>
       <use xlink:href="#SimSun-30" x="50"/>
      </g>
     </g>
    </g>
    <g id="xtick_10">
     <g id="line2d_10">
      <g>
       <use xlink:href="#m0af5fdfabf" x="829.44" y="461.376" style="stroke: #000000; stroke-width: 0.8"/>
      </g>
     </g>
     <g id="text_10">
      <!-- 90 -->
      <g transform="translate(819.94 481.958031) scale(0.19 -0.19)">
       <defs>
        <path id="SimSun-39" d="M 700 3050 
Q 700 2500 912 2212 
Q 1125 1925 1450 1925 
Q 1825 1925 2100 2275 
Q 2375 2625 2375 2925 
Q 2375 3525 2175 3887 
Q 1975 4250 1525 4250 
Q 1100 4250 900 3912 
Q 700 3575 700 3050 
z
M 1375 1700 
Q 875 1700 575 2012 
Q 275 2325 275 3025 
Q 275 3625 600 4025 
Q 925 4425 1525 4425 
Q 2150 4425 2500 3925 
Q 2850 3425 2850 2475 
Q 2850 1425 2437 737 
Q 2025 50 1300 50 
Q 975 50 737 200 
Q 500 350 500 600 
Q 500 700 562 800 
Q 625 900 775 900 
Q 925 900 975 787 
Q 1025 675 1025 525 
Q 1025 425 1050 362 
Q 1075 300 1100 275 
Q 1125 250 1187 237 
Q 1250 225 1325 225 
Q 1775 225 2050 725 
Q 2325 1225 2375 2400 
Q 2250 2100 2000 1900 
Q 1750 1700 1375 1700 
z
" transform="scale(0.015625)"/>
       </defs>
       <use xlink:href="#SimSun-39"/>
       <use xlink:href="#SimSun-30" x="50"/>
      </g>
     </g>
    </g>
    <g id="text_11">
     <!-- 时间 $\mathrm{(s)}$ -->
     <g transform="translate(438.5 503.98725) scale(0.19 -0.19)">
      <defs>
       <path id="SimSun-65f6" d="M 4500 3600 
Q 4500 4575 4475 5225 
L 5100 4900 
L 4850 4725 
L 4850 3600 
L 5225 3600 
L 5550 3925 
L 6025 3450 
L 4850 3450 
L 4850 100 
Q 4850 -375 4300 -575 
Q 4275 -200 3475 -25 
L 3475 100 
Q 4150 0 4325 25 
Q 4500 50 4500 325 
L 4500 3450 
L 3200 3450 
Q 2875 3450 2600 3375 
L 2375 3600 
L 4500 3600 
z
M 2875 2825 
Q 3525 2375 3637 2200 
Q 3750 2025 3750 1925 
Q 3750 1800 3637 1637 
Q 3525 1475 3475 1475 
Q 3400 1475 3325 1775 
Q 3200 2225 2800 2750 
L 2875 2825 
z
M 925 4150 
L 925 2650 
L 1950 2650 
L 1950 4150 
L 925 4150 
z
M 925 2500 
L 925 900 
L 1950 900 
L 1950 2500 
L 925 2500 
z
M 2300 2000 
Q 2300 800 2325 450 
L 1950 250 
L 1950 750 
L 925 750 
L 925 225 
L 550 25 
Q 575 825 575 2425 
Q 575 4025 550 4500 
L 950 4300 
L 1900 4300 
L 2100 4550 
L 2500 4225 
L 2300 4050 
L 2300 2000 
z
" transform="scale(0.015625)"/>
       <path id="SimSun-95f4" d="M 2150 525 
Q 2175 1325 2175 2112 
Q 2175 2900 2150 3675 
L 2525 3450 
L 3750 3450 
L 4000 3700 
L 4325 3375 
L 4125 3200 
Q 4125 1550 4150 775 
L 3800 575 
L 3800 975 
L 2500 975 
L 2500 700 
L 2150 525 
z
M 2500 3300 
L 2500 2325 
L 3800 2325 
L 3800 3300 
L 2500 3300 
z
M 2500 2175 
L 2500 1125 
L 3800 1125 
L 3800 2175 
L 2500 2175 
z
M 1275 5200 
Q 1850 4825 1950 4675 
Q 2050 4525 2050 4425 
Q 2050 4275 1950 4137 
Q 1850 4000 1825 4000 
Q 1750 4000 1675 4275 
Q 1550 4650 1200 5125 
L 1275 5200 
z
M 1125 425 
Q 1125 25 1150 -375 
L 750 -525 
Q 775 -150 775 1950 
Q 775 4050 750 4425 
L 1350 4125 
L 1125 3975 
L 1125 425 
z
M 4225 125 
Q 5025 0 5125 37 
Q 5225 75 5225 250 
L 5225 4450 
L 3225 4450 
Q 2900 4450 2625 4375 
L 2400 4600 
L 5175 4600 
L 5425 4850 
L 5775 4500 
L 5575 4350 
L 5575 225 
Q 5575 -100 5462 -250 
Q 5350 -400 5000 -550 
Q 4800 -125 4225 25 
L 4225 125 
z
" transform="scale(0.015625)"/>
       <path id="SimSun-20" d="M 0 0 
Q 0 0 0 0 
z
" transform="scale(0.015625)"/>
       <path id="STIXGeneral-Regular-28" d="M 1946 -1030 
L 1869 -1133 
Q 1126 -710 716 32 
Q 307 774 307 1613 
Q 307 3386 1888 4326 
L 1946 4224 
Q 1293 3667 1075 3126 
Q 858 2586 858 1632 
Q 858 685 1082 96 
Q 1306 -493 1946 -1030 
z
" transform="scale(0.015625)"/>
       <path id="STIXGeneral-Regular-73" d="M 998 1926 
L 1664 1523 
Q 1984 1331 2105 1164 
Q 2227 998 2227 736 
Q 2227 416 1961 176 
Q 1696 -64 1331 -64 
Q 1030 -64 864 -6 
Q 691 51 570 51 
Q 461 51 416 -26 
L 333 -26 
L 333 979 
L 435 979 
Q 538 512 730 294 
Q 922 77 1248 77 
Q 1485 77 1632 211 
Q 1779 346 1779 550 
Q 1779 845 1440 1030 
L 1094 1222 
Q 326 1651 326 2150 
Q 326 2522 566 2730 
Q 806 2938 1210 2938 
Q 1491 2938 1638 2867 
Q 1754 2816 1818 2816 
Q 1862 2816 1920 2880 
L 1990 2880 
L 2022 2010 
L 1926 2010 
Q 1818 2445 1654 2621 
Q 1491 2797 1203 2797 
Q 986 2797 854 2688 
Q 723 2579 723 2362 
Q 723 2253 796 2128 
Q 870 2003 998 1926 
z
" transform="scale(0.015625)"/>
       <path id="STIXGeneral-Regular-29" d="M 186 4224 
L 262 4326 
Q 992 3891 1408 3148 
Q 1824 2406 1824 1581 
Q 1824 -166 243 -1133 
L 186 -1030 
Q 845 -486 1059 54 
Q 1274 595 1274 1562 
Q 1274 2534 1059 3120 
Q 845 3706 186 4224 
z
" transform="scale(0.015625)"/>
      </defs>
      <use xlink:href="#SimSun-65f6" transform="translate(0 0.359375)"/>
      <use xlink:href="#SimSun-95f4" transform="translate(100 0.359375)"/>
      <use xlink:href="#SimSun-20" transform="translate(200 0.359375)"/>
      <use xlink:href="#STIXGeneral-Regular-28" transform="translate(250 0.359375)"/>
      <use xlink:href="#STIXGeneral-Regular-73" transform="translate(283.299988 0.359375)"/>
      <use xlink:href="#STIXGeneral-Regular-29" transform="translate(322.199982 0.359375)"/>
     </g>
    </g>
   </g>
   <g id="matplotlib.axis_2">
    <g id="ytick_1">
     <g id="line2d_11">
      <defs>
       <path id="m8947a65cad" d="M 0 0 
L -3.5 0 
" style="stroke: #000000; stroke-width: 0.8"/>
      </defs>
      <g>
       <use xlink:href="#m8947a65cad" x="115.2" y="461.376" style="stroke: #000000; stroke-width: 0.8"/>
      </g>
     </g>
     <g id="text_12">
      <!-- 0 -->
      <g transform="translate(98.7 468.167016) scale(0.19 -0.19)">
       <use xlink:href="#SimSun-30"/>
      </g>
     </g>
    </g>
    <g id="ytick_2">
     <g id="line2d_12">
      <g>
       <use xlink:href="#m8947a65cad" x="115.2" y="421.4592" style="stroke: #000000; stroke-width: 0.8"/>
      </g>
     </g>
     <g id="text_13">
      <!-- 10 -->
      <g transform="translate(89.2 428.250216) scale(0.19 -0.19)">
       <use xlink:href="#SimSun-31"/>
       <use xlink:href="#SimSun-30" x="50"/>
      </g>
     </g>
    </g>
    <g id="ytick_3">
     <g id="line2d_13">
      <g>
       <use xlink:href="#m8947a65cad" x="115.2" y="381.5424" style="stroke: #000000; stroke-width: 0.8"/>
      </g>
     </g>
     <g id="text_14">
      <!-- 20 -->
      <g transform="translate(89.2 388.333416) scale(0.19 -0.19)">
       <use xlink:href="#SimSun-32"/>
       <use xlink:href="#SimSun-30" x="50"/>
      </g>
     </g>
    </g>
    <g id="ytick_4">
     <g id="line2d_14">
      <g>
       <use xlink:href="#m8947a65cad" x="115.2" y="341.6256" style="stroke: #000000; stroke-width: 0.8"/>
      </g>
     </g>
     <g id="text_15">
      <!-- 30 -->
      <g transform="translate(89.2 348.416616) scale(0.19 -0.19)">
       <use xlink:href="#SimSun-33"/>
       <use xlink:href="#SimSun-30" x="50"/>
      </g>
     </g>
    </g>
    <g id="ytick_5">
     <g id="line2d_15">
      <g>
       <use xlink:href="#m8947a65cad" x="115.2" y="301.7088" style="stroke: #000000; stroke-width: 0.8"/>
      </g>
     </g>
     <g id="text_16">
      <!-- 40 -->
      <g transform="translate(89.2 308.499816) scale(0.19 -0.19)">
       <use xlink:href="#SimSun-34"/>
       <use xlink:href="#SimSun-30" x="50"/>
      </g>
     </g>
    </g>
    <g id="ytick_6">
     <g id="line2d_16">
      <g>
       <use xlink:href="#m8947a65cad" x="115.2" y="261.792" style="stroke: #000000; stroke-width: 0.8"/>
      </g>
     </g>
     <g id="text_17">
      <!-- 50 -->
      <g transform="translate(89.2 268.583016) scale(0.19 -0.19)">
       <use xlink:href="#SimSun-35"/>
       <use xlink:href="#SimSun-30" x="50"/>
      </g>
     </g>
    </g>
    <g id="ytick_7">
     <g id="line2d_17">
      <g>
       <use xlink:href="#m8947a65cad" x="115.2" y="221.8752" style="stroke: #000000; stroke-width: 0.8"/>
      </g>
     </g>
     <g id="text_18">
      <!-- 60 -->
      <g transform="translate(89.2 228.666216) scale(0.19 -0.19)">
       <use xlink:href="#SimSun-36"/>
       <use xlink:href="#SimSun-30" x="50"/>
      </g>
     </g>
    </g>
    <g id="ytick_8">
     <g id="line2d_18">
      <g>
       <use xlink:href="#m8947a65cad" x="115.2" y="181.9584" style="stroke: #000000; stroke-width: 0.8"/>
      </g>
     </g>
     <g id="text_19">
      <!-- 70 -->
      <g transform="translate(89.2 188.749416) scale(0.19 -0.19)">
       <use xlink:href="#SimSun-37"/>
       <use xlink:href="#SimSun-30" x="50"/>
      </g>
     </g>
    </g>
    <g id="ytick_9">
     <g id="line2d_19">
      <g>
       <use xlink:href="#m8947a65cad" x="115.2" y="142.0416" style="stroke: #000000; stroke-width: 0.8"/>
      </g>
     </g>
     <g id="text_20">
      <!-- 80 -->
      <g transform="translate(89.2 148.832616) scale(0.19 -0.19)">
       <use xlink:href="#SimSun-38"/>
       <use xlink:href="#SimSun-30" x="50"/>
      </g>
     </g>
    </g>
    <g id="ytick_10">
     <g id="line2d_20">
      <g>
       <use xlink:href="#m8947a65cad" x="115.2" y="102.1248" style="stroke: #000000; stroke-width: 0.8"/>
      </g>
     </g>
     <g id="text_21">
      <!-- 90 -->
      <g transform="translate(89.2 108.915816) scale(0.19 -0.19)">
       <use xlink:href="#SimSun-39"/>
       <use xlink:href="#SimSun-30" x="50"/>
      </g>
     </g>
    </g>
    <g id="ytick_11">
     <g id="line2d_21">
      <g>
       <use xlink:href="#m8947a65cad" x="115.2" y="62.208" style="stroke: #000000; stroke-width: 0.8"/>
      </g>
     </g>
     <g id="text_22">
      <!-- 100 -->
      <g transform="translate(79.7 68.999016) scale(0.19 -0.19)">
       <use xlink:href="#SimSun-31"/>
       <use xlink:href="#SimSun-30" x="50"/>
       <use xlink:href="#SimSun-30" x="100"/>
      </g>
     </g>
    </g>
    <g id="text_23">
     <!-- 读取命中率 $\mathrm{(\%)}$ -->
     <g transform="translate(72.28 327.532) rotate(-90) scale(0.19 -0.19)">
      <defs>
       <path id="SimSun-8bfb" d="M 1450 275 
L 2375 850 
L 2425 775 
Q 1600 50 1325 -325 
L 1025 50 
Q 1125 175 1125 400 
L 1125 2850 
L 1050 2850 
Q 725 2850 450 2775 
L 225 3000 
L 1125 3000 
L 1350 3225 
L 1675 2900 
L 1450 2725 
L 1450 275 
z
M 750 4925 
L 800 5000 
Q 1150 4800 1387 4600 
Q 1625 4400 1587 4200 
Q 1550 4000 1400 3925 
Q 1250 3850 1175 4200 
Q 1100 4525 750 4925 
z
M 5100 2700 
L 5425 3325 
L 2575 3325 
Q 2375 3325 2100 3250 
L 1875 3475 
L 3650 3475 
L 3650 4250 
L 3025 4250 
Q 2700 4250 2425 4175 
L 2200 4400 
L 3650 4400 
Q 3650 4825 3625 5250 
L 4175 5000 
L 3975 4825 
L 3975 4400 
L 4875 4400 
L 5150 4675 
L 5550 4250 
L 3975 4250 
L 3975 3475 
L 5375 3475 
L 5625 3750 
L 6075 3300 
Q 5725 3275 5200 2650 
L 5100 2700 
z
M 2750 2925 
L 2775 3000 
Q 3350 2825 3462 2687 
Q 3575 2550 3575 2450 
Q 3575 2350 3512 2250 
Q 3450 2150 3425 2150 
Q 3350 2150 3275 2350 
Q 3125 2625 2750 2925 
z
M 2375 2275 
Q 2975 2075 3100 1950 
Q 3225 1825 3225 1700 
Q 3225 1625 3162 1512 
Q 3100 1400 3075 1400 
Q 3000 1400 2900 1625 
Q 2725 1925 2350 2200 
L 2375 2275 
z
M 4475 2625 
Q 4425 1550 4350 1175 
L 5275 1175 
L 5600 1500 
L 6050 1025 
L 4325 1025 
Q 4250 825 4125 575 
Q 4850 350 5200 150 
Q 5550 -50 5600 -237 
Q 5650 -425 5587 -500 
Q 5525 -575 5475 -575 
Q 5350 -575 5175 -325 
Q 4925 25 4075 475 
Q 3425 -425 1975 -650 
L 1950 -550 
Q 3600 -100 3975 1025 
L 2700 1025 
Q 2500 1025 2225 950 
L 2000 1175 
L 4000 1175 
Q 4100 1800 4100 3075 
L 4675 2800 
L 4475 2625 
z
" transform="scale(0.015625)"/>
       <path id="SimSun-53d6" d="M 1300 2225 
L 1300 1125 
L 2425 1350 
L 2425 2225 
L 1300 2225 
z
M 2750 1225 
Q 2750 100 2775 -350 
L 2400 -575 
Q 2425 125 2425 1150 
Q 775 700 575 425 
L 325 925 
Q 625 975 975 1050 
L 975 4650 
L 775 4650 
L 525 4600 
L 325 4800 
L 2675 4800 
L 2975 5100 
L 3425 4650 
L 2750 4650 
L 2750 1425 
L 3500 1575 
L 3525 1475 
L 2750 1225 
z
M 1300 4650 
L 1300 3600 
L 2425 3600 
L 2425 4650 
L 1300 4650 
z
M 2425 3450 
L 1300 3450 
L 1300 2375 
L 2425 2375 
L 2425 3450 
z
M 2925 4175 
L 5050 4175 
L 5250 4425 
L 5700 4075 
L 5475 3925 
Q 5100 2350 4550 1275 
Q 5200 375 6100 125 
L 6100 25 
Q 5775 -25 5600 -275 
Q 4875 225 4375 975 
Q 3700 25 2825 -525 
L 2775 -450 
Q 3650 325 4175 1250 
Q 3650 2625 3525 4025 
L 3350 4025 
L 3125 3975 
L 2925 4175 
z
M 3650 4025 
Q 3900 2525 4350 1600 
Q 4825 2650 5075 4025 
L 3650 4025 
z
" transform="scale(0.015625)"/>
       <path id="SimSun-547d" d="M 1775 3150 
L 3650 3150 
L 3950 3450 
L 4400 3000 
L 2550 3000 
Q 2225 3000 2000 2925 
L 1775 3150 
z
M 1450 2125 
L 1450 575 
L 2400 575 
L 2400 2125 
L 1450 2125 
z
M 1100 -250 
Q 1125 525 1125 1125 
Q 1125 1725 1100 2500 
L 1450 2275 
L 2350 2275 
L 2525 2500 
L 2900 2200 
L 2725 2050 
Q 2725 550 2750 150 
L 2400 0 
L 2400 425 
L 1450 425 
L 1450 -100 
L 1100 -250 
z
M 3775 2175 
L 3775 -450 
L 3425 -625 
Q 3450 75 3450 1050 
Q 3450 2025 3425 2550 
L 3775 2325 
L 4825 2325 
L 5000 2575 
L 5400 2275 
L 5200 2100 
L 5200 525 
Q 5225 75 4700 -125 
Q 4700 150 4025 325 
L 4025 425 
Q 4550 375 4712 375 
Q 4875 375 4875 700 
L 4875 2175 
L 3775 2175 
z
M 2975 5275 
L 3475 4900 
L 3250 4725 
Q 3750 4025 4450 3625 
Q 5150 3225 6125 3075 
L 6125 2975 
Q 5700 2950 5550 2625 
Q 4650 3050 4112 3500 
Q 3575 3950 3150 4650 
Q 2600 3900 1962 3362 
Q 1325 2825 275 2425 
L 225 2525 
Q 1250 2975 1962 3750 
Q 2675 4525 2975 5275 
z
" transform="scale(0.015625)"/>
       <path id="SimSun-4e2d" d="M 3325 3625 
L 3325 1975 
L 5125 1975 
L 5125 3625 
L 3325 3625 
z
M 2950 3775 
Q 2950 4750 2925 5250 
L 3525 4975 
L 3325 4775 
L 3325 3775 
L 5075 3775 
L 5275 4075 
L 5700 3750 
L 5475 3550 
L 5475 2100 
Q 5475 1825 5500 1525 
L 5125 1375 
L 5125 1825 
L 3325 1825 
Q 3325 -75 3350 -400 
L 2925 -625 
Q 2950 -50 2950 1825 
L 1225 1825 
L 1225 1525 
L 850 1325 
Q 875 1775 875 2625 
Q 875 3475 850 4000 
L 1225 3775 
L 2950 3775 
z
M 1225 3625 
L 1225 1975 
L 2950 1975 
L 2950 3625 
L 1225 3625 
z
" transform="scale(0.015625)"/>
       <path id="SimSun-7387" d="M 875 3725 
L 925 3800 
Q 1375 3650 1550 3525 
Q 1725 3400 1725 3250 
Q 1725 3175 1662 3025 
Q 1600 2875 1550 2875 
Q 1500 2875 1425 3050 
Q 1275 3325 875 3725 
z
M 550 1850 
Q 875 1925 2000 2575 
L 2050 2500 
Q 1675 2225 1337 1937 
Q 1000 1650 875 1425 
L 550 1850 
z
M 5200 3450 
Q 4800 3150 4275 2800 
L 4225 2875 
Q 4775 3400 5050 3925 
L 5450 3525 
L 5200 3450 
z
M 4325 2500 
L 4350 2575 
Q 5225 2350 5375 2212 
Q 5525 2075 5525 1900 
Q 5525 1775 5487 1662 
Q 5450 1550 5400 1550 
Q 5325 1550 5200 1800 
Q 4975 2150 4325 2500 
z
M 3150 3900 
Q 2500 3300 2300 3150 
Q 2800 3150 3400 3175 
Q 3700 3500 3850 3825 
L 4250 3450 
Q 4050 3400 3450 2825 
Q 2850 2250 2475 1950 
Q 3150 1975 3850 2000 
Q 3750 2175 3550 2450 
L 3600 2500 
Q 4050 2250 4200 2100 
Q 4350 1950 4350 1850 
Q 4350 1775 4250 1625 
Q 4150 1475 4100 1475 
Q 4075 1475 4050 1550 
Q 4000 1700 3900 1900 
Q 3650 1875 3075 1800 
L 3500 1550 
L 3325 1425 
L 3325 975 
L 5325 975 
L 5650 1300 
L 6100 825 
L 3325 825 
Q 3325 -275 3350 -525 
L 2975 -650 
Q 3000 0 3000 825 
L 1125 825 
Q 800 825 525 750 
L 300 975 
L 3000 975 
L 3000 1775 
Q 2450 1700 2200 1525 
L 1950 1950 
Q 2275 1950 2675 2350 
Q 3075 2750 3325 3050 
Q 2400 2950 2150 2775 
L 1950 3175 
Q 2150 3150 2475 3575 
Q 2800 4000 2900 4225 
L 1450 4225 
Q 1125 4225 850 4150 
L 625 4375 
L 3100 4375 
Q 3050 4800 2675 5200 
L 2725 5250 
Q 3225 5050 3337 4912 
Q 3450 4775 3450 4700 
Q 3450 4550 3250 4375 
L 5025 4375 
L 5350 4675 
L 5775 4225 
L 3050 4225 
L 3375 3950 
L 3150 3900 
z
" transform="scale(0.015625)"/>
       <path id="STIXGeneral-Regular-25" d="M 4390 1363 
Q 4390 781 4070 329 
Q 3750 -122 3341 -122 
Q 3014 -122 2790 134 
Q 2566 390 2566 762 
Q 2566 1274 2940 1693 
Q 3315 2112 3776 2112 
Q 4070 2112 4230 1917 
Q 4390 1722 4390 1363 
z
M 4243 1376 
Q 4243 1626 4131 1779 
Q 4019 1933 3840 1933 
Q 3654 1933 3526 1786 
Q 3315 1562 3171 1187 
Q 3027 813 3027 486 
Q 3027 301 3129 176 
Q 3232 51 3386 51 
Q 3718 51 3980 457 
Q 4243 864 4243 1376 
z
M 3974 4518 
L 1222 -115 
L 922 -115 
L 3443 4096 
Q 3264 3891 3094 3811 
Q 2925 3731 2669 3731 
Q 2445 3731 2182 3821 
Q 2208 3674 2208 3539 
Q 2208 3206 2067 2873 
Q 1926 2541 1696 2323 
Q 1453 2086 1146 2086 
Q 826 2086 608 2339 
Q 390 2592 390 2963 
Q 390 3507 761 3916 
Q 1133 4326 1626 4326 
Q 1792 4326 2010 4147 
Q 2310 3898 2624 3898 
Q 2918 3898 3084 3994 
Q 3251 4090 3693 4518 
L 3974 4518 
z
M 2054 3642 
Q 2054 3782 2025 3833 
Q 1997 3885 1894 3936 
Q 1747 4006 1613 4154 
Q 1414 4058 1331 3984 
Q 1248 3910 1152 3750 
Q 845 3264 845 2707 
Q 845 2509 944 2384 
Q 1043 2259 1210 2259 
Q 1549 2259 1801 2675 
Q 2054 3091 2054 3642 
z
" transform="scale(0.015625)"/>
      </defs>
      <use xlink:href="#SimSun-8bfb" transform="translate(0 0.578125)"/>
      <use xlink:href="#SimSun-53d6" transform="translate(100 0.578125)"/>
      <use xlink:href="#SimSun-547d" transform="translate(200 0.578125)"/>
      <use xlink:href="#SimSun-4e2d" transform="translate(300 0.578125)"/>
      <use xlink:href="#SimSun-7387" transform="translate(400 0.578125)"/>
      <use xlink:href="#SimSun-20" transform="translate(500 0.578125)"/>
      <use xlink:href="#STIXGeneral-Regular-28" transform="translate(550 0.578125)"/>
      <use xlink:href="#STIXGeneral-Regular-25" transform="translate(583.299988 0.578125)"/>
      <use xlink:href="#STIXGeneral-Regular-29" transform="translate(657.999969 0.578125)"/>
     </g>
    </g>
   </g>
   <g id="line2d_22">
    <path d="M 123.136 270.025638 
L 132.57984 209.545699 
L 141.07136 190.332146 
L 149.7216 176.762829 
L 158.4512 174.60373 
L 167.41888 169.529506 
L 176.54528 173.935123 
L 185.67168 166.9896 
L 194.9568 160.656001 
L 204.24192 154.542344 
L 213.68576 144.00391 
L 223.1296 155.254061 
L 232.57344 158.899662 
L 242.09664 154.781845 
L 251.61984 150.62491 
L 261.2224 150.38501 
L 270.90432 153.596316 
L 280.58624 153.765563 
L 290.34752 154.438161 
L 300.02944 161.391269 
L 309.79072 151.38772 
L 319.47264 151.424044 
L 329.0752 155.519907 
L 338.75712 155.146285 
L 348.43904 160.376983 
L 358.12096 156.220846 
L 367.80288 153.413497 
L 377.40544 162.29738 
L 387.008 163.0075 
L 396.5312 159.87004 
L 406.0544 164.18784 
L 415.5776 161.228009 
L 425.02144 166.506607 
L 434.46528 162.708922 
L 443.90912 163.235026 
L 453.2736 171.280656 
L 462.63808 172.327674 
L 471.9232 166.157734 
L 481.20832 166.752095 
L 490.41408 167.958381 
L 499.61984 171.359691 
L 508.8256 170.100316 
L 517.952 166.497426 
L 527.0784 174.86758 
L 536.12544 179.373388 
L 545.17248 176.662638 
L 554.21952 173.925942 
L 563.1872 168.533183 
L 572.07552 176.433516 
L 580.96384 180.792829 
L 589.85216 182.294899 
L 598.74048 186.070629 
L 607.54944 181.225927 
L 616.19968 184.695495 
L 624.92928 189.507465 
L 633.57952 187.838145 
L 642.22976 184.463978 
L 650.88 185.477066 
L 659.53024 190.840287 
L 668.02176 204.019617 
L 676.59264 213.459142 
L 685.0048 211.917954 
L 693.49632 216.394623 
L 701.90848 220.322436 
L 710.24128 223.383656 
L 718.57408 227.726205 
L 726.82752 226.806122 
L 735.08096 227.897847 
L 743.41376 229.053837 
L 751.58784 221.429329 
" clip-path="url(#pd90a61da68)" style="fill: none; stroke: #d62728; stroke-width: 1.5; stroke-linecap: square"/>
   </g>
   <g id="line2d_23">
    <path d="M 123.136 256.903789 
L 131.78624 219.01077 
L 140.27776 202.805747 
L 149.00736 193.637657 
L 157.81632 190.979597 
L 166.784 172.177586 
L 175.83104 180.167732 
L 185.0368 177.615452 
L 194.24256 176.979977 
L 203.52768 176.297399 
L 212.89216 175.206473 
L 222.25664 177.777514 
L 231.70048 176.866214 
L 241.14432 173.132396 
L 250.66752 173.055357 
L 260.27008 172.873336 
L 269.79328 175.681882 
L 279.39584 171.761254 
L 289.07776 171.481837 
L 298.75968 175.358556 
L 308.4416 171.932098 
L 318.04416 167.817075 
L 327.80544 174.310341 
L 337.48736 181.056679 
L 347.24864 171.044349 
L 356.93056 174.811696 
L 366.61248 175.243995 
L 376.37376 174.75222 
L 386.05568 175.037226 
L 395.7376 175.95172 
L 405.41952 176.723711 
L 415.10144 179.274394 
L 424.78336 176.715727 
L 434.38592 177.502088 
L 443.98848 174.07603 
L 453.59104 175.274332 
L 463.1936 181.519315 
L 472.79616 175.666315 
L 482.31936 179.194162 
L 491.84256 178.814154 
L 501.36576 180.384081 
L 510.88896 181.285403 
L 520.3328 181.415532 
L 529.77664 181.74724 
L 539.22048 179.004956 
L 548.58496 182.360761 
L 557.94944 183.190232 
L 567.39328 184.776127 
L 576.6784 181.062268 
L 586.04288 184.877516 
L 595.24864 182.85054 
L 604.53376 182.534799 
L 613.81888 186.376791 
L 623.02464 187.260549 
L 632.15104 188.243699 
L 641.3568 187.773479 
L 650.4832 185.880226 
L 659.6096 189.651565 
L 668.736 190.13376 
L 677.78304 191.972328 
L 686.83008 196.117687 
L 695.87712 196.229854 
L 704.92416 191.415488 
L 713.89184 196.500889 
L 722.85952 203.528241 
L 731.8272 202.028168 
L 740.71552 205.607108 
L 749.60384 209.052327 
L 758.49216 199.879047 
" clip-path="url(#pd90a61da68)" style="fill: none; stroke: #ff7f0e; stroke-width: 1.5; stroke-linecap: square"/>
   </g>
   <g id="line2d_24">
    <path d="M 123.136 277.8641 
L 132.42112 251.133017 
L 140.91264 226.526306 
L 149.56288 217.047263 
L 158.29248 208.854739 
L 167.1808 208.951338 
L 176.14848 203.767343 
L 185.27488 208.189326 
L 194.40128 200.424311 
L 203.60704 198.944595 
L 212.89216 198.602109 
L 222.17728 201.56154 
L 231.54176 199.979638 
L 240.90624 199.569293 
L 250.35008 202.578221 
L 259.79392 195.318553 
L 269.1584 194.879867 
L 278.6816 196.794676 
L 288.2048 193.980941 
L 297.728 197.78621 
L 307.33056 194.06277 
L 316.85376 200.56881 
L 326.45632 191.151638 
L 336.13824 193.997307 
L 345.7408 197.009828 
L 355.34336 196.976697 
L 365.02528 194.226429 
L 374.7072 194.12544 
L 384.38912 193.394962 
L 394.1504 191.352819 
L 403.83232 197.112414 
L 413.51424 197.498809 
L 423.27552 194.098296 
L 433.0368 193.525889 
L 442.71872 197.229769 
L 452.40064 197.123591 
L 462.16192 197.920729 
L 471.84384 194.279519 
L 481.52576 197.395025 
L 491.28704 197.924322 
L 500.96896 195.867808 
L 510.65088 198.288762 
L 520.3328 195.277838 
L 530.01472 195.015984 
L 539.69664 198.739423 
L 549.2992 195.277439 
L 558.98112 199.780054 
L 568.58368 199.451938 
L 578.18624 202.630113 
L 587.7888 199.016046 
L 597.39136 199.953692 
L 606.99392 200.178823 
L 616.59648 199.606815 
L 626.11968 199.164936 
L 635.72224 193.550638 
L 645.24544 201.232227 
L 654.76864 201.426622 
L 664.3712 201.304875 
L 673.81504 197.407399 
L 683.33824 198.77415 
L 692.86144 202.117182 
L 702.30528 204.636731 
L 711.74912 202.007012 
L 721.19296 203.282354 
L 730.6368 202.678812 
L 740.08064 209.77562 
L 749.44512 210.264201 
L 758.8096 213.58488 
L 768.09472 213.275924 
L 777.37984 213.815998 
L 786.74432 204.600406 
" clip-path="url(#pd90a61da68)" style="fill: none; stroke: #e377c2; stroke-width: 1.5; stroke-linecap: square"/>
   </g>
   <g id="line2d_25">
    <path d="M 123.136 283.496361 
L 132.10368 262.541238 
L 140.51584 242.216003 
L 149.24544 237.872656 
L 157.89568 235.967427 
L 166.70464 227.193714 
L 175.5136 224.321302 
L 184.48128 223.522566 
L 193.52832 218.878646 
L 202.65472 223.695406 
L 211.78112 226.092011 
L 221.06624 222.057221 
L 230.272 218.566496 
L 239.55712 218.131802 
L 248.84224 221.058103 
L 258.20672 219.727676 
L 267.5712 219.470213 
L 276.93568 219.202371 
L 286.30016 216.058524 
L 295.744 212.86518 
L 305.18784 218.229599 
L 314.63168 218.53616 
L 324.07552 218.342563 
L 333.59872 218.565299 
L 343.12192 217.279978 
L 352.56576 218.004468 
L 362.08896 211.722362 
L 371.61216 214.471831 
L 381.21472 216.159114 
L 390.81728 216.521958 
L 400.34048 211.107244 
L 409.86368 219.540866 
L 419.5456 216.897974 
L 429.0688 219.125731 
L 438.75072 216.086865 
L 448.35328 213.344182 
L 458.0352 216.442923 
L 467.63776 212.526685 
L 477.39904 213.274726 
L 487.0016 219.22672 
L 496.76288 216.831712 
L 506.4448 215.896462 
L 516.12672 212.329097 
L 525.888 216.32916 
L 535.64928 216.076486 
L 545.3312 216.469667 
L 555.01312 215.640994 
L 564.69504 216.059322 
L 574.45632 218.115437 
L 584.13824 215.5424 
L 593.89952 218.23399 
L 603.6608 219.180816 
L 613.34272 218.79043 
L 623.02464 219.077032 
L 632.78592 221.650868 
L 642.46784 218.443553 
L 652.14976 219.488575 
L 661.91104 218.391661 
L 671.59296 216.303613 
L 681.35424 219.667003 
L 691.03616 219.651834 
L 700.71808 218.742929 
L 710.4 219.552042 
L 720.08192 216.579837 
L 729.8432 220.0043 
L 739.52512 219.967576 
L 749.20704 219.849422 
L 758.96832 219.326911 
L 768.65024 219.681373 
L 778.33216 219.917281 
L 788.01408 217.395737 
L 797.61664 227.896649 
L 807.29856 231.513111 
" clip-path="url(#pd90a61da68)" style="fill: none; stroke: #9467bd; stroke-width: 1.5; stroke-linecap: square"/>
   </g>
   <g id="line2d_26">
    <path d="M 123.136 315.881659 
L 131.4688 306.22339 
L 139.96032 297.35228 
L 148.45184 293.083179 
L 157.18144 289.957693 
L 165.91104 285.820317 
L 174.64064 286.775127 
L 183.37024 285.087045 
L 192.25856 284.42762 
L 201.14688 284.134231 
L 210.19392 283.54945 
L 219.24096 281.924836 
L 228.288 281.386758 
L 237.4144 281.421086 
L 246.5408 280.811956 
L 255.6672 278.576216 
L 264.95232 280.985594 
L 274.15808 279.788888 
L 283.36384 279.182951 
L 292.64896 281.775947 
L 301.93408 280.346526 
L 311.29856 278.135135 
L 320.58368 277.680483 
L 329.94816 278.442495 
L 339.23328 278.827293 
L 348.59776 277.011478 
L 358.0416 281.330076 
L 367.40608 277.853323 
L 376.84992 278.533904 
L 386.2144 277.943136 
L 395.65824 277.976666 
L 405.02272 277.874878 
L 414.46656 276.437474 
L 423.9104 277.326022 
L 433.4336 276.938829 
L 442.87744 277.579494 
L 452.32128 276.696933 
L 461.84448 277.885256 
L 471.36768 276.058663 
L 480.89088 279.290727 
L 490.41408 276.428293 
L 499.93728 275.088286 
L 509.53984 277.367535 
L 519.06304 275.348144 
L 528.6656 277.607834 
L 538.1888 277.377515 
L 547.79136 277.114862 
L 557.39392 275.988809 
L 567.07584 276.362031 
L 576.6784 277.303668 
L 586.28096 278.388208 
L 595.96288 276.04589 
L 605.56544 277.897231 
L 615.24736 278.104799 
L 624.84992 277.225432 
L 634.45248 276.860991 
L 644.1344 276.671386 
L 653.81632 276.8566 
L 663.49824 276.845823 
L 673.1008 277.685672 
L 682.78272 276.923661 
L 692.46464 277.912001 
L 702.14656 276.780758 
L 711.90784 276.86618 
L 721.58976 275.219612 
L 731.27168 280.163308 
L 740.9536 277.165956 
L 750.71488 277.692059 
L 760.3968 277.920383 
L 770.07872 279.832398 
L 789.44256 285.523336 
L 799.12448 281.039083 
L 808.8064 277.448167 
L 818.48832 281.490142 
" clip-path="url(#pd90a61da68)" style="fill: none; stroke: #1f77b4; stroke-width: 1.5; stroke-linecap: square"/>
   </g>
   <g id="patch_3">
    <path d="M 115.2 461.376 
L 115.2 62.208 
" style="fill: none; stroke: #000000; stroke-width: 0.8; stroke-linejoin: miter; stroke-linecap: square"/>
   </g>
   <g id="patch_4">
    <path d="M 829.44 461.376 
L 829.44 62.208 
" style="fill: none; stroke: #000000; stroke-width: 0.8; stroke-linejoin: miter; stroke-linecap: square"/>
   </g>
   <g id="patch_5">
    <path d="M 115.2 461.376 
L 829.44 461.376 
" style="fill: none; stroke: #000000; stroke-width: 0.8; stroke-linejoin: miter; stroke-linecap: square"/>
   </g>
   <g id="patch_6">
    <path d="M 115.2 62.208 
L 829.44 62.208 
" style="fill: none; stroke: #000000; stroke-width: 0.8; stroke-linejoin: miter; stroke-linecap: square"/>
   </g>
   <g id="text_24">
    <!-- $\mathrm{mica}$的读取命中率在不同$\mathrm{KV\ size}$情况下随时间的变化趋势 -->
    <g transform="translate(185.154 56.208) scale(0.228 -0.228)">
     <defs>
      <path id="STIXGeneral-Regular-6d" d="M 4960 0 
L 3565 0 
L 3565 96 
Q 3834 122 3907 208 
Q 3981 294 3981 576 
L 3981 1894 
Q 3981 2278 3869 2444 
Q 3757 2611 3488 2611 
Q 3264 2611 3107 2521 
Q 2950 2432 2803 2221 
L 2803 608 
Q 2803 301 2896 201 
Q 2989 102 3264 96 
L 3264 0 
L 1830 0 
L 1830 96 
Q 2112 115 2189 188 
Q 2266 262 2266 550 
L 2266 1901 
Q 2266 2611 1850 2611 
Q 1670 2611 1468 2531 
Q 1267 2451 1171 2336 
Q 1088 2240 1088 2227 
L 1088 448 
Q 1088 243 1177 176 
Q 1267 109 1523 96 
L 1523 0 
L 102 0 
L 102 96 
Q 371 102 460 195 
Q 550 288 550 563 
L 550 2150 
Q 550 2387 499 2480 
Q 448 2573 326 2573 
Q 230 2573 122 2547 
L 122 2656 
Q 557 2778 1011 2944 
L 1062 2925 
L 1062 2451 
L 1075 2451 
Q 1363 2752 1584 2848 
Q 1805 2944 2054 2944 
Q 2560 2944 2733 2406 
Q 3232 2944 3776 2944 
Q 4518 2944 4518 1792 
L 4518 493 
Q 4518 282 4582 202 
Q 4646 122 4794 109 
L 4960 96 
L 4960 0 
z
" transform="scale(0.015625)"/>
      <path id="STIXGeneral-Regular-69" d="M 1152 4045 
Q 1152 3904 1056 3811 
Q 960 3718 819 3718 
Q 685 3718 592 3811 
Q 499 3904 499 4045 
Q 499 4179 595 4275 
Q 691 4371 826 4371 
Q 966 4371 1059 4275 
Q 1152 4179 1152 4045 
z
M 1619 0 
L 102 0 
L 102 96 
Q 435 115 521 211 
Q 608 307 608 666 
L 608 2118 
Q 608 2342 563 2432 
Q 518 2522 397 2522 
Q 243 2522 128 2490 
L 128 2592 
L 1120 2944 
L 1146 2918 
L 1146 672 
Q 1146 314 1226 218 
Q 1306 122 1619 96 
L 1619 0 
z
" transform="scale(0.015625)"/>
      <path id="STIXGeneral-Regular-63" d="M 2547 998 
L 2637 941 
Q 2362 403 2112 205 
Q 1786 -64 1376 -64 
Q 845 -64 502 336 
Q 160 736 160 1357 
Q 160 2170 698 2618 
Q 1094 2944 1562 2944 
Q 1965 2944 2256 2749 
Q 2547 2554 2547 2285 
Q 2547 2176 2457 2096 
Q 2368 2016 2246 2016 
Q 2022 2016 1939 2310 
L 1901 2451 
Q 1850 2630 1773 2694 
Q 1696 2758 1523 2758 
Q 1133 2758 893 2451 
Q 653 2144 653 1645 
Q 653 1094 928 745 
Q 1203 397 1645 397 
Q 1920 397 2118 528 
Q 2317 659 2547 998 
z
" transform="scale(0.015625)"/>
      <path id="STIXGeneral-Regular-61" d="M 2829 422 
L 2829 243 
Q 2586 -64 2253 -64 
Q 1888 -64 1843 403 
L 1837 403 
Q 1427 -64 909 -64 
Q 608 -64 422 112 
Q 237 288 237 602 
Q 237 1050 685 1350 
Q 992 1555 1837 1869 
L 1837 2214 
Q 1837 2502 1699 2646 
Q 1562 2790 1338 2790 
Q 1146 2790 1018 2697 
Q 890 2605 890 2477 
Q 890 2419 909 2348 
Q 928 2278 928 2208 
Q 928 2112 841 2029 
Q 755 1946 634 1946 
Q 525 1946 441 2029 
Q 358 2112 358 2240 
Q 358 2547 685 2752 
Q 986 2944 1421 2944 
Q 1939 2944 2176 2656 
Q 2291 2522 2323 2384 
Q 2355 2246 2355 1946 
L 2355 723 
Q 2355 301 2554 301 
Q 2682 301 2829 422 
z
M 1837 813 
L 1837 1715 
Q 1248 1510 1018 1293 
Q 800 1094 800 800 
Q 800 557 921 432 
Q 1043 307 1242 307 
Q 1453 307 1613 410 
Q 1747 506 1792 589 
Q 1837 672 1837 813 
z
" transform="scale(0.015625)"/>
      <path id="SimSun-7684" d="M 1125 3775 
L 1125 2175 
L 2425 2175 
L 2425 3775 
L 1125 3775 
z
M 1125 2025 
L 1125 275 
L 2425 275 
L 2425 2025 
L 1125 2025 
z
M 2750 3625 
Q 2750 700 2775 -200 
L 2425 -400 
L 2425 125 
L 1125 125 
L 1125 -300 
L 775 -500 
Q 800 675 800 1837 
Q 800 3000 775 4150 
L 1150 3925 
L 1400 3925 
Q 1650 4775 1675 5225 
L 2225 4925 
Q 1975 4800 1550 3925 
L 2375 3925 
L 2625 4175 
L 3000 3800 
L 2750 3625 
z
M 3975 5200 
L 4525 4875 
Q 4325 4750 3900 3850 
L 5250 3850 
L 5525 4125 
L 5900 3750 
L 5675 3575 
Q 5625 650 5537 262 
Q 5450 -125 5287 -275 
Q 5125 -425 4775 -550 
Q 4650 -150 3950 50 
L 3950 175 
Q 4575 50 4850 50 
Q 5125 50 5187 475 
Q 5250 900 5300 3700 
L 3850 3700 
Q 3400 2975 2900 2475 
L 2825 2525 
Q 3350 3325 3600 3950 
Q 3850 4575 3975 5200 
z
M 3525 2750 
Q 4125 2300 4225 2087 
Q 4325 1875 4325 1775 
Q 4325 1600 4225 1475 
Q 4125 1350 4075 1350 
Q 3975 1350 3925 1700 
Q 3825 2200 3475 2675 
L 3525 2750 
z
" transform="scale(0.015625)"/>
      <path id="SimSun-5728" d="M 1325 2400 
Q 1325 2475 1300 2775 
L 1550 2675 
Q 1975 3200 2375 3975 
L 1275 3975 
Q 950 3975 675 3900 
L 450 4125 
L 2425 4125 
Q 2700 4800 2775 5250 
L 3350 4950 
L 3100 4800 
Q 3025 4575 2800 4125 
L 5000 4125 
L 5375 4500 
L 5900 3975 
L 2750 3975 
Q 2225 2950 1700 2400 
L 1700 -375 
L 1325 -575 
Q 1350 -175 1350 150 
L 1350 2050 
Q 775 1525 275 1225 
L 225 1300 
Q 975 1950 1325 2400 
z
M 3600 3150 
Q 3600 3325 3575 3775 
L 4150 3525 
L 3950 3350 
L 3950 2325 
L 4900 2325 
L 5225 2650 
L 5700 2175 
L 3950 2175 
L 3950 175 
L 5200 175 
L 5550 525 
L 6050 25 
L 2650 25 
Q 2325 25 2050 -50 
L 1825 175 
L 3600 175 
L 3600 2175 
L 2975 2175 
Q 2650 2175 2375 2100 
L 2150 2325 
L 3600 2325 
L 3600 3150 
z
" transform="scale(0.015625)"/>
      <path id="SimSun-4e0d" d="M 3375 3175 
L 3375 775 
Q 3375 25 3400 -375 
L 2975 -550 
Q 3000 400 3000 1100 
L 3000 3300 
Q 2000 1775 400 850 
L 350 950 
Q 1175 1550 1937 2462 
Q 2700 3375 3175 4600 
L 1225 4600 
Q 900 4600 625 4525 
L 400 4750 
L 5150 4750 
L 5525 5125 
L 6050 4600 
L 3675 4600 
Q 3450 4175 3175 3600 
L 3600 3350 
L 3375 3175 
z
M 3900 3100 
L 3975 3175 
Q 5575 2125 5737 1875 
Q 5900 1625 5900 1475 
Q 5900 1375 5825 1237 
Q 5750 1100 5700 1100 
Q 5600 1100 5400 1500 
Q 5100 2025 3900 3100 
z
" transform="scale(0.015625)"/>
      <path id="SimSun-540c" d="M 1650 3725 
L 4075 3725 
L 4400 4050 
L 4875 3575 
L 2375 3575 
Q 2100 3575 1875 3500 
L 1650 3725 
z
M 2475 2600 
L 2475 1400 
L 4000 1400 
L 4000 2600 
L 2475 2600 
z
M 2125 2950 
L 2475 2750 
L 3975 2750 
L 4150 3000 
L 4525 2700 
L 4325 2525 
L 4325 1600 
Q 4325 1275 4350 950 
L 4000 825 
L 4000 1250 
L 2475 1250 
L 2475 875 
L 2125 750 
Q 2150 1175 2150 1787 
Q 2150 2400 2125 2950 
z
M 4175 125 
Q 4700 50 4987 37 
Q 5275 25 5275 400 
L 5275 4650 
L 1275 4650 
L 1275 -425 
L 875 -575 
Q 925 250 925 750 
L 925 3900 
Q 925 4450 900 5050 
L 1275 4800 
L 5250 4800 
L 5425 5050 
L 5825 4725 
L 5625 4575 
L 5625 250 
Q 5650 -350 5025 -575 
Q 5025 -250 4175 0 
L 4175 125 
z
" transform="scale(0.015625)"/>
      <path id="STIXGeneral-Regular-4b" d="M 4627 0 
L 2688 0 
L 2688 122 
L 2861 128 
Q 3130 134 3130 282 
Q 3130 397 2922 643 
Q 2714 890 2253 1370 
L 1613 2029 
L 1446 1894 
L 1446 710 
Q 1446 352 1548 253 
Q 1651 154 2016 122 
L 2016 0 
L 211 0 
L 211 122 
Q 589 141 691 262 
Q 794 384 794 800 
L 794 3514 
Q 794 3872 691 3981 
Q 589 4090 218 4115 
L 218 4237 
L 2022 4237 
L 2022 4115 
Q 1632 4090 1539 3987 
Q 1446 3885 1446 3507 
L 1446 2227 
L 2586 3277 
Q 2861 3533 2973 3667 
Q 3085 3802 3085 3910 
Q 3085 4013 3030 4057 
Q 2976 4102 2822 4109 
L 2662 4115 
L 2662 4237 
L 4320 4237 
L 4320 4115 
Q 3994 4090 3824 4003 
Q 3654 3917 3322 3597 
L 2131 2458 
L 3629 819 
Q 4026 384 4214 253 
Q 4403 122 4627 122 
L 4627 0 
z
" transform="scale(0.015625)"/>
      <path id="STIXGeneral-Regular-56" d="M 4461 4237 
L 4461 4115 
Q 4262 4109 4134 3990 
Q 4006 3872 3872 3533 
L 2451 -70 
L 2355 -70 
L 794 3411 
Q 589 3866 467 3987 
Q 346 4109 102 4115 
L 102 4237 
L 1798 4237 
L 1798 4115 
L 1619 4102 
Q 1331 4083 1331 3904 
Q 1331 3776 1581 3219 
L 2554 1030 
L 3494 3392 
Q 3616 3699 3616 3853 
Q 3616 3898 3606 3933 
Q 3597 3968 3584 3993 
Q 3571 4019 3536 4038 
Q 3501 4058 3481 4067 
Q 3462 4077 3411 4086 
Q 3360 4096 3337 4099 
Q 3315 4102 3248 4108 
Q 3181 4115 3155 4115 
L 3155 4237 
L 4461 4237 
z
" transform="scale(0.015625)"/>
      <path id="STIXGeneral-Regular-7a" d="M 2675 870 
L 2579 0 
L 173 0 
L 173 96 
L 1875 2688 
L 1011 2688 
Q 710 2688 604 2582 
Q 499 2477 454 2125 
L 339 2125 
L 365 2880 
L 2579 2880 
L 2579 2784 
L 858 192 
L 1709 192 
Q 2246 192 2387 365 
Q 2477 474 2560 896 
L 2675 870 
z
" transform="scale(0.015625)"/>
      <path id="STIXGeneral-Regular-65" d="M 2611 1050 
L 2714 1005 
Q 2330 -64 1376 -64 
Q 813 -64 486 329 
Q 160 723 160 1389 
Q 160 2074 525 2509 
Q 890 2944 1485 2944 
Q 2061 2944 2374 2502 
Q 2560 2246 2592 1773 
L 621 1773 
Q 646 1370 700 1158 
Q 755 947 915 730 
Q 1184 378 1626 378 
Q 1939 378 2153 531 
Q 2368 685 2611 1050 
z
M 634 1978 
L 1939 1978 
Q 1882 2381 1750 2547 
Q 1619 2714 1312 2714 
Q 1043 2714 864 2525 
Q 685 2336 634 1978 
z
" transform="scale(0.015625)"/>
      <path id="SimSun-60c5" d="M 1175 4225 
Q 1175 4725 1150 5225 
L 1750 4950 
L 1525 4775 
L 1525 4100 
Q 2050 3900 2150 3762 
Q 2250 3625 2237 3500 
Q 2225 3375 2162 3300 
Q 2100 3225 2050 3225 
Q 1975 3225 1900 3425 
Q 1775 3700 1525 3975 
L 1525 400 
Q 1525 0 1550 -450 
L 1150 -625 
Q 1175 25 1175 550 
L 1175 4225 
z
M 800 3825 
Q 875 3100 825 2887 
Q 775 2675 687 2625 
Q 600 2575 500 2575 
Q 400 2575 337 2612 
Q 275 2650 275 2675 
Q 275 2775 400 2925 
Q 600 3175 700 3825 
L 800 3825 
z
M 4325 4950 
L 4100 4800 
L 4100 4350 
L 5075 4350 
L 5375 4650 
L 5825 4200 
L 4100 4200 
L 4100 3600 
L 4850 3600 
L 5125 3875 
L 5550 3450 
L 4100 3450 
L 4100 2825 
L 5350 2825 
L 5650 3125 
L 6100 2675 
L 2750 2675 
Q 2425 2675 2150 2600 
L 1925 2825 
L 3750 2825 
L 3750 3450 
L 3375 3450 
Q 3050 3450 2775 3375 
L 2550 3600 
L 3750 3600 
L 3750 4200 
L 3025 4200 
Q 2700 4200 2425 4125 
L 2200 4350 
L 3750 4350 
Q 3750 4775 3725 5250 
L 4325 4950 
z
M 2975 2050 
L 2975 1550 
L 4925 1550 
L 4925 2050 
L 2975 2050 
z
M 2975 1400 
L 2975 825 
L 4925 825 
L 4925 1400 
L 2975 1400 
z
M 2625 2425 
L 2975 2200 
L 4875 2200 
L 5050 2450 
L 5450 2150 
L 5275 2000 
L 5275 50 
Q 5300 -475 4750 -625 
Q 4775 -375 4125 -175 
L 4125 -50 
Q 4500 -125 4725 -112 
Q 4950 -100 4925 175 
L 4925 675 
L 2975 675 
L 2975 -450 
L 2625 -625 
Q 2650 100 2650 1000 
Q 2650 1900 2625 2425 
z
" transform="scale(0.015625)"/>
      <path id="SimSun-51b5" d="M 600 4800 
Q 1425 4325 1412 4062 
Q 1400 3800 1300 3712 
Q 1200 3625 1150 3625 
Q 1050 3625 1000 3875 
Q 900 4225 550 4725 
L 600 4800 
z
M 325 1850 
Q 575 1800 675 1787 
Q 775 1775 925 1825 
Q 1075 1875 2025 4250 
L 2125 4200 
Q 1375 2075 1287 1762 
Q 1200 1450 1175 1087 
Q 1150 725 1150 375 
Q 1125 25 962 75 
Q 800 125 712 225 
Q 625 325 625 450 
Q 625 600 675 700 
Q 775 950 800 1250 
Q 825 1550 300 1750 
L 325 1850 
z
M 2725 4500 
L 2725 2700 
L 4850 2700 
L 4850 4500 
L 2725 4500 
z
M 5175 3075 
Q 5175 2750 5200 2375 
L 4850 2225 
L 4850 2550 
L 4350 2550 
L 4350 400 
Q 4300 -50 4650 -75 
L 5375 -75 
Q 5575 -25 5600 275 
Q 5625 575 5650 1125 
L 5775 1125 
Q 5775 675 5825 362 
Q 5875 50 6125 0 
Q 5975 -375 5475 -375 
L 4500 -375 
Q 4000 -375 4025 225 
L 4025 2550 
L 3525 2550 
Q 3475 800 2862 237 
Q 2250 -325 1225 -625 
L 1200 -525 
Q 2050 -175 2587 362 
Q 3125 900 3175 2550 
L 2725 2550 
L 2725 2275 
L 2375 2125 
Q 2400 2700 2400 3000 
L 2400 4000 
Q 2400 4325 2375 4850 
L 2725 4650 
L 4825 4650 
L 5025 4875 
L 5375 4550 
L 5175 4400 
L 5175 3075 
z
" transform="scale(0.015625)"/>
      <path id="SimSun-4e0b" d="M 450 4575 
L 5075 4575 
L 5450 4950 
L 5975 4425 
L 3250 4425 
L 3250 3125 
Q 4750 2675 4987 2412 
Q 5225 2150 5225 1950 
Q 5225 1875 5162 1737 
Q 5100 1600 5050 1600 
Q 4950 1600 4700 1925 
Q 4350 2400 3250 3000 
L 3250 450 
Q 3250 -75 3275 -425 
L 2850 -600 
Q 2875 325 2875 675 
L 2875 4425 
L 1275 4425 
Q 950 4425 675 4350 
L 450 4575 
z
" transform="scale(0.015625)"/>
      <path id="SimSun-968f" d="M 2175 4225 
L 2250 4275 
Q 2800 3825 2850 3625 
Q 2900 3425 2775 3300 
Q 2650 3175 2600 3175 
Q 2500 3175 2475 3425 
Q 2425 3800 2175 4225 
z
M 6050 0 
L 6050 -100 
Q 5650 -175 5625 -475 
Q 4975 -450 4487 -425 
Q 4000 -400 3650 -262 
Q 3300 -125 3050 150 
Q 2875 300 2750 300 
Q 2650 300 2487 162 
Q 2325 25 2125 -375 
L 1750 -100 
Q 2100 175 2575 450 
L 2575 2300 
Q 2525 2300 2250 2225 
L 2025 2450 
L 2550 2450 
L 2700 2650 
L 3075 2375 
L 2875 2225 
L 2875 475 
Q 3325 75 3762 0 
Q 4200 -75 4725 -62 
Q 5250 -50 6050 0 
z
M 600 4900 
L 950 4675 
L 1700 4675 
L 1900 4900 
L 2300 4625 
L 2075 4450 
L 1475 3000 
Q 1650 2775 1900 2475 
Q 2125 2175 2162 1975 
Q 2200 1775 2200 1650 
Q 2200 1400 2075 1150 
Q 1950 900 1400 800 
Q 1400 1075 950 1250 
L 950 -475 
L 600 -650 
Q 625 0 625 2175 
Q 625 4350 600 4900 
z
M 1300 3000 
L 1725 4525 
L 950 4525 
L 950 1350 
Q 1275 1275 1425 1275 
Q 1600 1275 1725 1350 
Q 1850 1425 1850 1675 
Q 1850 1825 1812 2100 
Q 1775 2375 1300 3000 
z
M 3900 3250 
L 3900 2600 
L 5150 2600 
L 5150 3250 
L 3900 3250 
z
M 3575 250 
Q 3600 725 3600 3200 
Q 3350 2875 3000 2625 
L 2950 2675 
Q 3525 3325 3850 4175 
L 3600 4175 
Q 3275 4175 3000 4100 
L 2775 4325 
L 3900 4325 
Q 4100 4925 4100 5150 
L 4600 4900 
Q 4425 4800 4225 4325 
L 5325 4325 
L 5625 4625 
L 6025 4175 
L 4175 4175 
Q 4025 3825 3825 3475 
L 3925 3400 
L 5100 3400 
L 5250 3625 
L 5650 3350 
L 5475 3200 
L 5475 875 
Q 5525 425 5025 275 
Q 5025 550 4525 650 
L 4525 750 
Q 4950 725 5050 725 
Q 5150 725 5150 900 
L 5150 1650 
L 3900 1650 
L 3900 400 
L 3575 250 
z
M 3900 2450 
L 3900 1800 
L 5150 1800 
L 5150 2450 
L 3900 2450 
z
" transform="scale(0.015625)"/>
      <path id="SimSun-53d8" d="M 2750 4225 
L 2750 2225 
L 3650 2225 
L 3650 4225 
L 2750 4225 
z
M 375 4375 
L 3100 4375 
Q 3050 4750 2650 5200 
L 2700 5275 
Q 3150 5075 3325 4925 
Q 3500 4775 3500 4700 
Q 3500 4550 3300 4375 
L 5125 4375 
L 5525 4775 
L 6075 4225 
L 4000 4225 
L 4000 2225 
L 4425 2225 
L 4675 2500 
L 5100 2100 
L 4825 1975 
Q 4300 1325 3525 650 
Q 4500 -50 6125 -175 
L 6125 -275 
Q 5750 -325 5625 -575 
Q 4175 -250 3300 450 
Q 2150 -300 350 -600 
L 325 -500 
Q 2050 -100 3075 675 
Q 2525 1250 2100 2075 
L 1650 2075 
L 1375 2025 
L 1175 2225 
L 2400 2225 
L 2400 4225 
L 1200 4225 
Q 875 4225 600 4150 
L 375 4375 
z
M 2275 2075 
Q 2725 1350 3300 850 
Q 3800 1300 4425 2075 
L 2275 2075 
z
M 1675 3850 
L 2125 3450 
L 1875 3350 
Q 1150 2575 325 1950 
L 250 2025 
Q 700 2425 1087 2937 
Q 1475 3450 1675 3850 
z
M 4350 3700 
Q 5675 3050 5812 2875 
Q 5950 2700 5950 2575 
Q 5950 2475 5900 2375 
Q 5850 2275 5800 2275 
Q 5700 2275 5500 2550 
Q 5200 2950 4275 3625 
L 4350 3700 
z
" transform="scale(0.015625)"/>
      <path id="SimSun-5316" d="M 1375 -600 
Q 1400 200 1400 925 
L 1400 3125 
Q 850 2300 350 1775 
L 275 1850 
Q 825 2625 1300 3650 
Q 1775 4675 1900 5200 
L 2450 4875 
L 2200 4725 
Q 1875 4000 1600 3475 
L 1950 3275 
L 1750 3075 
L 1750 350 
Q 1750 75 1775 -400 
L 1375 -600 
z
M 3450 2125 
L 3450 3925 
Q 3450 4475 3425 5200 
L 4000 4925 
L 3800 4725 
L 3800 2400 
Q 4150 2725 4562 3225 
Q 4975 3725 5150 4025 
L 5600 3600 
L 5325 3525 
Q 4600 2700 3800 2000 
L 3800 425 
Q 3800 0 4225 0 
L 5300 0 
Q 5500 0 5550 325 
Q 5600 650 5600 1325 
L 5725 1325 
Q 5775 650 5850 425 
Q 5925 200 6125 125 
Q 5900 -325 5400 -325 
L 4075 -325 
Q 3450 -325 3450 250 
L 3450 1775 
Q 2800 1275 1950 925 
L 1925 1025 
Q 2800 1525 3450 2125 
z
" transform="scale(0.015625)"/>
      <path id="SimSun-8d8b" d="M 3900 5225 
L 4425 4900 
L 4225 4825 
Q 4000 4475 3800 4150 
L 4750 4150 
L 4975 4425 
L 5400 4025 
Q 5100 4000 4475 3075 
L 5350 3075 
L 5500 3325 
L 5900 3050 
L 5725 2875 
Q 5725 1050 5750 525 
L 5400 375 
L 5400 800 
L 3725 800 
Q 3525 800 3250 725 
L 3025 950 
L 5400 950 
L 5400 1900 
L 4050 1900 
Q 3850 1900 3575 1825 
L 3350 2050 
L 5400 2050 
L 5400 2925 
L 3900 2925 
Q 3700 2925 3425 2850 
L 3200 3075 
L 4350 3075 
L 4775 4000 
L 3725 4000 
Q 3450 3625 3000 3200 
L 2950 3250 
Q 3650 4250 3900 5225 
z
M 300 -550 
L 225 -500 
Q 675 275 787 1112 
Q 900 1950 850 2425 
L 1400 2150 
Q 1250 2075 1212 1812 
Q 1175 1550 1125 1075 
Q 1500 750 1725 625 
L 1725 2825 
L 950 2825 
Q 750 2825 475 2750 
L 250 2975 
L 1600 2975 
L 1600 4025 
L 1225 4025 
Q 1025 4025 750 3950 
L 525 4175 
L 1600 4175 
Q 1600 4675 1575 5225 
L 2125 4975 
L 1925 4800 
L 1925 4175 
L 2400 4175 
L 2700 4475 
L 3100 4025 
L 1925 4025 
L 1925 2975 
L 2475 2975 
L 2800 3275 
L 3200 2825 
L 1750 2825 
L 2250 2600 
L 2050 2400 
L 2050 1800 
L 2625 1800 
L 2925 2100 
L 3300 1650 
L 2050 1650 
L 2050 425 
Q 2925 25 3737 0 
Q 4550 -25 4925 -25 
Q 5625 -25 6150 25 
L 6150 -50 
Q 5700 -250 5700 -475 
Q 4950 -500 4012 -412 
Q 3075 -325 2325 -12 
Q 1575 300 1100 900 
Q 775 -25 300 -550 
z
" transform="scale(0.015625)"/>
      <path id="SimSun-52bf" d="M 1650 4175 
Q 1650 4775 1625 5200 
L 2150 4950 
L 1975 4800 
L 1975 4175 
L 2200 4175 
L 2475 4450 
L 2900 4025 
L 1975 4025 
L 1975 3425 
Q 2400 3525 2800 3625 
L 2825 3525 
Q 2400 3375 1975 3225 
L 1975 2150 
Q 2000 1800 1475 1575 
Q 1450 1850 800 2025 
L 800 2150 
Q 1225 2100 1437 2087 
Q 1650 2075 1650 2325 
L 1650 3100 
Q 700 2750 700 2650 
L 400 3100 
Q 575 3100 1650 3350 
L 1650 4025 
L 1300 4025 
Q 975 4025 700 3950 
L 475 4175 
L 1650 4175 
z
M 3650 4175 
L 3650 4525 
Q 3650 4875 3625 5225 
L 4175 4975 
L 3975 4800 
L 3975 4200 
L 4700 4250 
L 4850 4475 
L 5200 4200 
L 5025 4050 
Q 5000 3900 5000 3575 
Q 5000 3225 5050 2812 
Q 5100 2400 5425 2175 
Q 5600 2650 5700 3050 
L 5800 3025 
Q 5725 2525 5725 2250 
Q 5725 1975 5825 1775 
Q 5900 1650 5775 1650 
Q 5725 1650 5475 1750 
Q 5225 1850 5012 2137 
Q 4800 2425 4737 2750 
Q 4675 3075 4675 3475 
Q 4675 3850 4700 4100 
L 3975 4050 
Q 3925 3450 3750 3050 
Q 4100 2900 4262 2787 
Q 4425 2675 4387 2475 
Q 4350 2275 4275 2275 
Q 4225 2275 4125 2400 
Q 3925 2625 3625 2825 
Q 3225 2225 2100 1800 
L 2050 1875 
Q 3075 2400 3375 2975 
Q 3225 3100 2850 3300 
L 2900 3375 
Q 3225 3275 3475 3175 
Q 3600 3500 3650 4025 
L 3300 4000 
L 3125 3925 
L 2875 4125 
L 3650 4175 
z
M 2600 1425 
Q 2675 1700 2700 2025 
L 3175 1775 
L 3000 1650 
L 2950 1425 
L 4725 1425 
L 4875 1675 
L 5325 1375 
L 5125 1225 
Q 5050 400 4987 112 
Q 4925 -175 4750 -350 
Q 4575 -525 4225 -600 
Q 4250 -350 3650 -50 
L 3675 50 
Q 4225 -100 4412 -87 
Q 4600 -75 4675 312 
Q 4750 700 4775 1275 
L 2925 1275 
Q 2800 775 2575 450 
Q 2350 125 1875 -162 
Q 1400 -450 450 -650 
L 400 -550 
Q 1500 -225 1950 200 
Q 2400 625 2575 1275 
L 1450 1275 
Q 1125 1275 850 1200 
L 625 1425 
L 2600 1425 
z
" transform="scale(0.015625)"/>
     </defs>
     <use xlink:href="#STIXGeneral-Regular-6d" transform="translate(0 0.578125)"/>
     <use xlink:href="#STIXGeneral-Regular-69" transform="translate(77.799988 0.578125)"/>
     <use xlink:href="#STIXGeneral-Regular-63" transform="translate(105.599976 0.578125)"/>
     <use xlink:href="#STIXGeneral-Regular-61" transform="translate(149.999969 0.578125)"/>
     <use xlink:href="#SimSun-7684" transform="translate(194.399963 0.578125)"/>
     <use xlink:href="#SimSun-8bfb" transform="translate(294.399963 0.578125)"/>
     <use xlink:href="#SimSun-53d6" transform="translate(394.399963 0.578125)"/>
     <use xlink:href="#SimSun-547d" transform="translate(494.399963 0.578125)"/>
     <use xlink:href="#SimSun-4e2d" transform="translate(594.399963 0.578125)"/>
     <use xlink:href="#SimSun-7387" transform="translate(694.399963 0.578125)"/>
     <use xlink:href="#SimSun-5728" transform="translate(794.399963 0.578125)"/>
     <use xlink:href="#SimSun-4e0d" transform="translate(894.399963 0.578125)"/>
     <use xlink:href="#SimSun-540c" transform="translate(994.399963 0.578125)"/>
     <use xlink:href="#STIXGeneral-Regular-4b" transform="translate(1094.399963 0.578125)"/>
     <use xlink:href="#STIXGeneral-Regular-56" transform="translate(1166.599945 0.578125)"/>
     <use xlink:href="#STIXGeneral-Regular-73" transform="translate(1262.866347 0.578125)"/>
     <use xlink:href="#STIXGeneral-Regular-69" transform="translate(1301.766341 0.578125)"/>
     <use xlink:href="#STIXGeneral-Regular-7a" transform="translate(1329.566328 0.578125)"/>
     <use xlink:href="#STIXGeneral-Regular-65" transform="translate(1373.966322 0.578125)"/>
     <use xlink:href="#SimSun-60c5" transform="translate(1418.366316 0.578125)"/>
     <use xlink:href="#SimSun-51b5" transform="translate(1518.366316 0.578125)"/>
     <use xlink:href="#SimSun-4e0b" transform="translate(1618.366316 0.578125)"/>
     <use xlink:href="#SimSun-968f" transform="translate(1718.366316 0.578125)"/>
     <use xlink:href="#SimSun-65f6" transform="translate(1818.366316 0.578125)"/>
     <use xlink:href="#SimSun-95f4" transform="translate(1918.366316 0.578125)"/>
     <use xlink:href="#SimSun-7684" transform="translate(2018.366316 0.578125)"/>
     <use xlink:href="#SimSun-53d8" transform="translate(2118.366316 0.578125)"/>
     <use xlink:href="#SimSun-5316" transform="translate(2218.366316 0.578125)"/>
     <use xlink:href="#SimSun-8d8b" transform="translate(2318.366316 0.578125)"/>
     <use xlink:href="#SimSun-52bf" transform="translate(2418.366316 0.578125)"/>
    </g>
   </g>
   <g id="legend_1">
    <g id="patch_7">
     <path d="M 233.582031 451.876 
L 711.057969 451.876 
Q 714.857969 451.876 714.857969 448.076 
L 714.857969 396.176312 
Q 714.857969 392.376312 711.057969 392.376312 
L 233.582031 392.376312 
Q 229.782031 392.376312 229.782031 396.176312 
L 229.782031 448.076 
Q 229.782031 451.876 233.582031 451.876 
z
" style="fill: #ffffff; opacity: 0.8; stroke: #cccccc; stroke-linejoin: miter"/>
    </g>
    <g id="line2d_27">
     <path d="M 237.382031 406.626312 
L 256.382031 406.626312 
L 275.382031 406.626312 
" style="fill: none; stroke: #d62728; stroke-width: 1.5; stroke-linecap: square"/>
    </g>
    <g id="text_25">
     <!-- mica_64 -->
     <g transform="translate(290.582031 413.276312) scale(0.19 -0.19)">
      <defs>
       <path id="TimesNewRomanPSMT-6d" d="M 1050 2338 
Q 1363 2650 1419 2697 
Q 1559 2816 1721 2881 
Q 1884 2947 2044 2947 
Q 2313 2947 2506 2790 
Q 2700 2634 2766 2338 
Q 3088 2713 3309 2830 
Q 3531 2947 3766 2947 
Q 3994 2947 4170 2830 
Q 4347 2713 4450 2447 
Q 4519 2266 4519 1878 
L 4519 647 
Q 4519 378 4559 278 
Q 4591 209 4675 161 
Q 4759 113 4950 113 
L 4950 0 
L 3538 0 
L 3538 113 
L 3597 113 
Q 3781 113 3884 184 
Q 3956 234 3988 344 
Q 4000 397 4000 647 
L 4000 1878 
Q 4000 2228 3916 2372 
Q 3794 2572 3525 2572 
Q 3359 2572 3192 2489 
Q 3025 2406 2788 2181 
L 2781 2147 
L 2788 2013 
L 2788 647 
Q 2788 353 2820 281 
Q 2853 209 2943 161 
Q 3034 113 3253 113 
L 3253 0 
L 1806 0 
L 1806 113 
Q 2044 113 2133 169 
Q 2222 225 2256 338 
Q 2272 391 2272 647 
L 2272 1878 
Q 2272 2228 2169 2381 
Q 2031 2581 1784 2581 
Q 1616 2581 1450 2491 
Q 1191 2353 1050 2181 
L 1050 647 
Q 1050 366 1089 281 
Q 1128 197 1204 155 
Q 1281 113 1516 113 
L 1516 0 
L 100 0 
L 100 113 
Q 297 113 375 155 
Q 453 197 493 289 
Q 534 381 534 647 
L 534 1741 
Q 534 2213 506 2350 
Q 484 2453 437 2492 
Q 391 2531 309 2531 
Q 222 2531 100 2484 
L 53 2597 
L 916 2947 
L 1050 2947 
L 1050 2338 
z
" transform="scale(0.015625)"/>
       <path id="TimesNewRomanPSMT-69" d="M 928 4444 
Q 1059 4444 1151 4351 
Q 1244 4259 1244 4128 
Q 1244 3997 1151 3903 
Q 1059 3809 928 3809 
Q 797 3809 703 3903 
Q 609 3997 609 4128 
Q 609 4259 701 4351 
Q 794 4444 928 4444 
z
M 1188 2947 
L 1188 647 
Q 1188 378 1227 289 
Q 1266 200 1342 156 
Q 1419 113 1622 113 
L 1622 0 
L 231 0 
L 231 113 
Q 441 113 512 153 
Q 584 194 626 287 
Q 669 381 669 647 
L 669 1750 
Q 669 2216 641 2353 
Q 619 2453 572 2492 
Q 525 2531 444 2531 
Q 356 2531 231 2484 
L 188 2597 
L 1050 2947 
L 1188 2947 
z
" transform="scale(0.015625)"/>
       <path id="TimesNewRomanPSMT-63" d="M 2631 1088 
Q 2516 522 2178 217 
Q 1841 -88 1431 -88 
Q 944 -88 581 321 
Q 219 731 219 1428 
Q 219 2103 620 2525 
Q 1022 2947 1584 2947 
Q 2006 2947 2278 2723 
Q 2550 2500 2550 2259 
Q 2550 2141 2473 2067 
Q 2397 1994 2259 1994 
Q 2075 1994 1981 2113 
Q 1928 2178 1911 2362 
Q 1894 2547 1784 2644 
Q 1675 2738 1481 2738 
Q 1169 2738 978 2506 
Q 725 2200 725 1697 
Q 725 1184 976 792 
Q 1228 400 1656 400 
Q 1963 400 2206 609 
Q 2378 753 2541 1131 
L 2631 1088 
z
" transform="scale(0.015625)"/>
       <path id="TimesNewRomanPSMT-61" d="M 1822 413 
Q 1381 72 1269 19 
Q 1100 -59 909 -59 
Q 613 -59 420 144 
Q 228 347 228 678 
Q 228 888 322 1041 
Q 450 1253 767 1440 
Q 1084 1628 1822 1897 
L 1822 2009 
Q 1822 2438 1686 2597 
Q 1550 2756 1291 2756 
Q 1094 2756 978 2650 
Q 859 2544 859 2406 
L 866 2225 
Q 866 2081 792 2003 
Q 719 1925 600 1925 
Q 484 1925 411 2006 
Q 338 2088 338 2228 
Q 338 2497 613 2722 
Q 888 2947 1384 2947 
Q 1766 2947 2009 2819 
Q 2194 2722 2281 2516 
Q 2338 2381 2338 1966 
L 2338 994 
Q 2338 584 2353 492 
Q 2369 400 2405 369 
Q 2441 338 2488 338 
Q 2538 338 2575 359 
Q 2641 400 2828 588 
L 2828 413 
Q 2478 -56 2159 -56 
Q 2006 -56 1915 50 
Q 1825 156 1822 413 
z
M 1822 616 
L 1822 1706 
Q 1350 1519 1213 1441 
Q 966 1303 859 1153 
Q 753 1003 753 825 
Q 753 600 887 451 
Q 1022 303 1197 303 
Q 1434 303 1822 616 
z
" transform="scale(0.015625)"/>
       <path id="TimesNewRomanPSMT-5f" d="M 3256 -1381 
L -53 -1381 
L -53 -1119 
L 3256 -1119 
L 3256 -1381 
z
" transform="scale(0.015625)"/>
       <path id="TimesNewRomanPSMT-36" d="M 2869 4325 
L 2869 4209 
Q 2456 4169 2195 4045 
Q 1934 3922 1679 3669 
Q 1425 3416 1258 3105 
Q 1091 2794 978 2366 
Q 1428 2675 1881 2675 
Q 2316 2675 2634 2325 
Q 2953 1975 2953 1425 
Q 2953 894 2631 456 
Q 2244 -75 1606 -75 
Q 1172 -75 869 213 
Q 275 772 275 1663 
Q 275 2231 503 2743 
Q 731 3256 1154 3653 
Q 1578 4050 1965 4187 
Q 2353 4325 2688 4325 
L 2869 4325 
z
M 925 2138 
Q 869 1716 869 1456 
Q 869 1156 980 804 
Q 1091 453 1309 247 
Q 1469 100 1697 100 
Q 1969 100 2183 356 
Q 2397 613 2397 1088 
Q 2397 1622 2184 2012 
Q 1972 2403 1581 2403 
Q 1463 2403 1327 2353 
Q 1191 2303 925 2138 
z
" transform="scale(0.015625)"/>
       <path id="TimesNewRomanPSMT-34" d="M 2978 1563 
L 2978 1119 
L 2409 1119 
L 2409 0 
L 1894 0 
L 1894 1119 
L 100 1119 
L 100 1519 
L 2066 4325 
L 2409 4325 
L 2409 1563 
L 2978 1563 
z
M 1894 1563 
L 1894 3666 
L 406 1563 
L 1894 1563 
z
" transform="scale(0.015625)"/>
      </defs>
      <use xlink:href="#TimesNewRomanPSMT-6d"/>
      <use xlink:href="#TimesNewRomanPSMT-69" x="77.783203"/>
      <use xlink:href="#TimesNewRomanPSMT-63" x="105.566406"/>
      <use xlink:href="#TimesNewRomanPSMT-61" x="149.951172"/>
      <use xlink:href="#TimesNewRomanPSMT-5f" x="194.335938"/>
      <use xlink:href="#TimesNewRomanPSMT-36" x="244.335938"/>
      <use xlink:href="#TimesNewRomanPSMT-34" x="294.335938"/>
     </g>
    </g>
    <g id="line2d_28">
     <path d="M 237.382031 433.526156 
L 256.382031 433.526156 
L 275.382031 433.526156 
" style="fill: none; stroke: #ff7f0e; stroke-width: 1.5; stroke-linecap: square"/>
    </g>
    <g id="text_26">
     <!-- mica_128 -->
     <g transform="translate(290.582031 440.176156) scale(0.19 -0.19)">
      <defs>
       <path id="TimesNewRomanPSMT-31" d="M 750 3822 
L 1781 4325 
L 1884 4325 
L 1884 747 
Q 1884 391 1914 303 
Q 1944 216 2037 169 
Q 2131 122 2419 116 
L 2419 0 
L 825 0 
L 825 116 
Q 1125 122 1212 167 
Q 1300 213 1334 289 
Q 1369 366 1369 747 
L 1369 3034 
Q 1369 3497 1338 3628 
Q 1316 3728 1258 3775 
Q 1200 3822 1119 3822 
Q 1003 3822 797 3725 
L 750 3822 
z
" transform="scale(0.015625)"/>
       <path id="TimesNewRomanPSMT-32" d="M 2934 816 
L 2638 0 
L 138 0 
L 138 116 
Q 1241 1122 1691 1759 
Q 2141 2397 2141 2925 
Q 2141 3328 1894 3587 
Q 1647 3847 1303 3847 
Q 991 3847 742 3664 
Q 494 3481 375 3128 
L 259 3128 
Q 338 3706 661 4015 
Q 984 4325 1469 4325 
Q 1984 4325 2329 3994 
Q 2675 3663 2675 3213 
Q 2675 2891 2525 2569 
Q 2294 2063 1775 1497 
Q 997 647 803 472 
L 1909 472 
Q 2247 472 2383 497 
Q 2519 522 2628 598 
Q 2738 675 2819 816 
L 2934 816 
z
" transform="scale(0.015625)"/>
       <path id="TimesNewRomanPSMT-38" d="M 1228 2134 
Q 725 2547 579 2797 
Q 434 3047 434 3316 
Q 434 3728 753 4026 
Q 1072 4325 1600 4325 
Q 2113 4325 2425 4047 
Q 2738 3769 2738 3413 
Q 2738 3175 2569 2928 
Q 2400 2681 1866 2347 
Q 2416 1922 2594 1678 
Q 2831 1359 2831 1006 
Q 2831 559 2490 242 
Q 2150 -75 1597 -75 
Q 994 -75 656 303 
Q 388 606 388 966 
Q 388 1247 577 1523 
Q 766 1800 1228 2134 
z
M 1719 2469 
Q 2094 2806 2194 3001 
Q 2294 3197 2294 3444 
Q 2294 3772 2109 3958 
Q 1925 4144 1606 4144 
Q 1288 4144 1088 3959 
Q 888 3775 888 3528 
Q 888 3366 970 3203 
Q 1053 3041 1206 2894 
L 1719 2469 
z
M 1375 2016 
Q 1116 1797 991 1539 
Q 866 1281 866 981 
Q 866 578 1086 336 
Q 1306 94 1647 94 
Q 1984 94 2187 284 
Q 2391 475 2391 747 
Q 2391 972 2272 1150 
Q 2050 1481 1375 2016 
z
" transform="scale(0.015625)"/>
      </defs>
      <use xlink:href="#TimesNewRomanPSMT-6d"/>
      <use xlink:href="#TimesNewRomanPSMT-69" x="77.783203"/>
      <use xlink:href="#TimesNewRomanPSMT-63" x="105.566406"/>
      <use xlink:href="#TimesNewRomanPSMT-61" x="149.951172"/>
      <use xlink:href="#TimesNewRomanPSMT-5f" x="194.335938"/>
      <use xlink:href="#TimesNewRomanPSMT-31" x="244.335938"/>
      <use xlink:href="#TimesNewRomanPSMT-32" x="294.335938"/>
      <use xlink:href="#TimesNewRomanPSMT-38" x="344.335938"/>
     </g>
    </g>
    <g id="line2d_29">
     <path d="M 403.507344 406.626312 
L 422.507344 406.626312 
L 441.507344 406.626312 
" style="fill: none; stroke: #e377c2; stroke-width: 1.5; stroke-linecap: square"/>
    </g>
    <g id="text_27">
     <!-- mica_256 -->
     <g transform="translate(456.707344 413.276312) scale(0.19 -0.19)">
      <defs>
       <path id="TimesNewRomanPSMT-35" d="M 2778 4238 
L 2534 3706 
L 1259 3706 
L 981 3138 
Q 1809 3016 2294 2522 
Q 2709 2097 2709 1522 
Q 2709 1188 2573 903 
Q 2438 619 2231 419 
Q 2025 219 1772 97 
Q 1413 -75 1034 -75 
Q 653 -75 479 54 
Q 306 184 306 341 
Q 306 428 378 495 
Q 450 563 559 563 
Q 641 563 702 538 
Q 763 513 909 409 
Q 1144 247 1384 247 
Q 1750 247 2026 523 
Q 2303 800 2303 1197 
Q 2303 1581 2056 1914 
Q 1809 2247 1375 2428 
Q 1034 2569 447 2591 
L 1259 4238 
L 2778 4238 
z
" transform="scale(0.015625)"/>
      </defs>
      <use xlink:href="#TimesNewRomanPSMT-6d"/>
      <use xlink:href="#TimesNewRomanPSMT-69" x="77.783203"/>
      <use xlink:href="#TimesNewRomanPSMT-63" x="105.566406"/>
      <use xlink:href="#TimesNewRomanPSMT-61" x="149.951172"/>
      <use xlink:href="#TimesNewRomanPSMT-5f" x="194.335938"/>
      <use xlink:href="#TimesNewRomanPSMT-32" x="244.335938"/>
      <use xlink:href="#TimesNewRomanPSMT-35" x="294.335938"/>
      <use xlink:href="#TimesNewRomanPSMT-36" x="344.335938"/>
     </g>
    </g>
    <g id="line2d_30">
     <path d="M 403.507344 433.526156 
L 422.507344 433.526156 
L 441.507344 433.526156 
" style="fill: none; stroke: #9467bd; stroke-width: 1.5; stroke-linecap: square"/>
    </g>
    <g id="text_28">
     <!-- mica_512 -->
     <g transform="translate(456.707344 440.176156) scale(0.19 -0.19)">
      <use xlink:href="#TimesNewRomanPSMT-6d"/>
      <use xlink:href="#TimesNewRomanPSMT-69" x="77.783203"/>
      <use xlink:href="#TimesNewRomanPSMT-63" x="105.566406"/>
      <use xlink:href="#TimesNewRomanPSMT-61" x="149.951172"/>
      <use xlink:href="#TimesNewRomanPSMT-5f" x="194.335938"/>
      <use xlink:href="#TimesNewRomanPSMT-35" x="244.335938"/>
      <use xlink:href="#TimesNewRomanPSMT-31" x="294.335938"/>
      <use xlink:href="#TimesNewRomanPSMT-32" x="344.335938"/>
     </g>
    </g>
    <g id="line2d_31">
     <path d="M 569.632656 406.626312 
L 588.632656 406.626312 
L 607.632656 406.626312 
" style="fill: none; stroke: #1f77b4; stroke-width: 1.5; stroke-linecap: square"/>
    </g>
    <g id="text_29">
     <!-- mica_1024 -->
     <g transform="translate(622.832656 413.276312) scale(0.19 -0.19)">
      <defs>
       <path id="TimesNewRomanPSMT-30" d="M 231 2094 
Q 231 2819 450 3342 
Q 669 3866 1031 4122 
Q 1313 4325 1613 4325 
Q 2100 4325 2488 3828 
Q 2972 3213 2972 2159 
Q 2972 1422 2759 906 
Q 2547 391 2217 158 
Q 1888 -75 1581 -75 
Q 975 -75 572 641 
Q 231 1244 231 2094 
z
M 844 2016 
Q 844 1141 1059 588 
Q 1238 122 1591 122 
Q 1759 122 1940 273 
Q 2122 425 2216 781 
Q 2359 1319 2359 2297 
Q 2359 3022 2209 3506 
Q 2097 3866 1919 4016 
Q 1791 4119 1609 4119 
Q 1397 4119 1231 3928 
Q 1006 3669 925 3112 
Q 844 2556 844 2016 
z
" transform="scale(0.015625)"/>
      </defs>
      <use xlink:href="#TimesNewRomanPSMT-6d"/>
      <use xlink:href="#TimesNewRomanPSMT-69" x="77.783203"/>
      <use xlink:href="#TimesNewRomanPSMT-63" x="105.566406"/>
      <use xlink:href="#TimesNewRomanPSMT-61" x="149.951172"/>
      <use xlink:href="#TimesNewRomanPSMT-5f" x="194.335938"/>
      <use xlink:href="#TimesNewRomanPSMT-31" x="244.335938"/>
      <use xlink:href="#TimesNewRomanPSMT-30" x="294.335938"/>
      <use xlink:href="#TimesNewRomanPSMT-32" x="344.335938"/>
      <use xlink:href="#TimesNewRomanPSMT-34" x="394.335938"/>
     </g>
    </g>
   </g>
  </g>
 </g>
 <defs>
  <clipPath id="pd90a61da68">
   <rect x="115.2" y="62.208" width="714.24" height="399.168"/>
  </clipPath>
 </defs>
</svg>
