<?xml version="1.0" encoding="utf-8" standalone="no"?>
<!DOCTYPE svg PUBLIC "-//W3C//DTD SVG 1.1//EN"
  "http://www.w3.org/Graphics/SVG/1.1/DTD/svg11.dtd">
<svg xmlns:xlink="http://www.w3.org/1999/xlink" width="921.6pt" height="518.4pt" viewBox="0 0 921.6 518.4" xmlns="http://www.w3.org/2000/svg" version="1.1">
 <metadata>
  <rdf:RDF xmlns:dc="http://purl.org/dc/elements/1.1/" xmlns:cc="http://creativecommons.org/ns#" xmlns:rdf="http://www.w3.org/1999/02/22-rdf-syntax-ns#">
   <cc:Work>
    <dc:type rdf:resource="http://purl.org/dc/dcmitype/StillImage"/>
    <dc:date>2023-08-11T11:09:25.665072</dc:date>
    <dc:format>image/svg+xml</dc:format>
    <dc:creator>
     <cc:Agent>
      <dc:title>Matplotlib v3.7.1, https://matplotlib.org/</dc:title>
     </cc:Agent>
    </dc:creator>
   </cc:Work>
  </rdf:RDF>
 </metadata>
 <defs>
  <style type="text/css">*{stroke-linejoin: round; stroke-linecap: butt}</style>
 </defs>
 <g id="figure_1">
  <g id="patch_1">
   <path d="M 0 518.4 
L 921.6 518.4 
L 921.6 0 
L 0 0 
z
" style="fill: #ffffff"/>
  </g>
  <g id="axes_1">
   <g id="patch_2">
    <path d="M 115.2 461.376 
L 829.44 461.376 
L 829.44 62.208 
L 115.2 62.208 
z
" style="fill: #ffffff"/>
   </g>
   <g id="matplotlib.axis_1">
    <g id="xtick_1">
     <g id="line2d_1">
      <defs>
       <path id="m8ab895d31b" d="M 0 0 
L 0 3.5 
" style="stroke: #000000; stroke-width: 0.8"/>
      </defs>
      <g>
       <use xlink:href="#m8ab895d31b" x="115.2" y="461.376" style="stroke: #000000; stroke-width: 0.8"/>
      </g>
     </g>
     <g id="text_1">
      <!-- 0 -->
      <g transform="translate(110.45 481.958031) scale(0.19 -0.19)">
       <defs>
        <path id="SimSun-30" d="M 1600 4225 
Q 1250 4225 1012 3687 
Q 775 3150 775 2250 
Q 775 1300 1012 775 
Q 1250 250 1600 250 
Q 1975 250 2187 775 
Q 2400 1300 2400 2250 
Q 2400 3150 2200 3687 
Q 2000 4225 1600 4225 
z
M 1600 50 
Q 1050 50 675 625 
Q 300 1200 300 2250 
Q 300 3225 662 3825 
Q 1025 4425 1600 4425 
Q 2150 4425 2512 3850 
Q 2875 3275 2875 2250 
Q 2875 1225 2512 637 
Q 2150 50 1600 50 
z
" transform="scale(0.015625)"/>
       </defs>
       <use xlink:href="#SimSun-30"/>
      </g>
     </g>
    </g>
    <g id="xtick_2">
     <g id="line2d_2">
      <g>
       <use xlink:href="#m8ab895d31b" x="234.24" y="461.376" style="stroke: #000000; stroke-width: 0.8"/>
      </g>
     </g>
     <g id="text_2">
      <!-- 50 -->
      <g transform="translate(224.74 481.958031) scale(0.19 -0.19)">
       <defs>
        <path id="SimSun-35" d="M 1725 2850 
Q 2200 2850 2500 2487 
Q 2800 2125 2800 1525 
Q 2800 850 2487 450 
Q 2175 50 1525 50 
Q 1075 50 725 312 
Q 375 575 375 950 
Q 375 1100 462 1212 
Q 550 1325 700 1325 
Q 850 1325 900 1225 
Q 950 1125 950 1050 
Q 950 900 875 825 
Q 800 725 800 625 
Q 800 425 1037 325 
Q 1275 225 1550 225 
Q 1950 225 2162 550 
Q 2375 875 2375 1475 
Q 2375 1975 2187 2287 
Q 2000 2600 1625 2600 
Q 1350 2600 1150 2500 
Q 950 2400 775 2075 
L 550 2100 
L 675 4375 
L 2725 4375 
L 2650 4000 
L 850 4000 
L 750 2350 
Q 1000 2700 1237 2775 
Q 1475 2850 1725 2850 
z
" transform="scale(0.015625)"/>
       </defs>
       <use xlink:href="#SimSun-35"/>
       <use xlink:href="#SimSun-30" x="50"/>
      </g>
     </g>
    </g>
    <g id="xtick_3">
     <g id="line2d_3">
      <g>
       <use xlink:href="#m8ab895d31b" x="353.28" y="461.376" style="stroke: #000000; stroke-width: 0.8"/>
      </g>
     </g>
     <g id="text_3">
      <!-- 100 -->
      <g transform="translate(339.03 481.958031) scale(0.19 -0.19)">
       <defs>
        <path id="SimSun-31" d="M 1825 4450 
L 1825 650 
Q 1825 450 1950 350 
Q 2075 250 2300 250 
L 2550 250 
L 2550 100 
L 725 100 
L 725 250 
L 950 250 
Q 1200 250 1312 350 
Q 1425 450 1425 650 
L 1425 3675 
Q 1425 3775 1362 3837 
Q 1300 3900 1175 3900 
L 725 3900 
L 725 4050 
L 950 4050 
Q 1250 4050 1437 4150 
Q 1625 4250 1725 4450 
L 1825 4450 
z
" transform="scale(0.015625)"/>
       </defs>
       <use xlink:href="#SimSun-31"/>
       <use xlink:href="#SimSun-30" x="50"/>
       <use xlink:href="#SimSun-30" x="100"/>
      </g>
     </g>
    </g>
    <g id="xtick_4">
     <g id="line2d_4">
      <g>
       <use xlink:href="#m8ab895d31b" x="472.32" y="461.376" style="stroke: #000000; stroke-width: 0.8"/>
      </g>
     </g>
     <g id="text_4">
      <!-- 150 -->
      <g transform="translate(458.07 481.958031) scale(0.19 -0.19)">
       <use xlink:href="#SimSun-31"/>
       <use xlink:href="#SimSun-35" x="50"/>
       <use xlink:href="#SimSun-30" x="100"/>
      </g>
     </g>
    </g>
    <g id="xtick_5">
     <g id="line2d_5">
      <g>
       <use xlink:href="#m8ab895d31b" x="591.36" y="461.376" style="stroke: #000000; stroke-width: 0.8"/>
      </g>
     </g>
     <g id="text_5">
      <!-- 200 -->
      <g transform="translate(577.11 481.958031) scale(0.19 -0.19)">
       <defs>
        <path id="SimSun-32" d="M 2325 3325 
Q 2325 3775 2125 4012 
Q 1925 4250 1525 4250 
Q 1225 4250 1012 4087 
Q 800 3925 800 3675 
Q 800 3525 900 3425 
Q 975 3325 975 3225 
Q 975 3100 912 3037 
Q 850 2975 725 2975 
Q 575 2975 487 3062 
Q 400 3150 400 3350 
Q 400 3875 775 4150 
Q 1150 4425 1575 4425 
Q 2175 4425 2462 4125 
Q 2750 3825 2750 3375 
Q 2750 3075 2612 2775 
Q 2475 2475 2175 2200 
Q 1450 1500 1062 1062 
Q 675 625 600 475 
L 2075 475 
Q 2300 475 2450 650 
Q 2600 825 2650 1175 
L 2800 1175 
L 2650 100 
L 325 100 
L 325 425 
Q 450 650 737 1000 
Q 1025 1350 1500 1825 
Q 1925 2250 2125 2625 
Q 2325 3000 2325 3325 
z
" transform="scale(0.015625)"/>
       </defs>
       <use xlink:href="#SimSun-32"/>
       <use xlink:href="#SimSun-30" x="50"/>
       <use xlink:href="#SimSun-30" x="100"/>
      </g>
     </g>
    </g>
    <g id="xtick_6">
     <g id="line2d_6">
      <g>
       <use xlink:href="#m8ab895d31b" x="710.4" y="461.376" style="stroke: #000000; stroke-width: 0.8"/>
      </g>
     </g>
     <g id="text_6">
      <!-- 250 -->
      <g transform="translate(696.15 481.958031) scale(0.19 -0.19)">
       <use xlink:href="#SimSun-32"/>
       <use xlink:href="#SimSun-35" x="50"/>
       <use xlink:href="#SimSun-30" x="100"/>
      </g>
     </g>
    </g>
    <g id="xtick_7">
     <g id="line2d_7">
      <g>
       <use xlink:href="#m8ab895d31b" x="829.44" y="461.376" style="stroke: #000000; stroke-width: 0.8"/>
      </g>
     </g>
     <g id="text_7">
      <!-- 300 -->
      <g transform="translate(815.19 481.958031) scale(0.19 -0.19)">
       <defs>
        <path id="SimSun-33" d="M 2800 1250 
Q 2800 775 2450 412 
Q 2100 50 1475 50 
Q 1025 50 700 300 
Q 375 550 375 875 
Q 375 1025 475 1137 
Q 575 1250 675 1250 
Q 825 1250 887 1137 
Q 950 1025 950 950 
Q 950 825 900 750 
Q 850 650 850 575 
Q 850 425 1037 325 
Q 1225 225 1450 225 
Q 1900 225 2125 487 
Q 2350 750 2350 1300 
Q 2350 1750 2112 2025 
Q 1875 2300 1225 2300 
L 1225 2475 
Q 1725 2475 1962 2712 
Q 2200 2950 2200 3375 
Q 2200 3725 2012 3987 
Q 1825 4250 1425 4250 
Q 1250 4250 1050 4162 
Q 850 4075 850 3875 
Q 850 3675 900 3625 
Q 950 3575 950 3500 
Q 950 3375 900 3300 
Q 850 3225 725 3225 
Q 625 3225 537 3300 
Q 450 3375 450 3575 
Q 450 3950 775 4187 
Q 1100 4425 1525 4425 
Q 2025 4425 2325 4112 
Q 2625 3800 2625 3450 
Q 2625 3075 2437 2812 
Q 2250 2550 1850 2425 
Q 2400 2225 2600 1900 
Q 2800 1575 2800 1250 
z
" transform="scale(0.015625)"/>
       </defs>
       <use xlink:href="#SimSun-33"/>
       <use xlink:href="#SimSun-30" x="50"/>
       <use xlink:href="#SimSun-30" x="100"/>
      </g>
     </g>
    </g>
    <g id="text_8">
     <!-- 请求数 $\mathrm{(M)}$ -->
     <g transform="translate(424.25 504.17725) scale(0.19 -0.19)">
      <defs>
       <path id="SimSun-8bf7" d="M 3800 4400 
Q 3800 4925 3775 5250 
L 4350 5000 
L 4150 4825 
L 4150 4400 
L 5175 4400 
L 5525 4725 
L 5950 4250 
L 4150 4250 
L 4150 3725 
L 4875 3725 
L 5200 4025 
L 5600 3575 
L 4150 3575 
L 4150 2950 
L 5325 2950 
L 5675 3275 
L 6100 2800 
L 2650 2800 
Q 2450 2800 2175 2725 
L 1950 2950 
L 3800 2950 
L 3800 3575 
L 3225 3575 
Q 3025 3575 2750 3500 
L 2525 3725 
L 3800 3725 
L 3800 4250 
L 2850 4250 
Q 2650 4250 2375 4175 
L 2150 4400 
L 3800 4400 
z
M 3075 2150 
L 3075 1650 
L 4975 1650 
L 4975 2150 
L 3075 2150 
z
M 3075 1500 
L 3075 925 
L 4975 925 
L 4975 1500 
L 3075 1500 
z
M 2725 2500 
L 3050 2300 
L 4925 2300 
L 5075 2525 
L 5475 2225 
L 5300 2075 
L 5300 50 
Q 5325 -425 4750 -600 
Q 4750 -275 4075 -125 
L 4075 -25 
Q 4500 -50 4750 -62 
Q 5000 -75 4975 175 
L 4975 775 
L 3075 775 
L 3075 -450 
L 2725 -625 
Q 2750 125 2750 1000 
Q 2750 1875 2725 2500 
z
M 850 5000 
L 925 5050 
Q 1375 4750 1512 4562 
Q 1650 4375 1600 4200 
Q 1550 4025 1450 3950 
L 1325 3875 
Q 1225 3875 1200 4150 
Q 1150 4500 850 5000 
z
M 200 3075 
L 1100 3075 
L 1300 3325 
L 1725 3000 
L 1500 2825 
L 1500 600 
L 2400 1425 
L 2475 1350 
Q 1775 525 1400 -150 
L 1050 250 
Q 1150 400 1150 600 
L 1150 2925 
L 900 2925 
Q 700 2925 425 2850 
L 200 3075 
z
" transform="scale(0.015625)"/>
       <path id="SimSun-6c42" d="M 3950 5025 
Q 4500 4825 4737 4687 
Q 4975 4550 4975 4350 
Q 4975 4300 4912 4125 
Q 4850 3950 4800 3950 
Q 4725 3950 4625 4150 
Q 4425 4475 3900 4950 
L 3950 5025 
z
M 2900 5225 
L 3500 4900 
L 3300 4700 
L 3300 3775 
L 5050 3775 
L 5400 4150 
L 5900 3625 
L 3325 3625 
Q 3650 2575 4000 2000 
Q 4725 2575 5100 3125 
L 5525 2650 
Q 5250 2600 4950 2425 
Q 4650 2225 4050 1875 
Q 4900 650 6100 375 
L 6100 275 
Q 5675 225 5525 -75 
Q 3750 900 3300 3325 
L 3300 175 
Q 3325 -425 2675 -600 
Q 2650 -250 1925 -25 
L 1925 75 
Q 2475 25 2687 25 
Q 2900 25 2925 250 
L 2925 1700 
Q 1950 1075 1387 700 
Q 825 325 700 100 
L 300 600 
Q 575 650 1225 975 
Q 1875 1300 2925 1850 
L 2925 3625 
L 1275 3625 
Q 950 3625 675 3550 
L 450 3775 
L 2925 3775 
Q 2925 4850 2900 5225 
z
M 1050 3175 
Q 1775 2900 1975 2712 
Q 2175 2525 2175 2350 
Q 2175 2250 2075 2075 
Q 1975 1900 1925 1900 
Q 1850 1900 1750 2175 
Q 1575 2575 1000 3100 
L 1050 3175 
z
" transform="scale(0.015625)"/>
       <path id="SimSun-6570" d="M 1875 1525 
Q 1675 1200 1500 900 
Q 1825 825 2275 725 
Q 2500 975 2725 1525 
L 1875 1525 
z
M 850 4900 
Q 1325 4600 1425 4450 
Q 1525 4300 1525 4225 
Q 1525 4100 1437 3975 
Q 1350 3850 1300 3850 
Q 1225 3850 1150 4100 
Q 1050 4450 775 4850 
L 850 4900 
z
M 3000 4975 
L 3450 4675 
Q 3250 4625 3100 4425 
Q 2925 4225 2525 3825 
L 2450 3875 
Q 2925 4625 3000 4975 
z
M 1875 5250 
L 2425 5000 
L 2225 4825 
L 2225 3675 
L 2850 3675 
L 3125 3950 
L 3550 3525 
L 2225 3525 
L 2225 3300 
Q 2800 3175 2937 3062 
Q 3075 2950 3075 2775 
Q 3075 2700 3050 2587 
Q 3025 2475 2975 2475 
Q 2925 2475 2800 2650 
Q 2600 2925 2225 3175 
L 2225 2400 
L 1925 2200 
L 2275 2050 
Q 2150 2000 1950 1675 
L 2725 1675 
L 2900 1900 
L 3275 1575 
L 3050 1450 
Q 2800 875 2600 650 
Q 3000 550 3137 437 
Q 3275 325 3275 150 
Q 3275 -25 3200 -25 
Q 3125 -25 3025 75 
Q 2750 275 2400 425 
Q 1525 -275 325 -500 
L 300 -425 
Q 1450 -50 2100 550 
Q 1600 725 1125 800 
Q 1225 950 1525 1525 
L 1200 1525 
Q 875 1525 600 1450 
L 375 1675 
L 1575 1675 
Q 1675 1925 1775 2275 
L 1900 2225 
L 1900 3250 
Q 1225 2475 350 2050 
L 300 2125 
Q 1225 2775 1700 3525 
L 1250 3525 
Q 925 3525 650 3450 
L 425 3675 
L 1900 3675 
Q 1900 4575 1875 5250 
z
M 3925 3525 
Q 4050 2075 4525 1100 
Q 4925 1950 5025 3525 
L 3925 3525 
z
M 4050 5250 
L 4625 4925 
Q 4425 4850 4325 4625 
Q 4225 4400 3950 3675 
L 5375 3675 
L 5675 3975 
L 6125 3525 
L 5400 3525 
Q 5250 1675 4750 775 
Q 5325 75 6100 -100 
L 6100 -200 
Q 5625 -275 5600 -500 
Q 4950 -50 4525 525 
Q 3700 -275 2550 -650 
L 2500 -575 
Q 3650 -50 4325 800 
Q 3850 1975 3825 3375 
Q 3575 2725 3100 2150 
L 3025 2200 
Q 3625 3200 4050 5250 
z
" transform="scale(0.015625)"/>
       <path id="SimSun-20" d="M 0 0 
Q 0 0 0 0 
z
" transform="scale(0.015625)"/>
       <path id="STIXGeneral-Regular-28" d="M 1946 -1030 
L 1869 -1133 
Q 1126 -710 716 32 
Q 307 774 307 1613 
Q 307 3386 1888 4326 
L 1946 4224 
Q 1293 3667 1075 3126 
Q 858 2586 858 1632 
Q 858 685 1082 96 
Q 1306 -493 1946 -1030 
z
" transform="scale(0.015625)"/>
       <path id="STIXGeneral-Regular-4d" d="M 5530 0 
L 3738 0 
L 3738 122 
Q 4115 147 4214 265 
Q 4314 384 4314 787 
L 4314 3661 
L 2682 0 
L 2592 0 
L 979 3514 
L 979 966 
Q 979 448 1088 294 
Q 1197 141 1574 122 
L 1574 0 
L 77 0 
L 77 122 
Q 358 141 480 205 
Q 602 269 650 432 
Q 698 595 698 966 
L 698 3514 
Q 698 3878 589 3984 
Q 480 4090 90 4115 
L 90 4237 
L 1357 4237 
L 2835 1024 
L 4250 4237 
L 5523 4237 
L 5523 4115 
Q 5178 4109 5072 3993 
Q 4966 3878 4966 3520 
L 4966 717 
Q 4966 378 5072 262 
Q 5178 147 5530 122 
L 5530 0 
z
" transform="scale(0.015625)"/>
       <path id="STIXGeneral-Regular-29" d="M 186 4224 
L 262 4326 
Q 992 3891 1408 3148 
Q 1824 2406 1824 1581 
Q 1824 -166 243 -1133 
L 186 -1030 
Q 845 -486 1059 54 
Q 1274 595 1274 1562 
Q 1274 2534 1059 3120 
Q 845 3706 186 4224 
z
" transform="scale(0.015625)"/>
      </defs>
      <use xlink:href="#SimSun-8bf7" transform="translate(0 0.96875)"/>
      <use xlink:href="#SimSun-6c42" transform="translate(100 0.96875)"/>
      <use xlink:href="#SimSun-6570" transform="translate(200 0.96875)"/>
      <use xlink:href="#SimSun-20" transform="translate(300 0.96875)"/>
      <use xlink:href="#STIXGeneral-Regular-28" transform="translate(350 0.96875)"/>
      <use xlink:href="#STIXGeneral-Regular-4d" transform="translate(383.299988 0.96875)"/>
      <use xlink:href="#STIXGeneral-Regular-29" transform="translate(472.199982 0.96875)"/>
     </g>
    </g>
   </g>
   <g id="matplotlib.axis_2">
    <g id="ytick_1">
     <g id="line2d_8">
      <defs>
       <path id="mdfaa2468cf" d="M 0 0 
L -3.5 0 
" style="stroke: #000000; stroke-width: 0.8"/>
      </defs>
      <g>
       <use xlink:href="#mdfaa2468cf" x="115.2" y="461.376" style="stroke: #000000; stroke-width: 0.8"/>
      </g>
     </g>
     <g id="text_9">
      <!-- 0 -->
      <g transform="translate(98.7 468.167016) scale(0.19 -0.19)">
       <use xlink:href="#SimSun-30"/>
      </g>
     </g>
    </g>
    <g id="ytick_2">
     <g id="line2d_9">
      <g>
       <use xlink:href="#mdfaa2468cf" x="115.2" y="417.024" style="stroke: #000000; stroke-width: 0.8"/>
      </g>
     </g>
     <g id="text_10">
      <!-- 0.5 -->
      <g transform="translate(79.7 423.815016) scale(0.19 -0.19)">
       <defs>
        <path id="SimSun-2e" d="M 800 25 
Q 650 25 537 125 
Q 425 225 425 400 
Q 425 575 537 675 
Q 650 775 800 775 
Q 950 775 1062 662 
Q 1175 550 1175 400 
Q 1175 225 1062 125 
Q 950 25 800 25 
z
" transform="scale(0.015625)"/>
       </defs>
       <use xlink:href="#SimSun-30"/>
       <use xlink:href="#SimSun-2e" x="50"/>
       <use xlink:href="#SimSun-35" x="100"/>
      </g>
     </g>
    </g>
    <g id="ytick_3">
     <g id="line2d_10">
      <g>
       <use xlink:href="#mdfaa2468cf" x="115.2" y="372.672" style="stroke: #000000; stroke-width: 0.8"/>
      </g>
     </g>
     <g id="text_11">
      <!-- 1.0 -->
      <g transform="translate(79.7 379.463016) scale(0.19 -0.19)">
       <use xlink:href="#SimSun-31"/>
       <use xlink:href="#SimSun-2e" x="50"/>
       <use xlink:href="#SimSun-30" x="100"/>
      </g>
     </g>
    </g>
    <g id="ytick_4">
     <g id="line2d_11">
      <g>
       <use xlink:href="#mdfaa2468cf" x="115.2" y="328.32" style="stroke: #000000; stroke-width: 0.8"/>
      </g>
     </g>
     <g id="text_12">
      <!-- 1.5 -->
      <g transform="translate(79.7 335.111016) scale(0.19 -0.19)">
       <use xlink:href="#SimSun-31"/>
       <use xlink:href="#SimSun-2e" x="50"/>
       <use xlink:href="#SimSun-35" x="100"/>
      </g>
     </g>
    </g>
    <g id="ytick_5">
     <g id="line2d_12">
      <g>
       <use xlink:href="#mdfaa2468cf" x="115.2" y="283.968" style="stroke: #000000; stroke-width: 0.8"/>
      </g>
     </g>
     <g id="text_13">
      <!-- 2.0 -->
      <g transform="translate(79.7 290.759016) scale(0.19 -0.19)">
       <use xlink:href="#SimSun-32"/>
       <use xlink:href="#SimSun-2e" x="50"/>
       <use xlink:href="#SimSun-30" x="100"/>
      </g>
     </g>
    </g>
    <g id="ytick_6">
     <g id="line2d_13">
      <g>
       <use xlink:href="#mdfaa2468cf" x="115.2" y="239.616" style="stroke: #000000; stroke-width: 0.8"/>
      </g>
     </g>
     <g id="text_14">
      <!-- 2.5 -->
      <g transform="translate(79.7 246.407016) scale(0.19 -0.19)">
       <use xlink:href="#SimSun-32"/>
       <use xlink:href="#SimSun-2e" x="50"/>
       <use xlink:href="#SimSun-35" x="100"/>
      </g>
     </g>
    </g>
    <g id="ytick_7">
     <g id="line2d_14">
      <g>
       <use xlink:href="#mdfaa2468cf" x="115.2" y="195.264" style="stroke: #000000; stroke-width: 0.8"/>
      </g>
     </g>
     <g id="text_15">
      <!-- 3.0 -->
      <g transform="translate(79.7 202.055016) scale(0.19 -0.19)">
       <use xlink:href="#SimSun-33"/>
       <use xlink:href="#SimSun-2e" x="50"/>
       <use xlink:href="#SimSun-30" x="100"/>
      </g>
     </g>
    </g>
    <g id="ytick_8">
     <g id="line2d_15">
      <g>
       <use xlink:href="#mdfaa2468cf" x="115.2" y="150.912" style="stroke: #000000; stroke-width: 0.8"/>
      </g>
     </g>
     <g id="text_16">
      <!-- 3.5 -->
      <g transform="translate(79.7 157.703016) scale(0.19 -0.19)">
       <use xlink:href="#SimSun-33"/>
       <use xlink:href="#SimSun-2e" x="50"/>
       <use xlink:href="#SimSun-35" x="100"/>
      </g>
     </g>
    </g>
    <g id="ytick_9">
     <g id="line2d_16">
      <g>
       <use xlink:href="#mdfaa2468cf" x="115.2" y="106.56" style="stroke: #000000; stroke-width: 0.8"/>
      </g>
     </g>
     <g id="text_17">
      <!-- 4.0 -->
      <g transform="translate(79.7 113.351016) scale(0.19 -0.19)">
       <defs>
        <path id="SimSun-34" d="M 2300 575 
Q 2300 400 2400 325 
Q 2500 250 2675 250 
L 2900 250 
L 2900 100 
L 1250 100 
L 1250 250 
L 1525 250 
Q 1725 250 1812 325 
Q 1900 400 1900 575 
L 1900 1400 
L 225 1400 
L 225 1525 
L 2050 4425 
L 2300 4425 
L 2300 1550 
L 2975 1550 
L 2975 1400 
L 2300 1400 
L 2300 575 
z
M 1875 3800 
L 450 1550 
L 1900 1550 
L 1900 3800 
L 1875 3800 
z
" transform="scale(0.015625)"/>
       </defs>
       <use xlink:href="#SimSun-34"/>
       <use xlink:href="#SimSun-2e" x="50"/>
       <use xlink:href="#SimSun-30" x="100"/>
      </g>
     </g>
    </g>
    <g id="ytick_10">
     <g id="line2d_17">
      <g>
       <use xlink:href="#mdfaa2468cf" x="115.2" y="62.208" style="stroke: #000000; stroke-width: 0.8"/>
      </g>
     </g>
     <g id="text_18">
      <!-- 4.5 -->
      <g transform="translate(79.7 68.999016) scale(0.19 -0.19)">
       <use xlink:href="#SimSun-34"/>
       <use xlink:href="#SimSun-2e" x="50"/>
       <use xlink:href="#SimSun-35" x="100"/>
      </g>
     </g>
    </g>
    <g id="text_19">
     <!-- 吞吐量 $\mathrm{(Mops)}$ -->
     <g transform="translate(71.52 323.067) rotate(-90) scale(0.19 -0.19)">
      <defs>
       <path id="SimSun-541e" d="M 2200 1700 
L 2200 75 
L 4200 75 
L 4200 1700 
L 2200 1700 
z
M 1025 4675 
L 4550 4675 
L 4875 5000 
L 5350 4525 
L 3300 4525 
Q 3150 4025 2900 3375 
L 5075 3375 
L 5450 3750 
L 5975 3225 
L 3700 3225 
Q 3925 2925 4312 2587 
Q 4700 2250 5225 2037 
Q 5750 1825 6100 1800 
L 6100 1700 
Q 5700 1675 5575 1375 
Q 4600 1900 4137 2437 
Q 3675 2975 3575 3225 
L 2825 3225 
Q 2425 2575 1950 2075 
L 2200 1850 
L 4175 1850 
L 4325 2100 
L 4750 1775 
L 4550 1600 
L 4550 375 
Q 4550 -50 4575 -375 
L 4200 -500 
L 4200 -75 
L 2200 -75 
L 2200 -450 
L 1825 -575 
Q 1850 175 1850 625 
L 1850 2000 
Q 1175 1400 375 1075 
L 325 1150 
Q 1075 1575 1600 2100 
Q 2125 2625 2450 3225 
L 1225 3225 
Q 900 3225 625 3150 
L 400 3375 
L 2525 3375 
Q 2800 4025 2900 4525 
L 1850 4525 
Q 1525 4525 1250 4450 
L 1025 4675 
z
" transform="scale(0.015625)"/>
       <path id="SimSun-5410" d="M 3775 3000 
L 3775 3750 
Q 3775 4400 3750 5175 
L 4350 4900 
L 4125 4700 
L 4125 3000 
L 4925 3000 
L 5250 3325 
L 5725 2850 
L 4125 2850 
L 4125 75 
L 5225 75 
L 5575 425 
L 6075 -75 
L 2675 -75 
Q 2350 -75 2075 -150 
L 1850 75 
L 3775 75 
L 3775 2850 
L 3225 2850 
Q 2900 2850 2625 2775 
L 2400 3000 
L 3775 3000 
z
M 575 4250 
L 950 4025 
L 1875 4025 
L 2050 4275 
L 2450 3950 
L 2250 3800 
L 2250 1950 
Q 2250 1375 2275 950 
L 1900 775 
L 1900 1225 
L 950 1225 
L 950 600 
L 575 425 
Q 600 1075 600 2375 
Q 600 3675 575 4250 
z
M 950 3875 
L 950 1375 
L 1900 1375 
L 1900 3875 
L 950 3875 
z
" transform="scale(0.015625)"/>
       <path id="SimSun-91cf" d="M 1700 2400 
L 1700 1875 
L 3025 1875 
L 3025 2400 
L 1700 2400 
z
M 3350 2400 
L 3350 1875 
L 4625 1875 
L 4625 2400 
L 3350 2400 
z
M 1700 1725 
L 1700 1225 
L 3025 1225 
L 3025 1725 
L 1700 1725 
z
M 3350 1725 
L 3350 1225 
L 4625 1225 
L 4625 1725 
L 3350 1725 
z
M 4950 2325 
Q 4950 1350 4975 1025 
L 4625 875 
L 4625 1075 
L 3350 1075 
L 3350 525 
L 4700 525 
L 5050 825 
L 5450 375 
L 3350 375 
L 3350 -225 
L 5275 -225 
L 5650 125 
L 6075 -375 
L 1175 -375 
Q 850 -375 575 -450 
L 350 -225 
L 3025 -225 
L 3025 375 
L 1725 375 
Q 1400 375 1125 300 
L 900 525 
L 3025 525 
L 3025 1075 
L 1700 1075 
L 1700 925 
L 1350 800 
Q 1375 1300 1375 1787 
Q 1375 2275 1350 2750 
L 1700 2550 
L 4600 2550 
L 4750 2750 
L 5125 2475 
L 4950 2325 
z
M 1775 4800 
L 1775 4375 
L 4550 4375 
L 4550 4800 
L 1775 4800 
z
M 1775 4225 
L 1775 3775 
L 4550 3775 
L 4550 4225 
L 1775 4225 
z
M 4875 4750 
Q 4875 3825 4900 3525 
L 4550 3375 
L 4550 3625 
L 1775 3625 
L 1775 3400 
L 1425 3250 
Q 1450 3650 1450 4262 
Q 1450 4875 1425 5125 
L 1800 4950 
L 4500 4950 
L 4650 5175 
L 5050 4900 
L 4875 4750 
z
M 250 3125 
L 5375 3125 
L 5725 3450 
L 6150 2975 
L 950 2975 
Q 750 2975 475 2900 
L 250 3125 
z
" transform="scale(0.015625)"/>
       <path id="STIXGeneral-Regular-6f" d="M 3008 1478 
Q 3008 806 2608 371 
Q 2208 -64 1568 -64 
Q 979 -64 582 368 
Q 186 800 186 1459 
Q 186 2125 582 2534 
Q 979 2944 1626 2944 
Q 2221 2944 2614 2537 
Q 3008 2131 3008 1478 
z
M 2432 1306 
Q 2432 2035 2112 2445 
Q 1856 2765 1504 2765 
Q 1171 2765 966 2493 
Q 762 2221 762 1747 
Q 762 928 1101 435 
Q 1318 115 1677 115 
Q 2029 115 2230 432 
Q 2432 749 2432 1306 
z
" transform="scale(0.015625)"/>
       <path id="STIXGeneral-Regular-70" d="M 1018 2931 
L 1018 2438 
Q 1421 2944 1939 2944 
Q 2406 2944 2707 2560 
Q 3008 2176 3008 1581 
Q 3008 883 2621 409 
Q 2234 -64 1664 -64 
Q 1466 -64 1328 -6 
Q 1190 51 1018 211 
L 1018 -794 
Q 1018 -1094 1120 -1180 
Q 1222 -1267 1581 -1274 
L 1581 -1389 
L 32 -1389 
L 32 -1280 
Q 314 -1254 397 -1171 
Q 480 -1088 480 -838 
L 480 2157 
Q 480 2381 429 2451 
Q 378 2522 218 2522 
Q 115 2522 58 2515 
L 58 2618 
Q 506 2752 979 2944 
L 1018 2931 
z
M 1018 2138 
L 1018 563 
Q 1018 422 1238 281 
Q 1459 141 1683 141 
Q 2029 141 2243 467 
Q 2458 794 2458 1325 
Q 2458 1888 2243 2224 
Q 2029 2560 1670 2560 
Q 1446 2560 1232 2419 
Q 1018 2278 1018 2138 
z
" transform="scale(0.015625)"/>
       <path id="STIXGeneral-Regular-73" d="M 998 1926 
L 1664 1523 
Q 1984 1331 2105 1164 
Q 2227 998 2227 736 
Q 2227 416 1961 176 
Q 1696 -64 1331 -64 
Q 1030 -64 864 -6 
Q 691 51 570 51 
Q 461 51 416 -26 
L 333 -26 
L 333 979 
L 435 979 
Q 538 512 730 294 
Q 922 77 1248 77 
Q 1485 77 1632 211 
Q 1779 346 1779 550 
Q 1779 845 1440 1030 
L 1094 1222 
Q 326 1651 326 2150 
Q 326 2522 566 2730 
Q 806 2938 1210 2938 
Q 1491 2938 1638 2867 
Q 1754 2816 1818 2816 
Q 1862 2816 1920 2880 
L 1990 2880 
L 2022 2010 
L 1926 2010 
Q 1818 2445 1654 2621 
Q 1491 2797 1203 2797 
Q 986 2797 854 2688 
Q 723 2579 723 2362 
Q 723 2253 796 2128 
Q 870 2003 998 1926 
z
" transform="scale(0.015625)"/>
      </defs>
      <use xlink:href="#SimSun-541e" transform="translate(0 0.140625)"/>
      <use xlink:href="#SimSun-5410" transform="translate(100 0.140625)"/>
      <use xlink:href="#SimSun-91cf" transform="translate(200 0.140625)"/>
      <use xlink:href="#SimSun-20" transform="translate(300 0.140625)"/>
      <use xlink:href="#STIXGeneral-Regular-28" transform="translate(350 0.140625)"/>
      <use xlink:href="#STIXGeneral-Regular-4d" transform="translate(383.299988 0.140625)"/>
      <use xlink:href="#STIXGeneral-Regular-6f" transform="translate(472.199982 0.140625)"/>
      <use xlink:href="#STIXGeneral-Regular-70" transform="translate(522.199966 0.140625)"/>
      <use xlink:href="#STIXGeneral-Regular-73" transform="translate(572.199951 0.140625)"/>
      <use xlink:href="#STIXGeneral-Regular-29" transform="translate(611.099945 0.140625)"/>
     </g>
    </g>
   </g>
   <g id="line2d_18">
    <path d="M 115.702827 442.643933 
L 116.386062 435.92394 
L 117.074961 435.712939 
L 117.757577 435.948014 
L 118.447861 435.662076 
L 119.132517 435.870965 
L 121.868823 435.922352 
L 122.557091 435.73649 
L 123.242764 435.833328 
L 123.918071 436.220583 
L 124.608698 435.648505 
L 125.286043 436.143402 
L 125.979105 435.575679 
L 126.664919 435.827882 
L 127.351687 435.792347 
L 128.036276 435.873423 
L 128.722061 435.828929 
L 129.394851 436.314122 
L 130.064389 436.434298 
L 130.773058 434.97643 
L 131.459864 435.790928 
L 132.146944 435.780833 
L 132.831938 435.909853 
L 134.201279 435.848621 
L 134.883035 435.980462 
L 135.564799 435.97875 
L 136.938621 435.736978 
L 137.622939 435.883579 
L 138.312754 435.679285 
L 138.99381 436.005192 
L 139.679481 435.833231 
L 140.362675 435.926672 
L 141.053102 435.657109 
L 141.736849 435.905782 
L 142.427214 435.658466 
L 143.106404 436.074541 
L 143.796574 435.665536 
L 144.479352 435.94145 
L 145.169051 435.685086 
L 145.853555 435.877281 
L 146.543363 435.679764 
L 147.225538 435.963555 
L 147.916535 435.634809 
L 148.601181 435.871347 
L 149.284135 435.934531 
L 149.971717 435.762064 
L 150.656707 435.860002 
L 152.719727 435.705266 
L 153.404809 435.855087 
L 154.092825 435.746123 
L 155.460999 435.913322 
L 156.147974 435.785934 
L 156.832816 435.864233 
L 157.519501 435.795603 
L 159.570617 435.94412 
L 160.256085 435.840895 
L 160.93543 436.069796 
L 161.623607 435.741094 
L 162.994605 435.84046 
L 167.793579 435.865555 
L 168.473762 436.036248 
L 169.162732 435.708823 
L 169.844224 435.98746 
L 170.53557 435.621716 
L 171.216415 436.013034 
L 171.907087 435.648975 
L 172.593774 435.795363 
L 173.280102 435.808855 
L 173.959515 436.066309 
L 174.65025 435.644619 
L 175.334175 435.89834 
L 176.022888 435.719858 
L 176.705035 435.964575 
L 177.390667 435.835981 
L 178.074747 435.892556 
L 178.760934 435.814878 
L 179.44191 436.008333 
L 180.131866 435.673617 
L 180.814886 435.93202 
L 181.502675 435.755961 
L 183.56092 435.815951 
L 184.246512 435.836211 
L 184.935699 435.702233 
L 185.620843 435.852781 
L 188.361394 435.823527 
L 189.048773 435.769577 
L 190.419728 435.830002 
L 191.104335 435.872926 
L 191.792948 435.723655 
L 192.476711 435.904327 
L 193.164548 435.753912 
L 193.849642 435.85475 
L 195.913277 435.649285 
L 196.592326 436.079908 
L 197.283506 435.62805 
L 197.968069 435.874523 
L 198.657932 435.67705 
L 199.341896 435.896832 
L 200.711175 435.8787 
L 201.401883 435.645666 
L 202.085151 435.924073 
L 204.145717 435.776194 
L 204.829113 435.91663 
L 205.516776 435.75903 
L 206.201504 435.868606 
L 213.750019 435.798964 
L 215.802497 435.907512 
L 216.486208 435.906199 
L 217.175159 435.71097 
L 217.85771 435.950968 
L 218.544074 435.806141 
L 219.228566 435.875711 
L 219.916726 435.73908 
L 221.975718 435.859957 
L 222.663377 435.75777 
L 223.346242 435.937706 
L 224.035367 435.703058 
L 224.719916 435.873831 
L 225.411127 435.625486 
L 226.092383 435.99767 
L 226.786184 435.530404 
L 227.470345 435.889513 
L 228.159956 435.688147 
L 228.843307 435.91962 
L 229.531813 435.727709 
L 230.215891 435.892609 
L 230.905702 435.679338 
L 231.589679 435.896264 
L 232.277545 435.752005 
L 232.96202 435.877725 
L 233.651533 435.692245 
L 234.336822 435.84737 
L 239.146205 435.75259 
L 239.831704 435.839972 
L 240.519415 435.755863 
L 241.889825 435.863772 
L 243.947891 435.872571 
L 244.631275 435.918298 
L 245.319403 435.741724 
L 246.002314 435.936056 
L 246.691753 435.693114 
L 247.374502 435.942133 
L 250.802288 435.76366 
L 251.486363 435.892707 
L 252.173745 435.769515 
L 253.546343 435.790085 
L 254.91846 435.866042 
L 255.602597 435.890374 
L 256.291543 435.711263 
L 256.973404 435.975246 
L 257.664886 435.616784 
L 258.346657 435.978537 
L 259.032066 435.843015 
L 260.398788 435.913419 
L 261.081934 435.927346 
L 261.767693 435.830055 
L 263.134729 435.916426 
L 263.822221 435.765408 
L 264.506227 435.895279 
L 265.193555 435.773196 
L 267.249804 435.84706 
L 268.625794 435.740899 
L 269.31476 435.710589 
L 269.999187 435.879605 
L 270.68642 435.777356 
L 272.056408 435.865741 
L 273.432982 435.688093 
L 274.116912 435.898171 
L 275.489072 435.785136 
L 276.172833 435.904496 
L 276.860953 435.742016 
L 278.230461 435.893745 
L 278.918255 435.754196 
L 279.603194 435.860481 
L 280.290631 435.767475 
L 281.660839 435.854901 
L 283.71336 435.973827 
L 284.399982 435.797785 
L 285.082724 435.942346 
L 286.455658 435.759686 
L 287.140743 435.85507 
L 289.883089 435.843024 
L 290.564431 435.994548 
L 291.25123 435.79311 
L 291.93555 435.883624 
L 292.623213 435.759101 
L 293.308907 435.832468 
L 295.367466 435.805529 
L 296.055332 435.824724 
L 296.744523 435.703989 
L 300.176175 435.869715 
L 300.85861 435.953806 
L 301.545973 435.771688 
L 302.918609 435.793562 
L 306.34837 435.834322 
L 307.038219 435.67799 
L 307.721125 435.935001 
L 308.411669 435.651867 
L 309.094902 435.924126 
L 309.786808 435.599664 
L 310.470804 435.894357 
L 311.160643 435.677954 
L 311.847871 435.77528 
L 312.53731 435.694427 
L 313.219138 435.976408 
L 313.908879 435.681645 
L 314.593917 435.856853 
L 315.281775 435.751783 
L 315.966453 435.870238 
L 316.655406 435.711006 
L 317.34271 435.807977 
L 318.033632 435.637683 
L 318.717345 435.906234 
L 319.407258 435.675808 
L 320.088643 435.992925 
L 320.777235 435.724515 
L 321.458163 436.01 
L 322.146519 435.733217 
L 322.831304 435.867728 
L 323.518291 435.784195 
L 324.20323 435.860711 
L 324.892134 435.712842 
L 326.263203 435.854067 
L 332.426325 435.893328 
L 333.800068 435.76445 
L 335.169902 435.859212 
L 336.54284 435.764255 
L 337.223632 436.015012 
L 337.912184 435.726023 
L 338.594116 435.974075 
L 339.282532 435.732002 
L 339.968031 435.839662 
L 342.032791 435.687002 
L 342.716152 435.919336 
L 343.405096 435.713161 
L 344.089907 435.865306 
L 344.776728 435.790475 
L 345.46161 435.863248 
L 346.14859 435.78494 
L 348.206358 435.851912 
L 348.894045 435.759598 
L 350.265688 435.819916 
L 353.006706 435.855522 
L 353.696757 435.670149 
L 354.379999 435.925146 
L 355.752856 435.793163 
L 356.436403 435.912426 
L 357.12343 435.782758 
L 358.490262 435.938522 
L 359.179506 435.700281 
L 359.864771 435.848878 
L 360.552287 435.764547 
L 361.236469 435.888689 
L 361.925275 435.717401 
L 362.609948 435.869147 
L 369.45885 435.830321 
L 370.146494 435.761168 
L 370.830103 435.910093 
L 375.632641 435.699838 
L 376.313192 436.023971 
L 377.001784 435.724453 
L 377.683912 435.965302 
L 378.371642 435.756546 
L 379.054734 435.929359 
L 379.743528 435.716949 
L 381.797649 435.984498 
L 382.486107 435.729456 
L 383.171492 435.843902 
L 383.85746 435.822143 
L 384.540423 435.934433 
L 385.227827 435.770632 
L 385.908178 436.03144 
L 386.597698 435.689956 
L 387.2837 435.820928 
L 392.079179 435.836566 
L 392.765437 435.811321 
L 393.447686 435.960761 
L 394.134876 435.776726 
L 394.819325 435.878736 
L 398.932747 435.828095 
L 400.986642 435.89983 
L 401.676271 435.686124 
L 405.797493 435.870761 
L 406.48389 435.806203 
L 407.168082 435.888334 
L 408.541061 435.806877 
L 413.347103 435.709161 
L 414.029426 435.958011 
L 414.717149 435.756803 
L 416.780329 435.773152 
L 417.465049 435.868721 
L 420.216428 435.794751 
L 420.904098 435.760245 
L 421.588104 435.895332 
L 422.27652 435.730973 
L 422.961226 435.869227 
L 423.652722 435.616208 
L 424.3343 435.98574 
L 425.025489 435.62773 
L 425.711747 435.811427 
L 429.143278 435.819473 
L 429.826982 435.90697 
L 430.516611 435.68576 
L 431.199856 435.923665 
L 433.25686 435.803151 
L 441.491406 435.860765 
L 442.180579 435.704264 
L 442.862716 435.964894 
L 443.55237 435.684882 
L 444.237974 435.835794 
L 446.295559 435.831661 
L 446.979884 435.884874 
L 447.669042 435.703404 
L 448.353848 435.865501 
L 449.043242 435.694578 
L 449.728348 435.854759 
L 450.418595 435.662822 
L 451.103284 435.87077 
L 451.79293 435.685166 
L 452.476684 435.906128 
L 453.167647 435.636228 
L 453.850894 435.923514 
L 454.541881 435.635217 
L 455.224561 435.944696 
L 455.911857 435.772788 
L 456.593883 435.969143 
L 457.282446 435.725677 
L 457.966128 435.908869 
L 458.65472 435.724568 
L 459.337595 435.936181 
L 460.025746 435.740846 
L 460.708798 435.930894 
L 461.396499 435.757602 
L 462.081667 435.851974 
L 462.770342 435.722741 
L 463.458903 435.725819 
L 464.828549 435.8791 
L 465.515528 435.784399 
L 466.887921 435.786918 
L 468.947144 435.809609 
L 470.321418 435.791921 
L 473.062595 435.889185 
L 473.750573 435.747348 
L 474.434996 435.879756 
L 475.810105 435.724347 
L 476.493381 435.922449 
L 477.180658 435.773418 
L 477.865386 435.868455 
L 478.551484 435.815889 
L 479.234153 435.945175 
L 479.922621 435.727895 
L 480.608177 435.837746 
L 481.296011 435.752634 
L 481.980163 435.889868 
L 482.66934 435.702667 
L 483.352961 435.911175 
L 484.042507 435.688874 
L 484.727065 435.87478 
L 489.527408 435.730148 
L 490.211757 435.882532 
L 496.390164 435.806123 
L 497.075261 435.854626 
L 497.762095 435.789943 
L 498.44589 435.903218 
L 499.13405 435.741901 
L 500.501368 435.932198 
L 501.188043 435.795824 
L 501.871423 435.918653 
L 502.554924 435.914164 
L 503.241738 435.79068 
L 504.611395 435.863266 
L 506.667583 435.771049 
L 507.349229 435.983123 
L 508.037023 435.754169 
L 508.719027 435.96987 
L 509.411219 435.591832 
L 510.094304 435.929954 
L 510.782872 435.725349 
L 511.468328 435.841267 
L 512.156862 435.726564 
L 512.839738 435.937431 
L 513.528439 435.720382 
L 514.212528 435.893674 
L 514.901572 435.707706 
L 515.582888 435.995479 
L 516.268311 435.842554 
L 516.952696 435.881122 
L 517.639742 435.782102 
L 518.322689 435.933422 
L 519.0079 435.850475 
L 520.377153 435.850395 
L 521.063814 435.796472 
L 521.747422 435.910164 
L 523.119913 435.785269 
L 523.804112 435.888068 
L 529.979567 435.773152 
L 530.661804 435.961222 
L 531.347512 435.83182 
L 532.032557 435.856631 
L 532.720187 435.76029 
L 533.405445 435.848656 
L 534.091682 435.81266 
L 534.774293 435.946009 
L 536.145832 435.762676 
L 536.829366 435.912887 
L 537.514142 435.865359 
L 538.196222 435.965834 
L 538.88418 435.746798 
L 539.568653 435.876598 
L 540.256566 435.750044 
L 540.940427 435.899564 
L 541.62775 435.771732 
L 542.99865 435.833089 
L 544.374498 435.690444 
L 545.056987 435.95048 
L 545.744931 435.750301 
L 546.430842 435.824405 
L 547.118055 435.774509 
L 547.803274 435.848905 
L 548.491637 435.732978 
L 549.861451 435.873077 
L 551.233109 435.826897 
L 552.602666 435.883517 
L 553.290194 435.764157 
L 553.976321 435.816359 
L 555.3522 435.75597 
L 556.03477 435.950258 
L 556.723891 435.704823 
L 557.408944 435.856356 
L 559.46746 435.831927 
L 560.15574 435.736109 
L 560.837661 435.972922 
L 561.524964 435.773906 
L 562.209813 435.863984 
L 562.89805 435.737643 
L 563.581576 435.913499 
L 564.270239 435.722262 
L 564.951045 436.01448 
L 565.637096 435.819145 
L 566.321593 435.877006 
L 567.011213 435.687579 
L 567.696646 435.842181 
L 568.385563 435.712363 
L 569.069281 435.906092 
L 573.871526 435.836007 
L 575.241179 435.844177 
L 575.926185 435.858006 
L 576.614594 435.731363 
L 577.299486 435.86402 
L 577.986315 435.790325 
L 580.044596 435.837737 
L 582.793534 435.7383 
L 584.164772 435.844771 
L 584.851869 435.780186 
L 586.221007 435.904185 
L 588.280761 435.742912 
L 588.965287 435.876022 
L 591.026928 435.727026 
L 591.70977 435.938673 
L 592.399067 435.698232 
L 593.083725 435.872349 
L 593.770084 435.807631 
L 594.454447 435.881974 
L 595.14222 435.754994 
L 595.827121 435.86198 
L 596.51731 435.665004 
L 597.202428 435.853854 
L 597.891206 435.719033 
L 598.57381 435.947517 
L 599.262616 435.716505 
L 601.321029 435.796241 
L 603.379474 435.780275 
L 604.060768 435.997768 
L 604.750314 435.688927 
L 605.434135 435.902172 
L 606.12306 435.712043 
L 606.807716 435.871036 
L 607.495977 435.736818 
L 608.180654 435.870345 
L 608.867413 435.792746 
L 609.550264 435.939693 
L 610.238518 435.737049 
L 612.295996 435.850501 
L 620.523798 435.774039 
L 621.206509 435.94231 
L 621.895015 435.727726 
L 622.578964 435.896033 
L 623.269603 435.646748 
L 623.95405 435.878869 
L 624.643251 435.70029 
L 625.326183 435.935276 
L 626.015122 435.710154 
L 627.387858 435.810798 
L 628.072941 435.855221 
L 628.752028 436.077043 
L 629.433496 435.988454 
L 630.109906 436.176932 
L 632.13845 436.26176 
L 632.798464 436.790382 
L 633.459241 436.760622 
L 634.106769 437.254162 
L 634.760536 437.021634 
L 635.4044 437.390651 
L 636.674938 437.812066 
L 637.305602 437.883739 
L 637.926841 438.233614 
L 638.54503 438.347093 
L 639.150984 438.801675 
L 639.760293 438.677995 
L 640.360799 439.005818 
L 640.959247 439.082512 
L 641.546676 439.493007 
L 642.136907 439.390013 
L 642.713806 439.885238 
L 644.978073 440.49499 
L 645.538173 440.511063 
L 646.087485 440.914098 
L 646.63236 441.078245 
L 647.178368 441.036084 
L 647.712684 441.47155 
L 648.240528 441.712692 
L 648.780961 441.243722 
L 649.308634 441.719078 
L 649.831479 441.898855 
L 650.344532 442.26475 
L 650.860482 442.155706 
L 651.361902 442.697058 
L 651.873077 442.333673 
L 652.364703 443.061906 
L 652.859161 442.956313 
L 653.341631 443.402937 
L 654.302245 443.53139 
L 654.763071 444.209292 
L 655.231255 443.935153 
L 655.692302 444.200972 
L 656.139416 444.720041 
L 657.045379 444.465159 
L 657.907393 445.546328 
L 658.339784 445.268462 
L 658.75911 445.755208 
L 659.183521 445.565816 
L 659.602335 445.773499 
L 661.170658 447.398033 
L 661.525485 448.157951 
L 661.867968 448.617792 
L 662.797437 450.383082 
L 662.797437 450.383082 
" clip-path="url(#pffe2ee454a)" style="fill: none; stroke: #ff0000; stroke-width: 1.5; stroke-linecap: square"/>
   </g>
   <g id="line2d_19">
    <path d="M 115.582883 446.009575 
L 116.255613 435.962508 
L 116.910681 436.112045 
L 117.562856 435.98134 
L 118.218228 436.037623 
L 118.882083 435.756928 
L 119.538068 436.152068 
L 120.207965 435.795851 
L 122.216463 436.120987 
L 122.890801 435.875942 
L 123.567669 436.028601 
L 124.247128 435.92574 
L 125.607372 436.114919 
L 126.283869 436.287058 
L 126.969261 436.047203 
L 127.650272 436.17043 
L 128.348399 435.79853 
L 129.739788 436.131312 
L 130.438258 435.999276 
L 131.143008 436.000429 
L 131.856434 435.834597 
L 132.563029 436.018782 
L 133.2763 435.889922 
L 133.987131 436.120064 
L 134.712173 435.828352 
L 135.434729 436.045748 
L 136.16457 435.901879 
L 136.892045 436.068997 
L 139.850839 435.914776 
L 140.592715 436.111114 
L 142.092798 435.873156 
L 143.599735 436.01691 
L 144.352829 436.063391 
L 145.112738 435.906607 
L 145.86779 436.103148 
L 146.632445 435.860649 
L 147.393435 435.998247 
L 148.156062 435.983912 
L 148.914178 436.083349 
L 149.68095 435.926006 
L 151.976532 436.004376 
L 152.741352 436.034669 
L 153.508822 435.933076 
L 154.272616 436.078888 
L 155.037995 436.049234 
L 155.816408 435.765798 
L 156.584508 436.074382 
L 157.36024 435.829488 
L 158.132995 435.980267 
L 165.856432 436.104878 
L 166.635713 435.881681 
L 167.410323 436.124792 
L 170.530842 435.91388 
L 171.308811 436.068554 
L 179.145595 435.918076 
L 179.934292 436.035059 
L 180.722135 435.974483 
L 181.506356 436.088042 
L 182.297303 435.901001 
L 183.881235 435.95213 
L 184.669616 436.028903 
L 186.250017 435.951943 
L 187.035824 436.043513 
L 187.830318 435.864304 
L 188.619877 436.008874 
L 190.204409 435.911831 
L 190.991078 436.133716 
L 191.791886 435.774464 
L 192.573212 436.284184 
L 193.370768 435.868322 
L 194.16121 436.03301 
L 195.754716 435.875968 
L 196.546605 436.077601 
L 198.135444 435.943401 
L 198.928429 436.018808 
L 199.728271 435.916799 
L 200.516866 436.17137 
L 202.104657 436.014666 
L 204.494013 435.986964 
L 205.291881 435.981686 
L 206.082569 436.118725 
L 206.879587 435.986831 
L 214.870171 435.978368 
L 216.463843 436.097072 
L 217.263575 436.098917 
L 218.064131 435.947313 
L 218.864467 436.027439 
L 222.079147 435.961186 
L 222.878063 436.117571 
L 223.68683 435.848497 
L 224.488579 436.026863 
L 225.294637 435.902109 
L 226.098952 436.004882 
L 226.906181 435.876172 
L 228.513976 436.040168 
L 229.322931 435.874052 
L 230.121449 436.127639 
L 231.728287 435.911565 
L 232.528126 436.143118 
L 233.339422 435.830605 
L 235.753675 436.019261 
L 237.358631 436.075189 
L 238.967738 436.091608 
L 240.582611 435.948298 
L 241.388619 436.060109 
L 242.198905 435.92127 
L 245.444871 435.943002 
L 247.059796 435.999391 
L 248.678543 435.955953 
L 249.487538 436.029488 
L 250.296972 435.964859 
L 251.105071 436.02806 
L 251.917835 435.8981 
L 252.723472 436.042492 
L 255.153557 435.910643 
L 255.964174 436.047016 
L 257.578887 435.997874 
L 258.395928 435.824715 
L 259.201786 436.092823 
L 260.009179 436.087829 
L 260.82128 435.925536 
L 263.25794 435.918475 
L 264.068131 435.989926 
L 264.882717 435.880927 
L 265.686978 436.128065 
L 267.305131 436.038279 
L 268.114582 436.049225 
L 268.931294 435.763997 
L 269.739897 436.046076 
L 270.555864 435.873015 
L 272.173813 436.126823 
L 272.989429 435.890214 
L 273.794409 436.082303 
L 274.60559 435.918555 
L 275.414338 436.032451 
L 279.476188 435.861483 
L 280.283067 436.110032 
L 281.106015 435.683827 
L 281.917522 435.952822 
L 282.737579 435.761274 
L 283.552449 435.78243 
L 285.175223 435.941121 
L 285.982479 436.020432 
L 286.79501 435.850475 
L 287.606587 435.953611 
L 289.23334 435.859523 
L 290.04239 436.039299 
L 293.289025 435.89135 
L 294.908667 435.902881 
L 296.530966 435.96202 
L 297.3385 436.015979 
L 299.774977 435.850821 
L 300.584194 435.999817 
L 302.202107 435.982795 
L 303.009522 436.02115 
L 303.821718 435.893 
L 307.053782 436.04141 
L 307.866526 435.875968 
L 308.671957 436.004607 
L 310.29232 435.833045 
L 311.098902 436.054059 
L 311.914805 435.797235 
L 312.722103 435.943144 
L 315.96306 435.919167 
L 316.770089 436.029967 
L 318.389307 435.897674 
L 319.194213 436.034207 
L 320.004268 435.848018 
L 321.610513 436.050369 
L 322.421673 435.840957 
L 323.222579 436.047744 
L 324.029296 435.927638 
L 327.245971 436.035574 
L 328.856918 435.824343 
L 329.6558 436.10368 
L 330.466017 435.749627 
L 331.26963 435.980479 
L 332.877937 435.888866 
L 333.677681 436.028362 
L 335.286733 435.842758 
L 336.08791 436.021301 
L 336.889266 435.910918 
L 337.689265 435.980426 
L 338.493992 435.876084 
L 339.297521 435.90281 
L 340.097082 436.047478 
L 340.904744 435.718359 
L 341.706584 435.921527 
L 343.312347 435.913907 
L 347.329514 435.836806 
L 348.128487 435.945787 
L 349.732344 435.852994 
L 350.533054 435.962544 
L 354.532551 435.85397 
L 356.123116 436.073228 
L 357.715623 435.971281 
L 359.31365 435.892237 
L 360.913395 435.806726 
L 361.703749 436.127941 
L 362.500434 435.940563 
L 364.892159 435.878949 
L 365.683825 436.02798 
L 366.480686 435.887252 
L 367.276499 435.913286 
L 368.066054 436.116995 
L 368.865702 435.76822 
L 369.658014 436.030473 
L 372.838293 435.827341 
L 373.627612 435.973906 
L 374.424466 435.855806 
L 375.217513 435.878106 
L 376.006895 436.016289 
L 376.803037 435.822125 
L 377.588739 436.121137 
L 378.386593 435.719353 
L 379.178735 435.92378 
L 381.548348 435.918085 
L 382.33341 436.114467 
L 383.917889 435.867435 
L 385.496433 435.942816 
L 386.294637 435.674051 
L 387.080875 435.965551 
L 387.868212 436.012377 
L 388.659033 435.808252 
L 389.444816 435.99971 
L 390.237566 435.818444 
L 391.819695 435.892867 
L 392.608007 435.835785 
L 393.394978 435.984622 
L 394.188944 435.717596 
L 394.974298 435.970855 
L 395.768469 435.734681 
L 396.554856 435.912355 
L 398.905937 435.97969 
L 399.698491 435.782084 
L 400.483207 435.964353 
L 401.270897 435.823766 
L 402.053512 435.961532 
L 402.840861 435.80583 
L 403.621099 435.998956 
L 405.196891 435.70092 
L 405.978613 435.960574 
L 407.550453 435.725393 
L 408.331995 435.962668 
L 409.11849 435.783308 
L 409.896919 436.014808 
L 410.68399 435.778625 
L 412.245628 435.99241 
L 413.03173 435.774402 
L 413.807609 436.061715 
L 414.594714 435.737067 
L 416.153014 435.951491 
L 418.489924 435.855238 
L 419.268895 435.95024 
L 420.04626 435.883233 
L 420.822213 435.986094 
L 422.37858 435.855975 
L 423.157582 435.878168 
L 423.938759 435.782093 
L 424.717278 435.871719 
L 425.495914 435.809041 
L 426.268724 435.937423 
L 428.59523 435.897355 
L 429.370339 435.946736 
L 430.923714 435.82342 
L 431.701035 435.78345 
L 432.474029 435.960299 
L 433.250784 435.846279 
L 434.019482 436.07416 
L 434.794214 435.886755 
L 435.566076 436.014737 
L 436.342622 435.796773 
L 437.11401 435.980542 
L 437.88203 435.99877 
L 438.660535 435.765789 
L 440.200999 435.963643 
L 440.975542 435.823349 
L 441.742398 435.994104 
L 444.051747 435.810239 
L 444.818724 435.982866 
L 446.359412 435.864082 
L 448.660498 436.035325 
L 449.430046 435.844727 
L 450.198068 435.940988 
L 450.967131 435.817965 
L 454.035175 435.947783 
L 454.803659 435.799089 
L 455.567903 435.974057 
L 457.103091 435.778598 
L 457.865032 435.920356 
L 459.388411 436.032256 
L 460.153153 435.797838 
L 461.674339 435.914466 
L 462.439351 435.82688 
L 463.200877 435.953141 
L 463.965389 435.904398 
L 464.722808 436.012963 
L 465.484185 435.876022 
L 466.999176 435.997511 
L 467.764972 435.8001 
L 470.045 435.96854 
L 470.808747 435.816927 
L 471.563584 436.063586 
L 473.080397 435.855673 
L 473.833798 436.089071 
L 474.595145 435.788737 
L 475.35012 436.083021 
L 476.108196 435.795399 
L 477.61918 436.028459 
L 478.375931 435.841356 
L 479.125636 436.064021 
L 479.887823 435.769249 
L 480.642324 435.930681 
L 481.396114 435.955083 
L 482.152794 435.839209 
L 482.905608 436.004403 
L 485.925465 435.827518 
L 491.958298 435.814701 
L 492.714233 435.703883 
L 493.467989 435.864233 
L 497.973096 435.831199 
L 500.233973 435.678229 
L 500.979268 435.977251 
L 501.723123 436.053243 
L 502.474825 435.765656 
L 503.219758 435.967688 
L 504.715486 435.869449 
L 506.952548 435.912035 
L 508.444045 435.934398 
L 509.198209 435.706012 
L 509.94014 436.037587 
L 510.69008 435.805458 
L 511.436449 435.900974 
L 512.181408 435.807107 
L 513.669553 435.944608 
L 515.902603 435.837027 
L 516.644454 435.955066 
L 517.389082 435.822232 
L 518.871078 436.01825 
L 519.613606 435.840576 
L 521.095285 435.86339 
L 521.831905 436.005059 
L 522.575131 435.852941 
L 523.311127 436.027386 
L 524.054055 435.862219 
L 526.27279 435.857828 
L 527.009678 435.995861 
L 527.749771 435.905995 
L 528.487303 436.033418 
L 529.229355 435.837808 
L 529.965215 436.008847 
L 530.707263 435.838305 
L 533.653382 435.973215 
L 534.395398 435.745405 
L 535.130377 435.934274 
L 535.870121 435.771954 
L 536.605452 435.974208 
L 537.344821 435.847166 
L 538.077984 435.967245 
L 539.553254 435.817566 
L 540.286081 436.018143 
L 541.021386 435.867435 
L 541.757501 435.843458 
L 542.491049 435.942284 
L 543.96421 435.837622 
L 544.691537 436.048045 
L 545.427168 435.836877 
L 546.890901 435.93744 
L 547.627144 435.816776 
L 548.360566 435.911308 
L 549.82274 435.952573 
L 550.561726 435.679445 
L 551.291605 435.956485 
L 552.762966 435.704681 
L 553.496504 435.867435 
L 554.230196 435.821735 
L 554.953733 436.110706 
L 555.685114 435.890542 
L 556.41212 435.936314 
L 557.144623 435.767475 
L 557.871924 435.983744 
L 558.606775 435.772034 
L 559.328272 436.106404 
L 560.062617 435.748643 
L 560.789173 435.979229 
L 561.518343 435.867249 
L 562.972612 435.955917 
L 563.699104 435.966961 
L 564.429331 435.764609 
L 565.157306 435.93681 
L 565.886695 435.838074 
L 567.336738 436.049048 
L 568.071524 435.736872 
L 568.796494 435.937538 
L 569.526793 435.844567 
L 571.701549 436.051868 
L 572.426009 435.869041 
L 573.153677 435.845729 
L 573.87516 436.010284 
L 576.053949 435.760396 
L 576.773076 436.003596 
L 577.497149 435.854724 
L 580.39983 435.799701 
L 581.117741 435.969702 
L 581.844338 435.758764 
L 583.288619 435.952963 
L 584.016184 435.741804 
L 584.738267 435.926512 
L 585.46383 435.778846 
L 586.908299 435.866406 
L 587.633736 435.698099 
L 588.353916 435.92818 
L 589.077022 435.806034 
L 589.795436 435.921367 
L 590.516675 435.901196 
L 591.234206 436.000101 
L 591.956826 435.814772 
L 592.677259 435.892042 
L 593.401291 435.800304 
L 594.117812 436.022153 
L 594.841765 435.776655 
L 595.562148 435.912905 
L 596.284542 435.92048 
L 597.007653 435.747223 
L 597.724881 435.912958 
L 599.881224 435.847007 
L 600.594918 435.986423 
L 601.317865 435.692156 
L 602.033919 435.962836 
L 602.756656 435.707537 
L 603.475358 435.916071 
L 605.626201 435.921837 
L 606.350345 435.63676 
L 607.780997 435.939702 
L 608.494106 435.921145 
L 609.212491 435.736801 
L 609.925974 435.960157 
L 610.643152 435.826578 
L 611.357603 435.870744 
L 612.077631 435.741892 
L 612.789036 436.024814 
L 613.511277 435.689646 
L 614.224896 435.882098 
L 617.086213 435.897577 
L 617.803998 435.691757 
L 620.668527 435.859957 
L 621.384662 435.802788 
L 622.094571 436.005104 
L 622.81497 435.67752 
L 624.24401 435.898428 
L 624.957878 435.795762 
L 626.384589 435.8385 
L 628.520057 435.887216 
L 629.237283 435.729358 
L 631.369939 435.945122 
L 632.083165 435.825576 
L 632.790455 435.978838 
L 633.505986 435.788462 
L 634.929064 435.829257 
L 635.642463 435.723602 
L 636.353965 435.859106 
L 637.068401 435.747232 
L 637.779191 435.845809 
L 638.492348 435.676606 
L 639.201845 435.894924 
L 639.913902 435.788036 
L 640.621485 435.90595 
L 641.330885 435.827846 
L 642.03854 435.890055 
L 642.804329 435.767794 
L 643.515252 435.907219 
L 644.231235 435.748687 
L 644.937742 435.968416 
L 645.647892 435.868154 
L 646.351385 435.967857 
L 647.064492 435.780567 
L 647.771156 435.888476 
L 648.483332 435.804916 
L 650.60243 435.966189 
L 651.313684 435.767687 
L 652.018146 435.914617 
L 653.432972 435.820351 
L 654.136303 435.940234 
L 654.844158 435.831049 
L 664.014755 436.005281 
L 665.426981 435.677538 
L 666.130881 435.913206 
L 668.243174 435.852701 
L 668.94358 435.933218 
L 669.650975 435.813636 
L 670.349297 436.006993 
L 671.050426 435.904123 
L 671.751602 435.924206 
L 672.460362 435.788116 
L 673.161322 435.990565 
L 673.861184 435.992171 
L 674.56741 435.776576 
L 675.977587 435.775254 
L 676.676078 436.031298 
L 677.374423 436.021354 
L 678.075257 435.820209 
L 680.181341 435.808243 
L 680.88217 435.907645 
L 681.58742 435.68875 
L 682.285738 435.95715 
L 682.986974 435.841099 
L 683.685372 435.915823 
L 684.389993 435.807081 
L 685.086323 435.94985 
L 685.788423 435.811623 
L 686.486554 435.950125 
L 689.989416 435.868171 
L 690.688593 435.924623 
L 691.39285 435.727726 
L 692.088046 436.078151 
L 692.788399 435.835014 
L 693.479821 436.050112 
L 694.184466 435.737776 
L 695.58342 435.91483 
L 696.285984 435.734858 
L 696.985247 435.882941 
L 697.690832 435.70414 
L 698.387166 435.993377 
L 699.089129 435.830437 
L 701.178988 436.012989 
L 701.88434 435.692484 
L 702.57776 436.024406 
L 703.278501 435.808802 
L 703.974592 435.969968 
L 705.372888 435.788426 
L 706.07371 435.778846 
L 706.765235 436.019625 
L 707.465376 435.832947 
L 708.85267 435.928738 
L 709.551283 435.753371 
L 710.251033 435.746762 
L 711.640823 435.917766 
L 712.339835 435.791797 
L 713.033443 435.986157 
L 713.734463 435.63142 
L 714.426468 435.968779 
L 715.12735 435.666725 
L 715.822251 435.94231 
L 716.522641 435.751765 
L 717.21034 436.061324 
L 717.907555 435.780798 
L 719.989589 435.9687 
L 720.687401 435.858148 
L 721.380864 435.921145 
L 722.078436 435.712868 
L 722.772475 435.839768 
L 723.469044 435.81965 
L 724.160129 435.946062 
L 724.858672 435.751446 
L 726.244998 435.878372 
L 727.629728 435.960645 
L 728.326657 435.771457 
L 729.019046 435.938283 
L 729.718671 435.669652 
L 730.409988 435.968327 
L 731.105896 435.799018 
L 733.19101 435.906518 
L 733.888051 435.743232 
L 734.576888 435.978626 
L 735.273006 435.789376 
L 738.050271 435.811144 
L 739.438084 435.88609 
L 740.128754 435.970899 
L 740.824712 435.782208 
L 741.520996 435.75322 
L 742.209712 436.062939 
L 742.902451 435.880776 
L 743.593856 435.896947 
L 744.28906 435.69165 
L 744.974201 436.055354 
L 745.670152 435.65184 
L 746.362832 435.834047 
L 747.746364 435.902429 
L 748.441472 435.707307 
L 749.131454 435.964149 
L 749.827819 435.72683 
L 750.520892 435.727487 
L 751.902677 435.914297 
L 752.598299 435.741679 
L 753.288879 435.92268 
L 753.981913 435.789917 
L 754.670731 435.88679 
L 755.363675 435.795691 
L 756.049828 435.970589 
L 756.746098 435.763988 
L 757.434973 435.966517 
L 758.13005 435.706189 
L 758.818627 435.904309 
L 759.51105 435.763501 
L 760.200851 435.894339 
L 760.888788 435.890099 
L 761.58275 435.746345 
L 763.650618 435.941263 
L 764.343809 435.708247 
L 765.028942 435.893665 
L 765.719574 435.731603 
L 766.404185 435.927559 
L 767.093321 435.766499 
L 767.781684 435.855912 
L 768.469969 435.781277 
L 769.152961 436.026428 
L 770.52729 435.823181 
L 771.212772 435.910412 
L 771.901683 435.790954 
L 772.590879 435.796844 
L 773.275369 435.958366 
L 773.967758 435.692342 
L 774.652883 435.925483 
L 775.347781 435.602592 
L 776.719389 436.041481 
L 777.40828 435.737972 
L 778.777169 435.987017 
L 779.470422 435.652399 
L 780.157897 435.845774 
L 781.533209 435.873449 
L 782.108001 440.088796 
L 782.426226 449.582156 
L 782.504345 458.472275 
L 782.504345 458.472275 
" clip-path="url(#pffe2ee454a)" style="fill: none; stroke: #0000ff; stroke-width: 1.5; stroke-linecap: square"/>
   </g>
   <g id="line2d_20">
    <path d="M 115.327599 456.271759 
L 115.775104 444.343803 
L 116.588847 430.178129 
L 117.236617 436.040532 
L 117.893613 435.842163 
L 118.54571 435.985811 
L 119.207782 435.836859 
L 119.862713 436.063427 
L 120.52899 435.871835 
L 121.194507 435.934974 
L 121.86509 435.79696 
L 122.533973 435.995568 
L 123.216392 435.658865 
L 123.88798 436.090969 
L 124.573664 435.742229 
L 125.248664 436.119736 
L 125.937944 435.815446 
L 126.623281 436.060224 
L 127.321838 435.732587 
L 128.010487 436.177926 
L 128.708833 435.857278 
L 129.407422 435.941707 
L 130.816946 435.847681 
L 131.520479 435.994291 
L 135.087656 435.852586 
L 135.806593 436.025319 
L 136.534418 435.787291 
L 137.254665 436.036301 
L 137.986251 435.781437 
L 138.711009 436.020556 
L 140.175978 435.773214 
L 142.375896 435.918209 
L 143.116123 435.769736 
L 143.849585 435.973924 
L 144.597273 435.669536 
L 145.333317 435.974864 
L 146.072603 436.022924 
L 146.817193 435.82766 
L 149.046736 435.880492 
L 149.795329 435.781508 
L 150.540443 436.009761 
L 151.293854 435.856418 
L 152.786316 436.014959 
L 153.536206 435.838012 
L 154.289705 435.788284 
L 155.0411 435.897878 
L 156.553475 435.799887 
L 157.306731 435.955926 
L 158.065956 435.830046 
L 158.818651 436.004758 
L 159.575081 435.827838 
L 160.327271 435.979309 
L 161.845045 435.769009 
L 162.601368 436.002993 
L 164.12405 435.837737 
L 164.885687 435.941911 
L 165.650952 435.834464 
L 166.416291 435.853367 
L 167.18532 435.723513 
L 167.949836 435.862024 
L 168.717591 435.825478 
L 169.479624 435.913056 
L 171.009642 435.944581 
L 171.772036 435.974909 
L 172.540909 435.857181 
L 179.477219 435.806291 
L 180.245775 435.982759 
L 181.021994 435.76296 
L 182.56601 435.910678 
L 183.346307 435.743205 
L 184.121398 435.904167 
L 185.676187 435.812785 
L 186.446918 436.056587 
L 187.219371 435.947765 
L 187.988872 436.097888 
L 188.768967 435.78235 
L 191.874402 436.074098 
L 192.661395 435.644043 
L 193.431088 436.148999 
L 194.209922 435.859141 
L 194.989307 435.815446 
L 195.762008 436.061981 
L 196.545058 435.731816 
L 197.320173 436.04495 
L 198.101934 435.899005 
L 201.217495 435.867426 
L 202.006901 435.706916 
L 202.78997 435.908762 
L 203.577839 435.806424 
L 206.708914 435.908008 
L 207.496645 435.852861 
L 208.274729 436.037268 
L 209.060807 435.809955 
L 209.842052 436.000376 
L 210.621852 436.053643 
L 211.409761 435.832903 
L 212.186788 436.076918 
L 212.969764 435.943827 
L 218.473619 435.873156 
L 219.255271 435.964451 
L 220.827911 435.831075 
L 221.616853 435.805662 
L 222.400377 435.988791 
L 223.967138 435.913064 
L 224.759095 435.789163 
L 225.544754 435.870105 
L 227.121922 435.849428 
L 227.905048 435.955908 
L 228.697112 435.744961 
L 229.481771 435.982839 
L 230.270287 435.878159 
L 231.837889 436.001431 
L 233.411403 435.88075 
L 234.197974 435.954338 
L 235.774776 435.84345 
L 237.346975 435.944545 
L 238.139208 435.795372 
L 239.713078 435.944395 
L 240.504985 435.836442 
L 241.291992 435.943605 
L 242.083627 435.775662 
L 243.65873 435.960503 
L 244.44469 435.884005 
L 245.229606 436.014941 
L 246.022472 435.79366 
L 246.804439 436.010213 
L 247.594293 435.794307 
L 248.382304 435.934735 
L 250.736239 435.977907 
L 251.530808 435.791309 
L 252.314665 436.02649 
L 253.098143 435.913614 
L 253.878448 436.04495 
L 255.452766 435.872411 
L 256.235252 436.047114 
L 257.026389 435.725003 
L 257.812872 435.937396 
L 258.602767 435.743063 
L 259.392538 435.904238 
L 261.75367 435.809361 
L 262.534272 436.033063 
L 263.323212 435.731957 
L 264.104777 435.982715 
L 264.884929 436.04204 
L 265.6721 435.811578 
L 268.024652 436.038767 
L 268.815378 435.783211 
L 269.599187 435.959093 
L 271.170689 435.863949 
L 271.951334 436.042838 
L 272.738669 435.787761 
L 273.520605 435.954755 
L 274.308228 435.799231 
L 276.653521 435.944971 
L 277.435185 435.94718 
L 278.225337 435.777436 
L 279.006101 435.963564 
L 279.789549 435.896353 
L 280.568949 436.045872 
L 282.925313 435.786865 
L 283.709219 435.912062 
L 286.062357 435.824875 
L 286.844864 435.930406 
L 287.631095 435.814993 
L 289.19643 435.859159 
L 290.760468 435.917597 
L 291.547296 435.804908 
L 292.326025 436.027537 
L 293.10977 435.816776 
L 293.888432 435.96815 
L 295.45452 435.854263 
L 296.231713 435.999994 
L 297.016244 435.796419 
L 297.793454 436.004323 
L 300.131697 435.865688 
L 301.6869 435.994779 
L 302.46724 435.838864 
L 303.240507 436.02249 
L 304.802043 435.798273 
L 305.577839 436.009282 
L 306.359422 435.757123 
L 307.130032 436.099795 
L 307.90688 435.847663 
L 309.454329 436.090393 
L 310.230451 435.917287 
L 312.555845 435.89472 
L 313.328155 436.049926 
L 314.106691 435.872864 
L 314.878903 435.975814 
L 317.210968 435.75495 
L 317.981916 436.043078 
L 318.759724 435.786138 
L 320.31027 435.895341 
L 321.085646 435.876962 
L 321.857066 435.995621 
L 322.629088 435.982191 
L 323.405019 435.795274 
L 324.176882 435.95676 
L 325.724259 435.832592 
L 327.266694 435.968983 
L 328.810671 435.900247 
L 333.424864 435.978652 
L 334.199831 435.762631 
L 334.968365 435.937804 
L 336.507852 435.859132 
L 338.045637 435.883304 
L 338.814857 435.865093 
L 339.592464 435.650146 
L 340.359725 435.873006 
L 341.904023 435.772965 
L 342.670322 435.936544 
L 344.979041 435.724897 
L 346.516292 435.874106 
L 347.282615 435.805112 
L 348.049011 435.854467 
L 348.819831 435.748793 
L 349.579813 436.002079 
L 350.346476 435.788666 
L 351.108922 436.017771 
L 351.875168 435.819251 
L 354.923945 435.9599 
L 355.690103 435.794529 
L 356.449676 435.972203 
L 357.213489 435.845942 
L 358.734682 435.959013 
L 359.497197 435.87399 
L 360.256004 435.961222 
L 361.024333 435.719317 
L 361.782037 435.973623 
L 362.544986 435.82381 
L 364.063465 436.003605 
L 364.825102 435.856179 
L 365.579803 436.000216 
L 366.345759 435.730964 
L 367.105253 435.90941 
L 367.867869 435.809831 
L 368.620825 436.005893 
L 370.138904 435.805635 
L 370.892189 435.976124 
L 371.654979 435.805546 
L 376.183875 435.969409 
L 376.940821 435.824724 
L 377.691623 435.961488 
L 378.450153 435.789704 
L 379.201543 435.986866 
L 380.71358 435.810292 
L 381.46591 435.96186 
L 382.223305 435.750993 
L 382.976535 435.938771 
L 383.735705 435.780328 
L 384.486091 435.993244 
L 385.242904 435.792817 
L 385.993916 435.907724 
L 386.749801 435.770907 
L 388.250347 435.944324 
L 389.004797 435.813006 
L 389.752458 435.927399 
L 390.508477 435.705098 
L 392.759642 435.951305 
L 394.258168 435.80811 
L 395.00361 435.936127 
L 395.75566 435.819526 
L 396.500155 436.016112 
L 397.250076 435.8235 
L 397.995507 435.953948 
L 398.747749 435.72738 
L 399.491726 435.926077 
L 401.736401 435.799479 
L 403.232789 435.876731 
L 403.974334 435.990139 
L 405.465077 435.869254 
L 406.206891 435.964805 
L 406.949836 435.937449 
L 407.702893 435.699031 
L 408.445922 435.932845 
L 409.190426 435.84172 
L 412.892837 436.013548 
L 414.381487 435.700246 
L 415.118271 435.995275 
L 415.862135 435.775245 
L 418.827678 435.854236 
L 421.057836 435.690967 
L 421.795924 435.963085 
L 422.536791 435.924764 
L 423.279503 435.763492 
L 424.015106 435.959998 
L 424.757644 435.741511 
L 425.492076 435.947366 
L 428.436102 435.85727 
L 431.382618 435.821158 
L 432.117142 435.921749 
L 432.855502 435.766729 
L 434.322846 435.910598 
L 435.796561 435.828716 
L 436.524046 436.092575 
L 437.260972 435.818275 
L 440.192994 435.923469 
L 440.928476 435.809041 
L 448.968202 435.85342 
L 449.692479 435.993093 
L 450.425363 435.690692 
L 451.149598 435.996313 
L 451.881394 435.824972 
L 453.339136 435.816217 
L 454.062395 436.015881 
L 454.790881 435.80654 
L 455.521599 435.75542 
L 457.7025 435.973312 
L 458.428808 435.806212 
L 459.153636 435.948777 
L 459.890265 435.583414 
L 460.613916 435.919309 
L 461.34155 435.827917 
L 462.792845 435.853216 
L 463.519554 435.752102 
L 465.689541 435.849455 
L 466.417087 435.746567 
L 467.137246 435.952733 
L 467.862835 435.79028 
L 468.585049 435.905196 
L 469.306686 435.872385 
L 470.02443 435.958898 
L 472.193934 435.775174 
L 473.633183 435.918085 
L 475.073874 435.830268 
L 475.798739 435.706819 
L 476.514867 435.9972 
L 477.238259 435.787513 
L 477.95253 436.022064 
L 478.676846 435.72047 
L 479.395997 435.897053 
L 480.119325 435.787619 
L 485.864183 435.793571 
L 486.585558 435.76264 
L 487.299377 435.893062 
L 488.017643 435.803515 
L 491.596314 435.857074 
L 493.022339 435.88012 
L 493.729096 436.062726 
L 494.444651 435.824689 
L 495.157284 435.947153 
L 495.872757 435.797394 
L 497.305465 435.734796 
L 498.01557 435.974226 
L 498.732648 435.721694 
L 499.439183 436.055133 
L 500.161142 435.634906 
L 500.872487 435.880013 
L 502.302481 435.800526 
L 503.012264 435.879969 
L 503.724247 435.824689 
L 504.4305 435.934611 
L 505.855351 435.751392 
L 507.278467 435.8074 
L 507.987362 436.008058 
L 508.698112 435.818098 
L 509.411733 435.762454 
L 510.115569 435.941583 
L 512.245135 435.729385 
L 512.950176 435.918919 
L 515.061341 435.98652 
L 515.770574 435.740127 
L 517.182679 435.902828 
L 517.888374 435.866681 
L 519.290089 436.183177 
L 520.009274 435.404986 
L 520.711548 435.963643 
L 521.424069 435.68427 
L 522.12951 435.87878 
L 522.838017 435.772735 
L 523.537817 435.969285 
L 524.245919 435.80426 
L 527.061377 435.888626 
L 527.769427 435.725393 
L 529.173797 435.916134 
L 530.576295 435.802938 
L 531.276019 435.881202 
L 531.978884 435.752244 
L 532.679415 435.832459 
L 533.383044 435.712789 
L 534.082202 435.908523 
L 534.785309 435.753069 
L 535.482684 435.909259 
L 536.188086 435.713986 
L 536.883884 435.901772 
L 537.586044 435.777143 
L 538.286395 435.816723 
L 538.991471 435.685113 
L 540.392022 435.882462 
L 541.791851 435.837489 
L 543.188005 435.864472 
L 543.889243 435.726174 
L 545.279718 435.941095 
L 546.679105 435.726254 
L 547.376834 435.818559 
L 548.775726 435.756023 
L 549.477624 435.722679 
L 550.168058 436.00026 
L 550.872472 435.622089 
L 551.564614 435.938079 
L 552.262817 435.76633 
L 552.954061 436.017238 
L 553.654213 435.655814 
L 554.348412 435.817468 
L 555.73847 435.816501 
L 556.439459 435.716319 
L 557.130515 435.965488 
L 557.827794 435.70587 
L 558.520795 435.855132 
L 559.216303 435.791531 
L 559.907285 435.937148 
L 560.602514 435.803746 
L 561.291548 435.964557 
L 561.985723 435.787477 
L 562.674488 435.995577 
L 563.366535 435.779272 
L 564.057524 435.95613 
L 564.752277 435.810159 
L 566.135362 435.919735 
L 568.904499 435.843591 
L 569.5947 435.915477 
L 570.285404 435.86473 
L 570.973064 436.033303 
L 571.665611 435.80756 
L 577.184281 435.847636 
L 577.873001 435.807791 
L 579.245121 435.912506 
L 579.935412 435.733944 
L 580.620009 435.937156 
L 581.30871 435.770659 
L 583.370169 435.802699 
L 584.059701 435.750204 
L 585.431498 435.88687 
L 587.489936 435.924951 
L 589.552904 435.798805 
L 590.239915 435.817619 
L 590.930123 435.684022 
L 591.611008 435.985571 
L 592.300264 435.695119 
L 593.678116 435.767962 
L 594.35971 436.020157 
L 595.051697 435.673209 
L 595.731311 436.087714 
L 596.419843 435.716851 
L 597.10079 435.919327 
L 597.784929 435.786812 
L 598.468157 435.885548 
L 600.526342 435.725722 
L 602.575706 435.927159 
L 603.262807 435.73571 
L 603.944121 435.868686 
L 604.626103 435.817646 
L 605.304746 436.059985 
L 605.990566 435.71686 
L 606.669675 435.909995 
L 607.352731 435.79421 
L 608.034983 435.829896 
L 609.407278 435.708637 
L 610.086232 435.87234 
L 610.76781 435.784444 
L 612.815622 435.813299 
L 616.895289 435.88177 
L 617.578355 435.723584 
L 618.256129 435.927958 
L 618.938556 435.764459 
L 620.297945 435.925696 
L 620.982406 435.703129 
L 621.660539 435.885202 
L 627.100548 435.761043 
L 627.777981 435.910412 
L 628.459309 435.777037 
L 629.136665 435.934176 
L 629.816505 435.848692 
L 630.494274 435.887118 
L 631.176409 435.769462 
L 631.854439 435.887997 
L 632.537698 435.741298 
L 633.212705 435.925084 
L 633.891921 435.801785 
L 634.56772 435.908523 
L 635.243408 435.838908 
L 635.919398 435.910465 
L 636.599026 435.72746 
L 637.274809 435.872677 
L 637.951301 435.772114 
L 639.302243 435.876048 
L 642.004599 435.702898 
L 642.677427 435.911698 
L 643.355665 435.788701 
L 644.027512 435.901772 
L 646.060825 435.73123 
L 646.731466 435.892121 
L 647.411758 435.737457 
L 653.492285 435.88946 
L 654.169658 435.732073 
L 654.840492 435.939773 
L 655.518751 435.653437 
L 656.191103 435.840904 
L 657.53776 435.870646 
L 658.208467 435.900238 
L 658.883147 435.729075 
L 659.55848 435.75283 
L 660.900218 435.936216 
L 661.570451 435.924773 
L 662.244558 435.761522 
L 663.591165 435.858006 
L 664.267153 435.705816 
L 664.936869 435.943516 
L 665.611188 435.753078 
L 666.95635 435.892228 
L 667.631585 435.732711 
L 668.977327 435.8352 
L 669.654227 435.693256 
L 670.326755 435.834526 
L 670.999412 435.820032 
L 671.676105 435.674699 
L 673.689185 435.95236 
L 674.363378 435.783743 
L 675.706737 435.83999 
L 676.382334 435.725216 
L 677.05486 435.830481 
L 677.727701 435.772469 
L 678.394977 435.916896 
L 679.070967 435.689415 
L 679.735022 436.0945 
L 680.405565 435.816191 
L 681.080024 435.718492 
L 683.088962 435.970988 
L 683.763852 435.71443 
L 684.430703 435.888662 
L 685.77649 435.758755 
L 686.441826 436.019048 
L 687.113538 435.745334 
L 687.780326 435.987389 
L 688.448079 435.833861 
L 689.118026 435.874026 
L 689.789481 435.768645 
L 690.455436 435.978031 
L 691.128298 435.737661 
L 691.795369 435.903901 
L 692.469081 435.748882 
L 695.816419 435.82052 
L 696.488519 435.753459 
L 697.827279 435.837364 
L 700.505264 435.850058 
L 701.843652 435.817504 
L 704.518555 435.832778 
L 705.190383 435.698312 
L 706.524217 435.888875 
L 707.194398 435.805058 
L 707.861296 435.86763 
L 708.533174 435.698241 
L 709.202715 435.830091 
L 712.545251 435.833648 
L 713.208427 435.964326 
L 713.878773 435.68019 
L 714.543028 435.89245 
L 715.20993 435.817752 
L 715.872871 435.944625 
L 716.541088 435.769674 
L 717.208117 435.825354 
L 717.877002 435.759136 
L 718.542812 435.870327 
L 719.20886 435.861696 
L 719.878386 435.719601 
L 721.208068 435.940678 
L 721.876442 435.756857 
L 722.541275 435.902651 
L 723.208178 435.801599 
L 723.872304 435.947366 
L 724.5415 435.681946 
L 725.205664 435.887314 
L 725.869241 435.94694 
L 726.540103 435.683037 
L 727.203475 435.936757 
L 727.872096 435.736765 
L 728.536932 435.887855 
L 729.20477 435.780683 
L 729.868475 435.913446 
L 730.536704 435.746815 
L 731.200204 435.910235 
L 732.528015 435.970128 
L 733.197519 435.67351 
L 733.861848 435.893053 
L 734.530675 435.73398 
L 735.19597 435.835386 
L 738.53109 435.848364 
L 739.195355 435.87376 
L 739.864876 435.747942 
L 740.529874 435.844097 
L 741.200117 435.751419 
L 741.863041 435.905028 
L 742.531586 435.78596 
L 743.198417 435.806788 
L 743.86227 435.956148 
L 744.530792 435.704486 
L 745.863804 435.811968 
L 746.529388 435.882275 
L 747.197557 435.7105 
L 749.862612 435.916488 
L 750.529251 435.806495 
L 751.191084 435.917526 
L 751.858411 435.792223 
L 752.520568 435.958676 
L 753.19183 435.681902 
L 753.854188 435.931896 
L 755.848141 435.748501 
L 756.512072 435.863337 
L 757.179258 435.774535 
L 757.83645 436.013859 
L 758.505147 435.746248 
L 759.169188 435.859372 
L 759.836795 435.748935 
L 760.495353 435.964229 
L 761.16377 435.749157 
L 761.82458 435.956405 
L 762.492866 435.706863 
L 763.153488 435.881362 
L 765.155095 435.765665 
L 765.816725 435.948244 
L 766.485358 435.731159 
L 767.149675 435.852018 
L 767.816889 435.784479 
L 768.480045 435.90116 
L 769.146071 435.814913 
L 771.137346 435.880466 
L 771.802922 435.847095 
L 772.46384 436.006896 
L 773.130673 435.837808 
L 775.124041 435.904939 
L 775.793319 435.71584 
L 776.45612 435.897887 
L 778.447988 435.689743 
L 779.109388 435.95778 
L 779.774684 435.8063 
L 780.435139 435.983105 
L 781.761414 435.817725 
L 782.354337 438.588368 
L 783.007417 451.882676 
L 783.1325 456.568385 
L 783.1325 456.568385 
" clip-path="url(#pffe2ee454a)" style="fill: none; stroke: #9467bd; stroke-width: 1.5; stroke-linecap: square"/>
   </g>
   <g id="patch_3">
    <path d="M 115.2 461.376 
L 115.2 62.208 
" style="fill: none; stroke: #000000; stroke-width: 0.8; stroke-linejoin: miter; stroke-linecap: square"/>
   </g>
   <g id="patch_4">
    <path d="M 829.44 461.376 
L 829.44 62.208 
" style="fill: none; stroke: #000000; stroke-width: 0.8; stroke-linejoin: miter; stroke-linecap: square"/>
   </g>
   <g id="patch_5">
    <path d="M 115.2 461.376 
L 829.44 461.376 
" style="fill: none; stroke: #000000; stroke-width: 0.8; stroke-linejoin: miter; stroke-linecap: square"/>
   </g>
   <g id="patch_6">
    <path d="M 115.2 62.208 
L 829.44 62.208 
" style="fill: none; stroke: #000000; stroke-width: 0.8; stroke-linejoin: miter; stroke-linecap: square"/>
   </g>
   <g id="text_20">
    <!-- $\mathrm{proto\ &amp;\ mica*}$的吞吐量随请求数的变化趋势 -->
    <g transform="translate(254.466 56.208) scale(0.228 -0.228)">
     <defs>
      <path id="STIXGeneral-Regular-72" d="M 1024 2931 
L 1024 2342 
Q 1267 2688 1430 2816 
Q 1594 2944 1792 2944 
Q 1958 2944 2051 2854 
Q 2144 2765 2144 2605 
Q 2144 2470 2077 2393 
Q 2010 2317 1894 2317 
Q 1773 2317 1638 2445 
Q 1536 2541 1472 2541 
Q 1338 2541 1181 2355 
Q 1024 2170 1024 2016 
L 1024 576 
Q 1024 301 1133 205 
Q 1242 109 1568 96 
L 1568 0 
L 32 0 
L 32 96 
Q 339 154 412 224 
Q 486 294 486 538 
L 486 2138 
Q 486 2349 438 2435 
Q 390 2522 269 2522 
Q 166 2522 45 2496 
L 45 2598 
Q 448 2726 992 2944 
L 1024 2931 
z
" transform="scale(0.015625)"/>
      <path id="STIXGeneral-Regular-74" d="M 1702 493 
L 1786 422 
Q 1478 -64 1011 -64 
Q 448 -64 448 749 
L 448 2675 
L 109 2675 
Q 83 2694 83 2720 
Q 83 2771 192 2842 
Q 435 2982 813 3526 
Q 826 3546 874 3606 
Q 922 3667 941 3706 
Q 986 3706 986 3622 
L 986 2880 
L 1632 2880 
L 1632 2675 
L 986 2675 
L 986 845 
Q 986 538 1062 403 
Q 1139 269 1318 269 
Q 1510 269 1702 493 
z
" transform="scale(0.015625)"/>
      <path id="STIXGeneral-Regular-26" d="M 4704 710 
L 4800 640 
Q 4659 294 4409 105 
Q 4160 -83 3834 -83 
Q 3309 -83 2746 499 
Q 2387 186 2070 51 
Q 1754 -83 1363 -83 
Q 838 -83 553 160 
Q 269 403 269 877 
Q 269 1267 528 1628 
Q 787 1990 1274 2272 
L 1517 2413 
Q 1293 2957 1293 3366 
Q 1293 3789 1571 4057 
Q 1850 4326 2266 4326 
Q 2656 4326 2899 4115 
Q 3142 3904 3142 3533 
Q 3142 3181 2921 2937 
Q 2701 2694 2150 2458 
Q 2509 1683 2995 1139 
Q 3315 1568 3449 1821 
Q 3584 2074 3584 2291 
Q 3584 2438 3494 2502 
Q 3405 2566 3168 2592 
L 3168 2726 
L 4550 2726 
L 4550 2592 
Q 4326 2592 4201 2509 
Q 4077 2426 3949 2214 
Q 3859 2074 3702 1814 
Q 3546 1555 3424 1363 
Q 3302 1171 3142 960 
Q 3379 659 3606 515 
Q 3834 371 4115 371 
Q 4301 371 4425 444 
Q 4550 518 4704 710 
z
M 2803 3558 
Q 2803 3795 2662 3958 
Q 2522 4122 2304 4122 
Q 2080 4122 1939 3974 
Q 1798 3827 1798 3590 
Q 1798 3334 1849 3139 
Q 1901 2944 2054 2662 
Q 2458 2848 2630 3059 
Q 2803 3270 2803 3558 
z
M 2586 666 
Q 2035 1312 1613 2195 
Q 1197 1926 1027 1686 
Q 858 1446 858 1114 
Q 858 717 1078 486 
Q 1299 256 1651 256 
Q 2061 256 2586 666 
z
" transform="scale(0.015625)"/>
      <path id="STIXGeneral-Regular-6d" d="M 4960 0 
L 3565 0 
L 3565 96 
Q 3834 122 3907 208 
Q 3981 294 3981 576 
L 3981 1894 
Q 3981 2278 3869 2444 
Q 3757 2611 3488 2611 
Q 3264 2611 3107 2521 
Q 2950 2432 2803 2221 
L 2803 608 
Q 2803 301 2896 201 
Q 2989 102 3264 96 
L 3264 0 
L 1830 0 
L 1830 96 
Q 2112 115 2189 188 
Q 2266 262 2266 550 
L 2266 1901 
Q 2266 2611 1850 2611 
Q 1670 2611 1468 2531 
Q 1267 2451 1171 2336 
Q 1088 2240 1088 2227 
L 1088 448 
Q 1088 243 1177 176 
Q 1267 109 1523 96 
L 1523 0 
L 102 0 
L 102 96 
Q 371 102 460 195 
Q 550 288 550 563 
L 550 2150 
Q 550 2387 499 2480 
Q 448 2573 326 2573 
Q 230 2573 122 2547 
L 122 2656 
Q 557 2778 1011 2944 
L 1062 2925 
L 1062 2451 
L 1075 2451 
Q 1363 2752 1584 2848 
Q 1805 2944 2054 2944 
Q 2560 2944 2733 2406 
Q 3232 2944 3776 2944 
Q 4518 2944 4518 1792 
L 4518 493 
Q 4518 282 4582 202 
Q 4646 122 4794 109 
L 4960 96 
L 4960 0 
z
" transform="scale(0.015625)"/>
      <path id="STIXGeneral-Regular-69" d="M 1152 4045 
Q 1152 3904 1056 3811 
Q 960 3718 819 3718 
Q 685 3718 592 3811 
Q 499 3904 499 4045 
Q 499 4179 595 4275 
Q 691 4371 826 4371 
Q 966 4371 1059 4275 
Q 1152 4179 1152 4045 
z
M 1619 0 
L 102 0 
L 102 96 
Q 435 115 521 211 
Q 608 307 608 666 
L 608 2118 
Q 608 2342 563 2432 
Q 518 2522 397 2522 
Q 243 2522 128 2490 
L 128 2592 
L 1120 2944 
L 1146 2918 
L 1146 672 
Q 1146 314 1226 218 
Q 1306 122 1619 96 
L 1619 0 
z
" transform="scale(0.015625)"/>
      <path id="STIXGeneral-Regular-63" d="M 2547 998 
L 2637 941 
Q 2362 403 2112 205 
Q 1786 -64 1376 -64 
Q 845 -64 502 336 
Q 160 736 160 1357 
Q 160 2170 698 2618 
Q 1094 2944 1562 2944 
Q 1965 2944 2256 2749 
Q 2547 2554 2547 2285 
Q 2547 2176 2457 2096 
Q 2368 2016 2246 2016 
Q 2022 2016 1939 2310 
L 1901 2451 
Q 1850 2630 1773 2694 
Q 1696 2758 1523 2758 
Q 1133 2758 893 2451 
Q 653 2144 653 1645 
Q 653 1094 928 745 
Q 1203 397 1645 397 
Q 1920 397 2118 528 
Q 2317 659 2547 998 
z
" transform="scale(0.015625)"/>
      <path id="STIXGeneral-Regular-61" d="M 2829 422 
L 2829 243 
Q 2586 -64 2253 -64 
Q 1888 -64 1843 403 
L 1837 403 
Q 1427 -64 909 -64 
Q 608 -64 422 112 
Q 237 288 237 602 
Q 237 1050 685 1350 
Q 992 1555 1837 1869 
L 1837 2214 
Q 1837 2502 1699 2646 
Q 1562 2790 1338 2790 
Q 1146 2790 1018 2697 
Q 890 2605 890 2477 
Q 890 2419 909 2348 
Q 928 2278 928 2208 
Q 928 2112 841 2029 
Q 755 1946 634 1946 
Q 525 1946 441 2029 
Q 358 2112 358 2240 
Q 358 2547 685 2752 
Q 986 2944 1421 2944 
Q 1939 2944 2176 2656 
Q 2291 2522 2323 2384 
Q 2355 2246 2355 1946 
L 2355 723 
Q 2355 301 2554 301 
Q 2682 301 2829 422 
z
M 1837 813 
L 1837 1715 
Q 1248 1510 1018 1293 
Q 800 1094 800 800 
Q 800 557 921 432 
Q 1043 307 1242 307 
Q 1453 307 1613 410 
Q 1747 506 1792 589 
Q 1837 672 1837 813 
z
" transform="scale(0.015625)"/>
      <path id="STIXGeneral-Regular-2a" d="M 1715 3014 
L 1773 2976 
Q 2010 2822 2387 2758 
Q 2605 2726 2688 2665 
Q 2771 2605 2771 2483 
Q 2771 2374 2707 2304 
Q 2643 2234 2541 2234 
Q 2381 2234 2157 2515 
Q 2010 2694 1715 2886 
L 1664 2918 
L 1664 2861 
Q 1664 2502 1792 2157 
Q 1850 1997 1850 1946 
Q 1850 1850 1770 1773 
Q 1690 1696 1594 1696 
Q 1504 1696 1433 1766 
Q 1363 1837 1363 1926 
Q 1363 2016 1440 2227 
Q 1542 2502 1542 2861 
L 1542 2918 
Q 1286 2758 1210 2688 
Q 1133 2611 947 2400 
Q 806 2240 672 2240 
Q 563 2240 499 2304 
Q 435 2368 435 2470 
Q 435 2592 528 2656 
Q 621 2720 838 2758 
Q 1062 2803 1180 2848 
Q 1299 2893 1498 3014 
Q 1222 3181 877 3251 
Q 640 3302 544 3366 
Q 448 3430 448 3546 
Q 448 3648 505 3715 
Q 563 3782 659 3782 
Q 787 3782 973 3578 
Q 1242 3277 1542 3110 
L 1542 3194 
Q 1542 3456 1446 3776 
Q 1376 3987 1376 4109 
Q 1376 4198 1443 4262 
Q 1510 4326 1606 4326 
Q 1702 4326 1772 4259 
Q 1843 4192 1843 4096 
Q 1843 3994 1773 3795 
Q 1664 3507 1664 3264 
L 1664 3110 
Q 1882 3238 2035 3379 
Q 2067 3411 2153 3504 
Q 2240 3597 2291 3648 
Q 2342 3699 2409 3747 
Q 2477 3795 2528 3795 
Q 2637 3795 2701 3728 
Q 2765 3661 2765 3552 
Q 2765 3424 2691 3363 
Q 2618 3302 2432 3277 
Q 2074 3219 1715 3014 
z
" transform="scale(0.015625)"/>
      <path id="SimSun-7684" d="M 1125 3775 
L 1125 2175 
L 2425 2175 
L 2425 3775 
L 1125 3775 
z
M 1125 2025 
L 1125 275 
L 2425 275 
L 2425 2025 
L 1125 2025 
z
M 2750 3625 
Q 2750 700 2775 -200 
L 2425 -400 
L 2425 125 
L 1125 125 
L 1125 -300 
L 775 -500 
Q 800 675 800 1837 
Q 800 3000 775 4150 
L 1150 3925 
L 1400 3925 
Q 1650 4775 1675 5225 
L 2225 4925 
Q 1975 4800 1550 3925 
L 2375 3925 
L 2625 4175 
L 3000 3800 
L 2750 3625 
z
M 3975 5200 
L 4525 4875 
Q 4325 4750 3900 3850 
L 5250 3850 
L 5525 4125 
L 5900 3750 
L 5675 3575 
Q 5625 650 5537 262 
Q 5450 -125 5287 -275 
Q 5125 -425 4775 -550 
Q 4650 -150 3950 50 
L 3950 175 
Q 4575 50 4850 50 
Q 5125 50 5187 475 
Q 5250 900 5300 3700 
L 3850 3700 
Q 3400 2975 2900 2475 
L 2825 2525 
Q 3350 3325 3600 3950 
Q 3850 4575 3975 5200 
z
M 3525 2750 
Q 4125 2300 4225 2087 
Q 4325 1875 4325 1775 
Q 4325 1600 4225 1475 
Q 4125 1350 4075 1350 
Q 3975 1350 3925 1700 
Q 3825 2200 3475 2675 
L 3525 2750 
z
" transform="scale(0.015625)"/>
      <path id="SimSun-968f" d="M 2175 4225 
L 2250 4275 
Q 2800 3825 2850 3625 
Q 2900 3425 2775 3300 
Q 2650 3175 2600 3175 
Q 2500 3175 2475 3425 
Q 2425 3800 2175 4225 
z
M 6050 0 
L 6050 -100 
Q 5650 -175 5625 -475 
Q 4975 -450 4487 -425 
Q 4000 -400 3650 -262 
Q 3300 -125 3050 150 
Q 2875 300 2750 300 
Q 2650 300 2487 162 
Q 2325 25 2125 -375 
L 1750 -100 
Q 2100 175 2575 450 
L 2575 2300 
Q 2525 2300 2250 2225 
L 2025 2450 
L 2550 2450 
L 2700 2650 
L 3075 2375 
L 2875 2225 
L 2875 475 
Q 3325 75 3762 0 
Q 4200 -75 4725 -62 
Q 5250 -50 6050 0 
z
M 600 4900 
L 950 4675 
L 1700 4675 
L 1900 4900 
L 2300 4625 
L 2075 4450 
L 1475 3000 
Q 1650 2775 1900 2475 
Q 2125 2175 2162 1975 
Q 2200 1775 2200 1650 
Q 2200 1400 2075 1150 
Q 1950 900 1400 800 
Q 1400 1075 950 1250 
L 950 -475 
L 600 -650 
Q 625 0 625 2175 
Q 625 4350 600 4900 
z
M 1300 3000 
L 1725 4525 
L 950 4525 
L 950 1350 
Q 1275 1275 1425 1275 
Q 1600 1275 1725 1350 
Q 1850 1425 1850 1675 
Q 1850 1825 1812 2100 
Q 1775 2375 1300 3000 
z
M 3900 3250 
L 3900 2600 
L 5150 2600 
L 5150 3250 
L 3900 3250 
z
M 3575 250 
Q 3600 725 3600 3200 
Q 3350 2875 3000 2625 
L 2950 2675 
Q 3525 3325 3850 4175 
L 3600 4175 
Q 3275 4175 3000 4100 
L 2775 4325 
L 3900 4325 
Q 4100 4925 4100 5150 
L 4600 4900 
Q 4425 4800 4225 4325 
L 5325 4325 
L 5625 4625 
L 6025 4175 
L 4175 4175 
Q 4025 3825 3825 3475 
L 3925 3400 
L 5100 3400 
L 5250 3625 
L 5650 3350 
L 5475 3200 
L 5475 875 
Q 5525 425 5025 275 
Q 5025 550 4525 650 
L 4525 750 
Q 4950 725 5050 725 
Q 5150 725 5150 900 
L 5150 1650 
L 3900 1650 
L 3900 400 
L 3575 250 
z
M 3900 2450 
L 3900 1800 
L 5150 1800 
L 5150 2450 
L 3900 2450 
z
" transform="scale(0.015625)"/>
      <path id="SimSun-53d8" d="M 2750 4225 
L 2750 2225 
L 3650 2225 
L 3650 4225 
L 2750 4225 
z
M 375 4375 
L 3100 4375 
Q 3050 4750 2650 5200 
L 2700 5275 
Q 3150 5075 3325 4925 
Q 3500 4775 3500 4700 
Q 3500 4550 3300 4375 
L 5125 4375 
L 5525 4775 
L 6075 4225 
L 4000 4225 
L 4000 2225 
L 4425 2225 
L 4675 2500 
L 5100 2100 
L 4825 1975 
Q 4300 1325 3525 650 
Q 4500 -50 6125 -175 
L 6125 -275 
Q 5750 -325 5625 -575 
Q 4175 -250 3300 450 
Q 2150 -300 350 -600 
L 325 -500 
Q 2050 -100 3075 675 
Q 2525 1250 2100 2075 
L 1650 2075 
L 1375 2025 
L 1175 2225 
L 2400 2225 
L 2400 4225 
L 1200 4225 
Q 875 4225 600 4150 
L 375 4375 
z
M 2275 2075 
Q 2725 1350 3300 850 
Q 3800 1300 4425 2075 
L 2275 2075 
z
M 1675 3850 
L 2125 3450 
L 1875 3350 
Q 1150 2575 325 1950 
L 250 2025 
Q 700 2425 1087 2937 
Q 1475 3450 1675 3850 
z
M 4350 3700 
Q 5675 3050 5812 2875 
Q 5950 2700 5950 2575 
Q 5950 2475 5900 2375 
Q 5850 2275 5800 2275 
Q 5700 2275 5500 2550 
Q 5200 2950 4275 3625 
L 4350 3700 
z
" transform="scale(0.015625)"/>
      <path id="SimSun-5316" d="M 1375 -600 
Q 1400 200 1400 925 
L 1400 3125 
Q 850 2300 350 1775 
L 275 1850 
Q 825 2625 1300 3650 
Q 1775 4675 1900 5200 
L 2450 4875 
L 2200 4725 
Q 1875 4000 1600 3475 
L 1950 3275 
L 1750 3075 
L 1750 350 
Q 1750 75 1775 -400 
L 1375 -600 
z
M 3450 2125 
L 3450 3925 
Q 3450 4475 3425 5200 
L 4000 4925 
L 3800 4725 
L 3800 2400 
Q 4150 2725 4562 3225 
Q 4975 3725 5150 4025 
L 5600 3600 
L 5325 3525 
Q 4600 2700 3800 2000 
L 3800 425 
Q 3800 0 4225 0 
L 5300 0 
Q 5500 0 5550 325 
Q 5600 650 5600 1325 
L 5725 1325 
Q 5775 650 5850 425 
Q 5925 200 6125 125 
Q 5900 -325 5400 -325 
L 4075 -325 
Q 3450 -325 3450 250 
L 3450 1775 
Q 2800 1275 1950 925 
L 1925 1025 
Q 2800 1525 3450 2125 
z
" transform="scale(0.015625)"/>
      <path id="SimSun-8d8b" d="M 3900 5225 
L 4425 4900 
L 4225 4825 
Q 4000 4475 3800 4150 
L 4750 4150 
L 4975 4425 
L 5400 4025 
Q 5100 4000 4475 3075 
L 5350 3075 
L 5500 3325 
L 5900 3050 
L 5725 2875 
Q 5725 1050 5750 525 
L 5400 375 
L 5400 800 
L 3725 800 
Q 3525 800 3250 725 
L 3025 950 
L 5400 950 
L 5400 1900 
L 4050 1900 
Q 3850 1900 3575 1825 
L 3350 2050 
L 5400 2050 
L 5400 2925 
L 3900 2925 
Q 3700 2925 3425 2850 
L 3200 3075 
L 4350 3075 
L 4775 4000 
L 3725 4000 
Q 3450 3625 3000 3200 
L 2950 3250 
Q 3650 4250 3900 5225 
z
M 300 -550 
L 225 -500 
Q 675 275 787 1112 
Q 900 1950 850 2425 
L 1400 2150 
Q 1250 2075 1212 1812 
Q 1175 1550 1125 1075 
Q 1500 750 1725 625 
L 1725 2825 
L 950 2825 
Q 750 2825 475 2750 
L 250 2975 
L 1600 2975 
L 1600 4025 
L 1225 4025 
Q 1025 4025 750 3950 
L 525 4175 
L 1600 4175 
Q 1600 4675 1575 5225 
L 2125 4975 
L 1925 4800 
L 1925 4175 
L 2400 4175 
L 2700 4475 
L 3100 4025 
L 1925 4025 
L 1925 2975 
L 2475 2975 
L 2800 3275 
L 3200 2825 
L 1750 2825 
L 2250 2600 
L 2050 2400 
L 2050 1800 
L 2625 1800 
L 2925 2100 
L 3300 1650 
L 2050 1650 
L 2050 425 
Q 2925 25 3737 0 
Q 4550 -25 4925 -25 
Q 5625 -25 6150 25 
L 6150 -50 
Q 5700 -250 5700 -475 
Q 4950 -500 4012 -412 
Q 3075 -325 2325 -12 
Q 1575 300 1100 900 
Q 775 -25 300 -550 
z
" transform="scale(0.015625)"/>
      <path id="SimSun-52bf" d="M 1650 4175 
Q 1650 4775 1625 5200 
L 2150 4950 
L 1975 4800 
L 1975 4175 
L 2200 4175 
L 2475 4450 
L 2900 4025 
L 1975 4025 
L 1975 3425 
Q 2400 3525 2800 3625 
L 2825 3525 
Q 2400 3375 1975 3225 
L 1975 2150 
Q 2000 1800 1475 1575 
Q 1450 1850 800 2025 
L 800 2150 
Q 1225 2100 1437 2087 
Q 1650 2075 1650 2325 
L 1650 3100 
Q 700 2750 700 2650 
L 400 3100 
Q 575 3100 1650 3350 
L 1650 4025 
L 1300 4025 
Q 975 4025 700 3950 
L 475 4175 
L 1650 4175 
z
M 3650 4175 
L 3650 4525 
Q 3650 4875 3625 5225 
L 4175 4975 
L 3975 4800 
L 3975 4200 
L 4700 4250 
L 4850 4475 
L 5200 4200 
L 5025 4050 
Q 5000 3900 5000 3575 
Q 5000 3225 5050 2812 
Q 5100 2400 5425 2175 
Q 5600 2650 5700 3050 
L 5800 3025 
Q 5725 2525 5725 2250 
Q 5725 1975 5825 1775 
Q 5900 1650 5775 1650 
Q 5725 1650 5475 1750 
Q 5225 1850 5012 2137 
Q 4800 2425 4737 2750 
Q 4675 3075 4675 3475 
Q 4675 3850 4700 4100 
L 3975 4050 
Q 3925 3450 3750 3050 
Q 4100 2900 4262 2787 
Q 4425 2675 4387 2475 
Q 4350 2275 4275 2275 
Q 4225 2275 4125 2400 
Q 3925 2625 3625 2825 
Q 3225 2225 2100 1800 
L 2050 1875 
Q 3075 2400 3375 2975 
Q 3225 3100 2850 3300 
L 2900 3375 
Q 3225 3275 3475 3175 
Q 3600 3500 3650 4025 
L 3300 4000 
L 3125 3925 
L 2875 4125 
L 3650 4175 
z
M 2600 1425 
Q 2675 1700 2700 2025 
L 3175 1775 
L 3000 1650 
L 2950 1425 
L 4725 1425 
L 4875 1675 
L 5325 1375 
L 5125 1225 
Q 5050 400 4987 112 
Q 4925 -175 4750 -350 
Q 4575 -525 4225 -600 
Q 4250 -350 3650 -50 
L 3675 50 
Q 4225 -100 4412 -87 
Q 4600 -75 4675 312 
Q 4750 700 4775 1275 
L 2925 1275 
Q 2800 775 2575 450 
Q 2350 125 1875 -162 
Q 1400 -450 450 -650 
L 400 -550 
Q 1500 -225 1950 200 
Q 2400 625 2575 1275 
L 1450 1275 
Q 1125 1275 850 1200 
L 625 1425 
L 2600 1425 
z
" transform="scale(0.015625)"/>
     </defs>
     <use xlink:href="#STIXGeneral-Regular-70" transform="translate(0 0.578125)"/>
     <use xlink:href="#STIXGeneral-Regular-72" transform="translate(49.999985 0.578125)"/>
     <use xlink:href="#STIXGeneral-Regular-6f" transform="translate(83.299973 0.578125)"/>
     <use xlink:href="#STIXGeneral-Regular-74" transform="translate(133.299957 0.578125)"/>
     <use xlink:href="#STIXGeneral-Regular-6f" transform="translate(161.099945 0.578125)"/>
     <use xlink:href="#STIXGeneral-Regular-26" transform="translate(235.16635 0.578125)"/>
     <use xlink:href="#STIXGeneral-Regular-6d" transform="translate(337.032757 0.578125)"/>
     <use xlink:href="#STIXGeneral-Regular-69" transform="translate(414.832745 0.578125)"/>
     <use xlink:href="#STIXGeneral-Regular-63" transform="translate(442.632733 0.578125)"/>
     <use xlink:href="#STIXGeneral-Regular-61" transform="translate(487.032727 0.578125)"/>
     <use xlink:href="#STIXGeneral-Regular-2a" transform="translate(545.872717 0.578125)"/>
     <use xlink:href="#SimSun-7684" transform="translate(610.312698 0.578125)"/>
     <use xlink:href="#SimSun-541e" transform="translate(710.312698 0.578125)"/>
     <use xlink:href="#SimSun-5410" transform="translate(810.312698 0.578125)"/>
     <use xlink:href="#SimSun-91cf" transform="translate(910.312698 0.578125)"/>
     <use xlink:href="#SimSun-968f" transform="translate(1010.312698 0.578125)"/>
     <use xlink:href="#SimSun-8bf7" transform="translate(1110.312698 0.578125)"/>
     <use xlink:href="#SimSun-6c42" transform="translate(1210.312698 0.578125)"/>
     <use xlink:href="#SimSun-6570" transform="translate(1310.312698 0.578125)"/>
     <use xlink:href="#SimSun-7684" transform="translate(1410.312698 0.578125)"/>
     <use xlink:href="#SimSun-53d8" transform="translate(1510.312698 0.578125)"/>
     <use xlink:href="#SimSun-5316" transform="translate(1610.312698 0.578125)"/>
     <use xlink:href="#SimSun-8d8b" transform="translate(1710.312698 0.578125)"/>
     <use xlink:href="#SimSun-52bf" transform="translate(1810.312698 0.578125)"/>
    </g>
   </g>
   <g id="legend_1">
    <g id="patch_7">
     <path d="M 699.414688 158.000656 
L 816.14 158.000656 
Q 819.94 158.000656 819.94 154.200656 
L 819.94 75.508 
Q 819.94 71.708 816.14 71.708 
L 699.414688 71.708 
Q 695.614688 71.708 695.614688 75.508 
L 695.614688 154.200656 
Q 695.614688 158.000656 699.414688 158.000656 
z
" style="fill: #ffffff; opacity: 0.8; stroke: #cccccc; stroke-linejoin: miter"/>
    </g>
    <g id="line2d_21">
     <path d="M 703.214688 85.958 
L 722.214688 85.958 
L 741.214688 85.958 
" style="fill: none; stroke: #ff0000; stroke-width: 1.5; stroke-linecap: square"/>
    </g>
    <g id="text_21">
     <!-- memc3 -->
     <g transform="translate(756.414688 92.608) scale(0.19 -0.19)">
      <defs>
       <path id="TimesNewRomanPSMT-6d" d="M 1050 2338 
Q 1363 2650 1419 2697 
Q 1559 2816 1721 2881 
Q 1884 2947 2044 2947 
Q 2313 2947 2506 2790 
Q 2700 2634 2766 2338 
Q 3088 2713 3309 2830 
Q 3531 2947 3766 2947 
Q 3994 2947 4170 2830 
Q 4347 2713 4450 2447 
Q 4519 2266 4519 1878 
L 4519 647 
Q 4519 378 4559 278 
Q 4591 209 4675 161 
Q 4759 113 4950 113 
L 4950 0 
L 3538 0 
L 3538 113 
L 3597 113 
Q 3781 113 3884 184 
Q 3956 234 3988 344 
Q 4000 397 4000 647 
L 4000 1878 
Q 4000 2228 3916 2372 
Q 3794 2572 3525 2572 
Q 3359 2572 3192 2489 
Q 3025 2406 2788 2181 
L 2781 2147 
L 2788 2013 
L 2788 647 
Q 2788 353 2820 281 
Q 2853 209 2943 161 
Q 3034 113 3253 113 
L 3253 0 
L 1806 0 
L 1806 113 
Q 2044 113 2133 169 
Q 2222 225 2256 338 
Q 2272 391 2272 647 
L 2272 1878 
Q 2272 2228 2169 2381 
Q 2031 2581 1784 2581 
Q 1616 2581 1450 2491 
Q 1191 2353 1050 2181 
L 1050 647 
Q 1050 366 1089 281 
Q 1128 197 1204 155 
Q 1281 113 1516 113 
L 1516 0 
L 100 0 
L 100 113 
Q 297 113 375 155 
Q 453 197 493 289 
Q 534 381 534 647 
L 534 1741 
Q 534 2213 506 2350 
Q 484 2453 437 2492 
Q 391 2531 309 2531 
Q 222 2531 100 2484 
L 53 2597 
L 916 2947 
L 1050 2947 
L 1050 2338 
z
" transform="scale(0.015625)"/>
       <path id="TimesNewRomanPSMT-65" d="M 681 1784 
Q 678 1147 991 784 
Q 1303 422 1725 422 
Q 2006 422 2214 576 
Q 2422 731 2563 1106 
L 2659 1044 
Q 2594 616 2278 264 
Q 1963 -88 1488 -88 
Q 972 -88 605 314 
Q 238 716 238 1394 
Q 238 2128 614 2539 
Q 991 2950 1559 2950 
Q 2041 2950 2350 2633 
Q 2659 2316 2659 1784 
L 681 1784 
z
M 681 1966 
L 2006 1966 
Q 1991 2241 1941 2353 
Q 1863 2528 1708 2628 
Q 1553 2728 1384 2728 
Q 1125 2728 920 2526 
Q 716 2325 681 1966 
z
" transform="scale(0.015625)"/>
       <path id="TimesNewRomanPSMT-63" d="M 2631 1088 
Q 2516 522 2178 217 
Q 1841 -88 1431 -88 
Q 944 -88 581 321 
Q 219 731 219 1428 
Q 219 2103 620 2525 
Q 1022 2947 1584 2947 
Q 2006 2947 2278 2723 
Q 2550 2500 2550 2259 
Q 2550 2141 2473 2067 
Q 2397 1994 2259 1994 
Q 2075 1994 1981 2113 
Q 1928 2178 1911 2362 
Q 1894 2547 1784 2644 
Q 1675 2738 1481 2738 
Q 1169 2738 978 2506 
Q 725 2200 725 1697 
Q 725 1184 976 792 
Q 1228 400 1656 400 
Q 1963 400 2206 609 
Q 2378 753 2541 1131 
L 2631 1088 
z
" transform="scale(0.015625)"/>
       <path id="TimesNewRomanPSMT-33" d="M 325 3431 
Q 506 3859 782 4092 
Q 1059 4325 1472 4325 
Q 1981 4325 2253 3994 
Q 2459 3747 2459 3466 
Q 2459 3003 1878 2509 
Q 2269 2356 2469 2072 
Q 2669 1788 2669 1403 
Q 2669 853 2319 450 
Q 1863 -75 997 -75 
Q 569 -75 414 31 
Q 259 138 259 259 
Q 259 350 332 419 
Q 406 488 509 488 
Q 588 488 669 463 
Q 722 447 909 348 
Q 1097 250 1169 231 
Q 1284 197 1416 197 
Q 1734 197 1970 444 
Q 2206 691 2206 1028 
Q 2206 1275 2097 1509 
Q 2016 1684 1919 1775 
Q 1784 1900 1550 2001 
Q 1316 2103 1072 2103 
L 972 2103 
L 972 2197 
Q 1219 2228 1467 2375 
Q 1716 2522 1828 2728 
Q 1941 2934 1941 3181 
Q 1941 3503 1739 3701 
Q 1538 3900 1238 3900 
Q 753 3900 428 3381 
L 325 3431 
z
" transform="scale(0.015625)"/>
      </defs>
      <use xlink:href="#TimesNewRomanPSMT-6d"/>
      <use xlink:href="#TimesNewRomanPSMT-65" x="77.783203"/>
      <use xlink:href="#TimesNewRomanPSMT-6d" x="122.167969"/>
      <use xlink:href="#TimesNewRomanPSMT-63" x="199.951172"/>
      <use xlink:href="#TimesNewRomanPSMT-33" x="244.335938"/>
     </g>
    </g>
    <g id="line2d_22">
     <path d="M 703.214688 112.822219 
L 722.214688 112.822219 
L 741.214688 112.822219 
" style="fill: none; stroke: #0000ff; stroke-width: 1.5; stroke-linecap: square"/>
    </g>
    <g id="text_22">
     <!-- mica -->
     <g transform="translate(756.414688 119.472219) scale(0.19 -0.19)">
      <defs>
       <path id="TimesNewRomanPSMT-69" d="M 928 4444 
Q 1059 4444 1151 4351 
Q 1244 4259 1244 4128 
Q 1244 3997 1151 3903 
Q 1059 3809 928 3809 
Q 797 3809 703 3903 
Q 609 3997 609 4128 
Q 609 4259 701 4351 
Q 794 4444 928 4444 
z
M 1188 2947 
L 1188 647 
Q 1188 378 1227 289 
Q 1266 200 1342 156 
Q 1419 113 1622 113 
L 1622 0 
L 231 0 
L 231 113 
Q 441 113 512 153 
Q 584 194 626 287 
Q 669 381 669 647 
L 669 1750 
Q 669 2216 641 2353 
Q 619 2453 572 2492 
Q 525 2531 444 2531 
Q 356 2531 231 2484 
L 188 2597 
L 1050 2947 
L 1188 2947 
z
" transform="scale(0.015625)"/>
       <path id="TimesNewRomanPSMT-61" d="M 1822 413 
Q 1381 72 1269 19 
Q 1100 -59 909 -59 
Q 613 -59 420 144 
Q 228 347 228 678 
Q 228 888 322 1041 
Q 450 1253 767 1440 
Q 1084 1628 1822 1897 
L 1822 2009 
Q 1822 2438 1686 2597 
Q 1550 2756 1291 2756 
Q 1094 2756 978 2650 
Q 859 2544 859 2406 
L 866 2225 
Q 866 2081 792 2003 
Q 719 1925 600 1925 
Q 484 1925 411 2006 
Q 338 2088 338 2228 
Q 338 2497 613 2722 
Q 888 2947 1384 2947 
Q 1766 2947 2009 2819 
Q 2194 2722 2281 2516 
Q 2338 2381 2338 1966 
L 2338 994 
Q 2338 584 2353 492 
Q 2369 400 2405 369 
Q 2441 338 2488 338 
Q 2538 338 2575 359 
Q 2641 400 2828 588 
L 2828 413 
Q 2478 -56 2159 -56 
Q 2006 -56 1915 50 
Q 1825 156 1822 413 
z
M 1822 616 
L 1822 1706 
Q 1350 1519 1213 1441 
Q 966 1303 859 1153 
Q 753 1003 753 825 
Q 753 600 887 451 
Q 1022 303 1197 303 
Q 1434 303 1822 616 
z
" transform="scale(0.015625)"/>
      </defs>
      <use xlink:href="#TimesNewRomanPSMT-6d"/>
      <use xlink:href="#TimesNewRomanPSMT-69" x="77.783203"/>
      <use xlink:href="#TimesNewRomanPSMT-63" x="105.566406"/>
      <use xlink:href="#TimesNewRomanPSMT-61" x="149.951172"/>
     </g>
    </g>
    <g id="line2d_23">
     <path d="M 703.214688 139.686437 
L 722.214688 139.686437 
L 741.214688 139.686437 
" style="fill: none; stroke: #9467bd; stroke-width: 1.5; stroke-linecap: square"/>
    </g>
    <g id="text_23">
     <!-- proto -->
     <g transform="translate(756.414688 146.336437) scale(0.19 -0.19)">
      <defs>
       <path id="TimesNewRomanPSMT-70" d="M -6 2578 
L 875 2934 
L 994 2934 
L 994 2266 
Q 1216 2644 1439 2795 
Q 1663 2947 1909 2947 
Q 2341 2947 2628 2609 
Q 2981 2197 2981 1534 
Q 2981 794 2556 309 
Q 2206 -88 1675 -88 
Q 1444 -88 1275 -22 
Q 1150 25 994 166 
L 994 -706 
Q 994 -1000 1030 -1079 
Q 1066 -1159 1155 -1206 
Q 1244 -1253 1478 -1253 
L 1478 -1369 
L -22 -1369 
L -22 -1253 
L 56 -1253 
Q 228 -1256 350 -1188 
Q 409 -1153 442 -1076 
Q 475 -1000 475 -688 
L 475 2019 
Q 475 2297 450 2372 
Q 425 2447 370 2484 
Q 316 2522 222 2522 
Q 147 2522 31 2478 
L -6 2578 
z
M 994 2081 
L 994 1013 
Q 994 666 1022 556 
Q 1066 375 1236 237 
Q 1406 100 1666 100 
Q 1978 100 2172 344 
Q 2425 663 2425 1241 
Q 2425 1897 2138 2250 
Q 1938 2494 1663 2494 
Q 1513 2494 1366 2419 
Q 1253 2363 994 2081 
z
" transform="scale(0.015625)"/>
       <path id="TimesNewRomanPSMT-72" d="M 1038 2947 
L 1038 2303 
Q 1397 2947 1775 2947 
Q 1947 2947 2059 2842 
Q 2172 2738 2172 2600 
Q 2172 2478 2090 2393 
Q 2009 2309 1897 2309 
Q 1788 2309 1652 2417 
Q 1516 2525 1450 2525 
Q 1394 2525 1328 2463 
Q 1188 2334 1038 2041 
L 1038 669 
Q 1038 431 1097 309 
Q 1138 225 1241 169 
Q 1344 113 1538 113 
L 1538 0 
L 72 0 
L 72 113 
Q 291 113 397 181 
Q 475 231 506 341 
Q 522 394 522 644 
L 522 1753 
Q 522 2253 501 2348 
Q 481 2444 426 2487 
Q 372 2531 291 2531 
Q 194 2531 72 2484 
L 41 2597 
L 906 2947 
L 1038 2947 
z
" transform="scale(0.015625)"/>
       <path id="TimesNewRomanPSMT-6f" d="M 1600 2947 
Q 2250 2947 2644 2453 
Q 2978 2031 2978 1484 
Q 2978 1100 2793 706 
Q 2609 313 2286 112 
Q 1963 -88 1566 -88 
Q 919 -88 538 428 
Q 216 863 216 1403 
Q 216 1797 411 2186 
Q 606 2575 925 2761 
Q 1244 2947 1600 2947 
z
M 1503 2744 
Q 1338 2744 1170 2645 
Q 1003 2547 900 2300 
Q 797 2053 797 1666 
Q 797 1041 1045 587 
Q 1294 134 1700 134 
Q 2003 134 2200 384 
Q 2397 634 2397 1244 
Q 2397 2006 2069 2444 
Q 1847 2744 1503 2744 
z
" transform="scale(0.015625)"/>
       <path id="TimesNewRomanPSMT-74" d="M 1031 3803 
L 1031 2863 
L 1700 2863 
L 1700 2644 
L 1031 2644 
L 1031 788 
Q 1031 509 1111 412 
Q 1191 316 1316 316 
Q 1419 316 1516 380 
Q 1613 444 1666 569 
L 1788 569 
Q 1678 263 1478 108 
Q 1278 -47 1066 -47 
Q 922 -47 784 33 
Q 647 113 581 261 
Q 516 409 516 719 
L 516 2644 
L 63 2644 
L 63 2747 
Q 234 2816 414 2980 
Q 594 3144 734 3369 
Q 806 3488 934 3803 
L 1031 3803 
z
" transform="scale(0.015625)"/>
      </defs>
      <use xlink:href="#TimesNewRomanPSMT-70"/>
      <use xlink:href="#TimesNewRomanPSMT-72" x="50"/>
      <use xlink:href="#TimesNewRomanPSMT-6f" x="83.300781"/>
      <use xlink:href="#TimesNewRomanPSMT-74" x="133.300781"/>
      <use xlink:href="#TimesNewRomanPSMT-6f" x="161.083984"/>
     </g>
    </g>
   </g>
  </g>
 </g>
 <defs>
  <clipPath id="pffe2ee454a">
   <rect x="115.2" y="62.208" width="714.24" height="399.168"/>
  </clipPath>
 </defs>
</svg>
