<?xml version="1.0" encoding="utf-8" standalone="no"?>
<!DOCTYPE svg PUBLIC "-//W3C//DTD SVG 1.1//EN"
  "http://www.w3.org/Graphics/SVG/1.1/DTD/svg11.dtd">
<svg xmlns:xlink="http://www.w3.org/1999/xlink" width="921.6pt" height="518.4pt" viewBox="0 0 921.6 518.4" xmlns="http://www.w3.org/2000/svg" version="1.1">
 <metadata>
  <rdf:RDF xmlns:dc="http://purl.org/dc/elements/1.1/" xmlns:cc="http://creativecommons.org/ns#" xmlns:rdf="http://www.w3.org/1999/02/22-rdf-syntax-ns#">
   <cc:Work>
    <dc:type rdf:resource="http://purl.org/dc/dcmitype/StillImage"/>
    <dc:date>2023-08-26T17:29:49.432335</dc:date>
    <dc:format>image/svg+xml</dc:format>
    <dc:creator>
     <cc:Agent>
      <dc:title>Matplotlib v3.7.1, https://matplotlib.org/</dc:title>
     </cc:Agent>
    </dc:creator>
   </cc:Work>
  </rdf:RDF>
 </metadata>
 <defs>
  <style type="text/css">*{stroke-linejoin: round; stroke-linecap: butt}</style>
 </defs>
 <g id="figure_1">
  <g id="patch_1">
   <path d="M 0 518.4 
L 921.6 518.4 
L 921.6 0 
L 0 0 
z
" style="fill: #ffffff"/>
  </g>
  <g id="axes_1">
   <g id="patch_2">
    <path d="M 115.2 461.376 
L 829.44 461.376 
L 829.44 62.208 
L 115.2 62.208 
z
" style="fill: #ffffff"/>
   </g>
   <g id="matplotlib.axis_1">
    <g id="xtick_1">
     <g id="line2d_1">
      <defs>
       <path id="m60338f496b" d="M 0 0 
L 0 3.5 
" style="stroke: #000000; stroke-width: 0.8"/>
      </defs>
      <g>
       <use xlink:href="#m60338f496b" x="115.2" y="461.376" style="stroke: #000000; stroke-width: 0.8"/>
      </g>
     </g>
     <g id="text_1">
      <!-- 0 -->
      <g transform="translate(110.45 481.958031) scale(0.19 -0.19)">
       <defs>
        <path id="SimSun-30" d="M 1600 4225 
Q 1250 4225 1012 3687 
Q 775 3150 775 2250 
Q 775 1300 1012 775 
Q 1250 250 1600 250 
Q 1975 250 2187 775 
Q 2400 1300 2400 2250 
Q 2400 3150 2200 3687 
Q 2000 4225 1600 4225 
z
M 1600 50 
Q 1050 50 675 625 
Q 300 1200 300 2250 
Q 300 3225 662 3825 
Q 1025 4425 1600 4425 
Q 2150 4425 2512 3850 
Q 2875 3275 2875 2250 
Q 2875 1225 2512 637 
Q 2150 50 1600 50 
z
" transform="scale(0.015625)"/>
       </defs>
       <use xlink:href="#SimSun-30"/>
      </g>
     </g>
    </g>
    <g id="xtick_2">
     <g id="line2d_2">
      <g>
       <use xlink:href="#m60338f496b" x="186.624" y="461.376" style="stroke: #000000; stroke-width: 0.8"/>
      </g>
     </g>
     <g id="text_2">
      <!-- 10 -->
      <g transform="translate(177.124 481.958031) scale(0.19 -0.19)">
       <defs>
        <path id="SimSun-31" d="M 1825 4450 
L 1825 650 
Q 1825 450 1950 350 
Q 2075 250 2300 250 
L 2550 250 
L 2550 100 
L 725 100 
L 725 250 
L 950 250 
Q 1200 250 1312 350 
Q 1425 450 1425 650 
L 1425 3675 
Q 1425 3775 1362 3837 
Q 1300 3900 1175 3900 
L 725 3900 
L 725 4050 
L 950 4050 
Q 1250 4050 1437 4150 
Q 1625 4250 1725 4450 
L 1825 4450 
z
" transform="scale(0.015625)"/>
       </defs>
       <use xlink:href="#SimSun-31"/>
       <use xlink:href="#SimSun-30" x="50"/>
      </g>
     </g>
    </g>
    <g id="xtick_3">
     <g id="line2d_3">
      <g>
       <use xlink:href="#m60338f496b" x="258.048" y="461.376" style="stroke: #000000; stroke-width: 0.8"/>
      </g>
     </g>
     <g id="text_3">
      <!-- 20 -->
      <g transform="translate(248.548 481.958031) scale(0.19 -0.19)">
       <defs>
        <path id="SimSun-32" d="M 2325 3325 
Q 2325 3775 2125 4012 
Q 1925 4250 1525 4250 
Q 1225 4250 1012 4087 
Q 800 3925 800 3675 
Q 800 3525 900 3425 
Q 975 3325 975 3225 
Q 975 3100 912 3037 
Q 850 2975 725 2975 
Q 575 2975 487 3062 
Q 400 3150 400 3350 
Q 400 3875 775 4150 
Q 1150 4425 1575 4425 
Q 2175 4425 2462 4125 
Q 2750 3825 2750 3375 
Q 2750 3075 2612 2775 
Q 2475 2475 2175 2200 
Q 1450 1500 1062 1062 
Q 675 625 600 475 
L 2075 475 
Q 2300 475 2450 650 
Q 2600 825 2650 1175 
L 2800 1175 
L 2650 100 
L 325 100 
L 325 425 
Q 450 650 737 1000 
Q 1025 1350 1500 1825 
Q 1925 2250 2125 2625 
Q 2325 3000 2325 3325 
z
" transform="scale(0.015625)"/>
       </defs>
       <use xlink:href="#SimSun-32"/>
       <use xlink:href="#SimSun-30" x="50"/>
      </g>
     </g>
    </g>
    <g id="xtick_4">
     <g id="line2d_4">
      <g>
       <use xlink:href="#m60338f496b" x="329.472" y="461.376" style="stroke: #000000; stroke-width: 0.8"/>
      </g>
     </g>
     <g id="text_4">
      <!-- 30 -->
      <g transform="translate(319.972 481.958031) scale(0.19 -0.19)">
       <defs>
        <path id="SimSun-33" d="M 2800 1250 
Q 2800 775 2450 412 
Q 2100 50 1475 50 
Q 1025 50 700 300 
Q 375 550 375 875 
Q 375 1025 475 1137 
Q 575 1250 675 1250 
Q 825 1250 887 1137 
Q 950 1025 950 950 
Q 950 825 900 750 
Q 850 650 850 575 
Q 850 425 1037 325 
Q 1225 225 1450 225 
Q 1900 225 2125 487 
Q 2350 750 2350 1300 
Q 2350 1750 2112 2025 
Q 1875 2300 1225 2300 
L 1225 2475 
Q 1725 2475 1962 2712 
Q 2200 2950 2200 3375 
Q 2200 3725 2012 3987 
Q 1825 4250 1425 4250 
Q 1250 4250 1050 4162 
Q 850 4075 850 3875 
Q 850 3675 900 3625 
Q 950 3575 950 3500 
Q 950 3375 900 3300 
Q 850 3225 725 3225 
Q 625 3225 537 3300 
Q 450 3375 450 3575 
Q 450 3950 775 4187 
Q 1100 4425 1525 4425 
Q 2025 4425 2325 4112 
Q 2625 3800 2625 3450 
Q 2625 3075 2437 2812 
Q 2250 2550 1850 2425 
Q 2400 2225 2600 1900 
Q 2800 1575 2800 1250 
z
" transform="scale(0.015625)"/>
       </defs>
       <use xlink:href="#SimSun-33"/>
       <use xlink:href="#SimSun-30" x="50"/>
      </g>
     </g>
    </g>
    <g id="xtick_5">
     <g id="line2d_5">
      <g>
       <use xlink:href="#m60338f496b" x="400.896" y="461.376" style="stroke: #000000; stroke-width: 0.8"/>
      </g>
     </g>
     <g id="text_5">
      <!-- 40 -->
      <g transform="translate(391.396 481.958031) scale(0.19 -0.19)">
       <defs>
        <path id="SimSun-34" d="M 2300 575 
Q 2300 400 2400 325 
Q 2500 250 2675 250 
L 2900 250 
L 2900 100 
L 1250 100 
L 1250 250 
L 1525 250 
Q 1725 250 1812 325 
Q 1900 400 1900 575 
L 1900 1400 
L 225 1400 
L 225 1525 
L 2050 4425 
L 2300 4425 
L 2300 1550 
L 2975 1550 
L 2975 1400 
L 2300 1400 
L 2300 575 
z
M 1875 3800 
L 450 1550 
L 1900 1550 
L 1900 3800 
L 1875 3800 
z
" transform="scale(0.015625)"/>
       </defs>
       <use xlink:href="#SimSun-34"/>
       <use xlink:href="#SimSun-30" x="50"/>
      </g>
     </g>
    </g>
    <g id="xtick_6">
     <g id="line2d_6">
      <g>
       <use xlink:href="#m60338f496b" x="472.32" y="461.376" style="stroke: #000000; stroke-width: 0.8"/>
      </g>
     </g>
     <g id="text_6">
      <!-- 50 -->
      <g transform="translate(462.82 481.958031) scale(0.19 -0.19)">
       <defs>
        <path id="SimSun-35" d="M 1725 2850 
Q 2200 2850 2500 2487 
Q 2800 2125 2800 1525 
Q 2800 850 2487 450 
Q 2175 50 1525 50 
Q 1075 50 725 312 
Q 375 575 375 950 
Q 375 1100 462 1212 
Q 550 1325 700 1325 
Q 850 1325 900 1225 
Q 950 1125 950 1050 
Q 950 900 875 825 
Q 800 725 800 625 
Q 800 425 1037 325 
Q 1275 225 1550 225 
Q 1950 225 2162 550 
Q 2375 875 2375 1475 
Q 2375 1975 2187 2287 
Q 2000 2600 1625 2600 
Q 1350 2600 1150 2500 
Q 950 2400 775 2075 
L 550 2100 
L 675 4375 
L 2725 4375 
L 2650 4000 
L 850 4000 
L 750 2350 
Q 1000 2700 1237 2775 
Q 1475 2850 1725 2850 
z
" transform="scale(0.015625)"/>
       </defs>
       <use xlink:href="#SimSun-35"/>
       <use xlink:href="#SimSun-30" x="50"/>
      </g>
     </g>
    </g>
    <g id="xtick_7">
     <g id="line2d_7">
      <g>
       <use xlink:href="#m60338f496b" x="543.744" y="461.376" style="stroke: #000000; stroke-width: 0.8"/>
      </g>
     </g>
     <g id="text_7">
      <!-- 60 -->
      <g transform="translate(534.244 481.958031) scale(0.19 -0.19)">
       <defs>
        <path id="SimSun-36" d="M 775 1800 
Q 775 1050 1037 637 
Q 1300 225 1675 225 
Q 2050 225 2250 500 
Q 2450 775 2450 1525 
Q 2450 2025 2237 2300 
Q 2025 2575 1725 2575 
Q 1450 2575 1212 2412 
Q 975 2250 775 1800 
z
M 1750 2825 
Q 2350 2825 2612 2425 
Q 2875 2025 2875 1525 
Q 2875 775 2512 412 
Q 2150 50 1675 50 
Q 1000 50 650 562 
Q 300 1075 300 2050 
Q 300 3200 725 3812 
Q 1150 4425 1875 4425 
Q 2225 4425 2437 4225 
Q 2650 4025 2650 3875 
Q 2650 3725 2587 3650 
Q 2525 3575 2375 3575 
Q 2250 3575 2187 3637 
Q 2125 3700 2125 3825 
Q 2125 3875 2150 3925 
Q 2150 3975 2150 4025 
Q 2150 4125 2075 4187 
Q 2000 4250 1800 4250 
Q 1375 4250 1075 3862 
Q 775 3475 775 2175 
Q 925 2500 1187 2662 
Q 1450 2825 1750 2825 
z
" transform="scale(0.015625)"/>
       </defs>
       <use xlink:href="#SimSun-36"/>
       <use xlink:href="#SimSun-30" x="50"/>
      </g>
     </g>
    </g>
    <g id="xtick_8">
     <g id="line2d_8">
      <g>
       <use xlink:href="#m60338f496b" x="615.168" y="461.376" style="stroke: #000000; stroke-width: 0.8"/>
      </g>
     </g>
     <g id="text_8">
      <!-- 70 -->
      <g transform="translate(605.668 481.958031) scale(0.19 -0.19)">
       <defs>
        <path id="SimSun-37" d="M 2825 4200 
Q 2300 3350 1987 2537 
Q 1675 1725 1675 1125 
Q 1675 1025 1700 850 
Q 1700 650 1700 400 
Q 1700 200 1637 125 
Q 1575 50 1425 50 
Q 1300 50 1212 137 
Q 1125 225 1125 450 
Q 1125 925 1337 1625 
Q 1550 2325 2475 4000 
L 1225 4000 
Q 950 4000 787 3825 
Q 625 3650 550 3300 
L 400 3325 
L 575 4375 
L 2825 4375 
L 2825 4200 
z
" transform="scale(0.015625)"/>
       </defs>
       <use xlink:href="#SimSun-37"/>
       <use xlink:href="#SimSun-30" x="50"/>
      </g>
     </g>
    </g>
    <g id="xtick_9">
     <g id="line2d_9">
      <g>
       <use xlink:href="#m60338f496b" x="686.592" y="461.376" style="stroke: #000000; stroke-width: 0.8"/>
      </g>
     </g>
     <g id="text_9">
      <!-- 80 -->
      <g transform="translate(677.092 481.958031) scale(0.19 -0.19)">
       <defs>
        <path id="SimSun-38" d="M 625 1125 
Q 625 725 887 475 
Q 1150 225 1550 225 
Q 2025 225 2237 475 
Q 2450 725 2450 1100 
Q 2450 1425 2150 1725 
Q 1850 2025 1250 2275 
Q 950 2075 787 1775 
Q 625 1475 625 1125 
z
M 2825 1175 
Q 2825 700 2475 375 
Q 2125 50 1550 50 
Q 1025 50 650 375 
Q 275 700 275 1125 
Q 275 1550 487 1850 
Q 700 2150 1100 2375 
Q 750 2550 562 2812 
Q 375 3075 375 3400 
Q 375 3825 700 4125 
Q 1025 4425 1600 4425 
Q 2125 4425 2450 4125 
Q 2775 3825 2775 3400 
Q 2775 3100 2587 2837 
Q 2400 2575 2000 2375 
Q 2425 2125 2625 1825 
Q 2825 1525 2825 1175 
z
M 2425 3375 
Q 2425 3725 2225 3987 
Q 2025 4250 1600 4250 
Q 1125 4250 925 4000 
Q 725 3750 725 3475 
Q 725 3200 1012 2937 
Q 1300 2675 1825 2475 
Q 2125 2625 2275 2850 
Q 2425 3075 2425 3375 
z
" transform="scale(0.015625)"/>
       </defs>
       <use xlink:href="#SimSun-38"/>
       <use xlink:href="#SimSun-30" x="50"/>
      </g>
     </g>
    </g>
    <g id="xtick_10">
     <g id="line2d_10">
      <g>
       <use xlink:href="#m60338f496b" x="758.016" y="461.376" style="stroke: #000000; stroke-width: 0.8"/>
      </g>
     </g>
     <g id="text_10">
      <!-- 90 -->
      <g transform="translate(748.516 481.958031) scale(0.19 -0.19)">
       <defs>
        <path id="SimSun-39" d="M 700 3050 
Q 700 2500 912 2212 
Q 1125 1925 1450 1925 
Q 1825 1925 2100 2275 
Q 2375 2625 2375 2925 
Q 2375 3525 2175 3887 
Q 1975 4250 1525 4250 
Q 1100 4250 900 3912 
Q 700 3575 700 3050 
z
M 1375 1700 
Q 875 1700 575 2012 
Q 275 2325 275 3025 
Q 275 3625 600 4025 
Q 925 4425 1525 4425 
Q 2150 4425 2500 3925 
Q 2850 3425 2850 2475 
Q 2850 1425 2437 737 
Q 2025 50 1300 50 
Q 975 50 737 200 
Q 500 350 500 600 
Q 500 700 562 800 
Q 625 900 775 900 
Q 925 900 975 787 
Q 1025 675 1025 525 
Q 1025 425 1050 362 
Q 1075 300 1100 275 
Q 1125 250 1187 237 
Q 1250 225 1325 225 
Q 1775 225 2050 725 
Q 2325 1225 2375 2400 
Q 2250 2100 2000 1900 
Q 1750 1700 1375 1700 
z
" transform="scale(0.015625)"/>
       </defs>
       <use xlink:href="#SimSun-39"/>
       <use xlink:href="#SimSun-30" x="50"/>
      </g>
     </g>
    </g>
    <g id="xtick_11">
     <g id="line2d_11">
      <g>
       <use xlink:href="#m60338f496b" x="829.44" y="461.376" style="stroke: #000000; stroke-width: 0.8"/>
      </g>
     </g>
     <g id="text_11">
      <!-- 100 -->
      <g transform="translate(815.19 481.958031) scale(0.19 -0.19)">
       <use xlink:href="#SimSun-31"/>
       <use xlink:href="#SimSun-30" x="50"/>
       <use xlink:href="#SimSun-30" x="100"/>
      </g>
     </g>
    </g>
    <g id="text_12">
     <!-- 索引装载率 $\mathrm{(\%)}$ -->
     <g transform="translate(406.58 504.17725) scale(0.19 -0.19)">
      <defs>
       <path id="SimSun-7d22" d="M 4725 1325 
Q 4375 1250 3450 1150 
L 3450 -50 
Q 3475 -500 2875 -625 
Q 2875 -325 2200 -125 
L 2200 -25 
Q 2850 -75 2987 -75 
Q 3125 -75 3100 175 
L 3100 1100 
Q 2400 1025 2050 925 
Q 1700 825 1475 700 
L 1225 1175 
Q 1525 1250 2050 1525 
Q 2575 1800 3225 2200 
Q 2900 2200 2437 2150 
Q 1975 2100 1650 1950 
L 1425 2375 
Q 1775 2425 2212 2737 
Q 2650 3050 2875 3375 
L 1000 3375 
Q 1050 3000 975 2850 
Q 900 2700 800 2675 
Q 700 2650 625 2650 
Q 525 2650 462 2675 
Q 400 2700 400 2725 
Q 400 2800 550 2975 
Q 750 3225 875 3800 
L 975 3800 
L 1000 3525 
L 3025 3525 
L 3025 4250 
L 1575 4250 
Q 1375 4250 1100 4175 
L 875 4400 
L 3025 4400 
L 3025 4775 
Q 3025 5025 3000 5275 
L 3625 5050 
L 3375 4900 
L 3375 4400 
L 4725 4400 
L 5125 4750 
L 5575 4250 
L 3375 4250 
L 3375 3525 
L 5300 3525 
L 5500 3750 
L 5950 3325 
Q 5600 3300 5050 2675 
L 4975 2725 
L 5325 3375 
L 2925 3375 
L 3325 3100 
Q 3100 3075 2675 2800 
Q 2250 2500 1925 2350 
L 3425 2375 
Q 3775 2625 4050 3000 
L 4475 2625 
Q 4250 2600 3850 2325 
Q 3425 2050 2975 1787 
Q 2525 1525 2025 1250 
L 4625 1450 
Q 4275 1825 3950 2050 
L 4000 2125 
Q 4700 1850 4962 1662 
Q 5225 1475 5275 1312 
Q 5325 1150 5212 937 
Q 5100 725 4987 925 
Q 4875 1125 4725 1325 
z
M 3925 725 
Q 5025 375 5312 212 
Q 5600 50 5612 -150 
Q 5625 -350 5562 -425 
Q 5500 -500 5475 -500 
Q 5375 -500 5200 -275 
Q 4925 50 3900 650 
L 3925 725 
z
M 2150 750 
L 2575 350 
Q 2275 350 1775 75 
Q 1275 -225 425 -525 
L 375 -450 
Q 1600 150 2150 750 
z
" transform="scale(0.015625)"/>
       <path id="SimSun-5f15" d="M 5075 4675 
L 5075 575 
Q 5075 100 5100 -425 
L 4700 -600 
Q 4725 175 4725 725 
Q 4725 4575 4700 5150 
L 5300 4850 
L 5075 4675 
z
M 3375 4475 
Q 3375 3475 3400 3125 
L 3025 3000 
L 3025 3250 
L 1525 3250 
L 1275 2150 
L 3125 2150 
L 3325 2400 
L 3750 2050 
L 3500 1900 
Q 3375 1125 3225 575 
Q 3075 25 2850 -187 
Q 2625 -400 2250 -475 
Q 2275 -125 1600 125 
L 1600 225 
Q 2125 125 2350 112 
Q 2575 100 2675 225 
Q 2775 350 2900 787 
Q 3025 1225 3150 2000 
L 1275 2000 
L 1100 1775 
L 725 2125 
Q 925 2200 1025 2575 
Q 1125 2950 1200 3675 
L 1575 3400 
L 3025 3400 
L 3025 4550 
L 1650 4550 
Q 1325 4550 1050 4475 
L 825 4700 
L 3000 4700 
L 3175 4950 
L 3575 4650 
L 3375 4475 
z
" transform="scale(0.015625)"/>
       <path id="SimSun-88c5" d="M 700 4725 
Q 1375 4450 1462 4325 
Q 1550 4200 1550 4125 
Q 1550 4025 1475 3887 
Q 1400 3750 1350 3750 
Q 1275 3750 1200 3925 
Q 1075 4225 650 4675 
L 700 4725 
z
M 2250 4775 
L 2250 2200 
L 1900 1975 
Q 1925 2600 1925 3475 
Q 1400 3150 1062 2887 
Q 725 2625 700 2475 
L 350 2900 
Q 775 3025 1925 3625 
Q 1925 4900 1900 5250 
L 2475 4925 
L 2250 4775 
z
M 2375 4000 
L 3900 4000 
Q 3900 4850 3875 5175 
L 4450 4925 
L 4225 4750 
L 4225 4000 
L 5125 4000 
L 5475 4350 
L 5950 3850 
L 4225 3850 
L 4225 2800 
L 4900 2800 
L 5250 3100 
L 5700 2650 
L 3475 2650 
Q 3150 2650 2875 2575 
L 2650 2800 
L 3900 2800 
L 3900 3850 
L 3200 3850 
Q 2875 3850 2600 3775 
L 2375 4000 
z
M 3125 1800 
Q 3125 2100 2650 2525 
L 2700 2575 
Q 3300 2375 3387 2250 
Q 3475 2125 3475 2050 
Q 3475 1950 3350 1800 
L 5050 1800 
L 5475 2175 
L 6000 1650 
L 3325 1650 
Q 3600 1225 4150 675 
Q 4775 1225 5000 1625 
L 5425 1200 
Q 5225 1175 4987 1050 
Q 4750 925 4250 600 
Q 4550 350 5037 162 
Q 5525 -25 6100 -75 
L 6100 -175 
Q 5675 -250 5550 -550 
Q 4825 -250 4262 212 
Q 3700 675 3175 1650 
Q 2825 1325 2450 1025 
L 2450 -25 
L 3750 375 
L 3800 300 
Q 2450 -300 2300 -625 
L 2000 -200 
Q 2150 -75 2125 75 
L 2125 800 
Q 1325 300 275 0 
L 250 75 
Q 1725 700 2725 1650 
L 1200 1650 
Q 875 1650 600 1575 
L 375 1800 
L 3125 1800 
z
" transform="scale(0.015625)"/>
       <path id="SimSun-8f7d" d="M 1850 5200 
L 2375 5000 
L 2200 4825 
L 2200 4325 
L 2675 4325 
L 2975 4600 
L 3400 4175 
L 2200 4175 
L 2200 3525 
L 3700 3525 
Q 3675 4525 3650 5200 
L 4200 4950 
L 4000 4775 
Q 4000 3950 4025 3525 
L 5250 3525 
L 5625 3850 
L 6100 3375 
L 4050 3375 
Q 4125 2300 4425 1400 
Q 4925 2200 5175 3075 
L 5650 2750 
L 5450 2575 
Q 5075 1775 4575 1050 
Q 4950 350 5650 -50 
L 5875 1050 
L 5975 1025 
Q 5925 350 5950 25 
Q 5975 -300 6075 -500 
Q 6125 -625 6025 -625 
Q 5975 -625 5775 -562 
Q 5575 -500 5125 -150 
Q 4675 200 4350 775 
Q 3575 -125 2625 -600 
L 2575 -525 
Q 3575 175 4175 1075 
Q 3825 1950 3725 3375 
L 1100 3375 
Q 775 3375 500 3300 
L 275 3525 
L 1875 3525 
L 1875 4175 
L 1525 4175 
Q 1200 4175 925 4100 
L 700 4325 
L 1875 4325 
Q 1875 4800 1850 5200 
z
M 4500 4850 
Q 5000 4650 5212 4512 
Q 5425 4375 5400 4187 
Q 5375 4000 5300 3925 
Q 5225 3850 5200 3850 
Q 5125 3850 5025 4050 
Q 4900 4325 4450 4775 
L 4500 4850 
z
M 500 525 
Q 850 550 1975 725 
L 1975 1400 
L 1150 1400 
L 975 1250 
L 700 1575 
Q 900 1575 1350 2450 
L 1150 2450 
Q 850 2450 575 2375 
L 350 2600 
L 1425 2600 
Q 1625 3025 1700 3300 
L 2150 3025 
L 1975 2950 
Q 1900 2850 1775 2600 
L 2700 2600 
L 3025 2900 
L 3425 2450 
L 1700 2450 
L 1175 1550 
L 1975 1550 
Q 1975 1925 1950 2300 
L 2450 2075 
L 2300 1900 
L 2300 1550 
L 2800 1550 
L 3075 1850 
L 3475 1400 
L 2300 1400 
L 2300 775 
L 3400 925 
L 3425 850 
L 2300 575 
Q 2300 -50 2325 -400 
L 1950 -550 
Q 1975 225 1975 500 
Q 850 275 725 100 
L 500 525 
z
" transform="scale(0.015625)"/>
       <path id="SimSun-7387" d="M 875 3725 
L 925 3800 
Q 1375 3650 1550 3525 
Q 1725 3400 1725 3250 
Q 1725 3175 1662 3025 
Q 1600 2875 1550 2875 
Q 1500 2875 1425 3050 
Q 1275 3325 875 3725 
z
M 550 1850 
Q 875 1925 2000 2575 
L 2050 2500 
Q 1675 2225 1337 1937 
Q 1000 1650 875 1425 
L 550 1850 
z
M 5200 3450 
Q 4800 3150 4275 2800 
L 4225 2875 
Q 4775 3400 5050 3925 
L 5450 3525 
L 5200 3450 
z
M 4325 2500 
L 4350 2575 
Q 5225 2350 5375 2212 
Q 5525 2075 5525 1900 
Q 5525 1775 5487 1662 
Q 5450 1550 5400 1550 
Q 5325 1550 5200 1800 
Q 4975 2150 4325 2500 
z
M 3150 3900 
Q 2500 3300 2300 3150 
Q 2800 3150 3400 3175 
Q 3700 3500 3850 3825 
L 4250 3450 
Q 4050 3400 3450 2825 
Q 2850 2250 2475 1950 
Q 3150 1975 3850 2000 
Q 3750 2175 3550 2450 
L 3600 2500 
Q 4050 2250 4200 2100 
Q 4350 1950 4350 1850 
Q 4350 1775 4250 1625 
Q 4150 1475 4100 1475 
Q 4075 1475 4050 1550 
Q 4000 1700 3900 1900 
Q 3650 1875 3075 1800 
L 3500 1550 
L 3325 1425 
L 3325 975 
L 5325 975 
L 5650 1300 
L 6100 825 
L 3325 825 
Q 3325 -275 3350 -525 
L 2975 -650 
Q 3000 0 3000 825 
L 1125 825 
Q 800 825 525 750 
L 300 975 
L 3000 975 
L 3000 1775 
Q 2450 1700 2200 1525 
L 1950 1950 
Q 2275 1950 2675 2350 
Q 3075 2750 3325 3050 
Q 2400 2950 2150 2775 
L 1950 3175 
Q 2150 3150 2475 3575 
Q 2800 4000 2900 4225 
L 1450 4225 
Q 1125 4225 850 4150 
L 625 4375 
L 3100 4375 
Q 3050 4800 2675 5200 
L 2725 5250 
Q 3225 5050 3337 4912 
Q 3450 4775 3450 4700 
Q 3450 4550 3250 4375 
L 5025 4375 
L 5350 4675 
L 5775 4225 
L 3050 4225 
L 3375 3950 
L 3150 3900 
z
" transform="scale(0.015625)"/>
       <path id="SimSun-20" d="M 0 0 
Q 0 0 0 0 
z
" transform="scale(0.015625)"/>
       <path id="STIXGeneral-Regular-28" d="M 1946 -1030 
L 1869 -1133 
Q 1126 -710 716 32 
Q 307 774 307 1613 
Q 307 3386 1888 4326 
L 1946 4224 
Q 1293 3667 1075 3126 
Q 858 2586 858 1632 
Q 858 685 1082 96 
Q 1306 -493 1946 -1030 
z
" transform="scale(0.015625)"/>
       <path id="STIXGeneral-Regular-25" d="M 4390 1363 
Q 4390 781 4070 329 
Q 3750 -122 3341 -122 
Q 3014 -122 2790 134 
Q 2566 390 2566 762 
Q 2566 1274 2940 1693 
Q 3315 2112 3776 2112 
Q 4070 2112 4230 1917 
Q 4390 1722 4390 1363 
z
M 4243 1376 
Q 4243 1626 4131 1779 
Q 4019 1933 3840 1933 
Q 3654 1933 3526 1786 
Q 3315 1562 3171 1187 
Q 3027 813 3027 486 
Q 3027 301 3129 176 
Q 3232 51 3386 51 
Q 3718 51 3980 457 
Q 4243 864 4243 1376 
z
M 3974 4518 
L 1222 -115 
L 922 -115 
L 3443 4096 
Q 3264 3891 3094 3811 
Q 2925 3731 2669 3731 
Q 2445 3731 2182 3821 
Q 2208 3674 2208 3539 
Q 2208 3206 2067 2873 
Q 1926 2541 1696 2323 
Q 1453 2086 1146 2086 
Q 826 2086 608 2339 
Q 390 2592 390 2963 
Q 390 3507 761 3916 
Q 1133 4326 1626 4326 
Q 1792 4326 2010 4147 
Q 2310 3898 2624 3898 
Q 2918 3898 3084 3994 
Q 3251 4090 3693 4518 
L 3974 4518 
z
M 2054 3642 
Q 2054 3782 2025 3833 
Q 1997 3885 1894 3936 
Q 1747 4006 1613 4154 
Q 1414 4058 1331 3984 
Q 1248 3910 1152 3750 
Q 845 3264 845 2707 
Q 845 2509 944 2384 
Q 1043 2259 1210 2259 
Q 1549 2259 1801 2675 
Q 2054 3091 2054 3642 
z
" transform="scale(0.015625)"/>
       <path id="STIXGeneral-Regular-29" d="M 186 4224 
L 262 4326 
Q 992 3891 1408 3148 
Q 1824 2406 1824 1581 
Q 1824 -166 243 -1133 
L 186 -1030 
Q 845 -486 1059 54 
Q 1274 595 1274 1562 
Q 1274 2534 1059 3120 
Q 845 3706 186 4224 
z
" transform="scale(0.015625)"/>
      </defs>
      <use xlink:href="#SimSun-7d22" transform="translate(0 0.578125)"/>
      <use xlink:href="#SimSun-5f15" transform="translate(100 0.578125)"/>
      <use xlink:href="#SimSun-88c5" transform="translate(200 0.578125)"/>
      <use xlink:href="#SimSun-8f7d" transform="translate(300 0.578125)"/>
      <use xlink:href="#SimSun-7387" transform="translate(400 0.578125)"/>
      <use xlink:href="#SimSun-20" transform="translate(500 0.578125)"/>
      <use xlink:href="#STIXGeneral-Regular-28" transform="translate(550 0.578125)"/>
      <use xlink:href="#STIXGeneral-Regular-25" transform="translate(583.299988 0.578125)"/>
      <use xlink:href="#STIXGeneral-Regular-29" transform="translate(657.999969 0.578125)"/>
     </g>
    </g>
   </g>
   <g id="matplotlib.axis_2">
    <g id="ytick_1">
     <g id="line2d_12">
      <defs>
       <path id="mdd01924b1b" d="M 0 0 
L -3.5 0 
" style="stroke: #000000; stroke-width: 0.8"/>
      </defs>
      <g>
       <use xlink:href="#mdd01924b1b" x="115.2" y="461.376" style="stroke: #000000; stroke-width: 0.8"/>
      </g>
     </g>
     <g id="text_13">
      <!-- 50 -->
      <g transform="translate(89.2 468.167016) scale(0.19 -0.19)">
       <use xlink:href="#SimSun-35"/>
       <use xlink:href="#SimSun-30" x="50"/>
      </g>
     </g>
    </g>
    <g id="ytick_2">
     <g id="line2d_13">
      <g>
       <use xlink:href="#mdd01924b1b" x="115.2" y="421.4592" style="stroke: #000000; stroke-width: 0.8"/>
      </g>
     </g>
     <g id="text_14">
      <!-- 55 -->
      <g transform="translate(89.2 428.250216) scale(0.19 -0.19)">
       <use xlink:href="#SimSun-35"/>
       <use xlink:href="#SimSun-35" x="50"/>
      </g>
     </g>
    </g>
    <g id="ytick_3">
     <g id="line2d_14">
      <g>
       <use xlink:href="#mdd01924b1b" x="115.2" y="381.5424" style="stroke: #000000; stroke-width: 0.8"/>
      </g>
     </g>
     <g id="text_15">
      <!-- 60 -->
      <g transform="translate(89.2 388.333416) scale(0.19 -0.19)">
       <use xlink:href="#SimSun-36"/>
       <use xlink:href="#SimSun-30" x="50"/>
      </g>
     </g>
    </g>
    <g id="ytick_4">
     <g id="line2d_15">
      <g>
       <use xlink:href="#mdd01924b1b" x="115.2" y="341.6256" style="stroke: #000000; stroke-width: 0.8"/>
      </g>
     </g>
     <g id="text_16">
      <!-- 65 -->
      <g transform="translate(89.2 348.416616) scale(0.19 -0.19)">
       <use xlink:href="#SimSun-36"/>
       <use xlink:href="#SimSun-35" x="50"/>
      </g>
     </g>
    </g>
    <g id="ytick_5">
     <g id="line2d_16">
      <g>
       <use xlink:href="#mdd01924b1b" x="115.2" y="301.7088" style="stroke: #000000; stroke-width: 0.8"/>
      </g>
     </g>
     <g id="text_17">
      <!-- 70 -->
      <g transform="translate(89.2 308.499816) scale(0.19 -0.19)">
       <use xlink:href="#SimSun-37"/>
       <use xlink:href="#SimSun-30" x="50"/>
      </g>
     </g>
    </g>
    <g id="ytick_6">
     <g id="line2d_17">
      <g>
       <use xlink:href="#mdd01924b1b" x="115.2" y="261.792" style="stroke: #000000; stroke-width: 0.8"/>
      </g>
     </g>
     <g id="text_18">
      <!-- 75 -->
      <g transform="translate(89.2 268.583016) scale(0.19 -0.19)">
       <use xlink:href="#SimSun-37"/>
       <use xlink:href="#SimSun-35" x="50"/>
      </g>
     </g>
    </g>
    <g id="ytick_7">
     <g id="line2d_18">
      <g>
       <use xlink:href="#mdd01924b1b" x="115.2" y="221.8752" style="stroke: #000000; stroke-width: 0.8"/>
      </g>
     </g>
     <g id="text_19">
      <!-- 80 -->
      <g transform="translate(89.2 228.666216) scale(0.19 -0.19)">
       <use xlink:href="#SimSun-38"/>
       <use xlink:href="#SimSun-30" x="50"/>
      </g>
     </g>
    </g>
    <g id="ytick_8">
     <g id="line2d_19">
      <g>
       <use xlink:href="#mdd01924b1b" x="115.2" y="181.9584" style="stroke: #000000; stroke-width: 0.8"/>
      </g>
     </g>
     <g id="text_20">
      <!-- 85 -->
      <g transform="translate(89.2 188.749416) scale(0.19 -0.19)">
       <use xlink:href="#SimSun-38"/>
       <use xlink:href="#SimSun-35" x="50"/>
      </g>
     </g>
    </g>
    <g id="ytick_9">
     <g id="line2d_20">
      <g>
       <use xlink:href="#mdd01924b1b" x="115.2" y="142.0416" style="stroke: #000000; stroke-width: 0.8"/>
      </g>
     </g>
     <g id="text_21">
      <!-- 90 -->
      <g transform="translate(89.2 148.832616) scale(0.19 -0.19)">
       <use xlink:href="#SimSun-39"/>
       <use xlink:href="#SimSun-30" x="50"/>
      </g>
     </g>
    </g>
    <g id="ytick_10">
     <g id="line2d_21">
      <g>
       <use xlink:href="#mdd01924b1b" x="115.2" y="102.1248" style="stroke: #000000; stroke-width: 0.8"/>
      </g>
     </g>
     <g id="text_22">
      <!-- 95 -->
      <g transform="translate(89.2 108.915816) scale(0.19 -0.19)">
       <use xlink:href="#SimSun-39"/>
       <use xlink:href="#SimSun-35" x="50"/>
      </g>
     </g>
    </g>
    <g id="ytick_11">
     <g id="line2d_22">
      <g>
       <use xlink:href="#mdd01924b1b" x="115.2" y="62.208" style="stroke: #000000; stroke-width: 0.8"/>
      </g>
     </g>
     <g id="text_23">
      <!-- 100 -->
      <g transform="translate(79.7 68.999016) scale(0.19 -0.19)">
       <use xlink:href="#SimSun-31"/>
       <use xlink:href="#SimSun-30" x="50"/>
       <use xlink:href="#SimSun-30" x="100"/>
      </g>
     </g>
    </g>
    <g id="text_24">
     <!-- 读取命中率 $\mathrm{(\%)}$ -->
     <g transform="translate(72.28 327.532) rotate(-90) scale(0.19 -0.19)">
      <defs>
       <path id="SimSun-8bfb" d="M 1450 275 
L 2375 850 
L 2425 775 
Q 1600 50 1325 -325 
L 1025 50 
Q 1125 175 1125 400 
L 1125 2850 
L 1050 2850 
Q 725 2850 450 2775 
L 225 3000 
L 1125 3000 
L 1350 3225 
L 1675 2900 
L 1450 2725 
L 1450 275 
z
M 750 4925 
L 800 5000 
Q 1150 4800 1387 4600 
Q 1625 4400 1587 4200 
Q 1550 4000 1400 3925 
Q 1250 3850 1175 4200 
Q 1100 4525 750 4925 
z
M 5100 2700 
L 5425 3325 
L 2575 3325 
Q 2375 3325 2100 3250 
L 1875 3475 
L 3650 3475 
L 3650 4250 
L 3025 4250 
Q 2700 4250 2425 4175 
L 2200 4400 
L 3650 4400 
Q 3650 4825 3625 5250 
L 4175 5000 
L 3975 4825 
L 3975 4400 
L 4875 4400 
L 5150 4675 
L 5550 4250 
L 3975 4250 
L 3975 3475 
L 5375 3475 
L 5625 3750 
L 6075 3300 
Q 5725 3275 5200 2650 
L 5100 2700 
z
M 2750 2925 
L 2775 3000 
Q 3350 2825 3462 2687 
Q 3575 2550 3575 2450 
Q 3575 2350 3512 2250 
Q 3450 2150 3425 2150 
Q 3350 2150 3275 2350 
Q 3125 2625 2750 2925 
z
M 2375 2275 
Q 2975 2075 3100 1950 
Q 3225 1825 3225 1700 
Q 3225 1625 3162 1512 
Q 3100 1400 3075 1400 
Q 3000 1400 2900 1625 
Q 2725 1925 2350 2200 
L 2375 2275 
z
M 4475 2625 
Q 4425 1550 4350 1175 
L 5275 1175 
L 5600 1500 
L 6050 1025 
L 4325 1025 
Q 4250 825 4125 575 
Q 4850 350 5200 150 
Q 5550 -50 5600 -237 
Q 5650 -425 5587 -500 
Q 5525 -575 5475 -575 
Q 5350 -575 5175 -325 
Q 4925 25 4075 475 
Q 3425 -425 1975 -650 
L 1950 -550 
Q 3600 -100 3975 1025 
L 2700 1025 
Q 2500 1025 2225 950 
L 2000 1175 
L 4000 1175 
Q 4100 1800 4100 3075 
L 4675 2800 
L 4475 2625 
z
" transform="scale(0.015625)"/>
       <path id="SimSun-53d6" d="M 1300 2225 
L 1300 1125 
L 2425 1350 
L 2425 2225 
L 1300 2225 
z
M 2750 1225 
Q 2750 100 2775 -350 
L 2400 -575 
Q 2425 125 2425 1150 
Q 775 700 575 425 
L 325 925 
Q 625 975 975 1050 
L 975 4650 
L 775 4650 
L 525 4600 
L 325 4800 
L 2675 4800 
L 2975 5100 
L 3425 4650 
L 2750 4650 
L 2750 1425 
L 3500 1575 
L 3525 1475 
L 2750 1225 
z
M 1300 4650 
L 1300 3600 
L 2425 3600 
L 2425 4650 
L 1300 4650 
z
M 2425 3450 
L 1300 3450 
L 1300 2375 
L 2425 2375 
L 2425 3450 
z
M 2925 4175 
L 5050 4175 
L 5250 4425 
L 5700 4075 
L 5475 3925 
Q 5100 2350 4550 1275 
Q 5200 375 6100 125 
L 6100 25 
Q 5775 -25 5600 -275 
Q 4875 225 4375 975 
Q 3700 25 2825 -525 
L 2775 -450 
Q 3650 325 4175 1250 
Q 3650 2625 3525 4025 
L 3350 4025 
L 3125 3975 
L 2925 4175 
z
M 3650 4025 
Q 3900 2525 4350 1600 
Q 4825 2650 5075 4025 
L 3650 4025 
z
" transform="scale(0.015625)"/>
       <path id="SimSun-547d" d="M 1775 3150 
L 3650 3150 
L 3950 3450 
L 4400 3000 
L 2550 3000 
Q 2225 3000 2000 2925 
L 1775 3150 
z
M 1450 2125 
L 1450 575 
L 2400 575 
L 2400 2125 
L 1450 2125 
z
M 1100 -250 
Q 1125 525 1125 1125 
Q 1125 1725 1100 2500 
L 1450 2275 
L 2350 2275 
L 2525 2500 
L 2900 2200 
L 2725 2050 
Q 2725 550 2750 150 
L 2400 0 
L 2400 425 
L 1450 425 
L 1450 -100 
L 1100 -250 
z
M 3775 2175 
L 3775 -450 
L 3425 -625 
Q 3450 75 3450 1050 
Q 3450 2025 3425 2550 
L 3775 2325 
L 4825 2325 
L 5000 2575 
L 5400 2275 
L 5200 2100 
L 5200 525 
Q 5225 75 4700 -125 
Q 4700 150 4025 325 
L 4025 425 
Q 4550 375 4712 375 
Q 4875 375 4875 700 
L 4875 2175 
L 3775 2175 
z
M 2975 5275 
L 3475 4900 
L 3250 4725 
Q 3750 4025 4450 3625 
Q 5150 3225 6125 3075 
L 6125 2975 
Q 5700 2950 5550 2625 
Q 4650 3050 4112 3500 
Q 3575 3950 3150 4650 
Q 2600 3900 1962 3362 
Q 1325 2825 275 2425 
L 225 2525 
Q 1250 2975 1962 3750 
Q 2675 4525 2975 5275 
z
" transform="scale(0.015625)"/>
       <path id="SimSun-4e2d" d="M 3325 3625 
L 3325 1975 
L 5125 1975 
L 5125 3625 
L 3325 3625 
z
M 2950 3775 
Q 2950 4750 2925 5250 
L 3525 4975 
L 3325 4775 
L 3325 3775 
L 5075 3775 
L 5275 4075 
L 5700 3750 
L 5475 3550 
L 5475 2100 
Q 5475 1825 5500 1525 
L 5125 1375 
L 5125 1825 
L 3325 1825 
Q 3325 -75 3350 -400 
L 2925 -625 
Q 2950 -50 2950 1825 
L 1225 1825 
L 1225 1525 
L 850 1325 
Q 875 1775 875 2625 
Q 875 3475 850 4000 
L 1225 3775 
L 2950 3775 
z
M 1225 3625 
L 1225 1975 
L 2950 1975 
L 2950 3625 
L 1225 3625 
z
" transform="scale(0.015625)"/>
      </defs>
      <use xlink:href="#SimSun-8bfb" transform="translate(0 0.578125)"/>
      <use xlink:href="#SimSun-53d6" transform="translate(100 0.578125)"/>
      <use xlink:href="#SimSun-547d" transform="translate(200 0.578125)"/>
      <use xlink:href="#SimSun-4e2d" transform="translate(300 0.578125)"/>
      <use xlink:href="#SimSun-7387" transform="translate(400 0.578125)"/>
      <use xlink:href="#SimSun-20" transform="translate(500 0.578125)"/>
      <use xlink:href="#STIXGeneral-Regular-28" transform="translate(550 0.578125)"/>
      <use xlink:href="#STIXGeneral-Regular-25" transform="translate(583.299988 0.578125)"/>
      <use xlink:href="#STIXGeneral-Regular-29" transform="translate(657.999969 0.578125)"/>
     </g>
    </g>
   </g>
   <g id="line2d_23">
    <path d="M 115.634378 519.4 
L 115.897812 482.40417 
L 116.246362 460.613589 
L 117.404145 424.766706 
L 118.624781 397.238484 
L 119.956838 390.47578 
L 121.837432 381.932786 
L 123.548751 361.796357 
L 126.694979 339.038193 
L 128.193454 332.51978 
L 129.635505 325.597408 
L 132.418898 315.035423 
L 133.763098 311.79817 
L 135.09087 306.887606 
L 136.386501 302.924666 
L 137.686418 300.333267 
L 138.958479 298.06759 
L 140.209114 294.413606 
L 141.451891 292.32436 
L 142.678956 288.63046 
L 143.905306 287.104041 
L 145.1038 285.239128 
L 146.286582 281.633843 
L 148.65643 278.28163 
L 149.813499 275.91137 
L 152.111923 272.306883 
L 153.239708 270.323018 
L 155.485993 266.934881 
L 156.590922 265.821202 
L 157.707994 264.986142 
L 159.895711 260.824417 
L 160.980641 260.88988 
L 162.062001 257.607123 
L 163.147645 257.217535 
L 164.220434 255.781328 
L 165.287508 255.054044 
L 166.349583 253.667335 
L 167.400945 253.137239 
L 168.455877 251.122239 
L 169.510095 251.763303 
L 170.551457 248.395124 
L 171.583534 248.086168 
L 173.661258 245.877172 
L 175.716127 244.991817 
L 176.733204 242.937699 
L 177.744568 242.22718 
L 178.761646 241.749775 
L 179.770867 241.152619 
L 180.785802 240.100413 
L 182.782817 238.485379 
L 183.774182 238.241886 
L 184.781975 235.74549 
L 185.765484 236.053647 
L 186.748278 235.165898 
L 187.739643 234.4929 
L 188.721009 233.138923 
L 189.697375 233.186024 
L 194.559921 229.622253 
L 196.490511 227.40687 
L 197.459735 226.911103 
L 198.412531 227.283128 
L 199.376041 225.544352 
L 200.330266 225.543554 
L 201.280919 224.319705 
L 202.228001 223.838308 
L 203.183654 223.807173 
L 204.135736 222.856355 
L 205.082819 221.701163 
L 206.02133 222.565761 
L 206.965555 220.945937 
L 207.910495 220.221846 
L 209.788946 219.601539 
L 210.721743 219.021149 
L 211.649541 218.058356 
L 212.576625 217.794905 
L 213.50228 217.291155 
L 214.435077 217.165816 
L 216.273531 215.574732 
L 217.187044 215.82062 
L 218.11127 213.796838 
L 219.026212 214.006002 
L 219.955438 214.599166 
L 220.87038 213.784863 
L 221.77675 212.402145 
L 222.689549 212.049281 
L 223.600205 212.022935 
L 224.513718 211.686836 
L 225.424374 210.42786 
L 226.327887 210.740808 
L 227.232829 209.801166 
L 228.132058 209.227961 
L 229.049142 208.80165 
L 229.951227 209.255105 
L 231.753969 207.906715 
L 232.651054 208.058399 
L 234.437368 206.888038 
L 236.227968 206.283698 
L 237.127196 205.840621 
L 238.897797 204.033189 
L 239.76917 203.738603 
L 240.669827 204.384457 
L 241.544056 204.31101 
L 242.414715 203.618852 
L 243.288945 202.697573 
L 245.047404 201.910413 
L 245.928061 201.978272 
L 246.804434 201.068967 
L 247.675092 201.140817 
L 248.551465 200.209159 
L 249.418552 199.673476 
L 250.293496 199.923355 
L 251.163441 199.200063 
L 252.025528 198.775348 
L 252.902615 199.303048 
L 253.775416 197.414983 
L 255.493878 197.724738 
L 256.361679 196.649379 
L 257.224481 197.129977 
L 258.098711 195.712931 
L 258.966513 196.381138 
L 260.710687 196.047434 
L 261.569203 194.95531 
L 262.434862 195.179642 
L 263.294093 193.91428 
L 264.149752 194.671102 
L 265.004698 194.465132 
L 265.858929 192.591437 
L 266.722445 194.07235 
L 267.575962 193.698729 
L 268.438049 192.689633 
L 269.291566 192.075712 
L 270.141512 192.363113 
L 270.9886 191.259813 
L 271.844974 192.170714 
L 272.701348 191.080187 
L 273.54558 191.230274 
L 274.398382 190.542109 
L 275.245471 190.003232 
L 276.92822 190.114999 
L 278.613827 189.833186 
L 279.459487 189.279939 
L 280.294433 187.966677 
L 281.135808 188.001804 
L 281.966469 187.507634 
L 282.808558 188.127941 
L 283.65279 187.910793 
L 284.492736 186.977538 
L 285.326968 187.4757 
L 286.169057 186.57837 
L 286.999004 185.938105 
L 287.842522 185.584442 
L 288.681039 186.779551 
L 289.520986 186.579169 
L 290.346647 185.166912 
L 291.184451 185.85428 
L 292.010826 185.017624 
L 292.852201 184.766148 
L 293.685719 183.83928 
L 294.527808 184.493117 
L 296.166989 183.242923 
L 296.984079 183.618141 
L 297.807598 183.596585 
L 298.628974 182.600262 
L 299.456778 182.5819 
L 300.284582 181.733269 
L 301.107387 182.300886 
L 301.918049 182.248196 
L 302.755139 181.8147 
L 303.5758 182.309668 
L 304.400748 182.015082 
L 305.22998 180.887033 
L 306.051356 181.109769 
L 306.876303 180.120631 
L 307.693394 181.024347 
L 310.170378 179.893105 
L 311.81813 178.290046 
L 312.628078 179.058045 
L 313.440883 178.505597 
L 314.261545 178.622154 
L 315.080778 178.911151 
L 315.899297 177.576334 
L 316.715674 178.098445 
L 317.530621 177.724824 
L 318.339855 177.011112 
L 319.164088 177.153216 
L 319.980465 176.821906 
L 320.789699 177.43902 
L 321.607503 177.157207 
L 322.413166 176.336518 
L 323.225971 176.136136 
L 324.038062 176.273449 
L 324.84801 176.059495 
L 325.65653 176.38841 
L 326.46505 176.507362 
L 327.273569 174.782956 
L 328.075661 175.51024 
L 328.886323 175.633982 
L 329.6977 175.561334 
L 330.498363 175.322631 
L 331.29974 174.08521 
L 332.109688 174.704719 
L 332.919636 173.720371 
L 334.530962 173.892811 
L 336.13943 173.295656 
L 336.931523 172.859765 
L 338.538563 173.266916 
L 339.340654 173.350741 
L 340.145603 172.47337 
L 340.952694 172.249836 
L 341.751214 172.570767 
L 342.551163 171.936888 
L 343.356111 171.750078 
L 344.157489 171.891383 
L 344.955295 171.749279 
L 345.761672 171.808356 
L 346.570906 171.190444 
L 347.367997 171.263891 
L 348.165804 170.560557 
L 348.96361 170.903043 
L 349.76213 170.217272 
L 350.558508 170.208491 
L 351.359171 169.929073 
L 352.160548 169.932266 
L 352.958354 170.210886 
L 353.754732 169.93546 
L 354.550395 169.091619 
L 356.14315 169.501165 
L 356.94667 169.186621 
L 357.743048 168.724384 
L 358.527283 169.050904 
L 359.312233 168.293283 
L 360.101468 169.140317 
L 360.888561 168.060169 
L 361.682796 168.080925 
L 362.478459 167.815878 
L 364.063357 167.791129 
L 364.849736 167.201159 
L 365.633257 167.328094 
L 366.43392 166.904178 
L 367.226726 167.362423 
L 368.016676 167.412718 
L 368.799483 167.196369 
L 369.588004 166.426773 
L 371.158618 166.207231 
L 371.946424 165.714657 
L 372.736374 166.139372 
L 374.311987 165.887098 
L 375.098365 165.107124 
L 375.895457 165.57415 
L 376.675407 165.163806 
L 378.250307 165.045652 
L 379.04597 164.818126 
L 379.827348 164.793378 
L 380.605156 164.011008 
L 381.392248 164.992962 
L 382.177912 163.917603 
L 382.962148 164.044538 
L 383.744241 163.56873 
L 384.528476 164.076472 
L 385.311997 163.076955 
L 386.087662 163.389903 
L 386.868326 163.418643 
L 387.651848 163.325238 
L 388.430369 163.416248 
L 389.21889 162.815899 
L 389.993841 162.874976 
L 390.766648 163.176747 
L 391.545884 162.87817 
L 392.321549 162.903716 
L 393.890734 162.59476 
L 394.67497 161.691044 
L 395.453491 161.691044 
L 396.221299 162.012773 
L 397.000535 161.693439 
L 397.776914 160.511902 
L 398.554721 161.63037 
L 399.332529 161.370911 
L 400.110336 160.752201 
L 400.898143 161.283094 
L 401.678093 161.473098 
L 402.4559 160.881531 
L 403.237279 160.812076 
L 404.005087 160.376185 
L 404.780037 160.387361 
L 405.548559 160.819261 
L 406.317796 160.40253 
L 407.096317 159.545117 
L 407.869839 159.710372 
L 408.64479 159.724742 
L 409.420454 159.863653 
L 410.191834 159.437341 
L 410.966784 159.961848 
L 411.741734 159.521167 
L 412.509542 159.592219 
L 413.280207 158.931995 
L 414.063014 159.118007 
L 414.832251 158.491313 
L 415.605773 158.081767 
L 416.373581 158.48812 
L 417.905626 158.325259 
L 418.679148 158.690897 
L 419.452669 158.650182 
L 420.223334 157.982773 
L 420.992571 158.13286 
L 421.770378 157.497385 
L 422.5439 157.698566 
L 423.318136 157.541293 
L 424.078802 158.236644 
L 425.613704 157.759239 
L 426.386511 157.233934 
L 427.155034 157.308179 
L 427.922842 157.011997 
L 428.684936 157.452678 
L 429.457743 156.378916 
L 430.231265 156.843548 
L 431.002644 156.727789 
L 431.770452 157.173261 
L 432.545403 156.823589 
L 433.313211 157.160487 
L 434.08959 157.257884 
L 434.853827 155.557428 
L 435.627348 156.556945 
L 436.393014 156.131432 
L 437.162964 155.973362 
L 437.930058 156.424421 
L 438.691438 155.948613 
L 439.457818 156.072355 
L 440.220626 155.296373 
L 440.98772 155.171034 
L 441.747671 155.780963 
L 442.512622 155.183009 
L 443.268288 155.02414 
L 444.030382 155.514318 
L 444.797476 155.187001 
L 445.558141 155.743441 
L 446.322378 154.932331 
L 447.085901 155.066452 
L 447.842281 154.186686 
L 448.603661 154.235384 
L 449.365041 155.177421 
L 450.119992 154.574677 
L 450.885658 154.379085 
L 451.641324 153.947983 
L 452.402703 154.001472 
L 453.916892 153.488142 
L 454.681843 153.430661 
L 455.440366 153.883318 
L 456.203174 153.575959 
L 456.964554 153.428266 
L 458.488028 154.138785 
L 459.248694 153.907268 
L 460.012931 152.834304 
L 460.769311 152.819136 
L 461.529262 153.509697 
L 462.289928 153.591925 
L 463.812687 152.281856 
L 465.330447 152.453498 
L 466.084685 152.879011 
L 466.841065 152.374463 
L 467.598159 152.789598 
L 468.355968 151.961723 
L 469.110205 152.680226 
L 469.864443 152.506987 
L 470.632965 151.576925 
L 471.394345 152.122987 
L 472.145011 152.210006 
L 475.93334 151.60806 
L 476.687578 151.282339 
L 477.443958 151.746971 
L 478.195338 151.025275 
L 478.94529 151.313474 
L 480.46805 151.163387 
L 481.220859 151.062797 
L 481.987953 151.148219 
L 482.744333 150.717117 
L 483.501427 151.214481 
L 484.254236 150.994938 
L 485.010616 150.651654 
L 485.762711 151.403686 
L 486.516948 151.136244 
L 487.274757 150.217359 
L 488.031137 150.205384 
L 489.533184 150.677201 
L 490.285279 150.341101 
L 491.783754 150.468835 
L 492.535135 150.280428 
L 493.282944 149.961891 
L 494.037896 149.479697 
L 495.544942 149.40146 
L 496.305608 149.304063 
L 497.057702 149.051788 
L 497.799084 148.980737 
L 498.545464 149.55474 
L 499.288988 149.189102 
L 500.041797 149.147589 
L 500.786749 149.40625 
L 501.541701 149.545958 
L 502.298081 149.533983 
L 503.046605 149.150782 
L 505.302889 148.492155 
L 506.803507 148.688546 
L 508.296269 148.429086 
L 509.046935 148.194376 
L 509.797601 148.845818 
L 510.549696 148.63346 
L 511.304648 148.278201 
L 512.803123 148.741236 
L 513.550932 148.618292 
L 514.300884 147.722559 
L 515.051551 147.813569 
L 515.802217 148.314924 
L 517.304978 147.794409 
L 518.057073 147.198851 
L 518.804168 147.533353 
L 519.559119 147.398435 
L 520.3055 148.095382 
L 521.059023 147.557303 
L 521.801833 147.658692 
L 522.564641 147.50142 
L 523.311022 147.218809 
L 524.06526 146.652789 
L 524.814497 147.237969 
L 525.558735 146.941786 
L 526.302973 146.877121 
L 527.80502 147.116622 
L 528.558543 146.402111 
L 529.30421 147.008847 
L 530.044877 146.640015 
L 531.546209 146.593712 
L 532.28759 146.865944 
L 533.027543 146.499508 
L 533.771781 146.746992 
L 534.515305 146.38375 
L 535.254543 146.58972 
L 536.002353 146.415683 
L 536.739448 146.089962 
L 537.477258 146.457196 
L 538.970734 145.970211 
L 539.719972 146.13866 
L 540.46421 146.010128 
L 541.206305 146.263201 
L 541.955543 146.872331 
L 542.704067 145.283642 
L 543.445448 145.555875 
L 544.191114 145.488017 
L 544.931781 145.810544 
L 546.418115 145.873613 
L 548.652972 145.290828 
L 549.391496 145.405788 
L 550.133591 145.368266 
L 550.872829 145.488017 
L 551.617068 145.392216 
L 552.351306 145.160699 
L 553.087688 145.360283 
L 553.744788 142.859096 
L 554.379034 142.501442 
L 555.008993 142.322614 
L 555.640381 142.541358 
L 556.268198 141.744619 
L 556.901729 141.761384 
L 557.532403 142.0895 
L 558.16022 141.972145 
L 558.790894 142.64115 
L 559.422996 142.028827 
L 560.052242 142.748127 
L 560.681487 141.850798 
L 561.30859 141.438856 
L 561.942835 142.006473 
L 562.570652 141.964161 
L 563.200612 141.723862 
L 563.832 141.925841 
L 565.094776 141.40373 
L 565.723308 142.182107 
L 566.356838 141.335871 
L 566.98037 141.119522 
L 567.613901 141.601717 
L 568.24386 141.756594 
L 570.764413 141.45642 
L 571.402944 141.040487 
L 572.027904 141.589742 
L 572.657149 141.576968 
L 573.276396 140.64052 
L 573.914212 141.315913 
L 574.533458 141.0341 
L 575.160561 141.092378 
L 575.788378 140.399423 
L 576.421908 140.941493 
L 577.678971 140.011432 
L 578.305359 140.222991 
L 578.93889 141.184985 
L 579.569564 139.977103 
L 580.195953 141.097967 
L 580.81377 139.942775 
L 581.43873 140.112022 
L 582.066547 140.523165 
L 582.695793 140.150342 
L 583.322895 140.218999 
L 583.949284 139.357594 
L 584.574244 140.828129 
L 585.204204 139.995465 
L 585.836306 140.44413 
L 586.464123 139.903656 
L 587.085512 139.743191 
L 587.7119 140.460895 
L 588.338289 139.937186 
L 589.590351 139.747182 
L 590.217454 139.987481 
L 590.8417 139.150825 
L 591.472374 138.981578 
L 592.098762 139.486925 
L 592.723008 139.720837 
L 593.356539 139.834999 
L 593.987213 139.805461 
L 594.620029 140.100845 
L 595.244989 139.043848 
L 595.869949 139.698484 
L 597.122012 139.087757 
L 597.749115 139.155615 
L 598.387645 139.787099 
L 599.019748 139.344023 
L 600.271096 139.284946 
L 600.892485 138.66384 
L 601.493875 138.63989 
L 601.493875 138.63989 
" clip-path="url(#p6339f4f3c0)" style="fill: none; stroke: #ff0000; stroke-width: 1.5; stroke-linecap: square"/>
   </g>
   <g id="line2d_24">
    <path d="M 115.812818 512.463916 
L 119.4383 429.666094 
L 132.274621 323.355681 
L 143.413194 248.058226 
L 153.657539 258.2418 
L 163.586903 203.101531 
L 173.206287 200.114157 
L 182.383557 160.444841 
L 191.176566 161.096284 
L 199.921006 173.33238 
L 208.359752 186.153656 
L 216.57494 146.723042 
L 224.71799 174.592952 
L 232.511777 115.208729 
L 240.357704 156.648754 
L 247.871508 142.913383 
L 255.30889 148.995905 
L 262.550569 135.985423 
L 269.825103 122.483965 
L 277.010358 148.920063 
L 284.095619 136.206562 
L 290.76162 144.197906 
L 297.542615 140.698001 
L 304.241472 119.269864 
L 310.856049 116.366316 
L 317.326349 134.808676 
L 323.777364 112.23333 
L 330.025536 110.867378 
L 336.382986 118.544177 
L 342.581161 106.888471 
L 348.760051 95.014021 
L 354.762524 103.433273 
L 360.698573 101.971519 
L 366.590339 100.336527 
L 372.315686 77.702105 
L 383.665674 115.978325 
L 389.292457 62.208 
L 394.844959 92.733175 
L 400.333893 91.467813 
L 405.635697 91.332096 
L 410.978926 89.324281 
L 416.239304 77.617481 
L 421.518252 97.849711 
L 426.786486 66.067156 
L 431.943299 95.683027 
L 436.990118 115.278982 
L 442.091935 110.770779 
L 446.873772 62.208 
L 456.735283 62.208 
L 461.418555 69.106421 
L 466.11254 89.509495 
L 470.823667 98.299972 
L 475.464084 66.903014 
L 480.08236 97.242975 
L 484.576358 86.477414 
L 489.098212 87.00751 
L 493.565783 75.952951 
L 498.068352 94.166188 
L 502.520924 73.434201 
L 506.777795 73.217053 
L 511.092518 62.208 
L 515.348675 62.208 
L 519.623401 81.068688 
L 523.81099 91.474998 
L 527.905014 62.208 
L 532.02975 81.213985 
L 536.109489 65.77257 
L 540.212797 62.208 
L 544.281108 68.580318 
L 548.225142 62.208 
L 567.149645 62.208 
L 570.887977 67.595171 
L 574.544886 87.792274 
L 578.211794 66.978058 
L 581.801564 62.208 
L 585.375621 66.538973 
L 588.899681 107.693992 
L 592.383744 86.850237 
L 595.819953 87.247809 
L 599.241162 107.369868 
L 602.563807 62.208 
L 605.983588 86.330521 
L 609.381228 62.208 
L 612.740298 85.762904 
L 616.076513 95.740507 
L 619.388444 71.488656 
L 622.604667 62.208 
L 625.677327 62.208 
L 628.818555 74.179048 
L 631.916214 63.154826 
L 635.0353 62.867426 
L 638.142958 95.726935 
L 641.213476 63.537229 
L 644.211855 62.208 
L 650.292895 62.208 
L 653.284132 63.085371 
L 656.15252 62.208 
L 659.072333 62.208 
L 661.997146 85.229615 
L 664.938386 74.384221 
L 667.860342 62.208 
L 670.675162 111.999418 
L 673.497124 62.208 
L 676.3248 72.189595 
L 679.102479 75.473949 
L 681.859446 62.208 
L 687.291241 62.208 
L 690.003924 76.281865 
L 692.594473 62.208 
L 695.234304 74.963813 
L 697.869135 62.208 
L 700.392545 77.105748 
L 702.971666 65.883539 
L 705.507218 99.774499 
L 707.982774 62.208 
L 710.416904 78.546745 
L 712.862461 88.973013 
L 715.181599 66.917384 
L 717.557161 79.167052 
L 719.876298 79.357056 
L 722.199007 90.993601 
L 724.49886 62.208 
L 726.710147 79.562228 
L 728.972859 62.208 
L 731.17129 90.084296 
L 733.346865 80.426826 
L 735.528868 67.503363 
L 737.643732 62.208 
L 741.804895 62.208 
L 743.806909 70.402919 
L 745.828923 62.208 
L 747.78594 69.969423 
L 749.725816 62.208 
L 751.630694 62.208 
L 753.532001 70.842802 
L 755.406881 71.119026 
L 757.199624 71.542943 
L 758.975939 71.579666 
L 760.756539 106.193919 
L 762.502856 94.927003 
L 764.224174 72.404347 
L 765.913352 62.208 
L 767.528248 119.22835 
L 769.136717 99.234025 
L 770.713044 73.217852 
L 772.260803 119.00801 
L 773.765706 62.208 
L 775.28418 62.310985 
L 776.69909 110.02194 
L 778.140426 74.556661 
L 779.544622 63.854967 
L 780.920963 109.942904 
L 782.274447 75.339031 
L 783.590792 64.365902 
L 784.858568 62.208 
L 786.139914 88.233754 
L 787.357693 88.956248 
L 788.585472 65.430882 
L 789.772539 88.901961 
L 790.908895 62.208 
L 792.037394 90.560105 
L 793.120182 66.330607 
L 794.207255 78.712 
L 795.270758 134.971536 
L 796.296407 75.715047 
L 797.299914 90.547331 
L 798.259853 91.400753 
L 799.213363 62.208 
L 800.120448 62.208 
L 801.038961 103.888324 
L 802.790991 62.208 
L 803.623795 70.549813 
L 804.433743 66.364137 
L 805.219407 94.815236 
L 805.992929 70.426869 
L 806.746452 72.058668 
L 807.487119 82.792295 
L 808.177075 95.718154 
L 808.87703 70.25363 
L 809.561987 62.208 
L 810.216945 62.208 
L 810.856189 84.775362 
L 811.479721 96.59313 
L 812.085396 85.729374 
L 812.676787 120.502495 
L 813.22818 73.863706 
L 813.762432 98.745444 
L 814.287398 87.131252 
L 814.805937 86.883767 
L 815.312333 99.272345 
L 815.805158 99.531805 
L 816.275843 62.208 
L 816.723671 88.694393 
L 817.154358 125.092128 
L 817.582188 76.693008 
L 817.996447 78.598636 
L 818.388564 65.586558 
L 818.777825 91.376802 
L 819.159229 90.52897 
L 819.521349 102.761074 
L 819.867041 90.976836 
L 820.198449 115.575963 
L 820.526999 115.293352 
L 820.851264 79.737064 
L 821.156959 79.598153 
L 821.458368 80.353379 
L 821.746207 62.208 
L 822.019761 139.818234 
L 822.284029 80.846751 
L 822.798996 105.200789 
L 823.043267 128.718969 
L 823.27968 62.208 
L 823.723223 120.788299 
L 823.938209 129.695334 
L 824.141053 83.459704 
L 824.340326 72.164048 
L 824.5246 137.243601 
L 824.707446 108.691912 
L 824.88172 108.012528 
L 825.053852 108.14106 
L 825.218842 96.98671 
L 825.379546 121.215409 
L 825.531679 96.938809 
L 825.678812 132.353793 
L 825.820946 62.208 
L 825.95808 85.892234 
L 826.090929 145.747476 
L 826.213064 98.784562 
L 826.33877 122.966958 
L 826.455905 87.202303 
L 826.569469 87.492099 
L 826.680891 75.885092 
L 826.785884 87.872107 
L 826.889449 63.899674 
L 826.988014 77.335669 
L 827.08158 111.53319 
L 827.172288 88.656073 
L 827.26014 88.785404 
L 827.343706 89.364996 
L 827.4237 64.374684 
L 827.497981 162.688166 
L 827.572262 89.866351 
L 827.643686 101.427853 
L 827.712253 102.395436 
L 827.712253 102.395436 
" clip-path="url(#p6339f4f3c0)" style="fill: none; stroke: #0000ff; stroke-width: 1.5; stroke-linecap: square"/>
   </g>
   <g id="line2d_25">
    <path d="M 130.489736 300.529658 
L 142.164703 198.065627 
L 152.813307 199.318216 
L 162.837665 167.137292 
L 172.449193 156.702242 
L 181.651461 171.259101 
L 190.53375 176.46026 
L 199.161055 129.345663 
L 207.471951 122.741029 
L 215.427156 118.605648 
L 223.195945 111.359153 
L 230.677609 116.54674 
L 237.926431 111.605838 
L 245.020977 97.373104 
L 251.943391 136.260849 
L 258.643676 91.824669 
L 265.149688 127.325873 
L 271.549993 72.236697 
L 277.835305 62.208 
L 284.043479 81.360081 
L 289.821681 116.553127 
L 295.410609 70.914652 
L 301.188096 72.778767 
L 306.871304 92.883262 
L 312.444518 62.208 
L 317.88417 99.774499 
L 323.265969 62.208 
L 328.495634 87.112092 
L 333.657446 62.208 
L 338.579988 115.801892 
L 343.5311 62.208 
L 348.448643 122.072023 
L 353.266191 111.799834 
L 357.970176 62.208 
L 362.574167 98.995323 
L 367.105306 65.863581 
L 371.592876 85.731769 
L 375.896172 62.208 
L 380.153042 75.652777 
L 384.407055 62.208 
L 388.588931 62.208 
L 392.74795 80.725404 
L 396.786263 62.208 
L 400.758866 62.208 
L 404.670758 78.358337 
L 408.596221 62.208 
L 412.377408 97.999798 
L 416.117169 87.896057 
L 419.831931 62.208 
L 423.455985 64.21821 
L 427.07361 84.412119 
L 430.54196 96.604307 
L 434.017452 72.145687 
L 437.466516 114.07589 
L 440.829158 135.312426 
L 444.108234 62.208 
L 447.378739 63.375167 
L 450.615675 104.333796 
L 453.829755 92.142407 
L 456.899558 113.45718 
L 459.993646 62.208 
L 463.048451 81.545295 
L 466.043973 62.208 
L 468.993784 70.931417 
L 471.882885 62.208 
L 474.731274 79.05289 
L 477.495383 62.208 
L 480.241636 62.208 
L 482.952891 71.110245 
L 485.619149 62.208 
L 493.312228 62.208 
L 495.743501 70.271194 
L 498.156204 62.208 
L 502.963753 62.208 
L 505.334316 92.099297 
L 507.702021 71.300249 
L 509.992589 80.941753 
L 512.308869 70.378969 
L 514.628721 80.794859 
L 516.910003 62.208 
L 519.142717 90.401236 
L 521.354719 110.206355 
L 523.569577 88.652082 
L 525.725868 69.709165 
L 527.892157 62.208 
L 529.992737 79.622902 
L 532.120458 80.953728 
L 534.19104 62.208 
L 536.271621 68.732002 
L 538.361487 78.795825 
L 540.4035 68.975494 
L 542.398372 68.253799 
L 544.403244 62.208 
L 546.342405 62.208 
L 548.308708 78.540358 
L 550.243584 63.602693 
L 552.149176 62.208 
L 554.047626 78.295269 
L 555.905364 101.509283 
L 557.782387 62.208 
L 559.671552 62.208 
L 561.533576 67.591978 
L 563.389171 89.011333 
L 565.224054 62.208 
L 567.041795 88.885994 
L 568.842394 62.208 
L 572.378596 77.5608 
L 574.144197 62.208 
L 581.056612 62.208 
L 582.752932 78.909189 
L 584.473536 62.208 
L 586.196997 62.208 
L 587.870461 68.0614 
L 589.556782 62.208 
L 596.010655 62.208 
L 597.615552 69.281257 
L 599.186166 62.208 
L 603.888008 62.208 
L 605.412196 71.063143 
L 606.971382 70.06203 
L 608.467 62.208 
L 609.959762 62.208 
L 611.484664 80.126652 
L 612.99671 62.208 
L 614.478044 62.208 
L 615.967949 70.793305 
L 617.395715 62.208 
L 620.312671 62.208 
L 621.766149 81.410376 
L 623.205343 62.208 
L 624.653821 62.208 
L 626.0973 81.60038 
L 627.537208 62.208 
L 628.965688 71.168523 
L 630.401311 62.208 
L 636.020951 62.208 
L 637.431575 102.03858 
L 638.820058 62.208 
L 640.207112 62.208 
L 641.562025 92.460144 
L 642.92908 62.208 
L 644.276851 62.208 
L 645.625336 92.859312 
L 646.959537 71.310627 
L 648.29088 62.208 
L 650.932854 62.208 
L 652.239913 94.192534 
L 653.559828 62.208 
L 654.861888 72.393969 
L 656.141092 62.208 
L 658.711642 62.208 
L 659.997274 72.516913 
L 661.287191 62.496998 
L 662.562109 92.549558 
L 663.814886 72.935241 
L 665.066949 72.469013 
L 666.305441 62.208 
L 667.520364 62.208 
L 668.760284 72.312539 
L 669.990205 62.208 
L 671.200128 62.208 
L 672.370767 71.785637 
L 673.539264 73.543573 
L 674.731331 73.561136 
L 675.898399 62.208 
L 677.061896 62.695783 
L 678.240392 83.718365 
L 679.41246 62.849862 
L 680.577385 62.208 
L 681.725883 125.522431 
L 682.857953 62.208 
L 683.990738 83.746307 
L 685.109952 63.477354 
L 686.228452 62.79797 
L 687.314097 85.632775 
L 688.417597 62.208 
L 689.527526 62.996756 
L 690.623171 62.208 
L 694.903611 62.208 
L 695.974971 84.65641 
L 697.025618 62.208 
L 698.059837 94.352201 
L 699.077629 62.208 
L 702.176717 62.208 
L 703.195223 74.08724 
L 704.210158 62.884191 
L 705.195095 74.907929 
L 706.197888 63.125288 
L 707.184968 62.208 
L 708.174904 63.845387 
L 709.141985 96.236274 
L 710.107638 62.208 
L 711.07829 84.074423 
L 712.0318 62.208 
L 712.992453 84.498339 
L 713.947392 71.686643 
L 714.888046 73.517228 
L 715.822272 62.208 
L 718.393536 62.208 
L 719.079206 103.145872 
L 719.76702 62.208 
L 720.449119 83.684037 
L 721.122647 64.813769 
L 721.789747 64.733137 
L 722.450419 65.58097 
L 723.766764 104.291484 
L 724.422436 84.724269 
L 725.070252 84.712294 
L 725.710925 84.863977 
L 726.35017 113.541803 
L 726.978701 94.999651 
L 727.605089 62.208 
L 728.221478 62.208 
L 728.84001 74.870407 
L 729.454971 94.159003 
L 730.067789 94.50628 
L 730.674179 62.208 
L 731.276997 93.644875 
L 731.883387 94.186945 
L 732.482634 84.345857 
L 733.081882 64.790617 
L 733.673272 103.810886 
L 734.266092 75.327854 
L 734.853197 85.109865 
L 735.433874 103.336674 
L 736.017408 74.833684 
L 736.5938 84.797715 
L 737.16662 123.763697 
L 737.732298 73.890051 
L 738.297262 94.323461 
L 739.412905 76.57246 
L 739.960013 62.208 
L 740.516406 93.965806 
L 741.058514 84.356236 
L 741.601336 83.933916 
L 742.141302 84.06165 
L 743.020531 68.328842 
L 743.265516 103.901896 
L 743.985469 102.785822 
L 744.224026 102.840907 
L 744.462582 102.492833 
L 744.698281 102.355519 
L 744.931123 102.015428 
L 745.015404 101.68811 
L 745.015404 101.68811 
" clip-path="url(#p6339f4f3c0)" style="fill: none; stroke: #9467bd; stroke-width: 1.5; stroke-linecap: square"/>
   </g>
   <g id="line2d_26">
    <path d="M 115.972093 487.096789 
L 119.871844 394.45788 
L 131.646804 302.83605 
L 141.444035 256.292263 
L 150.165619 190.297818 
L 158.762212 216.683621 
L 166.734559 203.905455 
L 174.525489 133.499405 
L 182.070006 195.153297 
L 189.491674 188.54068 
L 203.472207 157.436711 
L 210.263916 153.224691 
L 216.815639 144.914811 
L 223.214515 113.213687 
L 229.484828 159.668061 
L 235.635149 126.678422 
L 241.541199 113.172972 
L 247.367255 108.412494 
L 253.067604 96.881329 
L 258.545111 96.53565 
L 264.019761 142.257949 
L 269.167288 128.376483 
L 274.497661 127.637224 
L 279.686615 125.526423 
L 284.706294 102.740317 
L 289.731686 132.516653 
L 294.472812 86.521323 
L 299.131799 107.206209 
L 303.862925 62.208 
L 308.57548 114.293037 
L 313.29375 122.280389 
L 317.847744 121.456506 
L 322.281032 87.686095 
L 326.736461 97.626177 
L 331.150464 86.62351 
L 335.499471 95.078686 
L 339.657777 72.204763 
L 343.928932 62.208 
L 348.135091 80.974484 
L 352.100552 67.604751 
L 356.125294 109.829541 
L 360.144323 108.165809 
L 364.064072 107.802566 
L 368.037389 85.718197 
L 371.957138 64.951881 
L 375.748324 62.208 
L 379.545938 62.23195 
L 383.319982 71.526976 
L 387.006889 69.506388 
L 390.610944 69.27008 
L 394.263567 62.208 
L 397.834767 68.354389 
L 401.328829 62.208 
L 404.821463 62.208 
L 408.231245 96.434261 
L 411.668168 95.944083 
L 415.056522 64.052156 
L 418.312742 63.176382 
L 421.642529 62.772424 
L 424.827325 82.576745 
L 428.109258 62.208 
L 431.31191 70.761372 
L 434.444567 111.599452 
L 437.510085 82.876919 
L 440.603459 62.208 
L 443.631122 62.208 
L 446.6545 78.623385 
L 449.522173 77.20554 
L 452.39199 87.930386 
L 455.336087 97.054568 
L 458.216617 62.208 
L 461.142858 75.608868 
L 464.056243 95.56647 
L 466.873206 85.305457 
L 472.464276 62.208 
L 475.249812 62.208 
L 477.941069 73.075748 
L 480.685893 62.208 
L 483.381435 113.119483 
L 486.021266 71.556515 
L 488.569674 82.403506 
L 491.191649 62.208 
L 493.822195 91.348062 
L 496.443456 62.208 
L 498.998292 69.507186 
L 501.548844 62.208 
L 504.067254 62.208 
L 506.562094 80.429221 
L 509.055506 62.208 
L 521.409715 62.208 
L 523.85813 65.304745 
L 526.254405 67.362057 
L 528.685678 77.958371 
L 531.079096 62.208 
L 535.707372 62.208 
L 538.085791 66.079131 
L 540.448497 66.664312 
L 542.769062 62.208 
L 545.10177 76.885407 
L 547.331628 98.668803 
L 549.59934 62.208 
L 554.145477 62.208 
L 556.391762 66.22363 
L 558.562337 65.873161 
L 560.815764 62.208 
L 574.0992 62.208 
L 576.322629 64.631748 
L 578.471063 87.02188 
L 580.594499 65.363822 
L 582.74079 62.208 
L 584.890652 62.208 
L 587.077655 76.058331 
L 589.263229 62.208 
L 591.43809 64.820954 
L 593.565097 62.208 
L 606.294996 62.208 
L 608.397005 65.499539 
L 610.480443 62.208 
L 616.676475 62.208 
L 618.530642 74.386616 
L 620.374095 62.208 
L 622.214692 84.419304 
L 624.090286 62.208 
L 625.946596 85.036418 
L 627.807191 62.972806 
L 629.630646 62.208 
L 631.479813 83.690423 
L 633.349693 62.208 
L 635.174577 62.208 
L 637.014459 63.092556 
L 638.857912 62.208 
L 640.699937 62.208 
L 642.519821 64.154343 
L 644.312563 97.262135 
L 646.11959 62.208 
L 647.898762 75.322265 
L 649.713646 84.846414 
L 651.516388 62.208 
L 653.23842 64.691623 
L 655.029734 62.208 
L 660.237972 62.208 
L 661.97929 73.008688 
L 663.709893 62.208 
L 665.426926 64.738725 
L 667.15753 68.024676 
L 668.850278 62.338129 
L 670.578025 62.208 
L 674.009948 62.208 
L 675.6577 110.629473 
L 677.359734 65.992911 
L 679.030341 87.895259 
L 680.703091 66.206067 
L 682.373699 62.208 
L 684.037164 66.546956 
L 685.652774 78.63057 
L 687.275528 66.81839 
L 688.912566 62.208 
L 695.404293 62.208 
L 696.964193 78.64973 
L 698.531236 62.208 
L 700.100421 90.336571 
L 701.663892 67.661433 
L 703.238077 62.208 
L 704.785121 78.489264 
L 706.337165 62.208 
L 707.885637 90.805194 
L 709.423396 62.208 
L 710.947584 62.208 
L 712.466058 69.298022 
L 713.970248 69.348317 
L 715.468723 80.754144 
L 716.910774 62.208 
L 718.342825 69.717148 
L 719.802017 80.130643 
L 721.229783 69.81215 
L 722.680404 102.505606 
L 724.093885 62.208 
L 725.465226 62.208 
L 726.871565 82.378757 
L 728.263619 62.208 
L 729.645673 70.826037 
L 731.009157 82.417078 
L 732.36407 62.208 
L 733.711841 62.208 
L 735.043899 82.789102 
L 736.385242 62.208 
L 738.995075 62.208 
L 740.274993 107.230957 
L 741.565624 72.260647 
L 742.859113 62.208 
L 744.133317 62.208 
L 745.359667 84.59414 
L 746.585303 86.007194 
L 747.805225 97.500838 
L 749.013005 62.208 
L 750.160788 73.868496 
L 751.336428 62.208 
L 752.469926 62.208 
L 753.656993 62.508174 
L 754.810491 85.911394 
L 755.973274 68.812634 
L 757.147484 110.263836 
L 758.342408 62.208 
L 763.002109 62.208 
L 764.137751 65.068438 
L 765.259108 109.10066 
L 766.339753 62.208 
L 767.418255 76.276277 
L 768.500329 62.208 
L 769.547405 77.397939 
L 770.618765 77.731644 
L 771.650127 77.822654 
L 772.69506 112.490395 
L 773.689283 70.255227 
L 774.679933 62.208 
L 775.847716 74.887172 
L 776.161981 62.208 
L 776.522673 62.208 
L 776.575526 73.111673 
L 776.714803 73.473319 
L 776.875507 70.060433 
L 776.931932 76.791204 
L 777.06121 70.081988 
L 777.205486 69.290837 
L 777.30048 72.579183 
L 777.424044 62.208 
L 777.602604 70.050853 
L 777.619745 103.766179 
L 777.721882 99.287514 
L 777.813304 109.454323 
L 777.771164 87.139235 
L 777.825446 105.391591 
L 777.861158 93.406971 
L 777.917583 109.209234 
L 777.934725 105.728489 
L 777.974008 113.308689 
L 777.979722 92.019463 
L 777.997578 101.909249 
L 777.998292 91.478989 
L 778.023291 105.57441 
L 778.041147 99.26516 
" clip-path="url(#p6339f4f3c0)" style="fill: none; stroke: #ff7f0e; stroke-width: 1.5; stroke-linecap: square"/>
   </g>
   <g id="patch_3">
    <path d="M 115.2 461.376 
L 115.2 62.208 
" style="fill: none; stroke: #000000; stroke-width: 0.8; stroke-linejoin: miter; stroke-linecap: square"/>
   </g>
   <g id="patch_4">
    <path d="M 829.44 461.376 
L 829.44 62.208 
" style="fill: none; stroke: #000000; stroke-width: 0.8; stroke-linejoin: miter; stroke-linecap: square"/>
   </g>
   <g id="patch_5">
    <path d="M 115.2 461.376 
L 829.44 461.376 
" style="fill: none; stroke: #000000; stroke-width: 0.8; stroke-linejoin: miter; stroke-linecap: square"/>
   </g>
   <g id="patch_6">
    <path d="M 115.2 62.208 
L 829.44 62.208 
" style="fill: none; stroke: #000000; stroke-width: 0.8; stroke-linejoin: miter; stroke-linecap: square"/>
   </g>
   <g id="legend_1">
    <g id="patch_7">
     <path d="M 681.45375 451.876 
L 816.14 451.876 
Q 819.94 451.876 819.94 448.076 
L 819.94 342.519125 
Q 819.94 338.719125 816.14 338.719125 
L 681.45375 338.719125 
Q 677.65375 338.719125 677.65375 342.519125 
L 677.65375 448.076 
Q 677.65375 451.876 681.45375 451.876 
z
" style="fill: #ffffff; opacity: 0.8; stroke: #cccccc; stroke-linejoin: miter"/>
    </g>
    <g id="line2d_27">
     <path d="M 685.25375 352.969125 
L 704.25375 352.969125 
L 723.25375 352.969125 
" style="fill: none; stroke: #ff0000; stroke-width: 1.5; stroke-linecap: square"/>
    </g>
    <g id="text_25">
     <!-- MemC3-t -->
     <g transform="translate(738.45375 359.619125) scale(0.19 -0.19)">
      <defs>
       <path id="TimesNewRomanPSMT-4d" d="M 2619 0 
L 981 3566 
L 981 734 
Q 981 344 1066 247 
Q 1181 116 1431 116 
L 1581 116 
L 1581 0 
L 106 0 
L 106 116 
L 256 116 
Q 525 116 638 278 
Q 706 378 706 734 
L 706 3503 
Q 706 3784 644 3909 
Q 600 4000 483 4061 
Q 366 4122 106 4122 
L 106 4238 
L 1306 4238 
L 2844 922 
L 4356 4238 
L 5556 4238 
L 5556 4122 
L 5409 4122 
Q 5138 4122 5025 3959 
Q 4956 3859 4956 3503 
L 4956 734 
Q 4956 344 5044 247 
Q 5159 116 5409 116 
L 5556 116 
L 5556 0 
L 3756 0 
L 3756 116 
L 3906 116 
Q 4178 116 4288 278 
Q 4356 378 4356 734 
L 4356 3566 
L 2722 0 
L 2619 0 
z
" transform="scale(0.015625)"/>
       <path id="TimesNewRomanPSMT-65" d="M 681 1784 
Q 678 1147 991 784 
Q 1303 422 1725 422 
Q 2006 422 2214 576 
Q 2422 731 2563 1106 
L 2659 1044 
Q 2594 616 2278 264 
Q 1963 -88 1488 -88 
Q 972 -88 605 314 
Q 238 716 238 1394 
Q 238 2128 614 2539 
Q 991 2950 1559 2950 
Q 2041 2950 2350 2633 
Q 2659 2316 2659 1784 
L 681 1784 
z
M 681 1966 
L 2006 1966 
Q 1991 2241 1941 2353 
Q 1863 2528 1708 2628 
Q 1553 2728 1384 2728 
Q 1125 2728 920 2526 
Q 716 2325 681 1966 
z
" transform="scale(0.015625)"/>
       <path id="TimesNewRomanPSMT-6d" d="M 1050 2338 
Q 1363 2650 1419 2697 
Q 1559 2816 1721 2881 
Q 1884 2947 2044 2947 
Q 2313 2947 2506 2790 
Q 2700 2634 2766 2338 
Q 3088 2713 3309 2830 
Q 3531 2947 3766 2947 
Q 3994 2947 4170 2830 
Q 4347 2713 4450 2447 
Q 4519 2266 4519 1878 
L 4519 647 
Q 4519 378 4559 278 
Q 4591 209 4675 161 
Q 4759 113 4950 113 
L 4950 0 
L 3538 0 
L 3538 113 
L 3597 113 
Q 3781 113 3884 184 
Q 3956 234 3988 344 
Q 4000 397 4000 647 
L 4000 1878 
Q 4000 2228 3916 2372 
Q 3794 2572 3525 2572 
Q 3359 2572 3192 2489 
Q 3025 2406 2788 2181 
L 2781 2147 
L 2788 2013 
L 2788 647 
Q 2788 353 2820 281 
Q 2853 209 2943 161 
Q 3034 113 3253 113 
L 3253 0 
L 1806 0 
L 1806 113 
Q 2044 113 2133 169 
Q 2222 225 2256 338 
Q 2272 391 2272 647 
L 2272 1878 
Q 2272 2228 2169 2381 
Q 2031 2581 1784 2581 
Q 1616 2581 1450 2491 
Q 1191 2353 1050 2181 
L 1050 647 
Q 1050 366 1089 281 
Q 1128 197 1204 155 
Q 1281 113 1516 113 
L 1516 0 
L 100 0 
L 100 113 
Q 297 113 375 155 
Q 453 197 493 289 
Q 534 381 534 647 
L 534 1741 
Q 534 2213 506 2350 
Q 484 2453 437 2492 
Q 391 2531 309 2531 
Q 222 2531 100 2484 
L 53 2597 
L 916 2947 
L 1050 2947 
L 1050 2338 
z
" transform="scale(0.015625)"/>
       <path id="TimesNewRomanPSMT-43" d="M 3853 4334 
L 3950 2894 
L 3853 2894 
Q 3659 3541 3300 3825 
Q 2941 4109 2438 4109 
Q 2016 4109 1675 3895 
Q 1334 3681 1139 3212 
Q 944 2744 944 2047 
Q 944 1472 1128 1050 
Q 1313 628 1683 403 
Q 2053 178 2528 178 
Q 2941 178 3256 354 
Q 3572 531 3950 1056 
L 4047 994 
Q 3728 428 3303 165 
Q 2878 -97 2294 -97 
Q 1241 -97 663 684 
Q 231 1266 231 2053 
Q 231 2688 515 3219 
Q 800 3750 1298 4042 
Q 1797 4334 2388 4334 
Q 2847 4334 3294 4109 
Q 3425 4041 3481 4041 
Q 3566 4041 3628 4100 
Q 3709 4184 3744 4334 
L 3853 4334 
z
" transform="scale(0.015625)"/>
       <path id="TimesNewRomanPSMT-33" d="M 325 3431 
Q 506 3859 782 4092 
Q 1059 4325 1472 4325 
Q 1981 4325 2253 3994 
Q 2459 3747 2459 3466 
Q 2459 3003 1878 2509 
Q 2269 2356 2469 2072 
Q 2669 1788 2669 1403 
Q 2669 853 2319 450 
Q 1863 -75 997 -75 
Q 569 -75 414 31 
Q 259 138 259 259 
Q 259 350 332 419 
Q 406 488 509 488 
Q 588 488 669 463 
Q 722 447 909 348 
Q 1097 250 1169 231 
Q 1284 197 1416 197 
Q 1734 197 1970 444 
Q 2206 691 2206 1028 
Q 2206 1275 2097 1509 
Q 2016 1684 1919 1775 
Q 1784 1900 1550 2001 
Q 1316 2103 1072 2103 
L 972 2103 
L 972 2197 
Q 1219 2228 1467 2375 
Q 1716 2522 1828 2728 
Q 1941 2934 1941 3181 
Q 1941 3503 1739 3701 
Q 1538 3900 1238 3900 
Q 753 3900 428 3381 
L 325 3431 
z
" transform="scale(0.015625)"/>
       <path id="TimesNewRomanPSMT-2d" d="M 259 1672 
L 1875 1672 
L 1875 1200 
L 259 1200 
L 259 1672 
z
" transform="scale(0.015625)"/>
       <path id="TimesNewRomanPSMT-74" d="M 1031 3803 
L 1031 2863 
L 1700 2863 
L 1700 2644 
L 1031 2644 
L 1031 788 
Q 1031 509 1111 412 
Q 1191 316 1316 316 
Q 1419 316 1516 380 
Q 1613 444 1666 569 
L 1788 569 
Q 1678 263 1478 108 
Q 1278 -47 1066 -47 
Q 922 -47 784 33 
Q 647 113 581 261 
Q 516 409 516 719 
L 516 2644 
L 63 2644 
L 63 2747 
Q 234 2816 414 2980 
Q 594 3144 734 3369 
Q 806 3488 934 3803 
L 1031 3803 
z
" transform="scale(0.015625)"/>
      </defs>
      <use xlink:href="#TimesNewRomanPSMT-4d"/>
      <use xlink:href="#TimesNewRomanPSMT-65" x="88.916016"/>
      <use xlink:href="#TimesNewRomanPSMT-6d" x="133.300781"/>
      <use xlink:href="#TimesNewRomanPSMT-43" x="211.083984"/>
      <use xlink:href="#TimesNewRomanPSMT-33" x="277.783203"/>
      <use xlink:href="#TimesNewRomanPSMT-2d" x="327.783203"/>
      <use xlink:href="#TimesNewRomanPSMT-74" x="361.083984"/>
     </g>
    </g>
    <g id="line2d_28">
     <path d="M 685.25375 379.833344 
L 704.25375 379.833344 
L 723.25375 379.833344 
" style="fill: none; stroke: #0000ff; stroke-width: 1.5; stroke-linecap: square"/>
    </g>
    <g id="text_26">
     <!-- caleKV -->
     <g transform="translate(738.45375 386.483344) scale(0.19 -0.19)">
      <defs>
       <path id="TimesNewRomanPSMT-63" d="M 2631 1088 
Q 2516 522 2178 217 
Q 1841 -88 1431 -88 
Q 944 -88 581 321 
Q 219 731 219 1428 
Q 219 2103 620 2525 
Q 1022 2947 1584 2947 
Q 2006 2947 2278 2723 
Q 2550 2500 2550 2259 
Q 2550 2141 2473 2067 
Q 2397 1994 2259 1994 
Q 2075 1994 1981 2113 
Q 1928 2178 1911 2362 
Q 1894 2547 1784 2644 
Q 1675 2738 1481 2738 
Q 1169 2738 978 2506 
Q 725 2200 725 1697 
Q 725 1184 976 792 
Q 1228 400 1656 400 
Q 1963 400 2206 609 
Q 2378 753 2541 1131 
L 2631 1088 
z
" transform="scale(0.015625)"/>
       <path id="TimesNewRomanPSMT-61" d="M 1822 413 
Q 1381 72 1269 19 
Q 1100 -59 909 -59 
Q 613 -59 420 144 
Q 228 347 228 678 
Q 228 888 322 1041 
Q 450 1253 767 1440 
Q 1084 1628 1822 1897 
L 1822 2009 
Q 1822 2438 1686 2597 
Q 1550 2756 1291 2756 
Q 1094 2756 978 2650 
Q 859 2544 859 2406 
L 866 2225 
Q 866 2081 792 2003 
Q 719 1925 600 1925 
Q 484 1925 411 2006 
Q 338 2088 338 2228 
Q 338 2497 613 2722 
Q 888 2947 1384 2947 
Q 1766 2947 2009 2819 
Q 2194 2722 2281 2516 
Q 2338 2381 2338 1966 
L 2338 994 
Q 2338 584 2353 492 
Q 2369 400 2405 369 
Q 2441 338 2488 338 
Q 2538 338 2575 359 
Q 2641 400 2828 588 
L 2828 413 
Q 2478 -56 2159 -56 
Q 2006 -56 1915 50 
Q 1825 156 1822 413 
z
M 1822 616 
L 1822 1706 
Q 1350 1519 1213 1441 
Q 966 1303 859 1153 
Q 753 1003 753 825 
Q 753 600 887 451 
Q 1022 303 1197 303 
Q 1434 303 1822 616 
z
" transform="scale(0.015625)"/>
       <path id="TimesNewRomanPSMT-6c" d="M 1184 4444 
L 1184 647 
Q 1184 378 1223 290 
Q 1263 203 1344 158 
Q 1425 113 1647 113 
L 1647 0 
L 244 0 
L 244 113 
Q 441 113 512 153 
Q 584 194 625 287 
Q 666 381 666 647 
L 666 3247 
Q 666 3731 644 3842 
Q 622 3953 573 3993 
Q 525 4034 450 4034 
Q 369 4034 244 3984 
L 191 4094 
L 1044 4444 
L 1184 4444 
z
" transform="scale(0.015625)"/>
       <path id="TimesNewRomanPSMT-4b" d="M 1913 2350 
L 3475 797 
Q 3859 413 4131 273 
Q 4403 134 4675 116 
L 4675 0 
L 2659 0 
L 2659 116 
Q 2841 116 2920 177 
Q 3000 238 3000 313 
Q 3000 388 2970 447 
Q 2941 506 2775 669 
L 1313 2116 
L 1313 750 
Q 1313 428 1353 325 
Q 1384 247 1484 191 
Q 1619 116 1769 116 
L 1913 116 
L 1913 0 
L 106 0 
L 106 116 
L 256 116 
Q 519 116 638 269 
Q 713 369 713 750 
L 713 3488 
Q 713 3809 672 3916 
Q 641 3991 544 4047 
Q 406 4122 256 4122 
L 106 4122 
L 106 4238 
L 1913 4238 
L 1913 4122 
L 1769 4122 
Q 1622 4122 1484 4050 
Q 1388 4000 1350 3900 
Q 1313 3800 1313 3488 
L 1313 2191 
Q 1375 2250 1741 2588 
Q 2669 3438 2863 3722 
Q 2947 3847 2947 3941 
Q 2947 4013 2881 4067 
Q 2816 4122 2659 4122 
L 2563 4122 
L 2563 4238 
L 4119 4238 
L 4119 4122 
Q 3981 4119 3868 4084 
Q 3756 4050 3593 3951 
Q 3431 3853 3194 3634 
Q 3125 3572 2559 2994 
L 1913 2350 
z
" transform="scale(0.015625)"/>
       <path id="TimesNewRomanPSMT-56" d="M 4544 4238 
L 4544 4122 
Q 4319 4081 4203 3978 
Q 4038 3825 3909 3509 
L 2431 -97 
L 2316 -97 
L 728 3556 
Q 606 3838 556 3900 
Q 478 3997 364 4051 
Q 250 4106 56 4122 
L 56 4238 
L 1788 4238 
L 1788 4122 
Q 1494 4094 1406 4022 
Q 1319 3950 1319 3838 
Q 1319 3681 1463 3350 
L 2541 866 
L 3541 3319 
Q 3688 3681 3688 3822 
Q 3688 3913 3597 3995 
Q 3506 4078 3291 4113 
Q 3275 4116 3238 4122 
L 3238 4238 
L 4544 4238 
z
" transform="scale(0.015625)"/>
      </defs>
      <use xlink:href="#TimesNewRomanPSMT-63"/>
      <use xlink:href="#TimesNewRomanPSMT-61" x="44.384766"/>
      <use xlink:href="#TimesNewRomanPSMT-6c" x="88.769531"/>
      <use xlink:href="#TimesNewRomanPSMT-65" x="116.552734"/>
      <use xlink:href="#TimesNewRomanPSMT-4b" x="160.9375"/>
      <use xlink:href="#TimesNewRomanPSMT-56" x="233.154297"/>
     </g>
    </g>
    <g id="line2d_29">
     <path d="M 685.25375 406.697563 
L 704.25375 406.697563 
L 723.25375 406.697563 
" style="fill: none; stroke: #9467bd; stroke-width: 1.5; stroke-linecap: square"/>
    </g>
    <g id="text_27">
     <!-- MICA-t -->
     <g transform="translate(738.45375 413.347562) scale(0.19 -0.19)">
      <defs>
       <path id="TimesNewRomanPSMT-49" d="M 1975 116 
L 1975 0 
L 159 0 
L 159 116 
L 309 116 
Q 572 116 691 269 
Q 766 369 766 750 
L 766 3488 
Q 766 3809 725 3913 
Q 694 3991 597 4047 
Q 459 4122 309 4122 
L 159 4122 
L 159 4238 
L 1975 4238 
L 1975 4122 
L 1822 4122 
Q 1563 4122 1444 3969 
Q 1366 3869 1366 3488 
L 1366 750 
Q 1366 428 1406 325 
Q 1438 247 1538 191 
Q 1672 116 1822 116 
L 1975 116 
z
" transform="scale(0.015625)"/>
       <path id="TimesNewRomanPSMT-41" d="M 2928 1419 
L 1288 1419 
L 1000 750 
Q 894 503 894 381 
Q 894 284 986 211 
Q 1078 138 1384 116 
L 1384 0 
L 50 0 
L 50 116 
Q 316 163 394 238 
Q 553 388 747 847 
L 2238 4334 
L 2347 4334 
L 3822 809 
Q 4000 384 4145 257 
Q 4291 131 4550 116 
L 4550 0 
L 2878 0 
L 2878 116 
Q 3131 128 3220 200 
Q 3309 272 3309 375 
Q 3309 513 3184 809 
L 2928 1419 
z
M 2841 1650 
L 2122 3363 
L 1384 1650 
L 2841 1650 
z
" transform="scale(0.015625)"/>
      </defs>
      <use xlink:href="#TimesNewRomanPSMT-4d"/>
      <use xlink:href="#TimesNewRomanPSMT-49" x="88.916016"/>
      <use xlink:href="#TimesNewRomanPSMT-43" x="122.216797"/>
      <use xlink:href="#TimesNewRomanPSMT-41" x="188.916016"/>
      <use xlink:href="#TimesNewRomanPSMT-2d" x="261.132812"/>
      <use xlink:href="#TimesNewRomanPSMT-74" x="294.433594"/>
     </g>
    </g>
    <g id="line2d_30">
     <path d="M 685.25375 433.561781 
L 704.25375 433.561781 
L 723.25375 433.561781 
" style="fill: none; stroke: #ff7f0e; stroke-width: 1.5; stroke-linecap: square"/>
    </g>
    <g id="text_28">
     <!-- caleKV -->
     <g transform="translate(738.45375 440.211781) scale(0.19 -0.19)">
      <use xlink:href="#TimesNewRomanPSMT-63"/>
      <use xlink:href="#TimesNewRomanPSMT-61" x="44.384766"/>
      <use xlink:href="#TimesNewRomanPSMT-6c" x="88.769531"/>
      <use xlink:href="#TimesNewRomanPSMT-65" x="116.552734"/>
      <use xlink:href="#TimesNewRomanPSMT-4b" x="160.9375"/>
      <use xlink:href="#TimesNewRomanPSMT-56" x="233.154297"/>
     </g>
    </g>
   </g>
  </g>
 </g>
 <defs>
  <clipPath id="p6339f4f3c0">
   <rect x="115.2" y="62.208" width="714.24" height="399.168"/>
  </clipPath>
 </defs>
</svg>
