<?xml version="1.0" encoding="utf-8" standalone="no"?>
<!DOCTYPE svg PUBLIC "-//W3C//DTD SVG 1.1//EN"
  "http://www.w3.org/Graphics/SVG/1.1/DTD/svg11.dtd">
<svg xmlns:xlink="http://www.w3.org/1999/xlink" width="921.6pt" height="518.4pt" viewBox="0 0 921.6 518.4" xmlns="http://www.w3.org/2000/svg" version="1.1">
 <metadata>
  <rdf:RDF xmlns:dc="http://purl.org/dc/elements/1.1/" xmlns:cc="http://creativecommons.org/ns#" xmlns:rdf="http://www.w3.org/1999/02/22-rdf-syntax-ns#">
   <cc:Work>
    <dc:type rdf:resource="http://purl.org/dc/dcmitype/StillImage"/>
    <dc:date>2023-08-26T17:29:49.679615</dc:date>
    <dc:format>image/svg+xml</dc:format>
    <dc:creator>
     <cc:Agent>
      <dc:title>Matplotlib v3.7.1, https://matplotlib.org/</dc:title>
     </cc:Agent>
    </dc:creator>
   </cc:Work>
  </rdf:RDF>
 </metadata>
 <defs>
  <style type="text/css">*{stroke-linejoin: round; stroke-linecap: butt}</style>
 </defs>
 <g id="figure_1">
  <g id="patch_1">
   <path d="M 0 518.4 
L 921.6 518.4 
L 921.6 0 
L 0 0 
z
" style="fill: #ffffff"/>
  </g>
  <g id="axes_1">
   <g id="patch_2">
    <path d="M 115.2 461.376 
L 829.44 461.376 
L 829.44 62.208 
L 115.2 62.208 
z
" style="fill: #ffffff"/>
   </g>
   <g id="matplotlib.axis_1">
    <g id="xtick_1">
     <g id="line2d_1">
      <defs>
       <path id="m6a987c6538" d="M 0 0 
L 0 3.5 
" style="stroke: #000000; stroke-width: 0.8"/>
      </defs>
      <g>
       <use xlink:href="#m6a987c6538" x="115.2" y="461.376" style="stroke: #000000; stroke-width: 0.8"/>
      </g>
     </g>
     <g id="text_1">
      <!-- 0 -->
      <g transform="translate(110.45 481.958031) scale(0.19 -0.19)">
       <defs>
        <path id="SimSun-30" d="M 1600 4225 
Q 1250 4225 1012 3687 
Q 775 3150 775 2250 
Q 775 1300 1012 775 
Q 1250 250 1600 250 
Q 1975 250 2187 775 
Q 2400 1300 2400 2250 
Q 2400 3150 2200 3687 
Q 2000 4225 1600 4225 
z
M 1600 50 
Q 1050 50 675 625 
Q 300 1200 300 2250 
Q 300 3225 662 3825 
Q 1025 4425 1600 4425 
Q 2150 4425 2512 3850 
Q 2875 3275 2875 2250 
Q 2875 1225 2512 637 
Q 2150 50 1600 50 
z
" transform="scale(0.015625)"/>
       </defs>
       <use xlink:href="#SimSun-30"/>
      </g>
     </g>
    </g>
    <g id="xtick_2">
     <g id="line2d_2">
      <g>
       <use xlink:href="#m6a987c6538" x="186.624" y="461.376" style="stroke: #000000; stroke-width: 0.8"/>
      </g>
     </g>
     <g id="text_2">
      <!-- 10 -->
      <g transform="translate(177.124 481.958031) scale(0.19 -0.19)">
       <defs>
        <path id="SimSun-31" d="M 1825 4450 
L 1825 650 
Q 1825 450 1950 350 
Q 2075 250 2300 250 
L 2550 250 
L 2550 100 
L 725 100 
L 725 250 
L 950 250 
Q 1200 250 1312 350 
Q 1425 450 1425 650 
L 1425 3675 
Q 1425 3775 1362 3837 
Q 1300 3900 1175 3900 
L 725 3900 
L 725 4050 
L 950 4050 
Q 1250 4050 1437 4150 
Q 1625 4250 1725 4450 
L 1825 4450 
z
" transform="scale(0.015625)"/>
       </defs>
       <use xlink:href="#SimSun-31"/>
       <use xlink:href="#SimSun-30" x="50"/>
      </g>
     </g>
    </g>
    <g id="xtick_3">
     <g id="line2d_3">
      <g>
       <use xlink:href="#m6a987c6538" x="258.048" y="461.376" style="stroke: #000000; stroke-width: 0.8"/>
      </g>
     </g>
     <g id="text_3">
      <!-- 20 -->
      <g transform="translate(248.548 481.958031) scale(0.19 -0.19)">
       <defs>
        <path id="SimSun-32" d="M 2325 3325 
Q 2325 3775 2125 4012 
Q 1925 4250 1525 4250 
Q 1225 4250 1012 4087 
Q 800 3925 800 3675 
Q 800 3525 900 3425 
Q 975 3325 975 3225 
Q 975 3100 912 3037 
Q 850 2975 725 2975 
Q 575 2975 487 3062 
Q 400 3150 400 3350 
Q 400 3875 775 4150 
Q 1150 4425 1575 4425 
Q 2175 4425 2462 4125 
Q 2750 3825 2750 3375 
Q 2750 3075 2612 2775 
Q 2475 2475 2175 2200 
Q 1450 1500 1062 1062 
Q 675 625 600 475 
L 2075 475 
Q 2300 475 2450 650 
Q 2600 825 2650 1175 
L 2800 1175 
L 2650 100 
L 325 100 
L 325 425 
Q 450 650 737 1000 
Q 1025 1350 1500 1825 
Q 1925 2250 2125 2625 
Q 2325 3000 2325 3325 
z
" transform="scale(0.015625)"/>
       </defs>
       <use xlink:href="#SimSun-32"/>
       <use xlink:href="#SimSun-30" x="50"/>
      </g>
     </g>
    </g>
    <g id="xtick_4">
     <g id="line2d_4">
      <g>
       <use xlink:href="#m6a987c6538" x="329.472" y="461.376" style="stroke: #000000; stroke-width: 0.8"/>
      </g>
     </g>
     <g id="text_4">
      <!-- 30 -->
      <g transform="translate(319.972 481.958031) scale(0.19 -0.19)">
       <defs>
        <path id="SimSun-33" d="M 2800 1250 
Q 2800 775 2450 412 
Q 2100 50 1475 50 
Q 1025 50 700 300 
Q 375 550 375 875 
Q 375 1025 475 1137 
Q 575 1250 675 1250 
Q 825 1250 887 1137 
Q 950 1025 950 950 
Q 950 825 900 750 
Q 850 650 850 575 
Q 850 425 1037 325 
Q 1225 225 1450 225 
Q 1900 225 2125 487 
Q 2350 750 2350 1300 
Q 2350 1750 2112 2025 
Q 1875 2300 1225 2300 
L 1225 2475 
Q 1725 2475 1962 2712 
Q 2200 2950 2200 3375 
Q 2200 3725 2012 3987 
Q 1825 4250 1425 4250 
Q 1250 4250 1050 4162 
Q 850 4075 850 3875 
Q 850 3675 900 3625 
Q 950 3575 950 3500 
Q 950 3375 900 3300 
Q 850 3225 725 3225 
Q 625 3225 537 3300 
Q 450 3375 450 3575 
Q 450 3950 775 4187 
Q 1100 4425 1525 4425 
Q 2025 4425 2325 4112 
Q 2625 3800 2625 3450 
Q 2625 3075 2437 2812 
Q 2250 2550 1850 2425 
Q 2400 2225 2600 1900 
Q 2800 1575 2800 1250 
z
" transform="scale(0.015625)"/>
       </defs>
       <use xlink:href="#SimSun-33"/>
       <use xlink:href="#SimSun-30" x="50"/>
      </g>
     </g>
    </g>
    <g id="xtick_5">
     <g id="line2d_5">
      <g>
       <use xlink:href="#m6a987c6538" x="400.896" y="461.376" style="stroke: #000000; stroke-width: 0.8"/>
      </g>
     </g>
     <g id="text_5">
      <!-- 40 -->
      <g transform="translate(391.396 481.958031) scale(0.19 -0.19)">
       <defs>
        <path id="SimSun-34" d="M 2300 575 
Q 2300 400 2400 325 
Q 2500 250 2675 250 
L 2900 250 
L 2900 100 
L 1250 100 
L 1250 250 
L 1525 250 
Q 1725 250 1812 325 
Q 1900 400 1900 575 
L 1900 1400 
L 225 1400 
L 225 1525 
L 2050 4425 
L 2300 4425 
L 2300 1550 
L 2975 1550 
L 2975 1400 
L 2300 1400 
L 2300 575 
z
M 1875 3800 
L 450 1550 
L 1900 1550 
L 1900 3800 
L 1875 3800 
z
" transform="scale(0.015625)"/>
       </defs>
       <use xlink:href="#SimSun-34"/>
       <use xlink:href="#SimSun-30" x="50"/>
      </g>
     </g>
    </g>
    <g id="xtick_6">
     <g id="line2d_6">
      <g>
       <use xlink:href="#m6a987c6538" x="472.32" y="461.376" style="stroke: #000000; stroke-width: 0.8"/>
      </g>
     </g>
     <g id="text_6">
      <!-- 50 -->
      <g transform="translate(462.82 481.958031) scale(0.19 -0.19)">
       <defs>
        <path id="SimSun-35" d="M 1725 2850 
Q 2200 2850 2500 2487 
Q 2800 2125 2800 1525 
Q 2800 850 2487 450 
Q 2175 50 1525 50 
Q 1075 50 725 312 
Q 375 575 375 950 
Q 375 1100 462 1212 
Q 550 1325 700 1325 
Q 850 1325 900 1225 
Q 950 1125 950 1050 
Q 950 900 875 825 
Q 800 725 800 625 
Q 800 425 1037 325 
Q 1275 225 1550 225 
Q 1950 225 2162 550 
Q 2375 875 2375 1475 
Q 2375 1975 2187 2287 
Q 2000 2600 1625 2600 
Q 1350 2600 1150 2500 
Q 950 2400 775 2075 
L 550 2100 
L 675 4375 
L 2725 4375 
L 2650 4000 
L 850 4000 
L 750 2350 
Q 1000 2700 1237 2775 
Q 1475 2850 1725 2850 
z
" transform="scale(0.015625)"/>
       </defs>
       <use xlink:href="#SimSun-35"/>
       <use xlink:href="#SimSun-30" x="50"/>
      </g>
     </g>
    </g>
    <g id="xtick_7">
     <g id="line2d_7">
      <g>
       <use xlink:href="#m6a987c6538" x="543.744" y="461.376" style="stroke: #000000; stroke-width: 0.8"/>
      </g>
     </g>
     <g id="text_7">
      <!-- 60 -->
      <g transform="translate(534.244 481.958031) scale(0.19 -0.19)">
       <defs>
        <path id="SimSun-36" d="M 775 1800 
Q 775 1050 1037 637 
Q 1300 225 1675 225 
Q 2050 225 2250 500 
Q 2450 775 2450 1525 
Q 2450 2025 2237 2300 
Q 2025 2575 1725 2575 
Q 1450 2575 1212 2412 
Q 975 2250 775 1800 
z
M 1750 2825 
Q 2350 2825 2612 2425 
Q 2875 2025 2875 1525 
Q 2875 775 2512 412 
Q 2150 50 1675 50 
Q 1000 50 650 562 
Q 300 1075 300 2050 
Q 300 3200 725 3812 
Q 1150 4425 1875 4425 
Q 2225 4425 2437 4225 
Q 2650 4025 2650 3875 
Q 2650 3725 2587 3650 
Q 2525 3575 2375 3575 
Q 2250 3575 2187 3637 
Q 2125 3700 2125 3825 
Q 2125 3875 2150 3925 
Q 2150 3975 2150 4025 
Q 2150 4125 2075 4187 
Q 2000 4250 1800 4250 
Q 1375 4250 1075 3862 
Q 775 3475 775 2175 
Q 925 2500 1187 2662 
Q 1450 2825 1750 2825 
z
" transform="scale(0.015625)"/>
       </defs>
       <use xlink:href="#SimSun-36"/>
       <use xlink:href="#SimSun-30" x="50"/>
      </g>
     </g>
    </g>
    <g id="xtick_8">
     <g id="line2d_8">
      <g>
       <use xlink:href="#m6a987c6538" x="615.168" y="461.376" style="stroke: #000000; stroke-width: 0.8"/>
      </g>
     </g>
     <g id="text_8">
      <!-- 70 -->
      <g transform="translate(605.668 481.958031) scale(0.19 -0.19)">
       <defs>
        <path id="SimSun-37" d="M 2825 4200 
Q 2300 3350 1987 2537 
Q 1675 1725 1675 1125 
Q 1675 1025 1700 850 
Q 1700 650 1700 400 
Q 1700 200 1637 125 
Q 1575 50 1425 50 
Q 1300 50 1212 137 
Q 1125 225 1125 450 
Q 1125 925 1337 1625 
Q 1550 2325 2475 4000 
L 1225 4000 
Q 950 4000 787 3825 
Q 625 3650 550 3300 
L 400 3325 
L 575 4375 
L 2825 4375 
L 2825 4200 
z
" transform="scale(0.015625)"/>
       </defs>
       <use xlink:href="#SimSun-37"/>
       <use xlink:href="#SimSun-30" x="50"/>
      </g>
     </g>
    </g>
    <g id="xtick_9">
     <g id="line2d_9">
      <g>
       <use xlink:href="#m6a987c6538" x="686.592" y="461.376" style="stroke: #000000; stroke-width: 0.8"/>
      </g>
     </g>
     <g id="text_9">
      <!-- 80 -->
      <g transform="translate(677.092 481.958031) scale(0.19 -0.19)">
       <defs>
        <path id="SimSun-38" d="M 625 1125 
Q 625 725 887 475 
Q 1150 225 1550 225 
Q 2025 225 2237 475 
Q 2450 725 2450 1100 
Q 2450 1425 2150 1725 
Q 1850 2025 1250 2275 
Q 950 2075 787 1775 
Q 625 1475 625 1125 
z
M 2825 1175 
Q 2825 700 2475 375 
Q 2125 50 1550 50 
Q 1025 50 650 375 
Q 275 700 275 1125 
Q 275 1550 487 1850 
Q 700 2150 1100 2375 
Q 750 2550 562 2812 
Q 375 3075 375 3400 
Q 375 3825 700 4125 
Q 1025 4425 1600 4425 
Q 2125 4425 2450 4125 
Q 2775 3825 2775 3400 
Q 2775 3100 2587 2837 
Q 2400 2575 2000 2375 
Q 2425 2125 2625 1825 
Q 2825 1525 2825 1175 
z
M 2425 3375 
Q 2425 3725 2225 3987 
Q 2025 4250 1600 4250 
Q 1125 4250 925 4000 
Q 725 3750 725 3475 
Q 725 3200 1012 2937 
Q 1300 2675 1825 2475 
Q 2125 2625 2275 2850 
Q 2425 3075 2425 3375 
z
" transform="scale(0.015625)"/>
       </defs>
       <use xlink:href="#SimSun-38"/>
       <use xlink:href="#SimSun-30" x="50"/>
      </g>
     </g>
    </g>
    <g id="xtick_10">
     <g id="line2d_10">
      <g>
       <use xlink:href="#m6a987c6538" x="758.016" y="461.376" style="stroke: #000000; stroke-width: 0.8"/>
      </g>
     </g>
     <g id="text_10">
      <!-- 90 -->
      <g transform="translate(748.516 481.958031) scale(0.19 -0.19)">
       <defs>
        <path id="SimSun-39" d="M 700 3050 
Q 700 2500 912 2212 
Q 1125 1925 1450 1925 
Q 1825 1925 2100 2275 
Q 2375 2625 2375 2925 
Q 2375 3525 2175 3887 
Q 1975 4250 1525 4250 
Q 1100 4250 900 3912 
Q 700 3575 700 3050 
z
M 1375 1700 
Q 875 1700 575 2012 
Q 275 2325 275 3025 
Q 275 3625 600 4025 
Q 925 4425 1525 4425 
Q 2150 4425 2500 3925 
Q 2850 3425 2850 2475 
Q 2850 1425 2437 737 
Q 2025 50 1300 50 
Q 975 50 737 200 
Q 500 350 500 600 
Q 500 700 562 800 
Q 625 900 775 900 
Q 925 900 975 787 
Q 1025 675 1025 525 
Q 1025 425 1050 362 
Q 1075 300 1100 275 
Q 1125 250 1187 237 
Q 1250 225 1325 225 
Q 1775 225 2050 725 
Q 2325 1225 2375 2400 
Q 2250 2100 2000 1900 
Q 1750 1700 1375 1700 
z
" transform="scale(0.015625)"/>
       </defs>
       <use xlink:href="#SimSun-39"/>
       <use xlink:href="#SimSun-30" x="50"/>
      </g>
     </g>
    </g>
    <g id="xtick_11">
     <g id="line2d_11">
      <g>
       <use xlink:href="#m6a987c6538" x="829.44" y="461.376" style="stroke: #000000; stroke-width: 0.8"/>
      </g>
     </g>
     <g id="text_11">
      <!-- 100 -->
      <g transform="translate(815.19 481.958031) scale(0.19 -0.19)">
       <use xlink:href="#SimSun-31"/>
       <use xlink:href="#SimSun-30" x="50"/>
       <use xlink:href="#SimSun-30" x="100"/>
      </g>
     </g>
    </g>
    <g id="text_12">
     <!-- 索引装载率 $\mathrm{(\%)}$ -->
     <g transform="translate(406.58 504.17725) scale(0.19 -0.19)">
      <defs>
       <path id="SimSun-7d22" d="M 4725 1325 
Q 4375 1250 3450 1150 
L 3450 -50 
Q 3475 -500 2875 -625 
Q 2875 -325 2200 -125 
L 2200 -25 
Q 2850 -75 2987 -75 
Q 3125 -75 3100 175 
L 3100 1100 
Q 2400 1025 2050 925 
Q 1700 825 1475 700 
L 1225 1175 
Q 1525 1250 2050 1525 
Q 2575 1800 3225 2200 
Q 2900 2200 2437 2150 
Q 1975 2100 1650 1950 
L 1425 2375 
Q 1775 2425 2212 2737 
Q 2650 3050 2875 3375 
L 1000 3375 
Q 1050 3000 975 2850 
Q 900 2700 800 2675 
Q 700 2650 625 2650 
Q 525 2650 462 2675 
Q 400 2700 400 2725 
Q 400 2800 550 2975 
Q 750 3225 875 3800 
L 975 3800 
L 1000 3525 
L 3025 3525 
L 3025 4250 
L 1575 4250 
Q 1375 4250 1100 4175 
L 875 4400 
L 3025 4400 
L 3025 4775 
Q 3025 5025 3000 5275 
L 3625 5050 
L 3375 4900 
L 3375 4400 
L 4725 4400 
L 5125 4750 
L 5575 4250 
L 3375 4250 
L 3375 3525 
L 5300 3525 
L 5500 3750 
L 5950 3325 
Q 5600 3300 5050 2675 
L 4975 2725 
L 5325 3375 
L 2925 3375 
L 3325 3100 
Q 3100 3075 2675 2800 
Q 2250 2500 1925 2350 
L 3425 2375 
Q 3775 2625 4050 3000 
L 4475 2625 
Q 4250 2600 3850 2325 
Q 3425 2050 2975 1787 
Q 2525 1525 2025 1250 
L 4625 1450 
Q 4275 1825 3950 2050 
L 4000 2125 
Q 4700 1850 4962 1662 
Q 5225 1475 5275 1312 
Q 5325 1150 5212 937 
Q 5100 725 4987 925 
Q 4875 1125 4725 1325 
z
M 3925 725 
Q 5025 375 5312 212 
Q 5600 50 5612 -150 
Q 5625 -350 5562 -425 
Q 5500 -500 5475 -500 
Q 5375 -500 5200 -275 
Q 4925 50 3900 650 
L 3925 725 
z
M 2150 750 
L 2575 350 
Q 2275 350 1775 75 
Q 1275 -225 425 -525 
L 375 -450 
Q 1600 150 2150 750 
z
" transform="scale(0.015625)"/>
       <path id="SimSun-5f15" d="M 5075 4675 
L 5075 575 
Q 5075 100 5100 -425 
L 4700 -600 
Q 4725 175 4725 725 
Q 4725 4575 4700 5150 
L 5300 4850 
L 5075 4675 
z
M 3375 4475 
Q 3375 3475 3400 3125 
L 3025 3000 
L 3025 3250 
L 1525 3250 
L 1275 2150 
L 3125 2150 
L 3325 2400 
L 3750 2050 
L 3500 1900 
Q 3375 1125 3225 575 
Q 3075 25 2850 -187 
Q 2625 -400 2250 -475 
Q 2275 -125 1600 125 
L 1600 225 
Q 2125 125 2350 112 
Q 2575 100 2675 225 
Q 2775 350 2900 787 
Q 3025 1225 3150 2000 
L 1275 2000 
L 1100 1775 
L 725 2125 
Q 925 2200 1025 2575 
Q 1125 2950 1200 3675 
L 1575 3400 
L 3025 3400 
L 3025 4550 
L 1650 4550 
Q 1325 4550 1050 4475 
L 825 4700 
L 3000 4700 
L 3175 4950 
L 3575 4650 
L 3375 4475 
z
" transform="scale(0.015625)"/>
       <path id="SimSun-88c5" d="M 700 4725 
Q 1375 4450 1462 4325 
Q 1550 4200 1550 4125 
Q 1550 4025 1475 3887 
Q 1400 3750 1350 3750 
Q 1275 3750 1200 3925 
Q 1075 4225 650 4675 
L 700 4725 
z
M 2250 4775 
L 2250 2200 
L 1900 1975 
Q 1925 2600 1925 3475 
Q 1400 3150 1062 2887 
Q 725 2625 700 2475 
L 350 2900 
Q 775 3025 1925 3625 
Q 1925 4900 1900 5250 
L 2475 4925 
L 2250 4775 
z
M 2375 4000 
L 3900 4000 
Q 3900 4850 3875 5175 
L 4450 4925 
L 4225 4750 
L 4225 4000 
L 5125 4000 
L 5475 4350 
L 5950 3850 
L 4225 3850 
L 4225 2800 
L 4900 2800 
L 5250 3100 
L 5700 2650 
L 3475 2650 
Q 3150 2650 2875 2575 
L 2650 2800 
L 3900 2800 
L 3900 3850 
L 3200 3850 
Q 2875 3850 2600 3775 
L 2375 4000 
z
M 3125 1800 
Q 3125 2100 2650 2525 
L 2700 2575 
Q 3300 2375 3387 2250 
Q 3475 2125 3475 2050 
Q 3475 1950 3350 1800 
L 5050 1800 
L 5475 2175 
L 6000 1650 
L 3325 1650 
Q 3600 1225 4150 675 
Q 4775 1225 5000 1625 
L 5425 1200 
Q 5225 1175 4987 1050 
Q 4750 925 4250 600 
Q 4550 350 5037 162 
Q 5525 -25 6100 -75 
L 6100 -175 
Q 5675 -250 5550 -550 
Q 4825 -250 4262 212 
Q 3700 675 3175 1650 
Q 2825 1325 2450 1025 
L 2450 -25 
L 3750 375 
L 3800 300 
Q 2450 -300 2300 -625 
L 2000 -200 
Q 2150 -75 2125 75 
L 2125 800 
Q 1325 300 275 0 
L 250 75 
Q 1725 700 2725 1650 
L 1200 1650 
Q 875 1650 600 1575 
L 375 1800 
L 3125 1800 
z
" transform="scale(0.015625)"/>
       <path id="SimSun-8f7d" d="M 1850 5200 
L 2375 5000 
L 2200 4825 
L 2200 4325 
L 2675 4325 
L 2975 4600 
L 3400 4175 
L 2200 4175 
L 2200 3525 
L 3700 3525 
Q 3675 4525 3650 5200 
L 4200 4950 
L 4000 4775 
Q 4000 3950 4025 3525 
L 5250 3525 
L 5625 3850 
L 6100 3375 
L 4050 3375 
Q 4125 2300 4425 1400 
Q 4925 2200 5175 3075 
L 5650 2750 
L 5450 2575 
Q 5075 1775 4575 1050 
Q 4950 350 5650 -50 
L 5875 1050 
L 5975 1025 
Q 5925 350 5950 25 
Q 5975 -300 6075 -500 
Q 6125 -625 6025 -625 
Q 5975 -625 5775 -562 
Q 5575 -500 5125 -150 
Q 4675 200 4350 775 
Q 3575 -125 2625 -600 
L 2575 -525 
Q 3575 175 4175 1075 
Q 3825 1950 3725 3375 
L 1100 3375 
Q 775 3375 500 3300 
L 275 3525 
L 1875 3525 
L 1875 4175 
L 1525 4175 
Q 1200 4175 925 4100 
L 700 4325 
L 1875 4325 
Q 1875 4800 1850 5200 
z
M 4500 4850 
Q 5000 4650 5212 4512 
Q 5425 4375 5400 4187 
Q 5375 4000 5300 3925 
Q 5225 3850 5200 3850 
Q 5125 3850 5025 4050 
Q 4900 4325 4450 4775 
L 4500 4850 
z
M 500 525 
Q 850 550 1975 725 
L 1975 1400 
L 1150 1400 
L 975 1250 
L 700 1575 
Q 900 1575 1350 2450 
L 1150 2450 
Q 850 2450 575 2375 
L 350 2600 
L 1425 2600 
Q 1625 3025 1700 3300 
L 2150 3025 
L 1975 2950 
Q 1900 2850 1775 2600 
L 2700 2600 
L 3025 2900 
L 3425 2450 
L 1700 2450 
L 1175 1550 
L 1975 1550 
Q 1975 1925 1950 2300 
L 2450 2075 
L 2300 1900 
L 2300 1550 
L 2800 1550 
L 3075 1850 
L 3475 1400 
L 2300 1400 
L 2300 775 
L 3400 925 
L 3425 850 
L 2300 575 
Q 2300 -50 2325 -400 
L 1950 -550 
Q 1975 225 1975 500 
Q 850 275 725 100 
L 500 525 
z
" transform="scale(0.015625)"/>
       <path id="SimSun-7387" d="M 875 3725 
L 925 3800 
Q 1375 3650 1550 3525 
Q 1725 3400 1725 3250 
Q 1725 3175 1662 3025 
Q 1600 2875 1550 2875 
Q 1500 2875 1425 3050 
Q 1275 3325 875 3725 
z
M 550 1850 
Q 875 1925 2000 2575 
L 2050 2500 
Q 1675 2225 1337 1937 
Q 1000 1650 875 1425 
L 550 1850 
z
M 5200 3450 
Q 4800 3150 4275 2800 
L 4225 2875 
Q 4775 3400 5050 3925 
L 5450 3525 
L 5200 3450 
z
M 4325 2500 
L 4350 2575 
Q 5225 2350 5375 2212 
Q 5525 2075 5525 1900 
Q 5525 1775 5487 1662 
Q 5450 1550 5400 1550 
Q 5325 1550 5200 1800 
Q 4975 2150 4325 2500 
z
M 3150 3900 
Q 2500 3300 2300 3150 
Q 2800 3150 3400 3175 
Q 3700 3500 3850 3825 
L 4250 3450 
Q 4050 3400 3450 2825 
Q 2850 2250 2475 1950 
Q 3150 1975 3850 2000 
Q 3750 2175 3550 2450 
L 3600 2500 
Q 4050 2250 4200 2100 
Q 4350 1950 4350 1850 
Q 4350 1775 4250 1625 
Q 4150 1475 4100 1475 
Q 4075 1475 4050 1550 
Q 4000 1700 3900 1900 
Q 3650 1875 3075 1800 
L 3500 1550 
L 3325 1425 
L 3325 975 
L 5325 975 
L 5650 1300 
L 6100 825 
L 3325 825 
Q 3325 -275 3350 -525 
L 2975 -650 
Q 3000 0 3000 825 
L 1125 825 
Q 800 825 525 750 
L 300 975 
L 3000 975 
L 3000 1775 
Q 2450 1700 2200 1525 
L 1950 1950 
Q 2275 1950 2675 2350 
Q 3075 2750 3325 3050 
Q 2400 2950 2150 2775 
L 1950 3175 
Q 2150 3150 2475 3575 
Q 2800 4000 2900 4225 
L 1450 4225 
Q 1125 4225 850 4150 
L 625 4375 
L 3100 4375 
Q 3050 4800 2675 5200 
L 2725 5250 
Q 3225 5050 3337 4912 
Q 3450 4775 3450 4700 
Q 3450 4550 3250 4375 
L 5025 4375 
L 5350 4675 
L 5775 4225 
L 3050 4225 
L 3375 3950 
L 3150 3900 
z
" transform="scale(0.015625)"/>
       <path id="SimSun-20" d="M 0 0 
Q 0 0 0 0 
z
" transform="scale(0.015625)"/>
       <path id="STIXGeneral-Regular-28" d="M 1946 -1030 
L 1869 -1133 
Q 1126 -710 716 32 
Q 307 774 307 1613 
Q 307 3386 1888 4326 
L 1946 4224 
Q 1293 3667 1075 3126 
Q 858 2586 858 1632 
Q 858 685 1082 96 
Q 1306 -493 1946 -1030 
z
" transform="scale(0.015625)"/>
       <path id="STIXGeneral-Regular-25" d="M 4390 1363 
Q 4390 781 4070 329 
Q 3750 -122 3341 -122 
Q 3014 -122 2790 134 
Q 2566 390 2566 762 
Q 2566 1274 2940 1693 
Q 3315 2112 3776 2112 
Q 4070 2112 4230 1917 
Q 4390 1722 4390 1363 
z
M 4243 1376 
Q 4243 1626 4131 1779 
Q 4019 1933 3840 1933 
Q 3654 1933 3526 1786 
Q 3315 1562 3171 1187 
Q 3027 813 3027 486 
Q 3027 301 3129 176 
Q 3232 51 3386 51 
Q 3718 51 3980 457 
Q 4243 864 4243 1376 
z
M 3974 4518 
L 1222 -115 
L 922 -115 
L 3443 4096 
Q 3264 3891 3094 3811 
Q 2925 3731 2669 3731 
Q 2445 3731 2182 3821 
Q 2208 3674 2208 3539 
Q 2208 3206 2067 2873 
Q 1926 2541 1696 2323 
Q 1453 2086 1146 2086 
Q 826 2086 608 2339 
Q 390 2592 390 2963 
Q 390 3507 761 3916 
Q 1133 4326 1626 4326 
Q 1792 4326 2010 4147 
Q 2310 3898 2624 3898 
Q 2918 3898 3084 3994 
Q 3251 4090 3693 4518 
L 3974 4518 
z
M 2054 3642 
Q 2054 3782 2025 3833 
Q 1997 3885 1894 3936 
Q 1747 4006 1613 4154 
Q 1414 4058 1331 3984 
Q 1248 3910 1152 3750 
Q 845 3264 845 2707 
Q 845 2509 944 2384 
Q 1043 2259 1210 2259 
Q 1549 2259 1801 2675 
Q 2054 3091 2054 3642 
z
" transform="scale(0.015625)"/>
       <path id="STIXGeneral-Regular-29" d="M 186 4224 
L 262 4326 
Q 992 3891 1408 3148 
Q 1824 2406 1824 1581 
Q 1824 -166 243 -1133 
L 186 -1030 
Q 845 -486 1059 54 
Q 1274 595 1274 1562 
Q 1274 2534 1059 3120 
Q 845 3706 186 4224 
z
" transform="scale(0.015625)"/>
      </defs>
      <use xlink:href="#SimSun-7d22" transform="translate(0 0.578125)"/>
      <use xlink:href="#SimSun-5f15" transform="translate(100 0.578125)"/>
      <use xlink:href="#SimSun-88c5" transform="translate(200 0.578125)"/>
      <use xlink:href="#SimSun-8f7d" transform="translate(300 0.578125)"/>
      <use xlink:href="#SimSun-7387" transform="translate(400 0.578125)"/>
      <use xlink:href="#SimSun-20" transform="translate(500 0.578125)"/>
      <use xlink:href="#STIXGeneral-Regular-28" transform="translate(550 0.578125)"/>
      <use xlink:href="#STIXGeneral-Regular-25" transform="translate(583.299988 0.578125)"/>
      <use xlink:href="#STIXGeneral-Regular-29" transform="translate(657.999969 0.578125)"/>
     </g>
    </g>
   </g>
   <g id="matplotlib.axis_2">
    <g id="ytick_1">
     <g id="line2d_12">
      <defs>
       <path id="m50d4e41c15" d="M 0 0 
L -3.5 0 
" style="stroke: #000000; stroke-width: 0.8"/>
      </defs>
      <g>
       <use xlink:href="#m50d4e41c15" x="115.2" y="461.376" style="stroke: #000000; stroke-width: 0.8"/>
      </g>
     </g>
     <g id="text_13">
      <!-- 0 -->
      <g transform="translate(98.7 468.167016) scale(0.19 -0.19)">
       <use xlink:href="#SimSun-30"/>
      </g>
     </g>
    </g>
    <g id="ytick_2">
     <g id="line2d_13">
      <g>
       <use xlink:href="#m50d4e41c15" x="115.2" y="428.112" style="stroke: #000000; stroke-width: 0.8"/>
      </g>
     </g>
     <g id="text_14">
      <!-- 0.5 -->
      <g transform="translate(79.7 434.903016) scale(0.19 -0.19)">
       <defs>
        <path id="SimSun-2e" d="M 800 25 
Q 650 25 537 125 
Q 425 225 425 400 
Q 425 575 537 675 
Q 650 775 800 775 
Q 950 775 1062 662 
Q 1175 550 1175 400 
Q 1175 225 1062 125 
Q 950 25 800 25 
z
" transform="scale(0.015625)"/>
       </defs>
       <use xlink:href="#SimSun-30"/>
       <use xlink:href="#SimSun-2e" x="50"/>
       <use xlink:href="#SimSun-35" x="100"/>
      </g>
     </g>
    </g>
    <g id="ytick_3">
     <g id="line2d_14">
      <g>
       <use xlink:href="#m50d4e41c15" x="115.2" y="394.848" style="stroke: #000000; stroke-width: 0.8"/>
      </g>
     </g>
     <g id="text_15">
      <!-- 1.0 -->
      <g transform="translate(79.7 401.639016) scale(0.19 -0.19)">
       <use xlink:href="#SimSun-31"/>
       <use xlink:href="#SimSun-2e" x="50"/>
       <use xlink:href="#SimSun-30" x="100"/>
      </g>
     </g>
    </g>
    <g id="ytick_4">
     <g id="line2d_15">
      <g>
       <use xlink:href="#m50d4e41c15" x="115.2" y="361.584" style="stroke: #000000; stroke-width: 0.8"/>
      </g>
     </g>
     <g id="text_16">
      <!-- 1.5 -->
      <g transform="translate(79.7 368.375016) scale(0.19 -0.19)">
       <use xlink:href="#SimSun-31"/>
       <use xlink:href="#SimSun-2e" x="50"/>
       <use xlink:href="#SimSun-35" x="100"/>
      </g>
     </g>
    </g>
    <g id="ytick_5">
     <g id="line2d_16">
      <g>
       <use xlink:href="#m50d4e41c15" x="115.2" y="328.32" style="stroke: #000000; stroke-width: 0.8"/>
      </g>
     </g>
     <g id="text_17">
      <!-- 2.0 -->
      <g transform="translate(79.7 335.111016) scale(0.19 -0.19)">
       <use xlink:href="#SimSun-32"/>
       <use xlink:href="#SimSun-2e" x="50"/>
       <use xlink:href="#SimSun-30" x="100"/>
      </g>
     </g>
    </g>
    <g id="ytick_6">
     <g id="line2d_17">
      <g>
       <use xlink:href="#m50d4e41c15" x="115.2" y="295.056" style="stroke: #000000; stroke-width: 0.8"/>
      </g>
     </g>
     <g id="text_18">
      <!-- 2.5 -->
      <g transform="translate(79.7 301.847016) scale(0.19 -0.19)">
       <use xlink:href="#SimSun-32"/>
       <use xlink:href="#SimSun-2e" x="50"/>
       <use xlink:href="#SimSun-35" x="100"/>
      </g>
     </g>
    </g>
    <g id="ytick_7">
     <g id="line2d_18">
      <g>
       <use xlink:href="#m50d4e41c15" x="115.2" y="261.792" style="stroke: #000000; stroke-width: 0.8"/>
      </g>
     </g>
     <g id="text_19">
      <!-- 3.0 -->
      <g transform="translate(79.7 268.583016) scale(0.19 -0.19)">
       <use xlink:href="#SimSun-33"/>
       <use xlink:href="#SimSun-2e" x="50"/>
       <use xlink:href="#SimSun-30" x="100"/>
      </g>
     </g>
    </g>
    <g id="ytick_8">
     <g id="line2d_19">
      <g>
       <use xlink:href="#m50d4e41c15" x="115.2" y="228.528" style="stroke: #000000; stroke-width: 0.8"/>
      </g>
     </g>
     <g id="text_20">
      <!-- 3.5 -->
      <g transform="translate(79.7 235.319016) scale(0.19 -0.19)">
       <use xlink:href="#SimSun-33"/>
       <use xlink:href="#SimSun-2e" x="50"/>
       <use xlink:href="#SimSun-35" x="100"/>
      </g>
     </g>
    </g>
    <g id="ytick_9">
     <g id="line2d_20">
      <g>
       <use xlink:href="#m50d4e41c15" x="115.2" y="195.264" style="stroke: #000000; stroke-width: 0.8"/>
      </g>
     </g>
     <g id="text_21">
      <!-- 4.0 -->
      <g transform="translate(79.7 202.055016) scale(0.19 -0.19)">
       <use xlink:href="#SimSun-34"/>
       <use xlink:href="#SimSun-2e" x="50"/>
       <use xlink:href="#SimSun-30" x="100"/>
      </g>
     </g>
    </g>
    <g id="ytick_10">
     <g id="line2d_21">
      <g>
       <use xlink:href="#m50d4e41c15" x="115.2" y="162" style="stroke: #000000; stroke-width: 0.8"/>
      </g>
     </g>
     <g id="text_22">
      <!-- 4.5 -->
      <g transform="translate(79.7 168.791016) scale(0.19 -0.19)">
       <use xlink:href="#SimSun-34"/>
       <use xlink:href="#SimSun-2e" x="50"/>
       <use xlink:href="#SimSun-35" x="100"/>
      </g>
     </g>
    </g>
    <g id="ytick_11">
     <g id="line2d_22">
      <g>
       <use xlink:href="#m50d4e41c15" x="115.2" y="128.736" style="stroke: #000000; stroke-width: 0.8"/>
      </g>
     </g>
     <g id="text_23">
      <!-- 5.0 -->
      <g transform="translate(79.7 135.527016) scale(0.19 -0.19)">
       <use xlink:href="#SimSun-35"/>
       <use xlink:href="#SimSun-2e" x="50"/>
       <use xlink:href="#SimSun-30" x="100"/>
      </g>
     </g>
    </g>
    <g id="ytick_12">
     <g id="line2d_23">
      <g>
       <use xlink:href="#m50d4e41c15" x="115.2" y="95.472" style="stroke: #000000; stroke-width: 0.8"/>
      </g>
     </g>
     <g id="text_24">
      <!-- 5.5 -->
      <g transform="translate(79.7 102.263016) scale(0.19 -0.19)">
       <use xlink:href="#SimSun-35"/>
       <use xlink:href="#SimSun-2e" x="50"/>
       <use xlink:href="#SimSun-35" x="100"/>
      </g>
     </g>
    </g>
    <g id="ytick_13">
     <g id="line2d_24">
      <g>
       <use xlink:href="#m50d4e41c15" x="115.2" y="62.208" style="stroke: #000000; stroke-width: 0.8"/>
      </g>
     </g>
     <g id="text_25">
      <!-- 6.0 -->
      <g transform="translate(79.7 68.999016) scale(0.19 -0.19)">
       <use xlink:href="#SimSun-36"/>
       <use xlink:href="#SimSun-2e" x="50"/>
       <use xlink:href="#SimSun-30" x="100"/>
      </g>
     </g>
    </g>
    <g id="text_26">
     <!-- 吞吐量 $\mathrm{(Mops)}$ -->
     <g transform="translate(71.52 323.067) rotate(-90) scale(0.19 -0.19)">
      <defs>
       <path id="SimSun-541e" d="M 2200 1700 
L 2200 75 
L 4200 75 
L 4200 1700 
L 2200 1700 
z
M 1025 4675 
L 4550 4675 
L 4875 5000 
L 5350 4525 
L 3300 4525 
Q 3150 4025 2900 3375 
L 5075 3375 
L 5450 3750 
L 5975 3225 
L 3700 3225 
Q 3925 2925 4312 2587 
Q 4700 2250 5225 2037 
Q 5750 1825 6100 1800 
L 6100 1700 
Q 5700 1675 5575 1375 
Q 4600 1900 4137 2437 
Q 3675 2975 3575 3225 
L 2825 3225 
Q 2425 2575 1950 2075 
L 2200 1850 
L 4175 1850 
L 4325 2100 
L 4750 1775 
L 4550 1600 
L 4550 375 
Q 4550 -50 4575 -375 
L 4200 -500 
L 4200 -75 
L 2200 -75 
L 2200 -450 
L 1825 -575 
Q 1850 175 1850 625 
L 1850 2000 
Q 1175 1400 375 1075 
L 325 1150 
Q 1075 1575 1600 2100 
Q 2125 2625 2450 3225 
L 1225 3225 
Q 900 3225 625 3150 
L 400 3375 
L 2525 3375 
Q 2800 4025 2900 4525 
L 1850 4525 
Q 1525 4525 1250 4450 
L 1025 4675 
z
" transform="scale(0.015625)"/>
       <path id="SimSun-5410" d="M 3775 3000 
L 3775 3750 
Q 3775 4400 3750 5175 
L 4350 4900 
L 4125 4700 
L 4125 3000 
L 4925 3000 
L 5250 3325 
L 5725 2850 
L 4125 2850 
L 4125 75 
L 5225 75 
L 5575 425 
L 6075 -75 
L 2675 -75 
Q 2350 -75 2075 -150 
L 1850 75 
L 3775 75 
L 3775 2850 
L 3225 2850 
Q 2900 2850 2625 2775 
L 2400 3000 
L 3775 3000 
z
M 575 4250 
L 950 4025 
L 1875 4025 
L 2050 4275 
L 2450 3950 
L 2250 3800 
L 2250 1950 
Q 2250 1375 2275 950 
L 1900 775 
L 1900 1225 
L 950 1225 
L 950 600 
L 575 425 
Q 600 1075 600 2375 
Q 600 3675 575 4250 
z
M 950 3875 
L 950 1375 
L 1900 1375 
L 1900 3875 
L 950 3875 
z
" transform="scale(0.015625)"/>
       <path id="SimSun-91cf" d="M 1700 2400 
L 1700 1875 
L 3025 1875 
L 3025 2400 
L 1700 2400 
z
M 3350 2400 
L 3350 1875 
L 4625 1875 
L 4625 2400 
L 3350 2400 
z
M 1700 1725 
L 1700 1225 
L 3025 1225 
L 3025 1725 
L 1700 1725 
z
M 3350 1725 
L 3350 1225 
L 4625 1225 
L 4625 1725 
L 3350 1725 
z
M 4950 2325 
Q 4950 1350 4975 1025 
L 4625 875 
L 4625 1075 
L 3350 1075 
L 3350 525 
L 4700 525 
L 5050 825 
L 5450 375 
L 3350 375 
L 3350 -225 
L 5275 -225 
L 5650 125 
L 6075 -375 
L 1175 -375 
Q 850 -375 575 -450 
L 350 -225 
L 3025 -225 
L 3025 375 
L 1725 375 
Q 1400 375 1125 300 
L 900 525 
L 3025 525 
L 3025 1075 
L 1700 1075 
L 1700 925 
L 1350 800 
Q 1375 1300 1375 1787 
Q 1375 2275 1350 2750 
L 1700 2550 
L 4600 2550 
L 4750 2750 
L 5125 2475 
L 4950 2325 
z
M 1775 4800 
L 1775 4375 
L 4550 4375 
L 4550 4800 
L 1775 4800 
z
M 1775 4225 
L 1775 3775 
L 4550 3775 
L 4550 4225 
L 1775 4225 
z
M 4875 4750 
Q 4875 3825 4900 3525 
L 4550 3375 
L 4550 3625 
L 1775 3625 
L 1775 3400 
L 1425 3250 
Q 1450 3650 1450 4262 
Q 1450 4875 1425 5125 
L 1800 4950 
L 4500 4950 
L 4650 5175 
L 5050 4900 
L 4875 4750 
z
M 250 3125 
L 5375 3125 
L 5725 3450 
L 6150 2975 
L 950 2975 
Q 750 2975 475 2900 
L 250 3125 
z
" transform="scale(0.015625)"/>
       <path id="STIXGeneral-Regular-4d" d="M 5530 0 
L 3738 0 
L 3738 122 
Q 4115 147 4214 265 
Q 4314 384 4314 787 
L 4314 3661 
L 2682 0 
L 2592 0 
L 979 3514 
L 979 966 
Q 979 448 1088 294 
Q 1197 141 1574 122 
L 1574 0 
L 77 0 
L 77 122 
Q 358 141 480 205 
Q 602 269 650 432 
Q 698 595 698 966 
L 698 3514 
Q 698 3878 589 3984 
Q 480 4090 90 4115 
L 90 4237 
L 1357 4237 
L 2835 1024 
L 4250 4237 
L 5523 4237 
L 5523 4115 
Q 5178 4109 5072 3993 
Q 4966 3878 4966 3520 
L 4966 717 
Q 4966 378 5072 262 
Q 5178 147 5530 122 
L 5530 0 
z
" transform="scale(0.015625)"/>
       <path id="STIXGeneral-Regular-6f" d="M 3008 1478 
Q 3008 806 2608 371 
Q 2208 -64 1568 -64 
Q 979 -64 582 368 
Q 186 800 186 1459 
Q 186 2125 582 2534 
Q 979 2944 1626 2944 
Q 2221 2944 2614 2537 
Q 3008 2131 3008 1478 
z
M 2432 1306 
Q 2432 2035 2112 2445 
Q 1856 2765 1504 2765 
Q 1171 2765 966 2493 
Q 762 2221 762 1747 
Q 762 928 1101 435 
Q 1318 115 1677 115 
Q 2029 115 2230 432 
Q 2432 749 2432 1306 
z
" transform="scale(0.015625)"/>
       <path id="STIXGeneral-Regular-70" d="M 1018 2931 
L 1018 2438 
Q 1421 2944 1939 2944 
Q 2406 2944 2707 2560 
Q 3008 2176 3008 1581 
Q 3008 883 2621 409 
Q 2234 -64 1664 -64 
Q 1466 -64 1328 -6 
Q 1190 51 1018 211 
L 1018 -794 
Q 1018 -1094 1120 -1180 
Q 1222 -1267 1581 -1274 
L 1581 -1389 
L 32 -1389 
L 32 -1280 
Q 314 -1254 397 -1171 
Q 480 -1088 480 -838 
L 480 2157 
Q 480 2381 429 2451 
Q 378 2522 218 2522 
Q 115 2522 58 2515 
L 58 2618 
Q 506 2752 979 2944 
L 1018 2931 
z
M 1018 2138 
L 1018 563 
Q 1018 422 1238 281 
Q 1459 141 1683 141 
Q 2029 141 2243 467 
Q 2458 794 2458 1325 
Q 2458 1888 2243 2224 
Q 2029 2560 1670 2560 
Q 1446 2560 1232 2419 
Q 1018 2278 1018 2138 
z
" transform="scale(0.015625)"/>
       <path id="STIXGeneral-Regular-73" d="M 998 1926 
L 1664 1523 
Q 1984 1331 2105 1164 
Q 2227 998 2227 736 
Q 2227 416 1961 176 
Q 1696 -64 1331 -64 
Q 1030 -64 864 -6 
Q 691 51 570 51 
Q 461 51 416 -26 
L 333 -26 
L 333 979 
L 435 979 
Q 538 512 730 294 
Q 922 77 1248 77 
Q 1485 77 1632 211 
Q 1779 346 1779 550 
Q 1779 845 1440 1030 
L 1094 1222 
Q 326 1651 326 2150 
Q 326 2522 566 2730 
Q 806 2938 1210 2938 
Q 1491 2938 1638 2867 
Q 1754 2816 1818 2816 
Q 1862 2816 1920 2880 
L 1990 2880 
L 2022 2010 
L 1926 2010 
Q 1818 2445 1654 2621 
Q 1491 2797 1203 2797 
Q 986 2797 854 2688 
Q 723 2579 723 2362 
Q 723 2253 796 2128 
Q 870 2003 998 1926 
z
" transform="scale(0.015625)"/>
      </defs>
      <use xlink:href="#SimSun-541e" transform="translate(0 0.140625)"/>
      <use xlink:href="#SimSun-5410" transform="translate(100 0.140625)"/>
      <use xlink:href="#SimSun-91cf" transform="translate(200 0.140625)"/>
      <use xlink:href="#SimSun-20" transform="translate(300 0.140625)"/>
      <use xlink:href="#STIXGeneral-Regular-28" transform="translate(350 0.140625)"/>
      <use xlink:href="#STIXGeneral-Regular-4d" transform="translate(383.299988 0.140625)"/>
      <use xlink:href="#STIXGeneral-Regular-6f" transform="translate(472.199982 0.140625)"/>
      <use xlink:href="#STIXGeneral-Regular-70" transform="translate(522.199966 0.140625)"/>
      <use xlink:href="#STIXGeneral-Regular-73" transform="translate(572.199951 0.140625)"/>
      <use xlink:href="#STIXGeneral-Regular-29" transform="translate(611.099945 0.140625)"/>
     </g>
    </g>
   </g>
   <g id="line2d_25">
    <path d="M 115.46784 456.444126 
L 115.897812 452.517258 
L 116.246362 454.0769 
L 117.404145 435.293997 
L 118.624781 431.946341 
L 119.956838 428.642108 
L 121.837432 414.191754 
L 123.548751 415.803761 
L 125.15222 417.084292 
L 126.694979 417.320992 
L 128.193454 417.685971 
L 129.635505 418.325631 
L 131.0397 418.695853 
L 132.418898 418.694449 
L 133.763098 419.326372 
L 135.09087 419.102978 
L 136.386501 419.526096 
L 137.686418 419.167317 
L 140.209114 419.72085 
L 142.678956 419.562999 
L 143.905306 419.363348 
L 145.1038 420.026267 
L 146.286582 420.019993 
L 147.474363 419.569399 
L 148.65643 419.466354 
L 149.813499 419.984068 
L 150.969139 419.780905 
L 153.239708 420.155531 
L 154.369636 419.763115 
L 156.590922 420.192713 
L 157.707994 419.660582 
L 158.802209 420.140349 
L 159.895711 419.828 
L 160.980641 420.085962 
L 162.062001 419.677068 
L 163.147645 419.431526 
L 164.220434 419.696341 
L 165.287508 419.81671 
L 166.349583 419.755857 
L 167.400945 420.025841 
L 168.455877 419.540626 
L 169.510095 419.668406 
L 170.551457 419.590409 
L 171.583534 419.895965 
L 172.623468 419.429331 
L 174.696906 419.228057 
L 175.716127 419.813723 
L 176.733204 419.542462 
L 177.744568 419.635355 
L 178.761646 419.260869 
L 179.770867 419.558362 
L 180.785802 419.089666 
L 181.778596 419.826363 
L 182.782817 419.204513 
L 183.774182 419.698071 
L 184.781975 418.561041 
L 185.765484 419.561768 
L 186.748278 419.494748 
L 187.739643 418.999507 
L 188.721009 419.0634 
L 189.697375 419.297067 
L 191.655107 418.961779 
L 193.590697 419.253418 
L 195.532001 418.594538 
L 196.490511 418.926366 
L 197.459735 418.403569 
L 198.412531 419.126249 
L 199.376041 418.379592 
L 200.330266 418.769413 
L 201.280919 418.6862 
L 202.228001 418.715439 
L 203.183654 418.305573 
L 205.082819 418.265104 
L 206.02133 418.75499 
L 206.965555 418.269888 
L 207.910495 418.087381 
L 208.853292 418.104991 
L 209.788946 418.362601 
L 213.50228 418.250135 
L 214.435077 417.901322 
L 215.352161 418.442701 
L 216.273531 418.138495 
L 217.187044 418.50213 
L 218.11127 417.579354 
L 219.026212 418.04634 
L 219.955438 417.551305 
L 220.87038 418.029788 
L 221.77675 418.096981 
L 222.689549 417.740518 
L 223.600205 417.785763 
L 225.424374 417.486727 
L 226.327887 417.873926 
L 227.232829 417.59043 
L 228.132058 417.659553 
L 229.049142 416.756941 
L 229.951227 417.60967 
L 230.85474 417.361701 
L 232.651054 417.485416 
L 233.537426 417.91234 
L 234.437368 417.097059 
L 235.332311 417.29178 
L 236.227968 417.239509 
L 237.127196 416.805939 
L 238.011425 417.437995 
L 238.897797 417.094684 
L 239.76917 417.766517 
L 240.669827 416.520175 
L 241.544056 417.771899 
L 242.414715 417.849211 
L 243.288945 417.407139 
L 244.163889 417.230474 
L 245.047404 416.772189 
L 247.675092 417.126883 
L 248.551465 416.592397 
L 249.418552 417.027783 
L 250.293496 416.606608 
L 252.025528 417.005097 
L 252.902615 416.358778 
L 253.775416 416.185525 
L 254.642504 416.417848 
L 255.493878 417.311698 
L 256.361679 416.205417 
L 257.224481 416.554224 
L 258.098711 415.58859 
L 258.966513 416.13686 
L 259.835743 415.984884 
L 260.710687 415.619479 
L 261.569203 416.271553 
L 262.434862 415.947488 
L 263.294093 415.932586 
L 264.149752 416.255779 
L 265.004698 416.316233 
L 265.858929 415.841795 
L 266.722445 415.801965 
L 267.575962 416.158402 
L 268.438049 415.552192 
L 270.141512 415.971492 
L 270.9886 415.876669 
L 272.701348 415.29743 
L 273.54558 415.99956 
L 274.398382 415.382453 
L 275.245471 415.542233 
L 276.084703 415.955625 
L 276.92822 415.725178 
L 277.772452 415.624628 
L 278.613827 415.82833 
L 279.459487 415.376365 
L 280.294433 415.657958 
L 281.135808 415.227895 
L 281.966469 415.699705 
L 282.808558 415.253628 
L 283.65279 415.15025 
L 284.492736 415.165618 
L 285.326968 415.499236 
L 286.169057 414.821994 
L 286.999004 415.336941 
L 287.842522 414.423172 
L 288.681039 415.093069 
L 289.520986 415.026794 
L 290.346647 415.327041 
L 291.184451 414.884491 
L 292.010826 415.29568 
L 292.852201 414.332428 
L 293.685719 414.558244 
L 294.527808 414.293083 
L 295.344899 415.50696 
L 296.166989 415.055155 
L 296.984079 415.354105 
L 297.807598 415.008332 
L 300.284582 414.299124 
L 301.107387 414.711924 
L 301.918049 415.386571 
L 302.755139 413.822338 
L 303.5758 414.816798 
L 304.400748 414.547693 
L 305.22998 413.92225 
L 306.051356 414.429499 
L 306.876303 414.004525 
L 307.693394 414.608679 
L 309.349716 413.553811 
L 310.170378 414.062624 
L 310.987469 414.053789 
L 311.81813 412.981737 
L 312.628078 414.439332 
L 314.261545 413.766754 
L 315.080778 413.908964 
L 315.899297 413.575852 
L 316.715674 413.818626 
L 317.530621 413.758391 
L 318.339855 413.89629 
L 319.164088 413.146693 
L 319.980465 413.455343 
L 320.789699 414.035893 
L 321.607503 413.521059 
L 322.413166 413.88828 
L 323.225971 413.510448 
L 324.84801 413.520394 
L 325.65653 413.806544 
L 326.46505 413.800497 
L 327.273569 413.309473 
L 328.075661 413.783465 
L 328.886323 413.439868 
L 329.6977 413.275637 
L 330.498363 413.88846 
L 331.29974 413.442769 
L 332.109688 413.228236 
L 332.919636 412.813587 
L 333.726013 413.220306 
L 334.530962 413.143566 
L 335.33591 413.222428 
L 336.13943 413.055702 
L 336.931523 413.598797 
L 337.735757 412.98326 
L 339.340654 413.1754 
L 340.145603 412.792072 
L 340.952694 412.569795 
L 341.751214 413.189916 
L 343.356111 412.583739 
L 344.955295 412.917564 
L 345.761672 412.370271 
L 346.570906 412.144282 
L 347.367997 412.873888 
L 348.165804 412.537409 
L 348.96361 412.697442 
L 349.76213 412.393117 
L 350.558508 412.549797 
L 351.359171 412.146085 
L 352.160548 412.053465 
L 352.958354 412.440431 
L 353.754732 412.406515 
L 354.550395 412.243968 
L 355.343201 412.488651 
L 356.94667 411.78869 
L 357.743048 412.028789 
L 358.527283 412.868892 
L 359.312233 412.494871 
L 360.101468 412.655363 
L 362.478459 411.775092 
L 365.633257 412.391101 
L 366.43392 411.056157 
L 367.226726 411.743531 
L 368.799483 412.374402 
L 369.588004 411.78078 
L 370.372954 412.035881 
L 372.736374 411.523982 
L 373.521324 411.84299 
L 374.311987 411.470939 
L 375.098365 411.503298 
L 375.895457 410.918983 
L 376.675407 411.846177 
L 377.466071 411.223694 
L 378.250307 411.482615 
L 379.04597 410.793271 
L 379.827348 411.772943 
L 382.177912 411.044042 
L 382.962148 411.22571 
L 384.528476 411.246939 
L 385.311997 410.975691 
L 386.087662 411.563958 
L 386.868326 411.135924 
L 387.651848 410.986522 
L 388.430369 411.424143 
L 389.21889 410.509263 
L 389.993841 411.414344 
L 390.766648 411.567724 
L 391.545884 411.060674 
L 392.321549 411.368033 
L 393.106499 410.64842 
L 393.890734 410.695921 
L 394.67497 410.379288 
L 395.453491 410.831891 
L 396.221299 411.517854 
L 397.000535 410.686807 
L 397.776914 410.480989 
L 398.554721 410.712686 
L 399.332529 410.701795 
L 400.110336 410.438338 
L 400.898143 409.97694 
L 401.678093 410.604299 
L 402.4559 410.514918 
L 403.237279 410.097442 
L 404.005087 410.957675 
L 404.780037 410.525077 
L 405.548559 410.990068 
L 406.317796 410.944223 
L 407.096317 409.945565 
L 407.869839 410.335319 
L 408.64479 410.258559 
L 409.420454 410.297032 
L 410.191834 410.475793 
L 410.966784 410.277114 
L 411.741734 410.286654 
L 412.509542 410.635061 
L 413.280207 410.243191 
L 414.063014 409.61194 
L 414.832251 410.196449 
L 415.605773 409.720441 
L 416.373581 410.213773 
L 417.145674 409.933583 
L 417.905626 410.735572 
L 418.679148 410.020562 
L 419.452669 410.07888 
L 420.223334 409.87269 
L 420.992571 410.040327 
L 421.770378 409.263307 
L 422.5439 409.639084 
L 423.318136 409.449446 
L 424.078802 410.586815 
L 424.845181 410.242599 
L 425.613704 410.036908 
L 426.386511 409.494192 
L 427.155034 409.781547 
L 427.922842 409.794247 
L 428.684936 410.249165 
L 429.457743 409.222153 
L 431.002644 409.395771 
L 431.770452 409.782511 
L 432.545403 409.173128 
L 433.313211 409.929545 
L 434.08959 409.185503 
L 434.853827 409.498231 
L 435.627348 409.255676 
L 436.393014 409.559929 
L 437.162964 409.317334 
L 438.691438 409.724699 
L 439.457818 409.51592 
L 440.220626 409.4682 
L 440.98772 409.207164 
L 441.747671 409.952517 
L 442.512622 409.268596 
L 443.268288 409.86496 
L 444.030382 409.602726 
L 444.797476 409.103686 
L 445.558141 409.711885 
L 446.322378 409.223151 
L 447.085901 409.239936 
L 447.842281 409.388539 
L 448.603661 409.056185 
L 450.119992 409.681083 
L 450.885658 409.01076 
L 451.641324 409.475678 
L 453.169083 408.628197 
L 453.916892 409.748323 
L 454.681843 408.635316 
L 455.440366 409.317121 
L 456.203174 408.829165 
L 457.723791 409.032042 
L 458.488028 408.97073 
L 459.248694 409.084772 
L 460.012931 408.36466 
L 460.769311 409.038229 
L 463.049165 408.852317 
L 463.812687 408.276357 
L 464.575496 408.290907 
L 465.330447 408.856655 
L 466.084685 409.113433 
L 466.841065 408.831261 
L 467.598159 408.850813 
L 468.355968 408.460746 
L 469.110205 408.937852 
L 469.864443 409.035036 
L 470.632965 407.611683 
L 472.145011 409.082976 
L 472.895677 409.098677 
L 473.651343 408.601174 
L 474.412009 408.305357 
L 475.173389 408.170079 
L 478.94529 408.741089 
L 479.713098 407.607704 
L 480.46805 408.421581 
L 481.220859 408.516138 
L 481.987953 407.581566 
L 482.744333 408.12011 
L 484.254236 408.453575 
L 485.010616 408.138558 
L 485.762711 408.740996 
L 486.516948 408.371459 
L 487.274757 407.856599 
L 488.031137 407.855222 
L 488.781089 408.50401 
L 490.285279 408.314817 
L 491.033802 408.549375 
L 491.783754 408.493252 
L 492.535135 408.31336 
L 493.282944 408.403998 
L 494.037896 407.720789 
L 494.793562 407.697557 
L 495.544942 407.965871 
L 496.305608 407.247455 
L 497.799084 408.483772 
L 498.545464 408.279265 
L 499.288988 408.362964 
L 500.041797 407.788474 
L 500.786749 408.445432 
L 501.541701 407.791415 
L 502.298081 407.75684 
L 503.046605 408.014543 
L 503.796557 407.802538 
L 504.548652 407.468089 
L 506.057841 407.371683 
L 506.803507 408.038966 
L 507.55703 407.37654 
L 508.296269 408.267942 
L 509.046935 407.580821 
L 510.549696 407.764691 
L 511.304648 407.222667 
L 512.803123 407.917845 
L 513.550932 407.869672 
L 514.300884 407.386266 
L 515.051551 407.380871 
L 515.802217 407.61622 
L 516.553597 407.291683 
L 517.304978 407.236172 
L 518.057073 407.015619 
L 518.804168 407.442323 
L 519.559119 406.83898 
L 520.3055 407.776459 
L 521.059023 406.952949 
L 521.801833 407.823821 
L 522.564641 406.386696 
L 523.311022 407.471309 
L 524.06526 406.694408 
L 524.814497 407.254002 
L 526.302973 407.393258 
L 527.059354 406.676046 
L 527.80502 407.425231 
L 528.558543 406.552457 
L 529.30421 407.406145 
L 530.044877 407.554136 
L 530.804114 406.243767 
L 531.546209 407.264706 
L 532.28759 407.665098 
L 533.027543 407.608955 
L 533.771781 407.334867 
L 534.515305 407.282429 
L 535.254543 407.597812 
L 536.002353 406.943482 
L 536.739448 407.603566 
L 537.477258 407.719904 
L 538.222211 407.055994 
L 538.970734 406.742594 
L 539.719972 406.705678 
L 540.46421 407.173949 
L 541.206305 407.257568 
L 541.955543 406.965862 
L 542.704067 406.491943 
L 543.445448 407.089871 
L 544.191114 406.845766 
L 544.931781 407.237922 
L 548.652972 406.68572 
L 549.391496 407.195796 
L 550.133591 406.96688 
L 550.872829 407.106143 
L 551.617068 406.778353 
L 552.351306 407.516315 
L 553.087688 407.373233 
L 553.744788 411.612337 
L 554.379034 412.867881 
L 555.008993 413.073272 
L 555.640381 413.140426 
L 556.268198 413.090516 
L 556.901729 412.737778 
L 557.532403 413.014003 
L 558.790894 413.219721 
L 559.422996 412.775706 
L 560.052242 413.331022 
L 560.681487 413.073339 
L 561.30859 413.01546 
L 561.942835 412.722058 
L 562.570652 413.129575 
L 563.832 412.949171 
L 564.46196 412.923584 
L 565.094776 412.638199 
L 565.723308 413.244323 
L 566.356838 412.579482 
L 566.98037 413.23415 
L 567.613901 412.644885 
L 568.24386 412.9992 
L 568.870963 413.153239 
L 569.49878 413.095506 
L 570.135168 412.475259 
L 570.764413 412.878944 
L 571.402944 412.093801 
L 572.027904 413.37038 
L 572.657149 412.96569 
L 573.276396 413.355411 
L 573.914212 412.184412 
L 574.533458 413.531757 
L 575.160561 412.942472 
L 575.788378 412.567932 
L 577.055439 412.240462 
L 577.678971 412.858108 
L 578.93889 412.571485 
L 579.569564 412.191537 
L 580.195953 412.993512 
L 580.81377 413.263882 
L 581.43873 412.754603 
L 582.066547 412.638871 
L 582.695793 412.336269 
L 583.322895 412.569822 
L 583.949284 412.270299 
L 584.574244 413.040441 
L 585.204204 412.433898 
L 585.836306 412.290517 
L 586.464123 412.480754 
L 587.085512 412.852073 
L 588.338289 412.524862 
L 588.962534 412.734811 
L 589.590351 412.341305 
L 590.217454 412.55649 
L 590.8417 412.487533 
L 591.472374 411.773741 
L 592.098762 412.361662 
L 592.723008 412.58507 
L 593.356539 411.955695 
L 593.987213 412.159178 
L 595.244989 412.214735 
L 595.869949 412.688548 
L 596.490624 412.824744 
L 597.122012 412.032841 
L 597.749115 412.382765 
L 598.387645 411.72008 
L 599.019748 412.040824 
L 599.638994 413.008787 
L 600.271096 412.056452 
L 600.892485 412.641546 
L 601.493875 413.991405 
L 601.493875 413.991405 
" clip-path="url(#pcc8e3a22b9)" style="fill: none; stroke: #ff0000; stroke-width: 1.5; stroke-linecap: square"/>
   </g>
   <g id="line2d_26">
    <path d="M 115.812818 451.944505 
L 119.4383 424.071103 
L 132.274621 154.616796 
L 143.413194 154.800413 
L 153.657539 149.329317 
L 163.586903 158.974406 
L 173.206287 154.738595 
L 182.383557 160.284941 
L 191.176566 166.222313 
L 199.921006 153.184947 
L 208.359752 151.264929 
L 216.57494 161.697045 
L 224.71799 147.21978 
L 232.511777 170.639379 
L 240.357704 155.747113 
L 247.871508 157.535379 
L 255.30889 156.926581 
L 262.550569 162.607687 
L 269.825103 158.524823 
L 277.010358 157.167366 
L 284.095619 158.410568 
L 290.76162 169.051003 
L 297.542615 159.663809 
L 304.241472 164.162007 
L 310.856049 163.318518 
L 317.326349 164.54262 
L 323.777364 163.555524 
L 330.025536 168.951697 
L 336.382986 157.393315 
L 342.581161 160.012283 
L 348.760051 164.820475 
L 354.762524 161.201697 
L 360.698573 165.654556 
L 366.590339 158.834531 
L 372.315686 169.379658 
L 378.034606 167.357919 
L 383.665674 163.705372 
L 389.292457 175.410841 
L 394.844959 167.691683 
L 400.333893 163.871014 
L 405.635697 178.162785 
L 410.978926 165.286676 
L 416.239304 176.177197 
L 421.518252 161.882731 
L 426.786486 169.202261 
L 431.943299 162.480385 
L 436.990118 171.424909 
L 442.091935 166.840737 
L 446.873772 187.768091 
L 451.838454 175.286633 
L 456.735283 186.025303 
L 461.418555 184.393711 
L 466.11254 170.018986 
L 470.823667 170.376035 
L 475.464084 178.567754 
L 480.08236 166.89064 
L 484.576358 180.201156 
L 489.098212 179.116477 
L 493.565783 177.211654 
L 498.068352 164.962252 
L 502.520924 172.480515 
L 506.777795 177.735123 
L 511.092518 178.701735 
L 515.348675 182.730398 
L 519.623401 174.963606 
L 523.81099 171.947872 
L 527.905014 184.988338 
L 532.02975 177.134847 
L 536.109489 178.54723 
L 540.212797 181.355537 
L 544.281108 175.176469 
L 548.225142 180.404878 
L 552.103465 182.559401 
L 555.863939 187.70441 
L 559.684408 194.146037 
L 563.438454 180.767748 
L 567.149645 184.000264 
L 570.887977 172.550236 
L 574.544886 174.056816 
L 578.211794 180.189953 
L 581.801564 178.205755 
L 585.375621 177.291607 
L 588.899681 173.405101 
L 592.383744 173.907521 
L 595.819953 177.832999 
L 599.241162 173.31771 
L 602.563807 193.377798 
L 605.983588 179.739359 
L 609.381228 172.862359 
L 612.740298 169.170235 
L 616.076513 168.634319 
L 619.388444 172.409543 
L 622.604667 187.743249 
L 625.677327 195.69278 
L 628.818555 181.289747 
L 631.916214 176.295118 
L 635.0353 191.390593 
L 638.142958 176.009546 
L 641.213476 180.780182 
L 644.211855 191.535977 
L 647.260946 179.708789 
L 650.292895 198.906847 
L 653.284132 179.099572 
L 656.15252 193.904607 
L 659.072333 187.138396 
L 661.997146 168.477831 
L 664.938386 172.011752 
L 667.860342 182.101242 
L 670.675162 177.048308 
L 673.497124 188.374493 
L 676.3248 168.436218 
L 679.102479 172.077701 
L 681.859446 194.710979 
L 684.592128 176.384232 
L 687.291241 192.316896 
L 690.003924 172.390589 
L 692.594473 180.793861 
L 695.234304 174.683457 
L 697.869135 190.802459 
L 700.392545 180.747125 
L 702.971666 180.943775 
L 705.507218 176.229707 
L 707.982774 180.618646 
L 710.416904 182.885554 
L 712.862461 171.996244 
L 715.181599 194.410599 
L 717.557161 181.381642 
L 719.876298 181.251374 
L 722.199007 181.551062 
L 724.49886 180.320614 
L 726.710147 193.571115 
L 728.972859 189.614196 
L 733.346865 181.236777 
L 735.528868 173.448398 
L 737.643732 189.141654 
L 739.714314 188.675213 
L 741.804895 180.888064 
L 743.806909 182.26705 
L 745.828923 177.187158 
L 747.78594 181.602402 
L 749.725816 181.917206 
L 751.630694 181.375994 
L 753.532001 177.879695 
L 755.406881 173.695895 
L 757.199624 182.357688 
L 758.975939 183.361821 
L 760.756539 177.567565 
L 762.502856 177.965157 
L 764.224174 177.55412 
L 765.913352 182.067819 
L 767.528248 174.481258 
L 769.136717 182.817709 
L 770.713044 186.689519 
L 772.260803 174.380708 
L 773.765706 192.246376 
L 775.28418 181.732125 
L 776.69909 182.773069 
L 778.140426 178.419849 
L 779.544622 184.75082 
L 780.920963 174.054335 
L 782.274447 179.501568 
L 783.590792 182.380553 
L 784.858568 188.062683 
L 786.139914 178.672376 
L 787.357693 175.42861 
L 788.585472 183.146524 
L 789.772539 182.913562 
L 790.908895 186.597936 
L 792.037394 183.937721 
L 793.120182 183.654778 
L 794.207255 174.300927 
L 795.270758 171.399927 
L 796.296407 179.961728 
L 797.299914 176.079088 
L 798.259853 178.738671 
L 799.213363 188.059583 
L 800.120448 194.025089 
L 801.038961 171.573665 
L 801.917476 175.617596 
L 802.790991 187.430927 
L 803.623795 187.656437 
L 804.433743 186.523179 
L 805.219407 181.648739 
L 805.992929 187.247988 
L 806.746452 179.781551 
L 807.487119 179.405315 
L 808.177075 184.291544 
L 808.87703 187.757639 
L 809.561987 179.491828 
L 810.216945 178.526606 
L 810.856189 172.189907 
L 811.479721 182.674135 
L 812.085396 180.103972 
L 812.676787 171.063116 
L 813.22818 184.335539 
L 813.762432 188.421156 
L 814.287398 193.812891 
L 814.805937 175.123726 
L 815.312333 175.302746 
L 815.805158 174.908381 
L 816.275843 191.652514 
L 816.723671 188.187131 
L 817.154358 177.151612 
L 817.582188 189.143145 
L 817.996447 184.067284 
L 818.388564 194.291906 
L 819.159229 176.946487 
L 819.521349 180.782431 
L 819.867041 189.546204 
L 820.198449 186.090361 
L 820.851264 175.947941 
L 821.458368 189.541394 
L 821.746207 188.889413 
L 822.019761 176.536554 
L 822.544727 190.565493 
L 822.798996 172.430932 
L 823.043267 175.844024 
L 823.27968 188.517655 
L 823.506094 179.987388 
L 823.723223 193.896371 
L 823.938209 171.453462 
L 824.141053 185.289843 
L 824.340326 179.644057 
L 824.5246 186.013188 
L 825.053852 171.248829 
L 825.531679 184.841138 
L 825.678812 171.551032 
L 825.820946 189.625552 
L 826.090929 176.752624 
L 826.213064 189.380403 
L 826.455905 175.82545 
L 826.569469 185.416186 
L 826.680891 179.466501 
L 826.988014 183.793136 
L 827.172288 176.238742 
L 827.26014 179.348633 
L 827.343706 176.40433 
L 827.4237 193.76245 
L 827.497981 184.874522 
L 827.572262 186.052906 
L 827.712253 184.821146 
L 827.712253 184.821146 
" clip-path="url(#pcc8e3a22b9)" style="fill: none; stroke: #0000ff; stroke-width: 1.5; stroke-linecap: square"/>
   </g>
   <g id="line2d_27">
    <path d="M 130.489736 213.883065 
L 142.164703 130.940352 
L 152.813307 120.989639 
L 162.837665 126.211994 
L 172.449193 132.13127 
L 181.651461 139.647943 
L 190.53375 137.615758 
L 199.161055 135.246071 
L 207.471951 134.04083 
L 215.427156 140.67095 
L 223.195945 141.275843 
L 230.677609 142.415321 
L 237.926431 141.415871 
L 245.020977 142.328961 
L 251.943391 127.278518 
L 258.643676 149.961286 
L 265.149688 138.792765 
L 271.549993 151.608506 
L 277.835305 150.076752 
L 284.043479 135.550443 
L 289.821681 139.792062 
L 295.410609 148.160007 
L 301.188096 144.971646 
L 306.871304 137.270744 
L 312.444518 154.981063 
L 317.88417 135.925189 
L 323.265969 146.822641 
L 328.495634 139.326878 
L 333.657446 144.985491 
L 338.579988 145.641091 
L 343.5311 147.413097 
L 348.448643 136.391078 
L 353.266191 133.271387 
L 357.970176 143.722663 
L 362.574167 136.479959 
L 367.105306 152.178212 
L 371.592876 141.0502 
L 375.896172 142.89411 
L 380.153042 148.852883 
L 384.407055 153.280574 
L 388.588931 156.058817 
L 392.74795 142.033557 
L 396.786263 161.832589 
L 400.758866 142.242228 
L 404.670758 145.688765 
L 408.596221 159.939781 
L 412.377408 137.417778 
L 416.117169 138.991837 
L 419.831931 142.495195 
L 423.455985 142.298711 
L 427.07361 139.601147 
L 430.54196 140.309484 
L 434.017452 146.945598 
L 437.466516 131.390194 
L 440.829158 134.626183 
L 444.108234 162.870146 
L 447.378739 140.020726 
L 450.615675 135.863397 
L 453.829755 135.599201 
L 456.899558 142.436251 
L 459.993646 147.390724 
L 463.048451 136.14062 
L 466.043973 147.762862 
L 468.993784 146.656361 
L 471.882885 151.615518 
L 474.731274 143.190279 
L 477.495383 163.990411 
L 480.241636 154.123491 
L 482.952891 151.685838 
L 485.619149 159.813411 
L 488.201126 163.28242 
L 490.780961 164.997419 
L 493.312228 162.625164 
L 495.743501 168.711205 
L 498.156204 165.575334 
L 500.605332 167.295635 
L 502.963753 169.376232 
L 505.334316 164.939034 
L 507.702021 165.238277 
L 509.992589 167.56703 
L 512.308869 160.109068 
L 516.910003 171.613522 
L 519.142717 170.077091 
L 521.354719 159.049324 
L 523.569577 165.663976 
L 525.725868 162.970703 
L 527.892157 170.583815 
L 529.992737 165.645076 
L 532.120458 170.1339 
L 534.19104 175.477981 
L 536.271621 169.46345 
L 538.361487 166.710728 
L 540.4035 171.253719 
L 542.398372 175.267127 
L 544.403244 176.550292 
L 546.342405 182.683648 
L 548.308708 171.211181 
L 550.243584 172.049533 
L 552.149176 179.873785 
L 554.047626 177.6307 
L 555.905364 179.253272 
L 557.782387 174.672826 
L 559.671552 180.679765 
L 561.533576 169.478266 
L 563.389171 173.797237 
L 565.224054 180.663153 
L 567.041795 174.523929 
L 568.842394 180.76232 
L 570.597281 178.922055 
L 572.378596 170.561395 
L 574.144197 180.445932 
L 575.8898 174.904802 
L 577.598262 184.42144 
L 579.34815 174.161239 
L 581.056612 178.392659 
L 582.752932 173.889724 
L 584.473536 191.01143 
L 586.196997 188.129098 
L 587.870461 178.950303 
L 589.556782 177.870554 
L 591.200248 185.468311 
L 592.816573 178.527225 
L 594.392187 185.974762 
L 596.010655 181.790849 
L 597.615552 173.393439 
L 599.186166 191.519285 
L 600.745352 189.193433 
L 602.320251 185.605525 
L 603.888008 184.716757 
L 605.412196 182.087657 
L 606.971382 177.665488 
L 609.959762 193.951383 
L 611.484664 177.143656 
L 612.99671 181.771503 
L 614.478044 193.427302 
L 615.967949 176.728527 
L 617.395715 197.446691 
L 618.848479 196.004517 
L 620.312671 190.829317 
L 621.766149 180.599918 
L 623.205343 193.382814 
L 624.653821 180.896653 
L 626.0973 179.214366 
L 627.537208 186.896348 
L 628.965688 181.474648 
L 630.401311 178.265457 
L 631.832648 185.56954 
L 633.220416 182.154658 
L 634.61247 193.102126 
L 636.020951 178.609979 
L 637.431575 178.291297 
L 638.820058 196.005295 
L 640.207112 183.195954 
L 641.562025 183.232471 
L 642.92908 178.324248 
L 644.276851 182.164876 
L 645.625336 181.129747 
L 646.959537 186.262542 
L 648.29088 185.618983 
L 649.619366 174.650073 
L 650.932854 183.70458 
L 652.239913 182.253518 
L 653.559828 187.741879 
L 654.861888 179.110044 
L 656.141092 183.402969 
L 657.435295 188.65137 
L 658.711642 176.993668 
L 659.997274 181.50102 
L 661.287191 176.537133 
L 662.562109 175.703551 
L 663.814886 181.54266 
L 665.066949 177.210476 
L 666.305441 180.931574 
L 667.520364 197.509939 
L 668.760284 179.255341 
L 669.990205 178.761291 
L 671.200128 176.033962 
L 672.370767 186.652902 
L 673.539264 181.998802 
L 674.731331 175.762381 
L 675.898399 183.310169 
L 677.061896 180.198867 
L 678.240392 174.166401 
L 679.41246 177.49507 
L 680.577385 184.541476 
L 681.725883 171.247765 
L 682.857953 185.776342 
L 683.990738 175.237329 
L 685.109952 183.284396 
L 686.228452 177.292279 
L 687.314097 188.442146 
L 688.417597 180.171185 
L 689.527526 180.474673 
L 690.623171 175.112942 
L 691.698816 183.977066 
L 692.771604 183.803042 
L 693.846536 186.440711 
L 694.903611 188.353657 
L 695.974971 173.249426 
L 697.025618 179.067299 
L 698.059837 174.487765 
L 699.077629 182.178169 
L 700.119706 179.815447 
L 701.151068 172.494878 
L 702.176717 177.518215 
L 703.195223 169.751663 
L 704.210158 180.202367 
L 705.195095 187.273668 
L 706.197888 179.924233 
L 707.184968 183.026194 
L 708.174904 167.344088 
L 709.141985 170.835916 
L 710.107638 179.563791 
L 711.07829 175.235426 
L 712.0318 178.115437 
L 712.992453 171.090353 
L 713.947392 173.729525 
L 714.888046 174.873062 
L 715.822272 180.586094 
L 716.762926 176.542449 
L 717.671439 179.452769 
L 718.393536 208.756324 
L 719.76702 228.817317 
L 720.449119 222.63636 
L 721.122647 224.65931 
L 721.789747 227.514393 
L 722.450419 227.274612 
L 723.11252 220.25215 
L 724.422436 225.068398 
L 725.070252 223.187598 
L 725.710925 222.42709 
L 726.35017 219.321769 
L 726.978701 222.541724 
L 727.605089 232.76419 
L 728.221478 232.822868 
L 728.84001 228.152716 
L 729.454971 227.405659 
L 730.067789 228.491835 
L 730.674179 233.147412 
L 731.276997 228.375824 
L 731.883387 227.206248 
L 732.482634 228.015096 
L 733.081882 226.30514 
L 733.673272 225.272333 
L 734.266092 228.749059 
L 734.853197 224.942646 
L 735.433874 230.654607 
L 736.017408 223.862564 
L 736.5938 226.474341 
L 737.16662 227.090623 
L 737.732298 233.750475 
L 738.852941 223.118528 
L 739.412905 227.819197 
L 739.960013 235.01927 
L 740.516406 221.274851 
L 741.058514 224.768669 
L 741.601336 233.528238 
L 742.141302 223.400354 
L 742.675553 224.0024 
L 743.265516 339.213993 
L 743.506214 338.955193 
L 743.746199 340.559229 
L 743.985469 339.547571 
L 744.224026 339.781244 
L 744.462582 339.634024 
L 744.698281 339.987301 
L 744.931123 341.318627 
L 745.015404 390.116569 
L 745.015404 390.116569 
" clip-path="url(#pcc8e3a22b9)" style="fill: none; stroke: #9467bd; stroke-width: 1.5; stroke-linecap: square"/>
   </g>
   <g id="line2d_28">
    <path d="M 115.972093 449.566428 
L 119.871844 416.226034 
L 131.646804 138.769733 
L 141.444035 153.095733 
L 150.165619 185.824575 
L 158.762212 156.567969 
L 166.734559 157.040803 
L 174.525489 174.899147 
L 182.070006 159.53086 
L 189.491674 149.786098 
L 196.57622 163.842413 
L 203.472207 156.226022 
L 210.263916 160.31933 
L 216.815639 156.266384 
L 223.214515 169.199447 
L 229.484828 154.252043 
L 235.635149 160.900745 
L 241.541199 158.255079 
L 247.367255 170.722706 
L 253.067604 167.113395 
L 258.545111 172.479511 
L 264.019761 159.056662 
L 269.167288 171.218725 
L 274.497661 164.744806 
L 279.686615 160.259175 
L 284.706294 169.545479 
L 289.731686 160.716828 
L 294.472812 185.427815 
L 299.131799 179.314005 
L 303.862925 185.160526 
L 308.57548 166.468586 
L 313.29375 154.099674 
L 317.847744 166.303277 
L 322.281032 181.922442 
L 326.736461 170.117933 
L 331.150464 171.141925 
L 335.499471 176.921871 
L 339.657777 180.280477 
L 343.928932 182.126416 
L 348.135091 166.918368 
L 352.100552 184.96818 
L 356.125294 170.673621 
L 360.144323 160.333168 
L 364.064072 168.325835 
L 368.037389 167.465255 
L 371.957138 168.143841 
L 375.748324 175.608469 
L 379.545938 168.620793 
L 383.319982 168.253758 
L 387.006889 179.792195 
L 390.610944 174.482462 
L 394.263567 179.61881 
L 397.834767 168.67349 
L 401.328829 179.078968 
L 404.821463 180.046093 
L 408.231245 166.689984 
L 411.668168 169.909215 
L 415.056522 169.478259 
L 418.312742 175.394774 
L 421.642529 166.595016 
L 424.827325 176.340223 
L 428.109258 174.036033 
L 431.31191 170.5143 
L 434.444567 167.314456 
L 437.510085 171.208473 
L 440.603459 179.588553 
L 443.631122 179.966013 
L 446.6545 171.439718 
L 449.522173 189.700855 
L 452.39199 172.532068 
L 455.336087 181.01313 
L 458.216617 180.579135 
L 461.142858 171.964318 
L 464.056243 161.239186 
L 466.873206 168.273524 
L 469.694454 175.735038 
L 472.464276 179.230373 
L 475.249812 178.64309 
L 477.941069 172.213199 
L 480.685893 169.885111 
L 483.381435 167.791302 
L 486.021266 171.630753 
L 488.569674 191.471458 
L 491.191649 175.456219 
L 493.822195 172.965491 
L 496.443456 183.513665 
L 498.998292 172.895676 
L 501.548844 188.116045 
L 504.067254 185.021961 
L 506.562094 180.935519 
L 509.055506 189.567061 
L 511.563917 173.493444 
L 514.031616 182.241556 
L 516.47146 186.785246 
L 518.945587 171.101343 
L 521.409715 178.399245 
L 523.85813 178.152939 
L 526.254405 178.836334 
L 528.685678 175.458927 
L 531.079096 178.686812 
L 533.404662 179.933467 
L 535.707372 190.501673 
L 538.085791 176.827348 
L 540.448497 176.616069 
L 542.769062 185.342127 
L 545.10177 172.852447 
L 547.331628 182.509112 
L 549.59934 183.895742 
L 551.855624 189.674111 
L 554.145477 185.595665 
L 556.391762 178.56792 
L 558.562337 190.088434 
L 560.815764 186.240621 
L 563.054193 182.744435 
L 565.279764 179.691931 
L 567.536763 182.4096 
L 569.780905 196.423756 
L 571.949338 187.402439 
L 574.0992 199.318589 
L 576.322629 190.199263 
L 578.471063 185.78233 
L 580.594499 194.254903 
L 582.74079 193.416078 
L 584.890652 189.705153 
L 587.077655 175.074621 
L 589.263229 191.689604 
L 591.43809 184.970794 
L 593.565097 197.395311 
L 595.68139 194.66912 
L 597.834824 184.873398 
L 599.932547 182.76764 
L 602.069553 187.832064 
L 604.173704 187.196555 
L 606.294996 184.640703 
L 608.397005 184.558946 
L 610.480443 189.183986 
L 612.523169 203.996512 
L 614.583037 188.088995 
L 616.676475 186.791333 
L 618.530642 183.285973 
L 620.374095 198.907878 
L 622.214692 175.668783 
L 624.090286 179.364507 
L 625.946596 179.216196 
L 627.807191 179.44768 
L 629.630646 184.114892 
L 631.479813 171.741309 
L 633.349693 168.272067 
L 635.174577 175.695215 
L 637.014459 179.590203 
L 638.857912 180.006462 
L 640.699937 178.754924 
L 642.519821 171.886194 
L 644.312563 180.730978 
L 646.11959 178.976755 
L 647.898762 178.078673 
L 649.713646 171.181449 
L 651.516388 187.417921 
L 653.23842 181.582071 
L 655.029734 188.50391 
L 658.495227 181.448875 
L 660.237972 185.14744 
L 661.97929 181.412212 
L 663.709893 176.751386 
L 665.426926 177.086468 
L 667.15753 185.194801 
L 668.850278 182.229455 
L 670.578025 173.750528 
L 672.299343 173.527207 
L 674.009948 179.968022 
L 675.6577 182.158809 
L 677.359734 176.028566 
L 679.030341 173.01733 
L 680.703091 185.003293 
L 682.373699 180.35127 
L 684.037164 181.240363 
L 685.652774 176.943672 
L 687.275528 177.002616 
L 688.912566 191.854028 
L 690.54389 185.940739 
L 692.176643 177.70273 
L 693.782968 188.884989 
L 695.404293 177.195986 
L 696.964193 181.067351 
L 698.531236 193.881608 
L 700.100421 172.747346 
L 701.663892 179.313313 
L 703.238077 176.829071 
L 704.785121 177.435521 
L 706.337165 185.071957 
L 707.885637 169.890467 
L 709.423396 185.275373 
L 710.947584 172.720655 
L 712.466058 178.129434 
L 713.970248 177.499913 
L 715.468723 169.968205 
L 716.910774 186.593758 
L 718.342825 181.120766 
L 719.802017 183.796908 
L 721.229783 185.614706 
L 722.680404 174.278687 
L 724.093885 178.113062 
L 725.465226 194.382358 
L 726.871565 182.955162 
L 728.263619 185.321657 
L 729.645673 179.056209 
L 731.009157 178.351099 
L 732.36407 187.473292 
L 733.711841 182.806392 
L 735.043899 179.07181 
L 736.385242 176.780858 
L 737.7023 183.024737 
L 738.995075 185.682331 
L 740.274993 178.792259 
L 741.565624 180.960467 
L 742.859113 195.906667 
L 744.133317 178.851216 
L 745.359667 182.52776 
L 746.585303 178.43851 
L 747.805225 178.006956 
L 749.013005 196.033968 
L 750.160788 184.398301 
L 751.336428 192.202328 
L 752.469926 202.88584 
L 753.656993 183.386124 
L 754.810491 179.240485 
L 755.973274 184.173416 
L 757.147484 187.86437 
L 758.342408 190.386912 
L 759.540188 186.979029 
L 760.728684 182.465224 
L 761.846469 199.688571 
L 763.002109 190.347428 
L 764.137751 175.601756 
L 765.259108 175.865061 
L 766.339753 195.198224 
L 767.418255 184.933279 
L 768.500329 187.691011 
L 769.547405 187.190189 
L 770.618765 179.669198 
L 771.650127 190.750887 
L 772.69506 175.009657 
L 773.689283 185.104715 
L 774.679933 179.927839 
L 775.847716 179.972952 
L 776.322685 423.226436 
L 776.522673 425.749644 
L 776.575526 445.295158 
L 776.714803 422.675132 
L 776.875507 437.021696 
L 776.931932 417.80354 
L 777.06121 437.648982 
L 777.205486 421.568778 
L 777.30048 428.240831 
L 777.424044 423.784048 
L 777.602604 406.658989 
L 777.606889 461.32796 
L 777.716882 460.262468 
L 777.77045 461.282382 
L 777.766164 460.004312 
L 777.828303 460.657345 
L 777.839731 460.909938 
L 777.943296 458.167667 
L 777.974723 461.287039 
L 778.041147 460.212924 
" clip-path="url(#pcc8e3a22b9)" style="fill: none; stroke: #ff7f0e; stroke-width: 1.5; stroke-linecap: square"/>
   </g>
   <g id="patch_3">
    <path d="M 115.2 461.376 
L 115.2 62.208 
" style="fill: none; stroke: #000000; stroke-width: 0.8; stroke-linejoin: miter; stroke-linecap: square"/>
   </g>
   <g id="patch_4">
    <path d="M 829.44 461.376 
L 829.44 62.208 
" style="fill: none; stroke: #000000; stroke-width: 0.8; stroke-linejoin: miter; stroke-linecap: square"/>
   </g>
   <g id="patch_5">
    <path d="M 115.2 461.376 
L 829.44 461.376 
" style="fill: none; stroke: #000000; stroke-width: 0.8; stroke-linejoin: miter; stroke-linecap: square"/>
   </g>
   <g id="patch_6">
    <path d="M 115.2 62.208 
L 829.44 62.208 
" style="fill: none; stroke: #000000; stroke-width: 0.8; stroke-linejoin: miter; stroke-linecap: square"/>
   </g>
   <g id="legend_1">
    <g id="patch_7">
     <path d="M 404.976875 318.370437 
L 539.663125 318.370437 
Q 543.463125 318.370437 543.463125 314.570437 
L 543.463125 209.013563 
Q 543.463125 205.213563 539.663125 205.213563 
L 404.976875 205.213563 
Q 401.176875 205.213563 401.176875 209.013563 
L 401.176875 314.570437 
Q 401.176875 318.370437 404.976875 318.370437 
z
" style="fill: #ffffff; opacity: 0.8; stroke: #cccccc; stroke-linejoin: miter"/>
    </g>
    <g id="line2d_29">
     <path d="M 408.776875 219.463562 
L 427.776875 219.463562 
L 446.776875 219.463562 
" style="fill: none; stroke: #ff0000; stroke-width: 1.5; stroke-linecap: square"/>
    </g>
    <g id="text_27">
     <!-- MemC3-t -->
     <g transform="translate(461.976875 226.113563) scale(0.19 -0.19)">
      <defs>
       <path id="TimesNewRomanPSMT-4d" d="M 2619 0 
L 981 3566 
L 981 734 
Q 981 344 1066 247 
Q 1181 116 1431 116 
L 1581 116 
L 1581 0 
L 106 0 
L 106 116 
L 256 116 
Q 525 116 638 278 
Q 706 378 706 734 
L 706 3503 
Q 706 3784 644 3909 
Q 600 4000 483 4061 
Q 366 4122 106 4122 
L 106 4238 
L 1306 4238 
L 2844 922 
L 4356 4238 
L 5556 4238 
L 5556 4122 
L 5409 4122 
Q 5138 4122 5025 3959 
Q 4956 3859 4956 3503 
L 4956 734 
Q 4956 344 5044 247 
Q 5159 116 5409 116 
L 5556 116 
L 5556 0 
L 3756 0 
L 3756 116 
L 3906 116 
Q 4178 116 4288 278 
Q 4356 378 4356 734 
L 4356 3566 
L 2722 0 
L 2619 0 
z
" transform="scale(0.015625)"/>
       <path id="TimesNewRomanPSMT-65" d="M 681 1784 
Q 678 1147 991 784 
Q 1303 422 1725 422 
Q 2006 422 2214 576 
Q 2422 731 2563 1106 
L 2659 1044 
Q 2594 616 2278 264 
Q 1963 -88 1488 -88 
Q 972 -88 605 314 
Q 238 716 238 1394 
Q 238 2128 614 2539 
Q 991 2950 1559 2950 
Q 2041 2950 2350 2633 
Q 2659 2316 2659 1784 
L 681 1784 
z
M 681 1966 
L 2006 1966 
Q 1991 2241 1941 2353 
Q 1863 2528 1708 2628 
Q 1553 2728 1384 2728 
Q 1125 2728 920 2526 
Q 716 2325 681 1966 
z
" transform="scale(0.015625)"/>
       <path id="TimesNewRomanPSMT-6d" d="M 1050 2338 
Q 1363 2650 1419 2697 
Q 1559 2816 1721 2881 
Q 1884 2947 2044 2947 
Q 2313 2947 2506 2790 
Q 2700 2634 2766 2338 
Q 3088 2713 3309 2830 
Q 3531 2947 3766 2947 
Q 3994 2947 4170 2830 
Q 4347 2713 4450 2447 
Q 4519 2266 4519 1878 
L 4519 647 
Q 4519 378 4559 278 
Q 4591 209 4675 161 
Q 4759 113 4950 113 
L 4950 0 
L 3538 0 
L 3538 113 
L 3597 113 
Q 3781 113 3884 184 
Q 3956 234 3988 344 
Q 4000 397 4000 647 
L 4000 1878 
Q 4000 2228 3916 2372 
Q 3794 2572 3525 2572 
Q 3359 2572 3192 2489 
Q 3025 2406 2788 2181 
L 2781 2147 
L 2788 2013 
L 2788 647 
Q 2788 353 2820 281 
Q 2853 209 2943 161 
Q 3034 113 3253 113 
L 3253 0 
L 1806 0 
L 1806 113 
Q 2044 113 2133 169 
Q 2222 225 2256 338 
Q 2272 391 2272 647 
L 2272 1878 
Q 2272 2228 2169 2381 
Q 2031 2581 1784 2581 
Q 1616 2581 1450 2491 
Q 1191 2353 1050 2181 
L 1050 647 
Q 1050 366 1089 281 
Q 1128 197 1204 155 
Q 1281 113 1516 113 
L 1516 0 
L 100 0 
L 100 113 
Q 297 113 375 155 
Q 453 197 493 289 
Q 534 381 534 647 
L 534 1741 
Q 534 2213 506 2350 
Q 484 2453 437 2492 
Q 391 2531 309 2531 
Q 222 2531 100 2484 
L 53 2597 
L 916 2947 
L 1050 2947 
L 1050 2338 
z
" transform="scale(0.015625)"/>
       <path id="TimesNewRomanPSMT-43" d="M 3853 4334 
L 3950 2894 
L 3853 2894 
Q 3659 3541 3300 3825 
Q 2941 4109 2438 4109 
Q 2016 4109 1675 3895 
Q 1334 3681 1139 3212 
Q 944 2744 944 2047 
Q 944 1472 1128 1050 
Q 1313 628 1683 403 
Q 2053 178 2528 178 
Q 2941 178 3256 354 
Q 3572 531 3950 1056 
L 4047 994 
Q 3728 428 3303 165 
Q 2878 -97 2294 -97 
Q 1241 -97 663 684 
Q 231 1266 231 2053 
Q 231 2688 515 3219 
Q 800 3750 1298 4042 
Q 1797 4334 2388 4334 
Q 2847 4334 3294 4109 
Q 3425 4041 3481 4041 
Q 3566 4041 3628 4100 
Q 3709 4184 3744 4334 
L 3853 4334 
z
" transform="scale(0.015625)"/>
       <path id="TimesNewRomanPSMT-33" d="M 325 3431 
Q 506 3859 782 4092 
Q 1059 4325 1472 4325 
Q 1981 4325 2253 3994 
Q 2459 3747 2459 3466 
Q 2459 3003 1878 2509 
Q 2269 2356 2469 2072 
Q 2669 1788 2669 1403 
Q 2669 853 2319 450 
Q 1863 -75 997 -75 
Q 569 -75 414 31 
Q 259 138 259 259 
Q 259 350 332 419 
Q 406 488 509 488 
Q 588 488 669 463 
Q 722 447 909 348 
Q 1097 250 1169 231 
Q 1284 197 1416 197 
Q 1734 197 1970 444 
Q 2206 691 2206 1028 
Q 2206 1275 2097 1509 
Q 2016 1684 1919 1775 
Q 1784 1900 1550 2001 
Q 1316 2103 1072 2103 
L 972 2103 
L 972 2197 
Q 1219 2228 1467 2375 
Q 1716 2522 1828 2728 
Q 1941 2934 1941 3181 
Q 1941 3503 1739 3701 
Q 1538 3900 1238 3900 
Q 753 3900 428 3381 
L 325 3431 
z
" transform="scale(0.015625)"/>
       <path id="TimesNewRomanPSMT-2d" d="M 259 1672 
L 1875 1672 
L 1875 1200 
L 259 1200 
L 259 1672 
z
" transform="scale(0.015625)"/>
       <path id="TimesNewRomanPSMT-74" d="M 1031 3803 
L 1031 2863 
L 1700 2863 
L 1700 2644 
L 1031 2644 
L 1031 788 
Q 1031 509 1111 412 
Q 1191 316 1316 316 
Q 1419 316 1516 380 
Q 1613 444 1666 569 
L 1788 569 
Q 1678 263 1478 108 
Q 1278 -47 1066 -47 
Q 922 -47 784 33 
Q 647 113 581 261 
Q 516 409 516 719 
L 516 2644 
L 63 2644 
L 63 2747 
Q 234 2816 414 2980 
Q 594 3144 734 3369 
Q 806 3488 934 3803 
L 1031 3803 
z
" transform="scale(0.015625)"/>
      </defs>
      <use xlink:href="#TimesNewRomanPSMT-4d"/>
      <use xlink:href="#TimesNewRomanPSMT-65" x="88.916016"/>
      <use xlink:href="#TimesNewRomanPSMT-6d" x="133.300781"/>
      <use xlink:href="#TimesNewRomanPSMT-43" x="211.083984"/>
      <use xlink:href="#TimesNewRomanPSMT-33" x="277.783203"/>
      <use xlink:href="#TimesNewRomanPSMT-2d" x="327.783203"/>
      <use xlink:href="#TimesNewRomanPSMT-74" x="361.083984"/>
     </g>
    </g>
    <g id="line2d_30">
     <path d="M 408.776875 246.327781 
L 427.776875 246.327781 
L 446.776875 246.327781 
" style="fill: none; stroke: #0000ff; stroke-width: 1.5; stroke-linecap: square"/>
    </g>
    <g id="text_28">
     <!-- caleKV -->
     <g transform="translate(461.976875 252.977781) scale(0.19 -0.19)">
      <defs>
       <path id="TimesNewRomanPSMT-63" d="M 2631 1088 
Q 2516 522 2178 217 
Q 1841 -88 1431 -88 
Q 944 -88 581 321 
Q 219 731 219 1428 
Q 219 2103 620 2525 
Q 1022 2947 1584 2947 
Q 2006 2947 2278 2723 
Q 2550 2500 2550 2259 
Q 2550 2141 2473 2067 
Q 2397 1994 2259 1994 
Q 2075 1994 1981 2113 
Q 1928 2178 1911 2362 
Q 1894 2547 1784 2644 
Q 1675 2738 1481 2738 
Q 1169 2738 978 2506 
Q 725 2200 725 1697 
Q 725 1184 976 792 
Q 1228 400 1656 400 
Q 1963 400 2206 609 
Q 2378 753 2541 1131 
L 2631 1088 
z
" transform="scale(0.015625)"/>
       <path id="TimesNewRomanPSMT-61" d="M 1822 413 
Q 1381 72 1269 19 
Q 1100 -59 909 -59 
Q 613 -59 420 144 
Q 228 347 228 678 
Q 228 888 322 1041 
Q 450 1253 767 1440 
Q 1084 1628 1822 1897 
L 1822 2009 
Q 1822 2438 1686 2597 
Q 1550 2756 1291 2756 
Q 1094 2756 978 2650 
Q 859 2544 859 2406 
L 866 2225 
Q 866 2081 792 2003 
Q 719 1925 600 1925 
Q 484 1925 411 2006 
Q 338 2088 338 2228 
Q 338 2497 613 2722 
Q 888 2947 1384 2947 
Q 1766 2947 2009 2819 
Q 2194 2722 2281 2516 
Q 2338 2381 2338 1966 
L 2338 994 
Q 2338 584 2353 492 
Q 2369 400 2405 369 
Q 2441 338 2488 338 
Q 2538 338 2575 359 
Q 2641 400 2828 588 
L 2828 413 
Q 2478 -56 2159 -56 
Q 2006 -56 1915 50 
Q 1825 156 1822 413 
z
M 1822 616 
L 1822 1706 
Q 1350 1519 1213 1441 
Q 966 1303 859 1153 
Q 753 1003 753 825 
Q 753 600 887 451 
Q 1022 303 1197 303 
Q 1434 303 1822 616 
z
" transform="scale(0.015625)"/>
       <path id="TimesNewRomanPSMT-6c" d="M 1184 4444 
L 1184 647 
Q 1184 378 1223 290 
Q 1263 203 1344 158 
Q 1425 113 1647 113 
L 1647 0 
L 244 0 
L 244 113 
Q 441 113 512 153 
Q 584 194 625 287 
Q 666 381 666 647 
L 666 3247 
Q 666 3731 644 3842 
Q 622 3953 573 3993 
Q 525 4034 450 4034 
Q 369 4034 244 3984 
L 191 4094 
L 1044 4444 
L 1184 4444 
z
" transform="scale(0.015625)"/>
       <path id="TimesNewRomanPSMT-4b" d="M 1913 2350 
L 3475 797 
Q 3859 413 4131 273 
Q 4403 134 4675 116 
L 4675 0 
L 2659 0 
L 2659 116 
Q 2841 116 2920 177 
Q 3000 238 3000 313 
Q 3000 388 2970 447 
Q 2941 506 2775 669 
L 1313 2116 
L 1313 750 
Q 1313 428 1353 325 
Q 1384 247 1484 191 
Q 1619 116 1769 116 
L 1913 116 
L 1913 0 
L 106 0 
L 106 116 
L 256 116 
Q 519 116 638 269 
Q 713 369 713 750 
L 713 3488 
Q 713 3809 672 3916 
Q 641 3991 544 4047 
Q 406 4122 256 4122 
L 106 4122 
L 106 4238 
L 1913 4238 
L 1913 4122 
L 1769 4122 
Q 1622 4122 1484 4050 
Q 1388 4000 1350 3900 
Q 1313 3800 1313 3488 
L 1313 2191 
Q 1375 2250 1741 2588 
Q 2669 3438 2863 3722 
Q 2947 3847 2947 3941 
Q 2947 4013 2881 4067 
Q 2816 4122 2659 4122 
L 2563 4122 
L 2563 4238 
L 4119 4238 
L 4119 4122 
Q 3981 4119 3868 4084 
Q 3756 4050 3593 3951 
Q 3431 3853 3194 3634 
Q 3125 3572 2559 2994 
L 1913 2350 
z
" transform="scale(0.015625)"/>
       <path id="TimesNewRomanPSMT-56" d="M 4544 4238 
L 4544 4122 
Q 4319 4081 4203 3978 
Q 4038 3825 3909 3509 
L 2431 -97 
L 2316 -97 
L 728 3556 
Q 606 3838 556 3900 
Q 478 3997 364 4051 
Q 250 4106 56 4122 
L 56 4238 
L 1788 4238 
L 1788 4122 
Q 1494 4094 1406 4022 
Q 1319 3950 1319 3838 
Q 1319 3681 1463 3350 
L 2541 866 
L 3541 3319 
Q 3688 3681 3688 3822 
Q 3688 3913 3597 3995 
Q 3506 4078 3291 4113 
Q 3275 4116 3238 4122 
L 3238 4238 
L 4544 4238 
z
" transform="scale(0.015625)"/>
      </defs>
      <use xlink:href="#TimesNewRomanPSMT-63"/>
      <use xlink:href="#TimesNewRomanPSMT-61" x="44.384766"/>
      <use xlink:href="#TimesNewRomanPSMT-6c" x="88.769531"/>
      <use xlink:href="#TimesNewRomanPSMT-65" x="116.552734"/>
      <use xlink:href="#TimesNewRomanPSMT-4b" x="160.9375"/>
      <use xlink:href="#TimesNewRomanPSMT-56" x="233.154297"/>
     </g>
    </g>
    <g id="line2d_31">
     <path d="M 408.776875 273.192 
L 427.776875 273.192 
L 446.776875 273.192 
" style="fill: none; stroke: #9467bd; stroke-width: 1.5; stroke-linecap: square"/>
    </g>
    <g id="text_29">
     <!-- MICA-t -->
     <g transform="translate(461.976875 279.842) scale(0.19 -0.19)">
      <defs>
       <path id="TimesNewRomanPSMT-49" d="M 1975 116 
L 1975 0 
L 159 0 
L 159 116 
L 309 116 
Q 572 116 691 269 
Q 766 369 766 750 
L 766 3488 
Q 766 3809 725 3913 
Q 694 3991 597 4047 
Q 459 4122 309 4122 
L 159 4122 
L 159 4238 
L 1975 4238 
L 1975 4122 
L 1822 4122 
Q 1563 4122 1444 3969 
Q 1366 3869 1366 3488 
L 1366 750 
Q 1366 428 1406 325 
Q 1438 247 1538 191 
Q 1672 116 1822 116 
L 1975 116 
z
" transform="scale(0.015625)"/>
       <path id="TimesNewRomanPSMT-41" d="M 2928 1419 
L 1288 1419 
L 1000 750 
Q 894 503 894 381 
Q 894 284 986 211 
Q 1078 138 1384 116 
L 1384 0 
L 50 0 
L 50 116 
Q 316 163 394 238 
Q 553 388 747 847 
L 2238 4334 
L 2347 4334 
L 3822 809 
Q 4000 384 4145 257 
Q 4291 131 4550 116 
L 4550 0 
L 2878 0 
L 2878 116 
Q 3131 128 3220 200 
Q 3309 272 3309 375 
Q 3309 513 3184 809 
L 2928 1419 
z
M 2841 1650 
L 2122 3363 
L 1384 1650 
L 2841 1650 
z
" transform="scale(0.015625)"/>
      </defs>
      <use xlink:href="#TimesNewRomanPSMT-4d"/>
      <use xlink:href="#TimesNewRomanPSMT-49" x="88.916016"/>
      <use xlink:href="#TimesNewRomanPSMT-43" x="122.216797"/>
      <use xlink:href="#TimesNewRomanPSMT-41" x="188.916016"/>
      <use xlink:href="#TimesNewRomanPSMT-2d" x="261.132812"/>
      <use xlink:href="#TimesNewRomanPSMT-74" x="294.433594"/>
     </g>
    </g>
    <g id="line2d_32">
     <path d="M 408.776875 300.056219 
L 427.776875 300.056219 
L 446.776875 300.056219 
" style="fill: none; stroke: #ff7f0e; stroke-width: 1.5; stroke-linecap: square"/>
    </g>
    <g id="text_30">
     <!-- caleKV -->
     <g transform="translate(461.976875 306.706219) scale(0.19 -0.19)">
      <use xlink:href="#TimesNewRomanPSMT-63"/>
      <use xlink:href="#TimesNewRomanPSMT-61" x="44.384766"/>
      <use xlink:href="#TimesNewRomanPSMT-6c" x="88.769531"/>
      <use xlink:href="#TimesNewRomanPSMT-65" x="116.552734"/>
      <use xlink:href="#TimesNewRomanPSMT-4b" x="160.9375"/>
      <use xlink:href="#TimesNewRomanPSMT-56" x="233.154297"/>
     </g>
    </g>
   </g>
  </g>
 </g>
 <defs>
  <clipPath id="pcc8e3a22b9">
   <rect x="115.2" y="62.208" width="714.24" height="399.168"/>
  </clipPath>
 </defs>
</svg>
