<?xml version="1.0" encoding="utf-8" standalone="no"?>
<!DOCTYPE svg PUBLIC "-//W3C//DTD SVG 1.1//EN"
  "http://www.w3.org/Graphics/SVG/1.1/DTD/svg11.dtd">
<svg xmlns:xlink="http://www.w3.org/1999/xlink" width="921.6pt" height="518.4pt" viewBox="0 0 921.6 518.4" xmlns="http://www.w3.org/2000/svg" version="1.1">
 <metadata>
  <rdf:RDF xmlns:dc="http://purl.org/dc/elements/1.1/" xmlns:cc="http://creativecommons.org/ns#" xmlns:rdf="http://www.w3.org/1999/02/22-rdf-syntax-ns#">
   <cc:Work>
    <dc:type rdf:resource="http://purl.org/dc/dcmitype/StillImage"/>
    <dc:date>2023-08-26T17:29:50.124359</dc:date>
    <dc:format>image/svg+xml</dc:format>
    <dc:creator>
     <cc:Agent>
      <dc:title>Matplotlib v3.7.1, https://matplotlib.org/</dc:title>
     </cc:Agent>
    </dc:creator>
   </cc:Work>
  </rdf:RDF>
 </metadata>
 <defs>
  <style type="text/css">*{stroke-linejoin: round; stroke-linecap: butt}</style>
 </defs>
 <g id="figure_1">
  <g id="patch_1">
   <path d="M 0 518.4 
L 921.6 518.4 
L 921.6 0 
L 0 0 
z
" style="fill: #ffffff"/>
  </g>
  <g id="axes_1">
   <g id="patch_2">
    <path d="M 115.2 461.376 
L 829.44 461.376 
L 829.44 62.208 
L 115.2 62.208 
z
" style="fill: #ffffff"/>
   </g>
   <g id="matplotlib.axis_1">
    <g id="xtick_1">
     <g id="line2d_1">
      <defs>
       <path id="m38a4d7391d" d="M 0 0 
L 0 3.5 
" style="stroke: #000000; stroke-width: 0.8"/>
      </defs>
      <g>
       <use xlink:href="#m38a4d7391d" x="115.2" y="461.376" style="stroke: #000000; stroke-width: 0.8"/>
      </g>
     </g>
     <g id="text_1">
      <!-- 0 -->
      <g transform="translate(110.45 481.958031) scale(0.19 -0.19)">
       <defs>
        <path id="SimSun-30" d="M 1600 4225 
Q 1250 4225 1012 3687 
Q 775 3150 775 2250 
Q 775 1300 1012 775 
Q 1250 250 1600 250 
Q 1975 250 2187 775 
Q 2400 1300 2400 2250 
Q 2400 3150 2200 3687 
Q 2000 4225 1600 4225 
z
M 1600 50 
Q 1050 50 675 625 
Q 300 1200 300 2250 
Q 300 3225 662 3825 
Q 1025 4425 1600 4425 
Q 2150 4425 2512 3850 
Q 2875 3275 2875 2250 
Q 2875 1225 2512 637 
Q 2150 50 1600 50 
z
" transform="scale(0.015625)"/>
       </defs>
       <use xlink:href="#SimSun-30"/>
      </g>
     </g>
    </g>
    <g id="xtick_2">
     <g id="line2d_2">
      <g>
       <use xlink:href="#m38a4d7391d" x="186.624" y="461.376" style="stroke: #000000; stroke-width: 0.8"/>
      </g>
     </g>
     <g id="text_2">
      <!-- 200 -->
      <g transform="translate(172.374 481.958031) scale(0.19 -0.19)">
       <defs>
        <path id="SimSun-32" d="M 2325 3325 
Q 2325 3775 2125 4012 
Q 1925 4250 1525 4250 
Q 1225 4250 1012 4087 
Q 800 3925 800 3675 
Q 800 3525 900 3425 
Q 975 3325 975 3225 
Q 975 3100 912 3037 
Q 850 2975 725 2975 
Q 575 2975 487 3062 
Q 400 3150 400 3350 
Q 400 3875 775 4150 
Q 1150 4425 1575 4425 
Q 2175 4425 2462 4125 
Q 2750 3825 2750 3375 
Q 2750 3075 2612 2775 
Q 2475 2475 2175 2200 
Q 1450 1500 1062 1062 
Q 675 625 600 475 
L 2075 475 
Q 2300 475 2450 650 
Q 2600 825 2650 1175 
L 2800 1175 
L 2650 100 
L 325 100 
L 325 425 
Q 450 650 737 1000 
Q 1025 1350 1500 1825 
Q 1925 2250 2125 2625 
Q 2325 3000 2325 3325 
z
" transform="scale(0.015625)"/>
       </defs>
       <use xlink:href="#SimSun-32"/>
       <use xlink:href="#SimSun-30" x="50"/>
       <use xlink:href="#SimSun-30" x="100"/>
      </g>
     </g>
    </g>
    <g id="xtick_3">
     <g id="line2d_3">
      <g>
       <use xlink:href="#m38a4d7391d" x="258.048" y="461.376" style="stroke: #000000; stroke-width: 0.8"/>
      </g>
     </g>
     <g id="text_3">
      <!-- 400 -->
      <g transform="translate(243.798 481.958031) scale(0.19 -0.19)">
       <defs>
        <path id="SimSun-34" d="M 2300 575 
Q 2300 400 2400 325 
Q 2500 250 2675 250 
L 2900 250 
L 2900 100 
L 1250 100 
L 1250 250 
L 1525 250 
Q 1725 250 1812 325 
Q 1900 400 1900 575 
L 1900 1400 
L 225 1400 
L 225 1525 
L 2050 4425 
L 2300 4425 
L 2300 1550 
L 2975 1550 
L 2975 1400 
L 2300 1400 
L 2300 575 
z
M 1875 3800 
L 450 1550 
L 1900 1550 
L 1900 3800 
L 1875 3800 
z
" transform="scale(0.015625)"/>
       </defs>
       <use xlink:href="#SimSun-34"/>
       <use xlink:href="#SimSun-30" x="50"/>
       <use xlink:href="#SimSun-30" x="100"/>
      </g>
     </g>
    </g>
    <g id="xtick_4">
     <g id="line2d_4">
      <g>
       <use xlink:href="#m38a4d7391d" x="329.472" y="461.376" style="stroke: #000000; stroke-width: 0.8"/>
      </g>
     </g>
     <g id="text_4">
      <!-- 600 -->
      <g transform="translate(315.222 481.958031) scale(0.19 -0.19)">
       <defs>
        <path id="SimSun-36" d="M 775 1800 
Q 775 1050 1037 637 
Q 1300 225 1675 225 
Q 2050 225 2250 500 
Q 2450 775 2450 1525 
Q 2450 2025 2237 2300 
Q 2025 2575 1725 2575 
Q 1450 2575 1212 2412 
Q 975 2250 775 1800 
z
M 1750 2825 
Q 2350 2825 2612 2425 
Q 2875 2025 2875 1525 
Q 2875 775 2512 412 
Q 2150 50 1675 50 
Q 1000 50 650 562 
Q 300 1075 300 2050 
Q 300 3200 725 3812 
Q 1150 4425 1875 4425 
Q 2225 4425 2437 4225 
Q 2650 4025 2650 3875 
Q 2650 3725 2587 3650 
Q 2525 3575 2375 3575 
Q 2250 3575 2187 3637 
Q 2125 3700 2125 3825 
Q 2125 3875 2150 3925 
Q 2150 3975 2150 4025 
Q 2150 4125 2075 4187 
Q 2000 4250 1800 4250 
Q 1375 4250 1075 3862 
Q 775 3475 775 2175 
Q 925 2500 1187 2662 
Q 1450 2825 1750 2825 
z
" transform="scale(0.015625)"/>
       </defs>
       <use xlink:href="#SimSun-36"/>
       <use xlink:href="#SimSun-30" x="50"/>
       <use xlink:href="#SimSun-30" x="100"/>
      </g>
     </g>
    </g>
    <g id="xtick_5">
     <g id="line2d_5">
      <g>
       <use xlink:href="#m38a4d7391d" x="400.896" y="461.376" style="stroke: #000000; stroke-width: 0.8"/>
      </g>
     </g>
     <g id="text_5">
      <!-- 800 -->
      <g transform="translate(386.646 481.958031) scale(0.19 -0.19)">
       <defs>
        <path id="SimSun-38" d="M 625 1125 
Q 625 725 887 475 
Q 1150 225 1550 225 
Q 2025 225 2237 475 
Q 2450 725 2450 1100 
Q 2450 1425 2150 1725 
Q 1850 2025 1250 2275 
Q 950 2075 787 1775 
Q 625 1475 625 1125 
z
M 2825 1175 
Q 2825 700 2475 375 
Q 2125 50 1550 50 
Q 1025 50 650 375 
Q 275 700 275 1125 
Q 275 1550 487 1850 
Q 700 2150 1100 2375 
Q 750 2550 562 2812 
Q 375 3075 375 3400 
Q 375 3825 700 4125 
Q 1025 4425 1600 4425 
Q 2125 4425 2450 4125 
Q 2775 3825 2775 3400 
Q 2775 3100 2587 2837 
Q 2400 2575 2000 2375 
Q 2425 2125 2625 1825 
Q 2825 1525 2825 1175 
z
M 2425 3375 
Q 2425 3725 2225 3987 
Q 2025 4250 1600 4250 
Q 1125 4250 925 4000 
Q 725 3750 725 3475 
Q 725 3200 1012 2937 
Q 1300 2675 1825 2475 
Q 2125 2625 2275 2850 
Q 2425 3075 2425 3375 
z
" transform="scale(0.015625)"/>
       </defs>
       <use xlink:href="#SimSun-38"/>
       <use xlink:href="#SimSun-30" x="50"/>
       <use xlink:href="#SimSun-30" x="100"/>
      </g>
     </g>
    </g>
    <g id="xtick_6">
     <g id="line2d_6">
      <g>
       <use xlink:href="#m38a4d7391d" x="472.32" y="461.376" style="stroke: #000000; stroke-width: 0.8"/>
      </g>
     </g>
     <g id="text_6">
      <!-- 1000 -->
      <g transform="translate(453.32 481.958031) scale(0.19 -0.19)">
       <defs>
        <path id="SimSun-31" d="M 1825 4450 
L 1825 650 
Q 1825 450 1950 350 
Q 2075 250 2300 250 
L 2550 250 
L 2550 100 
L 725 100 
L 725 250 
L 950 250 
Q 1200 250 1312 350 
Q 1425 450 1425 650 
L 1425 3675 
Q 1425 3775 1362 3837 
Q 1300 3900 1175 3900 
L 725 3900 
L 725 4050 
L 950 4050 
Q 1250 4050 1437 4150 
Q 1625 4250 1725 4450 
L 1825 4450 
z
" transform="scale(0.015625)"/>
       </defs>
       <use xlink:href="#SimSun-31"/>
       <use xlink:href="#SimSun-30" x="50"/>
       <use xlink:href="#SimSun-30" x="100"/>
       <use xlink:href="#SimSun-30" x="150"/>
      </g>
     </g>
    </g>
    <g id="xtick_7">
     <g id="line2d_7">
      <g>
       <use xlink:href="#m38a4d7391d" x="543.744" y="461.376" style="stroke: #000000; stroke-width: 0.8"/>
      </g>
     </g>
     <g id="text_7">
      <!-- 1200 -->
      <g transform="translate(524.744 481.958031) scale(0.19 -0.19)">
       <use xlink:href="#SimSun-31"/>
       <use xlink:href="#SimSun-32" x="50"/>
       <use xlink:href="#SimSun-30" x="100"/>
       <use xlink:href="#SimSun-30" x="150"/>
      </g>
     </g>
    </g>
    <g id="xtick_8">
     <g id="line2d_8">
      <g>
       <use xlink:href="#m38a4d7391d" x="615.168" y="461.376" style="stroke: #000000; stroke-width: 0.8"/>
      </g>
     </g>
     <g id="text_8">
      <!-- 1400 -->
      <g transform="translate(596.168 481.958031) scale(0.19 -0.19)">
       <use xlink:href="#SimSun-31"/>
       <use xlink:href="#SimSun-34" x="50"/>
       <use xlink:href="#SimSun-30" x="100"/>
       <use xlink:href="#SimSun-30" x="150"/>
      </g>
     </g>
    </g>
    <g id="xtick_9">
     <g id="line2d_9">
      <g>
       <use xlink:href="#m38a4d7391d" x="686.592" y="461.376" style="stroke: #000000; stroke-width: 0.8"/>
      </g>
     </g>
     <g id="text_9">
      <!-- 1600 -->
      <g transform="translate(667.592 481.958031) scale(0.19 -0.19)">
       <use xlink:href="#SimSun-31"/>
       <use xlink:href="#SimSun-36" x="50"/>
       <use xlink:href="#SimSun-30" x="100"/>
       <use xlink:href="#SimSun-30" x="150"/>
      </g>
     </g>
    </g>
    <g id="xtick_10">
     <g id="line2d_10">
      <g>
       <use xlink:href="#m38a4d7391d" x="758.016" y="461.376" style="stroke: #000000; stroke-width: 0.8"/>
      </g>
     </g>
     <g id="text_10">
      <!-- 1800 -->
      <g transform="translate(739.016 481.958031) scale(0.19 -0.19)">
       <use xlink:href="#SimSun-31"/>
       <use xlink:href="#SimSun-38" x="50"/>
       <use xlink:href="#SimSun-30" x="100"/>
       <use xlink:href="#SimSun-30" x="150"/>
      </g>
     </g>
    </g>
    <g id="xtick_11">
     <g id="line2d_11">
      <g>
       <use xlink:href="#m38a4d7391d" x="829.44" y="461.376" style="stroke: #000000; stroke-width: 0.8"/>
      </g>
     </g>
     <g id="text_11">
      <!-- 2000 -->
      <g transform="translate(810.44 481.958031) scale(0.19 -0.19)">
       <use xlink:href="#SimSun-32"/>
       <use xlink:href="#SimSun-30" x="50"/>
       <use xlink:href="#SimSun-30" x="100"/>
       <use xlink:href="#SimSun-30" x="150"/>
      </g>
     </g>
    </g>
    <g id="text_12">
     <!-- 请求数 $\mathrm{(M)}$ -->
     <g transform="translate(424.25 504.17725) scale(0.19 -0.19)">
      <defs>
       <path id="SimSun-8bf7" d="M 3800 4400 
Q 3800 4925 3775 5250 
L 4350 5000 
L 4150 4825 
L 4150 4400 
L 5175 4400 
L 5525 4725 
L 5950 4250 
L 4150 4250 
L 4150 3725 
L 4875 3725 
L 5200 4025 
L 5600 3575 
L 4150 3575 
L 4150 2950 
L 5325 2950 
L 5675 3275 
L 6100 2800 
L 2650 2800 
Q 2450 2800 2175 2725 
L 1950 2950 
L 3800 2950 
L 3800 3575 
L 3225 3575 
Q 3025 3575 2750 3500 
L 2525 3725 
L 3800 3725 
L 3800 4250 
L 2850 4250 
Q 2650 4250 2375 4175 
L 2150 4400 
L 3800 4400 
z
M 3075 2150 
L 3075 1650 
L 4975 1650 
L 4975 2150 
L 3075 2150 
z
M 3075 1500 
L 3075 925 
L 4975 925 
L 4975 1500 
L 3075 1500 
z
M 2725 2500 
L 3050 2300 
L 4925 2300 
L 5075 2525 
L 5475 2225 
L 5300 2075 
L 5300 50 
Q 5325 -425 4750 -600 
Q 4750 -275 4075 -125 
L 4075 -25 
Q 4500 -50 4750 -62 
Q 5000 -75 4975 175 
L 4975 775 
L 3075 775 
L 3075 -450 
L 2725 -625 
Q 2750 125 2750 1000 
Q 2750 1875 2725 2500 
z
M 850 5000 
L 925 5050 
Q 1375 4750 1512 4562 
Q 1650 4375 1600 4200 
Q 1550 4025 1450 3950 
L 1325 3875 
Q 1225 3875 1200 4150 
Q 1150 4500 850 5000 
z
M 200 3075 
L 1100 3075 
L 1300 3325 
L 1725 3000 
L 1500 2825 
L 1500 600 
L 2400 1425 
L 2475 1350 
Q 1775 525 1400 -150 
L 1050 250 
Q 1150 400 1150 600 
L 1150 2925 
L 900 2925 
Q 700 2925 425 2850 
L 200 3075 
z
" transform="scale(0.015625)"/>
       <path id="SimSun-6c42" d="M 3950 5025 
Q 4500 4825 4737 4687 
Q 4975 4550 4975 4350 
Q 4975 4300 4912 4125 
Q 4850 3950 4800 3950 
Q 4725 3950 4625 4150 
Q 4425 4475 3900 4950 
L 3950 5025 
z
M 2900 5225 
L 3500 4900 
L 3300 4700 
L 3300 3775 
L 5050 3775 
L 5400 4150 
L 5900 3625 
L 3325 3625 
Q 3650 2575 4000 2000 
Q 4725 2575 5100 3125 
L 5525 2650 
Q 5250 2600 4950 2425 
Q 4650 2225 4050 1875 
Q 4900 650 6100 375 
L 6100 275 
Q 5675 225 5525 -75 
Q 3750 900 3300 3325 
L 3300 175 
Q 3325 -425 2675 -600 
Q 2650 -250 1925 -25 
L 1925 75 
Q 2475 25 2687 25 
Q 2900 25 2925 250 
L 2925 1700 
Q 1950 1075 1387 700 
Q 825 325 700 100 
L 300 600 
Q 575 650 1225 975 
Q 1875 1300 2925 1850 
L 2925 3625 
L 1275 3625 
Q 950 3625 675 3550 
L 450 3775 
L 2925 3775 
Q 2925 4850 2900 5225 
z
M 1050 3175 
Q 1775 2900 1975 2712 
Q 2175 2525 2175 2350 
Q 2175 2250 2075 2075 
Q 1975 1900 1925 1900 
Q 1850 1900 1750 2175 
Q 1575 2575 1000 3100 
L 1050 3175 
z
" transform="scale(0.015625)"/>
       <path id="SimSun-6570" d="M 1875 1525 
Q 1675 1200 1500 900 
Q 1825 825 2275 725 
Q 2500 975 2725 1525 
L 1875 1525 
z
M 850 4900 
Q 1325 4600 1425 4450 
Q 1525 4300 1525 4225 
Q 1525 4100 1437 3975 
Q 1350 3850 1300 3850 
Q 1225 3850 1150 4100 
Q 1050 4450 775 4850 
L 850 4900 
z
M 3000 4975 
L 3450 4675 
Q 3250 4625 3100 4425 
Q 2925 4225 2525 3825 
L 2450 3875 
Q 2925 4625 3000 4975 
z
M 1875 5250 
L 2425 5000 
L 2225 4825 
L 2225 3675 
L 2850 3675 
L 3125 3950 
L 3550 3525 
L 2225 3525 
L 2225 3300 
Q 2800 3175 2937 3062 
Q 3075 2950 3075 2775 
Q 3075 2700 3050 2587 
Q 3025 2475 2975 2475 
Q 2925 2475 2800 2650 
Q 2600 2925 2225 3175 
L 2225 2400 
L 1925 2200 
L 2275 2050 
Q 2150 2000 1950 1675 
L 2725 1675 
L 2900 1900 
L 3275 1575 
L 3050 1450 
Q 2800 875 2600 650 
Q 3000 550 3137 437 
Q 3275 325 3275 150 
Q 3275 -25 3200 -25 
Q 3125 -25 3025 75 
Q 2750 275 2400 425 
Q 1525 -275 325 -500 
L 300 -425 
Q 1450 -50 2100 550 
Q 1600 725 1125 800 
Q 1225 950 1525 1525 
L 1200 1525 
Q 875 1525 600 1450 
L 375 1675 
L 1575 1675 
Q 1675 1925 1775 2275 
L 1900 2225 
L 1900 3250 
Q 1225 2475 350 2050 
L 300 2125 
Q 1225 2775 1700 3525 
L 1250 3525 
Q 925 3525 650 3450 
L 425 3675 
L 1900 3675 
Q 1900 4575 1875 5250 
z
M 3925 3525 
Q 4050 2075 4525 1100 
Q 4925 1950 5025 3525 
L 3925 3525 
z
M 4050 5250 
L 4625 4925 
Q 4425 4850 4325 4625 
Q 4225 4400 3950 3675 
L 5375 3675 
L 5675 3975 
L 6125 3525 
L 5400 3525 
Q 5250 1675 4750 775 
Q 5325 75 6100 -100 
L 6100 -200 
Q 5625 -275 5600 -500 
Q 4950 -50 4525 525 
Q 3700 -275 2550 -650 
L 2500 -575 
Q 3650 -50 4325 800 
Q 3850 1975 3825 3375 
Q 3575 2725 3100 2150 
L 3025 2200 
Q 3625 3200 4050 5250 
z
" transform="scale(0.015625)"/>
       <path id="SimSun-20" d="M 0 0 
Q 0 0 0 0 
z
" transform="scale(0.015625)"/>
       <path id="STIXGeneral-Regular-28" d="M 1946 -1030 
L 1869 -1133 
Q 1126 -710 716 32 
Q 307 774 307 1613 
Q 307 3386 1888 4326 
L 1946 4224 
Q 1293 3667 1075 3126 
Q 858 2586 858 1632 
Q 858 685 1082 96 
Q 1306 -493 1946 -1030 
z
" transform="scale(0.015625)"/>
       <path id="STIXGeneral-Regular-4d" d="M 5530 0 
L 3738 0 
L 3738 122 
Q 4115 147 4214 265 
Q 4314 384 4314 787 
L 4314 3661 
L 2682 0 
L 2592 0 
L 979 3514 
L 979 966 
Q 979 448 1088 294 
Q 1197 141 1574 122 
L 1574 0 
L 77 0 
L 77 122 
Q 358 141 480 205 
Q 602 269 650 432 
Q 698 595 698 966 
L 698 3514 
Q 698 3878 589 3984 
Q 480 4090 90 4115 
L 90 4237 
L 1357 4237 
L 2835 1024 
L 4250 4237 
L 5523 4237 
L 5523 4115 
Q 5178 4109 5072 3993 
Q 4966 3878 4966 3520 
L 4966 717 
Q 4966 378 5072 262 
Q 5178 147 5530 122 
L 5530 0 
z
" transform="scale(0.015625)"/>
       <path id="STIXGeneral-Regular-29" d="M 186 4224 
L 262 4326 
Q 992 3891 1408 3148 
Q 1824 2406 1824 1581 
Q 1824 -166 243 -1133 
L 186 -1030 
Q 845 -486 1059 54 
Q 1274 595 1274 1562 
Q 1274 2534 1059 3120 
Q 845 3706 186 4224 
z
" transform="scale(0.015625)"/>
      </defs>
      <use xlink:href="#SimSun-8bf7" transform="translate(0 0.96875)"/>
      <use xlink:href="#SimSun-6c42" transform="translate(100 0.96875)"/>
      <use xlink:href="#SimSun-6570" transform="translate(200 0.96875)"/>
      <use xlink:href="#SimSun-20" transform="translate(300 0.96875)"/>
      <use xlink:href="#STIXGeneral-Regular-28" transform="translate(350 0.96875)"/>
      <use xlink:href="#STIXGeneral-Regular-4d" transform="translate(383.299988 0.96875)"/>
      <use xlink:href="#STIXGeneral-Regular-29" transform="translate(472.199982 0.96875)"/>
     </g>
    </g>
   </g>
   <g id="matplotlib.axis_2">
    <g id="ytick_1">
     <g id="line2d_12">
      <defs>
       <path id="m1741c2f2b0" d="M 0 0 
L -3.5 0 
" style="stroke: #000000; stroke-width: 0.8"/>
      </defs>
      <g>
       <use xlink:href="#m1741c2f2b0" x="115.2" y="461.376" style="stroke: #000000; stroke-width: 0.8"/>
      </g>
     </g>
     <g id="text_13">
      <!-- 50 -->
      <g transform="translate(89.2 468.167016) scale(0.19 -0.19)">
       <defs>
        <path id="SimSun-35" d="M 1725 2850 
Q 2200 2850 2500 2487 
Q 2800 2125 2800 1525 
Q 2800 850 2487 450 
Q 2175 50 1525 50 
Q 1075 50 725 312 
Q 375 575 375 950 
Q 375 1100 462 1212 
Q 550 1325 700 1325 
Q 850 1325 900 1225 
Q 950 1125 950 1050 
Q 950 900 875 825 
Q 800 725 800 625 
Q 800 425 1037 325 
Q 1275 225 1550 225 
Q 1950 225 2162 550 
Q 2375 875 2375 1475 
Q 2375 1975 2187 2287 
Q 2000 2600 1625 2600 
Q 1350 2600 1150 2500 
Q 950 2400 775 2075 
L 550 2100 
L 675 4375 
L 2725 4375 
L 2650 4000 
L 850 4000 
L 750 2350 
Q 1000 2700 1237 2775 
Q 1475 2850 1725 2850 
z
" transform="scale(0.015625)"/>
       </defs>
       <use xlink:href="#SimSun-35"/>
       <use xlink:href="#SimSun-30" x="50"/>
      </g>
     </g>
    </g>
    <g id="ytick_2">
     <g id="line2d_13">
      <g>
       <use xlink:href="#m1741c2f2b0" x="115.2" y="421.4592" style="stroke: #000000; stroke-width: 0.8"/>
      </g>
     </g>
     <g id="text_14">
      <!-- 55 -->
      <g transform="translate(89.2 428.250216) scale(0.19 -0.19)">
       <use xlink:href="#SimSun-35"/>
       <use xlink:href="#SimSun-35" x="50"/>
      </g>
     </g>
    </g>
    <g id="ytick_3">
     <g id="line2d_14">
      <g>
       <use xlink:href="#m1741c2f2b0" x="115.2" y="381.5424" style="stroke: #000000; stroke-width: 0.8"/>
      </g>
     </g>
     <g id="text_15">
      <!-- 60 -->
      <g transform="translate(89.2 388.333416) scale(0.19 -0.19)">
       <use xlink:href="#SimSun-36"/>
       <use xlink:href="#SimSun-30" x="50"/>
      </g>
     </g>
    </g>
    <g id="ytick_4">
     <g id="line2d_15">
      <g>
       <use xlink:href="#m1741c2f2b0" x="115.2" y="341.6256" style="stroke: #000000; stroke-width: 0.8"/>
      </g>
     </g>
     <g id="text_16">
      <!-- 65 -->
      <g transform="translate(89.2 348.416616) scale(0.19 -0.19)">
       <use xlink:href="#SimSun-36"/>
       <use xlink:href="#SimSun-35" x="50"/>
      </g>
     </g>
    </g>
    <g id="ytick_5">
     <g id="line2d_16">
      <g>
       <use xlink:href="#m1741c2f2b0" x="115.2" y="301.7088" style="stroke: #000000; stroke-width: 0.8"/>
      </g>
     </g>
     <g id="text_17">
      <!-- 70 -->
      <g transform="translate(89.2 308.499816) scale(0.19 -0.19)">
       <defs>
        <path id="SimSun-37" d="M 2825 4200 
Q 2300 3350 1987 2537 
Q 1675 1725 1675 1125 
Q 1675 1025 1700 850 
Q 1700 650 1700 400 
Q 1700 200 1637 125 
Q 1575 50 1425 50 
Q 1300 50 1212 137 
Q 1125 225 1125 450 
Q 1125 925 1337 1625 
Q 1550 2325 2475 4000 
L 1225 4000 
Q 950 4000 787 3825 
Q 625 3650 550 3300 
L 400 3325 
L 575 4375 
L 2825 4375 
L 2825 4200 
z
" transform="scale(0.015625)"/>
       </defs>
       <use xlink:href="#SimSun-37"/>
       <use xlink:href="#SimSun-30" x="50"/>
      </g>
     </g>
    </g>
    <g id="ytick_6">
     <g id="line2d_17">
      <g>
       <use xlink:href="#m1741c2f2b0" x="115.2" y="261.792" style="stroke: #000000; stroke-width: 0.8"/>
      </g>
     </g>
     <g id="text_18">
      <!-- 75 -->
      <g transform="translate(89.2 268.583016) scale(0.19 -0.19)">
       <use xlink:href="#SimSun-37"/>
       <use xlink:href="#SimSun-35" x="50"/>
      </g>
     </g>
    </g>
    <g id="ytick_7">
     <g id="line2d_18">
      <g>
       <use xlink:href="#m1741c2f2b0" x="115.2" y="221.8752" style="stroke: #000000; stroke-width: 0.8"/>
      </g>
     </g>
     <g id="text_19">
      <!-- 80 -->
      <g transform="translate(89.2 228.666216) scale(0.19 -0.19)">
       <use xlink:href="#SimSun-38"/>
       <use xlink:href="#SimSun-30" x="50"/>
      </g>
     </g>
    </g>
    <g id="ytick_8">
     <g id="line2d_19">
      <g>
       <use xlink:href="#m1741c2f2b0" x="115.2" y="181.9584" style="stroke: #000000; stroke-width: 0.8"/>
      </g>
     </g>
     <g id="text_20">
      <!-- 85 -->
      <g transform="translate(89.2 188.749416) scale(0.19 -0.19)">
       <use xlink:href="#SimSun-38"/>
       <use xlink:href="#SimSun-35" x="50"/>
      </g>
     </g>
    </g>
    <g id="ytick_9">
     <g id="line2d_20">
      <g>
       <use xlink:href="#m1741c2f2b0" x="115.2" y="142.0416" style="stroke: #000000; stroke-width: 0.8"/>
      </g>
     </g>
     <g id="text_21">
      <!-- 90 -->
      <g transform="translate(89.2 148.832616) scale(0.19 -0.19)">
       <defs>
        <path id="SimSun-39" d="M 700 3050 
Q 700 2500 912 2212 
Q 1125 1925 1450 1925 
Q 1825 1925 2100 2275 
Q 2375 2625 2375 2925 
Q 2375 3525 2175 3887 
Q 1975 4250 1525 4250 
Q 1100 4250 900 3912 
Q 700 3575 700 3050 
z
M 1375 1700 
Q 875 1700 575 2012 
Q 275 2325 275 3025 
Q 275 3625 600 4025 
Q 925 4425 1525 4425 
Q 2150 4425 2500 3925 
Q 2850 3425 2850 2475 
Q 2850 1425 2437 737 
Q 2025 50 1300 50 
Q 975 50 737 200 
Q 500 350 500 600 
Q 500 700 562 800 
Q 625 900 775 900 
Q 925 900 975 787 
Q 1025 675 1025 525 
Q 1025 425 1050 362 
Q 1075 300 1100 275 
Q 1125 250 1187 237 
Q 1250 225 1325 225 
Q 1775 225 2050 725 
Q 2325 1225 2375 2400 
Q 2250 2100 2000 1900 
Q 1750 1700 1375 1700 
z
" transform="scale(0.015625)"/>
       </defs>
       <use xlink:href="#SimSun-39"/>
       <use xlink:href="#SimSun-30" x="50"/>
      </g>
     </g>
    </g>
    <g id="ytick_10">
     <g id="line2d_21">
      <g>
       <use xlink:href="#m1741c2f2b0" x="115.2" y="102.1248" style="stroke: #000000; stroke-width: 0.8"/>
      </g>
     </g>
     <g id="text_22">
      <!-- 95 -->
      <g transform="translate(89.2 108.915816) scale(0.19 -0.19)">
       <use xlink:href="#SimSun-39"/>
       <use xlink:href="#SimSun-35" x="50"/>
      </g>
     </g>
    </g>
    <g id="ytick_11">
     <g id="line2d_22">
      <g>
       <use xlink:href="#m1741c2f2b0" x="115.2" y="62.208" style="stroke: #000000; stroke-width: 0.8"/>
      </g>
     </g>
     <g id="text_23">
      <!-- 100 -->
      <g transform="translate(79.7 68.999016) scale(0.19 -0.19)">
       <use xlink:href="#SimSun-31"/>
       <use xlink:href="#SimSun-30" x="50"/>
       <use xlink:href="#SimSun-30" x="100"/>
      </g>
     </g>
    </g>
    <g id="text_24">
     <!-- 读取命中率 $\mathrm{(\%)}$ -->
     <g transform="translate(72.28 327.532) rotate(-90) scale(0.19 -0.19)">
      <defs>
       <path id="SimSun-8bfb" d="M 1450 275 
L 2375 850 
L 2425 775 
Q 1600 50 1325 -325 
L 1025 50 
Q 1125 175 1125 400 
L 1125 2850 
L 1050 2850 
Q 725 2850 450 2775 
L 225 3000 
L 1125 3000 
L 1350 3225 
L 1675 2900 
L 1450 2725 
L 1450 275 
z
M 750 4925 
L 800 5000 
Q 1150 4800 1387 4600 
Q 1625 4400 1587 4200 
Q 1550 4000 1400 3925 
Q 1250 3850 1175 4200 
Q 1100 4525 750 4925 
z
M 5100 2700 
L 5425 3325 
L 2575 3325 
Q 2375 3325 2100 3250 
L 1875 3475 
L 3650 3475 
L 3650 4250 
L 3025 4250 
Q 2700 4250 2425 4175 
L 2200 4400 
L 3650 4400 
Q 3650 4825 3625 5250 
L 4175 5000 
L 3975 4825 
L 3975 4400 
L 4875 4400 
L 5150 4675 
L 5550 4250 
L 3975 4250 
L 3975 3475 
L 5375 3475 
L 5625 3750 
L 6075 3300 
Q 5725 3275 5200 2650 
L 5100 2700 
z
M 2750 2925 
L 2775 3000 
Q 3350 2825 3462 2687 
Q 3575 2550 3575 2450 
Q 3575 2350 3512 2250 
Q 3450 2150 3425 2150 
Q 3350 2150 3275 2350 
Q 3125 2625 2750 2925 
z
M 2375 2275 
Q 2975 2075 3100 1950 
Q 3225 1825 3225 1700 
Q 3225 1625 3162 1512 
Q 3100 1400 3075 1400 
Q 3000 1400 2900 1625 
Q 2725 1925 2350 2200 
L 2375 2275 
z
M 4475 2625 
Q 4425 1550 4350 1175 
L 5275 1175 
L 5600 1500 
L 6050 1025 
L 4325 1025 
Q 4250 825 4125 575 
Q 4850 350 5200 150 
Q 5550 -50 5600 -237 
Q 5650 -425 5587 -500 
Q 5525 -575 5475 -575 
Q 5350 -575 5175 -325 
Q 4925 25 4075 475 
Q 3425 -425 1975 -650 
L 1950 -550 
Q 3600 -100 3975 1025 
L 2700 1025 
Q 2500 1025 2225 950 
L 2000 1175 
L 4000 1175 
Q 4100 1800 4100 3075 
L 4675 2800 
L 4475 2625 
z
" transform="scale(0.015625)"/>
       <path id="SimSun-53d6" d="M 1300 2225 
L 1300 1125 
L 2425 1350 
L 2425 2225 
L 1300 2225 
z
M 2750 1225 
Q 2750 100 2775 -350 
L 2400 -575 
Q 2425 125 2425 1150 
Q 775 700 575 425 
L 325 925 
Q 625 975 975 1050 
L 975 4650 
L 775 4650 
L 525 4600 
L 325 4800 
L 2675 4800 
L 2975 5100 
L 3425 4650 
L 2750 4650 
L 2750 1425 
L 3500 1575 
L 3525 1475 
L 2750 1225 
z
M 1300 4650 
L 1300 3600 
L 2425 3600 
L 2425 4650 
L 1300 4650 
z
M 2425 3450 
L 1300 3450 
L 1300 2375 
L 2425 2375 
L 2425 3450 
z
M 2925 4175 
L 5050 4175 
L 5250 4425 
L 5700 4075 
L 5475 3925 
Q 5100 2350 4550 1275 
Q 5200 375 6100 125 
L 6100 25 
Q 5775 -25 5600 -275 
Q 4875 225 4375 975 
Q 3700 25 2825 -525 
L 2775 -450 
Q 3650 325 4175 1250 
Q 3650 2625 3525 4025 
L 3350 4025 
L 3125 3975 
L 2925 4175 
z
M 3650 4025 
Q 3900 2525 4350 1600 
Q 4825 2650 5075 4025 
L 3650 4025 
z
" transform="scale(0.015625)"/>
       <path id="SimSun-547d" d="M 1775 3150 
L 3650 3150 
L 3950 3450 
L 4400 3000 
L 2550 3000 
Q 2225 3000 2000 2925 
L 1775 3150 
z
M 1450 2125 
L 1450 575 
L 2400 575 
L 2400 2125 
L 1450 2125 
z
M 1100 -250 
Q 1125 525 1125 1125 
Q 1125 1725 1100 2500 
L 1450 2275 
L 2350 2275 
L 2525 2500 
L 2900 2200 
L 2725 2050 
Q 2725 550 2750 150 
L 2400 0 
L 2400 425 
L 1450 425 
L 1450 -100 
L 1100 -250 
z
M 3775 2175 
L 3775 -450 
L 3425 -625 
Q 3450 75 3450 1050 
Q 3450 2025 3425 2550 
L 3775 2325 
L 4825 2325 
L 5000 2575 
L 5400 2275 
L 5200 2100 
L 5200 525 
Q 5225 75 4700 -125 
Q 4700 150 4025 325 
L 4025 425 
Q 4550 375 4712 375 
Q 4875 375 4875 700 
L 4875 2175 
L 3775 2175 
z
M 2975 5275 
L 3475 4900 
L 3250 4725 
Q 3750 4025 4450 3625 
Q 5150 3225 6125 3075 
L 6125 2975 
Q 5700 2950 5550 2625 
Q 4650 3050 4112 3500 
Q 3575 3950 3150 4650 
Q 2600 3900 1962 3362 
Q 1325 2825 275 2425 
L 225 2525 
Q 1250 2975 1962 3750 
Q 2675 4525 2975 5275 
z
" transform="scale(0.015625)"/>
       <path id="SimSun-4e2d" d="M 3325 3625 
L 3325 1975 
L 5125 1975 
L 5125 3625 
L 3325 3625 
z
M 2950 3775 
Q 2950 4750 2925 5250 
L 3525 4975 
L 3325 4775 
L 3325 3775 
L 5075 3775 
L 5275 4075 
L 5700 3750 
L 5475 3550 
L 5475 2100 
Q 5475 1825 5500 1525 
L 5125 1375 
L 5125 1825 
L 3325 1825 
Q 3325 -75 3350 -400 
L 2925 -625 
Q 2950 -50 2950 1825 
L 1225 1825 
L 1225 1525 
L 850 1325 
Q 875 1775 875 2625 
Q 875 3475 850 4000 
L 1225 3775 
L 2950 3775 
z
M 1225 3625 
L 1225 1975 
L 2950 1975 
L 2950 3625 
L 1225 3625 
z
" transform="scale(0.015625)"/>
       <path id="SimSun-7387" d="M 875 3725 
L 925 3800 
Q 1375 3650 1550 3525 
Q 1725 3400 1725 3250 
Q 1725 3175 1662 3025 
Q 1600 2875 1550 2875 
Q 1500 2875 1425 3050 
Q 1275 3325 875 3725 
z
M 550 1850 
Q 875 1925 2000 2575 
L 2050 2500 
Q 1675 2225 1337 1937 
Q 1000 1650 875 1425 
L 550 1850 
z
M 5200 3450 
Q 4800 3150 4275 2800 
L 4225 2875 
Q 4775 3400 5050 3925 
L 5450 3525 
L 5200 3450 
z
M 4325 2500 
L 4350 2575 
Q 5225 2350 5375 2212 
Q 5525 2075 5525 1900 
Q 5525 1775 5487 1662 
Q 5450 1550 5400 1550 
Q 5325 1550 5200 1800 
Q 4975 2150 4325 2500 
z
M 3150 3900 
Q 2500 3300 2300 3150 
Q 2800 3150 3400 3175 
Q 3700 3500 3850 3825 
L 4250 3450 
Q 4050 3400 3450 2825 
Q 2850 2250 2475 1950 
Q 3150 1975 3850 2000 
Q 3750 2175 3550 2450 
L 3600 2500 
Q 4050 2250 4200 2100 
Q 4350 1950 4350 1850 
Q 4350 1775 4250 1625 
Q 4150 1475 4100 1475 
Q 4075 1475 4050 1550 
Q 4000 1700 3900 1900 
Q 3650 1875 3075 1800 
L 3500 1550 
L 3325 1425 
L 3325 975 
L 5325 975 
L 5650 1300 
L 6100 825 
L 3325 825 
Q 3325 -275 3350 -525 
L 2975 -650 
Q 3000 0 3000 825 
L 1125 825 
Q 800 825 525 750 
L 300 975 
L 3000 975 
L 3000 1775 
Q 2450 1700 2200 1525 
L 1950 1950 
Q 2275 1950 2675 2350 
Q 3075 2750 3325 3050 
Q 2400 2950 2150 2775 
L 1950 3175 
Q 2150 3150 2475 3575 
Q 2800 4000 2900 4225 
L 1450 4225 
Q 1125 4225 850 4150 
L 625 4375 
L 3100 4375 
Q 3050 4800 2675 5200 
L 2725 5250 
Q 3225 5050 3337 4912 
Q 3450 4775 3450 4700 
Q 3450 4550 3250 4375 
L 5025 4375 
L 5350 4675 
L 5775 4225 
L 3050 4225 
L 3375 3950 
L 3150 3900 
z
" transform="scale(0.015625)"/>
       <path id="STIXGeneral-Regular-25" d="M 4390 1363 
Q 4390 781 4070 329 
Q 3750 -122 3341 -122 
Q 3014 -122 2790 134 
Q 2566 390 2566 762 
Q 2566 1274 2940 1693 
Q 3315 2112 3776 2112 
Q 4070 2112 4230 1917 
Q 4390 1722 4390 1363 
z
M 4243 1376 
Q 4243 1626 4131 1779 
Q 4019 1933 3840 1933 
Q 3654 1933 3526 1786 
Q 3315 1562 3171 1187 
Q 3027 813 3027 486 
Q 3027 301 3129 176 
Q 3232 51 3386 51 
Q 3718 51 3980 457 
Q 4243 864 4243 1376 
z
M 3974 4518 
L 1222 -115 
L 922 -115 
L 3443 4096 
Q 3264 3891 3094 3811 
Q 2925 3731 2669 3731 
Q 2445 3731 2182 3821 
Q 2208 3674 2208 3539 
Q 2208 3206 2067 2873 
Q 1926 2541 1696 2323 
Q 1453 2086 1146 2086 
Q 826 2086 608 2339 
Q 390 2592 390 2963 
Q 390 3507 761 3916 
Q 1133 4326 1626 4326 
Q 1792 4326 2010 4147 
Q 2310 3898 2624 3898 
Q 2918 3898 3084 3994 
Q 3251 4090 3693 4518 
L 3974 4518 
z
M 2054 3642 
Q 2054 3782 2025 3833 
Q 1997 3885 1894 3936 
Q 1747 4006 1613 4154 
Q 1414 4058 1331 3984 
Q 1248 3910 1152 3750 
Q 845 3264 845 2707 
Q 845 2509 944 2384 
Q 1043 2259 1210 2259 
Q 1549 2259 1801 2675 
Q 2054 3091 2054 3642 
z
" transform="scale(0.015625)"/>
      </defs>
      <use xlink:href="#SimSun-8bfb" transform="translate(0 0.578125)"/>
      <use xlink:href="#SimSun-53d6" transform="translate(100 0.578125)"/>
      <use xlink:href="#SimSun-547d" transform="translate(200 0.578125)"/>
      <use xlink:href="#SimSun-4e2d" transform="translate(300 0.578125)"/>
      <use xlink:href="#SimSun-7387" transform="translate(400 0.578125)"/>
      <use xlink:href="#SimSun-20" transform="translate(500 0.578125)"/>
      <use xlink:href="#STIXGeneral-Regular-28" transform="translate(550 0.578125)"/>
      <use xlink:href="#STIXGeneral-Regular-25" transform="translate(583.299988 0.578125)"/>
      <use xlink:href="#STIXGeneral-Regular-29" transform="translate(657.999969 0.578125)"/>
     </g>
    </g>
   </g>
   <g id="line2d_23">
    <path d="M 115.244899 519.4 
L 115.313226 460.613589 
L 115.61126 397.238484 
L 116.040327 381.932786 
L 116.522804 349.790981 
L 116.99389 332.51978 
L 117.683311 315.035423 
L 117.909067 311.79817 
L 118.360697 302.924666 
L 119.26075 292.32436 
L 119.485236 288.63046 
L 119.932806 285.239128 
L 120.154838 281.633843 
L 120.604295 278.28163 
L 121.272343 272.306883 
L 121.939334 266.934881 
L 122.605787 263.009462 
L 122.828851 260.824417 
L 123.050529 260.88988 
L 123.274402 257.607123 
L 123.499595 257.217535 
L 123.94649 255.054044 
L 124.169929 253.667335 
L 124.391918 253.137239 
L 124.616512 251.122239 
L 124.840433 251.763303 
L 125.064759 248.395124 
L 125.287457 248.086168 
L 125.738274 245.877172 
L 126.187698 244.991817 
L 126.412294 242.937699 
L 127.987294 238.241886 
L 128.21716 235.74549 
L 128.441665 236.053647 
L 129.121198 233.138923 
L 129.347113 233.186024 
L 130.712441 228.423152 
L 130.940336 227.40687 
L 131.171037 226.911103 
L 131.397857 227.283128 
L 131.628698 225.544352 
L 131.857458 225.543554 
L 132.08664 224.319705 
L 132.315678 223.838308 
L 132.546915 223.807173 
L 133.009615 221.701163 
L 133.238439 222.565761 
L 133.469867 220.945937 
L 133.702289 220.221846 
L 134.165534 219.601539 
L 134.39657 219.021149 
L 134.627532 218.058356 
L 134.858746 217.794905 
L 135.090281 217.291155 
L 135.323702 217.165816 
L 135.786338 215.574732 
L 136.01652 215.82062 
L 136.251668 213.796838 
L 136.484297 214.006002 
L 136.719585 214.599166 
L 136.952303 213.784863 
L 137.184672 212.402145 
L 137.418943 212.049281 
L 137.652971 212.022935 
L 137.8881 211.686836 
L 138.123734 210.42786 
L 138.357276 210.740808 
L 138.827036 209.227961 
L 139.066588 208.80165 
L 139.30155 209.255105 
L 139.773888 207.906715 
L 140.009529 208.058399 
L 140.717259 206.635764 
L 141.193497 205.840621 
L 141.667131 204.033189 
L 141.901263 203.738603 
L 142.142086 204.384457 
L 142.376188 204.31101 
L 143.082946 202.249706 
L 143.322416 201.910413 
L 143.56141 201.978272 
L 143.800243 201.068967 
L 144.037807 201.140817 
L 144.516353 199.673476 
L 144.756698 199.923355 
L 145.234369 198.775348 
L 145.476058 199.303048 
L 145.718678 197.414983 
L 146.196636 197.724738 
L 146.439149 196.649379 
L 146.679789 197.129977 
L 146.925614 195.712931 
L 147.168496 196.381138 
L 147.657838 196.047434 
L 147.899987 194.95531 
L 148.143888 195.179642 
L 148.387865 193.91428 
L 148.630096 194.671102 
L 148.872013 194.465132 
L 149.116466 192.591437 
L 149.361131 194.07235 
L 149.603883 193.698729 
L 150.094657 192.075712 
L 150.338413 192.363113 
L 150.582679 191.259813 
L 150.828215 192.170714 
L 151.07559 191.080187 
L 151.319195 191.230274 
L 151.812203 190.003232 
L 152.301148 190.114999 
L 152.791316 189.833186 
L 153.03828 189.279939 
L 153.283731 187.966677 
L 153.531492 188.001804 
L 153.776733 187.507634 
L 154.024357 188.127941 
L 154.272535 187.910793 
L 154.52063 186.977538 
L 154.766933 187.4757 
L 155.26405 185.938105 
L 155.516145 185.584442 
L 155.764629 186.779551 
L 156.013469 186.579169 
L 156.260697 185.166912 
L 156.510302 185.85428 
L 156.757698 185.017624 
L 157.010266 184.766148 
L 157.261623 183.83928 
L 157.514416 184.493117 
L 158.009368 183.242923 
L 158.256451 183.618141 
L 158.50539 183.596585 
L 158.755461 182.600262 
L 159.007097 182.5819 
L 159.259858 181.733269 
L 159.510389 182.300886 
L 159.757285 182.248196 
L 160.012591 181.8147 
L 160.262568 182.309668 
L 160.51398 182.015082 
L 160.768751 180.887033 
L 161.020798 181.109769 
L 161.27514 180.120631 
L 161.526225 181.024347 
L 162.290579 179.893105 
L 162.804463 178.290046 
L 163.056457 179.058045 
L 163.309986 178.505597 
L 163.565592 178.622154 
L 163.820438 178.911151 
L 164.077068 177.576334 
L 164.332395 178.098445 
L 164.588045 177.724824 
L 164.842956 177.011112 
L 165.101904 177.153216 
L 165.359181 176.821906 
L 165.613342 177.43902 
L 165.870266 177.157207 
L 166.125219 176.336518 
L 166.382208 176.136136 
L 166.638944 176.273449 
L 166.895872 176.059495 
L 167.151277 176.38841 
L 167.406701 176.507362 
L 167.664761 174.782956 
L 167.920277 175.51024 
L 168.177638 175.633982 
L 168.435881 175.561334 
L 168.690833 175.322631 
L 168.948192 174.08521 
L 169.206688 174.704719 
L 169.467396 173.720371 
L 169.985345 173.892811 
L 170.503295 173.295656 
L 170.759804 172.859765 
L 171.278857 173.266916 
L 171.537637 173.350741 
L 171.798476 172.47337 
L 172.060507 172.249836 
L 172.319209 172.570767 
L 172.579789 171.936888 
L 172.841746 171.750078 
L 173.102788 171.891383 
L 173.362952 171.749279 
L 173.626058 171.808356 
L 173.890374 171.190444 
L 174.150773 171.263891 
L 174.412978 170.560557 
L 174.674324 170.903043 
L 174.937319 170.217272 
L 175.199459 170.208491 
L 175.463766 169.929073 
L 175.728569 169.932266 
L 175.991304 170.210886 
L 176.254212 169.93546 
L 176.517993 169.091619 
L 177.044826 169.501165 
L 177.575973 168.724384 
L 177.836399 169.050904 
L 178.098832 168.293283 
L 178.360405 169.140317 
L 178.623595 168.060169 
L 178.88839 168.080925 
L 179.154688 167.815878 
L 179.685281 167.791129 
L 179.949514 167.201159 
L 180.212505 167.328094 
L 180.482663 166.904178 
L 180.74913 167.362423 
L 181.013758 167.412718 
L 181.276838 167.196369 
L 181.543106 166.426773 
L 182.074005 166.207231 
L 182.341011 165.714657 
L 182.608658 166.139372 
L 183.14254 165.887098 
L 183.410297 165.107124 
L 183.681192 165.57415 
L 183.947093 165.163806 
L 184.484207 165.045652 
L 184.755776 164.818126 
L 185.0221 164.793378 
L 185.289613 164.011008 
L 185.557924 164.992962 
L 185.828147 163.917603 
L 186.097394 164.044538 
L 186.366768 163.56873 
L 186.635901 164.076472 
L 186.906478 163.076955 
L 187.173914 163.389903 
L 187.443644 163.418643 
L 187.714179 163.325238 
L 187.982362 163.416248 
L 188.255456 162.815899 
L 188.523677 162.874976 
L 188.791077 163.176747 
L 189.061214 162.87817 
L 189.329686 162.903716 
L 189.874112 162.59476 
L 190.14789 161.691044 
L 190.419239 161.691044 
L 190.686906 162.012773 
L 190.959048 161.693439 
L 191.23231 160.511902 
L 191.504317 161.63037 
L 191.776378 161.370911 
L 192.049853 160.752201 
L 192.325805 161.283094 
L 192.59839 161.473098 
L 192.871454 160.881531 
L 193.146774 160.812076 
L 193.41746 160.376185 
L 193.69047 160.387361 
L 193.960983 160.819261 
L 194.231741 160.40253 
L 194.507861 159.545117 
L 194.78189 159.710372 
L 195.05633 159.724742 
L 195.330582 159.863653 
L 195.603856 159.437341 
L 195.878197 159.961848 
L 196.152494 159.521167 
L 196.424914 159.592219 
L 196.699437 158.931995 
L 196.977348 159.118007 
L 197.529466 158.081767 
L 197.804147 158.48812 
L 198.352211 158.325259 
L 198.62793 158.690897 
L 198.903335 158.650182 
L 199.179847 157.982773 
L 199.455474 158.13286 
L 199.735258 157.497385 
L 200.013024 157.698566 
L 200.291808 157.541293 
L 200.564486 158.236644 
L 201.114643 157.759239 
L 201.393186 157.233934 
L 201.670202 157.308179 
L 201.947135 157.011997 
L 202.221612 157.452678 
L 202.501602 156.378916 
L 202.780914 156.843548 
L 203.059972 156.727789 
L 203.336959 157.173261 
L 203.617232 156.823589 
L 203.893442 157.160487 
L 204.173643 157.257884 
L 204.452165 155.557428 
L 204.731989 156.556945 
L 205.010184 156.131432 
L 205.289677 155.973362 
L 205.567849 156.424421 
L 205.84517 155.948613 
L 206.123598 156.072355 
L 206.402282 155.296373 
L 206.682367 155.171034 
L 206.95845 155.780963 
L 207.238205 155.183009 
L 207.514759 155.02414 
L 207.792721 155.514318 
L 208.073376 155.187001 
L 208.35075 155.743441 
L 208.63075 154.932331 
L 208.910642 155.066452 
L 209.189755 154.186686 
L 209.470653 154.235384 
L 209.749797 155.177421 
L 210.027352 154.574677 
L 210.308492 154.379085 
L 210.587136 153.947983 
L 210.867855 154.001472 
L 211.428228 153.488142 
L 211.711384 153.430661 
L 211.990879 153.883318 
L 212.554532 153.428266 
L 213.116911 154.138785 
L 213.397654 153.907268 
L 213.682262 152.834304 
L 213.963254 152.819136 
L 214.244733 153.509697 
L 214.526374 153.591925 
L 215.093446 152.281856 
L 215.660417 152.453498 
L 215.941015 152.879011 
L 216.223118 152.374463 
L 216.505132 152.789598 
L 216.789225 151.961723 
L 217.070758 152.680226 
L 217.351767 152.506987 
L 217.640418 151.576925 
L 217.9251 152.122987 
L 218.205853 152.210006 
L 219.91004 151.282339 
L 220.19412 151.746971 
L 220.477714 151.025275 
L 220.760316 151.313474 
L 221.333291 151.163387 
L 221.617086 151.062797 
L 221.905898 151.148219 
L 222.191819 150.717117 
L 222.476935 151.214481 
L 223.046907 150.651654 
L 223.329495 151.403686 
L 223.614067 151.136244 
L 223.901403 150.217359 
L 224.188746 150.205384 
L 224.756965 150.677201 
L 225.041858 150.341101 
L 225.609392 150.468835 
L 226.178658 149.961891 
L 226.466708 149.479697 
L 227.041634 149.40146 
L 227.332257 149.304063 
L 227.61988 149.051788 
L 227.90385 148.980737 
L 228.188916 149.55474 
L 228.473534 149.189102 
L 228.76124 149.147589 
L 229.333116 149.545958 
L 229.620987 149.533983 
L 230.195101 148.896911 
L 230.77417 148.492155 
L 231.350434 148.688546 
L 231.925457 148.429086 
L 232.214274 148.194376 
L 232.502437 148.845818 
L 232.790266 148.63346 
L 233.081005 148.278201 
L 233.656621 148.741236 
L 233.943889 148.618292 
L 234.233755 147.722559 
L 234.523645 147.813569 
L 234.812272 148.314924 
L 235.393309 147.794409 
L 235.68516 147.198851 
L 235.974736 147.533353 
L 236.267535 147.398435 
L 236.555301 148.095382 
L 236.847489 147.557303 
L 237.135001 147.658692 
L 237.430229 147.50142 
L 237.719633 147.218809 
L 238.013208 146.652789 
L 238.303794 147.237969 
L 238.59384 146.941786 
L 238.883663 146.877121 
L 239.466996 147.116622 
L 239.761334 146.402111 
L 240.051089 147.008847 
L 240.340066 146.640015 
L 240.926559 146.593712 
L 241.214925 146.865944 
L 241.503591 146.499508 
L 241.793728 146.746992 
L 242.08415 146.38375 
L 242.372875 146.58972 
L 242.665128 146.415683 
L 242.953823 146.089962 
L 243.241893 146.457196 
L 243.826844 145.970211 
L 244.120359 146.13866 
L 244.41136 146.010128 
L 244.701929 146.263201 
L 244.994048 146.872331 
L 245.28871 145.283642 
L 245.580163 145.555875 
L 245.872925 145.488017 
L 246.163583 145.810544 
L 246.74665 145.873613 
L 247.626148 145.290828 
L 247.917031 145.405788 
L 248.209144 145.368266 
L 248.500508 145.488017 
L 248.793633 145.392216 
L 249.082811 145.160699 
L 249.372742 145.360283 
L 249.639914 142.859096 
L 250.159672 142.322614 
L 250.41864 142.541358 
L 250.677877 141.744619 
L 250.939007 141.761384 
L 251.198669 142.0895 
L 251.457629 141.972145 
L 251.716171 142.64115 
L 251.977199 142.028827 
L 252.235143 142.748127 
L 252.494471 141.850798 
L 252.75411 141.438856 
L 253.015339 142.006473 
L 253.274351 141.964161 
L 253.534041 141.723862 
L 253.794035 141.925841 
L 254.31583 141.40373 
L 254.574229 142.182107 
L 254.836209 141.335871 
L 255.094674 141.119522 
L 255.35629 141.601717 
L 255.616003 141.756594 
L 256.657 141.45642 
L 256.921587 141.040487 
L 257.179335 141.589742 
L 257.439241 141.576968 
L 257.697055 140.64052 
L 257.961156 141.315913 
L 258.218023 141.0341 
L 258.478054 141.092378 
L 258.740095 140.399423 
L 259.00324 140.941493 
L 259.527524 140.011432 
L 259.788942 140.222991 
L 260.050964 141.184985 
L 260.315027 139.977103 
L 260.574783 141.097967 
L 260.833089 139.942775 
L 261.094143 140.112022 
L 261.355804 140.523165 
L 261.61909 140.150342 
L 261.881121 140.218999 
L 262.144766 139.357594 
L 262.404271 140.828129 
L 262.667033 139.995465 
L 262.930579 140.44413 
L 263.193089 139.903656 
L 263.453605 139.743191 
L 263.714897 140.460895 
L 263.977171 139.937186 
L 264.501574 139.747182 
L 264.763677 139.987481 
L 265.026167 139.150825 
L 265.292473 138.981578 
L 265.555622 139.486925 
L 266.082909 139.834999 
L 266.347145 139.805461 
L 266.611435 140.100845 
L 266.875388 139.043848 
L 267.136781 139.698484 
L 267.662359 139.087757 
L 267.925394 139.155615 
L 268.191988 139.787099 
L 268.456859 139.344023 
L 268.981336 139.284946 
L 269.242982 138.66384 
L 269.497382 138.63989 
L 269.497382 138.63989 
" clip-path="url(#p3a222855dc)" style="fill: none; stroke: #ff0000; stroke-width: 1.5; stroke-linecap: square"/>
   </g>
   <g id="line2d_24">
    <path d="M 115.25017 512.463916 
L 115.453672 429.666094 
L 117.098101 323.355681 
L 118.780299 248.058226 
L 120.539732 258.2418 
L 122.287618 203.101531 
L 124.087163 200.114157 
L 125.874673 160.444841 
L 127.6499 161.096284 
L 131.403537 186.153656 
L 133.235307 146.723042 
L 135.16401 174.592952 
L 136.954607 115.208729 
L 138.851402 156.648754 
L 140.742692 142.913383 
L 142.640885 148.995905 
L 146.40808 122.483965 
L 148.317694 148.920063 
L 150.223286 136.206562 
L 152.071612 144.197906 
L 153.977637 140.698001 
L 155.862089 119.269864 
L 157.755782 116.366316 
L 159.64309 134.808676 
L 161.533088 112.23333 
L 163.39425 110.867378 
L 165.328825 118.544177 
L 169.140705 95.014021 
L 171.055055 103.433273 
L 174.878075 100.336527 
L 176.739467 77.702105 
L 180.500102 115.978325 
L 182.332005 62.208 
L 184.210532 92.733175 
L 186.115646 91.467813 
L 187.927607 91.332096 
L 189.814942 89.324281 
L 191.636661 77.617481 
L 193.551373 97.849711 
L 195.418276 66.067156 
L 197.329583 95.683027 
L 199.178814 115.278982 
L 201.056306 110.770779 
L 202.809317 62.208 
L 206.384971 62.208 
L 208.145756 69.106421 
L 209.993927 89.509495 
L 211.839313 98.299972 
L 213.634058 66.903014 
L 215.502366 97.242975 
L 217.286331 86.477414 
L 219.078846 87.00751 
L 220.886643 75.952951 
L 222.760707 94.166188 
L 224.589503 73.434201 
L 226.384796 73.217053 
L 228.168746 62.208 
L 229.932578 62.208 
L 231.731094 81.068688 
L 233.551577 91.474998 
L 235.292947 62.208 
L 237.083823 81.213985 
L 238.868447 65.77257 
L 240.617275 62.208 
L 242.408331 68.580318 
L 244.1688 62.208 
L 252.763874 62.208 
L 254.564046 67.595171 
L 256.35696 87.792274 
L 258.10943 66.978058 
L 259.863888 62.208 
L 261.615207 66.538973 
L 263.396659 107.693992 
L 265.178902 86.850237 
L 266.933083 87.247809 
L 268.712306 107.369868 
L 270.366972 62.208 
L 272.102361 86.330521 
L 273.879964 62.208 
L 275.673787 85.762904 
L 277.464984 95.740507 
L 279.233451 71.488656 
L 280.906916 62.208 
L 282.531318 62.208 
L 284.239456 74.179048 
L 285.978722 63.154826 
L 287.628046 62.867426 
L 289.362054 95.726935 
L 291.065967 63.537229 
L 292.702692 62.208 
L 295.994264 62.208 
L 297.70271 63.085371 
L 299.316073 62.208 
L 300.965988 62.208 
L 302.730255 85.229615 
L 304.470533 74.384221 
L 306.153051 62.208 
L 307.86064 111.999418 
L 309.504081 62.208 
L 311.263459 72.189595 
L 312.988776 75.473949 
L 314.580713 62.208 
L 317.89473 62.208 
L 319.615878 76.281865 
L 321.290854 62.208 
L 322.996555 74.963813 
L 324.604906 62.208 
L 326.267919 77.105748 
L 327.921228 65.883539 
L 329.605331 99.774499 
L 331.261233 62.208 
L 332.907221 78.546745 
L 334.612884 88.973013 
L 336.185841 66.917384 
L 337.828584 79.167052 
L 339.472995 79.357056 
L 341.113637 90.993601 
L 342.757754 62.208 
L 344.326686 79.562228 
L 345.896588 62.208 
L 347.510557 90.084296 
L 349.137333 80.426826 
L 350.811075 67.503363 
L 352.393906 62.208 
L 355.601133 62.208 
L 357.219124 70.402919 
L 358.867039 62.208 
L 360.475009 69.969423 
L 362.083643 62.208 
L 363.692108 62.208 
L 365.318562 70.842802 
L 366.966585 71.119026 
L 368.567962 71.542943 
L 370.159356 71.579666 
L 371.779072 106.193919 
L 373.398923 94.927003 
L 375.019652 72.404347 
L 376.611022 62.208 
L 378.241925 119.22835 
L 379.828015 99.234025 
L 381.387549 73.217852 
L 383.019145 119.00801 
L 384.539311 62.208 
L 386.121411 62.310985 
L 387.698122 110.02194 
L 389.293658 74.556661 
L 390.855212 63.854967 
L 392.474745 109.942904 
L 394.054526 75.339031 
L 395.622391 64.365902 
L 397.156337 62.208 
L 398.742331 88.233754 
L 400.342382 88.956248 
L 401.895832 65.430882 
L 403.454233 88.901961 
L 404.986831 62.208 
L 406.533891 90.560105 
L 408.081699 66.330607 
L 409.674877 78.712 
L 411.284781 134.971536 
L 412.844835 75.715047 
L 414.425896 90.547331 
L 415.98842 91.400753 
L 417.501398 62.208 
L 418.98102 62.208 
L 420.583968 103.888324 
L 422.161977 81.755257 
L 423.675047 62.208 
L 425.183568 70.549813 
L 426.69336 66.364137 
L 428.225884 94.815236 
L 429.731679 70.426869 
L 431.272709 72.058668 
L 432.821758 82.792295 
L 434.33825 95.718154 
L 435.833851 70.25363 
L 437.377714 62.208 
L 438.926597 62.208 
L 440.490797 84.775362 
L 442.011271 96.59313 
L 443.545984 85.729374 
L 445.124311 120.502495 
L 446.626289 73.863706 
L 448.10992 98.745444 
L 449.562502 87.131252 
L 451.114374 86.883767 
L 452.658227 99.272345 
L 454.205854 99.531805 
L 455.667941 62.208 
L 457.147556 88.694393 
L 458.676491 125.092128 
L 460.150844 76.693008 
L 461.655389 78.598636 
L 463.098309 65.586558 
L 464.598748 91.376802 
L 466.14228 90.52897 
L 467.66272 102.761074 
L 469.127734 90.976836 
L 470.617676 115.575963 
L 472.125966 115.293352 
L 473.665252 79.737064 
L 475.156957 79.598153 
L 476.624174 80.353379 
L 478.082344 62.208 
L 479.614207 139.818234 
L 481.095143 80.846751 
L 482.54637 94.418463 
L 484.099335 105.200789 
L 485.632629 128.718969 
L 487.098902 62.208 
L 488.609051 94.942171 
L 490.044031 120.788299 
L 491.601871 129.695334 
L 493.084299 83.459704 
L 494.592909 72.164048 
L 496.062016 137.243601 
L 497.564892 108.691912 
L 499.087247 108.012528 
L 500.6319 108.14106 
L 502.147072 96.98671 
L 503.64811 121.215409 
L 505.127404 96.938809 
L 506.671776 132.353793 
L 508.124052 62.208 
L 509.625828 85.892234 
L 511.140293 145.747476 
L 512.588645 98.784562 
L 514.072853 122.966958 
L 515.596454 87.202303 
L 517.064228 87.492099 
L 518.561855 75.885092 
L 520.047807 87.872107 
L 521.526853 63.899674 
L 523.003331 77.335669 
L 524.494598 111.53319 
L 526.008514 88.656073 
L 527.508608 88.785404 
L 529.016032 89.364996 
L 530.438211 64.374684 
L 531.903856 162.688166 
L 533.367 89.866351 
L 534.834133 101.427853 
L 536.300591 102.395436 
L 536.300591 102.395436 
" clip-path="url(#p3a222855dc)" style="fill: none; stroke: #0000ff; stroke-width: 1.5; stroke-linecap: square"/>
   </g>
   <g id="line2d_25">
    <path d="M 116.743039 300.529658 
L 118.550784 198.065627 
L 120.462057 199.318216 
L 122.388796 167.137292 
L 124.329132 156.702242 
L 126.276624 171.259101 
L 128.268569 176.46026 
L 130.299118 129.345663 
L 132.356764 122.741029 
L 134.373149 118.605648 
L 136.38469 111.359153 
L 138.398623 116.54674 
L 140.420761 111.605838 
L 142.452424 97.373104 
L 144.578063 136.260849 
L 146.571879 91.824669 
L 148.631063 127.325873 
L 150.615951 72.236697 
L 152.612674 62.208 
L 154.704151 81.360081 
L 156.883404 116.553127 
L 158.917991 70.914652 
L 160.961256 72.778767 
L 163.054514 92.883262 
L 165.044397 62.208 
L 167.152409 99.774499 
L 169.19619 62.208 
L 171.290941 87.112092 
L 173.35237 62.208 
L 175.412397 115.801892 
L 177.455391 62.208 
L 179.576976 122.072023 
L 181.725535 111.799834 
L 183.798463 62.208 
L 185.925919 98.995323 
L 187.946028 65.863581 
L 190.047906 85.731769 
L 192.141162 62.208 
L 194.198257 75.652777 
L 196.220438 62.208 
L 198.229331 62.208 
L 200.324508 80.725404 
L 202.297425 62.208 
L 204.396883 62.208 
L 206.479037 78.358337 
L 208.464755 62.208 
L 210.604351 97.999798 
L 212.723177 87.896057 
L 214.823523 62.208 
L 216.92705 64.21821 
L 219.054288 84.412119 
L 221.16379 96.604307 
L 223.232367 72.145687 
L 225.408514 114.07589 
L 227.562239 135.312426 
L 229.531453 62.208 
L 231.652725 63.375167 
L 233.796247 104.333796 
L 235.949485 92.142407 
L 238.054886 113.45718 
L 240.123407 62.208 
L 242.275901 81.545295 
L 244.348464 62.208 
L 246.427369 70.931417 
L 248.475797 62.208 
L 250.582022 79.05289 
L 252.543749 62.208 
L 254.567343 62.208 
L 256.606727 71.110245 
L 258.600597 62.208 
L 264.474739 62.208 
L 266.394352 70.271194 
L 268.33951 62.208 
L 272.191351 62.208 
L 274.143129 92.099297 
L 276.08525 71.300249 
L 278.011106 80.941753 
L 279.988269 70.378969 
L 281.924926 80.794859 
L 283.820135 62.208 
L 285.726799 90.401236 
L 287.704634 110.206355 
L 289.639185 88.652082 
L 291.591627 69.709165 
L 293.491938 62.208 
L 295.433969 79.622902 
L 297.339376 80.953728 
L 299.204912 62.208 
L 301.109244 68.732002 
L 303.032693 78.795825 
L 304.934389 68.975494 
L 306.79989 68.253799 
L 308.659411 62.208 
L 310.473177 62.208 
L 312.364016 78.540358 
L 314.249307 63.602693 
L 316.081534 62.208 
L 317.926151 78.295269 
L 319.759729 101.509283 
L 321.6241 62.208 
L 323.441012 62.208 
L 325.335946 67.591978 
L 327.198944 89.011333 
L 329.019013 62.208 
L 330.871644 88.885994 
L 332.683592 62.208 
L 336.389164 77.5608 
L 338.201001 62.208 
L 345.519234 62.208 
L 347.374143 78.909189 
L 349.121055 62.208 
L 350.875565 62.208 
L 352.694653 68.0614 
L 354.510833 62.208 
L 361.659619 62.208 
L 363.502764 69.281257 
L 365.232892 62.208 
L 370.509061 62.208 
L 372.293037 71.063143 
L 374.105424 70.06203 
L 375.867546 62.208 
L 377.570472 62.208 
L 379.384931 80.126652 
L 381.163905 62.208 
L 382.868304 62.208 
L 384.676901 70.793305 
L 386.350436 62.208 
L 389.751601 62.208 
L 391.532601 81.410376 
L 393.231376 62.208 
L 395.008516 62.208 
L 396.790301 81.60038 
L 398.526877 62.208 
L 400.293273 71.168523 
L 402.077051 62.208 
L 409.046834 62.208 
L 410.826198 102.03858 
L 412.496286 62.208 
L 414.241666 62.208 
L 415.983529 92.460144 
L 417.758909 62.208 
L 419.508364 62.208 
L 421.262865 92.859312 
L 422.981638 71.310627 
L 424.704358 62.208 
L 428.226181 62.208 
L 429.965885 94.192534 
L 431.671065 62.208 
L 433.431031 72.393969 
L 435.158152 62.208 
L 438.614042 62.208 
L 440.343951 72.516913 
L 442.104163 62.496998 
L 443.868166 92.549558 
L 445.605199 72.935241 
L 447.358907 72.469013 
L 449.090341 62.208 
L 450.717777 62.208 
L 452.455254 72.312539 
L 454.196791 62.208 
L 455.953517 62.208 
L 457.640434 71.785637 
L 459.35269 73.543573 
L 461.102743 73.561136 
L 462.812226 62.208 
L 464.534238 62.695783 
L 466.291379 83.718365 
L 468.024449 62.849862 
L 469.717983 62.208 
L 471.492295 125.522431 
L 473.169681 62.208 
L 474.909355 83.746307 
L 476.602391 63.477354 
L 478.338133 62.79797 
L 479.994333 85.632775 
L 481.699744 62.208 
L 483.405407 62.996756 
L 485.141682 62.208 
L 491.830507 62.208 
L 493.570727 84.65641 
L 495.28347 62.208 
L 497.014687 94.352201 
L 498.706605 62.208 
L 503.843917 62.208 
L 505.598256 74.08724 
L 507.294425 62.884191 
L 508.940494 74.907929 
L 510.63142 63.125288 
L 512.303183 62.208 
L 514.066382 63.845387 
L 515.805777 96.236274 
L 517.495355 62.208 
L 519.211136 84.074423 
L 520.904169 62.208 
L 522.643997 84.498339 
L 524.358448 71.686643 
L 526.066336 73.517228 
L 527.739688 62.208 
L 532.622974 62.208 
L 534.067934 103.145872 
L 535.445269 62.208 
L 536.857416 83.684037 
L 538.25512 64.813769 
L 539.636799 64.733137 
L 541.025436 65.58097 
L 543.859211 104.291484 
L 545.251342 84.724269 
L 546.657456 84.712294 
L 548.063466 84.863977 
L 549.489476 113.541803 
L 550.886788 94.999651 
L 552.2297 62.208 
L 553.577743 62.208 
L 554.946179 74.870407 
L 556.322766 94.159003 
L 557.68852 94.50628 
L 559.03175 62.208 
L 560.396362 93.644875 
L 561.768704 94.186945 
L 563.137583 84.345857 
L 564.514721 64.790617 
L 565.898639 103.810886 
L 567.260048 75.327854 
L 568.645728 85.109865 
L 569.994996 103.336674 
L 571.384932 74.833684 
L 572.758458 84.797715 
L 574.123181 123.763697 
L 575.446666 73.890051 
L 576.807896 94.323461 
L 578.200933 84.78574 
L 579.561081 76.57246 
L 580.875763 62.208 
L 582.272339 93.965806 
L 583.653036 84.356236 
L 584.977865 83.933916 
L 586.359005 84.06165 
L 588.756818 68.328842 
L 589.465274 103.901896 
L 590.174138 103.557015 
L 590.877745 103.401339 
L 591.582032 102.785822 
L 592.287889 102.840907 
L 592.991746 102.492833 
L 593.696086 102.355519 
L 594.384834 102.015428 
L 594.796093 101.68811 
L 594.796093 101.68811 
" clip-path="url(#p3a222855dc)" style="fill: none; stroke: #9467bd; stroke-width: 1.5; stroke-linecap: square"/>
   </g>
   <g id="line2d_26">
    <path d="M 115.264092 487.096789 
L 115.511864 394.45788 
L 117.239597 302.83605 
L 118.922704 256.292263 
L 120.467224 190.297818 
L 122.215787 216.683621 
L 123.992377 203.905455 
L 125.67947 133.499405 
L 127.478033 195.153297 
L 129.3499 188.54068 
L 131.146622 172.710476 
L 133.000838 157.436711 
L 134.843911 153.224691 
L 136.715267 144.914811 
L 138.514845 113.213687 
L 140.40674 159.668061 
L 142.268128 126.678422 
L 144.14849 113.172972 
L 145.953623 108.412494 
L 147.790935 96.881329 
L 149.596914 96.53565 
L 151.491219 142.257949 
L 153.310579 128.376483 
L 155.170931 127.637224 
L 157.066711 125.526423 
L 158.904649 102.740317 
L 160.799302 132.516653 
L 162.53805 86.521323 
L 164.324364 107.206209 
L 166.066019 62.208 
L 167.933361 114.293037 
L 169.87721 122.280389 
L 171.755036 121.456506 
L 173.524173 87.686095 
L 175.376947 97.626177 
L 177.225745 86.62351 
L 179.038945 95.078686 
L 180.831545 72.204763 
L 182.60879 62.208 
L 184.488683 80.974484 
L 186.249452 67.604751 
L 188.108877 109.829541 
L 190.03517 108.165809 
L 191.902024 107.802566 
L 195.658738 64.951881 
L 197.484266 62.208 
L 199.354261 62.23195 
L 201.22901 71.526976 
L 203.031305 69.506388 
L 204.87056 69.27008 
L 206.675243 62.208 
L 208.547714 68.354389 
L 210.351698 62.208 
L 212.153881 62.208 
L 214.043647 96.434261 
L 215.906578 95.944083 
L 217.773949 64.052156 
L 219.603835 63.176382 
L 221.489232 62.772424 
L 223.320704 82.576745 
L 225.153709 62.208 
L 227.012812 70.761372 
L 228.891895 111.599452 
L 230.740763 82.876919 
L 232.544992 62.208 
L 234.342626 62.208 
L 236.19285 78.623385 
L 237.922446 77.20554 
L 239.762529 87.930386 
L 241.549713 97.054568 
L 243.340193 62.208 
L 245.181442 75.608868 
L 247.091201 95.56647 
L 248.960271 85.305457 
L 252.566259 62.208 
L 254.361365 62.208 
L 256.20057 73.075748 
L 258.049975 62.208 
L 259.914921 113.119483 
L 261.754607 71.556515 
L 263.460871 82.403506 
L 265.276117 62.208 
L 267.100467 91.348062 
L 268.864101 62.208 
L 270.688231 69.507186 
L 272.415227 62.208 
L 274.170568 62.208 
L 275.945931 80.429221 
L 277.661088 62.208 
L 286.592966 62.208 
L 288.373605 65.304745 
L 290.152199 67.362057 
L 291.954218 77.958371 
L 293.729506 62.208 
L 297.203809 62.208 
L 298.990868 66.079131 
L 300.778354 66.664312 
L 302.510748 62.208 
L 304.320449 76.885407 
L 306.065011 98.668803 
L 307.799216 62.208 
L 311.226299 62.208 
L 312.991863 66.22363 
L 314.682563 65.873161 
L 316.400907 62.208 
L 326.626138 62.208 
L 328.309483 64.631748 
L 330.029828 87.02188 
L 331.690725 65.363822 
L 333.353655 62.208 
L 335.04142 62.208 
L 336.816011 76.058331 
L 338.494167 62.208 
L 340.203284 64.820954 
L 341.834423 62.208 
L 351.999844 62.208 
L 353.704609 65.499539 
L 355.385735 62.208 
L 360.336706 62.208 
L 362.046182 74.386616 
L 363.658054 62.208 
L 365.411604 84.419304 
L 367.14162 62.208 
L 368.871009 85.036418 
L 370.598729 62.972806 
L 372.298682 62.208 
L 374.071556 83.690423 
L 375.867741 62.208 
L 377.615174 62.208 
L 379.332998 63.092556 
L 381.049094 62.208 
L 382.766896 62.208 
L 384.531477 64.154343 
L 386.239699 97.262135 
L 387.954995 62.208 
L 389.670643 75.322265 
L 391.429619 84.846414 
L 393.091369 62.208 
L 394.790051 64.691623 
L 396.445743 62.208 
L 401.486015 62.208 
L 403.179284 73.008688 
L 404.895602 62.208 
L 406.607074 64.738725 
L 408.276297 68.024676 
L 409.955236 62.338129 
L 411.687009 62.208 
L 415.107466 62.208 
L 416.788027 110.629473 
L 418.50085 65.992911 
L 420.23364 87.895259 
L 421.886923 66.206067 
L 423.571294 62.208 
L 425.242311 66.546956 
L 426.938161 78.63057 
L 428.632006 66.81839 
L 430.239868 62.208 
L 436.8858 62.208 
L 438.553915 78.64973 
L 440.141098 62.208 
L 441.853531 90.336571 
L 443.531051 67.661433 
L 445.214223 62.208 
L 446.894514 78.489264 
L 448.528434 62.208 
L 450.252802 90.805194 
L 451.884166 62.208 
L 453.586666 62.208 
L 455.260366 69.298022 
L 456.934618 69.348317 
L 458.649109 80.754144 
L 460.26538 62.208 
L 461.908261 69.717148 
L 463.533175 80.130643 
L 465.148884 69.81215 
L 466.832205 102.505606 
L 468.494797 62.208 
L 470.061728 62.208 
L 471.686535 82.378757 
L 473.302109 62.208 
L 474.949949 70.826037 
L 476.59969 82.417078 
L 478.193484 62.208 
L 479.813898 62.208 
L 481.458499 82.789102 
L 483.11427 62.208 
L 486.328878 62.208 
L 487.972196 107.230957 
L 489.598974 72.260647 
L 491.139199 62.208 
L 492.773722 62.208 
L 494.387105 84.59414 
L 496.020804 86.007194 
L 497.658338 97.500838 
L 499.187847 62.208 
L 500.781116 73.868496 
L 502.332494 62.208 
L 503.821832 62.208 
L 505.418433 62.508174 
L 507.041116 85.911394 
L 508.631007 68.812634 
L 510.199921 110.263836 
L 511.74922 62.208 
L 517.963272 62.208 
L 519.596914 65.068438 
L 521.223284 109.10066 
L 522.739434 62.208 
L 524.311857 76.276277 
L 525.863755 62.208 
L 527.42348 77.397939 
L 529.024899 77.731644 
L 530.559631 77.822654 
L 532.183345 112.490395 
L 533.750282 70.255227 
L 535.343558 62.208 
L 537.209413 74.887172 
L 538.152917 62.208 
L 538.729963 62.208 
L 538.819664 73.111673 
L 539.103131 73.473319 
L 539.239229 70.060433 
L 539.483962 76.791204 
L 539.617062 70.081988 
L 539.840122 69.290837 
L 540.025844 72.579183 
L 540.236443 62.208 
L 540.54259 70.050853 
L 540.626897 103.766179 
L 540.803955 99.853534 
L 540.878779 87.139235 
L 540.880713 104.962884 
L 540.909286 102.822546 
L 540.945115 109.454323 
L 540.967517 94.603677 
L 541.013104 102.572666 
L 541.020873 93.406971 
L 541.112948 109.209234 
L 541.214759 92.019463 
L 541.205997 113.308689 
L 541.241462 96.730444 
L 541.284998 105.57441 
L 541.245192 91.478989 
L 541.312027 99.26516 
" clip-path="url(#p3a222855dc)" style="fill: none; stroke: #ff7f0e; stroke-width: 1.5; stroke-linecap: square"/>
   </g>
   <g id="patch_3">
    <path d="M 115.2 461.376 
L 115.2 62.208 
" style="fill: none; stroke: #000000; stroke-width: 0.8; stroke-linejoin: miter; stroke-linecap: square"/>
   </g>
   <g id="patch_4">
    <path d="M 829.44 461.376 
L 829.44 62.208 
" style="fill: none; stroke: #000000; stroke-width: 0.8; stroke-linejoin: miter; stroke-linecap: square"/>
   </g>
   <g id="patch_5">
    <path d="M 115.2 461.376 
L 829.44 461.376 
" style="fill: none; stroke: #000000; stroke-width: 0.8; stroke-linejoin: miter; stroke-linecap: square"/>
   </g>
   <g id="patch_6">
    <path d="M 115.2 62.208 
L 829.44 62.208 
" style="fill: none; stroke: #000000; stroke-width: 0.8; stroke-linejoin: miter; stroke-linecap: square"/>
   </g>
   <g id="legend_1">
    <g id="patch_7">
     <path d="M 681.45375 184.864875 
L 816.14 184.864875 
Q 819.94 184.864875 819.94 181.064875 
L 819.94 75.508 
Q 819.94 71.708 816.14 71.708 
L 681.45375 71.708 
Q 677.65375 71.708 677.65375 75.508 
L 677.65375 181.064875 
Q 677.65375 184.864875 681.45375 184.864875 
z
" style="fill: #ffffff; opacity: 0.8; stroke: #cccccc; stroke-linejoin: miter"/>
    </g>
    <g id="line2d_27">
     <path d="M 685.25375 85.958 
L 704.25375 85.958 
L 723.25375 85.958 
" style="fill: none; stroke: #ff0000; stroke-width: 1.5; stroke-linecap: square"/>
    </g>
    <g id="text_25">
     <!-- MemC3-t -->
     <g transform="translate(738.45375 92.608) scale(0.19 -0.19)">
      <defs>
       <path id="TimesNewRomanPSMT-4d" d="M 2619 0 
L 981 3566 
L 981 734 
Q 981 344 1066 247 
Q 1181 116 1431 116 
L 1581 116 
L 1581 0 
L 106 0 
L 106 116 
L 256 116 
Q 525 116 638 278 
Q 706 378 706 734 
L 706 3503 
Q 706 3784 644 3909 
Q 600 4000 483 4061 
Q 366 4122 106 4122 
L 106 4238 
L 1306 4238 
L 2844 922 
L 4356 4238 
L 5556 4238 
L 5556 4122 
L 5409 4122 
Q 5138 4122 5025 3959 
Q 4956 3859 4956 3503 
L 4956 734 
Q 4956 344 5044 247 
Q 5159 116 5409 116 
L 5556 116 
L 5556 0 
L 3756 0 
L 3756 116 
L 3906 116 
Q 4178 116 4288 278 
Q 4356 378 4356 734 
L 4356 3566 
L 2722 0 
L 2619 0 
z
" transform="scale(0.015625)"/>
       <path id="TimesNewRomanPSMT-65" d="M 681 1784 
Q 678 1147 991 784 
Q 1303 422 1725 422 
Q 2006 422 2214 576 
Q 2422 731 2563 1106 
L 2659 1044 
Q 2594 616 2278 264 
Q 1963 -88 1488 -88 
Q 972 -88 605 314 
Q 238 716 238 1394 
Q 238 2128 614 2539 
Q 991 2950 1559 2950 
Q 2041 2950 2350 2633 
Q 2659 2316 2659 1784 
L 681 1784 
z
M 681 1966 
L 2006 1966 
Q 1991 2241 1941 2353 
Q 1863 2528 1708 2628 
Q 1553 2728 1384 2728 
Q 1125 2728 920 2526 
Q 716 2325 681 1966 
z
" transform="scale(0.015625)"/>
       <path id="TimesNewRomanPSMT-6d" d="M 1050 2338 
Q 1363 2650 1419 2697 
Q 1559 2816 1721 2881 
Q 1884 2947 2044 2947 
Q 2313 2947 2506 2790 
Q 2700 2634 2766 2338 
Q 3088 2713 3309 2830 
Q 3531 2947 3766 2947 
Q 3994 2947 4170 2830 
Q 4347 2713 4450 2447 
Q 4519 2266 4519 1878 
L 4519 647 
Q 4519 378 4559 278 
Q 4591 209 4675 161 
Q 4759 113 4950 113 
L 4950 0 
L 3538 0 
L 3538 113 
L 3597 113 
Q 3781 113 3884 184 
Q 3956 234 3988 344 
Q 4000 397 4000 647 
L 4000 1878 
Q 4000 2228 3916 2372 
Q 3794 2572 3525 2572 
Q 3359 2572 3192 2489 
Q 3025 2406 2788 2181 
L 2781 2147 
L 2788 2013 
L 2788 647 
Q 2788 353 2820 281 
Q 2853 209 2943 161 
Q 3034 113 3253 113 
L 3253 0 
L 1806 0 
L 1806 113 
Q 2044 113 2133 169 
Q 2222 225 2256 338 
Q 2272 391 2272 647 
L 2272 1878 
Q 2272 2228 2169 2381 
Q 2031 2581 1784 2581 
Q 1616 2581 1450 2491 
Q 1191 2353 1050 2181 
L 1050 647 
Q 1050 366 1089 281 
Q 1128 197 1204 155 
Q 1281 113 1516 113 
L 1516 0 
L 100 0 
L 100 113 
Q 297 113 375 155 
Q 453 197 493 289 
Q 534 381 534 647 
L 534 1741 
Q 534 2213 506 2350 
Q 484 2453 437 2492 
Q 391 2531 309 2531 
Q 222 2531 100 2484 
L 53 2597 
L 916 2947 
L 1050 2947 
L 1050 2338 
z
" transform="scale(0.015625)"/>
       <path id="TimesNewRomanPSMT-43" d="M 3853 4334 
L 3950 2894 
L 3853 2894 
Q 3659 3541 3300 3825 
Q 2941 4109 2438 4109 
Q 2016 4109 1675 3895 
Q 1334 3681 1139 3212 
Q 944 2744 944 2047 
Q 944 1472 1128 1050 
Q 1313 628 1683 403 
Q 2053 178 2528 178 
Q 2941 178 3256 354 
Q 3572 531 3950 1056 
L 4047 994 
Q 3728 428 3303 165 
Q 2878 -97 2294 -97 
Q 1241 -97 663 684 
Q 231 1266 231 2053 
Q 231 2688 515 3219 
Q 800 3750 1298 4042 
Q 1797 4334 2388 4334 
Q 2847 4334 3294 4109 
Q 3425 4041 3481 4041 
Q 3566 4041 3628 4100 
Q 3709 4184 3744 4334 
L 3853 4334 
z
" transform="scale(0.015625)"/>
       <path id="TimesNewRomanPSMT-33" d="M 325 3431 
Q 506 3859 782 4092 
Q 1059 4325 1472 4325 
Q 1981 4325 2253 3994 
Q 2459 3747 2459 3466 
Q 2459 3003 1878 2509 
Q 2269 2356 2469 2072 
Q 2669 1788 2669 1403 
Q 2669 853 2319 450 
Q 1863 -75 997 -75 
Q 569 -75 414 31 
Q 259 138 259 259 
Q 259 350 332 419 
Q 406 488 509 488 
Q 588 488 669 463 
Q 722 447 909 348 
Q 1097 250 1169 231 
Q 1284 197 1416 197 
Q 1734 197 1970 444 
Q 2206 691 2206 1028 
Q 2206 1275 2097 1509 
Q 2016 1684 1919 1775 
Q 1784 1900 1550 2001 
Q 1316 2103 1072 2103 
L 972 2103 
L 972 2197 
Q 1219 2228 1467 2375 
Q 1716 2522 1828 2728 
Q 1941 2934 1941 3181 
Q 1941 3503 1739 3701 
Q 1538 3900 1238 3900 
Q 753 3900 428 3381 
L 325 3431 
z
" transform="scale(0.015625)"/>
       <path id="TimesNewRomanPSMT-2d" d="M 259 1672 
L 1875 1672 
L 1875 1200 
L 259 1200 
L 259 1672 
z
" transform="scale(0.015625)"/>
       <path id="TimesNewRomanPSMT-74" d="M 1031 3803 
L 1031 2863 
L 1700 2863 
L 1700 2644 
L 1031 2644 
L 1031 788 
Q 1031 509 1111 412 
Q 1191 316 1316 316 
Q 1419 316 1516 380 
Q 1613 444 1666 569 
L 1788 569 
Q 1678 263 1478 108 
Q 1278 -47 1066 -47 
Q 922 -47 784 33 
Q 647 113 581 261 
Q 516 409 516 719 
L 516 2644 
L 63 2644 
L 63 2747 
Q 234 2816 414 2980 
Q 594 3144 734 3369 
Q 806 3488 934 3803 
L 1031 3803 
z
" transform="scale(0.015625)"/>
      </defs>
      <use xlink:href="#TimesNewRomanPSMT-4d"/>
      <use xlink:href="#TimesNewRomanPSMT-65" x="88.916016"/>
      <use xlink:href="#TimesNewRomanPSMT-6d" x="133.300781"/>
      <use xlink:href="#TimesNewRomanPSMT-43" x="211.083984"/>
      <use xlink:href="#TimesNewRomanPSMT-33" x="277.783203"/>
      <use xlink:href="#TimesNewRomanPSMT-2d" x="327.783203"/>
      <use xlink:href="#TimesNewRomanPSMT-74" x="361.083984"/>
     </g>
    </g>
    <g id="line2d_28">
     <path d="M 685.25375 112.822219 
L 704.25375 112.822219 
L 723.25375 112.822219 
" style="fill: none; stroke: #0000ff; stroke-width: 1.5; stroke-linecap: square"/>
    </g>
    <g id="text_26">
     <!-- caleKV -->
     <g transform="translate(738.45375 119.472219) scale(0.19 -0.19)">
      <defs>
       <path id="TimesNewRomanPSMT-63" d="M 2631 1088 
Q 2516 522 2178 217 
Q 1841 -88 1431 -88 
Q 944 -88 581 321 
Q 219 731 219 1428 
Q 219 2103 620 2525 
Q 1022 2947 1584 2947 
Q 2006 2947 2278 2723 
Q 2550 2500 2550 2259 
Q 2550 2141 2473 2067 
Q 2397 1994 2259 1994 
Q 2075 1994 1981 2113 
Q 1928 2178 1911 2362 
Q 1894 2547 1784 2644 
Q 1675 2738 1481 2738 
Q 1169 2738 978 2506 
Q 725 2200 725 1697 
Q 725 1184 976 792 
Q 1228 400 1656 400 
Q 1963 400 2206 609 
Q 2378 753 2541 1131 
L 2631 1088 
z
" transform="scale(0.015625)"/>
       <path id="TimesNewRomanPSMT-61" d="M 1822 413 
Q 1381 72 1269 19 
Q 1100 -59 909 -59 
Q 613 -59 420 144 
Q 228 347 228 678 
Q 228 888 322 1041 
Q 450 1253 767 1440 
Q 1084 1628 1822 1897 
L 1822 2009 
Q 1822 2438 1686 2597 
Q 1550 2756 1291 2756 
Q 1094 2756 978 2650 
Q 859 2544 859 2406 
L 866 2225 
Q 866 2081 792 2003 
Q 719 1925 600 1925 
Q 484 1925 411 2006 
Q 338 2088 338 2228 
Q 338 2497 613 2722 
Q 888 2947 1384 2947 
Q 1766 2947 2009 2819 
Q 2194 2722 2281 2516 
Q 2338 2381 2338 1966 
L 2338 994 
Q 2338 584 2353 492 
Q 2369 400 2405 369 
Q 2441 338 2488 338 
Q 2538 338 2575 359 
Q 2641 400 2828 588 
L 2828 413 
Q 2478 -56 2159 -56 
Q 2006 -56 1915 50 
Q 1825 156 1822 413 
z
M 1822 616 
L 1822 1706 
Q 1350 1519 1213 1441 
Q 966 1303 859 1153 
Q 753 1003 753 825 
Q 753 600 887 451 
Q 1022 303 1197 303 
Q 1434 303 1822 616 
z
" transform="scale(0.015625)"/>
       <path id="TimesNewRomanPSMT-6c" d="M 1184 4444 
L 1184 647 
Q 1184 378 1223 290 
Q 1263 203 1344 158 
Q 1425 113 1647 113 
L 1647 0 
L 244 0 
L 244 113 
Q 441 113 512 153 
Q 584 194 625 287 
Q 666 381 666 647 
L 666 3247 
Q 666 3731 644 3842 
Q 622 3953 573 3993 
Q 525 4034 450 4034 
Q 369 4034 244 3984 
L 191 4094 
L 1044 4444 
L 1184 4444 
z
" transform="scale(0.015625)"/>
       <path id="TimesNewRomanPSMT-4b" d="M 1913 2350 
L 3475 797 
Q 3859 413 4131 273 
Q 4403 134 4675 116 
L 4675 0 
L 2659 0 
L 2659 116 
Q 2841 116 2920 177 
Q 3000 238 3000 313 
Q 3000 388 2970 447 
Q 2941 506 2775 669 
L 1313 2116 
L 1313 750 
Q 1313 428 1353 325 
Q 1384 247 1484 191 
Q 1619 116 1769 116 
L 1913 116 
L 1913 0 
L 106 0 
L 106 116 
L 256 116 
Q 519 116 638 269 
Q 713 369 713 750 
L 713 3488 
Q 713 3809 672 3916 
Q 641 3991 544 4047 
Q 406 4122 256 4122 
L 106 4122 
L 106 4238 
L 1913 4238 
L 1913 4122 
L 1769 4122 
Q 1622 4122 1484 4050 
Q 1388 4000 1350 3900 
Q 1313 3800 1313 3488 
L 1313 2191 
Q 1375 2250 1741 2588 
Q 2669 3438 2863 3722 
Q 2947 3847 2947 3941 
Q 2947 4013 2881 4067 
Q 2816 4122 2659 4122 
L 2563 4122 
L 2563 4238 
L 4119 4238 
L 4119 4122 
Q 3981 4119 3868 4084 
Q 3756 4050 3593 3951 
Q 3431 3853 3194 3634 
Q 3125 3572 2559 2994 
L 1913 2350 
z
" transform="scale(0.015625)"/>
       <path id="TimesNewRomanPSMT-56" d="M 4544 4238 
L 4544 4122 
Q 4319 4081 4203 3978 
Q 4038 3825 3909 3509 
L 2431 -97 
L 2316 -97 
L 728 3556 
Q 606 3838 556 3900 
Q 478 3997 364 4051 
Q 250 4106 56 4122 
L 56 4238 
L 1788 4238 
L 1788 4122 
Q 1494 4094 1406 4022 
Q 1319 3950 1319 3838 
Q 1319 3681 1463 3350 
L 2541 866 
L 3541 3319 
Q 3688 3681 3688 3822 
Q 3688 3913 3597 3995 
Q 3506 4078 3291 4113 
Q 3275 4116 3238 4122 
L 3238 4238 
L 4544 4238 
z
" transform="scale(0.015625)"/>
      </defs>
      <use xlink:href="#TimesNewRomanPSMT-63"/>
      <use xlink:href="#TimesNewRomanPSMT-61" x="44.384766"/>
      <use xlink:href="#TimesNewRomanPSMT-6c" x="88.769531"/>
      <use xlink:href="#TimesNewRomanPSMT-65" x="116.552734"/>
      <use xlink:href="#TimesNewRomanPSMT-4b" x="160.9375"/>
      <use xlink:href="#TimesNewRomanPSMT-56" x="233.154297"/>
     </g>
    </g>
    <g id="line2d_29">
     <path d="M 685.25375 139.686437 
L 704.25375 139.686437 
L 723.25375 139.686437 
" style="fill: none; stroke: #9467bd; stroke-width: 1.5; stroke-linecap: square"/>
    </g>
    <g id="text_27">
     <!-- MICA-t -->
     <g transform="translate(738.45375 146.336437) scale(0.19 -0.19)">
      <defs>
       <path id="TimesNewRomanPSMT-49" d="M 1975 116 
L 1975 0 
L 159 0 
L 159 116 
L 309 116 
Q 572 116 691 269 
Q 766 369 766 750 
L 766 3488 
Q 766 3809 725 3913 
Q 694 3991 597 4047 
Q 459 4122 309 4122 
L 159 4122 
L 159 4238 
L 1975 4238 
L 1975 4122 
L 1822 4122 
Q 1563 4122 1444 3969 
Q 1366 3869 1366 3488 
L 1366 750 
Q 1366 428 1406 325 
Q 1438 247 1538 191 
Q 1672 116 1822 116 
L 1975 116 
z
" transform="scale(0.015625)"/>
       <path id="TimesNewRomanPSMT-41" d="M 2928 1419 
L 1288 1419 
L 1000 750 
Q 894 503 894 381 
Q 894 284 986 211 
Q 1078 138 1384 116 
L 1384 0 
L 50 0 
L 50 116 
Q 316 163 394 238 
Q 553 388 747 847 
L 2238 4334 
L 2347 4334 
L 3822 809 
Q 4000 384 4145 257 
Q 4291 131 4550 116 
L 4550 0 
L 2878 0 
L 2878 116 
Q 3131 128 3220 200 
Q 3309 272 3309 375 
Q 3309 513 3184 809 
L 2928 1419 
z
M 2841 1650 
L 2122 3363 
L 1384 1650 
L 2841 1650 
z
" transform="scale(0.015625)"/>
      </defs>
      <use xlink:href="#TimesNewRomanPSMT-4d"/>
      <use xlink:href="#TimesNewRomanPSMT-49" x="88.916016"/>
      <use xlink:href="#TimesNewRomanPSMT-43" x="122.216797"/>
      <use xlink:href="#TimesNewRomanPSMT-41" x="188.916016"/>
      <use xlink:href="#TimesNewRomanPSMT-2d" x="261.132812"/>
      <use xlink:href="#TimesNewRomanPSMT-74" x="294.433594"/>
     </g>
    </g>
    <g id="line2d_30">
     <path d="M 685.25375 166.550656 
L 704.25375 166.550656 
L 723.25375 166.550656 
" style="fill: none; stroke: #ff7f0e; stroke-width: 1.5; stroke-linecap: square"/>
    </g>
    <g id="text_28">
     <!-- caleKV -->
     <g transform="translate(738.45375 173.200656) scale(0.19 -0.19)">
      <use xlink:href="#TimesNewRomanPSMT-63"/>
      <use xlink:href="#TimesNewRomanPSMT-61" x="44.384766"/>
      <use xlink:href="#TimesNewRomanPSMT-6c" x="88.769531"/>
      <use xlink:href="#TimesNewRomanPSMT-65" x="116.552734"/>
      <use xlink:href="#TimesNewRomanPSMT-4b" x="160.9375"/>
      <use xlink:href="#TimesNewRomanPSMT-56" x="233.154297"/>
     </g>
    </g>
   </g>
  </g>
 </g>
 <defs>
  <clipPath id="p3a222855dc">
   <rect x="115.2" y="62.208" width="714.24" height="399.168"/>
  </clipPath>
 </defs>
</svg>
