<?xml version="1.0" encoding="utf-8" standalone="no"?>
<!DOCTYPE svg PUBLIC "-//W3C//DTD SVG 1.1//EN"
  "http://www.w3.org/Graphics/SVG/1.1/DTD/svg11.dtd">
<svg xmlns:xlink="http://www.w3.org/1999/xlink" width="921.6pt" height="518.4pt" viewBox="0 0 921.6 518.4" xmlns="http://www.w3.org/2000/svg" version="1.1">
 <metadata>
  <rdf:RDF xmlns:dc="http://purl.org/dc/elements/1.1/" xmlns:cc="http://creativecommons.org/ns#" xmlns:rdf="http://www.w3.org/1999/02/22-rdf-syntax-ns#">
   <cc:Work>
    <dc:type rdf:resource="http://purl.org/dc/dcmitype/StillImage"/>
    <dc:date>2023-08-26T17:29:50.330826</dc:date>
    <dc:format>image/svg+xml</dc:format>
    <dc:creator>
     <cc:Agent>
      <dc:title>Matplotlib v3.7.1, https://matplotlib.org/</dc:title>
     </cc:Agent>
    </dc:creator>
   </cc:Work>
  </rdf:RDF>
 </metadata>
 <defs>
  <style type="text/css">*{stroke-linejoin: round; stroke-linecap: butt}</style>
 </defs>
 <g id="figure_1">
  <g id="patch_1">
   <path d="M 0 518.4 
L 921.6 518.4 
L 921.6 0 
L 0 0 
z
" style="fill: #ffffff"/>
  </g>
  <g id="axes_1">
   <g id="patch_2">
    <path d="M 115.2 461.376 
L 829.44 461.376 
L 829.44 62.208 
L 115.2 62.208 
z
" style="fill: #ffffff"/>
   </g>
   <g id="matplotlib.axis_1">
    <g id="xtick_1">
     <g id="line2d_1">
      <defs>
       <path id="mb564c1d76e" d="M 0 0 
L 0 3.5 
" style="stroke: #000000; stroke-width: 0.8"/>
      </defs>
      <g>
       <use xlink:href="#mb564c1d76e" x="115.2" y="461.376" style="stroke: #000000; stroke-width: 0.8"/>
      </g>
     </g>
     <g id="text_1">
      <!-- 0 -->
      <g transform="translate(110.45 481.958031) scale(0.19 -0.19)">
       <defs>
        <path id="SimSun-30" d="M 1600 4225 
Q 1250 4225 1012 3687 
Q 775 3150 775 2250 
Q 775 1300 1012 775 
Q 1250 250 1600 250 
Q 1975 250 2187 775 
Q 2400 1300 2400 2250 
Q 2400 3150 2200 3687 
Q 2000 4225 1600 4225 
z
M 1600 50 
Q 1050 50 675 625 
Q 300 1200 300 2250 
Q 300 3225 662 3825 
Q 1025 4425 1600 4425 
Q 2150 4425 2512 3850 
Q 2875 3275 2875 2250 
Q 2875 1225 2512 637 
Q 2150 50 1600 50 
z
" transform="scale(0.015625)"/>
       </defs>
       <use xlink:href="#SimSun-30"/>
      </g>
     </g>
    </g>
    <g id="xtick_2">
     <g id="line2d_2">
      <g>
       <use xlink:href="#mb564c1d76e" x="186.624" y="461.376" style="stroke: #000000; stroke-width: 0.8"/>
      </g>
     </g>
     <g id="text_2">
      <!-- 200 -->
      <g transform="translate(172.374 481.958031) scale(0.19 -0.19)">
       <defs>
        <path id="SimSun-32" d="M 2325 3325 
Q 2325 3775 2125 4012 
Q 1925 4250 1525 4250 
Q 1225 4250 1012 4087 
Q 800 3925 800 3675 
Q 800 3525 900 3425 
Q 975 3325 975 3225 
Q 975 3100 912 3037 
Q 850 2975 725 2975 
Q 575 2975 487 3062 
Q 400 3150 400 3350 
Q 400 3875 775 4150 
Q 1150 4425 1575 4425 
Q 2175 4425 2462 4125 
Q 2750 3825 2750 3375 
Q 2750 3075 2612 2775 
Q 2475 2475 2175 2200 
Q 1450 1500 1062 1062 
Q 675 625 600 475 
L 2075 475 
Q 2300 475 2450 650 
Q 2600 825 2650 1175 
L 2800 1175 
L 2650 100 
L 325 100 
L 325 425 
Q 450 650 737 1000 
Q 1025 1350 1500 1825 
Q 1925 2250 2125 2625 
Q 2325 3000 2325 3325 
z
" transform="scale(0.015625)"/>
       </defs>
       <use xlink:href="#SimSun-32"/>
       <use xlink:href="#SimSun-30" x="50"/>
       <use xlink:href="#SimSun-30" x="100"/>
      </g>
     </g>
    </g>
    <g id="xtick_3">
     <g id="line2d_3">
      <g>
       <use xlink:href="#mb564c1d76e" x="258.048" y="461.376" style="stroke: #000000; stroke-width: 0.8"/>
      </g>
     </g>
     <g id="text_3">
      <!-- 400 -->
      <g transform="translate(243.798 481.958031) scale(0.19 -0.19)">
       <defs>
        <path id="SimSun-34" d="M 2300 575 
Q 2300 400 2400 325 
Q 2500 250 2675 250 
L 2900 250 
L 2900 100 
L 1250 100 
L 1250 250 
L 1525 250 
Q 1725 250 1812 325 
Q 1900 400 1900 575 
L 1900 1400 
L 225 1400 
L 225 1525 
L 2050 4425 
L 2300 4425 
L 2300 1550 
L 2975 1550 
L 2975 1400 
L 2300 1400 
L 2300 575 
z
M 1875 3800 
L 450 1550 
L 1900 1550 
L 1900 3800 
L 1875 3800 
z
" transform="scale(0.015625)"/>
       </defs>
       <use xlink:href="#SimSun-34"/>
       <use xlink:href="#SimSun-30" x="50"/>
       <use xlink:href="#SimSun-30" x="100"/>
      </g>
     </g>
    </g>
    <g id="xtick_4">
     <g id="line2d_4">
      <g>
       <use xlink:href="#mb564c1d76e" x="329.472" y="461.376" style="stroke: #000000; stroke-width: 0.8"/>
      </g>
     </g>
     <g id="text_4">
      <!-- 600 -->
      <g transform="translate(315.222 481.958031) scale(0.19 -0.19)">
       <defs>
        <path id="SimSun-36" d="M 775 1800 
Q 775 1050 1037 637 
Q 1300 225 1675 225 
Q 2050 225 2250 500 
Q 2450 775 2450 1525 
Q 2450 2025 2237 2300 
Q 2025 2575 1725 2575 
Q 1450 2575 1212 2412 
Q 975 2250 775 1800 
z
M 1750 2825 
Q 2350 2825 2612 2425 
Q 2875 2025 2875 1525 
Q 2875 775 2512 412 
Q 2150 50 1675 50 
Q 1000 50 650 562 
Q 300 1075 300 2050 
Q 300 3200 725 3812 
Q 1150 4425 1875 4425 
Q 2225 4425 2437 4225 
Q 2650 4025 2650 3875 
Q 2650 3725 2587 3650 
Q 2525 3575 2375 3575 
Q 2250 3575 2187 3637 
Q 2125 3700 2125 3825 
Q 2125 3875 2150 3925 
Q 2150 3975 2150 4025 
Q 2150 4125 2075 4187 
Q 2000 4250 1800 4250 
Q 1375 4250 1075 3862 
Q 775 3475 775 2175 
Q 925 2500 1187 2662 
Q 1450 2825 1750 2825 
z
" transform="scale(0.015625)"/>
       </defs>
       <use xlink:href="#SimSun-36"/>
       <use xlink:href="#SimSun-30" x="50"/>
       <use xlink:href="#SimSun-30" x="100"/>
      </g>
     </g>
    </g>
    <g id="xtick_5">
     <g id="line2d_5">
      <g>
       <use xlink:href="#mb564c1d76e" x="400.896" y="461.376" style="stroke: #000000; stroke-width: 0.8"/>
      </g>
     </g>
     <g id="text_5">
      <!-- 800 -->
      <g transform="translate(386.646 481.958031) scale(0.19 -0.19)">
       <defs>
        <path id="SimSun-38" d="M 625 1125 
Q 625 725 887 475 
Q 1150 225 1550 225 
Q 2025 225 2237 475 
Q 2450 725 2450 1100 
Q 2450 1425 2150 1725 
Q 1850 2025 1250 2275 
Q 950 2075 787 1775 
Q 625 1475 625 1125 
z
M 2825 1175 
Q 2825 700 2475 375 
Q 2125 50 1550 50 
Q 1025 50 650 375 
Q 275 700 275 1125 
Q 275 1550 487 1850 
Q 700 2150 1100 2375 
Q 750 2550 562 2812 
Q 375 3075 375 3400 
Q 375 3825 700 4125 
Q 1025 4425 1600 4425 
Q 2125 4425 2450 4125 
Q 2775 3825 2775 3400 
Q 2775 3100 2587 2837 
Q 2400 2575 2000 2375 
Q 2425 2125 2625 1825 
Q 2825 1525 2825 1175 
z
M 2425 3375 
Q 2425 3725 2225 3987 
Q 2025 4250 1600 4250 
Q 1125 4250 925 4000 
Q 725 3750 725 3475 
Q 725 3200 1012 2937 
Q 1300 2675 1825 2475 
Q 2125 2625 2275 2850 
Q 2425 3075 2425 3375 
z
" transform="scale(0.015625)"/>
       </defs>
       <use xlink:href="#SimSun-38"/>
       <use xlink:href="#SimSun-30" x="50"/>
       <use xlink:href="#SimSun-30" x="100"/>
      </g>
     </g>
    </g>
    <g id="xtick_6">
     <g id="line2d_6">
      <g>
       <use xlink:href="#mb564c1d76e" x="472.32" y="461.376" style="stroke: #000000; stroke-width: 0.8"/>
      </g>
     </g>
     <g id="text_6">
      <!-- 1000 -->
      <g transform="translate(453.32 481.958031) scale(0.19 -0.19)">
       <defs>
        <path id="SimSun-31" d="M 1825 4450 
L 1825 650 
Q 1825 450 1950 350 
Q 2075 250 2300 250 
L 2550 250 
L 2550 100 
L 725 100 
L 725 250 
L 950 250 
Q 1200 250 1312 350 
Q 1425 450 1425 650 
L 1425 3675 
Q 1425 3775 1362 3837 
Q 1300 3900 1175 3900 
L 725 3900 
L 725 4050 
L 950 4050 
Q 1250 4050 1437 4150 
Q 1625 4250 1725 4450 
L 1825 4450 
z
" transform="scale(0.015625)"/>
       </defs>
       <use xlink:href="#SimSun-31"/>
       <use xlink:href="#SimSun-30" x="50"/>
       <use xlink:href="#SimSun-30" x="100"/>
       <use xlink:href="#SimSun-30" x="150"/>
      </g>
     </g>
    </g>
    <g id="xtick_7">
     <g id="line2d_7">
      <g>
       <use xlink:href="#mb564c1d76e" x="543.744" y="461.376" style="stroke: #000000; stroke-width: 0.8"/>
      </g>
     </g>
     <g id="text_7">
      <!-- 1200 -->
      <g transform="translate(524.744 481.958031) scale(0.19 -0.19)">
       <use xlink:href="#SimSun-31"/>
       <use xlink:href="#SimSun-32" x="50"/>
       <use xlink:href="#SimSun-30" x="100"/>
       <use xlink:href="#SimSun-30" x="150"/>
      </g>
     </g>
    </g>
    <g id="xtick_8">
     <g id="line2d_8">
      <g>
       <use xlink:href="#mb564c1d76e" x="615.168" y="461.376" style="stroke: #000000; stroke-width: 0.8"/>
      </g>
     </g>
     <g id="text_8">
      <!-- 1400 -->
      <g transform="translate(596.168 481.958031) scale(0.19 -0.19)">
       <use xlink:href="#SimSun-31"/>
       <use xlink:href="#SimSun-34" x="50"/>
       <use xlink:href="#SimSun-30" x="100"/>
       <use xlink:href="#SimSun-30" x="150"/>
      </g>
     </g>
    </g>
    <g id="xtick_9">
     <g id="line2d_9">
      <g>
       <use xlink:href="#mb564c1d76e" x="686.592" y="461.376" style="stroke: #000000; stroke-width: 0.8"/>
      </g>
     </g>
     <g id="text_9">
      <!-- 1600 -->
      <g transform="translate(667.592 481.958031) scale(0.19 -0.19)">
       <use xlink:href="#SimSun-31"/>
       <use xlink:href="#SimSun-36" x="50"/>
       <use xlink:href="#SimSun-30" x="100"/>
       <use xlink:href="#SimSun-30" x="150"/>
      </g>
     </g>
    </g>
    <g id="xtick_10">
     <g id="line2d_10">
      <g>
       <use xlink:href="#mb564c1d76e" x="758.016" y="461.376" style="stroke: #000000; stroke-width: 0.8"/>
      </g>
     </g>
     <g id="text_10">
      <!-- 1800 -->
      <g transform="translate(739.016 481.958031) scale(0.19 -0.19)">
       <use xlink:href="#SimSun-31"/>
       <use xlink:href="#SimSun-38" x="50"/>
       <use xlink:href="#SimSun-30" x="100"/>
       <use xlink:href="#SimSun-30" x="150"/>
      </g>
     </g>
    </g>
    <g id="xtick_11">
     <g id="line2d_11">
      <g>
       <use xlink:href="#mb564c1d76e" x="829.44" y="461.376" style="stroke: #000000; stroke-width: 0.8"/>
      </g>
     </g>
     <g id="text_11">
      <!-- 2000 -->
      <g transform="translate(810.44 481.958031) scale(0.19 -0.19)">
       <use xlink:href="#SimSun-32"/>
       <use xlink:href="#SimSun-30" x="50"/>
       <use xlink:href="#SimSun-30" x="100"/>
       <use xlink:href="#SimSun-30" x="150"/>
      </g>
     </g>
    </g>
    <g id="text_12">
     <!-- 请求数 $\mathrm{(M)}$ -->
     <g transform="translate(424.25 504.17725) scale(0.19 -0.19)">
      <defs>
       <path id="SimSun-8bf7" d="M 3800 4400 
Q 3800 4925 3775 5250 
L 4350 5000 
L 4150 4825 
L 4150 4400 
L 5175 4400 
L 5525 4725 
L 5950 4250 
L 4150 4250 
L 4150 3725 
L 4875 3725 
L 5200 4025 
L 5600 3575 
L 4150 3575 
L 4150 2950 
L 5325 2950 
L 5675 3275 
L 6100 2800 
L 2650 2800 
Q 2450 2800 2175 2725 
L 1950 2950 
L 3800 2950 
L 3800 3575 
L 3225 3575 
Q 3025 3575 2750 3500 
L 2525 3725 
L 3800 3725 
L 3800 4250 
L 2850 4250 
Q 2650 4250 2375 4175 
L 2150 4400 
L 3800 4400 
z
M 3075 2150 
L 3075 1650 
L 4975 1650 
L 4975 2150 
L 3075 2150 
z
M 3075 1500 
L 3075 925 
L 4975 925 
L 4975 1500 
L 3075 1500 
z
M 2725 2500 
L 3050 2300 
L 4925 2300 
L 5075 2525 
L 5475 2225 
L 5300 2075 
L 5300 50 
Q 5325 -425 4750 -600 
Q 4750 -275 4075 -125 
L 4075 -25 
Q 4500 -50 4750 -62 
Q 5000 -75 4975 175 
L 4975 775 
L 3075 775 
L 3075 -450 
L 2725 -625 
Q 2750 125 2750 1000 
Q 2750 1875 2725 2500 
z
M 850 5000 
L 925 5050 
Q 1375 4750 1512 4562 
Q 1650 4375 1600 4200 
Q 1550 4025 1450 3950 
L 1325 3875 
Q 1225 3875 1200 4150 
Q 1150 4500 850 5000 
z
M 200 3075 
L 1100 3075 
L 1300 3325 
L 1725 3000 
L 1500 2825 
L 1500 600 
L 2400 1425 
L 2475 1350 
Q 1775 525 1400 -150 
L 1050 250 
Q 1150 400 1150 600 
L 1150 2925 
L 900 2925 
Q 700 2925 425 2850 
L 200 3075 
z
" transform="scale(0.015625)"/>
       <path id="SimSun-6c42" d="M 3950 5025 
Q 4500 4825 4737 4687 
Q 4975 4550 4975 4350 
Q 4975 4300 4912 4125 
Q 4850 3950 4800 3950 
Q 4725 3950 4625 4150 
Q 4425 4475 3900 4950 
L 3950 5025 
z
M 2900 5225 
L 3500 4900 
L 3300 4700 
L 3300 3775 
L 5050 3775 
L 5400 4150 
L 5900 3625 
L 3325 3625 
Q 3650 2575 4000 2000 
Q 4725 2575 5100 3125 
L 5525 2650 
Q 5250 2600 4950 2425 
Q 4650 2225 4050 1875 
Q 4900 650 6100 375 
L 6100 275 
Q 5675 225 5525 -75 
Q 3750 900 3300 3325 
L 3300 175 
Q 3325 -425 2675 -600 
Q 2650 -250 1925 -25 
L 1925 75 
Q 2475 25 2687 25 
Q 2900 25 2925 250 
L 2925 1700 
Q 1950 1075 1387 700 
Q 825 325 700 100 
L 300 600 
Q 575 650 1225 975 
Q 1875 1300 2925 1850 
L 2925 3625 
L 1275 3625 
Q 950 3625 675 3550 
L 450 3775 
L 2925 3775 
Q 2925 4850 2900 5225 
z
M 1050 3175 
Q 1775 2900 1975 2712 
Q 2175 2525 2175 2350 
Q 2175 2250 2075 2075 
Q 1975 1900 1925 1900 
Q 1850 1900 1750 2175 
Q 1575 2575 1000 3100 
L 1050 3175 
z
" transform="scale(0.015625)"/>
       <path id="SimSun-6570" d="M 1875 1525 
Q 1675 1200 1500 900 
Q 1825 825 2275 725 
Q 2500 975 2725 1525 
L 1875 1525 
z
M 850 4900 
Q 1325 4600 1425 4450 
Q 1525 4300 1525 4225 
Q 1525 4100 1437 3975 
Q 1350 3850 1300 3850 
Q 1225 3850 1150 4100 
Q 1050 4450 775 4850 
L 850 4900 
z
M 3000 4975 
L 3450 4675 
Q 3250 4625 3100 4425 
Q 2925 4225 2525 3825 
L 2450 3875 
Q 2925 4625 3000 4975 
z
M 1875 5250 
L 2425 5000 
L 2225 4825 
L 2225 3675 
L 2850 3675 
L 3125 3950 
L 3550 3525 
L 2225 3525 
L 2225 3300 
Q 2800 3175 2937 3062 
Q 3075 2950 3075 2775 
Q 3075 2700 3050 2587 
Q 3025 2475 2975 2475 
Q 2925 2475 2800 2650 
Q 2600 2925 2225 3175 
L 2225 2400 
L 1925 2200 
L 2275 2050 
Q 2150 2000 1950 1675 
L 2725 1675 
L 2900 1900 
L 3275 1575 
L 3050 1450 
Q 2800 875 2600 650 
Q 3000 550 3137 437 
Q 3275 325 3275 150 
Q 3275 -25 3200 -25 
Q 3125 -25 3025 75 
Q 2750 275 2400 425 
Q 1525 -275 325 -500 
L 300 -425 
Q 1450 -50 2100 550 
Q 1600 725 1125 800 
Q 1225 950 1525 1525 
L 1200 1525 
Q 875 1525 600 1450 
L 375 1675 
L 1575 1675 
Q 1675 1925 1775 2275 
L 1900 2225 
L 1900 3250 
Q 1225 2475 350 2050 
L 300 2125 
Q 1225 2775 1700 3525 
L 1250 3525 
Q 925 3525 650 3450 
L 425 3675 
L 1900 3675 
Q 1900 4575 1875 5250 
z
M 3925 3525 
Q 4050 2075 4525 1100 
Q 4925 1950 5025 3525 
L 3925 3525 
z
M 4050 5250 
L 4625 4925 
Q 4425 4850 4325 4625 
Q 4225 4400 3950 3675 
L 5375 3675 
L 5675 3975 
L 6125 3525 
L 5400 3525 
Q 5250 1675 4750 775 
Q 5325 75 6100 -100 
L 6100 -200 
Q 5625 -275 5600 -500 
Q 4950 -50 4525 525 
Q 3700 -275 2550 -650 
L 2500 -575 
Q 3650 -50 4325 800 
Q 3850 1975 3825 3375 
Q 3575 2725 3100 2150 
L 3025 2200 
Q 3625 3200 4050 5250 
z
" transform="scale(0.015625)"/>
       <path id="SimSun-20" d="M 0 0 
Q 0 0 0 0 
z
" transform="scale(0.015625)"/>
       <path id="STIXGeneral-Regular-28" d="M 1946 -1030 
L 1869 -1133 
Q 1126 -710 716 32 
Q 307 774 307 1613 
Q 307 3386 1888 4326 
L 1946 4224 
Q 1293 3667 1075 3126 
Q 858 2586 858 1632 
Q 858 685 1082 96 
Q 1306 -493 1946 -1030 
z
" transform="scale(0.015625)"/>
       <path id="STIXGeneral-Regular-4d" d="M 5530 0 
L 3738 0 
L 3738 122 
Q 4115 147 4214 265 
Q 4314 384 4314 787 
L 4314 3661 
L 2682 0 
L 2592 0 
L 979 3514 
L 979 966 
Q 979 448 1088 294 
Q 1197 141 1574 122 
L 1574 0 
L 77 0 
L 77 122 
Q 358 141 480 205 
Q 602 269 650 432 
Q 698 595 698 966 
L 698 3514 
Q 698 3878 589 3984 
Q 480 4090 90 4115 
L 90 4237 
L 1357 4237 
L 2835 1024 
L 4250 4237 
L 5523 4237 
L 5523 4115 
Q 5178 4109 5072 3993 
Q 4966 3878 4966 3520 
L 4966 717 
Q 4966 378 5072 262 
Q 5178 147 5530 122 
L 5530 0 
z
" transform="scale(0.015625)"/>
       <path id="STIXGeneral-Regular-29" d="M 186 4224 
L 262 4326 
Q 992 3891 1408 3148 
Q 1824 2406 1824 1581 
Q 1824 -166 243 -1133 
L 186 -1030 
Q 845 -486 1059 54 
Q 1274 595 1274 1562 
Q 1274 2534 1059 3120 
Q 845 3706 186 4224 
z
" transform="scale(0.015625)"/>
      </defs>
      <use xlink:href="#SimSun-8bf7" transform="translate(0 0.96875)"/>
      <use xlink:href="#SimSun-6c42" transform="translate(100 0.96875)"/>
      <use xlink:href="#SimSun-6570" transform="translate(200 0.96875)"/>
      <use xlink:href="#SimSun-20" transform="translate(300 0.96875)"/>
      <use xlink:href="#STIXGeneral-Regular-28" transform="translate(350 0.96875)"/>
      <use xlink:href="#STIXGeneral-Regular-4d" transform="translate(383.299988 0.96875)"/>
      <use xlink:href="#STIXGeneral-Regular-29" transform="translate(472.199982 0.96875)"/>
     </g>
    </g>
   </g>
   <g id="matplotlib.axis_2">
    <g id="ytick_1">
     <g id="line2d_12">
      <defs>
       <path id="m9edcf102b2" d="M 0 0 
L -3.5 0 
" style="stroke: #000000; stroke-width: 0.8"/>
      </defs>
      <g>
       <use xlink:href="#m9edcf102b2" x="115.2" y="461.376" style="stroke: #000000; stroke-width: 0.8"/>
      </g>
     </g>
     <g id="text_13">
      <!-- 0 -->
      <g transform="translate(98.7 468.167016) scale(0.19 -0.19)">
       <use xlink:href="#SimSun-30"/>
      </g>
     </g>
    </g>
    <g id="ytick_2">
     <g id="line2d_13">
      <g>
       <use xlink:href="#m9edcf102b2" x="115.2" y="428.112" style="stroke: #000000; stroke-width: 0.8"/>
      </g>
     </g>
     <g id="text_14">
      <!-- 0.5 -->
      <g transform="translate(79.7 434.903016) scale(0.19 -0.19)">
       <defs>
        <path id="SimSun-2e" d="M 800 25 
Q 650 25 537 125 
Q 425 225 425 400 
Q 425 575 537 675 
Q 650 775 800 775 
Q 950 775 1062 662 
Q 1175 550 1175 400 
Q 1175 225 1062 125 
Q 950 25 800 25 
z
" transform="scale(0.015625)"/>
        <path id="SimSun-35" d="M 1725 2850 
Q 2200 2850 2500 2487 
Q 2800 2125 2800 1525 
Q 2800 850 2487 450 
Q 2175 50 1525 50 
Q 1075 50 725 312 
Q 375 575 375 950 
Q 375 1100 462 1212 
Q 550 1325 700 1325 
Q 850 1325 900 1225 
Q 950 1125 950 1050 
Q 950 900 875 825 
Q 800 725 800 625 
Q 800 425 1037 325 
Q 1275 225 1550 225 
Q 1950 225 2162 550 
Q 2375 875 2375 1475 
Q 2375 1975 2187 2287 
Q 2000 2600 1625 2600 
Q 1350 2600 1150 2500 
Q 950 2400 775 2075 
L 550 2100 
L 675 4375 
L 2725 4375 
L 2650 4000 
L 850 4000 
L 750 2350 
Q 1000 2700 1237 2775 
Q 1475 2850 1725 2850 
z
" transform="scale(0.015625)"/>
       </defs>
       <use xlink:href="#SimSun-30"/>
       <use xlink:href="#SimSun-2e" x="50"/>
       <use xlink:href="#SimSun-35" x="100"/>
      </g>
     </g>
    </g>
    <g id="ytick_3">
     <g id="line2d_14">
      <g>
       <use xlink:href="#m9edcf102b2" x="115.2" y="394.848" style="stroke: #000000; stroke-width: 0.8"/>
      </g>
     </g>
     <g id="text_15">
      <!-- 1.0 -->
      <g transform="translate(79.7 401.639016) scale(0.19 -0.19)">
       <use xlink:href="#SimSun-31"/>
       <use xlink:href="#SimSun-2e" x="50"/>
       <use xlink:href="#SimSun-30" x="100"/>
      </g>
     </g>
    </g>
    <g id="ytick_4">
     <g id="line2d_15">
      <g>
       <use xlink:href="#m9edcf102b2" x="115.2" y="361.584" style="stroke: #000000; stroke-width: 0.8"/>
      </g>
     </g>
     <g id="text_16">
      <!-- 1.5 -->
      <g transform="translate(79.7 368.375016) scale(0.19 -0.19)">
       <use xlink:href="#SimSun-31"/>
       <use xlink:href="#SimSun-2e" x="50"/>
       <use xlink:href="#SimSun-35" x="100"/>
      </g>
     </g>
    </g>
    <g id="ytick_5">
     <g id="line2d_16">
      <g>
       <use xlink:href="#m9edcf102b2" x="115.2" y="328.32" style="stroke: #000000; stroke-width: 0.8"/>
      </g>
     </g>
     <g id="text_17">
      <!-- 2.0 -->
      <g transform="translate(79.7 335.111016) scale(0.19 -0.19)">
       <use xlink:href="#SimSun-32"/>
       <use xlink:href="#SimSun-2e" x="50"/>
       <use xlink:href="#SimSun-30" x="100"/>
      </g>
     </g>
    </g>
    <g id="ytick_6">
     <g id="line2d_17">
      <g>
       <use xlink:href="#m9edcf102b2" x="115.2" y="295.056" style="stroke: #000000; stroke-width: 0.8"/>
      </g>
     </g>
     <g id="text_18">
      <!-- 2.5 -->
      <g transform="translate(79.7 301.847016) scale(0.19 -0.19)">
       <use xlink:href="#SimSun-32"/>
       <use xlink:href="#SimSun-2e" x="50"/>
       <use xlink:href="#SimSun-35" x="100"/>
      </g>
     </g>
    </g>
    <g id="ytick_7">
     <g id="line2d_18">
      <g>
       <use xlink:href="#m9edcf102b2" x="115.2" y="261.792" style="stroke: #000000; stroke-width: 0.8"/>
      </g>
     </g>
     <g id="text_19">
      <!-- 3.0 -->
      <g transform="translate(79.7 268.583016) scale(0.19 -0.19)">
       <defs>
        <path id="SimSun-33" d="M 2800 1250 
Q 2800 775 2450 412 
Q 2100 50 1475 50 
Q 1025 50 700 300 
Q 375 550 375 875 
Q 375 1025 475 1137 
Q 575 1250 675 1250 
Q 825 1250 887 1137 
Q 950 1025 950 950 
Q 950 825 900 750 
Q 850 650 850 575 
Q 850 425 1037 325 
Q 1225 225 1450 225 
Q 1900 225 2125 487 
Q 2350 750 2350 1300 
Q 2350 1750 2112 2025 
Q 1875 2300 1225 2300 
L 1225 2475 
Q 1725 2475 1962 2712 
Q 2200 2950 2200 3375 
Q 2200 3725 2012 3987 
Q 1825 4250 1425 4250 
Q 1250 4250 1050 4162 
Q 850 4075 850 3875 
Q 850 3675 900 3625 
Q 950 3575 950 3500 
Q 950 3375 900 3300 
Q 850 3225 725 3225 
Q 625 3225 537 3300 
Q 450 3375 450 3575 
Q 450 3950 775 4187 
Q 1100 4425 1525 4425 
Q 2025 4425 2325 4112 
Q 2625 3800 2625 3450 
Q 2625 3075 2437 2812 
Q 2250 2550 1850 2425 
Q 2400 2225 2600 1900 
Q 2800 1575 2800 1250 
z
" transform="scale(0.015625)"/>
       </defs>
       <use xlink:href="#SimSun-33"/>
       <use xlink:href="#SimSun-2e" x="50"/>
       <use xlink:href="#SimSun-30" x="100"/>
      </g>
     </g>
    </g>
    <g id="ytick_8">
     <g id="line2d_19">
      <g>
       <use xlink:href="#m9edcf102b2" x="115.2" y="228.528" style="stroke: #000000; stroke-width: 0.8"/>
      </g>
     </g>
     <g id="text_20">
      <!-- 3.5 -->
      <g transform="translate(79.7 235.319016) scale(0.19 -0.19)">
       <use xlink:href="#SimSun-33"/>
       <use xlink:href="#SimSun-2e" x="50"/>
       <use xlink:href="#SimSun-35" x="100"/>
      </g>
     </g>
    </g>
    <g id="ytick_9">
     <g id="line2d_20">
      <g>
       <use xlink:href="#m9edcf102b2" x="115.2" y="195.264" style="stroke: #000000; stroke-width: 0.8"/>
      </g>
     </g>
     <g id="text_21">
      <!-- 4.0 -->
      <g transform="translate(79.7 202.055016) scale(0.19 -0.19)">
       <use xlink:href="#SimSun-34"/>
       <use xlink:href="#SimSun-2e" x="50"/>
       <use xlink:href="#SimSun-30" x="100"/>
      </g>
     </g>
    </g>
    <g id="ytick_10">
     <g id="line2d_21">
      <g>
       <use xlink:href="#m9edcf102b2" x="115.2" y="162" style="stroke: #000000; stroke-width: 0.8"/>
      </g>
     </g>
     <g id="text_22">
      <!-- 4.5 -->
      <g transform="translate(79.7 168.791016) scale(0.19 -0.19)">
       <use xlink:href="#SimSun-34"/>
       <use xlink:href="#SimSun-2e" x="50"/>
       <use xlink:href="#SimSun-35" x="100"/>
      </g>
     </g>
    </g>
    <g id="ytick_11">
     <g id="line2d_22">
      <g>
       <use xlink:href="#m9edcf102b2" x="115.2" y="128.736" style="stroke: #000000; stroke-width: 0.8"/>
      </g>
     </g>
     <g id="text_23">
      <!-- 5.0 -->
      <g transform="translate(79.7 135.527016) scale(0.19 -0.19)">
       <use xlink:href="#SimSun-35"/>
       <use xlink:href="#SimSun-2e" x="50"/>
       <use xlink:href="#SimSun-30" x="100"/>
      </g>
     </g>
    </g>
    <g id="ytick_12">
     <g id="line2d_23">
      <g>
       <use xlink:href="#m9edcf102b2" x="115.2" y="95.472" style="stroke: #000000; stroke-width: 0.8"/>
      </g>
     </g>
     <g id="text_24">
      <!-- 5.5 -->
      <g transform="translate(79.7 102.263016) scale(0.19 -0.19)">
       <use xlink:href="#SimSun-35"/>
       <use xlink:href="#SimSun-2e" x="50"/>
       <use xlink:href="#SimSun-35" x="100"/>
      </g>
     </g>
    </g>
    <g id="ytick_13">
     <g id="line2d_24">
      <g>
       <use xlink:href="#m9edcf102b2" x="115.2" y="62.208" style="stroke: #000000; stroke-width: 0.8"/>
      </g>
     </g>
     <g id="text_25">
      <!-- 6.0 -->
      <g transform="translate(79.7 68.999016) scale(0.19 -0.19)">
       <use xlink:href="#SimSun-36"/>
       <use xlink:href="#SimSun-2e" x="50"/>
       <use xlink:href="#SimSun-30" x="100"/>
      </g>
     </g>
    </g>
    <g id="text_26">
     <!-- 吞吐量 $\mathrm{(Mops)}$ -->
     <g transform="translate(71.52 323.067) rotate(-90) scale(0.19 -0.19)">
      <defs>
       <path id="SimSun-541e" d="M 2200 1700 
L 2200 75 
L 4200 75 
L 4200 1700 
L 2200 1700 
z
M 1025 4675 
L 4550 4675 
L 4875 5000 
L 5350 4525 
L 3300 4525 
Q 3150 4025 2900 3375 
L 5075 3375 
L 5450 3750 
L 5975 3225 
L 3700 3225 
Q 3925 2925 4312 2587 
Q 4700 2250 5225 2037 
Q 5750 1825 6100 1800 
L 6100 1700 
Q 5700 1675 5575 1375 
Q 4600 1900 4137 2437 
Q 3675 2975 3575 3225 
L 2825 3225 
Q 2425 2575 1950 2075 
L 2200 1850 
L 4175 1850 
L 4325 2100 
L 4750 1775 
L 4550 1600 
L 4550 375 
Q 4550 -50 4575 -375 
L 4200 -500 
L 4200 -75 
L 2200 -75 
L 2200 -450 
L 1825 -575 
Q 1850 175 1850 625 
L 1850 2000 
Q 1175 1400 375 1075 
L 325 1150 
Q 1075 1575 1600 2100 
Q 2125 2625 2450 3225 
L 1225 3225 
Q 900 3225 625 3150 
L 400 3375 
L 2525 3375 
Q 2800 4025 2900 4525 
L 1850 4525 
Q 1525 4525 1250 4450 
L 1025 4675 
z
" transform="scale(0.015625)"/>
       <path id="SimSun-5410" d="M 3775 3000 
L 3775 3750 
Q 3775 4400 3750 5175 
L 4350 4900 
L 4125 4700 
L 4125 3000 
L 4925 3000 
L 5250 3325 
L 5725 2850 
L 4125 2850 
L 4125 75 
L 5225 75 
L 5575 425 
L 6075 -75 
L 2675 -75 
Q 2350 -75 2075 -150 
L 1850 75 
L 3775 75 
L 3775 2850 
L 3225 2850 
Q 2900 2850 2625 2775 
L 2400 3000 
L 3775 3000 
z
M 575 4250 
L 950 4025 
L 1875 4025 
L 2050 4275 
L 2450 3950 
L 2250 3800 
L 2250 1950 
Q 2250 1375 2275 950 
L 1900 775 
L 1900 1225 
L 950 1225 
L 950 600 
L 575 425 
Q 600 1075 600 2375 
Q 600 3675 575 4250 
z
M 950 3875 
L 950 1375 
L 1900 1375 
L 1900 3875 
L 950 3875 
z
" transform="scale(0.015625)"/>
       <path id="SimSun-91cf" d="M 1700 2400 
L 1700 1875 
L 3025 1875 
L 3025 2400 
L 1700 2400 
z
M 3350 2400 
L 3350 1875 
L 4625 1875 
L 4625 2400 
L 3350 2400 
z
M 1700 1725 
L 1700 1225 
L 3025 1225 
L 3025 1725 
L 1700 1725 
z
M 3350 1725 
L 3350 1225 
L 4625 1225 
L 4625 1725 
L 3350 1725 
z
M 4950 2325 
Q 4950 1350 4975 1025 
L 4625 875 
L 4625 1075 
L 3350 1075 
L 3350 525 
L 4700 525 
L 5050 825 
L 5450 375 
L 3350 375 
L 3350 -225 
L 5275 -225 
L 5650 125 
L 6075 -375 
L 1175 -375 
Q 850 -375 575 -450 
L 350 -225 
L 3025 -225 
L 3025 375 
L 1725 375 
Q 1400 375 1125 300 
L 900 525 
L 3025 525 
L 3025 1075 
L 1700 1075 
L 1700 925 
L 1350 800 
Q 1375 1300 1375 1787 
Q 1375 2275 1350 2750 
L 1700 2550 
L 4600 2550 
L 4750 2750 
L 5125 2475 
L 4950 2325 
z
M 1775 4800 
L 1775 4375 
L 4550 4375 
L 4550 4800 
L 1775 4800 
z
M 1775 4225 
L 1775 3775 
L 4550 3775 
L 4550 4225 
L 1775 4225 
z
M 4875 4750 
Q 4875 3825 4900 3525 
L 4550 3375 
L 4550 3625 
L 1775 3625 
L 1775 3400 
L 1425 3250 
Q 1450 3650 1450 4262 
Q 1450 4875 1425 5125 
L 1800 4950 
L 4500 4950 
L 4650 5175 
L 5050 4900 
L 4875 4750 
z
M 250 3125 
L 5375 3125 
L 5725 3450 
L 6150 2975 
L 950 2975 
Q 750 2975 475 2900 
L 250 3125 
z
" transform="scale(0.015625)"/>
       <path id="STIXGeneral-Regular-6f" d="M 3008 1478 
Q 3008 806 2608 371 
Q 2208 -64 1568 -64 
Q 979 -64 582 368 
Q 186 800 186 1459 
Q 186 2125 582 2534 
Q 979 2944 1626 2944 
Q 2221 2944 2614 2537 
Q 3008 2131 3008 1478 
z
M 2432 1306 
Q 2432 2035 2112 2445 
Q 1856 2765 1504 2765 
Q 1171 2765 966 2493 
Q 762 2221 762 1747 
Q 762 928 1101 435 
Q 1318 115 1677 115 
Q 2029 115 2230 432 
Q 2432 749 2432 1306 
z
" transform="scale(0.015625)"/>
       <path id="STIXGeneral-Regular-70" d="M 1018 2931 
L 1018 2438 
Q 1421 2944 1939 2944 
Q 2406 2944 2707 2560 
Q 3008 2176 3008 1581 
Q 3008 883 2621 409 
Q 2234 -64 1664 -64 
Q 1466 -64 1328 -6 
Q 1190 51 1018 211 
L 1018 -794 
Q 1018 -1094 1120 -1180 
Q 1222 -1267 1581 -1274 
L 1581 -1389 
L 32 -1389 
L 32 -1280 
Q 314 -1254 397 -1171 
Q 480 -1088 480 -838 
L 480 2157 
Q 480 2381 429 2451 
Q 378 2522 218 2522 
Q 115 2522 58 2515 
L 58 2618 
Q 506 2752 979 2944 
L 1018 2931 
z
M 1018 2138 
L 1018 563 
Q 1018 422 1238 281 
Q 1459 141 1683 141 
Q 2029 141 2243 467 
Q 2458 794 2458 1325 
Q 2458 1888 2243 2224 
Q 2029 2560 1670 2560 
Q 1446 2560 1232 2419 
Q 1018 2278 1018 2138 
z
" transform="scale(0.015625)"/>
       <path id="STIXGeneral-Regular-73" d="M 998 1926 
L 1664 1523 
Q 1984 1331 2105 1164 
Q 2227 998 2227 736 
Q 2227 416 1961 176 
Q 1696 -64 1331 -64 
Q 1030 -64 864 -6 
Q 691 51 570 51 
Q 461 51 416 -26 
L 333 -26 
L 333 979 
L 435 979 
Q 538 512 730 294 
Q 922 77 1248 77 
Q 1485 77 1632 211 
Q 1779 346 1779 550 
Q 1779 845 1440 1030 
L 1094 1222 
Q 326 1651 326 2150 
Q 326 2522 566 2730 
Q 806 2938 1210 2938 
Q 1491 2938 1638 2867 
Q 1754 2816 1818 2816 
Q 1862 2816 1920 2880 
L 1990 2880 
L 2022 2010 
L 1926 2010 
Q 1818 2445 1654 2621 
Q 1491 2797 1203 2797 
Q 986 2797 854 2688 
Q 723 2579 723 2362 
Q 723 2253 796 2128 
Q 870 2003 998 1926 
z
" transform="scale(0.015625)"/>
      </defs>
      <use xlink:href="#SimSun-541e" transform="translate(0 0.140625)"/>
      <use xlink:href="#SimSun-5410" transform="translate(100 0.140625)"/>
      <use xlink:href="#SimSun-91cf" transform="translate(200 0.140625)"/>
      <use xlink:href="#SimSun-20" transform="translate(300 0.140625)"/>
      <use xlink:href="#STIXGeneral-Regular-28" transform="translate(350 0.140625)"/>
      <use xlink:href="#STIXGeneral-Regular-4d" transform="translate(383.299988 0.140625)"/>
      <use xlink:href="#STIXGeneral-Regular-6f" transform="translate(472.199982 0.140625)"/>
      <use xlink:href="#STIXGeneral-Regular-70" transform="translate(522.199966 0.140625)"/>
      <use xlink:href="#STIXGeneral-Regular-73" transform="translate(572.199951 0.140625)"/>
      <use xlink:href="#STIXGeneral-Regular-29" transform="translate(611.099945 0.140625)"/>
     </g>
    </g>
   </g>
   <g id="line2d_25">
    <path d="M 115.226478 456.444126 
L 115.61126 431.946341 
L 115.787002 428.642108 
L 116.040327 414.191754 
L 116.522804 417.084292 
L 116.99389 417.685971 
L 117.454161 418.695853 
L 117.683311 418.694449 
L 117.909067 419.326372 
L 118.136025 419.102978 
L 118.360697 419.526096 
L 118.588297 419.167317 
L 119.036778 419.72085 
L 119.485236 419.562999 
L 119.710807 419.363348 
L 119.932806 420.026267 
L 120.154838 420.019993 
L 120.37929 419.569399 
L 120.604295 419.466354 
L 120.826521 419.984068 
L 121.049837 419.780905 
L 121.49366 420.155531 
L 121.717072 419.763115 
L 122.160439 420.192713 
L 122.384401 419.660582 
L 122.605787 420.140349 
L 122.828851 419.828 
L 123.050529 420.085962 
L 123.499595 419.431526 
L 123.94649 419.81671 
L 124.169929 419.755857 
L 124.391918 420.025841 
L 124.616512 419.540626 
L 124.840433 419.668406 
L 125.064759 419.590409 
L 125.287457 419.895965 
L 125.512661 419.429331 
L 125.964558 419.228057 
L 126.187698 419.813723 
L 126.412294 419.542462 
L 126.636404 419.635355 
L 126.862512 419.260869 
L 127.087023 419.558362 
L 127.314051 419.089666 
L 127.537123 419.826363 
L 127.763533 419.204513 
L 127.987294 419.698071 
L 128.21716 418.561041 
L 128.441665 419.561768 
L 128.666518 419.494748 
L 128.894029 418.999507 
L 129.121198 419.0634 
L 129.347113 419.297067 
L 129.801745 418.961779 
L 130.254999 419.253418 
L 130.712441 418.594538 
L 130.940336 418.926366 
L 131.171037 418.403569 
L 131.397857 419.126249 
L 131.628698 418.379592 
L 131.857458 418.769413 
L 132.315678 418.715439 
L 132.546915 418.305573 
L 133.009615 418.265104 
L 133.238439 418.75499 
L 133.469867 418.269888 
L 133.702289 418.087381 
L 133.934603 418.104991 
L 134.165534 418.362601 
L 135.090281 418.250135 
L 135.323702 417.901322 
L 135.554204 418.442701 
L 135.786338 418.138495 
L 136.01652 418.50213 
L 136.251668 417.579354 
L 136.484297 418.04634 
L 136.719585 417.551305 
L 136.952303 418.029788 
L 137.184672 418.096981 
L 137.418943 417.740518 
L 137.652971 417.785763 
L 138.123734 417.486727 
L 138.357276 417.873926 
L 138.592341 417.59043 
L 138.827036 417.659553 
L 139.066588 416.756941 
L 139.30155 417.60967 
L 139.537844 417.361701 
L 140.009529 417.485416 
L 140.242866 417.91234 
L 140.480579 417.097059 
L 140.717259 417.29178 
L 140.954208 417.239509 
L 141.193497 416.805939 
L 141.429392 417.437995 
L 141.667131 417.094684 
L 141.901263 417.766517 
L 142.142086 416.520175 
L 142.376188 417.771899 
L 142.609887 417.849211 
L 142.845937 417.407139 
L 143.082946 417.230474 
L 143.322416 416.772189 
L 144.037807 417.126883 
L 144.278256 416.592397 
L 144.516353 417.027783 
L 144.756698 416.606608 
L 145.234369 417.005097 
L 145.476058 416.358778 
L 145.718678 416.185525 
L 145.96005 416.417848 
L 146.196636 417.311698 
L 146.439149 416.205417 
L 146.679789 416.554224 
L 146.925614 415.58859 
L 147.168496 416.13686 
L 147.412189 415.984884 
L 147.657838 415.619479 
L 147.899987 416.271553 
L 148.143888 415.947488 
L 148.387865 415.932586 
L 148.630096 416.255779 
L 148.872013 416.316233 
L 149.116466 415.841795 
L 149.361131 415.801965 
L 149.603883 416.158402 
L 149.849907 415.552192 
L 150.338413 415.971492 
L 150.582679 415.876669 
L 151.07559 415.29743 
L 151.319195 415.99956 
L 151.566115 415.382453 
L 151.812203 415.542233 
L 152.056056 415.955625 
L 152.546779 415.624628 
L 152.791316 415.82833 
L 153.03828 415.376365 
L 153.283731 415.657958 
L 153.531492 415.227895 
L 153.776733 415.699705 
L 154.024357 415.253628 
L 154.52063 415.165618 
L 154.766933 415.499236 
L 155.016874 414.821994 
L 155.26405 415.336941 
L 155.516145 414.423172 
L 155.764629 415.093069 
L 156.013469 415.026794 
L 156.260697 415.327041 
L 156.510302 414.884491 
L 156.757698 415.29568 
L 157.010266 414.332428 
L 157.261623 414.558244 
L 157.514416 414.293083 
L 157.760679 415.50696 
L 158.009368 415.055155 
L 158.256451 415.354105 
L 158.755461 414.797532 
L 159.259858 414.299124 
L 159.510389 414.711924 
L 159.757285 415.386571 
L 160.012591 413.822338 
L 160.262568 414.816798 
L 160.51398 414.547693 
L 160.768751 413.92225 
L 161.020798 414.429499 
L 161.27514 414.004525 
L 161.526225 414.608679 
L 162.036562 413.553811 
L 162.290579 414.062624 
L 162.544643 414.053789 
L 162.804463 412.981737 
L 163.056457 414.439332 
L 163.565592 413.766754 
L 163.820438 413.908964 
L 164.077068 413.575852 
L 164.332395 413.818626 
L 164.588045 413.758391 
L 164.842956 413.89629 
L 165.101904 413.146693 
L 165.359181 413.455343 
L 165.613342 414.035893 
L 165.870266 413.521059 
L 166.125219 413.88828 
L 166.382208 413.510448 
L 166.895872 413.520394 
L 167.151277 413.806544 
L 167.406701 413.800497 
L 167.664761 413.309473 
L 167.920277 413.783465 
L 168.435881 413.275637 
L 168.690833 413.88846 
L 168.948192 413.442769 
L 169.206688 413.228236 
L 169.467396 412.813587 
L 169.726393 413.220306 
L 169.985345 413.143566 
L 170.243872 413.222428 
L 170.503295 413.055702 
L 170.759804 413.598797 
L 171.01963 412.98326 
L 171.537637 413.1754 
L 172.060507 412.569795 
L 172.319209 413.189916 
L 172.841746 412.583739 
L 173.362952 412.917564 
L 173.626058 412.370271 
L 173.890374 412.144282 
L 174.150773 412.873888 
L 174.412978 412.537409 
L 174.674324 412.697442 
L 174.937319 412.393117 
L 175.199459 412.549797 
L 175.463766 412.146085 
L 175.728569 412.053465 
L 175.991304 412.440431 
L 176.254212 412.406515 
L 176.517993 412.243968 
L 176.780461 412.488651 
L 177.311052 411.78869 
L 177.575973 412.028789 
L 177.836399 412.868892 
L 178.098832 412.494871 
L 178.360405 412.655363 
L 179.154688 411.775092 
L 180.212505 412.391101 
L 180.482663 411.056157 
L 180.74913 411.743531 
L 181.276838 412.374402 
L 181.543106 411.78078 
L 181.808003 412.035881 
L 182.608658 411.523982 
L 182.874592 411.84299 
L 183.14254 411.470939 
L 183.410297 411.503298 
L 183.681192 410.918983 
L 183.947093 411.846177 
L 184.216338 411.223694 
L 184.484207 411.482615 
L 184.755776 410.793271 
L 185.0221 411.772943 
L 185.828147 411.044042 
L 186.097394 411.22571 
L 186.635901 411.246939 
L 186.906478 410.975691 
L 187.173914 411.563958 
L 187.443644 411.135924 
L 187.714179 410.986522 
L 187.982362 411.424143 
L 188.255456 410.509263 
L 188.523677 411.414344 
L 188.791077 411.567724 
L 189.061214 411.060674 
L 189.329686 411.368033 
L 189.602034 410.64842 
L 189.874112 410.695921 
L 190.14789 410.379288 
L 190.419239 410.831891 
L 190.686906 411.517854 
L 190.959048 410.686807 
L 191.23231 410.480989 
L 191.504317 410.712686 
L 191.776378 410.701795 
L 192.049853 410.438338 
L 192.325805 409.97694 
L 192.59839 410.604299 
L 192.871454 410.514918 
L 193.146774 410.097442 
L 193.41746 410.957675 
L 193.69047 410.525077 
L 193.960983 410.990068 
L 194.231741 410.944223 
L 194.507861 409.945565 
L 194.78189 410.335319 
L 195.330582 410.297032 
L 195.603856 410.475793 
L 195.878197 410.277114 
L 196.152494 410.286654 
L 196.424914 410.635061 
L 196.699437 410.243191 
L 196.977348 409.61194 
L 197.252122 410.196449 
L 197.529466 409.720441 
L 197.804147 410.213773 
L 198.080332 409.933583 
L 198.352211 410.735572 
L 198.62793 410.020562 
L 198.903335 410.07888 
L 199.179847 409.87269 
L 199.455474 410.040327 
L 199.735258 409.263307 
L 200.013024 409.639084 
L 200.291808 409.449446 
L 200.564486 410.586815 
L 201.393186 409.494192 
L 201.670202 409.781547 
L 201.947135 409.794247 
L 202.221612 410.249165 
L 202.501602 409.222153 
L 203.059972 409.395771 
L 203.336959 409.782511 
L 203.617232 409.173128 
L 203.893442 409.929545 
L 204.173643 409.185503 
L 204.452165 409.498231 
L 204.731989 409.255676 
L 205.010184 409.559929 
L 205.289677 409.317334 
L 205.84517 409.724699 
L 206.123598 409.51592 
L 206.402282 409.4682 
L 206.682367 409.207164 
L 206.95845 409.952517 
L 207.238205 409.268596 
L 207.514759 409.86496 
L 207.792721 409.602726 
L 208.073376 409.103686 
L 208.35075 409.711885 
L 208.63075 409.223151 
L 208.910642 409.239936 
L 209.189755 409.388539 
L 209.470653 409.056185 
L 210.027352 409.681083 
L 210.308492 409.01076 
L 210.587136 409.475678 
L 211.151049 408.628197 
L 211.428228 409.748323 
L 211.711384 408.635316 
L 211.990879 409.317121 
L 212.273011 408.829165 
L 212.835557 409.032042 
L 213.116911 408.97073 
L 213.397654 409.084772 
L 213.682262 408.36466 
L 213.963254 409.038229 
L 214.808364 408.852317 
L 215.093446 408.276357 
L 215.37845 408.290907 
L 215.660417 408.856655 
L 215.941015 409.113433 
L 216.223118 408.831261 
L 216.505132 408.850813 
L 216.789225 408.460746 
L 217.070758 408.937852 
L 217.351767 409.035036 
L 217.640418 407.611683 
L 218.205853 409.082976 
L 218.486537 409.098677 
L 219.054807 408.305357 
L 219.34046 408.170079 
L 220.760316 408.741089 
L 221.048988 407.607704 
L 221.333291 408.421581 
L 221.617086 408.516138 
L 221.905898 407.581566 
L 222.191819 408.12011 
L 222.761067 408.453575 
L 223.046907 408.138558 
L 223.329495 408.740996 
L 223.901403 407.856599 
L 224.188746 407.855222 
L 224.472607 408.50401 
L 225.041858 408.314817 
L 225.325474 408.549375 
L 225.609392 408.493252 
L 225.894275 408.31336 
L 226.178658 408.403998 
L 226.466708 407.720789 
L 226.754898 407.697557 
L 227.041634 407.965871 
L 227.332257 407.247455 
L 227.90385 408.483772 
L 228.188916 408.279265 
L 228.473534 408.362964 
L 228.76124 407.788474 
L 229.045414 408.445432 
L 229.333116 407.791415 
L 229.620987 407.75684 
L 229.907475 408.014543 
L 230.77417 407.426229 
L 231.064092 407.371683 
L 231.350434 408.038966 
L 231.640346 407.37654 
L 231.925457 408.267942 
L 232.214274 407.580821 
L 232.790266 407.764691 
L 233.081005 407.222667 
L 233.656621 407.917845 
L 233.943889 407.869672 
L 234.233755 407.386266 
L 234.523645 407.380871 
L 234.812272 407.61622 
L 235.102641 407.291683 
L 235.393309 407.236172 
L 235.68516 407.015619 
L 235.974736 407.442323 
L 236.267535 406.83898 
L 236.555301 407.776459 
L 236.847489 406.952949 
L 237.135001 407.823821 
L 237.430229 406.386696 
L 237.719633 407.471309 
L 238.013208 406.694408 
L 238.303794 407.254002 
L 238.883663 407.393258 
L 239.177337 406.676046 
L 239.466996 407.425231 
L 239.761334 406.552457 
L 240.051089 407.406145 
L 240.340066 407.554136 
L 240.636061 406.243767 
L 240.926559 407.264706 
L 241.214925 407.665098 
L 241.503591 407.608955 
L 241.793728 407.334867 
L 242.08415 407.282429 
L 242.372875 407.597812 
L 242.665128 406.943482 
L 242.953823 407.603566 
L 243.241893 407.719904 
L 243.533528 407.055994 
L 243.826844 406.742594 
L 244.120359 406.705678 
L 244.41136 407.173949 
L 244.701929 407.257568 
L 244.994048 406.965862 
L 245.28871 406.491943 
L 245.580163 407.089871 
L 245.872925 406.845766 
L 246.163583 407.237922 
L 247.626148 406.68572 
L 247.917031 407.195796 
L 248.209144 406.96688 
L 248.500508 407.106143 
L 248.793633 406.778353 
L 249.082811 407.516315 
L 249.372742 407.373233 
L 249.639914 411.612337 
L 249.900344 412.867881 
L 250.41864 413.140426 
L 250.677877 413.090516 
L 250.939007 412.737778 
L 251.457629 413.142089 
L 251.716171 413.219721 
L 251.977199 412.775706 
L 252.235143 413.331022 
L 252.494471 413.073339 
L 252.75411 413.01546 
L 253.015339 412.722058 
L 253.274351 413.129575 
L 253.794035 412.949171 
L 254.054166 412.923584 
L 254.31583 412.638199 
L 254.574229 413.244323 
L 254.836209 412.579482 
L 255.094674 413.23415 
L 255.35629 412.644885 
L 255.616003 412.9992 
L 255.874891 413.153239 
L 256.134087 413.095506 
L 256.396628 412.475259 
L 256.657 412.878944 
L 256.921587 412.093801 
L 257.179335 413.37038 
L 257.439241 412.96569 
L 257.697055 413.355411 
L 257.961156 412.184412 
L 258.218023 413.531757 
L 258.740095 412.567932 
L 259.26704 412.240462 
L 259.527524 412.858108 
L 260.050964 412.571485 
L 260.315027 412.191537 
L 260.574783 412.993512 
L 260.833089 413.263882 
L 261.094143 412.754603 
L 261.355804 412.638871 
L 261.61909 412.336269 
L 261.881121 412.569822 
L 262.144766 412.270299 
L 262.404271 413.040441 
L 262.667033 412.433898 
L 262.930579 412.290517 
L 263.193089 412.480754 
L 263.453605 412.852073 
L 263.977171 412.524862 
L 264.238316 412.734811 
L 264.501574 412.341305 
L 264.763677 412.55649 
L 265.026167 412.487533 
L 265.292473 411.773741 
L 265.555622 412.361662 
L 265.817572 412.58507 
L 266.082909 411.955695 
L 266.347145 412.159178 
L 266.875388 412.214735 
L 267.136781 412.688548 
L 267.397444 412.824744 
L 267.662359 412.032841 
L 267.925394 412.382765 
L 268.191988 411.72008 
L 268.456859 412.040824 
L 268.716534 413.008787 
L 268.981336 412.056452 
L 269.242982 412.641546 
L 269.497382 413.991405 
L 269.497382 413.991405 
" clip-path="url(#p0fa8975337)" style="fill: none; stroke: #ff0000; stroke-width: 1.5; stroke-linecap: square"/>
   </g>
   <g id="line2d_26">
    <path d="M 115.25017 451.944505 
L 115.453672 424.071103 
L 117.098101 154.616796 
L 118.780299 154.800413 
L 120.539732 149.329317 
L 122.287618 158.974406 
L 124.087163 154.738595 
L 125.874673 160.284941 
L 127.6499 166.222313 
L 129.515127 153.184947 
L 131.403537 151.264929 
L 133.235307 161.697045 
L 135.16401 147.21978 
L 136.954607 170.639379 
L 138.851402 155.747113 
L 140.742692 157.535379 
L 142.640885 156.926581 
L 144.509133 162.607687 
L 146.40808 158.524823 
L 148.317694 157.167366 
L 150.223286 158.410568 
L 152.071612 169.051003 
L 153.977637 159.663809 
L 155.862089 164.162007 
L 157.755782 163.318518 
L 159.64309 164.54262 
L 161.533088 163.555524 
L 163.39425 168.951697 
L 165.328825 157.393315 
L 167.251736 160.012283 
L 169.140705 164.820475 
L 171.055055 161.201697 
L 172.944629 165.654556 
L 174.878075 158.834531 
L 176.739467 169.379658 
L 178.613679 167.357919 
L 180.500102 163.705372 
L 182.332005 175.410841 
L 184.210532 167.691683 
L 186.115646 163.871014 
L 187.927607 178.162785 
L 189.814942 165.286676 
L 191.636661 176.177197 
L 193.551373 161.882731 
L 195.418276 169.202261 
L 197.329583 162.480385 
L 199.178814 171.424909 
L 201.056306 166.840737 
L 202.809317 187.768091 
L 204.633191 175.286633 
L 206.384971 186.025303 
L 208.145756 184.393711 
L 209.993927 170.018986 
L 211.839313 170.376035 
L 213.634058 178.567754 
L 215.502366 166.89064 
L 217.286331 180.201156 
L 219.078846 179.116477 
L 220.886643 177.211654 
L 222.760707 164.962252 
L 224.589503 172.480515 
L 226.384796 177.735123 
L 228.168746 178.701735 
L 229.932578 182.730398 
L 231.731094 174.963606 
L 233.551577 171.947872 
L 235.292947 184.988338 
L 237.083823 177.134847 
L 238.868447 178.54723 
L 240.617275 181.355537 
L 242.408331 175.176469 
L 244.1688 180.404878 
L 245.913108 182.559401 
L 247.625764 187.70441 
L 249.288917 194.146037 
L 251.03361 180.767748 
L 252.763874 184.000264 
L 254.564046 172.550236 
L 256.35696 174.056816 
L 258.10943 180.189953 
L 259.863888 178.205755 
L 261.615207 177.291607 
L 263.396659 173.405101 
L 265.178902 173.907521 
L 266.933083 177.832999 
L 268.712306 173.31771 
L 270.366972 193.377798 
L 272.102361 179.739359 
L 273.879964 172.862359 
L 275.673787 169.170235 
L 277.464984 168.634319 
L 279.233451 172.409543 
L 280.906916 187.743249 
L 282.531318 195.69278 
L 284.239456 181.289747 
L 285.978722 176.295118 
L 287.628046 191.390593 
L 289.362054 176.009546 
L 291.065967 180.780182 
L 292.702692 191.535977 
L 294.412765 179.708789 
L 295.994264 198.906847 
L 297.70271 179.099572 
L 299.316073 193.904607 
L 300.965988 187.138396 
L 302.730255 168.477831 
L 304.470533 172.011752 
L 306.153051 182.101242 
L 307.86064 177.048308 
L 309.504081 188.374493 
L 311.263459 168.436218 
L 312.988776 172.077701 
L 314.580713 194.710979 
L 316.283949 176.384232 
L 317.89473 192.316896 
L 319.615878 172.390589 
L 321.290854 180.793861 
L 322.996555 174.683457 
L 324.604906 190.802459 
L 326.267919 180.747125 
L 327.921228 180.943775 
L 329.605331 176.229707 
L 331.261233 180.618646 
L 332.907221 182.885554 
L 334.612884 171.996244 
L 336.185841 194.410599 
L 337.828584 181.381642 
L 339.472995 181.251374 
L 341.113637 181.551062 
L 342.757754 180.320614 
L 344.326686 193.571115 
L 349.137333 181.236777 
L 350.811075 173.448398 
L 352.393906 189.141654 
L 353.974147 188.675213 
L 355.601133 180.888064 
L 357.219124 182.26705 
L 358.867039 177.187158 
L 360.475009 181.602402 
L 362.083643 181.917206 
L 363.692108 181.375994 
L 365.318562 177.879695 
L 366.966585 173.695895 
L 368.567962 182.357688 
L 370.159356 183.361821 
L 371.779072 177.567565 
L 373.398923 177.965157 
L 375.019652 177.55412 
L 376.611022 182.067819 
L 378.241925 174.481258 
L 379.828015 182.817709 
L 381.387549 186.689519 
L 383.019145 174.380708 
L 384.539311 192.246376 
L 386.121411 181.732125 
L 387.698122 182.773069 
L 389.293658 178.419849 
L 390.855212 184.75082 
L 392.474745 174.054335 
L 394.054526 179.501568 
L 395.622391 182.380553 
L 397.156337 188.062683 
L 398.742331 178.672376 
L 400.342382 175.42861 
L 401.895832 183.146524 
L 403.454233 182.913562 
L 404.986831 186.597936 
L 406.533891 183.937721 
L 408.081699 183.654778 
L 409.674877 174.300927 
L 411.284781 171.399927 
L 412.844835 179.961728 
L 414.425896 176.079088 
L 415.98842 178.738671 
L 417.501398 188.059583 
L 418.98102 194.025089 
L 420.583968 171.573665 
L 422.161977 175.617596 
L 423.675047 187.430927 
L 425.183568 187.656437 
L 426.69336 186.523179 
L 428.225884 181.648739 
L 429.731679 187.247988 
L 431.272709 179.781551 
L 432.821758 179.405315 
L 434.33825 184.291544 
L 435.833851 187.757639 
L 437.377714 179.491828 
L 438.926597 178.526606 
L 440.490797 172.189907 
L 442.011271 182.674135 
L 443.545984 180.103972 
L 445.124311 171.063116 
L 446.626289 184.335539 
L 448.10992 188.421156 
L 449.562502 193.812891 
L 451.114374 175.123726 
L 452.658227 175.302746 
L 454.205854 174.908381 
L 455.667941 191.652514 
L 457.147556 188.187131 
L 458.676491 177.151612 
L 460.150844 189.143145 
L 461.655389 184.067284 
L 463.098309 194.291906 
L 464.598748 184.197081 
L 466.14228 176.946487 
L 467.66272 180.782431 
L 469.127734 189.546204 
L 470.617676 186.090361 
L 472.125966 180.316043 
L 473.665252 175.947941 
L 475.156957 184.216726 
L 476.624174 189.541394 
L 478.082344 188.889413 
L 479.614207 176.536554 
L 481.095143 185.484204 
L 482.54637 190.565493 
L 484.099335 172.430932 
L 485.632629 175.844024 
L 487.098902 188.517655 
L 488.609051 179.987388 
L 490.044031 193.896371 
L 491.601871 171.453462 
L 493.084299 185.289843 
L 494.592909 179.644057 
L 496.062016 186.013188 
L 497.564892 180.219611 
L 499.087247 176.24602 
L 500.6319 171.248829 
L 502.147072 176.715867 
L 503.64811 179.901281 
L 505.127404 184.841138 
L 506.671776 171.551032 
L 508.124052 189.625552 
L 509.625828 179.624039 
L 511.140293 176.752624 
L 512.588645 189.380403 
L 514.072853 180.242463 
L 515.596454 175.82545 
L 517.064228 185.416186 
L 518.561855 179.466501 
L 520.047807 181.210133 
L 521.526853 183.732203 
L 523.003331 183.793136 
L 524.494598 180.909965 
L 526.008514 176.238742 
L 527.508608 179.348633 
L 529.016032 176.40433 
L 530.438211 193.76245 
L 531.903856 184.874522 
L 533.367 186.052906 
L 534.834133 185.356185 
L 536.300591 184.821146 
L 536.300591 184.821146 
" clip-path="url(#p0fa8975337)" style="fill: none; stroke: #0000ff; stroke-width: 1.5; stroke-linecap: square"/>
   </g>
   <g id="line2d_27">
    <path d="M 116.743039 213.883065 
L 118.550784 130.940352 
L 120.462057 120.989639 
L 122.388796 126.211994 
L 124.329132 132.13127 
L 126.276624 139.647943 
L 128.268569 137.615758 
L 130.299118 135.246071 
L 132.356764 134.04083 
L 134.373149 140.67095 
L 136.38469 141.275843 
L 138.398623 142.415321 
L 140.420761 141.415871 
L 142.452424 142.328961 
L 144.578063 127.278518 
L 146.571879 149.961286 
L 148.631063 138.792765 
L 150.615951 151.608506 
L 152.612674 150.076752 
L 154.704151 135.550443 
L 156.883404 139.792062 
L 158.917991 148.160007 
L 160.961256 144.971646 
L 163.054514 137.270744 
L 165.044397 154.981063 
L 167.152409 135.925189 
L 169.19619 146.822641 
L 171.290941 139.326878 
L 173.35237 144.985491 
L 175.412397 145.641091 
L 177.455391 147.413097 
L 179.576976 136.391078 
L 181.725535 133.271387 
L 183.798463 143.722663 
L 185.925919 136.479959 
L 187.946028 152.178212 
L 190.047906 141.0502 
L 192.141162 142.89411 
L 194.198257 148.852883 
L 196.220438 153.280574 
L 198.229331 156.058817 
L 200.324508 142.033557 
L 202.297425 161.832589 
L 204.396883 142.242228 
L 206.479037 145.688765 
L 208.464755 159.939781 
L 210.604351 137.417778 
L 212.723177 138.991837 
L 214.823523 142.495195 
L 216.92705 142.298711 
L 219.054288 139.601147 
L 221.16379 140.309484 
L 223.232367 146.945598 
L 225.408514 131.390194 
L 227.562239 134.626183 
L 229.531453 162.870146 
L 231.652725 140.020726 
L 233.796247 135.863397 
L 235.949485 135.599201 
L 238.054886 142.436251 
L 240.123407 147.390724 
L 242.275901 136.14062 
L 244.348464 147.762862 
L 246.427369 146.656361 
L 248.475797 151.615518 
L 250.582022 143.190279 
L 252.543749 163.990411 
L 254.567343 154.123491 
L 256.606727 151.685838 
L 258.600597 159.813411 
L 260.558185 163.28242 
L 262.510314 164.997419 
L 264.474739 162.625164 
L 266.394352 168.711205 
L 268.33951 165.575334 
L 270.271479 167.295635 
L 272.191351 169.376232 
L 274.143129 164.939034 
L 276.08525 165.238277 
L 278.011106 167.56703 
L 279.988269 160.109068 
L 283.820135 171.613522 
L 285.726799 170.077091 
L 287.704634 159.049324 
L 289.639185 165.663976 
L 291.591627 162.970703 
L 293.491938 170.583815 
L 295.433969 165.645076 
L 297.339376 170.1339 
L 299.204912 175.477981 
L 301.109244 169.46345 
L 303.032693 166.710728 
L 304.934389 171.253719 
L 306.79989 175.267127 
L 308.659411 176.550292 
L 310.473177 182.683648 
L 312.364016 171.211181 
L 314.249307 172.049533 
L 316.081534 179.873785 
L 317.926151 177.6307 
L 319.759729 179.253272 
L 321.6241 174.672826 
L 323.441012 180.679765 
L 325.335946 169.478266 
L 327.198944 173.797237 
L 329.019013 180.663153 
L 330.871644 174.523929 
L 332.683592 180.76232 
L 334.508579 178.922055 
L 336.389164 170.561395 
L 338.201001 180.445932 
L 340.054311 174.904802 
L 341.841087 184.42144 
L 343.701051 174.161239 
L 345.519234 178.392659 
L 347.374143 173.889724 
L 349.121055 191.01143 
L 350.875565 188.129098 
L 352.694653 178.950303 
L 354.510833 177.870554 
L 356.28317 185.468311 
L 358.101735 178.527225 
L 359.870961 185.974762 
L 361.659619 181.790849 
L 363.502764 173.393439 
L 365.232892 191.519285 
L 366.983056 189.193433 
L 368.743208 185.605525 
L 370.509061 184.716757 
L 372.293037 182.087657 
L 374.105424 177.665488 
L 375.867546 185.682977 
L 377.570472 193.951383 
L 379.384931 177.143656 
L 381.163905 181.771503 
L 382.868304 193.427302 
L 384.676901 176.728527 
L 386.350436 197.446691 
L 388.03314 196.004517 
L 389.751601 190.829317 
L 391.532601 180.599918 
L 393.231376 193.382814 
L 395.008516 180.896653 
L 396.790301 179.214366 
L 398.526877 186.896348 
L 400.293273 181.474648 
L 402.077051 178.265457 
L 403.817082 185.56954 
L 405.576831 182.154658 
L 407.267438 193.102126 
L 409.046834 178.609979 
L 410.826198 178.291297 
L 412.496286 196.005295 
L 414.241666 183.195954 
L 415.983529 183.232471 
L 417.758909 178.324248 
L 419.508364 182.164876 
L 421.262865 181.129747 
L 422.981638 186.262542 
L 424.704358 185.618983 
L 426.492708 174.650073 
L 428.226181 183.70458 
L 429.965885 182.253518 
L 431.671065 187.741879 
L 433.431031 179.110044 
L 435.158152 183.402969 
L 436.853326 188.65137 
L 438.614042 176.993668 
L 440.343951 181.50102 
L 442.104163 176.537133 
L 443.868166 175.703551 
L 445.605199 181.54266 
L 447.358907 177.210476 
L 449.090341 180.931574 
L 450.717777 197.509939 
L 452.455254 179.255341 
L 454.196791 178.761291 
L 455.953517 176.033962 
L 457.640434 186.652902 
L 459.35269 181.998802 
L 461.102743 175.762381 
L 462.812226 183.310169 
L 464.534238 180.198867 
L 466.291379 174.166401 
L 468.024449 177.49507 
L 469.717983 184.541476 
L 471.492295 171.247765 
L 473.169681 185.776342 
L 474.909355 175.237329 
L 476.602391 183.284396 
L 478.338133 177.292279 
L 479.994333 188.442146 
L 481.699744 180.171185 
L 483.405407 180.474673 
L 485.141682 175.112942 
L 486.82794 183.977066 
L 488.508912 183.803042 
L 490.175154 186.440711 
L 491.830507 188.353657 
L 493.570727 173.249426 
L 495.28347 179.067299 
L 497.014687 174.487765 
L 498.706605 182.178169 
L 500.399892 179.815447 
L 502.136806 172.494878 
L 503.843917 177.518215 
L 505.598256 169.751663 
L 507.294425 180.202367 
L 508.940494 187.273668 
L 510.63142 179.924233 
L 512.303183 183.026194 
L 514.066382 167.344088 
L 515.805777 170.835916 
L 517.495355 179.563791 
L 519.211136 175.235426 
L 520.904169 178.115437 
L 522.643997 171.090353 
L 524.358448 173.729525 
L 526.066336 174.873062 
L 527.739688 180.586094 
L 529.437867 176.542449 
L 531.120056 179.452769 
L 532.622974 208.756324 
L 534.067934 218.173276 
L 535.445269 228.817317 
L 536.857416 222.63636 
L 538.25512 224.65931 
L 539.636799 227.514393 
L 541.025436 227.274612 
L 542.44822 220.25215 
L 543.859211 222.493046 
L 545.251342 225.068398 
L 546.657456 223.187598 
L 548.063466 222.42709 
L 549.489476 219.321769 
L 550.886788 222.541724 
L 552.2297 232.76419 
L 553.577743 232.822868 
L 554.946179 228.152716 
L 556.322766 227.405659 
L 557.68852 228.491835 
L 559.03175 233.147412 
L 560.396362 228.375824 
L 561.768704 227.206248 
L 563.137583 228.015096 
L 564.514721 226.30514 
L 565.898639 225.272333 
L 567.260048 228.749059 
L 568.645728 224.942646 
L 569.994996 230.654607 
L 571.384932 223.862564 
L 572.758458 226.474341 
L 574.123181 227.090623 
L 575.446666 233.750475 
L 576.807896 228.086687 
L 578.200933 223.118528 
L 579.561081 227.819197 
L 580.875763 235.01927 
L 582.272339 221.274851 
L 583.653036 224.768669 
L 584.977865 233.528238 
L 586.359005 223.400354 
L 587.736243 224.0024 
L 588.756818 285.549415 
L 589.465274 339.213993 
L 590.174138 338.955193 
L 590.877745 340.559229 
L 591.582032 339.547571 
L 592.287889 339.781244 
L 592.991746 339.634024 
L 593.696086 339.987301 
L 594.384834 341.318627 
L 594.796093 390.116569 
L 594.796093 390.116569 
" clip-path="url(#p0fa8975337)" style="fill: none; stroke: #9467bd; stroke-width: 1.5; stroke-linecap: square"/>
   </g>
   <g id="line2d_28">
    <path d="M 115.264092 449.566428 
L 115.511864 416.226034 
L 117.239597 138.769733 
L 118.922704 153.095733 
L 120.467224 185.824575 
L 122.215787 156.567969 
L 123.992377 157.040803 
L 125.67947 174.899147 
L 127.478033 159.53086 
L 129.3499 149.786098 
L 131.146622 163.842413 
L 133.000838 156.226022 
L 134.843911 160.31933 
L 136.715267 156.266384 
L 138.514845 169.199447 
L 140.40674 154.252043 
L 142.268128 160.900745 
L 144.14849 158.255079 
L 145.953623 170.722706 
L 147.790935 167.113395 
L 149.596914 172.479511 
L 151.491219 159.056662 
L 153.310579 171.218725 
L 155.170931 164.744806 
L 157.066711 160.259175 
L 158.904649 169.545479 
L 160.799302 160.716828 
L 162.53805 185.427815 
L 164.324364 179.314005 
L 166.066019 185.160526 
L 167.933361 166.468586 
L 169.87721 154.099674 
L 171.755036 166.303277 
L 173.524173 181.922442 
L 175.376947 170.117933 
L 177.225745 171.141925 
L 179.038945 176.921871 
L 180.831545 180.280477 
L 182.60879 182.126416 
L 184.488683 166.918368 
L 186.249452 184.96818 
L 188.108877 170.673621 
L 190.03517 160.333168 
L 191.902024 168.325835 
L 193.783033 167.465255 
L 195.658738 168.143841 
L 197.484266 175.608469 
L 199.354261 168.620793 
L 201.22901 168.253758 
L 203.031305 179.792195 
L 204.87056 174.482462 
L 206.675243 179.61881 
L 208.547714 168.67349 
L 210.351698 179.078968 
L 212.153881 180.046093 
L 214.043647 166.689984 
L 215.906578 169.909215 
L 217.773949 169.478259 
L 219.603835 175.394774 
L 221.489232 166.595016 
L 223.320704 176.340223 
L 225.153709 174.036033 
L 227.012812 170.5143 
L 228.891895 167.314456 
L 230.740763 171.208473 
L 232.544992 179.588553 
L 234.342626 179.966013 
L 236.19285 171.439718 
L 237.922446 189.700855 
L 239.762529 172.532068 
L 241.549713 181.01313 
L 243.340193 180.579135 
L 245.181442 171.964318 
L 247.091201 161.239186 
L 248.960271 168.273524 
L 250.776726 175.735038 
L 252.566259 179.230373 
L 254.361365 178.64309 
L 256.20057 172.213199 
L 258.049975 169.885111 
L 259.914921 167.791302 
L 261.754607 171.630753 
L 263.460871 191.471458 
L 265.276117 175.456219 
L 267.100467 172.965491 
L 268.864101 183.513665 
L 270.688231 172.895676 
L 272.415227 188.116045 
L 274.170568 185.021961 
L 275.945931 180.935519 
L 277.661088 189.567061 
L 279.47729 173.493444 
L 281.240157 182.241556 
L 282.977178 186.785246 
L 284.808789 171.101343 
L 286.592966 178.399245 
L 288.373605 178.152939 
L 290.152199 178.836334 
L 291.954218 175.458927 
L 293.729506 178.686812 
L 295.5005 179.933467 
L 297.203809 190.501673 
L 298.990868 176.827348 
L 300.778354 176.616069 
L 302.510748 185.342127 
L 304.320449 172.852447 
L 306.065011 182.509112 
L 307.799216 183.895742 
L 309.504644 189.674111 
L 311.226299 185.595665 
L 312.991863 178.56792 
L 314.682563 190.088434 
L 316.400907 186.240621 
L 318.139049 182.744435 
L 319.893919 179.691931 
L 321.632532 182.4096 
L 323.286361 196.423756 
L 324.993889 187.402439 
L 326.626138 199.318589 
L 328.309483 190.199263 
L 330.029828 185.78233 
L 331.690725 194.254903 
L 333.353655 193.416078 
L 335.04142 189.705153 
L 336.816011 175.074621 
L 338.494167 191.689604 
L 340.203284 184.970794 
L 341.834423 197.395311 
L 343.479808 194.66912 
L 345.187907 184.873398 
L 346.913321 182.76764 
L 348.601392 187.832064 
L 350.290558 187.196555 
L 351.999844 184.640703 
L 353.704609 184.558946 
L 355.385735 189.183986 
L 356.970806 203.996512 
L 358.647452 188.088995 
L 360.336706 186.791333 
L 362.046182 183.285973 
L 363.658054 198.907878 
L 365.411604 175.668783 
L 367.14162 179.364507 
L 368.871009 179.216196 
L 370.598729 179.44768 
L 372.298682 184.114892 
L 374.071556 171.741309 
L 375.867741 168.272067 
L 377.615174 175.695215 
L 379.332998 179.590203 
L 381.049094 180.006462 
L 382.766896 178.754924 
L 384.531477 171.886194 
L 386.239699 180.730978 
L 387.954995 178.976755 
L 389.670643 178.078673 
L 391.429619 171.181449 
L 393.091369 187.417921 
L 394.790051 181.582071 
L 396.445743 188.50391 
L 399.813464 181.448875 
L 401.486015 185.14744 
L 403.179284 181.412212 
L 404.895602 176.751386 
L 406.607074 177.086468 
L 408.276297 185.194801 
L 409.955236 182.229455 
L 411.687009 173.750528 
L 413.416438 173.527207 
L 415.107466 179.968022 
L 416.788027 182.158809 
L 418.50085 176.028566 
L 420.23364 173.01733 
L 421.886923 185.003293 
L 423.571294 180.35127 
L 425.242311 181.240363 
L 426.938161 176.943672 
L 428.632006 177.002616 
L 430.239868 191.854028 
L 431.882274 185.940739 
L 433.570837 177.70273 
L 435.193991 188.884989 
L 436.8858 177.195986 
L 438.553915 181.067351 
L 440.141098 193.881608 
L 441.853531 172.747346 
L 443.531051 179.313313 
L 445.214223 176.829071 
L 446.894514 177.435521 
L 448.528434 185.071957 
L 450.252802 169.890467 
L 451.884166 185.275373 
L 453.586666 172.720655 
L 455.260366 178.129434 
L 456.934618 177.499913 
L 458.649109 169.968205 
L 460.26538 186.593758 
L 461.908261 181.120766 
L 463.533175 183.796908 
L 465.148884 185.614706 
L 466.832205 174.278687 
L 468.494797 178.113062 
L 470.061728 194.382358 
L 471.686535 182.955162 
L 473.302109 185.321657 
L 474.949949 179.056209 
L 476.59969 178.351099 
L 478.193484 187.473292 
L 479.813898 182.806392 
L 481.458499 179.07181 
L 483.11427 176.780858 
L 484.729005 183.024737 
L 486.328878 185.682331 
L 487.972196 178.792259 
L 489.598974 180.960467 
L 491.139199 195.906667 
L 492.773722 178.851216 
L 494.387105 182.52776 
L 496.020804 178.43851 
L 497.658338 178.006956 
L 499.187847 196.033968 
L 500.781116 184.398301 
L 502.332494 192.202328 
L 503.821832 202.88584 
L 505.418433 183.386124 
L 507.041116 179.240485 
L 508.631007 184.173416 
L 510.199921 187.86437 
L 511.74922 190.386912 
L 513.320988 186.979029 
L 514.919234 182.465224 
L 516.413468 199.688571 
L 517.963272 190.347428 
L 519.596914 175.601756 
L 521.223284 175.865061 
L 522.739434 195.198224 
L 524.311857 184.933279 
L 525.863755 187.691011 
L 527.42348 187.190189 
L 529.024899 179.669198 
L 530.559631 190.750887 
L 532.183345 175.009657 
L 533.750282 185.104715 
L 535.343558 179.927839 
L 537.209413 179.972952 
L 538.152917 318.22707 
L 538.366365 423.226436 
L 538.729963 425.749644 
L 538.819664 445.295158 
L 539.103131 422.675132 
L 539.239229 437.021696 
L 539.483962 417.80354 
L 539.617062 437.648982 
L 539.840122 421.568778 
L 540.025844 428.240831 
L 540.236443 423.784048 
L 540.54259 406.658989 
L 540.605632 461.32796 
L 540.718086 460.586945 
L 540.817486 460.905421 
L 540.81486 460.222198 
L 540.822748 460.434928 
L 540.868287 460.004312 
L 540.874834 460.203125 
L 540.87763 461.282382 
L 540.974953 460.043444 
L 540.984401 460.875962 
L 540.98699 460.909938 
L 541.004982 459.861018 
L 541.028418 460.017871 
L 541.040893 460.423272 
L 541.066723 459.430761 
L 541.077785 459.393399 
L 541.155524 458.167667 
L 541.16546 459.58985 
L 541.206496 461.287039 
L 541.28825 461.042901 
L 541.312027 460.212924 
L 541.312027 460.212924 
" clip-path="url(#p0fa8975337)" style="fill: none; stroke: #ff7f0e; stroke-width: 1.5; stroke-linecap: square"/>
   </g>
   <g id="patch_3">
    <path d="M 115.2 461.376 
L 115.2 62.208 
" style="fill: none; stroke: #000000; stroke-width: 0.8; stroke-linejoin: miter; stroke-linecap: square"/>
   </g>
   <g id="patch_4">
    <path d="M 829.44 461.376 
L 829.44 62.208 
" style="fill: none; stroke: #000000; stroke-width: 0.8; stroke-linejoin: miter; stroke-linecap: square"/>
   </g>
   <g id="patch_5">
    <path d="M 115.2 461.376 
L 829.44 461.376 
" style="fill: none; stroke: #000000; stroke-width: 0.8; stroke-linejoin: miter; stroke-linecap: square"/>
   </g>
   <g id="patch_6">
    <path d="M 115.2 62.208 
L 829.44 62.208 
" style="fill: none; stroke: #000000; stroke-width: 0.8; stroke-linejoin: miter; stroke-linecap: square"/>
   </g>
   <g id="legend_1">
    <g id="patch_7">
     <path d="M 681.45375 184.864875 
L 816.14 184.864875 
Q 819.94 184.864875 819.94 181.064875 
L 819.94 75.508 
Q 819.94 71.708 816.14 71.708 
L 681.45375 71.708 
Q 677.65375 71.708 677.65375 75.508 
L 677.65375 181.064875 
Q 677.65375 184.864875 681.45375 184.864875 
z
" style="fill: #ffffff; opacity: 0.8; stroke: #cccccc; stroke-linejoin: miter"/>
    </g>
    <g id="line2d_29">
     <path d="M 685.25375 85.958 
L 704.25375 85.958 
L 723.25375 85.958 
" style="fill: none; stroke: #ff0000; stroke-width: 1.5; stroke-linecap: square"/>
    </g>
    <g id="text_27">
     <!-- MemC3-t -->
     <g transform="translate(738.45375 92.608) scale(0.19 -0.19)">
      <defs>
       <path id="TimesNewRomanPSMT-4d" d="M 2619 0 
L 981 3566 
L 981 734 
Q 981 344 1066 247 
Q 1181 116 1431 116 
L 1581 116 
L 1581 0 
L 106 0 
L 106 116 
L 256 116 
Q 525 116 638 278 
Q 706 378 706 734 
L 706 3503 
Q 706 3784 644 3909 
Q 600 4000 483 4061 
Q 366 4122 106 4122 
L 106 4238 
L 1306 4238 
L 2844 922 
L 4356 4238 
L 5556 4238 
L 5556 4122 
L 5409 4122 
Q 5138 4122 5025 3959 
Q 4956 3859 4956 3503 
L 4956 734 
Q 4956 344 5044 247 
Q 5159 116 5409 116 
L 5556 116 
L 5556 0 
L 3756 0 
L 3756 116 
L 3906 116 
Q 4178 116 4288 278 
Q 4356 378 4356 734 
L 4356 3566 
L 2722 0 
L 2619 0 
z
" transform="scale(0.015625)"/>
       <path id="TimesNewRomanPSMT-65" d="M 681 1784 
Q 678 1147 991 784 
Q 1303 422 1725 422 
Q 2006 422 2214 576 
Q 2422 731 2563 1106 
L 2659 1044 
Q 2594 616 2278 264 
Q 1963 -88 1488 -88 
Q 972 -88 605 314 
Q 238 716 238 1394 
Q 238 2128 614 2539 
Q 991 2950 1559 2950 
Q 2041 2950 2350 2633 
Q 2659 2316 2659 1784 
L 681 1784 
z
M 681 1966 
L 2006 1966 
Q 1991 2241 1941 2353 
Q 1863 2528 1708 2628 
Q 1553 2728 1384 2728 
Q 1125 2728 920 2526 
Q 716 2325 681 1966 
z
" transform="scale(0.015625)"/>
       <path id="TimesNewRomanPSMT-6d" d="M 1050 2338 
Q 1363 2650 1419 2697 
Q 1559 2816 1721 2881 
Q 1884 2947 2044 2947 
Q 2313 2947 2506 2790 
Q 2700 2634 2766 2338 
Q 3088 2713 3309 2830 
Q 3531 2947 3766 2947 
Q 3994 2947 4170 2830 
Q 4347 2713 4450 2447 
Q 4519 2266 4519 1878 
L 4519 647 
Q 4519 378 4559 278 
Q 4591 209 4675 161 
Q 4759 113 4950 113 
L 4950 0 
L 3538 0 
L 3538 113 
L 3597 113 
Q 3781 113 3884 184 
Q 3956 234 3988 344 
Q 4000 397 4000 647 
L 4000 1878 
Q 4000 2228 3916 2372 
Q 3794 2572 3525 2572 
Q 3359 2572 3192 2489 
Q 3025 2406 2788 2181 
L 2781 2147 
L 2788 2013 
L 2788 647 
Q 2788 353 2820 281 
Q 2853 209 2943 161 
Q 3034 113 3253 113 
L 3253 0 
L 1806 0 
L 1806 113 
Q 2044 113 2133 169 
Q 2222 225 2256 338 
Q 2272 391 2272 647 
L 2272 1878 
Q 2272 2228 2169 2381 
Q 2031 2581 1784 2581 
Q 1616 2581 1450 2491 
Q 1191 2353 1050 2181 
L 1050 647 
Q 1050 366 1089 281 
Q 1128 197 1204 155 
Q 1281 113 1516 113 
L 1516 0 
L 100 0 
L 100 113 
Q 297 113 375 155 
Q 453 197 493 289 
Q 534 381 534 647 
L 534 1741 
Q 534 2213 506 2350 
Q 484 2453 437 2492 
Q 391 2531 309 2531 
Q 222 2531 100 2484 
L 53 2597 
L 916 2947 
L 1050 2947 
L 1050 2338 
z
" transform="scale(0.015625)"/>
       <path id="TimesNewRomanPSMT-43" d="M 3853 4334 
L 3950 2894 
L 3853 2894 
Q 3659 3541 3300 3825 
Q 2941 4109 2438 4109 
Q 2016 4109 1675 3895 
Q 1334 3681 1139 3212 
Q 944 2744 944 2047 
Q 944 1472 1128 1050 
Q 1313 628 1683 403 
Q 2053 178 2528 178 
Q 2941 178 3256 354 
Q 3572 531 3950 1056 
L 4047 994 
Q 3728 428 3303 165 
Q 2878 -97 2294 -97 
Q 1241 -97 663 684 
Q 231 1266 231 2053 
Q 231 2688 515 3219 
Q 800 3750 1298 4042 
Q 1797 4334 2388 4334 
Q 2847 4334 3294 4109 
Q 3425 4041 3481 4041 
Q 3566 4041 3628 4100 
Q 3709 4184 3744 4334 
L 3853 4334 
z
" transform="scale(0.015625)"/>
       <path id="TimesNewRomanPSMT-33" d="M 325 3431 
Q 506 3859 782 4092 
Q 1059 4325 1472 4325 
Q 1981 4325 2253 3994 
Q 2459 3747 2459 3466 
Q 2459 3003 1878 2509 
Q 2269 2356 2469 2072 
Q 2669 1788 2669 1403 
Q 2669 853 2319 450 
Q 1863 -75 997 -75 
Q 569 -75 414 31 
Q 259 138 259 259 
Q 259 350 332 419 
Q 406 488 509 488 
Q 588 488 669 463 
Q 722 447 909 348 
Q 1097 250 1169 231 
Q 1284 197 1416 197 
Q 1734 197 1970 444 
Q 2206 691 2206 1028 
Q 2206 1275 2097 1509 
Q 2016 1684 1919 1775 
Q 1784 1900 1550 2001 
Q 1316 2103 1072 2103 
L 972 2103 
L 972 2197 
Q 1219 2228 1467 2375 
Q 1716 2522 1828 2728 
Q 1941 2934 1941 3181 
Q 1941 3503 1739 3701 
Q 1538 3900 1238 3900 
Q 753 3900 428 3381 
L 325 3431 
z
" transform="scale(0.015625)"/>
       <path id="TimesNewRomanPSMT-2d" d="M 259 1672 
L 1875 1672 
L 1875 1200 
L 259 1200 
L 259 1672 
z
" transform="scale(0.015625)"/>
       <path id="TimesNewRomanPSMT-74" d="M 1031 3803 
L 1031 2863 
L 1700 2863 
L 1700 2644 
L 1031 2644 
L 1031 788 
Q 1031 509 1111 412 
Q 1191 316 1316 316 
Q 1419 316 1516 380 
Q 1613 444 1666 569 
L 1788 569 
Q 1678 263 1478 108 
Q 1278 -47 1066 -47 
Q 922 -47 784 33 
Q 647 113 581 261 
Q 516 409 516 719 
L 516 2644 
L 63 2644 
L 63 2747 
Q 234 2816 414 2980 
Q 594 3144 734 3369 
Q 806 3488 934 3803 
L 1031 3803 
z
" transform="scale(0.015625)"/>
      </defs>
      <use xlink:href="#TimesNewRomanPSMT-4d"/>
      <use xlink:href="#TimesNewRomanPSMT-65" x="88.916016"/>
      <use xlink:href="#TimesNewRomanPSMT-6d" x="133.300781"/>
      <use xlink:href="#TimesNewRomanPSMT-43" x="211.083984"/>
      <use xlink:href="#TimesNewRomanPSMT-33" x="277.783203"/>
      <use xlink:href="#TimesNewRomanPSMT-2d" x="327.783203"/>
      <use xlink:href="#TimesNewRomanPSMT-74" x="361.083984"/>
     </g>
    </g>
    <g id="line2d_30">
     <path d="M 685.25375 112.822219 
L 704.25375 112.822219 
L 723.25375 112.822219 
" style="fill: none; stroke: #0000ff; stroke-width: 1.5; stroke-linecap: square"/>
    </g>
    <g id="text_28">
     <!-- caleKV -->
     <g transform="translate(738.45375 119.472219) scale(0.19 -0.19)">
      <defs>
       <path id="TimesNewRomanPSMT-63" d="M 2631 1088 
Q 2516 522 2178 217 
Q 1841 -88 1431 -88 
Q 944 -88 581 321 
Q 219 731 219 1428 
Q 219 2103 620 2525 
Q 1022 2947 1584 2947 
Q 2006 2947 2278 2723 
Q 2550 2500 2550 2259 
Q 2550 2141 2473 2067 
Q 2397 1994 2259 1994 
Q 2075 1994 1981 2113 
Q 1928 2178 1911 2362 
Q 1894 2547 1784 2644 
Q 1675 2738 1481 2738 
Q 1169 2738 978 2506 
Q 725 2200 725 1697 
Q 725 1184 976 792 
Q 1228 400 1656 400 
Q 1963 400 2206 609 
Q 2378 753 2541 1131 
L 2631 1088 
z
" transform="scale(0.015625)"/>
       <path id="TimesNewRomanPSMT-61" d="M 1822 413 
Q 1381 72 1269 19 
Q 1100 -59 909 -59 
Q 613 -59 420 144 
Q 228 347 228 678 
Q 228 888 322 1041 
Q 450 1253 767 1440 
Q 1084 1628 1822 1897 
L 1822 2009 
Q 1822 2438 1686 2597 
Q 1550 2756 1291 2756 
Q 1094 2756 978 2650 
Q 859 2544 859 2406 
L 866 2225 
Q 866 2081 792 2003 
Q 719 1925 600 1925 
Q 484 1925 411 2006 
Q 338 2088 338 2228 
Q 338 2497 613 2722 
Q 888 2947 1384 2947 
Q 1766 2947 2009 2819 
Q 2194 2722 2281 2516 
Q 2338 2381 2338 1966 
L 2338 994 
Q 2338 584 2353 492 
Q 2369 400 2405 369 
Q 2441 338 2488 338 
Q 2538 338 2575 359 
Q 2641 400 2828 588 
L 2828 413 
Q 2478 -56 2159 -56 
Q 2006 -56 1915 50 
Q 1825 156 1822 413 
z
M 1822 616 
L 1822 1706 
Q 1350 1519 1213 1441 
Q 966 1303 859 1153 
Q 753 1003 753 825 
Q 753 600 887 451 
Q 1022 303 1197 303 
Q 1434 303 1822 616 
z
" transform="scale(0.015625)"/>
       <path id="TimesNewRomanPSMT-6c" d="M 1184 4444 
L 1184 647 
Q 1184 378 1223 290 
Q 1263 203 1344 158 
Q 1425 113 1647 113 
L 1647 0 
L 244 0 
L 244 113 
Q 441 113 512 153 
Q 584 194 625 287 
Q 666 381 666 647 
L 666 3247 
Q 666 3731 644 3842 
Q 622 3953 573 3993 
Q 525 4034 450 4034 
Q 369 4034 244 3984 
L 191 4094 
L 1044 4444 
L 1184 4444 
z
" transform="scale(0.015625)"/>
       <path id="TimesNewRomanPSMT-4b" d="M 1913 2350 
L 3475 797 
Q 3859 413 4131 273 
Q 4403 134 4675 116 
L 4675 0 
L 2659 0 
L 2659 116 
Q 2841 116 2920 177 
Q 3000 238 3000 313 
Q 3000 388 2970 447 
Q 2941 506 2775 669 
L 1313 2116 
L 1313 750 
Q 1313 428 1353 325 
Q 1384 247 1484 191 
Q 1619 116 1769 116 
L 1913 116 
L 1913 0 
L 106 0 
L 106 116 
L 256 116 
Q 519 116 638 269 
Q 713 369 713 750 
L 713 3488 
Q 713 3809 672 3916 
Q 641 3991 544 4047 
Q 406 4122 256 4122 
L 106 4122 
L 106 4238 
L 1913 4238 
L 1913 4122 
L 1769 4122 
Q 1622 4122 1484 4050 
Q 1388 4000 1350 3900 
Q 1313 3800 1313 3488 
L 1313 2191 
Q 1375 2250 1741 2588 
Q 2669 3438 2863 3722 
Q 2947 3847 2947 3941 
Q 2947 4013 2881 4067 
Q 2816 4122 2659 4122 
L 2563 4122 
L 2563 4238 
L 4119 4238 
L 4119 4122 
Q 3981 4119 3868 4084 
Q 3756 4050 3593 3951 
Q 3431 3853 3194 3634 
Q 3125 3572 2559 2994 
L 1913 2350 
z
" transform="scale(0.015625)"/>
       <path id="TimesNewRomanPSMT-56" d="M 4544 4238 
L 4544 4122 
Q 4319 4081 4203 3978 
Q 4038 3825 3909 3509 
L 2431 -97 
L 2316 -97 
L 728 3556 
Q 606 3838 556 3900 
Q 478 3997 364 4051 
Q 250 4106 56 4122 
L 56 4238 
L 1788 4238 
L 1788 4122 
Q 1494 4094 1406 4022 
Q 1319 3950 1319 3838 
Q 1319 3681 1463 3350 
L 2541 866 
L 3541 3319 
Q 3688 3681 3688 3822 
Q 3688 3913 3597 3995 
Q 3506 4078 3291 4113 
Q 3275 4116 3238 4122 
L 3238 4238 
L 4544 4238 
z
" transform="scale(0.015625)"/>
      </defs>
      <use xlink:href="#TimesNewRomanPSMT-63"/>
      <use xlink:href="#TimesNewRomanPSMT-61" x="44.384766"/>
      <use xlink:href="#TimesNewRomanPSMT-6c" x="88.769531"/>
      <use xlink:href="#TimesNewRomanPSMT-65" x="116.552734"/>
      <use xlink:href="#TimesNewRomanPSMT-4b" x="160.9375"/>
      <use xlink:href="#TimesNewRomanPSMT-56" x="233.154297"/>
     </g>
    </g>
    <g id="line2d_31">
     <path d="M 685.25375 139.686437 
L 704.25375 139.686437 
L 723.25375 139.686437 
" style="fill: none; stroke: #9467bd; stroke-width: 1.5; stroke-linecap: square"/>
    </g>
    <g id="text_29">
     <!-- MICA-t -->
     <g transform="translate(738.45375 146.336437) scale(0.19 -0.19)">
      <defs>
       <path id="TimesNewRomanPSMT-49" d="M 1975 116 
L 1975 0 
L 159 0 
L 159 116 
L 309 116 
Q 572 116 691 269 
Q 766 369 766 750 
L 766 3488 
Q 766 3809 725 3913 
Q 694 3991 597 4047 
Q 459 4122 309 4122 
L 159 4122 
L 159 4238 
L 1975 4238 
L 1975 4122 
L 1822 4122 
Q 1563 4122 1444 3969 
Q 1366 3869 1366 3488 
L 1366 750 
Q 1366 428 1406 325 
Q 1438 247 1538 191 
Q 1672 116 1822 116 
L 1975 116 
z
" transform="scale(0.015625)"/>
       <path id="TimesNewRomanPSMT-41" d="M 2928 1419 
L 1288 1419 
L 1000 750 
Q 894 503 894 381 
Q 894 284 986 211 
Q 1078 138 1384 116 
L 1384 0 
L 50 0 
L 50 116 
Q 316 163 394 238 
Q 553 388 747 847 
L 2238 4334 
L 2347 4334 
L 3822 809 
Q 4000 384 4145 257 
Q 4291 131 4550 116 
L 4550 0 
L 2878 0 
L 2878 116 
Q 3131 128 3220 200 
Q 3309 272 3309 375 
Q 3309 513 3184 809 
L 2928 1419 
z
M 2841 1650 
L 2122 3363 
L 1384 1650 
L 2841 1650 
z
" transform="scale(0.015625)"/>
      </defs>
      <use xlink:href="#TimesNewRomanPSMT-4d"/>
      <use xlink:href="#TimesNewRomanPSMT-49" x="88.916016"/>
      <use xlink:href="#TimesNewRomanPSMT-43" x="122.216797"/>
      <use xlink:href="#TimesNewRomanPSMT-41" x="188.916016"/>
      <use xlink:href="#TimesNewRomanPSMT-2d" x="261.132812"/>
      <use xlink:href="#TimesNewRomanPSMT-74" x="294.433594"/>
     </g>
    </g>
    <g id="line2d_32">
     <path d="M 685.25375 166.550656 
L 704.25375 166.550656 
L 723.25375 166.550656 
" style="fill: none; stroke: #ff7f0e; stroke-width: 1.5; stroke-linecap: square"/>
    </g>
    <g id="text_30">
     <!-- caleKV -->
     <g transform="translate(738.45375 173.200656) scale(0.19 -0.19)">
      <use xlink:href="#TimesNewRomanPSMT-63"/>
      <use xlink:href="#TimesNewRomanPSMT-61" x="44.384766"/>
      <use xlink:href="#TimesNewRomanPSMT-6c" x="88.769531"/>
      <use xlink:href="#TimesNewRomanPSMT-65" x="116.552734"/>
      <use xlink:href="#TimesNewRomanPSMT-4b" x="160.9375"/>
      <use xlink:href="#TimesNewRomanPSMT-56" x="233.154297"/>
     </g>
    </g>
   </g>
  </g>
 </g>
 <defs>
  <clipPath id="p0fa8975337">
   <rect x="115.2" y="62.208" width="714.24" height="399.168"/>
  </clipPath>
 </defs>
</svg>
