<?xml version="1.0" encoding="utf-8" standalone="no"?>
<!DOCTYPE svg PUBLIC "-//W3C//DTD SVG 1.1//EN"
  "http://www.w3.org/Graphics/SVG/1.1/DTD/svg11.dtd">
<svg xmlns:xlink="http://www.w3.org/1999/xlink" width="921.6pt" height="518.4pt" viewBox="0 0 921.6 518.4" xmlns="http://www.w3.org/2000/svg" version="1.1">
 <metadata>
  <rdf:RDF xmlns:dc="http://purl.org/dc/elements/1.1/" xmlns:cc="http://creativecommons.org/ns#" xmlns:rdf="http://www.w3.org/1999/02/22-rdf-syntax-ns#">
   <cc:Work>
    <dc:type rdf:resource="http://purl.org/dc/dcmitype/StillImage"/>
    <dc:date>2023-07-04T19:57:32.542069</dc:date>
    <dc:format>image/svg+xml</dc:format>
    <dc:creator>
     <cc:Agent>
      <dc:title>Matplotlib v3.7.1, https://matplotlib.org/</dc:title>
     </cc:Agent>
    </dc:creator>
   </cc:Work>
  </rdf:RDF>
 </metadata>
 <defs>
  <style type="text/css">*{stroke-linejoin: round; stroke-linecap: butt}</style>
 </defs>
 <g id="figure_1">
  <g id="patch_1">
   <path d="M 0 518.4 
L 921.6 518.4 
L 921.6 0 
L 0 0 
z
" style="fill: #ffffff"/>
  </g>
  <g id="axes_1">
   <g id="patch_2">
    <path d="M 115.2 461.376 
L 829.44 461.376 
L 829.44 62.208 
L 115.2 62.208 
z
" style="fill: #ffffff"/>
   </g>
   <g id="matplotlib.axis_1">
    <g id="xtick_1">
     <g id="line2d_1">
      <defs>
       <path id="md510b7cafb" d="M 0 0 
L 0 3.5 
" style="stroke: #000000; stroke-width: 0.8"/>
      </defs>
      <g>
       <use xlink:href="#md510b7cafb" x="115.2" y="461.376" style="stroke: #000000; stroke-width: 0.8"/>
      </g>
     </g>
     <g id="text_1">
      <!-- 0 -->
      <g transform="translate(110.45 481.958031) scale(0.19 -0.19)">
       <defs>
        <path id="SimSun-30" d="M 1600 4225 
Q 1250 4225 1012 3687 
Q 775 3150 775 2250 
Q 775 1300 1012 775 
Q 1250 250 1600 250 
Q 1975 250 2187 775 
Q 2400 1300 2400 2250 
Q 2400 3150 2200 3687 
Q 2000 4225 1600 4225 
z
M 1600 50 
Q 1050 50 675 625 
Q 300 1200 300 2250 
Q 300 3225 662 3825 
Q 1025 4425 1600 4425 
Q 2150 4425 2512 3850 
Q 2875 3275 2875 2250 
Q 2875 1225 2512 637 
Q 2150 50 1600 50 
z
" transform="scale(0.015625)"/>
       </defs>
       <use xlink:href="#SimSun-30"/>
      </g>
     </g>
    </g>
    <g id="xtick_2">
     <g id="line2d_2">
      <g>
       <use xlink:href="#md510b7cafb" x="194.56" y="461.376" style="stroke: #000000; stroke-width: 0.8"/>
      </g>
     </g>
     <g id="text_2">
      <!-- 10 -->
      <g transform="translate(185.06 481.958031) scale(0.19 -0.19)">
       <defs>
        <path id="SimSun-31" d="M 1825 4450 
L 1825 650 
Q 1825 450 1950 350 
Q 2075 250 2300 250 
L 2550 250 
L 2550 100 
L 725 100 
L 725 250 
L 950 250 
Q 1200 250 1312 350 
Q 1425 450 1425 650 
L 1425 3675 
Q 1425 3775 1362 3837 
Q 1300 3900 1175 3900 
L 725 3900 
L 725 4050 
L 950 4050 
Q 1250 4050 1437 4150 
Q 1625 4250 1725 4450 
L 1825 4450 
z
" transform="scale(0.015625)"/>
       </defs>
       <use xlink:href="#SimSun-31"/>
       <use xlink:href="#SimSun-30" x="50"/>
      </g>
     </g>
    </g>
    <g id="xtick_3">
     <g id="line2d_3">
      <g>
       <use xlink:href="#md510b7cafb" x="273.92" y="461.376" style="stroke: #000000; stroke-width: 0.8"/>
      </g>
     </g>
     <g id="text_3">
      <!-- 20 -->
      <g transform="translate(264.42 481.958031) scale(0.19 -0.19)">
       <defs>
        <path id="SimSun-32" d="M 2325 3325 
Q 2325 3775 2125 4012 
Q 1925 4250 1525 4250 
Q 1225 4250 1012 4087 
Q 800 3925 800 3675 
Q 800 3525 900 3425 
Q 975 3325 975 3225 
Q 975 3100 912 3037 
Q 850 2975 725 2975 
Q 575 2975 487 3062 
Q 400 3150 400 3350 
Q 400 3875 775 4150 
Q 1150 4425 1575 4425 
Q 2175 4425 2462 4125 
Q 2750 3825 2750 3375 
Q 2750 3075 2612 2775 
Q 2475 2475 2175 2200 
Q 1450 1500 1062 1062 
Q 675 625 600 475 
L 2075 475 
Q 2300 475 2450 650 
Q 2600 825 2650 1175 
L 2800 1175 
L 2650 100 
L 325 100 
L 325 425 
Q 450 650 737 1000 
Q 1025 1350 1500 1825 
Q 1925 2250 2125 2625 
Q 2325 3000 2325 3325 
z
" transform="scale(0.015625)"/>
       </defs>
       <use xlink:href="#SimSun-32"/>
       <use xlink:href="#SimSun-30" x="50"/>
      </g>
     </g>
    </g>
    <g id="xtick_4">
     <g id="line2d_4">
      <g>
       <use xlink:href="#md510b7cafb" x="353.28" y="461.376" style="stroke: #000000; stroke-width: 0.8"/>
      </g>
     </g>
     <g id="text_4">
      <!-- 30 -->
      <g transform="translate(343.78 481.958031) scale(0.19 -0.19)">
       <defs>
        <path id="SimSun-33" d="M 2800 1250 
Q 2800 775 2450 412 
Q 2100 50 1475 50 
Q 1025 50 700 300 
Q 375 550 375 875 
Q 375 1025 475 1137 
Q 575 1250 675 1250 
Q 825 1250 887 1137 
Q 950 1025 950 950 
Q 950 825 900 750 
Q 850 650 850 575 
Q 850 425 1037 325 
Q 1225 225 1450 225 
Q 1900 225 2125 487 
Q 2350 750 2350 1300 
Q 2350 1750 2112 2025 
Q 1875 2300 1225 2300 
L 1225 2475 
Q 1725 2475 1962 2712 
Q 2200 2950 2200 3375 
Q 2200 3725 2012 3987 
Q 1825 4250 1425 4250 
Q 1250 4250 1050 4162 
Q 850 4075 850 3875 
Q 850 3675 900 3625 
Q 950 3575 950 3500 
Q 950 3375 900 3300 
Q 850 3225 725 3225 
Q 625 3225 537 3300 
Q 450 3375 450 3575 
Q 450 3950 775 4187 
Q 1100 4425 1525 4425 
Q 2025 4425 2325 4112 
Q 2625 3800 2625 3450 
Q 2625 3075 2437 2812 
Q 2250 2550 1850 2425 
Q 2400 2225 2600 1900 
Q 2800 1575 2800 1250 
z
" transform="scale(0.015625)"/>
       </defs>
       <use xlink:href="#SimSun-33"/>
       <use xlink:href="#SimSun-30" x="50"/>
      </g>
     </g>
    </g>
    <g id="xtick_5">
     <g id="line2d_5">
      <g>
       <use xlink:href="#md510b7cafb" x="432.64" y="461.376" style="stroke: #000000; stroke-width: 0.8"/>
      </g>
     </g>
     <g id="text_5">
      <!-- 40 -->
      <g transform="translate(423.14 481.958031) scale(0.19 -0.19)">
       <defs>
        <path id="SimSun-34" d="M 2300 575 
Q 2300 400 2400 325 
Q 2500 250 2675 250 
L 2900 250 
L 2900 100 
L 1250 100 
L 1250 250 
L 1525 250 
Q 1725 250 1812 325 
Q 1900 400 1900 575 
L 1900 1400 
L 225 1400 
L 225 1525 
L 2050 4425 
L 2300 4425 
L 2300 1550 
L 2975 1550 
L 2975 1400 
L 2300 1400 
L 2300 575 
z
M 1875 3800 
L 450 1550 
L 1900 1550 
L 1900 3800 
L 1875 3800 
z
" transform="scale(0.015625)"/>
       </defs>
       <use xlink:href="#SimSun-34"/>
       <use xlink:href="#SimSun-30" x="50"/>
      </g>
     </g>
    </g>
    <g id="xtick_6">
     <g id="line2d_6">
      <g>
       <use xlink:href="#md510b7cafb" x="512" y="461.376" style="stroke: #000000; stroke-width: 0.8"/>
      </g>
     </g>
     <g id="text_6">
      <!-- 50 -->
      <g transform="translate(502.5 481.958031) scale(0.19 -0.19)">
       <defs>
        <path id="SimSun-35" d="M 1725 2850 
Q 2200 2850 2500 2487 
Q 2800 2125 2800 1525 
Q 2800 850 2487 450 
Q 2175 50 1525 50 
Q 1075 50 725 312 
Q 375 575 375 950 
Q 375 1100 462 1212 
Q 550 1325 700 1325 
Q 850 1325 900 1225 
Q 950 1125 950 1050 
Q 950 900 875 825 
Q 800 725 800 625 
Q 800 425 1037 325 
Q 1275 225 1550 225 
Q 1950 225 2162 550 
Q 2375 875 2375 1475 
Q 2375 1975 2187 2287 
Q 2000 2600 1625 2600 
Q 1350 2600 1150 2500 
Q 950 2400 775 2075 
L 550 2100 
L 675 4375 
L 2725 4375 
L 2650 4000 
L 850 4000 
L 750 2350 
Q 1000 2700 1237 2775 
Q 1475 2850 1725 2850 
z
" transform="scale(0.015625)"/>
       </defs>
       <use xlink:href="#SimSun-35"/>
       <use xlink:href="#SimSun-30" x="50"/>
      </g>
     </g>
    </g>
    <g id="xtick_7">
     <g id="line2d_7">
      <g>
       <use xlink:href="#md510b7cafb" x="591.36" y="461.376" style="stroke: #000000; stroke-width: 0.8"/>
      </g>
     </g>
     <g id="text_7">
      <!-- 60 -->
      <g transform="translate(581.86 481.958031) scale(0.19 -0.19)">
       <defs>
        <path id="SimSun-36" d="M 775 1800 
Q 775 1050 1037 637 
Q 1300 225 1675 225 
Q 2050 225 2250 500 
Q 2450 775 2450 1525 
Q 2450 2025 2237 2300 
Q 2025 2575 1725 2575 
Q 1450 2575 1212 2412 
Q 975 2250 775 1800 
z
M 1750 2825 
Q 2350 2825 2612 2425 
Q 2875 2025 2875 1525 
Q 2875 775 2512 412 
Q 2150 50 1675 50 
Q 1000 50 650 562 
Q 300 1075 300 2050 
Q 300 3200 725 3812 
Q 1150 4425 1875 4425 
Q 2225 4425 2437 4225 
Q 2650 4025 2650 3875 
Q 2650 3725 2587 3650 
Q 2525 3575 2375 3575 
Q 2250 3575 2187 3637 
Q 2125 3700 2125 3825 
Q 2125 3875 2150 3925 
Q 2150 3975 2150 4025 
Q 2150 4125 2075 4187 
Q 2000 4250 1800 4250 
Q 1375 4250 1075 3862 
Q 775 3475 775 2175 
Q 925 2500 1187 2662 
Q 1450 2825 1750 2825 
z
" transform="scale(0.015625)"/>
       </defs>
       <use xlink:href="#SimSun-36"/>
       <use xlink:href="#SimSun-30" x="50"/>
      </g>
     </g>
    </g>
    <g id="xtick_8">
     <g id="line2d_8">
      <g>
       <use xlink:href="#md510b7cafb" x="670.72" y="461.376" style="stroke: #000000; stroke-width: 0.8"/>
      </g>
     </g>
     <g id="text_8">
      <!-- 70 -->
      <g transform="translate(661.22 481.958031) scale(0.19 -0.19)">
       <defs>
        <path id="SimSun-37" d="M 2825 4200 
Q 2300 3350 1987 2537 
Q 1675 1725 1675 1125 
Q 1675 1025 1700 850 
Q 1700 650 1700 400 
Q 1700 200 1637 125 
Q 1575 50 1425 50 
Q 1300 50 1212 137 
Q 1125 225 1125 450 
Q 1125 925 1337 1625 
Q 1550 2325 2475 4000 
L 1225 4000 
Q 950 4000 787 3825 
Q 625 3650 550 3300 
L 400 3325 
L 575 4375 
L 2825 4375 
L 2825 4200 
z
" transform="scale(0.015625)"/>
       </defs>
       <use xlink:href="#SimSun-37"/>
       <use xlink:href="#SimSun-30" x="50"/>
      </g>
     </g>
    </g>
    <g id="xtick_9">
     <g id="line2d_9">
      <g>
       <use xlink:href="#md510b7cafb" x="750.08" y="461.376" style="stroke: #000000; stroke-width: 0.8"/>
      </g>
     </g>
     <g id="text_9">
      <!-- 80 -->
      <g transform="translate(740.58 481.958031) scale(0.19 -0.19)">
       <defs>
        <path id="SimSun-38" d="M 625 1125 
Q 625 725 887 475 
Q 1150 225 1550 225 
Q 2025 225 2237 475 
Q 2450 725 2450 1100 
Q 2450 1425 2150 1725 
Q 1850 2025 1250 2275 
Q 950 2075 787 1775 
Q 625 1475 625 1125 
z
M 2825 1175 
Q 2825 700 2475 375 
Q 2125 50 1550 50 
Q 1025 50 650 375 
Q 275 700 275 1125 
Q 275 1550 487 1850 
Q 700 2150 1100 2375 
Q 750 2550 562 2812 
Q 375 3075 375 3400 
Q 375 3825 700 4125 
Q 1025 4425 1600 4425 
Q 2125 4425 2450 4125 
Q 2775 3825 2775 3400 
Q 2775 3100 2587 2837 
Q 2400 2575 2000 2375 
Q 2425 2125 2625 1825 
Q 2825 1525 2825 1175 
z
M 2425 3375 
Q 2425 3725 2225 3987 
Q 2025 4250 1600 4250 
Q 1125 4250 925 4000 
Q 725 3750 725 3475 
Q 725 3200 1012 2937 
Q 1300 2675 1825 2475 
Q 2125 2625 2275 2850 
Q 2425 3075 2425 3375 
z
" transform="scale(0.015625)"/>
       </defs>
       <use xlink:href="#SimSun-38"/>
       <use xlink:href="#SimSun-30" x="50"/>
      </g>
     </g>
    </g>
    <g id="xtick_10">
     <g id="line2d_10">
      <g>
       <use xlink:href="#md510b7cafb" x="829.44" y="461.376" style="stroke: #000000; stroke-width: 0.8"/>
      </g>
     </g>
     <g id="text_10">
      <!-- 90 -->
      <g transform="translate(819.94 481.958031) scale(0.19 -0.19)">
       <defs>
        <path id="SimSun-39" d="M 700 3050 
Q 700 2500 912 2212 
Q 1125 1925 1450 1925 
Q 1825 1925 2100 2275 
Q 2375 2625 2375 2925 
Q 2375 3525 2175 3887 
Q 1975 4250 1525 4250 
Q 1100 4250 900 3912 
Q 700 3575 700 3050 
z
M 1375 1700 
Q 875 1700 575 2012 
Q 275 2325 275 3025 
Q 275 3625 600 4025 
Q 925 4425 1525 4425 
Q 2150 4425 2500 3925 
Q 2850 3425 2850 2475 
Q 2850 1425 2437 737 
Q 2025 50 1300 50 
Q 975 50 737 200 
Q 500 350 500 600 
Q 500 700 562 800 
Q 625 900 775 900 
Q 925 900 975 787 
Q 1025 675 1025 525 
Q 1025 425 1050 362 
Q 1075 300 1100 275 
Q 1125 250 1187 237 
Q 1250 225 1325 225 
Q 1775 225 2050 725 
Q 2325 1225 2375 2400 
Q 2250 2100 2000 1900 
Q 1750 1700 1375 1700 
z
" transform="scale(0.015625)"/>
       </defs>
       <use xlink:href="#SimSun-39"/>
       <use xlink:href="#SimSun-30" x="50"/>
      </g>
     </g>
    </g>
    <g id="text_11">
     <!-- 时间 $\mathrm{(s)}$ -->
     <g transform="translate(438.5 503.98725) scale(0.19 -0.19)">
      <defs>
       <path id="SimSun-65f6" d="M 4500 3600 
Q 4500 4575 4475 5225 
L 5100 4900 
L 4850 4725 
L 4850 3600 
L 5225 3600 
L 5550 3925 
L 6025 3450 
L 4850 3450 
L 4850 100 
Q 4850 -375 4300 -575 
Q 4275 -200 3475 -25 
L 3475 100 
Q 4150 0 4325 25 
Q 4500 50 4500 325 
L 4500 3450 
L 3200 3450 
Q 2875 3450 2600 3375 
L 2375 3600 
L 4500 3600 
z
M 2875 2825 
Q 3525 2375 3637 2200 
Q 3750 2025 3750 1925 
Q 3750 1800 3637 1637 
Q 3525 1475 3475 1475 
Q 3400 1475 3325 1775 
Q 3200 2225 2800 2750 
L 2875 2825 
z
M 925 4150 
L 925 2650 
L 1950 2650 
L 1950 4150 
L 925 4150 
z
M 925 2500 
L 925 900 
L 1950 900 
L 1950 2500 
L 925 2500 
z
M 2300 2000 
Q 2300 800 2325 450 
L 1950 250 
L 1950 750 
L 925 750 
L 925 225 
L 550 25 
Q 575 825 575 2425 
Q 575 4025 550 4500 
L 950 4300 
L 1900 4300 
L 2100 4550 
L 2500 4225 
L 2300 4050 
L 2300 2000 
z
" transform="scale(0.015625)"/>
       <path id="SimSun-95f4" d="M 2150 525 
Q 2175 1325 2175 2112 
Q 2175 2900 2150 3675 
L 2525 3450 
L 3750 3450 
L 4000 3700 
L 4325 3375 
L 4125 3200 
Q 4125 1550 4150 775 
L 3800 575 
L 3800 975 
L 2500 975 
L 2500 700 
L 2150 525 
z
M 2500 3300 
L 2500 2325 
L 3800 2325 
L 3800 3300 
L 2500 3300 
z
M 2500 2175 
L 2500 1125 
L 3800 1125 
L 3800 2175 
L 2500 2175 
z
M 1275 5200 
Q 1850 4825 1950 4675 
Q 2050 4525 2050 4425 
Q 2050 4275 1950 4137 
Q 1850 4000 1825 4000 
Q 1750 4000 1675 4275 
Q 1550 4650 1200 5125 
L 1275 5200 
z
M 1125 425 
Q 1125 25 1150 -375 
L 750 -525 
Q 775 -150 775 1950 
Q 775 4050 750 4425 
L 1350 4125 
L 1125 3975 
L 1125 425 
z
M 4225 125 
Q 5025 0 5125 37 
Q 5225 75 5225 250 
L 5225 4450 
L 3225 4450 
Q 2900 4450 2625 4375 
L 2400 4600 
L 5175 4600 
L 5425 4850 
L 5775 4500 
L 5575 4350 
L 5575 225 
Q 5575 -100 5462 -250 
Q 5350 -400 5000 -550 
Q 4800 -125 4225 25 
L 4225 125 
z
" transform="scale(0.015625)"/>
       <path id="SimSun-20" d="M 0 0 
Q 0 0 0 0 
z
" transform="scale(0.015625)"/>
       <path id="STIXGeneral-Regular-28" d="M 1946 -1030 
L 1869 -1133 
Q 1126 -710 716 32 
Q 307 774 307 1613 
Q 307 3386 1888 4326 
L 1946 4224 
Q 1293 3667 1075 3126 
Q 858 2586 858 1632 
Q 858 685 1082 96 
Q 1306 -493 1946 -1030 
z
" transform="scale(0.015625)"/>
       <path id="STIXGeneral-Regular-73" d="M 998 1926 
L 1664 1523 
Q 1984 1331 2105 1164 
Q 2227 998 2227 736 
Q 2227 416 1961 176 
Q 1696 -64 1331 -64 
Q 1030 -64 864 -6 
Q 691 51 570 51 
Q 461 51 416 -26 
L 333 -26 
L 333 979 
L 435 979 
Q 538 512 730 294 
Q 922 77 1248 77 
Q 1485 77 1632 211 
Q 1779 346 1779 550 
Q 1779 845 1440 1030 
L 1094 1222 
Q 326 1651 326 2150 
Q 326 2522 566 2730 
Q 806 2938 1210 2938 
Q 1491 2938 1638 2867 
Q 1754 2816 1818 2816 
Q 1862 2816 1920 2880 
L 1990 2880 
L 2022 2010 
L 1926 2010 
Q 1818 2445 1654 2621 
Q 1491 2797 1203 2797 
Q 986 2797 854 2688 
Q 723 2579 723 2362 
Q 723 2253 796 2128 
Q 870 2003 998 1926 
z
" transform="scale(0.015625)"/>
       <path id="STIXGeneral-Regular-29" d="M 186 4224 
L 262 4326 
Q 992 3891 1408 3148 
Q 1824 2406 1824 1581 
Q 1824 -166 243 -1133 
L 186 -1030 
Q 845 -486 1059 54 
Q 1274 595 1274 1562 
Q 1274 2534 1059 3120 
Q 845 3706 186 4224 
z
" transform="scale(0.015625)"/>
      </defs>
      <use xlink:href="#SimSun-65f6" transform="translate(0 0.359375)"/>
      <use xlink:href="#SimSun-95f4" transform="translate(100 0.359375)"/>
      <use xlink:href="#SimSun-20" transform="translate(200 0.359375)"/>
      <use xlink:href="#STIXGeneral-Regular-28" transform="translate(250 0.359375)"/>
      <use xlink:href="#STIXGeneral-Regular-73" transform="translate(283.299988 0.359375)"/>
      <use xlink:href="#STIXGeneral-Regular-29" transform="translate(322.199982 0.359375)"/>
     </g>
    </g>
   </g>
   <g id="matplotlib.axis_2">
    <g id="ytick_1">
     <g id="line2d_11">
      <defs>
       <path id="ma7b2ee46e1" d="M 0 0 
L -3.5 0 
" style="stroke: #000000; stroke-width: 0.8"/>
      </defs>
      <g>
       <use xlink:href="#ma7b2ee46e1" x="115.2" y="461.376" style="stroke: #000000; stroke-width: 0.8"/>
      </g>
     </g>
     <g id="text_12">
      <!-- 0 -->
      <g transform="translate(98.7 468.167016) scale(0.19 -0.19)">
       <use xlink:href="#SimSun-30"/>
      </g>
     </g>
    </g>
    <g id="ytick_2">
     <g id="line2d_12">
      <g>
       <use xlink:href="#ma7b2ee46e1" x="115.2" y="432.864" style="stroke: #000000; stroke-width: 0.8"/>
      </g>
     </g>
     <g id="text_13">
      <!-- 0.5 -->
      <g transform="translate(79.7 439.655016) scale(0.19 -0.19)">
       <defs>
        <path id="SimSun-2e" d="M 800 25 
Q 650 25 537 125 
Q 425 225 425 400 
Q 425 575 537 675 
Q 650 775 800 775 
Q 950 775 1062 662 
Q 1175 550 1175 400 
Q 1175 225 1062 125 
Q 950 25 800 25 
z
" transform="scale(0.015625)"/>
       </defs>
       <use xlink:href="#SimSun-30"/>
       <use xlink:href="#SimSun-2e" x="50"/>
       <use xlink:href="#SimSun-35" x="100"/>
      </g>
     </g>
    </g>
    <g id="ytick_3">
     <g id="line2d_13">
      <g>
       <use xlink:href="#ma7b2ee46e1" x="115.2" y="404.352" style="stroke: #000000; stroke-width: 0.8"/>
      </g>
     </g>
     <g id="text_14">
      <!-- 1.0 -->
      <g transform="translate(79.7 411.143016) scale(0.19 -0.19)">
       <use xlink:href="#SimSun-31"/>
       <use xlink:href="#SimSun-2e" x="50"/>
       <use xlink:href="#SimSun-30" x="100"/>
      </g>
     </g>
    </g>
    <g id="ytick_4">
     <g id="line2d_14">
      <g>
       <use xlink:href="#ma7b2ee46e1" x="115.2" y="375.84" style="stroke: #000000; stroke-width: 0.8"/>
      </g>
     </g>
     <g id="text_15">
      <!-- 1.5 -->
      <g transform="translate(79.7 382.631016) scale(0.19 -0.19)">
       <use xlink:href="#SimSun-31"/>
       <use xlink:href="#SimSun-2e" x="50"/>
       <use xlink:href="#SimSun-35" x="100"/>
      </g>
     </g>
    </g>
    <g id="ytick_5">
     <g id="line2d_15">
      <g>
       <use xlink:href="#ma7b2ee46e1" x="115.2" y="347.328" style="stroke: #000000; stroke-width: 0.8"/>
      </g>
     </g>
     <g id="text_16">
      <!-- 2.0 -->
      <g transform="translate(79.7 354.119016) scale(0.19 -0.19)">
       <use xlink:href="#SimSun-32"/>
       <use xlink:href="#SimSun-2e" x="50"/>
       <use xlink:href="#SimSun-30" x="100"/>
      </g>
     </g>
    </g>
    <g id="ytick_6">
     <g id="line2d_16">
      <g>
       <use xlink:href="#ma7b2ee46e1" x="115.2" y="318.816" style="stroke: #000000; stroke-width: 0.8"/>
      </g>
     </g>
     <g id="text_17">
      <!-- 2.5 -->
      <g transform="translate(79.7 325.607016) scale(0.19 -0.19)">
       <use xlink:href="#SimSun-32"/>
       <use xlink:href="#SimSun-2e" x="50"/>
       <use xlink:href="#SimSun-35" x="100"/>
      </g>
     </g>
    </g>
    <g id="ytick_7">
     <g id="line2d_17">
      <g>
       <use xlink:href="#ma7b2ee46e1" x="115.2" y="290.304" style="stroke: #000000; stroke-width: 0.8"/>
      </g>
     </g>
     <g id="text_18">
      <!-- 3.0 -->
      <g transform="translate(79.7 297.095016) scale(0.19 -0.19)">
       <use xlink:href="#SimSun-33"/>
       <use xlink:href="#SimSun-2e" x="50"/>
       <use xlink:href="#SimSun-30" x="100"/>
      </g>
     </g>
    </g>
    <g id="ytick_8">
     <g id="line2d_18">
      <g>
       <use xlink:href="#ma7b2ee46e1" x="115.2" y="261.792" style="stroke: #000000; stroke-width: 0.8"/>
      </g>
     </g>
     <g id="text_19">
      <!-- 3.5 -->
      <g transform="translate(79.7 268.583016) scale(0.19 -0.19)">
       <use xlink:href="#SimSun-33"/>
       <use xlink:href="#SimSun-2e" x="50"/>
       <use xlink:href="#SimSun-35" x="100"/>
      </g>
     </g>
    </g>
    <g id="ytick_9">
     <g id="line2d_19">
      <g>
       <use xlink:href="#ma7b2ee46e1" x="115.2" y="233.28" style="stroke: #000000; stroke-width: 0.8"/>
      </g>
     </g>
     <g id="text_20">
      <!-- 4.0 -->
      <g transform="translate(79.7 240.071016) scale(0.19 -0.19)">
       <use xlink:href="#SimSun-34"/>
       <use xlink:href="#SimSun-2e" x="50"/>
       <use xlink:href="#SimSun-30" x="100"/>
      </g>
     </g>
    </g>
    <g id="ytick_10">
     <g id="line2d_20">
      <g>
       <use xlink:href="#ma7b2ee46e1" x="115.2" y="204.768" style="stroke: #000000; stroke-width: 0.8"/>
      </g>
     </g>
     <g id="text_21">
      <!-- 4.5 -->
      <g transform="translate(79.7 211.559016) scale(0.19 -0.19)">
       <use xlink:href="#SimSun-34"/>
       <use xlink:href="#SimSun-2e" x="50"/>
       <use xlink:href="#SimSun-35" x="100"/>
      </g>
     </g>
    </g>
    <g id="ytick_11">
     <g id="line2d_21">
      <g>
       <use xlink:href="#ma7b2ee46e1" x="115.2" y="176.256" style="stroke: #000000; stroke-width: 0.8"/>
      </g>
     </g>
     <g id="text_22">
      <!-- 5.0 -->
      <g transform="translate(79.7 183.047016) scale(0.19 -0.19)">
       <use xlink:href="#SimSun-35"/>
       <use xlink:href="#SimSun-2e" x="50"/>
       <use xlink:href="#SimSun-30" x="100"/>
      </g>
     </g>
    </g>
    <g id="ytick_12">
     <g id="line2d_22">
      <g>
       <use xlink:href="#ma7b2ee46e1" x="115.2" y="147.744" style="stroke: #000000; stroke-width: 0.8"/>
      </g>
     </g>
     <g id="text_23">
      <!-- 5.5 -->
      <g transform="translate(79.7 154.535016) scale(0.19 -0.19)">
       <use xlink:href="#SimSun-35"/>
       <use xlink:href="#SimSun-2e" x="50"/>
       <use xlink:href="#SimSun-35" x="100"/>
      </g>
     </g>
    </g>
    <g id="ytick_13">
     <g id="line2d_23">
      <g>
       <use xlink:href="#ma7b2ee46e1" x="115.2" y="119.232" style="stroke: #000000; stroke-width: 0.8"/>
      </g>
     </g>
     <g id="text_24">
      <!-- 6.0 -->
      <g transform="translate(79.7 126.023016) scale(0.19 -0.19)">
       <use xlink:href="#SimSun-36"/>
       <use xlink:href="#SimSun-2e" x="50"/>
       <use xlink:href="#SimSun-30" x="100"/>
      </g>
     </g>
    </g>
    <g id="ytick_14">
     <g id="line2d_24">
      <g>
       <use xlink:href="#ma7b2ee46e1" x="115.2" y="90.72" style="stroke: #000000; stroke-width: 0.8"/>
      </g>
     </g>
     <g id="text_25">
      <!-- 6.5 -->
      <g transform="translate(79.7 97.511016) scale(0.19 -0.19)">
       <use xlink:href="#SimSun-36"/>
       <use xlink:href="#SimSun-2e" x="50"/>
       <use xlink:href="#SimSun-35" x="100"/>
      </g>
     </g>
    </g>
    <g id="ytick_15">
     <g id="line2d_25">
      <g>
       <use xlink:href="#ma7b2ee46e1" x="115.2" y="62.208" style="stroke: #000000; stroke-width: 0.8"/>
      </g>
     </g>
     <g id="text_26">
      <!-- 7.0 -->
      <g transform="translate(79.7 68.999016) scale(0.19 -0.19)">
       <use xlink:href="#SimSun-37"/>
       <use xlink:href="#SimSun-2e" x="50"/>
       <use xlink:href="#SimSun-30" x="100"/>
      </g>
     </g>
    </g>
    <g id="text_27">
     <!-- 吞吐量 $\mathrm{(Mops)}$ -->
     <g transform="translate(71.52 323.067) rotate(-90) scale(0.19 -0.19)">
      <defs>
       <path id="SimSun-541e" d="M 2200 1700 
L 2200 75 
L 4200 75 
L 4200 1700 
L 2200 1700 
z
M 1025 4675 
L 4550 4675 
L 4875 5000 
L 5350 4525 
L 3300 4525 
Q 3150 4025 2900 3375 
L 5075 3375 
L 5450 3750 
L 5975 3225 
L 3700 3225 
Q 3925 2925 4312 2587 
Q 4700 2250 5225 2037 
Q 5750 1825 6100 1800 
L 6100 1700 
Q 5700 1675 5575 1375 
Q 4600 1900 4137 2437 
Q 3675 2975 3575 3225 
L 2825 3225 
Q 2425 2575 1950 2075 
L 2200 1850 
L 4175 1850 
L 4325 2100 
L 4750 1775 
L 4550 1600 
L 4550 375 
Q 4550 -50 4575 -375 
L 4200 -500 
L 4200 -75 
L 2200 -75 
L 2200 -450 
L 1825 -575 
Q 1850 175 1850 625 
L 1850 2000 
Q 1175 1400 375 1075 
L 325 1150 
Q 1075 1575 1600 2100 
Q 2125 2625 2450 3225 
L 1225 3225 
Q 900 3225 625 3150 
L 400 3375 
L 2525 3375 
Q 2800 4025 2900 4525 
L 1850 4525 
Q 1525 4525 1250 4450 
L 1025 4675 
z
" transform="scale(0.015625)"/>
       <path id="SimSun-5410" d="M 3775 3000 
L 3775 3750 
Q 3775 4400 3750 5175 
L 4350 4900 
L 4125 4700 
L 4125 3000 
L 4925 3000 
L 5250 3325 
L 5725 2850 
L 4125 2850 
L 4125 75 
L 5225 75 
L 5575 425 
L 6075 -75 
L 2675 -75 
Q 2350 -75 2075 -150 
L 1850 75 
L 3775 75 
L 3775 2850 
L 3225 2850 
Q 2900 2850 2625 2775 
L 2400 3000 
L 3775 3000 
z
M 575 4250 
L 950 4025 
L 1875 4025 
L 2050 4275 
L 2450 3950 
L 2250 3800 
L 2250 1950 
Q 2250 1375 2275 950 
L 1900 775 
L 1900 1225 
L 950 1225 
L 950 600 
L 575 425 
Q 600 1075 600 2375 
Q 600 3675 575 4250 
z
M 950 3875 
L 950 1375 
L 1900 1375 
L 1900 3875 
L 950 3875 
z
" transform="scale(0.015625)"/>
       <path id="SimSun-91cf" d="M 1700 2400 
L 1700 1875 
L 3025 1875 
L 3025 2400 
L 1700 2400 
z
M 3350 2400 
L 3350 1875 
L 4625 1875 
L 4625 2400 
L 3350 2400 
z
M 1700 1725 
L 1700 1225 
L 3025 1225 
L 3025 1725 
L 1700 1725 
z
M 3350 1725 
L 3350 1225 
L 4625 1225 
L 4625 1725 
L 3350 1725 
z
M 4950 2325 
Q 4950 1350 4975 1025 
L 4625 875 
L 4625 1075 
L 3350 1075 
L 3350 525 
L 4700 525 
L 5050 825 
L 5450 375 
L 3350 375 
L 3350 -225 
L 5275 -225 
L 5650 125 
L 6075 -375 
L 1175 -375 
Q 850 -375 575 -450 
L 350 -225 
L 3025 -225 
L 3025 375 
L 1725 375 
Q 1400 375 1125 300 
L 900 525 
L 3025 525 
L 3025 1075 
L 1700 1075 
L 1700 925 
L 1350 800 
Q 1375 1300 1375 1787 
Q 1375 2275 1350 2750 
L 1700 2550 
L 4600 2550 
L 4750 2750 
L 5125 2475 
L 4950 2325 
z
M 1775 4800 
L 1775 4375 
L 4550 4375 
L 4550 4800 
L 1775 4800 
z
M 1775 4225 
L 1775 3775 
L 4550 3775 
L 4550 4225 
L 1775 4225 
z
M 4875 4750 
Q 4875 3825 4900 3525 
L 4550 3375 
L 4550 3625 
L 1775 3625 
L 1775 3400 
L 1425 3250 
Q 1450 3650 1450 4262 
Q 1450 4875 1425 5125 
L 1800 4950 
L 4500 4950 
L 4650 5175 
L 5050 4900 
L 4875 4750 
z
M 250 3125 
L 5375 3125 
L 5725 3450 
L 6150 2975 
L 950 2975 
Q 750 2975 475 2900 
L 250 3125 
z
" transform="scale(0.015625)"/>
       <path id="STIXGeneral-Regular-4d" d="M 5530 0 
L 3738 0 
L 3738 122 
Q 4115 147 4214 265 
Q 4314 384 4314 787 
L 4314 3661 
L 2682 0 
L 2592 0 
L 979 3514 
L 979 966 
Q 979 448 1088 294 
Q 1197 141 1574 122 
L 1574 0 
L 77 0 
L 77 122 
Q 358 141 480 205 
Q 602 269 650 432 
Q 698 595 698 966 
L 698 3514 
Q 698 3878 589 3984 
Q 480 4090 90 4115 
L 90 4237 
L 1357 4237 
L 2835 1024 
L 4250 4237 
L 5523 4237 
L 5523 4115 
Q 5178 4109 5072 3993 
Q 4966 3878 4966 3520 
L 4966 717 
Q 4966 378 5072 262 
Q 5178 147 5530 122 
L 5530 0 
z
" transform="scale(0.015625)"/>
       <path id="STIXGeneral-Regular-6f" d="M 3008 1478 
Q 3008 806 2608 371 
Q 2208 -64 1568 -64 
Q 979 -64 582 368 
Q 186 800 186 1459 
Q 186 2125 582 2534 
Q 979 2944 1626 2944 
Q 2221 2944 2614 2537 
Q 3008 2131 3008 1478 
z
M 2432 1306 
Q 2432 2035 2112 2445 
Q 1856 2765 1504 2765 
Q 1171 2765 966 2493 
Q 762 2221 762 1747 
Q 762 928 1101 435 
Q 1318 115 1677 115 
Q 2029 115 2230 432 
Q 2432 749 2432 1306 
z
" transform="scale(0.015625)"/>
       <path id="STIXGeneral-Regular-70" d="M 1018 2931 
L 1018 2438 
Q 1421 2944 1939 2944 
Q 2406 2944 2707 2560 
Q 3008 2176 3008 1581 
Q 3008 883 2621 409 
Q 2234 -64 1664 -64 
Q 1466 -64 1328 -6 
Q 1190 51 1018 211 
L 1018 -794 
Q 1018 -1094 1120 -1180 
Q 1222 -1267 1581 -1274 
L 1581 -1389 
L 32 -1389 
L 32 -1280 
Q 314 -1254 397 -1171 
Q 480 -1088 480 -838 
L 480 2157 
Q 480 2381 429 2451 
Q 378 2522 218 2522 
Q 115 2522 58 2515 
L 58 2618 
Q 506 2752 979 2944 
L 1018 2931 
z
M 1018 2138 
L 1018 563 
Q 1018 422 1238 281 
Q 1459 141 1683 141 
Q 2029 141 2243 467 
Q 2458 794 2458 1325 
Q 2458 1888 2243 2224 
Q 2029 2560 1670 2560 
Q 1446 2560 1232 2419 
Q 1018 2278 1018 2138 
z
" transform="scale(0.015625)"/>
      </defs>
      <use xlink:href="#SimSun-541e" transform="translate(0 0.140625)"/>
      <use xlink:href="#SimSun-5410" transform="translate(100 0.140625)"/>
      <use xlink:href="#SimSun-91cf" transform="translate(200 0.140625)"/>
      <use xlink:href="#SimSun-20" transform="translate(300 0.140625)"/>
      <use xlink:href="#STIXGeneral-Regular-28" transform="translate(350 0.140625)"/>
      <use xlink:href="#STIXGeneral-Regular-4d" transform="translate(383.299988 0.140625)"/>
      <use xlink:href="#STIXGeneral-Regular-6f" transform="translate(472.199982 0.140625)"/>
      <use xlink:href="#STIXGeneral-Regular-70" transform="translate(522.199966 0.140625)"/>
      <use xlink:href="#STIXGeneral-Regular-73" transform="translate(572.199951 0.140625)"/>
      <use xlink:href="#STIXGeneral-Regular-29" transform="translate(611.099945 0.140625)"/>
     </g>
    </g>
   </g>
   <g id="line2d_26">
    <path d="M 123.136 452.109948 
L 142.65856 362.67565 
L 151.15008 209.034216 
L 159.6416 207.536008 
L 168.3712 208.736665 
L 177.25952 212.700455 
L 186.14784 211.390784 
L 195.19488 205.671756 
L 204.16256 211.537399 
L 213.36832 207.755596 
L 222.57408 211.022923 
L 231.77984 211.603769 
L 241.14432 213.499401 
L 250.5088 220.870796 
L 259.95264 214.897139 
L 269.39648 217.834474 
L 278.6816 212.055023 
L 288.12544 216.319825 
L 297.64864 222.105537 
L 306.93376 213.824489 
L 316.29824 217.875924 
L 325.66272 223.075857 
L 335.0272 233.232334 
L 344.23296 234.906364 
L 353.43872 240.210942 
L 362.64448 242.57092 
L 371.77088 254.492649 
L 380.89728 264.485175 
L 389.94432 268.487963 
L 398.99136 281.168504 
L 407.95904 285.080322 
L 416.92672 295.805904 
L 425.81504 309.567095 
L 434.78272 313.304072 
L 443.59168 316.327284 
L 452.40064 323.901474 
L 461.2096 332.228319 
L 469.9392 338.553358 
L 478.6688 345.003981 
L 487.31904 351.838832 
L 495.96928 360.553668 
L 504.61952 362.957149 
L 513.26976 366.856382 
L 521.84064 372.026913 
L 530.41152 375.765903 
L 538.90304 380.091898 
L 547.39456 383.242514 
L 555.88608 386.515914 
L 564.3776 391.139077 
L 572.86912 393.953628 
L 581.28128 394.72867 
L 589.69344 353.288816 
L 598.1056 223.994257 
L 606.35904 226.310669 
L 614.69184 223.748587 
L 622.94528 222.822922 
L 631.11936 229.109025 
L 639.21408 224.688177 
L 647.3088 220.43113 
L 655.32416 218.84771 
L 663.33952 233.081157 
L 671.27552 233.527216 
L 679.21152 237.964145 
L 687.06816 233.008269 
L 694.9248 234.989317 
L 702.70208 228.755402 
L 710.47936 249.709532 
L 718.25664 279.399643 
L 726.03392 234.282693 
L 733.8112 233.589384 
L 741.50912 229.678729 
L 749.20704 228.74207 
L 756.98432 254.412484 
L 764.68224 330.956552 
" clip-path="url(#pecc0c5e33b)" style="fill: none; stroke: #d62728; stroke-width: 1.5; stroke-linecap: square"/>
   </g>
   <g id="line2d_27">
    <path d="M 123.136 452.643174 
L 141.70624 362.434781 
L 150.19776 209.632837 
L 158.68928 213.230652 
L 167.41888 216.88166 
L 176.22784 213.274185 
L 185.11616 217.541045 
L 194.1632 210.900367 
L 203.21024 224.552368 
L 212.33664 213.8482 
L 221.46304 220.342309 
L 230.74816 216.920202 
L 240.03328 221.17811 
L 249.3184 220.730073 
L 258.68288 219.958601 
L 268.04736 221.053433 
L 277.41184 223.145814 
L 286.85568 224.41737 
L 296.22016 224.42707 
L 305.58464 224.50371 
L 315.02848 229.124712 
L 324.3136 240.852131 
L 333.67808 234.72768 
L 343.04256 236.420506 
L 352.24832 233.672433 
L 361.53344 244.322749 
L 370.7392 247.186106 
L 379.94496 254.667324 
L 388.992 258.359155 
L 398.1184 266.952541 
L 407.16544 273.468177 
L 416.21248 281.013964 
L 425.18016 287.750705 
L 434.14784 294.621555 
L 443.03616 303.947511 
L 451.92448 317.9744 
L 460.73344 319.546917 
L 469.5424 325.165275 
L 478.35136 335.407201 
L 487.08096 340.482029 
L 495.7312 345.788683 
L 504.4608 350.330097 
L 513.11104 354.756129 
L 521.76128 360.675773 
L 530.41152 364.874929 
L 538.9824 369.547276 
L 547.55328 374.445849 
L 556.12416 378.766534 
L 564.61568 381.708551 
L 573.1072 384.678589 
L 581.59872 390.293839 
L 590.09024 391.23737 
L 598.5024 393.406141 
L 606.8352 375.829274 
L 615.24736 221.118942 
L 623.58016 222.754727 
L 631.8336 218.47085 
L 640.08704 223.121539 
L 648.26112 222.856366 
L 656.4352 220.02866 
L 664.52992 222.290443 
L 672.62464 220.129484 
L 680.64 220.914083 
L 688.576 217.5749 
L 696.59136 217.746948 
L 704.36864 215.703373 
L 712.22528 218.441751 
L 720.08192 216.741284 
L 727.93856 287.111295 
L 735.71584 262.836206 
L 743.49312 264.628944 
L 751.19104 262.26019 
L 758.96832 259.287814 
L 766.7456 275.364436 
" clip-path="url(#pecc0c5e33b)" style="fill: none; stroke: #ff7f0e; stroke-width: 1.5; stroke-linecap: square"/>
   </g>
   <g id="line2d_28">
    <path d="M 123.136 453.64776 
L 144.08704 377.264807 
L 152.4992 226.247418 
L 161.07008 233.157267 
L 169.72032 231.996641 
L 178.44992 237.292306 
L 187.33824 247.639116 
L 196.22656 235.838798 
L 205.2736 237.437791 
L 214.32064 228.931173 
L 223.5264 230.914884 
L 232.73216 234.518099 
L 241.93792 240.101051 
L 251.22304 242.854729 
L 260.50816 241.997014 
L 269.87264 240.218104 
L 279.23712 243.053908 
L 288.52224 247.806448 
L 297.96608 239.283082 
L 307.33056 239.763942 
L 316.69504 243.478811 
L 326.13888 251.700537 
L 335.424 243.669146 
L 344.78848 244.435155 
L 354.15296 256.035461 
L 363.43808 255.815132 
L 372.80256 247.664082 
L 382.00832 249.868396 
L 391.29344 259.025024 
L 400.4992 271.579765 
L 409.6256 263.061862 
L 418.752 273.724899 
L 427.8784 279.571576 
L 436.92544 298.756382 
L 445.97248 299.464581 
L 455.01952 299.413173 
L 463.9872 303.446082 
L 472.87552 307.896776 
L 481.76384 314.268376 
L 490.65216 319.482901 
L 499.46112 330.66058 
L 508.27008 333.257739 
L 517.07904 339.015161 
L 525.80864 344.226373 
L 534.53824 349.872884 
L 543.26784 355.410262 
L 551.83872 359.626697 
L 560.48896 368.748741 
L 569.1392 368.481059 
L 577.71008 372.590316 
L 586.28096 379.2053 
L 594.85184 379.964004 
L 603.34336 385.734668 
L 611.83488 385.920788 
L 620.3264 388.815418 
L 628.81792 392.427871 
L 637.23008 245.682532 
L 645.56288 237.001266 
L 653.97504 232.346198 
L 662.22848 230.166569 
L 670.48192 235.56356 
L 678.73536 232.564697 
L 686.83008 234.471317 
L 695.00416 229.967117 
L 703.01952 231.276582 
L 711.11424 231.434675 
L 719.1296 228.350589 
L 727.0656 276.90592 
L 735.0016 287.746428 
L 742.9376 277.041866 
L 750.8736 276.969901 
L 758.73024 274.258256 
L 766.58688 285.002399 
L 774.36416 306.987951 
L 782.2208 328.624128 
" clip-path="url(#pecc0c5e33b)" style="fill: none; stroke: #9467bd; stroke-width: 1.5; stroke-linecap: square"/>
   </g>
   <g id="line2d_29">
    <path d="M 123.136 456.703921 
L 144.72192 397.277671 
L 153.13408 263.612041 
L 161.6256 270.296668 
L 170.19648 266.516746 
L 178.84672 270.009335 
L 187.57632 274.084561 
L 196.46464 272.393423 
L 205.43232 273.709429 
L 214.4 271.698067 
L 223.36768 270.791898 
L 232.49408 277.942508 
L 241.54112 272.349634 
L 250.74688 275.239006 
L 259.95264 273.807863 
L 269.1584 271.654928 
L 278.44352 279.196957 
L 287.72864 275.513902 
L 297.09312 280.378648 
L 306.4576 273.046604 
L 315.82208 274.989982 
L 325.26592 274.558738 
L 334.55104 275.31539 
L 343.99488 283.076425 
L 353.35936 290.809216 
L 362.72384 280.282026 
L 372.16768 285.01158 
L 381.53216 282.624099 
L 390.89664 275.41545 
L 400.26112 283.597099 
L 409.54624 278.042528 
L 418.83136 273.277466 
L 428.11648 278.92737 
L 437.4016 274.42037 
L 446.60736 282.725191 
L 455.81312 291.623148 
L 465.01888 285.914013 
L 474.14528 294.440316 
L 483.19232 300.352364 
L 492.23936 300.110873 
L 501.2864 305.34635 
L 510.33344 318.968345 
L 519.30112 311.387535 
L 528.2688 322.594958 
L 537.15712 320.732035 
L 546.04544 332.09856 
L 554.93376 331.703276 
L 563.82208 341.388597 
L 572.63104 340.431284 
L 581.36064 348.759639 
L 590.1696 351.408227 
L 598.8992 358.649351 
L 607.6288 362.688583 
L 616.3584 362.555387 
L 624.92928 369.85382 
L 633.57952 373.227651 
L 642.22976 376.167472 
L 650.80064 379.44772 
L 659.37152 383.190394 
L 667.9424 382.846773 
L 676.43392 388.371286 
L 685.0048 379.106757 
L 693.49632 260.121311 
L 701.90848 268.862862 
L 710.24128 268.341976 
L 718.65344 263.630973 
L 726.90688 258.926898 
L 735.23968 262.47476 
L 743.41376 259.289291 
L 751.6672 254.372967 
L 759.84128 257.436193 
L 767.936 257.295937 
L 776.03072 255.029227 
L 784.12544 307.728687 
L 792.1408 302.266529 
L 800.15616 298.901634 
L 808.09216 299.583641 
L 816.02816 303.769607 
L 823.8848 299.728955 
" clip-path="url(#pecc0c5e33b)" style="fill: none; stroke: #1f77b4; stroke-width: 1.5; stroke-linecap: square"/>
   </g>
   <g id="line2d_30">
    <path d="M 123.136 453.603412 
L 143.3728 401.602742 
L 151.7056 313.295957 
L 160.19712 304.59008 
L 168.68864 305.362151 
L 177.33888 305.93575 
L 185.90976 304.682556 
L 194.63936 309.179406 
L 203.44832 309.507961 
L 212.33664 309.909564 
L 221.22496 312.882738 
L 230.19264 309.024192 
L 239.16032 308.655367 
L 248.20736 310.986531 
L 257.33376 309.220697 
L 266.46016 319.156941 
L 275.58656 313.86663 
L 284.79232 308.01976 
L 293.91872 314.086715 
L 303.12448 312.799706 
L 312.4096 300.026569 
L 321.69472 302.102066 
L 330.97984 302.730904 
L 340.34432 291.205093 
L 349.7088 293.937997 
L 359.07328 293.783165 
L 368.43776 292.461104 
L 377.80224 296.923488 
L 387.16672 291.630264 
L 396.5312 293.369975 
L 405.89568 294.006557 
L 415.33952 304.230316 
L 424.704 293.189802 
L 434.06848 293.292725 
L 443.43296 294.010788 
L 452.8768 295.138449 
L 462.24128 299.336824 
L 471.5264 301.644876 
L 480.89088 304.0817 
L 490.176 295.71633 
L 499.54048 298.643743 
L 508.74624 302.827885 
L 518.03136 301.125827 
L 527.23712 300.792099 
L 536.44288 301.216478 
L 545.64864 305.351693 
L 554.77504 306.608581 
L 563.9808 313.126601 
L 573.1072 311.858131 
L 582.2336 313.209172 
L 591.28064 315.760745 
L 600.32768 321.953016 
L 609.37472 322.651417 
L 618.3424 325.510994 
L 627.31008 330.942313 
L 636.27776 335.138607 
L 645.16608 340.938102 
L 654.13376 337.400948 
L 663.02208 340.480969 
L 671.75168 352.622365 
L 680.64 347.808353 
L 689.44896 351.119469 
L 698.17856 356.360014 
L 706.98752 357.341568 
L 715.71712 360.222284 
L 724.36736 363.640884 
L 733.09696 366.944324 
L 741.7472 369.635777 
L 750.39744 373.993888 
L 758.96832 376.643417 
L 767.5392 378.43023 
L 776.03072 381.441217 
L 784.6016 384.443713 
L 793.17248 361.808036 
L 801.664 327.359684 
L 810.07616 327.301388 
L 818.56768 326.389192 
L 826.97984 383.528289 
" clip-path="url(#pecc0c5e33b)" style="fill: none; stroke: #2ca02c; stroke-width: 1.5; stroke-linecap: square"/>
   </g>
   <g id="patch_3">
    <path d="M 115.2 461.376 
L 115.2 62.208 
" style="fill: none; stroke: #000000; stroke-width: 0.8; stroke-linejoin: miter; stroke-linecap: square"/>
   </g>
   <g id="patch_4">
    <path d="M 829.44 461.376 
L 829.44 62.208 
" style="fill: none; stroke: #000000; stroke-width: 0.8; stroke-linejoin: miter; stroke-linecap: square"/>
   </g>
   <g id="patch_5">
    <path d="M 115.2 461.376 
L 829.44 461.376 
" style="fill: none; stroke: #000000; stroke-width: 0.8; stroke-linejoin: miter; stroke-linecap: square"/>
   </g>
   <g id="patch_6">
    <path d="M 115.2 62.208 
L 829.44 62.208 
" style="fill: none; stroke: #000000; stroke-width: 0.8; stroke-linejoin: miter; stroke-linecap: square"/>
   </g>
   <g id="text_28">
    <!-- $\mathrm{proto}$的吞吐量在不同$\mathrm{KV\ size}$情况下随时间的变化趋势 -->
    <g transform="translate(206.016 56.208) scale(0.228 -0.228)">
     <defs>
      <path id="STIXGeneral-Regular-72" d="M 1024 2931 
L 1024 2342 
Q 1267 2688 1430 2816 
Q 1594 2944 1792 2944 
Q 1958 2944 2051 2854 
Q 2144 2765 2144 2605 
Q 2144 2470 2077 2393 
Q 2010 2317 1894 2317 
Q 1773 2317 1638 2445 
Q 1536 2541 1472 2541 
Q 1338 2541 1181 2355 
Q 1024 2170 1024 2016 
L 1024 576 
Q 1024 301 1133 205 
Q 1242 109 1568 96 
L 1568 0 
L 32 0 
L 32 96 
Q 339 154 412 224 
Q 486 294 486 538 
L 486 2138 
Q 486 2349 438 2435 
Q 390 2522 269 2522 
Q 166 2522 45 2496 
L 45 2598 
Q 448 2726 992 2944 
L 1024 2931 
z
" transform="scale(0.015625)"/>
      <path id="STIXGeneral-Regular-74" d="M 1702 493 
L 1786 422 
Q 1478 -64 1011 -64 
Q 448 -64 448 749 
L 448 2675 
L 109 2675 
Q 83 2694 83 2720 
Q 83 2771 192 2842 
Q 435 2982 813 3526 
Q 826 3546 874 3606 
Q 922 3667 941 3706 
Q 986 3706 986 3622 
L 986 2880 
L 1632 2880 
L 1632 2675 
L 986 2675 
L 986 845 
Q 986 538 1062 403 
Q 1139 269 1318 269 
Q 1510 269 1702 493 
z
" transform="scale(0.015625)"/>
      <path id="SimSun-7684" d="M 1125 3775 
L 1125 2175 
L 2425 2175 
L 2425 3775 
L 1125 3775 
z
M 1125 2025 
L 1125 275 
L 2425 275 
L 2425 2025 
L 1125 2025 
z
M 2750 3625 
Q 2750 700 2775 -200 
L 2425 -400 
L 2425 125 
L 1125 125 
L 1125 -300 
L 775 -500 
Q 800 675 800 1837 
Q 800 3000 775 4150 
L 1150 3925 
L 1400 3925 
Q 1650 4775 1675 5225 
L 2225 4925 
Q 1975 4800 1550 3925 
L 2375 3925 
L 2625 4175 
L 3000 3800 
L 2750 3625 
z
M 3975 5200 
L 4525 4875 
Q 4325 4750 3900 3850 
L 5250 3850 
L 5525 4125 
L 5900 3750 
L 5675 3575 
Q 5625 650 5537 262 
Q 5450 -125 5287 -275 
Q 5125 -425 4775 -550 
Q 4650 -150 3950 50 
L 3950 175 
Q 4575 50 4850 50 
Q 5125 50 5187 475 
Q 5250 900 5300 3700 
L 3850 3700 
Q 3400 2975 2900 2475 
L 2825 2525 
Q 3350 3325 3600 3950 
Q 3850 4575 3975 5200 
z
M 3525 2750 
Q 4125 2300 4225 2087 
Q 4325 1875 4325 1775 
Q 4325 1600 4225 1475 
Q 4125 1350 4075 1350 
Q 3975 1350 3925 1700 
Q 3825 2200 3475 2675 
L 3525 2750 
z
" transform="scale(0.015625)"/>
      <path id="SimSun-5728" d="M 1325 2400 
Q 1325 2475 1300 2775 
L 1550 2675 
Q 1975 3200 2375 3975 
L 1275 3975 
Q 950 3975 675 3900 
L 450 4125 
L 2425 4125 
Q 2700 4800 2775 5250 
L 3350 4950 
L 3100 4800 
Q 3025 4575 2800 4125 
L 5000 4125 
L 5375 4500 
L 5900 3975 
L 2750 3975 
Q 2225 2950 1700 2400 
L 1700 -375 
L 1325 -575 
Q 1350 -175 1350 150 
L 1350 2050 
Q 775 1525 275 1225 
L 225 1300 
Q 975 1950 1325 2400 
z
M 3600 3150 
Q 3600 3325 3575 3775 
L 4150 3525 
L 3950 3350 
L 3950 2325 
L 4900 2325 
L 5225 2650 
L 5700 2175 
L 3950 2175 
L 3950 175 
L 5200 175 
L 5550 525 
L 6050 25 
L 2650 25 
Q 2325 25 2050 -50 
L 1825 175 
L 3600 175 
L 3600 2175 
L 2975 2175 
Q 2650 2175 2375 2100 
L 2150 2325 
L 3600 2325 
L 3600 3150 
z
" transform="scale(0.015625)"/>
      <path id="SimSun-4e0d" d="M 3375 3175 
L 3375 775 
Q 3375 25 3400 -375 
L 2975 -550 
Q 3000 400 3000 1100 
L 3000 3300 
Q 2000 1775 400 850 
L 350 950 
Q 1175 1550 1937 2462 
Q 2700 3375 3175 4600 
L 1225 4600 
Q 900 4600 625 4525 
L 400 4750 
L 5150 4750 
L 5525 5125 
L 6050 4600 
L 3675 4600 
Q 3450 4175 3175 3600 
L 3600 3350 
L 3375 3175 
z
M 3900 3100 
L 3975 3175 
Q 5575 2125 5737 1875 
Q 5900 1625 5900 1475 
Q 5900 1375 5825 1237 
Q 5750 1100 5700 1100 
Q 5600 1100 5400 1500 
Q 5100 2025 3900 3100 
z
" transform="scale(0.015625)"/>
      <path id="SimSun-540c" d="M 1650 3725 
L 4075 3725 
L 4400 4050 
L 4875 3575 
L 2375 3575 
Q 2100 3575 1875 3500 
L 1650 3725 
z
M 2475 2600 
L 2475 1400 
L 4000 1400 
L 4000 2600 
L 2475 2600 
z
M 2125 2950 
L 2475 2750 
L 3975 2750 
L 4150 3000 
L 4525 2700 
L 4325 2525 
L 4325 1600 
Q 4325 1275 4350 950 
L 4000 825 
L 4000 1250 
L 2475 1250 
L 2475 875 
L 2125 750 
Q 2150 1175 2150 1787 
Q 2150 2400 2125 2950 
z
M 4175 125 
Q 4700 50 4987 37 
Q 5275 25 5275 400 
L 5275 4650 
L 1275 4650 
L 1275 -425 
L 875 -575 
Q 925 250 925 750 
L 925 3900 
Q 925 4450 900 5050 
L 1275 4800 
L 5250 4800 
L 5425 5050 
L 5825 4725 
L 5625 4575 
L 5625 250 
Q 5650 -350 5025 -575 
Q 5025 -250 4175 0 
L 4175 125 
z
" transform="scale(0.015625)"/>
      <path id="STIXGeneral-Regular-4b" d="M 4627 0 
L 2688 0 
L 2688 122 
L 2861 128 
Q 3130 134 3130 282 
Q 3130 397 2922 643 
Q 2714 890 2253 1370 
L 1613 2029 
L 1446 1894 
L 1446 710 
Q 1446 352 1548 253 
Q 1651 154 2016 122 
L 2016 0 
L 211 0 
L 211 122 
Q 589 141 691 262 
Q 794 384 794 800 
L 794 3514 
Q 794 3872 691 3981 
Q 589 4090 218 4115 
L 218 4237 
L 2022 4237 
L 2022 4115 
Q 1632 4090 1539 3987 
Q 1446 3885 1446 3507 
L 1446 2227 
L 2586 3277 
Q 2861 3533 2973 3667 
Q 3085 3802 3085 3910 
Q 3085 4013 3030 4057 
Q 2976 4102 2822 4109 
L 2662 4115 
L 2662 4237 
L 4320 4237 
L 4320 4115 
Q 3994 4090 3824 4003 
Q 3654 3917 3322 3597 
L 2131 2458 
L 3629 819 
Q 4026 384 4214 253 
Q 4403 122 4627 122 
L 4627 0 
z
" transform="scale(0.015625)"/>
      <path id="STIXGeneral-Regular-56" d="M 4461 4237 
L 4461 4115 
Q 4262 4109 4134 3990 
Q 4006 3872 3872 3533 
L 2451 -70 
L 2355 -70 
L 794 3411 
Q 589 3866 467 3987 
Q 346 4109 102 4115 
L 102 4237 
L 1798 4237 
L 1798 4115 
L 1619 4102 
Q 1331 4083 1331 3904 
Q 1331 3776 1581 3219 
L 2554 1030 
L 3494 3392 
Q 3616 3699 3616 3853 
Q 3616 3898 3606 3933 
Q 3597 3968 3584 3993 
Q 3571 4019 3536 4038 
Q 3501 4058 3481 4067 
Q 3462 4077 3411 4086 
Q 3360 4096 3337 4099 
Q 3315 4102 3248 4108 
Q 3181 4115 3155 4115 
L 3155 4237 
L 4461 4237 
z
" transform="scale(0.015625)"/>
      <path id="STIXGeneral-Regular-69" d="M 1152 4045 
Q 1152 3904 1056 3811 
Q 960 3718 819 3718 
Q 685 3718 592 3811 
Q 499 3904 499 4045 
Q 499 4179 595 4275 
Q 691 4371 826 4371 
Q 966 4371 1059 4275 
Q 1152 4179 1152 4045 
z
M 1619 0 
L 102 0 
L 102 96 
Q 435 115 521 211 
Q 608 307 608 666 
L 608 2118 
Q 608 2342 563 2432 
Q 518 2522 397 2522 
Q 243 2522 128 2490 
L 128 2592 
L 1120 2944 
L 1146 2918 
L 1146 672 
Q 1146 314 1226 218 
Q 1306 122 1619 96 
L 1619 0 
z
" transform="scale(0.015625)"/>
      <path id="STIXGeneral-Regular-7a" d="M 2675 870 
L 2579 0 
L 173 0 
L 173 96 
L 1875 2688 
L 1011 2688 
Q 710 2688 604 2582 
Q 499 2477 454 2125 
L 339 2125 
L 365 2880 
L 2579 2880 
L 2579 2784 
L 858 192 
L 1709 192 
Q 2246 192 2387 365 
Q 2477 474 2560 896 
L 2675 870 
z
" transform="scale(0.015625)"/>
      <path id="STIXGeneral-Regular-65" d="M 2611 1050 
L 2714 1005 
Q 2330 -64 1376 -64 
Q 813 -64 486 329 
Q 160 723 160 1389 
Q 160 2074 525 2509 
Q 890 2944 1485 2944 
Q 2061 2944 2374 2502 
Q 2560 2246 2592 1773 
L 621 1773 
Q 646 1370 700 1158 
Q 755 947 915 730 
Q 1184 378 1626 378 
Q 1939 378 2153 531 
Q 2368 685 2611 1050 
z
M 634 1978 
L 1939 1978 
Q 1882 2381 1750 2547 
Q 1619 2714 1312 2714 
Q 1043 2714 864 2525 
Q 685 2336 634 1978 
z
" transform="scale(0.015625)"/>
      <path id="SimSun-60c5" d="M 1175 4225 
Q 1175 4725 1150 5225 
L 1750 4950 
L 1525 4775 
L 1525 4100 
Q 2050 3900 2150 3762 
Q 2250 3625 2237 3500 
Q 2225 3375 2162 3300 
Q 2100 3225 2050 3225 
Q 1975 3225 1900 3425 
Q 1775 3700 1525 3975 
L 1525 400 
Q 1525 0 1550 -450 
L 1150 -625 
Q 1175 25 1175 550 
L 1175 4225 
z
M 800 3825 
Q 875 3100 825 2887 
Q 775 2675 687 2625 
Q 600 2575 500 2575 
Q 400 2575 337 2612 
Q 275 2650 275 2675 
Q 275 2775 400 2925 
Q 600 3175 700 3825 
L 800 3825 
z
M 4325 4950 
L 4100 4800 
L 4100 4350 
L 5075 4350 
L 5375 4650 
L 5825 4200 
L 4100 4200 
L 4100 3600 
L 4850 3600 
L 5125 3875 
L 5550 3450 
L 4100 3450 
L 4100 2825 
L 5350 2825 
L 5650 3125 
L 6100 2675 
L 2750 2675 
Q 2425 2675 2150 2600 
L 1925 2825 
L 3750 2825 
L 3750 3450 
L 3375 3450 
Q 3050 3450 2775 3375 
L 2550 3600 
L 3750 3600 
L 3750 4200 
L 3025 4200 
Q 2700 4200 2425 4125 
L 2200 4350 
L 3750 4350 
Q 3750 4775 3725 5250 
L 4325 4950 
z
M 2975 2050 
L 2975 1550 
L 4925 1550 
L 4925 2050 
L 2975 2050 
z
M 2975 1400 
L 2975 825 
L 4925 825 
L 4925 1400 
L 2975 1400 
z
M 2625 2425 
L 2975 2200 
L 4875 2200 
L 5050 2450 
L 5450 2150 
L 5275 2000 
L 5275 50 
Q 5300 -475 4750 -625 
Q 4775 -375 4125 -175 
L 4125 -50 
Q 4500 -125 4725 -112 
Q 4950 -100 4925 175 
L 4925 675 
L 2975 675 
L 2975 -450 
L 2625 -625 
Q 2650 100 2650 1000 
Q 2650 1900 2625 2425 
z
" transform="scale(0.015625)"/>
      <path id="SimSun-51b5" d="M 600 4800 
Q 1425 4325 1412 4062 
Q 1400 3800 1300 3712 
Q 1200 3625 1150 3625 
Q 1050 3625 1000 3875 
Q 900 4225 550 4725 
L 600 4800 
z
M 325 1850 
Q 575 1800 675 1787 
Q 775 1775 925 1825 
Q 1075 1875 2025 4250 
L 2125 4200 
Q 1375 2075 1287 1762 
Q 1200 1450 1175 1087 
Q 1150 725 1150 375 
Q 1125 25 962 75 
Q 800 125 712 225 
Q 625 325 625 450 
Q 625 600 675 700 
Q 775 950 800 1250 
Q 825 1550 300 1750 
L 325 1850 
z
M 2725 4500 
L 2725 2700 
L 4850 2700 
L 4850 4500 
L 2725 4500 
z
M 5175 3075 
Q 5175 2750 5200 2375 
L 4850 2225 
L 4850 2550 
L 4350 2550 
L 4350 400 
Q 4300 -50 4650 -75 
L 5375 -75 
Q 5575 -25 5600 275 
Q 5625 575 5650 1125 
L 5775 1125 
Q 5775 675 5825 362 
Q 5875 50 6125 0 
Q 5975 -375 5475 -375 
L 4500 -375 
Q 4000 -375 4025 225 
L 4025 2550 
L 3525 2550 
Q 3475 800 2862 237 
Q 2250 -325 1225 -625 
L 1200 -525 
Q 2050 -175 2587 362 
Q 3125 900 3175 2550 
L 2725 2550 
L 2725 2275 
L 2375 2125 
Q 2400 2700 2400 3000 
L 2400 4000 
Q 2400 4325 2375 4850 
L 2725 4650 
L 4825 4650 
L 5025 4875 
L 5375 4550 
L 5175 4400 
L 5175 3075 
z
" transform="scale(0.015625)"/>
      <path id="SimSun-4e0b" d="M 450 4575 
L 5075 4575 
L 5450 4950 
L 5975 4425 
L 3250 4425 
L 3250 3125 
Q 4750 2675 4987 2412 
Q 5225 2150 5225 1950 
Q 5225 1875 5162 1737 
Q 5100 1600 5050 1600 
Q 4950 1600 4700 1925 
Q 4350 2400 3250 3000 
L 3250 450 
Q 3250 -75 3275 -425 
L 2850 -600 
Q 2875 325 2875 675 
L 2875 4425 
L 1275 4425 
Q 950 4425 675 4350 
L 450 4575 
z
" transform="scale(0.015625)"/>
      <path id="SimSun-968f" d="M 2175 4225 
L 2250 4275 
Q 2800 3825 2850 3625 
Q 2900 3425 2775 3300 
Q 2650 3175 2600 3175 
Q 2500 3175 2475 3425 
Q 2425 3800 2175 4225 
z
M 6050 0 
L 6050 -100 
Q 5650 -175 5625 -475 
Q 4975 -450 4487 -425 
Q 4000 -400 3650 -262 
Q 3300 -125 3050 150 
Q 2875 300 2750 300 
Q 2650 300 2487 162 
Q 2325 25 2125 -375 
L 1750 -100 
Q 2100 175 2575 450 
L 2575 2300 
Q 2525 2300 2250 2225 
L 2025 2450 
L 2550 2450 
L 2700 2650 
L 3075 2375 
L 2875 2225 
L 2875 475 
Q 3325 75 3762 0 
Q 4200 -75 4725 -62 
Q 5250 -50 6050 0 
z
M 600 4900 
L 950 4675 
L 1700 4675 
L 1900 4900 
L 2300 4625 
L 2075 4450 
L 1475 3000 
Q 1650 2775 1900 2475 
Q 2125 2175 2162 1975 
Q 2200 1775 2200 1650 
Q 2200 1400 2075 1150 
Q 1950 900 1400 800 
Q 1400 1075 950 1250 
L 950 -475 
L 600 -650 
Q 625 0 625 2175 
Q 625 4350 600 4900 
z
M 1300 3000 
L 1725 4525 
L 950 4525 
L 950 1350 
Q 1275 1275 1425 1275 
Q 1600 1275 1725 1350 
Q 1850 1425 1850 1675 
Q 1850 1825 1812 2100 
Q 1775 2375 1300 3000 
z
M 3900 3250 
L 3900 2600 
L 5150 2600 
L 5150 3250 
L 3900 3250 
z
M 3575 250 
Q 3600 725 3600 3200 
Q 3350 2875 3000 2625 
L 2950 2675 
Q 3525 3325 3850 4175 
L 3600 4175 
Q 3275 4175 3000 4100 
L 2775 4325 
L 3900 4325 
Q 4100 4925 4100 5150 
L 4600 4900 
Q 4425 4800 4225 4325 
L 5325 4325 
L 5625 4625 
L 6025 4175 
L 4175 4175 
Q 4025 3825 3825 3475 
L 3925 3400 
L 5100 3400 
L 5250 3625 
L 5650 3350 
L 5475 3200 
L 5475 875 
Q 5525 425 5025 275 
Q 5025 550 4525 650 
L 4525 750 
Q 4950 725 5050 725 
Q 5150 725 5150 900 
L 5150 1650 
L 3900 1650 
L 3900 400 
L 3575 250 
z
M 3900 2450 
L 3900 1800 
L 5150 1800 
L 5150 2450 
L 3900 2450 
z
" transform="scale(0.015625)"/>
      <path id="SimSun-53d8" d="M 2750 4225 
L 2750 2225 
L 3650 2225 
L 3650 4225 
L 2750 4225 
z
M 375 4375 
L 3100 4375 
Q 3050 4750 2650 5200 
L 2700 5275 
Q 3150 5075 3325 4925 
Q 3500 4775 3500 4700 
Q 3500 4550 3300 4375 
L 5125 4375 
L 5525 4775 
L 6075 4225 
L 4000 4225 
L 4000 2225 
L 4425 2225 
L 4675 2500 
L 5100 2100 
L 4825 1975 
Q 4300 1325 3525 650 
Q 4500 -50 6125 -175 
L 6125 -275 
Q 5750 -325 5625 -575 
Q 4175 -250 3300 450 
Q 2150 -300 350 -600 
L 325 -500 
Q 2050 -100 3075 675 
Q 2525 1250 2100 2075 
L 1650 2075 
L 1375 2025 
L 1175 2225 
L 2400 2225 
L 2400 4225 
L 1200 4225 
Q 875 4225 600 4150 
L 375 4375 
z
M 2275 2075 
Q 2725 1350 3300 850 
Q 3800 1300 4425 2075 
L 2275 2075 
z
M 1675 3850 
L 2125 3450 
L 1875 3350 
Q 1150 2575 325 1950 
L 250 2025 
Q 700 2425 1087 2937 
Q 1475 3450 1675 3850 
z
M 4350 3700 
Q 5675 3050 5812 2875 
Q 5950 2700 5950 2575 
Q 5950 2475 5900 2375 
Q 5850 2275 5800 2275 
Q 5700 2275 5500 2550 
Q 5200 2950 4275 3625 
L 4350 3700 
z
" transform="scale(0.015625)"/>
      <path id="SimSun-5316" d="M 1375 -600 
Q 1400 200 1400 925 
L 1400 3125 
Q 850 2300 350 1775 
L 275 1850 
Q 825 2625 1300 3650 
Q 1775 4675 1900 5200 
L 2450 4875 
L 2200 4725 
Q 1875 4000 1600 3475 
L 1950 3275 
L 1750 3075 
L 1750 350 
Q 1750 75 1775 -400 
L 1375 -600 
z
M 3450 2125 
L 3450 3925 
Q 3450 4475 3425 5200 
L 4000 4925 
L 3800 4725 
L 3800 2400 
Q 4150 2725 4562 3225 
Q 4975 3725 5150 4025 
L 5600 3600 
L 5325 3525 
Q 4600 2700 3800 2000 
L 3800 425 
Q 3800 0 4225 0 
L 5300 0 
Q 5500 0 5550 325 
Q 5600 650 5600 1325 
L 5725 1325 
Q 5775 650 5850 425 
Q 5925 200 6125 125 
Q 5900 -325 5400 -325 
L 4075 -325 
Q 3450 -325 3450 250 
L 3450 1775 
Q 2800 1275 1950 925 
L 1925 1025 
Q 2800 1525 3450 2125 
z
" transform="scale(0.015625)"/>
      <path id="SimSun-8d8b" d="M 3900 5225 
L 4425 4900 
L 4225 4825 
Q 4000 4475 3800 4150 
L 4750 4150 
L 4975 4425 
L 5400 4025 
Q 5100 4000 4475 3075 
L 5350 3075 
L 5500 3325 
L 5900 3050 
L 5725 2875 
Q 5725 1050 5750 525 
L 5400 375 
L 5400 800 
L 3725 800 
Q 3525 800 3250 725 
L 3025 950 
L 5400 950 
L 5400 1900 
L 4050 1900 
Q 3850 1900 3575 1825 
L 3350 2050 
L 5400 2050 
L 5400 2925 
L 3900 2925 
Q 3700 2925 3425 2850 
L 3200 3075 
L 4350 3075 
L 4775 4000 
L 3725 4000 
Q 3450 3625 3000 3200 
L 2950 3250 
Q 3650 4250 3900 5225 
z
M 300 -550 
L 225 -500 
Q 675 275 787 1112 
Q 900 1950 850 2425 
L 1400 2150 
Q 1250 2075 1212 1812 
Q 1175 1550 1125 1075 
Q 1500 750 1725 625 
L 1725 2825 
L 950 2825 
Q 750 2825 475 2750 
L 250 2975 
L 1600 2975 
L 1600 4025 
L 1225 4025 
Q 1025 4025 750 3950 
L 525 4175 
L 1600 4175 
Q 1600 4675 1575 5225 
L 2125 4975 
L 1925 4800 
L 1925 4175 
L 2400 4175 
L 2700 4475 
L 3100 4025 
L 1925 4025 
L 1925 2975 
L 2475 2975 
L 2800 3275 
L 3200 2825 
L 1750 2825 
L 2250 2600 
L 2050 2400 
L 2050 1800 
L 2625 1800 
L 2925 2100 
L 3300 1650 
L 2050 1650 
L 2050 425 
Q 2925 25 3737 0 
Q 4550 -25 4925 -25 
Q 5625 -25 6150 25 
L 6150 -50 
Q 5700 -250 5700 -475 
Q 4950 -500 4012 -412 
Q 3075 -325 2325 -12 
Q 1575 300 1100 900 
Q 775 -25 300 -550 
z
" transform="scale(0.015625)"/>
      <path id="SimSun-52bf" d="M 1650 4175 
Q 1650 4775 1625 5200 
L 2150 4950 
L 1975 4800 
L 1975 4175 
L 2200 4175 
L 2475 4450 
L 2900 4025 
L 1975 4025 
L 1975 3425 
Q 2400 3525 2800 3625 
L 2825 3525 
Q 2400 3375 1975 3225 
L 1975 2150 
Q 2000 1800 1475 1575 
Q 1450 1850 800 2025 
L 800 2150 
Q 1225 2100 1437 2087 
Q 1650 2075 1650 2325 
L 1650 3100 
Q 700 2750 700 2650 
L 400 3100 
Q 575 3100 1650 3350 
L 1650 4025 
L 1300 4025 
Q 975 4025 700 3950 
L 475 4175 
L 1650 4175 
z
M 3650 4175 
L 3650 4525 
Q 3650 4875 3625 5225 
L 4175 4975 
L 3975 4800 
L 3975 4200 
L 4700 4250 
L 4850 4475 
L 5200 4200 
L 5025 4050 
Q 5000 3900 5000 3575 
Q 5000 3225 5050 2812 
Q 5100 2400 5425 2175 
Q 5600 2650 5700 3050 
L 5800 3025 
Q 5725 2525 5725 2250 
Q 5725 1975 5825 1775 
Q 5900 1650 5775 1650 
Q 5725 1650 5475 1750 
Q 5225 1850 5012 2137 
Q 4800 2425 4737 2750 
Q 4675 3075 4675 3475 
Q 4675 3850 4700 4100 
L 3975 4050 
Q 3925 3450 3750 3050 
Q 4100 2900 4262 2787 
Q 4425 2675 4387 2475 
Q 4350 2275 4275 2275 
Q 4225 2275 4125 2400 
Q 3925 2625 3625 2825 
Q 3225 2225 2100 1800 
L 2050 1875 
Q 3075 2400 3375 2975 
Q 3225 3100 2850 3300 
L 2900 3375 
Q 3225 3275 3475 3175 
Q 3600 3500 3650 4025 
L 3300 4000 
L 3125 3925 
L 2875 4125 
L 3650 4175 
z
M 2600 1425 
Q 2675 1700 2700 2025 
L 3175 1775 
L 3000 1650 
L 2950 1425 
L 4725 1425 
L 4875 1675 
L 5325 1375 
L 5125 1225 
Q 5050 400 4987 112 
Q 4925 -175 4750 -350 
Q 4575 -525 4225 -600 
Q 4250 -350 3650 -50 
L 3675 50 
Q 4225 -100 4412 -87 
Q 4600 -75 4675 312 
Q 4750 700 4775 1275 
L 2925 1275 
Q 2800 775 2575 450 
Q 2350 125 1875 -162 
Q 1400 -450 450 -650 
L 400 -550 
Q 1500 -225 1950 200 
Q 2400 625 2575 1275 
L 1450 1275 
Q 1125 1275 850 1200 
L 625 1425 
L 2600 1425 
z
" transform="scale(0.015625)"/>
     </defs>
     <use xlink:href="#STIXGeneral-Regular-70" transform="translate(0 0.578125)"/>
     <use xlink:href="#STIXGeneral-Regular-72" transform="translate(49.999985 0.578125)"/>
     <use xlink:href="#STIXGeneral-Regular-6f" transform="translate(83.299973 0.578125)"/>
     <use xlink:href="#STIXGeneral-Regular-74" transform="translate(133.299957 0.578125)"/>
     <use xlink:href="#STIXGeneral-Regular-6f" transform="translate(161.099945 0.578125)"/>
     <use xlink:href="#SimSun-7684" transform="translate(211.09993 0.578125)"/>
     <use xlink:href="#SimSun-541e" transform="translate(311.09993 0.578125)"/>
     <use xlink:href="#SimSun-5410" transform="translate(411.09993 0.578125)"/>
     <use xlink:href="#SimSun-91cf" transform="translate(511.09993 0.578125)"/>
     <use xlink:href="#SimSun-5728" transform="translate(611.09993 0.578125)"/>
     <use xlink:href="#SimSun-4e0d" transform="translate(711.09993 0.578125)"/>
     <use xlink:href="#SimSun-540c" transform="translate(811.09993 0.578125)"/>
     <use xlink:href="#STIXGeneral-Regular-4b" transform="translate(911.09993 0.578125)"/>
     <use xlink:href="#STIXGeneral-Regular-56" transform="translate(983.299911 0.578125)"/>
     <use xlink:href="#STIXGeneral-Regular-73" transform="translate(1079.566313 0.578125)"/>
     <use xlink:href="#STIXGeneral-Regular-69" transform="translate(1118.466307 0.578125)"/>
     <use xlink:href="#STIXGeneral-Regular-7a" transform="translate(1146.266295 0.578125)"/>
     <use xlink:href="#STIXGeneral-Regular-65" transform="translate(1190.666289 0.578125)"/>
     <use xlink:href="#SimSun-60c5" transform="translate(1235.066283 0.578125)"/>
     <use xlink:href="#SimSun-51b5" transform="translate(1335.066283 0.578125)"/>
     <use xlink:href="#SimSun-4e0b" transform="translate(1435.066283 0.578125)"/>
     <use xlink:href="#SimSun-968f" transform="translate(1535.066283 0.578125)"/>
     <use xlink:href="#SimSun-65f6" transform="translate(1635.066283 0.578125)"/>
     <use xlink:href="#SimSun-95f4" transform="translate(1735.066283 0.578125)"/>
     <use xlink:href="#SimSun-7684" transform="translate(1835.066283 0.578125)"/>
     <use xlink:href="#SimSun-53d8" transform="translate(1935.066283 0.578125)"/>
     <use xlink:href="#SimSun-5316" transform="translate(2035.066283 0.578125)"/>
     <use xlink:href="#SimSun-8d8b" transform="translate(2135.066283 0.578125)"/>
     <use xlink:href="#SimSun-52bf" transform="translate(2235.066283 0.578125)"/>
    </g>
   </g>
   <g id="legend_1">
    <g id="patch_7">
     <path d="M 667.735156 211.907219 
L 816.14 211.907219 
Q 819.94 211.907219 819.94 208.107219 
L 819.94 75.508 
Q 819.94 71.708 816.14 71.708 
L 667.735156 71.708 
Q 663.935156 71.708 663.935156 75.508 
L 663.935156 208.107219 
Q 663.935156 211.907219 667.735156 211.907219 
z
" style="fill: #ffffff; opacity: 0.8; stroke: #cccccc; stroke-linejoin: miter"/>
    </g>
    <g id="line2d_31">
     <path d="M 671.535156 85.958 
L 690.535156 85.958 
L 709.535156 85.958 
" style="fill: none; stroke: #d62728; stroke-width: 1.5; stroke-linecap: square"/>
    </g>
    <g id="text_29">
     <!-- proto_64 -->
     <g transform="translate(724.735156 92.608) scale(0.19 -0.19)">
      <defs>
       <path id="TimesNewRomanPSMT-70" d="M -6 2578 
L 875 2934 
L 994 2934 
L 994 2266 
Q 1216 2644 1439 2795 
Q 1663 2947 1909 2947 
Q 2341 2947 2628 2609 
Q 2981 2197 2981 1534 
Q 2981 794 2556 309 
Q 2206 -88 1675 -88 
Q 1444 -88 1275 -22 
Q 1150 25 994 166 
L 994 -706 
Q 994 -1000 1030 -1079 
Q 1066 -1159 1155 -1206 
Q 1244 -1253 1478 -1253 
L 1478 -1369 
L -22 -1369 
L -22 -1253 
L 56 -1253 
Q 228 -1256 350 -1188 
Q 409 -1153 442 -1076 
Q 475 -1000 475 -688 
L 475 2019 
Q 475 2297 450 2372 
Q 425 2447 370 2484 
Q 316 2522 222 2522 
Q 147 2522 31 2478 
L -6 2578 
z
M 994 2081 
L 994 1013 
Q 994 666 1022 556 
Q 1066 375 1236 237 
Q 1406 100 1666 100 
Q 1978 100 2172 344 
Q 2425 663 2425 1241 
Q 2425 1897 2138 2250 
Q 1938 2494 1663 2494 
Q 1513 2494 1366 2419 
Q 1253 2363 994 2081 
z
" transform="scale(0.015625)"/>
       <path id="TimesNewRomanPSMT-72" d="M 1038 2947 
L 1038 2303 
Q 1397 2947 1775 2947 
Q 1947 2947 2059 2842 
Q 2172 2738 2172 2600 
Q 2172 2478 2090 2393 
Q 2009 2309 1897 2309 
Q 1788 2309 1652 2417 
Q 1516 2525 1450 2525 
Q 1394 2525 1328 2463 
Q 1188 2334 1038 2041 
L 1038 669 
Q 1038 431 1097 309 
Q 1138 225 1241 169 
Q 1344 113 1538 113 
L 1538 0 
L 72 0 
L 72 113 
Q 291 113 397 181 
Q 475 231 506 341 
Q 522 394 522 644 
L 522 1753 
Q 522 2253 501 2348 
Q 481 2444 426 2487 
Q 372 2531 291 2531 
Q 194 2531 72 2484 
L 41 2597 
L 906 2947 
L 1038 2947 
z
" transform="scale(0.015625)"/>
       <path id="TimesNewRomanPSMT-6f" d="M 1600 2947 
Q 2250 2947 2644 2453 
Q 2978 2031 2978 1484 
Q 2978 1100 2793 706 
Q 2609 313 2286 112 
Q 1963 -88 1566 -88 
Q 919 -88 538 428 
Q 216 863 216 1403 
Q 216 1797 411 2186 
Q 606 2575 925 2761 
Q 1244 2947 1600 2947 
z
M 1503 2744 
Q 1338 2744 1170 2645 
Q 1003 2547 900 2300 
Q 797 2053 797 1666 
Q 797 1041 1045 587 
Q 1294 134 1700 134 
Q 2003 134 2200 384 
Q 2397 634 2397 1244 
Q 2397 2006 2069 2444 
Q 1847 2744 1503 2744 
z
" transform="scale(0.015625)"/>
       <path id="TimesNewRomanPSMT-74" d="M 1031 3803 
L 1031 2863 
L 1700 2863 
L 1700 2644 
L 1031 2644 
L 1031 788 
Q 1031 509 1111 412 
Q 1191 316 1316 316 
Q 1419 316 1516 380 
Q 1613 444 1666 569 
L 1788 569 
Q 1678 263 1478 108 
Q 1278 -47 1066 -47 
Q 922 -47 784 33 
Q 647 113 581 261 
Q 516 409 516 719 
L 516 2644 
L 63 2644 
L 63 2747 
Q 234 2816 414 2980 
Q 594 3144 734 3369 
Q 806 3488 934 3803 
L 1031 3803 
z
" transform="scale(0.015625)"/>
       <path id="TimesNewRomanPSMT-5f" d="M 3256 -1381 
L -53 -1381 
L -53 -1119 
L 3256 -1119 
L 3256 -1381 
z
" transform="scale(0.015625)"/>
       <path id="TimesNewRomanPSMT-36" d="M 2869 4325 
L 2869 4209 
Q 2456 4169 2195 4045 
Q 1934 3922 1679 3669 
Q 1425 3416 1258 3105 
Q 1091 2794 978 2366 
Q 1428 2675 1881 2675 
Q 2316 2675 2634 2325 
Q 2953 1975 2953 1425 
Q 2953 894 2631 456 
Q 2244 -75 1606 -75 
Q 1172 -75 869 213 
Q 275 772 275 1663 
Q 275 2231 503 2743 
Q 731 3256 1154 3653 
Q 1578 4050 1965 4187 
Q 2353 4325 2688 4325 
L 2869 4325 
z
M 925 2138 
Q 869 1716 869 1456 
Q 869 1156 980 804 
Q 1091 453 1309 247 
Q 1469 100 1697 100 
Q 1969 100 2183 356 
Q 2397 613 2397 1088 
Q 2397 1622 2184 2012 
Q 1972 2403 1581 2403 
Q 1463 2403 1327 2353 
Q 1191 2303 925 2138 
z
" transform="scale(0.015625)"/>
       <path id="TimesNewRomanPSMT-34" d="M 2978 1563 
L 2978 1119 
L 2409 1119 
L 2409 0 
L 1894 0 
L 1894 1119 
L 100 1119 
L 100 1519 
L 2066 4325 
L 2409 4325 
L 2409 1563 
L 2978 1563 
z
M 1894 1563 
L 1894 3666 
L 406 1563 
L 1894 1563 
z
" transform="scale(0.015625)"/>
      </defs>
      <use xlink:href="#TimesNewRomanPSMT-70"/>
      <use xlink:href="#TimesNewRomanPSMT-72" x="50"/>
      <use xlink:href="#TimesNewRomanPSMT-6f" x="83.300781"/>
      <use xlink:href="#TimesNewRomanPSMT-74" x="133.300781"/>
      <use xlink:href="#TimesNewRomanPSMT-6f" x="161.083984"/>
      <use xlink:href="#TimesNewRomanPSMT-5f" x="211.083984"/>
      <use xlink:href="#TimesNewRomanPSMT-36" x="261.083984"/>
      <use xlink:href="#TimesNewRomanPSMT-34" x="311.083984"/>
     </g>
    </g>
    <g id="line2d_32">
     <path d="M 671.535156 112.857844 
L 690.535156 112.857844 
L 709.535156 112.857844 
" style="fill: none; stroke: #ff7f0e; stroke-width: 1.5; stroke-linecap: square"/>
    </g>
    <g id="text_30">
     <!-- proto_128 -->
     <g transform="translate(724.735156 119.507844) scale(0.19 -0.19)">
      <defs>
       <path id="TimesNewRomanPSMT-31" d="M 750 3822 
L 1781 4325 
L 1884 4325 
L 1884 747 
Q 1884 391 1914 303 
Q 1944 216 2037 169 
Q 2131 122 2419 116 
L 2419 0 
L 825 0 
L 825 116 
Q 1125 122 1212 167 
Q 1300 213 1334 289 
Q 1369 366 1369 747 
L 1369 3034 
Q 1369 3497 1338 3628 
Q 1316 3728 1258 3775 
Q 1200 3822 1119 3822 
Q 1003 3822 797 3725 
L 750 3822 
z
" transform="scale(0.015625)"/>
       <path id="TimesNewRomanPSMT-32" d="M 2934 816 
L 2638 0 
L 138 0 
L 138 116 
Q 1241 1122 1691 1759 
Q 2141 2397 2141 2925 
Q 2141 3328 1894 3587 
Q 1647 3847 1303 3847 
Q 991 3847 742 3664 
Q 494 3481 375 3128 
L 259 3128 
Q 338 3706 661 4015 
Q 984 4325 1469 4325 
Q 1984 4325 2329 3994 
Q 2675 3663 2675 3213 
Q 2675 2891 2525 2569 
Q 2294 2063 1775 1497 
Q 997 647 803 472 
L 1909 472 
Q 2247 472 2383 497 
Q 2519 522 2628 598 
Q 2738 675 2819 816 
L 2934 816 
z
" transform="scale(0.015625)"/>
       <path id="TimesNewRomanPSMT-38" d="M 1228 2134 
Q 725 2547 579 2797 
Q 434 3047 434 3316 
Q 434 3728 753 4026 
Q 1072 4325 1600 4325 
Q 2113 4325 2425 4047 
Q 2738 3769 2738 3413 
Q 2738 3175 2569 2928 
Q 2400 2681 1866 2347 
Q 2416 1922 2594 1678 
Q 2831 1359 2831 1006 
Q 2831 559 2490 242 
Q 2150 -75 1597 -75 
Q 994 -75 656 303 
Q 388 606 388 966 
Q 388 1247 577 1523 
Q 766 1800 1228 2134 
z
M 1719 2469 
Q 2094 2806 2194 3001 
Q 2294 3197 2294 3444 
Q 2294 3772 2109 3958 
Q 1925 4144 1606 4144 
Q 1288 4144 1088 3959 
Q 888 3775 888 3528 
Q 888 3366 970 3203 
Q 1053 3041 1206 2894 
L 1719 2469 
z
M 1375 2016 
Q 1116 1797 991 1539 
Q 866 1281 866 981 
Q 866 578 1086 336 
Q 1306 94 1647 94 
Q 1984 94 2187 284 
Q 2391 475 2391 747 
Q 2391 972 2272 1150 
Q 2050 1481 1375 2016 
z
" transform="scale(0.015625)"/>
      </defs>
      <use xlink:href="#TimesNewRomanPSMT-70"/>
      <use xlink:href="#TimesNewRomanPSMT-72" x="50"/>
      <use xlink:href="#TimesNewRomanPSMT-6f" x="83.300781"/>
      <use xlink:href="#TimesNewRomanPSMT-74" x="133.300781"/>
      <use xlink:href="#TimesNewRomanPSMT-6f" x="161.083984"/>
      <use xlink:href="#TimesNewRomanPSMT-5f" x="211.083984"/>
      <use xlink:href="#TimesNewRomanPSMT-31" x="261.083984"/>
      <use xlink:href="#TimesNewRomanPSMT-32" x="311.083984"/>
      <use xlink:href="#TimesNewRomanPSMT-38" x="361.083984"/>
     </g>
    </g>
    <g id="line2d_33">
     <path d="M 671.535156 139.757688 
L 690.535156 139.757688 
L 709.535156 139.757688 
" style="fill: none; stroke: #9467bd; stroke-width: 1.5; stroke-linecap: square"/>
    </g>
    <g id="text_31">
     <!-- proto_256 -->
     <g transform="translate(724.735156 146.407688) scale(0.19 -0.19)">
      <defs>
       <path id="TimesNewRomanPSMT-35" d="M 2778 4238 
L 2534 3706 
L 1259 3706 
L 981 3138 
Q 1809 3016 2294 2522 
Q 2709 2097 2709 1522 
Q 2709 1188 2573 903 
Q 2438 619 2231 419 
Q 2025 219 1772 97 
Q 1413 -75 1034 -75 
Q 653 -75 479 54 
Q 306 184 306 341 
Q 306 428 378 495 
Q 450 563 559 563 
Q 641 563 702 538 
Q 763 513 909 409 
Q 1144 247 1384 247 
Q 1750 247 2026 523 
Q 2303 800 2303 1197 
Q 2303 1581 2056 1914 
Q 1809 2247 1375 2428 
Q 1034 2569 447 2591 
L 1259 4238 
L 2778 4238 
z
" transform="scale(0.015625)"/>
      </defs>
      <use xlink:href="#TimesNewRomanPSMT-70"/>
      <use xlink:href="#TimesNewRomanPSMT-72" x="50"/>
      <use xlink:href="#TimesNewRomanPSMT-6f" x="83.300781"/>
      <use xlink:href="#TimesNewRomanPSMT-74" x="133.300781"/>
      <use xlink:href="#TimesNewRomanPSMT-6f" x="161.083984"/>
      <use xlink:href="#TimesNewRomanPSMT-5f" x="211.083984"/>
      <use xlink:href="#TimesNewRomanPSMT-32" x="261.083984"/>
      <use xlink:href="#TimesNewRomanPSMT-35" x="311.083984"/>
      <use xlink:href="#TimesNewRomanPSMT-36" x="361.083984"/>
     </g>
    </g>
    <g id="line2d_34">
     <path d="M 671.535156 166.657531 
L 690.535156 166.657531 
L 709.535156 166.657531 
" style="fill: none; stroke: #1f77b4; stroke-width: 1.5; stroke-linecap: square"/>
    </g>
    <g id="text_32">
     <!-- proto_512 -->
     <g transform="translate(724.735156 173.307531) scale(0.19 -0.19)">
      <use xlink:href="#TimesNewRomanPSMT-70"/>
      <use xlink:href="#TimesNewRomanPSMT-72" x="50"/>
      <use xlink:href="#TimesNewRomanPSMT-6f" x="83.300781"/>
      <use xlink:href="#TimesNewRomanPSMT-74" x="133.300781"/>
      <use xlink:href="#TimesNewRomanPSMT-6f" x="161.083984"/>
      <use xlink:href="#TimesNewRomanPSMT-5f" x="211.083984"/>
      <use xlink:href="#TimesNewRomanPSMT-35" x="261.083984"/>
      <use xlink:href="#TimesNewRomanPSMT-31" x="311.083984"/>
      <use xlink:href="#TimesNewRomanPSMT-32" x="361.083984"/>
     </g>
    </g>
    <g id="line2d_35">
     <path d="M 671.535156 193.557375 
L 690.535156 193.557375 
L 709.535156 193.557375 
" style="fill: none; stroke: #2ca02c; stroke-width: 1.5; stroke-linecap: square"/>
    </g>
    <g id="text_33">
     <!-- proto_1024 -->
     <g transform="translate(724.735156 200.207375) scale(0.19 -0.19)">
      <defs>
       <path id="TimesNewRomanPSMT-30" d="M 231 2094 
Q 231 2819 450 3342 
Q 669 3866 1031 4122 
Q 1313 4325 1613 4325 
Q 2100 4325 2488 3828 
Q 2972 3213 2972 2159 
Q 2972 1422 2759 906 
Q 2547 391 2217 158 
Q 1888 -75 1581 -75 
Q 975 -75 572 641 
Q 231 1244 231 2094 
z
M 844 2016 
Q 844 1141 1059 588 
Q 1238 122 1591 122 
Q 1759 122 1940 273 
Q 2122 425 2216 781 
Q 2359 1319 2359 2297 
Q 2359 3022 2209 3506 
Q 2097 3866 1919 4016 
Q 1791 4119 1609 4119 
Q 1397 4119 1231 3928 
Q 1006 3669 925 3112 
Q 844 2556 844 2016 
z
" transform="scale(0.015625)"/>
      </defs>
      <use xlink:href="#TimesNewRomanPSMT-70"/>
      <use xlink:href="#TimesNewRomanPSMT-72" x="50"/>
      <use xlink:href="#TimesNewRomanPSMT-6f" x="83.300781"/>
      <use xlink:href="#TimesNewRomanPSMT-74" x="133.300781"/>
      <use xlink:href="#TimesNewRomanPSMT-6f" x="161.083984"/>
      <use xlink:href="#TimesNewRomanPSMT-5f" x="211.083984"/>
      <use xlink:href="#TimesNewRomanPSMT-31" x="261.083984"/>
      <use xlink:href="#TimesNewRomanPSMT-30" x="311.083984"/>
      <use xlink:href="#TimesNewRomanPSMT-32" x="361.083984"/>
      <use xlink:href="#TimesNewRomanPSMT-34" x="411.083984"/>
     </g>
    </g>
   </g>
  </g>
 </g>
 <defs>
  <clipPath id="pecc0c5e33b">
   <rect x="115.2" y="62.208" width="714.24" height="399.168"/>
  </clipPath>
 </defs>
</svg>
