<?xml version="1.0" encoding="utf-8" standalone="no"?>
<!DOCTYPE svg PUBLIC "-//W3C//DTD SVG 1.1//EN"
  "http://www.w3.org/Graphics/SVG/1.1/DTD/svg11.dtd">
<svg xmlns:xlink="http://www.w3.org/1999/xlink" width="1080pt" height="864pt" viewBox="0 0 1080 864" xmlns="http://www.w3.org/2000/svg" version="1.1">
 <metadata>
  <rdf:RDF xmlns:dc="http://purl.org/dc/elements/1.1/" xmlns:cc="http://creativecommons.org/ns#" xmlns:rdf="http://www.w3.org/1999/02/22-rdf-syntax-ns#">
   <cc:Work>
    <dc:type rdf:resource="http://purl.org/dc/dcmitype/StillImage"/>
    <dc:date>2023-09-03T01:29:17.242619</dc:date>
    <dc:format>image/svg+xml</dc:format>
    <dc:creator>
     <cc:Agent>
      <dc:title>Matplotlib v3.7.1, https://matplotlib.org/</dc:title>
     </cc:Agent>
    </dc:creator>
   </cc:Work>
  </rdf:RDF>
 </metadata>
 <defs>
  <style type="text/css">*{stroke-linejoin: round; stroke-linecap: butt}</style>
 </defs>
 <g id="figure_1">
  <g id="patch_1">
   <path d="M 0 864 
L 1080 864 
L 1080 0 
L 0 0 
z
" style="fill: #ffffff"/>
  </g>
  <g id="axes_1">
   <g id="patch_2">
    <path d="M 129.6 691.2 
L 1047.6 691.2 
L 1047.6 17.28 
L 129.6 17.28 
z
" style="fill: #ffffff"/>
   </g>
   <g id="matplotlib.axis_1">
    <g id="xtick_1">
     <g id="line2d_1">
      <defs>
       <path id="m022ff66ab9" d="M 0 0 
L 0 3.5 
" style="stroke: #000000; stroke-width: 0.8"/>
      </defs>
      <g>
       <use xlink:href="#m022ff66ab9" x="129.6" y="691.2" style="stroke: #000000; stroke-width: 0.8"/>
      </g>
     </g>
     <g id="text_1">
      <!-- 0 -->
      <g transform="translate(119.6 726.79375) scale(0.4 -0.4)">
       <defs>
        <path id="SimSun-30" d="M 1600 4225 
Q 1250 4225 1012 3687 
Q 775 3150 775 2250 
Q 775 1300 1012 775 
Q 1250 250 1600 250 
Q 1975 250 2187 775 
Q 2400 1300 2400 2250 
Q 2400 3150 2200 3687 
Q 2000 4225 1600 4225 
z
M 1600 50 
Q 1050 50 675 625 
Q 300 1200 300 2250 
Q 300 3225 662 3825 
Q 1025 4425 1600 4425 
Q 2150 4425 2512 3850 
Q 2875 3275 2875 2250 
Q 2875 1225 2512 637 
Q 2150 50 1600 50 
z
" transform="scale(0.015625)"/>
       </defs>
       <use xlink:href="#SimSun-30"/>
      </g>
     </g>
    </g>
    <g id="xtick_2">
     <g id="line2d_2">
      <g>
       <use xlink:href="#m022ff66ab9" x="213.054545" y="691.2" style="stroke: #000000; stroke-width: 0.8"/>
      </g>
     </g>
     <g id="text_2">
      <!-- 25 -->
      <g transform="translate(193.054545 726.79375) scale(0.4 -0.4)">
       <defs>
        <path id="SimSun-32" d="M 2325 3325 
Q 2325 3775 2125 4012 
Q 1925 4250 1525 4250 
Q 1225 4250 1012 4087 
Q 800 3925 800 3675 
Q 800 3525 900 3425 
Q 975 3325 975 3225 
Q 975 3100 912 3037 
Q 850 2975 725 2975 
Q 575 2975 487 3062 
Q 400 3150 400 3350 
Q 400 3875 775 4150 
Q 1150 4425 1575 4425 
Q 2175 4425 2462 4125 
Q 2750 3825 2750 3375 
Q 2750 3075 2612 2775 
Q 2475 2475 2175 2200 
Q 1450 1500 1062 1062 
Q 675 625 600 475 
L 2075 475 
Q 2300 475 2450 650 
Q 2600 825 2650 1175 
L 2800 1175 
L 2650 100 
L 325 100 
L 325 425 
Q 450 650 737 1000 
Q 1025 1350 1500 1825 
Q 1925 2250 2125 2625 
Q 2325 3000 2325 3325 
z
" transform="scale(0.015625)"/>
        <path id="SimSun-35" d="M 1725 2850 
Q 2200 2850 2500 2487 
Q 2800 2125 2800 1525 
Q 2800 850 2487 450 
Q 2175 50 1525 50 
Q 1075 50 725 312 
Q 375 575 375 950 
Q 375 1100 462 1212 
Q 550 1325 700 1325 
Q 850 1325 900 1225 
Q 950 1125 950 1050 
Q 950 900 875 825 
Q 800 725 800 625 
Q 800 425 1037 325 
Q 1275 225 1550 225 
Q 1950 225 2162 550 
Q 2375 875 2375 1475 
Q 2375 1975 2187 2287 
Q 2000 2600 1625 2600 
Q 1350 2600 1150 2500 
Q 950 2400 775 2075 
L 550 2100 
L 675 4375 
L 2725 4375 
L 2650 4000 
L 850 4000 
L 750 2350 
Q 1000 2700 1237 2775 
Q 1475 2850 1725 2850 
z
" transform="scale(0.015625)"/>
       </defs>
       <use xlink:href="#SimSun-32"/>
       <use xlink:href="#SimSun-35" x="50"/>
      </g>
     </g>
    </g>
    <g id="xtick_3">
     <g id="line2d_3">
      <g>
       <use xlink:href="#m022ff66ab9" x="296.509091" y="691.2" style="stroke: #000000; stroke-width: 0.8"/>
      </g>
     </g>
     <g id="text_3">
      <!-- 50 -->
      <g transform="translate(276.509091 726.79375) scale(0.4 -0.4)">
       <use xlink:href="#SimSun-35"/>
       <use xlink:href="#SimSun-30" x="50"/>
      </g>
     </g>
    </g>
    <g id="xtick_4">
     <g id="line2d_4">
      <g>
       <use xlink:href="#m022ff66ab9" x="379.963636" y="691.2" style="stroke: #000000; stroke-width: 0.8"/>
      </g>
     </g>
     <g id="text_4">
      <!-- 75 -->
      <g transform="translate(359.963636 726.79375) scale(0.4 -0.4)">
       <defs>
        <path id="SimSun-37" d="M 2825 4200 
Q 2300 3350 1987 2537 
Q 1675 1725 1675 1125 
Q 1675 1025 1700 850 
Q 1700 650 1700 400 
Q 1700 200 1637 125 
Q 1575 50 1425 50 
Q 1300 50 1212 137 
Q 1125 225 1125 450 
Q 1125 925 1337 1625 
Q 1550 2325 2475 4000 
L 1225 4000 
Q 950 4000 787 3825 
Q 625 3650 550 3300 
L 400 3325 
L 575 4375 
L 2825 4375 
L 2825 4200 
z
" transform="scale(0.015625)"/>
       </defs>
       <use xlink:href="#SimSun-37"/>
       <use xlink:href="#SimSun-35" x="50"/>
      </g>
     </g>
    </g>
    <g id="xtick_5">
     <g id="line2d_5">
      <g>
       <use xlink:href="#m022ff66ab9" x="463.418182" y="691.2" style="stroke: #000000; stroke-width: 0.8"/>
      </g>
     </g>
     <g id="text_5">
      <!-- 100 -->
      <g transform="translate(433.418182 726.79375) scale(0.4 -0.4)">
       <defs>
        <path id="SimSun-31" d="M 1825 4450 
L 1825 650 
Q 1825 450 1950 350 
Q 2075 250 2300 250 
L 2550 250 
L 2550 100 
L 725 100 
L 725 250 
L 950 250 
Q 1200 250 1312 350 
Q 1425 450 1425 650 
L 1425 3675 
Q 1425 3775 1362 3837 
Q 1300 3900 1175 3900 
L 725 3900 
L 725 4050 
L 950 4050 
Q 1250 4050 1437 4150 
Q 1625 4250 1725 4450 
L 1825 4450 
z
" transform="scale(0.015625)"/>
       </defs>
       <use xlink:href="#SimSun-31"/>
       <use xlink:href="#SimSun-30" x="50"/>
       <use xlink:href="#SimSun-30" x="100"/>
      </g>
     </g>
    </g>
    <g id="xtick_6">
     <g id="line2d_6">
      <g>
       <use xlink:href="#m022ff66ab9" x="546.872727" y="691.2" style="stroke: #000000; stroke-width: 0.8"/>
      </g>
     </g>
     <g id="text_6">
      <!-- 125 -->
      <g transform="translate(516.872727 726.79375) scale(0.4 -0.4)">
       <use xlink:href="#SimSun-31"/>
       <use xlink:href="#SimSun-32" x="50"/>
       <use xlink:href="#SimSun-35" x="100"/>
      </g>
     </g>
    </g>
    <g id="xtick_7">
     <g id="line2d_7">
      <g>
       <use xlink:href="#m022ff66ab9" x="630.327273" y="691.2" style="stroke: #000000; stroke-width: 0.8"/>
      </g>
     </g>
     <g id="text_7">
      <!-- 150 -->
      <g transform="translate(600.327273 726.79375) scale(0.4 -0.4)">
       <use xlink:href="#SimSun-31"/>
       <use xlink:href="#SimSun-35" x="50"/>
       <use xlink:href="#SimSun-30" x="100"/>
      </g>
     </g>
    </g>
    <g id="xtick_8">
     <g id="line2d_8">
      <g>
       <use xlink:href="#m022ff66ab9" x="713.781818" y="691.2" style="stroke: #000000; stroke-width: 0.8"/>
      </g>
     </g>
     <g id="text_8">
      <!-- 175 -->
      <g transform="translate(683.781818 726.79375) scale(0.4 -0.4)">
       <use xlink:href="#SimSun-31"/>
       <use xlink:href="#SimSun-37" x="50"/>
       <use xlink:href="#SimSun-35" x="100"/>
      </g>
     </g>
    </g>
    <g id="xtick_9">
     <g id="line2d_9">
      <g>
       <use xlink:href="#m022ff66ab9" x="797.236364" y="691.2" style="stroke: #000000; stroke-width: 0.8"/>
      </g>
     </g>
     <g id="text_9">
      <!-- 200 -->
      <g transform="translate(767.236364 726.79375) scale(0.4 -0.4)">
       <use xlink:href="#SimSun-32"/>
       <use xlink:href="#SimSun-30" x="50"/>
       <use xlink:href="#SimSun-30" x="100"/>
      </g>
     </g>
    </g>
    <g id="xtick_10">
     <g id="line2d_10">
      <g>
       <use xlink:href="#m022ff66ab9" x="880.690909" y="691.2" style="stroke: #000000; stroke-width: 0.8"/>
      </g>
     </g>
     <g id="text_10">
      <!-- 225 -->
      <g transform="translate(850.690909 726.79375) scale(0.4 -0.4)">
       <use xlink:href="#SimSun-32"/>
       <use xlink:href="#SimSun-32" x="50"/>
       <use xlink:href="#SimSun-35" x="100"/>
      </g>
     </g>
    </g>
    <g id="xtick_11">
     <g id="line2d_11">
      <g>
       <use xlink:href="#m022ff66ab9" x="964.145455" y="691.2" style="stroke: #000000; stroke-width: 0.8"/>
      </g>
     </g>
     <g id="text_11">
      <!-- 250 -->
      <g transform="translate(934.145455 726.79375) scale(0.4 -0.4)">
       <use xlink:href="#SimSun-32"/>
       <use xlink:href="#SimSun-35" x="50"/>
       <use xlink:href="#SimSun-30" x="100"/>
      </g>
     </g>
    </g>
    <g id="xtick_12">
     <g id="line2d_12">
      <g>
       <use xlink:href="#m022ff66ab9" x="1047.6" y="691.2" style="stroke: #000000; stroke-width: 0.8"/>
      </g>
     </g>
     <g id="text_12">
      <!-- 275 -->
      <g transform="translate(1017.6 726.79375) scale(0.4 -0.4)">
       <use xlink:href="#SimSun-32"/>
       <use xlink:href="#SimSun-37" x="50"/>
       <use xlink:href="#SimSun-35" x="100"/>
      </g>
     </g>
    </g>
    <g id="text_13">
     <!-- 请求数 $\mathrm{(M)}$ -->
     <g transform="translate(462.1 777.45) scale(0.5 -0.5)">
      <defs>
       <path id="SimSun-8bf7" d="M 3800 4400 
Q 3800 4925 3775 5250 
L 4350 5000 
L 4150 4825 
L 4150 4400 
L 5175 4400 
L 5525 4725 
L 5950 4250 
L 4150 4250 
L 4150 3725 
L 4875 3725 
L 5200 4025 
L 5600 3575 
L 4150 3575 
L 4150 2950 
L 5325 2950 
L 5675 3275 
L 6100 2800 
L 2650 2800 
Q 2450 2800 2175 2725 
L 1950 2950 
L 3800 2950 
L 3800 3575 
L 3225 3575 
Q 3025 3575 2750 3500 
L 2525 3725 
L 3800 3725 
L 3800 4250 
L 2850 4250 
Q 2650 4250 2375 4175 
L 2150 4400 
L 3800 4400 
z
M 3075 2150 
L 3075 1650 
L 4975 1650 
L 4975 2150 
L 3075 2150 
z
M 3075 1500 
L 3075 925 
L 4975 925 
L 4975 1500 
L 3075 1500 
z
M 2725 2500 
L 3050 2300 
L 4925 2300 
L 5075 2525 
L 5475 2225 
L 5300 2075 
L 5300 50 
Q 5325 -425 4750 -600 
Q 4750 -275 4075 -125 
L 4075 -25 
Q 4500 -50 4750 -62 
Q 5000 -75 4975 175 
L 4975 775 
L 3075 775 
L 3075 -450 
L 2725 -625 
Q 2750 125 2750 1000 
Q 2750 1875 2725 2500 
z
M 850 5000 
L 925 5050 
Q 1375 4750 1512 4562 
Q 1650 4375 1600 4200 
Q 1550 4025 1450 3950 
L 1325 3875 
Q 1225 3875 1200 4150 
Q 1150 4500 850 5000 
z
M 200 3075 
L 1100 3075 
L 1300 3325 
L 1725 3000 
L 1500 2825 
L 1500 600 
L 2400 1425 
L 2475 1350 
Q 1775 525 1400 -150 
L 1050 250 
Q 1150 400 1150 600 
L 1150 2925 
L 900 2925 
Q 700 2925 425 2850 
L 200 3075 
z
" transform="scale(0.015625)"/>
       <path id="SimSun-6c42" d="M 3950 5025 
Q 4500 4825 4737 4687 
Q 4975 4550 4975 4350 
Q 4975 4300 4912 4125 
Q 4850 3950 4800 3950 
Q 4725 3950 4625 4150 
Q 4425 4475 3900 4950 
L 3950 5025 
z
M 2900 5225 
L 3500 4900 
L 3300 4700 
L 3300 3775 
L 5050 3775 
L 5400 4150 
L 5900 3625 
L 3325 3625 
Q 3650 2575 4000 2000 
Q 4725 2575 5100 3125 
L 5525 2650 
Q 5250 2600 4950 2425 
Q 4650 2225 4050 1875 
Q 4900 650 6100 375 
L 6100 275 
Q 5675 225 5525 -75 
Q 3750 900 3300 3325 
L 3300 175 
Q 3325 -425 2675 -600 
Q 2650 -250 1925 -25 
L 1925 75 
Q 2475 25 2687 25 
Q 2900 25 2925 250 
L 2925 1700 
Q 1950 1075 1387 700 
Q 825 325 700 100 
L 300 600 
Q 575 650 1225 975 
Q 1875 1300 2925 1850 
L 2925 3625 
L 1275 3625 
Q 950 3625 675 3550 
L 450 3775 
L 2925 3775 
Q 2925 4850 2900 5225 
z
M 1050 3175 
Q 1775 2900 1975 2712 
Q 2175 2525 2175 2350 
Q 2175 2250 2075 2075 
Q 1975 1900 1925 1900 
Q 1850 1900 1750 2175 
Q 1575 2575 1000 3100 
L 1050 3175 
z
" transform="scale(0.015625)"/>
       <path id="SimSun-6570" d="M 1875 1525 
Q 1675 1200 1500 900 
Q 1825 825 2275 725 
Q 2500 975 2725 1525 
L 1875 1525 
z
M 850 4900 
Q 1325 4600 1425 4450 
Q 1525 4300 1525 4225 
Q 1525 4100 1437 3975 
Q 1350 3850 1300 3850 
Q 1225 3850 1150 4100 
Q 1050 4450 775 4850 
L 850 4900 
z
M 3000 4975 
L 3450 4675 
Q 3250 4625 3100 4425 
Q 2925 4225 2525 3825 
L 2450 3875 
Q 2925 4625 3000 4975 
z
M 1875 5250 
L 2425 5000 
L 2225 4825 
L 2225 3675 
L 2850 3675 
L 3125 3950 
L 3550 3525 
L 2225 3525 
L 2225 3300 
Q 2800 3175 2937 3062 
Q 3075 2950 3075 2775 
Q 3075 2700 3050 2587 
Q 3025 2475 2975 2475 
Q 2925 2475 2800 2650 
Q 2600 2925 2225 3175 
L 2225 2400 
L 1925 2200 
L 2275 2050 
Q 2150 2000 1950 1675 
L 2725 1675 
L 2900 1900 
L 3275 1575 
L 3050 1450 
Q 2800 875 2600 650 
Q 3000 550 3137 437 
Q 3275 325 3275 150 
Q 3275 -25 3200 -25 
Q 3125 -25 3025 75 
Q 2750 275 2400 425 
Q 1525 -275 325 -500 
L 300 -425 
Q 1450 -50 2100 550 
Q 1600 725 1125 800 
Q 1225 950 1525 1525 
L 1200 1525 
Q 875 1525 600 1450 
L 375 1675 
L 1575 1675 
Q 1675 1925 1775 2275 
L 1900 2225 
L 1900 3250 
Q 1225 2475 350 2050 
L 300 2125 
Q 1225 2775 1700 3525 
L 1250 3525 
Q 925 3525 650 3450 
L 425 3675 
L 1900 3675 
Q 1900 4575 1875 5250 
z
M 3925 3525 
Q 4050 2075 4525 1100 
Q 4925 1950 5025 3525 
L 3925 3525 
z
M 4050 5250 
L 4625 4925 
Q 4425 4850 4325 4625 
Q 4225 4400 3950 3675 
L 5375 3675 
L 5675 3975 
L 6125 3525 
L 5400 3525 
Q 5250 1675 4750 775 
Q 5325 75 6100 -100 
L 6100 -200 
Q 5625 -275 5600 -500 
Q 4950 -50 4525 525 
Q 3700 -275 2550 -650 
L 2500 -575 
Q 3650 -50 4325 800 
Q 3850 1975 3825 3375 
Q 3575 2725 3100 2150 
L 3025 2200 
Q 3625 3200 4050 5250 
z
" transform="scale(0.015625)"/>
       <path id="SimSun-20" d="M 0 0 
Q 0 0 0 0 
z
" transform="scale(0.015625)"/>
       <path id="STIXGeneral-Regular-28" d="M 1946 -1030 
L 1869 -1133 
Q 1126 -710 716 32 
Q 307 774 307 1613 
Q 307 3386 1888 4326 
L 1946 4224 
Q 1293 3667 1075 3126 
Q 858 2586 858 1632 
Q 858 685 1082 96 
Q 1306 -493 1946 -1030 
z
" transform="scale(0.015625)"/>
       <path id="STIXGeneral-Regular-4d" d="M 5530 0 
L 3738 0 
L 3738 122 
Q 4115 147 4214 265 
Q 4314 384 4314 787 
L 4314 3661 
L 2682 0 
L 2592 0 
L 979 3514 
L 979 966 
Q 979 448 1088 294 
Q 1197 141 1574 122 
L 1574 0 
L 77 0 
L 77 122 
Q 358 141 480 205 
Q 602 269 650 432 
Q 698 595 698 966 
L 698 3514 
Q 698 3878 589 3984 
Q 480 4090 90 4115 
L 90 4237 
L 1357 4237 
L 2835 1024 
L 4250 4237 
L 5523 4237 
L 5523 4115 
Q 5178 4109 5072 3993 
Q 4966 3878 4966 3520 
L 4966 717 
Q 4966 378 5072 262 
Q 5178 147 5530 122 
L 5530 0 
z
" transform="scale(0.015625)"/>
       <path id="STIXGeneral-Regular-29" d="M 186 4224 
L 262 4326 
Q 992 3891 1408 3148 
Q 1824 2406 1824 1581 
Q 1824 -166 243 -1133 
L 186 -1030 
Q 845 -486 1059 54 
Q 1274 595 1274 1562 
Q 1274 2534 1059 3120 
Q 845 3706 186 4224 
z
" transform="scale(0.015625)"/>
      </defs>
      <use xlink:href="#SimSun-8bf7" transform="translate(0 0.96875)"/>
      <use xlink:href="#SimSun-6c42" transform="translate(100 0.96875)"/>
      <use xlink:href="#SimSun-6570" transform="translate(200 0.96875)"/>
      <use xlink:href="#SimSun-20" transform="translate(300 0.96875)"/>
      <use xlink:href="#STIXGeneral-Regular-28" transform="translate(350 0.96875)"/>
      <use xlink:href="#STIXGeneral-Regular-4d" transform="translate(383.299988 0.96875)"/>
      <use xlink:href="#STIXGeneral-Regular-29" transform="translate(472.199982 0.96875)"/>
     </g>
    </g>
   </g>
   <g id="matplotlib.axis_2">
    <g id="ytick_1">
     <g id="line2d_13">
      <defs>
       <path id="m2503a9f07e" d="M 0 0 
L -3.5 0 
" style="stroke: #000000; stroke-width: 0.8"/>
      </defs>
      <g>
       <use xlink:href="#m2503a9f07e" x="129.6" y="691.2" style="stroke: #000000; stroke-width: 0.8"/>
      </g>
     </g>
     <g id="text_14">
      <!-- 0 -->
      <g transform="translate(102.6 705.496875) scale(0.4 -0.4)">
       <use xlink:href="#SimSun-30"/>
      </g>
     </g>
    </g>
    <g id="ytick_2">
     <g id="line2d_14">
      <g>
       <use xlink:href="#m2503a9f07e" x="129.6" y="623.808" style="stroke: #000000; stroke-width: 0.8"/>
      </g>
     </g>
     <g id="text_15">
      <!-- 10 -->
      <g transform="translate(82.6 638.104875) scale(0.4 -0.4)">
       <use xlink:href="#SimSun-31"/>
       <use xlink:href="#SimSun-30" x="50"/>
      </g>
     </g>
    </g>
    <g id="ytick_3">
     <g id="line2d_15">
      <g>
       <use xlink:href="#m2503a9f07e" x="129.6" y="556.416" style="stroke: #000000; stroke-width: 0.8"/>
      </g>
     </g>
     <g id="text_16">
      <!-- 20 -->
      <g transform="translate(82.6 570.712875) scale(0.4 -0.4)">
       <use xlink:href="#SimSun-32"/>
       <use xlink:href="#SimSun-30" x="50"/>
      </g>
     </g>
    </g>
    <g id="ytick_4">
     <g id="line2d_16">
      <g>
       <use xlink:href="#m2503a9f07e" x="129.6" y="489.024" style="stroke: #000000; stroke-width: 0.8"/>
      </g>
     </g>
     <g id="text_17">
      <!-- 30 -->
      <g transform="translate(82.6 503.320875) scale(0.4 -0.4)">
       <defs>
        <path id="SimSun-33" d="M 2800 1250 
Q 2800 775 2450 412 
Q 2100 50 1475 50 
Q 1025 50 700 300 
Q 375 550 375 875 
Q 375 1025 475 1137 
Q 575 1250 675 1250 
Q 825 1250 887 1137 
Q 950 1025 950 950 
Q 950 825 900 750 
Q 850 650 850 575 
Q 850 425 1037 325 
Q 1225 225 1450 225 
Q 1900 225 2125 487 
Q 2350 750 2350 1300 
Q 2350 1750 2112 2025 
Q 1875 2300 1225 2300 
L 1225 2475 
Q 1725 2475 1962 2712 
Q 2200 2950 2200 3375 
Q 2200 3725 2012 3987 
Q 1825 4250 1425 4250 
Q 1250 4250 1050 4162 
Q 850 4075 850 3875 
Q 850 3675 900 3625 
Q 950 3575 950 3500 
Q 950 3375 900 3300 
Q 850 3225 725 3225 
Q 625 3225 537 3300 
Q 450 3375 450 3575 
Q 450 3950 775 4187 
Q 1100 4425 1525 4425 
Q 2025 4425 2325 4112 
Q 2625 3800 2625 3450 
Q 2625 3075 2437 2812 
Q 2250 2550 1850 2425 
Q 2400 2225 2600 1900 
Q 2800 1575 2800 1250 
z
" transform="scale(0.015625)"/>
       </defs>
       <use xlink:href="#SimSun-33"/>
       <use xlink:href="#SimSun-30" x="50"/>
      </g>
     </g>
    </g>
    <g id="ytick_5">
     <g id="line2d_17">
      <g>
       <use xlink:href="#m2503a9f07e" x="129.6" y="421.632" style="stroke: #000000; stroke-width: 0.8"/>
      </g>
     </g>
     <g id="text_18">
      <!-- 40 -->
      <g transform="translate(82.6 435.928875) scale(0.4 -0.4)">
       <defs>
        <path id="SimSun-34" d="M 2300 575 
Q 2300 400 2400 325 
Q 2500 250 2675 250 
L 2900 250 
L 2900 100 
L 1250 100 
L 1250 250 
L 1525 250 
Q 1725 250 1812 325 
Q 1900 400 1900 575 
L 1900 1400 
L 225 1400 
L 225 1525 
L 2050 4425 
L 2300 4425 
L 2300 1550 
L 2975 1550 
L 2975 1400 
L 2300 1400 
L 2300 575 
z
M 1875 3800 
L 450 1550 
L 1900 1550 
L 1900 3800 
L 1875 3800 
z
" transform="scale(0.015625)"/>
       </defs>
       <use xlink:href="#SimSun-34"/>
       <use xlink:href="#SimSun-30" x="50"/>
      </g>
     </g>
    </g>
    <g id="ytick_6">
     <g id="line2d_18">
      <g>
       <use xlink:href="#m2503a9f07e" x="129.6" y="354.24" style="stroke: #000000; stroke-width: 0.8"/>
      </g>
     </g>
     <g id="text_19">
      <!-- 50 -->
      <g transform="translate(82.6 368.536875) scale(0.4 -0.4)">
       <use xlink:href="#SimSun-35"/>
       <use xlink:href="#SimSun-30" x="50"/>
      </g>
     </g>
    </g>
    <g id="ytick_7">
     <g id="line2d_19">
      <g>
       <use xlink:href="#m2503a9f07e" x="129.6" y="286.848" style="stroke: #000000; stroke-width: 0.8"/>
      </g>
     </g>
     <g id="text_20">
      <!-- 60 -->
      <g transform="translate(82.6 301.144875) scale(0.4 -0.4)">
       <defs>
        <path id="SimSun-36" d="M 775 1800 
Q 775 1050 1037 637 
Q 1300 225 1675 225 
Q 2050 225 2250 500 
Q 2450 775 2450 1525 
Q 2450 2025 2237 2300 
Q 2025 2575 1725 2575 
Q 1450 2575 1212 2412 
Q 975 2250 775 1800 
z
M 1750 2825 
Q 2350 2825 2612 2425 
Q 2875 2025 2875 1525 
Q 2875 775 2512 412 
Q 2150 50 1675 50 
Q 1000 50 650 562 
Q 300 1075 300 2050 
Q 300 3200 725 3812 
Q 1150 4425 1875 4425 
Q 2225 4425 2437 4225 
Q 2650 4025 2650 3875 
Q 2650 3725 2587 3650 
Q 2525 3575 2375 3575 
Q 2250 3575 2187 3637 
Q 2125 3700 2125 3825 
Q 2125 3875 2150 3925 
Q 2150 3975 2150 4025 
Q 2150 4125 2075 4187 
Q 2000 4250 1800 4250 
Q 1375 4250 1075 3862 
Q 775 3475 775 2175 
Q 925 2500 1187 2662 
Q 1450 2825 1750 2825 
z
" transform="scale(0.015625)"/>
       </defs>
       <use xlink:href="#SimSun-36"/>
       <use xlink:href="#SimSun-30" x="50"/>
      </g>
     </g>
    </g>
    <g id="ytick_8">
     <g id="line2d_20">
      <g>
       <use xlink:href="#m2503a9f07e" x="129.6" y="219.456" style="stroke: #000000; stroke-width: 0.8"/>
      </g>
     </g>
     <g id="text_21">
      <!-- 70 -->
      <g transform="translate(82.6 233.752875) scale(0.4 -0.4)">
       <use xlink:href="#SimSun-37"/>
       <use xlink:href="#SimSun-30" x="50"/>
      </g>
     </g>
    </g>
    <g id="ytick_9">
     <g id="line2d_21">
      <g>
       <use xlink:href="#m2503a9f07e" x="129.6" y="152.064" style="stroke: #000000; stroke-width: 0.8"/>
      </g>
     </g>
     <g id="text_22">
      <!-- 80 -->
      <g transform="translate(82.6 166.360875) scale(0.4 -0.4)">
       <defs>
        <path id="SimSun-38" d="M 625 1125 
Q 625 725 887 475 
Q 1150 225 1550 225 
Q 2025 225 2237 475 
Q 2450 725 2450 1100 
Q 2450 1425 2150 1725 
Q 1850 2025 1250 2275 
Q 950 2075 787 1775 
Q 625 1475 625 1125 
z
M 2825 1175 
Q 2825 700 2475 375 
Q 2125 50 1550 50 
Q 1025 50 650 375 
Q 275 700 275 1125 
Q 275 1550 487 1850 
Q 700 2150 1100 2375 
Q 750 2550 562 2812 
Q 375 3075 375 3400 
Q 375 3825 700 4125 
Q 1025 4425 1600 4425 
Q 2125 4425 2450 4125 
Q 2775 3825 2775 3400 
Q 2775 3100 2587 2837 
Q 2400 2575 2000 2375 
Q 2425 2125 2625 1825 
Q 2825 1525 2825 1175 
z
M 2425 3375 
Q 2425 3725 2225 3987 
Q 2025 4250 1600 4250 
Q 1125 4250 925 4000 
Q 725 3750 725 3475 
Q 725 3200 1012 2937 
Q 1300 2675 1825 2475 
Q 2125 2625 2275 2850 
Q 2425 3075 2425 3375 
z
" transform="scale(0.015625)"/>
       </defs>
       <use xlink:href="#SimSun-38"/>
       <use xlink:href="#SimSun-30" x="50"/>
      </g>
     </g>
    </g>
    <g id="ytick_10">
     <g id="line2d_22">
      <g>
       <use xlink:href="#m2503a9f07e" x="129.6" y="84.672" style="stroke: #000000; stroke-width: 0.8"/>
      </g>
     </g>
     <g id="text_23">
      <!-- 90 -->
      <g transform="translate(82.6 98.968875) scale(0.4 -0.4)">
       <defs>
        <path id="SimSun-39" d="M 700 3050 
Q 700 2500 912 2212 
Q 1125 1925 1450 1925 
Q 1825 1925 2100 2275 
Q 2375 2625 2375 2925 
Q 2375 3525 2175 3887 
Q 1975 4250 1525 4250 
Q 1100 4250 900 3912 
Q 700 3575 700 3050 
z
M 1375 1700 
Q 875 1700 575 2012 
Q 275 2325 275 3025 
Q 275 3625 600 4025 
Q 925 4425 1525 4425 
Q 2150 4425 2500 3925 
Q 2850 3425 2850 2475 
Q 2850 1425 2437 737 
Q 2025 50 1300 50 
Q 975 50 737 200 
Q 500 350 500 600 
Q 500 700 562 800 
Q 625 900 775 900 
Q 925 900 975 787 
Q 1025 675 1025 525 
Q 1025 425 1050 362 
Q 1075 300 1100 275 
Q 1125 250 1187 237 
Q 1250 225 1325 225 
Q 1775 225 2050 725 
Q 2325 1225 2375 2400 
Q 2250 2100 2000 1900 
Q 1750 1700 1375 1700 
z
" transform="scale(0.015625)"/>
       </defs>
       <use xlink:href="#SimSun-39"/>
       <use xlink:href="#SimSun-30" x="50"/>
      </g>
     </g>
    </g>
    <g id="ytick_11">
     <g id="line2d_23">
      <g>
       <use xlink:href="#m2503a9f07e" x="129.6" y="17.28" style="stroke: #000000; stroke-width: 0.8"/>
      </g>
     </g>
     <g id="text_24">
      <!-- 100 -->
      <g transform="translate(62.6 31.576875) scale(0.4 -0.4)">
       <use xlink:href="#SimSun-31"/>
       <use xlink:href="#SimSun-30" x="50"/>
       <use xlink:href="#SimSun-30" x="100"/>
      </g>
     </g>
    </g>
    <g id="text_25">
     <!-- 索引装载率 $\mathrm{(\%)}$ -->
     <g transform="translate(49.6 527.24) rotate(-90) scale(0.5 -0.5)">
      <defs>
       <path id="SimSun-7d22" d="M 4725 1325 
Q 4375 1250 3450 1150 
L 3450 -50 
Q 3475 -500 2875 -625 
Q 2875 -325 2200 -125 
L 2200 -25 
Q 2850 -75 2987 -75 
Q 3125 -75 3100 175 
L 3100 1100 
Q 2400 1025 2050 925 
Q 1700 825 1475 700 
L 1225 1175 
Q 1525 1250 2050 1525 
Q 2575 1800 3225 2200 
Q 2900 2200 2437 2150 
Q 1975 2100 1650 1950 
L 1425 2375 
Q 1775 2425 2212 2737 
Q 2650 3050 2875 3375 
L 1000 3375 
Q 1050 3000 975 2850 
Q 900 2700 800 2675 
Q 700 2650 625 2650 
Q 525 2650 462 2675 
Q 400 2700 400 2725 
Q 400 2800 550 2975 
Q 750 3225 875 3800 
L 975 3800 
L 1000 3525 
L 3025 3525 
L 3025 4250 
L 1575 4250 
Q 1375 4250 1100 4175 
L 875 4400 
L 3025 4400 
L 3025 4775 
Q 3025 5025 3000 5275 
L 3625 5050 
L 3375 4900 
L 3375 4400 
L 4725 4400 
L 5125 4750 
L 5575 4250 
L 3375 4250 
L 3375 3525 
L 5300 3525 
L 5500 3750 
L 5950 3325 
Q 5600 3300 5050 2675 
L 4975 2725 
L 5325 3375 
L 2925 3375 
L 3325 3100 
Q 3100 3075 2675 2800 
Q 2250 2500 1925 2350 
L 3425 2375 
Q 3775 2625 4050 3000 
L 4475 2625 
Q 4250 2600 3850 2325 
Q 3425 2050 2975 1787 
Q 2525 1525 2025 1250 
L 4625 1450 
Q 4275 1825 3950 2050 
L 4000 2125 
Q 4700 1850 4962 1662 
Q 5225 1475 5275 1312 
Q 5325 1150 5212 937 
Q 5100 725 4987 925 
Q 4875 1125 4725 1325 
z
M 3925 725 
Q 5025 375 5312 212 
Q 5600 50 5612 -150 
Q 5625 -350 5562 -425 
Q 5500 -500 5475 -500 
Q 5375 -500 5200 -275 
Q 4925 50 3900 650 
L 3925 725 
z
M 2150 750 
L 2575 350 
Q 2275 350 1775 75 
Q 1275 -225 425 -525 
L 375 -450 
Q 1600 150 2150 750 
z
" transform="scale(0.015625)"/>
       <path id="SimSun-5f15" d="M 5075 4675 
L 5075 575 
Q 5075 100 5100 -425 
L 4700 -600 
Q 4725 175 4725 725 
Q 4725 4575 4700 5150 
L 5300 4850 
L 5075 4675 
z
M 3375 4475 
Q 3375 3475 3400 3125 
L 3025 3000 
L 3025 3250 
L 1525 3250 
L 1275 2150 
L 3125 2150 
L 3325 2400 
L 3750 2050 
L 3500 1900 
Q 3375 1125 3225 575 
Q 3075 25 2850 -187 
Q 2625 -400 2250 -475 
Q 2275 -125 1600 125 
L 1600 225 
Q 2125 125 2350 112 
Q 2575 100 2675 225 
Q 2775 350 2900 787 
Q 3025 1225 3150 2000 
L 1275 2000 
L 1100 1775 
L 725 2125 
Q 925 2200 1025 2575 
Q 1125 2950 1200 3675 
L 1575 3400 
L 3025 3400 
L 3025 4550 
L 1650 4550 
Q 1325 4550 1050 4475 
L 825 4700 
L 3000 4700 
L 3175 4950 
L 3575 4650 
L 3375 4475 
z
" transform="scale(0.015625)"/>
       <path id="SimSun-88c5" d="M 700 4725 
Q 1375 4450 1462 4325 
Q 1550 4200 1550 4125 
Q 1550 4025 1475 3887 
Q 1400 3750 1350 3750 
Q 1275 3750 1200 3925 
Q 1075 4225 650 4675 
L 700 4725 
z
M 2250 4775 
L 2250 2200 
L 1900 1975 
Q 1925 2600 1925 3475 
Q 1400 3150 1062 2887 
Q 725 2625 700 2475 
L 350 2900 
Q 775 3025 1925 3625 
Q 1925 4900 1900 5250 
L 2475 4925 
L 2250 4775 
z
M 2375 4000 
L 3900 4000 
Q 3900 4850 3875 5175 
L 4450 4925 
L 4225 4750 
L 4225 4000 
L 5125 4000 
L 5475 4350 
L 5950 3850 
L 4225 3850 
L 4225 2800 
L 4900 2800 
L 5250 3100 
L 5700 2650 
L 3475 2650 
Q 3150 2650 2875 2575 
L 2650 2800 
L 3900 2800 
L 3900 3850 
L 3200 3850 
Q 2875 3850 2600 3775 
L 2375 4000 
z
M 3125 1800 
Q 3125 2100 2650 2525 
L 2700 2575 
Q 3300 2375 3387 2250 
Q 3475 2125 3475 2050 
Q 3475 1950 3350 1800 
L 5050 1800 
L 5475 2175 
L 6000 1650 
L 3325 1650 
Q 3600 1225 4150 675 
Q 4775 1225 5000 1625 
L 5425 1200 
Q 5225 1175 4987 1050 
Q 4750 925 4250 600 
Q 4550 350 5037 162 
Q 5525 -25 6100 -75 
L 6100 -175 
Q 5675 -250 5550 -550 
Q 4825 -250 4262 212 
Q 3700 675 3175 1650 
Q 2825 1325 2450 1025 
L 2450 -25 
L 3750 375 
L 3800 300 
Q 2450 -300 2300 -625 
L 2000 -200 
Q 2150 -75 2125 75 
L 2125 800 
Q 1325 300 275 0 
L 250 75 
Q 1725 700 2725 1650 
L 1200 1650 
Q 875 1650 600 1575 
L 375 1800 
L 3125 1800 
z
" transform="scale(0.015625)"/>
       <path id="SimSun-8f7d" d="M 1850 5200 
L 2375 5000 
L 2200 4825 
L 2200 4325 
L 2675 4325 
L 2975 4600 
L 3400 4175 
L 2200 4175 
L 2200 3525 
L 3700 3525 
Q 3675 4525 3650 5200 
L 4200 4950 
L 4000 4775 
Q 4000 3950 4025 3525 
L 5250 3525 
L 5625 3850 
L 6100 3375 
L 4050 3375 
Q 4125 2300 4425 1400 
Q 4925 2200 5175 3075 
L 5650 2750 
L 5450 2575 
Q 5075 1775 4575 1050 
Q 4950 350 5650 -50 
L 5875 1050 
L 5975 1025 
Q 5925 350 5950 25 
Q 5975 -300 6075 -500 
Q 6125 -625 6025 -625 
Q 5975 -625 5775 -562 
Q 5575 -500 5125 -150 
Q 4675 200 4350 775 
Q 3575 -125 2625 -600 
L 2575 -525 
Q 3575 175 4175 1075 
Q 3825 1950 3725 3375 
L 1100 3375 
Q 775 3375 500 3300 
L 275 3525 
L 1875 3525 
L 1875 4175 
L 1525 4175 
Q 1200 4175 925 4100 
L 700 4325 
L 1875 4325 
Q 1875 4800 1850 5200 
z
M 4500 4850 
Q 5000 4650 5212 4512 
Q 5425 4375 5400 4187 
Q 5375 4000 5300 3925 
Q 5225 3850 5200 3850 
Q 5125 3850 5025 4050 
Q 4900 4325 4450 4775 
L 4500 4850 
z
M 500 525 
Q 850 550 1975 725 
L 1975 1400 
L 1150 1400 
L 975 1250 
L 700 1575 
Q 900 1575 1350 2450 
L 1150 2450 
Q 850 2450 575 2375 
L 350 2600 
L 1425 2600 
Q 1625 3025 1700 3300 
L 2150 3025 
L 1975 2950 
Q 1900 2850 1775 2600 
L 2700 2600 
L 3025 2900 
L 3425 2450 
L 1700 2450 
L 1175 1550 
L 1975 1550 
Q 1975 1925 1950 2300 
L 2450 2075 
L 2300 1900 
L 2300 1550 
L 2800 1550 
L 3075 1850 
L 3475 1400 
L 2300 1400 
L 2300 775 
L 3400 925 
L 3425 850 
L 2300 575 
Q 2300 -50 2325 -400 
L 1950 -550 
Q 1975 225 1975 500 
Q 850 275 725 100 
L 500 525 
z
" transform="scale(0.015625)"/>
       <path id="SimSun-7387" d="M 875 3725 
L 925 3800 
Q 1375 3650 1550 3525 
Q 1725 3400 1725 3250 
Q 1725 3175 1662 3025 
Q 1600 2875 1550 2875 
Q 1500 2875 1425 3050 
Q 1275 3325 875 3725 
z
M 550 1850 
Q 875 1925 2000 2575 
L 2050 2500 
Q 1675 2225 1337 1937 
Q 1000 1650 875 1425 
L 550 1850 
z
M 5200 3450 
Q 4800 3150 4275 2800 
L 4225 2875 
Q 4775 3400 5050 3925 
L 5450 3525 
L 5200 3450 
z
M 4325 2500 
L 4350 2575 
Q 5225 2350 5375 2212 
Q 5525 2075 5525 1900 
Q 5525 1775 5487 1662 
Q 5450 1550 5400 1550 
Q 5325 1550 5200 1800 
Q 4975 2150 4325 2500 
z
M 3150 3900 
Q 2500 3300 2300 3150 
Q 2800 3150 3400 3175 
Q 3700 3500 3850 3825 
L 4250 3450 
Q 4050 3400 3450 2825 
Q 2850 2250 2475 1950 
Q 3150 1975 3850 2000 
Q 3750 2175 3550 2450 
L 3600 2500 
Q 4050 2250 4200 2100 
Q 4350 1950 4350 1850 
Q 4350 1775 4250 1625 
Q 4150 1475 4100 1475 
Q 4075 1475 4050 1550 
Q 4000 1700 3900 1900 
Q 3650 1875 3075 1800 
L 3500 1550 
L 3325 1425 
L 3325 975 
L 5325 975 
L 5650 1300 
L 6100 825 
L 3325 825 
Q 3325 -275 3350 -525 
L 2975 -650 
Q 3000 0 3000 825 
L 1125 825 
Q 800 825 525 750 
L 300 975 
L 3000 975 
L 3000 1775 
Q 2450 1700 2200 1525 
L 1950 1950 
Q 2275 1950 2675 2350 
Q 3075 2750 3325 3050 
Q 2400 2950 2150 2775 
L 1950 3175 
Q 2150 3150 2475 3575 
Q 2800 4000 2900 4225 
L 1450 4225 
Q 1125 4225 850 4150 
L 625 4375 
L 3100 4375 
Q 3050 4800 2675 5200 
L 2725 5250 
Q 3225 5050 3337 4912 
Q 3450 4775 3450 4700 
Q 3450 4550 3250 4375 
L 5025 4375 
L 5350 4675 
L 5775 4225 
L 3050 4225 
L 3375 3950 
L 3150 3900 
z
" transform="scale(0.015625)"/>
       <path id="STIXGeneral-Regular-25" d="M 4390 1363 
Q 4390 781 4070 329 
Q 3750 -122 3341 -122 
Q 3014 -122 2790 134 
Q 2566 390 2566 762 
Q 2566 1274 2940 1693 
Q 3315 2112 3776 2112 
Q 4070 2112 4230 1917 
Q 4390 1722 4390 1363 
z
M 4243 1376 
Q 4243 1626 4131 1779 
Q 4019 1933 3840 1933 
Q 3654 1933 3526 1786 
Q 3315 1562 3171 1187 
Q 3027 813 3027 486 
Q 3027 301 3129 176 
Q 3232 51 3386 51 
Q 3718 51 3980 457 
Q 4243 864 4243 1376 
z
M 3974 4518 
L 1222 -115 
L 922 -115 
L 3443 4096 
Q 3264 3891 3094 3811 
Q 2925 3731 2669 3731 
Q 2445 3731 2182 3821 
Q 2208 3674 2208 3539 
Q 2208 3206 2067 2873 
Q 1926 2541 1696 2323 
Q 1453 2086 1146 2086 
Q 826 2086 608 2339 
Q 390 2592 390 2963 
Q 390 3507 761 3916 
Q 1133 4326 1626 4326 
Q 1792 4326 2010 4147 
Q 2310 3898 2624 3898 
Q 2918 3898 3084 3994 
Q 3251 4090 3693 4518 
L 3974 4518 
z
M 2054 3642 
Q 2054 3782 2025 3833 
Q 1997 3885 1894 3936 
Q 1747 4006 1613 4154 
Q 1414 4058 1331 3984 
Q 1248 3910 1152 3750 
Q 845 3264 845 2707 
Q 845 2509 944 2384 
Q 1043 2259 1210 2259 
Q 1549 2259 1801 2675 
Q 2054 3091 2054 3642 
z
" transform="scale(0.015625)"/>
      </defs>
      <use xlink:href="#SimSun-7d22" transform="translate(0 0.578125)"/>
      <use xlink:href="#SimSun-5f15" transform="translate(100 0.578125)"/>
      <use xlink:href="#SimSun-88c5" transform="translate(200 0.578125)"/>
      <use xlink:href="#SimSun-8f7d" transform="translate(300 0.578125)"/>
      <use xlink:href="#SimSun-7387" transform="translate(400 0.578125)"/>
      <use xlink:href="#SimSun-20" transform="translate(500 0.578125)"/>
      <use xlink:href="#STIXGeneral-Regular-28" transform="translate(550 0.578125)"/>
      <use xlink:href="#STIXGeneral-Regular-25" transform="translate(583.299988 0.578125)"/>
      <use xlink:href="#STIXGeneral-Regular-29" transform="translate(657.999969 0.578125)"/>
     </g>
    </g>
   </g>
   <g id="line2d_24">
    <path d="M 129.648994 690.998498 
L 131.959874 686.971152 
L 145.986771 663.063166 
L 159.42093 640.6715 
L 171.299883 621.282148 
L 184.003925 600.947286 
L 200.561957 575.070106 
L 212.872184 556.287281 
L 226.058857 536.553556 
L 239.350615 517.096812 
L 252.727988 497.960853 
L 266.787479 478.297889 
L 278.73832 461.923655 
L 295.832398 439.087876 
L 309.215042 421.643457 
L 322.577998 404.602042 
L 332.958932 391.618299 
L 343.323055 378.887276 
L 356.624802 362.870893 
L 371.374081 345.504649 
L 384.678728 330.224861 
L 397.888201 315.383795 
L 411.105675 300.863514 
L 422.781403 288.294906 
L 440.272988 269.929912 
L 454.014994 255.896202 
L 472.737738 237.312184 
L 486.346273 224.175462 
L 499.161887 212.088707 
L 511.954144 200.327455 
L 526.090843 187.665846 
L 540.166126 175.406567 
L 555.573044 162.399911 
L 568.130813 152.138805 
L 579.231636 143.325279 
L 588.899305 135.85218 
L 602.647102 125.583661 
L 610.86594 119.741449 
L 619.73407 113.798148 
L 629.263958 107.780717 
L 637.397669 102.931862 
L 645.488276 98.335728 
L 655.594038 92.916737 
L 663.644013 88.835478 
L 674.341641 83.735925 
L 683.683312 79.547512 
L 692.314158 75.904301 
L 702.892315 71.699714 
L 711.575447 68.453441 
L 722.149004 64.74486 
L 732.075709 61.477695 
L 749.720283 56.212358 
L 760.763883 53.218806 
L 771.778164 50.446973 
L 785.992309 47.171048 
L 800.794789 44.08719 
L 813.630989 41.667143 
L 827.6931 39.258553 
L 839.818942 37.366186 
L 853.189519 35.464383 
L 869.680975 33.359057 
L 888.656555 31.2261 
L 906.316819 29.490756 
L 926.466692 27.774282 
L 943.440656 26.518769 
L 964.747806 25.14869 
L 987.219288 23.91946 
L 1015.89226 22.632273 
L 1023.981042 22.316204 
L 1023.981042 22.316204 
" clip-path="url(#p9243596d18)" style="fill: none; stroke: #ff0000; stroke-width: 4; stroke-linecap: square"/>
   </g>
   <g id="line2d_25">
    <path d="M 129.687821 690.803735 
L 155.541932 647.032631 
L 165.308187 630.953574 
L 176.839936 612.314294 
L 192.920382 586.899423 
L 208.398984 563.060177 
L 221.766863 542.949057 
L 234.470491 524.26732 
L 245.726059 508.055501 
L 255.513164 494.207119 
L 268.371096 476.409565 
L 282.02033 457.98594 
L 294.215069 441.965514 
L 305.67727 427.270015 
L 316.392774 413.857659 
L 326.347359 401.689359 
L 336.304358 389.791976 
L 350.117023 373.784354 
L 360.85093 361.72186 
L 376.950283 344.270701 
L 387.662542 333.087673 
L 399.891964 320.744154 
L 412.085788 308.87238 
L 422.738834 298.851189 
L 432.60685 289.860422 
L 441.706253 281.834035 
L 454.554141 270.878792 
L 463.610578 263.443432 
L 474.137057 255.085476 
L 485.394584 246.46604 
L 498.869382 236.595807 
L 511.542105 227.731064 
L 522.681598 220.285596 
L 533.051723 213.604353 
L 544.868894 206.304451 
L 556.610063 199.366445 
L 566.783142 193.588929 
L 577.579263 187.703585 
L 588.290067 182.094549 
L 600.314508 176.073748 
L 612.268951 170.327906 
L 623.390321 165.17107 
L 635.06718 159.923255 
L 647.99024 154.31961 
L 665.446131 147.095188 
L 679.40157 141.585892 
L 687.301758 138.568752 
L 699.752391 133.958465 
L 709.470646 130.486429 
L 728.668427 123.922449 
L 746.420694 118.206259 
L 766.579734 112.118066 
L 782.880579 107.461953 
L 798.969725 103.102364 
L 821.629089 97.332935 
L 837.453102 93.556961 
L 856.767545 89.196699 
L 871.85577 85.972666 
L 891.630141 81.981037 
L 909.535911 78.585828 
L 937.967506 73.596125 
L 967.94519 68.804554 
L 988.953156 65.716652 
L 1015.70625 62.080854 
L 1021.715197 61.31865 
L 1021.715197 61.31865 
" clip-path="url(#p9243596d18)" style="fill: none; stroke-dasharray: 14.8,6.4; stroke-dashoffset: 0; stroke: #0000ff; stroke-width: 4"/>
   </g>
   <g id="patch_3">
    <path d="M 129.6 691.2 
L 129.6 17.28 
" style="fill: none; stroke: #000000; stroke-width: 0.8; stroke-linejoin: miter; stroke-linecap: square"/>
   </g>
   <g id="patch_4">
    <path d="M 1047.6 691.2 
L 1047.6 17.28 
" style="fill: none; stroke: #000000; stroke-width: 0.8; stroke-linejoin: miter; stroke-linecap: square"/>
   </g>
   <g id="patch_5">
    <path d="M 129.6 691.2 
L 1047.6 691.2 
" style="fill: none; stroke: #000000; stroke-width: 0.8; stroke-linejoin: miter; stroke-linecap: square"/>
   </g>
   <g id="patch_6">
    <path d="M 129.6 17.28 
L 1047.6 17.28 
" style="fill: none; stroke: #000000; stroke-width: 0.8; stroke-linejoin: miter; stroke-linecap: square"/>
   </g>
   <g id="legend_1">
    <g id="line2d_26">
     <path d="M 231.222109 825.8204 
L 274.222109 825.8204 
L 317.222109 825.8204 
" style="fill: none; stroke: #ff0000; stroke-width: 4; stroke-linecap: square"/>
    </g>
    <g id="text_26">
     <!-- CaleKV -->
     <g transform="translate(351.622109 840.8704) scale(0.43 -0.43)">
      <defs>
       <path id="TimesNewRomanPS-BoldMT-43" d="M 4272 4334 
L 4272 2866 
L 4150 2866 
Q 4013 3441 3638 3747 
Q 3263 4053 2788 4053 
Q 2391 4053 2059 3825 
Q 1728 3597 1575 3228 
Q 1378 2756 1378 2178 
Q 1378 1609 1522 1142 
Q 1666 675 1972 436 
Q 2278 197 2766 197 
Q 3166 197 3498 372 
Q 3831 547 4200 975 
L 4200 609 
Q 3844 238 3458 70 
Q 3072 -97 2556 -97 
Q 1878 -97 1351 175 
Q 825 447 539 956 
Q 253 1466 253 2041 
Q 253 2647 570 3190 
Q 888 3734 1427 4034 
Q 1966 4334 2572 4334 
Q 3019 4334 3516 4141 
Q 3803 4028 3881 4028 
Q 3981 4028 4054 4101 
Q 4128 4175 4150 4334 
L 4272 4334 
z
" transform="scale(0.015625)"/>
       <path id="TimesNewRomanPS-BoldMT-61" d="M 1828 431 
Q 1294 -41 869 -41 
Q 619 -41 453 123 
Q 288 288 288 534 
Q 288 869 575 1136 
Q 863 1403 1828 1847 
L 1828 2141 
Q 1828 2472 1792 2558 
Q 1756 2644 1656 2708 
Q 1556 2772 1431 2772 
Q 1228 2772 1097 2681 
Q 1016 2625 1016 2550 
Q 1016 2484 1103 2388 
Q 1222 2253 1222 2128 
Q 1222 1975 1108 1867 
Q 994 1759 809 1759 
Q 613 1759 480 1878 
Q 347 1997 347 2156 
Q 347 2381 525 2586 
Q 703 2791 1022 2900 
Q 1341 3009 1684 3009 
Q 2100 3009 2342 2832 
Q 2584 2656 2656 2450 
Q 2700 2319 2700 1847 
L 2700 713 
Q 2700 513 2715 461 
Q 2731 409 2762 384 
Q 2794 359 2834 359 
Q 2916 359 3000 475 
L 3094 400 
Q 2938 169 2770 64 
Q 2603 -41 2391 -41 
Q 2141 -41 2000 76 
Q 1859 194 1828 431 
z
M 1828 659 
L 1828 1638 
Q 1450 1416 1266 1163 
Q 1144 994 1144 822 
Q 1144 678 1247 569 
Q 1325 484 1466 484 
Q 1622 484 1828 659 
z
" transform="scale(0.015625)"/>
       <path id="TimesNewRomanPS-BoldMT-6c" d="M 1359 4238 
L 1359 606 
Q 1359 297 1431 211 
Q 1503 125 1713 113 
L 1713 0 
L 134 0 
L 134 113 
Q 328 119 422 225 
Q 484 297 484 606 
L 484 3631 
Q 484 3938 412 4023 
Q 341 4109 134 4122 
L 134 4238 
L 1359 4238 
z
" transform="scale(0.015625)"/>
       <path id="TimesNewRomanPS-BoldMT-65" d="M 2691 1566 
L 1088 1566 
Q 1116 984 1397 647 
Q 1613 388 1916 388 
Q 2103 388 2256 492 
Q 2409 597 2584 869 
L 2691 800 
Q 2453 316 2165 114 
Q 1878 -88 1500 -88 
Q 850 -88 516 413 
Q 247 816 247 1413 
Q 247 2144 642 2576 
Q 1038 3009 1569 3009 
Q 2013 3009 2339 2645 
Q 2666 2281 2691 1566 
z
M 1922 1775 
Q 1922 2278 1867 2465 
Q 1813 2653 1697 2750 
Q 1631 2806 1522 2806 
Q 1359 2806 1256 2647 
Q 1072 2369 1072 1884 
L 1072 1775 
L 1922 1775 
z
" transform="scale(0.015625)"/>
       <path id="TimesNewRomanPS-BoldMT-4b" d="M 2666 2616 
L 4156 750 
Q 4472 356 4700 216 
Q 4866 116 5050 116 
L 5050 0 
L 2844 0 
L 2844 116 
Q 3053 134 3114 181 
Q 3175 228 3175 297 
Q 3175 428 2888 791 
L 1916 2013 
L 1759 1881 
L 1759 725 
Q 1759 394 1796 312 
Q 1834 231 1940 173 
Q 2047 116 2281 116 
L 2281 0 
L 144 0 
L 144 116 
L 284 116 
Q 469 116 581 181 
Q 663 225 706 331 
Q 741 406 741 725 
L 741 3513 
Q 741 3838 706 3919 
Q 672 4000 567 4061 
Q 463 4122 284 4122 
L 144 4122 
L 144 4238 
L 2253 4238 
L 2253 4122 
Q 2038 4122 1925 4059 
Q 1844 4016 1797 3913 
Q 1759 3834 1759 3513 
L 1759 2194 
L 3331 3466 
Q 3659 3731 3659 3891 
Q 3659 4009 3525 4078 
Q 3456 4113 3184 4122 
L 3184 4238 
L 4838 4238 
L 4838 4122 
Q 4616 4106 4489 4042 
Q 4363 3978 3906 3609 
L 2666 2616 
z
" transform="scale(0.015625)"/>
       <path id="TimesNewRomanPS-BoldMT-56" d="M 4556 4238 
L 4556 4122 
Q 4325 4084 4144 3875 
Q 4013 3719 3753 3141 
L 2294 -97 
L 2191 -97 
L 738 3272 
Q 475 3881 386 3987 
Q 297 4094 50 4122 
L 50 4238 
L 2081 4238 
L 2081 4122 
L 2013 4122 
Q 1738 4122 1638 4053 
Q 1566 4006 1566 3916 
Q 1566 3859 1591 3782 
Q 1616 3706 1759 3372 
L 2663 1263 
L 3500 3141 
Q 3650 3481 3684 3597 
Q 3719 3713 3719 3794 
Q 3719 3888 3669 3959 
Q 3619 4031 3522 4069 
Q 3388 4122 3166 4122 
L 3166 4238 
L 4556 4238 
z
" transform="scale(0.015625)"/>
      </defs>
      <use xlink:href="#TimesNewRomanPS-BoldMT-43"/>
      <use xlink:href="#TimesNewRomanPS-BoldMT-61" x="72.216797"/>
      <use xlink:href="#TimesNewRomanPS-BoldMT-6c" x="122.216797"/>
      <use xlink:href="#TimesNewRomanPS-BoldMT-65" x="150"/>
      <use xlink:href="#TimesNewRomanPS-BoldMT-4b" x="194.384766"/>
      <use xlink:href="#TimesNewRomanPS-BoldMT-56" x="272.167969"/>
     </g>
    </g>
    <g id="line2d_27">
     <path d="M 585.710078 825.8204 
L 628.710078 825.8204 
L 671.710078 825.8204 
" style="fill: none; stroke-dasharray: 14.8,6.4; stroke-dashoffset: 0; stroke: #0000ff; stroke-width: 4"/>
    </g>
    <g id="text_27">
     <!-- MICA-t -->
     <g transform="translate(706.110078 840.8704) scale(0.43 -0.43)">
      <defs>
       <path id="TimesNewRomanPS-BoldMT-4d" d="M 3050 1444 
L 4200 4238 
L 5925 4238 
L 5925 4122 
L 5788 4122 
Q 5600 4122 5488 4056 
Q 5409 4013 5363 3909 
Q 5328 3834 5328 3519 
L 5328 725 
Q 5328 400 5362 319 
Q 5397 238 5503 177 
Q 5609 116 5788 116 
L 5925 116 
L 5925 0 
L 3713 0 
L 3713 116 
L 3850 116 
Q 4038 116 4150 181 
Q 4228 225 4275 331 
Q 4309 406 4309 725 
L 4309 3866 
L 2684 0 
L 2609 0 
L 959 3838 
L 959 853 
Q 959 541 975 469 
Q 1016 313 1152 214 
Q 1288 116 1578 116 
L 1578 0 
L 128 0 
L 128 116 
L 172 116 
Q 313 113 434 161 
Q 556 209 618 290 
Q 681 372 716 519 
Q 722 553 722 838 
L 722 3519 
Q 722 3841 687 3920 
Q 653 4000 547 4061 
Q 441 4122 263 4122 
L 128 4122 
L 128 4238 
L 1859 4238 
L 3050 1444 
z
" transform="scale(0.015625)"/>
       <path id="TimesNewRomanPS-BoldMT-49" d="M 2344 116 
L 2344 0 
L 128 0 
L 128 116 
L 269 116 
Q 453 116 566 181 
Q 647 225 691 331 
Q 725 406 725 725 
L 725 3513 
Q 725 3838 690 3919 
Q 656 4000 551 4061 
Q 447 4122 269 4122 
L 128 4122 
L 128 4238 
L 2344 4238 
L 2344 4122 
L 2203 4122 
Q 2019 4122 1906 4056 
Q 1825 4013 1778 3906 
Q 1744 3831 1744 3513 
L 1744 725 
Q 1744 400 1780 319 
Q 1816 238 1920 177 
Q 2025 116 2203 116 
L 2344 116 
z
" transform="scale(0.015625)"/>
       <path id="TimesNewRomanPS-BoldMT-41" d="M 2663 1206 
L 1166 1206 
L 988 794 
Q 900 588 900 453 
Q 900 275 1044 191 
Q 1128 141 1459 116 
L 1459 0 
L 50 0 
L 50 116 
Q 278 150 425 304 
Q 572 459 788 944 
L 2303 4325 
L 2363 4325 
L 3891 850 
Q 4109 356 4250 228 
Q 4356 131 4550 116 
L 4550 0 
L 2500 0 
L 2500 116 
L 2584 116 
Q 2831 116 2931 184 
Q 3000 234 3000 328 
Q 3000 384 2981 444 
Q 2975 472 2888 678 
L 2663 1206 
z
M 2556 1438 
L 1925 2897 
L 1275 1438 
L 2556 1438 
z
" transform="scale(0.015625)"/>
       <path id="TimesNewRomanPS-BoldMT-2d" d="M 1978 1147 
L 156 1147 
L 156 1794 
L 1978 1794 
L 1978 1147 
z
" transform="scale(0.015625)"/>
       <path id="TimesNewRomanPS-BoldMT-74" d="M 1375 3991 
L 1375 2922 
L 2069 2922 
L 2069 2613 
L 1375 2613 
L 1375 809 
Q 1375 556 1398 482 
Q 1422 409 1481 364 
Q 1541 319 1591 319 
Q 1794 319 1975 628 
L 2069 559 
Q 1816 -41 1247 -41 
Q 969 -41 776 114 
Q 584 269 531 459 
Q 500 566 500 1034 
L 500 2613 
L 119 2613 
L 119 2722 
Q 513 3000 789 3306 
Q 1066 3613 1272 3991 
L 1375 3991 
z
" transform="scale(0.015625)"/>
      </defs>
      <use xlink:href="#TimesNewRomanPS-BoldMT-4d"/>
      <use xlink:href="#TimesNewRomanPS-BoldMT-49" x="94.384766"/>
      <use xlink:href="#TimesNewRomanPS-BoldMT-43" x="133.300781"/>
      <use xlink:href="#TimesNewRomanPS-BoldMT-41" x="205.517578"/>
      <use xlink:href="#TimesNewRomanPS-BoldMT-2d" x="277.734375"/>
      <use xlink:href="#TimesNewRomanPS-BoldMT-74" x="311.035156"/>
     </g>
    </g>
   </g>
  </g>
 </g>
 <defs>
  <clipPath id="p9243596d18">
   <rect x="129.6" y="17.28" width="918" height="673.92"/>
  </clipPath>
 </defs>
</svg>
