<?xml version="1.0" encoding="utf-8" standalone="no"?>
<!DOCTYPE svg PUBLIC "-//W3C//DTD SVG 1.1//EN"
  "http://www.w3.org/Graphics/SVG/1.1/DTD/svg11.dtd">
<svg xmlns:xlink="http://www.w3.org/1999/xlink" width="921.6pt" height="518.4pt" viewBox="0 0 921.6 518.4" xmlns="http://www.w3.org/2000/svg" version="1.1">
 <metadata>
  <rdf:RDF xmlns:dc="http://purl.org/dc/elements/1.1/" xmlns:cc="http://creativecommons.org/ns#" xmlns:rdf="http://www.w3.org/1999/02/22-rdf-syntax-ns#">
   <cc:Work>
    <dc:type rdf:resource="http://purl.org/dc/dcmitype/StillImage"/>
    <dc:date>2023-08-23T12:20:36.230559</dc:date>
    <dc:format>image/svg+xml</dc:format>
    <dc:creator>
     <cc:Agent>
      <dc:title>Matplotlib v3.7.1, https://matplotlib.org/</dc:title>
     </cc:Agent>
    </dc:creator>
   </cc:Work>
  </rdf:RDF>
 </metadata>
 <defs>
  <style type="text/css">*{stroke-linejoin: round; stroke-linecap: butt}</style>
 </defs>
 <g id="figure_1">
  <g id="patch_1">
   <path d="M 0 518.4 
L 921.6 518.4 
L 921.6 0 
L 0 0 
z
" style="fill: #ffffff"/>
  </g>
  <g id="axes_1">
   <g id="patch_2">
    <path d="M 115.2 461.376 
L 829.44 461.376 
L 829.44 62.208 
L 115.2 62.208 
z
" style="fill: #ffffff"/>
   </g>
   <g id="matplotlib.axis_1">
    <g id="xtick_1">
     <g id="line2d_1">
      <defs>
       <path id="m7ccdfdc8b9" d="M 0 0 
L 0 3.5 
" style="stroke: #000000; stroke-width: 0.8"/>
      </defs>
      <g>
       <use xlink:href="#m7ccdfdc8b9" x="115.2" y="461.376" style="stroke: #000000; stroke-width: 0.8"/>
      </g>
     </g>
     <g id="text_1">
      <!-- 0 -->
      <g transform="translate(110.45 481.958031) scale(0.19 -0.19)">
       <defs>
        <path id="SimSun-30" d="M 1600 4225 
Q 1250 4225 1012 3687 
Q 775 3150 775 2250 
Q 775 1300 1012 775 
Q 1250 250 1600 250 
Q 1975 250 2187 775 
Q 2400 1300 2400 2250 
Q 2400 3150 2200 3687 
Q 2000 4225 1600 4225 
z
M 1600 50 
Q 1050 50 675 625 
Q 300 1200 300 2250 
Q 300 3225 662 3825 
Q 1025 4425 1600 4425 
Q 2150 4425 2512 3850 
Q 2875 3275 2875 2250 
Q 2875 1225 2512 637 
Q 2150 50 1600 50 
z
" transform="scale(0.015625)"/>
       </defs>
       <use xlink:href="#SimSun-30"/>
      </g>
     </g>
    </g>
    <g id="xtick_2">
     <g id="line2d_2">
      <g>
       <use xlink:href="#m7ccdfdc8b9" x="186.624" y="461.376" style="stroke: #000000; stroke-width: 0.8"/>
      </g>
     </g>
     <g id="text_2">
      <!-- 10 -->
      <g transform="translate(177.124 481.958031) scale(0.19 -0.19)">
       <defs>
        <path id="SimSun-31" d="M 1825 4450 
L 1825 650 
Q 1825 450 1950 350 
Q 2075 250 2300 250 
L 2550 250 
L 2550 100 
L 725 100 
L 725 250 
L 950 250 
Q 1200 250 1312 350 
Q 1425 450 1425 650 
L 1425 3675 
Q 1425 3775 1362 3837 
Q 1300 3900 1175 3900 
L 725 3900 
L 725 4050 
L 950 4050 
Q 1250 4050 1437 4150 
Q 1625 4250 1725 4450 
L 1825 4450 
z
" transform="scale(0.015625)"/>
       </defs>
       <use xlink:href="#SimSun-31"/>
       <use xlink:href="#SimSun-30" x="50"/>
      </g>
     </g>
    </g>
    <g id="xtick_3">
     <g id="line2d_3">
      <g>
       <use xlink:href="#m7ccdfdc8b9" x="258.048" y="461.376" style="stroke: #000000; stroke-width: 0.8"/>
      </g>
     </g>
     <g id="text_3">
      <!-- 20 -->
      <g transform="translate(248.548 481.958031) scale(0.19 -0.19)">
       <defs>
        <path id="SimSun-32" d="M 2325 3325 
Q 2325 3775 2125 4012 
Q 1925 4250 1525 4250 
Q 1225 4250 1012 4087 
Q 800 3925 800 3675 
Q 800 3525 900 3425 
Q 975 3325 975 3225 
Q 975 3100 912 3037 
Q 850 2975 725 2975 
Q 575 2975 487 3062 
Q 400 3150 400 3350 
Q 400 3875 775 4150 
Q 1150 4425 1575 4425 
Q 2175 4425 2462 4125 
Q 2750 3825 2750 3375 
Q 2750 3075 2612 2775 
Q 2475 2475 2175 2200 
Q 1450 1500 1062 1062 
Q 675 625 600 475 
L 2075 475 
Q 2300 475 2450 650 
Q 2600 825 2650 1175 
L 2800 1175 
L 2650 100 
L 325 100 
L 325 425 
Q 450 650 737 1000 
Q 1025 1350 1500 1825 
Q 1925 2250 2125 2625 
Q 2325 3000 2325 3325 
z
" transform="scale(0.015625)"/>
       </defs>
       <use xlink:href="#SimSun-32"/>
       <use xlink:href="#SimSun-30" x="50"/>
      </g>
     </g>
    </g>
    <g id="xtick_4">
     <g id="line2d_4">
      <g>
       <use xlink:href="#m7ccdfdc8b9" x="329.472" y="461.376" style="stroke: #000000; stroke-width: 0.8"/>
      </g>
     </g>
     <g id="text_4">
      <!-- 30 -->
      <g transform="translate(319.972 481.958031) scale(0.19 -0.19)">
       <defs>
        <path id="SimSun-33" d="M 2800 1250 
Q 2800 775 2450 412 
Q 2100 50 1475 50 
Q 1025 50 700 300 
Q 375 550 375 875 
Q 375 1025 475 1137 
Q 575 1250 675 1250 
Q 825 1250 887 1137 
Q 950 1025 950 950 
Q 950 825 900 750 
Q 850 650 850 575 
Q 850 425 1037 325 
Q 1225 225 1450 225 
Q 1900 225 2125 487 
Q 2350 750 2350 1300 
Q 2350 1750 2112 2025 
Q 1875 2300 1225 2300 
L 1225 2475 
Q 1725 2475 1962 2712 
Q 2200 2950 2200 3375 
Q 2200 3725 2012 3987 
Q 1825 4250 1425 4250 
Q 1250 4250 1050 4162 
Q 850 4075 850 3875 
Q 850 3675 900 3625 
Q 950 3575 950 3500 
Q 950 3375 900 3300 
Q 850 3225 725 3225 
Q 625 3225 537 3300 
Q 450 3375 450 3575 
Q 450 3950 775 4187 
Q 1100 4425 1525 4425 
Q 2025 4425 2325 4112 
Q 2625 3800 2625 3450 
Q 2625 3075 2437 2812 
Q 2250 2550 1850 2425 
Q 2400 2225 2600 1900 
Q 2800 1575 2800 1250 
z
" transform="scale(0.015625)"/>
       </defs>
       <use xlink:href="#SimSun-33"/>
       <use xlink:href="#SimSun-30" x="50"/>
      </g>
     </g>
    </g>
    <g id="xtick_5">
     <g id="line2d_5">
      <g>
       <use xlink:href="#m7ccdfdc8b9" x="400.896" y="461.376" style="stroke: #000000; stroke-width: 0.8"/>
      </g>
     </g>
     <g id="text_5">
      <!-- 40 -->
      <g transform="translate(391.396 481.958031) scale(0.19 -0.19)">
       <defs>
        <path id="SimSun-34" d="M 2300 575 
Q 2300 400 2400 325 
Q 2500 250 2675 250 
L 2900 250 
L 2900 100 
L 1250 100 
L 1250 250 
L 1525 250 
Q 1725 250 1812 325 
Q 1900 400 1900 575 
L 1900 1400 
L 225 1400 
L 225 1525 
L 2050 4425 
L 2300 4425 
L 2300 1550 
L 2975 1550 
L 2975 1400 
L 2300 1400 
L 2300 575 
z
M 1875 3800 
L 450 1550 
L 1900 1550 
L 1900 3800 
L 1875 3800 
z
" transform="scale(0.015625)"/>
       </defs>
       <use xlink:href="#SimSun-34"/>
       <use xlink:href="#SimSun-30" x="50"/>
      </g>
     </g>
    </g>
    <g id="xtick_6">
     <g id="line2d_6">
      <g>
       <use xlink:href="#m7ccdfdc8b9" x="472.32" y="461.376" style="stroke: #000000; stroke-width: 0.8"/>
      </g>
     </g>
     <g id="text_6">
      <!-- 50 -->
      <g transform="translate(462.82 481.958031) scale(0.19 -0.19)">
       <defs>
        <path id="SimSun-35" d="M 1725 2850 
Q 2200 2850 2500 2487 
Q 2800 2125 2800 1525 
Q 2800 850 2487 450 
Q 2175 50 1525 50 
Q 1075 50 725 312 
Q 375 575 375 950 
Q 375 1100 462 1212 
Q 550 1325 700 1325 
Q 850 1325 900 1225 
Q 950 1125 950 1050 
Q 950 900 875 825 
Q 800 725 800 625 
Q 800 425 1037 325 
Q 1275 225 1550 225 
Q 1950 225 2162 550 
Q 2375 875 2375 1475 
Q 2375 1975 2187 2287 
Q 2000 2600 1625 2600 
Q 1350 2600 1150 2500 
Q 950 2400 775 2075 
L 550 2100 
L 675 4375 
L 2725 4375 
L 2650 4000 
L 850 4000 
L 750 2350 
Q 1000 2700 1237 2775 
Q 1475 2850 1725 2850 
z
" transform="scale(0.015625)"/>
       </defs>
       <use xlink:href="#SimSun-35"/>
       <use xlink:href="#SimSun-30" x="50"/>
      </g>
     </g>
    </g>
    <g id="xtick_7">
     <g id="line2d_7">
      <g>
       <use xlink:href="#m7ccdfdc8b9" x="543.744" y="461.376" style="stroke: #000000; stroke-width: 0.8"/>
      </g>
     </g>
     <g id="text_7">
      <!-- 60 -->
      <g transform="translate(534.244 481.958031) scale(0.19 -0.19)">
       <defs>
        <path id="SimSun-36" d="M 775 1800 
Q 775 1050 1037 637 
Q 1300 225 1675 225 
Q 2050 225 2250 500 
Q 2450 775 2450 1525 
Q 2450 2025 2237 2300 
Q 2025 2575 1725 2575 
Q 1450 2575 1212 2412 
Q 975 2250 775 1800 
z
M 1750 2825 
Q 2350 2825 2612 2425 
Q 2875 2025 2875 1525 
Q 2875 775 2512 412 
Q 2150 50 1675 50 
Q 1000 50 650 562 
Q 300 1075 300 2050 
Q 300 3200 725 3812 
Q 1150 4425 1875 4425 
Q 2225 4425 2437 4225 
Q 2650 4025 2650 3875 
Q 2650 3725 2587 3650 
Q 2525 3575 2375 3575 
Q 2250 3575 2187 3637 
Q 2125 3700 2125 3825 
Q 2125 3875 2150 3925 
Q 2150 3975 2150 4025 
Q 2150 4125 2075 4187 
Q 2000 4250 1800 4250 
Q 1375 4250 1075 3862 
Q 775 3475 775 2175 
Q 925 2500 1187 2662 
Q 1450 2825 1750 2825 
z
" transform="scale(0.015625)"/>
       </defs>
       <use xlink:href="#SimSun-36"/>
       <use xlink:href="#SimSun-30" x="50"/>
      </g>
     </g>
    </g>
    <g id="xtick_8">
     <g id="line2d_8">
      <g>
       <use xlink:href="#m7ccdfdc8b9" x="615.168" y="461.376" style="stroke: #000000; stroke-width: 0.8"/>
      </g>
     </g>
     <g id="text_8">
      <!-- 70 -->
      <g transform="translate(605.668 481.958031) scale(0.19 -0.19)">
       <defs>
        <path id="SimSun-37" d="M 2825 4200 
Q 2300 3350 1987 2537 
Q 1675 1725 1675 1125 
Q 1675 1025 1700 850 
Q 1700 650 1700 400 
Q 1700 200 1637 125 
Q 1575 50 1425 50 
Q 1300 50 1212 137 
Q 1125 225 1125 450 
Q 1125 925 1337 1625 
Q 1550 2325 2475 4000 
L 1225 4000 
Q 950 4000 787 3825 
Q 625 3650 550 3300 
L 400 3325 
L 575 4375 
L 2825 4375 
L 2825 4200 
z
" transform="scale(0.015625)"/>
       </defs>
       <use xlink:href="#SimSun-37"/>
       <use xlink:href="#SimSun-30" x="50"/>
      </g>
     </g>
    </g>
    <g id="xtick_9">
     <g id="line2d_9">
      <g>
       <use xlink:href="#m7ccdfdc8b9" x="686.592" y="461.376" style="stroke: #000000; stroke-width: 0.8"/>
      </g>
     </g>
     <g id="text_9">
      <!-- 80 -->
      <g transform="translate(677.092 481.958031) scale(0.19 -0.19)">
       <defs>
        <path id="SimSun-38" d="M 625 1125 
Q 625 725 887 475 
Q 1150 225 1550 225 
Q 2025 225 2237 475 
Q 2450 725 2450 1100 
Q 2450 1425 2150 1725 
Q 1850 2025 1250 2275 
Q 950 2075 787 1775 
Q 625 1475 625 1125 
z
M 2825 1175 
Q 2825 700 2475 375 
Q 2125 50 1550 50 
Q 1025 50 650 375 
Q 275 700 275 1125 
Q 275 1550 487 1850 
Q 700 2150 1100 2375 
Q 750 2550 562 2812 
Q 375 3075 375 3400 
Q 375 3825 700 4125 
Q 1025 4425 1600 4425 
Q 2125 4425 2450 4125 
Q 2775 3825 2775 3400 
Q 2775 3100 2587 2837 
Q 2400 2575 2000 2375 
Q 2425 2125 2625 1825 
Q 2825 1525 2825 1175 
z
M 2425 3375 
Q 2425 3725 2225 3987 
Q 2025 4250 1600 4250 
Q 1125 4250 925 4000 
Q 725 3750 725 3475 
Q 725 3200 1012 2937 
Q 1300 2675 1825 2475 
Q 2125 2625 2275 2850 
Q 2425 3075 2425 3375 
z
" transform="scale(0.015625)"/>
       </defs>
       <use xlink:href="#SimSun-38"/>
       <use xlink:href="#SimSun-30" x="50"/>
      </g>
     </g>
    </g>
    <g id="xtick_10">
     <g id="line2d_10">
      <g>
       <use xlink:href="#m7ccdfdc8b9" x="758.016" y="461.376" style="stroke: #000000; stroke-width: 0.8"/>
      </g>
     </g>
     <g id="text_10">
      <!-- 90 -->
      <g transform="translate(748.516 481.958031) scale(0.19 -0.19)">
       <defs>
        <path id="SimSun-39" d="M 700 3050 
Q 700 2500 912 2212 
Q 1125 1925 1450 1925 
Q 1825 1925 2100 2275 
Q 2375 2625 2375 2925 
Q 2375 3525 2175 3887 
Q 1975 4250 1525 4250 
Q 1100 4250 900 3912 
Q 700 3575 700 3050 
z
M 1375 1700 
Q 875 1700 575 2012 
Q 275 2325 275 3025 
Q 275 3625 600 4025 
Q 925 4425 1525 4425 
Q 2150 4425 2500 3925 
Q 2850 3425 2850 2475 
Q 2850 1425 2437 737 
Q 2025 50 1300 50 
Q 975 50 737 200 
Q 500 350 500 600 
Q 500 700 562 800 
Q 625 900 775 900 
Q 925 900 975 787 
Q 1025 675 1025 525 
Q 1025 425 1050 362 
Q 1075 300 1100 275 
Q 1125 250 1187 237 
Q 1250 225 1325 225 
Q 1775 225 2050 725 
Q 2325 1225 2375 2400 
Q 2250 2100 2000 1900 
Q 1750 1700 1375 1700 
z
" transform="scale(0.015625)"/>
       </defs>
       <use xlink:href="#SimSun-39"/>
       <use xlink:href="#SimSun-30" x="50"/>
      </g>
     </g>
    </g>
    <g id="xtick_11">
     <g id="line2d_11">
      <g>
       <use xlink:href="#m7ccdfdc8b9" x="829.44" y="461.376" style="stroke: #000000; stroke-width: 0.8"/>
      </g>
     </g>
     <g id="text_11">
      <!-- 100 -->
      <g transform="translate(815.19 481.958031) scale(0.19 -0.19)">
       <use xlink:href="#SimSun-31"/>
       <use xlink:href="#SimSun-30" x="50"/>
       <use xlink:href="#SimSun-30" x="100"/>
      </g>
     </g>
    </g>
    <g id="text_12">
     <!-- 索引装载率 $\mathrm{(\%)}$ -->
     <g transform="translate(406.58 504.17725) scale(0.19 -0.19)">
      <defs>
       <path id="SimSun-7d22" d="M 4725 1325 
Q 4375 1250 3450 1150 
L 3450 -50 
Q 3475 -500 2875 -625 
Q 2875 -325 2200 -125 
L 2200 -25 
Q 2850 -75 2987 -75 
Q 3125 -75 3100 175 
L 3100 1100 
Q 2400 1025 2050 925 
Q 1700 825 1475 700 
L 1225 1175 
Q 1525 1250 2050 1525 
Q 2575 1800 3225 2200 
Q 2900 2200 2437 2150 
Q 1975 2100 1650 1950 
L 1425 2375 
Q 1775 2425 2212 2737 
Q 2650 3050 2875 3375 
L 1000 3375 
Q 1050 3000 975 2850 
Q 900 2700 800 2675 
Q 700 2650 625 2650 
Q 525 2650 462 2675 
Q 400 2700 400 2725 
Q 400 2800 550 2975 
Q 750 3225 875 3800 
L 975 3800 
L 1000 3525 
L 3025 3525 
L 3025 4250 
L 1575 4250 
Q 1375 4250 1100 4175 
L 875 4400 
L 3025 4400 
L 3025 4775 
Q 3025 5025 3000 5275 
L 3625 5050 
L 3375 4900 
L 3375 4400 
L 4725 4400 
L 5125 4750 
L 5575 4250 
L 3375 4250 
L 3375 3525 
L 5300 3525 
L 5500 3750 
L 5950 3325 
Q 5600 3300 5050 2675 
L 4975 2725 
L 5325 3375 
L 2925 3375 
L 3325 3100 
Q 3100 3075 2675 2800 
Q 2250 2500 1925 2350 
L 3425 2375 
Q 3775 2625 4050 3000 
L 4475 2625 
Q 4250 2600 3850 2325 
Q 3425 2050 2975 1787 
Q 2525 1525 2025 1250 
L 4625 1450 
Q 4275 1825 3950 2050 
L 4000 2125 
Q 4700 1850 4962 1662 
Q 5225 1475 5275 1312 
Q 5325 1150 5212 937 
Q 5100 725 4987 925 
Q 4875 1125 4725 1325 
z
M 3925 725 
Q 5025 375 5312 212 
Q 5600 50 5612 -150 
Q 5625 -350 5562 -425 
Q 5500 -500 5475 -500 
Q 5375 -500 5200 -275 
Q 4925 50 3900 650 
L 3925 725 
z
M 2150 750 
L 2575 350 
Q 2275 350 1775 75 
Q 1275 -225 425 -525 
L 375 -450 
Q 1600 150 2150 750 
z
" transform="scale(0.015625)"/>
       <path id="SimSun-5f15" d="M 5075 4675 
L 5075 575 
Q 5075 100 5100 -425 
L 4700 -600 
Q 4725 175 4725 725 
Q 4725 4575 4700 5150 
L 5300 4850 
L 5075 4675 
z
M 3375 4475 
Q 3375 3475 3400 3125 
L 3025 3000 
L 3025 3250 
L 1525 3250 
L 1275 2150 
L 3125 2150 
L 3325 2400 
L 3750 2050 
L 3500 1900 
Q 3375 1125 3225 575 
Q 3075 25 2850 -187 
Q 2625 -400 2250 -475 
Q 2275 -125 1600 125 
L 1600 225 
Q 2125 125 2350 112 
Q 2575 100 2675 225 
Q 2775 350 2900 787 
Q 3025 1225 3150 2000 
L 1275 2000 
L 1100 1775 
L 725 2125 
Q 925 2200 1025 2575 
Q 1125 2950 1200 3675 
L 1575 3400 
L 3025 3400 
L 3025 4550 
L 1650 4550 
Q 1325 4550 1050 4475 
L 825 4700 
L 3000 4700 
L 3175 4950 
L 3575 4650 
L 3375 4475 
z
" transform="scale(0.015625)"/>
       <path id="SimSun-88c5" d="M 700 4725 
Q 1375 4450 1462 4325 
Q 1550 4200 1550 4125 
Q 1550 4025 1475 3887 
Q 1400 3750 1350 3750 
Q 1275 3750 1200 3925 
Q 1075 4225 650 4675 
L 700 4725 
z
M 2250 4775 
L 2250 2200 
L 1900 1975 
Q 1925 2600 1925 3475 
Q 1400 3150 1062 2887 
Q 725 2625 700 2475 
L 350 2900 
Q 775 3025 1925 3625 
Q 1925 4900 1900 5250 
L 2475 4925 
L 2250 4775 
z
M 2375 4000 
L 3900 4000 
Q 3900 4850 3875 5175 
L 4450 4925 
L 4225 4750 
L 4225 4000 
L 5125 4000 
L 5475 4350 
L 5950 3850 
L 4225 3850 
L 4225 2800 
L 4900 2800 
L 5250 3100 
L 5700 2650 
L 3475 2650 
Q 3150 2650 2875 2575 
L 2650 2800 
L 3900 2800 
L 3900 3850 
L 3200 3850 
Q 2875 3850 2600 3775 
L 2375 4000 
z
M 3125 1800 
Q 3125 2100 2650 2525 
L 2700 2575 
Q 3300 2375 3387 2250 
Q 3475 2125 3475 2050 
Q 3475 1950 3350 1800 
L 5050 1800 
L 5475 2175 
L 6000 1650 
L 3325 1650 
Q 3600 1225 4150 675 
Q 4775 1225 5000 1625 
L 5425 1200 
Q 5225 1175 4987 1050 
Q 4750 925 4250 600 
Q 4550 350 5037 162 
Q 5525 -25 6100 -75 
L 6100 -175 
Q 5675 -250 5550 -550 
Q 4825 -250 4262 212 
Q 3700 675 3175 1650 
Q 2825 1325 2450 1025 
L 2450 -25 
L 3750 375 
L 3800 300 
Q 2450 -300 2300 -625 
L 2000 -200 
Q 2150 -75 2125 75 
L 2125 800 
Q 1325 300 275 0 
L 250 75 
Q 1725 700 2725 1650 
L 1200 1650 
Q 875 1650 600 1575 
L 375 1800 
L 3125 1800 
z
" transform="scale(0.015625)"/>
       <path id="SimSun-8f7d" d="M 1850 5200 
L 2375 5000 
L 2200 4825 
L 2200 4325 
L 2675 4325 
L 2975 4600 
L 3400 4175 
L 2200 4175 
L 2200 3525 
L 3700 3525 
Q 3675 4525 3650 5200 
L 4200 4950 
L 4000 4775 
Q 4000 3950 4025 3525 
L 5250 3525 
L 5625 3850 
L 6100 3375 
L 4050 3375 
Q 4125 2300 4425 1400 
Q 4925 2200 5175 3075 
L 5650 2750 
L 5450 2575 
Q 5075 1775 4575 1050 
Q 4950 350 5650 -50 
L 5875 1050 
L 5975 1025 
Q 5925 350 5950 25 
Q 5975 -300 6075 -500 
Q 6125 -625 6025 -625 
Q 5975 -625 5775 -562 
Q 5575 -500 5125 -150 
Q 4675 200 4350 775 
Q 3575 -125 2625 -600 
L 2575 -525 
Q 3575 175 4175 1075 
Q 3825 1950 3725 3375 
L 1100 3375 
Q 775 3375 500 3300 
L 275 3525 
L 1875 3525 
L 1875 4175 
L 1525 4175 
Q 1200 4175 925 4100 
L 700 4325 
L 1875 4325 
Q 1875 4800 1850 5200 
z
M 4500 4850 
Q 5000 4650 5212 4512 
Q 5425 4375 5400 4187 
Q 5375 4000 5300 3925 
Q 5225 3850 5200 3850 
Q 5125 3850 5025 4050 
Q 4900 4325 4450 4775 
L 4500 4850 
z
M 500 525 
Q 850 550 1975 725 
L 1975 1400 
L 1150 1400 
L 975 1250 
L 700 1575 
Q 900 1575 1350 2450 
L 1150 2450 
Q 850 2450 575 2375 
L 350 2600 
L 1425 2600 
Q 1625 3025 1700 3300 
L 2150 3025 
L 1975 2950 
Q 1900 2850 1775 2600 
L 2700 2600 
L 3025 2900 
L 3425 2450 
L 1700 2450 
L 1175 1550 
L 1975 1550 
Q 1975 1925 1950 2300 
L 2450 2075 
L 2300 1900 
L 2300 1550 
L 2800 1550 
L 3075 1850 
L 3475 1400 
L 2300 1400 
L 2300 775 
L 3400 925 
L 3425 850 
L 2300 575 
Q 2300 -50 2325 -400 
L 1950 -550 
Q 1975 225 1975 500 
Q 850 275 725 100 
L 500 525 
z
" transform="scale(0.015625)"/>
       <path id="SimSun-7387" d="M 875 3725 
L 925 3800 
Q 1375 3650 1550 3525 
Q 1725 3400 1725 3250 
Q 1725 3175 1662 3025 
Q 1600 2875 1550 2875 
Q 1500 2875 1425 3050 
Q 1275 3325 875 3725 
z
M 550 1850 
Q 875 1925 2000 2575 
L 2050 2500 
Q 1675 2225 1337 1937 
Q 1000 1650 875 1425 
L 550 1850 
z
M 5200 3450 
Q 4800 3150 4275 2800 
L 4225 2875 
Q 4775 3400 5050 3925 
L 5450 3525 
L 5200 3450 
z
M 4325 2500 
L 4350 2575 
Q 5225 2350 5375 2212 
Q 5525 2075 5525 1900 
Q 5525 1775 5487 1662 
Q 5450 1550 5400 1550 
Q 5325 1550 5200 1800 
Q 4975 2150 4325 2500 
z
M 3150 3900 
Q 2500 3300 2300 3150 
Q 2800 3150 3400 3175 
Q 3700 3500 3850 3825 
L 4250 3450 
Q 4050 3400 3450 2825 
Q 2850 2250 2475 1950 
Q 3150 1975 3850 2000 
Q 3750 2175 3550 2450 
L 3600 2500 
Q 4050 2250 4200 2100 
Q 4350 1950 4350 1850 
Q 4350 1775 4250 1625 
Q 4150 1475 4100 1475 
Q 4075 1475 4050 1550 
Q 4000 1700 3900 1900 
Q 3650 1875 3075 1800 
L 3500 1550 
L 3325 1425 
L 3325 975 
L 5325 975 
L 5650 1300 
L 6100 825 
L 3325 825 
Q 3325 -275 3350 -525 
L 2975 -650 
Q 3000 0 3000 825 
L 1125 825 
Q 800 825 525 750 
L 300 975 
L 3000 975 
L 3000 1775 
Q 2450 1700 2200 1525 
L 1950 1950 
Q 2275 1950 2675 2350 
Q 3075 2750 3325 3050 
Q 2400 2950 2150 2775 
L 1950 3175 
Q 2150 3150 2475 3575 
Q 2800 4000 2900 4225 
L 1450 4225 
Q 1125 4225 850 4150 
L 625 4375 
L 3100 4375 
Q 3050 4800 2675 5200 
L 2725 5250 
Q 3225 5050 3337 4912 
Q 3450 4775 3450 4700 
Q 3450 4550 3250 4375 
L 5025 4375 
L 5350 4675 
L 5775 4225 
L 3050 4225 
L 3375 3950 
L 3150 3900 
z
" transform="scale(0.015625)"/>
       <path id="SimSun-20" d="M 0 0 
Q 0 0 0 0 
z
" transform="scale(0.015625)"/>
       <path id="STIXGeneral-Regular-28" d="M 1946 -1030 
L 1869 -1133 
Q 1126 -710 716 32 
Q 307 774 307 1613 
Q 307 3386 1888 4326 
L 1946 4224 
Q 1293 3667 1075 3126 
Q 858 2586 858 1632 
Q 858 685 1082 96 
Q 1306 -493 1946 -1030 
z
" transform="scale(0.015625)"/>
       <path id="STIXGeneral-Regular-25" d="M 4390 1363 
Q 4390 781 4070 329 
Q 3750 -122 3341 -122 
Q 3014 -122 2790 134 
Q 2566 390 2566 762 
Q 2566 1274 2940 1693 
Q 3315 2112 3776 2112 
Q 4070 2112 4230 1917 
Q 4390 1722 4390 1363 
z
M 4243 1376 
Q 4243 1626 4131 1779 
Q 4019 1933 3840 1933 
Q 3654 1933 3526 1786 
Q 3315 1562 3171 1187 
Q 3027 813 3027 486 
Q 3027 301 3129 176 
Q 3232 51 3386 51 
Q 3718 51 3980 457 
Q 4243 864 4243 1376 
z
M 3974 4518 
L 1222 -115 
L 922 -115 
L 3443 4096 
Q 3264 3891 3094 3811 
Q 2925 3731 2669 3731 
Q 2445 3731 2182 3821 
Q 2208 3674 2208 3539 
Q 2208 3206 2067 2873 
Q 1926 2541 1696 2323 
Q 1453 2086 1146 2086 
Q 826 2086 608 2339 
Q 390 2592 390 2963 
Q 390 3507 761 3916 
Q 1133 4326 1626 4326 
Q 1792 4326 2010 4147 
Q 2310 3898 2624 3898 
Q 2918 3898 3084 3994 
Q 3251 4090 3693 4518 
L 3974 4518 
z
M 2054 3642 
Q 2054 3782 2025 3833 
Q 1997 3885 1894 3936 
Q 1747 4006 1613 4154 
Q 1414 4058 1331 3984 
Q 1248 3910 1152 3750 
Q 845 3264 845 2707 
Q 845 2509 944 2384 
Q 1043 2259 1210 2259 
Q 1549 2259 1801 2675 
Q 2054 3091 2054 3642 
z
" transform="scale(0.015625)"/>
       <path id="STIXGeneral-Regular-29" d="M 186 4224 
L 262 4326 
Q 992 3891 1408 3148 
Q 1824 2406 1824 1581 
Q 1824 -166 243 -1133 
L 186 -1030 
Q 845 -486 1059 54 
Q 1274 595 1274 1562 
Q 1274 2534 1059 3120 
Q 845 3706 186 4224 
z
" transform="scale(0.015625)"/>
      </defs>
      <use xlink:href="#SimSun-7d22" transform="translate(0 0.578125)"/>
      <use xlink:href="#SimSun-5f15" transform="translate(100 0.578125)"/>
      <use xlink:href="#SimSun-88c5" transform="translate(200 0.578125)"/>
      <use xlink:href="#SimSun-8f7d" transform="translate(300 0.578125)"/>
      <use xlink:href="#SimSun-7387" transform="translate(400 0.578125)"/>
      <use xlink:href="#SimSun-20" transform="translate(500 0.578125)"/>
      <use xlink:href="#STIXGeneral-Regular-28" transform="translate(550 0.578125)"/>
      <use xlink:href="#STIXGeneral-Regular-25" transform="translate(583.299988 0.578125)"/>
      <use xlink:href="#STIXGeneral-Regular-29" transform="translate(657.999969 0.578125)"/>
     </g>
    </g>
   </g>
   <g id="matplotlib.axis_2">
    <g id="ytick_1">
     <g id="line2d_12">
      <defs>
       <path id="m8d8fc8f494" d="M 0 0 
L -3.5 0 
" style="stroke: #000000; stroke-width: 0.8"/>
      </defs>
      <g>
       <use xlink:href="#m8d8fc8f494" x="115.2" y="461.376" style="stroke: #000000; stroke-width: 0.8"/>
      </g>
     </g>
     <g id="text_13">
      <!-- 0 -->
      <g transform="translate(98.7 468.167016) scale(0.19 -0.19)">
       <use xlink:href="#SimSun-30"/>
      </g>
     </g>
    </g>
    <g id="ytick_2">
     <g id="line2d_13">
      <g>
       <use xlink:href="#m8d8fc8f494" x="115.2" y="421.4592" style="stroke: #000000; stroke-width: 0.8"/>
      </g>
     </g>
     <g id="text_14">
      <!-- 10 -->
      <g transform="translate(89.2 428.250216) scale(0.19 -0.19)">
       <use xlink:href="#SimSun-31"/>
       <use xlink:href="#SimSun-30" x="50"/>
      </g>
     </g>
    </g>
    <g id="ytick_3">
     <g id="line2d_14">
      <g>
       <use xlink:href="#m8d8fc8f494" x="115.2" y="381.5424" style="stroke: #000000; stroke-width: 0.8"/>
      </g>
     </g>
     <g id="text_15">
      <!-- 20 -->
      <g transform="translate(89.2 388.333416) scale(0.19 -0.19)">
       <use xlink:href="#SimSun-32"/>
       <use xlink:href="#SimSun-30" x="50"/>
      </g>
     </g>
    </g>
    <g id="ytick_4">
     <g id="line2d_15">
      <g>
       <use xlink:href="#m8d8fc8f494" x="115.2" y="341.6256" style="stroke: #000000; stroke-width: 0.8"/>
      </g>
     </g>
     <g id="text_16">
      <!-- 30 -->
      <g transform="translate(89.2 348.416616) scale(0.19 -0.19)">
       <use xlink:href="#SimSun-33"/>
       <use xlink:href="#SimSun-30" x="50"/>
      </g>
     </g>
    </g>
    <g id="ytick_5">
     <g id="line2d_16">
      <g>
       <use xlink:href="#m8d8fc8f494" x="115.2" y="301.7088" style="stroke: #000000; stroke-width: 0.8"/>
      </g>
     </g>
     <g id="text_17">
      <!-- 40 -->
      <g transform="translate(89.2 308.499816) scale(0.19 -0.19)">
       <use xlink:href="#SimSun-34"/>
       <use xlink:href="#SimSun-30" x="50"/>
      </g>
     </g>
    </g>
    <g id="ytick_6">
     <g id="line2d_17">
      <g>
       <use xlink:href="#m8d8fc8f494" x="115.2" y="261.792" style="stroke: #000000; stroke-width: 0.8"/>
      </g>
     </g>
     <g id="text_18">
      <!-- 50 -->
      <g transform="translate(89.2 268.583016) scale(0.19 -0.19)">
       <use xlink:href="#SimSun-35"/>
       <use xlink:href="#SimSun-30" x="50"/>
      </g>
     </g>
    </g>
    <g id="ytick_7">
     <g id="line2d_18">
      <g>
       <use xlink:href="#m8d8fc8f494" x="115.2" y="221.8752" style="stroke: #000000; stroke-width: 0.8"/>
      </g>
     </g>
     <g id="text_19">
      <!-- 60 -->
      <g transform="translate(89.2 228.666216) scale(0.19 -0.19)">
       <use xlink:href="#SimSun-36"/>
       <use xlink:href="#SimSun-30" x="50"/>
      </g>
     </g>
    </g>
    <g id="ytick_8">
     <g id="line2d_19">
      <g>
       <use xlink:href="#m8d8fc8f494" x="115.2" y="181.9584" style="stroke: #000000; stroke-width: 0.8"/>
      </g>
     </g>
     <g id="text_20">
      <!-- 70 -->
      <g transform="translate(89.2 188.749416) scale(0.19 -0.19)">
       <use xlink:href="#SimSun-37"/>
       <use xlink:href="#SimSun-30" x="50"/>
      </g>
     </g>
    </g>
    <g id="ytick_9">
     <g id="line2d_20">
      <g>
       <use xlink:href="#m8d8fc8f494" x="115.2" y="142.0416" style="stroke: #000000; stroke-width: 0.8"/>
      </g>
     </g>
     <g id="text_21">
      <!-- 80 -->
      <g transform="translate(89.2 148.832616) scale(0.19 -0.19)">
       <use xlink:href="#SimSun-38"/>
       <use xlink:href="#SimSun-30" x="50"/>
      </g>
     </g>
    </g>
    <g id="ytick_10">
     <g id="line2d_21">
      <g>
       <use xlink:href="#m8d8fc8f494" x="115.2" y="102.1248" style="stroke: #000000; stroke-width: 0.8"/>
      </g>
     </g>
     <g id="text_22">
      <!-- 90 -->
      <g transform="translate(89.2 108.915816) scale(0.19 -0.19)">
       <use xlink:href="#SimSun-39"/>
       <use xlink:href="#SimSun-30" x="50"/>
      </g>
     </g>
    </g>
    <g id="ytick_11">
     <g id="line2d_22">
      <g>
       <use xlink:href="#m8d8fc8f494" x="115.2" y="62.208" style="stroke: #000000; stroke-width: 0.8"/>
      </g>
     </g>
     <g id="text_23">
      <!-- 100 -->
      <g transform="translate(79.7 68.999016) scale(0.19 -0.19)">
       <use xlink:href="#SimSun-31"/>
       <use xlink:href="#SimSun-30" x="50"/>
       <use xlink:href="#SimSun-30" x="100"/>
      </g>
     </g>
    </g>
    <g id="text_24">
     <!-- 读取命中率 $\mathrm{(\%)}$ -->
     <g transform="translate(72.28 327.532) rotate(-90) scale(0.19 -0.19)">
      <defs>
       <path id="SimSun-8bfb" d="M 1450 275 
L 2375 850 
L 2425 775 
Q 1600 50 1325 -325 
L 1025 50 
Q 1125 175 1125 400 
L 1125 2850 
L 1050 2850 
Q 725 2850 450 2775 
L 225 3000 
L 1125 3000 
L 1350 3225 
L 1675 2900 
L 1450 2725 
L 1450 275 
z
M 750 4925 
L 800 5000 
Q 1150 4800 1387 4600 
Q 1625 4400 1587 4200 
Q 1550 4000 1400 3925 
Q 1250 3850 1175 4200 
Q 1100 4525 750 4925 
z
M 5100 2700 
L 5425 3325 
L 2575 3325 
Q 2375 3325 2100 3250 
L 1875 3475 
L 3650 3475 
L 3650 4250 
L 3025 4250 
Q 2700 4250 2425 4175 
L 2200 4400 
L 3650 4400 
Q 3650 4825 3625 5250 
L 4175 5000 
L 3975 4825 
L 3975 4400 
L 4875 4400 
L 5150 4675 
L 5550 4250 
L 3975 4250 
L 3975 3475 
L 5375 3475 
L 5625 3750 
L 6075 3300 
Q 5725 3275 5200 2650 
L 5100 2700 
z
M 2750 2925 
L 2775 3000 
Q 3350 2825 3462 2687 
Q 3575 2550 3575 2450 
Q 3575 2350 3512 2250 
Q 3450 2150 3425 2150 
Q 3350 2150 3275 2350 
Q 3125 2625 2750 2925 
z
M 2375 2275 
Q 2975 2075 3100 1950 
Q 3225 1825 3225 1700 
Q 3225 1625 3162 1512 
Q 3100 1400 3075 1400 
Q 3000 1400 2900 1625 
Q 2725 1925 2350 2200 
L 2375 2275 
z
M 4475 2625 
Q 4425 1550 4350 1175 
L 5275 1175 
L 5600 1500 
L 6050 1025 
L 4325 1025 
Q 4250 825 4125 575 
Q 4850 350 5200 150 
Q 5550 -50 5600 -237 
Q 5650 -425 5587 -500 
Q 5525 -575 5475 -575 
Q 5350 -575 5175 -325 
Q 4925 25 4075 475 
Q 3425 -425 1975 -650 
L 1950 -550 
Q 3600 -100 3975 1025 
L 2700 1025 
Q 2500 1025 2225 950 
L 2000 1175 
L 4000 1175 
Q 4100 1800 4100 3075 
L 4675 2800 
L 4475 2625 
z
" transform="scale(0.015625)"/>
       <path id="SimSun-53d6" d="M 1300 2225 
L 1300 1125 
L 2425 1350 
L 2425 2225 
L 1300 2225 
z
M 2750 1225 
Q 2750 100 2775 -350 
L 2400 -575 
Q 2425 125 2425 1150 
Q 775 700 575 425 
L 325 925 
Q 625 975 975 1050 
L 975 4650 
L 775 4650 
L 525 4600 
L 325 4800 
L 2675 4800 
L 2975 5100 
L 3425 4650 
L 2750 4650 
L 2750 1425 
L 3500 1575 
L 3525 1475 
L 2750 1225 
z
M 1300 4650 
L 1300 3600 
L 2425 3600 
L 2425 4650 
L 1300 4650 
z
M 2425 3450 
L 1300 3450 
L 1300 2375 
L 2425 2375 
L 2425 3450 
z
M 2925 4175 
L 5050 4175 
L 5250 4425 
L 5700 4075 
L 5475 3925 
Q 5100 2350 4550 1275 
Q 5200 375 6100 125 
L 6100 25 
Q 5775 -25 5600 -275 
Q 4875 225 4375 975 
Q 3700 25 2825 -525 
L 2775 -450 
Q 3650 325 4175 1250 
Q 3650 2625 3525 4025 
L 3350 4025 
L 3125 3975 
L 2925 4175 
z
M 3650 4025 
Q 3900 2525 4350 1600 
Q 4825 2650 5075 4025 
L 3650 4025 
z
" transform="scale(0.015625)"/>
       <path id="SimSun-547d" d="M 1775 3150 
L 3650 3150 
L 3950 3450 
L 4400 3000 
L 2550 3000 
Q 2225 3000 2000 2925 
L 1775 3150 
z
M 1450 2125 
L 1450 575 
L 2400 575 
L 2400 2125 
L 1450 2125 
z
M 1100 -250 
Q 1125 525 1125 1125 
Q 1125 1725 1100 2500 
L 1450 2275 
L 2350 2275 
L 2525 2500 
L 2900 2200 
L 2725 2050 
Q 2725 550 2750 150 
L 2400 0 
L 2400 425 
L 1450 425 
L 1450 -100 
L 1100 -250 
z
M 3775 2175 
L 3775 -450 
L 3425 -625 
Q 3450 75 3450 1050 
Q 3450 2025 3425 2550 
L 3775 2325 
L 4825 2325 
L 5000 2575 
L 5400 2275 
L 5200 2100 
L 5200 525 
Q 5225 75 4700 -125 
Q 4700 150 4025 325 
L 4025 425 
Q 4550 375 4712 375 
Q 4875 375 4875 700 
L 4875 2175 
L 3775 2175 
z
M 2975 5275 
L 3475 4900 
L 3250 4725 
Q 3750 4025 4450 3625 
Q 5150 3225 6125 3075 
L 6125 2975 
Q 5700 2950 5550 2625 
Q 4650 3050 4112 3500 
Q 3575 3950 3150 4650 
Q 2600 3900 1962 3362 
Q 1325 2825 275 2425 
L 225 2525 
Q 1250 2975 1962 3750 
Q 2675 4525 2975 5275 
z
" transform="scale(0.015625)"/>
       <path id="SimSun-4e2d" d="M 3325 3625 
L 3325 1975 
L 5125 1975 
L 5125 3625 
L 3325 3625 
z
M 2950 3775 
Q 2950 4750 2925 5250 
L 3525 4975 
L 3325 4775 
L 3325 3775 
L 5075 3775 
L 5275 4075 
L 5700 3750 
L 5475 3550 
L 5475 2100 
Q 5475 1825 5500 1525 
L 5125 1375 
L 5125 1825 
L 3325 1825 
Q 3325 -75 3350 -400 
L 2925 -625 
Q 2950 -50 2950 1825 
L 1225 1825 
L 1225 1525 
L 850 1325 
Q 875 1775 875 2625 
Q 875 3475 850 4000 
L 1225 3775 
L 2950 3775 
z
M 1225 3625 
L 1225 1975 
L 2950 1975 
L 2950 3625 
L 1225 3625 
z
" transform="scale(0.015625)"/>
      </defs>
      <use xlink:href="#SimSun-8bfb" transform="translate(0 0.578125)"/>
      <use xlink:href="#SimSun-53d6" transform="translate(100 0.578125)"/>
      <use xlink:href="#SimSun-547d" transform="translate(200 0.578125)"/>
      <use xlink:href="#SimSun-4e2d" transform="translate(300 0.578125)"/>
      <use xlink:href="#SimSun-7387" transform="translate(400 0.578125)"/>
      <use xlink:href="#SimSun-20" transform="translate(500 0.578125)"/>
      <use xlink:href="#STIXGeneral-Regular-28" transform="translate(550 0.578125)"/>
      <use xlink:href="#STIXGeneral-Regular-25" transform="translate(583.299988 0.578125)"/>
      <use xlink:href="#STIXGeneral-Regular-29" transform="translate(657.999969 0.578125)"/>
     </g>
    </g>
   </g>
   <g id="line2d_23">
    <path d="M 115.385702 460.528838 
L 116.329928 460.394158 
L 118.141955 459.790712 
L 131.765368 453.704498 
L 134.535905 452.232811 
L 137.305728 450.878113 
L 141.957573 448.766303 
L 148.527867 445.586605 
L 151.366971 444.337598 
L 154.218217 443.097868 
L 158.021545 441.264543 
L 161.848443 439.698796 
L 165.684626 437.642773 
L 169.523666 435.590764 
L 171.444257 434.8002 
L 175.288297 433.390118 
L 177.215316 432.373885 
L 179.140193 431.309826 
L 181.066499 430.477424 
L 184.917681 428.966938 
L 186.842557 428.018242 
L 190.692311 425.976294 
L 208.92043 417.546408 
L 210.838164 416.874838 
L 212.755185 415.936936 
L 215.624287 414.386262 
L 218.489818 413.214056 
L 220.398981 412.40283 
L 231.796109 406.541539 
L 237.47646 404.255009 
L 242.188301 401.85715 
L 249.703534 398.498108 
L 254.384663 396.118588 
L 256.248829 395.361518 
L 259.982876 393.581014 
L 263.703352 392.249094 
L 266.48746 390.880593 
L 271.107164 388.308482 
L 275.719726 386.292516 
L 281.230088 383.580584 
L 283.982769 382.409503 
L 286.724022 380.994945 
L 291.274445 378.424 
L 296.710525 376.529072 
L 300.326008 374.878314 
L 302.129464 373.649731 
L 303.929349 372.396122 
L 304.829292 371.918904 
L 306.622748 371.339852 
L 308.416205 370.895083 
L 310.211804 370.173496 
L 312.89449 369.011769 
L 314.680804 368.294846 
L 326.207209 362.72584 
L 329.731269 361.244648 
L 334.124559 359.561276 
L 338.487852 357.141858 
L 340.230597 356.475609 
L 344.573891 354.245183 
L 348.036526 352.450792 
L 352.338394 350.880487 
L 358.335153 347.79465 
L 360.0429 347.221161 
L 361.749934 346.328573 
L 363.444826 345.351899 
L 369.373018 342.822983 
L 371.059338 342.231851 
L 376.106158 339.699511 
L 382.776445 335.986282 
L 385.264143 335.162286 
L 386.919752 334.586757 
L 392.695811 332.078318 
L 395.15851 330.736676 
L 396.792691 329.981121 
L 398.42473 329.326785 
L 402.493755 327.334346 
L 404.924314 326.319693 
L 409.761147 323.713463 
L 412.16385 322.740903 
L 415.362217 321.135796 
L 417.750636 320.105761 
L 420.135483 318.91141 
L 421.72181 318.386991 
L 423.304566 317.931805 
L 424.098086 317.568147 
L 428.033549 315.185607 
L 430.385541 314.266642 
L 435.065956 311.886469 
L 438.94785 310.019623 
L 441.26913 309.205892 
L 443.582554 308.023402 
L 445.881692 306.835202 
L 448.935068 305.50394 
L 453.490491 303.210777 
L 455.758917 302.028441 
L 458.021629 300.742717 
L 461.034294 299.644322 
L 464.774769 297.650095 
L 466.258959 297.028547 
L 467.74815 296.636777 
L 469.969436 296.125335 
L 471.452913 295.364681 
L 473.6642 294.118855 
L 476.606868 292.786654 
L 478.807442 291.929267 
L 480.27092 291.122584 
L 482.457208 289.628613 
L 483.904973 289.008503 
L 487.523313 288.026557 
L 488.966077 287.278833 
L 491.836608 285.554516 
L 493.9779 284.590321 
L 498.246198 282.884932 
L 503.185882 280.181275 
L 505.994273 279.222321 
L 507.394184 278.694803 
L 511.569631 276.642106 
L 518.464904 273.138081 
L 519.836959 272.414929 
L 521.204014 272.019074 
L 521.88897 271.837073 
L 522.574641 271.524226 
L 525.29161 269.775824 
L 528.002865 268.48128 
L 529.352064 267.834436 
L 534.053192 266.164933 
L 539.373565 263.367773 
L 540.695624 262.540219 
L 542.669069 261.682714 
L 544.641085 260.737398 
L 545.949573 260.145157 
L 549.21365 258.980317 
L 552.458442 257.249577 
L 553.74836 256.988271 
L 555.038991 256.399942 
L 556.963868 255.2595 
L 558.888745 254.314936 
L 560.800765 253.314545 
L 563.34846 252.058347 
L 564.614093 251.318021 
L 567.769605 250.015464 
L 569.656627 249.351985 
L 571.532936 248.632523 
L 574.025633 247.435189 
L 575.269125 247.223256 
L 577.755395 246.944358 
L 578.997458 246.565877 
L 580.85591 245.940175 
L 582.094403 245.94466 
L 583.951427 246.178015 
L 585.802737 246.113993 
L 588.274007 246.175871 
L 590.743135 245.898719 
L 592.591588 245.633163 
L 596.900598 245.468915 
L 599.356869 245.175859 
L 601.195323 244.811954 
L 602.418816 244.80465 
L 604.866516 245.138782 
L 606.700685 245.444211 
L 608.530568 245.258328 
L 610.362593 245.04402 
L 612.798152 244.508818 
L 614.622321 244.503068 
L 616.325069 244.547722 
L 619.017754 244.049749 
L 621.157617 244.172518 
L 622.750372 244.047795 
L 624.338127 243.660529 
L 625.388774 243.473513 
L 626.960817 243.586546 
L 628.007178 243.60743 
L 629.564936 243.333612 
L 631.110551 243.11645 
L 632.652595 242.979086 
L 633.674673 242.699623 
L 634.694607 242.367364 
L 635.203146 242.36223 
L 636.218796 242.765329 
L 637.228731 243.091233 
L 638.235809 242.995941 
L 639.240031 242.860231 
L 641.236332 242.869765 
L 643.712602 242.385677 
L 644.700396 242.504629 
L 645.683904 242.670818 
L 646.663127 242.601362 
L 650.061481 242.088013 
L 651.020705 242.188862 
L 651.986358 242.505788 
L 652.462756 242.552422 
L 653.418409 242.297414 
L 654.369062 242.072616 
L 655.793257 242.20056 
L 656.263941 242.097407 
L 657.673137 241.399796 
L 658.142392 241.344239 
L 659.077332 241.641718 
L 660.011558 241.978341 
L 660.938642 241.93818 
L 662.782095 241.584188 
L 663.698465 241.654357 
L 665.525491 242.136557 
L 666.436861 241.851948 
L 668.244603 241.061179 
L 669.141688 240.971236 
L 670.036631 241.092535 
L 670.926574 241.290389 
L 673.582833 241.462543 
L 674.462776 241.6706 
L 675.774121 241.548723 
L 677.514724 241.36625 
L 679.235328 240.823137 
L 680.945219 240.98733 
L 682.219423 240.701034 
L 683.907886 240.86013 
L 686.006323 241.107839 
L 686.836984 241.141852 
L 687.667645 240.893156 
L 688.494735 240.652511 
L 689.313969 240.82501 
L 690.133202 240.967801 
L 690.950292 240.673903 
L 691.760241 240.446892 
L 692.971592 240.616804 
L 694.1758 240.681719 
L 695.367867 240.671584 
L 696.954908 240.910515 
L 698.528379 240.677724 
L 699.69759 240.498376 
L 704.714412 240.331831 
L 705.85291 240.681766 
L 706.608576 240.510346 
L 707.358528 240.190322 
L 708.104909 240.205637 
L 709.594099 240.721958 
L 710.336195 240.565353 
L 711.802529 240.170716 
L 712.531768 240.145945 
L 713.981676 240.289398 
L 716.132252 240.052073 
L 716.844349 240.143418 
L 718.254259 239.933792 
L 718.9585 240.179807 
L 720.702674 240.961045 
L 721.397629 240.863209 
L 722.772541 240.402524 
L 725.145961 240.298077 
L 725.815204 240.310705 
L 727.141548 240.142433 
L 728.793585 240.339156 
L 729.449971 240.451263 
L 730.102787 240.653614 
L 730.751316 240.619833 
L 732.68405 240.041403 
L 733.326152 240.362012 
L 733.958968 240.66737 
L 734.595356 240.659568 
L 735.538153 240.4419 
L 736.474522 240.082686 
L 737.096625 240.262717 
L 738.024422 240.499836 
L 739.245059 240.53285 
L 740.757819 240.335887 
L 741.954171 239.850054 
L 742.547704 240.028609 
L 743.435505 240.314525 
L 744.025467 240.5252 
L 744.612572 240.852192 
L 744.902554 240.901719 
L 745.482516 240.638593 
L 746.346747 240.072125 
L 746.920996 240.019451 
L 747.775941 240.260328 
L 748.625887 240.405377 
L 749.188708 240.467294 
L 750.302208 240.754755 
L 751.959959 240.501339 
L 753.052032 240.515487 
L 754.128392 240.123957 
L 757.032492 240.799741 
L 757.810299 241.104151 
L 758.323123 241.056102 
L 758.837376 240.707718 
L 759.602327 240.153232 
L 760.104438 240.122848 
L 761.355072 240.69651 
L 762.096453 240.522379 
L 762.833549 240.326407 
L 763.567073 240.203111 
L 764.28917 239.890505 
L 764.769853 240.204524 
L 765.246966 240.660302 
L 765.721221 240.80287 
L 766.89186 240.789168 
L 767.588959 240.899717 
L 768.048215 240.814967 
L 768.738171 240.568777 
L 769.870956 240.716315 
L 770.320212 240.525973 
L 771.206584 239.678507 
L 771.645128 239.760875 
L 772.522929 240.286405 
L 773.383588 240.431106 
L 774.874921 240.338113 
L 775.920568 240.810611 
L 776.945503 240.420326 
L 777.554749 240.614479 
L 777.959009 240.759042 
L 779.148219 240.456695 
L 779.543194 240.297179 
L 780.321001 240.807557 
L 781.089523 240.517394 
L 781.470213 240.641197 
L 782.225165 241.127987 
L 782.600855 240.969596 
L 782.971546 240.774961 
L 783.887916 240.555946 
L 784.431452 240.208955 
L 784.969989 240.243772 
L 785.85279 240.297169 
L 786.376328 239.957979 
L 786.724163 240.167356 
L 787.066284 240.393782 
L 788.421911 240.607466 
L 788.755461 240.390467 
L 789.088297 240.447046 
L 789.581837 240.593158 
L 790.391785 240.599187 
L 791.186734 241.010126 
L 791.659561 240.682167 
L 792.741635 240.680013 
L 793.045187 240.457471 
L 793.4973 240.117595 
L 793.796567 240.199277 
L 794.682939 240.956543 
L 795.120054 240.956377 
L 795.690017 240.535527 
L 795.972142 240.798393 
L 796.252124 241.018454 
L 796.532106 240.763215 
L 796.948508 240.227166 
L 797.224205 240.217255 
L 798.833388 241.225041 
L 799.096228 241.071556 
L 799.355497 240.903207 
L 799.871178 241.052603 
L 800.251154 240.588118 
L 800.627558 240.16089 
L 800.876828 240.092649 
L 801.120384 240.174367 
L 801.485361 240.657357 
L 801.728202 240.936349 
L 801.967473 240.949929 
L 802.441728 240.725916 
L 802.907412 240.387546 
L 803.481661 240.597613 
L 804.156618 240.841845 
L 804.490168 241.289486 
L 805.035848 241.171543 
L 805.462963 241.369553 
L 806.09078 241.262122 
L 806.606461 240.606545 
L 807.110001 240.742391 
L 807.409267 240.765613 
L 807.895665 241.037623 
L 808.278497 240.89003 
L 808.841318 241.083748 
L 809.391283 240.901293 
L 809.659837 240.773214 
L 809.837683 240.682394 
L 810.101952 240.363416 
L 810.276227 240.43399 
L 810.958326 241.18054 
L 811.209738 241.657701 
L 811.45758 241.635687 
L 812.0254 241.391443 
L 812.183962 241.352855 
L 812.496799 240.89053 
L 812.727498 241.253554 
L 812.880346 241.394858 
L 813.031764 241.200357 
L 813.255322 240.944416 
L 813.626012 240.988657 
L 813.845284 240.941658 
L 814.272399 241.137516 
L 814.686659 240.955156 
L 814.823078 241.174172 
L 815.095204 241.838036 
L 815.492321 241.738198 
L 815.813729 241.295245 
L 816.253701 241.211694 
L 816.436547 241.11623 
L 816.855805 241.3 
L 817.320061 240.3697 
L 817.376486 240.511733 
L 817.601472 241.361267 
L 817.656468 241.321404 
L 817.766461 241.275358 
L 817.930022 241.861768 
L 818.144294 242.527057 
L 818.460703 241.901906 
L 818.615693 242.138038 
L 818.667118 242.095376 
L 818.918531 241.738338 
L 819.166372 241.845796 
L 819.735621 241.018181 
L 819.828472 241.125745 
L 820.010604 241.349633 
L 820.232732 240.752669 
L 820.276301 240.816908 
L 820.449861 241.474366 
L 820.492716 241.376706 
L 820.61985 240.638531 
L 820.661276 240.657856 
L 820.870548 241.078462 
L 820.993398 241.199506 
L 821.42837 241.958459 
L 821.878341 241.336125 
L 822.022618 241.637808 
L 822.05833 241.579688 
L 822.163323 241.397682 
L 822.198321 241.453201 
L 822.266888 241.585096 
L 822.301171 241.558099 
L 822.436877 241.251519 
L 822.470446 241.278583 
L 822.766856 241.99928 
L 822.798282 241.94719 
L 822.988984 241.423231 
L 823.051123 241.568644 
L 823.202542 242.15867 
L 823.263252 242.044615 
L 823.411814 241.394374 
L 823.469668 241.566996 
L 823.696796 242.281049 
L 823.724652 242.209104 
L 823.863214 241.781545 
L 823.917496 241.844907 
L 823.971779 241.88074 
L 823.997491 241.774772 
L 824.076058 241.389618 
L 824.151767 241.491421 
L 824.254618 241.685978 
L 824.278902 241.606057 
L 824.377467 241.08737 
L 824.426749 241.306276 
L 824.523886 241.874077 
L 824.593882 241.761938 
L 824.641021 241.664098 
L 824.687447 241.78757 
L 824.732444 241.931263 
L 824.7553 241.836493 
L 824.822438 241.480175 
L 824.86815 241.664899 
L 825.04171 242.087096 
L 825.084564 242.052544 
L 825.250982 241.700551 
L 825.292408 241.535158 
L 825.35169 241.735286 
L 825.410972 241.3722 
L 825.429542 241.293801 
L 825.448827 241.386146 
L 825.527393 242.010149 
L 825.564534 241.740301 
L 825.602388 241.460518 
L 825.658099 241.842459 
L 825.713096 242.192475 
L 825.768092 241.95482 
L 825.874514 241.530186 
L 825.908797 241.378578 
L 825.960223 241.646841 
L 825.97665 241.658778 
L 825.993078 241.564468 
L 826.025933 241.308695 
L 826.074501 241.699106 
L 826.201636 242.560392 
L 826.232348 242.520358 
L 826.248776 242.51276 
L 826.264489 242.566221 
L 826.3102 242.74002 
L 826.340913 242.551442 
L 826.401623 242.124178 
L 826.463762 242.275048 
L 826.692319 243.39305 
L 826.823739 243.323879 
" clip-path="url(#p0c5b6113f6)" style="fill: none; stroke: #ff0000; stroke-width: 1.5; stroke-linecap: square"/>
   </g>
   <g id="line2d_24">
    <path d="M 116.21065 460.258879 
L 117.131305 460.109493 
L 118.944046 459.48413 
L 124.370842 456.995815 
L 137.16288 450.918408 
L 140.871214 449.243154 
L 144.600975 447.340391 
L 150.249185 444.922386 
L 154.047514 443.118732 
L 156.898045 441.803728 
L 159.76929 440.474525 
L 166.513859 437.220834 
L 175.286154 433.330426 
L 184.136302 429.269043 
L 190.062351 426.335975 
L 193.040732 425.00245 
L 196.996193 422.980945 
L 199.962432 421.714388 
L 205.881339 418.812105 
L 207.846927 417.885571 
L 211.773105 416.240345 
L 216.66922 413.774871 
L 218.625523 413.027943 
L 221.558193 412.110597 
L 223.511639 411.174411 
L 226.426452 409.544532 
L 230.304061 407.504044 
L 232.241795 406.527701 
L 236.104404 404.968765 
L 240.931238 402.459117 
L 242.860401 401.710202 
L 244.785992 401.0122 
L 246.70944 400.005068 
L 248.619318 398.913071 
L 251.481992 397.63509 
L 258.156564 394.858132 
L 263.854771 392.112211 
L 265.743936 391.206353 
L 269.52298 389.176215 
L 276.10613 386.08939 
L 278.911665 384.799485 
L 283.578509 383.102081 
L 287.297556 381.053734 
L 292.845773 378.424824 
L 298.374705 375.781275 
L 305.717092 372.191784 
L 311.18817 369.688807 
L 313.909425 368.474207 
L 316.625679 367.371852 
L 322.033905 364.876859 
L 330.109102 361.138252 
L 332.783217 359.571036 
L 334.565245 358.798213 
L 336.342275 358.145565 
L 338.111447 357.184577 
L 340.754849 355.485668 
L 342.516879 354.727535 
L 346.906598 353.453089 
L 349.530716 352.224746 
L 353.888294 350.228183 
L 358.216589 348.251191 
L 360.803566 346.796978 
L 362.523456 345.860221 
L 364.237632 345.15955 
L 366.808182 344.195576 
L 371.912855 341.863803 
L 373.605604 340.787105 
L 375.299067 340.024527 
L 376.988959 339.285381 
L 382.025779 336.595447 
L 384.525619 335.523747 
L 389.514586 332.922641 
L 391.995141 331.956475 
L 394.464983 330.757804 
L 397.748344 329.477472 
L 400.199616 328.36298 
L 402.641603 327.358708 
L 406.684201 325.374243 
L 409.102618 323.969492 
L 410.708943 322.918374 
L 412.305984 322.185957 
L 414.698688 321.439809 
L 419.465526 319.336766 
L 422.61461 318.185276 
L 425.741553 316.781624 
L 427.29931 315.838017 
L 428.847782 314.854843 
L 431.175491 313.768811 
L 435.787338 311.772205 
L 437.32224 311.264875 
L 438.842143 310.452982 
L 441.121997 309.004781 
L 442.636186 308.331389 
L 446.408801 307.011606 
L 447.910848 306.552561 
L 449.399324 305.720217 
L 450.884943 304.799847 
L 452.361992 304.27611 
L 453.83904 303.914574 
L 455.311803 303.302692 
L 457.513805 302.169976 
L 458.976568 301.461505 
L 462.608479 299.158735 
L 464.770483 298.176426 
L 467.642442 296.750998 
L 471.2065 295.230119 
L 473.329221 294.58575 
L 474.741988 293.828251 
L 476.850424 292.527788 
L 478.244621 291.878175 
L 481.715113 290.49978 
L 484.467794 288.93716 
L 489.234632 286.975315 
L 491.934459 285.540449 
L 493.948616 284.672978 
L 495.947059 283.667485 
L 499.257562 282.396045 
L 502.544494 280.919774 
L 503.850125 280.146154 
L 506.44353 278.352643 
L 507.732733 277.9573 
L 509.016937 277.655106 
L 510.299712 276.968797 
L 512.210304 275.754965 
L 513.475937 275.268639 
L 514.740142 274.939922 
L 515.995062 274.311436 
L 517.870656 273.306872 
L 524.042404 270.674769 
L 525.873001 269.608243 
L 528.894236 268.291545 
L 530.092017 267.420618 
L 531.288369 266.960828 
L 533.073969 266.500218 
L 534.258893 266.038538 
L 535.436675 265.315246 
L 537.192991 264.232512 
L 543.540442 261.40544 
L 545.248189 260.193802 
L 546.379546 259.713303 
L 548.065866 259.34012 
L 549.191508 259.083352 
L 551.978473 257.858292 
L 553.638367 257.196819 
L 556.373192 255.819026 
L 559.08159 254.822126 
L 561.230738 254.282695 
L 562.298527 254.112982 
L 564.425533 253.987192 
L 566.541112 253.538259 
L 568.641692 253.674222 
L 571.767206 253.202118 
L 573.324964 253.45535 
L 574.356326 253.533536 
L 576.413338 253.242579 
L 579.981681 252.778104 
L 581.496584 252.554863 
L 582.497948 252.366826 
L 583.502884 252.35727 
L 586.000581 252.5307 
L 590.92598 252.169489 
L 592.880141 252.269279 
L 594.817874 251.900349 
L 596.742751 251.766031 
L 597.698404 251.565909 
L 598.6512 251.577746 
L 601.026048 251.900274 
L 602.438815 252.157679 
L 603.378755 252.098761 
L 605.715034 251.256323 
L 606.642117 251.521198 
L 607.566344 251.833983 
L 608.027028 251.84215 
L 608.950541 251.560704 
L 609.864768 251.23284 
L 610.779709 251.136709 
L 614.851592 251.266047 
L 617.527849 250.79975 
L 620.604795 250.671723 
L 622.343255 250.325755 
L 625.790177 250.602875 
L 627.500782 250.303952 
L 629.18996 250.599688 
L 632.954004 249.805206 
L 633.781094 249.778986 
L 638.275807 250.333349 
L 639.082898 250.287642 
L 640.690652 250.071591 
L 641.889147 249.951153 
L 642.679811 249.817267 
L 644.257567 249.83792 
L 645.822467 249.485328 
L 646.601702 249.684738 
L 647.37451 249.880392 
L 648.913697 249.963981 
L 649.682934 250.002651 
L 650.446456 249.798454 
L 651.201408 249.516933 
L 651.579955 249.53365 
L 652.712026 249.911622 
L 654.209073 249.544154 
L 655.326858 249.686437 
L 656.80105 249.595166 
L 657.900979 249.72686 
L 660.085839 249.446729 
L 660.803651 249.189726 
L 661.520033 248.928692 
L 662.587108 248.947059 
L 663.297062 249.112395 
L 664.001303 249.385479 
L 664.354138 249.39657 
L 665.755476 249.031077 
L 667.493937 249.335199 
L 668.870277 249.069224 
L 671.588675 248.701973 
L 672.255775 248.628354 
L 673.590689 249.036125 
L 675.244155 249.163712 
L 676.556928 249.466985 
L 677.851131 249.450247 
L 679.461028 249.118046 
L 680.096701 249.044488 
L 681.053069 249.259247 
L 683.562194 248.621172 
L 684.182868 248.501251 
L 685.72777 248.92461 
L 686.339873 248.998357 
L 687.256957 249.359289 
L 687.863347 249.289811 
L 689.668232 248.876249 
L 690.559603 248.970946 
L 691.44169 248.315085 
L 691.735242 248.331527 
L 692.905882 248.940162 
L 693.777969 249.010303 
L 694.931466 249.472266 
L 695.793554 249.368035 
L 696.648499 249.062566 
L 697.497016 248.70056 
L 698.059123 248.793951 
L 699.457605 249.427955 
L 700.01257 249.347439 
L 701.112499 248.862534 
L 701.932447 248.987479 
L 702.747395 248.854301 
L 703.551629 248.98574 
L 705.412224 248.812346 
L 707.510661 248.975441 
L 708.027057 248.87839 
L 709.058419 248.945427 
L 709.569101 248.842971 
L 710.58475 248.908233 
L 711.088289 249.025553 
L 711.843955 249.491237 
L 712.343209 249.57256 
L 712.84032 249.328503 
L 713.826685 248.608242 
L 714.315226 248.490581 
L 714.802337 248.629898 
L 715.290163 248.807007 
L 715.771561 248.68493 
L 716.253673 248.563861 
L 716.734356 248.702631 
L 717.687867 249.247246 
L 718.396393 249.214409 
L 719.100634 249.29045 
L 719.570604 249.215965 
L 720.037002 248.955146 
L 720.500544 248.952514 
L 722.101156 249.179344 
L 722.77897 248.814182 
L 723.227512 248.983834 
L 723.681769 249.200577 
L 724.349583 249.075448 
L 725.018112 248.89024 
L 726.333742 249.242644 
L 728.272189 249.275813 
L 728.912148 249.083546 
L 729.331407 249.223631 
L 729.960653 249.459805 
L 730.378483 249.34063 
L 730.794171 249.202944 
L 731.826962 249.228231 
L 732.441208 249.104146 
L 733.253299 249.17509 
L 733.658273 249.173874 
L 734.460365 249.510787 
L 734.860339 249.336439 
L 735.45173 249.01227 
L 736.626655 248.999523 
L 737.400177 248.927859 
L 737.782295 249.138684 
L 738.169413 249.520557 
L 738.360115 249.549912 
L 739.119352 249.197432 
L 739.685745 249.243606 
L 741.54134 248.792344 
L 742.271293 249.366605 
L 742.816973 249.284222 
L 743.356938 249.056548 
L 743.894047 248.721151 
L 744.251167 248.796378 
L 745.13111 249.332397 
L 745.47966 249.362896 
L 746.347461 249.075097 
L 746.865999 249.345819 
L 747.206692 249.263301 
L 747.547384 249.170594 
L 748.055923 249.332075 
L 748.729452 249.107795 
L 750.38506 249.230614 
L 751.523558 249.084744 
L 752.004242 249.438535 
L 752.322793 249.255904 
L 752.64063 249.001398 
L 752.959181 249.076105 
L 753.587712 249.586091 
L 753.901263 249.451074 
L 754.679785 248.657229 
L 754.98548 248.733412 
L 755.446164 249.177542 
L 755.599012 249.14368 
L 756.205402 248.573687 
L 756.503954 248.670656 
L 757.246764 249.130212 
L 757.686735 248.668677 
L 757.982431 248.820907 
L 758.71167 249.634139 
L 759.141642 249.426246 
L 759.71232 249.17128 
L 760.137293 248.735178 
L 760.420132 248.950437 
L 760.702257 249.214554 
L 760.843676 249.195239 
L 761.261507 248.786242 
L 761.400069 248.831357 
L 761.954319 249.463894 
L 762.638561 249.240222 
L 763.182098 249.247955 
L 763.586358 249.026579 
L 765.171971 249.317781 
L 766.07977 249.156423 
L 766.588308 249.369382 
L 767.345403 248.695525 
L 767.723236 248.958063 
L 768.096069 249.09099 
L 769.798103 248.598203 
L 770.037373 248.597998 
L 770.394493 249.112774 
L 770.749471 249.425137 
L 770.983027 249.36046 
L 771.568704 249.023521 
L 771.915825 249.126677 
L 772.375081 249.467314 
L 773.053609 249.012549 
L 773.502866 248.647509 
L 773.839987 248.92673 
L 774.609224 249.566809 
L 774.828495 249.541419 
L 775.262039 249.838446 
L 775.796291 249.587252 
L 776.115556 249.73954 
L 776.328399 249.707278 
L 776.853366 249.28295 
L 777.166203 249.39458 
L 777.577605 249.10761 
L 778.192566 249.264699 
L 778.796813 249.061517 
L 779.296067 249.551747 
L 779.981023 249.218808 
L 780.465277 249.245658 
L 780.751688 249.487794 
L 780.940961 249.384613 
L 781.319508 249.105674 
L 781.506639 249.276904 
L 781.879473 249.711206 
L 782.249449 249.424137 
L 782.52586 249.665378 
L 782.707991 249.320747 
L 782.977974 248.891433 
L 783.247956 248.893434 
L 783.519368 248.697779 
L 783.875059 248.907474 
L 784.050762 249.240788 
L 784.317174 249.641223 
L 784.665009 249.233557 
L 784.836426 249.44235 
L 785.09641 249.847803 
L 785.182833 249.80338 
L 785.611377 248.906027 
L 786.032064 249.426473 
L 786.44918 249.028774 
L 786.775588 249.142104 
L 787.022001 249.190315 
L 787.266985 248.878415 
L 787.507684 248.598104 
L 787.749097 248.715588 
L 788.066934 249.20027 
L 788.382628 249.608009 
L 788.538332 249.368623 
L 788.772603 248.858392 
L 789.992525 249.232711 
L 790.216796 249.579998 
L 790.366787 249.734532 
L 790.591772 249.440592 
L 791.028173 248.788107 
L 791.607421 249.107957 
L 791.819551 248.94089 
L 792.103104 249.217014 
L 792.310948 249.137292 
L 792.588073 249.310735 
L 792.863055 249.854195 
L 793.480159 249.353176 
L 793.614436 249.465389 
L 793.749427 249.617013 
L 794.081549 249.18654 
L 794.147973 249.24754 
L 794.671511 249.739936 
L 794.800074 249.926212 
L 794.928637 249.642328 
L 795.247188 248.470547 
L 795.373609 248.79344 
L 795.563597 249.250922 
L 795.752156 249.216795 
L 795.877148 249.270518 
L 796.062851 249.073926 
L 796.124275 249.14964 
L 796.369974 249.73207 
L 796.430684 249.69958 
L 796.8578 249.220827 
L 797.099213 249.355525 
L 797.276344 249.471538 
L 797.452762 249.56102 
L 797.629893 249.597722 
L 797.862735 249.437112 
L 797.978442 249.549823 
L 798.092721 249.315659 
L 798.321277 248.794484 
L 798.434842 248.831261 
L 798.771249 249.519137 
L 798.99552 249.17871 
L 799.106227 249.269725 
L 799.160509 249.209878 
L 799.270502 249.126433 
L 799.706903 249.755171 
L 799.815468 249.468463 
L 799.974743 249.084716 
L 800.453284 249.395895 
L 800.819689 249.093476 
L 800.92254 249.194257 
L 801.074673 249.56504 
L 801.074673 249.56504 
" clip-path="url(#p0c5b6113f6)" style="fill: none; stroke: #0000ff; stroke-width: 1.5; stroke-linecap: square"/>
   </g>
   <g id="patch_3">
    <path d="M 115.2 461.376 
L 115.2 62.208 
" style="fill: none; stroke: #000000; stroke-width: 0.8; stroke-linejoin: miter; stroke-linecap: square"/>
   </g>
   <g id="patch_4">
    <path d="M 829.44 461.376 
L 829.44 62.208 
" style="fill: none; stroke: #000000; stroke-width: 0.8; stroke-linejoin: miter; stroke-linecap: square"/>
   </g>
   <g id="patch_5">
    <path d="M 115.2 461.376 
L 829.44 461.376 
" style="fill: none; stroke: #000000; stroke-width: 0.8; stroke-linejoin: miter; stroke-linecap: square"/>
   </g>
   <g id="patch_6">
    <path d="M 115.2 62.208 
L 829.44 62.208 
" style="fill: none; stroke: #000000; stroke-width: 0.8; stroke-linejoin: miter; stroke-linecap: square"/>
   </g>
   <g id="text_25">
    <!-- $\mathrm{proto\ &amp;\ mica*}$的读取命中率随索引装载率的变化趋势 -->
    <g transform="translate(208.866 56.208) scale(0.228 -0.228)">
     <defs>
      <path id="STIXGeneral-Regular-70" d="M 1018 2931 
L 1018 2438 
Q 1421 2944 1939 2944 
Q 2406 2944 2707 2560 
Q 3008 2176 3008 1581 
Q 3008 883 2621 409 
Q 2234 -64 1664 -64 
Q 1466 -64 1328 -6 
Q 1190 51 1018 211 
L 1018 -794 
Q 1018 -1094 1120 -1180 
Q 1222 -1267 1581 -1274 
L 1581 -1389 
L 32 -1389 
L 32 -1280 
Q 314 -1254 397 -1171 
Q 480 -1088 480 -838 
L 480 2157 
Q 480 2381 429 2451 
Q 378 2522 218 2522 
Q 115 2522 58 2515 
L 58 2618 
Q 506 2752 979 2944 
L 1018 2931 
z
M 1018 2138 
L 1018 563 
Q 1018 422 1238 281 
Q 1459 141 1683 141 
Q 2029 141 2243 467 
Q 2458 794 2458 1325 
Q 2458 1888 2243 2224 
Q 2029 2560 1670 2560 
Q 1446 2560 1232 2419 
Q 1018 2278 1018 2138 
z
" transform="scale(0.015625)"/>
      <path id="STIXGeneral-Regular-72" d="M 1024 2931 
L 1024 2342 
Q 1267 2688 1430 2816 
Q 1594 2944 1792 2944 
Q 1958 2944 2051 2854 
Q 2144 2765 2144 2605 
Q 2144 2470 2077 2393 
Q 2010 2317 1894 2317 
Q 1773 2317 1638 2445 
Q 1536 2541 1472 2541 
Q 1338 2541 1181 2355 
Q 1024 2170 1024 2016 
L 1024 576 
Q 1024 301 1133 205 
Q 1242 109 1568 96 
L 1568 0 
L 32 0 
L 32 96 
Q 339 154 412 224 
Q 486 294 486 538 
L 486 2138 
Q 486 2349 438 2435 
Q 390 2522 269 2522 
Q 166 2522 45 2496 
L 45 2598 
Q 448 2726 992 2944 
L 1024 2931 
z
" transform="scale(0.015625)"/>
      <path id="STIXGeneral-Regular-6f" d="M 3008 1478 
Q 3008 806 2608 371 
Q 2208 -64 1568 -64 
Q 979 -64 582 368 
Q 186 800 186 1459 
Q 186 2125 582 2534 
Q 979 2944 1626 2944 
Q 2221 2944 2614 2537 
Q 3008 2131 3008 1478 
z
M 2432 1306 
Q 2432 2035 2112 2445 
Q 1856 2765 1504 2765 
Q 1171 2765 966 2493 
Q 762 2221 762 1747 
Q 762 928 1101 435 
Q 1318 115 1677 115 
Q 2029 115 2230 432 
Q 2432 749 2432 1306 
z
" transform="scale(0.015625)"/>
      <path id="STIXGeneral-Regular-74" d="M 1702 493 
L 1786 422 
Q 1478 -64 1011 -64 
Q 448 -64 448 749 
L 448 2675 
L 109 2675 
Q 83 2694 83 2720 
Q 83 2771 192 2842 
Q 435 2982 813 3526 
Q 826 3546 874 3606 
Q 922 3667 941 3706 
Q 986 3706 986 3622 
L 986 2880 
L 1632 2880 
L 1632 2675 
L 986 2675 
L 986 845 
Q 986 538 1062 403 
Q 1139 269 1318 269 
Q 1510 269 1702 493 
z
" transform="scale(0.015625)"/>
      <path id="STIXGeneral-Regular-26" d="M 4704 710 
L 4800 640 
Q 4659 294 4409 105 
Q 4160 -83 3834 -83 
Q 3309 -83 2746 499 
Q 2387 186 2070 51 
Q 1754 -83 1363 -83 
Q 838 -83 553 160 
Q 269 403 269 877 
Q 269 1267 528 1628 
Q 787 1990 1274 2272 
L 1517 2413 
Q 1293 2957 1293 3366 
Q 1293 3789 1571 4057 
Q 1850 4326 2266 4326 
Q 2656 4326 2899 4115 
Q 3142 3904 3142 3533 
Q 3142 3181 2921 2937 
Q 2701 2694 2150 2458 
Q 2509 1683 2995 1139 
Q 3315 1568 3449 1821 
Q 3584 2074 3584 2291 
Q 3584 2438 3494 2502 
Q 3405 2566 3168 2592 
L 3168 2726 
L 4550 2726 
L 4550 2592 
Q 4326 2592 4201 2509 
Q 4077 2426 3949 2214 
Q 3859 2074 3702 1814 
Q 3546 1555 3424 1363 
Q 3302 1171 3142 960 
Q 3379 659 3606 515 
Q 3834 371 4115 371 
Q 4301 371 4425 444 
Q 4550 518 4704 710 
z
M 2803 3558 
Q 2803 3795 2662 3958 
Q 2522 4122 2304 4122 
Q 2080 4122 1939 3974 
Q 1798 3827 1798 3590 
Q 1798 3334 1849 3139 
Q 1901 2944 2054 2662 
Q 2458 2848 2630 3059 
Q 2803 3270 2803 3558 
z
M 2586 666 
Q 2035 1312 1613 2195 
Q 1197 1926 1027 1686 
Q 858 1446 858 1114 
Q 858 717 1078 486 
Q 1299 256 1651 256 
Q 2061 256 2586 666 
z
" transform="scale(0.015625)"/>
      <path id="STIXGeneral-Regular-6d" d="M 4960 0 
L 3565 0 
L 3565 96 
Q 3834 122 3907 208 
Q 3981 294 3981 576 
L 3981 1894 
Q 3981 2278 3869 2444 
Q 3757 2611 3488 2611 
Q 3264 2611 3107 2521 
Q 2950 2432 2803 2221 
L 2803 608 
Q 2803 301 2896 201 
Q 2989 102 3264 96 
L 3264 0 
L 1830 0 
L 1830 96 
Q 2112 115 2189 188 
Q 2266 262 2266 550 
L 2266 1901 
Q 2266 2611 1850 2611 
Q 1670 2611 1468 2531 
Q 1267 2451 1171 2336 
Q 1088 2240 1088 2227 
L 1088 448 
Q 1088 243 1177 176 
Q 1267 109 1523 96 
L 1523 0 
L 102 0 
L 102 96 
Q 371 102 460 195 
Q 550 288 550 563 
L 550 2150 
Q 550 2387 499 2480 
Q 448 2573 326 2573 
Q 230 2573 122 2547 
L 122 2656 
Q 557 2778 1011 2944 
L 1062 2925 
L 1062 2451 
L 1075 2451 
Q 1363 2752 1584 2848 
Q 1805 2944 2054 2944 
Q 2560 2944 2733 2406 
Q 3232 2944 3776 2944 
Q 4518 2944 4518 1792 
L 4518 493 
Q 4518 282 4582 202 
Q 4646 122 4794 109 
L 4960 96 
L 4960 0 
z
" transform="scale(0.015625)"/>
      <path id="STIXGeneral-Regular-69" d="M 1152 4045 
Q 1152 3904 1056 3811 
Q 960 3718 819 3718 
Q 685 3718 592 3811 
Q 499 3904 499 4045 
Q 499 4179 595 4275 
Q 691 4371 826 4371 
Q 966 4371 1059 4275 
Q 1152 4179 1152 4045 
z
M 1619 0 
L 102 0 
L 102 96 
Q 435 115 521 211 
Q 608 307 608 666 
L 608 2118 
Q 608 2342 563 2432 
Q 518 2522 397 2522 
Q 243 2522 128 2490 
L 128 2592 
L 1120 2944 
L 1146 2918 
L 1146 672 
Q 1146 314 1226 218 
Q 1306 122 1619 96 
L 1619 0 
z
" transform="scale(0.015625)"/>
      <path id="STIXGeneral-Regular-63" d="M 2547 998 
L 2637 941 
Q 2362 403 2112 205 
Q 1786 -64 1376 -64 
Q 845 -64 502 336 
Q 160 736 160 1357 
Q 160 2170 698 2618 
Q 1094 2944 1562 2944 
Q 1965 2944 2256 2749 
Q 2547 2554 2547 2285 
Q 2547 2176 2457 2096 
Q 2368 2016 2246 2016 
Q 2022 2016 1939 2310 
L 1901 2451 
Q 1850 2630 1773 2694 
Q 1696 2758 1523 2758 
Q 1133 2758 893 2451 
Q 653 2144 653 1645 
Q 653 1094 928 745 
Q 1203 397 1645 397 
Q 1920 397 2118 528 
Q 2317 659 2547 998 
z
" transform="scale(0.015625)"/>
      <path id="STIXGeneral-Regular-61" d="M 2829 422 
L 2829 243 
Q 2586 -64 2253 -64 
Q 1888 -64 1843 403 
L 1837 403 
Q 1427 -64 909 -64 
Q 608 -64 422 112 
Q 237 288 237 602 
Q 237 1050 685 1350 
Q 992 1555 1837 1869 
L 1837 2214 
Q 1837 2502 1699 2646 
Q 1562 2790 1338 2790 
Q 1146 2790 1018 2697 
Q 890 2605 890 2477 
Q 890 2419 909 2348 
Q 928 2278 928 2208 
Q 928 2112 841 2029 
Q 755 1946 634 1946 
Q 525 1946 441 2029 
Q 358 2112 358 2240 
Q 358 2547 685 2752 
Q 986 2944 1421 2944 
Q 1939 2944 2176 2656 
Q 2291 2522 2323 2384 
Q 2355 2246 2355 1946 
L 2355 723 
Q 2355 301 2554 301 
Q 2682 301 2829 422 
z
M 1837 813 
L 1837 1715 
Q 1248 1510 1018 1293 
Q 800 1094 800 800 
Q 800 557 921 432 
Q 1043 307 1242 307 
Q 1453 307 1613 410 
Q 1747 506 1792 589 
Q 1837 672 1837 813 
z
" transform="scale(0.015625)"/>
      <path id="STIXGeneral-Regular-2a" d="M 1715 3014 
L 1773 2976 
Q 2010 2822 2387 2758 
Q 2605 2726 2688 2665 
Q 2771 2605 2771 2483 
Q 2771 2374 2707 2304 
Q 2643 2234 2541 2234 
Q 2381 2234 2157 2515 
Q 2010 2694 1715 2886 
L 1664 2918 
L 1664 2861 
Q 1664 2502 1792 2157 
Q 1850 1997 1850 1946 
Q 1850 1850 1770 1773 
Q 1690 1696 1594 1696 
Q 1504 1696 1433 1766 
Q 1363 1837 1363 1926 
Q 1363 2016 1440 2227 
Q 1542 2502 1542 2861 
L 1542 2918 
Q 1286 2758 1210 2688 
Q 1133 2611 947 2400 
Q 806 2240 672 2240 
Q 563 2240 499 2304 
Q 435 2368 435 2470 
Q 435 2592 528 2656 
Q 621 2720 838 2758 
Q 1062 2803 1180 2848 
Q 1299 2893 1498 3014 
Q 1222 3181 877 3251 
Q 640 3302 544 3366 
Q 448 3430 448 3546 
Q 448 3648 505 3715 
Q 563 3782 659 3782 
Q 787 3782 973 3578 
Q 1242 3277 1542 3110 
L 1542 3194 
Q 1542 3456 1446 3776 
Q 1376 3987 1376 4109 
Q 1376 4198 1443 4262 
Q 1510 4326 1606 4326 
Q 1702 4326 1772 4259 
Q 1843 4192 1843 4096 
Q 1843 3994 1773 3795 
Q 1664 3507 1664 3264 
L 1664 3110 
Q 1882 3238 2035 3379 
Q 2067 3411 2153 3504 
Q 2240 3597 2291 3648 
Q 2342 3699 2409 3747 
Q 2477 3795 2528 3795 
Q 2637 3795 2701 3728 
Q 2765 3661 2765 3552 
Q 2765 3424 2691 3363 
Q 2618 3302 2432 3277 
Q 2074 3219 1715 3014 
z
" transform="scale(0.015625)"/>
      <path id="SimSun-7684" d="M 1125 3775 
L 1125 2175 
L 2425 2175 
L 2425 3775 
L 1125 3775 
z
M 1125 2025 
L 1125 275 
L 2425 275 
L 2425 2025 
L 1125 2025 
z
M 2750 3625 
Q 2750 700 2775 -200 
L 2425 -400 
L 2425 125 
L 1125 125 
L 1125 -300 
L 775 -500 
Q 800 675 800 1837 
Q 800 3000 775 4150 
L 1150 3925 
L 1400 3925 
Q 1650 4775 1675 5225 
L 2225 4925 
Q 1975 4800 1550 3925 
L 2375 3925 
L 2625 4175 
L 3000 3800 
L 2750 3625 
z
M 3975 5200 
L 4525 4875 
Q 4325 4750 3900 3850 
L 5250 3850 
L 5525 4125 
L 5900 3750 
L 5675 3575 
Q 5625 650 5537 262 
Q 5450 -125 5287 -275 
Q 5125 -425 4775 -550 
Q 4650 -150 3950 50 
L 3950 175 
Q 4575 50 4850 50 
Q 5125 50 5187 475 
Q 5250 900 5300 3700 
L 3850 3700 
Q 3400 2975 2900 2475 
L 2825 2525 
Q 3350 3325 3600 3950 
Q 3850 4575 3975 5200 
z
M 3525 2750 
Q 4125 2300 4225 2087 
Q 4325 1875 4325 1775 
Q 4325 1600 4225 1475 
Q 4125 1350 4075 1350 
Q 3975 1350 3925 1700 
Q 3825 2200 3475 2675 
L 3525 2750 
z
" transform="scale(0.015625)"/>
      <path id="SimSun-968f" d="M 2175 4225 
L 2250 4275 
Q 2800 3825 2850 3625 
Q 2900 3425 2775 3300 
Q 2650 3175 2600 3175 
Q 2500 3175 2475 3425 
Q 2425 3800 2175 4225 
z
M 6050 0 
L 6050 -100 
Q 5650 -175 5625 -475 
Q 4975 -450 4487 -425 
Q 4000 -400 3650 -262 
Q 3300 -125 3050 150 
Q 2875 300 2750 300 
Q 2650 300 2487 162 
Q 2325 25 2125 -375 
L 1750 -100 
Q 2100 175 2575 450 
L 2575 2300 
Q 2525 2300 2250 2225 
L 2025 2450 
L 2550 2450 
L 2700 2650 
L 3075 2375 
L 2875 2225 
L 2875 475 
Q 3325 75 3762 0 
Q 4200 -75 4725 -62 
Q 5250 -50 6050 0 
z
M 600 4900 
L 950 4675 
L 1700 4675 
L 1900 4900 
L 2300 4625 
L 2075 4450 
L 1475 3000 
Q 1650 2775 1900 2475 
Q 2125 2175 2162 1975 
Q 2200 1775 2200 1650 
Q 2200 1400 2075 1150 
Q 1950 900 1400 800 
Q 1400 1075 950 1250 
L 950 -475 
L 600 -650 
Q 625 0 625 2175 
Q 625 4350 600 4900 
z
M 1300 3000 
L 1725 4525 
L 950 4525 
L 950 1350 
Q 1275 1275 1425 1275 
Q 1600 1275 1725 1350 
Q 1850 1425 1850 1675 
Q 1850 1825 1812 2100 
Q 1775 2375 1300 3000 
z
M 3900 3250 
L 3900 2600 
L 5150 2600 
L 5150 3250 
L 3900 3250 
z
M 3575 250 
Q 3600 725 3600 3200 
Q 3350 2875 3000 2625 
L 2950 2675 
Q 3525 3325 3850 4175 
L 3600 4175 
Q 3275 4175 3000 4100 
L 2775 4325 
L 3900 4325 
Q 4100 4925 4100 5150 
L 4600 4900 
Q 4425 4800 4225 4325 
L 5325 4325 
L 5625 4625 
L 6025 4175 
L 4175 4175 
Q 4025 3825 3825 3475 
L 3925 3400 
L 5100 3400 
L 5250 3625 
L 5650 3350 
L 5475 3200 
L 5475 875 
Q 5525 425 5025 275 
Q 5025 550 4525 650 
L 4525 750 
Q 4950 725 5050 725 
Q 5150 725 5150 900 
L 5150 1650 
L 3900 1650 
L 3900 400 
L 3575 250 
z
M 3900 2450 
L 3900 1800 
L 5150 1800 
L 5150 2450 
L 3900 2450 
z
" transform="scale(0.015625)"/>
      <path id="SimSun-53d8" d="M 2750 4225 
L 2750 2225 
L 3650 2225 
L 3650 4225 
L 2750 4225 
z
M 375 4375 
L 3100 4375 
Q 3050 4750 2650 5200 
L 2700 5275 
Q 3150 5075 3325 4925 
Q 3500 4775 3500 4700 
Q 3500 4550 3300 4375 
L 5125 4375 
L 5525 4775 
L 6075 4225 
L 4000 4225 
L 4000 2225 
L 4425 2225 
L 4675 2500 
L 5100 2100 
L 4825 1975 
Q 4300 1325 3525 650 
Q 4500 -50 6125 -175 
L 6125 -275 
Q 5750 -325 5625 -575 
Q 4175 -250 3300 450 
Q 2150 -300 350 -600 
L 325 -500 
Q 2050 -100 3075 675 
Q 2525 1250 2100 2075 
L 1650 2075 
L 1375 2025 
L 1175 2225 
L 2400 2225 
L 2400 4225 
L 1200 4225 
Q 875 4225 600 4150 
L 375 4375 
z
M 2275 2075 
Q 2725 1350 3300 850 
Q 3800 1300 4425 2075 
L 2275 2075 
z
M 1675 3850 
L 2125 3450 
L 1875 3350 
Q 1150 2575 325 1950 
L 250 2025 
Q 700 2425 1087 2937 
Q 1475 3450 1675 3850 
z
M 4350 3700 
Q 5675 3050 5812 2875 
Q 5950 2700 5950 2575 
Q 5950 2475 5900 2375 
Q 5850 2275 5800 2275 
Q 5700 2275 5500 2550 
Q 5200 2950 4275 3625 
L 4350 3700 
z
" transform="scale(0.015625)"/>
      <path id="SimSun-5316" d="M 1375 -600 
Q 1400 200 1400 925 
L 1400 3125 
Q 850 2300 350 1775 
L 275 1850 
Q 825 2625 1300 3650 
Q 1775 4675 1900 5200 
L 2450 4875 
L 2200 4725 
Q 1875 4000 1600 3475 
L 1950 3275 
L 1750 3075 
L 1750 350 
Q 1750 75 1775 -400 
L 1375 -600 
z
M 3450 2125 
L 3450 3925 
Q 3450 4475 3425 5200 
L 4000 4925 
L 3800 4725 
L 3800 2400 
Q 4150 2725 4562 3225 
Q 4975 3725 5150 4025 
L 5600 3600 
L 5325 3525 
Q 4600 2700 3800 2000 
L 3800 425 
Q 3800 0 4225 0 
L 5300 0 
Q 5500 0 5550 325 
Q 5600 650 5600 1325 
L 5725 1325 
Q 5775 650 5850 425 
Q 5925 200 6125 125 
Q 5900 -325 5400 -325 
L 4075 -325 
Q 3450 -325 3450 250 
L 3450 1775 
Q 2800 1275 1950 925 
L 1925 1025 
Q 2800 1525 3450 2125 
z
" transform="scale(0.015625)"/>
      <path id="SimSun-8d8b" d="M 3900 5225 
L 4425 4900 
L 4225 4825 
Q 4000 4475 3800 4150 
L 4750 4150 
L 4975 4425 
L 5400 4025 
Q 5100 4000 4475 3075 
L 5350 3075 
L 5500 3325 
L 5900 3050 
L 5725 2875 
Q 5725 1050 5750 525 
L 5400 375 
L 5400 800 
L 3725 800 
Q 3525 800 3250 725 
L 3025 950 
L 5400 950 
L 5400 1900 
L 4050 1900 
Q 3850 1900 3575 1825 
L 3350 2050 
L 5400 2050 
L 5400 2925 
L 3900 2925 
Q 3700 2925 3425 2850 
L 3200 3075 
L 4350 3075 
L 4775 4000 
L 3725 4000 
Q 3450 3625 3000 3200 
L 2950 3250 
Q 3650 4250 3900 5225 
z
M 300 -550 
L 225 -500 
Q 675 275 787 1112 
Q 900 1950 850 2425 
L 1400 2150 
Q 1250 2075 1212 1812 
Q 1175 1550 1125 1075 
Q 1500 750 1725 625 
L 1725 2825 
L 950 2825 
Q 750 2825 475 2750 
L 250 2975 
L 1600 2975 
L 1600 4025 
L 1225 4025 
Q 1025 4025 750 3950 
L 525 4175 
L 1600 4175 
Q 1600 4675 1575 5225 
L 2125 4975 
L 1925 4800 
L 1925 4175 
L 2400 4175 
L 2700 4475 
L 3100 4025 
L 1925 4025 
L 1925 2975 
L 2475 2975 
L 2800 3275 
L 3200 2825 
L 1750 2825 
L 2250 2600 
L 2050 2400 
L 2050 1800 
L 2625 1800 
L 2925 2100 
L 3300 1650 
L 2050 1650 
L 2050 425 
Q 2925 25 3737 0 
Q 4550 -25 4925 -25 
Q 5625 -25 6150 25 
L 6150 -50 
Q 5700 -250 5700 -475 
Q 4950 -500 4012 -412 
Q 3075 -325 2325 -12 
Q 1575 300 1100 900 
Q 775 -25 300 -550 
z
" transform="scale(0.015625)"/>
      <path id="SimSun-52bf" d="M 1650 4175 
Q 1650 4775 1625 5200 
L 2150 4950 
L 1975 4800 
L 1975 4175 
L 2200 4175 
L 2475 4450 
L 2900 4025 
L 1975 4025 
L 1975 3425 
Q 2400 3525 2800 3625 
L 2825 3525 
Q 2400 3375 1975 3225 
L 1975 2150 
Q 2000 1800 1475 1575 
Q 1450 1850 800 2025 
L 800 2150 
Q 1225 2100 1437 2087 
Q 1650 2075 1650 2325 
L 1650 3100 
Q 700 2750 700 2650 
L 400 3100 
Q 575 3100 1650 3350 
L 1650 4025 
L 1300 4025 
Q 975 4025 700 3950 
L 475 4175 
L 1650 4175 
z
M 3650 4175 
L 3650 4525 
Q 3650 4875 3625 5225 
L 4175 4975 
L 3975 4800 
L 3975 4200 
L 4700 4250 
L 4850 4475 
L 5200 4200 
L 5025 4050 
Q 5000 3900 5000 3575 
Q 5000 3225 5050 2812 
Q 5100 2400 5425 2175 
Q 5600 2650 5700 3050 
L 5800 3025 
Q 5725 2525 5725 2250 
Q 5725 1975 5825 1775 
Q 5900 1650 5775 1650 
Q 5725 1650 5475 1750 
Q 5225 1850 5012 2137 
Q 4800 2425 4737 2750 
Q 4675 3075 4675 3475 
Q 4675 3850 4700 4100 
L 3975 4050 
Q 3925 3450 3750 3050 
Q 4100 2900 4262 2787 
Q 4425 2675 4387 2475 
Q 4350 2275 4275 2275 
Q 4225 2275 4125 2400 
Q 3925 2625 3625 2825 
Q 3225 2225 2100 1800 
L 2050 1875 
Q 3075 2400 3375 2975 
Q 3225 3100 2850 3300 
L 2900 3375 
Q 3225 3275 3475 3175 
Q 3600 3500 3650 4025 
L 3300 4000 
L 3125 3925 
L 2875 4125 
L 3650 4175 
z
M 2600 1425 
Q 2675 1700 2700 2025 
L 3175 1775 
L 3000 1650 
L 2950 1425 
L 4725 1425 
L 4875 1675 
L 5325 1375 
L 5125 1225 
Q 5050 400 4987 112 
Q 4925 -175 4750 -350 
Q 4575 -525 4225 -600 
Q 4250 -350 3650 -50 
L 3675 50 
Q 4225 -100 4412 -87 
Q 4600 -75 4675 312 
Q 4750 700 4775 1275 
L 2925 1275 
Q 2800 775 2575 450 
Q 2350 125 1875 -162 
Q 1400 -450 450 -650 
L 400 -550 
Q 1500 -225 1950 200 
Q 2400 625 2575 1275 
L 1450 1275 
Q 1125 1275 850 1200 
L 625 1425 
L 2600 1425 
z
" transform="scale(0.015625)"/>
     </defs>
     <use xlink:href="#STIXGeneral-Regular-70" transform="translate(0 0.578125)"/>
     <use xlink:href="#STIXGeneral-Regular-72" transform="translate(49.999985 0.578125)"/>
     <use xlink:href="#STIXGeneral-Regular-6f" transform="translate(83.299973 0.578125)"/>
     <use xlink:href="#STIXGeneral-Regular-74" transform="translate(133.299957 0.578125)"/>
     <use xlink:href="#STIXGeneral-Regular-6f" transform="translate(161.099945 0.578125)"/>
     <use xlink:href="#STIXGeneral-Regular-26" transform="translate(235.16635 0.578125)"/>
     <use xlink:href="#STIXGeneral-Regular-6d" transform="translate(337.032757 0.578125)"/>
     <use xlink:href="#STIXGeneral-Regular-69" transform="translate(414.832745 0.578125)"/>
     <use xlink:href="#STIXGeneral-Regular-63" transform="translate(442.632733 0.578125)"/>
     <use xlink:href="#STIXGeneral-Regular-61" transform="translate(487.032727 0.578125)"/>
     <use xlink:href="#STIXGeneral-Regular-2a" transform="translate(545.872717 0.578125)"/>
     <use xlink:href="#SimSun-7684" transform="translate(610.312698 0.578125)"/>
     <use xlink:href="#SimSun-8bfb" transform="translate(710.312698 0.578125)"/>
     <use xlink:href="#SimSun-53d6" transform="translate(810.312698 0.578125)"/>
     <use xlink:href="#SimSun-547d" transform="translate(910.312698 0.578125)"/>
     <use xlink:href="#SimSun-4e2d" transform="translate(1010.312698 0.578125)"/>
     <use xlink:href="#SimSun-7387" transform="translate(1110.312698 0.578125)"/>
     <use xlink:href="#SimSun-968f" transform="translate(1210.312698 0.578125)"/>
     <use xlink:href="#SimSun-7d22" transform="translate(1310.312698 0.578125)"/>
     <use xlink:href="#SimSun-5f15" transform="translate(1410.312698 0.578125)"/>
     <use xlink:href="#SimSun-88c5" transform="translate(1510.312698 0.578125)"/>
     <use xlink:href="#SimSun-8f7d" transform="translate(1610.312698 0.578125)"/>
     <use xlink:href="#SimSun-7387" transform="translate(1710.312698 0.578125)"/>
     <use xlink:href="#SimSun-7684" transform="translate(1810.312698 0.578125)"/>
     <use xlink:href="#SimSun-53d8" transform="translate(1910.312698 0.578125)"/>
     <use xlink:href="#SimSun-5316" transform="translate(2010.312698 0.578125)"/>
     <use xlink:href="#SimSun-8d8b" transform="translate(2110.312698 0.578125)"/>
     <use xlink:href="#SimSun-52bf" transform="translate(2210.312698 0.578125)"/>
    </g>
   </g>
   <g id="legend_1">
    <g id="patch_7">
     <path d="M 715.235156 131.136437 
L 816.14 131.136437 
Q 819.94 131.136437 819.94 127.336437 
L 819.94 75.508 
Q 819.94 71.708 816.14 71.708 
L 715.235156 71.708 
Q 711.435156 71.708 711.435156 75.508 
L 711.435156 127.336437 
Q 711.435156 131.136437 715.235156 131.136437 
z
" style="fill: #ffffff; opacity: 0.8; stroke: #cccccc; stroke-linejoin: miter"/>
    </g>
    <g id="line2d_25">
     <path d="M 719.035156 85.958 
L 738.035156 85.958 
L 757.035156 85.958 
" style="fill: none; stroke: #ff0000; stroke-width: 1.5; stroke-linecap: square"/>
    </g>
    <g id="text_26">
     <!-- proto -->
     <g transform="translate(772.235156 92.608) scale(0.19 -0.19)">
      <defs>
       <path id="TimesNewRomanPSMT-70" d="M -6 2578 
L 875 2934 
L 994 2934 
L 994 2266 
Q 1216 2644 1439 2795 
Q 1663 2947 1909 2947 
Q 2341 2947 2628 2609 
Q 2981 2197 2981 1534 
Q 2981 794 2556 309 
Q 2206 -88 1675 -88 
Q 1444 -88 1275 -22 
Q 1150 25 994 166 
L 994 -706 
Q 994 -1000 1030 -1079 
Q 1066 -1159 1155 -1206 
Q 1244 -1253 1478 -1253 
L 1478 -1369 
L -22 -1369 
L -22 -1253 
L 56 -1253 
Q 228 -1256 350 -1188 
Q 409 -1153 442 -1076 
Q 475 -1000 475 -688 
L 475 2019 
Q 475 2297 450 2372 
Q 425 2447 370 2484 
Q 316 2522 222 2522 
Q 147 2522 31 2478 
L -6 2578 
z
M 994 2081 
L 994 1013 
Q 994 666 1022 556 
Q 1066 375 1236 237 
Q 1406 100 1666 100 
Q 1978 100 2172 344 
Q 2425 663 2425 1241 
Q 2425 1897 2138 2250 
Q 1938 2494 1663 2494 
Q 1513 2494 1366 2419 
Q 1253 2363 994 2081 
z
" transform="scale(0.015625)"/>
       <path id="TimesNewRomanPSMT-72" d="M 1038 2947 
L 1038 2303 
Q 1397 2947 1775 2947 
Q 1947 2947 2059 2842 
Q 2172 2738 2172 2600 
Q 2172 2478 2090 2393 
Q 2009 2309 1897 2309 
Q 1788 2309 1652 2417 
Q 1516 2525 1450 2525 
Q 1394 2525 1328 2463 
Q 1188 2334 1038 2041 
L 1038 669 
Q 1038 431 1097 309 
Q 1138 225 1241 169 
Q 1344 113 1538 113 
L 1538 0 
L 72 0 
L 72 113 
Q 291 113 397 181 
Q 475 231 506 341 
Q 522 394 522 644 
L 522 1753 
Q 522 2253 501 2348 
Q 481 2444 426 2487 
Q 372 2531 291 2531 
Q 194 2531 72 2484 
L 41 2597 
L 906 2947 
L 1038 2947 
z
" transform="scale(0.015625)"/>
       <path id="TimesNewRomanPSMT-6f" d="M 1600 2947 
Q 2250 2947 2644 2453 
Q 2978 2031 2978 1484 
Q 2978 1100 2793 706 
Q 2609 313 2286 112 
Q 1963 -88 1566 -88 
Q 919 -88 538 428 
Q 216 863 216 1403 
Q 216 1797 411 2186 
Q 606 2575 925 2761 
Q 1244 2947 1600 2947 
z
M 1503 2744 
Q 1338 2744 1170 2645 
Q 1003 2547 900 2300 
Q 797 2053 797 1666 
Q 797 1041 1045 587 
Q 1294 134 1700 134 
Q 2003 134 2200 384 
Q 2397 634 2397 1244 
Q 2397 2006 2069 2444 
Q 1847 2744 1503 2744 
z
" transform="scale(0.015625)"/>
       <path id="TimesNewRomanPSMT-74" d="M 1031 3803 
L 1031 2863 
L 1700 2863 
L 1700 2644 
L 1031 2644 
L 1031 788 
Q 1031 509 1111 412 
Q 1191 316 1316 316 
Q 1419 316 1516 380 
Q 1613 444 1666 569 
L 1788 569 
Q 1678 263 1478 108 
Q 1278 -47 1066 -47 
Q 922 -47 784 33 
Q 647 113 581 261 
Q 516 409 516 719 
L 516 2644 
L 63 2644 
L 63 2747 
Q 234 2816 414 2980 
Q 594 3144 734 3369 
Q 806 3488 934 3803 
L 1031 3803 
z
" transform="scale(0.015625)"/>
      </defs>
      <use xlink:href="#TimesNewRomanPSMT-70"/>
      <use xlink:href="#TimesNewRomanPSMT-72" x="50"/>
      <use xlink:href="#TimesNewRomanPSMT-6f" x="83.300781"/>
      <use xlink:href="#TimesNewRomanPSMT-74" x="133.300781"/>
      <use xlink:href="#TimesNewRomanPSMT-6f" x="161.083984"/>
     </g>
    </g>
    <g id="line2d_26">
     <path d="M 719.035156 112.822219 
L 738.035156 112.822219 
L 757.035156 112.822219 
" style="fill: none; stroke: #0000ff; stroke-width: 1.5; stroke-linecap: square"/>
    </g>
    <g id="text_27">
     <!-- mica -->
     <g transform="translate(772.235156 119.472219) scale(0.19 -0.19)">
      <defs>
       <path id="TimesNewRomanPSMT-6d" d="M 1050 2338 
Q 1363 2650 1419 2697 
Q 1559 2816 1721 2881 
Q 1884 2947 2044 2947 
Q 2313 2947 2506 2790 
Q 2700 2634 2766 2338 
Q 3088 2713 3309 2830 
Q 3531 2947 3766 2947 
Q 3994 2947 4170 2830 
Q 4347 2713 4450 2447 
Q 4519 2266 4519 1878 
L 4519 647 
Q 4519 378 4559 278 
Q 4591 209 4675 161 
Q 4759 113 4950 113 
L 4950 0 
L 3538 0 
L 3538 113 
L 3597 113 
Q 3781 113 3884 184 
Q 3956 234 3988 344 
Q 4000 397 4000 647 
L 4000 1878 
Q 4000 2228 3916 2372 
Q 3794 2572 3525 2572 
Q 3359 2572 3192 2489 
Q 3025 2406 2788 2181 
L 2781 2147 
L 2788 2013 
L 2788 647 
Q 2788 353 2820 281 
Q 2853 209 2943 161 
Q 3034 113 3253 113 
L 3253 0 
L 1806 0 
L 1806 113 
Q 2044 113 2133 169 
Q 2222 225 2256 338 
Q 2272 391 2272 647 
L 2272 1878 
Q 2272 2228 2169 2381 
Q 2031 2581 1784 2581 
Q 1616 2581 1450 2491 
Q 1191 2353 1050 2181 
L 1050 647 
Q 1050 366 1089 281 
Q 1128 197 1204 155 
Q 1281 113 1516 113 
L 1516 0 
L 100 0 
L 100 113 
Q 297 113 375 155 
Q 453 197 493 289 
Q 534 381 534 647 
L 534 1741 
Q 534 2213 506 2350 
Q 484 2453 437 2492 
Q 391 2531 309 2531 
Q 222 2531 100 2484 
L 53 2597 
L 916 2947 
L 1050 2947 
L 1050 2338 
z
" transform="scale(0.015625)"/>
       <path id="TimesNewRomanPSMT-69" d="M 928 4444 
Q 1059 4444 1151 4351 
Q 1244 4259 1244 4128 
Q 1244 3997 1151 3903 
Q 1059 3809 928 3809 
Q 797 3809 703 3903 
Q 609 3997 609 4128 
Q 609 4259 701 4351 
Q 794 4444 928 4444 
z
M 1188 2947 
L 1188 647 
Q 1188 378 1227 289 
Q 1266 200 1342 156 
Q 1419 113 1622 113 
L 1622 0 
L 231 0 
L 231 113 
Q 441 113 512 153 
Q 584 194 626 287 
Q 669 381 669 647 
L 669 1750 
Q 669 2216 641 2353 
Q 619 2453 572 2492 
Q 525 2531 444 2531 
Q 356 2531 231 2484 
L 188 2597 
L 1050 2947 
L 1188 2947 
z
" transform="scale(0.015625)"/>
       <path id="TimesNewRomanPSMT-63" d="M 2631 1088 
Q 2516 522 2178 217 
Q 1841 -88 1431 -88 
Q 944 -88 581 321 
Q 219 731 219 1428 
Q 219 2103 620 2525 
Q 1022 2947 1584 2947 
Q 2006 2947 2278 2723 
Q 2550 2500 2550 2259 
Q 2550 2141 2473 2067 
Q 2397 1994 2259 1994 
Q 2075 1994 1981 2113 
Q 1928 2178 1911 2362 
Q 1894 2547 1784 2644 
Q 1675 2738 1481 2738 
Q 1169 2738 978 2506 
Q 725 2200 725 1697 
Q 725 1184 976 792 
Q 1228 400 1656 400 
Q 1963 400 2206 609 
Q 2378 753 2541 1131 
L 2631 1088 
z
" transform="scale(0.015625)"/>
       <path id="TimesNewRomanPSMT-61" d="M 1822 413 
Q 1381 72 1269 19 
Q 1100 -59 909 -59 
Q 613 -59 420 144 
Q 228 347 228 678 
Q 228 888 322 1041 
Q 450 1253 767 1440 
Q 1084 1628 1822 1897 
L 1822 2009 
Q 1822 2438 1686 2597 
Q 1550 2756 1291 2756 
Q 1094 2756 978 2650 
Q 859 2544 859 2406 
L 866 2225 
Q 866 2081 792 2003 
Q 719 1925 600 1925 
Q 484 1925 411 2006 
Q 338 2088 338 2228 
Q 338 2497 613 2722 
Q 888 2947 1384 2947 
Q 1766 2947 2009 2819 
Q 2194 2722 2281 2516 
Q 2338 2381 2338 1966 
L 2338 994 
Q 2338 584 2353 492 
Q 2369 400 2405 369 
Q 2441 338 2488 338 
Q 2538 338 2575 359 
Q 2641 400 2828 588 
L 2828 413 
Q 2478 -56 2159 -56 
Q 2006 -56 1915 50 
Q 1825 156 1822 413 
z
M 1822 616 
L 1822 1706 
Q 1350 1519 1213 1441 
Q 966 1303 859 1153 
Q 753 1003 753 825 
Q 753 600 887 451 
Q 1022 303 1197 303 
Q 1434 303 1822 616 
z
" transform="scale(0.015625)"/>
      </defs>
      <use xlink:href="#TimesNewRomanPSMT-6d"/>
      <use xlink:href="#TimesNewRomanPSMT-69" x="77.783203"/>
      <use xlink:href="#TimesNewRomanPSMT-63" x="105.566406"/>
      <use xlink:href="#TimesNewRomanPSMT-61" x="149.951172"/>
     </g>
    </g>
   </g>
  </g>
 </g>
 <defs>
  <clipPath id="p0c5b6113f6">
   <rect x="115.2" y="62.208" width="714.24" height="399.168"/>
  </clipPath>
 </defs>
</svg>
