<?xml version="1.0" encoding="utf-8" standalone="no"?>
<!DOCTYPE svg PUBLIC "-//W3C//DTD SVG 1.1//EN"
  "http://www.w3.org/Graphics/SVG/1.1/DTD/svg11.dtd">
<svg xmlns:xlink="http://www.w3.org/1999/xlink" width="921.6pt" height="518.4pt" viewBox="0 0 921.6 518.4" xmlns="http://www.w3.org/2000/svg" version="1.1">
 <metadata>
  <rdf:RDF xmlns:dc="http://purl.org/dc/elements/1.1/" xmlns:cc="http://creativecommons.org/ns#" xmlns:rdf="http://www.w3.org/1999/02/22-rdf-syntax-ns#">
   <cc:Work>
    <dc:type rdf:resource="http://purl.org/dc/dcmitype/StillImage"/>
    <dc:date>2023-08-23T12:20:36.997651</dc:date>
    <dc:format>image/svg+xml</dc:format>
    <dc:creator>
     <cc:Agent>
      <dc:title>Matplotlib v3.7.1, https://matplotlib.org/</dc:title>
     </cc:Agent>
    </dc:creator>
   </cc:Work>
  </rdf:RDF>
 </metadata>
 <defs>
  <style type="text/css">*{stroke-linejoin: round; stroke-linecap: butt}</style>
 </defs>
 <g id="figure_1">
  <g id="patch_1">
   <path d="M 0 518.4 
L 921.6 518.4 
L 921.6 0 
L 0 0 
z
" style="fill: #ffffff"/>
  </g>
  <g id="axes_1">
   <g id="patch_2">
    <path d="M 115.2 461.376 
L 829.44 461.376 
L 829.44 62.208 
L 115.2 62.208 
z
" style="fill: #ffffff"/>
   </g>
   <g id="matplotlib.axis_1">
    <g id="xtick_1">
     <g id="line2d_1">
      <defs>
       <path id="m6c8da24028" d="M 0 0 
L 0 3.5 
" style="stroke: #000000; stroke-width: 0.8"/>
      </defs>
      <g>
       <use xlink:href="#m6c8da24028" x="115.2" y="461.376" style="stroke: #000000; stroke-width: 0.8"/>
      </g>
     </g>
     <g id="text_1">
      <!-- 0 -->
      <g transform="translate(110.45 481.958031) scale(0.19 -0.19)">
       <defs>
        <path id="SimSun-30" d="M 1600 4225 
Q 1250 4225 1012 3687 
Q 775 3150 775 2250 
Q 775 1300 1012 775 
Q 1250 250 1600 250 
Q 1975 250 2187 775 
Q 2400 1300 2400 2250 
Q 2400 3150 2200 3687 
Q 2000 4225 1600 4225 
z
M 1600 50 
Q 1050 50 675 625 
Q 300 1200 300 2250 
Q 300 3225 662 3825 
Q 1025 4425 1600 4425 
Q 2150 4425 2512 3850 
Q 2875 3275 2875 2250 
Q 2875 1225 2512 637 
Q 2150 50 1600 50 
z
" transform="scale(0.015625)"/>
       </defs>
       <use xlink:href="#SimSun-30"/>
      </g>
     </g>
    </g>
    <g id="xtick_2">
     <g id="line2d_2">
      <g>
       <use xlink:href="#m6c8da24028" x="234.24" y="461.376" style="stroke: #000000; stroke-width: 0.8"/>
      </g>
     </g>
     <g id="text_2">
      <!-- 50 -->
      <g transform="translate(224.74 481.958031) scale(0.19 -0.19)">
       <defs>
        <path id="SimSun-35" d="M 1725 2850 
Q 2200 2850 2500 2487 
Q 2800 2125 2800 1525 
Q 2800 850 2487 450 
Q 2175 50 1525 50 
Q 1075 50 725 312 
Q 375 575 375 950 
Q 375 1100 462 1212 
Q 550 1325 700 1325 
Q 850 1325 900 1225 
Q 950 1125 950 1050 
Q 950 900 875 825 
Q 800 725 800 625 
Q 800 425 1037 325 
Q 1275 225 1550 225 
Q 1950 225 2162 550 
Q 2375 875 2375 1475 
Q 2375 1975 2187 2287 
Q 2000 2600 1625 2600 
Q 1350 2600 1150 2500 
Q 950 2400 775 2075 
L 550 2100 
L 675 4375 
L 2725 4375 
L 2650 4000 
L 850 4000 
L 750 2350 
Q 1000 2700 1237 2775 
Q 1475 2850 1725 2850 
z
" transform="scale(0.015625)"/>
       </defs>
       <use xlink:href="#SimSun-35"/>
       <use xlink:href="#SimSun-30" x="50"/>
      </g>
     </g>
    </g>
    <g id="xtick_3">
     <g id="line2d_3">
      <g>
       <use xlink:href="#m6c8da24028" x="353.28" y="461.376" style="stroke: #000000; stroke-width: 0.8"/>
      </g>
     </g>
     <g id="text_3">
      <!-- 100 -->
      <g transform="translate(339.03 481.958031) scale(0.19 -0.19)">
       <defs>
        <path id="SimSun-31" d="M 1825 4450 
L 1825 650 
Q 1825 450 1950 350 
Q 2075 250 2300 250 
L 2550 250 
L 2550 100 
L 725 100 
L 725 250 
L 950 250 
Q 1200 250 1312 350 
Q 1425 450 1425 650 
L 1425 3675 
Q 1425 3775 1362 3837 
Q 1300 3900 1175 3900 
L 725 3900 
L 725 4050 
L 950 4050 
Q 1250 4050 1437 4150 
Q 1625 4250 1725 4450 
L 1825 4450 
z
" transform="scale(0.015625)"/>
       </defs>
       <use xlink:href="#SimSun-31"/>
       <use xlink:href="#SimSun-30" x="50"/>
       <use xlink:href="#SimSun-30" x="100"/>
      </g>
     </g>
    </g>
    <g id="xtick_4">
     <g id="line2d_4">
      <g>
       <use xlink:href="#m6c8da24028" x="472.32" y="461.376" style="stroke: #000000; stroke-width: 0.8"/>
      </g>
     </g>
     <g id="text_4">
      <!-- 150 -->
      <g transform="translate(458.07 481.958031) scale(0.19 -0.19)">
       <use xlink:href="#SimSun-31"/>
       <use xlink:href="#SimSun-35" x="50"/>
       <use xlink:href="#SimSun-30" x="100"/>
      </g>
     </g>
    </g>
    <g id="xtick_5">
     <g id="line2d_5">
      <g>
       <use xlink:href="#m6c8da24028" x="591.36" y="461.376" style="stroke: #000000; stroke-width: 0.8"/>
      </g>
     </g>
     <g id="text_5">
      <!-- 200 -->
      <g transform="translate(577.11 481.958031) scale(0.19 -0.19)">
       <defs>
        <path id="SimSun-32" d="M 2325 3325 
Q 2325 3775 2125 4012 
Q 1925 4250 1525 4250 
Q 1225 4250 1012 4087 
Q 800 3925 800 3675 
Q 800 3525 900 3425 
Q 975 3325 975 3225 
Q 975 3100 912 3037 
Q 850 2975 725 2975 
Q 575 2975 487 3062 
Q 400 3150 400 3350 
Q 400 3875 775 4150 
Q 1150 4425 1575 4425 
Q 2175 4425 2462 4125 
Q 2750 3825 2750 3375 
Q 2750 3075 2612 2775 
Q 2475 2475 2175 2200 
Q 1450 1500 1062 1062 
Q 675 625 600 475 
L 2075 475 
Q 2300 475 2450 650 
Q 2600 825 2650 1175 
L 2800 1175 
L 2650 100 
L 325 100 
L 325 425 
Q 450 650 737 1000 
Q 1025 1350 1500 1825 
Q 1925 2250 2125 2625 
Q 2325 3000 2325 3325 
z
" transform="scale(0.015625)"/>
       </defs>
       <use xlink:href="#SimSun-32"/>
       <use xlink:href="#SimSun-30" x="50"/>
       <use xlink:href="#SimSun-30" x="100"/>
      </g>
     </g>
    </g>
    <g id="xtick_6">
     <g id="line2d_6">
      <g>
       <use xlink:href="#m6c8da24028" x="710.4" y="461.376" style="stroke: #000000; stroke-width: 0.8"/>
      </g>
     </g>
     <g id="text_6">
      <!-- 250 -->
      <g transform="translate(696.15 481.958031) scale(0.19 -0.19)">
       <use xlink:href="#SimSun-32"/>
       <use xlink:href="#SimSun-35" x="50"/>
       <use xlink:href="#SimSun-30" x="100"/>
      </g>
     </g>
    </g>
    <g id="xtick_7">
     <g id="line2d_7">
      <g>
       <use xlink:href="#m6c8da24028" x="829.44" y="461.376" style="stroke: #000000; stroke-width: 0.8"/>
      </g>
     </g>
     <g id="text_7">
      <!-- 300 -->
      <g transform="translate(815.19 481.958031) scale(0.19 -0.19)">
       <defs>
        <path id="SimSun-33" d="M 2800 1250 
Q 2800 775 2450 412 
Q 2100 50 1475 50 
Q 1025 50 700 300 
Q 375 550 375 875 
Q 375 1025 475 1137 
Q 575 1250 675 1250 
Q 825 1250 887 1137 
Q 950 1025 950 950 
Q 950 825 900 750 
Q 850 650 850 575 
Q 850 425 1037 325 
Q 1225 225 1450 225 
Q 1900 225 2125 487 
Q 2350 750 2350 1300 
Q 2350 1750 2112 2025 
Q 1875 2300 1225 2300 
L 1225 2475 
Q 1725 2475 1962 2712 
Q 2200 2950 2200 3375 
Q 2200 3725 2012 3987 
Q 1825 4250 1425 4250 
Q 1250 4250 1050 4162 
Q 850 4075 850 3875 
Q 850 3675 900 3625 
Q 950 3575 950 3500 
Q 950 3375 900 3300 
Q 850 3225 725 3225 
Q 625 3225 537 3300 
Q 450 3375 450 3575 
Q 450 3950 775 4187 
Q 1100 4425 1525 4425 
Q 2025 4425 2325 4112 
Q 2625 3800 2625 3450 
Q 2625 3075 2437 2812 
Q 2250 2550 1850 2425 
Q 2400 2225 2600 1900 
Q 2800 1575 2800 1250 
z
" transform="scale(0.015625)"/>
       </defs>
       <use xlink:href="#SimSun-33"/>
       <use xlink:href="#SimSun-30" x="50"/>
       <use xlink:href="#SimSun-30" x="100"/>
      </g>
     </g>
    </g>
    <g id="text_8">
     <!-- 请求数 $\mathrm{(M)}$ -->
     <g transform="translate(424.25 504.17725) scale(0.19 -0.19)">
      <defs>
       <path id="SimSun-8bf7" d="M 3800 4400 
Q 3800 4925 3775 5250 
L 4350 5000 
L 4150 4825 
L 4150 4400 
L 5175 4400 
L 5525 4725 
L 5950 4250 
L 4150 4250 
L 4150 3725 
L 4875 3725 
L 5200 4025 
L 5600 3575 
L 4150 3575 
L 4150 2950 
L 5325 2950 
L 5675 3275 
L 6100 2800 
L 2650 2800 
Q 2450 2800 2175 2725 
L 1950 2950 
L 3800 2950 
L 3800 3575 
L 3225 3575 
Q 3025 3575 2750 3500 
L 2525 3725 
L 3800 3725 
L 3800 4250 
L 2850 4250 
Q 2650 4250 2375 4175 
L 2150 4400 
L 3800 4400 
z
M 3075 2150 
L 3075 1650 
L 4975 1650 
L 4975 2150 
L 3075 2150 
z
M 3075 1500 
L 3075 925 
L 4975 925 
L 4975 1500 
L 3075 1500 
z
M 2725 2500 
L 3050 2300 
L 4925 2300 
L 5075 2525 
L 5475 2225 
L 5300 2075 
L 5300 50 
Q 5325 -425 4750 -600 
Q 4750 -275 4075 -125 
L 4075 -25 
Q 4500 -50 4750 -62 
Q 5000 -75 4975 175 
L 4975 775 
L 3075 775 
L 3075 -450 
L 2725 -625 
Q 2750 125 2750 1000 
Q 2750 1875 2725 2500 
z
M 850 5000 
L 925 5050 
Q 1375 4750 1512 4562 
Q 1650 4375 1600 4200 
Q 1550 4025 1450 3950 
L 1325 3875 
Q 1225 3875 1200 4150 
Q 1150 4500 850 5000 
z
M 200 3075 
L 1100 3075 
L 1300 3325 
L 1725 3000 
L 1500 2825 
L 1500 600 
L 2400 1425 
L 2475 1350 
Q 1775 525 1400 -150 
L 1050 250 
Q 1150 400 1150 600 
L 1150 2925 
L 900 2925 
Q 700 2925 425 2850 
L 200 3075 
z
" transform="scale(0.015625)"/>
       <path id="SimSun-6c42" d="M 3950 5025 
Q 4500 4825 4737 4687 
Q 4975 4550 4975 4350 
Q 4975 4300 4912 4125 
Q 4850 3950 4800 3950 
Q 4725 3950 4625 4150 
Q 4425 4475 3900 4950 
L 3950 5025 
z
M 2900 5225 
L 3500 4900 
L 3300 4700 
L 3300 3775 
L 5050 3775 
L 5400 4150 
L 5900 3625 
L 3325 3625 
Q 3650 2575 4000 2000 
Q 4725 2575 5100 3125 
L 5525 2650 
Q 5250 2600 4950 2425 
Q 4650 2225 4050 1875 
Q 4900 650 6100 375 
L 6100 275 
Q 5675 225 5525 -75 
Q 3750 900 3300 3325 
L 3300 175 
Q 3325 -425 2675 -600 
Q 2650 -250 1925 -25 
L 1925 75 
Q 2475 25 2687 25 
Q 2900 25 2925 250 
L 2925 1700 
Q 1950 1075 1387 700 
Q 825 325 700 100 
L 300 600 
Q 575 650 1225 975 
Q 1875 1300 2925 1850 
L 2925 3625 
L 1275 3625 
Q 950 3625 675 3550 
L 450 3775 
L 2925 3775 
Q 2925 4850 2900 5225 
z
M 1050 3175 
Q 1775 2900 1975 2712 
Q 2175 2525 2175 2350 
Q 2175 2250 2075 2075 
Q 1975 1900 1925 1900 
Q 1850 1900 1750 2175 
Q 1575 2575 1000 3100 
L 1050 3175 
z
" transform="scale(0.015625)"/>
       <path id="SimSun-6570" d="M 1875 1525 
Q 1675 1200 1500 900 
Q 1825 825 2275 725 
Q 2500 975 2725 1525 
L 1875 1525 
z
M 850 4900 
Q 1325 4600 1425 4450 
Q 1525 4300 1525 4225 
Q 1525 4100 1437 3975 
Q 1350 3850 1300 3850 
Q 1225 3850 1150 4100 
Q 1050 4450 775 4850 
L 850 4900 
z
M 3000 4975 
L 3450 4675 
Q 3250 4625 3100 4425 
Q 2925 4225 2525 3825 
L 2450 3875 
Q 2925 4625 3000 4975 
z
M 1875 5250 
L 2425 5000 
L 2225 4825 
L 2225 3675 
L 2850 3675 
L 3125 3950 
L 3550 3525 
L 2225 3525 
L 2225 3300 
Q 2800 3175 2937 3062 
Q 3075 2950 3075 2775 
Q 3075 2700 3050 2587 
Q 3025 2475 2975 2475 
Q 2925 2475 2800 2650 
Q 2600 2925 2225 3175 
L 2225 2400 
L 1925 2200 
L 2275 2050 
Q 2150 2000 1950 1675 
L 2725 1675 
L 2900 1900 
L 3275 1575 
L 3050 1450 
Q 2800 875 2600 650 
Q 3000 550 3137 437 
Q 3275 325 3275 150 
Q 3275 -25 3200 -25 
Q 3125 -25 3025 75 
Q 2750 275 2400 425 
Q 1525 -275 325 -500 
L 300 -425 
Q 1450 -50 2100 550 
Q 1600 725 1125 800 
Q 1225 950 1525 1525 
L 1200 1525 
Q 875 1525 600 1450 
L 375 1675 
L 1575 1675 
Q 1675 1925 1775 2275 
L 1900 2225 
L 1900 3250 
Q 1225 2475 350 2050 
L 300 2125 
Q 1225 2775 1700 3525 
L 1250 3525 
Q 925 3525 650 3450 
L 425 3675 
L 1900 3675 
Q 1900 4575 1875 5250 
z
M 3925 3525 
Q 4050 2075 4525 1100 
Q 4925 1950 5025 3525 
L 3925 3525 
z
M 4050 5250 
L 4625 4925 
Q 4425 4850 4325 4625 
Q 4225 4400 3950 3675 
L 5375 3675 
L 5675 3975 
L 6125 3525 
L 5400 3525 
Q 5250 1675 4750 775 
Q 5325 75 6100 -100 
L 6100 -200 
Q 5625 -275 5600 -500 
Q 4950 -50 4525 525 
Q 3700 -275 2550 -650 
L 2500 -575 
Q 3650 -50 4325 800 
Q 3850 1975 3825 3375 
Q 3575 2725 3100 2150 
L 3025 2200 
Q 3625 3200 4050 5250 
z
" transform="scale(0.015625)"/>
       <path id="SimSun-20" d="M 0 0 
Q 0 0 0 0 
z
" transform="scale(0.015625)"/>
       <path id="STIXGeneral-Regular-28" d="M 1946 -1030 
L 1869 -1133 
Q 1126 -710 716 32 
Q 307 774 307 1613 
Q 307 3386 1888 4326 
L 1946 4224 
Q 1293 3667 1075 3126 
Q 858 2586 858 1632 
Q 858 685 1082 96 
Q 1306 -493 1946 -1030 
z
" transform="scale(0.015625)"/>
       <path id="STIXGeneral-Regular-4d" d="M 5530 0 
L 3738 0 
L 3738 122 
Q 4115 147 4214 265 
Q 4314 384 4314 787 
L 4314 3661 
L 2682 0 
L 2592 0 
L 979 3514 
L 979 966 
Q 979 448 1088 294 
Q 1197 141 1574 122 
L 1574 0 
L 77 0 
L 77 122 
Q 358 141 480 205 
Q 602 269 650 432 
Q 698 595 698 966 
L 698 3514 
Q 698 3878 589 3984 
Q 480 4090 90 4115 
L 90 4237 
L 1357 4237 
L 2835 1024 
L 4250 4237 
L 5523 4237 
L 5523 4115 
Q 5178 4109 5072 3993 
Q 4966 3878 4966 3520 
L 4966 717 
Q 4966 378 5072 262 
Q 5178 147 5530 122 
L 5530 0 
z
" transform="scale(0.015625)"/>
       <path id="STIXGeneral-Regular-29" d="M 186 4224 
L 262 4326 
Q 992 3891 1408 3148 
Q 1824 2406 1824 1581 
Q 1824 -166 243 -1133 
L 186 -1030 
Q 845 -486 1059 54 
Q 1274 595 1274 1562 
Q 1274 2534 1059 3120 
Q 845 3706 186 4224 
z
" transform="scale(0.015625)"/>
      </defs>
      <use xlink:href="#SimSun-8bf7" transform="translate(0 0.96875)"/>
      <use xlink:href="#SimSun-6c42" transform="translate(100 0.96875)"/>
      <use xlink:href="#SimSun-6570" transform="translate(200 0.96875)"/>
      <use xlink:href="#SimSun-20" transform="translate(300 0.96875)"/>
      <use xlink:href="#STIXGeneral-Regular-28" transform="translate(350 0.96875)"/>
      <use xlink:href="#STIXGeneral-Regular-4d" transform="translate(383.299988 0.96875)"/>
      <use xlink:href="#STIXGeneral-Regular-29" transform="translate(472.199982 0.96875)"/>
     </g>
    </g>
   </g>
   <g id="matplotlib.axis_2">
    <g id="ytick_1">
     <g id="line2d_8">
      <defs>
       <path id="ma00d535d06" d="M 0 0 
L -3.5 0 
" style="stroke: #000000; stroke-width: 0.8"/>
      </defs>
      <g>
       <use xlink:href="#ma00d535d06" x="115.2" y="461.376" style="stroke: #000000; stroke-width: 0.8"/>
      </g>
     </g>
     <g id="text_9">
      <!-- 0 -->
      <g transform="translate(98.7 468.167016) scale(0.19 -0.19)">
       <use xlink:href="#SimSun-30"/>
      </g>
     </g>
    </g>
    <g id="ytick_2">
     <g id="line2d_9">
      <g>
       <use xlink:href="#ma00d535d06" x="115.2" y="421.4592" style="stroke: #000000; stroke-width: 0.8"/>
      </g>
     </g>
     <g id="text_10">
      <!-- 10 -->
      <g transform="translate(89.2 428.250216) scale(0.19 -0.19)">
       <use xlink:href="#SimSun-31"/>
       <use xlink:href="#SimSun-30" x="50"/>
      </g>
     </g>
    </g>
    <g id="ytick_3">
     <g id="line2d_10">
      <g>
       <use xlink:href="#ma00d535d06" x="115.2" y="381.5424" style="stroke: #000000; stroke-width: 0.8"/>
      </g>
     </g>
     <g id="text_11">
      <!-- 20 -->
      <g transform="translate(89.2 388.333416) scale(0.19 -0.19)">
       <use xlink:href="#SimSun-32"/>
       <use xlink:href="#SimSun-30" x="50"/>
      </g>
     </g>
    </g>
    <g id="ytick_4">
     <g id="line2d_11">
      <g>
       <use xlink:href="#ma00d535d06" x="115.2" y="341.6256" style="stroke: #000000; stroke-width: 0.8"/>
      </g>
     </g>
     <g id="text_12">
      <!-- 30 -->
      <g transform="translate(89.2 348.416616) scale(0.19 -0.19)">
       <use xlink:href="#SimSun-33"/>
       <use xlink:href="#SimSun-30" x="50"/>
      </g>
     </g>
    </g>
    <g id="ytick_5">
     <g id="line2d_12">
      <g>
       <use xlink:href="#ma00d535d06" x="115.2" y="301.7088" style="stroke: #000000; stroke-width: 0.8"/>
      </g>
     </g>
     <g id="text_13">
      <!-- 40 -->
      <g transform="translate(89.2 308.499816) scale(0.19 -0.19)">
       <defs>
        <path id="SimSun-34" d="M 2300 575 
Q 2300 400 2400 325 
Q 2500 250 2675 250 
L 2900 250 
L 2900 100 
L 1250 100 
L 1250 250 
L 1525 250 
Q 1725 250 1812 325 
Q 1900 400 1900 575 
L 1900 1400 
L 225 1400 
L 225 1525 
L 2050 4425 
L 2300 4425 
L 2300 1550 
L 2975 1550 
L 2975 1400 
L 2300 1400 
L 2300 575 
z
M 1875 3800 
L 450 1550 
L 1900 1550 
L 1900 3800 
L 1875 3800 
z
" transform="scale(0.015625)"/>
       </defs>
       <use xlink:href="#SimSun-34"/>
       <use xlink:href="#SimSun-30" x="50"/>
      </g>
     </g>
    </g>
    <g id="ytick_6">
     <g id="line2d_13">
      <g>
       <use xlink:href="#ma00d535d06" x="115.2" y="261.792" style="stroke: #000000; stroke-width: 0.8"/>
      </g>
     </g>
     <g id="text_14">
      <!-- 50 -->
      <g transform="translate(89.2 268.583016) scale(0.19 -0.19)">
       <use xlink:href="#SimSun-35"/>
       <use xlink:href="#SimSun-30" x="50"/>
      </g>
     </g>
    </g>
    <g id="ytick_7">
     <g id="line2d_14">
      <g>
       <use xlink:href="#ma00d535d06" x="115.2" y="221.8752" style="stroke: #000000; stroke-width: 0.8"/>
      </g>
     </g>
     <g id="text_15">
      <!-- 60 -->
      <g transform="translate(89.2 228.666216) scale(0.19 -0.19)">
       <defs>
        <path id="SimSun-36" d="M 775 1800 
Q 775 1050 1037 637 
Q 1300 225 1675 225 
Q 2050 225 2250 500 
Q 2450 775 2450 1525 
Q 2450 2025 2237 2300 
Q 2025 2575 1725 2575 
Q 1450 2575 1212 2412 
Q 975 2250 775 1800 
z
M 1750 2825 
Q 2350 2825 2612 2425 
Q 2875 2025 2875 1525 
Q 2875 775 2512 412 
Q 2150 50 1675 50 
Q 1000 50 650 562 
Q 300 1075 300 2050 
Q 300 3200 725 3812 
Q 1150 4425 1875 4425 
Q 2225 4425 2437 4225 
Q 2650 4025 2650 3875 
Q 2650 3725 2587 3650 
Q 2525 3575 2375 3575 
Q 2250 3575 2187 3637 
Q 2125 3700 2125 3825 
Q 2125 3875 2150 3925 
Q 2150 3975 2150 4025 
Q 2150 4125 2075 4187 
Q 2000 4250 1800 4250 
Q 1375 4250 1075 3862 
Q 775 3475 775 2175 
Q 925 2500 1187 2662 
Q 1450 2825 1750 2825 
z
" transform="scale(0.015625)"/>
       </defs>
       <use xlink:href="#SimSun-36"/>
       <use xlink:href="#SimSun-30" x="50"/>
      </g>
     </g>
    </g>
    <g id="ytick_8">
     <g id="line2d_15">
      <g>
       <use xlink:href="#ma00d535d06" x="115.2" y="181.9584" style="stroke: #000000; stroke-width: 0.8"/>
      </g>
     </g>
     <g id="text_16">
      <!-- 70 -->
      <g transform="translate(89.2 188.749416) scale(0.19 -0.19)">
       <defs>
        <path id="SimSun-37" d="M 2825 4200 
Q 2300 3350 1987 2537 
Q 1675 1725 1675 1125 
Q 1675 1025 1700 850 
Q 1700 650 1700 400 
Q 1700 200 1637 125 
Q 1575 50 1425 50 
Q 1300 50 1212 137 
Q 1125 225 1125 450 
Q 1125 925 1337 1625 
Q 1550 2325 2475 4000 
L 1225 4000 
Q 950 4000 787 3825 
Q 625 3650 550 3300 
L 400 3325 
L 575 4375 
L 2825 4375 
L 2825 4200 
z
" transform="scale(0.015625)"/>
       </defs>
       <use xlink:href="#SimSun-37"/>
       <use xlink:href="#SimSun-30" x="50"/>
      </g>
     </g>
    </g>
    <g id="ytick_9">
     <g id="line2d_16">
      <g>
       <use xlink:href="#ma00d535d06" x="115.2" y="142.0416" style="stroke: #000000; stroke-width: 0.8"/>
      </g>
     </g>
     <g id="text_17">
      <!-- 80 -->
      <g transform="translate(89.2 148.832616) scale(0.19 -0.19)">
       <defs>
        <path id="SimSun-38" d="M 625 1125 
Q 625 725 887 475 
Q 1150 225 1550 225 
Q 2025 225 2237 475 
Q 2450 725 2450 1100 
Q 2450 1425 2150 1725 
Q 1850 2025 1250 2275 
Q 950 2075 787 1775 
Q 625 1475 625 1125 
z
M 2825 1175 
Q 2825 700 2475 375 
Q 2125 50 1550 50 
Q 1025 50 650 375 
Q 275 700 275 1125 
Q 275 1550 487 1850 
Q 700 2150 1100 2375 
Q 750 2550 562 2812 
Q 375 3075 375 3400 
Q 375 3825 700 4125 
Q 1025 4425 1600 4425 
Q 2125 4425 2450 4125 
Q 2775 3825 2775 3400 
Q 2775 3100 2587 2837 
Q 2400 2575 2000 2375 
Q 2425 2125 2625 1825 
Q 2825 1525 2825 1175 
z
M 2425 3375 
Q 2425 3725 2225 3987 
Q 2025 4250 1600 4250 
Q 1125 4250 925 4000 
Q 725 3750 725 3475 
Q 725 3200 1012 2937 
Q 1300 2675 1825 2475 
Q 2125 2625 2275 2850 
Q 2425 3075 2425 3375 
z
" transform="scale(0.015625)"/>
       </defs>
       <use xlink:href="#SimSun-38"/>
       <use xlink:href="#SimSun-30" x="50"/>
      </g>
     </g>
    </g>
    <g id="ytick_10">
     <g id="line2d_17">
      <g>
       <use xlink:href="#ma00d535d06" x="115.2" y="102.1248" style="stroke: #000000; stroke-width: 0.8"/>
      </g>
     </g>
     <g id="text_18">
      <!-- 90 -->
      <g transform="translate(89.2 108.915816) scale(0.19 -0.19)">
       <defs>
        <path id="SimSun-39" d="M 700 3050 
Q 700 2500 912 2212 
Q 1125 1925 1450 1925 
Q 1825 1925 2100 2275 
Q 2375 2625 2375 2925 
Q 2375 3525 2175 3887 
Q 1975 4250 1525 4250 
Q 1100 4250 900 3912 
Q 700 3575 700 3050 
z
M 1375 1700 
Q 875 1700 575 2012 
Q 275 2325 275 3025 
Q 275 3625 600 4025 
Q 925 4425 1525 4425 
Q 2150 4425 2500 3925 
Q 2850 3425 2850 2475 
Q 2850 1425 2437 737 
Q 2025 50 1300 50 
Q 975 50 737 200 
Q 500 350 500 600 
Q 500 700 562 800 
Q 625 900 775 900 
Q 925 900 975 787 
Q 1025 675 1025 525 
Q 1025 425 1050 362 
Q 1075 300 1100 275 
Q 1125 250 1187 237 
Q 1250 225 1325 225 
Q 1775 225 2050 725 
Q 2325 1225 2375 2400 
Q 2250 2100 2000 1900 
Q 1750 1700 1375 1700 
z
" transform="scale(0.015625)"/>
       </defs>
       <use xlink:href="#SimSun-39"/>
       <use xlink:href="#SimSun-30" x="50"/>
      </g>
     </g>
    </g>
    <g id="ytick_11">
     <g id="line2d_18">
      <g>
       <use xlink:href="#ma00d535d06" x="115.2" y="62.208" style="stroke: #000000; stroke-width: 0.8"/>
      </g>
     </g>
     <g id="text_19">
      <!-- 100 -->
      <g transform="translate(79.7 68.999016) scale(0.19 -0.19)">
       <use xlink:href="#SimSun-31"/>
       <use xlink:href="#SimSun-30" x="50"/>
       <use xlink:href="#SimSun-30" x="100"/>
      </g>
     </g>
    </g>
    <g id="text_20">
     <!-- 读取命中率 $\mathrm{(\%)}$ -->
     <g transform="translate(72.28 327.532) rotate(-90) scale(0.19 -0.19)">
      <defs>
       <path id="SimSun-8bfb" d="M 1450 275 
L 2375 850 
L 2425 775 
Q 1600 50 1325 -325 
L 1025 50 
Q 1125 175 1125 400 
L 1125 2850 
L 1050 2850 
Q 725 2850 450 2775 
L 225 3000 
L 1125 3000 
L 1350 3225 
L 1675 2900 
L 1450 2725 
L 1450 275 
z
M 750 4925 
L 800 5000 
Q 1150 4800 1387 4600 
Q 1625 4400 1587 4200 
Q 1550 4000 1400 3925 
Q 1250 3850 1175 4200 
Q 1100 4525 750 4925 
z
M 5100 2700 
L 5425 3325 
L 2575 3325 
Q 2375 3325 2100 3250 
L 1875 3475 
L 3650 3475 
L 3650 4250 
L 3025 4250 
Q 2700 4250 2425 4175 
L 2200 4400 
L 3650 4400 
Q 3650 4825 3625 5250 
L 4175 5000 
L 3975 4825 
L 3975 4400 
L 4875 4400 
L 5150 4675 
L 5550 4250 
L 3975 4250 
L 3975 3475 
L 5375 3475 
L 5625 3750 
L 6075 3300 
Q 5725 3275 5200 2650 
L 5100 2700 
z
M 2750 2925 
L 2775 3000 
Q 3350 2825 3462 2687 
Q 3575 2550 3575 2450 
Q 3575 2350 3512 2250 
Q 3450 2150 3425 2150 
Q 3350 2150 3275 2350 
Q 3125 2625 2750 2925 
z
M 2375 2275 
Q 2975 2075 3100 1950 
Q 3225 1825 3225 1700 
Q 3225 1625 3162 1512 
Q 3100 1400 3075 1400 
Q 3000 1400 2900 1625 
Q 2725 1925 2350 2200 
L 2375 2275 
z
M 4475 2625 
Q 4425 1550 4350 1175 
L 5275 1175 
L 5600 1500 
L 6050 1025 
L 4325 1025 
Q 4250 825 4125 575 
Q 4850 350 5200 150 
Q 5550 -50 5600 -237 
Q 5650 -425 5587 -500 
Q 5525 -575 5475 -575 
Q 5350 -575 5175 -325 
Q 4925 25 4075 475 
Q 3425 -425 1975 -650 
L 1950 -550 
Q 3600 -100 3975 1025 
L 2700 1025 
Q 2500 1025 2225 950 
L 2000 1175 
L 4000 1175 
Q 4100 1800 4100 3075 
L 4675 2800 
L 4475 2625 
z
" transform="scale(0.015625)"/>
       <path id="SimSun-53d6" d="M 1300 2225 
L 1300 1125 
L 2425 1350 
L 2425 2225 
L 1300 2225 
z
M 2750 1225 
Q 2750 100 2775 -350 
L 2400 -575 
Q 2425 125 2425 1150 
Q 775 700 575 425 
L 325 925 
Q 625 975 975 1050 
L 975 4650 
L 775 4650 
L 525 4600 
L 325 4800 
L 2675 4800 
L 2975 5100 
L 3425 4650 
L 2750 4650 
L 2750 1425 
L 3500 1575 
L 3525 1475 
L 2750 1225 
z
M 1300 4650 
L 1300 3600 
L 2425 3600 
L 2425 4650 
L 1300 4650 
z
M 2425 3450 
L 1300 3450 
L 1300 2375 
L 2425 2375 
L 2425 3450 
z
M 2925 4175 
L 5050 4175 
L 5250 4425 
L 5700 4075 
L 5475 3925 
Q 5100 2350 4550 1275 
Q 5200 375 6100 125 
L 6100 25 
Q 5775 -25 5600 -275 
Q 4875 225 4375 975 
Q 3700 25 2825 -525 
L 2775 -450 
Q 3650 325 4175 1250 
Q 3650 2625 3525 4025 
L 3350 4025 
L 3125 3975 
L 2925 4175 
z
M 3650 4025 
Q 3900 2525 4350 1600 
Q 4825 2650 5075 4025 
L 3650 4025 
z
" transform="scale(0.015625)"/>
       <path id="SimSun-547d" d="M 1775 3150 
L 3650 3150 
L 3950 3450 
L 4400 3000 
L 2550 3000 
Q 2225 3000 2000 2925 
L 1775 3150 
z
M 1450 2125 
L 1450 575 
L 2400 575 
L 2400 2125 
L 1450 2125 
z
M 1100 -250 
Q 1125 525 1125 1125 
Q 1125 1725 1100 2500 
L 1450 2275 
L 2350 2275 
L 2525 2500 
L 2900 2200 
L 2725 2050 
Q 2725 550 2750 150 
L 2400 0 
L 2400 425 
L 1450 425 
L 1450 -100 
L 1100 -250 
z
M 3775 2175 
L 3775 -450 
L 3425 -625 
Q 3450 75 3450 1050 
Q 3450 2025 3425 2550 
L 3775 2325 
L 4825 2325 
L 5000 2575 
L 5400 2275 
L 5200 2100 
L 5200 525 
Q 5225 75 4700 -125 
Q 4700 150 4025 325 
L 4025 425 
Q 4550 375 4712 375 
Q 4875 375 4875 700 
L 4875 2175 
L 3775 2175 
z
M 2975 5275 
L 3475 4900 
L 3250 4725 
Q 3750 4025 4450 3625 
Q 5150 3225 6125 3075 
L 6125 2975 
Q 5700 2950 5550 2625 
Q 4650 3050 4112 3500 
Q 3575 3950 3150 4650 
Q 2600 3900 1962 3362 
Q 1325 2825 275 2425 
L 225 2525 
Q 1250 2975 1962 3750 
Q 2675 4525 2975 5275 
z
" transform="scale(0.015625)"/>
       <path id="SimSun-4e2d" d="M 3325 3625 
L 3325 1975 
L 5125 1975 
L 5125 3625 
L 3325 3625 
z
M 2950 3775 
Q 2950 4750 2925 5250 
L 3525 4975 
L 3325 4775 
L 3325 3775 
L 5075 3775 
L 5275 4075 
L 5700 3750 
L 5475 3550 
L 5475 2100 
Q 5475 1825 5500 1525 
L 5125 1375 
L 5125 1825 
L 3325 1825 
Q 3325 -75 3350 -400 
L 2925 -625 
Q 2950 -50 2950 1825 
L 1225 1825 
L 1225 1525 
L 850 1325 
Q 875 1775 875 2625 
Q 875 3475 850 4000 
L 1225 3775 
L 2950 3775 
z
M 1225 3625 
L 1225 1975 
L 2950 1975 
L 2950 3625 
L 1225 3625 
z
" transform="scale(0.015625)"/>
       <path id="SimSun-7387" d="M 875 3725 
L 925 3800 
Q 1375 3650 1550 3525 
Q 1725 3400 1725 3250 
Q 1725 3175 1662 3025 
Q 1600 2875 1550 2875 
Q 1500 2875 1425 3050 
Q 1275 3325 875 3725 
z
M 550 1850 
Q 875 1925 2000 2575 
L 2050 2500 
Q 1675 2225 1337 1937 
Q 1000 1650 875 1425 
L 550 1850 
z
M 5200 3450 
Q 4800 3150 4275 2800 
L 4225 2875 
Q 4775 3400 5050 3925 
L 5450 3525 
L 5200 3450 
z
M 4325 2500 
L 4350 2575 
Q 5225 2350 5375 2212 
Q 5525 2075 5525 1900 
Q 5525 1775 5487 1662 
Q 5450 1550 5400 1550 
Q 5325 1550 5200 1800 
Q 4975 2150 4325 2500 
z
M 3150 3900 
Q 2500 3300 2300 3150 
Q 2800 3150 3400 3175 
Q 3700 3500 3850 3825 
L 4250 3450 
Q 4050 3400 3450 2825 
Q 2850 2250 2475 1950 
Q 3150 1975 3850 2000 
Q 3750 2175 3550 2450 
L 3600 2500 
Q 4050 2250 4200 2100 
Q 4350 1950 4350 1850 
Q 4350 1775 4250 1625 
Q 4150 1475 4100 1475 
Q 4075 1475 4050 1550 
Q 4000 1700 3900 1900 
Q 3650 1875 3075 1800 
L 3500 1550 
L 3325 1425 
L 3325 975 
L 5325 975 
L 5650 1300 
L 6100 825 
L 3325 825 
Q 3325 -275 3350 -525 
L 2975 -650 
Q 3000 0 3000 825 
L 1125 825 
Q 800 825 525 750 
L 300 975 
L 3000 975 
L 3000 1775 
Q 2450 1700 2200 1525 
L 1950 1950 
Q 2275 1950 2675 2350 
Q 3075 2750 3325 3050 
Q 2400 2950 2150 2775 
L 1950 3175 
Q 2150 3150 2475 3575 
Q 2800 4000 2900 4225 
L 1450 4225 
Q 1125 4225 850 4150 
L 625 4375 
L 3100 4375 
Q 3050 4800 2675 5200 
L 2725 5250 
Q 3225 5050 3337 4912 
Q 3450 4775 3450 4700 
Q 3450 4550 3250 4375 
L 5025 4375 
L 5350 4675 
L 5775 4225 
L 3050 4225 
L 3375 3950 
L 3150 3900 
z
" transform="scale(0.015625)"/>
       <path id="STIXGeneral-Regular-25" d="M 4390 1363 
Q 4390 781 4070 329 
Q 3750 -122 3341 -122 
Q 3014 -122 2790 134 
Q 2566 390 2566 762 
Q 2566 1274 2940 1693 
Q 3315 2112 3776 2112 
Q 4070 2112 4230 1917 
Q 4390 1722 4390 1363 
z
M 4243 1376 
Q 4243 1626 4131 1779 
Q 4019 1933 3840 1933 
Q 3654 1933 3526 1786 
Q 3315 1562 3171 1187 
Q 3027 813 3027 486 
Q 3027 301 3129 176 
Q 3232 51 3386 51 
Q 3718 51 3980 457 
Q 4243 864 4243 1376 
z
M 3974 4518 
L 1222 -115 
L 922 -115 
L 3443 4096 
Q 3264 3891 3094 3811 
Q 2925 3731 2669 3731 
Q 2445 3731 2182 3821 
Q 2208 3674 2208 3539 
Q 2208 3206 2067 2873 
Q 1926 2541 1696 2323 
Q 1453 2086 1146 2086 
Q 826 2086 608 2339 
Q 390 2592 390 2963 
Q 390 3507 761 3916 
Q 1133 4326 1626 4326 
Q 1792 4326 2010 4147 
Q 2310 3898 2624 3898 
Q 2918 3898 3084 3994 
Q 3251 4090 3693 4518 
L 3974 4518 
z
M 2054 3642 
Q 2054 3782 2025 3833 
Q 1997 3885 1894 3936 
Q 1747 4006 1613 4154 
Q 1414 4058 1331 3984 
Q 1248 3910 1152 3750 
Q 845 3264 845 2707 
Q 845 2509 944 2384 
Q 1043 2259 1210 2259 
Q 1549 2259 1801 2675 
Q 2054 3091 2054 3642 
z
" transform="scale(0.015625)"/>
      </defs>
      <use xlink:href="#SimSun-8bfb" transform="translate(0 0.578125)"/>
      <use xlink:href="#SimSun-53d6" transform="translate(100 0.578125)"/>
      <use xlink:href="#SimSun-547d" transform="translate(200 0.578125)"/>
      <use xlink:href="#SimSun-4e2d" transform="translate(300 0.578125)"/>
      <use xlink:href="#SimSun-7387" transform="translate(400 0.578125)"/>
      <use xlink:href="#SimSun-20" transform="translate(500 0.578125)"/>
      <use xlink:href="#STIXGeneral-Regular-28" transform="translate(550 0.578125)"/>
      <use xlink:href="#STIXGeneral-Regular-25" transform="translate(583.299988 0.578125)"/>
      <use xlink:href="#STIXGeneral-Regular-29" transform="translate(657.999969 0.578125)"/>
     </g>
    </g>
   </g>
   <g id="line2d_19">
    <path d="M 115.212471 460.528838 
L 115.587059 460.394158 
L 116.299051 459.790712 
L 122.382274 452.743005 
L 123.844866 450.878113 
L 126.817492 447.474004 
L 132.149777 441.264543 
L 133.701587 439.698796 
L 136.045956 436.589598 
L 137.223626 435.16463 
L 139.593332 432.910042 
L 141.181751 430.86367 
L 143.980789 428.018242 
L 145.985634 425.532051 
L 150.829581 420.184294 
L 152.448866 418.317307 
L 153.672421 417.221266 
L 154.485902 416.448792 
L 156.530717 413.961029 
L 158.578357 411.904738 
L 161.040537 408.903733 
L 162.684573 406.960551 
L 163.920082 405.827166 
L 165.157583 404.71774 
L 169.290109 400.227094 
L 171.361955 398.002938 
L 172.603981 396.507196 
L 174.684905 394.417307 
L 175.518673 393.581014 
L 177.185456 392.249094 
L 178.433603 390.880593 
L 180.929724 387.927261 
L 182.187939 386.745819 
L 185.534539 383.218777 
L 186.793577 381.956897 
L 188.049647 380.459115 
L 189.308076 378.824971 
L 190.148891 378.121596 
L 191.406001 377.292502 
L 193.508597 375.358113 
L 194.351896 374.299603 
L 195.614048 372.396122 
L 196.458663 371.577019 
L 198.143263 370.569054 
L 201.94171 366.876439 
L 205.322065 363.504149 
L 208.286599 360.929896 
L 209.556999 359.989564 
L 210.401721 359.059121 
L 211.674223 357.515022 
L 213.789066 355.570416 
L 216.755336 352.450792 
L 218.875624 350.880487 
L 221.842893 347.79465 
L 222.692525 347.221161 
L 223.541785 346.328573 
L 224.391085 345.351899 
L 227.364878 342.822983 
L 228.214543 342.231851 
L 230.76353 339.699511 
L 234.161586 335.986282 
L 238.417549 332.81823 
L 240.116924 331.211043 
L 240.96716 330.317726 
L 242.667701 328.916915 
L 243.941308 327.668904 
L 246.068136 325.868289 
L 247.767729 324.031477 
L 249.888487 322.329408 
L 251.164017 321.135796 
L 252.43669 320.105761 
L 253.71273 318.91141 
L 254.563244 318.386991 
L 255.412883 317.931805 
L 256.260972 317.073559 
L 257.538814 315.514319 
L 260.086831 313.423939 
L 263.479293 310.325153 
L 266.02452 308.446275 
L 267.721514 306.835202 
L 269.417322 305.50394 
L 271.951139 303.210777 
L 273.222172 302.028441 
L 274.484969 300.742717 
L 276.17818 299.644322 
L 278.294557 297.650095 
L 279.140852 297.028547 
L 279.986915 296.636777 
L 281.254622 296.125335 
L 282.102839 295.364681 
L 283.368551 294.118855 
L 285.061816 292.786654 
L 286.330397 291.929267 
L 287.176564 291.122584 
L 288.864737 289.26538 
L 289.708178 288.812656 
L 291.396401 288.026557 
L 292.239043 287.278833 
L 294.347143 285.203097 
L 296.029279 284.049717 
L 297.292974 283.234359 
L 298.552729 282.074269 
L 300.231814 280.478341 
L 301.496491 279.669262 
L 303.176619 278.694803 
L 306.534532 275.922804 
L 311.145206 272.175699 
L 311.982255 271.837073 
L 312.822692 271.075318 
L 313.658519 270.13467 
L 314.913841 269.178839 
L 317.010029 267.603782 
L 318.68549 266.778053 
L 320.352893 265.498686 
L 322.439898 263.809467 
L 323.692196 262.540219 
L 324.942204 261.682714 
L 326.191612 260.737398 
L 327.024121 260.145157 
L 329.102502 258.980317 
L 331.182117 257.249577 
L 332.00805 256.988271 
L 332.838361 256.399942 
L 334.085024 255.2595 
L 335.332108 254.314936 
L 336.987824 253.024009 
L 338.232166 252.058347 
L 339.476598 251.035047 
L 341.138099 250.015464 
L 342.379519 249.351985 
L 343.622499 248.632523 
L 345.275886 247.435189 
L 346.09946 247.223256 
L 347.754327 246.944358 
L 348.580679 246.565877 
L 349.823476 245.940175 
L 350.64869 245.94466 
L 351.885554 246.178015 
L 353.121305 246.113993 
L 354.770428 246.175871 
L 356.417911 245.898719 
L 357.653599 245.633163 
L 360.531614 245.468915 
L 362.176821 245.175859 
L 363.41018 244.811954 
L 364.230273 244.80465 
L 365.869789 245.138782 
L 367.098682 245.444211 
L 368.329892 245.258328 
L 369.559487 245.04402 
L 371.197558 244.508818 
L 372.424237 244.503068 
L 373.649587 244.547722 
L 375.691885 244.049749 
L 377.328694 244.172518 
L 378.959606 243.951355 
L 380.590057 243.473513 
L 381.807224 243.586546 
L 382.622858 243.60743 
L 383.842908 243.333612 
L 385.061049 243.11645 
L 386.279047 242.979086 
L 387.092267 242.699623 
L 387.905693 242.367364 
L 388.311527 242.36223 
L 389.122232 242.765329 
L 389.933233 243.091233 
L 390.740471 242.995941 
L 391.55265 242.860231 
L 393.171663 242.869765 
L 395.193367 242.385677 
L 396.005637 242.504629 
L 396.813397 242.670818 
L 397.622831 242.601362 
L 400.4512 242.088013 
L 401.253822 242.188862 
L 402.062302 242.505788 
L 402.468178 242.552422 
L 403.272795 242.297414 
L 404.079377 242.072616 
L 405.288781 242.20056 
L 405.686372 242.097407 
L 406.884524 241.399796 
L 407.288819 241.344239 
L 408.091049 241.641718 
L 408.895707 241.978341 
L 409.698622 241.93818 
L 411.304377 241.584188 
L 412.107956 241.654357 
L 413.714382 242.136557 
L 414.515424 241.851948 
L 416.11704 241.061179 
L 416.918503 240.971236 
L 417.719247 241.092535 
L 418.51602 241.290389 
L 420.911483 241.462543 
L 421.710977 241.6706 
L 422.906077 241.548723 
L 424.503756 241.36625 
L 426.097182 240.823137 
L 427.690695 240.98733 
L 428.882259 240.701034 
L 430.473426 240.86013 
L 432.461392 241.107839 
L 433.255298 241.141852 
L 434.050666 240.893156 
L 434.841275 240.652511 
L 435.6365 240.82501 
L 436.428314 240.967801 
L 437.220273 240.673903 
L 438.01177 240.446892 
L 439.196525 240.616804 
L 440.377152 240.681719 
L 441.563192 240.671584 
L 443.139518 240.910515 
L 444.711658 240.677724 
L 445.895448 240.498376 
L 451.025472 240.331831 
L 452.208718 240.681766 
L 452.997449 240.510346 
L 453.782263 240.190322 
L 454.567443 240.205637 
L 456.139202 240.721958 
L 456.926088 240.565353 
L 458.493011 240.170716 
L 459.279873 240.145945 
L 460.85052 240.289398 
L 463.197679 240.052073 
L 463.980112 240.143418 
L 465.542853 239.933792 
L 466.324591 240.179807 
L 468.275787 240.961045 
L 469.059825 240.863209 
L 470.619066 240.402524 
L 473.344108 240.298077 
L 474.121858 240.310705 
L 475.672809 240.142433 
L 477.610173 240.339156 
L 478.379084 240.451263 
L 479.153715 240.653614 
L 479.93037 240.619833 
L 482.255033 240.041403 
L 483.027474 240.362012 
L 483.803001 240.66737 
L 484.575025 240.659568 
L 485.733908 240.4419 
L 486.509911 240.135677 
L 487.285354 240.14122 
L 488.443225 240.45924 
L 489.985936 240.548063 
L 491.912217 240.403248 
L 492.682723 240.214583 
L 493.841423 239.850054 
L 494.607114 240.028609 
L 495.373165 240.257954 
L 496.528384 240.5252 
L 497.296785 240.852192 
L 497.677672 240.901719 
L 498.444195 240.638593 
L 499.595719 240.072125 
L 500.363893 240.019451 
L 501.514946 240.260328 
L 502.665158 240.405377 
L 503.434292 240.467294 
L 504.967087 240.754755 
L 507.26608 240.501339 
L 508.797784 240.515487 
L 510.323899 240.123957 
L 514.519092 240.799741 
L 515.660145 241.104151 
L 516.420301 241.056102 
L 517.182733 240.707718 
L 518.327089 240.153232 
L 519.084762 240.122848 
L 520.986009 240.69651 
L 522.125441 240.522379 
L 523.263756 240.326407 
L 524.403419 240.203111 
L 525.541972 239.890505 
L 525.921274 239.989584 
L 527.433034 240.773585 
L 528.192431 240.781848 
L 529.323461 240.743922 
L 531.215157 240.879606 
L 533.100862 240.616947 
L 533.858345 240.76822 
L 534.984394 240.649086 
L 535.740136 240.31397 
L 536.492447 239.813218 
L 536.869721 239.678507 
L 537.623999 239.760875 
L 539.132407 240.286405 
L 540.638237 240.431106 
L 543.271828 240.338113 
L 545.151531 240.810611 
L 547.026752 240.420326 
L 548.156287 240.614479 
L 548.903229 240.759042 
L 551.146083 240.456695 
L 551.891133 240.297179 
L 553.38688 240.807557 
L 554.883856 240.517394 
L 555.632627 240.641197 
L 557.129429 241.127987 
L 557.876386 240.969596 
L 558.622829 240.774961 
L 560.482424 240.555946 
L 561.600609 240.208955 
L 562.719209 240.243772 
L 564.581183 240.297169 
L 565.327969 239.997599 
L 565.700226 239.957979 
L 566.445095 240.167356 
L 567.185678 240.393782 
L 570.157243 240.607466 
L 570.902728 240.390467 
L 571.645533 240.447046 
L 572.758512 240.593158 
L 574.612322 240.599187 
L 576.467279 241.010126 
L 577.579699 240.682167 
L 580.170733 240.680013 
L 580.908324 240.457471 
L 581.650429 240.171547 
L 582.388246 240.125561 
L 583.12641 240.340329 
L 584.233456 240.836018 
L 585.340461 240.986898 
L 586.076367 240.956377 
L 587.552777 240.535527 
L 588.29033 240.798393 
L 589.031104 241.018454 
L 589.768888 240.763215 
L 590.874276 240.227166 
L 591.611129 240.217255 
L 596.030377 241.225041 
L 596.767282 241.071556 
L 597.501159 240.903207 
L 598.968527 241.052603 
L 600.070638 240.588118 
L 601.173424 240.16089 
L 601.905618 240.092649 
L 602.638531 240.174367 
L 603.371907 240.459588 
L 604.473237 240.936349 
L 605.205588 240.949929 
L 606.668468 240.725916 
L 608.134391 240.387546 
L 609.963869 240.597613 
L 612.157686 240.841845 
L 613.249663 241.289486 
L 615.079344 241.171543 
L 616.540222 241.369553 
L 618.736855 241.262122 
L 620.199383 240.604017 
L 621.291589 240.702466 
L 622.753998 240.731466 
L 623.485851 240.765613 
L 624.945791 241.064762 
L 627.134836 240.942591 
L 628.226521 241.147466 
L 631.136473 240.901293 
L 631.864405 240.771528 
L 632.954697 240.682394 
L 634.047561 240.363416 
L 634.772012 240.43399 
L 637.676981 241.18054 
L 638.404184 241.573695 
L 639.129873 241.670029 
L 640.220547 241.582416 
L 641.306877 241.30205 
L 643.4815 241.223501 
L 644.20608 240.921704 
L 644.929248 240.967311 
L 646.015347 241.361188 
L 646.739463 241.334162 
L 647.825355 240.965609 
L 648.548594 240.976041 
L 649.636489 241.045441 
L 650.722432 240.914158 
L 653.617094 241.096101 
L 655.424533 240.955156 
L 656.146613 241.174172 
L 657.229394 241.767225 
L 657.953009 241.830395 
L 660.11999 241.609711 
L 660.842017 241.334589 
L 661.927971 241.298084 
L 665.538617 241.157189 
L 667.341823 241.346296 
L 668.065179 241.1858 
L 670.230361 240.348706 
L 670.59005 240.3697 
L 671.311542 240.753846 
L 672.032327 241.269943 
L 672.391954 241.361267 
L 673.472335 241.275358 
L 674.193194 241.613651 
L 675.634944 242.528013 
L 675.994871 242.527057 
L 677.788418 241.882689 
L 678.508355 241.988303 
L 679.226507 242.138038 
L 679.944944 241.984902 
L 681.022266 241.724359 
L 683.531179 241.783495 
L 684.969204 241.422783 
L 686.04613 241.363986 
L 687.117923 241.021311 
L 687.833611 241.060265 
L 689.624546 241.349633 
L 690.341024 241.095297 
L 691.054536 240.791992 
L 691.773142 240.816908 
L 693.203365 241.474366 
L 693.560823 241.376706 
L 694.634807 240.638531 
L 694.993579 240.657856 
L 696.063982 241.060509 
L 697.851098 241.199506 
L 699.279119 241.448617 
L 699.995878 241.499173 
L 701.784773 241.958459 
L 706.069672 241.336125 
L 707.505645 241.637808 
L 709.295821 241.453201 
L 710.010158 241.585096 
L 710.724455 241.469651 
L 711.793713 241.251519 
L 712.509715 241.376677 
L 713.941523 241.894573 
L 715.369991 241.99928 
L 716.43924 241.748215 
L 717.506179 241.448863 
L 718.220161 241.466226 
L 719.290671 241.86357 
L 720.003271 242.113223 
L 720.715521 242.133515 
L 721.786955 241.754092 
L 722.503942 241.450589 
L 723.215784 241.44592 
L 724.284959 241.748161 
L 724.99624 241.882806 
L 726.068476 242.27118 
L 726.780452 242.209104 
L 728.203827 241.814027 
L 728.916917 241.793871 
L 729.986356 241.88074 
L 731.76789 241.393978 
L 734.253888 241.606057 
L 735.324167 241.116644 
L 736.03719 241.157198 
L 737.818676 241.874077 
L 738.88652 241.761938 
L 739.597641 241.664098 
L 740.308026 241.78757 
L 741.018017 241.931263 
L 741.725762 241.664135 
L 742.439666 241.480175 
L 744.221369 241.722311 
L 744.930226 241.85295 
L 745.641704 242.081609 
L 747.059525 242.028277 
L 748.479722 241.828296 
L 749.186568 241.807769 
L 750.251404 241.535158 
L 751.666718 241.692613 
L 752.731688 241.293801 
L 753.086151 241.386146 
L 754.149705 242.002575 
L 754.50458 242.010149 
L 755.213422 241.740301 
L 755.922817 241.460518 
L 756.275621 241.470264 
L 756.984304 241.842459 
L 757.695916 242.183124 
L 758.407604 242.123997 
L 759.474042 241.916546 
L 760.538186 241.813985 
L 761.955434 241.378578 
L 763.726754 241.564468 
L 764.436244 241.308695 
L 764.789981 241.320222 
L 765.498269 241.699106 
L 766.205571 242.202136 
L 766.914909 242.390997 
L 767.978148 242.503878 
L 768.684865 242.557855 
L 769.39215 242.51276 
L 771.163849 242.684572 
L 772.934119 242.124178 
L 774.351973 242.275048 
L 775.412089 242.380417 
L 776.476445 242.424243 
L 777.540374 242.781726 
L 778.956403 243.232985 
L 779.662731 243.39305 
L 780.371417 243.31385 
L 781.082952 243.176519 
L 782.50173 243.299638 
L 782.856122 243.323879 
L 782.856122 243.323879 
" clip-path="url(#p235b7ceeaf)" style="fill: none; stroke: #ff0000; stroke-width: 1.5; stroke-linecap: square"/>
   </g>
   <g id="line2d_20">
    <path d="M 115.519739 460.258879 
L 115.877811 460.109493 
L 116.587464 459.48413 
L 119.072081 456.563304 
L 123.76919 450.918408 
L 125.24555 449.243154 
L 126.734526 447.340391 
L 129.75878 444.064698 
L 135.185792 437.669256 
L 136.372314 436.41958 
L 137.569842 435.22557 
L 139.980219 432.46642 
L 142.005656 430.269069 
L 145.285503 426.335975 
L 146.5292 425.00245 
L 148.179996 422.980945 
L 149.428519 421.714388 
L 151.927728 418.812105 
L 153.178757 417.490605 
L 154.432232 416.240345 
L 156.942576 413.373565 
L 159.463291 411.174411 
L 161.141824 409.05754 
L 163.662803 406.15206 
L 164.504811 405.431781 
L 165.766568 403.917018 
L 167.032847 402.459117 
L 168.303777 401.384755 
L 169.148635 400.548367 
L 170.836199 398.444925 
L 173.377555 396.079809 
L 175.073187 394.382393 
L 176.773704 392.506915 
L 178.049858 391.206353 
L 179.747669 389.176215 
L 184.861765 384.205926 
L 185.714994 383.567054 
L 186.998986 382.026705 
L 188.708662 380.143162 
L 191.701649 377.10884 
L 194.276708 374.329729 
L 195.570585 372.946265 
L 197.725301 370.939162 
L 200.736573 368.133235 
L 202.029571 366.936649 
L 204.184064 364.876859 
L 208.072849 361.138252 
L 209.808554 359.14507 
L 211.540786 357.714192 
L 213.705457 355.056258 
L 214.572714 354.478628 
L 215.875266 353.773547 
L 216.742089 353.077266 
L 220.21396 349.852677 
L 222.384749 347.798133 
L 224.556717 345.480923 
L 228.030824 342.774799 
L 228.901763 341.863803 
L 230.206084 340.367086 
L 231.515229 339.285381 
L 234.129824 336.595447 
L 235.872081 335.07215 
L 237.184214 333.609376 
L 238.057496 332.922641 
L 239.370262 331.956475 
L 240.682554 330.757804 
L 242.433121 329.477472 
L 243.747763 328.36298 
L 245.496891 326.981107 
L 247.680749 324.946309 
L 250.309814 322.185957 
L 251.623695 321.439809 
L 254.252595 319.336766 
L 256.005495 318.185276 
L 258.193245 316.341328 
L 259.940857 314.459934 
L 263.448057 311.772205 
L 264.324798 311.264875 
L 265.199737 310.452982 
L 266.516815 309.004781 
L 267.832686 308.046808 
L 269.59009 307.011606 
L 270.470491 306.552561 
L 271.346727 305.720217 
L 272.221655 304.799847 
L 273.096515 304.27611 
L 274.408267 303.65101 
L 277.038323 301.461505 
L 279.228171 299.158735 
L 280.539703 298.176426 
L 282.732065 296.42781 
L 284.487432 295.230119 
L 285.798524 294.58575 
L 286.676141 293.828251 
L 287.989662 292.527788 
L 289.303011 291.618352 
L 290.618342 290.851882 
L 291.929231 289.655986 
L 292.803675 288.93716 
L 295.862723 286.975315 
L 297.612203 285.540449 
L 298.924039 284.672978 
L 300.235269 283.667485 
L 302.420789 282.396045 
L 304.607308 280.919774 
L 305.920529 279.688665 
L 307.231876 278.352643 
L 308.10807 277.9573 
L 308.98155 277.655106 
L 309.854858 276.968797 
L 311.167169 275.754965 
L 312.038785 275.268639 
L 312.911455 274.939922 
L 313.78548 274.311436 
L 315.091487 273.306872 
L 319.446951 270.674769 
L 320.753658 269.608243 
L 322.930362 268.291545 
L 323.797404 267.420618 
L 324.670314 266.960828 
L 325.972817 266.500218 
L 326.844492 266.038538 
L 328.149068 264.911455 
L 329.015953 264.232512 
L 333.781884 261.40544 
L 335.082455 260.193802 
L 335.948719 259.713303 
L 337.246743 259.34012 
L 338.112314 259.083352 
L 340.27927 257.858292 
L 341.575004 257.196819 
L 343.738025 255.819026 
L 345.900601 254.822126 
L 347.625648 254.282695 
L 348.488204 254.112982 
L 350.211363 253.987192 
L 351.934367 253.538259 
L 353.65015 253.674222 
L 356.231954 253.202118 
L 357.519302 253.45535 
L 358.380433 253.533536 
L 360.095864 253.242579 
L 363.1062 252.778104 
L 364.392874 252.554863 
L 365.24726 252.366826 
L 366.099532 252.35727 
L 368.242288 252.5307 
L 372.092984 252.175494 
L 373.375264 252.259928 
L 374.231383 252.269279 
L 375.936183 251.900349 
L 377.63986 251.766031 
L 378.491144 251.565909 
L 379.345415 251.577746 
L 381.476788 251.900274 
L 382.753128 252.157679 
L 383.605464 252.098761 
L 385.733989 251.256323 
L 386.58065 251.521198 
L 387.432807 251.833983 
L 387.857287 251.84215 
L 388.705492 251.560704 
L 389.554933 251.23284 
L 390.403867 251.136709 
L 394.214894 251.266047 
L 396.753915 250.79975 
L 399.713688 250.671723 
L 401.402596 250.325755 
L 404.778654 250.602875 
L 406.465017 250.303952 
L 408.143184 250.599688 
L 411.926675 249.805206 
L 412.766014 249.778986 
L 417.374674 250.333349 
L 418.211263 250.287642 
L 419.886046 250.071591 
L 421.1378 249.951153 
L 421.973225 249.817267 
L 423.642423 249.83792 
L 425.313487 249.485328 
L 426.147998 249.684738 
L 426.980873 249.880392 
L 428.646255 249.963981 
L 429.478568 250.002651 
L 430.31407 249.798454 
L 431.142586 249.516933 
L 431.558464 249.53365 
L 432.803255 249.911622 
L 434.463028 249.544154 
L 435.708462 249.686437 
L 437.368394 249.595166 
L 438.607232 249.72686 
L 441.085375 249.446729 
L 441.91132 249.189726 
L 442.738293 248.928692 
L 443.973345 248.947059 
L 444.800223 249.112395 
L 445.625175 249.385479 
L 446.037749 249.39657 
L 447.68241 249.031077 
L 449.741528 249.335199 
L 451.388744 249.069224 
L 454.674779 248.701973 
L 455.493791 248.628354 
L 457.136558 249.036125 
L 459.176506 249.163712 
L 460.812451 249.466985 
L 462.444161 249.450247 
L 464.482225 249.118046 
L 465.298099 249.044488 
L 466.523128 249.259247 
L 469.777184 248.621172 
L 470.589358 248.501251 
L 472.623333 248.92461 
L 473.436809 248.998357 
L 474.655446 249.359289 
L 475.467834 249.289811 
L 477.902436 248.876249 
L 479.117929 248.970946 
L 480.33023 248.315085 
L 480.734069 248.331527 
L 482.349968 248.940162 
L 483.563116 249.010303 
L 485.180782 249.472266 
L 486.395413 249.368035 
L 487.606783 249.062566 
L 488.815109 248.70056 
L 489.619783 248.793951 
L 491.635192 249.427955 
L 492.441117 249.347439 
L 493.64908 248.888551 
L 494.454395 248.923096 
L 495.258256 248.987479 
L 496.462 248.854301 
L 497.66594 248.98574 
L 500.473953 248.812346 
L 503.678302 248.975441 
L 504.477092 248.87839 
L 506.074959 248.945427 
L 506.874076 248.842971 
L 508.472453 248.908233 
L 509.272049 249.025553 
L 510.470208 249.491237 
L 511.26685 249.57256 
L 512.065223 249.328503 
L 513.262689 248.731431 
L 514.060212 248.524848 
L 514.857206 248.526917 
L 516.054644 248.807007 
L 516.850831 248.68493 
L 517.645182 248.563861 
L 518.438648 248.702631 
L 520.027189 249.247246 
L 521.219406 249.214409 
L 522.405299 249.29045 
L 523.199815 249.215965 
L 523.995531 248.955146 
L 524.790173 248.952514 
L 527.56335 249.179344 
L 528.751241 248.814182 
L 529.541623 248.983834 
L 530.332682 249.200577 
L 531.517392 249.075448 
L 532.703676 248.89024 
L 535.06806 249.242644 
L 538.611202 249.275813 
L 539.792955 249.083546 
L 540.5804 249.223631 
L 541.760446 249.459805 
L 542.543886 249.34063 
L 543.330981 249.202944 
L 545.292415 249.228231 
L 546.471833 249.104146 
L 548.041068 249.17509 
L 548.821735 249.173874 
L 550.392434 249.510787 
L 551.178546 249.336439 
L 552.347076 249.01227 
L 554.69463 248.999523 
L 556.260527 248.927859 
L 557.040385 249.138684 
L 557.817828 249.520557 
L 558.209615 249.549912 
L 559.774479 249.197432 
L 560.949475 249.243606 
L 564.85104 248.792344 
L 566.408226 249.366605 
L 567.580086 249.284222 
L 568.749647 249.056548 
L 569.918227 248.721151 
L 570.694554 248.796378 
L 572.642429 249.332397 
L 573.416582 249.362896 
L 575.360088 249.075097 
L 576.524357 249.345819 
L 577.300557 249.263301 
L 578.075993 249.170594 
L 579.235167 249.332075 
L 580.788974 249.107795 
L 584.662438 249.230614 
L 587.365194 249.084744 
L 588.526543 249.438535 
L 589.30022 249.255904 
L 590.070642 249.001398 
L 590.844138 249.076105 
L 592.388065 249.586091 
L 593.160504 249.451074 
L 595.092002 248.657229 
L 595.864926 248.733412 
L 597.021352 249.177542 
L 597.406972 249.14368 
L 598.95375 248.573687 
L 599.726443 248.670656 
L 601.262923 249.203625 
L 602.033295 248.944913 
L 602.802989 248.668677 
L 603.573106 248.820907 
L 605.494169 249.634139 
L 606.640539 249.426246 
L 608.173081 249.17128 
L 608.941656 248.803368 
L 609.325583 248.735178 
L 610.095075 248.950437 
L 610.864564 249.214554 
L 611.245458 249.195239 
L 612.396773 248.786242 
L 612.780379 248.831357 
L 614.312438 249.463894 
L 616.226082 249.240222 
L 617.757544 249.247955 
L 618.907784 249.026579 
L 623.502126 249.317781 
L 626.182097 249.156423 
L 627.706517 249.369382 
L 629.613894 248.700922 
L 630.379634 248.752031 
L 631.908195 249.090967 
L 633.053965 248.986302 
L 637.998332 248.565542 
L 638.756597 248.721075 
L 640.273474 249.382662 
L 641.035975 249.414769 
L 644.080457 249.04965 
L 646.36057 249.404701 
L 648.636334 248.882246 
L 649.393967 248.668532 
L 650.154739 248.701136 
L 652.054139 249.33474 
L 652.81425 249.620427 
L 653.571102 249.566809 
L 654.330077 249.541419 
L 655.842682 249.838446 
L 657.358431 249.533739 
L 659.253671 249.738147 
L 660.012585 249.623829 
L 661.148205 249.263971 
L 663.04386 249.292298 
L 663.80144 249.110445 
L 664.938753 249.199975 
L 666.074206 249.280727 
L 667.208543 249.13462 
L 668.34073 249.010033 
L 669.095777 249.170463 
L 670.228257 249.557513 
L 671.359963 249.43841 
L 675.137478 249.245658 
L 676.268085 249.487794 
L 677.017556 249.384613 
L 678.146874 249.122153 
L 678.898214 249.156769 
L 680.781184 249.711206 
L 682.286787 249.424137 
L 683.413458 249.665378 
L 684.164213 249.320747 
L 684.914605 248.940824 
L 685.66685 248.912117 
L 686.418118 248.893434 
L 687.553212 248.697779 
L 689.057611 248.907474 
L 689.807913 249.240788 
L 690.560584 249.626948 
L 690.93861 249.641223 
L 692.444047 249.233557 
L 693.197296 249.44235 
L 694.317944 249.847803 
L 694.694584 249.80338 
L 695.445729 249.318433 
L 696.199059 248.905614 
L 696.575623 248.906027 
L 698.450329 249.426473 
L 699.952262 249.038554 
L 701.452975 249.089881 
L 702.953774 249.190315 
L 704.078283 248.878415 
L 705.202223 248.598104 
L 706.328849 248.715588 
L 707.452184 249.058779 
L 708.95479 249.56985 
L 709.704695 249.543586 
L 711.202515 248.858392 
L 717.195377 249.232711 
L 717.94422 249.420965 
L 718.690348 249.706338 
L 719.43984 249.66617 
L 720.93315 249.14196 
L 721.680247 248.83942 
L 722.425635 248.788107 
L 725.042553 249.15947 
L 726.535367 248.94089 
L 727.654853 249.250995 
L 729.517976 249.15981 
L 730.636955 249.310735 
L 731.756731 249.848913 
L 732.501966 249.782012 
L 734.369294 249.444124 
L 735.856442 249.375795 
L 736.972985 249.617013 
L 737.715654 249.348089 
L 738.461778 249.150534 
L 741.807614 249.569828 
L 742.550645 249.877098 
L 742.922997 249.926212 
L 743.293021 249.850677 
L 744.034809 249.337045 
L 744.776416 248.714886 
L 745.146902 248.523342 
L 745.518914 248.470547 
L 745.890417 248.572566 
L 747.005352 249.208694 
L 747.750014 249.212454 
L 748.492836 249.216795 
L 749.237488 249.270518 
L 750.353479 249.073926 
L 751.09685 249.321049 
L 751.838491 249.673404 
L 752.58205 249.69958 
L 754.812386 249.219654 
L 756.296639 249.275337 
L 757.41232 249.476347 
L 758.891425 249.56102 
L 759.633201 249.632405 
L 761.864313 249.515548 
L 762.602973 249.478913 
L 764.082938 248.861473 
L 764.823345 248.77852 
L 765.56086 248.951759 
L 767.043425 249.533536 
L 767.784682 249.398809 
L 768.526092 249.158442 
L 770.006523 249.209878 
L 770.746928 249.126433 
L 772.966181 249.664324 
L 773.705751 249.755171 
L 774.444306 249.468463 
L 775.183737 249.11625 
L 775.917357 249.130115 
L 777.764667 249.370312 
L 778.875039 249.395895 
L 781.463916 249.093476 
L 782.203342 249.194257 
L 783.310943 249.56504 
L 783.310943 249.56504 
" clip-path="url(#p235b7ceeaf)" style="fill: none; stroke: #0000ff; stroke-width: 1.5; stroke-linecap: square"/>
   </g>
   <g id="patch_3">
    <path d="M 115.2 461.376 
L 115.2 62.208 
" style="fill: none; stroke: #000000; stroke-width: 0.8; stroke-linejoin: miter; stroke-linecap: square"/>
   </g>
   <g id="patch_4">
    <path d="M 829.44 461.376 
L 829.44 62.208 
" style="fill: none; stroke: #000000; stroke-width: 0.8; stroke-linejoin: miter; stroke-linecap: square"/>
   </g>
   <g id="patch_5">
    <path d="M 115.2 461.376 
L 829.44 461.376 
" style="fill: none; stroke: #000000; stroke-width: 0.8; stroke-linejoin: miter; stroke-linecap: square"/>
   </g>
   <g id="patch_6">
    <path d="M 115.2 62.208 
L 829.44 62.208 
" style="fill: none; stroke: #000000; stroke-width: 0.8; stroke-linejoin: miter; stroke-linecap: square"/>
   </g>
   <g id="text_21">
    <!-- $\mathrm{proto\ &amp;\ mica*}$的读取命中率随请求数的变化趋势 -->
    <g transform="translate(231.666 56.208) scale(0.228 -0.228)">
     <defs>
      <path id="STIXGeneral-Regular-70" d="M 1018 2931 
L 1018 2438 
Q 1421 2944 1939 2944 
Q 2406 2944 2707 2560 
Q 3008 2176 3008 1581 
Q 3008 883 2621 409 
Q 2234 -64 1664 -64 
Q 1466 -64 1328 -6 
Q 1190 51 1018 211 
L 1018 -794 
Q 1018 -1094 1120 -1180 
Q 1222 -1267 1581 -1274 
L 1581 -1389 
L 32 -1389 
L 32 -1280 
Q 314 -1254 397 -1171 
Q 480 -1088 480 -838 
L 480 2157 
Q 480 2381 429 2451 
Q 378 2522 218 2522 
Q 115 2522 58 2515 
L 58 2618 
Q 506 2752 979 2944 
L 1018 2931 
z
M 1018 2138 
L 1018 563 
Q 1018 422 1238 281 
Q 1459 141 1683 141 
Q 2029 141 2243 467 
Q 2458 794 2458 1325 
Q 2458 1888 2243 2224 
Q 2029 2560 1670 2560 
Q 1446 2560 1232 2419 
Q 1018 2278 1018 2138 
z
" transform="scale(0.015625)"/>
      <path id="STIXGeneral-Regular-72" d="M 1024 2931 
L 1024 2342 
Q 1267 2688 1430 2816 
Q 1594 2944 1792 2944 
Q 1958 2944 2051 2854 
Q 2144 2765 2144 2605 
Q 2144 2470 2077 2393 
Q 2010 2317 1894 2317 
Q 1773 2317 1638 2445 
Q 1536 2541 1472 2541 
Q 1338 2541 1181 2355 
Q 1024 2170 1024 2016 
L 1024 576 
Q 1024 301 1133 205 
Q 1242 109 1568 96 
L 1568 0 
L 32 0 
L 32 96 
Q 339 154 412 224 
Q 486 294 486 538 
L 486 2138 
Q 486 2349 438 2435 
Q 390 2522 269 2522 
Q 166 2522 45 2496 
L 45 2598 
Q 448 2726 992 2944 
L 1024 2931 
z
" transform="scale(0.015625)"/>
      <path id="STIXGeneral-Regular-6f" d="M 3008 1478 
Q 3008 806 2608 371 
Q 2208 -64 1568 -64 
Q 979 -64 582 368 
Q 186 800 186 1459 
Q 186 2125 582 2534 
Q 979 2944 1626 2944 
Q 2221 2944 2614 2537 
Q 3008 2131 3008 1478 
z
M 2432 1306 
Q 2432 2035 2112 2445 
Q 1856 2765 1504 2765 
Q 1171 2765 966 2493 
Q 762 2221 762 1747 
Q 762 928 1101 435 
Q 1318 115 1677 115 
Q 2029 115 2230 432 
Q 2432 749 2432 1306 
z
" transform="scale(0.015625)"/>
      <path id="STIXGeneral-Regular-74" d="M 1702 493 
L 1786 422 
Q 1478 -64 1011 -64 
Q 448 -64 448 749 
L 448 2675 
L 109 2675 
Q 83 2694 83 2720 
Q 83 2771 192 2842 
Q 435 2982 813 3526 
Q 826 3546 874 3606 
Q 922 3667 941 3706 
Q 986 3706 986 3622 
L 986 2880 
L 1632 2880 
L 1632 2675 
L 986 2675 
L 986 845 
Q 986 538 1062 403 
Q 1139 269 1318 269 
Q 1510 269 1702 493 
z
" transform="scale(0.015625)"/>
      <path id="STIXGeneral-Regular-26" d="M 4704 710 
L 4800 640 
Q 4659 294 4409 105 
Q 4160 -83 3834 -83 
Q 3309 -83 2746 499 
Q 2387 186 2070 51 
Q 1754 -83 1363 -83 
Q 838 -83 553 160 
Q 269 403 269 877 
Q 269 1267 528 1628 
Q 787 1990 1274 2272 
L 1517 2413 
Q 1293 2957 1293 3366 
Q 1293 3789 1571 4057 
Q 1850 4326 2266 4326 
Q 2656 4326 2899 4115 
Q 3142 3904 3142 3533 
Q 3142 3181 2921 2937 
Q 2701 2694 2150 2458 
Q 2509 1683 2995 1139 
Q 3315 1568 3449 1821 
Q 3584 2074 3584 2291 
Q 3584 2438 3494 2502 
Q 3405 2566 3168 2592 
L 3168 2726 
L 4550 2726 
L 4550 2592 
Q 4326 2592 4201 2509 
Q 4077 2426 3949 2214 
Q 3859 2074 3702 1814 
Q 3546 1555 3424 1363 
Q 3302 1171 3142 960 
Q 3379 659 3606 515 
Q 3834 371 4115 371 
Q 4301 371 4425 444 
Q 4550 518 4704 710 
z
M 2803 3558 
Q 2803 3795 2662 3958 
Q 2522 4122 2304 4122 
Q 2080 4122 1939 3974 
Q 1798 3827 1798 3590 
Q 1798 3334 1849 3139 
Q 1901 2944 2054 2662 
Q 2458 2848 2630 3059 
Q 2803 3270 2803 3558 
z
M 2586 666 
Q 2035 1312 1613 2195 
Q 1197 1926 1027 1686 
Q 858 1446 858 1114 
Q 858 717 1078 486 
Q 1299 256 1651 256 
Q 2061 256 2586 666 
z
" transform="scale(0.015625)"/>
      <path id="STIXGeneral-Regular-6d" d="M 4960 0 
L 3565 0 
L 3565 96 
Q 3834 122 3907 208 
Q 3981 294 3981 576 
L 3981 1894 
Q 3981 2278 3869 2444 
Q 3757 2611 3488 2611 
Q 3264 2611 3107 2521 
Q 2950 2432 2803 2221 
L 2803 608 
Q 2803 301 2896 201 
Q 2989 102 3264 96 
L 3264 0 
L 1830 0 
L 1830 96 
Q 2112 115 2189 188 
Q 2266 262 2266 550 
L 2266 1901 
Q 2266 2611 1850 2611 
Q 1670 2611 1468 2531 
Q 1267 2451 1171 2336 
Q 1088 2240 1088 2227 
L 1088 448 
Q 1088 243 1177 176 
Q 1267 109 1523 96 
L 1523 0 
L 102 0 
L 102 96 
Q 371 102 460 195 
Q 550 288 550 563 
L 550 2150 
Q 550 2387 499 2480 
Q 448 2573 326 2573 
Q 230 2573 122 2547 
L 122 2656 
Q 557 2778 1011 2944 
L 1062 2925 
L 1062 2451 
L 1075 2451 
Q 1363 2752 1584 2848 
Q 1805 2944 2054 2944 
Q 2560 2944 2733 2406 
Q 3232 2944 3776 2944 
Q 4518 2944 4518 1792 
L 4518 493 
Q 4518 282 4582 202 
Q 4646 122 4794 109 
L 4960 96 
L 4960 0 
z
" transform="scale(0.015625)"/>
      <path id="STIXGeneral-Regular-69" d="M 1152 4045 
Q 1152 3904 1056 3811 
Q 960 3718 819 3718 
Q 685 3718 592 3811 
Q 499 3904 499 4045 
Q 499 4179 595 4275 
Q 691 4371 826 4371 
Q 966 4371 1059 4275 
Q 1152 4179 1152 4045 
z
M 1619 0 
L 102 0 
L 102 96 
Q 435 115 521 211 
Q 608 307 608 666 
L 608 2118 
Q 608 2342 563 2432 
Q 518 2522 397 2522 
Q 243 2522 128 2490 
L 128 2592 
L 1120 2944 
L 1146 2918 
L 1146 672 
Q 1146 314 1226 218 
Q 1306 122 1619 96 
L 1619 0 
z
" transform="scale(0.015625)"/>
      <path id="STIXGeneral-Regular-63" d="M 2547 998 
L 2637 941 
Q 2362 403 2112 205 
Q 1786 -64 1376 -64 
Q 845 -64 502 336 
Q 160 736 160 1357 
Q 160 2170 698 2618 
Q 1094 2944 1562 2944 
Q 1965 2944 2256 2749 
Q 2547 2554 2547 2285 
Q 2547 2176 2457 2096 
Q 2368 2016 2246 2016 
Q 2022 2016 1939 2310 
L 1901 2451 
Q 1850 2630 1773 2694 
Q 1696 2758 1523 2758 
Q 1133 2758 893 2451 
Q 653 2144 653 1645 
Q 653 1094 928 745 
Q 1203 397 1645 397 
Q 1920 397 2118 528 
Q 2317 659 2547 998 
z
" transform="scale(0.015625)"/>
      <path id="STIXGeneral-Regular-61" d="M 2829 422 
L 2829 243 
Q 2586 -64 2253 -64 
Q 1888 -64 1843 403 
L 1837 403 
Q 1427 -64 909 -64 
Q 608 -64 422 112 
Q 237 288 237 602 
Q 237 1050 685 1350 
Q 992 1555 1837 1869 
L 1837 2214 
Q 1837 2502 1699 2646 
Q 1562 2790 1338 2790 
Q 1146 2790 1018 2697 
Q 890 2605 890 2477 
Q 890 2419 909 2348 
Q 928 2278 928 2208 
Q 928 2112 841 2029 
Q 755 1946 634 1946 
Q 525 1946 441 2029 
Q 358 2112 358 2240 
Q 358 2547 685 2752 
Q 986 2944 1421 2944 
Q 1939 2944 2176 2656 
Q 2291 2522 2323 2384 
Q 2355 2246 2355 1946 
L 2355 723 
Q 2355 301 2554 301 
Q 2682 301 2829 422 
z
M 1837 813 
L 1837 1715 
Q 1248 1510 1018 1293 
Q 800 1094 800 800 
Q 800 557 921 432 
Q 1043 307 1242 307 
Q 1453 307 1613 410 
Q 1747 506 1792 589 
Q 1837 672 1837 813 
z
" transform="scale(0.015625)"/>
      <path id="STIXGeneral-Regular-2a" d="M 1715 3014 
L 1773 2976 
Q 2010 2822 2387 2758 
Q 2605 2726 2688 2665 
Q 2771 2605 2771 2483 
Q 2771 2374 2707 2304 
Q 2643 2234 2541 2234 
Q 2381 2234 2157 2515 
Q 2010 2694 1715 2886 
L 1664 2918 
L 1664 2861 
Q 1664 2502 1792 2157 
Q 1850 1997 1850 1946 
Q 1850 1850 1770 1773 
Q 1690 1696 1594 1696 
Q 1504 1696 1433 1766 
Q 1363 1837 1363 1926 
Q 1363 2016 1440 2227 
Q 1542 2502 1542 2861 
L 1542 2918 
Q 1286 2758 1210 2688 
Q 1133 2611 947 2400 
Q 806 2240 672 2240 
Q 563 2240 499 2304 
Q 435 2368 435 2470 
Q 435 2592 528 2656 
Q 621 2720 838 2758 
Q 1062 2803 1180 2848 
Q 1299 2893 1498 3014 
Q 1222 3181 877 3251 
Q 640 3302 544 3366 
Q 448 3430 448 3546 
Q 448 3648 505 3715 
Q 563 3782 659 3782 
Q 787 3782 973 3578 
Q 1242 3277 1542 3110 
L 1542 3194 
Q 1542 3456 1446 3776 
Q 1376 3987 1376 4109 
Q 1376 4198 1443 4262 
Q 1510 4326 1606 4326 
Q 1702 4326 1772 4259 
Q 1843 4192 1843 4096 
Q 1843 3994 1773 3795 
Q 1664 3507 1664 3264 
L 1664 3110 
Q 1882 3238 2035 3379 
Q 2067 3411 2153 3504 
Q 2240 3597 2291 3648 
Q 2342 3699 2409 3747 
Q 2477 3795 2528 3795 
Q 2637 3795 2701 3728 
Q 2765 3661 2765 3552 
Q 2765 3424 2691 3363 
Q 2618 3302 2432 3277 
Q 2074 3219 1715 3014 
z
" transform="scale(0.015625)"/>
      <path id="SimSun-7684" d="M 1125 3775 
L 1125 2175 
L 2425 2175 
L 2425 3775 
L 1125 3775 
z
M 1125 2025 
L 1125 275 
L 2425 275 
L 2425 2025 
L 1125 2025 
z
M 2750 3625 
Q 2750 700 2775 -200 
L 2425 -400 
L 2425 125 
L 1125 125 
L 1125 -300 
L 775 -500 
Q 800 675 800 1837 
Q 800 3000 775 4150 
L 1150 3925 
L 1400 3925 
Q 1650 4775 1675 5225 
L 2225 4925 
Q 1975 4800 1550 3925 
L 2375 3925 
L 2625 4175 
L 3000 3800 
L 2750 3625 
z
M 3975 5200 
L 4525 4875 
Q 4325 4750 3900 3850 
L 5250 3850 
L 5525 4125 
L 5900 3750 
L 5675 3575 
Q 5625 650 5537 262 
Q 5450 -125 5287 -275 
Q 5125 -425 4775 -550 
Q 4650 -150 3950 50 
L 3950 175 
Q 4575 50 4850 50 
Q 5125 50 5187 475 
Q 5250 900 5300 3700 
L 3850 3700 
Q 3400 2975 2900 2475 
L 2825 2525 
Q 3350 3325 3600 3950 
Q 3850 4575 3975 5200 
z
M 3525 2750 
Q 4125 2300 4225 2087 
Q 4325 1875 4325 1775 
Q 4325 1600 4225 1475 
Q 4125 1350 4075 1350 
Q 3975 1350 3925 1700 
Q 3825 2200 3475 2675 
L 3525 2750 
z
" transform="scale(0.015625)"/>
      <path id="SimSun-968f" d="M 2175 4225 
L 2250 4275 
Q 2800 3825 2850 3625 
Q 2900 3425 2775 3300 
Q 2650 3175 2600 3175 
Q 2500 3175 2475 3425 
Q 2425 3800 2175 4225 
z
M 6050 0 
L 6050 -100 
Q 5650 -175 5625 -475 
Q 4975 -450 4487 -425 
Q 4000 -400 3650 -262 
Q 3300 -125 3050 150 
Q 2875 300 2750 300 
Q 2650 300 2487 162 
Q 2325 25 2125 -375 
L 1750 -100 
Q 2100 175 2575 450 
L 2575 2300 
Q 2525 2300 2250 2225 
L 2025 2450 
L 2550 2450 
L 2700 2650 
L 3075 2375 
L 2875 2225 
L 2875 475 
Q 3325 75 3762 0 
Q 4200 -75 4725 -62 
Q 5250 -50 6050 0 
z
M 600 4900 
L 950 4675 
L 1700 4675 
L 1900 4900 
L 2300 4625 
L 2075 4450 
L 1475 3000 
Q 1650 2775 1900 2475 
Q 2125 2175 2162 1975 
Q 2200 1775 2200 1650 
Q 2200 1400 2075 1150 
Q 1950 900 1400 800 
Q 1400 1075 950 1250 
L 950 -475 
L 600 -650 
Q 625 0 625 2175 
Q 625 4350 600 4900 
z
M 1300 3000 
L 1725 4525 
L 950 4525 
L 950 1350 
Q 1275 1275 1425 1275 
Q 1600 1275 1725 1350 
Q 1850 1425 1850 1675 
Q 1850 1825 1812 2100 
Q 1775 2375 1300 3000 
z
M 3900 3250 
L 3900 2600 
L 5150 2600 
L 5150 3250 
L 3900 3250 
z
M 3575 250 
Q 3600 725 3600 3200 
Q 3350 2875 3000 2625 
L 2950 2675 
Q 3525 3325 3850 4175 
L 3600 4175 
Q 3275 4175 3000 4100 
L 2775 4325 
L 3900 4325 
Q 4100 4925 4100 5150 
L 4600 4900 
Q 4425 4800 4225 4325 
L 5325 4325 
L 5625 4625 
L 6025 4175 
L 4175 4175 
Q 4025 3825 3825 3475 
L 3925 3400 
L 5100 3400 
L 5250 3625 
L 5650 3350 
L 5475 3200 
L 5475 875 
Q 5525 425 5025 275 
Q 5025 550 4525 650 
L 4525 750 
Q 4950 725 5050 725 
Q 5150 725 5150 900 
L 5150 1650 
L 3900 1650 
L 3900 400 
L 3575 250 
z
M 3900 2450 
L 3900 1800 
L 5150 1800 
L 5150 2450 
L 3900 2450 
z
" transform="scale(0.015625)"/>
      <path id="SimSun-53d8" d="M 2750 4225 
L 2750 2225 
L 3650 2225 
L 3650 4225 
L 2750 4225 
z
M 375 4375 
L 3100 4375 
Q 3050 4750 2650 5200 
L 2700 5275 
Q 3150 5075 3325 4925 
Q 3500 4775 3500 4700 
Q 3500 4550 3300 4375 
L 5125 4375 
L 5525 4775 
L 6075 4225 
L 4000 4225 
L 4000 2225 
L 4425 2225 
L 4675 2500 
L 5100 2100 
L 4825 1975 
Q 4300 1325 3525 650 
Q 4500 -50 6125 -175 
L 6125 -275 
Q 5750 -325 5625 -575 
Q 4175 -250 3300 450 
Q 2150 -300 350 -600 
L 325 -500 
Q 2050 -100 3075 675 
Q 2525 1250 2100 2075 
L 1650 2075 
L 1375 2025 
L 1175 2225 
L 2400 2225 
L 2400 4225 
L 1200 4225 
Q 875 4225 600 4150 
L 375 4375 
z
M 2275 2075 
Q 2725 1350 3300 850 
Q 3800 1300 4425 2075 
L 2275 2075 
z
M 1675 3850 
L 2125 3450 
L 1875 3350 
Q 1150 2575 325 1950 
L 250 2025 
Q 700 2425 1087 2937 
Q 1475 3450 1675 3850 
z
M 4350 3700 
Q 5675 3050 5812 2875 
Q 5950 2700 5950 2575 
Q 5950 2475 5900 2375 
Q 5850 2275 5800 2275 
Q 5700 2275 5500 2550 
Q 5200 2950 4275 3625 
L 4350 3700 
z
" transform="scale(0.015625)"/>
      <path id="SimSun-5316" d="M 1375 -600 
Q 1400 200 1400 925 
L 1400 3125 
Q 850 2300 350 1775 
L 275 1850 
Q 825 2625 1300 3650 
Q 1775 4675 1900 5200 
L 2450 4875 
L 2200 4725 
Q 1875 4000 1600 3475 
L 1950 3275 
L 1750 3075 
L 1750 350 
Q 1750 75 1775 -400 
L 1375 -600 
z
M 3450 2125 
L 3450 3925 
Q 3450 4475 3425 5200 
L 4000 4925 
L 3800 4725 
L 3800 2400 
Q 4150 2725 4562 3225 
Q 4975 3725 5150 4025 
L 5600 3600 
L 5325 3525 
Q 4600 2700 3800 2000 
L 3800 425 
Q 3800 0 4225 0 
L 5300 0 
Q 5500 0 5550 325 
Q 5600 650 5600 1325 
L 5725 1325 
Q 5775 650 5850 425 
Q 5925 200 6125 125 
Q 5900 -325 5400 -325 
L 4075 -325 
Q 3450 -325 3450 250 
L 3450 1775 
Q 2800 1275 1950 925 
L 1925 1025 
Q 2800 1525 3450 2125 
z
" transform="scale(0.015625)"/>
      <path id="SimSun-8d8b" d="M 3900 5225 
L 4425 4900 
L 4225 4825 
Q 4000 4475 3800 4150 
L 4750 4150 
L 4975 4425 
L 5400 4025 
Q 5100 4000 4475 3075 
L 5350 3075 
L 5500 3325 
L 5900 3050 
L 5725 2875 
Q 5725 1050 5750 525 
L 5400 375 
L 5400 800 
L 3725 800 
Q 3525 800 3250 725 
L 3025 950 
L 5400 950 
L 5400 1900 
L 4050 1900 
Q 3850 1900 3575 1825 
L 3350 2050 
L 5400 2050 
L 5400 2925 
L 3900 2925 
Q 3700 2925 3425 2850 
L 3200 3075 
L 4350 3075 
L 4775 4000 
L 3725 4000 
Q 3450 3625 3000 3200 
L 2950 3250 
Q 3650 4250 3900 5225 
z
M 300 -550 
L 225 -500 
Q 675 275 787 1112 
Q 900 1950 850 2425 
L 1400 2150 
Q 1250 2075 1212 1812 
Q 1175 1550 1125 1075 
Q 1500 750 1725 625 
L 1725 2825 
L 950 2825 
Q 750 2825 475 2750 
L 250 2975 
L 1600 2975 
L 1600 4025 
L 1225 4025 
Q 1025 4025 750 3950 
L 525 4175 
L 1600 4175 
Q 1600 4675 1575 5225 
L 2125 4975 
L 1925 4800 
L 1925 4175 
L 2400 4175 
L 2700 4475 
L 3100 4025 
L 1925 4025 
L 1925 2975 
L 2475 2975 
L 2800 3275 
L 3200 2825 
L 1750 2825 
L 2250 2600 
L 2050 2400 
L 2050 1800 
L 2625 1800 
L 2925 2100 
L 3300 1650 
L 2050 1650 
L 2050 425 
Q 2925 25 3737 0 
Q 4550 -25 4925 -25 
Q 5625 -25 6150 25 
L 6150 -50 
Q 5700 -250 5700 -475 
Q 4950 -500 4012 -412 
Q 3075 -325 2325 -12 
Q 1575 300 1100 900 
Q 775 -25 300 -550 
z
" transform="scale(0.015625)"/>
      <path id="SimSun-52bf" d="M 1650 4175 
Q 1650 4775 1625 5200 
L 2150 4950 
L 1975 4800 
L 1975 4175 
L 2200 4175 
L 2475 4450 
L 2900 4025 
L 1975 4025 
L 1975 3425 
Q 2400 3525 2800 3625 
L 2825 3525 
Q 2400 3375 1975 3225 
L 1975 2150 
Q 2000 1800 1475 1575 
Q 1450 1850 800 2025 
L 800 2150 
Q 1225 2100 1437 2087 
Q 1650 2075 1650 2325 
L 1650 3100 
Q 700 2750 700 2650 
L 400 3100 
Q 575 3100 1650 3350 
L 1650 4025 
L 1300 4025 
Q 975 4025 700 3950 
L 475 4175 
L 1650 4175 
z
M 3650 4175 
L 3650 4525 
Q 3650 4875 3625 5225 
L 4175 4975 
L 3975 4800 
L 3975 4200 
L 4700 4250 
L 4850 4475 
L 5200 4200 
L 5025 4050 
Q 5000 3900 5000 3575 
Q 5000 3225 5050 2812 
Q 5100 2400 5425 2175 
Q 5600 2650 5700 3050 
L 5800 3025 
Q 5725 2525 5725 2250 
Q 5725 1975 5825 1775 
Q 5900 1650 5775 1650 
Q 5725 1650 5475 1750 
Q 5225 1850 5012 2137 
Q 4800 2425 4737 2750 
Q 4675 3075 4675 3475 
Q 4675 3850 4700 4100 
L 3975 4050 
Q 3925 3450 3750 3050 
Q 4100 2900 4262 2787 
Q 4425 2675 4387 2475 
Q 4350 2275 4275 2275 
Q 4225 2275 4125 2400 
Q 3925 2625 3625 2825 
Q 3225 2225 2100 1800 
L 2050 1875 
Q 3075 2400 3375 2975 
Q 3225 3100 2850 3300 
L 2900 3375 
Q 3225 3275 3475 3175 
Q 3600 3500 3650 4025 
L 3300 4000 
L 3125 3925 
L 2875 4125 
L 3650 4175 
z
M 2600 1425 
Q 2675 1700 2700 2025 
L 3175 1775 
L 3000 1650 
L 2950 1425 
L 4725 1425 
L 4875 1675 
L 5325 1375 
L 5125 1225 
Q 5050 400 4987 112 
Q 4925 -175 4750 -350 
Q 4575 -525 4225 -600 
Q 4250 -350 3650 -50 
L 3675 50 
Q 4225 -100 4412 -87 
Q 4600 -75 4675 312 
Q 4750 700 4775 1275 
L 2925 1275 
Q 2800 775 2575 450 
Q 2350 125 1875 -162 
Q 1400 -450 450 -650 
L 400 -550 
Q 1500 -225 1950 200 
Q 2400 625 2575 1275 
L 1450 1275 
Q 1125 1275 850 1200 
L 625 1425 
L 2600 1425 
z
" transform="scale(0.015625)"/>
     </defs>
     <use xlink:href="#STIXGeneral-Regular-70" transform="translate(0 0.578125)"/>
     <use xlink:href="#STIXGeneral-Regular-72" transform="translate(49.999985 0.578125)"/>
     <use xlink:href="#STIXGeneral-Regular-6f" transform="translate(83.299973 0.578125)"/>
     <use xlink:href="#STIXGeneral-Regular-74" transform="translate(133.299957 0.578125)"/>
     <use xlink:href="#STIXGeneral-Regular-6f" transform="translate(161.099945 0.578125)"/>
     <use xlink:href="#STIXGeneral-Regular-26" transform="translate(235.16635 0.578125)"/>
     <use xlink:href="#STIXGeneral-Regular-6d" transform="translate(337.032757 0.578125)"/>
     <use xlink:href="#STIXGeneral-Regular-69" transform="translate(414.832745 0.578125)"/>
     <use xlink:href="#STIXGeneral-Regular-63" transform="translate(442.632733 0.578125)"/>
     <use xlink:href="#STIXGeneral-Regular-61" transform="translate(487.032727 0.578125)"/>
     <use xlink:href="#STIXGeneral-Regular-2a" transform="translate(545.872717 0.578125)"/>
     <use xlink:href="#SimSun-7684" transform="translate(610.312698 0.578125)"/>
     <use xlink:href="#SimSun-8bfb" transform="translate(710.312698 0.578125)"/>
     <use xlink:href="#SimSun-53d6" transform="translate(810.312698 0.578125)"/>
     <use xlink:href="#SimSun-547d" transform="translate(910.312698 0.578125)"/>
     <use xlink:href="#SimSun-4e2d" transform="translate(1010.312698 0.578125)"/>
     <use xlink:href="#SimSun-7387" transform="translate(1110.312698 0.578125)"/>
     <use xlink:href="#SimSun-968f" transform="translate(1210.312698 0.578125)"/>
     <use xlink:href="#SimSun-8bf7" transform="translate(1310.312698 0.578125)"/>
     <use xlink:href="#SimSun-6c42" transform="translate(1410.312698 0.578125)"/>
     <use xlink:href="#SimSun-6570" transform="translate(1510.312698 0.578125)"/>
     <use xlink:href="#SimSun-7684" transform="translate(1610.312698 0.578125)"/>
     <use xlink:href="#SimSun-53d8" transform="translate(1710.312698 0.578125)"/>
     <use xlink:href="#SimSun-5316" transform="translate(1810.312698 0.578125)"/>
     <use xlink:href="#SimSun-8d8b" transform="translate(1910.312698 0.578125)"/>
     <use xlink:href="#SimSun-52bf" transform="translate(2010.312698 0.578125)"/>
    </g>
   </g>
   <g id="legend_1">
    <g id="patch_7">
     <path d="M 715.235156 131.136437 
L 816.14 131.136437 
Q 819.94 131.136437 819.94 127.336437 
L 819.94 75.508 
Q 819.94 71.708 816.14 71.708 
L 715.235156 71.708 
Q 711.435156 71.708 711.435156 75.508 
L 711.435156 127.336437 
Q 711.435156 131.136437 715.235156 131.136437 
z
" style="fill: #ffffff; opacity: 0.8; stroke: #cccccc; stroke-linejoin: miter"/>
    </g>
    <g id="line2d_21">
     <path d="M 719.035156 85.958 
L 738.035156 85.958 
L 757.035156 85.958 
" style="fill: none; stroke: #ff0000; stroke-width: 1.5; stroke-linecap: square"/>
    </g>
    <g id="text_22">
     <!-- proto -->
     <g transform="translate(772.235156 92.608) scale(0.19 -0.19)">
      <defs>
       <path id="TimesNewRomanPSMT-70" d="M -6 2578 
L 875 2934 
L 994 2934 
L 994 2266 
Q 1216 2644 1439 2795 
Q 1663 2947 1909 2947 
Q 2341 2947 2628 2609 
Q 2981 2197 2981 1534 
Q 2981 794 2556 309 
Q 2206 -88 1675 -88 
Q 1444 -88 1275 -22 
Q 1150 25 994 166 
L 994 -706 
Q 994 -1000 1030 -1079 
Q 1066 -1159 1155 -1206 
Q 1244 -1253 1478 -1253 
L 1478 -1369 
L -22 -1369 
L -22 -1253 
L 56 -1253 
Q 228 -1256 350 -1188 
Q 409 -1153 442 -1076 
Q 475 -1000 475 -688 
L 475 2019 
Q 475 2297 450 2372 
Q 425 2447 370 2484 
Q 316 2522 222 2522 
Q 147 2522 31 2478 
L -6 2578 
z
M 994 2081 
L 994 1013 
Q 994 666 1022 556 
Q 1066 375 1236 237 
Q 1406 100 1666 100 
Q 1978 100 2172 344 
Q 2425 663 2425 1241 
Q 2425 1897 2138 2250 
Q 1938 2494 1663 2494 
Q 1513 2494 1366 2419 
Q 1253 2363 994 2081 
z
" transform="scale(0.015625)"/>
       <path id="TimesNewRomanPSMT-72" d="M 1038 2947 
L 1038 2303 
Q 1397 2947 1775 2947 
Q 1947 2947 2059 2842 
Q 2172 2738 2172 2600 
Q 2172 2478 2090 2393 
Q 2009 2309 1897 2309 
Q 1788 2309 1652 2417 
Q 1516 2525 1450 2525 
Q 1394 2525 1328 2463 
Q 1188 2334 1038 2041 
L 1038 669 
Q 1038 431 1097 309 
Q 1138 225 1241 169 
Q 1344 113 1538 113 
L 1538 0 
L 72 0 
L 72 113 
Q 291 113 397 181 
Q 475 231 506 341 
Q 522 394 522 644 
L 522 1753 
Q 522 2253 501 2348 
Q 481 2444 426 2487 
Q 372 2531 291 2531 
Q 194 2531 72 2484 
L 41 2597 
L 906 2947 
L 1038 2947 
z
" transform="scale(0.015625)"/>
       <path id="TimesNewRomanPSMT-6f" d="M 1600 2947 
Q 2250 2947 2644 2453 
Q 2978 2031 2978 1484 
Q 2978 1100 2793 706 
Q 2609 313 2286 112 
Q 1963 -88 1566 -88 
Q 919 -88 538 428 
Q 216 863 216 1403 
Q 216 1797 411 2186 
Q 606 2575 925 2761 
Q 1244 2947 1600 2947 
z
M 1503 2744 
Q 1338 2744 1170 2645 
Q 1003 2547 900 2300 
Q 797 2053 797 1666 
Q 797 1041 1045 587 
Q 1294 134 1700 134 
Q 2003 134 2200 384 
Q 2397 634 2397 1244 
Q 2397 2006 2069 2444 
Q 1847 2744 1503 2744 
z
" transform="scale(0.015625)"/>
       <path id="TimesNewRomanPSMT-74" d="M 1031 3803 
L 1031 2863 
L 1700 2863 
L 1700 2644 
L 1031 2644 
L 1031 788 
Q 1031 509 1111 412 
Q 1191 316 1316 316 
Q 1419 316 1516 380 
Q 1613 444 1666 569 
L 1788 569 
Q 1678 263 1478 108 
Q 1278 -47 1066 -47 
Q 922 -47 784 33 
Q 647 113 581 261 
Q 516 409 516 719 
L 516 2644 
L 63 2644 
L 63 2747 
Q 234 2816 414 2980 
Q 594 3144 734 3369 
Q 806 3488 934 3803 
L 1031 3803 
z
" transform="scale(0.015625)"/>
      </defs>
      <use xlink:href="#TimesNewRomanPSMT-70"/>
      <use xlink:href="#TimesNewRomanPSMT-72" x="50"/>
      <use xlink:href="#TimesNewRomanPSMT-6f" x="83.300781"/>
      <use xlink:href="#TimesNewRomanPSMT-74" x="133.300781"/>
      <use xlink:href="#TimesNewRomanPSMT-6f" x="161.083984"/>
     </g>
    </g>
    <g id="line2d_22">
     <path d="M 719.035156 112.822219 
L 738.035156 112.822219 
L 757.035156 112.822219 
" style="fill: none; stroke: #0000ff; stroke-width: 1.5; stroke-linecap: square"/>
    </g>
    <g id="text_23">
     <!-- mica -->
     <g transform="translate(772.235156 119.472219) scale(0.19 -0.19)">
      <defs>
       <path id="TimesNewRomanPSMT-6d" d="M 1050 2338 
Q 1363 2650 1419 2697 
Q 1559 2816 1721 2881 
Q 1884 2947 2044 2947 
Q 2313 2947 2506 2790 
Q 2700 2634 2766 2338 
Q 3088 2713 3309 2830 
Q 3531 2947 3766 2947 
Q 3994 2947 4170 2830 
Q 4347 2713 4450 2447 
Q 4519 2266 4519 1878 
L 4519 647 
Q 4519 378 4559 278 
Q 4591 209 4675 161 
Q 4759 113 4950 113 
L 4950 0 
L 3538 0 
L 3538 113 
L 3597 113 
Q 3781 113 3884 184 
Q 3956 234 3988 344 
Q 4000 397 4000 647 
L 4000 1878 
Q 4000 2228 3916 2372 
Q 3794 2572 3525 2572 
Q 3359 2572 3192 2489 
Q 3025 2406 2788 2181 
L 2781 2147 
L 2788 2013 
L 2788 647 
Q 2788 353 2820 281 
Q 2853 209 2943 161 
Q 3034 113 3253 113 
L 3253 0 
L 1806 0 
L 1806 113 
Q 2044 113 2133 169 
Q 2222 225 2256 338 
Q 2272 391 2272 647 
L 2272 1878 
Q 2272 2228 2169 2381 
Q 2031 2581 1784 2581 
Q 1616 2581 1450 2491 
Q 1191 2353 1050 2181 
L 1050 647 
Q 1050 366 1089 281 
Q 1128 197 1204 155 
Q 1281 113 1516 113 
L 1516 0 
L 100 0 
L 100 113 
Q 297 113 375 155 
Q 453 197 493 289 
Q 534 381 534 647 
L 534 1741 
Q 534 2213 506 2350 
Q 484 2453 437 2492 
Q 391 2531 309 2531 
Q 222 2531 100 2484 
L 53 2597 
L 916 2947 
L 1050 2947 
L 1050 2338 
z
" transform="scale(0.015625)"/>
       <path id="TimesNewRomanPSMT-69" d="M 928 4444 
Q 1059 4444 1151 4351 
Q 1244 4259 1244 4128 
Q 1244 3997 1151 3903 
Q 1059 3809 928 3809 
Q 797 3809 703 3903 
Q 609 3997 609 4128 
Q 609 4259 701 4351 
Q 794 4444 928 4444 
z
M 1188 2947 
L 1188 647 
Q 1188 378 1227 289 
Q 1266 200 1342 156 
Q 1419 113 1622 113 
L 1622 0 
L 231 0 
L 231 113 
Q 441 113 512 153 
Q 584 194 626 287 
Q 669 381 669 647 
L 669 1750 
Q 669 2216 641 2353 
Q 619 2453 572 2492 
Q 525 2531 444 2531 
Q 356 2531 231 2484 
L 188 2597 
L 1050 2947 
L 1188 2947 
z
" transform="scale(0.015625)"/>
       <path id="TimesNewRomanPSMT-63" d="M 2631 1088 
Q 2516 522 2178 217 
Q 1841 -88 1431 -88 
Q 944 -88 581 321 
Q 219 731 219 1428 
Q 219 2103 620 2525 
Q 1022 2947 1584 2947 
Q 2006 2947 2278 2723 
Q 2550 2500 2550 2259 
Q 2550 2141 2473 2067 
Q 2397 1994 2259 1994 
Q 2075 1994 1981 2113 
Q 1928 2178 1911 2362 
Q 1894 2547 1784 2644 
Q 1675 2738 1481 2738 
Q 1169 2738 978 2506 
Q 725 2200 725 1697 
Q 725 1184 976 792 
Q 1228 400 1656 400 
Q 1963 400 2206 609 
Q 2378 753 2541 1131 
L 2631 1088 
z
" transform="scale(0.015625)"/>
       <path id="TimesNewRomanPSMT-61" d="M 1822 413 
Q 1381 72 1269 19 
Q 1100 -59 909 -59 
Q 613 -59 420 144 
Q 228 347 228 678 
Q 228 888 322 1041 
Q 450 1253 767 1440 
Q 1084 1628 1822 1897 
L 1822 2009 
Q 1822 2438 1686 2597 
Q 1550 2756 1291 2756 
Q 1094 2756 978 2650 
Q 859 2544 859 2406 
L 866 2225 
Q 866 2081 792 2003 
Q 719 1925 600 1925 
Q 484 1925 411 2006 
Q 338 2088 338 2228 
Q 338 2497 613 2722 
Q 888 2947 1384 2947 
Q 1766 2947 2009 2819 
Q 2194 2722 2281 2516 
Q 2338 2381 2338 1966 
L 2338 994 
Q 2338 584 2353 492 
Q 2369 400 2405 369 
Q 2441 338 2488 338 
Q 2538 338 2575 359 
Q 2641 400 2828 588 
L 2828 413 
Q 2478 -56 2159 -56 
Q 2006 -56 1915 50 
Q 1825 156 1822 413 
z
M 1822 616 
L 1822 1706 
Q 1350 1519 1213 1441 
Q 966 1303 859 1153 
Q 753 1003 753 825 
Q 753 600 887 451 
Q 1022 303 1197 303 
Q 1434 303 1822 616 
z
" transform="scale(0.015625)"/>
      </defs>
      <use xlink:href="#TimesNewRomanPSMT-6d"/>
      <use xlink:href="#TimesNewRomanPSMT-69" x="77.783203"/>
      <use xlink:href="#TimesNewRomanPSMT-63" x="105.566406"/>
      <use xlink:href="#TimesNewRomanPSMT-61" x="149.951172"/>
     </g>
    </g>
   </g>
  </g>
 </g>
 <defs>
  <clipPath id="p235b7ceeaf">
   <rect x="115.2" y="62.208" width="714.24" height="399.168"/>
  </clipPath>
 </defs>
</svg>
