<?xml version="1.0" encoding="utf-8" standalone="no"?>
<!DOCTYPE svg PUBLIC "-//W3C//DTD SVG 1.1//EN"
  "http://www.w3.org/Graphics/SVG/1.1/DTD/svg11.dtd">
<svg xmlns:xlink="http://www.w3.org/1999/xlink" width="921.6pt" height="518.4pt" viewBox="0 0 921.6 518.4" xmlns="http://www.w3.org/2000/svg" version="1.1">
 <metadata>
  <rdf:RDF xmlns:dc="http://purl.org/dc/elements/1.1/" xmlns:cc="http://creativecommons.org/ns#" xmlns:rdf="http://www.w3.org/1999/02/22-rdf-syntax-ns#">
   <cc:Work>
    <dc:type rdf:resource="http://purl.org/dc/dcmitype/StillImage"/>
    <dc:date>2023-07-06T16:09:00.088567</dc:date>
    <dc:format>image/svg+xml</dc:format>
    <dc:creator>
     <cc:Agent>
      <dc:title>Matplotlib v3.7.1, https://matplotlib.org/</dc:title>
     </cc:Agent>
    </dc:creator>
   </cc:Work>
  </rdf:RDF>
 </metadata>
 <defs>
  <style type="text/css">*{stroke-linejoin: round; stroke-linecap: butt}</style>
 </defs>
 <g id="figure_1">
  <g id="patch_1">
   <path d="M 0 518.4 
L 921.6 518.4 
L 921.6 0 
L 0 0 
z
" style="fill: #ffffff"/>
  </g>
  <g id="axes_1">
   <g id="patch_2">
    <path d="M 115.2 461.376 
L 829.44 461.376 
L 829.44 62.208 
L 115.2 62.208 
z
" style="fill: #ffffff"/>
   </g>
   <g id="matplotlib.axis_1">
    <g id="xtick_1">
     <g id="line2d_1">
      <defs>
       <path id="m6b5b058b0c" d="M 0 0 
L 0 3.5 
" style="stroke: #000000; stroke-width: 0.8"/>
      </defs>
      <g>
       <use xlink:href="#m6b5b058b0c" x="115.2" y="461.376" style="stroke: #000000; stroke-width: 0.8"/>
      </g>
     </g>
     <g id="text_1">
      <!-- 0 -->
      <g transform="translate(110.45 481.958031) scale(0.19 -0.19)">
       <defs>
        <path id="SimSun-30" d="M 1600 4225 
Q 1250 4225 1012 3687 
Q 775 3150 775 2250 
Q 775 1300 1012 775 
Q 1250 250 1600 250 
Q 1975 250 2187 775 
Q 2400 1300 2400 2250 
Q 2400 3150 2200 3687 
Q 2000 4225 1600 4225 
z
M 1600 50 
Q 1050 50 675 625 
Q 300 1200 300 2250 
Q 300 3225 662 3825 
Q 1025 4425 1600 4425 
Q 2150 4425 2512 3850 
Q 2875 3275 2875 2250 
Q 2875 1225 2512 637 
Q 2150 50 1600 50 
z
" transform="scale(0.015625)"/>
       </defs>
       <use xlink:href="#SimSun-30"/>
      </g>
     </g>
    </g>
    <g id="xtick_2">
     <g id="line2d_2">
      <g>
       <use xlink:href="#m6b5b058b0c" x="204.48" y="461.376" style="stroke: #000000; stroke-width: 0.8"/>
      </g>
     </g>
     <g id="text_2">
      <!-- 10 -->
      <g transform="translate(194.98 481.958031) scale(0.19 -0.19)">
       <defs>
        <path id="SimSun-31" d="M 1825 4450 
L 1825 650 
Q 1825 450 1950 350 
Q 2075 250 2300 250 
L 2550 250 
L 2550 100 
L 725 100 
L 725 250 
L 950 250 
Q 1200 250 1312 350 
Q 1425 450 1425 650 
L 1425 3675 
Q 1425 3775 1362 3837 
Q 1300 3900 1175 3900 
L 725 3900 
L 725 4050 
L 950 4050 
Q 1250 4050 1437 4150 
Q 1625 4250 1725 4450 
L 1825 4450 
z
" transform="scale(0.015625)"/>
       </defs>
       <use xlink:href="#SimSun-31"/>
       <use xlink:href="#SimSun-30" x="50"/>
      </g>
     </g>
    </g>
    <g id="xtick_3">
     <g id="line2d_3">
      <g>
       <use xlink:href="#m6b5b058b0c" x="293.76" y="461.376" style="stroke: #000000; stroke-width: 0.8"/>
      </g>
     </g>
     <g id="text_3">
      <!-- 20 -->
      <g transform="translate(284.26 481.958031) scale(0.19 -0.19)">
       <defs>
        <path id="SimSun-32" d="M 2325 3325 
Q 2325 3775 2125 4012 
Q 1925 4250 1525 4250 
Q 1225 4250 1012 4087 
Q 800 3925 800 3675 
Q 800 3525 900 3425 
Q 975 3325 975 3225 
Q 975 3100 912 3037 
Q 850 2975 725 2975 
Q 575 2975 487 3062 
Q 400 3150 400 3350 
Q 400 3875 775 4150 
Q 1150 4425 1575 4425 
Q 2175 4425 2462 4125 
Q 2750 3825 2750 3375 
Q 2750 3075 2612 2775 
Q 2475 2475 2175 2200 
Q 1450 1500 1062 1062 
Q 675 625 600 475 
L 2075 475 
Q 2300 475 2450 650 
Q 2600 825 2650 1175 
L 2800 1175 
L 2650 100 
L 325 100 
L 325 425 
Q 450 650 737 1000 
Q 1025 1350 1500 1825 
Q 1925 2250 2125 2625 
Q 2325 3000 2325 3325 
z
" transform="scale(0.015625)"/>
       </defs>
       <use xlink:href="#SimSun-32"/>
       <use xlink:href="#SimSun-30" x="50"/>
      </g>
     </g>
    </g>
    <g id="xtick_4">
     <g id="line2d_4">
      <g>
       <use xlink:href="#m6b5b058b0c" x="383.04" y="461.376" style="stroke: #000000; stroke-width: 0.8"/>
      </g>
     </g>
     <g id="text_4">
      <!-- 30 -->
      <g transform="translate(373.54 481.958031) scale(0.19 -0.19)">
       <defs>
        <path id="SimSun-33" d="M 2800 1250 
Q 2800 775 2450 412 
Q 2100 50 1475 50 
Q 1025 50 700 300 
Q 375 550 375 875 
Q 375 1025 475 1137 
Q 575 1250 675 1250 
Q 825 1250 887 1137 
Q 950 1025 950 950 
Q 950 825 900 750 
Q 850 650 850 575 
Q 850 425 1037 325 
Q 1225 225 1450 225 
Q 1900 225 2125 487 
Q 2350 750 2350 1300 
Q 2350 1750 2112 2025 
Q 1875 2300 1225 2300 
L 1225 2475 
Q 1725 2475 1962 2712 
Q 2200 2950 2200 3375 
Q 2200 3725 2012 3987 
Q 1825 4250 1425 4250 
Q 1250 4250 1050 4162 
Q 850 4075 850 3875 
Q 850 3675 900 3625 
Q 950 3575 950 3500 
Q 950 3375 900 3300 
Q 850 3225 725 3225 
Q 625 3225 537 3300 
Q 450 3375 450 3575 
Q 450 3950 775 4187 
Q 1100 4425 1525 4425 
Q 2025 4425 2325 4112 
Q 2625 3800 2625 3450 
Q 2625 3075 2437 2812 
Q 2250 2550 1850 2425 
Q 2400 2225 2600 1900 
Q 2800 1575 2800 1250 
z
" transform="scale(0.015625)"/>
       </defs>
       <use xlink:href="#SimSun-33"/>
       <use xlink:href="#SimSun-30" x="50"/>
      </g>
     </g>
    </g>
    <g id="xtick_5">
     <g id="line2d_5">
      <g>
       <use xlink:href="#m6b5b058b0c" x="472.32" y="461.376" style="stroke: #000000; stroke-width: 0.8"/>
      </g>
     </g>
     <g id="text_5">
      <!-- 40 -->
      <g transform="translate(462.82 481.958031) scale(0.19 -0.19)">
       <defs>
        <path id="SimSun-34" d="M 2300 575 
Q 2300 400 2400 325 
Q 2500 250 2675 250 
L 2900 250 
L 2900 100 
L 1250 100 
L 1250 250 
L 1525 250 
Q 1725 250 1812 325 
Q 1900 400 1900 575 
L 1900 1400 
L 225 1400 
L 225 1525 
L 2050 4425 
L 2300 4425 
L 2300 1550 
L 2975 1550 
L 2975 1400 
L 2300 1400 
L 2300 575 
z
M 1875 3800 
L 450 1550 
L 1900 1550 
L 1900 3800 
L 1875 3800 
z
" transform="scale(0.015625)"/>
       </defs>
       <use xlink:href="#SimSun-34"/>
       <use xlink:href="#SimSun-30" x="50"/>
      </g>
     </g>
    </g>
    <g id="xtick_6">
     <g id="line2d_6">
      <g>
       <use xlink:href="#m6b5b058b0c" x="561.6" y="461.376" style="stroke: #000000; stroke-width: 0.8"/>
      </g>
     </g>
     <g id="text_6">
      <!-- 50 -->
      <g transform="translate(552.1 481.958031) scale(0.19 -0.19)">
       <defs>
        <path id="SimSun-35" d="M 1725 2850 
Q 2200 2850 2500 2487 
Q 2800 2125 2800 1525 
Q 2800 850 2487 450 
Q 2175 50 1525 50 
Q 1075 50 725 312 
Q 375 575 375 950 
Q 375 1100 462 1212 
Q 550 1325 700 1325 
Q 850 1325 900 1225 
Q 950 1125 950 1050 
Q 950 900 875 825 
Q 800 725 800 625 
Q 800 425 1037 325 
Q 1275 225 1550 225 
Q 1950 225 2162 550 
Q 2375 875 2375 1475 
Q 2375 1975 2187 2287 
Q 2000 2600 1625 2600 
Q 1350 2600 1150 2500 
Q 950 2400 775 2075 
L 550 2100 
L 675 4375 
L 2725 4375 
L 2650 4000 
L 850 4000 
L 750 2350 
Q 1000 2700 1237 2775 
Q 1475 2850 1725 2850 
z
" transform="scale(0.015625)"/>
       </defs>
       <use xlink:href="#SimSun-35"/>
       <use xlink:href="#SimSun-30" x="50"/>
      </g>
     </g>
    </g>
    <g id="xtick_7">
     <g id="line2d_7">
      <g>
       <use xlink:href="#m6b5b058b0c" x="650.88" y="461.376" style="stroke: #000000; stroke-width: 0.8"/>
      </g>
     </g>
     <g id="text_7">
      <!-- 60 -->
      <g transform="translate(641.38 481.958031) scale(0.19 -0.19)">
       <defs>
        <path id="SimSun-36" d="M 775 1800 
Q 775 1050 1037 637 
Q 1300 225 1675 225 
Q 2050 225 2250 500 
Q 2450 775 2450 1525 
Q 2450 2025 2237 2300 
Q 2025 2575 1725 2575 
Q 1450 2575 1212 2412 
Q 975 2250 775 1800 
z
M 1750 2825 
Q 2350 2825 2612 2425 
Q 2875 2025 2875 1525 
Q 2875 775 2512 412 
Q 2150 50 1675 50 
Q 1000 50 650 562 
Q 300 1075 300 2050 
Q 300 3200 725 3812 
Q 1150 4425 1875 4425 
Q 2225 4425 2437 4225 
Q 2650 4025 2650 3875 
Q 2650 3725 2587 3650 
Q 2525 3575 2375 3575 
Q 2250 3575 2187 3637 
Q 2125 3700 2125 3825 
Q 2125 3875 2150 3925 
Q 2150 3975 2150 4025 
Q 2150 4125 2075 4187 
Q 2000 4250 1800 4250 
Q 1375 4250 1075 3862 
Q 775 3475 775 2175 
Q 925 2500 1187 2662 
Q 1450 2825 1750 2825 
z
" transform="scale(0.015625)"/>
       </defs>
       <use xlink:href="#SimSun-36"/>
       <use xlink:href="#SimSun-30" x="50"/>
      </g>
     </g>
    </g>
    <g id="xtick_8">
     <g id="line2d_8">
      <g>
       <use xlink:href="#m6b5b058b0c" x="740.16" y="461.376" style="stroke: #000000; stroke-width: 0.8"/>
      </g>
     </g>
     <g id="text_8">
      <!-- 70 -->
      <g transform="translate(730.66 481.958031) scale(0.19 -0.19)">
       <defs>
        <path id="SimSun-37" d="M 2825 4200 
Q 2300 3350 1987 2537 
Q 1675 1725 1675 1125 
Q 1675 1025 1700 850 
Q 1700 650 1700 400 
Q 1700 200 1637 125 
Q 1575 50 1425 50 
Q 1300 50 1212 137 
Q 1125 225 1125 450 
Q 1125 925 1337 1625 
Q 1550 2325 2475 4000 
L 1225 4000 
Q 950 4000 787 3825 
Q 625 3650 550 3300 
L 400 3325 
L 575 4375 
L 2825 4375 
L 2825 4200 
z
" transform="scale(0.015625)"/>
       </defs>
       <use xlink:href="#SimSun-37"/>
       <use xlink:href="#SimSun-30" x="50"/>
      </g>
     </g>
    </g>
    <g id="xtick_9">
     <g id="line2d_9">
      <g>
       <use xlink:href="#m6b5b058b0c" x="829.44" y="461.376" style="stroke: #000000; stroke-width: 0.8"/>
      </g>
     </g>
     <g id="text_9">
      <!-- 80 -->
      <g transform="translate(819.94 481.958031) scale(0.19 -0.19)">
       <defs>
        <path id="SimSun-38" d="M 625 1125 
Q 625 725 887 475 
Q 1150 225 1550 225 
Q 2025 225 2237 475 
Q 2450 725 2450 1100 
Q 2450 1425 2150 1725 
Q 1850 2025 1250 2275 
Q 950 2075 787 1775 
Q 625 1475 625 1125 
z
M 2825 1175 
Q 2825 700 2475 375 
Q 2125 50 1550 50 
Q 1025 50 650 375 
Q 275 700 275 1125 
Q 275 1550 487 1850 
Q 700 2150 1100 2375 
Q 750 2550 562 2812 
Q 375 3075 375 3400 
Q 375 3825 700 4125 
Q 1025 4425 1600 4425 
Q 2125 4425 2450 4125 
Q 2775 3825 2775 3400 
Q 2775 3100 2587 2837 
Q 2400 2575 2000 2375 
Q 2425 2125 2625 1825 
Q 2825 1525 2825 1175 
z
M 2425 3375 
Q 2425 3725 2225 3987 
Q 2025 4250 1600 4250 
Q 1125 4250 925 4000 
Q 725 3750 725 3475 
Q 725 3200 1012 2937 
Q 1300 2675 1825 2475 
Q 2125 2625 2275 2850 
Q 2425 3075 2425 3375 
z
" transform="scale(0.015625)"/>
       </defs>
       <use xlink:href="#SimSun-38"/>
       <use xlink:href="#SimSun-30" x="50"/>
      </g>
     </g>
    </g>
    <g id="text_10">
     <!-- 时间 $\mathrm{(s)}$ -->
     <g transform="translate(438.5 503.98725) scale(0.19 -0.19)">
      <defs>
       <path id="SimSun-65f6" d="M 4500 3600 
Q 4500 4575 4475 5225 
L 5100 4900 
L 4850 4725 
L 4850 3600 
L 5225 3600 
L 5550 3925 
L 6025 3450 
L 4850 3450 
L 4850 100 
Q 4850 -375 4300 -575 
Q 4275 -200 3475 -25 
L 3475 100 
Q 4150 0 4325 25 
Q 4500 50 4500 325 
L 4500 3450 
L 3200 3450 
Q 2875 3450 2600 3375 
L 2375 3600 
L 4500 3600 
z
M 2875 2825 
Q 3525 2375 3637 2200 
Q 3750 2025 3750 1925 
Q 3750 1800 3637 1637 
Q 3525 1475 3475 1475 
Q 3400 1475 3325 1775 
Q 3200 2225 2800 2750 
L 2875 2825 
z
M 925 4150 
L 925 2650 
L 1950 2650 
L 1950 4150 
L 925 4150 
z
M 925 2500 
L 925 900 
L 1950 900 
L 1950 2500 
L 925 2500 
z
M 2300 2000 
Q 2300 800 2325 450 
L 1950 250 
L 1950 750 
L 925 750 
L 925 225 
L 550 25 
Q 575 825 575 2425 
Q 575 4025 550 4500 
L 950 4300 
L 1900 4300 
L 2100 4550 
L 2500 4225 
L 2300 4050 
L 2300 2000 
z
" transform="scale(0.015625)"/>
       <path id="SimSun-95f4" d="M 2150 525 
Q 2175 1325 2175 2112 
Q 2175 2900 2150 3675 
L 2525 3450 
L 3750 3450 
L 4000 3700 
L 4325 3375 
L 4125 3200 
Q 4125 1550 4150 775 
L 3800 575 
L 3800 975 
L 2500 975 
L 2500 700 
L 2150 525 
z
M 2500 3300 
L 2500 2325 
L 3800 2325 
L 3800 3300 
L 2500 3300 
z
M 2500 2175 
L 2500 1125 
L 3800 1125 
L 3800 2175 
L 2500 2175 
z
M 1275 5200 
Q 1850 4825 1950 4675 
Q 2050 4525 2050 4425 
Q 2050 4275 1950 4137 
Q 1850 4000 1825 4000 
Q 1750 4000 1675 4275 
Q 1550 4650 1200 5125 
L 1275 5200 
z
M 1125 425 
Q 1125 25 1150 -375 
L 750 -525 
Q 775 -150 775 1950 
Q 775 4050 750 4425 
L 1350 4125 
L 1125 3975 
L 1125 425 
z
M 4225 125 
Q 5025 0 5125 37 
Q 5225 75 5225 250 
L 5225 4450 
L 3225 4450 
Q 2900 4450 2625 4375 
L 2400 4600 
L 5175 4600 
L 5425 4850 
L 5775 4500 
L 5575 4350 
L 5575 225 
Q 5575 -100 5462 -250 
Q 5350 -400 5000 -550 
Q 4800 -125 4225 25 
L 4225 125 
z
" transform="scale(0.015625)"/>
       <path id="SimSun-20" d="M 0 0 
Q 0 0 0 0 
z
" transform="scale(0.015625)"/>
       <path id="STIXGeneral-Regular-28" d="M 1946 -1030 
L 1869 -1133 
Q 1126 -710 716 32 
Q 307 774 307 1613 
Q 307 3386 1888 4326 
L 1946 4224 
Q 1293 3667 1075 3126 
Q 858 2586 858 1632 
Q 858 685 1082 96 
Q 1306 -493 1946 -1030 
z
" transform="scale(0.015625)"/>
       <path id="STIXGeneral-Regular-73" d="M 998 1926 
L 1664 1523 
Q 1984 1331 2105 1164 
Q 2227 998 2227 736 
Q 2227 416 1961 176 
Q 1696 -64 1331 -64 
Q 1030 -64 864 -6 
Q 691 51 570 51 
Q 461 51 416 -26 
L 333 -26 
L 333 979 
L 435 979 
Q 538 512 730 294 
Q 922 77 1248 77 
Q 1485 77 1632 211 
Q 1779 346 1779 550 
Q 1779 845 1440 1030 
L 1094 1222 
Q 326 1651 326 2150 
Q 326 2522 566 2730 
Q 806 2938 1210 2938 
Q 1491 2938 1638 2867 
Q 1754 2816 1818 2816 
Q 1862 2816 1920 2880 
L 1990 2880 
L 2022 2010 
L 1926 2010 
Q 1818 2445 1654 2621 
Q 1491 2797 1203 2797 
Q 986 2797 854 2688 
Q 723 2579 723 2362 
Q 723 2253 796 2128 
Q 870 2003 998 1926 
z
" transform="scale(0.015625)"/>
       <path id="STIXGeneral-Regular-29" d="M 186 4224 
L 262 4326 
Q 992 3891 1408 3148 
Q 1824 2406 1824 1581 
Q 1824 -166 243 -1133 
L 186 -1030 
Q 845 -486 1059 54 
Q 1274 595 1274 1562 
Q 1274 2534 1059 3120 
Q 845 3706 186 4224 
z
" transform="scale(0.015625)"/>
      </defs>
      <use xlink:href="#SimSun-65f6" transform="translate(0 0.359375)"/>
      <use xlink:href="#SimSun-95f4" transform="translate(100 0.359375)"/>
      <use xlink:href="#SimSun-20" transform="translate(200 0.359375)"/>
      <use xlink:href="#STIXGeneral-Regular-28" transform="translate(250 0.359375)"/>
      <use xlink:href="#STIXGeneral-Regular-73" transform="translate(283.299988 0.359375)"/>
      <use xlink:href="#STIXGeneral-Regular-29" transform="translate(322.199982 0.359375)"/>
     </g>
    </g>
   </g>
   <g id="matplotlib.axis_2">
    <g id="ytick_1">
     <g id="line2d_10">
      <defs>
       <path id="mff7c03a657" d="M 0 0 
L -3.5 0 
" style="stroke: #000000; stroke-width: 0.8"/>
      </defs>
      <g>
       <use xlink:href="#mff7c03a657" x="115.2" y="461.376" style="stroke: #000000; stroke-width: 0.8"/>
      </g>
     </g>
     <g id="text_11">
      <!-- 0 -->
      <g transform="translate(98.7 468.167016) scale(0.19 -0.19)">
       <use xlink:href="#SimSun-30"/>
      </g>
     </g>
    </g>
    <g id="ytick_2">
     <g id="line2d_11">
      <g>
       <use xlink:href="#mff7c03a657" x="115.2" y="421.4592" style="stroke: #000000; stroke-width: 0.8"/>
      </g>
     </g>
     <g id="text_12">
      <!-- 10 -->
      <g transform="translate(89.2 428.250216) scale(0.19 -0.19)">
       <use xlink:href="#SimSun-31"/>
       <use xlink:href="#SimSun-30" x="50"/>
      </g>
     </g>
    </g>
    <g id="ytick_3">
     <g id="line2d_12">
      <g>
       <use xlink:href="#mff7c03a657" x="115.2" y="381.5424" style="stroke: #000000; stroke-width: 0.8"/>
      </g>
     </g>
     <g id="text_13">
      <!-- 20 -->
      <g transform="translate(89.2 388.333416) scale(0.19 -0.19)">
       <use xlink:href="#SimSun-32"/>
       <use xlink:href="#SimSun-30" x="50"/>
      </g>
     </g>
    </g>
    <g id="ytick_4">
     <g id="line2d_13">
      <g>
       <use xlink:href="#mff7c03a657" x="115.2" y="341.6256" style="stroke: #000000; stroke-width: 0.8"/>
      </g>
     </g>
     <g id="text_14">
      <!-- 30 -->
      <g transform="translate(89.2 348.416616) scale(0.19 -0.19)">
       <use xlink:href="#SimSun-33"/>
       <use xlink:href="#SimSun-30" x="50"/>
      </g>
     </g>
    </g>
    <g id="ytick_5">
     <g id="line2d_14">
      <g>
       <use xlink:href="#mff7c03a657" x="115.2" y="301.7088" style="stroke: #000000; stroke-width: 0.8"/>
      </g>
     </g>
     <g id="text_15">
      <!-- 40 -->
      <g transform="translate(89.2 308.499816) scale(0.19 -0.19)">
       <use xlink:href="#SimSun-34"/>
       <use xlink:href="#SimSun-30" x="50"/>
      </g>
     </g>
    </g>
    <g id="ytick_6">
     <g id="line2d_15">
      <g>
       <use xlink:href="#mff7c03a657" x="115.2" y="261.792" style="stroke: #000000; stroke-width: 0.8"/>
      </g>
     </g>
     <g id="text_16">
      <!-- 50 -->
      <g transform="translate(89.2 268.583016) scale(0.19 -0.19)">
       <use xlink:href="#SimSun-35"/>
       <use xlink:href="#SimSun-30" x="50"/>
      </g>
     </g>
    </g>
    <g id="ytick_7">
     <g id="line2d_16">
      <g>
       <use xlink:href="#mff7c03a657" x="115.2" y="221.8752" style="stroke: #000000; stroke-width: 0.8"/>
      </g>
     </g>
     <g id="text_17">
      <!-- 60 -->
      <g transform="translate(89.2 228.666216) scale(0.19 -0.19)">
       <use xlink:href="#SimSun-36"/>
       <use xlink:href="#SimSun-30" x="50"/>
      </g>
     </g>
    </g>
    <g id="ytick_8">
     <g id="line2d_17">
      <g>
       <use xlink:href="#mff7c03a657" x="115.2" y="181.9584" style="stroke: #000000; stroke-width: 0.8"/>
      </g>
     </g>
     <g id="text_18">
      <!-- 70 -->
      <g transform="translate(89.2 188.749416) scale(0.19 -0.19)">
       <use xlink:href="#SimSun-37"/>
       <use xlink:href="#SimSun-30" x="50"/>
      </g>
     </g>
    </g>
    <g id="ytick_9">
     <g id="line2d_18">
      <g>
       <use xlink:href="#mff7c03a657" x="115.2" y="142.0416" style="stroke: #000000; stroke-width: 0.8"/>
      </g>
     </g>
     <g id="text_19">
      <!-- 80 -->
      <g transform="translate(89.2 148.832616) scale(0.19 -0.19)">
       <use xlink:href="#SimSun-38"/>
       <use xlink:href="#SimSun-30" x="50"/>
      </g>
     </g>
    </g>
    <g id="ytick_10">
     <g id="line2d_19">
      <g>
       <use xlink:href="#mff7c03a657" x="115.2" y="102.1248" style="stroke: #000000; stroke-width: 0.8"/>
      </g>
     </g>
     <g id="text_20">
      <!-- 90 -->
      <g transform="translate(89.2 108.915816) scale(0.19 -0.19)">
       <defs>
        <path id="SimSun-39" d="M 700 3050 
Q 700 2500 912 2212 
Q 1125 1925 1450 1925 
Q 1825 1925 2100 2275 
Q 2375 2625 2375 2925 
Q 2375 3525 2175 3887 
Q 1975 4250 1525 4250 
Q 1100 4250 900 3912 
Q 700 3575 700 3050 
z
M 1375 1700 
Q 875 1700 575 2012 
Q 275 2325 275 3025 
Q 275 3625 600 4025 
Q 925 4425 1525 4425 
Q 2150 4425 2500 3925 
Q 2850 3425 2850 2475 
Q 2850 1425 2437 737 
Q 2025 50 1300 50 
Q 975 50 737 200 
Q 500 350 500 600 
Q 500 700 562 800 
Q 625 900 775 900 
Q 925 900 975 787 
Q 1025 675 1025 525 
Q 1025 425 1050 362 
Q 1075 300 1100 275 
Q 1125 250 1187 237 
Q 1250 225 1325 225 
Q 1775 225 2050 725 
Q 2325 1225 2375 2400 
Q 2250 2100 2000 1900 
Q 1750 1700 1375 1700 
z
" transform="scale(0.015625)"/>
       </defs>
       <use xlink:href="#SimSun-39"/>
       <use xlink:href="#SimSun-30" x="50"/>
      </g>
     </g>
    </g>
    <g id="ytick_11">
     <g id="line2d_20">
      <g>
       <use xlink:href="#mff7c03a657" x="115.2" y="62.208" style="stroke: #000000; stroke-width: 0.8"/>
      </g>
     </g>
     <g id="text_21">
      <!-- 100 -->
      <g transform="translate(79.7 68.999016) scale(0.19 -0.19)">
       <use xlink:href="#SimSun-31"/>
       <use xlink:href="#SimSun-30" x="50"/>
       <use xlink:href="#SimSun-30" x="100"/>
      </g>
     </g>
    </g>
    <g id="text_22">
     <!-- 读取命中率 $\mathrm{(\%)}$ -->
     <g transform="translate(72.28 327.532) rotate(-90) scale(0.19 -0.19)">
      <defs>
       <path id="SimSun-8bfb" d="M 1450 275 
L 2375 850 
L 2425 775 
Q 1600 50 1325 -325 
L 1025 50 
Q 1125 175 1125 400 
L 1125 2850 
L 1050 2850 
Q 725 2850 450 2775 
L 225 3000 
L 1125 3000 
L 1350 3225 
L 1675 2900 
L 1450 2725 
L 1450 275 
z
M 750 4925 
L 800 5000 
Q 1150 4800 1387 4600 
Q 1625 4400 1587 4200 
Q 1550 4000 1400 3925 
Q 1250 3850 1175 4200 
Q 1100 4525 750 4925 
z
M 5100 2700 
L 5425 3325 
L 2575 3325 
Q 2375 3325 2100 3250 
L 1875 3475 
L 3650 3475 
L 3650 4250 
L 3025 4250 
Q 2700 4250 2425 4175 
L 2200 4400 
L 3650 4400 
Q 3650 4825 3625 5250 
L 4175 5000 
L 3975 4825 
L 3975 4400 
L 4875 4400 
L 5150 4675 
L 5550 4250 
L 3975 4250 
L 3975 3475 
L 5375 3475 
L 5625 3750 
L 6075 3300 
Q 5725 3275 5200 2650 
L 5100 2700 
z
M 2750 2925 
L 2775 3000 
Q 3350 2825 3462 2687 
Q 3575 2550 3575 2450 
Q 3575 2350 3512 2250 
Q 3450 2150 3425 2150 
Q 3350 2150 3275 2350 
Q 3125 2625 2750 2925 
z
M 2375 2275 
Q 2975 2075 3100 1950 
Q 3225 1825 3225 1700 
Q 3225 1625 3162 1512 
Q 3100 1400 3075 1400 
Q 3000 1400 2900 1625 
Q 2725 1925 2350 2200 
L 2375 2275 
z
M 4475 2625 
Q 4425 1550 4350 1175 
L 5275 1175 
L 5600 1500 
L 6050 1025 
L 4325 1025 
Q 4250 825 4125 575 
Q 4850 350 5200 150 
Q 5550 -50 5600 -237 
Q 5650 -425 5587 -500 
Q 5525 -575 5475 -575 
Q 5350 -575 5175 -325 
Q 4925 25 4075 475 
Q 3425 -425 1975 -650 
L 1950 -550 
Q 3600 -100 3975 1025 
L 2700 1025 
Q 2500 1025 2225 950 
L 2000 1175 
L 4000 1175 
Q 4100 1800 4100 3075 
L 4675 2800 
L 4475 2625 
z
" transform="scale(0.015625)"/>
       <path id="SimSun-53d6" d="M 1300 2225 
L 1300 1125 
L 2425 1350 
L 2425 2225 
L 1300 2225 
z
M 2750 1225 
Q 2750 100 2775 -350 
L 2400 -575 
Q 2425 125 2425 1150 
Q 775 700 575 425 
L 325 925 
Q 625 975 975 1050 
L 975 4650 
L 775 4650 
L 525 4600 
L 325 4800 
L 2675 4800 
L 2975 5100 
L 3425 4650 
L 2750 4650 
L 2750 1425 
L 3500 1575 
L 3525 1475 
L 2750 1225 
z
M 1300 4650 
L 1300 3600 
L 2425 3600 
L 2425 4650 
L 1300 4650 
z
M 2425 3450 
L 1300 3450 
L 1300 2375 
L 2425 2375 
L 2425 3450 
z
M 2925 4175 
L 5050 4175 
L 5250 4425 
L 5700 4075 
L 5475 3925 
Q 5100 2350 4550 1275 
Q 5200 375 6100 125 
L 6100 25 
Q 5775 -25 5600 -275 
Q 4875 225 4375 975 
Q 3700 25 2825 -525 
L 2775 -450 
Q 3650 325 4175 1250 
Q 3650 2625 3525 4025 
L 3350 4025 
L 3125 3975 
L 2925 4175 
z
M 3650 4025 
Q 3900 2525 4350 1600 
Q 4825 2650 5075 4025 
L 3650 4025 
z
" transform="scale(0.015625)"/>
       <path id="SimSun-547d" d="M 1775 3150 
L 3650 3150 
L 3950 3450 
L 4400 3000 
L 2550 3000 
Q 2225 3000 2000 2925 
L 1775 3150 
z
M 1450 2125 
L 1450 575 
L 2400 575 
L 2400 2125 
L 1450 2125 
z
M 1100 -250 
Q 1125 525 1125 1125 
Q 1125 1725 1100 2500 
L 1450 2275 
L 2350 2275 
L 2525 2500 
L 2900 2200 
L 2725 2050 
Q 2725 550 2750 150 
L 2400 0 
L 2400 425 
L 1450 425 
L 1450 -100 
L 1100 -250 
z
M 3775 2175 
L 3775 -450 
L 3425 -625 
Q 3450 75 3450 1050 
Q 3450 2025 3425 2550 
L 3775 2325 
L 4825 2325 
L 5000 2575 
L 5400 2275 
L 5200 2100 
L 5200 525 
Q 5225 75 4700 -125 
Q 4700 150 4025 325 
L 4025 425 
Q 4550 375 4712 375 
Q 4875 375 4875 700 
L 4875 2175 
L 3775 2175 
z
M 2975 5275 
L 3475 4900 
L 3250 4725 
Q 3750 4025 4450 3625 
Q 5150 3225 6125 3075 
L 6125 2975 
Q 5700 2950 5550 2625 
Q 4650 3050 4112 3500 
Q 3575 3950 3150 4650 
Q 2600 3900 1962 3362 
Q 1325 2825 275 2425 
L 225 2525 
Q 1250 2975 1962 3750 
Q 2675 4525 2975 5275 
z
" transform="scale(0.015625)"/>
       <path id="SimSun-4e2d" d="M 3325 3625 
L 3325 1975 
L 5125 1975 
L 5125 3625 
L 3325 3625 
z
M 2950 3775 
Q 2950 4750 2925 5250 
L 3525 4975 
L 3325 4775 
L 3325 3775 
L 5075 3775 
L 5275 4075 
L 5700 3750 
L 5475 3550 
L 5475 2100 
Q 5475 1825 5500 1525 
L 5125 1375 
L 5125 1825 
L 3325 1825 
Q 3325 -75 3350 -400 
L 2925 -625 
Q 2950 -50 2950 1825 
L 1225 1825 
L 1225 1525 
L 850 1325 
Q 875 1775 875 2625 
Q 875 3475 850 4000 
L 1225 3775 
L 2950 3775 
z
M 1225 3625 
L 1225 1975 
L 2950 1975 
L 2950 3625 
L 1225 3625 
z
" transform="scale(0.015625)"/>
       <path id="SimSun-7387" d="M 875 3725 
L 925 3800 
Q 1375 3650 1550 3525 
Q 1725 3400 1725 3250 
Q 1725 3175 1662 3025 
Q 1600 2875 1550 2875 
Q 1500 2875 1425 3050 
Q 1275 3325 875 3725 
z
M 550 1850 
Q 875 1925 2000 2575 
L 2050 2500 
Q 1675 2225 1337 1937 
Q 1000 1650 875 1425 
L 550 1850 
z
M 5200 3450 
Q 4800 3150 4275 2800 
L 4225 2875 
Q 4775 3400 5050 3925 
L 5450 3525 
L 5200 3450 
z
M 4325 2500 
L 4350 2575 
Q 5225 2350 5375 2212 
Q 5525 2075 5525 1900 
Q 5525 1775 5487 1662 
Q 5450 1550 5400 1550 
Q 5325 1550 5200 1800 
Q 4975 2150 4325 2500 
z
M 3150 3900 
Q 2500 3300 2300 3150 
Q 2800 3150 3400 3175 
Q 3700 3500 3850 3825 
L 4250 3450 
Q 4050 3400 3450 2825 
Q 2850 2250 2475 1950 
Q 3150 1975 3850 2000 
Q 3750 2175 3550 2450 
L 3600 2500 
Q 4050 2250 4200 2100 
Q 4350 1950 4350 1850 
Q 4350 1775 4250 1625 
Q 4150 1475 4100 1475 
Q 4075 1475 4050 1550 
Q 4000 1700 3900 1900 
Q 3650 1875 3075 1800 
L 3500 1550 
L 3325 1425 
L 3325 975 
L 5325 975 
L 5650 1300 
L 6100 825 
L 3325 825 
Q 3325 -275 3350 -525 
L 2975 -650 
Q 3000 0 3000 825 
L 1125 825 
Q 800 825 525 750 
L 300 975 
L 3000 975 
L 3000 1775 
Q 2450 1700 2200 1525 
L 1950 1950 
Q 2275 1950 2675 2350 
Q 3075 2750 3325 3050 
Q 2400 2950 2150 2775 
L 1950 3175 
Q 2150 3150 2475 3575 
Q 2800 4000 2900 4225 
L 1450 4225 
Q 1125 4225 850 4150 
L 625 4375 
L 3100 4375 
Q 3050 4800 2675 5200 
L 2725 5250 
Q 3225 5050 3337 4912 
Q 3450 4775 3450 4700 
Q 3450 4550 3250 4375 
L 5025 4375 
L 5350 4675 
L 5775 4225 
L 3050 4225 
L 3375 3950 
L 3150 3900 
z
" transform="scale(0.015625)"/>
       <path id="STIXGeneral-Regular-25" d="M 4390 1363 
Q 4390 781 4070 329 
Q 3750 -122 3341 -122 
Q 3014 -122 2790 134 
Q 2566 390 2566 762 
Q 2566 1274 2940 1693 
Q 3315 2112 3776 2112 
Q 4070 2112 4230 1917 
Q 4390 1722 4390 1363 
z
M 4243 1376 
Q 4243 1626 4131 1779 
Q 4019 1933 3840 1933 
Q 3654 1933 3526 1786 
Q 3315 1562 3171 1187 
Q 3027 813 3027 486 
Q 3027 301 3129 176 
Q 3232 51 3386 51 
Q 3718 51 3980 457 
Q 4243 864 4243 1376 
z
M 3974 4518 
L 1222 -115 
L 922 -115 
L 3443 4096 
Q 3264 3891 3094 3811 
Q 2925 3731 2669 3731 
Q 2445 3731 2182 3821 
Q 2208 3674 2208 3539 
Q 2208 3206 2067 2873 
Q 1926 2541 1696 2323 
Q 1453 2086 1146 2086 
Q 826 2086 608 2339 
Q 390 2592 390 2963 
Q 390 3507 761 3916 
Q 1133 4326 1626 4326 
Q 1792 4326 2010 4147 
Q 2310 3898 2624 3898 
Q 2918 3898 3084 3994 
Q 3251 4090 3693 4518 
L 3974 4518 
z
M 2054 3642 
Q 2054 3782 2025 3833 
Q 1997 3885 1894 3936 
Q 1747 4006 1613 4154 
Q 1414 4058 1331 3984 
Q 1248 3910 1152 3750 
Q 845 3264 845 2707 
Q 845 2509 944 2384 
Q 1043 2259 1210 2259 
Q 1549 2259 1801 2675 
Q 2054 3091 2054 3642 
z
" transform="scale(0.015625)"/>
      </defs>
      <use xlink:href="#SimSun-8bfb" transform="translate(0 0.578125)"/>
      <use xlink:href="#SimSun-53d6" transform="translate(100 0.578125)"/>
      <use xlink:href="#SimSun-547d" transform="translate(200 0.578125)"/>
      <use xlink:href="#SimSun-4e2d" transform="translate(300 0.578125)"/>
      <use xlink:href="#SimSun-7387" transform="translate(400 0.578125)"/>
      <use xlink:href="#SimSun-20" transform="translate(500 0.578125)"/>
      <use xlink:href="#STIXGeneral-Regular-28" transform="translate(550 0.578125)"/>
      <use xlink:href="#STIXGeneral-Regular-25" transform="translate(583.299988 0.578125)"/>
      <use xlink:href="#STIXGeneral-Regular-29" transform="translate(657.999969 0.578125)"/>
     </g>
    </g>
   </g>
   <g id="line2d_21">
    <path d="M 124.128 288.450435 
L 149.21568 218.582862 
L 158.76864 212.230503 
L 168.3216 213.640364 
L 178.1424 205.666584 
L 188.14176 197.288846 
L 198.2304 192.397042 
L 208.40832 192.986214 
L 218.58624 190.648287 
L 228.94272 191.519272 
L 239.38848 182.825393 
L 249.92352 183.961824 
L 260.36928 186.014745 
L 270.90432 184.657973 
L 281.52864 183.26807 
L 291.9744 184.688709 
L 302.50944 187.647342 
L 313.13376 183.679612 
L 323.6688 182.854133 
L 334.20384 182.259373 
L 344.6496 174.987729 
L 355.09536 181.878167 
L 365.45184 178.042562 
L 375.80832 178.163909 
L 386.1648 174.523497 
L 396.432 178.07729 
L 406.60992 174.897916 
L 417.50208 183.284037 
L 427.59072 182.143215 
L 437.76864 174.678773 
L 447.768 174.859596 
L 457.67808 178.780624 
L 467.58816 179.213322 
L 477.58752 178.545514 
L 487.40832 178.74869 
L 497.22912 175.490282 
L 507.04992 178.80138 
L 516.87072 178.954661 
L 526.51296 179.114328 
L 536.24448 179.076407 
L 545.976 178.866445 
L 555.61824 179.186977 
L 565.1712 178.669256 
L 574.81344 179.44444 
L 584.3664 179.274394 
L 593.83008 178.972224 
L 603.29376 178.731526 
L 612.84672 178.87842 
L 622.3104 178.976615 
L 631.77408 185.037981 
L 641.14848 189.913818 
L 650.52288 191.08817 
L 659.89728 189.050817 
L 669.27168 191.675347 
L 678.5568 192.432169 
L 687.75264 194.982454 
L 697.03776 195.245904 
L 706.2336 193.97655 
L 715.42944 196.657762 
L 724.62528 193.226513 
L 733.82112 195.822303 
L 743.01696 198.802092 
L 752.12352 200.922872 
L 761.23008 199.261135 
L 770.33664 202.536309 
L 779.4432 201.372734 
" clip-path="url(#pdaa1321b17)" style="fill: none; stroke: #d62728; stroke-width: 1.5; stroke-linecap: square"/>
   </g>
   <g id="line2d_22">
    <path d="M 124.128 259.377034 
L 143.41248 225.476893 
L 152.87616 211.995393 
L 162.5184 205.338468 
L 172.3392 210.850978 
L 182.33856 200.251072 
L 192.33792 197.365087 
L 202.60512 190.561668 
L 212.78304 188.180232 
L 223.13952 192.718373 
L 233.58528 187.127226 
L 244.03104 178.394628 
L 254.56608 183.664843 
L 265.10112 181.92487 
L 275.63616 184.164202 
L 286.1712 168.07374 
L 296.79552 174.552636 
L 307.33056 162.557239 
L 317.8656 176.647071 
L 328.40064 179.325887 
L 338.93568 169.747851 
L 349.38144 175.590074 
L 359.8272 182.361959 
L 370.18368 174.790141 
L 380.45088 171.464273 
L 390.80736 174.30595 
L 400.98528 175.376519 
L 411.25248 175.427612 
L 421.34112 175.258365 
L 431.42976 175.259163 
L 441.42912 179.197355 
L 451.42848 175.666714 
L 461.42784 175.523014 
L 471.4272 172.018718 
L 481.248 176.336917 
L 491.0688 175.917791 
L 500.8896 175.785666 
L 510.7104 176.087437 
L 520.44192 176.138531 
L 530.61984 176.546879 
L 540.35136 175.938947 
L 550.08288 172.264605 
L 560.2608 180.339375 
L 569.81376 172.384356 
L 579.456 175.811612 
L 589.00896 176.357275 
L 598.47264 172.132081 
L 608.0256 175.937749 
L 617.48928 176.062289 
L 626.95296 180.38967 
L 636.41664 188.328722 
L 645.79104 199.045185 
L 655.16544 198.005752 
L 664.53984 200.522107 
L 673.82496 201.370339 
L 683.11008 199.679064 
L 692.3952 200.619105 
L 701.68032 203.161007 
L 710.87616 205.365212 
L 720.072 203.82642 
L 729.26784 203.028882 
L 738.3744 204.566477 
L 747.57024 208.535804 
L 756.6768 210.143652 
L 765.78336 210.767951 
L 774.88992 211.333971 
L 783.9072 212.152266 
L 793.01376 212.297164 
" clip-path="url(#pdaa1321b17)" style="fill: none; stroke: #ff7f0e; stroke-width: 1.5; stroke-linecap: square"/>
   </g>
   <g id="line2d_23">
    <path d="M 124.128 263.100872 
L 142.8768 232.255165 
L 152.42976 215.209094 
L 162.072 212.811691 
L 171.8928 208.0097 
L 181.80288 210.813456 
L 191.89152 207.824087 
L 202.06944 201.631794 
L 212.24736 191.615471 
L 222.60384 194.018463 
L 232.96032 191.494923 
L 243.40608 193.009765 
L 253.94112 201.544376 
L 264.38688 182.863314 
L 275.0112 185.162122 
L 285.54624 187.419817 
L 296.17056 175.535388 
L 306.7056 185.542529 
L 317.24064 181.132122 
L 327.77568 169.413348 
L 338.31072 179.747808 
L 348.75648 182.731189 
L 359.20224 175.421226 
L 369.55872 179.456016 
L 379.9152 178.848881 
L 390.27168 178.740707 
L 400.53888 179.232083 
L 410.7168 182.516836 
L 420.89472 179.064033 
L 430.98336 179.078004 
L 441.072 182.772304 
L 451.16064 182.89405 
L 461.16 182.814216 
L 471.07008 179.29076 
L 480.98016 183.222964 
L 490.89024 186.514903 
L 500.71104 182.929975 
L 510.53184 186.811485 
L 520.35264 182.972287 
L 530.08416 183.519147 
L 539.81568 183.010208 
L 549.45792 183.092037 
L 559.10016 179.567384 
L 568.7424 182.807031 
L 578.38464 182.928777 
L 587.9376 182.896046 
L 597.49056 182.907222 
L 607.04352 182.935164 
L 616.5072 182.117668 
L 625.97088 183.005018 
L 635.43456 182.365951 
L 644.89824 183.350698 
L 654.27264 198.822849 
L 663.73632 194.773289 
L 673.02144 193.56421 
L 682.39584 196.734402 
L 691.68096 197.20063 
L 700.96608 198.570974 
L 710.2512 199.169726 
L 719.44704 202.325548 
L 728.64288 198.73104 
L 737.83872 198.742616 
L 747.03456 201.4849 
L 756.2304 203.824025 
L 765.33696 201.623412 
L 774.44352 209.38204 
L 783.55008 207.12235 
" clip-path="url(#pdaa1321b17)" style="fill: none; stroke: #e377c2; stroke-width: 1.5; stroke-linecap: square"/>
   </g>
   <g id="line2d_24">
    <path d="M 124.128 269.273606 
L 145.1088 226.537482 
L 154.66176 224.785135 
L 164.304 223.276679 
L 174.03552 214.478218 
L 184.03488 211.159934 
L 194.12352 204.383658 
L 204.30144 195.091826 
L 214.56864 205.837827 
L 224.92512 193.52549 
L 235.19232 194.910603 
L 245.63808 196.581521 
L 256.17312 188.141911 
L 266.70816 193.710704 
L 277.2432 184.990081 
L 287.86752 187.381097 
L 298.40256 189.796463 
L 309.02688 188.56024 
L 319.56192 181.001993 
L 330.09696 183.779404 
L 340.632 186.637846 
L 351.07776 186.871759 
L 361.52352 179.155442 
L 371.96928 185.812766 
L 383.04 189.955332 
L 393.3072 185.275885 
L 404.37792 182.629401 
L 414.55584 182.299289 
L 425.35872 186.23309 
L 435.53664 182.335614 
L 445.62528 185.749298 
L 455.71392 185.792409 
L 465.71328 182.489293 
L 475.62336 185.961257 
L 485.53344 182.650158 
L 495.44352 186.096175 
L 505.3536 186.537655 
L 515.08512 189.622825 
L 524.90592 186.039494 
L 534.63744 186.237481 
L 544.36896 182.720811 
L 554.0112 186.029115 
L 563.65344 186.183593 
L 573.29568 186.178803 
L 582.93792 190.211997 
L 592.49088 185.784425 
L 602.04384 186.421897 
L 611.5968 186.400342 
L 621.06048 186.150462 
L 630.52416 186.074221 
L 639.89856 185.409607 
L 649.36224 197.773037 
L 658.82592 199.277102 
L 668.20032 197.996571 
L 677.57472 200.278215 
L 686.85984 201.856126 
L 696.14496 199.583264 
L 705.43008 202.842071 
L 714.7152 203.439227 
L 723.91104 203.963734 
L 733.10688 204.209222 
L 742.30272 203.301115 
L 751.49856 206.53238 
L 760.60512 206.93514 
L 769.71168 213.555741 
L 778.81824 215.069785 
L 787.9248 214.591981 
" clip-path="url(#pdaa1321b17)" style="fill: none; stroke: #9467bd; stroke-width: 1.5; stroke-linecap: square"/>
   </g>
   <g id="line2d_25">
    <path d="M 124.128 337.080274 
L 149.30496 233.643471 
L 158.85792 226.793748 
L 168.41088 224.707696 
L 178.23168 216.878415 
L 188.14176 216.341135 
L 198.2304 203.469564 
L 208.31904 204.180083 
L 218.58624 204.884215 
L 228.85344 202.774612 
L 239.2992 200.974364 
L 249.74496 199.126217 
L 260.19072 190.324961 
L 270.63648 199.225609 
L 281.2608 200.865791 
L 291.79584 193.307145 
L 302.42016 188.712323 
L 312.9552 194.642762 
L 323.49024 187.017056 
L 334.02528 189.792471 
L 344.56032 185.823145 
L 355.00608 188.75184 
L 365.45184 195.481414 
L 375.80832 188.042519 
L 386.1648 187.875666 
L 396.52128 188.375425 
L 406.78848 180.808796 
L 417.05568 188.493978 
L 427.2336 184.636019 
L 437.41152 184.793291 
L 447.50016 188.014178 
L 457.49952 188.31036 
L 467.49888 188.39219 
L 477.49824 188.549462 
L 487.40832 192.385067 
L 497.3184 188.495974 
L 507.1392 185.64312 
L 517.04928 188.529504 
L 526.7808 188.506352 
L 536.6016 188.557845 
L 546.24384 192.458913 
L 555.97536 192.16792 
L 565.6176 188.981761 
L 575.25984 188.695158 
L 584.90208 188.932264 
L 594.45504 188.79495 
L 604.09728 188.538684 
L 613.56096 188.228531 
L 623.11392 188.542277 
L 632.5776 189.559756 
L 642.04128 188.487192 
L 651.50496 192.153949 
L 660.87936 201.657341 
L 670.25376 202.292816 
L 679.62816 202.647277 
L 689.00256 201.634987 
L 698.28768 202.894762 
L 707.5728 203.0684 
L 716.85792 202.920308 
L 726.14304 199.927746 
L 735.33888 215.109302 
L 744.53472 217.594922 
L 753.73056 215.516454 
L 762.9264 215.217477 
L 772.03296 216.175081 
L 781.13952 216.277667 
" clip-path="url(#pdaa1321b17)" style="fill: none; stroke: #1f77b4; stroke-width: 1.5; stroke-linecap: square"/>
   </g>
   <g id="line2d_26">
    <path d="M 124.128 288.252048 
L 148.14432 244.921963 
L 157.69728 225.138398 
L 167.25024 222.19653 
L 176.98176 214.512147 
L 186.89184 210.803477 
L 196.98048 204.093862 
L 207.06912 208.703854 
L 217.33632 209.097832 
L 227.60352 200.546456 
L 237.96 194.810013 
L 248.40576 189.58211 
L 258.85152 198.177394 
L 269.38656 199.862681 
L 279.9216 195.387609 
L 290.45664 190.412379 
L 301.08096 192.763079 
L 311.616 192.101259 
L 322.15104 187.925163 
L 332.68608 187.204665 
L 343.22112 193.151869 
L 353.75616 195.799151 
L 364.20192 192.279288 
L 374.64768 188.827682 
L 385.00416 184.65957 
L 395.36064 184.85117 
L 405.62784 191.800286 
L 415.89504 187.927558 
L 426.16224 188.11876 
L 436.34016 188.194602 
L 446.4288 187.80182 
L 456.42816 188.50236 
L 466.5168 192.195862 
L 476.51616 185.050355 
L 486.42624 188.487192 
L 496.33632 192.193467 
L 506.2464 188.763017 
L 516.0672 188.582194 
L 525.888 185.338954 
L 535.61952 189.329835 
L 545.35104 189.32784 
L 555.08256 185.28307 
L 564.81408 185.285864 
L 574.45632 185.635935 
L 584.09856 189.033254 
L 593.65152 189.448388 
L 603.20448 189.071973 
L 612.75744 188.721903 
L 622.3104 188.696755 
L 631.77408 188.881969 
L 641.32704 192.832934 
L 650.70144 191.162017 
L 660.16512 198.734633 
L 669.6288 199.428387 
L 679.0032 200.666207 
L 688.28832 200.039513 
L 697.57344 202.849256 
L 706.94784 203.353006 
L 716.14368 201.569125 
L 725.4288 202.678013 
L 734.62464 205.194368 
L 743.82048 205.941212 
L 753.01632 209.275462 
L 762.21216 215.125668 
L 771.31872 215.441011 
L 780.42528 214.842259 
L 789.53184 216.834107 
" clip-path="url(#pdaa1321b17)" style="fill: none; stroke: #17becf; stroke-width: 1.5; stroke-linecap: square"/>
   </g>
   <g id="line2d_27">
    <path d="M 124.128 281.212721 
L 147.7872 243.777947 
L 157.25088 228.194828 
L 166.80384 225.57908 
L 176.62464 227.964109 
L 186.53472 218.202854 
L 196.53408 215.619439 
L 206.712 215.791081 
L 216.9792 206.835747 
L 227.2464 211.142371 
L 237.60288 212.523891 
L 248.04864 214.40996 
L 258.4944 199.505426 
L 269.02944 194.281115 
L 279.56448 199.914573 
L 290.09952 191.517276 
L 300.72384 197.452904 
L 311.25888 200.158066 
L 321.8832 195.803143 
L 332.32896 201.896842 
L 342.864 204.44992 
L 353.39904 197.595407 
L 363.8448 197.067707 
L 374.29056 186.074221 
L 384.64704 196.565155 
L 395.00352 195.985962 
L 405.27072 192.797009 
L 415.53792 199.28748 
L 425.80512 195.966003 
L 435.98304 195.758037 
L 446.07168 193.154663 
L 456.16032 192.6573 
L 466.15968 196.086552 
L 476.15904 196.746776 
L 486.1584 196.298111 
L 496.06848 200.677383 
L 505.88928 199.626374 
L 515.79936 196.61545 
L 525.53088 199.964469 
L 535.35168 196.480531 
L 545.0832 192.644127 
L 554.81472 196.398702 
L 564.54624 196.602676 
L 574.18848 196.955541 
L 583.74144 196.462968 
L 593.38368 196.397504 
L 602.93664 196.498094 
L 612.57888 196.680514 
L 622.04256 196.483325 
L 631.59552 196.458577 
L 641.0592 193.047686 
L 650.52288 196.708057 
L 659.98656 199.860686 
L 669.45024 205.201953 
L 678.73536 205.577969 
L 688.19904 206.845327 
L 697.48416 208.380527 
L 706.76928 205.642634 
L 716.0544 208.50427 
L 725.25024 209.669441 
L 734.53536 215.253003 
L 743.7312 220.361954 
L 752.92704 219.908499 
L 762.0336 221.891566 
L 771.22944 220.907218 
L 780.336 221.044531 
L 789.44256 221.991358 
" clip-path="url(#pdaa1321b17)" style="fill: none; stroke: #2ca02c; stroke-width: 1.5; stroke-linecap: square"/>
   </g>
   <g id="patch_3">
    <path d="M 115.2 461.376 
L 115.2 62.208 
" style="fill: none; stroke: #000000; stroke-width: 0.8; stroke-linejoin: miter; stroke-linecap: square"/>
   </g>
   <g id="patch_4">
    <path d="M 829.44 461.376 
L 829.44 62.208 
" style="fill: none; stroke: #000000; stroke-width: 0.8; stroke-linejoin: miter; stroke-linecap: square"/>
   </g>
   <g id="patch_5">
    <path d="M 115.2 461.376 
L 829.44 461.376 
" style="fill: none; stroke: #000000; stroke-width: 0.8; stroke-linejoin: miter; stroke-linecap: square"/>
   </g>
   <g id="patch_6">
    <path d="M 115.2 62.208 
L 829.44 62.208 
" style="fill: none; stroke: #000000; stroke-width: 0.8; stroke-linejoin: miter; stroke-linecap: square"/>
   </g>
   <g id="text_23">
    <!-- $\mathrm{proto}$的读取命中率在不同$\mathrm{KV\ size}$情况下随时间的变化趋势 -->
    <g transform="translate(183.216 56.208) scale(0.228 -0.228)">
     <defs>
      <path id="STIXGeneral-Regular-70" d="M 1018 2931 
L 1018 2438 
Q 1421 2944 1939 2944 
Q 2406 2944 2707 2560 
Q 3008 2176 3008 1581 
Q 3008 883 2621 409 
Q 2234 -64 1664 -64 
Q 1466 -64 1328 -6 
Q 1190 51 1018 211 
L 1018 -794 
Q 1018 -1094 1120 -1180 
Q 1222 -1267 1581 -1274 
L 1581 -1389 
L 32 -1389 
L 32 -1280 
Q 314 -1254 397 -1171 
Q 480 -1088 480 -838 
L 480 2157 
Q 480 2381 429 2451 
Q 378 2522 218 2522 
Q 115 2522 58 2515 
L 58 2618 
Q 506 2752 979 2944 
L 1018 2931 
z
M 1018 2138 
L 1018 563 
Q 1018 422 1238 281 
Q 1459 141 1683 141 
Q 2029 141 2243 467 
Q 2458 794 2458 1325 
Q 2458 1888 2243 2224 
Q 2029 2560 1670 2560 
Q 1446 2560 1232 2419 
Q 1018 2278 1018 2138 
z
" transform="scale(0.015625)"/>
      <path id="STIXGeneral-Regular-72" d="M 1024 2931 
L 1024 2342 
Q 1267 2688 1430 2816 
Q 1594 2944 1792 2944 
Q 1958 2944 2051 2854 
Q 2144 2765 2144 2605 
Q 2144 2470 2077 2393 
Q 2010 2317 1894 2317 
Q 1773 2317 1638 2445 
Q 1536 2541 1472 2541 
Q 1338 2541 1181 2355 
Q 1024 2170 1024 2016 
L 1024 576 
Q 1024 301 1133 205 
Q 1242 109 1568 96 
L 1568 0 
L 32 0 
L 32 96 
Q 339 154 412 224 
Q 486 294 486 538 
L 486 2138 
Q 486 2349 438 2435 
Q 390 2522 269 2522 
Q 166 2522 45 2496 
L 45 2598 
Q 448 2726 992 2944 
L 1024 2931 
z
" transform="scale(0.015625)"/>
      <path id="STIXGeneral-Regular-6f" d="M 3008 1478 
Q 3008 806 2608 371 
Q 2208 -64 1568 -64 
Q 979 -64 582 368 
Q 186 800 186 1459 
Q 186 2125 582 2534 
Q 979 2944 1626 2944 
Q 2221 2944 2614 2537 
Q 3008 2131 3008 1478 
z
M 2432 1306 
Q 2432 2035 2112 2445 
Q 1856 2765 1504 2765 
Q 1171 2765 966 2493 
Q 762 2221 762 1747 
Q 762 928 1101 435 
Q 1318 115 1677 115 
Q 2029 115 2230 432 
Q 2432 749 2432 1306 
z
" transform="scale(0.015625)"/>
      <path id="STIXGeneral-Regular-74" d="M 1702 493 
L 1786 422 
Q 1478 -64 1011 -64 
Q 448 -64 448 749 
L 448 2675 
L 109 2675 
Q 83 2694 83 2720 
Q 83 2771 192 2842 
Q 435 2982 813 3526 
Q 826 3546 874 3606 
Q 922 3667 941 3706 
Q 986 3706 986 3622 
L 986 2880 
L 1632 2880 
L 1632 2675 
L 986 2675 
L 986 845 
Q 986 538 1062 403 
Q 1139 269 1318 269 
Q 1510 269 1702 493 
z
" transform="scale(0.015625)"/>
      <path id="SimSun-7684" d="M 1125 3775 
L 1125 2175 
L 2425 2175 
L 2425 3775 
L 1125 3775 
z
M 1125 2025 
L 1125 275 
L 2425 275 
L 2425 2025 
L 1125 2025 
z
M 2750 3625 
Q 2750 700 2775 -200 
L 2425 -400 
L 2425 125 
L 1125 125 
L 1125 -300 
L 775 -500 
Q 800 675 800 1837 
Q 800 3000 775 4150 
L 1150 3925 
L 1400 3925 
Q 1650 4775 1675 5225 
L 2225 4925 
Q 1975 4800 1550 3925 
L 2375 3925 
L 2625 4175 
L 3000 3800 
L 2750 3625 
z
M 3975 5200 
L 4525 4875 
Q 4325 4750 3900 3850 
L 5250 3850 
L 5525 4125 
L 5900 3750 
L 5675 3575 
Q 5625 650 5537 262 
Q 5450 -125 5287 -275 
Q 5125 -425 4775 -550 
Q 4650 -150 3950 50 
L 3950 175 
Q 4575 50 4850 50 
Q 5125 50 5187 475 
Q 5250 900 5300 3700 
L 3850 3700 
Q 3400 2975 2900 2475 
L 2825 2525 
Q 3350 3325 3600 3950 
Q 3850 4575 3975 5200 
z
M 3525 2750 
Q 4125 2300 4225 2087 
Q 4325 1875 4325 1775 
Q 4325 1600 4225 1475 
Q 4125 1350 4075 1350 
Q 3975 1350 3925 1700 
Q 3825 2200 3475 2675 
L 3525 2750 
z
" transform="scale(0.015625)"/>
      <path id="SimSun-5728" d="M 1325 2400 
Q 1325 2475 1300 2775 
L 1550 2675 
Q 1975 3200 2375 3975 
L 1275 3975 
Q 950 3975 675 3900 
L 450 4125 
L 2425 4125 
Q 2700 4800 2775 5250 
L 3350 4950 
L 3100 4800 
Q 3025 4575 2800 4125 
L 5000 4125 
L 5375 4500 
L 5900 3975 
L 2750 3975 
Q 2225 2950 1700 2400 
L 1700 -375 
L 1325 -575 
Q 1350 -175 1350 150 
L 1350 2050 
Q 775 1525 275 1225 
L 225 1300 
Q 975 1950 1325 2400 
z
M 3600 3150 
Q 3600 3325 3575 3775 
L 4150 3525 
L 3950 3350 
L 3950 2325 
L 4900 2325 
L 5225 2650 
L 5700 2175 
L 3950 2175 
L 3950 175 
L 5200 175 
L 5550 525 
L 6050 25 
L 2650 25 
Q 2325 25 2050 -50 
L 1825 175 
L 3600 175 
L 3600 2175 
L 2975 2175 
Q 2650 2175 2375 2100 
L 2150 2325 
L 3600 2325 
L 3600 3150 
z
" transform="scale(0.015625)"/>
      <path id="SimSun-4e0d" d="M 3375 3175 
L 3375 775 
Q 3375 25 3400 -375 
L 2975 -550 
Q 3000 400 3000 1100 
L 3000 3300 
Q 2000 1775 400 850 
L 350 950 
Q 1175 1550 1937 2462 
Q 2700 3375 3175 4600 
L 1225 4600 
Q 900 4600 625 4525 
L 400 4750 
L 5150 4750 
L 5525 5125 
L 6050 4600 
L 3675 4600 
Q 3450 4175 3175 3600 
L 3600 3350 
L 3375 3175 
z
M 3900 3100 
L 3975 3175 
Q 5575 2125 5737 1875 
Q 5900 1625 5900 1475 
Q 5900 1375 5825 1237 
Q 5750 1100 5700 1100 
Q 5600 1100 5400 1500 
Q 5100 2025 3900 3100 
z
" transform="scale(0.015625)"/>
      <path id="SimSun-540c" d="M 1650 3725 
L 4075 3725 
L 4400 4050 
L 4875 3575 
L 2375 3575 
Q 2100 3575 1875 3500 
L 1650 3725 
z
M 2475 2600 
L 2475 1400 
L 4000 1400 
L 4000 2600 
L 2475 2600 
z
M 2125 2950 
L 2475 2750 
L 3975 2750 
L 4150 3000 
L 4525 2700 
L 4325 2525 
L 4325 1600 
Q 4325 1275 4350 950 
L 4000 825 
L 4000 1250 
L 2475 1250 
L 2475 875 
L 2125 750 
Q 2150 1175 2150 1787 
Q 2150 2400 2125 2950 
z
M 4175 125 
Q 4700 50 4987 37 
Q 5275 25 5275 400 
L 5275 4650 
L 1275 4650 
L 1275 -425 
L 875 -575 
Q 925 250 925 750 
L 925 3900 
Q 925 4450 900 5050 
L 1275 4800 
L 5250 4800 
L 5425 5050 
L 5825 4725 
L 5625 4575 
L 5625 250 
Q 5650 -350 5025 -575 
Q 5025 -250 4175 0 
L 4175 125 
z
" transform="scale(0.015625)"/>
      <path id="STIXGeneral-Regular-4b" d="M 4627 0 
L 2688 0 
L 2688 122 
L 2861 128 
Q 3130 134 3130 282 
Q 3130 397 2922 643 
Q 2714 890 2253 1370 
L 1613 2029 
L 1446 1894 
L 1446 710 
Q 1446 352 1548 253 
Q 1651 154 2016 122 
L 2016 0 
L 211 0 
L 211 122 
Q 589 141 691 262 
Q 794 384 794 800 
L 794 3514 
Q 794 3872 691 3981 
Q 589 4090 218 4115 
L 218 4237 
L 2022 4237 
L 2022 4115 
Q 1632 4090 1539 3987 
Q 1446 3885 1446 3507 
L 1446 2227 
L 2586 3277 
Q 2861 3533 2973 3667 
Q 3085 3802 3085 3910 
Q 3085 4013 3030 4057 
Q 2976 4102 2822 4109 
L 2662 4115 
L 2662 4237 
L 4320 4237 
L 4320 4115 
Q 3994 4090 3824 4003 
Q 3654 3917 3322 3597 
L 2131 2458 
L 3629 819 
Q 4026 384 4214 253 
Q 4403 122 4627 122 
L 4627 0 
z
" transform="scale(0.015625)"/>
      <path id="STIXGeneral-Regular-56" d="M 4461 4237 
L 4461 4115 
Q 4262 4109 4134 3990 
Q 4006 3872 3872 3533 
L 2451 -70 
L 2355 -70 
L 794 3411 
Q 589 3866 467 3987 
Q 346 4109 102 4115 
L 102 4237 
L 1798 4237 
L 1798 4115 
L 1619 4102 
Q 1331 4083 1331 3904 
Q 1331 3776 1581 3219 
L 2554 1030 
L 3494 3392 
Q 3616 3699 3616 3853 
Q 3616 3898 3606 3933 
Q 3597 3968 3584 3993 
Q 3571 4019 3536 4038 
Q 3501 4058 3481 4067 
Q 3462 4077 3411 4086 
Q 3360 4096 3337 4099 
Q 3315 4102 3248 4108 
Q 3181 4115 3155 4115 
L 3155 4237 
L 4461 4237 
z
" transform="scale(0.015625)"/>
      <path id="STIXGeneral-Regular-69" d="M 1152 4045 
Q 1152 3904 1056 3811 
Q 960 3718 819 3718 
Q 685 3718 592 3811 
Q 499 3904 499 4045 
Q 499 4179 595 4275 
Q 691 4371 826 4371 
Q 966 4371 1059 4275 
Q 1152 4179 1152 4045 
z
M 1619 0 
L 102 0 
L 102 96 
Q 435 115 521 211 
Q 608 307 608 666 
L 608 2118 
Q 608 2342 563 2432 
Q 518 2522 397 2522 
Q 243 2522 128 2490 
L 128 2592 
L 1120 2944 
L 1146 2918 
L 1146 672 
Q 1146 314 1226 218 
Q 1306 122 1619 96 
L 1619 0 
z
" transform="scale(0.015625)"/>
      <path id="STIXGeneral-Regular-7a" d="M 2675 870 
L 2579 0 
L 173 0 
L 173 96 
L 1875 2688 
L 1011 2688 
Q 710 2688 604 2582 
Q 499 2477 454 2125 
L 339 2125 
L 365 2880 
L 2579 2880 
L 2579 2784 
L 858 192 
L 1709 192 
Q 2246 192 2387 365 
Q 2477 474 2560 896 
L 2675 870 
z
" transform="scale(0.015625)"/>
      <path id="STIXGeneral-Regular-65" d="M 2611 1050 
L 2714 1005 
Q 2330 -64 1376 -64 
Q 813 -64 486 329 
Q 160 723 160 1389 
Q 160 2074 525 2509 
Q 890 2944 1485 2944 
Q 2061 2944 2374 2502 
Q 2560 2246 2592 1773 
L 621 1773 
Q 646 1370 700 1158 
Q 755 947 915 730 
Q 1184 378 1626 378 
Q 1939 378 2153 531 
Q 2368 685 2611 1050 
z
M 634 1978 
L 1939 1978 
Q 1882 2381 1750 2547 
Q 1619 2714 1312 2714 
Q 1043 2714 864 2525 
Q 685 2336 634 1978 
z
" transform="scale(0.015625)"/>
      <path id="SimSun-60c5" d="M 1175 4225 
Q 1175 4725 1150 5225 
L 1750 4950 
L 1525 4775 
L 1525 4100 
Q 2050 3900 2150 3762 
Q 2250 3625 2237 3500 
Q 2225 3375 2162 3300 
Q 2100 3225 2050 3225 
Q 1975 3225 1900 3425 
Q 1775 3700 1525 3975 
L 1525 400 
Q 1525 0 1550 -450 
L 1150 -625 
Q 1175 25 1175 550 
L 1175 4225 
z
M 800 3825 
Q 875 3100 825 2887 
Q 775 2675 687 2625 
Q 600 2575 500 2575 
Q 400 2575 337 2612 
Q 275 2650 275 2675 
Q 275 2775 400 2925 
Q 600 3175 700 3825 
L 800 3825 
z
M 4325 4950 
L 4100 4800 
L 4100 4350 
L 5075 4350 
L 5375 4650 
L 5825 4200 
L 4100 4200 
L 4100 3600 
L 4850 3600 
L 5125 3875 
L 5550 3450 
L 4100 3450 
L 4100 2825 
L 5350 2825 
L 5650 3125 
L 6100 2675 
L 2750 2675 
Q 2425 2675 2150 2600 
L 1925 2825 
L 3750 2825 
L 3750 3450 
L 3375 3450 
Q 3050 3450 2775 3375 
L 2550 3600 
L 3750 3600 
L 3750 4200 
L 3025 4200 
Q 2700 4200 2425 4125 
L 2200 4350 
L 3750 4350 
Q 3750 4775 3725 5250 
L 4325 4950 
z
M 2975 2050 
L 2975 1550 
L 4925 1550 
L 4925 2050 
L 2975 2050 
z
M 2975 1400 
L 2975 825 
L 4925 825 
L 4925 1400 
L 2975 1400 
z
M 2625 2425 
L 2975 2200 
L 4875 2200 
L 5050 2450 
L 5450 2150 
L 5275 2000 
L 5275 50 
Q 5300 -475 4750 -625 
Q 4775 -375 4125 -175 
L 4125 -50 
Q 4500 -125 4725 -112 
Q 4950 -100 4925 175 
L 4925 675 
L 2975 675 
L 2975 -450 
L 2625 -625 
Q 2650 100 2650 1000 
Q 2650 1900 2625 2425 
z
" transform="scale(0.015625)"/>
      <path id="SimSun-51b5" d="M 600 4800 
Q 1425 4325 1412 4062 
Q 1400 3800 1300 3712 
Q 1200 3625 1150 3625 
Q 1050 3625 1000 3875 
Q 900 4225 550 4725 
L 600 4800 
z
M 325 1850 
Q 575 1800 675 1787 
Q 775 1775 925 1825 
Q 1075 1875 2025 4250 
L 2125 4200 
Q 1375 2075 1287 1762 
Q 1200 1450 1175 1087 
Q 1150 725 1150 375 
Q 1125 25 962 75 
Q 800 125 712 225 
Q 625 325 625 450 
Q 625 600 675 700 
Q 775 950 800 1250 
Q 825 1550 300 1750 
L 325 1850 
z
M 2725 4500 
L 2725 2700 
L 4850 2700 
L 4850 4500 
L 2725 4500 
z
M 5175 3075 
Q 5175 2750 5200 2375 
L 4850 2225 
L 4850 2550 
L 4350 2550 
L 4350 400 
Q 4300 -50 4650 -75 
L 5375 -75 
Q 5575 -25 5600 275 
Q 5625 575 5650 1125 
L 5775 1125 
Q 5775 675 5825 362 
Q 5875 50 6125 0 
Q 5975 -375 5475 -375 
L 4500 -375 
Q 4000 -375 4025 225 
L 4025 2550 
L 3525 2550 
Q 3475 800 2862 237 
Q 2250 -325 1225 -625 
L 1200 -525 
Q 2050 -175 2587 362 
Q 3125 900 3175 2550 
L 2725 2550 
L 2725 2275 
L 2375 2125 
Q 2400 2700 2400 3000 
L 2400 4000 
Q 2400 4325 2375 4850 
L 2725 4650 
L 4825 4650 
L 5025 4875 
L 5375 4550 
L 5175 4400 
L 5175 3075 
z
" transform="scale(0.015625)"/>
      <path id="SimSun-4e0b" d="M 450 4575 
L 5075 4575 
L 5450 4950 
L 5975 4425 
L 3250 4425 
L 3250 3125 
Q 4750 2675 4987 2412 
Q 5225 2150 5225 1950 
Q 5225 1875 5162 1737 
Q 5100 1600 5050 1600 
Q 4950 1600 4700 1925 
Q 4350 2400 3250 3000 
L 3250 450 
Q 3250 -75 3275 -425 
L 2850 -600 
Q 2875 325 2875 675 
L 2875 4425 
L 1275 4425 
Q 950 4425 675 4350 
L 450 4575 
z
" transform="scale(0.015625)"/>
      <path id="SimSun-968f" d="M 2175 4225 
L 2250 4275 
Q 2800 3825 2850 3625 
Q 2900 3425 2775 3300 
Q 2650 3175 2600 3175 
Q 2500 3175 2475 3425 
Q 2425 3800 2175 4225 
z
M 6050 0 
L 6050 -100 
Q 5650 -175 5625 -475 
Q 4975 -450 4487 -425 
Q 4000 -400 3650 -262 
Q 3300 -125 3050 150 
Q 2875 300 2750 300 
Q 2650 300 2487 162 
Q 2325 25 2125 -375 
L 1750 -100 
Q 2100 175 2575 450 
L 2575 2300 
Q 2525 2300 2250 2225 
L 2025 2450 
L 2550 2450 
L 2700 2650 
L 3075 2375 
L 2875 2225 
L 2875 475 
Q 3325 75 3762 0 
Q 4200 -75 4725 -62 
Q 5250 -50 6050 0 
z
M 600 4900 
L 950 4675 
L 1700 4675 
L 1900 4900 
L 2300 4625 
L 2075 4450 
L 1475 3000 
Q 1650 2775 1900 2475 
Q 2125 2175 2162 1975 
Q 2200 1775 2200 1650 
Q 2200 1400 2075 1150 
Q 1950 900 1400 800 
Q 1400 1075 950 1250 
L 950 -475 
L 600 -650 
Q 625 0 625 2175 
Q 625 4350 600 4900 
z
M 1300 3000 
L 1725 4525 
L 950 4525 
L 950 1350 
Q 1275 1275 1425 1275 
Q 1600 1275 1725 1350 
Q 1850 1425 1850 1675 
Q 1850 1825 1812 2100 
Q 1775 2375 1300 3000 
z
M 3900 3250 
L 3900 2600 
L 5150 2600 
L 5150 3250 
L 3900 3250 
z
M 3575 250 
Q 3600 725 3600 3200 
Q 3350 2875 3000 2625 
L 2950 2675 
Q 3525 3325 3850 4175 
L 3600 4175 
Q 3275 4175 3000 4100 
L 2775 4325 
L 3900 4325 
Q 4100 4925 4100 5150 
L 4600 4900 
Q 4425 4800 4225 4325 
L 5325 4325 
L 5625 4625 
L 6025 4175 
L 4175 4175 
Q 4025 3825 3825 3475 
L 3925 3400 
L 5100 3400 
L 5250 3625 
L 5650 3350 
L 5475 3200 
L 5475 875 
Q 5525 425 5025 275 
Q 5025 550 4525 650 
L 4525 750 
Q 4950 725 5050 725 
Q 5150 725 5150 900 
L 5150 1650 
L 3900 1650 
L 3900 400 
L 3575 250 
z
M 3900 2450 
L 3900 1800 
L 5150 1800 
L 5150 2450 
L 3900 2450 
z
" transform="scale(0.015625)"/>
      <path id="SimSun-53d8" d="M 2750 4225 
L 2750 2225 
L 3650 2225 
L 3650 4225 
L 2750 4225 
z
M 375 4375 
L 3100 4375 
Q 3050 4750 2650 5200 
L 2700 5275 
Q 3150 5075 3325 4925 
Q 3500 4775 3500 4700 
Q 3500 4550 3300 4375 
L 5125 4375 
L 5525 4775 
L 6075 4225 
L 4000 4225 
L 4000 2225 
L 4425 2225 
L 4675 2500 
L 5100 2100 
L 4825 1975 
Q 4300 1325 3525 650 
Q 4500 -50 6125 -175 
L 6125 -275 
Q 5750 -325 5625 -575 
Q 4175 -250 3300 450 
Q 2150 -300 350 -600 
L 325 -500 
Q 2050 -100 3075 675 
Q 2525 1250 2100 2075 
L 1650 2075 
L 1375 2025 
L 1175 2225 
L 2400 2225 
L 2400 4225 
L 1200 4225 
Q 875 4225 600 4150 
L 375 4375 
z
M 2275 2075 
Q 2725 1350 3300 850 
Q 3800 1300 4425 2075 
L 2275 2075 
z
M 1675 3850 
L 2125 3450 
L 1875 3350 
Q 1150 2575 325 1950 
L 250 2025 
Q 700 2425 1087 2937 
Q 1475 3450 1675 3850 
z
M 4350 3700 
Q 5675 3050 5812 2875 
Q 5950 2700 5950 2575 
Q 5950 2475 5900 2375 
Q 5850 2275 5800 2275 
Q 5700 2275 5500 2550 
Q 5200 2950 4275 3625 
L 4350 3700 
z
" transform="scale(0.015625)"/>
      <path id="SimSun-5316" d="M 1375 -600 
Q 1400 200 1400 925 
L 1400 3125 
Q 850 2300 350 1775 
L 275 1850 
Q 825 2625 1300 3650 
Q 1775 4675 1900 5200 
L 2450 4875 
L 2200 4725 
Q 1875 4000 1600 3475 
L 1950 3275 
L 1750 3075 
L 1750 350 
Q 1750 75 1775 -400 
L 1375 -600 
z
M 3450 2125 
L 3450 3925 
Q 3450 4475 3425 5200 
L 4000 4925 
L 3800 4725 
L 3800 2400 
Q 4150 2725 4562 3225 
Q 4975 3725 5150 4025 
L 5600 3600 
L 5325 3525 
Q 4600 2700 3800 2000 
L 3800 425 
Q 3800 0 4225 0 
L 5300 0 
Q 5500 0 5550 325 
Q 5600 650 5600 1325 
L 5725 1325 
Q 5775 650 5850 425 
Q 5925 200 6125 125 
Q 5900 -325 5400 -325 
L 4075 -325 
Q 3450 -325 3450 250 
L 3450 1775 
Q 2800 1275 1950 925 
L 1925 1025 
Q 2800 1525 3450 2125 
z
" transform="scale(0.015625)"/>
      <path id="SimSun-8d8b" d="M 3900 5225 
L 4425 4900 
L 4225 4825 
Q 4000 4475 3800 4150 
L 4750 4150 
L 4975 4425 
L 5400 4025 
Q 5100 4000 4475 3075 
L 5350 3075 
L 5500 3325 
L 5900 3050 
L 5725 2875 
Q 5725 1050 5750 525 
L 5400 375 
L 5400 800 
L 3725 800 
Q 3525 800 3250 725 
L 3025 950 
L 5400 950 
L 5400 1900 
L 4050 1900 
Q 3850 1900 3575 1825 
L 3350 2050 
L 5400 2050 
L 5400 2925 
L 3900 2925 
Q 3700 2925 3425 2850 
L 3200 3075 
L 4350 3075 
L 4775 4000 
L 3725 4000 
Q 3450 3625 3000 3200 
L 2950 3250 
Q 3650 4250 3900 5225 
z
M 300 -550 
L 225 -500 
Q 675 275 787 1112 
Q 900 1950 850 2425 
L 1400 2150 
Q 1250 2075 1212 1812 
Q 1175 1550 1125 1075 
Q 1500 750 1725 625 
L 1725 2825 
L 950 2825 
Q 750 2825 475 2750 
L 250 2975 
L 1600 2975 
L 1600 4025 
L 1225 4025 
Q 1025 4025 750 3950 
L 525 4175 
L 1600 4175 
Q 1600 4675 1575 5225 
L 2125 4975 
L 1925 4800 
L 1925 4175 
L 2400 4175 
L 2700 4475 
L 3100 4025 
L 1925 4025 
L 1925 2975 
L 2475 2975 
L 2800 3275 
L 3200 2825 
L 1750 2825 
L 2250 2600 
L 2050 2400 
L 2050 1800 
L 2625 1800 
L 2925 2100 
L 3300 1650 
L 2050 1650 
L 2050 425 
Q 2925 25 3737 0 
Q 4550 -25 4925 -25 
Q 5625 -25 6150 25 
L 6150 -50 
Q 5700 -250 5700 -475 
Q 4950 -500 4012 -412 
Q 3075 -325 2325 -12 
Q 1575 300 1100 900 
Q 775 -25 300 -550 
z
" transform="scale(0.015625)"/>
      <path id="SimSun-52bf" d="M 1650 4175 
Q 1650 4775 1625 5200 
L 2150 4950 
L 1975 4800 
L 1975 4175 
L 2200 4175 
L 2475 4450 
L 2900 4025 
L 1975 4025 
L 1975 3425 
Q 2400 3525 2800 3625 
L 2825 3525 
Q 2400 3375 1975 3225 
L 1975 2150 
Q 2000 1800 1475 1575 
Q 1450 1850 800 2025 
L 800 2150 
Q 1225 2100 1437 2087 
Q 1650 2075 1650 2325 
L 1650 3100 
Q 700 2750 700 2650 
L 400 3100 
Q 575 3100 1650 3350 
L 1650 4025 
L 1300 4025 
Q 975 4025 700 3950 
L 475 4175 
L 1650 4175 
z
M 3650 4175 
L 3650 4525 
Q 3650 4875 3625 5225 
L 4175 4975 
L 3975 4800 
L 3975 4200 
L 4700 4250 
L 4850 4475 
L 5200 4200 
L 5025 4050 
Q 5000 3900 5000 3575 
Q 5000 3225 5050 2812 
Q 5100 2400 5425 2175 
Q 5600 2650 5700 3050 
L 5800 3025 
Q 5725 2525 5725 2250 
Q 5725 1975 5825 1775 
Q 5900 1650 5775 1650 
Q 5725 1650 5475 1750 
Q 5225 1850 5012 2137 
Q 4800 2425 4737 2750 
Q 4675 3075 4675 3475 
Q 4675 3850 4700 4100 
L 3975 4050 
Q 3925 3450 3750 3050 
Q 4100 2900 4262 2787 
Q 4425 2675 4387 2475 
Q 4350 2275 4275 2275 
Q 4225 2275 4125 2400 
Q 3925 2625 3625 2825 
Q 3225 2225 2100 1800 
L 2050 1875 
Q 3075 2400 3375 2975 
Q 3225 3100 2850 3300 
L 2900 3375 
Q 3225 3275 3475 3175 
Q 3600 3500 3650 4025 
L 3300 4000 
L 3125 3925 
L 2875 4125 
L 3650 4175 
z
M 2600 1425 
Q 2675 1700 2700 2025 
L 3175 1775 
L 3000 1650 
L 2950 1425 
L 4725 1425 
L 4875 1675 
L 5325 1375 
L 5125 1225 
Q 5050 400 4987 112 
Q 4925 -175 4750 -350 
Q 4575 -525 4225 -600 
Q 4250 -350 3650 -50 
L 3675 50 
Q 4225 -100 4412 -87 
Q 4600 -75 4675 312 
Q 4750 700 4775 1275 
L 2925 1275 
Q 2800 775 2575 450 
Q 2350 125 1875 -162 
Q 1400 -450 450 -650 
L 400 -550 
Q 1500 -225 1950 200 
Q 2400 625 2575 1275 
L 1450 1275 
Q 1125 1275 850 1200 
L 625 1425 
L 2600 1425 
z
" transform="scale(0.015625)"/>
     </defs>
     <use xlink:href="#STIXGeneral-Regular-70" transform="translate(0 0.578125)"/>
     <use xlink:href="#STIXGeneral-Regular-72" transform="translate(49.999985 0.578125)"/>
     <use xlink:href="#STIXGeneral-Regular-6f" transform="translate(83.299973 0.578125)"/>
     <use xlink:href="#STIXGeneral-Regular-74" transform="translate(133.299957 0.578125)"/>
     <use xlink:href="#STIXGeneral-Regular-6f" transform="translate(161.099945 0.578125)"/>
     <use xlink:href="#SimSun-7684" transform="translate(211.09993 0.578125)"/>
     <use xlink:href="#SimSun-8bfb" transform="translate(311.09993 0.578125)"/>
     <use xlink:href="#SimSun-53d6" transform="translate(411.09993 0.578125)"/>
     <use xlink:href="#SimSun-547d" transform="translate(511.09993 0.578125)"/>
     <use xlink:href="#SimSun-4e2d" transform="translate(611.09993 0.578125)"/>
     <use xlink:href="#SimSun-7387" transform="translate(711.09993 0.578125)"/>
     <use xlink:href="#SimSun-5728" transform="translate(811.09993 0.578125)"/>
     <use xlink:href="#SimSun-4e0d" transform="translate(911.09993 0.578125)"/>
     <use xlink:href="#SimSun-540c" transform="translate(1011.09993 0.578125)"/>
     <use xlink:href="#STIXGeneral-Regular-4b" transform="translate(1111.09993 0.578125)"/>
     <use xlink:href="#STIXGeneral-Regular-56" transform="translate(1183.299911 0.578125)"/>
     <use xlink:href="#STIXGeneral-Regular-73" transform="translate(1279.566313 0.578125)"/>
     <use xlink:href="#STIXGeneral-Regular-69" transform="translate(1318.466307 0.578125)"/>
     <use xlink:href="#STIXGeneral-Regular-7a" transform="translate(1346.266295 0.578125)"/>
     <use xlink:href="#STIXGeneral-Regular-65" transform="translate(1390.666289 0.578125)"/>
     <use xlink:href="#SimSun-60c5" transform="translate(1435.066283 0.578125)"/>
     <use xlink:href="#SimSun-51b5" transform="translate(1535.066283 0.578125)"/>
     <use xlink:href="#SimSun-4e0b" transform="translate(1635.066283 0.578125)"/>
     <use xlink:href="#SimSun-968f" transform="translate(1735.066283 0.578125)"/>
     <use xlink:href="#SimSun-65f6" transform="translate(1835.066283 0.578125)"/>
     <use xlink:href="#SimSun-95f4" transform="translate(1935.066283 0.578125)"/>
     <use xlink:href="#SimSun-7684" transform="translate(2035.066283 0.578125)"/>
     <use xlink:href="#SimSun-53d8" transform="translate(2135.066283 0.578125)"/>
     <use xlink:href="#SimSun-5316" transform="translate(2235.066283 0.578125)"/>
     <use xlink:href="#SimSun-8d8b" transform="translate(2335.066283 0.578125)"/>
     <use xlink:href="#SimSun-52bf" transform="translate(2435.066283 0.578125)"/>
    </g>
   </g>
   <g id="legend_1">
    <g id="patch_7">
     <path d="M 247.812734 451.876 
L 696.827266 451.876 
Q 700.627266 451.876 700.627266 448.076 
L 700.627266 369.276469 
Q 700.627266 365.476469 696.827266 365.476469 
L 247.812734 365.476469 
Q 244.012734 365.476469 244.012734 369.276469 
L 244.012734 448.076 
Q 244.012734 451.876 247.812734 451.876 
z
" style="fill: #ffffff; opacity: 0.8; stroke: #cccccc; stroke-linejoin: miter"/>
    </g>
    <g id="line2d_28">
     <path d="M 251.612734 379.726469 
L 270.612734 379.726469 
L 289.612734 379.726469 
" style="fill: none; stroke: #d62728; stroke-width: 1.5; stroke-linecap: square"/>
    </g>
    <g id="text_24">
     <!-- proto_8 -->
     <g transform="translate(304.812734 386.376469) scale(0.19 -0.19)">
      <defs>
       <path id="TimesNewRomanPSMT-70" d="M -6 2578 
L 875 2934 
L 994 2934 
L 994 2266 
Q 1216 2644 1439 2795 
Q 1663 2947 1909 2947 
Q 2341 2947 2628 2609 
Q 2981 2197 2981 1534 
Q 2981 794 2556 309 
Q 2206 -88 1675 -88 
Q 1444 -88 1275 -22 
Q 1150 25 994 166 
L 994 -706 
Q 994 -1000 1030 -1079 
Q 1066 -1159 1155 -1206 
Q 1244 -1253 1478 -1253 
L 1478 -1369 
L -22 -1369 
L -22 -1253 
L 56 -1253 
Q 228 -1256 350 -1188 
Q 409 -1153 442 -1076 
Q 475 -1000 475 -688 
L 475 2019 
Q 475 2297 450 2372 
Q 425 2447 370 2484 
Q 316 2522 222 2522 
Q 147 2522 31 2478 
L -6 2578 
z
M 994 2081 
L 994 1013 
Q 994 666 1022 556 
Q 1066 375 1236 237 
Q 1406 100 1666 100 
Q 1978 100 2172 344 
Q 2425 663 2425 1241 
Q 2425 1897 2138 2250 
Q 1938 2494 1663 2494 
Q 1513 2494 1366 2419 
Q 1253 2363 994 2081 
z
" transform="scale(0.015625)"/>
       <path id="TimesNewRomanPSMT-72" d="M 1038 2947 
L 1038 2303 
Q 1397 2947 1775 2947 
Q 1947 2947 2059 2842 
Q 2172 2738 2172 2600 
Q 2172 2478 2090 2393 
Q 2009 2309 1897 2309 
Q 1788 2309 1652 2417 
Q 1516 2525 1450 2525 
Q 1394 2525 1328 2463 
Q 1188 2334 1038 2041 
L 1038 669 
Q 1038 431 1097 309 
Q 1138 225 1241 169 
Q 1344 113 1538 113 
L 1538 0 
L 72 0 
L 72 113 
Q 291 113 397 181 
Q 475 231 506 341 
Q 522 394 522 644 
L 522 1753 
Q 522 2253 501 2348 
Q 481 2444 426 2487 
Q 372 2531 291 2531 
Q 194 2531 72 2484 
L 41 2597 
L 906 2947 
L 1038 2947 
z
" transform="scale(0.015625)"/>
       <path id="TimesNewRomanPSMT-6f" d="M 1600 2947 
Q 2250 2947 2644 2453 
Q 2978 2031 2978 1484 
Q 2978 1100 2793 706 
Q 2609 313 2286 112 
Q 1963 -88 1566 -88 
Q 919 -88 538 428 
Q 216 863 216 1403 
Q 216 1797 411 2186 
Q 606 2575 925 2761 
Q 1244 2947 1600 2947 
z
M 1503 2744 
Q 1338 2744 1170 2645 
Q 1003 2547 900 2300 
Q 797 2053 797 1666 
Q 797 1041 1045 587 
Q 1294 134 1700 134 
Q 2003 134 2200 384 
Q 2397 634 2397 1244 
Q 2397 2006 2069 2444 
Q 1847 2744 1503 2744 
z
" transform="scale(0.015625)"/>
       <path id="TimesNewRomanPSMT-74" d="M 1031 3803 
L 1031 2863 
L 1700 2863 
L 1700 2644 
L 1031 2644 
L 1031 788 
Q 1031 509 1111 412 
Q 1191 316 1316 316 
Q 1419 316 1516 380 
Q 1613 444 1666 569 
L 1788 569 
Q 1678 263 1478 108 
Q 1278 -47 1066 -47 
Q 922 -47 784 33 
Q 647 113 581 261 
Q 516 409 516 719 
L 516 2644 
L 63 2644 
L 63 2747 
Q 234 2816 414 2980 
Q 594 3144 734 3369 
Q 806 3488 934 3803 
L 1031 3803 
z
" transform="scale(0.015625)"/>
       <path id="TimesNewRomanPSMT-5f" d="M 3256 -1381 
L -53 -1381 
L -53 -1119 
L 3256 -1119 
L 3256 -1381 
z
" transform="scale(0.015625)"/>
       <path id="TimesNewRomanPSMT-38" d="M 1228 2134 
Q 725 2547 579 2797 
Q 434 3047 434 3316 
Q 434 3728 753 4026 
Q 1072 4325 1600 4325 
Q 2113 4325 2425 4047 
Q 2738 3769 2738 3413 
Q 2738 3175 2569 2928 
Q 2400 2681 1866 2347 
Q 2416 1922 2594 1678 
Q 2831 1359 2831 1006 
Q 2831 559 2490 242 
Q 2150 -75 1597 -75 
Q 994 -75 656 303 
Q 388 606 388 966 
Q 388 1247 577 1523 
Q 766 1800 1228 2134 
z
M 1719 2469 
Q 2094 2806 2194 3001 
Q 2294 3197 2294 3444 
Q 2294 3772 2109 3958 
Q 1925 4144 1606 4144 
Q 1288 4144 1088 3959 
Q 888 3775 888 3528 
Q 888 3366 970 3203 
Q 1053 3041 1206 2894 
L 1719 2469 
z
M 1375 2016 
Q 1116 1797 991 1539 
Q 866 1281 866 981 
Q 866 578 1086 336 
Q 1306 94 1647 94 
Q 1984 94 2187 284 
Q 2391 475 2391 747 
Q 2391 972 2272 1150 
Q 2050 1481 1375 2016 
z
" transform="scale(0.015625)"/>
      </defs>
      <use xlink:href="#TimesNewRomanPSMT-70"/>
      <use xlink:href="#TimesNewRomanPSMT-72" x="50"/>
      <use xlink:href="#TimesNewRomanPSMT-6f" x="83.300781"/>
      <use xlink:href="#TimesNewRomanPSMT-74" x="133.300781"/>
      <use xlink:href="#TimesNewRomanPSMT-6f" x="161.083984"/>
      <use xlink:href="#TimesNewRomanPSMT-5f" x="211.083984"/>
      <use xlink:href="#TimesNewRomanPSMT-38" x="261.083984"/>
     </g>
    </g>
    <g id="line2d_29">
     <path d="M 251.612734 406.626313 
L 270.612734 406.626313 
L 289.612734 406.626313 
" style="fill: none; stroke: #ff7f0e; stroke-width: 1.5; stroke-linecap: square"/>
    </g>
    <g id="text_25">
     <!-- proto_16 -->
     <g transform="translate(304.812734 413.276313) scale(0.19 -0.19)">
      <defs>
       <path id="TimesNewRomanPSMT-31" d="M 750 3822 
L 1781 4325 
L 1884 4325 
L 1884 747 
Q 1884 391 1914 303 
Q 1944 216 2037 169 
Q 2131 122 2419 116 
L 2419 0 
L 825 0 
L 825 116 
Q 1125 122 1212 167 
Q 1300 213 1334 289 
Q 1369 366 1369 747 
L 1369 3034 
Q 1369 3497 1338 3628 
Q 1316 3728 1258 3775 
Q 1200 3822 1119 3822 
Q 1003 3822 797 3725 
L 750 3822 
z
" transform="scale(0.015625)"/>
       <path id="TimesNewRomanPSMT-36" d="M 2869 4325 
L 2869 4209 
Q 2456 4169 2195 4045 
Q 1934 3922 1679 3669 
Q 1425 3416 1258 3105 
Q 1091 2794 978 2366 
Q 1428 2675 1881 2675 
Q 2316 2675 2634 2325 
Q 2953 1975 2953 1425 
Q 2953 894 2631 456 
Q 2244 -75 1606 -75 
Q 1172 -75 869 213 
Q 275 772 275 1663 
Q 275 2231 503 2743 
Q 731 3256 1154 3653 
Q 1578 4050 1965 4187 
Q 2353 4325 2688 4325 
L 2869 4325 
z
M 925 2138 
Q 869 1716 869 1456 
Q 869 1156 980 804 
Q 1091 453 1309 247 
Q 1469 100 1697 100 
Q 1969 100 2183 356 
Q 2397 613 2397 1088 
Q 2397 1622 2184 2012 
Q 1972 2403 1581 2403 
Q 1463 2403 1327 2353 
Q 1191 2303 925 2138 
z
" transform="scale(0.015625)"/>
      </defs>
      <use xlink:href="#TimesNewRomanPSMT-70"/>
      <use xlink:href="#TimesNewRomanPSMT-72" x="50"/>
      <use xlink:href="#TimesNewRomanPSMT-6f" x="83.300781"/>
      <use xlink:href="#TimesNewRomanPSMT-74" x="133.300781"/>
      <use xlink:href="#TimesNewRomanPSMT-6f" x="161.083984"/>
      <use xlink:href="#TimesNewRomanPSMT-5f" x="211.083984"/>
      <use xlink:href="#TimesNewRomanPSMT-31" x="261.083984"/>
      <use xlink:href="#TimesNewRomanPSMT-36" x="311.083984"/>
     </g>
    </g>
    <g id="line2d_30">
     <path d="M 251.612734 433.526156 
L 270.612734 433.526156 
L 289.612734 433.526156 
" style="fill: none; stroke: #e377c2; stroke-width: 1.5; stroke-linecap: square"/>
    </g>
    <g id="text_26">
     <!-- proto_32 -->
     <g transform="translate(304.812734 440.176156) scale(0.19 -0.19)">
      <defs>
       <path id="TimesNewRomanPSMT-33" d="M 325 3431 
Q 506 3859 782 4092 
Q 1059 4325 1472 4325 
Q 1981 4325 2253 3994 
Q 2459 3747 2459 3466 
Q 2459 3003 1878 2509 
Q 2269 2356 2469 2072 
Q 2669 1788 2669 1403 
Q 2669 853 2319 450 
Q 1863 -75 997 -75 
Q 569 -75 414 31 
Q 259 138 259 259 
Q 259 350 332 419 
Q 406 488 509 488 
Q 588 488 669 463 
Q 722 447 909 348 
Q 1097 250 1169 231 
Q 1284 197 1416 197 
Q 1734 197 1970 444 
Q 2206 691 2206 1028 
Q 2206 1275 2097 1509 
Q 2016 1684 1919 1775 
Q 1784 1900 1550 2001 
Q 1316 2103 1072 2103 
L 972 2103 
L 972 2197 
Q 1219 2228 1467 2375 
Q 1716 2522 1828 2728 
Q 1941 2934 1941 3181 
Q 1941 3503 1739 3701 
Q 1538 3900 1238 3900 
Q 753 3900 428 3381 
L 325 3431 
z
" transform="scale(0.015625)"/>
       <path id="TimesNewRomanPSMT-32" d="M 2934 816 
L 2638 0 
L 138 0 
L 138 116 
Q 1241 1122 1691 1759 
Q 2141 2397 2141 2925 
Q 2141 3328 1894 3587 
Q 1647 3847 1303 3847 
Q 991 3847 742 3664 
Q 494 3481 375 3128 
L 259 3128 
Q 338 3706 661 4015 
Q 984 4325 1469 4325 
Q 1984 4325 2329 3994 
Q 2675 3663 2675 3213 
Q 2675 2891 2525 2569 
Q 2294 2063 1775 1497 
Q 997 647 803 472 
L 1909 472 
Q 2247 472 2383 497 
Q 2519 522 2628 598 
Q 2738 675 2819 816 
L 2934 816 
z
" transform="scale(0.015625)"/>
      </defs>
      <use xlink:href="#TimesNewRomanPSMT-70"/>
      <use xlink:href="#TimesNewRomanPSMT-72" x="50"/>
      <use xlink:href="#TimesNewRomanPSMT-6f" x="83.300781"/>
      <use xlink:href="#TimesNewRomanPSMT-74" x="133.300781"/>
      <use xlink:href="#TimesNewRomanPSMT-6f" x="161.083984"/>
      <use xlink:href="#TimesNewRomanPSMT-5f" x="211.083984"/>
      <use xlink:href="#TimesNewRomanPSMT-33" x="261.083984"/>
      <use xlink:href="#TimesNewRomanPSMT-32" x="311.083984"/>
     </g>
    </g>
    <g id="line2d_31">
     <path d="M 411.417578 379.726469 
L 430.417578 379.726469 
L 449.417578 379.726469 
" style="fill: none; stroke: #9467bd; stroke-width: 1.5; stroke-linecap: square"/>
    </g>
    <g id="text_27">
     <!-- proto_40 -->
     <g transform="translate(464.617578 386.376469) scale(0.19 -0.19)">
      <defs>
       <path id="TimesNewRomanPSMT-34" d="M 2978 1563 
L 2978 1119 
L 2409 1119 
L 2409 0 
L 1894 0 
L 1894 1119 
L 100 1119 
L 100 1519 
L 2066 4325 
L 2409 4325 
L 2409 1563 
L 2978 1563 
z
M 1894 1563 
L 1894 3666 
L 406 1563 
L 1894 1563 
z
" transform="scale(0.015625)"/>
       <path id="TimesNewRomanPSMT-30" d="M 231 2094 
Q 231 2819 450 3342 
Q 669 3866 1031 4122 
Q 1313 4325 1613 4325 
Q 2100 4325 2488 3828 
Q 2972 3213 2972 2159 
Q 2972 1422 2759 906 
Q 2547 391 2217 158 
Q 1888 -75 1581 -75 
Q 975 -75 572 641 
Q 231 1244 231 2094 
z
M 844 2016 
Q 844 1141 1059 588 
Q 1238 122 1591 122 
Q 1759 122 1940 273 
Q 2122 425 2216 781 
Q 2359 1319 2359 2297 
Q 2359 3022 2209 3506 
Q 2097 3866 1919 4016 
Q 1791 4119 1609 4119 
Q 1397 4119 1231 3928 
Q 1006 3669 925 3112 
Q 844 2556 844 2016 
z
" transform="scale(0.015625)"/>
      </defs>
      <use xlink:href="#TimesNewRomanPSMT-70"/>
      <use xlink:href="#TimesNewRomanPSMT-72" x="50"/>
      <use xlink:href="#TimesNewRomanPSMT-6f" x="83.300781"/>
      <use xlink:href="#TimesNewRomanPSMT-74" x="133.300781"/>
      <use xlink:href="#TimesNewRomanPSMT-6f" x="161.083984"/>
      <use xlink:href="#TimesNewRomanPSMT-5f" x="211.083984"/>
      <use xlink:href="#TimesNewRomanPSMT-34" x="261.083984"/>
      <use xlink:href="#TimesNewRomanPSMT-30" x="311.083984"/>
     </g>
    </g>
    <g id="line2d_32">
     <path d="M 411.417578 406.626313 
L 430.417578 406.626313 
L 449.417578 406.626313 
" style="fill: none; stroke: #1f77b4; stroke-width: 1.5; stroke-linecap: square"/>
    </g>
    <g id="text_28">
     <!-- proto_48 -->
     <g transform="translate(464.617578 413.276313) scale(0.19 -0.19)">
      <use xlink:href="#TimesNewRomanPSMT-70"/>
      <use xlink:href="#TimesNewRomanPSMT-72" x="50"/>
      <use xlink:href="#TimesNewRomanPSMT-6f" x="83.300781"/>
      <use xlink:href="#TimesNewRomanPSMT-74" x="133.300781"/>
      <use xlink:href="#TimesNewRomanPSMT-6f" x="161.083984"/>
      <use xlink:href="#TimesNewRomanPSMT-5f" x="211.083984"/>
      <use xlink:href="#TimesNewRomanPSMT-34" x="261.083984"/>
      <use xlink:href="#TimesNewRomanPSMT-38" x="311.083984"/>
     </g>
    </g>
    <g id="line2d_33">
     <path d="M 571.222422 379.726469 
L 590.222422 379.726469 
L 609.222422 379.726469 
" style="fill: none; stroke: #17becf; stroke-width: 1.5; stroke-linecap: square"/>
    </g>
    <g id="text_29">
     <!-- proto_56 -->
     <g transform="translate(624.422422 386.376469) scale(0.19 -0.19)">
      <defs>
       <path id="TimesNewRomanPSMT-35" d="M 2778 4238 
L 2534 3706 
L 1259 3706 
L 981 3138 
Q 1809 3016 2294 2522 
Q 2709 2097 2709 1522 
Q 2709 1188 2573 903 
Q 2438 619 2231 419 
Q 2025 219 1772 97 
Q 1413 -75 1034 -75 
Q 653 -75 479 54 
Q 306 184 306 341 
Q 306 428 378 495 
Q 450 563 559 563 
Q 641 563 702 538 
Q 763 513 909 409 
Q 1144 247 1384 247 
Q 1750 247 2026 523 
Q 2303 800 2303 1197 
Q 2303 1581 2056 1914 
Q 1809 2247 1375 2428 
Q 1034 2569 447 2591 
L 1259 4238 
L 2778 4238 
z
" transform="scale(0.015625)"/>
      </defs>
      <use xlink:href="#TimesNewRomanPSMT-70"/>
      <use xlink:href="#TimesNewRomanPSMT-72" x="50"/>
      <use xlink:href="#TimesNewRomanPSMT-6f" x="83.300781"/>
      <use xlink:href="#TimesNewRomanPSMT-74" x="133.300781"/>
      <use xlink:href="#TimesNewRomanPSMT-6f" x="161.083984"/>
      <use xlink:href="#TimesNewRomanPSMT-5f" x="211.083984"/>
      <use xlink:href="#TimesNewRomanPSMT-35" x="261.083984"/>
      <use xlink:href="#TimesNewRomanPSMT-36" x="311.083984"/>
     </g>
    </g>
    <g id="line2d_34">
     <path d="M 571.222422 406.626313 
L 590.222422 406.626313 
L 609.222422 406.626313 
" style="fill: none; stroke: #2ca02c; stroke-width: 1.5; stroke-linecap: square"/>
    </g>
    <g id="text_30">
     <!-- proto_64 -->
     <g transform="translate(624.422422 413.276313) scale(0.19 -0.19)">
      <use xlink:href="#TimesNewRomanPSMT-70"/>
      <use xlink:href="#TimesNewRomanPSMT-72" x="50"/>
      <use xlink:href="#TimesNewRomanPSMT-6f" x="83.300781"/>
      <use xlink:href="#TimesNewRomanPSMT-74" x="133.300781"/>
      <use xlink:href="#TimesNewRomanPSMT-6f" x="161.083984"/>
      <use xlink:href="#TimesNewRomanPSMT-5f" x="211.083984"/>
      <use xlink:href="#TimesNewRomanPSMT-36" x="261.083984"/>
      <use xlink:href="#TimesNewRomanPSMT-34" x="311.083984"/>
     </g>
    </g>
   </g>
  </g>
 </g>
 <defs>
  <clipPath id="pdaa1321b17">
   <rect x="115.2" y="62.208" width="714.24" height="399.168"/>
  </clipPath>
 </defs>
</svg>
