<?xml version="1.0" encoding="utf-8" standalone="no"?>
<!DOCTYPE svg PUBLIC "-//W3C//DTD SVG 1.1//EN"
  "http://www.w3.org/Graphics/SVG/1.1/DTD/svg11.dtd">
<svg xmlns:xlink="http://www.w3.org/1999/xlink" width="1080pt" height="864pt" viewBox="0 0 1080 864" xmlns="http://www.w3.org/2000/svg" version="1.1">
 <metadata>
  <rdf:RDF xmlns:dc="http://purl.org/dc/elements/1.1/" xmlns:cc="http://creativecommons.org/ns#" xmlns:rdf="http://www.w3.org/1999/02/22-rdf-syntax-ns#">
   <cc:Work>
    <dc:type rdf:resource="http://purl.org/dc/dcmitype/StillImage"/>
    <dc:date>2023-10-23T21:04:29.423090</dc:date>
    <dc:format>image/svg+xml</dc:format>
    <dc:creator>
     <cc:Agent>
      <dc:title>Matplotlib v3.7.1, https://matplotlib.org/</dc:title>
     </cc:Agent>
    </dc:creator>
   </cc:Work>
  </rdf:RDF>
 </metadata>
 <defs>
  <style type="text/css">*{stroke-linejoin: round; stroke-linecap: butt}</style>
 </defs>
 <g id="figure_1">
  <g id="patch_1">
   <path d="M 0 864 
L 1080 864 
L 1080 0 
L 0 0 
z
" style="fill: #ffffff"/>
  </g>
  <g id="axes_1">
   <g id="patch_2">
    <path d="M 129.6 648 
L 928.8 648 
L 928.8 17.28 
L 129.6 17.28 
z
" style="fill: #ffffff"/>
   </g>
   <g id="matplotlib.axis_1">
    <g id="xtick_1">
     <g id="line2d_1">
      <defs>
       <path id="m927705b3a8" d="M 0 0 
L 0 3.5 
" style="stroke: #000000; stroke-width: 0.8"/>
      </defs>
      <g>
       <use xlink:href="#m927705b3a8" x="165.927273" y="648" style="stroke: #000000; stroke-width: 0.8"/>
      </g>
     </g>
     <g id="text_1">
      <!-- 0 -->
      <g transform="translate(150.927273 697.890625) scale(0.6 -0.6)">
       <defs>
        <path id="SimSun-30" d="M 1600 4225 
Q 1250 4225 1012 3687 
Q 775 3150 775 2250 
Q 775 1300 1012 775 
Q 1250 250 1600 250 
Q 1975 250 2187 775 
Q 2400 1300 2400 2250 
Q 2400 3150 2200 3687 
Q 2000 4225 1600 4225 
z
M 1600 50 
Q 1050 50 675 625 
Q 300 1200 300 2250 
Q 300 3225 662 3825 
Q 1025 4425 1600 4425 
Q 2150 4425 2512 3850 
Q 2875 3275 2875 2250 
Q 2875 1225 2512 637 
Q 2150 50 1600 50 
z
" transform="scale(0.015625)"/>
       </defs>
       <use xlink:href="#SimSun-30"/>
      </g>
     </g>
    </g>
    <g id="xtick_2">
     <g id="line2d_2">
      <g>
       <use xlink:href="#m927705b3a8" x="529.2" y="648" style="stroke: #000000; stroke-width: 0.8"/>
      </g>
     </g>
     <g id="text_2">
      <!-- 50 -->
      <g transform="translate(499.2 697.890625) scale(0.6 -0.6)">
       <defs>
        <path id="SimSun-35" d="M 1725 2850 
Q 2200 2850 2500 2487 
Q 2800 2125 2800 1525 
Q 2800 850 2487 450 
Q 2175 50 1525 50 
Q 1075 50 725 312 
Q 375 575 375 950 
Q 375 1100 462 1212 
Q 550 1325 700 1325 
Q 850 1325 900 1225 
Q 950 1125 950 1050 
Q 950 900 875 825 
Q 800 725 800 625 
Q 800 425 1037 325 
Q 1275 225 1550 225 
Q 1950 225 2162 550 
Q 2375 875 2375 1475 
Q 2375 1975 2187 2287 
Q 2000 2600 1625 2600 
Q 1350 2600 1150 2500 
Q 950 2400 775 2075 
L 550 2100 
L 675 4375 
L 2725 4375 
L 2650 4000 
L 850 4000 
L 750 2350 
Q 1000 2700 1237 2775 
Q 1475 2850 1725 2850 
z
" transform="scale(0.015625)"/>
       </defs>
       <use xlink:href="#SimSun-35"/>
       <use xlink:href="#SimSun-30" x="50"/>
      </g>
     </g>
    </g>
    <g id="xtick_3">
     <g id="line2d_3">
      <g>
       <use xlink:href="#m927705b3a8" x="892.472727" y="648" style="stroke: #000000; stroke-width: 0.8"/>
      </g>
     </g>
     <g id="text_3">
      <!-- 100 -->
      <g transform="translate(847.472727 697.890625) scale(0.6 -0.6)">
       <defs>
        <path id="SimSun-31" d="M 1825 4450 
L 1825 650 
Q 1825 450 1950 350 
Q 2075 250 2300 250 
L 2550 250 
L 2550 100 
L 725 100 
L 725 250 
L 950 250 
Q 1200 250 1312 350 
Q 1425 450 1425 650 
L 1425 3675 
Q 1425 3775 1362 3837 
Q 1300 3900 1175 3900 
L 725 3900 
L 725 4050 
L 950 4050 
Q 1250 4050 1437 4150 
Q 1625 4250 1725 4450 
L 1825 4450 
z
" transform="scale(0.015625)"/>
       </defs>
       <use xlink:href="#SimSun-31"/>
       <use xlink:href="#SimSun-30" x="50"/>
       <use xlink:href="#SimSun-30" x="100"/>
      </g>
     </g>
    </g>
    <g id="text_4">
     <!--  $\mathrm{Load\ Factor\ (\%)}$ -->
     <g transform="translate(318.9 752.225) scale(0.6 -0.6)">
      <defs>
       <path id="SimSun-20" d="M 0 0 
Q 0 0 0 0 
z
" transform="scale(0.015625)"/>
       <path id="STIXGeneral-Regular-4c" d="M 3827 1114 
L 3520 0 
L 77 0 
L 77 122 
Q 429 141 531 256 
Q 634 371 634 736 
L 634 3494 
Q 634 3872 541 3981 
Q 448 4090 77 4115 
L 77 4237 
L 1888 4237 
L 1888 4115 
Q 1498 4090 1392 3984 
Q 1286 3878 1286 3507 
L 1286 538 
Q 1286 358 1398 304 
Q 1510 250 1862 250 
L 2310 250 
Q 3085 250 3392 640 
Q 3520 813 3661 1114 
L 3827 1114 
z
" transform="scale(0.015625)"/>
       <path id="STIXGeneral-Regular-6f" d="M 3008 1478 
Q 3008 806 2608 371 
Q 2208 -64 1568 -64 
Q 979 -64 582 368 
Q 186 800 186 1459 
Q 186 2125 582 2534 
Q 979 2944 1626 2944 
Q 2221 2944 2614 2537 
Q 3008 2131 3008 1478 
z
M 2432 1306 
Q 2432 2035 2112 2445 
Q 1856 2765 1504 2765 
Q 1171 2765 966 2493 
Q 762 2221 762 1747 
Q 762 928 1101 435 
Q 1318 115 1677 115 
Q 2029 115 2230 432 
Q 2432 749 2432 1306 
z
" transform="scale(0.015625)"/>
       <path id="STIXGeneral-Regular-61" d="M 2829 422 
L 2829 243 
Q 2586 -64 2253 -64 
Q 1888 -64 1843 403 
L 1837 403 
Q 1427 -64 909 -64 
Q 608 -64 422 112 
Q 237 288 237 602 
Q 237 1050 685 1350 
Q 992 1555 1837 1869 
L 1837 2214 
Q 1837 2502 1699 2646 
Q 1562 2790 1338 2790 
Q 1146 2790 1018 2697 
Q 890 2605 890 2477 
Q 890 2419 909 2348 
Q 928 2278 928 2208 
Q 928 2112 841 2029 
Q 755 1946 634 1946 
Q 525 1946 441 2029 
Q 358 2112 358 2240 
Q 358 2547 685 2752 
Q 986 2944 1421 2944 
Q 1939 2944 2176 2656 
Q 2291 2522 2323 2384 
Q 2355 2246 2355 1946 
L 2355 723 
Q 2355 301 2554 301 
Q 2682 301 2829 422 
z
M 1837 813 
L 1837 1715 
Q 1248 1510 1018 1293 
Q 800 1094 800 800 
Q 800 557 921 432 
Q 1043 307 1242 307 
Q 1453 307 1613 410 
Q 1747 506 1792 589 
Q 1837 672 1837 813 
z
" transform="scale(0.015625)"/>
       <path id="STIXGeneral-Regular-64" d="M 3142 269 
L 2202 -64 
L 2176 -45 
L 2176 365 
Q 1869 -64 1357 -64 
Q 826 -64 499 317 
Q 173 698 173 1312 
Q 173 1990 563 2467 
Q 954 2944 1504 2944 
Q 1850 2944 2176 2669 
L 2176 3667 
Q 2176 3866 2118 3930 
Q 2061 3994 1882 3994 
Q 1792 3994 1741 3987 
L 1741 4090 
Q 2323 4243 2682 4371 
L 2714 4358 
L 2714 730 
Q 2714 506 2768 435 
Q 2822 365 2995 365 
Q 3034 365 3142 371 
L 3142 269 
z
M 2176 653 
L 2176 2125 
Q 2176 2381 1981 2573 
Q 1786 2765 1523 2765 
Q 1158 2765 940 2438 
Q 723 2112 723 1568 
Q 723 979 963 624 
Q 1203 269 1606 269 
Q 1907 269 2080 474 
Q 2176 582 2176 653 
z
" transform="scale(0.015625)"/>
       <path id="STIXGeneral-Regular-46" d="M 3494 3322 
L 3334 3322 
Q 3264 3757 3094 3875 
Q 2925 3994 2349 3994 
L 1504 3994 
Q 1370 3994 1328 3946 
Q 1286 3898 1286 3744 
L 1286 2355 
L 2195 2355 
Q 2598 2355 2736 2470 
Q 2874 2586 2918 2963 
L 3066 2963 
L 3066 1472 
L 2918 1472 
Q 2880 1862 2745 1977 
Q 2611 2093 2195 2093 
L 1286 2093 
L 1286 717 
Q 1286 352 1392 246 
Q 1498 141 1869 122 
L 1869 0 
L 70 0 
L 70 122 
Q 435 147 534 259 
Q 634 371 634 787 
L 634 3526 
Q 634 3878 538 3984 
Q 442 4090 77 4115 
L 77 4237 
L 3462 4237 
L 3494 3322 
z
" transform="scale(0.015625)"/>
       <path id="STIXGeneral-Regular-63" d="M 2547 998 
L 2637 941 
Q 2362 403 2112 205 
Q 1786 -64 1376 -64 
Q 845 -64 502 336 
Q 160 736 160 1357 
Q 160 2170 698 2618 
Q 1094 2944 1562 2944 
Q 1965 2944 2256 2749 
Q 2547 2554 2547 2285 
Q 2547 2176 2457 2096 
Q 2368 2016 2246 2016 
Q 2022 2016 1939 2310 
L 1901 2451 
Q 1850 2630 1773 2694 
Q 1696 2758 1523 2758 
Q 1133 2758 893 2451 
Q 653 2144 653 1645 
Q 653 1094 928 745 
Q 1203 397 1645 397 
Q 1920 397 2118 528 
Q 2317 659 2547 998 
z
" transform="scale(0.015625)"/>
       <path id="STIXGeneral-Regular-74" d="M 1702 493 
L 1786 422 
Q 1478 -64 1011 -64 
Q 448 -64 448 749 
L 448 2675 
L 109 2675 
Q 83 2694 83 2720 
Q 83 2771 192 2842 
Q 435 2982 813 3526 
Q 826 3546 874 3606 
Q 922 3667 941 3706 
Q 986 3706 986 3622 
L 986 2880 
L 1632 2880 
L 1632 2675 
L 986 2675 
L 986 845 
Q 986 538 1062 403 
Q 1139 269 1318 269 
Q 1510 269 1702 493 
z
" transform="scale(0.015625)"/>
       <path id="STIXGeneral-Regular-72" d="M 1024 2931 
L 1024 2342 
Q 1267 2688 1430 2816 
Q 1594 2944 1792 2944 
Q 1958 2944 2051 2854 
Q 2144 2765 2144 2605 
Q 2144 2470 2077 2393 
Q 2010 2317 1894 2317 
Q 1773 2317 1638 2445 
Q 1536 2541 1472 2541 
Q 1338 2541 1181 2355 
Q 1024 2170 1024 2016 
L 1024 576 
Q 1024 301 1133 205 
Q 1242 109 1568 96 
L 1568 0 
L 32 0 
L 32 96 
Q 339 154 412 224 
Q 486 294 486 538 
L 486 2138 
Q 486 2349 438 2435 
Q 390 2522 269 2522 
Q 166 2522 45 2496 
L 45 2598 
Q 448 2726 992 2944 
L 1024 2931 
z
" transform="scale(0.015625)"/>
       <path id="STIXGeneral-Regular-28" d="M 1946 -1030 
L 1869 -1133 
Q 1126 -710 716 32 
Q 307 774 307 1613 
Q 307 3386 1888 4326 
L 1946 4224 
Q 1293 3667 1075 3126 
Q 858 2586 858 1632 
Q 858 685 1082 96 
Q 1306 -493 1946 -1030 
z
" transform="scale(0.015625)"/>
       <path id="STIXGeneral-Regular-25" d="M 4390 1363 
Q 4390 781 4070 329 
Q 3750 -122 3341 -122 
Q 3014 -122 2790 134 
Q 2566 390 2566 762 
Q 2566 1274 2940 1693 
Q 3315 2112 3776 2112 
Q 4070 2112 4230 1917 
Q 4390 1722 4390 1363 
z
M 4243 1376 
Q 4243 1626 4131 1779 
Q 4019 1933 3840 1933 
Q 3654 1933 3526 1786 
Q 3315 1562 3171 1187 
Q 3027 813 3027 486 
Q 3027 301 3129 176 
Q 3232 51 3386 51 
Q 3718 51 3980 457 
Q 4243 864 4243 1376 
z
M 3974 4518 
L 1222 -115 
L 922 -115 
L 3443 4096 
Q 3264 3891 3094 3811 
Q 2925 3731 2669 3731 
Q 2445 3731 2182 3821 
Q 2208 3674 2208 3539 
Q 2208 3206 2067 2873 
Q 1926 2541 1696 2323 
Q 1453 2086 1146 2086 
Q 826 2086 608 2339 
Q 390 2592 390 2963 
Q 390 3507 761 3916 
Q 1133 4326 1626 4326 
Q 1792 4326 2010 4147 
Q 2310 3898 2624 3898 
Q 2918 3898 3084 3994 
Q 3251 4090 3693 4518 
L 3974 4518 
z
M 2054 3642 
Q 2054 3782 2025 3833 
Q 1997 3885 1894 3936 
Q 1747 4006 1613 4154 
Q 1414 4058 1331 3984 
Q 1248 3910 1152 3750 
Q 845 3264 845 2707 
Q 845 2509 944 2384 
Q 1043 2259 1210 2259 
Q 1549 2259 1801 2675 
Q 2054 3091 2054 3642 
z
" transform="scale(0.015625)"/>
       <path id="STIXGeneral-Regular-29" d="M 186 4224 
L 262 4326 
Q 992 3891 1408 3148 
Q 1824 2406 1824 1581 
Q 1824 -166 243 -1133 
L 186 -1030 
Q 845 -486 1059 54 
Q 1274 595 1274 1562 
Q 1274 2534 1059 3120 
Q 845 3706 186 4224 
z
" transform="scale(0.015625)"/>
      </defs>
      <use xlink:href="#SimSun-20" transform="translate(0 0.40625)"/>
      <use xlink:href="#STIXGeneral-Regular-4c" transform="translate(50 0.40625)"/>
      <use xlink:href="#STIXGeneral-Regular-6f" transform="translate(111.099991 0.40625)"/>
      <use xlink:href="#STIXGeneral-Regular-61" transform="translate(161.099976 0.40625)"/>
      <use xlink:href="#STIXGeneral-Regular-64" transform="translate(205.499969 0.40625)"/>
      <use xlink:href="#STIXGeneral-Regular-46" transform="translate(279.566374 0.40625)"/>
      <use xlink:href="#STIXGeneral-Regular-61" transform="translate(335.166365 0.40625)"/>
      <use xlink:href="#STIXGeneral-Regular-63" transform="translate(379.566359 0.40625)"/>
      <use xlink:href="#STIXGeneral-Regular-74" transform="translate(423.966353 0.40625)"/>
      <use xlink:href="#STIXGeneral-Regular-6f" transform="translate(451.766341 0.40625)"/>
      <use xlink:href="#STIXGeneral-Regular-72" transform="translate(501.766325 0.40625)"/>
      <use xlink:href="#STIXGeneral-Regular-28" transform="translate(559.132733 0.40625)"/>
      <use xlink:href="#STIXGeneral-Regular-25" transform="translate(592.432721 0.40625)"/>
      <use xlink:href="#STIXGeneral-Regular-29" transform="translate(667.132702 0.40625)"/>
     </g>
    </g>
   </g>
   <g id="matplotlib.axis_2">
    <g id="ytick_1">
     <g id="line2d_4">
      <defs>
       <path id="mc5d6ec6bb1" d="M 0 0 
L -3.5 0 
" style="stroke: #000000; stroke-width: 0.8"/>
      </defs>
      <g>
       <use xlink:href="#mc5d6ec6bb1" x="129.6" y="632.982857" style="stroke: #000000; stroke-width: 0.8"/>
      </g>
     </g>
     <g id="text_5">
      <!-- 0 -->
      <g transform="translate(92.6 654.42817) scale(0.6 -0.6)">
       <use xlink:href="#SimSun-30"/>
      </g>
     </g>
    </g>
    <g id="ytick_2">
     <g id="line2d_5">
      <g>
       <use xlink:href="#mc5d6ec6bb1" x="129.6" y="482.811429" style="stroke: #000000; stroke-width: 0.8"/>
      </g>
     </g>
     <g id="text_6">
      <!-- 20 -->
      <g transform="translate(62.6 504.256741) scale(0.6 -0.6)">
       <defs>
        <path id="SimSun-32" d="M 2325 3325 
Q 2325 3775 2125 4012 
Q 1925 4250 1525 4250 
Q 1225 4250 1012 4087 
Q 800 3925 800 3675 
Q 800 3525 900 3425 
Q 975 3325 975 3225 
Q 975 3100 912 3037 
Q 850 2975 725 2975 
Q 575 2975 487 3062 
Q 400 3150 400 3350 
Q 400 3875 775 4150 
Q 1150 4425 1575 4425 
Q 2175 4425 2462 4125 
Q 2750 3825 2750 3375 
Q 2750 3075 2612 2775 
Q 2475 2475 2175 2200 
Q 1450 1500 1062 1062 
Q 675 625 600 475 
L 2075 475 
Q 2300 475 2450 650 
Q 2600 825 2650 1175 
L 2800 1175 
L 2650 100 
L 325 100 
L 325 425 
Q 450 650 737 1000 
Q 1025 1350 1500 1825 
Q 1925 2250 2125 2625 
Q 2325 3000 2325 3325 
z
" transform="scale(0.015625)"/>
       </defs>
       <use xlink:href="#SimSun-32"/>
       <use xlink:href="#SimSun-30" x="50"/>
      </g>
     </g>
    </g>
    <g id="ytick_3">
     <g id="line2d_6">
      <g>
       <use xlink:href="#mc5d6ec6bb1" x="129.6" y="332.64" style="stroke: #000000; stroke-width: 0.8"/>
      </g>
     </g>
     <g id="text_7">
      <!-- 40 -->
      <g transform="translate(62.6 354.085312) scale(0.6 -0.6)">
       <defs>
        <path id="SimSun-34" d="M 2300 575 
Q 2300 400 2400 325 
Q 2500 250 2675 250 
L 2900 250 
L 2900 100 
L 1250 100 
L 1250 250 
L 1525 250 
Q 1725 250 1812 325 
Q 1900 400 1900 575 
L 1900 1400 
L 225 1400 
L 225 1525 
L 2050 4425 
L 2300 4425 
L 2300 1550 
L 2975 1550 
L 2975 1400 
L 2300 1400 
L 2300 575 
z
M 1875 3800 
L 450 1550 
L 1900 1550 
L 1900 3800 
L 1875 3800 
z
" transform="scale(0.015625)"/>
       </defs>
       <use xlink:href="#SimSun-34"/>
       <use xlink:href="#SimSun-30" x="50"/>
      </g>
     </g>
    </g>
    <g id="ytick_4">
     <g id="line2d_7">
      <g>
       <use xlink:href="#mc5d6ec6bb1" x="129.6" y="182.468571" style="stroke: #000000; stroke-width: 0.8"/>
      </g>
     </g>
     <g id="text_8">
      <!-- 60 -->
      <g transform="translate(62.6 203.913884) scale(0.6 -0.6)">
       <defs>
        <path id="SimSun-36" d="M 775 1800 
Q 775 1050 1037 637 
Q 1300 225 1675 225 
Q 2050 225 2250 500 
Q 2450 775 2450 1525 
Q 2450 2025 2237 2300 
Q 2025 2575 1725 2575 
Q 1450 2575 1212 2412 
Q 975 2250 775 1800 
z
M 1750 2825 
Q 2350 2825 2612 2425 
Q 2875 2025 2875 1525 
Q 2875 775 2512 412 
Q 2150 50 1675 50 
Q 1000 50 650 562 
Q 300 1075 300 2050 
Q 300 3200 725 3812 
Q 1150 4425 1875 4425 
Q 2225 4425 2437 4225 
Q 2650 4025 2650 3875 
Q 2650 3725 2587 3650 
Q 2525 3575 2375 3575 
Q 2250 3575 2187 3637 
Q 2125 3700 2125 3825 
Q 2125 3875 2150 3925 
Q 2150 3975 2150 4025 
Q 2150 4125 2075 4187 
Q 2000 4250 1800 4250 
Q 1375 4250 1075 3862 
Q 775 3475 775 2175 
Q 925 2500 1187 2662 
Q 1450 2825 1750 2825 
z
" transform="scale(0.015625)"/>
       </defs>
       <use xlink:href="#SimSun-36"/>
       <use xlink:href="#SimSun-30" x="50"/>
      </g>
     </g>
    </g>
    <g id="ytick_5">
     <g id="line2d_8">
      <g>
       <use xlink:href="#mc5d6ec6bb1" x="129.6" y="32.297143" style="stroke: #000000; stroke-width: 0.8"/>
      </g>
     </g>
     <g id="text_9">
      <!-- 80 -->
      <g transform="translate(62.6 53.742455) scale(0.6 -0.6)">
       <defs>
        <path id="SimSun-38" d="M 625 1125 
Q 625 725 887 475 
Q 1150 225 1550 225 
Q 2025 225 2237 475 
Q 2450 725 2450 1100 
Q 2450 1425 2150 1725 
Q 1850 2025 1250 2275 
Q 950 2075 787 1775 
Q 625 1475 625 1125 
z
M 2825 1175 
Q 2825 700 2475 375 
Q 2125 50 1550 50 
Q 1025 50 650 375 
Q 275 700 275 1125 
Q 275 1550 487 1850 
Q 700 2150 1100 2375 
Q 750 2550 562 2812 
Q 375 3075 375 3400 
Q 375 3825 700 4125 
Q 1025 4425 1600 4425 
Q 2125 4425 2450 4125 
Q 2775 3825 2775 3400 
Q 2775 3100 2587 2837 
Q 2400 2575 2000 2375 
Q 2425 2125 2625 1825 
Q 2825 1525 2825 1175 
z
M 2425 3375 
Q 2425 3725 2225 3987 
Q 2025 4250 1600 4250 
Q 1125 4250 925 4000 
Q 725 3750 725 3475 
Q 725 3200 1012 2937 
Q 1300 2675 1825 2475 
Q 2125 2625 2275 2850 
Q 2425 3075 2425 3375 
z
" transform="scale(0.015625)"/>
       </defs>
       <use xlink:href="#SimSun-38"/>
       <use xlink:href="#SimSun-30" x="50"/>
      </g>
     </g>
    </g>
    <g id="text_10">
     <!--  $\mathrm{Evict\ Ratio\ (\%)}$ -->
     <g transform="translate(47.8 533.04) rotate(-90) scale(0.6 -0.6)">
      <defs>
       <path id="STIXGeneral-Regular-45" d="M 3821 1082 
L 3526 0 
L 77 0 
L 77 122 
Q 442 147 538 252 
Q 634 358 634 730 
L 634 3520 
Q 634 3878 534 3987 
Q 435 4096 77 4115 
L 77 4237 
L 3469 4237 
L 3494 3322 
L 3334 3322 
Q 3264 3750 3085 3872 
Q 2906 3994 2349 3994 
L 1510 3994 
Q 1370 3994 1328 3952 
Q 1286 3910 1286 3763 
L 1286 2355 
L 2253 2355 
Q 2656 2355 2787 2470 
Q 2918 2586 2976 2970 
L 3123 2970 
L 3123 1472 
L 2976 1472 
Q 2918 1875 2790 1984 
Q 2662 2093 2253 2093 
L 1286 2093 
L 1286 538 
Q 1286 346 1420 291 
Q 1555 237 1933 237 
L 2163 237 
Q 2848 237 3136 403 
Q 3424 570 3642 1082 
L 3821 1082 
z
" transform="scale(0.015625)"/>
       <path id="STIXGeneral-Regular-76" d="M 3053 2880 
L 3053 2784 
Q 2906 2771 2835 2688 
Q 2765 2605 2637 2285 
L 1818 230 
Q 1690 -90 1638 -90 
Q 1587 -90 1523 77 
Q 1510 96 1497 141 
Q 1485 186 1472 211 
L 704 2048 
Q 499 2534 403 2652 
Q 307 2771 122 2784 
L 122 2880 
L 1376 2880 
L 1376 2784 
Q 1210 2771 1146 2732 
Q 1082 2694 1082 2611 
Q 1082 2509 1139 2368 
L 1792 730 
L 2426 2387 
Q 2464 2483 2464 2579 
Q 2464 2758 2163 2784 
L 2163 2880 
L 3053 2880 
z
" transform="scale(0.015625)"/>
       <path id="STIXGeneral-Regular-69" d="M 1152 4045 
Q 1152 3904 1056 3811 
Q 960 3718 819 3718 
Q 685 3718 592 3811 
Q 499 3904 499 4045 
Q 499 4179 595 4275 
Q 691 4371 826 4371 
Q 966 4371 1059 4275 
Q 1152 4179 1152 4045 
z
M 1619 0 
L 102 0 
L 102 96 
Q 435 115 521 211 
Q 608 307 608 666 
L 608 2118 
Q 608 2342 563 2432 
Q 518 2522 397 2522 
Q 243 2522 128 2490 
L 128 2592 
L 1120 2944 
L 1146 2918 
L 1146 672 
Q 1146 314 1226 218 
Q 1306 122 1619 96 
L 1619 0 
z
" transform="scale(0.015625)"/>
       <path id="STIXGeneral-Regular-52" d="M 4224 0 
L 3187 0 
L 1664 1971 
L 1306 1958 
L 1306 717 
Q 1306 352 1405 249 
Q 1504 147 1875 122 
L 1875 0 
L 109 0 
L 109 122 
Q 474 154 563 262 
Q 653 371 653 794 
L 653 3526 
Q 653 3885 563 3987 
Q 474 4090 109 4115 
L 109 4237 
L 1850 4237 
Q 2726 4237 3187 3859 
Q 3501 3603 3501 3091 
Q 3501 2221 2342 2042 
L 3622 422 
Q 3757 256 3878 198 
Q 4000 141 4224 122 
L 4224 0 
z
M 1306 3731 
L 1306 2195 
Q 1766 2202 1990 2246 
Q 2214 2291 2438 2413 
Q 2803 2618 2803 3142 
Q 2803 4000 1632 4000 
Q 1459 4000 1382 3945 
Q 1306 3891 1306 3731 
z
" transform="scale(0.015625)"/>
      </defs>
      <use xlink:href="#SimSun-20" transform="translate(0 0.40625)"/>
      <use xlink:href="#STIXGeneral-Regular-45" transform="translate(50 0.40625)"/>
      <use xlink:href="#STIXGeneral-Regular-76" transform="translate(111.099991 0.40625)"/>
      <use xlink:href="#STIXGeneral-Regular-69" transform="translate(161.099976 0.40625)"/>
      <use xlink:href="#STIXGeneral-Regular-63" transform="translate(188.899963 0.40625)"/>
      <use xlink:href="#STIXGeneral-Regular-74" transform="translate(233.299957 0.40625)"/>
      <use xlink:href="#STIXGeneral-Regular-52" transform="translate(285.166365 0.40625)"/>
      <use xlink:href="#STIXGeneral-Regular-61" transform="translate(351.866362 0.40625)"/>
      <use xlink:href="#STIXGeneral-Regular-74" transform="translate(396.266356 0.40625)"/>
      <use xlink:href="#STIXGeneral-Regular-69" transform="translate(424.066344 0.40625)"/>
      <use xlink:href="#STIXGeneral-Regular-6f" transform="translate(451.866331 0.40625)"/>
      <use xlink:href="#STIXGeneral-Regular-28" transform="translate(525.932736 0.40625)"/>
      <use xlink:href="#STIXGeneral-Regular-25" transform="translate(559.232724 0.40625)"/>
      <use xlink:href="#STIXGeneral-Regular-29" transform="translate(633.932706 0.40625)"/>
     </g>
    </g>
   </g>
   <g id="line2d_9">
    <path d="M 166.577531 632.982857 
L 279.72754 632.901014 
L 288.612465 632.828181 
L 294.524365 632.82743 
L 312.077703 632.548111 
L 317.863911 632.446745 
L 329.380383 632.247017 
L 335.093937 632.023262 
L 346.426593 631.647082 
L 349.236871 631.380528 
L 354.836356 631.174042 
L 360.409687 630.940526 
L 363.178551 630.64619 
L 371.442279 630.341342 
L 374.184262 629.835264 
L 376.916799 629.860793 
L 379.640618 629.469597 
L 382.357172 629.327685 
L 385.075178 629.041608 
L 387.78156 629.091165 
L 393.172527 627.952865 
L 395.868011 628.029453 
L 401.231369 627.386719 
L 403.896338 626.822825 
L 409.227002 626.316747 
L 414.540956 625.658246 
L 425.20301 624.055166 
L 427.852721 623.784106 
L 430.513331 623.013727 
L 438.456652 621.441432 
L 441.108543 621.096038 
L 449.039513 618.908791 
L 451.681233 618.582919 
L 456.939242 617.393561 
L 459.581688 616.816903 
L 462.219048 616.497789 
L 464.858588 615.437578 
L 467.486503 614.669451 
L 470.109332 613.784942 
L 472.740153 612.720977 
L 475.370974 612.279473 
L 477.994529 610.864858 
L 480.602101 610.885882 
L 485.811432 609.475773 
L 490.975717 607.01221 
L 493.535337 605.806334 
L 496.102222 605.300256 
L 498.667654 604.573426 
L 501.234539 603.504206 
L 506.328349 601.090951 
L 508.859633 600.512791 
L 511.390918 599.467598 
L 513.922202 598.607866 
L 518.954256 596.156318 
L 521.459385 594.461633 
L 523.963787 594.115488 
L 528.928272 591.525782 
L 531.406519 591.073015 
L 533.883312 589.155326 
L 536.359379 587.80153 
L 538.824548 586.639203 
L 541.293349 584.362605 
L 543.76433 583.773182 
L 546.22514 582.688944 
L 548.676504 579.979101 
L 551.119876 579.393432 
L 553.566881 577.811376 
L 556.007348 575.907953 
L 558.447814 574.503099 
L 560.878108 572.852715 
L 563.309856 570.452976 
L 565.732159 569.733655 
L 568.147922 567.406749 
L 570.569498 565.567149 
L 572.986715 565.13015 
L 575.385041 562.326449 
L 577.784095 559.833603 
L 580.176609 559.303498 
L 584.950739 555.115217 
L 587.325089 553.495618 
L 589.686362 550.489937 
L 592.045455 549.028018 
L 594.398009 547.734291 
L 596.743298 544.714344 
L 599.075509 543.033926 
L 601.388103 540.688999 
L 603.697791 538.793835 
L 606.011112 536.630616 
L 608.311355 535.372179 
L 610.604332 531.750795 
L 612.887865 530.301641 
L 615.162679 527.977738 
L 617.418602 526.003735 
L 619.670167 522.272726 
L 621.912286 521.273335 
L 624.144233 519.845205 
L 626.364556 515.822863 
L 628.577614 515.24245 
L 630.77832 511.283931 
L 632.967401 510.137373 
L 635.141225 507.033329 
L 637.307784 503.611673 
L 639.464171 502.523681 
L 641.614745 500.583466 
L 643.745703 496.950819 
L 645.865763 493.897834 
L 647.973471 493.156738 
L 650.073914 489.949077 
L 652.1591 486.130217 
L 654.231934 486.014585 
L 656.286604 481.798522 
L 658.334736 479.99196 
L 660.36979 477.914338 
L 662.394672 475.617466 
L 664.402844 471.726525 
L 666.392852 468.675041 
L 668.3785 468.228281 
L 670.347439 463.424297 
L 672.304025 461.969136 
L 674.248988 459.865234 
L 676.177239 457.264265 
L 678.100405 453.485952 
L 680.006134 452.627722 
L 681.896605 448.387632 
L 683.775452 445.555399 
L 685.633228 442.470127 
L 687.488099 440.10793 
L 689.325532 438.640005 
L 691.151341 435.737942 
L 692.961166 432.139834 
L 694.758639 431.701334 
L 696.546668 428.285685 
L 698.323071 425.842395 
L 700.09003 422.814189 
L 701.843184 421.2036 
L 703.575268 417.753411 
L 705.295728 414.872373 
L 707.001657 412.444101 
L 708.694508 408.396981 
L 710.375007 405.729936 
L 712.046062 405.624816 
L 713.6975 401.560426 
L 715.338039 400.015162 
L 716.967681 396.344222 
L 718.586424 394.968651 
L 720.194269 390.854705 
L 721.786857 387.962403 
L 723.364187 386.515502 
L 724.921174 384.111257 
L 726.469442 383.048794 
L 728.004633 380.203046 
L 729.525292 375.787255 
L 731.035054 373.953662 
L 732.536097 371.355696 
L 734.025515 370.426135 
L 735.506215 366.873079 
L 736.968751 364.469585 
L 738.419662 362.815447 
L 739.858222 357.37849 
L 741.281524 357.048113 
L 742.691749 354.235402 
L 744.093255 351.939281 
L 745.481684 350.496134 
L 746.854855 345.803277 
L 748.21858 342.260733 
L 749.569228 343.158007 
L 750.908252 339.412731 
L 752.232744 338.806039 
L 753.541252 332.556655 
L 754.844675 333.444168 
L 756.133567 331.145794 
L 757.413013 328.516293 
L 758.676476 323.637974 
L 759.927587 324.016406 
L 761.163441 321.662469 
L 762.391303 314.02475 
L 763.608993 316.807426 
L 764.811425 315.486669 
L 766.006593 311.159479 
L 767.189409 307.567378 
L 768.364959 308.692913 
L 769.528159 305.337333 
L 770.681186 304.154733 
L 771.817503 299.060167 
L 772.951641 300.372665 
L 774.070521 297.340704 
L 775.180682 295.834485 
L 776.279219 293.560889 
L 777.368311 292.511942 
L 778.444324 289.629401 
L 779.510167 286.254298 
L 780.566564 285.316478 
L 781.610609 282.98807 
L 782.643031 281.909088 
L 783.663827 276.433087 
L 784.678084 277.715551 
L 785.681444 275.395402 
L 786.675358 271.643369 
L 787.662007 272.131426 
L 788.639937 269.863838 
L 789.609148 268.146627 
L 790.572548 262.486666 
L 791.519963 263.76913 
L 792.459386 262.185573 
L 793.387911 259.601873 
L 795.223892 256.799674 
L 796.126261 253.013853 
L 797.022818 252.149616 
L 797.907751 248.372805 
L 798.786144 249.059839 
L 799.652186 247.23901 
L 800.513869 247.332867 
L 801.368287 244.849783 
L 802.211079 239.260402 
L 803.046607 239.463134 
L 803.876321 237.964423 
L 804.694412 238.048519 
L 805.50451 235.289119 
L 806.305163 233.45928 
L 807.10073 233.478051 
L 807.891938 228.439049 
L 808.670068 229.938511 
L 809.442386 227.527509 
L 810.210345 227.413378 
L 810.963772 224.762853 
L 811.710661 223.733427 
L 812.448831 218.490192 
L 813.181916 219.862008 
L 814.629921 217.05155 
L 816.050317 211.017662 
L 817.439472 211.792546 
L 818.798839 207.776211 
L 820.132776 205.622753 
L 821.44637 202.341507 
L 822.730176 199.901973 
L 823.990006 198.789202 
L 825.2215 194.269042 
L 826.433378 192.738045 
L 827.617647 189.579939 
L 828.778667 187.666755 
L 829.920796 185.110087 
L 832.131674 177.123219 
L 833.204782 175.575703 
L 834.261905 176.060006 
L 835.298686 173.308114 
L 836.31149 171.343121 
L 837.305404 168.711367 
L 838.278975 162.891473 
L 839.232929 164.502813 
L 840.165814 163.103966 
L 841.081261 160.205657 
L 841.982177 158.325511 
L 842.86493 155.637442 
L 843.728793 153.916478 
L 844.577398 149.861849 
L 845.407113 150.996394 
L 846.22157 148.45249 
L 847.02077 147.356239 
L 847.766206 145.093906 
L 848.537071 144.094515 
L 849.294131 141.571635 
L 850.035934 141.520577 
L 850.763206 138.654555 
L 851.831954 136.950861 
L 853.87282 127.581665 
L 854.843485 129.545907 
L 855.792353 124.140487 
L 856.713613 125.861451 
L 857.607264 120.229272 
L 859.319005 115.875051 
L 860.135642 117.985711 
L 860.932663 117.276902 
L 863.194399 110.106216 
L 864.140361 109.106825 
L 865.054355 105.682917 
L 865.934201 100.387121 
L 866.777721 103.709664 
L 867.591452 100.844393 
L 868.373215 99.435034 
L 869.125916 96.9084 
L 869.854641 97.051063 
L 870.710511 95.006479 
L 870.710511 95.006479 
" clip-path="url(#pa7428722e4)" style="fill: none; stroke: #ff0000; stroke-width: 4; stroke-linecap: square"/>
   </g>
   <g id="line2d_10">
    <path d="M 166.577531 632.982857 
L 528.928272 632.875485 
L 531.406519 632.182443 
L 533.883312 631.055407 
L 538.824548 628.483721 
L 541.293349 627.467061 
L 543.76433 626.008896 
L 546.22514 624.715169 
L 548.676504 623.255503 
L 551.119876 621.979046 
L 560.878108 616.394921 
L 563.309856 614.402146 
L 572.986715 608.537952 
L 575.385041 606.671321 
L 577.784095 604.354927 
L 580.176609 603.325502 
L 582.566943 600.705761 
L 584.950739 599.519407 
L 587.325089 597.878784 
L 589.686362 595.138155 
L 592.045455 593.515553 
L 594.398009 592.245854 
L 596.743298 589.62311 
L 599.075509 587.772998 
L 601.388103 585.678857 
L 603.697791 583.357958 
L 606.011112 582.433653 
L 610.604332 577.040997 
L 612.887865 575.383855 
L 615.162679 573.376814 
L 617.418602 571.019122 
L 619.670167 567.775419 
L 621.912286 566.97876 
L 624.144233 564.851582 
L 626.364556 561.465216 
L 628.577614 560.493607 
L 630.77832 557.42185 
L 632.967401 555.652831 
L 635.141225 553.075138 
L 637.307784 549.594915 
L 639.464171 548.090198 
L 641.614745 546.067389 
L 643.745703 543.421368 
L 645.865763 539.982442 
L 647.973471 539.136977 
L 650.073914 535.544126 
L 652.1591 532.238853 
L 654.231934 531.817622 
L 656.286604 527.981493 
L 658.334736 526.037523 
L 660.36979 523.814986 
L 662.394672 521.144187 
L 664.402844 517.640688 
L 666.392852 514.950367 
L 668.3785 513.648381 
L 670.347439 509.44283 
L 672.304025 508.002686 
L 676.177239 503.326347 
L 678.100405 499.867149 
L 680.006134 498.06359 
L 681.896605 493.927869 
L 683.775452 491.729359 
L 687.488099 485.640658 
L 689.325532 484.268091 
L 691.151341 481.723437 
L 692.961166 478.270245 
L 694.758639 477.746897 
L 696.546668 473.47452 
L 698.323071 471.826389 
L 700.09003 468.85825 
L 701.843184 467.131279 
L 703.575268 463.43556 
L 705.295728 460.615341 
L 707.001657 458.440858 
L 708.694508 454.287117 
L 710.375007 451.404576 
L 712.046062 450.821911 
L 713.6975 447.090902 
L 715.338039 445.360176 
L 716.967681 442.15777 
L 718.586424 440.398512 
L 720.194269 436.707298 
L 721.786857 434.008718 
L 723.364187 432.130073 
L 724.921174 429.605691 
L 726.469442 428.847326 
L 728.004633 425.603623 
L 729.525292 421.250153 
L 731.035054 419.891853 
L 732.536097 416.670675 
L 734.025515 416.072242 
L 735.506215 412.070925 
L 736.968751 409.816851 
L 738.419662 408.505104 
L 739.858222 403.935387 
L 741.281524 402.43968 
L 742.691749 399.597686 
L 744.093255 397.503545 
L 745.481684 395.79084 
L 746.854855 391.42836 
L 748.21858 388.471485 
L 749.569228 388.801111 
L 750.908252 387.061375 
L 752.232744 384.395832 
L 753.541252 378.771161 
L 754.844675 378.90181 
L 756.133567 376.868489 
L 757.413013 374.091819 
L 758.676476 369.406471 
L 759.927587 369.581421 
L 761.163441 367.424959 
L 762.391303 359.670106 
L 763.608993 362.238789 
L 764.811425 361.133527 
L 766.006593 356.665927 
L 767.189409 353.831441 
L 768.364959 354.304481 
L 769.528159 351.466241 
L 770.681186 349.300769 
L 771.817503 344.767094 
L 772.951641 346.455021 
L 774.070521 342.033223 
L 775.180682 341.549671 
L 776.279219 339.065085 
L 777.368311 338.134022 
L 779.510167 332.098632 
L 780.566564 330.956578 
L 782.643031 326.950755 
L 783.663827 322.586023 
L 784.678084 323.247528 
L 785.681444 320.690859 
L 786.675358 316.859986 
L 787.662007 317.638625 
L 789.609148 313.731165 
L 790.572548 308.54124 
L 791.519963 309.138922 
L 792.459386 307.274544 
L 793.387911 304.658558 
L 794.310624 303.931728 
L 795.223892 302.218272 
L 796.126261 298.953545 
L 797.022818 297.794222 
L 797.907751 293.953587 
L 798.786144 294.662397 
L 799.652186 292.341497 
L 800.513869 292.708666 
L 801.368287 289.70749 
L 802.211079 284.967329 
L 803.046607 284.944053 
L 803.876321 283.276399 
L 804.694412 283.316194 
L 805.50451 280.646897 
L 806.305163 278.720949 
L 807.10073 278.77501 
L 807.891938 273.979286 
L 808.670068 275.374378 
L 809.442386 272.681805 
L 810.210345 272.996414 
L 810.963772 269.764725 
L 811.710661 269.064926 
L 812.448831 264.194866 
L 813.181916 265.658287 
L 814.629921 261.569119 
L 816.050317 256.621721 
L 817.439472 256.746363 
L 818.798839 252.679721 
L 820.132776 250.691451 
L 821.44637 247.673757 
L 822.730176 245.234973 
L 823.990006 244.065137 
L 825.2215 239.672623 
L 826.433378 237.828518 
L 827.617647 234.65915 
L 828.778667 232.712928 
L 829.920796 230.511415 
L 831.037497 225.893643 
L 832.131674 222.571101 
L 833.204782 220.829863 
L 834.261905 221.486863 
L 835.298686 218.294969 
L 836.31149 216.155026 
L 837.305404 213.269482 
L 838.278975 207.507405 
L 839.232929 209.645095 
L 840.165814 207.749181 
L 842.86493 200.845049 
L 843.728793 199.265997 
L 844.577398 195.450891 
L 845.407113 195.827071 
L 846.22157 193.526445 
L 847.02077 192.391899 
L 847.766206 190.254209 
L 848.537071 188.87113 
L 849.294131 186.885864 
L 850.035934 186.323472 
L 850.763206 183.831377 
L 851.831954 181.944473 
L 853.87282 172.932686 
L 854.843485 174.358563 
L 855.792353 170.050145 
L 856.713613 170.362502 
L 857.607264 165.921933 
L 858.476212 162.790107 
L 859.319005 160.385112 
L 860.135642 162.955296 
L 860.932663 162.48601 
L 861.710066 159.387223 
L 862.463494 157.315608 
L 863.194399 154.599007 
L 864.140361 154.061393 
L 865.054355 150.376186 
L 865.934201 145.729882 
L 866.777721 148.257267 
L 867.591452 146.755553 
L 868.373215 144.861891 
L 869.125916 141.913275 
L 869.854641 141.62795 
L 870.710511 139.837155 
L 870.710511 139.837155 
" clip-path="url(#pa7428722e4)" style="fill: none; stroke-dasharray: 14.8,6.4; stroke-dashoffset: 0; stroke: #0000ff; stroke-width: 4"/>
   </g>
   <g id="line2d_11">
    <path d="M 166.577531 632.982857 
L 279.72754 632.901014 
L 288.612465 632.831184 
L 294.524365 632.82743 
L 312.077703 632.548111 
L 314.967901 632.554118 
L 320.759195 632.40695 
L 329.380383 632.247017 
L 335.093937 632.026265 
L 346.426593 631.652338 
L 349.236871 631.380528 
L 354.836356 631.176295 
L 360.409687 630.943529 
L 363.178551 630.652197 
L 371.442279 630.341342 
L 374.184262 629.838267 
L 376.916799 629.869053 
L 379.640618 629.4726 
L 382.357172 629.335944 
L 385.075178 629.058127 
L 387.78156 629.099424 
L 393.172527 627.973138 
L 395.868011 628.051227 
L 401.231369 627.400234 
L 403.896338 626.842347 
L 409.227002 626.32801 
L 414.540956 625.685277 
L 425.20301 624.073937 
L 427.852721 623.821649 
L 430.513331 623.04301 
L 438.456652 621.481978 
L 441.108543 621.127574 
L 449.039513 618.926811 
L 451.681233 618.61896 
L 459.581688 616.853695 
L 462.219048 616.545843 
L 464.858588 615.493893 
L 470.109332 613.838253 
L 472.740153 612.776541 
L 475.370974 612.332033 
L 477.994529 610.919671 
L 480.602101 610.940695 
L 483.211126 610.186834 
L 485.811432 609.555363 
L 493.535337 605.883672 
L 496.102222 605.362577 
L 498.667654 604.644758 
L 501.234539 603.584547 
L 506.328349 601.16904 
L 508.859633 600.595385 
L 511.390918 599.554697 
L 513.922202 598.677696 
L 518.954256 596.229151 
L 521.459385 594.538971 
L 523.963787 594.189823 
L 528.928272 591.633905 
L 531.406519 591.873429 
L 533.883312 591.082776 
L 538.824548 591.138339 
L 541.293349 589.878401 
L 543.76433 590.747143 
L 546.22514 590.956632 
L 548.676504 589.706455 
L 551.119876 590.397243 
L 553.566881 590.220792 
L 556.007348 589.714714 
L 558.447814 589.768776 
L 563.309856 589.032936 
L 565.732159 589.808571 
L 568.147922 589.041195 
L 570.569498 588.541125 
L 572.986715 589.575055 
L 575.385041 588.638736 
L 577.784095 588.461534 
L 582.566943 589.421129 
L 584.950739 588.578667 
L 587.325089 588.599691 
L 589.686362 588.334639 
L 592.045455 588.495322 
L 594.398009 588.471295 
L 596.743298 588.074091 
L 599.075509 588.243034 
L 601.388103 587.99375 
L 603.697791 588.417984 
L 606.011112 587.179821 
L 608.311355 588.557643 
L 610.604332 587.692656 
L 612.887865 587.900643 
L 615.162679 587.583782 
L 617.418602 587.96747 
L 619.670167 587.480163 
L 621.912286 587.277432 
L 624.144233 587.97648 
L 626.364556 587.340504 
L 628.577614 587.731701 
L 630.77832 586.844938 
L 632.967401 587.467399 
L 635.141225 586.941048 
L 637.307784 586.999615 
L 639.464171 587.416341 
L 641.614745 587.498935 
L 643.745703 586.511558 
L 645.865763 586.897498 
L 647.973471 587.001867 
L 650.073914 587.387808 
L 652.1591 586.874222 
L 654.231934 587.179821 
L 656.286604 586.799887 
L 660.36979 587.082209 
L 662.394672 587.456887 
L 666.392852 586.707531 
L 668.3785 587.562758 
L 670.347439 586.965075 
L 672.304025 586.949307 
L 674.248988 587.116749 
L 676.177239 586.920775 
L 678.100405 586.601661 
L 680.006134 587.547741 
L 681.896605 587.442621 
L 683.775452 586.808897 
L 685.633228 586.825416 
L 687.488099 587.450129 
L 689.325532 587.354019 
L 691.151341 586.997362 
L 692.961166 586.852447 
L 694.758639 586.936543 
L 696.546668 587.794022 
L 698.323071 586.998864 
L 700.09003 586.938045 
L 701.843184 587.055178 
L 703.575268 587.300709 
L 705.295728 587.239889 
L 707.001657 586.986099 
L 710.375007 587.308217 
L 712.046062 587.785762 
L 713.6975 587.452382 
L 715.338039 587.637843 
L 716.967681 587.170059 
L 718.586424 587.552997 
L 720.194269 587.131015 
L 721.786857 586.936543 
L 723.364187 587.368286 
L 724.921174 587.487672 
L 726.469442 587.184326 
L 728.004633 587.583031 
L 729.525292 587.519959 
L 731.035054 587.044666 
L 732.536097 587.667878 
L 734.025515 587.337501 
L 735.506215 587.785011 
L 736.968751 587.635591 
L 738.419662 587.292449 
L 739.858222 586.42596 
L 741.281524 587.592041 
L 742.691749 587.620574 
L 744.093255 587.418593 
L 745.481684 587.688151 
L 746.854855 587.357774 
L 748.21858 586.772105 
L 749.569228 587.339753 
L 750.908252 585.334214 
L 752.232744 587.393064 
L 753.541252 586.768351 
L 754.844675 587.525966 
L 756.133567 587.260162 
L 757.413013 587.40733 
L 758.676476 587.215111 
L 759.927587 587.417842 
L 761.163441 587.221118 
L 763.608993 587.552246 
L 764.811425 587.335999 
L 766.006593 587.476409 
L 767.189409 586.718794 
L 768.364959 587.371289 
L 769.528159 586.854699 
L 770.681186 587.836821 
L 771.817503 587.27593 
L 772.951641 586.899751 
L 774.070521 588.290338 
L 775.180682 587.268422 
L 776.279219 587.478662 
L 777.368311 587.360777 
L 778.444324 587.497433 
L 779.510167 587.138523 
L 780.566564 587.342757 
L 781.610609 587.011629 
L 782.643031 587.941941 
L 783.663827 586.829921 
L 784.678084 587.45088 
L 785.681444 587.6874 
L 786.675358 587.76624 
L 788.639937 587.106987 
L 789.609148 587.39832 
L 790.572548 586.928283 
L 791.519963 587.613065 
L 792.459386 587.893886 
L 793.387911 587.926173 
L 794.310624 587.335999 
L 795.223892 587.564259 
L 796.126261 587.043165 
L 797.022818 587.338251 
L 798.786144 587.380299 
L 799.652186 587.88037 
L 800.513869 587.607809 
L 801.368287 588.12515 
L 802.211079 587.275179 
L 803.876321 587.670881 
L 804.694412 587.715182 
L 805.50451 587.625079 
L 806.305163 587.721189 
L 807.10073 587.685898 
L 807.891938 587.442621 
L 808.670068 587.54699 
L 809.442386 587.82781 
L 810.210345 587.400573 
L 810.963772 587.980985 
L 812.448831 587.278183 
L 813.181916 587.186578 
L 814.629921 588.465288 
L 816.050317 587.378798 
L 817.439472 588.02904 
L 818.798839 588.079347 
L 822.730176 587.649857 
L 823.990006 587.706922 
L 825.2215 587.580027 
L 826.433378 587.892384 
L 828.778667 587.936685 
L 829.920796 587.581529 
L 831.037497 587.989245 
L 832.131674 587.534976 
L 833.204782 587.728697 
L 834.261905 587.556 
L 835.298686 587.995251 
L 837.305404 588.425493 
L 838.278975 588.366926 
L 839.232929 587.840575 
L 840.165814 588.337642 
L 841.081261 587.868357 
L 841.982177 588.505083 
L 842.86493 587.77525 
L 844.577398 587.393815 
L 845.407113 588.152181 
L 846.22157 587.908903 
L 847.02077 587.947197 
L 847.766206 587.822554 
L 848.537071 588.206242 
L 849.294131 587.668629 
L 850.035934 588.179962 
L 850.763206 587.806035 
L 851.831954 587.989245 
L 852.869461 587.602553 
L 853.87282 587.631837 
L 854.843485 588.170201 
L 855.792353 587.073199 
L 856.713613 588.481056 
L 857.607264 587.290197 
L 858.476212 588.049313 
L 859.319005 588.472797 
L 860.135642 588.013272 
L 860.932663 587.773749 
L 861.710066 588.498326 
L 862.463494 587.957709 
L 863.194399 588.490817 
L 864.140361 588.028289 
L 865.054355 588.289587 
L 865.934201 587.640096 
L 866.777721 588.435254 
L 867.591452 587.071697 
L 869.854641 588.40597 
L 870.710511 588.152181 
L 870.710511 588.152181 
" clip-path="url(#pa7428722e4)" style="fill: none; stroke-dasharray: 25.6,6.4,4,6.4; stroke-dashoffset: 0; stroke: #9467bd; stroke-width: 4"/>
   </g>
   <g id="patch_3">
    <path d="M 129.6 648 
L 129.6 17.28 
" style="fill: none; stroke: #000000; stroke-width: 0.8; stroke-linejoin: miter; stroke-linecap: square"/>
   </g>
   <g id="patch_4">
    <path d="M 928.8 648 
L 928.8 17.28 
" style="fill: none; stroke: #000000; stroke-width: 0.8; stroke-linejoin: miter; stroke-linecap: square"/>
   </g>
   <g id="patch_5">
    <path d="M 129.6 648 
L 928.8 648 
" style="fill: none; stroke: #000000; stroke-width: 0.8; stroke-linejoin: miter; stroke-linecap: square"/>
   </g>
   <g id="patch_6">
    <path d="M 129.6 17.28 
L 928.8 17.28 
" style="fill: none; stroke: #000000; stroke-width: 0.8; stroke-linejoin: miter; stroke-linecap: square"/>
   </g>
  </g>
  <g id="axes_2">
   <g id="matplotlib.axis_3">
    <g id="ytick_6">
     <g id="line2d_12">
      <defs>
       <path id="m2534fb0725" d="M 0 0 
L 3.5 0 
" style="stroke: #000000; stroke-width: 0.8"/>
      </defs>
      <g>
       <use xlink:href="#m2534fb0725" x="928.8" y="635.870769" style="stroke: #000000; stroke-width: 0.8"/>
      </g>
     </g>
     <g id="text_11">
      <!-- 0 -->
      <g transform="translate(935.8 657.316082) scale(0.6 -0.6)">
       <use xlink:href="#SimSun-30"/>
      </g>
     </g>
    </g>
    <g id="ytick_7">
     <g id="line2d_13">
      <g>
       <use xlink:href="#m2534fb0725" x="928.8" y="484.255385" style="stroke: #000000; stroke-width: 0.8"/>
      </g>
     </g>
     <g id="text_12">
      <!-- 25 -->
      <g transform="translate(935.8 505.700697) scale(0.6 -0.6)">
       <use xlink:href="#SimSun-32"/>
       <use xlink:href="#SimSun-35" x="50"/>
      </g>
     </g>
    </g>
    <g id="ytick_8">
     <g id="line2d_14">
      <g>
       <use xlink:href="#m2534fb0725" x="928.8" y="332.64" style="stroke: #000000; stroke-width: 0.8"/>
      </g>
     </g>
     <g id="text_13">
      <!-- 50 -->
      <g transform="translate(935.8 354.085312) scale(0.6 -0.6)">
       <use xlink:href="#SimSun-35"/>
       <use xlink:href="#SimSun-30" x="50"/>
      </g>
     </g>
    </g>
    <g id="ytick_9">
     <g id="line2d_15">
      <g>
       <use xlink:href="#m2534fb0725" x="928.8" y="181.024615" style="stroke: #000000; stroke-width: 0.8"/>
      </g>
     </g>
     <g id="text_14">
      <!-- 75 -->
      <g transform="translate(935.8 202.469928) scale(0.6 -0.6)">
       <defs>
        <path id="SimSun-37" d="M 2825 4200 
Q 2300 3350 1987 2537 
Q 1675 1725 1675 1125 
Q 1675 1025 1700 850 
Q 1700 650 1700 400 
Q 1700 200 1637 125 
Q 1575 50 1425 50 
Q 1300 50 1212 137 
Q 1125 225 1125 450 
Q 1125 925 1337 1625 
Q 1550 2325 2475 4000 
L 1225 4000 
Q 950 4000 787 3825 
Q 625 3650 550 3300 
L 400 3325 
L 575 4375 
L 2825 4375 
L 2825 4200 
z
" transform="scale(0.015625)"/>
       </defs>
       <use xlink:href="#SimSun-37"/>
       <use xlink:href="#SimSun-35" x="50"/>
      </g>
     </g>
    </g>
    <g id="ytick_10">
     <g id="line2d_16">
      <g>
       <use xlink:href="#m2534fb0725" x="928.8" y="29.409231" style="stroke: #000000; stroke-width: 0.8"/>
      </g>
     </g>
     <g id="text_15">
      <!-- 100 -->
      <g transform="translate(935.8 50.854543) scale(0.6 -0.6)">
       <use xlink:href="#SimSun-31"/>
       <use xlink:href="#SimSun-30" x="50"/>
       <use xlink:href="#SimSun-30" x="100"/>
      </g>
     </g>
    </g>
    <g id="text_16">
     <!--  $\mathrm{Valid\ Ratio\ (\%)}$ -->
     <g transform="translate(1072.4 536.34) rotate(-90) scale(0.6 -0.6)">
      <defs>
       <path id="STIXGeneral-Regular-56" d="M 4461 4237 
L 4461 4115 
Q 4262 4109 4134 3990 
Q 4006 3872 3872 3533 
L 2451 -70 
L 2355 -70 
L 794 3411 
Q 589 3866 467 3987 
Q 346 4109 102 4115 
L 102 4237 
L 1798 4237 
L 1798 4115 
L 1619 4102 
Q 1331 4083 1331 3904 
Q 1331 3776 1581 3219 
L 2554 1030 
L 3494 3392 
Q 3616 3699 3616 3853 
Q 3616 3898 3606 3933 
Q 3597 3968 3584 3993 
Q 3571 4019 3536 4038 
Q 3501 4058 3481 4067 
Q 3462 4077 3411 4086 
Q 3360 4096 3337 4099 
Q 3315 4102 3248 4108 
Q 3181 4115 3155 4115 
L 3155 4237 
L 4461 4237 
z
" transform="scale(0.015625)"/>
       <path id="STIXGeneral-Regular-6c" d="M 1645 0 
L 134 0 
L 134 96 
Q 435 122 531 221 
Q 627 320 627 589 
L 627 3590 
Q 627 3821 569 3910 
Q 512 4000 358 4000 
Q 224 4000 122 3987 
L 122 4090 
Q 730 4237 1133 4371 
L 1165 4346 
L 1165 557 
Q 1165 288 1254 201 
Q 1344 115 1645 96 
L 1645 0 
z
" transform="scale(0.015625)"/>
      </defs>
      <use xlink:href="#SimSun-20" transform="translate(0 0.40625)"/>
      <use xlink:href="#STIXGeneral-Regular-56" transform="translate(50 0.40625)"/>
      <use xlink:href="#STIXGeneral-Regular-61" transform="translate(122.199982 0.40625)"/>
      <use xlink:href="#STIXGeneral-Regular-6c" transform="translate(166.599976 0.40625)"/>
      <use xlink:href="#STIXGeneral-Regular-69" transform="translate(194.399963 0.40625)"/>
      <use xlink:href="#STIXGeneral-Regular-64" transform="translate(222.199951 0.40625)"/>
      <use xlink:href="#STIXGeneral-Regular-52" transform="translate(296.266356 0.40625)"/>
      <use xlink:href="#STIXGeneral-Regular-61" transform="translate(362.966353 0.40625)"/>
      <use xlink:href="#STIXGeneral-Regular-74" transform="translate(407.366347 0.40625)"/>
      <use xlink:href="#STIXGeneral-Regular-69" transform="translate(435.166334 0.40625)"/>
      <use xlink:href="#STIXGeneral-Regular-6f" transform="translate(462.966322 0.40625)"/>
      <use xlink:href="#STIXGeneral-Regular-28" transform="translate(537.032727 0.40625)"/>
      <use xlink:href="#STIXGeneral-Regular-25" transform="translate(570.332715 0.40625)"/>
      <use xlink:href="#STIXGeneral-Regular-29" transform="translate(645.032696 0.40625)"/>
     </g>
    </g>
   </g>
   <g id="line2d_17">
    <path d="M 222.678465 29.409231 
L 228.160977 29.409231 
L 237.41426 29.409231 
L 242.92438 29.409231 
L 250.274841 29.409231 
L 259.42786 29.409231 
L 270.345659 29.409231 
L 279.39115 29.409231 
L 286.599207 29.409231 
L 295.582942 29.409231 
L 306.302393 29.409231 
L 313.413094 29.409231 
L 322.290026 33.347592 
L 331.083406 29.409231 
L 339.838279 29.409231 
L 348.50088 31.117633 
L 357.093007 29.409231 
L 365.746163 31.622815 
L 374.231487 29.409231 
L 382.753865 33.28452 
L 391.099693 31.186163 
L 399.355429 31.337778 
L 407.542143 31.457858 
L 415.618423 30.108481 
L 423.668546 32.001247 
L 433.211721 30.916288 
L 442.636468 31.093374 
L 451.944242 31.575511 
L 461.121238 31.473626 
L 470.1769 31.59977 
L 479.103238 31.001192 
L 487.916961 30.362588 
L 496.570117 31.385689 
L 505.075785 31.094587 
L 513.532047 31.742288 
L 521.747097 30.657935 
L 529.815384 38.783307 
L 539.108627 96.925381 
L 548.281263 143.842458 
L 557.349277 187.981942 
L 566.294505 225.439433 
L 575.119852 259.414014 
L 583.78536 289.666135 
L 592.323722 316.065406 
L 600.689167 340.559781 
L 608.912208 361.887214 
L 617.006651 381.881645 
L 626.030345 401.709905 
L 634.832444 417.579184 
L 643.414399 434.789956 
L 651.774757 444.527909 
L 659.910613 458.702734 
L 668.783913 469.129627 
L 677.368774 482.113362 
L 685.729132 492.672464 
L 693.742929 496.732118 
L 702.321977 505.095222 
L 710.640196 512.783942 
L 719.331133 521.812335 
L 727.6014 527.81873 
L 736.202245 534.064677 
L 744.351905 536.711275 
L 752.691194 542.89597 
L 761.193956 547.610602 
L 769.664023 551.906169 
L 778.083958 556.91918 
L 786.364396 560.047309 
L 794.437769 564.192474 
L 802.649186 566.114957 
L 810.812651 569.00232 
L 818.814823 571.667718 
L 827.074918 573.85947 
L 835.286335 577.258081 
L 843.364793 578.561973 
L 851.513727 581.705263 
L 859.571116 584.900709 
L 867.568929 585.724284 
" clip-path="url(#pa7428722e4)" style="fill: none; stroke-dasharray: 4,6.6; stroke-dashoffset: 0; stroke: #ff7f0e; stroke-width: 4"/>
   </g>
   <g id="line2d_18">
    <path d="M 232.180226 29.409231 
L 240.408353 29.409231 
L 248.912568 29.409231 
L 257.598419 29.409231 
L 266.399791 29.409231 
L 275.305785 29.409231 
L 284.252465 29.409231 
L 293.285605 29.409231 
L 302.392126 35.792845 
L 311.606902 29.409231 
L 320.878348 35.661243 
L 330.20138 29.409231 
L 338.215176 29.409231 
L 346.270385 30.829564 
L 354.354657 29.409231 
L 362.464357 29.409231 
L 370.59876 29.409231 
L 378.734616 30.596076 
L 386.876284 29.916839 
L 395.040476 29.409231 
L 403.174879 29.409231 
L 411.31582 29.739146 
L 419.434966 29.98355 
L 427.549025 29.909562 
L 435.666718 29.621492 
L 443.764793 29.409231 
L 451.817823 30.361982 
L 459.840338 29.843457 
L 469.133581 29.409231 
L 478.35199 29.632409 
L 487.515908 29.906529 
L 496.607171 29.670009 
L 505.620694 29.640899 
L 514.523782 29.759766 
L 523.314982 30.173372 
L 532.004465 29.873174 
L 540.56971 29.776746 
L 549.008535 29.998105 
L 557.31295 29.940491 
L 565.48586 30.024789 
L 573.528718 32.849687 
L 582.622161 74.679765 
L 591.563756 112.222767 
L 600.386197 145.615146 
L 609.051705 180.641938 
L 617.546474 204.651144 
L 625.882857 231.761188 
L 634.035423 251.998809 
L 642.979198 275.488278 
L 651.687572 298.445879 
L 660.1511 319.647774 
L 668.374141 334.261072 
L 677.219832 352.947365 
L 685.759647 369.782737 
L 694.008118 379.77783 
L 702.750639 392.902264 
L 711.132068 410.190663 
L 719.181465 419.898899 
L 727.593408 428.710179 
L 735.622462 441.125659 
L 743.903627 450.127368 
L 752.349718 456.800264 
L 760.892439 467.272642 
L 768.920767 473.404575 
L 776.935289 478.717178 
L 785.288383 486.405897 
L 793.424965 491.190272 
L 801.674889 498.687956 
L 809.882673 505.027905 
L 817.900102 509.299214 
L 826.155111 512.204165 
L 834.322935 517.251744 
L 842.336732 522.316911 
L 850.362879 525.4038 
L 858.424628 528.320274 
L 860.521438 529.761226 
" clip-path="url(#pa7428722e4)" style="fill: none; stroke-dasharray: 4,6.6; stroke-dashoffset: 0; stroke: #1f77b4; stroke-width: 4"/>
   </g>
   <g id="line2d_19">
    <path d="M 239.072236 29.409231 
L 247.7639 29.409231 
L 256.613223 29.409231 
L 265.594778 29.409231 
L 274.67369 29.409231 
L 282.741251 29.409231 
L 290.900356 29.409231 
L 299.166264 29.409231 
L 307.520084 29.409231 
L 315.966175 29.409231 
L 324.480561 35.35498 
L 333.035633 29.409231 
L 341.664087 29.409231 
L 350.333228 29.409231 
L 359.061218 29.409231 
L 367.837161 29.409231 
L 376.657423 29.409231 
L 385.517644 30.323775 
L 394.396756 32.325098 
L 403.279501 30.551198 
L 412.187675 30.370472 
L 421.095849 30.190353 
L 430.004023 30.370472 
L 438.912923 29.972634 
L 447.797847 29.656061 
L 456.671873 31.289262 
L 465.513205 30.321349 
L 474.324748 29.563878 
L 483.075988 30.469932 
L 491.790175 30.235838 
L 500.436792 30.762246 
L 509.009302 30.542101 
L 517.498985 30.984211 
L 525.908023 30.374111 
L 534.242952 30.226741 
L 542.471806 30.509352 
L 550.588772 30.294058 
L 558.590217 30.266767 
L 567.591388 30.064816 
L 576.435626 30.372292 
L 585.114212 30.532398 
L 593.608981 30.218857 
L 601.946817 30.173372 
L 610.084126 30.766492 
L 619.039525 30.668245 
L 627.738454 30.163062 
L 636.213607 29.994466 
L 644.433015 30.413531 
L 653.275073 30.580308 
L 661.814162 30.229773 
L 670.055367 30.487519 
L 678.77246 30.210973 
L 687.151708 30.394124 
L 695.183668 30.289813 
L 703.544753 30.287387 
L 712.172481 30.352885 
L 720.351203 30.308007 
L 728.673781 30.402615 
L 737.061748 30.294665 
L 745.483863 48.80569 
L 753.916876 71.579534 
L 762.291039 92.185278 
L 770.527159 112.668516 
L 778.595446 132.305741 
L 786.816308 150.515961 
L 795.022639 167.237925 
L 803.139604 186.801162 
L 811.311061 199.972293 
L 819.373536 218.066073 
L 827.391692 236.284178 
L 835.515923 250.994509 
L 843.579851 268.158583 
L 848.389582 274.673193 
" clip-path="url(#pa7428722e4)" style="fill: none; stroke-dasharray: 4,6.6; stroke-dashoffset: 0; stroke: #d62728; stroke-width: 4"/>
   </g>
   <g id="patch_7">
    <path d="M 129.6 648 
L 129.6 17.28 
" style="fill: none; stroke: #000000; stroke-width: 0.8; stroke-linejoin: miter; stroke-linecap: square"/>
   </g>
   <g id="patch_8">
    <path d="M 928.8 648 
L 928.8 17.28 
" style="fill: none; stroke: #000000; stroke-width: 0.8; stroke-linejoin: miter; stroke-linecap: square"/>
   </g>
   <g id="patch_9">
    <path d="M 129.6 648 
L 928.8 648 
" style="fill: none; stroke: #000000; stroke-width: 0.8; stroke-linejoin: miter; stroke-linecap: square"/>
   </g>
   <g id="patch_10">
    <path d="M 129.6 17.28 
L 928.8 17.28 
" style="fill: none; stroke: #000000; stroke-width: 0.8; stroke-linejoin: miter; stroke-linecap: square"/>
   </g>
   <g id="legend_1">
    <g id="line2d_20">
     <path d="M 17.710312 779.9364 
L 62.710312 779.9364 
L 107.710312 779.9364 
" style="fill: none; stroke-dasharray: 4,6.6; stroke-dashoffset: 0; stroke: #ff7f0e; stroke-width: 4"/>
    </g>
    <g id="text_17">
     <!-- 4/7 log -->
     <g transform="translate(143.710312 795.6864) scale(0.45 -0.45)">
      <defs>
       <path id="TimesNewRomanPS-BoldMT-34" d="M 159 1597 
L 2172 4325 
L 2553 4325 
L 2553 1597 
L 2941 1597 
L 2941 950 
L 2553 950 
L 2553 0 
L 1694 0 
L 1694 950 
L 159 950 
L 159 1597 
z
M 463 1597 
L 1694 1597 
L 1694 3269 
L 463 1597 
z
" transform="scale(0.015625)"/>
       <path id="TimesNewRomanPS-BoldMT-2f" d="M 1797 4334 
L 406 -97 
L 6 -97 
L 1403 4334 
L 1797 4334 
z
" transform="scale(0.015625)"/>
       <path id="TimesNewRomanPS-BoldMT-37" d="M 1134 -88 
L 2288 3409 
L 1409 3409 
Q 894 3409 634 3275 
Q 453 3181 334 2922 
L 216 2922 
L 522 4238 
L 3047 4238 
L 1625 -88 
L 1134 -88 
z
" transform="scale(0.015625)"/>
       <path id="TimesNewRomanPS-BoldMT-20" transform="scale(0.015625)"/>
       <path id="TimesNewRomanPS-BoldMT-6c" d="M 1359 4238 
L 1359 606 
Q 1359 297 1431 211 
Q 1503 125 1713 113 
L 1713 0 
L 134 0 
L 134 113 
Q 328 119 422 225 
Q 484 297 484 606 
L 484 3631 
Q 484 3938 412 4023 
Q 341 4109 134 4122 
L 134 4238 
L 1359 4238 
z
" transform="scale(0.015625)"/>
       <path id="TimesNewRomanPS-BoldMT-6f" d="M 1594 3009 
Q 1975 3009 2303 2812 
Q 2631 2616 2801 2253 
Q 2972 1891 2972 1459 
Q 2972 838 2656 419 
Q 2275 -88 1603 -88 
Q 944 -88 587 375 
Q 231 838 231 1447 
Q 231 2075 595 2542 
Q 959 3009 1594 3009 
z
M 1606 2788 
Q 1447 2788 1333 2667 
Q 1219 2547 1183 2192 
Q 1147 1838 1147 1206 
Q 1147 872 1191 581 
Q 1225 359 1337 243 
Q 1450 128 1594 128 
Q 1734 128 1828 206 
Q 1950 313 1991 503 
Q 2053 800 2053 1703 
Q 2053 2234 1993 2432 
Q 1934 2631 1819 2722 
Q 1738 2788 1606 2788 
z
" transform="scale(0.015625)"/>
       <path id="TimesNewRomanPS-BoldMT-67" d="M 2091 2888 
L 3075 2888 
L 3075 2544 
L 2516 2544 
Q 2669 2391 2728 2266 
Q 2803 2097 2803 1913 
Q 2803 1600 2629 1370 
Q 2456 1141 2157 1011 
Q 1859 881 1628 881 
Q 1609 881 1253 897 
Q 1113 897 1017 805 
Q 922 713 922 584 
Q 922 472 1008 400 
Q 1094 328 1288 328 
L 1828 334 
Q 2484 334 2731 191 
Q 3084 -9 3084 -425 
Q 3084 -691 2921 -908 
Q 2759 -1125 2494 -1228 
Q 2091 -1381 1566 -1381 
Q 1172 -1381 847 -1304 
Q 522 -1228 381 -1092 
Q 241 -956 241 -806 
Q 241 -663 348 -548 
Q 456 -434 750 -356 
Q 344 -156 344 200 
Q 344 416 509 619 
Q 675 822 1034 972 
Q 616 1125 428 1375 
Q 241 1625 241 1953 
Q 241 2381 591 2695 
Q 941 3009 1491 3009 
Q 1781 3009 2091 2888 
z
M 1550 2816 
Q 1369 2816 1244 2633 
Q 1119 2450 1119 1875 
Q 1119 1409 1242 1236 
Q 1366 1063 1534 1063 
Q 1722 1063 1847 1234 
Q 1972 1406 1972 1903 
Q 1972 2463 1831 2666 
Q 1731 2816 1550 2816 
z
M 1366 -431 
Q 1047 -431 944 -484 
Q 766 -581 766 -747 
Q 766 -906 950 -1036 
Q 1134 -1166 1644 -1166 
Q 2078 -1166 2326 -1050 
Q 2575 -934 2575 -725 
Q 2575 -647 2528 -594 
Q 2444 -500 2273 -465 
Q 2103 -431 1366 -431 
z
" transform="scale(0.015625)"/>
      </defs>
      <use xlink:href="#TimesNewRomanPS-BoldMT-34"/>
      <use xlink:href="#TimesNewRomanPS-BoldMT-2f" x="50"/>
      <use xlink:href="#TimesNewRomanPS-BoldMT-37" x="77.783203"/>
      <use xlink:href="#TimesNewRomanPS-BoldMT-20" x="127.783203"/>
      <use xlink:href="#TimesNewRomanPS-BoldMT-6c" x="152.783203"/>
      <use xlink:href="#TimesNewRomanPS-BoldMT-6f" x="180.566406"/>
      <use xlink:href="#TimesNewRomanPS-BoldMT-67" x="230.566406"/>
     </g>
    </g>
    <g id="line2d_21">
     <path d="M 17.710312 843.646556 
L 62.710312 843.646556 
L 107.710312 843.646556 
" style="fill: none; stroke: #ff0000; stroke-width: 4; stroke-linecap: square"/>
    </g>
    <g id="text_18">
     <!-- total -->
     <g transform="translate(143.710312 859.396556) scale(0.45 -0.45)">
      <defs>
       <path id="TimesNewRomanPS-BoldMT-74" d="M 1375 3991 
L 1375 2922 
L 2069 2922 
L 2069 2613 
L 1375 2613 
L 1375 809 
Q 1375 556 1398 482 
Q 1422 409 1481 364 
Q 1541 319 1591 319 
Q 1794 319 1975 628 
L 2069 559 
Q 1816 -41 1247 -41 
Q 969 -41 776 114 
Q 584 269 531 459 
Q 500 566 500 1034 
L 500 2613 
L 119 2613 
L 119 2722 
Q 513 3000 789 3306 
Q 1066 3613 1272 3991 
L 1375 3991 
z
" transform="scale(0.015625)"/>
       <path id="TimesNewRomanPS-BoldMT-61" d="M 1828 431 
Q 1294 -41 869 -41 
Q 619 -41 453 123 
Q 288 288 288 534 
Q 288 869 575 1136 
Q 863 1403 1828 1847 
L 1828 2141 
Q 1828 2472 1792 2558 
Q 1756 2644 1656 2708 
Q 1556 2772 1431 2772 
Q 1228 2772 1097 2681 
Q 1016 2625 1016 2550 
Q 1016 2484 1103 2388 
Q 1222 2253 1222 2128 
Q 1222 1975 1108 1867 
Q 994 1759 809 1759 
Q 613 1759 480 1878 
Q 347 1997 347 2156 
Q 347 2381 525 2586 
Q 703 2791 1022 2900 
Q 1341 3009 1684 3009 
Q 2100 3009 2342 2832 
Q 2584 2656 2656 2450 
Q 2700 2319 2700 1847 
L 2700 713 
Q 2700 513 2715 461 
Q 2731 409 2762 384 
Q 2794 359 2834 359 
Q 2916 359 3000 475 
L 3094 400 
Q 2938 169 2770 64 
Q 2603 -41 2391 -41 
Q 2141 -41 2000 76 
Q 1859 194 1828 431 
z
M 1828 659 
L 1828 1638 
Q 1450 1416 1266 1163 
Q 1144 994 1144 822 
Q 1144 678 1247 569 
Q 1325 484 1466 484 
Q 1622 484 1828 659 
z
" transform="scale(0.015625)"/>
      </defs>
      <use xlink:href="#TimesNewRomanPS-BoldMT-74"/>
      <use xlink:href="#TimesNewRomanPS-BoldMT-6f" x="33.300781"/>
      <use xlink:href="#TimesNewRomanPS-BoldMT-74" x="83.300781"/>
      <use xlink:href="#TimesNewRomanPS-BoldMT-61" x="116.601562"/>
      <use xlink:href="#TimesNewRomanPS-BoldMT-6c" x="166.601562"/>
     </g>
    </g>
    <g id="line2d_22">
     <path d="M 359.963437 779.9364 
L 404.963437 779.9364 
L 449.963437 779.9364 
" style="fill: none; stroke-dasharray: 4,6.6; stroke-dashoffset: 0; stroke: #1f77b4; stroke-width: 4"/>
    </g>
    <g id="text_19">
     <!-- 4/6 log -->
     <g transform="translate(485.963437 795.6864) scale(0.45 -0.45)">
      <defs>
       <path id="TimesNewRomanPS-BoldMT-36" d="M 3006 4325 
L 3006 4238 
Q 2441 4094 2098 3867 
Q 1756 3641 1557 3317 
Q 1359 2994 1250 2516 
Q 1388 2609 1478 2638 
Q 1681 2700 1888 2700 
Q 2363 2700 2680 2354 
Q 2997 2009 2997 1413 
Q 2997 994 2825 644 
Q 2653 294 2337 103 
Q 2022 -88 1663 -88 
Q 1272 -88 940 126 
Q 609 341 423 753 
Q 238 1166 238 1650 
Q 238 2363 580 2977 
Q 922 3591 1551 3955 
Q 2181 4319 3006 4325 
z
M 1209 2263 
Q 1184 1831 1184 1631 
Q 1184 1200 1267 797 
Q 1350 394 1494 231 
Q 1597 116 1738 116 
Q 1881 116 1993 283 
Q 2106 450 2106 963 
Q 2106 1825 1897 2153 
Q 1763 2366 1534 2366 
Q 1409 2366 1209 2263 
z
" transform="scale(0.015625)"/>
      </defs>
      <use xlink:href="#TimesNewRomanPS-BoldMT-34"/>
      <use xlink:href="#TimesNewRomanPS-BoldMT-2f" x="50"/>
      <use xlink:href="#TimesNewRomanPS-BoldMT-36" x="77.783203"/>
      <use xlink:href="#TimesNewRomanPS-BoldMT-20" x="127.783203"/>
      <use xlink:href="#TimesNewRomanPS-BoldMT-6c" x="152.783203"/>
      <use xlink:href="#TimesNewRomanPS-BoldMT-6f" x="180.566406"/>
      <use xlink:href="#TimesNewRomanPS-BoldMT-67" x="230.566406"/>
     </g>
    </g>
    <g id="line2d_23">
     <path d="M 359.963437 843.646556 
L 404.963437 843.646556 
L 449.963437 843.646556 
" style="fill: none; stroke-dasharray: 14.8,6.4; stroke-dashoffset: 0; stroke: #0000ff; stroke-width: 4"/>
    </g>
    <g id="text_20">
     <!-- invalid -->
     <g transform="translate(485.963437 859.396556) scale(0.45 -0.45)">
      <defs>
       <path id="TimesNewRomanPS-BoldMT-69" d="M 919 4338 
Q 1122 4338 1262 4195 
Q 1403 4053 1403 3853 
Q 1403 3653 1261 3512 
Q 1119 3372 919 3372 
Q 719 3372 578 3512 
Q 438 3653 438 3853 
Q 438 4053 578 4195 
Q 719 4338 919 4338 
z
M 1356 2922 
L 1356 606 
Q 1356 297 1428 211 
Q 1500 125 1709 113 
L 1709 0 
L 131 0 
L 131 113 
Q 325 119 419 225 
Q 481 297 481 606 
L 481 2313 
Q 481 2622 409 2708 
Q 338 2794 131 2806 
L 131 2922 
L 1356 2922 
z
" transform="scale(0.015625)"/>
       <path id="TimesNewRomanPS-BoldMT-6e" d="M 1409 2922 
L 1409 2544 
Q 1634 2788 1840 2898 
Q 2047 3009 2284 3009 
Q 2569 3009 2756 2851 
Q 2944 2694 3006 2459 
Q 3056 2281 3056 1775 
L 3056 638 
Q 3056 300 3117 217 
Q 3178 134 3372 113 
L 3372 0 
L 1894 0 
L 1894 113 
Q 2059 134 2131 250 
Q 2181 328 2181 638 
L 2181 1938 
Q 2181 2297 2153 2390 
Q 2125 2484 2058 2536 
Q 1991 2588 1909 2588 
Q 1641 2588 1409 2203 
L 1409 638 
Q 1409 309 1470 221 
Q 1531 134 1697 113 
L 1697 0 
L 219 0 
L 219 113 
Q 403 131 481 231 
Q 534 300 534 638 
L 534 2288 
Q 534 2619 473 2700 
Q 413 2781 219 2806 
L 219 2922 
L 1409 2922 
z
" transform="scale(0.015625)"/>
       <path id="TimesNewRomanPS-BoldMT-76" d="M 1534 -88 
L 550 2178 
Q 372 2588 272 2697 
Q 200 2778 59 2806 
L 59 2922 
L 1613 2922 
L 1613 2806 
Q 1466 2806 1413 2753 
Q 1338 2684 1338 2591 
Q 1338 2475 1475 2156 
L 1956 1059 
L 2341 2006 
Q 2506 2413 2506 2581 
Q 2506 2678 2436 2739 
Q 2366 2800 2188 2806 
L 2188 2922 
L 3144 2922 
L 3144 2806 
Q 3006 2788 2918 2703 
Q 2831 2619 2656 2206 
L 1681 -88 
L 1534 -88 
z
" transform="scale(0.015625)"/>
       <path id="TimesNewRomanPS-BoldMT-64" d="M 3056 4238 
L 3056 875 
Q 3056 534 3075 472 
Q 3100 369 3170 319 
Q 3241 269 3416 256 
L 3416 153 
L 2181 -88 
L 2181 375 
Q 1959 106 1786 9 
Q 1613 -88 1394 -88 
Q 834 -88 509 413 
Q 247 819 247 1409 
Q 247 1881 409 2254 
Q 572 2628 855 2818 
Q 1138 3009 1463 3009 
Q 1672 3009 1834 2928 
Q 1997 2847 2181 2644 
L 2181 3525 
Q 2181 3859 2153 3928 
Q 2116 4019 2041 4062 
Q 1966 4106 1759 4106 
L 1759 4238 
L 3056 4238 
z
M 2181 2256 
Q 1950 2700 1616 2700 
Q 1500 2700 1425 2638 
Q 1309 2541 1236 2297 
Q 1163 2053 1163 1550 
Q 1163 997 1244 731 
Q 1325 466 1466 347 
Q 1538 288 1663 288 
Q 1938 288 2181 719 
L 2181 2256 
z
" transform="scale(0.015625)"/>
      </defs>
      <use xlink:href="#TimesNewRomanPS-BoldMT-69"/>
      <use xlink:href="#TimesNewRomanPS-BoldMT-6e" x="27.783203"/>
      <use xlink:href="#TimesNewRomanPS-BoldMT-76" x="83.398438"/>
      <use xlink:href="#TimesNewRomanPS-BoldMT-61" x="133.398438"/>
      <use xlink:href="#TimesNewRomanPS-BoldMT-6c" x="183.398438"/>
      <use xlink:href="#TimesNewRomanPS-BoldMT-69" x="211.181641"/>
      <use xlink:href="#TimesNewRomanPS-BoldMT-64" x="238.964844"/>
     </g>
    </g>
    <g id="line2d_24">
     <path d="M 708.516563 779.9364 
L 753.516563 779.9364 
L 798.516563 779.9364 
" style="fill: none; stroke-dasharray: 4,6.6; stroke-dashoffset: 0; stroke: #d62728; stroke-width: 4"/>
    </g>
    <g id="text_21">
     <!-- 8/7 log -->
     <g transform="translate(834.516563 795.6864) scale(0.45 -0.45)">
      <defs>
       <path id="TimesNewRomanPS-BoldMT-38" d="M 2181 2394 
Q 2628 2066 2801 1783 
Q 2975 1500 2975 1134 
Q 2975 622 2589 267 
Q 2203 -88 1541 -88 
Q 913 -88 569 221 
Q 225 531 225 978 
Q 225 1319 423 1575 
Q 622 1831 1084 2044 
Q 581 2428 439 2672 
Q 297 2916 297 3238 
Q 297 3663 658 3986 
Q 1019 4309 1647 4309 
Q 2253 4309 2579 4023 
Q 2906 3738 2906 3338 
Q 2906 3038 2729 2808 
Q 2553 2578 2181 2394 
z
M 1944 2553 
Q 2059 2709 2115 2903 
Q 2172 3097 2172 3328 
Q 2172 3734 1997 3950 
Q 1866 4116 1634 4116 
Q 1425 4116 1278 3964 
Q 1131 3813 1131 3588 
Q 1131 3359 1295 3114 
Q 1459 2869 1944 2553 
z
M 1319 1894 
Q 1222 1806 1181 1734 
Q 1119 1625 1069 1415 
Q 1019 1206 1019 978 
Q 1019 684 1094 486 
Q 1169 288 1308 200 
Q 1447 113 1594 113 
Q 1822 113 1978 280 
Q 2134 447 2134 738 
Q 2134 1344 1319 1894 
z
" transform="scale(0.015625)"/>
      </defs>
      <use xlink:href="#TimesNewRomanPS-BoldMT-38"/>
      <use xlink:href="#TimesNewRomanPS-BoldMT-2f" x="50"/>
      <use xlink:href="#TimesNewRomanPS-BoldMT-37" x="77.783203"/>
      <use xlink:href="#TimesNewRomanPS-BoldMT-20" x="127.783203"/>
      <use xlink:href="#TimesNewRomanPS-BoldMT-6c" x="152.783203"/>
      <use xlink:href="#TimesNewRomanPS-BoldMT-6f" x="180.566406"/>
      <use xlink:href="#TimesNewRomanPS-BoldMT-67" x="230.566406"/>
     </g>
    </g>
    <g id="line2d_25">
     <path d="M 708.516563 843.646556 
L 753.516563 843.646556 
L 798.516563 843.646556 
" style="fill: none; stroke-dasharray: 25.6,6.4,4,6.4; stroke-dashoffset: 0; stroke: #9467bd; stroke-width: 4"/>
    </g>
    <g id="text_22">
     <!-- valid -->
     <g transform="translate(834.516563 859.396556) scale(0.45 -0.45)">
      <use xlink:href="#TimesNewRomanPS-BoldMT-76"/>
      <use xlink:href="#TimesNewRomanPS-BoldMT-61" x="50"/>
      <use xlink:href="#TimesNewRomanPS-BoldMT-6c" x="100"/>
      <use xlink:href="#TimesNewRomanPS-BoldMT-69" x="127.783203"/>
      <use xlink:href="#TimesNewRomanPS-BoldMT-64" x="155.566406"/>
     </g>
    </g>
   </g>
  </g>
 </g>
 <defs>
  <clipPath id="pa7428722e4">
   <rect x="129.6" y="17.28" width="799.2" height="630.72"/>
  </clipPath>
 </defs>
</svg>
