<?xml version="1.0" encoding="utf-8" standalone="no"?>
<!DOCTYPE svg PUBLIC "-//W3C//DTD SVG 1.1//EN"
  "http://www.w3.org/Graphics/SVG/1.1/DTD/svg11.dtd">
<svg xmlns:xlink="http://www.w3.org/1999/xlink" width="1080pt" height="576pt" viewBox="0 0 1080 576" xmlns="http://www.w3.org/2000/svg" version="1.1">
 <metadata>
  <rdf:RDF xmlns:dc="http://purl.org/dc/elements/1.1/" xmlns:cc="http://creativecommons.org/ns#" xmlns:rdf="http://www.w3.org/1999/02/22-rdf-syntax-ns#">
   <cc:Work>
    <dc:type rdf:resource="http://purl.org/dc/dcmitype/StillImage"/>
    <dc:date>2023-11-10T14:04:49.617218</dc:date>
    <dc:format>image/svg+xml</dc:format>
    <dc:creator>
     <cc:Agent>
      <dc:title>Matplotlib v3.7.1, https://matplotlib.org/</dc:title>
     </cc:Agent>
    </dc:creator>
   </cc:Work>
  </rdf:RDF>
 </metadata>
 <defs>
  <style type="text/css">*{stroke-linejoin: round; stroke-linecap: butt}</style>
 </defs>
 <g id="figure_1">
  <g id="patch_1">
   <path d="M 0 576 
L 1080 576 
L 1080 0 
L 0 0 
z
" style="fill: #ffffff"/>
  </g>
  <g id="axes_1">
   <g id="patch_2">
    <path d="M 151.2 437.76 
L 1026 437.76 
L 1026 5.76 
L 151.2 5.76 
z
" style="fill: #ffffff"/>
   </g>
   <g id="matplotlib.axis_1">
    <g id="xtick_1">
     <g id="line2d_1">
      <defs>
       <path id="m10e44ab98d" d="M 0 0 
L 0 3.5 
" style="stroke: #000000; stroke-width: 0.8"/>
      </defs>
      <g>
       <use xlink:href="#m10e44ab98d" x="151.2" y="437.76" style="stroke: #000000; stroke-width: 0.8"/>
      </g>
     </g>
     <g id="text_1">
      <!-- 0 -->
      <g transform="translate(139.95 476.927969) scale(0.45 -0.45)">
       <defs>
        <path id="SimSun-30" d="M 1600 4225 
Q 1250 4225 1012 3687 
Q 775 3150 775 2250 
Q 775 1300 1012 775 
Q 1250 250 1600 250 
Q 1975 250 2187 775 
Q 2400 1300 2400 2250 
Q 2400 3150 2200 3687 
Q 2000 4225 1600 4225 
z
M 1600 50 
Q 1050 50 675 625 
Q 300 1200 300 2250 
Q 300 3225 662 3825 
Q 1025 4425 1600 4425 
Q 2150 4425 2512 3850 
Q 2875 3275 2875 2250 
Q 2875 1225 2512 637 
Q 2150 50 1600 50 
z
" transform="scale(0.015625)"/>
       </defs>
       <use xlink:href="#SimSun-30"/>
      </g>
     </g>
    </g>
    <g id="xtick_2">
     <g id="line2d_2">
      <g>
       <use xlink:href="#m10e44ab98d" x="326.16" y="437.76" style="stroke: #000000; stroke-width: 0.8"/>
      </g>
     </g>
     <g id="text_2">
      <!-- 20 -->
      <g transform="translate(303.66 476.927969) scale(0.45 -0.45)">
       <defs>
        <path id="SimSun-32" d="M 2325 3325 
Q 2325 3775 2125 4012 
Q 1925 4250 1525 4250 
Q 1225 4250 1012 4087 
Q 800 3925 800 3675 
Q 800 3525 900 3425 
Q 975 3325 975 3225 
Q 975 3100 912 3037 
Q 850 2975 725 2975 
Q 575 2975 487 3062 
Q 400 3150 400 3350 
Q 400 3875 775 4150 
Q 1150 4425 1575 4425 
Q 2175 4425 2462 4125 
Q 2750 3825 2750 3375 
Q 2750 3075 2612 2775 
Q 2475 2475 2175 2200 
Q 1450 1500 1062 1062 
Q 675 625 600 475 
L 2075 475 
Q 2300 475 2450 650 
Q 2600 825 2650 1175 
L 2800 1175 
L 2650 100 
L 325 100 
L 325 425 
Q 450 650 737 1000 
Q 1025 1350 1500 1825 
Q 1925 2250 2125 2625 
Q 2325 3000 2325 3325 
z
" transform="scale(0.015625)"/>
       </defs>
       <use xlink:href="#SimSun-32"/>
       <use xlink:href="#SimSun-30" x="50"/>
      </g>
     </g>
    </g>
    <g id="xtick_3">
     <g id="line2d_3">
      <g>
       <use xlink:href="#m10e44ab98d" x="501.12" y="437.76" style="stroke: #000000; stroke-width: 0.8"/>
      </g>
     </g>
     <g id="text_3">
      <!-- 40 -->
      <g transform="translate(478.62 476.927969) scale(0.45 -0.45)">
       <defs>
        <path id="SimSun-34" d="M 2300 575 
Q 2300 400 2400 325 
Q 2500 250 2675 250 
L 2900 250 
L 2900 100 
L 1250 100 
L 1250 250 
L 1525 250 
Q 1725 250 1812 325 
Q 1900 400 1900 575 
L 1900 1400 
L 225 1400 
L 225 1525 
L 2050 4425 
L 2300 4425 
L 2300 1550 
L 2975 1550 
L 2975 1400 
L 2300 1400 
L 2300 575 
z
M 1875 3800 
L 450 1550 
L 1900 1550 
L 1900 3800 
L 1875 3800 
z
" transform="scale(0.015625)"/>
       </defs>
       <use xlink:href="#SimSun-34"/>
       <use xlink:href="#SimSun-30" x="50"/>
      </g>
     </g>
    </g>
    <g id="xtick_4">
     <g id="line2d_4">
      <g>
       <use xlink:href="#m10e44ab98d" x="676.08" y="437.76" style="stroke: #000000; stroke-width: 0.8"/>
      </g>
     </g>
     <g id="text_4">
      <!-- 60 -->
      <g transform="translate(653.58 476.927969) scale(0.45 -0.45)">
       <defs>
        <path id="SimSun-36" d="M 775 1800 
Q 775 1050 1037 637 
Q 1300 225 1675 225 
Q 2050 225 2250 500 
Q 2450 775 2450 1525 
Q 2450 2025 2237 2300 
Q 2025 2575 1725 2575 
Q 1450 2575 1212 2412 
Q 975 2250 775 1800 
z
M 1750 2825 
Q 2350 2825 2612 2425 
Q 2875 2025 2875 1525 
Q 2875 775 2512 412 
Q 2150 50 1675 50 
Q 1000 50 650 562 
Q 300 1075 300 2050 
Q 300 3200 725 3812 
Q 1150 4425 1875 4425 
Q 2225 4425 2437 4225 
Q 2650 4025 2650 3875 
Q 2650 3725 2587 3650 
Q 2525 3575 2375 3575 
Q 2250 3575 2187 3637 
Q 2125 3700 2125 3825 
Q 2125 3875 2150 3925 
Q 2150 3975 2150 4025 
Q 2150 4125 2075 4187 
Q 2000 4250 1800 4250 
Q 1375 4250 1075 3862 
Q 775 3475 775 2175 
Q 925 2500 1187 2662 
Q 1450 2825 1750 2825 
z
" transform="scale(0.015625)"/>
       </defs>
       <use xlink:href="#SimSun-36"/>
       <use xlink:href="#SimSun-30" x="50"/>
      </g>
     </g>
    </g>
    <g id="xtick_5">
     <g id="line2d_5">
      <g>
       <use xlink:href="#m10e44ab98d" x="851.04" y="437.76" style="stroke: #000000; stroke-width: 0.8"/>
      </g>
     </g>
     <g id="text_5">
      <!-- 80 -->
      <g transform="translate(828.54 476.927969) scale(0.45 -0.45)">
       <defs>
        <path id="SimSun-38" d="M 625 1125 
Q 625 725 887 475 
Q 1150 225 1550 225 
Q 2025 225 2237 475 
Q 2450 725 2450 1100 
Q 2450 1425 2150 1725 
Q 1850 2025 1250 2275 
Q 950 2075 787 1775 
Q 625 1475 625 1125 
z
M 2825 1175 
Q 2825 700 2475 375 
Q 2125 50 1550 50 
Q 1025 50 650 375 
Q 275 700 275 1125 
Q 275 1550 487 1850 
Q 700 2150 1100 2375 
Q 750 2550 562 2812 
Q 375 3075 375 3400 
Q 375 3825 700 4125 
Q 1025 4425 1600 4425 
Q 2125 4425 2450 4125 
Q 2775 3825 2775 3400 
Q 2775 3100 2587 2837 
Q 2400 2575 2000 2375 
Q 2425 2125 2625 1825 
Q 2825 1525 2825 1175 
z
M 2425 3375 
Q 2425 3725 2225 3987 
Q 2025 4250 1600 4250 
Q 1125 4250 925 4000 
Q 725 3750 725 3475 
Q 725 3200 1012 2937 
Q 1300 2675 1825 2475 
Q 2125 2625 2275 2850 
Q 2425 3075 2425 3375 
z
" transform="scale(0.015625)"/>
       </defs>
       <use xlink:href="#SimSun-38"/>
       <use xlink:href="#SimSun-30" x="50"/>
      </g>
     </g>
    </g>
    <g id="xtick_6">
     <g id="line2d_6">
      <g>
       <use xlink:href="#m10e44ab98d" x="1026" y="437.76" style="stroke: #000000; stroke-width: 0.8"/>
      </g>
     </g>
     <g id="text_6">
      <!-- 100 -->
      <g transform="translate(992.25 476.927969) scale(0.45 -0.45)">
       <defs>
        <path id="SimSun-31" d="M 1825 4450 
L 1825 650 
Q 1825 450 1950 350 
Q 2075 250 2300 250 
L 2550 250 
L 2550 100 
L 725 100 
L 725 250 
L 950 250 
Q 1200 250 1312 350 
Q 1425 450 1425 650 
L 1425 3675 
Q 1425 3775 1362 3837 
Q 1300 3900 1175 3900 
L 725 3900 
L 725 4050 
L 950 4050 
Q 1250 4050 1437 4150 
Q 1625 4250 1725 4450 
L 1825 4450 
z
" transform="scale(0.015625)"/>
       </defs>
       <use xlink:href="#SimSun-31"/>
       <use xlink:href="#SimSun-30" x="50"/>
       <use xlink:href="#SimSun-30" x="100"/>
      </g>
     </g>
    </g>
    <g id="text_7">
     <!-- $\mathrm{latency\ ( \mu s )}$ -->
     <g transform="translate(456.44 525.36875) scale(0.56 -0.56)">
      <defs>
       <path id="STIXGeneral-Regular-6c" d="M 1645 0 
L 134 0 
L 134 96 
Q 435 122 531 221 
Q 627 320 627 589 
L 627 3590 
Q 627 3821 569 3910 
Q 512 4000 358 4000 
Q 224 4000 122 3987 
L 122 4090 
Q 730 4237 1133 4371 
L 1165 4346 
L 1165 557 
Q 1165 288 1254 201 
Q 1344 115 1645 96 
L 1645 0 
z
" transform="scale(0.015625)"/>
       <path id="STIXGeneral-Regular-61" d="M 2829 422 
L 2829 243 
Q 2586 -64 2253 -64 
Q 1888 -64 1843 403 
L 1837 403 
Q 1427 -64 909 -64 
Q 608 -64 422 112 
Q 237 288 237 602 
Q 237 1050 685 1350 
Q 992 1555 1837 1869 
L 1837 2214 
Q 1837 2502 1699 2646 
Q 1562 2790 1338 2790 
Q 1146 2790 1018 2697 
Q 890 2605 890 2477 
Q 890 2419 909 2348 
Q 928 2278 928 2208 
Q 928 2112 841 2029 
Q 755 1946 634 1946 
Q 525 1946 441 2029 
Q 358 2112 358 2240 
Q 358 2547 685 2752 
Q 986 2944 1421 2944 
Q 1939 2944 2176 2656 
Q 2291 2522 2323 2384 
Q 2355 2246 2355 1946 
L 2355 723 
Q 2355 301 2554 301 
Q 2682 301 2829 422 
z
M 1837 813 
L 1837 1715 
Q 1248 1510 1018 1293 
Q 800 1094 800 800 
Q 800 557 921 432 
Q 1043 307 1242 307 
Q 1453 307 1613 410 
Q 1747 506 1792 589 
Q 1837 672 1837 813 
z
" transform="scale(0.015625)"/>
       <path id="STIXGeneral-Regular-74" d="M 1702 493 
L 1786 422 
Q 1478 -64 1011 -64 
Q 448 -64 448 749 
L 448 2675 
L 109 2675 
Q 83 2694 83 2720 
Q 83 2771 192 2842 
Q 435 2982 813 3526 
Q 826 3546 874 3606 
Q 922 3667 941 3706 
Q 986 3706 986 3622 
L 986 2880 
L 1632 2880 
L 1632 2675 
L 986 2675 
L 986 845 
Q 986 538 1062 403 
Q 1139 269 1318 269 
Q 1510 269 1702 493 
z
" transform="scale(0.015625)"/>
       <path id="STIXGeneral-Regular-65" d="M 2611 1050 
L 2714 1005 
Q 2330 -64 1376 -64 
Q 813 -64 486 329 
Q 160 723 160 1389 
Q 160 2074 525 2509 
Q 890 2944 1485 2944 
Q 2061 2944 2374 2502 
Q 2560 2246 2592 1773 
L 621 1773 
Q 646 1370 700 1158 
Q 755 947 915 730 
Q 1184 378 1626 378 
Q 1939 378 2153 531 
Q 2368 685 2611 1050 
z
M 634 1978 
L 1939 1978 
Q 1882 2381 1750 2547 
Q 1619 2714 1312 2714 
Q 1043 2714 864 2525 
Q 685 2336 634 1978 
z
" transform="scale(0.015625)"/>
       <path id="STIXGeneral-Regular-6e" d="M 3104 0 
L 1773 0 
L 1779 96 
Q 2016 115 2096 233 
Q 2176 352 2176 672 
L 2176 1946 
Q 2176 2592 1709 2592 
Q 1549 2592 1408 2515 
Q 1267 2438 1050 2227 
L 1050 461 
Q 1050 269 1136 192 
Q 1222 115 1466 96 
L 1466 0 
L 115 0 
L 115 96 
Q 358 115 435 214 
Q 512 314 512 602 
L 512 2157 
Q 512 2394 467 2483 
Q 422 2573 288 2573 
Q 160 2573 102 2547 
L 102 2656 
Q 550 2784 979 2944 
L 1030 2925 
L 1030 2426 
L 1037 2426 
Q 1491 2944 1958 2944 
Q 2323 2944 2518 2688 
Q 2714 2432 2714 1958 
L 2714 544 
Q 2714 288 2790 205 
Q 2867 122 3104 96 
L 3104 0 
z
" transform="scale(0.015625)"/>
       <path id="STIXGeneral-Regular-63" d="M 2547 998 
L 2637 941 
Q 2362 403 2112 205 
Q 1786 -64 1376 -64 
Q 845 -64 502 336 
Q 160 736 160 1357 
Q 160 2170 698 2618 
Q 1094 2944 1562 2944 
Q 1965 2944 2256 2749 
Q 2547 2554 2547 2285 
Q 2547 2176 2457 2096 
Q 2368 2016 2246 2016 
Q 2022 2016 1939 2310 
L 1901 2451 
Q 1850 2630 1773 2694 
Q 1696 2758 1523 2758 
Q 1133 2758 893 2451 
Q 653 2144 653 1645 
Q 653 1094 928 745 
Q 1203 397 1645 397 
Q 1920 397 2118 528 
Q 2317 659 2547 998 
z
" transform="scale(0.015625)"/>
       <path id="STIXGeneral-Regular-79" d="M 3040 2880 
L 3040 2784 
Q 2925 2771 2854 2700 
Q 2784 2630 2720 2458 
L 1760 -160 
Q 1510 -838 1257 -1116 
Q 1005 -1395 640 -1395 
Q 435 -1395 313 -1289 
Q 192 -1184 192 -1024 
Q 192 -902 272 -816 
Q 352 -730 467 -730 
Q 653 -730 800 -813 
Q 883 -858 966 -858 
Q 1101 -858 1286 -576 
Q 1376 -448 1459 -211 
Q 1542 26 1542 115 
Q 1542 198 1274 762 
L 429 2566 
Q 346 2752 90 2790 
L 90 2880 
L 1402 2880 
L 1402 2784 
Q 1197 2778 1117 2739 
Q 1037 2701 1037 2611 
Q 1037 2541 1120 2349 
L 1837 749 
L 2458 2515 
Q 2483 2573 2483 2630 
Q 2483 2784 2189 2784 
L 2189 2880 
L 3040 2880 
z
" transform="scale(0.015625)"/>
       <path id="STIXGeneral-Regular-28" d="M 1946 -1030 
L 1869 -1133 
Q 1126 -710 716 32 
Q 307 774 307 1613 
Q 307 3386 1888 4326 
L 1946 4224 
Q 1293 3667 1075 3126 
Q 858 2586 858 1632 
Q 858 685 1082 96 
Q 1306 -493 1946 -1030 
z
" transform="scale(0.015625)"/>
       <path id="STIXGeneral-Regular-3bc" d="M 3206 678 
L 3302 634 
Q 2963 -64 2598 -64 
Q 2208 -64 2208 454 
L 2195 454 
Q 1837 -64 1395 -64 
Q 1082 -64 992 115 
L 979 115 
L 979 -838 
Q 979 -1171 877 -1389 
L 352 -1389 
Q 454 -1152 454 -845 
L 454 2880 
L 992 2880 
L 992 883 
Q 992 621 1161 464 
Q 1331 307 1542 307 
Q 1843 307 2061 506 
Q 2150 582 2179 649 
Q 2208 717 2208 870 
L 2208 2880 
L 2746 2880 
L 2746 723 
Q 2746 358 2874 358 
Q 2970 358 3037 422 
Q 3104 486 3206 678 
z
" transform="scale(0.015625)"/>
       <path id="STIXGeneral-Regular-73" d="M 998 1926 
L 1664 1523 
Q 1984 1331 2105 1164 
Q 2227 998 2227 736 
Q 2227 416 1961 176 
Q 1696 -64 1331 -64 
Q 1030 -64 864 -6 
Q 691 51 570 51 
Q 461 51 416 -26 
L 333 -26 
L 333 979 
L 435 979 
Q 538 512 730 294 
Q 922 77 1248 77 
Q 1485 77 1632 211 
Q 1779 346 1779 550 
Q 1779 845 1440 1030 
L 1094 1222 
Q 326 1651 326 2150 
Q 326 2522 566 2730 
Q 806 2938 1210 2938 
Q 1491 2938 1638 2867 
Q 1754 2816 1818 2816 
Q 1862 2816 1920 2880 
L 1990 2880 
L 2022 2010 
L 1926 2010 
Q 1818 2445 1654 2621 
Q 1491 2797 1203 2797 
Q 986 2797 854 2688 
Q 723 2579 723 2362 
Q 723 2253 796 2128 
Q 870 2003 998 1926 
z
" transform="scale(0.015625)"/>
       <path id="STIXGeneral-Regular-29" d="M 186 4224 
L 262 4326 
Q 992 3891 1408 3148 
Q 1824 2406 1824 1581 
Q 1824 -166 243 -1133 
L 186 -1030 
Q 845 -486 1059 54 
Q 1274 595 1274 1562 
Q 1274 2534 1059 3120 
Q 845 3706 186 4224 
z
" transform="scale(0.015625)"/>
      </defs>
      <use xlink:href="#STIXGeneral-Regular-6c" transform="translate(0 0.703125)"/>
      <use xlink:href="#STIXGeneral-Regular-61" transform="translate(27.799988 0.703125)"/>
      <use xlink:href="#STIXGeneral-Regular-74" transform="translate(72.199982 0.703125)"/>
      <use xlink:href="#STIXGeneral-Regular-65" transform="translate(99.999969 0.703125)"/>
      <use xlink:href="#STIXGeneral-Regular-6e" transform="translate(144.399963 0.703125)"/>
      <use xlink:href="#STIXGeneral-Regular-63" transform="translate(194.399948 0.703125)"/>
      <use xlink:href="#STIXGeneral-Regular-79" transform="translate(238.799942 0.703125)"/>
      <use xlink:href="#STIXGeneral-Regular-28" transform="translate(312.866347 0.703125)"/>
      <use xlink:href="#STIXGeneral-Regular-3bc" transform="translate(346.166334 0.703125)"/>
      <use xlink:href="#STIXGeneral-Regular-73" transform="translate(398.966322 0.703125)"/>
      <use xlink:href="#STIXGeneral-Regular-29" transform="translate(437.866316 0.703125)"/>
     </g>
    </g>
   </g>
   <g id="matplotlib.axis_2">
    <g id="ytick_1">
     <g id="line2d_7">
      <defs>
       <path id="mb12b58a510" d="M 0 0 
L -3.5 0 
" style="stroke: #000000; stroke-width: 0.8"/>
      </defs>
      <g>
       <use xlink:href="#mb12b58a510" x="151.2" y="418.123636" style="stroke: #000000; stroke-width: 0.8"/>
      </g>
     </g>
     <g id="text_8">
      <!-- 0.0 -->
      <g transform="translate(76.7 434.207621) scale(0.45 -0.45)">
       <defs>
        <path id="SimSun-2e" d="M 800 25 
Q 650 25 537 125 
Q 425 225 425 400 
Q 425 575 537 675 
Q 650 775 800 775 
Q 950 775 1062 662 
Q 1175 550 1175 400 
Q 1175 225 1062 125 
Q 950 25 800 25 
z
" transform="scale(0.015625)"/>
       </defs>
       <use xlink:href="#SimSun-30"/>
       <use xlink:href="#SimSun-2e" x="50"/>
       <use xlink:href="#SimSun-30" x="100"/>
      </g>
     </g>
    </g>
    <g id="ytick_2">
     <g id="line2d_8">
      <g>
       <use xlink:href="#mb12b58a510" x="151.2" y="339.578182" style="stroke: #000000; stroke-width: 0.8"/>
      </g>
     </g>
     <g id="text_9">
      <!-- 0.2 -->
      <g transform="translate(76.7 355.662166) scale(0.45 -0.45)">
       <use xlink:href="#SimSun-30"/>
       <use xlink:href="#SimSun-2e" x="50"/>
       <use xlink:href="#SimSun-32" x="100"/>
      </g>
     </g>
    </g>
    <g id="ytick_3">
     <g id="line2d_9">
      <g>
       <use xlink:href="#mb12b58a510" x="151.2" y="261.032727" style="stroke: #000000; stroke-width: 0.8"/>
      </g>
     </g>
     <g id="text_10">
      <!-- 0.4 -->
      <g transform="translate(76.7 277.116712) scale(0.45 -0.45)">
       <use xlink:href="#SimSun-30"/>
       <use xlink:href="#SimSun-2e" x="50"/>
       <use xlink:href="#SimSun-34" x="100"/>
      </g>
     </g>
    </g>
    <g id="ytick_4">
     <g id="line2d_10">
      <g>
       <use xlink:href="#mb12b58a510" x="151.2" y="182.487273" style="stroke: #000000; stroke-width: 0.8"/>
      </g>
     </g>
     <g id="text_11">
      <!-- 0.6 -->
      <g transform="translate(76.7 198.571257) scale(0.45 -0.45)">
       <use xlink:href="#SimSun-30"/>
       <use xlink:href="#SimSun-2e" x="50"/>
       <use xlink:href="#SimSun-36" x="100"/>
      </g>
     </g>
    </g>
    <g id="ytick_5">
     <g id="line2d_11">
      <g>
       <use xlink:href="#mb12b58a510" x="151.2" y="103.941818" style="stroke: #000000; stroke-width: 0.8"/>
      </g>
     </g>
     <g id="text_12">
      <!-- 0.8 -->
      <g transform="translate(76.7 120.025803) scale(0.45 -0.45)">
       <use xlink:href="#SimSun-30"/>
       <use xlink:href="#SimSun-2e" x="50"/>
       <use xlink:href="#SimSun-38" x="100"/>
      </g>
     </g>
    </g>
    <g id="ytick_6">
     <g id="line2d_12">
      <g>
       <use xlink:href="#mb12b58a510" x="151.2" y="25.396364" style="stroke: #000000; stroke-width: 0.8"/>
      </g>
     </g>
     <g id="text_13">
      <!-- 1.0 -->
      <g transform="translate(76.7 41.480348) scale(0.45 -0.45)">
       <use xlink:href="#SimSun-31"/>
       <use xlink:href="#SimSun-2e" x="50"/>
       <use xlink:href="#SimSun-30" x="100"/>
      </g>
     </g>
    </g>
    <g id="text_14">
     <!-- $\mathrm{CDF}$ -->
     <g transform="translate(65.48125 276.36) rotate(-90) scale(0.56 -0.56)">
      <defs>
       <path id="STIXGeneral-Regular-43" d="M 3930 838 
L 4051 723 
Q 3482 -90 2304 -90 
Q 1376 -90 794 480 
Q 179 1082 179 2080 
Q 179 3014 755 3661 
Q 1357 4326 2310 4326 
Q 2720 4326 3072 4230 
Q 3475 4115 3514 4115 
Q 3725 4115 3782 4326 
L 3910 4326 
L 3968 2874 
L 3821 2874 
Q 3718 3334 3488 3584 
Q 3034 4070 2458 4070 
Q 1747 4070 1334 3548 
Q 922 3027 922 2182 
Q 922 1152 1382 653 
Q 1811 192 2522 192 
Q 2944 192 3251 339 
Q 3558 486 3930 838 
z
" transform="scale(0.015625)"/>
       <path id="STIXGeneral-Regular-44" d="M 102 4237 
L 1830 4237 
Q 3078 4237 3750 3654 
Q 4384 3110 4384 2138 
Q 4384 966 3514 410 
Q 2880 0 1901 0 
L 102 0 
L 102 122 
Q 474 147 570 252 
Q 666 358 666 736 
L 666 3520 
Q 666 3891 570 3990 
Q 474 4090 102 4115 
L 102 4237 
z
M 1318 3731 
L 1318 538 
Q 1318 365 1379 301 
Q 1440 237 1626 237 
Q 2125 237 2432 307 
Q 2739 378 3021 570 
Q 3686 1018 3686 2099 
Q 3686 3027 3078 3558 
Q 2803 3802 2476 3901 
Q 2150 4000 1658 4000 
Q 1472 4000 1395 3942 
Q 1318 3885 1318 3731 
z
" transform="scale(0.015625)"/>
       <path id="STIXGeneral-Regular-46" d="M 3494 3322 
L 3334 3322 
Q 3264 3757 3094 3875 
Q 2925 3994 2349 3994 
L 1504 3994 
Q 1370 3994 1328 3946 
Q 1286 3898 1286 3744 
L 1286 2355 
L 2195 2355 
Q 2598 2355 2736 2470 
Q 2874 2586 2918 2963 
L 3066 2963 
L 3066 1472 
L 2918 1472 
Q 2880 1862 2745 1977 
Q 2611 2093 2195 2093 
L 1286 2093 
L 1286 717 
Q 1286 352 1392 246 
Q 1498 141 1869 122 
L 1869 0 
L 70 0 
L 70 122 
Q 435 147 534 259 
Q 634 371 634 787 
L 634 3526 
Q 634 3878 538 3984 
Q 442 4090 77 4115 
L 77 4237 
L 3462 4237 
L 3494 3322 
z
" transform="scale(0.015625)"/>
      </defs>
      <use xlink:href="#STIXGeneral-Regular-43" transform="translate(0 0.40625)"/>
      <use xlink:href="#STIXGeneral-Regular-44" transform="translate(66.699997 0.40625)"/>
      <use xlink:href="#STIXGeneral-Regular-46" transform="translate(138.899979 0.40625)"/>
     </g>
    </g>
   </g>
   <g id="line2d_13">
    <path d="M 151.2 418.123636 
L 276.2964 417.926286 
L 290.2932 417.728936 
L 290.7306 417.531585 
L 292.9176 417.136884 
L 294.2298 416.742184 
L 294.2298 416.544833 
L 295.9794 416.150132 
L 298.6038 415.755432 
L 304.7274 415.360731 
L 304.7274 414.96603 
L 306.0396 414.76868 
L 306.0396 414.571329 
L 306.9144 414.373979 
L 306.9144 414.176629 
L 308.664 413.979278 
L 309.1014 413.781928 
L 309.9762 413.584577 
L 309.9762 412.992526 
L 310.851 412.597825 
L 310.851 412.400475 
L 314.7876 412.203125 
L 315.225 412.005774 
L 315.225 411.611074 
L 316.9746 411.413723 
L 316.9746 411.216373 
L 317.412 411.019022 
L 317.412 410.821672 
L 318.7242 410.624322 
L 318.7242 410.426971 
L 319.1616 410.229621 
L 321.3486 409.63757 
L 322.2234 409.242869 
L 324.8478 408.848168 
L 325.7226 408.453467 
L 327.0348 408.058767 
L 327.4722 407.861416 
L 327.4722 407.269365 
L 328.7844 406.677314 
L 328.7844 406.282613 
L 330.9714 406.085263 
L 330.9714 405.887912 
L 332.721 405.493212 
L 332.721 405.295861 
L 333.5958 405.098511 
L 333.5958 404.70381 
L 334.0332 404.50646 
L 334.0332 404.309109 
L 334.4706 404.111759 
L 334.4706 403.914408 
L 334.908 403.717058 
L 334.908 403.322357 
L 336.2202 402.730306 
L 336.2202 402.335605 
L 336.6576 402.138255 
L 336.6576 401.940905 
L 337.5324 401.546204 
L 337.5324 401.348853 
L 337.9698 401.151503 
L 338.8446 400.954153 
L 338.8446 400.559452 
L 339.7194 400.362101 
L 339.7194 399.967401 
L 340.1568 399.77005 
L 340.1568 399.5727 
L 342.7812 399.375349 
L 343.2186 399.177999 
L 343.2186 398.980649 
L 344.0934 398.585948 
L 345.4056 398.191247 
L 345.4056 397.796546 
L 346.2804 397.401846 
L 348.03 397.204495 
L 348.03 397.007145 
L 348.4674 396.809794 
L 348.4674 396.415094 
L 348.9048 396.217743 
L 348.9048 396.020393 
L 349.3422 395.823042 
L 349.3422 395.625692 
L 351.0918 395.428342 
L 351.0918 395.033641 
L 351.9666 394.63894 
L 351.9666 394.44159 
L 353.2788 393.849539 
L 354.1536 393.652188 
L 354.1536 393.454838 
L 355.0284 393.257487 
L 355.0284 393.060137 
L 355.4658 392.862787 
L 355.4658 392.665436 
L 355.9032 392.468086 
L 355.9032 392.270735 
L 356.778 391.876035 
L 356.778 391.678684 
L 358.0902 391.283984 
L 358.0902 390.889283 
L 358.5276 390.691932 
L 359.8398 390.297232 
L 362.9016 388.915779 
L 362.9016 388.718429 
L 363.7764 388.521078 
L 363.7764 388.323728 
L 365.0886 387.929027 
L 365.526 387.731677 
L 365.526 387.534326 
L 365.9634 387.336976 
L 365.9634 387.139625 
L 366.8382 386.744925 
L 366.8382 386.350224 
L 367.2756 386.152873 
L 368.1504 385.955523 
L 368.1504 385.758173 
L 368.5878 385.560822 
L 368.5878 385.363472 
L 369.0252 385.166122 
L 369.0252 384.771421 
L 369.4626 384.57407 
L 369.4626 383.982019 
L 369.9 383.784669 
L 369.9 382.797917 
L 370.3374 382.600566 
L 370.3374 382.008515 
L 370.7748 381.811165 
L 371.6496 381.613815 
L 371.6496 381.416464 
L 372.5244 381.219114 
L 372.5244 380.824413 
L 372.9618 380.627063 
L 372.9618 380.232362 
L 374.274 379.640311 
L 374.274 379.24561 
L 375.1488 379.048259 
L 375.1488 378.850909 
L 376.8984 378.061508 
L 376.8984 377.666807 
L 377.3358 377.469456 
L 377.3358 376.877405 
L 377.7732 376.680055 
L 377.7732 376.482704 
L 378.648 376.088004 
L 378.648 375.890653 
L 379.5228 375.495952 
L 379.5228 375.298602 
L 380.3976 375.101252 
L 380.3976 374.903901 
L 381.2724 374.509201 
L 382.5846 374.31185 
L 382.5846 374.1145 
L 383.022 373.917149 
L 383.8968 373.719799 
L 383.8968 373.127748 
L 384.3342 372.930397 
L 384.3342 372.535697 
L 385.6464 371.943646 
L 385.6464 371.548945 
L 386.0838 371.351594 
L 386.0838 371.154244 
L 386.5212 370.956894 
L 386.5212 370.759543 
L 386.9586 370.562193 
L 386.9586 370.364842 
L 387.396 370.167492 
L 387.396 369.772791 
L 387.8334 369.575441 
L 387.8334 369.18074 
L 388.7082 368.98339 
L 388.7082 368.391339 
L 389.583 367.996638 
L 389.583 367.601937 
L 390.8952 367.207236 
L 390.8952 367.009886 
L 391.3326 366.812535 
L 391.3326 366.220484 
L 391.77 366.023134 
L 391.77 365.233732 
L 392.2074 365.036382 
L 392.2074 364.641681 
L 392.6448 364.444331 
L 392.6448 363.85228 
L 393.5196 363.457579 
L 393.5196 363.260228 
L 393.957 363.062878 
L 393.957 362.865528 
L 394.3944 362.668177 
L 394.3944 362.273476 
L 395.2692 362.076126 
L 395.2692 361.681425 
L 395.7066 361.484075 
L 395.7066 361.286725 
L 396.5814 361.089374 
L 396.5814 360.497323 
L 397.0188 360.299973 
L 397.0188 359.905272 
L 398.7684 359.510571 
L 398.7684 358.721169 
L 400.0806 358.326469 
L 400.0806 357.931768 
L 400.518 357.734418 
L 400.518 357.142366 
L 400.9554 356.945016 
L 400.9554 356.550315 
L 402.2676 356.155614 
L 402.2676 355.760914 
L 402.705 355.563563 
L 402.705 355.366213 
L 403.1424 355.168862 
L 403.1424 354.774162 
L 403.5798 354.576811 
L 403.5798 354.379461 
L 404.0172 354.182111 
L 404.892 353.98476 
L 404.892 353.590059 
L 405.7668 353.195359 
L 405.7668 352.800658 
L 406.2042 352.603307 
L 406.2042 352.405957 
L 406.6416 352.208607 
L 406.6416 351.813906 
L 407.5164 351.616556 
L 407.5164 351.024504 
L 407.9538 350.827154 
L 407.9538 350.432453 
L 408.8286 350.037752 
L 408.8286 349.445701 
L 409.266 349.248351 
L 410.1408 349.051 
L 410.1408 348.6563 
L 410.5782 348.458949 
L 410.5782 348.261599 
L 411.0156 348.064249 
L 411.0156 347.866898 
L 411.453 347.669548 
L 411.453 347.077497 
L 411.8904 346.880146 
L 411.8904 346.485445 
L 412.3278 346.288095 
L 412.3278 345.893394 
L 412.7652 345.696044 
L 412.7652 345.103993 
L 413.2026 344.906642 
L 413.2026 344.511942 
L 413.64 344.314591 
L 413.64 343.130489 
L 414.0774 342.933138 
L 414.0774 342.735788 
L 414.5148 342.538438 
L 414.5148 341.946386 
L 415.3896 341.749036 
L 415.3896 341.354335 
L 415.827 341.156985 
L 415.827 340.959635 
L 416.2644 340.762284 
L 416.2644 340.564934 
L 416.7018 340.367583 
L 416.7018 339.775532 
L 417.1392 339.578182 
L 417.1392 339.183481 
L 418.014 338.986131 
L 418.014 338.78878 
L 418.4514 338.59143 
L 418.4514 338.394079 
L 419.3262 337.999379 
L 419.3262 337.802028 
L 419.7636 337.604678 
L 419.7636 336.815276 
L 420.201 336.617926 
L 420.201 336.420576 
L 420.6384 336.223225 
L 420.6384 335.631174 
L 421.0758 335.433824 
L 421.0758 335.039123 
L 421.5132 334.841772 
L 421.5132 334.249721 
L 421.9506 334.052371 
L 421.9506 333.262969 
L 422.388 333.065619 
L 422.388 332.473568 
L 422.8254 332.276217 
L 422.8254 332.078867 
L 423.2628 331.881517 
L 423.2628 331.486816 
L 423.7002 331.289466 
L 423.7002 330.697414 
L 424.1376 330.500064 
L 424.1376 329.908013 
L 424.575 329.710662 
L 424.575 328.131859 
L 425.8872 327.539808 
L 425.8872 327.342458 
L 426.3246 327.145107 
L 426.3246 325.961005 
L 426.762 325.763655 
L 426.762 325.368954 
L 427.1994 325.171603 
L 427.1994 324.974253 
L 427.6368 324.776903 
L 427.6368 324.382202 
L 428.0742 324.184852 
L 428.0742 323.39545 
L 428.949 323.000749 
L 428.949 322.606048 
L 429.3864 322.408698 
L 429.3864 321.421946 
L 429.8238 321.224596 
L 429.8238 320.237844 
L 430.2612 320.040493 
L 430.2612 319.448442 
L 430.6986 319.251092 
L 430.6986 318.066989 
L 431.136 317.869639 
L 431.136 317.672289 
L 431.5734 317.474938 
L 431.5734 316.882887 
L 432.0108 316.685537 
L 432.0108 316.488186 
L 432.4482 316.290836 
L 432.4482 316.093486 
L 432.8856 315.896135 
L 432.8856 315.698785 
L 433.323 315.501434 
L 433.323 314.909383 
L 433.7604 314.712033 
L 433.7604 314.317332 
L 434.6352 313.922631 
L 434.6352 313.527931 
L 435.0726 313.33058 
L 435.0726 312.146478 
L 435.51 311.949127 
L 435.51 311.159726 
L 435.9474 310.962376 
L 435.9474 310.765025 
L 436.3848 310.567675 
L 436.3848 310.370324 
L 436.8222 310.172974 
L 436.8222 309.975624 
L 437.2596 309.778273 
L 437.2596 309.186222 
L 437.697 308.988872 
L 437.697 307.804769 
L 438.1344 307.607419 
L 438.1344 306.620667 
L 438.5718 306.423317 
L 438.5718 306.028616 
L 439.0092 305.831265 
L 439.0092 305.041864 
L 439.4466 304.844513 
L 439.4466 303.857762 
L 439.884 303.660411 
L 439.884 302.673659 
L 440.3214 302.476309 
L 440.3214 301.489557 
L 440.7588 301.292206 
L 440.7588 300.897506 
L 441.1962 300.700155 
L 441.1962 299.713403 
L 441.6336 299.516053 
L 441.6336 298.529301 
L 442.5084 298.1346 
L 442.5084 297.739899 
L 442.9458 297.542549 
L 442.9458 296.161096 
L 443.8206 295.963746 
L 443.8206 295.569045 
L 444.258 295.371695 
L 444.258 294.187593 
L 444.6954 293.990242 
L 444.6954 293.595541 
L 445.1328 293.398191 
L 445.1328 293.200841 
L 445.5702 293.00349 
L 445.5702 291.819388 
L 446.0076 291.622037 
L 446.0076 290.635286 
L 446.445 290.437935 
L 446.445 289.648534 
L 446.8824 289.451183 
L 446.8824 289.253833 
L 447.3198 289.056482 
L 447.3198 288.267081 
L 447.7572 288.06973 
L 447.7572 287.87238 
L 448.1946 287.67503 
L 448.1946 286.885628 
L 448.632 286.688278 
L 448.632 286.096227 
L 449.0694 285.898876 
L 449.0694 285.109475 
L 449.5068 284.912124 
L 449.5068 283.530672 
L 449.9442 283.333321 
L 449.9442 282.93862 
L 450.3816 282.74127 
L 450.3816 281.754518 
L 450.819 281.557168 
L 450.819 281.162467 
L 451.2564 280.965116 
L 451.2564 280.767766 
L 452.1312 280.570416 
L 452.1312 279.978365 
L 452.5686 279.781014 
L 452.5686 278.991613 
L 453.006 278.794262 
L 453.006 278.399561 
L 453.4434 278.202211 
L 453.4434 277.215459 
L 453.8808 277.018109 
L 453.8808 276.228707 
L 454.3182 276.031357 
L 454.3182 275.834006 
L 454.7556 275.636656 
L 454.7556 274.255203 
L 455.193 274.057853 
L 455.193 273.663152 
L 455.6304 273.465802 
L 455.6304 272.47905 
L 456.0678 272.281699 
L 456.0678 272.084349 
L 456.5052 271.886999 
L 456.5052 271.492298 
L 456.9426 271.294947 
L 456.9426 270.702896 
L 457.38 270.505546 
L 457.38 269.321444 
L 457.8174 269.124093 
L 457.8174 268.729392 
L 458.2548 268.532042 
L 458.2548 268.334692 
L 458.6922 268.137341 
L 458.6922 267.74264 
L 459.1296 267.54529 
L 459.1296 266.755889 
L 459.567 266.558538 
L 459.567 265.769137 
L 460.0044 265.571786 
L 460.0044 265.177085 
L 460.4418 264.979735 
L 460.4418 263.795633 
L 460.8792 263.598282 
L 460.8792 263.203582 
L 461.3166 263.006231 
L 461.3166 262.808881 
L 461.754 262.61153 
L 461.754 262.41418 
L 462.1914 262.21683 
L 462.1914 261.624778 
L 462.6288 261.427428 
L 462.6288 260.638026 
L 463.0662 260.440676 
L 463.0662 259.059223 
L 463.5036 258.861873 
L 463.5036 258.072471 
L 463.941 257.875121 
L 463.941 257.08572 
L 464.3784 256.888369 
L 464.3784 256.098968 
L 464.8158 255.901617 
L 464.8158 255.309566 
L 465.2532 255.112216 
L 465.2532 254.717515 
L 465.6906 254.520164 
L 465.6906 253.928113 
L 466.128 253.730763 
L 466.128 252.744011 
L 466.5654 252.546661 
L 466.5654 251.362558 
L 467.4402 250.967857 
L 467.4402 249.981106 
L 467.8776 249.783755 
L 467.8776 249.191704 
L 468.315 248.994354 
L 468.315 248.797003 
L 468.7524 248.599653 
L 468.7524 247.41555 
L 469.1898 247.2182 
L 469.1898 246.823499 
L 469.6272 246.626149 
L 469.6272 246.034098 
L 470.0646 245.836747 
L 470.0646 245.442047 
L 470.502 245.244696 
L 470.502 244.455295 
L 470.9394 244.257944 
L 470.9394 244.060594 
L 471.3768 243.863243 
L 471.3768 243.665893 
L 471.8142 243.468543 
L 471.8142 242.481791 
L 472.2516 242.28444 
L 472.2516 241.692389 
L 472.689 241.495039 
L 472.689 240.705637 
L 473.1264 240.508287 
L 473.1264 239.324185 
L 473.5638 239.126834 
L 473.5638 238.140082 
L 474.0012 237.942732 
L 474.0012 237.745381 
L 474.4386 237.548031 
L 474.4386 236.561279 
L 474.876 236.363929 
L 474.876 235.574527 
L 475.3134 235.377177 
L 475.3134 233.798374 
L 475.7508 233.601023 
L 475.7508 233.206323 
L 476.1882 233.008972 
L 476.1882 232.219571 
L 476.6256 232.02222 
L 476.6256 231.035468 
L 477.063 230.838118 
L 477.063 230.640767 
L 477.5004 230.443417 
L 477.5004 229.654016 
L 478.3752 229.259315 
L 478.3752 229.061964 
L 478.8126 228.864614 
L 478.8126 227.285811 
L 479.25 227.08846 
L 479.25 226.299059 
L 479.6874 226.101709 
L 479.6874 224.720256 
L 480.5622 224.325555 
L 480.5622 223.733504 
L 480.9996 223.536153 
L 480.9996 222.549402 
L 481.437 222.352051 
L 481.437 221.167949 
L 481.8744 220.970598 
L 481.8744 220.575898 
L 482.3118 220.378547 
L 482.3118 219.786496 
L 482.7492 219.589146 
L 482.7492 219.194445 
L 483.1866 218.997095 
L 483.1866 218.207693 
L 483.624 218.010343 
L 483.624 217.220941 
L 484.0614 217.023591 
L 484.0614 216.43154 
L 484.4988 216.234189 
L 484.4988 215.642138 
L 484.9362 215.444788 
L 484.9362 214.852736 
L 485.3736 214.655386 
L 485.3736 214.063335 
L 485.811 213.865984 
L 485.811 213.273933 
L 486.2484 213.076583 
L 486.2484 212.484532 
L 486.6858 212.287181 
L 486.6858 211.300429 
L 487.1232 211.103079 
L 487.1232 210.511028 
L 487.5606 210.313677 
L 487.5606 209.918977 
L 487.998 209.721626 
L 487.998 209.129575 
L 488.4354 208.932225 
L 488.4354 208.340174 
L 488.8728 208.142823 
L 488.8728 207.156071 
L 489.3102 206.958721 
L 489.3102 205.577268 
L 489.7476 205.379918 
L 489.7476 204.590516 
L 490.6224 204.195815 
L 490.6224 203.406414 
L 491.0598 203.209063 
L 491.0598 202.814363 
L 491.4972 202.617012 
L 491.4972 202.222312 
L 491.9346 202.024961 
L 491.9346 201.827611 
L 492.372 201.63026 
L 492.372 201.038209 
L 492.8094 200.840859 
L 492.8094 199.262056 
L 493.2468 199.064705 
L 493.2468 198.867355 
L 493.6842 198.670005 
L 493.6842 198.077953 
L 494.1216 197.880603 
L 494.1216 197.683253 
L 494.559 197.485902 
L 494.559 196.3018 
L 494.9964 196.10445 
L 494.9964 195.709749 
L 495.4338 195.512398 
L 495.4338 195.315048 
L 495.8712 195.117698 
L 495.8712 194.130946 
L 496.3086 193.933595 
L 496.3086 193.341544 
L 496.746 193.144194 
L 496.746 192.354792 
L 497.1834 192.157442 
L 497.1834 191.17069 
L 497.6208 190.973339 
L 497.6208 190.578639 
L 498.0582 190.381288 
L 498.0582 189.986587 
L 498.4956 189.789237 
L 498.4956 189.591887 
L 498.933 189.394536 
L 498.933 188.802485 
L 499.3704 188.605135 
L 499.3704 188.407784 
L 499.8078 188.210434 
L 499.8078 187.223682 
L 500.6826 186.828981 
L 500.6826 186.23693 
L 501.12 186.03958 
L 501.12 185.447529 
L 501.9948 185.052828 
L 501.9948 184.658127 
L 502.8696 184.263426 
L 502.8696 183.671375 
L 503.307 183.474025 
L 503.307 182.684623 
L 503.7444 182.487273 
L 503.7444 182.289922 
L 504.1818 182.092572 
L 504.1818 180.90847 
L 504.6192 180.711119 
L 504.6192 179.921718 
L 505.0566 179.724367 
L 505.0566 179.329667 
L 505.494 179.132316 
L 505.494 178.737615 
L 506.3688 178.540265 
L 506.3688 177.948214 
L 506.8062 177.750863 
L 506.8062 176.369411 
L 507.2436 176.17206 
L 507.2436 175.77736 
L 507.681 175.580009 
L 507.681 175.185308 
L 508.1184 174.987958 
L 508.1184 174.593257 
L 508.5558 174.395907 
L 508.5558 173.803856 
L 508.9932 173.606505 
L 508.9932 173.014454 
L 509.4306 172.817104 
L 509.4306 172.225053 
L 509.868 172.027702 
L 509.868 171.633001 
L 510.3054 171.435651 
L 510.3054 171.238301 
L 512.4924 170.251549 
L 512.4924 169.659497 
L 512.9298 169.462147 
L 512.9298 169.067446 
L 513.3672 168.870096 
L 513.3672 168.475395 
L 514.242 168.278045 
L 514.242 167.488643 
L 514.6794 167.291293 
L 514.6794 166.501891 
L 515.1168 166.304541 
L 515.1168 165.71249 
L 515.5542 165.515139 
L 515.5542 164.923088 
L 515.9916 164.725738 
L 515.9916 163.936336 
L 516.429 163.738986 
L 516.429 163.541635 
L 517.3038 163.146935 
L 517.3038 162.357533 
L 517.7412 162.160183 
L 517.7412 161.765482 
L 518.616 161.370781 
L 518.616 160.384029 
L 519.0534 160.186679 
L 519.0534 159.791978 
L 519.4908 159.594628 
L 519.4908 159.002577 
L 519.9282 158.805226 
L 519.9282 158.213175 
L 520.3656 158.015825 
L 520.3656 157.621124 
L 521.2404 157.226423 
L 521.2404 156.634372 
L 521.6778 156.437021 
L 521.6778 155.45027 
L 522.1152 155.252919 
L 522.1152 155.055569 
L 522.5526 154.858218 
L 522.5526 153.871466 
L 522.99 153.674116 
L 522.99 152.490014 
L 523.8648 152.095313 
L 523.8648 151.305911 
L 524.3022 151.108561 
L 524.3022 150.51651 
L 524.7396 150.319159 
L 524.7396 149.135057 
L 525.6144 148.740356 
L 525.6144 147.161553 
L 526.0518 146.964203 
L 526.0518 145.977451 
L 527.364 145.3854 
L 527.364 144.793349 
L 527.8014 144.595998 
L 527.8014 144.398648 
L 528.2388 144.201297 
L 528.2388 143.609246 
L 528.6762 143.411896 
L 528.6762 143.017195 
L 529.1136 142.819845 
L 529.1136 142.227794 
L 529.9884 142.030443 
L 529.9884 141.833093 
L 530.4258 141.635742 
L 530.4258 141.438392 
L 530.8632 141.241042 
L 530.8632 140.846341 
L 532.1754 140.45164 
L 532.1754 139.464888 
L 532.6128 139.267538 
L 532.6128 138.872837 
L 533.4876 138.478136 
L 533.4876 137.688735 
L 533.925 137.491384 
L 533.925 137.294034 
L 534.3624 137.096683 
L 534.3624 136.109931 
L 534.7998 135.912581 
L 534.7998 135.715231 
L 535.2372 135.51788 
L 535.2372 135.12318 
L 536.112 134.728479 
L 536.112 133.939077 
L 536.5494 133.741727 
L 536.5494 132.952325 
L 536.9868 132.754975 
L 536.9868 132.162924 
L 537.4242 131.965573 
L 537.4242 131.570873 
L 537.8616 131.373522 
L 537.8616 131.176172 
L 538.299 130.978821 
L 538.299 130.584121 
L 538.7364 130.38677 
L 538.7364 129.992069 
L 539.1738 129.794719 
L 539.1738 129.400018 
L 540.486 128.807967 
L 540.486 128.610617 
L 540.9234 128.413266 
L 540.9234 128.215916 
L 541.3608 128.018566 
L 541.3608 127.821215 
L 542.2356 127.426514 
L 542.2356 127.229164 
L 543.5478 126.834463 
L 543.9852 126.637113 
L 543.9852 126.045062 
L 544.4226 125.847711 
L 544.4226 125.650361 
L 544.86 125.453011 
L 544.86 125.05831 
L 545.2974 124.860959 
L 546.6096 124.466259 
L 546.6096 124.071558 
L 547.047 123.874207 
L 547.047 122.887455 
L 547.4844 122.690105 
L 547.4844 122.492755 
L 548.3592 122.295404 
L 548.3592 121.900704 
L 548.7966 121.703353 
L 548.7966 121.506003 
L 549.234 121.308652 
L 549.234 121.111302 
L 549.6714 120.913952 
L 549.6714 120.716601 
L 550.1088 120.519251 
L 550.1088 120.12455 
L 550.5462 119.9272 
L 550.5462 119.532499 
L 550.9836 119.335148 
L 550.9836 119.137798 
L 551.421 118.940448 
L 551.421 118.348397 
L 551.8584 118.151046 
L 551.8584 117.558995 
L 552.2958 117.361645 
L 552.2958 116.572243 
L 552.7332 116.374893 
L 552.7332 115.388141 
L 553.1706 115.19079 
L 553.1706 114.99344 
L 553.608 114.79609 
L 553.608 114.401389 
L 554.4828 114.006688 
L 554.4828 113.809338 
L 554.9202 113.611987 
L 554.9202 113.414637 
L 555.3576 113.217286 
L 555.3576 113.019936 
L 556.2324 112.625235 
L 556.2324 112.427885 
L 556.6698 112.230534 
L 556.6698 111.835834 
L 557.5446 111.638483 
L 557.5446 111.441133 
L 557.982 111.243783 
L 557.982 110.651731 
L 558.4194 110.454381 
L 558.4194 109.86233 
L 558.8568 109.664979 
L 558.8568 109.072928 
L 559.7316 108.678228 
L 559.7316 108.480877 
L 560.6064 108.086176 
L 560.6064 107.691476 
L 561.9186 107.494125 
L 562.356 107.296775 
L 562.356 106.902074 
L 563.2308 106.507373 
L 563.2308 106.112672 
L 563.6682 105.915322 
L 563.6682 105.717972 
L 564.1056 105.520621 
L 564.1056 104.92857 
L 564.9804 104.73122 
L 564.9804 104.533869 
L 565.4178 104.336519 
L 565.4178 103.547117 
L 565.8552 103.349767 
L 565.8552 103.152417 
L 567.6048 102.363015 
L 567.6048 101.968314 
L 568.0422 101.770964 
L 568.0422 101.376263 
L 568.4796 101.178913 
L 568.4796 100.981562 
L 568.917 100.784212 
L 568.917 99.79746 
L 569.3544 99.60011 
L 569.3544 98.810708 
L 569.7918 98.613358 
L 569.7918 98.218657 
L 570.2292 98.021307 
L 570.2292 97.823956 
L 570.6666 97.626606 
L 570.6666 97.231905 
L 572.4162 96.442503 
L 572.4162 96.047803 
L 572.8536 95.850452 
L 572.8536 95.455751 
L 573.291 95.258401 
L 573.291 95.061051 
L 573.7284 94.8637 
L 573.7284 94.469 
L 574.6032 94.074299 
L 574.6032 93.284897 
L 575.0406 93.087547 
L 575.0406 92.890196 
L 575.478 92.692846 
L 575.478 92.298145 
L 577.665 91.311393 
L 577.665 89.929941 
L 578.1024 89.73259 
L 578.1024 89.53524 
L 578.9772 89.140539 
L 578.9772 88.745838 
L 579.4146 88.548488 
L 579.4146 88.351138 
L 580.2894 87.956437 
L 580.2894 87.167035 
L 580.7268 86.969685 
L 580.7268 86.180283 
L 581.6016 85.785582 
L 581.6016 85.193531 
L 582.9138 84.798831 
L 582.9138 84.206779 
L 583.3512 84.009429 
L 583.3512 83.417378 
L 584.226 83.022677 
L 584.226 82.627976 
L 584.6634 82.430626 
L 584.6634 82.035925 
L 585.1008 81.838575 
L 586.413 81.443874 
L 586.413 81.049173 
L 587.7252 80.457122 
L 587.7252 80.259772 
L 588.1626 80.062421 
L 588.1626 79.66772 
L 588.6 79.47037 
L 588.6 78.483618 
L 589.4748 78.088917 
L 589.4748 77.891567 
L 589.9122 77.694217 
L 589.9122 77.496866 
L 590.787 77.102165 
L 591.6618 76.904815 
L 591.6618 76.510114 
L 592.0992 76.312764 
L 592.0992 76.115413 
L 592.5366 75.918063 
L 592.5366 75.523362 
L 592.974 75.326012 
L 592.974 74.733961 
L 593.8488 74.33926 
L 593.8488 74.14191 
L 595.161 73.944559 
L 595.5984 73.747209 
L 597.7854 73.155158 
L 597.7854 72.563106 
L 598.6602 72.168406 
L 598.6602 71.971055 
L 599.535 71.576354 
L 599.535 71.379004 
L 599.9724 71.181654 
L 599.9724 70.984303 
L 600.8472 70.589603 
L 600.8472 70.392252 
L 602.1594 69.997551 
L 602.1594 69.800201 
L 603.0342 69.4055 
L 603.0342 69.20815 
L 603.909 69.010799 
L 603.909 68.813449 
L 604.3464 68.616099 
L 604.3464 68.418748 
L 605.2212 68.221398 
L 605.2212 68.024048 
L 605.6586 67.826697 
L 605.6586 67.629347 
L 607.4082 66.839945 
L 608.7204 66.445244 
L 609.1578 66.247894 
L 609.1578 66.050544 
L 609.5952 65.853193 
L 609.5952 65.458492 
L 610.9074 64.866441 
L 612.2196 64.471741 
L 612.2196 64.27439 
L 612.657 64.07704 
L 613.5318 63.879689 
L 613.5318 63.484989 
L 613.9692 63.287638 
L 613.9692 63.090288 
L 614.4066 62.892937 
L 614.4066 62.498237 
L 615.7188 62.300886 
L 615.7188 62.103536 
L 616.1562 61.906185 
L 616.1562 61.708835 
L 616.5936 61.511485 
L 616.5936 60.919434 
L 618.7806 59.932682 
L 618.7806 59.735331 
L 620.0928 59.14328 
L 620.0928 58.748579 
L 620.9676 58.353878 
L 623.1546 57.959178 
L 623.592 57.761827 
L 623.592 57.367127 
L 624.4668 56.972426 
L 627.966 56.183024 
L 627.966 55.985674 
L 628.8408 55.788323 
L 628.8408 55.196272 
L 629.7156 54.801571 
L 629.7156 54.604221 
L 631.0278 54.20952 
L 631.0278 54.01217 
L 631.4652 53.81482 
L 631.4652 53.617469 
L 631.9026 53.420119 
L 635.8392 53.025418 
L 637.1514 52.828068 
L 637.1514 52.630717 
L 639.3384 52.433367 
L 639.7758 52.236016 
L 639.7758 52.038666 
L 640.6506 51.841316 
L 640.6506 51.643965 
L 641.9628 51.249265 
L 642.4002 51.051914 
L 642.4002 50.854564 
L 642.8376 50.657213 
L 644.1498 50.262513 
L 645.0246 49.867812 
L 645.0246 49.670461 
L 645.462 49.473111 
L 647.649 49.07841 
L 647.649 48.88106 
L 648.0864 48.683709 
L 652.8978 48.486359 
L 653.3352 48.289009 
L 654.6474 48.091658 
L 654.6474 47.894308 
L 659.4588 46.710206 
L 660.3336 46.315505 
L 660.3336 46.118154 
L 660.771 45.920804 
L 660.771 45.328753 
L 661.6458 44.934052 
L 661.6458 44.736702 
L 662.5206 44.342001 
L 663.8328 44.144651 
L 663.8328 43.9473 
L 665.5824 43.74995 
L 666.4572 43.355249 
L 667.7694 43.157899 
L 667.7694 42.960548 
L 668.2068 42.763198 
L 668.2068 42.565847 
L 669.519 42.368497 
L 669.519 41.973796 
L 669.9564 41.776446 
L 669.9564 41.579095 
L 670.3938 41.381745 
L 670.3938 41.184395 
L 671.706 40.987044 
L 672.1434 40.789694 
L 674.3304 40.197643 
L 674.7678 40.000292 
L 676.5174 39.605592 
L 676.5174 39.408241 
L 679.5792 38.61884 
L 680.0166 38.421489 
L 680.0166 38.224139 
L 681.7662 38.026788 
L 681.7662 37.829438 
L 682.641 37.632088 
L 682.641 37.237387 
L 683.0784 37.040037 
L 684.3906 36.645336 
L 685.2654 36.250635 
L 686.1402 36.053285 
L 686.1402 35.855934 
L 686.5776 35.658584 
L 692.7012 34.869182 
L 692.7012 34.671832 
L 694.0134 34.474481 
L 694.4508 34.277131 
L 696.6378 33.68508 
L 697.0752 33.48773 
L 702.7614 33.290379 
L 703.1988 33.093029 
L 704.0736 32.895678 
L 707.1354 32.500978 
L 707.5728 32.303627 
L 715.446 32.106277 
L 715.446 31.908926 
L 719.3826 31.514226 
L 719.82 31.316875 
L 719.82 30.922175 
L 726.381 30.132773 
L 726.381 29.935423 
L 732.942 28.948671 
L 733.3794 28.75132 
L 739.0656 28.356619 
L 746.5014 28.159269 
L 758.3112 27.961919 
L 759.186 27.764568 
L 765.747 27.369868 
L 770.121 27.172517 
L 786.7422 26.777816 
L 789.804 26.580466 
L 798.9894 26.383116 
L 800.739 26.185765 
L 816.4854 25.988415 
L 994.0698 25.396364 
L 994.0698 25.396364 
" clip-path="url(#pa78e08d0fa)" style="fill: none; stroke: #ff0000; stroke-width: 5; stroke-linecap: square"/>
   </g>
   <g id="line2d_14">
    <path d="M 151.2 418.123636 
L 211.5612 417.929888 
L 218.5596 417.73614 
L 221.184 417.542392 
L 221.6214 417.348644 
L 228.1824 417.154896 
L 231.6816 416.7674 
L 232.5564 416.573652 
L 232.5564 416.379904 
L 232.9938 416.186156 
L 232.9938 415.79866 
L 233.4312 415.604912 
L 234.7434 415.411164 
L 235.6182 415.023668 
L 235.6182 414.82992 
L 236.493 414.636172 
L 236.493 414.442424 
L 236.9304 414.248676 
L 237.8052 414.054928 
L 237.8052 413.86118 
L 238.2426 413.667431 
L 238.2426 413.473683 
L 244.3662 412.698691 
L 246.1158 412.311195 
L 246.1158 411.923699 
L 247.8654 411.536203 
L 249.615 411.342455 
L 250.0524 411.148707 
L 250.0524 410.954959 
L 251.3646 410.761211 
L 251.3646 410.373715 
L 253.1142 410.179967 
L 253.5516 409.986219 
L 253.5516 409.792471 
L 254.8638 409.211227 
L 254.8638 408.823731 
L 256.6134 408.629983 
L 257.0508 408.436234 
L 258.8004 408.242486 
L 259.6752 407.85499 
L 260.9874 407.661242 
L 260.9874 407.273746 
L 262.2996 406.692502 
L 263.1744 406.498754 
L 263.1744 406.305006 
L 264.0492 405.91751 
L 264.0492 405.723762 
L 265.7988 404.94877 
L 265.7988 404.173778 
L 267.111 403.786282 
L 267.111 403.398785 
L 269.298 403.011289 
L 269.298 402.817541 
L 269.7354 402.623793 
L 269.7354 402.430045 
L 270.1728 402.236297 
L 270.1728 402.042549 
L 271.485 401.461305 
L 271.485 401.267557 
L 272.3598 400.880061 
L 272.3598 400.686313 
L 273.2346 400.298817 
L 273.2346 399.911321 
L 274.5468 399.523825 
L 274.5468 398.748833 
L 275.4216 398.361337 
L 275.4216 398.167588 
L 275.859 397.97384 
L 275.859 397.586344 
L 276.7338 397.392596 
L 276.7338 397.0051 
L 277.1712 396.811352 
L 277.1712 396.423856 
L 277.6086 396.230108 
L 277.6086 395.842612 
L 278.046 395.648864 
L 278.046 395.455116 
L 278.4834 395.261368 
L 278.4834 394.680124 
L 279.3582 394.486376 
L 279.3582 393.711384 
L 280.233 393.323888 
L 280.233 392.742643 
L 281.1078 392.355147 
L 281.1078 391.967651 
L 281.5452 391.773903 
L 281.5452 391.192659 
L 282.42 390.805163 
L 282.42 390.223919 
L 282.8574 390.030171 
L 282.8574 389.448927 
L 283.2948 389.255179 
L 283.2948 389.061431 
L 283.7322 388.867683 
L 283.7322 388.09269 
L 284.1696 387.898942 
L 284.1696 386.542706 
L 284.607 386.348958 
L 284.607 386.15521 
L 285.0444 385.961462 
L 285.0444 384.798974 
L 285.4818 384.605226 
L 285.4818 383.636486 
L 286.3566 383.24899 
L 286.3566 382.280249 
L 287.6688 381.699005 
L 287.6688 380.924013 
L 288.1062 380.730265 
L 288.981 380.536517 
L 288.981 380.149021 
L 289.4184 379.955273 
L 289.4184 378.405289 
L 289.8558 378.211541 
L 289.8558 377.630296 
L 290.2932 377.436548 
L 290.2932 377.049052 
L 291.6054 376.467808 
L 291.6054 375.886564 
L 292.0428 375.692816 
L 292.0428 375.499068 
L 292.4802 375.30532 
L 292.4802 375.111572 
L 292.9176 374.917824 
L 292.9176 374.33658 
L 293.355 374.142832 
L 293.355 373.755336 
L 293.7924 373.561588 
L 293.7924 372.205351 
L 295.1046 371.624107 
L 295.1046 371.430359 
L 295.542 371.236611 
L 295.542 370.461619 
L 296.4168 370.074123 
L 296.4168 369.492879 
L 297.2916 369.105383 
L 297.2916 368.717887 
L 297.729 368.524139 
L 297.729 368.136643 
L 298.1664 367.942895 
L 298.1664 367.749147 
L 298.6038 367.555398 
L 298.6038 367.36165 
L 299.0412 367.167902 
L 299.0412 366.780406 
L 299.4786 366.586658 
L 299.4786 365.811666 
L 299.916 365.617918 
L 299.916 364.45543 
L 300.3534 364.261682 
L 300.3534 363.292942 
L 300.7908 363.099194 
L 300.7908 362.711698 
L 301.2282 362.517949 
L 301.2282 361.355461 
L 301.6656 361.161713 
L 301.6656 360.774217 
L 302.103 360.580469 
L 302.103 360.386721 
L 302.9778 359.999225 
L 302.9778 359.417981 
L 303.4152 359.224233 
L 303.4152 358.836737 
L 303.8526 358.642989 
L 303.8526 358.061745 
L 304.29 357.867997 
L 304.29 357.480501 
L 304.7274 357.286752 
L 304.7274 356.705508 
L 305.1648 356.51176 
L 305.1648 355.930516 
L 305.6022 355.736768 
L 305.6022 355.155524 
L 306.0396 354.961776 
L 306.0396 354.186784 
L 306.477 353.993036 
L 306.477 353.799288 
L 306.9144 353.60554 
L 306.9144 353.218044 
L 307.3518 353.024296 
L 307.3518 352.443052 
L 307.7892 352.249303 
L 307.7892 351.280563 
L 308.2266 351.086815 
L 308.2266 350.893067 
L 308.664 350.699319 
L 308.664 349.730579 
L 309.1014 349.536831 
L 309.1014 349.149335 
L 309.5388 348.955587 
L 309.5388 347.986847 
L 309.9762 347.793099 
L 309.9762 347.599351 
L 310.4136 347.405603 
L 310.4136 346.63061 
L 310.851 346.436862 
L 310.851 346.243114 
L 311.2884 346.049366 
L 311.2884 345.855618 
L 311.7258 345.66187 
L 311.7258 345.468122 
L 312.1632 345.274374 
L 312.1632 343.918138 
L 312.6006 343.72439 
L 312.6006 342.75565 
L 313.038 342.561902 
L 313.038 342.174406 
L 313.4754 341.980657 
L 313.4754 341.593161 
L 313.9128 341.399413 
L 313.9128 340.043177 
L 314.3502 339.849429 
L 314.3502 338.686941 
L 314.7876 338.493193 
L 314.7876 338.299445 
L 315.225 338.105697 
L 315.225 337.718201 
L 315.6624 337.524453 
L 315.6624 336.943209 
L 316.0998 336.74946 
L 316.0998 336.555712 
L 316.5372 336.361964 
L 316.5372 335.005728 
L 316.9746 334.81198 
L 316.9746 334.618232 
L 317.412 334.424484 
L 317.412 334.036988 
L 317.8494 333.84324 
L 317.8494 332.8745 
L 318.2868 332.680752 
L 318.2868 332.487004 
L 318.7242 332.293256 
L 318.7242 331.518263 
L 319.1616 331.324515 
L 319.1616 330.743271 
L 319.599 330.549523 
L 319.599 329.968279 
L 320.0364 329.774531 
L 320.0364 328.418295 
L 320.4738 328.224547 
L 320.4738 327.449555 
L 320.9112 327.255807 
L 320.9112 326.674562 
L 321.3486 326.480814 
L 321.3486 326.093318 
L 321.786 325.89957 
L 321.786 324.737082 
L 322.2234 324.543334 
L 322.2234 324.155838 
L 322.6608 323.96209 
L 322.6608 322.99335 
L 323.0982 322.799602 
L 323.0982 321.249617 
L 323.5356 321.055869 
L 323.5356 320.474625 
L 323.973 320.280877 
L 323.973 319.312137 
L 324.8478 318.924641 
L 324.8478 318.149649 
L 325.2852 317.955901 
L 325.2852 316.987161 
L 325.7226 316.793413 
L 325.7226 316.405916 
L 326.16 316.212168 
L 326.16 314.855932 
L 326.5974 314.662184 
L 326.5974 313.305948 
L 327.0348 313.1122 
L 327.0348 312.337208 
L 327.4722 312.14346 
L 327.4722 311.368468 
L 327.9096 311.174719 
L 327.9096 310.399727 
L 328.347 310.205979 
L 328.347 309.043491 
L 328.7844 308.849743 
L 328.7844 308.655995 
L 329.2218 308.462247 
L 329.2218 306.524767 
L 329.6592 306.331019 
L 329.6592 305.556026 
L 330.0966 305.362278 
L 330.0966 304.587286 
L 330.534 304.393538 
L 330.534 303.037302 
L 330.9714 302.843554 
L 330.9714 301.487318 
L 331.4088 301.29357 
L 331.4088 300.131081 
L 331.8462 299.937333 
L 331.8462 297.999853 
L 332.2836 297.806105 
L 332.2836 297.031113 
L 332.721 296.837365 
L 332.721 296.256121 
L 333.1584 296.062373 
L 333.1584 295.093632 
L 333.5958 294.899884 
L 333.5958 294.706136 
L 334.0332 294.512388 
L 334.0332 293.543648 
L 334.4706 293.3499 
L 334.4706 292.962404 
L 334.908 292.768656 
L 334.908 292.38116 
L 335.3454 292.187412 
L 335.3454 291.799916 
L 335.7828 291.606168 
L 335.7828 290.831175 
L 336.2202 290.637427 
L 336.2202 290.056183 
L 336.6576 289.862435 
L 336.6576 288.506199 
L 337.095 288.312451 
L 337.095 287.924955 
L 337.5324 287.731207 
L 337.5324 287.149963 
L 337.9698 286.956215 
L 337.9698 286.181223 
L 338.4072 285.987475 
L 338.4072 285.018734 
L 338.8446 284.824986 
L 338.8446 284.243742 
L 339.7194 283.856246 
L 339.7194 282.887506 
L 340.1568 282.693758 
L 340.1568 281.918766 
L 340.5942 281.725018 
L 340.5942 279.981285 
L 341.0316 279.787537 
L 341.0316 279.400041 
L 341.469 279.206293 
L 341.469 277.462561 
L 341.9064 277.268813 
L 341.9064 276.493821 
L 342.3438 276.300073 
L 342.3438 274.55634 
L 342.7812 274.362592 
L 342.7812 273.393852 
L 343.2186 273.200104 
L 343.2186 272.231364 
L 343.656 272.037616 
L 343.656 271.262624 
L 344.0934 271.068876 
L 344.0934 270.293883 
L 344.5308 270.100135 
L 344.5308 269.906387 
L 344.9682 269.712639 
L 344.9682 269.131395 
L 345.4056 268.937647 
L 345.4056 266.418923 
L 345.843 266.225175 
L 345.843 265.256434 
L 346.2804 265.062686 
L 346.2804 263.70645 
L 346.7178 263.512702 
L 346.7178 262.543962 
L 347.1552 262.350214 
L 347.1552 260.412734 
L 347.5926 260.218986 
L 347.5926 259.443993 
L 348.03 259.250245 
L 348.03 258.281505 
L 348.4674 258.087757 
L 348.4674 257.312765 
L 348.9048 257.119017 
L 348.9048 256.150277 
L 349.3422 255.956529 
L 349.3422 254.987788 
L 349.7796 254.79404 
L 349.7796 253.437804 
L 350.217 253.244056 
L 350.217 252.662812 
L 350.6544 252.469064 
L 350.6544 251.306576 
L 351.0918 251.112828 
L 351.0918 249.95034 
L 351.5292 249.756591 
L 351.5292 248.981599 
L 351.9666 248.787851 
L 351.9666 246.850371 
L 352.404 246.656623 
L 352.404 245.300387 
L 352.8414 245.106639 
L 352.8414 243.750402 
L 353.2788 243.556654 
L 353.2788 242.97541 
L 353.7162 242.781662 
L 353.7162 241.231678 
L 354.1536 241.03793 
L 354.1536 240.06919 
L 354.591 239.875442 
L 354.591 238.906701 
L 355.0284 238.712953 
L 355.0284 236.969221 
L 355.4658 236.775473 
L 355.4658 236.387977 
L 355.9032 236.194229 
L 355.9032 235.612985 
L 356.778 235.225489 
L 356.778 233.869252 
L 357.2154 233.675504 
L 357.2154 232.513016 
L 357.6528 232.319268 
L 357.6528 230.769284 
L 358.0902 230.575536 
L 358.0902 229.994292 
L 358.5276 229.800544 
L 358.5276 229.413047 
L 358.965 229.219299 
L 358.965 228.444307 
L 359.4024 228.250559 
L 359.4024 227.475567 
L 359.8398 227.281819 
L 359.8398 226.894323 
L 360.2772 226.700575 
L 360.2772 225.538087 
L 360.7146 225.344339 
L 360.7146 223.600606 
L 361.152 223.406858 
L 361.152 222.631866 
L 361.5894 222.438118 
L 361.5894 221.856874 
L 362.0268 221.663126 
L 362.0268 220.694386 
L 362.4642 220.500638 
L 362.4642 219.33815 
L 362.9016 219.144401 
L 362.9016 218.950653 
L 363.339 218.756905 
L 363.339 217.594417 
L 363.7764 217.400669 
L 363.7764 216.819425 
L 364.2138 216.625677 
L 364.2138 216.044433 
L 364.6512 215.850685 
L 364.6512 214.881945 
L 365.0886 214.688197 
L 365.0886 213.913204 
L 365.526 213.719456 
L 365.526 212.36322 
L 365.9634 212.169472 
L 365.9634 211.006984 
L 366.4008 210.813236 
L 366.4008 209.650748 
L 366.8382 209.457 
L 366.8382 208.294511 
L 367.2756 208.100763 
L 367.2756 207.132023 
L 367.713 206.938275 
L 367.713 205.775787 
L 368.1504 205.582039 
L 368.1504 204.032055 
L 368.5878 203.838306 
L 368.5878 202.869566 
L 369.0252 202.675818 
L 369.0252 201.707078 
L 369.4626 201.51333 
L 369.4626 201.125834 
L 369.9 200.932086 
L 369.9 199.57585 
L 370.3374 199.382102 
L 370.3374 197.638369 
L 370.7748 197.444621 
L 370.7748 196.863377 
L 371.2122 196.669629 
L 371.2122 196.282133 
L 371.6496 196.088385 
L 371.6496 195.700889 
L 372.087 195.507141 
L 372.087 195.119645 
L 372.5244 194.925897 
L 372.5244 193.763409 
L 372.9618 193.56966 
L 372.9618 193.375912 
L 373.3992 193.182164 
L 373.3992 192.988416 
L 373.8366 192.794668 
L 373.8366 191.63218 
L 374.274 191.438432 
L 374.274 191.244684 
L 374.7114 191.050936 
L 374.7114 189.500952 
L 375.1488 189.307204 
L 375.1488 188.532212 
L 375.5862 188.338463 
L 375.5862 187.950967 
L 376.461 187.563471 
L 376.461 186.982227 
L 376.8984 186.788479 
L 376.8984 186.207235 
L 377.3358 186.013487 
L 377.3358 184.850999 
L 377.7732 184.657251 
L 377.7732 184.076007 
L 378.2106 183.882259 
L 378.2106 183.494763 
L 378.648 183.301014 
L 378.648 182.526022 
L 379.0854 182.332274 
L 379.0854 181.557282 
L 379.5228 181.363534 
L 379.5228 180.588542 
L 379.9602 180.394794 
L 379.9602 180.007298 
L 380.3976 179.81355 
L 380.3976 179.038558 
L 380.835 178.84481 
L 380.835 178.263566 
L 381.2724 178.069817 
L 381.2724 177.488573 
L 381.7098 177.294825 
L 381.7098 175.938589 
L 382.1472 175.744841 
L 382.1472 174.388605 
L 382.5846 174.194857 
L 382.5846 173.807361 
L 383.4594 173.419865 
L 383.4594 172.063628 
L 383.8968 171.86988 
L 383.8968 171.482384 
L 384.3342 171.288636 
L 384.3342 170.707392 
L 384.7716 170.513644 
L 384.7716 169.738652 
L 385.209 169.544904 
L 385.209 169.351156 
L 385.6464 169.157408 
L 385.6464 168.576164 
L 386.5212 168.188668 
L 386.5212 167.413675 
L 386.9586 167.219927 
L 386.9586 166.251187 
L 387.396 166.057439 
L 387.396 165.476195 
L 387.8334 165.282447 
L 387.8334 163.732463 
L 388.2708 163.538715 
L 388.2708 163.151219 
L 389.1456 162.763722 
L 389.1456 161.794982 
L 389.583 161.601234 
L 389.583 161.01999 
L 390.0204 160.826242 
L 390.0204 159.276258 
L 390.4578 159.08251 
L 390.4578 158.501266 
L 390.8952 158.307518 
L 390.8952 156.951281 
L 391.3326 156.757533 
L 391.3326 156.370037 
L 391.77 156.176289 
L 391.77 155.401297 
L 392.2074 155.207549 
L 392.2074 154.626305 
L 392.6448 154.432557 
L 392.6448 153.851313 
L 393.5196 153.463817 
L 393.5196 152.301328 
L 393.957 152.10758 
L 393.957 151.913832 
L 394.3944 151.720084 
L 394.3944 149.976352 
L 395.2692 149.782604 
L 395.2692 149.395108 
L 395.7066 149.20136 
L 395.7066 148.038872 
L 396.144 147.845124 
L 396.144 147.070131 
L 396.5814 146.876383 
L 396.5814 146.101391 
L 397.4562 145.713895 
L 397.4562 145.132651 
L 397.8936 144.938903 
L 397.8936 144.357659 
L 398.331 144.163911 
L 398.331 143.970163 
L 398.7684 143.776415 
L 398.7684 143.388919 
L 399.2058 143.195171 
L 399.2058 143.001423 
L 399.6432 142.807675 
L 399.6432 141.838934 
L 400.0806 141.645186 
L 400.0806 140.870194 
L 400.518 140.676446 
L 400.518 140.095202 
L 401.8302 139.707706 
L 401.8302 138.738966 
L 402.705 138.35147 
L 402.705 137.963974 
L 403.1424 137.770226 
L 403.1424 137.38273 
L 403.5798 137.188981 
L 403.5798 136.995233 
L 404.0172 136.801485 
L 404.0172 135.251501 
L 404.4546 135.057753 
L 404.4546 134.282761 
L 404.892 134.089013 
L 404.892 133.314021 
L 405.3294 133.120273 
L 405.3294 132.151532 
L 405.7668 131.957784 
L 405.7668 130.795296 
L 406.6416 130.4078 
L 406.6416 129.826556 
L 407.079 129.632808 
L 407.079 129.43906 
L 407.5164 129.245312 
L 407.5164 128.47032 
L 407.9538 128.276572 
L 407.9538 127.889076 
L 408.3912 127.695328 
L 408.3912 126.532839 
L 409.266 126.145343 
L 409.266 125.176603 
L 409.7034 124.982855 
L 409.7034 124.401611 
L 410.1408 124.207863 
L 410.1408 124.014115 
L 410.5782 123.820367 
L 410.5782 123.045375 
L 411.0156 122.851627 
L 411.0156 122.270383 
L 411.453 122.076635 
L 411.453 121.301642 
L 411.8904 121.107894 
L 411.8904 119.751658 
L 412.3278 119.55791 
L 412.3278 119.364162 
L 413.2026 119.170414 
L 413.2026 118.395422 
L 413.64 118.201674 
L 413.64 117.426682 
L 414.5148 117.232934 
L 414.5148 117.039186 
L 414.9522 116.845438 
L 414.9522 115.295453 
L 415.3896 115.101705 
L 415.3896 114.907957 
L 415.827 114.714209 
L 415.827 114.326713 
L 416.2644 114.132965 
L 416.2644 113.357973 
L 416.7018 113.164225 
L 416.7018 112.970477 
L 417.1392 112.776729 
L 417.1392 112.389233 
L 418.014 112.001737 
L 418.014 111.807989 
L 418.4514 111.61424 
L 418.4514 111.226744 
L 418.8888 111.032996 
L 418.8888 110.6455 
L 419.3262 110.451752 
L 419.3262 109.289264 
L 419.7636 109.095516 
L 419.7636 108.901768 
L 420.201 108.70802 
L 420.201 108.514272 
L 421.0758 108.320524 
L 421.0758 107.933028 
L 421.9506 107.545532 
L 421.9506 107.351784 
L 422.8254 106.964288 
L 422.8254 106.77054 
L 423.2628 106.576791 
L 423.2628 106.189295 
L 423.7002 105.995547 
L 423.7002 105.414303 
L 424.575 105.026807 
L 424.575 104.833059 
L 425.0124 104.639311 
L 425.0124 104.251815 
L 425.4498 104.058067 
L 425.4498 103.670571 
L 425.8872 103.476823 
L 425.8872 102.701831 
L 426.3246 102.508083 
L 426.3246 102.120587 
L 426.762 101.926839 
L 426.762 101.539343 
L 427.1994 101.345594 
L 427.1994 101.151846 
L 427.6368 100.958098 
L 427.6368 100.376854 
L 428.5116 99.989358 
L 428.5116 99.408114 
L 428.949 99.214366 
L 428.949 98.82687 
L 429.3864 98.633122 
L 429.3864 97.85813 
L 429.8238 97.664382 
L 429.8238 97.470634 
L 430.2612 97.276886 
L 430.2612 96.501894 
L 430.6986 96.308145 
L 430.6986 96.114397 
L 432.0108 95.533153 
L 432.0108 94.758161 
L 432.4482 94.564413 
L 432.4482 94.176917 
L 433.323 93.789421 
L 433.323 93.401925 
L 434.6352 92.820681 
L 434.6352 92.433185 
L 435.0726 92.239437 
L 435.0726 91.464445 
L 435.51 91.270697 
L 435.51 90.8832 
L 436.3848 90.495704 
L 436.3848 90.108208 
L 437.2596 89.720712 
L 437.2596 88.558224 
L 437.697 88.364476 
L 437.697 88.170728 
L 438.5718 87.97698 
L 438.5718 87.589484 
L 439.0092 87.395736 
L 439.0092 86.814492 
L 439.4466 86.620744 
L 439.4466 86.426996 
L 440.3214 86.233248 
L 440.3214 86.039499 
L 440.7588 85.845751 
L 440.7588 85.652003 
L 441.1962 85.458255 
L 441.1962 85.070759 
L 441.6336 84.877011 
L 441.6336 84.295767 
L 442.5084 84.102019 
L 442.5084 83.714523 
L 443.8206 83.327027 
L 443.8206 82.939531 
L 444.258 82.745783 
L 444.258 82.358287 
L 444.6954 82.164539 
L 444.6954 81.777043 
L 446.0076 81.389547 
L 446.0076 81.002051 
L 446.8824 80.614554 
L 446.8824 80.227058 
L 447.7572 79.839562 
L 447.7572 79.452066 
L 448.1946 79.258318 
L 448.1946 78.483326 
L 448.632 78.289578 
L 448.632 78.09583 
L 449.0694 77.902082 
L 449.0694 77.514586 
L 450.3816 77.320838 
L 450.819 77.12709 
L 450.819 76.739594 
L 451.2564 76.545846 
L 451.2564 76.352098 
L 451.6938 76.15835 
L 451.6938 75.770853 
L 452.1312 75.577105 
L 452.1312 75.189609 
L 452.5686 74.995861 
L 452.5686 74.608365 
L 454.7556 73.639625 
L 454.7556 73.058381 
L 455.193 72.864633 
L 455.193 72.670885 
L 455.6304 72.477137 
L 455.6304 72.283389 
L 456.0678 72.089641 
L 456.0678 71.895893 
L 457.38 71.314649 
L 457.38 71.120901 
L 457.8174 70.927153 
L 457.8174 70.733404 
L 459.1296 70.15216 
L 459.1296 69.764664 
L 460.4418 69.18342 
L 460.4418 68.989672 
L 460.8792 68.795924 
L 460.8792 68.602176 
L 461.754 68.408428 
L 461.754 68.020932 
L 463.0662 67.633436 
L 463.941 67.24594 
L 465.2532 66.858444 
L 465.2532 66.664696 
L 467.0028 65.889704 
L 469.1898 65.502207 
L 470.0646 65.114711 
L 470.0646 64.727215 
L 470.9394 64.533467 
L 470.9394 64.145971 
L 471.3768 63.952223 
L 471.3768 62.983483 
L 473.1264 62.789735 
L 474.0012 62.402239 
L 474.0012 62.208491 
L 474.4386 62.014743 
L 474.4386 61.820995 
L 474.876 61.627247 
L 474.876 61.239751 
L 475.3134 61.046003 
L 476.1882 60.852255 
L 476.1882 60.464758 
L 476.6256 60.27101 
L 477.5004 60.077262 
L 477.5004 59.883514 
L 477.9378 59.689766 
L 480.1248 59.108522 
L 480.1248 58.721026 
L 480.9996 58.33353 
L 481.8744 58.139782 
L 481.8744 57.752286 
L 482.3118 57.558538 
L 483.1866 57.36479 
L 483.1866 56.977294 
L 484.4988 56.589798 
L 484.4988 56.202302 
L 484.9362 56.008554 
L 485.811 55.814806 
L 485.811 55.42731 
L 486.6858 55.233561 
L 486.6858 55.039813 
L 487.5606 54.846065 
L 487.5606 54.652317 
L 487.998 54.458569 
L 487.998 54.264821 
L 488.4354 54.071073 
L 490.6224 53.489829 
L 491.0598 53.296081 
L 492.8094 53.102333 
L 494.1216 52.521089 
L 494.1216 52.327341 
L 495.8712 52.133593 
L 496.3086 51.939845 
L 496.3086 51.358601 
L 496.746 51.164853 
L 496.746 50.971105 
L 497.1834 50.777357 
L 497.1834 50.583609 
L 498.933 50.196112 
L 498.933 49.808616 
L 499.8078 49.614868 
L 499.8078 49.42112 
L 501.5574 48.646128 
L 504.6192 48.45238 
L 505.9314 48.064884 
L 505.9314 47.871136 
L 506.8062 47.48364 
L 506.8062 47.289892 
L 507.2436 47.096144 
L 508.5558 46.902396 
L 508.9932 46.708648 
L 509.868 46.5149 
L 509.868 46.321152 
L 511.1802 45.933656 
L 512.055 45.54616 
L 513.3672 45.352412 
L 514.242 44.964915 
L 514.242 44.771167 
L 514.6794 44.577419 
L 514.6794 43.996175 
L 515.9916 43.802427 
L 516.8664 43.414931 
L 519.4908 43.027435 
L 519.4908 42.833687 
L 519.9282 42.639939 
L 521.2404 42.252443 
L 521.6778 42.058695 
L 521.6778 41.864947 
L 522.5526 41.671199 
L 522.5526 41.477451 
L 524.7396 41.283703 
L 525.6144 40.896207 
L 525.6144 40.508711 
L 529.1136 40.121215 
L 529.1136 39.927466 
L 531.3006 39.733718 
L 531.738 39.53997 
L 536.9868 39.152474 
L 537.4242 38.958726 
L 538.7364 38.57123 
L 539.1738 38.377482 
L 542.2356 37.60249 
L 542.673 37.408742 
L 544.86 37.214994 
L 545.2974 37.021246 
L 547.4844 36.827498 
L 547.9218 36.63375 
L 552.7332 35.471262 
L 567.6048 34.696269 
L 568.0422 34.502521 
L 569.3544 34.308773 
L 569.3544 34.115025 
L 574.6032 33.921277 
L 575.0406 33.727529 
L 578.5398 33.533781 
L 579.852 33.340033 
L 583.7886 33.146285 
L 584.6634 32.952537 
L 584.6634 32.758789 
L 595.161 32.565041 
L 600.4098 32.177545 
L 607.8456 31.983797 
L 609.5952 31.790049 
L 619.6554 31.402553 
L 629.2782 31.208805 
L 630.153 31.015057 
L 671.706 30.627561 
L 676.08 30.433813 
L 692.7012 30.046317 
L 692.7012 29.852569 
L 695.763 29.65882 
L 760.4982 29.271324 
L 771.4332 28.883828 
L 826.983 28.302584 
L 830.0448 28.108836 
L 875.5344 27.915088 
L 880.3458 27.72134 
L 890.406 27.527592 
L 891.2808 27.333844 
L 908.7768 26.946348 
L 926.7102 26.558852 
L 979.1982 25.78386 
L 982.26 25.590112 
L 982.6974 25.396364 
L 982.6974 25.396364 
" clip-path="url(#pa78e08d0fa)" style="fill: none; stroke-dasharray: 18.5,8; stroke-dashoffset: 0; stroke: #0000ff; stroke-width: 5"/>
   </g>
   <g id="line2d_15">
    <path d="M 151.2 418.123636 
L 408.3912 417.241103 
L 418.4514 415.476037 
L 418.8888 414.593504 
L 430.2612 412.828437 
L 433.323 411.945904 
L 439.0092 411.063371 
L 439.4466 410.180838 
L 447.7572 408.415771 
L 448.1946 407.533238 
L 449.5068 406.650705 
L 449.5068 405.768172 
L 450.3816 404.885638 
L 452.5686 404.003105 
L 454.3182 402.238039 
L 454.7556 401.355506 
L 457.38 400.472972 
L 457.38 398.707906 
L 458.2548 397.825373 
L 459.567 396.94284 
L 459.567 396.060306 
L 460.4418 394.29524 
L 462.1914 393.412707 
L 462.6288 392.530174 
L 463.5036 391.64764 
L 466.128 390.765107 
L 466.5654 389.882574 
L 466.5654 389.000041 
L 468.315 388.117508 
L 469.1898 386.352441 
L 470.9394 385.469908 
L 470.9394 384.587375 
L 471.8142 383.704842 
L 472.2516 382.822308 
L 472.2516 381.939775 
L 474.0012 378.409642 
L 475.7508 376.644576 
L 475.7508 375.762043 
L 476.1882 374.87951 
L 477.063 373.996977 
L 478.8126 373.114443 
L 480.1248 372.23191 
L 482.7492 371.349377 
L 482.7492 370.466844 
L 483.1866 369.584311 
L 483.1866 368.701777 
L 484.0614 367.819244 
L 484.9362 366.054178 
L 484.9362 365.171645 
L 485.3736 364.289111 
L 485.3736 363.406578 
L 486.6858 362.524045 
L 488.4354 361.641512 
L 488.8728 360.758979 
L 488.8728 359.876445 
L 490.6224 358.111379 
L 491.4972 356.346313 
L 491.4972 355.463779 
L 492.372 354.581246 
L 492.372 352.81618 
L 492.8094 351.933647 
L 492.8094 351.051113 
L 494.559 349.286047 
L 494.9964 348.403514 
L 494.9964 347.520981 
L 495.8712 345.755914 
L 496.746 344.873381 
L 496.746 343.990848 
L 498.4956 342.225781 
L 498.933 341.343248 
L 499.8078 340.460715 
L 501.5574 339.578182 
L 502.4322 338.695649 
L 502.8696 337.813115 
L 502.8696 334.282983 
L 504.6192 333.400449 
L 505.0566 332.517916 
L 506.3688 331.635383 
L 506.3688 330.75285 
L 508.1184 329.870317 
L 508.5558 328.987783 
L 509.868 328.10525 
L 510.3054 327.222717 
L 510.3054 326.340184 
L 511.6176 323.692584 
L 511.6176 321.044985 
L 512.4924 320.162451 
L 512.4924 319.279918 
L 512.9298 318.397385 
L 512.9298 317.514852 
L 513.3672 316.632319 
L 514.6794 315.749785 
L 516.429 313.984719 
L 516.429 311.33712 
L 517.3038 310.454586 
L 517.3038 309.572053 
L 518.1786 308.68952 
L 518.1786 306.924454 
L 520.803 306.04192 
L 521.6778 304.276854 
L 522.5526 303.394321 
L 522.5526 301.629254 
L 523.4274 300.746721 
L 523.8648 299.864188 
L 523.8648 298.981655 
L 524.3022 298.099122 
L 525.177 297.216588 
L 525.177 296.334055 
L 525.6144 295.451522 
L 525.6144 294.568989 
L 526.0518 293.686456 
L 526.0518 292.803922 
L 528.2388 291.921389 
L 529.551 291.038856 
L 530.8632 288.391256 
L 530.8632 285.743657 
L 531.3006 284.861124 
L 531.3006 283.97859 
L 531.738 283.096057 
L 531.738 282.213524 
L 532.6128 281.330991 
L 534.7998 280.448458 
L 534.7998 278.683391 
L 535.6746 276.918325 
L 535.6746 276.035792 
L 536.9868 273.388192 
L 538.299 272.505659 
L 538.299 271.623126 
L 538.7364 270.740592 
L 538.7364 269.858059 
L 539.1738 268.975526 
L 540.486 268.092993 
L 540.9234 267.21046 
L 541.7982 266.327926 
L 542.673 264.56286 
L 542.673 263.680327 
L 543.1104 262.797794 
L 543.1104 261.91526 
L 543.9852 260.150194 
L 543.9852 259.267661 
L 544.4226 258.385128 
L 545.7348 257.502594 
L 546.1722 256.620061 
L 547.047 255.737528 
L 547.047 254.854995 
L 547.9218 253.972462 
L 547.9218 252.207395 
L 548.3592 251.324862 
L 550.1088 249.559796 
L 550.5462 248.677263 
L 551.421 247.794729 
L 551.421 246.912196 
L 551.8584 246.029663 
L 551.8584 245.14713 
L 552.2958 244.264597 
L 552.2958 242.49953 
L 552.7332 241.616997 
L 552.7332 240.734464 
L 555.3576 235.439265 
L 555.3576 233.674198 
L 555.795 232.791665 
L 555.795 231.909132 
L 556.2324 231.026599 
L 557.1072 230.144065 
L 557.1072 229.261532 
L 557.5446 228.378999 
L 557.5446 227.496466 
L 558.8568 224.848866 
L 558.8568 223.966333 
L 559.2942 223.0838 
L 559.2942 222.201267 
L 561.9186 220.4362 
L 562.356 219.553667 
L 562.356 218.671134 
L 564.9804 216.023534 
L 564.9804 213.375935 
L 565.8552 212.493401 
L 565.8552 211.610868 
L 566.73 210.728335 
L 566.73 209.845802 
L 567.1674 208.963269 
L 567.1674 207.198202 
L 567.6048 206.315669 
L 567.6048 205.433136 
L 569.7918 201.02047 
L 572.4162 200.137937 
L 572.4162 197.490337 
L 573.291 195.725271 
L 573.291 194.842737 
L 574.1658 193.960204 
L 575.0406 192.195138 
L 576.3528 191.312605 
L 576.7902 190.430072 
L 576.7902 186.899939 
L 577.2276 186.017406 
L 577.2276 185.134872 
L 577.665 184.252339 
L 579.4146 182.487273 
L 580.7268 181.60474 
L 581.6016 180.722206 
L 581.6016 178.95714 
L 582.039 178.074607 
L 582.039 177.192074 
L 582.4764 176.30954 
L 584.226 174.544474 
L 585.1008 172.779408 
L 585.9756 171.896874 
L 585.9756 171.014341 
L 586.413 170.131808 
L 586.413 168.366742 
L 586.8504 167.484208 
L 586.8504 166.601675 
L 587.7252 165.719142 
L 587.7252 164.836609 
L 588.6 163.954076 
L 588.6 162.189009 
L 589.0374 161.306476 
L 589.9122 160.423943 
L 590.787 158.658876 
L 591.6618 157.776343 
L 592.0992 156.89381 
L 592.0992 156.011277 
L 592.974 154.24621 
L 595.5984 152.481144 
L 595.5984 151.598611 
L 596.0358 150.716078 
L 596.0358 148.951011 
L 596.9106 148.068478 
L 596.9106 146.303412 
L 597.7854 144.538345 
L 597.7854 142.773279 
L 599.535 141.890746 
L 599.9724 141.008212 
L 599.9724 140.125679 
L 601.2846 139.243146 
L 601.722 138.360613 
L 603.0342 137.47808 
L 603.4716 136.595546 
L 604.7838 135.713013 
L 604.7838 134.83048 
L 605.2212 133.947947 
L 606.096 133.065414 
L 606.5334 132.18288 
L 606.5334 131.300347 
L 606.9708 130.417814 
L 607.8456 129.535281 
L 608.283 128.652748 
L 608.283 127.770215 
L 609.5952 126.887681 
L 609.5952 123.357549 
L 611.3448 122.475015 
L 611.3448 121.592482 
L 611.7822 120.709949 
L 613.5318 119.827416 
L 613.9692 118.944883 
L 613.9692 118.062349 
L 615.2814 115.41475 
L 615.2814 114.532217 
L 616.5936 113.649683 
L 617.031 112.76715 
L 617.031 111.884617 
L 617.4684 111.002084 
L 617.4684 109.237017 
L 618.7806 108.354484 
L 618.7806 107.471951 
L 621.405 104.824351 
L 622.7172 103.941818 
L 625.779 97.764086 
L 626.6538 96.881553 
L 627.0912 95.999019 
L 627.0912 95.116486 
L 627.966 94.233953 
L 628.4034 93.35142 
L 631.0278 92.468887 
L 632.34 91.586353 
L 632.7774 90.70382 
L 634.0896 89.821287 
L 634.0896 88.938754 
L 638.0262 88.056221 
L 638.4636 87.173687 
L 639.3384 86.291154 
L 639.3384 85.408621 
L 640.6506 82.761021 
L 643.275 80.995955 
L 643.7124 80.113422 
L 648.0864 79.230889 
L 648.5238 78.348355 
L 648.5238 77.465822 
L 649.3986 76.583289 
L 652.023 75.700756 
L 652.023 74.818223 
L 656.397 73.935689 
L 658.1466 72.170623 
L 658.584 71.28809 
L 658.584 70.405557 
L 659.0214 69.523023 
L 660.771 68.64049 
L 662.0832 67.757957 
L 662.958 66.875424 
L 664.7076 65.992891 
L 666.8946 65.110358 
L 666.8946 64.227824 
L 669.519 63.345291 
L 674.3304 62.462758 
L 674.3304 61.580225 
L 674.7678 60.697692 
L 675.6426 59.815158 
L 676.5174 58.050092 
L 677.3922 57.167559 
L 682.641 56.285026 
L 682.641 55.402492 
L 683.5158 54.519959 
L 686.1402 52.754893 
L 689.6394 51.87236 
L 691.389 50.989826 
L 692.2638 49.22476 
L 695.763 48.342227 
L 700.137 46.57716 
L 700.5744 45.694627 
L 704.511 44.812094 
L 704.511 43.929561 
L 710.6346 43.047028 
L 720.6948 42.164494 
L 722.4444 40.399428 
L 725.5062 39.516895 
L 729.8802 38.634362 
L 730.755 37.751828 
L 733.8168 36.869295 
L 744.7518 35.986762 
L 765.3096 35.104229 
L 768.8088 34.221696 
L 771.4332 33.339162 
L 785.8674 32.456629 
L 797.6772 31.574096 
L 814.2984 30.691563 
L 844.0416 29.80903 
L 865.0368 28.926496 
L 924.9606 28.043963 
L 995.382 26.278897 
L 1016.8146 25.396364 
L 1016.8146 25.396364 
" clip-path="url(#pa78e08d0fa)" style="fill: none; stroke-dasharray: 32,8,5,8; stroke-dashoffset: 0; stroke: #9467bd; stroke-width: 5"/>
   </g>
   <g id="patch_3">
    <path d="M 151.2 437.76 
L 151.2 5.76 
" style="fill: none; stroke: #000000; stroke-width: 0.8; stroke-linejoin: miter; stroke-linecap: square"/>
   </g>
   <g id="patch_4">
    <path d="M 1026 437.76 
L 1026 5.76 
" style="fill: none; stroke: #000000; stroke-width: 0.8; stroke-linejoin: miter; stroke-linecap: square"/>
   </g>
   <g id="patch_5">
    <path d="M 151.2 437.76 
L 1026 437.76 
" style="fill: none; stroke: #000000; stroke-width: 0.8; stroke-linejoin: miter; stroke-linecap: square"/>
   </g>
   <g id="patch_6">
    <path d="M 151.2 5.76 
L 1026 5.76 
" style="fill: none; stroke: #000000; stroke-width: 0.8; stroke-linejoin: miter; stroke-linecap: square"/>
   </g>
   <g id="legend_1">
    <g id="line2d_16">
     <path d="M 46.52205 555.06 
L 88.52205 555.06 
L 130.52205 555.06 
" style="fill: none; stroke: #ff0000; stroke-width: 5; stroke-linecap: square"/>
    </g>
    <g id="text_15">
     <!-- ACEKV -->
     <g transform="translate(164.12205 569.76) scale(0.42 -0.42)">
      <defs>
       <path id="TimesNewRomanPS-BoldMT-41" d="M 2663 1206 
L 1166 1206 
L 988 794 
Q 900 588 900 453 
Q 900 275 1044 191 
Q 1128 141 1459 116 
L 1459 0 
L 50 0 
L 50 116 
Q 278 150 425 304 
Q 572 459 788 944 
L 2303 4325 
L 2363 4325 
L 3891 850 
Q 4109 356 4250 228 
Q 4356 131 4550 116 
L 4550 0 
L 2500 0 
L 2500 116 
L 2584 116 
Q 2831 116 2931 184 
Q 3000 234 3000 328 
Q 3000 384 2981 444 
Q 2975 472 2888 678 
L 2663 1206 
z
M 2556 1438 
L 1925 2897 
L 1275 1438 
L 2556 1438 
z
" transform="scale(0.015625)"/>
       <path id="TimesNewRomanPS-BoldMT-43" d="M 4272 4334 
L 4272 2866 
L 4150 2866 
Q 4013 3441 3638 3747 
Q 3263 4053 2788 4053 
Q 2391 4053 2059 3825 
Q 1728 3597 1575 3228 
Q 1378 2756 1378 2178 
Q 1378 1609 1522 1142 
Q 1666 675 1972 436 
Q 2278 197 2766 197 
Q 3166 197 3498 372 
Q 3831 547 4200 975 
L 4200 609 
Q 3844 238 3458 70 
Q 3072 -97 2556 -97 
Q 1878 -97 1351 175 
Q 825 447 539 956 
Q 253 1466 253 2041 
Q 253 2647 570 3190 
Q 888 3734 1427 4034 
Q 1966 4334 2572 4334 
Q 3019 4334 3516 4141 
Q 3803 4028 3881 4028 
Q 3981 4028 4054 4101 
Q 4128 4175 4150 4334 
L 4272 4334 
z
" transform="scale(0.015625)"/>
       <path id="TimesNewRomanPS-BoldMT-45" d="M 1744 3994 
L 1744 2269 
L 1828 2269 
Q 2231 2269 2412 2522 
Q 2594 2775 2644 3269 
L 2763 3269 
L 2763 1050 
L 2644 1050 
Q 2606 1413 2486 1644 
Q 2366 1875 2206 1954 
Q 2047 2034 1744 2034 
L 1744 841 
Q 1744 491 1773 412 
Q 1803 334 1884 284 
Q 1966 234 2147 234 
L 2400 234 
Q 2994 234 3351 509 
Q 3709 784 3866 1347 
L 3981 1347 
L 3791 0 
L 128 0 
L 128 116 
L 269 116 
Q 453 116 566 181 
Q 647 225 691 331 
Q 725 406 725 725 
L 725 3513 
Q 725 3800 709 3866 
Q 678 3975 594 4034 
Q 475 4122 269 4122 
L 128 4122 
L 128 4238 
L 3675 4238 
L 3675 2984 
L 3556 2984 
Q 3466 3444 3302 3644 
Q 3138 3844 2838 3938 
Q 2663 3994 2181 3994 
L 1744 3994 
z
" transform="scale(0.015625)"/>
       <path id="TimesNewRomanPS-BoldMT-4b" d="M 2666 2616 
L 4156 750 
Q 4472 356 4700 216 
Q 4866 116 5050 116 
L 5050 0 
L 2844 0 
L 2844 116 
Q 3053 134 3114 181 
Q 3175 228 3175 297 
Q 3175 428 2888 791 
L 1916 2013 
L 1759 1881 
L 1759 725 
Q 1759 394 1796 312 
Q 1834 231 1940 173 
Q 2047 116 2281 116 
L 2281 0 
L 144 0 
L 144 116 
L 284 116 
Q 469 116 581 181 
Q 663 225 706 331 
Q 741 406 741 725 
L 741 3513 
Q 741 3838 706 3919 
Q 672 4000 567 4061 
Q 463 4122 284 4122 
L 144 4122 
L 144 4238 
L 2253 4238 
L 2253 4122 
Q 2038 4122 1925 4059 
Q 1844 4016 1797 3913 
Q 1759 3834 1759 3513 
L 1759 2194 
L 3331 3466 
Q 3659 3731 3659 3891 
Q 3659 4009 3525 4078 
Q 3456 4113 3184 4122 
L 3184 4238 
L 4838 4238 
L 4838 4122 
Q 4616 4106 4489 4042 
Q 4363 3978 3906 3609 
L 2666 2616 
z
" transform="scale(0.015625)"/>
       <path id="TimesNewRomanPS-BoldMT-56" d="M 4556 4238 
L 4556 4122 
Q 4325 4084 4144 3875 
Q 4013 3719 3753 3141 
L 2294 -97 
L 2191 -97 
L 738 3272 
Q 475 3881 386 3987 
Q 297 4094 50 4122 
L 50 4238 
L 2081 4238 
L 2081 4122 
L 2013 4122 
Q 1738 4122 1638 4053 
Q 1566 4006 1566 3916 
Q 1566 3859 1591 3782 
Q 1616 3706 1759 3372 
L 2663 1263 
L 3500 3141 
Q 3650 3481 3684 3597 
Q 3719 3713 3719 3794 
Q 3719 3888 3669 3959 
Q 3619 4031 3522 4069 
Q 3388 4122 3166 4122 
L 3166 4238 
L 4556 4238 
z
" transform="scale(0.015625)"/>
      </defs>
      <use xlink:href="#TimesNewRomanPS-BoldMT-41"/>
      <use xlink:href="#TimesNewRomanPS-BoldMT-43" x="72.216797"/>
      <use xlink:href="#TimesNewRomanPS-BoldMT-45" x="144.433594"/>
      <use xlink:href="#TimesNewRomanPS-BoldMT-4b" x="211.132812"/>
      <use xlink:href="#TimesNewRomanPS-BoldMT-56" x="288.916016"/>
     </g>
    </g>
    <g id="line2d_17">
     <path d="M 399.801113 555.06 
L 441.801113 555.06 
L 483.801113 555.06 
" style="fill: none; stroke-dasharray: 18.5,8; stroke-dashoffset: 0; stroke: #0000ff; stroke-width: 5"/>
    </g>
    <g id="text_16">
     <!-- MICA-t -->
     <g transform="translate(517.401113 569.76) scale(0.42 -0.42)">
      <defs>
       <path id="TimesNewRomanPS-BoldMT-4d" d="M 3050 1444 
L 4200 4238 
L 5925 4238 
L 5925 4122 
L 5788 4122 
Q 5600 4122 5488 4056 
Q 5409 4013 5363 3909 
Q 5328 3834 5328 3519 
L 5328 725 
Q 5328 400 5362 319 
Q 5397 238 5503 177 
Q 5609 116 5788 116 
L 5925 116 
L 5925 0 
L 3713 0 
L 3713 116 
L 3850 116 
Q 4038 116 4150 181 
Q 4228 225 4275 331 
Q 4309 406 4309 725 
L 4309 3866 
L 2684 0 
L 2609 0 
L 959 3838 
L 959 853 
Q 959 541 975 469 
Q 1016 313 1152 214 
Q 1288 116 1578 116 
L 1578 0 
L 128 0 
L 128 116 
L 172 116 
Q 313 113 434 161 
Q 556 209 618 290 
Q 681 372 716 519 
Q 722 553 722 838 
L 722 3519 
Q 722 3841 687 3920 
Q 653 4000 547 4061 
Q 441 4122 263 4122 
L 128 4122 
L 128 4238 
L 1859 4238 
L 3050 1444 
z
" transform="scale(0.015625)"/>
       <path id="TimesNewRomanPS-BoldMT-49" d="M 2344 116 
L 2344 0 
L 128 0 
L 128 116 
L 269 116 
Q 453 116 566 181 
Q 647 225 691 331 
Q 725 406 725 725 
L 725 3513 
Q 725 3838 690 3919 
Q 656 4000 551 4061 
Q 447 4122 269 4122 
L 128 4122 
L 128 4238 
L 2344 4238 
L 2344 4122 
L 2203 4122 
Q 2019 4122 1906 4056 
Q 1825 4013 1778 3906 
Q 1744 3831 1744 3513 
L 1744 725 
Q 1744 400 1780 319 
Q 1816 238 1920 177 
Q 2025 116 2203 116 
L 2344 116 
z
" transform="scale(0.015625)"/>
       <path id="TimesNewRomanPS-BoldMT-2d" d="M 1978 1147 
L 156 1147 
L 156 1794 
L 1978 1794 
L 1978 1147 
z
" transform="scale(0.015625)"/>
       <path id="TimesNewRomanPS-BoldMT-74" d="M 1375 3991 
L 1375 2922 
L 2069 2922 
L 2069 2613 
L 1375 2613 
L 1375 809 
Q 1375 556 1398 482 
Q 1422 409 1481 364 
Q 1541 319 1591 319 
Q 1794 319 1975 628 
L 2069 559 
Q 1816 -41 1247 -41 
Q 969 -41 776 114 
Q 584 269 531 459 
Q 500 566 500 1034 
L 500 2613 
L 119 2613 
L 119 2722 
Q 513 3000 789 3306 
Q 1066 3613 1272 3991 
L 1375 3991 
z
" transform="scale(0.015625)"/>
      </defs>
      <use xlink:href="#TimesNewRomanPS-BoldMT-4d"/>
      <use xlink:href="#TimesNewRomanPS-BoldMT-49" x="94.384766"/>
      <use xlink:href="#TimesNewRomanPS-BoldMT-43" x="133.300781"/>
      <use xlink:href="#TimesNewRomanPS-BoldMT-41" x="205.517578"/>
      <use xlink:href="#TimesNewRomanPS-BoldMT-2d" x="277.734375"/>
      <use xlink:href="#TimesNewRomanPS-BoldMT-74" x="311.035156"/>
     </g>
    </g>
    <g id="line2d_18">
     <path d="M 746.025488 555.06 
L 788.025488 555.06 
L 830.025488 555.06 
" style="fill: none; stroke-dasharray: 32,8,5,8; stroke-dashoffset: 0; stroke: #9467bd; stroke-width: 5"/>
    </g>
    <g id="text_17">
     <!-- MemC3-t -->
     <g transform="translate(863.625488 569.76) scale(0.42 -0.42)">
      <defs>
       <path id="TimesNewRomanPS-BoldMT-65" d="M 2691 1566 
L 1088 1566 
Q 1116 984 1397 647 
Q 1613 388 1916 388 
Q 2103 388 2256 492 
Q 2409 597 2584 869 
L 2691 800 
Q 2453 316 2165 114 
Q 1878 -88 1500 -88 
Q 850 -88 516 413 
Q 247 816 247 1413 
Q 247 2144 642 2576 
Q 1038 3009 1569 3009 
Q 2013 3009 2339 2645 
Q 2666 2281 2691 1566 
z
M 1922 1775 
Q 1922 2278 1867 2465 
Q 1813 2653 1697 2750 
Q 1631 2806 1522 2806 
Q 1359 2806 1256 2647 
Q 1072 2369 1072 1884 
L 1072 1775 
L 1922 1775 
z
" transform="scale(0.015625)"/>
       <path id="TimesNewRomanPS-BoldMT-6d" d="M 1428 2922 
L 1428 2538 
Q 1669 2800 1873 2904 
Q 2078 3009 2322 3009 
Q 2603 3009 2793 2878 
Q 2984 2747 3088 2478 
Q 3338 2759 3567 2884 
Q 3797 3009 4047 3009 
Q 4350 3009 4529 2870 
Q 4709 2731 4779 2517 
Q 4850 2303 4850 1834 
L 4850 638 
Q 4850 300 4911 219 
Q 4972 138 5166 113 
L 5166 0 
L 3656 0 
L 3656 113 
Q 3834 128 3919 250 
Q 3975 334 3975 638 
L 3975 1894 
Q 3975 2284 3944 2390 
Q 3913 2497 3845 2548 
Q 3778 2600 3688 2600 
Q 3553 2600 3415 2501 
Q 3278 2403 3138 2206 
L 3138 638 
Q 3138 322 3191 241 
Q 3263 125 3466 113 
L 3466 0 
L 1953 0 
L 1953 113 
Q 2075 119 2145 173 
Q 2216 228 2239 304 
Q 2263 381 2263 638 
L 2263 1894 
Q 2263 2291 2231 2391 
Q 2200 2491 2126 2547 
Q 2053 2603 1969 2603 
Q 1844 2603 1741 2538 
Q 1594 2441 1428 2206 
L 1428 638 
Q 1428 328 1489 229 
Q 1550 131 1744 113 
L 1744 0 
L 238 0 
L 238 113 
Q 422 131 500 231 
Q 553 300 553 638 
L 553 2288 
Q 553 2619 492 2700 
Q 431 2781 238 2806 
L 238 2922 
L 1428 2922 
z
" transform="scale(0.015625)"/>
       <path id="TimesNewRomanPS-BoldMT-33" d="M 947 2125 
L 947 2234 
Q 1303 2338 1440 2427 
Q 1578 2516 1678 2698 
Q 1778 2881 1778 3069 
Q 1778 3328 1589 3514 
Q 1400 3700 1119 3700 
Q 681 3700 375 3238 
L 259 3278 
Q 484 3800 836 4062 
Q 1188 4325 1619 4325 
Q 2059 4325 2345 4056 
Q 2631 3788 2631 3428 
Q 2631 3194 2498 2976 
Q 2366 2759 2081 2594 
Q 2447 2416 2639 2155 
Q 2831 1894 2831 1500 
Q 2831 838 2351 373 
Q 1872 -91 1066 -91 
Q 528 -91 281 88 
Q 103 213 103 409 
Q 103 553 206 654 
Q 309 756 444 756 
Q 547 756 638 713 
Q 688 688 992 439 
Q 1297 191 1563 191 
Q 1794 191 1959 373 
Q 2125 556 2125 838 
Q 2125 1266 1825 1627 
Q 1525 1988 947 2125 
z
" transform="scale(0.015625)"/>
      </defs>
      <use xlink:href="#TimesNewRomanPS-BoldMT-4d"/>
      <use xlink:href="#TimesNewRomanPS-BoldMT-65" x="94.384766"/>
      <use xlink:href="#TimesNewRomanPS-BoldMT-6d" x="138.769531"/>
      <use xlink:href="#TimesNewRomanPS-BoldMT-43" x="222.070312"/>
      <use xlink:href="#TimesNewRomanPS-BoldMT-33" x="294.287109"/>
      <use xlink:href="#TimesNewRomanPS-BoldMT-2d" x="344.287109"/>
      <use xlink:href="#TimesNewRomanPS-BoldMT-74" x="377.587891"/>
     </g>
    </g>
   </g>
  </g>
 </g>
 <defs>
  <clipPath id="pa78e08d0fa">
   <rect x="151.2" y="5.76" width="874.8" height="432"/>
  </clipPath>
 </defs>
</svg>
