<?xml version="1.0" encoding="utf-8" standalone="no"?>
<!DOCTYPE svg PUBLIC "-//W3C//DTD SVG 1.1//EN"
  "http://www.w3.org/Graphics/SVG/1.1/DTD/svg11.dtd">
<svg xmlns:xlink="http://www.w3.org/1999/xlink" width="921.6pt" height="518.4pt" viewBox="0 0 921.6 518.4" xmlns="http://www.w3.org/2000/svg" version="1.1">
 <metadata>
  <rdf:RDF xmlns:dc="http://purl.org/dc/elements/1.1/" xmlns:cc="http://creativecommons.org/ns#" xmlns:rdf="http://www.w3.org/1999/02/22-rdf-syntax-ns#">
   <cc:Work>
    <dc:type rdf:resource="http://purl.org/dc/dcmitype/StillImage"/>
    <dc:date>2023-08-23T20:44:41.310222</dc:date>
    <dc:format>image/svg+xml</dc:format>
    <dc:creator>
     <cc:Agent>
      <dc:title>Matplotlib v3.7.1, https://matplotlib.org/</dc:title>
     </cc:Agent>
    </dc:creator>
   </cc:Work>
  </rdf:RDF>
 </metadata>
 <defs>
  <style type="text/css">*{stroke-linejoin: round; stroke-linecap: butt}</style>
 </defs>
 <g id="figure_1">
  <g id="patch_1">
   <path d="M 0 518.4 
L 921.6 518.4 
L 921.6 0 
L 0 0 
z
" style="fill: #ffffff"/>
  </g>
  <g id="axes_1">
   <g id="patch_2">
    <path d="M 115.2 461.376 
L 829.44 461.376 
L 829.44 62.208 
L 115.2 62.208 
z
" style="fill: #ffffff"/>
   </g>
   <g id="matplotlib.axis_1">
    <g id="xtick_1">
     <g id="line2d_1">
      <defs>
       <path id="mc394f95410" d="M 0 0 
L 0 3.5 
" style="stroke: #000000; stroke-width: 0.8"/>
      </defs>
      <g>
       <use xlink:href="#mc394f95410" x="115.2" y="461.376" style="stroke: #000000; stroke-width: 0.8"/>
      </g>
     </g>
     <g id="text_1">
      <!-- 0 -->
      <g transform="translate(110.45 481.958031) scale(0.19 -0.19)">
       <defs>
        <path id="SimSun-30" d="M 1600 4225 
Q 1250 4225 1012 3687 
Q 775 3150 775 2250 
Q 775 1300 1012 775 
Q 1250 250 1600 250 
Q 1975 250 2187 775 
Q 2400 1300 2400 2250 
Q 2400 3150 2200 3687 
Q 2000 4225 1600 4225 
z
M 1600 50 
Q 1050 50 675 625 
Q 300 1200 300 2250 
Q 300 3225 662 3825 
Q 1025 4425 1600 4425 
Q 2150 4425 2512 3850 
Q 2875 3275 2875 2250 
Q 2875 1225 2512 637 
Q 2150 50 1600 50 
z
" transform="scale(0.015625)"/>
       </defs>
       <use xlink:href="#SimSun-30"/>
      </g>
     </g>
    </g>
    <g id="xtick_2">
     <g id="line2d_2">
      <g>
       <use xlink:href="#mc394f95410" x="186.624" y="461.376" style="stroke: #000000; stroke-width: 0.8"/>
      </g>
     </g>
     <g id="text_2">
      <!-- 10 -->
      <g transform="translate(177.124 481.958031) scale(0.19 -0.19)">
       <defs>
        <path id="SimSun-31" d="M 1825 4450 
L 1825 650 
Q 1825 450 1950 350 
Q 2075 250 2300 250 
L 2550 250 
L 2550 100 
L 725 100 
L 725 250 
L 950 250 
Q 1200 250 1312 350 
Q 1425 450 1425 650 
L 1425 3675 
Q 1425 3775 1362 3837 
Q 1300 3900 1175 3900 
L 725 3900 
L 725 4050 
L 950 4050 
Q 1250 4050 1437 4150 
Q 1625 4250 1725 4450 
L 1825 4450 
z
" transform="scale(0.015625)"/>
       </defs>
       <use xlink:href="#SimSun-31"/>
       <use xlink:href="#SimSun-30" x="50"/>
      </g>
     </g>
    </g>
    <g id="xtick_3">
     <g id="line2d_3">
      <g>
       <use xlink:href="#mc394f95410" x="258.048" y="461.376" style="stroke: #000000; stroke-width: 0.8"/>
      </g>
     </g>
     <g id="text_3">
      <!-- 20 -->
      <g transform="translate(248.548 481.958031) scale(0.19 -0.19)">
       <defs>
        <path id="SimSun-32" d="M 2325 3325 
Q 2325 3775 2125 4012 
Q 1925 4250 1525 4250 
Q 1225 4250 1012 4087 
Q 800 3925 800 3675 
Q 800 3525 900 3425 
Q 975 3325 975 3225 
Q 975 3100 912 3037 
Q 850 2975 725 2975 
Q 575 2975 487 3062 
Q 400 3150 400 3350 
Q 400 3875 775 4150 
Q 1150 4425 1575 4425 
Q 2175 4425 2462 4125 
Q 2750 3825 2750 3375 
Q 2750 3075 2612 2775 
Q 2475 2475 2175 2200 
Q 1450 1500 1062 1062 
Q 675 625 600 475 
L 2075 475 
Q 2300 475 2450 650 
Q 2600 825 2650 1175 
L 2800 1175 
L 2650 100 
L 325 100 
L 325 425 
Q 450 650 737 1000 
Q 1025 1350 1500 1825 
Q 1925 2250 2125 2625 
Q 2325 3000 2325 3325 
z
" transform="scale(0.015625)"/>
       </defs>
       <use xlink:href="#SimSun-32"/>
       <use xlink:href="#SimSun-30" x="50"/>
      </g>
     </g>
    </g>
    <g id="xtick_4">
     <g id="line2d_4">
      <g>
       <use xlink:href="#mc394f95410" x="329.472" y="461.376" style="stroke: #000000; stroke-width: 0.8"/>
      </g>
     </g>
     <g id="text_4">
      <!-- 30 -->
      <g transform="translate(319.972 481.958031) scale(0.19 -0.19)">
       <defs>
        <path id="SimSun-33" d="M 2800 1250 
Q 2800 775 2450 412 
Q 2100 50 1475 50 
Q 1025 50 700 300 
Q 375 550 375 875 
Q 375 1025 475 1137 
Q 575 1250 675 1250 
Q 825 1250 887 1137 
Q 950 1025 950 950 
Q 950 825 900 750 
Q 850 650 850 575 
Q 850 425 1037 325 
Q 1225 225 1450 225 
Q 1900 225 2125 487 
Q 2350 750 2350 1300 
Q 2350 1750 2112 2025 
Q 1875 2300 1225 2300 
L 1225 2475 
Q 1725 2475 1962 2712 
Q 2200 2950 2200 3375 
Q 2200 3725 2012 3987 
Q 1825 4250 1425 4250 
Q 1250 4250 1050 4162 
Q 850 4075 850 3875 
Q 850 3675 900 3625 
Q 950 3575 950 3500 
Q 950 3375 900 3300 
Q 850 3225 725 3225 
Q 625 3225 537 3300 
Q 450 3375 450 3575 
Q 450 3950 775 4187 
Q 1100 4425 1525 4425 
Q 2025 4425 2325 4112 
Q 2625 3800 2625 3450 
Q 2625 3075 2437 2812 
Q 2250 2550 1850 2425 
Q 2400 2225 2600 1900 
Q 2800 1575 2800 1250 
z
" transform="scale(0.015625)"/>
       </defs>
       <use xlink:href="#SimSun-33"/>
       <use xlink:href="#SimSun-30" x="50"/>
      </g>
     </g>
    </g>
    <g id="xtick_5">
     <g id="line2d_5">
      <g>
       <use xlink:href="#mc394f95410" x="400.896" y="461.376" style="stroke: #000000; stroke-width: 0.8"/>
      </g>
     </g>
     <g id="text_5">
      <!-- 40 -->
      <g transform="translate(391.396 481.958031) scale(0.19 -0.19)">
       <defs>
        <path id="SimSun-34" d="M 2300 575 
Q 2300 400 2400 325 
Q 2500 250 2675 250 
L 2900 250 
L 2900 100 
L 1250 100 
L 1250 250 
L 1525 250 
Q 1725 250 1812 325 
Q 1900 400 1900 575 
L 1900 1400 
L 225 1400 
L 225 1525 
L 2050 4425 
L 2300 4425 
L 2300 1550 
L 2975 1550 
L 2975 1400 
L 2300 1400 
L 2300 575 
z
M 1875 3800 
L 450 1550 
L 1900 1550 
L 1900 3800 
L 1875 3800 
z
" transform="scale(0.015625)"/>
       </defs>
       <use xlink:href="#SimSun-34"/>
       <use xlink:href="#SimSun-30" x="50"/>
      </g>
     </g>
    </g>
    <g id="xtick_6">
     <g id="line2d_6">
      <g>
       <use xlink:href="#mc394f95410" x="472.32" y="461.376" style="stroke: #000000; stroke-width: 0.8"/>
      </g>
     </g>
     <g id="text_6">
      <!-- 50 -->
      <g transform="translate(462.82 481.958031) scale(0.19 -0.19)">
       <defs>
        <path id="SimSun-35" d="M 1725 2850 
Q 2200 2850 2500 2487 
Q 2800 2125 2800 1525 
Q 2800 850 2487 450 
Q 2175 50 1525 50 
Q 1075 50 725 312 
Q 375 575 375 950 
Q 375 1100 462 1212 
Q 550 1325 700 1325 
Q 850 1325 900 1225 
Q 950 1125 950 1050 
Q 950 900 875 825 
Q 800 725 800 625 
Q 800 425 1037 325 
Q 1275 225 1550 225 
Q 1950 225 2162 550 
Q 2375 875 2375 1475 
Q 2375 1975 2187 2287 
Q 2000 2600 1625 2600 
Q 1350 2600 1150 2500 
Q 950 2400 775 2075 
L 550 2100 
L 675 4375 
L 2725 4375 
L 2650 4000 
L 850 4000 
L 750 2350 
Q 1000 2700 1237 2775 
Q 1475 2850 1725 2850 
z
" transform="scale(0.015625)"/>
       </defs>
       <use xlink:href="#SimSun-35"/>
       <use xlink:href="#SimSun-30" x="50"/>
      </g>
     </g>
    </g>
    <g id="xtick_7">
     <g id="line2d_7">
      <g>
       <use xlink:href="#mc394f95410" x="543.744" y="461.376" style="stroke: #000000; stroke-width: 0.8"/>
      </g>
     </g>
     <g id="text_7">
      <!-- 60 -->
      <g transform="translate(534.244 481.958031) scale(0.19 -0.19)">
       <defs>
        <path id="SimSun-36" d="M 775 1800 
Q 775 1050 1037 637 
Q 1300 225 1675 225 
Q 2050 225 2250 500 
Q 2450 775 2450 1525 
Q 2450 2025 2237 2300 
Q 2025 2575 1725 2575 
Q 1450 2575 1212 2412 
Q 975 2250 775 1800 
z
M 1750 2825 
Q 2350 2825 2612 2425 
Q 2875 2025 2875 1525 
Q 2875 775 2512 412 
Q 2150 50 1675 50 
Q 1000 50 650 562 
Q 300 1075 300 2050 
Q 300 3200 725 3812 
Q 1150 4425 1875 4425 
Q 2225 4425 2437 4225 
Q 2650 4025 2650 3875 
Q 2650 3725 2587 3650 
Q 2525 3575 2375 3575 
Q 2250 3575 2187 3637 
Q 2125 3700 2125 3825 
Q 2125 3875 2150 3925 
Q 2150 3975 2150 4025 
Q 2150 4125 2075 4187 
Q 2000 4250 1800 4250 
Q 1375 4250 1075 3862 
Q 775 3475 775 2175 
Q 925 2500 1187 2662 
Q 1450 2825 1750 2825 
z
" transform="scale(0.015625)"/>
       </defs>
       <use xlink:href="#SimSun-36"/>
       <use xlink:href="#SimSun-30" x="50"/>
      </g>
     </g>
    </g>
    <g id="xtick_8">
     <g id="line2d_8">
      <g>
       <use xlink:href="#mc394f95410" x="615.168" y="461.376" style="stroke: #000000; stroke-width: 0.8"/>
      </g>
     </g>
     <g id="text_8">
      <!-- 70 -->
      <g transform="translate(605.668 481.958031) scale(0.19 -0.19)">
       <defs>
        <path id="SimSun-37" d="M 2825 4200 
Q 2300 3350 1987 2537 
Q 1675 1725 1675 1125 
Q 1675 1025 1700 850 
Q 1700 650 1700 400 
Q 1700 200 1637 125 
Q 1575 50 1425 50 
Q 1300 50 1212 137 
Q 1125 225 1125 450 
Q 1125 925 1337 1625 
Q 1550 2325 2475 4000 
L 1225 4000 
Q 950 4000 787 3825 
Q 625 3650 550 3300 
L 400 3325 
L 575 4375 
L 2825 4375 
L 2825 4200 
z
" transform="scale(0.015625)"/>
       </defs>
       <use xlink:href="#SimSun-37"/>
       <use xlink:href="#SimSun-30" x="50"/>
      </g>
     </g>
    </g>
    <g id="xtick_9">
     <g id="line2d_9">
      <g>
       <use xlink:href="#mc394f95410" x="686.592" y="461.376" style="stroke: #000000; stroke-width: 0.8"/>
      </g>
     </g>
     <g id="text_9">
      <!-- 80 -->
      <g transform="translate(677.092 481.958031) scale(0.19 -0.19)">
       <defs>
        <path id="SimSun-38" d="M 625 1125 
Q 625 725 887 475 
Q 1150 225 1550 225 
Q 2025 225 2237 475 
Q 2450 725 2450 1100 
Q 2450 1425 2150 1725 
Q 1850 2025 1250 2275 
Q 950 2075 787 1775 
Q 625 1475 625 1125 
z
M 2825 1175 
Q 2825 700 2475 375 
Q 2125 50 1550 50 
Q 1025 50 650 375 
Q 275 700 275 1125 
Q 275 1550 487 1850 
Q 700 2150 1100 2375 
Q 750 2550 562 2812 
Q 375 3075 375 3400 
Q 375 3825 700 4125 
Q 1025 4425 1600 4425 
Q 2125 4425 2450 4125 
Q 2775 3825 2775 3400 
Q 2775 3100 2587 2837 
Q 2400 2575 2000 2375 
Q 2425 2125 2625 1825 
Q 2825 1525 2825 1175 
z
M 2425 3375 
Q 2425 3725 2225 3987 
Q 2025 4250 1600 4250 
Q 1125 4250 925 4000 
Q 725 3750 725 3475 
Q 725 3200 1012 2937 
Q 1300 2675 1825 2475 
Q 2125 2625 2275 2850 
Q 2425 3075 2425 3375 
z
" transform="scale(0.015625)"/>
       </defs>
       <use xlink:href="#SimSun-38"/>
       <use xlink:href="#SimSun-30" x="50"/>
      </g>
     </g>
    </g>
    <g id="xtick_10">
     <g id="line2d_10">
      <g>
       <use xlink:href="#mc394f95410" x="758.016" y="461.376" style="stroke: #000000; stroke-width: 0.8"/>
      </g>
     </g>
     <g id="text_10">
      <!-- 90 -->
      <g transform="translate(748.516 481.958031) scale(0.19 -0.19)">
       <defs>
        <path id="SimSun-39" d="M 700 3050 
Q 700 2500 912 2212 
Q 1125 1925 1450 1925 
Q 1825 1925 2100 2275 
Q 2375 2625 2375 2925 
Q 2375 3525 2175 3887 
Q 1975 4250 1525 4250 
Q 1100 4250 900 3912 
Q 700 3575 700 3050 
z
M 1375 1700 
Q 875 1700 575 2012 
Q 275 2325 275 3025 
Q 275 3625 600 4025 
Q 925 4425 1525 4425 
Q 2150 4425 2500 3925 
Q 2850 3425 2850 2475 
Q 2850 1425 2437 737 
Q 2025 50 1300 50 
Q 975 50 737 200 
Q 500 350 500 600 
Q 500 700 562 800 
Q 625 900 775 900 
Q 925 900 975 787 
Q 1025 675 1025 525 
Q 1025 425 1050 362 
Q 1075 300 1100 275 
Q 1125 250 1187 237 
Q 1250 225 1325 225 
Q 1775 225 2050 725 
Q 2325 1225 2375 2400 
Q 2250 2100 2000 1900 
Q 1750 1700 1375 1700 
z
" transform="scale(0.015625)"/>
       </defs>
       <use xlink:href="#SimSun-39"/>
       <use xlink:href="#SimSun-30" x="50"/>
      </g>
     </g>
    </g>
    <g id="xtick_11">
     <g id="line2d_11">
      <g>
       <use xlink:href="#mc394f95410" x="829.44" y="461.376" style="stroke: #000000; stroke-width: 0.8"/>
      </g>
     </g>
     <g id="text_11">
      <!-- 100 -->
      <g transform="translate(815.19 481.958031) scale(0.19 -0.19)">
       <use xlink:href="#SimSun-31"/>
       <use xlink:href="#SimSun-30" x="50"/>
       <use xlink:href="#SimSun-30" x="100"/>
      </g>
     </g>
    </g>
    <g id="text_12">
     <!-- 索引装载率 $\mathrm{(\%)}$ -->
     <g transform="translate(406.58 504.17725) scale(0.19 -0.19)">
      <defs>
       <path id="SimSun-7d22" d="M 4725 1325 
Q 4375 1250 3450 1150 
L 3450 -50 
Q 3475 -500 2875 -625 
Q 2875 -325 2200 -125 
L 2200 -25 
Q 2850 -75 2987 -75 
Q 3125 -75 3100 175 
L 3100 1100 
Q 2400 1025 2050 925 
Q 1700 825 1475 700 
L 1225 1175 
Q 1525 1250 2050 1525 
Q 2575 1800 3225 2200 
Q 2900 2200 2437 2150 
Q 1975 2100 1650 1950 
L 1425 2375 
Q 1775 2425 2212 2737 
Q 2650 3050 2875 3375 
L 1000 3375 
Q 1050 3000 975 2850 
Q 900 2700 800 2675 
Q 700 2650 625 2650 
Q 525 2650 462 2675 
Q 400 2700 400 2725 
Q 400 2800 550 2975 
Q 750 3225 875 3800 
L 975 3800 
L 1000 3525 
L 3025 3525 
L 3025 4250 
L 1575 4250 
Q 1375 4250 1100 4175 
L 875 4400 
L 3025 4400 
L 3025 4775 
Q 3025 5025 3000 5275 
L 3625 5050 
L 3375 4900 
L 3375 4400 
L 4725 4400 
L 5125 4750 
L 5575 4250 
L 3375 4250 
L 3375 3525 
L 5300 3525 
L 5500 3750 
L 5950 3325 
Q 5600 3300 5050 2675 
L 4975 2725 
L 5325 3375 
L 2925 3375 
L 3325 3100 
Q 3100 3075 2675 2800 
Q 2250 2500 1925 2350 
L 3425 2375 
Q 3775 2625 4050 3000 
L 4475 2625 
Q 4250 2600 3850 2325 
Q 3425 2050 2975 1787 
Q 2525 1525 2025 1250 
L 4625 1450 
Q 4275 1825 3950 2050 
L 4000 2125 
Q 4700 1850 4962 1662 
Q 5225 1475 5275 1312 
Q 5325 1150 5212 937 
Q 5100 725 4987 925 
Q 4875 1125 4725 1325 
z
M 3925 725 
Q 5025 375 5312 212 
Q 5600 50 5612 -150 
Q 5625 -350 5562 -425 
Q 5500 -500 5475 -500 
Q 5375 -500 5200 -275 
Q 4925 50 3900 650 
L 3925 725 
z
M 2150 750 
L 2575 350 
Q 2275 350 1775 75 
Q 1275 -225 425 -525 
L 375 -450 
Q 1600 150 2150 750 
z
" transform="scale(0.015625)"/>
       <path id="SimSun-5f15" d="M 5075 4675 
L 5075 575 
Q 5075 100 5100 -425 
L 4700 -600 
Q 4725 175 4725 725 
Q 4725 4575 4700 5150 
L 5300 4850 
L 5075 4675 
z
M 3375 4475 
Q 3375 3475 3400 3125 
L 3025 3000 
L 3025 3250 
L 1525 3250 
L 1275 2150 
L 3125 2150 
L 3325 2400 
L 3750 2050 
L 3500 1900 
Q 3375 1125 3225 575 
Q 3075 25 2850 -187 
Q 2625 -400 2250 -475 
Q 2275 -125 1600 125 
L 1600 225 
Q 2125 125 2350 112 
Q 2575 100 2675 225 
Q 2775 350 2900 787 
Q 3025 1225 3150 2000 
L 1275 2000 
L 1100 1775 
L 725 2125 
Q 925 2200 1025 2575 
Q 1125 2950 1200 3675 
L 1575 3400 
L 3025 3400 
L 3025 4550 
L 1650 4550 
Q 1325 4550 1050 4475 
L 825 4700 
L 3000 4700 
L 3175 4950 
L 3575 4650 
L 3375 4475 
z
" transform="scale(0.015625)"/>
       <path id="SimSun-88c5" d="M 700 4725 
Q 1375 4450 1462 4325 
Q 1550 4200 1550 4125 
Q 1550 4025 1475 3887 
Q 1400 3750 1350 3750 
Q 1275 3750 1200 3925 
Q 1075 4225 650 4675 
L 700 4725 
z
M 2250 4775 
L 2250 2200 
L 1900 1975 
Q 1925 2600 1925 3475 
Q 1400 3150 1062 2887 
Q 725 2625 700 2475 
L 350 2900 
Q 775 3025 1925 3625 
Q 1925 4900 1900 5250 
L 2475 4925 
L 2250 4775 
z
M 2375 4000 
L 3900 4000 
Q 3900 4850 3875 5175 
L 4450 4925 
L 4225 4750 
L 4225 4000 
L 5125 4000 
L 5475 4350 
L 5950 3850 
L 4225 3850 
L 4225 2800 
L 4900 2800 
L 5250 3100 
L 5700 2650 
L 3475 2650 
Q 3150 2650 2875 2575 
L 2650 2800 
L 3900 2800 
L 3900 3850 
L 3200 3850 
Q 2875 3850 2600 3775 
L 2375 4000 
z
M 3125 1800 
Q 3125 2100 2650 2525 
L 2700 2575 
Q 3300 2375 3387 2250 
Q 3475 2125 3475 2050 
Q 3475 1950 3350 1800 
L 5050 1800 
L 5475 2175 
L 6000 1650 
L 3325 1650 
Q 3600 1225 4150 675 
Q 4775 1225 5000 1625 
L 5425 1200 
Q 5225 1175 4987 1050 
Q 4750 925 4250 600 
Q 4550 350 5037 162 
Q 5525 -25 6100 -75 
L 6100 -175 
Q 5675 -250 5550 -550 
Q 4825 -250 4262 212 
Q 3700 675 3175 1650 
Q 2825 1325 2450 1025 
L 2450 -25 
L 3750 375 
L 3800 300 
Q 2450 -300 2300 -625 
L 2000 -200 
Q 2150 -75 2125 75 
L 2125 800 
Q 1325 300 275 0 
L 250 75 
Q 1725 700 2725 1650 
L 1200 1650 
Q 875 1650 600 1575 
L 375 1800 
L 3125 1800 
z
" transform="scale(0.015625)"/>
       <path id="SimSun-8f7d" d="M 1850 5200 
L 2375 5000 
L 2200 4825 
L 2200 4325 
L 2675 4325 
L 2975 4600 
L 3400 4175 
L 2200 4175 
L 2200 3525 
L 3700 3525 
Q 3675 4525 3650 5200 
L 4200 4950 
L 4000 4775 
Q 4000 3950 4025 3525 
L 5250 3525 
L 5625 3850 
L 6100 3375 
L 4050 3375 
Q 4125 2300 4425 1400 
Q 4925 2200 5175 3075 
L 5650 2750 
L 5450 2575 
Q 5075 1775 4575 1050 
Q 4950 350 5650 -50 
L 5875 1050 
L 5975 1025 
Q 5925 350 5950 25 
Q 5975 -300 6075 -500 
Q 6125 -625 6025 -625 
Q 5975 -625 5775 -562 
Q 5575 -500 5125 -150 
Q 4675 200 4350 775 
Q 3575 -125 2625 -600 
L 2575 -525 
Q 3575 175 4175 1075 
Q 3825 1950 3725 3375 
L 1100 3375 
Q 775 3375 500 3300 
L 275 3525 
L 1875 3525 
L 1875 4175 
L 1525 4175 
Q 1200 4175 925 4100 
L 700 4325 
L 1875 4325 
Q 1875 4800 1850 5200 
z
M 4500 4850 
Q 5000 4650 5212 4512 
Q 5425 4375 5400 4187 
Q 5375 4000 5300 3925 
Q 5225 3850 5200 3850 
Q 5125 3850 5025 4050 
Q 4900 4325 4450 4775 
L 4500 4850 
z
M 500 525 
Q 850 550 1975 725 
L 1975 1400 
L 1150 1400 
L 975 1250 
L 700 1575 
Q 900 1575 1350 2450 
L 1150 2450 
Q 850 2450 575 2375 
L 350 2600 
L 1425 2600 
Q 1625 3025 1700 3300 
L 2150 3025 
L 1975 2950 
Q 1900 2850 1775 2600 
L 2700 2600 
L 3025 2900 
L 3425 2450 
L 1700 2450 
L 1175 1550 
L 1975 1550 
Q 1975 1925 1950 2300 
L 2450 2075 
L 2300 1900 
L 2300 1550 
L 2800 1550 
L 3075 1850 
L 3475 1400 
L 2300 1400 
L 2300 775 
L 3400 925 
L 3425 850 
L 2300 575 
Q 2300 -50 2325 -400 
L 1950 -550 
Q 1975 225 1975 500 
Q 850 275 725 100 
L 500 525 
z
" transform="scale(0.015625)"/>
       <path id="SimSun-7387" d="M 875 3725 
L 925 3800 
Q 1375 3650 1550 3525 
Q 1725 3400 1725 3250 
Q 1725 3175 1662 3025 
Q 1600 2875 1550 2875 
Q 1500 2875 1425 3050 
Q 1275 3325 875 3725 
z
M 550 1850 
Q 875 1925 2000 2575 
L 2050 2500 
Q 1675 2225 1337 1937 
Q 1000 1650 875 1425 
L 550 1850 
z
M 5200 3450 
Q 4800 3150 4275 2800 
L 4225 2875 
Q 4775 3400 5050 3925 
L 5450 3525 
L 5200 3450 
z
M 4325 2500 
L 4350 2575 
Q 5225 2350 5375 2212 
Q 5525 2075 5525 1900 
Q 5525 1775 5487 1662 
Q 5450 1550 5400 1550 
Q 5325 1550 5200 1800 
Q 4975 2150 4325 2500 
z
M 3150 3900 
Q 2500 3300 2300 3150 
Q 2800 3150 3400 3175 
Q 3700 3500 3850 3825 
L 4250 3450 
Q 4050 3400 3450 2825 
Q 2850 2250 2475 1950 
Q 3150 1975 3850 2000 
Q 3750 2175 3550 2450 
L 3600 2500 
Q 4050 2250 4200 2100 
Q 4350 1950 4350 1850 
Q 4350 1775 4250 1625 
Q 4150 1475 4100 1475 
Q 4075 1475 4050 1550 
Q 4000 1700 3900 1900 
Q 3650 1875 3075 1800 
L 3500 1550 
L 3325 1425 
L 3325 975 
L 5325 975 
L 5650 1300 
L 6100 825 
L 3325 825 
Q 3325 -275 3350 -525 
L 2975 -650 
Q 3000 0 3000 825 
L 1125 825 
Q 800 825 525 750 
L 300 975 
L 3000 975 
L 3000 1775 
Q 2450 1700 2200 1525 
L 1950 1950 
Q 2275 1950 2675 2350 
Q 3075 2750 3325 3050 
Q 2400 2950 2150 2775 
L 1950 3175 
Q 2150 3150 2475 3575 
Q 2800 4000 2900 4225 
L 1450 4225 
Q 1125 4225 850 4150 
L 625 4375 
L 3100 4375 
Q 3050 4800 2675 5200 
L 2725 5250 
Q 3225 5050 3337 4912 
Q 3450 4775 3450 4700 
Q 3450 4550 3250 4375 
L 5025 4375 
L 5350 4675 
L 5775 4225 
L 3050 4225 
L 3375 3950 
L 3150 3900 
z
" transform="scale(0.015625)"/>
       <path id="SimSun-20" d="M 0 0 
Q 0 0 0 0 
z
" transform="scale(0.015625)"/>
       <path id="STIXGeneral-Regular-28" d="M 1946 -1030 
L 1869 -1133 
Q 1126 -710 716 32 
Q 307 774 307 1613 
Q 307 3386 1888 4326 
L 1946 4224 
Q 1293 3667 1075 3126 
Q 858 2586 858 1632 
Q 858 685 1082 96 
Q 1306 -493 1946 -1030 
z
" transform="scale(0.015625)"/>
       <path id="STIXGeneral-Regular-25" d="M 4390 1363 
Q 4390 781 4070 329 
Q 3750 -122 3341 -122 
Q 3014 -122 2790 134 
Q 2566 390 2566 762 
Q 2566 1274 2940 1693 
Q 3315 2112 3776 2112 
Q 4070 2112 4230 1917 
Q 4390 1722 4390 1363 
z
M 4243 1376 
Q 4243 1626 4131 1779 
Q 4019 1933 3840 1933 
Q 3654 1933 3526 1786 
Q 3315 1562 3171 1187 
Q 3027 813 3027 486 
Q 3027 301 3129 176 
Q 3232 51 3386 51 
Q 3718 51 3980 457 
Q 4243 864 4243 1376 
z
M 3974 4518 
L 1222 -115 
L 922 -115 
L 3443 4096 
Q 3264 3891 3094 3811 
Q 2925 3731 2669 3731 
Q 2445 3731 2182 3821 
Q 2208 3674 2208 3539 
Q 2208 3206 2067 2873 
Q 1926 2541 1696 2323 
Q 1453 2086 1146 2086 
Q 826 2086 608 2339 
Q 390 2592 390 2963 
Q 390 3507 761 3916 
Q 1133 4326 1626 4326 
Q 1792 4326 2010 4147 
Q 2310 3898 2624 3898 
Q 2918 3898 3084 3994 
Q 3251 4090 3693 4518 
L 3974 4518 
z
M 2054 3642 
Q 2054 3782 2025 3833 
Q 1997 3885 1894 3936 
Q 1747 4006 1613 4154 
Q 1414 4058 1331 3984 
Q 1248 3910 1152 3750 
Q 845 3264 845 2707 
Q 845 2509 944 2384 
Q 1043 2259 1210 2259 
Q 1549 2259 1801 2675 
Q 2054 3091 2054 3642 
z
" transform="scale(0.015625)"/>
       <path id="STIXGeneral-Regular-29" d="M 186 4224 
L 262 4326 
Q 992 3891 1408 3148 
Q 1824 2406 1824 1581 
Q 1824 -166 243 -1133 
L 186 -1030 
Q 845 -486 1059 54 
Q 1274 595 1274 1562 
Q 1274 2534 1059 3120 
Q 845 3706 186 4224 
z
" transform="scale(0.015625)"/>
      </defs>
      <use xlink:href="#SimSun-7d22" transform="translate(0 0.578125)"/>
      <use xlink:href="#SimSun-5f15" transform="translate(100 0.578125)"/>
      <use xlink:href="#SimSun-88c5" transform="translate(200 0.578125)"/>
      <use xlink:href="#SimSun-8f7d" transform="translate(300 0.578125)"/>
      <use xlink:href="#SimSun-7387" transform="translate(400 0.578125)"/>
      <use xlink:href="#SimSun-20" transform="translate(500 0.578125)"/>
      <use xlink:href="#STIXGeneral-Regular-28" transform="translate(550 0.578125)"/>
      <use xlink:href="#STIXGeneral-Regular-25" transform="translate(583.299988 0.578125)"/>
      <use xlink:href="#STIXGeneral-Regular-29" transform="translate(657.999969 0.578125)"/>
     </g>
    </g>
   </g>
   <g id="matplotlib.axis_2">
    <g id="ytick_1">
     <g id="line2d_12">
      <defs>
       <path id="mfea0386ece" d="M 0 0 
L -3.5 0 
" style="stroke: #000000; stroke-width: 0.8"/>
      </defs>
      <g>
       <use xlink:href="#mfea0386ece" x="115.2" y="461.376" style="stroke: #000000; stroke-width: 0.8"/>
      </g>
     </g>
     <g id="text_13">
      <!-- 0 -->
      <g transform="translate(98.7 468.167016) scale(0.19 -0.19)">
       <use xlink:href="#SimSun-30"/>
      </g>
     </g>
    </g>
    <g id="ytick_2">
     <g id="line2d_13">
      <g>
       <use xlink:href="#mfea0386ece" x="115.2" y="421.4592" style="stroke: #000000; stroke-width: 0.8"/>
      </g>
     </g>
     <g id="text_14">
      <!-- 10 -->
      <g transform="translate(89.2 428.250216) scale(0.19 -0.19)">
       <use xlink:href="#SimSun-31"/>
       <use xlink:href="#SimSun-30" x="50"/>
      </g>
     </g>
    </g>
    <g id="ytick_3">
     <g id="line2d_14">
      <g>
       <use xlink:href="#mfea0386ece" x="115.2" y="381.5424" style="stroke: #000000; stroke-width: 0.8"/>
      </g>
     </g>
     <g id="text_15">
      <!-- 20 -->
      <g transform="translate(89.2 388.333416) scale(0.19 -0.19)">
       <use xlink:href="#SimSun-32"/>
       <use xlink:href="#SimSun-30" x="50"/>
      </g>
     </g>
    </g>
    <g id="ytick_4">
     <g id="line2d_15">
      <g>
       <use xlink:href="#mfea0386ece" x="115.2" y="341.6256" style="stroke: #000000; stroke-width: 0.8"/>
      </g>
     </g>
     <g id="text_16">
      <!-- 30 -->
      <g transform="translate(89.2 348.416616) scale(0.19 -0.19)">
       <use xlink:href="#SimSun-33"/>
       <use xlink:href="#SimSun-30" x="50"/>
      </g>
     </g>
    </g>
    <g id="ytick_5">
     <g id="line2d_16">
      <g>
       <use xlink:href="#mfea0386ece" x="115.2" y="301.7088" style="stroke: #000000; stroke-width: 0.8"/>
      </g>
     </g>
     <g id="text_17">
      <!-- 40 -->
      <g transform="translate(89.2 308.499816) scale(0.19 -0.19)">
       <use xlink:href="#SimSun-34"/>
       <use xlink:href="#SimSun-30" x="50"/>
      </g>
     </g>
    </g>
    <g id="ytick_6">
     <g id="line2d_17">
      <g>
       <use xlink:href="#mfea0386ece" x="115.2" y="261.792" style="stroke: #000000; stroke-width: 0.8"/>
      </g>
     </g>
     <g id="text_18">
      <!-- 50 -->
      <g transform="translate(89.2 268.583016) scale(0.19 -0.19)">
       <use xlink:href="#SimSun-35"/>
       <use xlink:href="#SimSun-30" x="50"/>
      </g>
     </g>
    </g>
    <g id="ytick_7">
     <g id="line2d_18">
      <g>
       <use xlink:href="#mfea0386ece" x="115.2" y="221.8752" style="stroke: #000000; stroke-width: 0.8"/>
      </g>
     </g>
     <g id="text_19">
      <!-- 60 -->
      <g transform="translate(89.2 228.666216) scale(0.19 -0.19)">
       <use xlink:href="#SimSun-36"/>
       <use xlink:href="#SimSun-30" x="50"/>
      </g>
     </g>
    </g>
    <g id="ytick_8">
     <g id="line2d_19">
      <g>
       <use xlink:href="#mfea0386ece" x="115.2" y="181.9584" style="stroke: #000000; stroke-width: 0.8"/>
      </g>
     </g>
     <g id="text_20">
      <!-- 70 -->
      <g transform="translate(89.2 188.749416) scale(0.19 -0.19)">
       <use xlink:href="#SimSun-37"/>
       <use xlink:href="#SimSun-30" x="50"/>
      </g>
     </g>
    </g>
    <g id="ytick_9">
     <g id="line2d_20">
      <g>
       <use xlink:href="#mfea0386ece" x="115.2" y="142.0416" style="stroke: #000000; stroke-width: 0.8"/>
      </g>
     </g>
     <g id="text_21">
      <!-- 80 -->
      <g transform="translate(89.2 148.832616) scale(0.19 -0.19)">
       <use xlink:href="#SimSun-38"/>
       <use xlink:href="#SimSun-30" x="50"/>
      </g>
     </g>
    </g>
    <g id="ytick_10">
     <g id="line2d_21">
      <g>
       <use xlink:href="#mfea0386ece" x="115.2" y="102.1248" style="stroke: #000000; stroke-width: 0.8"/>
      </g>
     </g>
     <g id="text_22">
      <!-- 90 -->
      <g transform="translate(89.2 108.915816) scale(0.19 -0.19)">
       <use xlink:href="#SimSun-39"/>
       <use xlink:href="#SimSun-30" x="50"/>
      </g>
     </g>
    </g>
    <g id="ytick_11">
     <g id="line2d_22">
      <g>
       <use xlink:href="#mfea0386ece" x="115.2" y="62.208" style="stroke: #000000; stroke-width: 0.8"/>
      </g>
     </g>
     <g id="text_23">
      <!-- 100 -->
      <g transform="translate(79.7 68.999016) scale(0.19 -0.19)">
       <use xlink:href="#SimSun-31"/>
       <use xlink:href="#SimSun-30" x="50"/>
       <use xlink:href="#SimSun-30" x="100"/>
      </g>
     </g>
    </g>
    <g id="text_24">
     <!-- 读取命中率 $\mathrm{(\%)}$ -->
     <g transform="translate(72.28 327.532) rotate(-90) scale(0.19 -0.19)">
      <defs>
       <path id="SimSun-8bfb" d="M 1450 275 
L 2375 850 
L 2425 775 
Q 1600 50 1325 -325 
L 1025 50 
Q 1125 175 1125 400 
L 1125 2850 
L 1050 2850 
Q 725 2850 450 2775 
L 225 3000 
L 1125 3000 
L 1350 3225 
L 1675 2900 
L 1450 2725 
L 1450 275 
z
M 750 4925 
L 800 5000 
Q 1150 4800 1387 4600 
Q 1625 4400 1587 4200 
Q 1550 4000 1400 3925 
Q 1250 3850 1175 4200 
Q 1100 4525 750 4925 
z
M 5100 2700 
L 5425 3325 
L 2575 3325 
Q 2375 3325 2100 3250 
L 1875 3475 
L 3650 3475 
L 3650 4250 
L 3025 4250 
Q 2700 4250 2425 4175 
L 2200 4400 
L 3650 4400 
Q 3650 4825 3625 5250 
L 4175 5000 
L 3975 4825 
L 3975 4400 
L 4875 4400 
L 5150 4675 
L 5550 4250 
L 3975 4250 
L 3975 3475 
L 5375 3475 
L 5625 3750 
L 6075 3300 
Q 5725 3275 5200 2650 
L 5100 2700 
z
M 2750 2925 
L 2775 3000 
Q 3350 2825 3462 2687 
Q 3575 2550 3575 2450 
Q 3575 2350 3512 2250 
Q 3450 2150 3425 2150 
Q 3350 2150 3275 2350 
Q 3125 2625 2750 2925 
z
M 2375 2275 
Q 2975 2075 3100 1950 
Q 3225 1825 3225 1700 
Q 3225 1625 3162 1512 
Q 3100 1400 3075 1400 
Q 3000 1400 2900 1625 
Q 2725 1925 2350 2200 
L 2375 2275 
z
M 4475 2625 
Q 4425 1550 4350 1175 
L 5275 1175 
L 5600 1500 
L 6050 1025 
L 4325 1025 
Q 4250 825 4125 575 
Q 4850 350 5200 150 
Q 5550 -50 5600 -237 
Q 5650 -425 5587 -500 
Q 5525 -575 5475 -575 
Q 5350 -575 5175 -325 
Q 4925 25 4075 475 
Q 3425 -425 1975 -650 
L 1950 -550 
Q 3600 -100 3975 1025 
L 2700 1025 
Q 2500 1025 2225 950 
L 2000 1175 
L 4000 1175 
Q 4100 1800 4100 3075 
L 4675 2800 
L 4475 2625 
z
" transform="scale(0.015625)"/>
       <path id="SimSun-53d6" d="M 1300 2225 
L 1300 1125 
L 2425 1350 
L 2425 2225 
L 1300 2225 
z
M 2750 1225 
Q 2750 100 2775 -350 
L 2400 -575 
Q 2425 125 2425 1150 
Q 775 700 575 425 
L 325 925 
Q 625 975 975 1050 
L 975 4650 
L 775 4650 
L 525 4600 
L 325 4800 
L 2675 4800 
L 2975 5100 
L 3425 4650 
L 2750 4650 
L 2750 1425 
L 3500 1575 
L 3525 1475 
L 2750 1225 
z
M 1300 4650 
L 1300 3600 
L 2425 3600 
L 2425 4650 
L 1300 4650 
z
M 2425 3450 
L 1300 3450 
L 1300 2375 
L 2425 2375 
L 2425 3450 
z
M 2925 4175 
L 5050 4175 
L 5250 4425 
L 5700 4075 
L 5475 3925 
Q 5100 2350 4550 1275 
Q 5200 375 6100 125 
L 6100 25 
Q 5775 -25 5600 -275 
Q 4875 225 4375 975 
Q 3700 25 2825 -525 
L 2775 -450 
Q 3650 325 4175 1250 
Q 3650 2625 3525 4025 
L 3350 4025 
L 3125 3975 
L 2925 4175 
z
M 3650 4025 
Q 3900 2525 4350 1600 
Q 4825 2650 5075 4025 
L 3650 4025 
z
" transform="scale(0.015625)"/>
       <path id="SimSun-547d" d="M 1775 3150 
L 3650 3150 
L 3950 3450 
L 4400 3000 
L 2550 3000 
Q 2225 3000 2000 2925 
L 1775 3150 
z
M 1450 2125 
L 1450 575 
L 2400 575 
L 2400 2125 
L 1450 2125 
z
M 1100 -250 
Q 1125 525 1125 1125 
Q 1125 1725 1100 2500 
L 1450 2275 
L 2350 2275 
L 2525 2500 
L 2900 2200 
L 2725 2050 
Q 2725 550 2750 150 
L 2400 0 
L 2400 425 
L 1450 425 
L 1450 -100 
L 1100 -250 
z
M 3775 2175 
L 3775 -450 
L 3425 -625 
Q 3450 75 3450 1050 
Q 3450 2025 3425 2550 
L 3775 2325 
L 4825 2325 
L 5000 2575 
L 5400 2275 
L 5200 2100 
L 5200 525 
Q 5225 75 4700 -125 
Q 4700 150 4025 325 
L 4025 425 
Q 4550 375 4712 375 
Q 4875 375 4875 700 
L 4875 2175 
L 3775 2175 
z
M 2975 5275 
L 3475 4900 
L 3250 4725 
Q 3750 4025 4450 3625 
Q 5150 3225 6125 3075 
L 6125 2975 
Q 5700 2950 5550 2625 
Q 4650 3050 4112 3500 
Q 3575 3950 3150 4650 
Q 2600 3900 1962 3362 
Q 1325 2825 275 2425 
L 225 2525 
Q 1250 2975 1962 3750 
Q 2675 4525 2975 5275 
z
" transform="scale(0.015625)"/>
       <path id="SimSun-4e2d" d="M 3325 3625 
L 3325 1975 
L 5125 1975 
L 5125 3625 
L 3325 3625 
z
M 2950 3775 
Q 2950 4750 2925 5250 
L 3525 4975 
L 3325 4775 
L 3325 3775 
L 5075 3775 
L 5275 4075 
L 5700 3750 
L 5475 3550 
L 5475 2100 
Q 5475 1825 5500 1525 
L 5125 1375 
L 5125 1825 
L 3325 1825 
Q 3325 -75 3350 -400 
L 2925 -625 
Q 2950 -50 2950 1825 
L 1225 1825 
L 1225 1525 
L 850 1325 
Q 875 1775 875 2625 
Q 875 3475 850 4000 
L 1225 3775 
L 2950 3775 
z
M 1225 3625 
L 1225 1975 
L 2950 1975 
L 2950 3625 
L 1225 3625 
z
" transform="scale(0.015625)"/>
      </defs>
      <use xlink:href="#SimSun-8bfb" transform="translate(0 0.578125)"/>
      <use xlink:href="#SimSun-53d6" transform="translate(100 0.578125)"/>
      <use xlink:href="#SimSun-547d" transform="translate(200 0.578125)"/>
      <use xlink:href="#SimSun-4e2d" transform="translate(300 0.578125)"/>
      <use xlink:href="#SimSun-7387" transform="translate(400 0.578125)"/>
      <use xlink:href="#SimSun-20" transform="translate(500 0.578125)"/>
      <use xlink:href="#STIXGeneral-Regular-28" transform="translate(550 0.578125)"/>
      <use xlink:href="#STIXGeneral-Regular-25" transform="translate(583.299988 0.578125)"/>
      <use xlink:href="#STIXGeneral-Regular-29" transform="translate(657.999969 0.578125)"/>
     </g>
    </g>
   </g>
   <g id="line2d_23">
    <path d="M 115.619973 460.510359 
L 116.777042 460.298678 
L 119.044754 459.465415 
L 124.702249 456.858389 
L 137.280015 450.976526 
L 153.658253 443.119843 
L 165.621773 437.852146 
L 174.141228 433.785408 
L 176.589642 432.527379 
L 183.975598 429.122332 
L 187.678218 427.373818 
L 195.1006 424.122886 
L 206.197747 418.852775 
L 209.878226 416.839451 
L 212.326641 415.798242 
L 215.996406 414.434744 
L 219.656886 412.69378 
L 225.740782 409.727176 
L 229.377692 407.960431 
L 231.793966 406.781615 
L 241.434778 402.600336 
L 247.41868 399.545924 
L 253.391869 396.965414 
L 256.968783 395.311773 
L 261.71348 392.844945 
L 267.620244 390.137563 
L 273.494154 387.350842 
L 277.011072 385.953224 
L 286.329761 381.465561 
L 290.960893 379.125373 
L 294.4271 377.414897 
L 301.315945 374.438156 
L 305.88351 371.924964 
L 308.16265 370.973633 
L 311.575288 369.705969 
L 314.972928 368.119837 
L 322.856709 364.247474 
L 326.212209 362.651747 
L 330.680494 360.38658 
L 343.934646 354.42935 
L 346.125934 353.588582 
L 348.307223 352.483193 
L 351.567729 350.586224 
L 353.741875 349.630648 
L 358.059456 347.84405 
L 361.289964 346.628913 
L 363.434826 345.777557 
L 365.575404 344.679165 
L 370.893635 341.590322 
L 373.015642 340.634067 
L 376.191867 339.385989 
L 380.395169 337.517285 
L 383.529254 336.333907 
L 385.614835 335.351319 
L 389.765998 333.118829 
L 397.993329 329.533373 
L 402.066639 327.335201 
L 405.106445 326.079302 
L 411.136059 323.211409 
L 415.129375 321.445339 
L 420.069773 318.823568 
L 429.81772 314.613871 
L 432.715392 313.237254 
L 436.558003 311.754959 
L 438.467167 310.739862 
L 441.309842 308.893742 
L 443.195436 308.157058 
L 445.078886 307.56342 
L 447.88585 306.345607 
L 449.752159 305.361058 
L 451.606326 304.317847 
L 458.035914 301.330996 
L 463.487708 299.093049 
L 481.161577 290.731031 
L 485.450588 288.41372 
L 491.388065 285.903132 
L 493.068672 285.211398 
L 496.39703 283.674455 
L 498.051924 282.945496 
L 502.150948 280.810825 
L 503.779415 279.934 
L 505.400026 278.984445 
L 507.015636 278.342506 
L 508.61982 277.819287 
L 511.01538 276.735746 
L 514.176607 275.019049 
L 516.525742 273.391855 
L 517.309263 273.019982 
L 518.856307 272.628966 
L 521.942538 272.155761 
L 523.481011 271.451926 
L 525.004485 270.627513 
L 527.276483 269.600351 
L 531.768338 266.881626 
L 533.250386 266.508131 
L 534.72672 266.217662 
L 536.198769 265.591066 
L 538.388628 264.575597 
L 539.833536 263.963926 
L 541.273444 263.057012 
L 543.414735 261.286473 
L 544.835359 260.58838 
L 546.955937 259.901722 
L 548.357276 259.20259 
L 549.751473 258.405917 
L 551.144955 257.881044 
L 552.529866 257.46588 
L 553.899779 256.857473 
L 558.655188 254.420344 
L 560.668631 253.70331 
L 563.326318 252.580658 
L 564.644091 252.032575 
L 571.107963 248.69505 
L 574.282045 247.722679 
L 575.538394 246.873572 
L 579.260298 244.005941 
L 579.879544 243.72921 
L 581.103752 243.522624 
L 582.323674 243.378228 
L 584.141414 242.864902 
L 585.945585 242.211683 
L 587.731185 241.203401 
L 590.087462 240.342429 
L 591.840207 239.384146 
L 600.926769 235.443461 
L 602.030984 235.005228 
L 603.128771 234.204512 
L 604.772951 232.73095 
L 605.856453 232.294681 
L 608.007744 231.898569 
L 610.125466 231.076185 
L 611.176113 230.435161 
L 613.771661 228.368928 
L 614.806595 228.099966 
L 615.832243 227.837799 
L 618.366367 226.973499 
L 620.372667 226.572174 
L 622.84608 225.548387 
L 624.312415 224.483619 
L 625.769464 223.795677 
L 627.686484 222.444596 
L 630.045619 221.557748 
L 630.979845 221.000636 
L 632.371185 219.806526 
L 632.829727 219.637929 
L 634.198925 219.479051 
L 636.459494 218.689345 
L 637.797266 217.933383 
L 638.684352 217.411832 
L 641.293471 216.230521 
L 643.008361 214.811365 
L 643.429048 214.703551 
L 644.699681 214.698711 
L 645.538199 214.356477 
L 649.632937 211.779613 
L 650.831432 210.786484 
L 651.229263 210.70431 
L 653.204851 210.893414 
L 653.986944 210.469931 
L 655.149012 209.644013 
L 657.438866 208.718573 
L 658.570936 208.437581 
L 659.313032 208.25785 
L 660.051556 207.884993 
L 661.513605 207.014411 
L 662.236416 206.825911 
L 664.751969 206.559411 
L 666.531855 206.229343 
L 667.583217 206.016615 
L 668.970985 205.490209 
L 671.693668 205.448538 
L 674.369211 205.287923 
L 675.359148 205.267987 
L 676.650493 204.887135 
L 680.166697 205.323244 
L 680.796657 205.134172 
L 681.735882 204.758973 
L 683.276498 204.760368 
L 684.201439 204.442329 
L 685.112809 204.338573 
L 686.315589 204.039984 
L 686.906266 204.127414 
L 688.101903 204.531164 
L 688.691866 204.287886 
L 689.274685 203.930632 
L 689.854648 203.860401 
L 690.71745 203.831495 
L 691.288128 203.732797 
L 691.858092 203.839843 
L 692.423055 204.008227 
L 692.99159 203.93118 
L 693.552983 203.789322 
L 694.673626 203.872768 
L 695.507144 203.490051 
L 696.051395 203.509597 
L 696.874913 203.564869 
L 697.421307 203.272661 
L 697.971272 202.868352 
L 698.239112 202.871069 
L 699.309757 203.385173 
L 700.633958 203.324828 
L 701.157496 202.96878 
L 701.947446 202.037715 
L 702.203858 202.11079 
L 703.240934 203.337838 
L 703.753044 203.461802 
L 704.779407 203.405769 
L 705.532931 203.041955 
L 706.276454 202.699842 
L 707.519232 202.564123 
L 708.484884 202.612283 
L 709.697664 202.227034 
L 710.410476 202.300721 
L 711.12543 202.149744 
L 712.30464 202.545524 
L 713.003167 202.411238 
L 713.691694 201.910857 
L 714.373793 201.924985 
L 715.058749 201.938428 
L 715.972977 202.194236 
L 716.867205 202.041301 
L 717.313605 201.993951 
L 718.205691 202.202329 
L 719.074921 201.877632 
L 719.942723 202.289072 
L 720.372695 202.077339 
L 721.01694 201.574737 
L 721.635471 201.420955 
L 722.264717 201.481558 
L 723.529636 201.700086 
L 724.7617 201.631108 
L 725.373804 201.611079 
L 726.572298 201.092469 
L 727.164403 201.194063 
L 727.556521 201.30047 
L 727.954353 201.160422 
L 728.345042 200.977693 
L 728.73216 201.10133 
L 729.312123 201.431074 
L 729.701384 201.366042 
L 730.473477 200.766754 
L 730.860595 201.114988 
L 731.245571 201.500128 
L 731.627689 201.570791 
L 732.565486 201.5146 
L 732.937605 201.541414 
L 734.773916 200.95166 
L 735.308168 201.049439 
L 736.025265 201.234892 
L 737.783009 201.396343 
L 738.482964 201.171308 
L 738.995075 201.365836 
L 739.844306 201.34839 
L 740.351416 201.423942 
L 740.851384 201.679297 
L 741.182792 201.600368 
L 741.519199 201.487748 
L 742.504136 201.567512 
L 743.479788 201.227039 
L 744.279736 201.192691 
L 745.231104 201.800467 
L 745.54037 201.61993 
L 746.156045 201.098508 
L 746.777434 200.822657 
L 747.240975 201.056629 
L 748.000212 201.382287 
L 748.898012 201.424912 
L 749.494403 201.783492 
L 749.785098 201.647489 
L 750.07508 201.463069 
L 750.659328 201.455098 
L 750.946452 201.25165 
L 751.23072 201.370646 
L 751.663549 201.779672 
L 752.234227 201.879588 
L 752.521352 202.024586 
L 752.803476 201.859465 
L 753.220593 201.515843 
L 753.501289 201.567268 
L 754.057682 201.855275 
L 754.330522 201.888774 
L 754.742638 202.201774 
L 755.015478 202.10434 
L 755.42188 201.941035 
L 756.096123 201.880461 
L 757.032492 202.637548 
L 757.691735 202.326623 
L 758.075996 202.037492 
L 759.22878 202.581374 
L 759.485906 202.705837 
L 759.86231 202.57365 
L 760.117294 202.35161 
L 760.492984 201.676908 
L 760.617262 201.663705 
L 761.727905 202.504579 
L 762.342152 202.806954 
L 763.76706 202.890406 
L 764.000617 202.82633 
L 764.347738 202.853803 
L 764.697001 202.827163 
L 765.044122 202.906558 
L 765.502664 202.658949 
L 766.070484 202.797803 
L 766.294042 202.664562 
L 766.517599 202.85671 
L 766.958999 203.561384 
L 767.178271 203.476842 
L 767.396114 203.294751 
L 767.619671 203.484394 
L 768.050358 203.965632 
L 768.265344 203.956887 
L 768.587466 203.797708 
L 768.903875 203.824703 
L 769.754534 203.37422 
L 769.963807 203.419709 
L 771.1923 204.065044 
L 771.49228 203.846183 
L 772.007247 203.215358 
L 772.703631 204.778288 
L 773.293594 204.91174 
L 774.162109 204.428054 
L 774.738501 204.859119 
L 775.210614 205.070492 
L 775.49631 204.808766 
L 776.136983 205.29433 
L 776.408394 205.849881 
L 777.219771 205.461017 
L 777.486182 205.390531 
L 777.839017 205.520576 
L 778.016863 205.400952 
L 778.894664 205.722593 
L 779.238213 205.823756 
L 779.571763 205.45479 
L 780.158154 206.293584 
L 780.410281 206.345839 
L 780.739546 206.60168 
L 781.153091 206.41549 
L 781.394504 206.680981 
L 781.635917 206.591423 
L 781.958753 206.898131 
L 782.280161 206.541234 
L 782.595855 206.830579 
L 782.745132 206.729494 
L 782.745132 206.729494 
" clip-path="url(#pa2be3009d1)" style="fill: none; stroke: #ff0000; stroke-width: 1.5; stroke-linecap: square"/>
   </g>
   <g id="line2d_24">
    <path d="M 115.413558 460.469746 
L 117.431286 460.006887 
L 119.681856 459.133581 
L 126.441423 455.957831 
L 153.258278 443.300901 
L 156.818051 441.621322 
L 162.772669 438.967031 
L 167.559506 436.749183 
L 172.352771 434.682473 
L 177.216745 432.263757 
L 185.695488 428.399745 
L 190.505894 426.27277 
L 195.312015 424.039781 
L 198.9075 422.186396 
L 202.492984 420.764301 
L 204.886403 419.741041 
L 208.466173 417.863557 
L 212.04023 415.982473 
L 214.422221 414.961039 
L 217.991278 413.500773 
L 230.022651 407.345992 
L 237.102912 404.012491 
L 239.456333 402.735773 
L 246.503739 399.604222 
L 255.855997 395.754362 
L 258.18442 394.712296 
L 262.82698 392.529585 
L 265.275395 391.439959 
L 268.741601 389.667298 
L 274.510518 387.185047 
L 282.52929 382.564428 
L 284.989847 381.578535 
L 288.3982 380.302361 
L 298.588977 375.634495 
L 305.344259 372.246915 
L 310.926044 369.898067 
L 314.422963 368.234399 
L 322.206036 365.062594 
L 331.014758 360.541086 
L 338.665697 357.14829 
L 343.011848 355.103799 
L 345.175995 354.152389 
L 347.334428 352.991678 
L 350.564936 351.226759 
L 358.193733 347.72715 
L 361.384957 346.413032 
L 366.709617 343.875355 
L 373.017784 340.331784 
L 377.196088 338.574892 
L 382.395756 336.387602 
L 385.503414 335.078571 
L 389.630292 333.143284 
L 393.740029 331.638329 
L 395.790612 330.52626 
L 398.851131 328.764701 
L 405.947105 325.37015 
L 408.966198 324.296553 
L 410.973212 323.593749 
L 411.973148 323.125817 
L 412.978798 322.532518 
L 416.964257 319.707841 
L 418.944845 319.010387 
L 421.914655 318.105482 
L 424.870894 316.942786 
L 427.818563 315.567833 
L 435.617349 311.487303 
L 439.48353 309.352885 
L 444.286794 306.956459 
L 447.153754 305.857092 
L 450.014285 304.70525 
L 452.849818 303.468162 
L 455.681065 302.303812 
L 464.10624 298.333741 
L 466.896061 297.087184 
L 468.745943 296.248825 
L 473.356362 294.481577 
L 475.194816 293.262679 
L 477.021128 292.070207 
L 478.850296 291.236254 
L 481.577979 290.155882 
L 494.225027 284.063901 
L 495.998484 283.155758 
L 497.771942 282.508362 
L 500.426772 281.606901 
L 503.945833 280.199135 
L 506.564237 278.738849 
L 509.176927 277.302079 
L 520.356925 271.872534 
L 522.056817 270.963152 
L 523.814561 270.422208 
L 525.515167 270.007112 
L 528.047148 269.066016 
L 529.738468 268.221548 
L 533.088968 266.29374 
L 538.088648 263.875777 
L 541.386294 262.441652 
L 547.920161 259.214331 
L 552.87413 257.488447 
L 554.489027 256.565388 
L 560.08724 252.851777 
L 560.881475 252.498915 
L 562.467087 252.231959 
L 564.050557 251.911889 
L 565.629028 251.160922 
L 567.98602 249.984574 
L 581.927985 243.827915 
L 583.456458 243.217929 
L 584.975647 242.37195 
L 588.757548 240.092376 
L 594.010068 237.856485 
L 596.243497 236.673296 
L 599.946831 235.069386 
L 602.882358 233.472473 
L 606.538552 232.241467 
L 608.719127 231.019625 
L 611.608942 229.628022 
L 613.763804 228.296397 
L 615.19157 227.723649 
L 619.454868 226.445957 
L 625.771607 222.95628 
L 627.170803 222.568014 
L 628.557143 221.912985 
L 632.697592 219.844842 
L 635.440988 219.118016 
L 638.835771 216.844343 
L 640.182113 216.311179 
L 641.528456 215.863711 
L 642.871941 215.168126 
L 644.877527 214.009759 
L 649.520087 211.794481 
L 650.838574 211.384777 
L 652.156347 210.501365 
L 653.466977 209.561468 
L 654.768323 209.107636 
L 658.002401 208.141047 
L 659.291604 207.529232 
L 662.487114 205.850296 
L 665.026237 204.788635 
L 668.805996 203.366609 
L 670.680161 202.435515 
L 673.166431 201.520645 
L 676.251233 199.468858 
L 678.088973 198.740669 
L 679.91457 197.99599 
L 681.72874 197.044178 
L 682.927235 196.324328 
L 684.127158 195.988137 
L 685.324938 195.748485 
L 686.512719 195.068249 
L 688.285463 193.849124 
L 691.218132 192.27497 
L 693.542984 191.929962 
L 694.700767 191.301535 
L 695.85355 190.645415 
L 697.577011 189.937162 
L 700.973937 188.096934 
L 704.881544 186.261688 
L 706.54358 185.821727 
L 707.63851 185.261719 
L 709.276262 184.368323 
L 714.125952 182.415446 
L 715.188027 181.854544 
L 716.235817 181.542131 
L 719.337047 180.930104 
L 721.83903 180.165485 
L 724.286016 180.19036 
L 728.084344 180.407653 
L 730.845596 180.339734 
L 731.746967 180.076696 
L 733.52471 179.382903 
L 734.403226 179.344456 
L 736.132401 179.545805 
L 737.826578 179.263971 
L 739.490043 179.318385 
L 740.310705 179.297814 
L 741.936315 179.507263 
L 744.320448 178.753912 
L 745.104684 178.707841 
L 746.263895 178.779446 
L 747.403822 178.772988 
L 748.533036 178.89519 
L 752.18423 178.422404 
L 752.897042 178.481047 
L 754.298381 178.405285 
L 754.989765 178.275712 
L 755.67115 178.108682 
L 756.688942 178.122454 
L 758.021714 177.730488 
L 758.680957 177.771806 
L 759.98516 178.088144 
L 760.629404 177.805156 
L 761.266506 177.534286 
L 764.657718 176.977868 
L 765.848356 177.251186 
L 766.439747 177.073107 
L 767.879654 176.328251 
L 768.446047 176.317264 
L 769.012439 176.385034 
L 771.221583 176.086974 
L 771.764406 175.7642 
L 772.033674 175.728136 
L 773.365018 176.0682 
L 774.184251 175.888624 
L 774.698504 175.777065 
L 775.2049 175.902474 
L 775.956995 176.099398 
L 776.701233 176.052179 
L 777.435471 176.074761 
L 778.182566 176.123008 
L 778.661821 176.118342 
L 780.760973 175.49895 
L 781.440215 175.815401 
L 781.888758 176.031821 
L 782.358013 175.976139 
L 783.035827 175.677863 
L 783.684357 175.556258 
L 784.325745 175.39729 
L 784.325745 175.39729 
" clip-path="url(#pa2be3009d1)" style="fill: none; stroke: #0000ff; stroke-width: 1.5; stroke-linecap: square"/>
   </g>
   <g id="patch_3">
    <path d="M 115.2 461.376 
L 115.2 62.208 
" style="fill: none; stroke: #000000; stroke-width: 0.8; stroke-linejoin: miter; stroke-linecap: square"/>
   </g>
   <g id="patch_4">
    <path d="M 829.44 461.376 
L 829.44 62.208 
" style="fill: none; stroke: #000000; stroke-width: 0.8; stroke-linejoin: miter; stroke-linecap: square"/>
   </g>
   <g id="patch_5">
    <path d="M 115.2 461.376 
L 829.44 461.376 
" style="fill: none; stroke: #000000; stroke-width: 0.8; stroke-linejoin: miter; stroke-linecap: square"/>
   </g>
   <g id="patch_6">
    <path d="M 115.2 62.208 
L 829.44 62.208 
" style="fill: none; stroke: #000000; stroke-width: 0.8; stroke-linejoin: miter; stroke-linecap: square"/>
   </g>
   <g id="text_25">
    <!-- $\mathrm{proto\ &amp;\ mica*}$的读取命中率随索引装载率的变化趋势 -->
    <g transform="translate(208.866 56.208) scale(0.228 -0.228)">
     <defs>
      <path id="STIXGeneral-Regular-70" d="M 1018 2931 
L 1018 2438 
Q 1421 2944 1939 2944 
Q 2406 2944 2707 2560 
Q 3008 2176 3008 1581 
Q 3008 883 2621 409 
Q 2234 -64 1664 -64 
Q 1466 -64 1328 -6 
Q 1190 51 1018 211 
L 1018 -794 
Q 1018 -1094 1120 -1180 
Q 1222 -1267 1581 -1274 
L 1581 -1389 
L 32 -1389 
L 32 -1280 
Q 314 -1254 397 -1171 
Q 480 -1088 480 -838 
L 480 2157 
Q 480 2381 429 2451 
Q 378 2522 218 2522 
Q 115 2522 58 2515 
L 58 2618 
Q 506 2752 979 2944 
L 1018 2931 
z
M 1018 2138 
L 1018 563 
Q 1018 422 1238 281 
Q 1459 141 1683 141 
Q 2029 141 2243 467 
Q 2458 794 2458 1325 
Q 2458 1888 2243 2224 
Q 2029 2560 1670 2560 
Q 1446 2560 1232 2419 
Q 1018 2278 1018 2138 
z
" transform="scale(0.015625)"/>
      <path id="STIXGeneral-Regular-72" d="M 1024 2931 
L 1024 2342 
Q 1267 2688 1430 2816 
Q 1594 2944 1792 2944 
Q 1958 2944 2051 2854 
Q 2144 2765 2144 2605 
Q 2144 2470 2077 2393 
Q 2010 2317 1894 2317 
Q 1773 2317 1638 2445 
Q 1536 2541 1472 2541 
Q 1338 2541 1181 2355 
Q 1024 2170 1024 2016 
L 1024 576 
Q 1024 301 1133 205 
Q 1242 109 1568 96 
L 1568 0 
L 32 0 
L 32 96 
Q 339 154 412 224 
Q 486 294 486 538 
L 486 2138 
Q 486 2349 438 2435 
Q 390 2522 269 2522 
Q 166 2522 45 2496 
L 45 2598 
Q 448 2726 992 2944 
L 1024 2931 
z
" transform="scale(0.015625)"/>
      <path id="STIXGeneral-Regular-6f" d="M 3008 1478 
Q 3008 806 2608 371 
Q 2208 -64 1568 -64 
Q 979 -64 582 368 
Q 186 800 186 1459 
Q 186 2125 582 2534 
Q 979 2944 1626 2944 
Q 2221 2944 2614 2537 
Q 3008 2131 3008 1478 
z
M 2432 1306 
Q 2432 2035 2112 2445 
Q 1856 2765 1504 2765 
Q 1171 2765 966 2493 
Q 762 2221 762 1747 
Q 762 928 1101 435 
Q 1318 115 1677 115 
Q 2029 115 2230 432 
Q 2432 749 2432 1306 
z
" transform="scale(0.015625)"/>
      <path id="STIXGeneral-Regular-74" d="M 1702 493 
L 1786 422 
Q 1478 -64 1011 -64 
Q 448 -64 448 749 
L 448 2675 
L 109 2675 
Q 83 2694 83 2720 
Q 83 2771 192 2842 
Q 435 2982 813 3526 
Q 826 3546 874 3606 
Q 922 3667 941 3706 
Q 986 3706 986 3622 
L 986 2880 
L 1632 2880 
L 1632 2675 
L 986 2675 
L 986 845 
Q 986 538 1062 403 
Q 1139 269 1318 269 
Q 1510 269 1702 493 
z
" transform="scale(0.015625)"/>
      <path id="STIXGeneral-Regular-26" d="M 4704 710 
L 4800 640 
Q 4659 294 4409 105 
Q 4160 -83 3834 -83 
Q 3309 -83 2746 499 
Q 2387 186 2070 51 
Q 1754 -83 1363 -83 
Q 838 -83 553 160 
Q 269 403 269 877 
Q 269 1267 528 1628 
Q 787 1990 1274 2272 
L 1517 2413 
Q 1293 2957 1293 3366 
Q 1293 3789 1571 4057 
Q 1850 4326 2266 4326 
Q 2656 4326 2899 4115 
Q 3142 3904 3142 3533 
Q 3142 3181 2921 2937 
Q 2701 2694 2150 2458 
Q 2509 1683 2995 1139 
Q 3315 1568 3449 1821 
Q 3584 2074 3584 2291 
Q 3584 2438 3494 2502 
Q 3405 2566 3168 2592 
L 3168 2726 
L 4550 2726 
L 4550 2592 
Q 4326 2592 4201 2509 
Q 4077 2426 3949 2214 
Q 3859 2074 3702 1814 
Q 3546 1555 3424 1363 
Q 3302 1171 3142 960 
Q 3379 659 3606 515 
Q 3834 371 4115 371 
Q 4301 371 4425 444 
Q 4550 518 4704 710 
z
M 2803 3558 
Q 2803 3795 2662 3958 
Q 2522 4122 2304 4122 
Q 2080 4122 1939 3974 
Q 1798 3827 1798 3590 
Q 1798 3334 1849 3139 
Q 1901 2944 2054 2662 
Q 2458 2848 2630 3059 
Q 2803 3270 2803 3558 
z
M 2586 666 
Q 2035 1312 1613 2195 
Q 1197 1926 1027 1686 
Q 858 1446 858 1114 
Q 858 717 1078 486 
Q 1299 256 1651 256 
Q 2061 256 2586 666 
z
" transform="scale(0.015625)"/>
      <path id="STIXGeneral-Regular-6d" d="M 4960 0 
L 3565 0 
L 3565 96 
Q 3834 122 3907 208 
Q 3981 294 3981 576 
L 3981 1894 
Q 3981 2278 3869 2444 
Q 3757 2611 3488 2611 
Q 3264 2611 3107 2521 
Q 2950 2432 2803 2221 
L 2803 608 
Q 2803 301 2896 201 
Q 2989 102 3264 96 
L 3264 0 
L 1830 0 
L 1830 96 
Q 2112 115 2189 188 
Q 2266 262 2266 550 
L 2266 1901 
Q 2266 2611 1850 2611 
Q 1670 2611 1468 2531 
Q 1267 2451 1171 2336 
Q 1088 2240 1088 2227 
L 1088 448 
Q 1088 243 1177 176 
Q 1267 109 1523 96 
L 1523 0 
L 102 0 
L 102 96 
Q 371 102 460 195 
Q 550 288 550 563 
L 550 2150 
Q 550 2387 499 2480 
Q 448 2573 326 2573 
Q 230 2573 122 2547 
L 122 2656 
Q 557 2778 1011 2944 
L 1062 2925 
L 1062 2451 
L 1075 2451 
Q 1363 2752 1584 2848 
Q 1805 2944 2054 2944 
Q 2560 2944 2733 2406 
Q 3232 2944 3776 2944 
Q 4518 2944 4518 1792 
L 4518 493 
Q 4518 282 4582 202 
Q 4646 122 4794 109 
L 4960 96 
L 4960 0 
z
" transform="scale(0.015625)"/>
      <path id="STIXGeneral-Regular-69" d="M 1152 4045 
Q 1152 3904 1056 3811 
Q 960 3718 819 3718 
Q 685 3718 592 3811 
Q 499 3904 499 4045 
Q 499 4179 595 4275 
Q 691 4371 826 4371 
Q 966 4371 1059 4275 
Q 1152 4179 1152 4045 
z
M 1619 0 
L 102 0 
L 102 96 
Q 435 115 521 211 
Q 608 307 608 666 
L 608 2118 
Q 608 2342 563 2432 
Q 518 2522 397 2522 
Q 243 2522 128 2490 
L 128 2592 
L 1120 2944 
L 1146 2918 
L 1146 672 
Q 1146 314 1226 218 
Q 1306 122 1619 96 
L 1619 0 
z
" transform="scale(0.015625)"/>
      <path id="STIXGeneral-Regular-63" d="M 2547 998 
L 2637 941 
Q 2362 403 2112 205 
Q 1786 -64 1376 -64 
Q 845 -64 502 336 
Q 160 736 160 1357 
Q 160 2170 698 2618 
Q 1094 2944 1562 2944 
Q 1965 2944 2256 2749 
Q 2547 2554 2547 2285 
Q 2547 2176 2457 2096 
Q 2368 2016 2246 2016 
Q 2022 2016 1939 2310 
L 1901 2451 
Q 1850 2630 1773 2694 
Q 1696 2758 1523 2758 
Q 1133 2758 893 2451 
Q 653 2144 653 1645 
Q 653 1094 928 745 
Q 1203 397 1645 397 
Q 1920 397 2118 528 
Q 2317 659 2547 998 
z
" transform="scale(0.015625)"/>
      <path id="STIXGeneral-Regular-61" d="M 2829 422 
L 2829 243 
Q 2586 -64 2253 -64 
Q 1888 -64 1843 403 
L 1837 403 
Q 1427 -64 909 -64 
Q 608 -64 422 112 
Q 237 288 237 602 
Q 237 1050 685 1350 
Q 992 1555 1837 1869 
L 1837 2214 
Q 1837 2502 1699 2646 
Q 1562 2790 1338 2790 
Q 1146 2790 1018 2697 
Q 890 2605 890 2477 
Q 890 2419 909 2348 
Q 928 2278 928 2208 
Q 928 2112 841 2029 
Q 755 1946 634 1946 
Q 525 1946 441 2029 
Q 358 2112 358 2240 
Q 358 2547 685 2752 
Q 986 2944 1421 2944 
Q 1939 2944 2176 2656 
Q 2291 2522 2323 2384 
Q 2355 2246 2355 1946 
L 2355 723 
Q 2355 301 2554 301 
Q 2682 301 2829 422 
z
M 1837 813 
L 1837 1715 
Q 1248 1510 1018 1293 
Q 800 1094 800 800 
Q 800 557 921 432 
Q 1043 307 1242 307 
Q 1453 307 1613 410 
Q 1747 506 1792 589 
Q 1837 672 1837 813 
z
" transform="scale(0.015625)"/>
      <path id="STIXGeneral-Regular-2a" d="M 1715 3014 
L 1773 2976 
Q 2010 2822 2387 2758 
Q 2605 2726 2688 2665 
Q 2771 2605 2771 2483 
Q 2771 2374 2707 2304 
Q 2643 2234 2541 2234 
Q 2381 2234 2157 2515 
Q 2010 2694 1715 2886 
L 1664 2918 
L 1664 2861 
Q 1664 2502 1792 2157 
Q 1850 1997 1850 1946 
Q 1850 1850 1770 1773 
Q 1690 1696 1594 1696 
Q 1504 1696 1433 1766 
Q 1363 1837 1363 1926 
Q 1363 2016 1440 2227 
Q 1542 2502 1542 2861 
L 1542 2918 
Q 1286 2758 1210 2688 
Q 1133 2611 947 2400 
Q 806 2240 672 2240 
Q 563 2240 499 2304 
Q 435 2368 435 2470 
Q 435 2592 528 2656 
Q 621 2720 838 2758 
Q 1062 2803 1180 2848 
Q 1299 2893 1498 3014 
Q 1222 3181 877 3251 
Q 640 3302 544 3366 
Q 448 3430 448 3546 
Q 448 3648 505 3715 
Q 563 3782 659 3782 
Q 787 3782 973 3578 
Q 1242 3277 1542 3110 
L 1542 3194 
Q 1542 3456 1446 3776 
Q 1376 3987 1376 4109 
Q 1376 4198 1443 4262 
Q 1510 4326 1606 4326 
Q 1702 4326 1772 4259 
Q 1843 4192 1843 4096 
Q 1843 3994 1773 3795 
Q 1664 3507 1664 3264 
L 1664 3110 
Q 1882 3238 2035 3379 
Q 2067 3411 2153 3504 
Q 2240 3597 2291 3648 
Q 2342 3699 2409 3747 
Q 2477 3795 2528 3795 
Q 2637 3795 2701 3728 
Q 2765 3661 2765 3552 
Q 2765 3424 2691 3363 
Q 2618 3302 2432 3277 
Q 2074 3219 1715 3014 
z
" transform="scale(0.015625)"/>
      <path id="SimSun-7684" d="M 1125 3775 
L 1125 2175 
L 2425 2175 
L 2425 3775 
L 1125 3775 
z
M 1125 2025 
L 1125 275 
L 2425 275 
L 2425 2025 
L 1125 2025 
z
M 2750 3625 
Q 2750 700 2775 -200 
L 2425 -400 
L 2425 125 
L 1125 125 
L 1125 -300 
L 775 -500 
Q 800 675 800 1837 
Q 800 3000 775 4150 
L 1150 3925 
L 1400 3925 
Q 1650 4775 1675 5225 
L 2225 4925 
Q 1975 4800 1550 3925 
L 2375 3925 
L 2625 4175 
L 3000 3800 
L 2750 3625 
z
M 3975 5200 
L 4525 4875 
Q 4325 4750 3900 3850 
L 5250 3850 
L 5525 4125 
L 5900 3750 
L 5675 3575 
Q 5625 650 5537 262 
Q 5450 -125 5287 -275 
Q 5125 -425 4775 -550 
Q 4650 -150 3950 50 
L 3950 175 
Q 4575 50 4850 50 
Q 5125 50 5187 475 
Q 5250 900 5300 3700 
L 3850 3700 
Q 3400 2975 2900 2475 
L 2825 2525 
Q 3350 3325 3600 3950 
Q 3850 4575 3975 5200 
z
M 3525 2750 
Q 4125 2300 4225 2087 
Q 4325 1875 4325 1775 
Q 4325 1600 4225 1475 
Q 4125 1350 4075 1350 
Q 3975 1350 3925 1700 
Q 3825 2200 3475 2675 
L 3525 2750 
z
" transform="scale(0.015625)"/>
      <path id="SimSun-968f" d="M 2175 4225 
L 2250 4275 
Q 2800 3825 2850 3625 
Q 2900 3425 2775 3300 
Q 2650 3175 2600 3175 
Q 2500 3175 2475 3425 
Q 2425 3800 2175 4225 
z
M 6050 0 
L 6050 -100 
Q 5650 -175 5625 -475 
Q 4975 -450 4487 -425 
Q 4000 -400 3650 -262 
Q 3300 -125 3050 150 
Q 2875 300 2750 300 
Q 2650 300 2487 162 
Q 2325 25 2125 -375 
L 1750 -100 
Q 2100 175 2575 450 
L 2575 2300 
Q 2525 2300 2250 2225 
L 2025 2450 
L 2550 2450 
L 2700 2650 
L 3075 2375 
L 2875 2225 
L 2875 475 
Q 3325 75 3762 0 
Q 4200 -75 4725 -62 
Q 5250 -50 6050 0 
z
M 600 4900 
L 950 4675 
L 1700 4675 
L 1900 4900 
L 2300 4625 
L 2075 4450 
L 1475 3000 
Q 1650 2775 1900 2475 
Q 2125 2175 2162 1975 
Q 2200 1775 2200 1650 
Q 2200 1400 2075 1150 
Q 1950 900 1400 800 
Q 1400 1075 950 1250 
L 950 -475 
L 600 -650 
Q 625 0 625 2175 
Q 625 4350 600 4900 
z
M 1300 3000 
L 1725 4525 
L 950 4525 
L 950 1350 
Q 1275 1275 1425 1275 
Q 1600 1275 1725 1350 
Q 1850 1425 1850 1675 
Q 1850 1825 1812 2100 
Q 1775 2375 1300 3000 
z
M 3900 3250 
L 3900 2600 
L 5150 2600 
L 5150 3250 
L 3900 3250 
z
M 3575 250 
Q 3600 725 3600 3200 
Q 3350 2875 3000 2625 
L 2950 2675 
Q 3525 3325 3850 4175 
L 3600 4175 
Q 3275 4175 3000 4100 
L 2775 4325 
L 3900 4325 
Q 4100 4925 4100 5150 
L 4600 4900 
Q 4425 4800 4225 4325 
L 5325 4325 
L 5625 4625 
L 6025 4175 
L 4175 4175 
Q 4025 3825 3825 3475 
L 3925 3400 
L 5100 3400 
L 5250 3625 
L 5650 3350 
L 5475 3200 
L 5475 875 
Q 5525 425 5025 275 
Q 5025 550 4525 650 
L 4525 750 
Q 4950 725 5050 725 
Q 5150 725 5150 900 
L 5150 1650 
L 3900 1650 
L 3900 400 
L 3575 250 
z
M 3900 2450 
L 3900 1800 
L 5150 1800 
L 5150 2450 
L 3900 2450 
z
" transform="scale(0.015625)"/>
      <path id="SimSun-53d8" d="M 2750 4225 
L 2750 2225 
L 3650 2225 
L 3650 4225 
L 2750 4225 
z
M 375 4375 
L 3100 4375 
Q 3050 4750 2650 5200 
L 2700 5275 
Q 3150 5075 3325 4925 
Q 3500 4775 3500 4700 
Q 3500 4550 3300 4375 
L 5125 4375 
L 5525 4775 
L 6075 4225 
L 4000 4225 
L 4000 2225 
L 4425 2225 
L 4675 2500 
L 5100 2100 
L 4825 1975 
Q 4300 1325 3525 650 
Q 4500 -50 6125 -175 
L 6125 -275 
Q 5750 -325 5625 -575 
Q 4175 -250 3300 450 
Q 2150 -300 350 -600 
L 325 -500 
Q 2050 -100 3075 675 
Q 2525 1250 2100 2075 
L 1650 2075 
L 1375 2025 
L 1175 2225 
L 2400 2225 
L 2400 4225 
L 1200 4225 
Q 875 4225 600 4150 
L 375 4375 
z
M 2275 2075 
Q 2725 1350 3300 850 
Q 3800 1300 4425 2075 
L 2275 2075 
z
M 1675 3850 
L 2125 3450 
L 1875 3350 
Q 1150 2575 325 1950 
L 250 2025 
Q 700 2425 1087 2937 
Q 1475 3450 1675 3850 
z
M 4350 3700 
Q 5675 3050 5812 2875 
Q 5950 2700 5950 2575 
Q 5950 2475 5900 2375 
Q 5850 2275 5800 2275 
Q 5700 2275 5500 2550 
Q 5200 2950 4275 3625 
L 4350 3700 
z
" transform="scale(0.015625)"/>
      <path id="SimSun-5316" d="M 1375 -600 
Q 1400 200 1400 925 
L 1400 3125 
Q 850 2300 350 1775 
L 275 1850 
Q 825 2625 1300 3650 
Q 1775 4675 1900 5200 
L 2450 4875 
L 2200 4725 
Q 1875 4000 1600 3475 
L 1950 3275 
L 1750 3075 
L 1750 350 
Q 1750 75 1775 -400 
L 1375 -600 
z
M 3450 2125 
L 3450 3925 
Q 3450 4475 3425 5200 
L 4000 4925 
L 3800 4725 
L 3800 2400 
Q 4150 2725 4562 3225 
Q 4975 3725 5150 4025 
L 5600 3600 
L 5325 3525 
Q 4600 2700 3800 2000 
L 3800 425 
Q 3800 0 4225 0 
L 5300 0 
Q 5500 0 5550 325 
Q 5600 650 5600 1325 
L 5725 1325 
Q 5775 650 5850 425 
Q 5925 200 6125 125 
Q 5900 -325 5400 -325 
L 4075 -325 
Q 3450 -325 3450 250 
L 3450 1775 
Q 2800 1275 1950 925 
L 1925 1025 
Q 2800 1525 3450 2125 
z
" transform="scale(0.015625)"/>
      <path id="SimSun-8d8b" d="M 3900 5225 
L 4425 4900 
L 4225 4825 
Q 4000 4475 3800 4150 
L 4750 4150 
L 4975 4425 
L 5400 4025 
Q 5100 4000 4475 3075 
L 5350 3075 
L 5500 3325 
L 5900 3050 
L 5725 2875 
Q 5725 1050 5750 525 
L 5400 375 
L 5400 800 
L 3725 800 
Q 3525 800 3250 725 
L 3025 950 
L 5400 950 
L 5400 1900 
L 4050 1900 
Q 3850 1900 3575 1825 
L 3350 2050 
L 5400 2050 
L 5400 2925 
L 3900 2925 
Q 3700 2925 3425 2850 
L 3200 3075 
L 4350 3075 
L 4775 4000 
L 3725 4000 
Q 3450 3625 3000 3200 
L 2950 3250 
Q 3650 4250 3900 5225 
z
M 300 -550 
L 225 -500 
Q 675 275 787 1112 
Q 900 1950 850 2425 
L 1400 2150 
Q 1250 2075 1212 1812 
Q 1175 1550 1125 1075 
Q 1500 750 1725 625 
L 1725 2825 
L 950 2825 
Q 750 2825 475 2750 
L 250 2975 
L 1600 2975 
L 1600 4025 
L 1225 4025 
Q 1025 4025 750 3950 
L 525 4175 
L 1600 4175 
Q 1600 4675 1575 5225 
L 2125 4975 
L 1925 4800 
L 1925 4175 
L 2400 4175 
L 2700 4475 
L 3100 4025 
L 1925 4025 
L 1925 2975 
L 2475 2975 
L 2800 3275 
L 3200 2825 
L 1750 2825 
L 2250 2600 
L 2050 2400 
L 2050 1800 
L 2625 1800 
L 2925 2100 
L 3300 1650 
L 2050 1650 
L 2050 425 
Q 2925 25 3737 0 
Q 4550 -25 4925 -25 
Q 5625 -25 6150 25 
L 6150 -50 
Q 5700 -250 5700 -475 
Q 4950 -500 4012 -412 
Q 3075 -325 2325 -12 
Q 1575 300 1100 900 
Q 775 -25 300 -550 
z
" transform="scale(0.015625)"/>
      <path id="SimSun-52bf" d="M 1650 4175 
Q 1650 4775 1625 5200 
L 2150 4950 
L 1975 4800 
L 1975 4175 
L 2200 4175 
L 2475 4450 
L 2900 4025 
L 1975 4025 
L 1975 3425 
Q 2400 3525 2800 3625 
L 2825 3525 
Q 2400 3375 1975 3225 
L 1975 2150 
Q 2000 1800 1475 1575 
Q 1450 1850 800 2025 
L 800 2150 
Q 1225 2100 1437 2087 
Q 1650 2075 1650 2325 
L 1650 3100 
Q 700 2750 700 2650 
L 400 3100 
Q 575 3100 1650 3350 
L 1650 4025 
L 1300 4025 
Q 975 4025 700 3950 
L 475 4175 
L 1650 4175 
z
M 3650 4175 
L 3650 4525 
Q 3650 4875 3625 5225 
L 4175 4975 
L 3975 4800 
L 3975 4200 
L 4700 4250 
L 4850 4475 
L 5200 4200 
L 5025 4050 
Q 5000 3900 5000 3575 
Q 5000 3225 5050 2812 
Q 5100 2400 5425 2175 
Q 5600 2650 5700 3050 
L 5800 3025 
Q 5725 2525 5725 2250 
Q 5725 1975 5825 1775 
Q 5900 1650 5775 1650 
Q 5725 1650 5475 1750 
Q 5225 1850 5012 2137 
Q 4800 2425 4737 2750 
Q 4675 3075 4675 3475 
Q 4675 3850 4700 4100 
L 3975 4050 
Q 3925 3450 3750 3050 
Q 4100 2900 4262 2787 
Q 4425 2675 4387 2475 
Q 4350 2275 4275 2275 
Q 4225 2275 4125 2400 
Q 3925 2625 3625 2825 
Q 3225 2225 2100 1800 
L 2050 1875 
Q 3075 2400 3375 2975 
Q 3225 3100 2850 3300 
L 2900 3375 
Q 3225 3275 3475 3175 
Q 3600 3500 3650 4025 
L 3300 4000 
L 3125 3925 
L 2875 4125 
L 3650 4175 
z
M 2600 1425 
Q 2675 1700 2700 2025 
L 3175 1775 
L 3000 1650 
L 2950 1425 
L 4725 1425 
L 4875 1675 
L 5325 1375 
L 5125 1225 
Q 5050 400 4987 112 
Q 4925 -175 4750 -350 
Q 4575 -525 4225 -600 
Q 4250 -350 3650 -50 
L 3675 50 
Q 4225 -100 4412 -87 
Q 4600 -75 4675 312 
Q 4750 700 4775 1275 
L 2925 1275 
Q 2800 775 2575 450 
Q 2350 125 1875 -162 
Q 1400 -450 450 -650 
L 400 -550 
Q 1500 -225 1950 200 
Q 2400 625 2575 1275 
L 1450 1275 
Q 1125 1275 850 1200 
L 625 1425 
L 2600 1425 
z
" transform="scale(0.015625)"/>
     </defs>
     <use xlink:href="#STIXGeneral-Regular-70" transform="translate(0 0.578125)"/>
     <use xlink:href="#STIXGeneral-Regular-72" transform="translate(49.999985 0.578125)"/>
     <use xlink:href="#STIXGeneral-Regular-6f" transform="translate(83.299973 0.578125)"/>
     <use xlink:href="#STIXGeneral-Regular-74" transform="translate(133.299957 0.578125)"/>
     <use xlink:href="#STIXGeneral-Regular-6f" transform="translate(161.099945 0.578125)"/>
     <use xlink:href="#STIXGeneral-Regular-26" transform="translate(235.16635 0.578125)"/>
     <use xlink:href="#STIXGeneral-Regular-6d" transform="translate(337.032757 0.578125)"/>
     <use xlink:href="#STIXGeneral-Regular-69" transform="translate(414.832745 0.578125)"/>
     <use xlink:href="#STIXGeneral-Regular-63" transform="translate(442.632733 0.578125)"/>
     <use xlink:href="#STIXGeneral-Regular-61" transform="translate(487.032727 0.578125)"/>
     <use xlink:href="#STIXGeneral-Regular-2a" transform="translate(545.872717 0.578125)"/>
     <use xlink:href="#SimSun-7684" transform="translate(610.312698 0.578125)"/>
     <use xlink:href="#SimSun-8bfb" transform="translate(710.312698 0.578125)"/>
     <use xlink:href="#SimSun-53d6" transform="translate(810.312698 0.578125)"/>
     <use xlink:href="#SimSun-547d" transform="translate(910.312698 0.578125)"/>
     <use xlink:href="#SimSun-4e2d" transform="translate(1010.312698 0.578125)"/>
     <use xlink:href="#SimSun-7387" transform="translate(1110.312698 0.578125)"/>
     <use xlink:href="#SimSun-968f" transform="translate(1210.312698 0.578125)"/>
     <use xlink:href="#SimSun-7d22" transform="translate(1310.312698 0.578125)"/>
     <use xlink:href="#SimSun-5f15" transform="translate(1410.312698 0.578125)"/>
     <use xlink:href="#SimSun-88c5" transform="translate(1510.312698 0.578125)"/>
     <use xlink:href="#SimSun-8f7d" transform="translate(1610.312698 0.578125)"/>
     <use xlink:href="#SimSun-7387" transform="translate(1710.312698 0.578125)"/>
     <use xlink:href="#SimSun-7684" transform="translate(1810.312698 0.578125)"/>
     <use xlink:href="#SimSun-53d8" transform="translate(1910.312698 0.578125)"/>
     <use xlink:href="#SimSun-5316" transform="translate(2010.312698 0.578125)"/>
     <use xlink:href="#SimSun-8d8b" transform="translate(2110.312698 0.578125)"/>
     <use xlink:href="#SimSun-52bf" transform="translate(2210.312698 0.578125)"/>
    </g>
   </g>
   <g id="legend_1">
    <g id="patch_7">
     <path d="M 715.235156 131.136437 
L 816.14 131.136437 
Q 819.94 131.136437 819.94 127.336437 
L 819.94 75.508 
Q 819.94 71.708 816.14 71.708 
L 715.235156 71.708 
Q 711.435156 71.708 711.435156 75.508 
L 711.435156 127.336437 
Q 711.435156 131.136437 715.235156 131.136437 
z
" style="fill: #ffffff; opacity: 0.8; stroke: #cccccc; stroke-linejoin: miter"/>
    </g>
    <g id="line2d_25">
     <path d="M 719.035156 85.958 
L 738.035156 85.958 
L 757.035156 85.958 
" style="fill: none; stroke: #ff0000; stroke-width: 1.5; stroke-linecap: square"/>
    </g>
    <g id="text_26">
     <!-- mica -->
     <g transform="translate(772.235156 92.608) scale(0.19 -0.19)">
      <defs>
       <path id="TimesNewRomanPSMT-6d" d="M 1050 2338 
Q 1363 2650 1419 2697 
Q 1559 2816 1721 2881 
Q 1884 2947 2044 2947 
Q 2313 2947 2506 2790 
Q 2700 2634 2766 2338 
Q 3088 2713 3309 2830 
Q 3531 2947 3766 2947 
Q 3994 2947 4170 2830 
Q 4347 2713 4450 2447 
Q 4519 2266 4519 1878 
L 4519 647 
Q 4519 378 4559 278 
Q 4591 209 4675 161 
Q 4759 113 4950 113 
L 4950 0 
L 3538 0 
L 3538 113 
L 3597 113 
Q 3781 113 3884 184 
Q 3956 234 3988 344 
Q 4000 397 4000 647 
L 4000 1878 
Q 4000 2228 3916 2372 
Q 3794 2572 3525 2572 
Q 3359 2572 3192 2489 
Q 3025 2406 2788 2181 
L 2781 2147 
L 2788 2013 
L 2788 647 
Q 2788 353 2820 281 
Q 2853 209 2943 161 
Q 3034 113 3253 113 
L 3253 0 
L 1806 0 
L 1806 113 
Q 2044 113 2133 169 
Q 2222 225 2256 338 
Q 2272 391 2272 647 
L 2272 1878 
Q 2272 2228 2169 2381 
Q 2031 2581 1784 2581 
Q 1616 2581 1450 2491 
Q 1191 2353 1050 2181 
L 1050 647 
Q 1050 366 1089 281 
Q 1128 197 1204 155 
Q 1281 113 1516 113 
L 1516 0 
L 100 0 
L 100 113 
Q 297 113 375 155 
Q 453 197 493 289 
Q 534 381 534 647 
L 534 1741 
Q 534 2213 506 2350 
Q 484 2453 437 2492 
Q 391 2531 309 2531 
Q 222 2531 100 2484 
L 53 2597 
L 916 2947 
L 1050 2947 
L 1050 2338 
z
" transform="scale(0.015625)"/>
       <path id="TimesNewRomanPSMT-69" d="M 928 4444 
Q 1059 4444 1151 4351 
Q 1244 4259 1244 4128 
Q 1244 3997 1151 3903 
Q 1059 3809 928 3809 
Q 797 3809 703 3903 
Q 609 3997 609 4128 
Q 609 4259 701 4351 
Q 794 4444 928 4444 
z
M 1188 2947 
L 1188 647 
Q 1188 378 1227 289 
Q 1266 200 1342 156 
Q 1419 113 1622 113 
L 1622 0 
L 231 0 
L 231 113 
Q 441 113 512 153 
Q 584 194 626 287 
Q 669 381 669 647 
L 669 1750 
Q 669 2216 641 2353 
Q 619 2453 572 2492 
Q 525 2531 444 2531 
Q 356 2531 231 2484 
L 188 2597 
L 1050 2947 
L 1188 2947 
z
" transform="scale(0.015625)"/>
       <path id="TimesNewRomanPSMT-63" d="M 2631 1088 
Q 2516 522 2178 217 
Q 1841 -88 1431 -88 
Q 944 -88 581 321 
Q 219 731 219 1428 
Q 219 2103 620 2525 
Q 1022 2947 1584 2947 
Q 2006 2947 2278 2723 
Q 2550 2500 2550 2259 
Q 2550 2141 2473 2067 
Q 2397 1994 2259 1994 
Q 2075 1994 1981 2113 
Q 1928 2178 1911 2362 
Q 1894 2547 1784 2644 
Q 1675 2738 1481 2738 
Q 1169 2738 978 2506 
Q 725 2200 725 1697 
Q 725 1184 976 792 
Q 1228 400 1656 400 
Q 1963 400 2206 609 
Q 2378 753 2541 1131 
L 2631 1088 
z
" transform="scale(0.015625)"/>
       <path id="TimesNewRomanPSMT-61" d="M 1822 413 
Q 1381 72 1269 19 
Q 1100 -59 909 -59 
Q 613 -59 420 144 
Q 228 347 228 678 
Q 228 888 322 1041 
Q 450 1253 767 1440 
Q 1084 1628 1822 1897 
L 1822 2009 
Q 1822 2438 1686 2597 
Q 1550 2756 1291 2756 
Q 1094 2756 978 2650 
Q 859 2544 859 2406 
L 866 2225 
Q 866 2081 792 2003 
Q 719 1925 600 1925 
Q 484 1925 411 2006 
Q 338 2088 338 2228 
Q 338 2497 613 2722 
Q 888 2947 1384 2947 
Q 1766 2947 2009 2819 
Q 2194 2722 2281 2516 
Q 2338 2381 2338 1966 
L 2338 994 
Q 2338 584 2353 492 
Q 2369 400 2405 369 
Q 2441 338 2488 338 
Q 2538 338 2575 359 
Q 2641 400 2828 588 
L 2828 413 
Q 2478 -56 2159 -56 
Q 2006 -56 1915 50 
Q 1825 156 1822 413 
z
M 1822 616 
L 1822 1706 
Q 1350 1519 1213 1441 
Q 966 1303 859 1153 
Q 753 1003 753 825 
Q 753 600 887 451 
Q 1022 303 1197 303 
Q 1434 303 1822 616 
z
" transform="scale(0.015625)"/>
      </defs>
      <use xlink:href="#TimesNewRomanPSMT-6d"/>
      <use xlink:href="#TimesNewRomanPSMT-69" x="77.783203"/>
      <use xlink:href="#TimesNewRomanPSMT-63" x="105.566406"/>
      <use xlink:href="#TimesNewRomanPSMT-61" x="149.951172"/>
     </g>
    </g>
    <g id="line2d_26">
     <path d="M 719.035156 112.822219 
L 738.035156 112.822219 
L 757.035156 112.822219 
" style="fill: none; stroke: #0000ff; stroke-width: 1.5; stroke-linecap: square"/>
    </g>
    <g id="text_27">
     <!-- proto -->
     <g transform="translate(772.235156 119.472219) scale(0.19 -0.19)">
      <defs>
       <path id="TimesNewRomanPSMT-70" d="M -6 2578 
L 875 2934 
L 994 2934 
L 994 2266 
Q 1216 2644 1439 2795 
Q 1663 2947 1909 2947 
Q 2341 2947 2628 2609 
Q 2981 2197 2981 1534 
Q 2981 794 2556 309 
Q 2206 -88 1675 -88 
Q 1444 -88 1275 -22 
Q 1150 25 994 166 
L 994 -706 
Q 994 -1000 1030 -1079 
Q 1066 -1159 1155 -1206 
Q 1244 -1253 1478 -1253 
L 1478 -1369 
L -22 -1369 
L -22 -1253 
L 56 -1253 
Q 228 -1256 350 -1188 
Q 409 -1153 442 -1076 
Q 475 -1000 475 -688 
L 475 2019 
Q 475 2297 450 2372 
Q 425 2447 370 2484 
Q 316 2522 222 2522 
Q 147 2522 31 2478 
L -6 2578 
z
M 994 2081 
L 994 1013 
Q 994 666 1022 556 
Q 1066 375 1236 237 
Q 1406 100 1666 100 
Q 1978 100 2172 344 
Q 2425 663 2425 1241 
Q 2425 1897 2138 2250 
Q 1938 2494 1663 2494 
Q 1513 2494 1366 2419 
Q 1253 2363 994 2081 
z
" transform="scale(0.015625)"/>
       <path id="TimesNewRomanPSMT-72" d="M 1038 2947 
L 1038 2303 
Q 1397 2947 1775 2947 
Q 1947 2947 2059 2842 
Q 2172 2738 2172 2600 
Q 2172 2478 2090 2393 
Q 2009 2309 1897 2309 
Q 1788 2309 1652 2417 
Q 1516 2525 1450 2525 
Q 1394 2525 1328 2463 
Q 1188 2334 1038 2041 
L 1038 669 
Q 1038 431 1097 309 
Q 1138 225 1241 169 
Q 1344 113 1538 113 
L 1538 0 
L 72 0 
L 72 113 
Q 291 113 397 181 
Q 475 231 506 341 
Q 522 394 522 644 
L 522 1753 
Q 522 2253 501 2348 
Q 481 2444 426 2487 
Q 372 2531 291 2531 
Q 194 2531 72 2484 
L 41 2597 
L 906 2947 
L 1038 2947 
z
" transform="scale(0.015625)"/>
       <path id="TimesNewRomanPSMT-6f" d="M 1600 2947 
Q 2250 2947 2644 2453 
Q 2978 2031 2978 1484 
Q 2978 1100 2793 706 
Q 2609 313 2286 112 
Q 1963 -88 1566 -88 
Q 919 -88 538 428 
Q 216 863 216 1403 
Q 216 1797 411 2186 
Q 606 2575 925 2761 
Q 1244 2947 1600 2947 
z
M 1503 2744 
Q 1338 2744 1170 2645 
Q 1003 2547 900 2300 
Q 797 2053 797 1666 
Q 797 1041 1045 587 
Q 1294 134 1700 134 
Q 2003 134 2200 384 
Q 2397 634 2397 1244 
Q 2397 2006 2069 2444 
Q 1847 2744 1503 2744 
z
" transform="scale(0.015625)"/>
       <path id="TimesNewRomanPSMT-74" d="M 1031 3803 
L 1031 2863 
L 1700 2863 
L 1700 2644 
L 1031 2644 
L 1031 788 
Q 1031 509 1111 412 
Q 1191 316 1316 316 
Q 1419 316 1516 380 
Q 1613 444 1666 569 
L 1788 569 
Q 1678 263 1478 108 
Q 1278 -47 1066 -47 
Q 922 -47 784 33 
Q 647 113 581 261 
Q 516 409 516 719 
L 516 2644 
L 63 2644 
L 63 2747 
Q 234 2816 414 2980 
Q 594 3144 734 3369 
Q 806 3488 934 3803 
L 1031 3803 
z
" transform="scale(0.015625)"/>
      </defs>
      <use xlink:href="#TimesNewRomanPSMT-70"/>
      <use xlink:href="#TimesNewRomanPSMT-72" x="50"/>
      <use xlink:href="#TimesNewRomanPSMT-6f" x="83.300781"/>
      <use xlink:href="#TimesNewRomanPSMT-74" x="133.300781"/>
      <use xlink:href="#TimesNewRomanPSMT-6f" x="161.083984"/>
     </g>
    </g>
   </g>
  </g>
 </g>
 <defs>
  <clipPath id="pa2be3009d1">
   <rect x="115.2" y="62.208" width="714.24" height="399.168"/>
  </clipPath>
 </defs>
</svg>
