<?xml version="1.0" encoding="utf-8" standalone="no"?>
<!DOCTYPE svg PUBLIC "-//W3C//DTD SVG 1.1//EN"
  "http://www.w3.org/Graphics/SVG/1.1/DTD/svg11.dtd">
<svg xmlns:xlink="http://www.w3.org/1999/xlink" width="921.6pt" height="518.4pt" viewBox="0 0 921.6 518.4" xmlns="http://www.w3.org/2000/svg" version="1.1">
 <metadata>
  <rdf:RDF xmlns:dc="http://purl.org/dc/elements/1.1/" xmlns:cc="http://creativecommons.org/ns#" xmlns:rdf="http://www.w3.org/1999/02/22-rdf-syntax-ns#">
   <cc:Work>
    <dc:type rdf:resource="http://purl.org/dc/dcmitype/StillImage"/>
    <dc:date>2023-07-04T17:23:30.307933</dc:date>
    <dc:format>image/svg+xml</dc:format>
    <dc:creator>
     <cc:Agent>
      <dc:title>Matplotlib v3.7.1, https://matplotlib.org/</dc:title>
     </cc:Agent>
    </dc:creator>
   </cc:Work>
  </rdf:RDF>
 </metadata>
 <defs>
  <style type="text/css">*{stroke-linejoin: round; stroke-linecap: butt}</style>
 </defs>
 <g id="figure_1">
  <g id="patch_1">
   <path d="M 0 518.4 
L 921.6 518.4 
L 921.6 0 
L 0 0 
z
" style="fill: #ffffff"/>
  </g>
  <g id="axes_1">
   <g id="patch_2">
    <path d="M 115.2 461.376 
L 829.44 461.376 
L 829.44 62.208 
L 115.2 62.208 
z
" style="fill: #ffffff"/>
   </g>
   <g id="matplotlib.axis_1">
    <g id="xtick_1">
     <g id="line2d_1">
      <defs>
       <path id="m715b32df8a" d="M 0 0 
L 0 3.5 
" style="stroke: #000000; stroke-width: 0.8"/>
      </defs>
      <g>
       <use xlink:href="#m715b32df8a" x="115.2" y="461.376" style="stroke: #000000; stroke-width: 0.8"/>
      </g>
     </g>
     <g id="text_1">
      <!-- 0 -->
      <g transform="translate(110.45 481.958031) scale(0.19 -0.19)">
       <defs>
        <path id="SimSun-30" d="M 1600 4225 
Q 1250 4225 1012 3687 
Q 775 3150 775 2250 
Q 775 1300 1012 775 
Q 1250 250 1600 250 
Q 1975 250 2187 775 
Q 2400 1300 2400 2250 
Q 2400 3150 2200 3687 
Q 2000 4225 1600 4225 
z
M 1600 50 
Q 1050 50 675 625 
Q 300 1200 300 2250 
Q 300 3225 662 3825 
Q 1025 4425 1600 4425 
Q 2150 4425 2512 3850 
Q 2875 3275 2875 2250 
Q 2875 1225 2512 637 
Q 2150 50 1600 50 
z
" transform="scale(0.015625)"/>
       </defs>
       <use xlink:href="#SimSun-30"/>
      </g>
     </g>
    </g>
    <g id="xtick_2">
     <g id="line2d_2">
      <g>
       <use xlink:href="#m715b32df8a" x="234.24" y="461.376" style="stroke: #000000; stroke-width: 0.8"/>
      </g>
     </g>
     <g id="text_2">
      <!-- 100 -->
      <g transform="translate(219.99 481.958031) scale(0.19 -0.19)">
       <defs>
        <path id="SimSun-31" d="M 1825 4450 
L 1825 650 
Q 1825 450 1950 350 
Q 2075 250 2300 250 
L 2550 250 
L 2550 100 
L 725 100 
L 725 250 
L 950 250 
Q 1200 250 1312 350 
Q 1425 450 1425 650 
L 1425 3675 
Q 1425 3775 1362 3837 
Q 1300 3900 1175 3900 
L 725 3900 
L 725 4050 
L 950 4050 
Q 1250 4050 1437 4150 
Q 1625 4250 1725 4450 
L 1825 4450 
z
" transform="scale(0.015625)"/>
       </defs>
       <use xlink:href="#SimSun-31"/>
       <use xlink:href="#SimSun-30" x="50"/>
       <use xlink:href="#SimSun-30" x="100"/>
      </g>
     </g>
    </g>
    <g id="xtick_3">
     <g id="line2d_3">
      <g>
       <use xlink:href="#m715b32df8a" x="353.28" y="461.376" style="stroke: #000000; stroke-width: 0.8"/>
      </g>
     </g>
     <g id="text_3">
      <!-- 200 -->
      <g transform="translate(339.03 481.958031) scale(0.19 -0.19)">
       <defs>
        <path id="SimSun-32" d="M 2325 3325 
Q 2325 3775 2125 4012 
Q 1925 4250 1525 4250 
Q 1225 4250 1012 4087 
Q 800 3925 800 3675 
Q 800 3525 900 3425 
Q 975 3325 975 3225 
Q 975 3100 912 3037 
Q 850 2975 725 2975 
Q 575 2975 487 3062 
Q 400 3150 400 3350 
Q 400 3875 775 4150 
Q 1150 4425 1575 4425 
Q 2175 4425 2462 4125 
Q 2750 3825 2750 3375 
Q 2750 3075 2612 2775 
Q 2475 2475 2175 2200 
Q 1450 1500 1062 1062 
Q 675 625 600 475 
L 2075 475 
Q 2300 475 2450 650 
Q 2600 825 2650 1175 
L 2800 1175 
L 2650 100 
L 325 100 
L 325 425 
Q 450 650 737 1000 
Q 1025 1350 1500 1825 
Q 1925 2250 2125 2625 
Q 2325 3000 2325 3325 
z
" transform="scale(0.015625)"/>
       </defs>
       <use xlink:href="#SimSun-32"/>
       <use xlink:href="#SimSun-30" x="50"/>
       <use xlink:href="#SimSun-30" x="100"/>
      </g>
     </g>
    </g>
    <g id="xtick_4">
     <g id="line2d_4">
      <g>
       <use xlink:href="#m715b32df8a" x="472.32" y="461.376" style="stroke: #000000; stroke-width: 0.8"/>
      </g>
     </g>
     <g id="text_4">
      <!-- 300 -->
      <g transform="translate(458.07 481.958031) scale(0.19 -0.19)">
       <defs>
        <path id="SimSun-33" d="M 2800 1250 
Q 2800 775 2450 412 
Q 2100 50 1475 50 
Q 1025 50 700 300 
Q 375 550 375 875 
Q 375 1025 475 1137 
Q 575 1250 675 1250 
Q 825 1250 887 1137 
Q 950 1025 950 950 
Q 950 825 900 750 
Q 850 650 850 575 
Q 850 425 1037 325 
Q 1225 225 1450 225 
Q 1900 225 2125 487 
Q 2350 750 2350 1300 
Q 2350 1750 2112 2025 
Q 1875 2300 1225 2300 
L 1225 2475 
Q 1725 2475 1962 2712 
Q 2200 2950 2200 3375 
Q 2200 3725 2012 3987 
Q 1825 4250 1425 4250 
Q 1250 4250 1050 4162 
Q 850 4075 850 3875 
Q 850 3675 900 3625 
Q 950 3575 950 3500 
Q 950 3375 900 3300 
Q 850 3225 725 3225 
Q 625 3225 537 3300 
Q 450 3375 450 3575 
Q 450 3950 775 4187 
Q 1100 4425 1525 4425 
Q 2025 4425 2325 4112 
Q 2625 3800 2625 3450 
Q 2625 3075 2437 2812 
Q 2250 2550 1850 2425 
Q 2400 2225 2600 1900 
Q 2800 1575 2800 1250 
z
" transform="scale(0.015625)"/>
       </defs>
       <use xlink:href="#SimSun-33"/>
       <use xlink:href="#SimSun-30" x="50"/>
       <use xlink:href="#SimSun-30" x="100"/>
      </g>
     </g>
    </g>
    <g id="xtick_5">
     <g id="line2d_5">
      <g>
       <use xlink:href="#m715b32df8a" x="591.36" y="461.376" style="stroke: #000000; stroke-width: 0.8"/>
      </g>
     </g>
     <g id="text_5">
      <!-- 400 -->
      <g transform="translate(577.11 481.958031) scale(0.19 -0.19)">
       <defs>
        <path id="SimSun-34" d="M 2300 575 
Q 2300 400 2400 325 
Q 2500 250 2675 250 
L 2900 250 
L 2900 100 
L 1250 100 
L 1250 250 
L 1525 250 
Q 1725 250 1812 325 
Q 1900 400 1900 575 
L 1900 1400 
L 225 1400 
L 225 1525 
L 2050 4425 
L 2300 4425 
L 2300 1550 
L 2975 1550 
L 2975 1400 
L 2300 1400 
L 2300 575 
z
M 1875 3800 
L 450 1550 
L 1900 1550 
L 1900 3800 
L 1875 3800 
z
" transform="scale(0.015625)"/>
       </defs>
       <use xlink:href="#SimSun-34"/>
       <use xlink:href="#SimSun-30" x="50"/>
       <use xlink:href="#SimSun-30" x="100"/>
      </g>
     </g>
    </g>
    <g id="xtick_6">
     <g id="line2d_6">
      <g>
       <use xlink:href="#m715b32df8a" x="710.4" y="461.376" style="stroke: #000000; stroke-width: 0.8"/>
      </g>
     </g>
     <g id="text_6">
      <!-- 500 -->
      <g transform="translate(696.15 481.958031) scale(0.19 -0.19)">
       <defs>
        <path id="SimSun-35" d="M 1725 2850 
Q 2200 2850 2500 2487 
Q 2800 2125 2800 1525 
Q 2800 850 2487 450 
Q 2175 50 1525 50 
Q 1075 50 725 312 
Q 375 575 375 950 
Q 375 1100 462 1212 
Q 550 1325 700 1325 
Q 850 1325 900 1225 
Q 950 1125 950 1050 
Q 950 900 875 825 
Q 800 725 800 625 
Q 800 425 1037 325 
Q 1275 225 1550 225 
Q 1950 225 2162 550 
Q 2375 875 2375 1475 
Q 2375 1975 2187 2287 
Q 2000 2600 1625 2600 
Q 1350 2600 1150 2500 
Q 950 2400 775 2075 
L 550 2100 
L 675 4375 
L 2725 4375 
L 2650 4000 
L 850 4000 
L 750 2350 
Q 1000 2700 1237 2775 
Q 1475 2850 1725 2850 
z
" transform="scale(0.015625)"/>
       </defs>
       <use xlink:href="#SimSun-35"/>
       <use xlink:href="#SimSun-30" x="50"/>
       <use xlink:href="#SimSun-30" x="100"/>
      </g>
     </g>
    </g>
    <g id="xtick_7">
     <g id="line2d_7">
      <g>
       <use xlink:href="#m715b32df8a" x="829.44" y="461.376" style="stroke: #000000; stroke-width: 0.8"/>
      </g>
     </g>
     <g id="text_7">
      <!-- 600 -->
      <g transform="translate(815.19 481.958031) scale(0.19 -0.19)">
       <defs>
        <path id="SimSun-36" d="M 775 1800 
Q 775 1050 1037 637 
Q 1300 225 1675 225 
Q 2050 225 2250 500 
Q 2450 775 2450 1525 
Q 2450 2025 2237 2300 
Q 2025 2575 1725 2575 
Q 1450 2575 1212 2412 
Q 975 2250 775 1800 
z
M 1750 2825 
Q 2350 2825 2612 2425 
Q 2875 2025 2875 1525 
Q 2875 775 2512 412 
Q 2150 50 1675 50 
Q 1000 50 650 562 
Q 300 1075 300 2050 
Q 300 3200 725 3812 
Q 1150 4425 1875 4425 
Q 2225 4425 2437 4225 
Q 2650 4025 2650 3875 
Q 2650 3725 2587 3650 
Q 2525 3575 2375 3575 
Q 2250 3575 2187 3637 
Q 2125 3700 2125 3825 
Q 2125 3875 2150 3925 
Q 2150 3975 2150 4025 
Q 2150 4125 2075 4187 
Q 2000 4250 1800 4250 
Q 1375 4250 1075 3862 
Q 775 3475 775 2175 
Q 925 2500 1187 2662 
Q 1450 2825 1750 2825 
z
" transform="scale(0.015625)"/>
       </defs>
       <use xlink:href="#SimSun-36"/>
       <use xlink:href="#SimSun-30" x="50"/>
       <use xlink:href="#SimSun-30" x="100"/>
      </g>
     </g>
    </g>
    <g id="text_8">
     <!-- 时间 $\mathrm{(s)}$ -->
     <g transform="translate(438.5 503.98725) scale(0.19 -0.19)">
      <defs>
       <path id="SimSun-65f6" d="M 4500 3600 
Q 4500 4575 4475 5225 
L 5100 4900 
L 4850 4725 
L 4850 3600 
L 5225 3600 
L 5550 3925 
L 6025 3450 
L 4850 3450 
L 4850 100 
Q 4850 -375 4300 -575 
Q 4275 -200 3475 -25 
L 3475 100 
Q 4150 0 4325 25 
Q 4500 50 4500 325 
L 4500 3450 
L 3200 3450 
Q 2875 3450 2600 3375 
L 2375 3600 
L 4500 3600 
z
M 2875 2825 
Q 3525 2375 3637 2200 
Q 3750 2025 3750 1925 
Q 3750 1800 3637 1637 
Q 3525 1475 3475 1475 
Q 3400 1475 3325 1775 
Q 3200 2225 2800 2750 
L 2875 2825 
z
M 925 4150 
L 925 2650 
L 1950 2650 
L 1950 4150 
L 925 4150 
z
M 925 2500 
L 925 900 
L 1950 900 
L 1950 2500 
L 925 2500 
z
M 2300 2000 
Q 2300 800 2325 450 
L 1950 250 
L 1950 750 
L 925 750 
L 925 225 
L 550 25 
Q 575 825 575 2425 
Q 575 4025 550 4500 
L 950 4300 
L 1900 4300 
L 2100 4550 
L 2500 4225 
L 2300 4050 
L 2300 2000 
z
" transform="scale(0.015625)"/>
       <path id="SimSun-95f4" d="M 2150 525 
Q 2175 1325 2175 2112 
Q 2175 2900 2150 3675 
L 2525 3450 
L 3750 3450 
L 4000 3700 
L 4325 3375 
L 4125 3200 
Q 4125 1550 4150 775 
L 3800 575 
L 3800 975 
L 2500 975 
L 2500 700 
L 2150 525 
z
M 2500 3300 
L 2500 2325 
L 3800 2325 
L 3800 3300 
L 2500 3300 
z
M 2500 2175 
L 2500 1125 
L 3800 1125 
L 3800 2175 
L 2500 2175 
z
M 1275 5200 
Q 1850 4825 1950 4675 
Q 2050 4525 2050 4425 
Q 2050 4275 1950 4137 
Q 1850 4000 1825 4000 
Q 1750 4000 1675 4275 
Q 1550 4650 1200 5125 
L 1275 5200 
z
M 1125 425 
Q 1125 25 1150 -375 
L 750 -525 
Q 775 -150 775 1950 
Q 775 4050 750 4425 
L 1350 4125 
L 1125 3975 
L 1125 425 
z
M 4225 125 
Q 5025 0 5125 37 
Q 5225 75 5225 250 
L 5225 4450 
L 3225 4450 
Q 2900 4450 2625 4375 
L 2400 4600 
L 5175 4600 
L 5425 4850 
L 5775 4500 
L 5575 4350 
L 5575 225 
Q 5575 -100 5462 -250 
Q 5350 -400 5000 -550 
Q 4800 -125 4225 25 
L 4225 125 
z
" transform="scale(0.015625)"/>
       <path id="SimSun-20" d="M 0 0 
Q 0 0 0 0 
z
" transform="scale(0.015625)"/>
       <path id="STIXGeneral-Regular-28" d="M 1946 -1030 
L 1869 -1133 
Q 1126 -710 716 32 
Q 307 774 307 1613 
Q 307 3386 1888 4326 
L 1946 4224 
Q 1293 3667 1075 3126 
Q 858 2586 858 1632 
Q 858 685 1082 96 
Q 1306 -493 1946 -1030 
z
" transform="scale(0.015625)"/>
       <path id="STIXGeneral-Regular-73" d="M 998 1926 
L 1664 1523 
Q 1984 1331 2105 1164 
Q 2227 998 2227 736 
Q 2227 416 1961 176 
Q 1696 -64 1331 -64 
Q 1030 -64 864 -6 
Q 691 51 570 51 
Q 461 51 416 -26 
L 333 -26 
L 333 979 
L 435 979 
Q 538 512 730 294 
Q 922 77 1248 77 
Q 1485 77 1632 211 
Q 1779 346 1779 550 
Q 1779 845 1440 1030 
L 1094 1222 
Q 326 1651 326 2150 
Q 326 2522 566 2730 
Q 806 2938 1210 2938 
Q 1491 2938 1638 2867 
Q 1754 2816 1818 2816 
Q 1862 2816 1920 2880 
L 1990 2880 
L 2022 2010 
L 1926 2010 
Q 1818 2445 1654 2621 
Q 1491 2797 1203 2797 
Q 986 2797 854 2688 
Q 723 2579 723 2362 
Q 723 2253 796 2128 
Q 870 2003 998 1926 
z
" transform="scale(0.015625)"/>
       <path id="STIXGeneral-Regular-29" d="M 186 4224 
L 262 4326 
Q 992 3891 1408 3148 
Q 1824 2406 1824 1581 
Q 1824 -166 243 -1133 
L 186 -1030 
Q 845 -486 1059 54 
Q 1274 595 1274 1562 
Q 1274 2534 1059 3120 
Q 845 3706 186 4224 
z
" transform="scale(0.015625)"/>
      </defs>
      <use xlink:href="#SimSun-65f6" transform="translate(0 0.359375)"/>
      <use xlink:href="#SimSun-95f4" transform="translate(100 0.359375)"/>
      <use xlink:href="#SimSun-20" transform="translate(200 0.359375)"/>
      <use xlink:href="#STIXGeneral-Regular-28" transform="translate(250 0.359375)"/>
      <use xlink:href="#STIXGeneral-Regular-73" transform="translate(283.299988 0.359375)"/>
      <use xlink:href="#STIXGeneral-Regular-29" transform="translate(322.199982 0.359375)"/>
     </g>
    </g>
   </g>
   <g id="matplotlib.axis_2">
    <g id="ytick_1">
     <g id="line2d_8">
      <defs>
       <path id="mf63d3bb0d6" d="M 0 0 
L -3.5 0 
" style="stroke: #000000; stroke-width: 0.8"/>
      </defs>
      <g>
       <use xlink:href="#mf63d3bb0d6" x="115.2" y="461.376" style="stroke: #000000; stroke-width: 0.8"/>
      </g>
     </g>
     <g id="text_9">
      <!-- 0 -->
      <g transform="translate(98.7 468.167016) scale(0.19 -0.19)">
       <use xlink:href="#SimSun-30"/>
      </g>
     </g>
    </g>
    <g id="ytick_2">
     <g id="line2d_9">
      <g>
       <use xlink:href="#mf63d3bb0d6" x="115.2" y="430.670769" style="stroke: #000000; stroke-width: 0.8"/>
      </g>
     </g>
     <g id="text_10">
      <!-- 0.5 -->
      <g transform="translate(79.7 437.461785) scale(0.19 -0.19)">
       <defs>
        <path id="SimSun-2e" d="M 800 25 
Q 650 25 537 125 
Q 425 225 425 400 
Q 425 575 537 675 
Q 650 775 800 775 
Q 950 775 1062 662 
Q 1175 550 1175 400 
Q 1175 225 1062 125 
Q 950 25 800 25 
z
" transform="scale(0.015625)"/>
       </defs>
       <use xlink:href="#SimSun-30"/>
       <use xlink:href="#SimSun-2e" x="50"/>
       <use xlink:href="#SimSun-35" x="100"/>
      </g>
     </g>
    </g>
    <g id="ytick_3">
     <g id="line2d_10">
      <g>
       <use xlink:href="#mf63d3bb0d6" x="115.2" y="399.965538" style="stroke: #000000; stroke-width: 0.8"/>
      </g>
     </g>
     <g id="text_11">
      <!-- 1.0 -->
      <g transform="translate(79.7 406.756554) scale(0.19 -0.19)">
       <use xlink:href="#SimSun-31"/>
       <use xlink:href="#SimSun-2e" x="50"/>
       <use xlink:href="#SimSun-30" x="100"/>
      </g>
     </g>
    </g>
    <g id="ytick_4">
     <g id="line2d_11">
      <g>
       <use xlink:href="#mf63d3bb0d6" x="115.2" y="369.260308" style="stroke: #000000; stroke-width: 0.8"/>
      </g>
     </g>
     <g id="text_12">
      <!-- 1.5 -->
      <g transform="translate(79.7 376.051323) scale(0.19 -0.19)">
       <use xlink:href="#SimSun-31"/>
       <use xlink:href="#SimSun-2e" x="50"/>
       <use xlink:href="#SimSun-35" x="100"/>
      </g>
     </g>
    </g>
    <g id="ytick_5">
     <g id="line2d_12">
      <g>
       <use xlink:href="#mf63d3bb0d6" x="115.2" y="338.555077" style="stroke: #000000; stroke-width: 0.8"/>
      </g>
     </g>
     <g id="text_13">
      <!-- 2.0 -->
      <g transform="translate(79.7 345.346093) scale(0.19 -0.19)">
       <use xlink:href="#SimSun-32"/>
       <use xlink:href="#SimSun-2e" x="50"/>
       <use xlink:href="#SimSun-30" x="100"/>
      </g>
     </g>
    </g>
    <g id="ytick_6">
     <g id="line2d_13">
      <g>
       <use xlink:href="#mf63d3bb0d6" x="115.2" y="307.849846" style="stroke: #000000; stroke-width: 0.8"/>
      </g>
     </g>
     <g id="text_14">
      <!-- 2.5 -->
      <g transform="translate(79.7 314.640862) scale(0.19 -0.19)">
       <use xlink:href="#SimSun-32"/>
       <use xlink:href="#SimSun-2e" x="50"/>
       <use xlink:href="#SimSun-35" x="100"/>
      </g>
     </g>
    </g>
    <g id="ytick_7">
     <g id="line2d_14">
      <g>
       <use xlink:href="#mf63d3bb0d6" x="115.2" y="277.144615" style="stroke: #000000; stroke-width: 0.8"/>
      </g>
     </g>
     <g id="text_15">
      <!-- 3.0 -->
      <g transform="translate(79.7 283.935631) scale(0.19 -0.19)">
       <use xlink:href="#SimSun-33"/>
       <use xlink:href="#SimSun-2e" x="50"/>
       <use xlink:href="#SimSun-30" x="100"/>
      </g>
     </g>
    </g>
    <g id="ytick_8">
     <g id="line2d_15">
      <g>
       <use xlink:href="#mf63d3bb0d6" x="115.2" y="246.439385" style="stroke: #000000; stroke-width: 0.8"/>
      </g>
     </g>
     <g id="text_16">
      <!-- 3.5 -->
      <g transform="translate(79.7 253.2304) scale(0.19 -0.19)">
       <use xlink:href="#SimSun-33"/>
       <use xlink:href="#SimSun-2e" x="50"/>
       <use xlink:href="#SimSun-35" x="100"/>
      </g>
     </g>
    </g>
    <g id="ytick_9">
     <g id="line2d_16">
      <g>
       <use xlink:href="#mf63d3bb0d6" x="115.2" y="215.734154" style="stroke: #000000; stroke-width: 0.8"/>
      </g>
     </g>
     <g id="text_17">
      <!-- 4.0 -->
      <g transform="translate(79.7 222.525169) scale(0.19 -0.19)">
       <use xlink:href="#SimSun-34"/>
       <use xlink:href="#SimSun-2e" x="50"/>
       <use xlink:href="#SimSun-30" x="100"/>
      </g>
     </g>
    </g>
    <g id="ytick_10">
     <g id="line2d_17">
      <g>
       <use xlink:href="#mf63d3bb0d6" x="115.2" y="185.028923" style="stroke: #000000; stroke-width: 0.8"/>
      </g>
     </g>
     <g id="text_18">
      <!-- 4.5 -->
      <g transform="translate(79.7 191.819939) scale(0.19 -0.19)">
       <use xlink:href="#SimSun-34"/>
       <use xlink:href="#SimSun-2e" x="50"/>
       <use xlink:href="#SimSun-35" x="100"/>
      </g>
     </g>
    </g>
    <g id="ytick_11">
     <g id="line2d_18">
      <g>
       <use xlink:href="#mf63d3bb0d6" x="115.2" y="154.323692" style="stroke: #000000; stroke-width: 0.8"/>
      </g>
     </g>
     <g id="text_19">
      <!-- 5.0 -->
      <g transform="translate(79.7 161.114708) scale(0.19 -0.19)">
       <use xlink:href="#SimSun-35"/>
       <use xlink:href="#SimSun-2e" x="50"/>
       <use xlink:href="#SimSun-30" x="100"/>
      </g>
     </g>
    </g>
    <g id="ytick_12">
     <g id="line2d_19">
      <g>
       <use xlink:href="#mf63d3bb0d6" x="115.2" y="123.618462" style="stroke: #000000; stroke-width: 0.8"/>
      </g>
     </g>
     <g id="text_20">
      <!-- 5.5 -->
      <g transform="translate(79.7 130.409477) scale(0.19 -0.19)">
       <use xlink:href="#SimSun-35"/>
       <use xlink:href="#SimSun-2e" x="50"/>
       <use xlink:href="#SimSun-35" x="100"/>
      </g>
     </g>
    </g>
    <g id="ytick_13">
     <g id="line2d_20">
      <g>
       <use xlink:href="#mf63d3bb0d6" x="115.2" y="92.913231" style="stroke: #000000; stroke-width: 0.8"/>
      </g>
     </g>
     <g id="text_21">
      <!-- 6.0 -->
      <g transform="translate(79.7 99.704246) scale(0.19 -0.19)">
       <use xlink:href="#SimSun-36"/>
       <use xlink:href="#SimSun-2e" x="50"/>
       <use xlink:href="#SimSun-30" x="100"/>
      </g>
     </g>
    </g>
    <g id="ytick_14">
     <g id="line2d_21">
      <g>
       <use xlink:href="#mf63d3bb0d6" x="115.2" y="62.208" style="stroke: #000000; stroke-width: 0.8"/>
      </g>
     </g>
     <g id="text_22">
      <!-- 6.5 -->
      <g transform="translate(79.7 68.999016) scale(0.19 -0.19)">
       <use xlink:href="#SimSun-36"/>
       <use xlink:href="#SimSun-2e" x="50"/>
       <use xlink:href="#SimSun-35" x="100"/>
      </g>
     </g>
    </g>
    <g id="text_23">
     <!-- 吞吐量 $\mathrm{(Mops)}$ -->
     <g transform="translate(71.52 323.067) rotate(-90) scale(0.19 -0.19)">
      <defs>
       <path id="SimSun-541e" d="M 2200 1700 
L 2200 75 
L 4200 75 
L 4200 1700 
L 2200 1700 
z
M 1025 4675 
L 4550 4675 
L 4875 5000 
L 5350 4525 
L 3300 4525 
Q 3150 4025 2900 3375 
L 5075 3375 
L 5450 3750 
L 5975 3225 
L 3700 3225 
Q 3925 2925 4312 2587 
Q 4700 2250 5225 2037 
Q 5750 1825 6100 1800 
L 6100 1700 
Q 5700 1675 5575 1375 
Q 4600 1900 4137 2437 
Q 3675 2975 3575 3225 
L 2825 3225 
Q 2425 2575 1950 2075 
L 2200 1850 
L 4175 1850 
L 4325 2100 
L 4750 1775 
L 4550 1600 
L 4550 375 
Q 4550 -50 4575 -375 
L 4200 -500 
L 4200 -75 
L 2200 -75 
L 2200 -450 
L 1825 -575 
Q 1850 175 1850 625 
L 1850 2000 
Q 1175 1400 375 1075 
L 325 1150 
Q 1075 1575 1600 2100 
Q 2125 2625 2450 3225 
L 1225 3225 
Q 900 3225 625 3150 
L 400 3375 
L 2525 3375 
Q 2800 4025 2900 4525 
L 1850 4525 
Q 1525 4525 1250 4450 
L 1025 4675 
z
" transform="scale(0.015625)"/>
       <path id="SimSun-5410" d="M 3775 3000 
L 3775 3750 
Q 3775 4400 3750 5175 
L 4350 4900 
L 4125 4700 
L 4125 3000 
L 4925 3000 
L 5250 3325 
L 5725 2850 
L 4125 2850 
L 4125 75 
L 5225 75 
L 5575 425 
L 6075 -75 
L 2675 -75 
Q 2350 -75 2075 -150 
L 1850 75 
L 3775 75 
L 3775 2850 
L 3225 2850 
Q 2900 2850 2625 2775 
L 2400 3000 
L 3775 3000 
z
M 575 4250 
L 950 4025 
L 1875 4025 
L 2050 4275 
L 2450 3950 
L 2250 3800 
L 2250 1950 
Q 2250 1375 2275 950 
L 1900 775 
L 1900 1225 
L 950 1225 
L 950 600 
L 575 425 
Q 600 1075 600 2375 
Q 600 3675 575 4250 
z
M 950 3875 
L 950 1375 
L 1900 1375 
L 1900 3875 
L 950 3875 
z
" transform="scale(0.015625)"/>
       <path id="SimSun-91cf" d="M 1700 2400 
L 1700 1875 
L 3025 1875 
L 3025 2400 
L 1700 2400 
z
M 3350 2400 
L 3350 1875 
L 4625 1875 
L 4625 2400 
L 3350 2400 
z
M 1700 1725 
L 1700 1225 
L 3025 1225 
L 3025 1725 
L 1700 1725 
z
M 3350 1725 
L 3350 1225 
L 4625 1225 
L 4625 1725 
L 3350 1725 
z
M 4950 2325 
Q 4950 1350 4975 1025 
L 4625 875 
L 4625 1075 
L 3350 1075 
L 3350 525 
L 4700 525 
L 5050 825 
L 5450 375 
L 3350 375 
L 3350 -225 
L 5275 -225 
L 5650 125 
L 6075 -375 
L 1175 -375 
Q 850 -375 575 -450 
L 350 -225 
L 3025 -225 
L 3025 375 
L 1725 375 
Q 1400 375 1125 300 
L 900 525 
L 3025 525 
L 3025 1075 
L 1700 1075 
L 1700 925 
L 1350 800 
Q 1375 1300 1375 1787 
Q 1375 2275 1350 2750 
L 1700 2550 
L 4600 2550 
L 4750 2750 
L 5125 2475 
L 4950 2325 
z
M 1775 4800 
L 1775 4375 
L 4550 4375 
L 4550 4800 
L 1775 4800 
z
M 1775 4225 
L 1775 3775 
L 4550 3775 
L 4550 4225 
L 1775 4225 
z
M 4875 4750 
Q 4875 3825 4900 3525 
L 4550 3375 
L 4550 3625 
L 1775 3625 
L 1775 3400 
L 1425 3250 
Q 1450 3650 1450 4262 
Q 1450 4875 1425 5125 
L 1800 4950 
L 4500 4950 
L 4650 5175 
L 5050 4900 
L 4875 4750 
z
M 250 3125 
L 5375 3125 
L 5725 3450 
L 6150 2975 
L 950 2975 
Q 750 2975 475 2900 
L 250 3125 
z
" transform="scale(0.015625)"/>
       <path id="STIXGeneral-Regular-4d" d="M 5530 0 
L 3738 0 
L 3738 122 
Q 4115 147 4214 265 
Q 4314 384 4314 787 
L 4314 3661 
L 2682 0 
L 2592 0 
L 979 3514 
L 979 966 
Q 979 448 1088 294 
Q 1197 141 1574 122 
L 1574 0 
L 77 0 
L 77 122 
Q 358 141 480 205 
Q 602 269 650 432 
Q 698 595 698 966 
L 698 3514 
Q 698 3878 589 3984 
Q 480 4090 90 4115 
L 90 4237 
L 1357 4237 
L 2835 1024 
L 4250 4237 
L 5523 4237 
L 5523 4115 
Q 5178 4109 5072 3993 
Q 4966 3878 4966 3520 
L 4966 717 
Q 4966 378 5072 262 
Q 5178 147 5530 122 
L 5530 0 
z
" transform="scale(0.015625)"/>
       <path id="STIXGeneral-Regular-6f" d="M 3008 1478 
Q 3008 806 2608 371 
Q 2208 -64 1568 -64 
Q 979 -64 582 368 
Q 186 800 186 1459 
Q 186 2125 582 2534 
Q 979 2944 1626 2944 
Q 2221 2944 2614 2537 
Q 3008 2131 3008 1478 
z
M 2432 1306 
Q 2432 2035 2112 2445 
Q 1856 2765 1504 2765 
Q 1171 2765 966 2493 
Q 762 2221 762 1747 
Q 762 928 1101 435 
Q 1318 115 1677 115 
Q 2029 115 2230 432 
Q 2432 749 2432 1306 
z
" transform="scale(0.015625)"/>
       <path id="STIXGeneral-Regular-70" d="M 1018 2931 
L 1018 2438 
Q 1421 2944 1939 2944 
Q 2406 2944 2707 2560 
Q 3008 2176 3008 1581 
Q 3008 883 2621 409 
Q 2234 -64 1664 -64 
Q 1466 -64 1328 -6 
Q 1190 51 1018 211 
L 1018 -794 
Q 1018 -1094 1120 -1180 
Q 1222 -1267 1581 -1274 
L 1581 -1389 
L 32 -1389 
L 32 -1280 
Q 314 -1254 397 -1171 
Q 480 -1088 480 -838 
L 480 2157 
Q 480 2381 429 2451 
Q 378 2522 218 2522 
Q 115 2522 58 2515 
L 58 2618 
Q 506 2752 979 2944 
L 1018 2931 
z
M 1018 2138 
L 1018 563 
Q 1018 422 1238 281 
Q 1459 141 1683 141 
Q 2029 141 2243 467 
Q 2458 794 2458 1325 
Q 2458 1888 2243 2224 
Q 2029 2560 1670 2560 
Q 1446 2560 1232 2419 
Q 1018 2278 1018 2138 
z
" transform="scale(0.015625)"/>
      </defs>
      <use xlink:href="#SimSun-541e" transform="translate(0 0.140625)"/>
      <use xlink:href="#SimSun-5410" transform="translate(100 0.140625)"/>
      <use xlink:href="#SimSun-91cf" transform="translate(200 0.140625)"/>
      <use xlink:href="#SimSun-20" transform="translate(300 0.140625)"/>
      <use xlink:href="#STIXGeneral-Regular-28" transform="translate(350 0.140625)"/>
      <use xlink:href="#STIXGeneral-Regular-4d" transform="translate(383.299988 0.140625)"/>
      <use xlink:href="#STIXGeneral-Regular-6f" transform="translate(472.199982 0.140625)"/>
      <use xlink:href="#STIXGeneral-Regular-70" transform="translate(522.199966 0.140625)"/>
      <use xlink:href="#STIXGeneral-Regular-73" transform="translate(572.199951 0.140625)"/>
      <use xlink:href="#STIXGeneral-Regular-29" transform="translate(611.099945 0.140625)"/>
     </g>
    </g>
   </g>
   <g id="line2d_22">
    <path d="M 116.3904 375.295765 
L 117.616512 170.038273 
L 118.7712 186.066097 
L 119.913984 181.459765 
L 121.056768 199.339882 
L 122.211456 208.055304 
L 123.35424 206.822771 
L 124.520832 187.857483 
L 125.67552 184.532579 
L 126.842112 204.66813 
L 128.020608 192.193227 
L 129.199104 194.711646 
L 130.3776 188.246315 
L 131.556096 190.259811 
L 132.7584 205.880115 
L 133.9488 195.525021 
L 135.151104 203.007984 
L 136.353408 207.037321 
L 137.567616 194.406479 
L 138.793728 204.783397 
L 140.01984 192.377489 
L 141.257856 209.350143 
L 142.495872 218.715147 
L 143.745792 198.124808 
L 144.995712 193.225359 
L 146.257536 206.408183 
L 147.51936 198.710308 
L 148.781184 219.445378 
L 150.054912 199.616518 
L 151.340544 205.07791 
L 152.626176 192.638993 
L 153.911808 204.077484 
L 155.209344 193.847527 
L 156.50688 196.62094 
L 157.81632 196.044001 
L 159.12576 193.946434 
L 160.4352 196.387955 
L 161.74464 191.694236 
L 163.05408 196.368617 
L 164.375424 199.891974 
L 165.696768 202.737747 
L 167.018112 201.433444 
L 168.339456 189.525839 
L 169.672704 196.938764 
L 170.994048 201.062298 
L 172.315392 198.78077 
L 173.64864 192.942367 
L 174.981888 185.337068 
L 176.303232 204.855205 
L 177.63648 202.231535 
L 178.969728 195.236232 
L 180.302976 192.112184 
L 181.636224 190.543318 
L 182.969472 195.716812 
L 184.314624 204.683206 
L 185.647872 201.454907 
L 186.98112 203.299192 
L 188.326272 194.996437 
L 189.671424 198.460754 
L 191.016576 203.236935 
L 192.361728 194.27662 
L 193.70688 184.534931 
L 195.063936 198.540772 
L 196.409088 188.768329 
L 197.75424 207.131064 
L 199.099392 203.828606 
L 200.456448 206.656116 
L 201.8016 199.745566 
L 203.158656 186.599121 
L 204.515712 182.245322 
L 205.872768 201.025169 
L 207.229824 191.745987 
L 208.598784 180.130462 
L 209.95584 200.369355 
L 211.312896 190.663849 
L 212.669952 200.677647 
L 214.038912 196.543888 
L 215.395968 193.12884 
L 216.764928 196.967381 
L 218.133888 188.221297 
L 219.490944 199.128599 
L 220.859904 191.32847 
L 222.228864 198.125251 
L 223.597824 183.732217 
L 224.966784 191.436755 
L 226.335744 193.089433 
L 227.704704 189.347362 
L 229.085568 198.973483 
L 230.454528 187.89409 
L 231.823488 189.917718 
L 233.192448 192.805232 
L 234.573312 182.112958 
L 235.954176 192.053224 
L 237.323136 185.749071 
L 238.704 183.960571 
L 240.07296 194.971369 
L 241.453824 208.031065 
L 242.834688 183.286383 
L 244.215552 183.645499 
L 245.596416 190.419939 
L 246.97728 190.986905 
L 248.358144 193.048018 
L 249.739008 182.576834 
L 251.119872 196.195519 
L 252.51264 182.245942 
L 253.893504 174.873776 
L 255.286272 175.881331 
L 256.667136 189.563852 
L 258.059904 191.571796 
L 259.452672 188.990248 
L 260.833536 194.535398 
L 262.2144 176.894475 
L 263.619072 188.39488 
L 264.999936 202.910452 
L 266.392704 186.532356 
L 267.785472 183.016729 
L 269.17824 193.35308 
L 270.571008 193.581705 
L 271.97568 188.725262 
L 273.368448 200.172424 
L 274.761216 187.910308 
L 276.165888 183.72976 
L 277.558656 189.54538 
L 278.951424 193.49524 
L 280.356096 188.694292 
L 281.748864 179.181229 
L 283.153536 193.851561 
L 284.546304 193.574269 
L 285.950976 198.182239 
L 287.343744 179.591727 
L 288.748416 186.929301 
L 290.153088 190.351429 
L 291.55776 179.494096 
L 292.962432 184.111058 
L 294.367104 202.757878 
L 295.771776 199.56653 
L 297.176448 189.185509 
L 298.58112 182.10323 
L 299.997696 203.637926 
L 301.402368 192.460258 
L 302.80704 189.410959 
L 304.223616 192.099724 
L 305.628288 195.325425 
L 307.03296 193.386175 
L 308.437632 190.710877 
L 309.854208 189.315429 
L 311.25888 184.921571 
L 312.663552 189.704145 
L 314.080128 191.293355 
L 315.4848 183.909257 
L 316.901376 189.18167 
L 318.294144 193.485426 
L 319.71072 186.161965 
L 321.115392 184.380539 
L 323.924736 197.612786 
L 325.341312 182.065205 
L 326.745984 204.775807 
L 328.150656 180.088046 
L 329.555328 188.373865 
L 330.96 183.983367 
L 332.376576 187.309929 
L 333.781248 195.858111 
L 335.197824 184.857318 
L 336.602496 186.757695 
L 338.007168 189.678905 
L 339.423744 185.595349 
L 340.828416 189.623267 
L 342.233088 174.462406 
L 343.63776 195.189978 
L 345.042432 188.227505 
L 346.447104 182.965771 
L 347.851776 187.219698 
L 349.256448 186.110392 
L 350.673024 190.045206 
L 352.077696 177.6656 
L 353.482368 186.241933 
L 354.88704 178.246801 
L 356.279808 183.219132 
L 357.68448 185.486806 
L 359.089152 192.24935 
L 360.493824 187.404716 
L 361.898496 173.66006 
L 363.291264 182.868933 
L 364.695936 186.98562 
L 366.088704 187.628348 
L 367.493376 179.501122 
L 368.886144 182.270285 
L 370.278912 177.707918 
L 371.683584 187.490678 
L 373.064448 190.279309 
L 375.861888 184.937243 
L 377.254656 172.926346 
L 378.647424 185.440091 
L 380.040192 181.820214 
L 381.43296 190.492157 
L 382.825728 186.989231 
L 384.206592 184.974538 
L 385.59936 184.540599 
L 386.992128 183.697415 
L 389.76576 177.863575 
L 391.146624 178.169933 
L 392.539392 187.963876 
L 393.920256 186.786411 
L 395.30112 186.120746 
L 396.681984 178.793041 
L 398.062848 187.801108 
L 399.443712 187.641441 
L 400.824576 188.654462 
L 402.217344 185.19954 
L 403.598208 186.012209 
L 404.967168 177.987974 
L 406.348032 191.246837 
L 407.728896 198.102406 
L 409.097856 190.290228 
L 410.466816 191.284985 
L 411.84768 185.787471 
L 413.21664 183.428849 
L 414.5856 179.772286 
L 415.95456 191.794164 
L 417.335424 176.423573 
L 418.69248 179.063689 
L 420.073344 182.547191 
L 421.442304 176.105344 
L 422.79936 177.703975 
L 424.16832 180.007881 
L 425.525376 180.786664 
L 426.882432 189.30844 
L 428.239488 183.610219 
L 429.596544 189.29337 
L 430.965504 181.955016 
L 432.32256 190.473225 
L 435.024768 177.589138 
L 436.381824 178.541553 
L 437.73888 181.401554 
L 439.084032 177.139521 
L 440.441088 180.653667 
L 441.78624 176.256862 
L 443.143296 179.502098 
L 444.476544 181.448595 
L 445.8336 183.000517 
L 447.178752 179.444526 
L 448.523904 186.504881 
L 449.869056 178.927972 
L 451.214208 184.910911 
L 452.55936 180.715379 
L 453.904512 178.829936 
L 455.249664 182.754998 
L 456.582912 181.038207 
L 457.928064 178.48118 
L 459.261312 186.242793 
L 460.59456 189.263002 
L 461.927808 178.10014 
L 463.261056 182.606127 
L 464.594304 172.661679 
L 465.927552 187.765429 
L 467.2608 176.153914 
L 468.594048 183.174997 
L 469.915392 178.214634 
L 471.24864 171.685689 
L 472.581888 179.109974 
L 473.903232 174.804794 
L 475.224576 196.097367 
L 476.54592 182.833174 
L 477.867264 178.429638 
L 479.188608 182.034758 
L 480.509952 171.909088 
L 481.831296 186.224186 
L 483.15264 186.964544 
L 484.46208 178.700207 
L 485.783424 171.478336 
L 487.092864 171.92721 
L 488.402304 185.869141 
L 489.711744 177.828282 
L 491.021184 195.194897 
L 492.330624 186.331267 
L 493.640064 180.988526 
L 494.961408 194.006033 
L 496.258944 187.283019 
L 497.568384 188.286484 
L 498.877824 175.727259 
L 500.17536 182.577117 
L 501.4848 172.426686 
L 502.79424 175.449272 
L 504.091776 186.330782 
L 505.389312 185.058695 
L 506.686848 186.585777 
L 507.984384 175.384177 
L 509.28192 182.115549 
L 510.579456 184.689716 
L 511.865088 170.382368 
L 514.46016 193.353166 
L 515.757696 179.065998 
L 517.043328 187.087346 
L 518.32896 184.612984 
L 519.614592 180.679539 
L 520.900224 173.375674 
L 522.185856 184.822412 
L 523.471488 180.409278 
L 524.75712 180.505478 
L 526.042752 177.521832 
L 527.328384 182.365183 
L 528.614016 168.666136 
L 529.887744 178.939787 
L 531.173376 179.202808 
L 532.447104 194.968636 
L 533.720832 178.136409 
L 534.99456 184.702318 
L 536.280192 172.092005 
L 537.55392 182.346164 
L 538.827648 184.438504 
L 540.101376 187.415972 
L 541.375104 176.732075 
L 542.648832 186.876217 
L 543.910656 172.414047 
L 545.184384 174.111678 
L 546.446208 185.048765 
L 547.719936 187.082771 
L 548.98176 175.69702 
L 550.255488 180.875512 
L 552.779136 195.365249 
L 554.04096 184.957533 
L 555.302784 182.550378 
L 556.564608 182.798673 
L 557.826432 172.038897 
L 559.088256 175.306695 
L 560.35008 184.230624 
L 562.861824 177.304218 
L 564.123648 184.672024 
L 565.373568 180.634839 
L 566.623488 192.120757 
L 567.885312 187.527598 
L 569.135232 180.589235 
L 570.385152 190.707923 
L 571.646976 182.590946 
L 572.896896 181.698345 
L 574.146816 187.549196 
L 575.396736 188.499241 
L 577.896576 176.080535 
L 579.146496 182.747936 
L 580.396416 182.248927 
L 581.634432 185.021928 
L 582.884352 200.993395 
L 584.122368 184.443202 
L 585.372288 180.830554 
L 586.610304 181.01169 
L 587.860224 188.824034 
L 589.09824 176.216497 
L 590.336256 179.435646 
L 591.574272 186.82793 
L 592.812288 187.911942 
L 594.050304 185.332457 
L 595.28832 186.049872 
L 596.526336 189.863204 
L 597.776256 179.918394 
L 599.014272 176.092325 
L 600.240384 182.687508 
L 601.4784 198.374239 
L 602.716416 179.491462 
L 603.954432 189.051271 
L 605.180544 184.566828 
L 606.41856 182.619969 
L 607.644672 184.627342 
L 608.882688 174.476856 
L 610.1088 198.276136 
L 611.334912 182.493684 
L 612.561024 194.176662 
L 613.787136 192.33226 
L 615.013248 185.235981 
L 616.23936 181.108878 
L 617.477376 187.106961 
L 618.703488 199.190863 
L 619.917696 193.492912 
L 621.143808 186.324997 
L 622.381824 183.434579 
L 623.596032 193.766041 
L 624.834048 184.531204 
L 626.048256 184.422949 
L 627.274368 190.77599 
L 628.50048 190.785767 
L 629.714688 182.613115 
L 630.9408 189.85 
L 632.155008 194.293182 
L 633.38112 180.462202 
L 634.595328 178.577318 
L 635.82144 184.816031 
L 637.035648 181.990026 
L 638.249856 188.467301 
L 639.475968 193.163629 
L 640.690176 175.744804 
L 641.904384 183.146293 
L 643.118592 180.532277 
L 644.3328 191.755708 
L 645.535104 194.109964 
L 646.749312 189.818982 
L 647.975424 173.78869 
L 649.189632 178.627085 
L 650.40384 190.379739 
L 651.606144 187.657008 
L 652.820352 176.981979 
L 654.03456 172.161374 
L 655.236864 187.036572 
L 656.451072 179.609431 
L 657.66528 176.728298 
L 658.879488 187.281962 
L 660.081792 180.572882 
L 661.284096 180.082458 
L 662.498304 174.343263 
L 663.700608 181.7597 
L 664.902912 183.289638 
L 666.105216 181.979501 
L 668.509824 178.267858 
L 669.712128 174.035363 
L 670.914432 181.512707 
L 672.116736 174.55723 
L 673.31904 182.86418 
L 674.521344 171.381873 
L 675.723648 184.319651 
L 676.925952 182.926536 
L 678.128256 171.003124 
L 679.33056 175.685616 
L 680.532864 175.144535 
L 681.735168 184.569217 
L 682.937472 179.775399 
L 684.139776 186.343389 
L 685.330176 176.0018 
L 686.53248 189.454241 
L 687.72288 188.517756 
L 690.127488 173.893511 
L 691.317888 171.752037 
L 692.520192 179.972533 
L 693.710592 184.66759 
L 694.912896 183.011706 
L 696.103296 176.239489 
L 697.3056 168.68295 
L 698.496 170.647305 
L 700.8768 179.95594 
L 702.0672 168.497454 
L 703.269504 166.064101 
L 704.459904 178.691855 
L 705.650304 174.479957 
L 706.840704 178.797075 
L 708.031104 172.91504 
L 709.221504 182.869222 
L 710.411904 181.538862 
L 711.602304 170.700481 
L 712.792704 176.559254 
L 713.983104 168.243688 
L 715.173504 172.598856 
L 716.363904 167.034872 
L 717.554304 171.637389 
L 718.744704 171.841211 
L 719.935104 177.976005 
L 721.125504 168.812226 
L 722.315904 182.641849 
L 723.506304 165.96902 
L 724.6848 167.242292 
L 725.8752 170.834122 
L 727.0656 175.908855 
L 728.256 174.283112 
L 729.434496 180.555085 
L 730.624896 175.946414 
L 731.815296 161.749003 
L 732.993792 171.440452 
L 734.184192 177.666804 
L 735.362688 165.269634 
L 736.553088 168.265323 
L 737.731584 173.952582 
L 738.91008 164.433666 
L 740.10048 171.965978 
L 741.29088 163.412852 
L 742.469376 165.167281 
L 743.647872 171.178051 
L 744.838272 179.074651 
L 746.016768 155.268818 
L 747.195264 173.836688 
L 748.37376 161.43729 
L 749.552256 167.878707 
L 750.730752 164.849734 
L 751.909248 166.578936 
L 753.087744 160.413055 
L 754.26624 162.570227 
L 755.444736 177.992746 
L 756.623232 177.829369 
L 757.813632 174.198807 
L 758.980224 166.623403 
L 760.15872 166.416493 
L 761.337216 164.060229 
L 762.515712 163.297235 
L 763.694208 172.819645 
L 764.872704 161.567916 
L 766.0512 162.824055 
L 767.229696 177.125397 
L 768.408192 170.968887 
L 769.586688 160.754504 
L 770.75328 163.062395 
L 771.931776 164.441692 
L 773.098368 167.571544 
L 774.276864 164.231355 
L 775.443456 163.669585 
L 776.621952 160.483702 
L 776.621952 160.483702 
" clip-path="url(#pe3d4a3385d)" style="fill: none; stroke: #ff0000; stroke-width: 1.5; stroke-linecap: square"/>
   </g>
   <g id="line2d_23">
    <path d="M 116.3904 435.270278 
L 118.925952 358.864161 
L 120.08064 156.86078 
L 121.21152 142.857696 
L 122.354304 141.20172 
L 123.485184 142.720278 
L 124.627968 159.575294 
L 125.782656 151.65157 
L 126.937344 147.6815 
L 128.092032 153.397475 
L 129.258624 163.852999 
L 130.425216 153.753324 
L 131.603712 145.687508 
L 132.770304 148.283691 
L 133.960704 156.903988 
L 135.1392 149.448635 
L 136.341504 152.125376 
L 137.531904 146.268777 
L 138.734208 152.47377 
L 139.948416 159.33381 
L 141.162624 158.381794 
L 142.388736 146.67018 
L 143.614848 166.039685 
L 144.84096 155.053107 
L 146.067072 158.601342 
L 147.305088 168.500003 
L 148.555008 155.05086 
L 149.793024 158.335644 
L 151.03104 158.835838 
L 152.28096 155.866857 
L 153.542784 143.980734 
L 154.792704 164.290782 
L 156.054528 150.983768 
L 157.316352 159.03401 
L 158.578176 144.311337 
L 159.851904 161.181994 
L 161.113728 156.849793 
L 162.387456 168.823316 
L 163.661184 151.087527 
L 164.934912 163.421235 
L 166.20864 153.219931 
L 167.494272 157.214817 
L 168.768 156.101249 
L 170.053632 153.091731 
L 171.32736 168.163326 
L 172.624896 162.456077 
L 173.910528 152.606852 
L 175.208064 150.379206 
L 176.493696 152.615161 
L 177.791232 171.769962 
L 179.088768 155.797844 
L 180.386304 153.193771 
L 181.68384 181.81465 
L 182.981376 158.995352 
L 184.290816 165.564122 
L 185.588352 171.311085 
L 186.885888 161.635308 
L 188.195328 164.104094 
L 189.504768 151.144823 
L 190.814208 148.460135 
L 192.123648 181.400928 
L 193.433088 166.539682 
L 194.742528 155.668747 
L 196.051968 160.72663 
L 197.373312 158.706274 
L 198.682752 159.148024 
L 199.992192 170.283608 
L 201.313536 167.241088 
L 202.63488 163.255377 
L 203.956224 167.135112 
L 205.277568 162.311204 
L 206.598912 156.663756 
L 207.93216 149.108587 
L 209.253504 155.53338 
L 210.574848 163.957004 
L 211.908096 163.967112 
L 213.22944 170.204843 
L 214.550784 164.331178 
L 215.884032 163.700984 
L 217.229184 164.97772 
L 218.562432 168.358451 
L 219.89568 162.481268 
L 221.228928 160.27541 
L 222.562176 153.648214 
L 223.895424 164.656353 
L 225.228672 162.14585 
L 226.573824 166.075149 
L 227.907072 166.987856 
L 229.252224 166.490695 
L 230.585472 171.701741 
L 231.930624 157.677078 
L 233.275776 151.282892 
L 234.620928 152.212959 
L 237.311232 173.864704 
L 238.656384 153.708046 
L 240.001536 167.813894 
L 241.346688 163.035988 
L 242.69184 156.814961 
L 244.036992 158.374769 
L 245.382144 165.213309 
L 246.7392 156.870667 
L 248.084352 154.0006 
L 249.441408 163.014857 
L 250.78656 157.687886 
L 252.143616 162.862369 
L 253.488768 160.47753 
L 254.845824 160.985843 
L 256.20288 171.159868 
L 257.548032 161.493609 
L 258.905088 172.414717 
L 260.262144 153.804915 
L 261.6192 167.670759 
L 262.976256 155.819154 
L 264.333312 172.214144 
L 265.690368 160.557616 
L 267.047424 161.911182 
L 268.40448 170.186414 
L 269.761536 167.428998 
L 271.118592 155.964979 
L 272.475648 162.989906 
L 273.844608 159.026155 
L 275.201664 162.01604 
L 276.55872 163.708476 
L 277.915776 167.72421 
L 279.284736 164.212791 
L 280.641792 155.845523 
L 282.010752 159.212198 
L 283.367808 161.555505 
L 284.724864 164.147536 
L 286.08192 179.69069 
L 287.438976 162.032775 
L 288.807936 172.354799 
L 290.164992 162.558301 
L 291.522048 170.900488 
L 294.23616 155.999817 
L 295.593216 161.269541 
L 296.962176 162.29162 
L 298.319232 175.170573 
L 299.676288 165.467929 
L 301.033344 173.125991 
L 302.3904 172.674526 
L 303.747456 162.382243 
L 305.116416 156.461341 
L 306.473472 171.422054 
L 307.830528 161.011549 
L 309.187584 170.09708 
L 310.54464 166.457251 
L 311.901696 173.542471 
L 313.258752 170.421253 
L 314.627712 162.751339 
L 315.984768 172.458558 
L 317.341824 167.456799 
L 318.69888 174.444093 
L 320.055936 169.988475 
L 321.424896 173.905241 
L 322.781952 162.449598 
L 324.139008 159.880326 
L 325.496064 163.08064 
L 326.865024 168.422239 
L 328.22208 154.20942 
L 329.579136 167.856261 
L 330.936192 169.307262 
L 332.293248 159.335578 
L 333.6384 164.041499 
L 334.995456 163.3626 
L 336.352512 168.59334 
L 337.709568 170.022386 
L 339.066624 164.580167 
L 340.42368 172.244192 
L 341.768832 162.637619 
L 343.125888 165.246268 
L 344.47104 176.509702 
L 345.828096 153.418121 
L 347.173248 165.533165 
L 348.530304 162.488453 
L 349.875456 176.132838 
L 351.220608 163.585692 
L 352.56576 160.335347 
L 353.922816 177.678122 
L 355.267968 171.155305 
L 356.61312 180.484537 
L 357.958272 170.496672 
L 359.303424 167.748836 
L 360.648576 172.862559 
L 361.993728 164.177719 
L 363.33888 166.382128 
L 364.684032 163.177435 
L 366.029184 176.476865 
L 367.374336 156.005799 
L 368.719488 160.393232 
L 370.06464 168.015007 
L 371.397888 155.078421 
L 372.74304 164.718095 
L 374.076288 169.492905 
L 375.42144 167.070392 
L 376.754688 169.067939 
L 378.087936 172.52342 
L 379.421184 163.358989 
L 380.766336 159.852341 
L 382.099584 168.746866 
L 383.432832 165.498763 
L 384.76608 164.513328 
L 386.099328 180.478924 
L 387.432576 168.753898 
L 388.765824 175.84104 
L 390.099072 179.966527 
L 391.43232 182.353392 
L 392.753664 180.293182 
L 394.086912 172.513876 
L 395.408256 172.335399 
L 396.7296 180.221368 
L 398.062848 166.857918 
L 399.384192 182.153157 
L 400.705536 163.990405 
L 402.038784 168.147863 
L 403.360128 174.727195 
L 404.681472 175.695872 
L 406.002816 161.003327 
L 407.32416 171.456216 
L 408.645504 172.511279 
L 409.966848 183.765317 
L 411.276288 174.522791 
L 412.597632 162.721383 
L 413.907072 164.739766 
L 415.228416 188.006759 
L 416.680704 185.611211 
L 416.680704 185.611211 
" clip-path="url(#pe3d4a3385d)" style="fill: none; stroke: #0000ff; stroke-width: 1.5; stroke-linecap: square"/>
   </g>
   <g id="patch_3">
    <path d="M 115.2 461.376 
L 115.2 62.208 
" style="fill: none; stroke: #000000; stroke-width: 0.8; stroke-linejoin: miter; stroke-linecap: square"/>
   </g>
   <g id="patch_4">
    <path d="M 829.44 461.376 
L 829.44 62.208 
" style="fill: none; stroke: #000000; stroke-width: 0.8; stroke-linejoin: miter; stroke-linecap: square"/>
   </g>
   <g id="patch_5">
    <path d="M 115.2 461.376 
L 829.44 461.376 
" style="fill: none; stroke: #000000; stroke-width: 0.8; stroke-linejoin: miter; stroke-linecap: square"/>
   </g>
   <g id="patch_6">
    <path d="M 115.2 62.208 
L 829.44 62.208 
" style="fill: none; stroke: #000000; stroke-width: 0.8; stroke-linejoin: miter; stroke-linecap: square"/>
   </g>
   <g id="text_24">
    <!-- $\mathrm{proto\ &amp;\ mica*}$的吞吐量随时间的变化趋势 -->
    <g transform="translate(265.866 56.208) scale(0.228 -0.228)">
     <defs>
      <path id="STIXGeneral-Regular-72" d="M 1024 2931 
L 1024 2342 
Q 1267 2688 1430 2816 
Q 1594 2944 1792 2944 
Q 1958 2944 2051 2854 
Q 2144 2765 2144 2605 
Q 2144 2470 2077 2393 
Q 2010 2317 1894 2317 
Q 1773 2317 1638 2445 
Q 1536 2541 1472 2541 
Q 1338 2541 1181 2355 
Q 1024 2170 1024 2016 
L 1024 576 
Q 1024 301 1133 205 
Q 1242 109 1568 96 
L 1568 0 
L 32 0 
L 32 96 
Q 339 154 412 224 
Q 486 294 486 538 
L 486 2138 
Q 486 2349 438 2435 
Q 390 2522 269 2522 
Q 166 2522 45 2496 
L 45 2598 
Q 448 2726 992 2944 
L 1024 2931 
z
" transform="scale(0.015625)"/>
      <path id="STIXGeneral-Regular-74" d="M 1702 493 
L 1786 422 
Q 1478 -64 1011 -64 
Q 448 -64 448 749 
L 448 2675 
L 109 2675 
Q 83 2694 83 2720 
Q 83 2771 192 2842 
Q 435 2982 813 3526 
Q 826 3546 874 3606 
Q 922 3667 941 3706 
Q 986 3706 986 3622 
L 986 2880 
L 1632 2880 
L 1632 2675 
L 986 2675 
L 986 845 
Q 986 538 1062 403 
Q 1139 269 1318 269 
Q 1510 269 1702 493 
z
" transform="scale(0.015625)"/>
      <path id="STIXGeneral-Regular-26" d="M 4704 710 
L 4800 640 
Q 4659 294 4409 105 
Q 4160 -83 3834 -83 
Q 3309 -83 2746 499 
Q 2387 186 2070 51 
Q 1754 -83 1363 -83 
Q 838 -83 553 160 
Q 269 403 269 877 
Q 269 1267 528 1628 
Q 787 1990 1274 2272 
L 1517 2413 
Q 1293 2957 1293 3366 
Q 1293 3789 1571 4057 
Q 1850 4326 2266 4326 
Q 2656 4326 2899 4115 
Q 3142 3904 3142 3533 
Q 3142 3181 2921 2937 
Q 2701 2694 2150 2458 
Q 2509 1683 2995 1139 
Q 3315 1568 3449 1821 
Q 3584 2074 3584 2291 
Q 3584 2438 3494 2502 
Q 3405 2566 3168 2592 
L 3168 2726 
L 4550 2726 
L 4550 2592 
Q 4326 2592 4201 2509 
Q 4077 2426 3949 2214 
Q 3859 2074 3702 1814 
Q 3546 1555 3424 1363 
Q 3302 1171 3142 960 
Q 3379 659 3606 515 
Q 3834 371 4115 371 
Q 4301 371 4425 444 
Q 4550 518 4704 710 
z
M 2803 3558 
Q 2803 3795 2662 3958 
Q 2522 4122 2304 4122 
Q 2080 4122 1939 3974 
Q 1798 3827 1798 3590 
Q 1798 3334 1849 3139 
Q 1901 2944 2054 2662 
Q 2458 2848 2630 3059 
Q 2803 3270 2803 3558 
z
M 2586 666 
Q 2035 1312 1613 2195 
Q 1197 1926 1027 1686 
Q 858 1446 858 1114 
Q 858 717 1078 486 
Q 1299 256 1651 256 
Q 2061 256 2586 666 
z
" transform="scale(0.015625)"/>
      <path id="STIXGeneral-Regular-6d" d="M 4960 0 
L 3565 0 
L 3565 96 
Q 3834 122 3907 208 
Q 3981 294 3981 576 
L 3981 1894 
Q 3981 2278 3869 2444 
Q 3757 2611 3488 2611 
Q 3264 2611 3107 2521 
Q 2950 2432 2803 2221 
L 2803 608 
Q 2803 301 2896 201 
Q 2989 102 3264 96 
L 3264 0 
L 1830 0 
L 1830 96 
Q 2112 115 2189 188 
Q 2266 262 2266 550 
L 2266 1901 
Q 2266 2611 1850 2611 
Q 1670 2611 1468 2531 
Q 1267 2451 1171 2336 
Q 1088 2240 1088 2227 
L 1088 448 
Q 1088 243 1177 176 
Q 1267 109 1523 96 
L 1523 0 
L 102 0 
L 102 96 
Q 371 102 460 195 
Q 550 288 550 563 
L 550 2150 
Q 550 2387 499 2480 
Q 448 2573 326 2573 
Q 230 2573 122 2547 
L 122 2656 
Q 557 2778 1011 2944 
L 1062 2925 
L 1062 2451 
L 1075 2451 
Q 1363 2752 1584 2848 
Q 1805 2944 2054 2944 
Q 2560 2944 2733 2406 
Q 3232 2944 3776 2944 
Q 4518 2944 4518 1792 
L 4518 493 
Q 4518 282 4582 202 
Q 4646 122 4794 109 
L 4960 96 
L 4960 0 
z
" transform="scale(0.015625)"/>
      <path id="STIXGeneral-Regular-69" d="M 1152 4045 
Q 1152 3904 1056 3811 
Q 960 3718 819 3718 
Q 685 3718 592 3811 
Q 499 3904 499 4045 
Q 499 4179 595 4275 
Q 691 4371 826 4371 
Q 966 4371 1059 4275 
Q 1152 4179 1152 4045 
z
M 1619 0 
L 102 0 
L 102 96 
Q 435 115 521 211 
Q 608 307 608 666 
L 608 2118 
Q 608 2342 563 2432 
Q 518 2522 397 2522 
Q 243 2522 128 2490 
L 128 2592 
L 1120 2944 
L 1146 2918 
L 1146 672 
Q 1146 314 1226 218 
Q 1306 122 1619 96 
L 1619 0 
z
" transform="scale(0.015625)"/>
      <path id="STIXGeneral-Regular-63" d="M 2547 998 
L 2637 941 
Q 2362 403 2112 205 
Q 1786 -64 1376 -64 
Q 845 -64 502 336 
Q 160 736 160 1357 
Q 160 2170 698 2618 
Q 1094 2944 1562 2944 
Q 1965 2944 2256 2749 
Q 2547 2554 2547 2285 
Q 2547 2176 2457 2096 
Q 2368 2016 2246 2016 
Q 2022 2016 1939 2310 
L 1901 2451 
Q 1850 2630 1773 2694 
Q 1696 2758 1523 2758 
Q 1133 2758 893 2451 
Q 653 2144 653 1645 
Q 653 1094 928 745 
Q 1203 397 1645 397 
Q 1920 397 2118 528 
Q 2317 659 2547 998 
z
" transform="scale(0.015625)"/>
      <path id="STIXGeneral-Regular-61" d="M 2829 422 
L 2829 243 
Q 2586 -64 2253 -64 
Q 1888 -64 1843 403 
L 1837 403 
Q 1427 -64 909 -64 
Q 608 -64 422 112 
Q 237 288 237 602 
Q 237 1050 685 1350 
Q 992 1555 1837 1869 
L 1837 2214 
Q 1837 2502 1699 2646 
Q 1562 2790 1338 2790 
Q 1146 2790 1018 2697 
Q 890 2605 890 2477 
Q 890 2419 909 2348 
Q 928 2278 928 2208 
Q 928 2112 841 2029 
Q 755 1946 634 1946 
Q 525 1946 441 2029 
Q 358 2112 358 2240 
Q 358 2547 685 2752 
Q 986 2944 1421 2944 
Q 1939 2944 2176 2656 
Q 2291 2522 2323 2384 
Q 2355 2246 2355 1946 
L 2355 723 
Q 2355 301 2554 301 
Q 2682 301 2829 422 
z
M 1837 813 
L 1837 1715 
Q 1248 1510 1018 1293 
Q 800 1094 800 800 
Q 800 557 921 432 
Q 1043 307 1242 307 
Q 1453 307 1613 410 
Q 1747 506 1792 589 
Q 1837 672 1837 813 
z
" transform="scale(0.015625)"/>
      <path id="STIXGeneral-Regular-2a" d="M 1715 3014 
L 1773 2976 
Q 2010 2822 2387 2758 
Q 2605 2726 2688 2665 
Q 2771 2605 2771 2483 
Q 2771 2374 2707 2304 
Q 2643 2234 2541 2234 
Q 2381 2234 2157 2515 
Q 2010 2694 1715 2886 
L 1664 2918 
L 1664 2861 
Q 1664 2502 1792 2157 
Q 1850 1997 1850 1946 
Q 1850 1850 1770 1773 
Q 1690 1696 1594 1696 
Q 1504 1696 1433 1766 
Q 1363 1837 1363 1926 
Q 1363 2016 1440 2227 
Q 1542 2502 1542 2861 
L 1542 2918 
Q 1286 2758 1210 2688 
Q 1133 2611 947 2400 
Q 806 2240 672 2240 
Q 563 2240 499 2304 
Q 435 2368 435 2470 
Q 435 2592 528 2656 
Q 621 2720 838 2758 
Q 1062 2803 1180 2848 
Q 1299 2893 1498 3014 
Q 1222 3181 877 3251 
Q 640 3302 544 3366 
Q 448 3430 448 3546 
Q 448 3648 505 3715 
Q 563 3782 659 3782 
Q 787 3782 973 3578 
Q 1242 3277 1542 3110 
L 1542 3194 
Q 1542 3456 1446 3776 
Q 1376 3987 1376 4109 
Q 1376 4198 1443 4262 
Q 1510 4326 1606 4326 
Q 1702 4326 1772 4259 
Q 1843 4192 1843 4096 
Q 1843 3994 1773 3795 
Q 1664 3507 1664 3264 
L 1664 3110 
Q 1882 3238 2035 3379 
Q 2067 3411 2153 3504 
Q 2240 3597 2291 3648 
Q 2342 3699 2409 3747 
Q 2477 3795 2528 3795 
Q 2637 3795 2701 3728 
Q 2765 3661 2765 3552 
Q 2765 3424 2691 3363 
Q 2618 3302 2432 3277 
Q 2074 3219 1715 3014 
z
" transform="scale(0.015625)"/>
      <path id="SimSun-7684" d="M 1125 3775 
L 1125 2175 
L 2425 2175 
L 2425 3775 
L 1125 3775 
z
M 1125 2025 
L 1125 275 
L 2425 275 
L 2425 2025 
L 1125 2025 
z
M 2750 3625 
Q 2750 700 2775 -200 
L 2425 -400 
L 2425 125 
L 1125 125 
L 1125 -300 
L 775 -500 
Q 800 675 800 1837 
Q 800 3000 775 4150 
L 1150 3925 
L 1400 3925 
Q 1650 4775 1675 5225 
L 2225 4925 
Q 1975 4800 1550 3925 
L 2375 3925 
L 2625 4175 
L 3000 3800 
L 2750 3625 
z
M 3975 5200 
L 4525 4875 
Q 4325 4750 3900 3850 
L 5250 3850 
L 5525 4125 
L 5900 3750 
L 5675 3575 
Q 5625 650 5537 262 
Q 5450 -125 5287 -275 
Q 5125 -425 4775 -550 
Q 4650 -150 3950 50 
L 3950 175 
Q 4575 50 4850 50 
Q 5125 50 5187 475 
Q 5250 900 5300 3700 
L 3850 3700 
Q 3400 2975 2900 2475 
L 2825 2525 
Q 3350 3325 3600 3950 
Q 3850 4575 3975 5200 
z
M 3525 2750 
Q 4125 2300 4225 2087 
Q 4325 1875 4325 1775 
Q 4325 1600 4225 1475 
Q 4125 1350 4075 1350 
Q 3975 1350 3925 1700 
Q 3825 2200 3475 2675 
L 3525 2750 
z
" transform="scale(0.015625)"/>
      <path id="SimSun-968f" d="M 2175 4225 
L 2250 4275 
Q 2800 3825 2850 3625 
Q 2900 3425 2775 3300 
Q 2650 3175 2600 3175 
Q 2500 3175 2475 3425 
Q 2425 3800 2175 4225 
z
M 6050 0 
L 6050 -100 
Q 5650 -175 5625 -475 
Q 4975 -450 4487 -425 
Q 4000 -400 3650 -262 
Q 3300 -125 3050 150 
Q 2875 300 2750 300 
Q 2650 300 2487 162 
Q 2325 25 2125 -375 
L 1750 -100 
Q 2100 175 2575 450 
L 2575 2300 
Q 2525 2300 2250 2225 
L 2025 2450 
L 2550 2450 
L 2700 2650 
L 3075 2375 
L 2875 2225 
L 2875 475 
Q 3325 75 3762 0 
Q 4200 -75 4725 -62 
Q 5250 -50 6050 0 
z
M 600 4900 
L 950 4675 
L 1700 4675 
L 1900 4900 
L 2300 4625 
L 2075 4450 
L 1475 3000 
Q 1650 2775 1900 2475 
Q 2125 2175 2162 1975 
Q 2200 1775 2200 1650 
Q 2200 1400 2075 1150 
Q 1950 900 1400 800 
Q 1400 1075 950 1250 
L 950 -475 
L 600 -650 
Q 625 0 625 2175 
Q 625 4350 600 4900 
z
M 1300 3000 
L 1725 4525 
L 950 4525 
L 950 1350 
Q 1275 1275 1425 1275 
Q 1600 1275 1725 1350 
Q 1850 1425 1850 1675 
Q 1850 1825 1812 2100 
Q 1775 2375 1300 3000 
z
M 3900 3250 
L 3900 2600 
L 5150 2600 
L 5150 3250 
L 3900 3250 
z
M 3575 250 
Q 3600 725 3600 3200 
Q 3350 2875 3000 2625 
L 2950 2675 
Q 3525 3325 3850 4175 
L 3600 4175 
Q 3275 4175 3000 4100 
L 2775 4325 
L 3900 4325 
Q 4100 4925 4100 5150 
L 4600 4900 
Q 4425 4800 4225 4325 
L 5325 4325 
L 5625 4625 
L 6025 4175 
L 4175 4175 
Q 4025 3825 3825 3475 
L 3925 3400 
L 5100 3400 
L 5250 3625 
L 5650 3350 
L 5475 3200 
L 5475 875 
Q 5525 425 5025 275 
Q 5025 550 4525 650 
L 4525 750 
Q 4950 725 5050 725 
Q 5150 725 5150 900 
L 5150 1650 
L 3900 1650 
L 3900 400 
L 3575 250 
z
M 3900 2450 
L 3900 1800 
L 5150 1800 
L 5150 2450 
L 3900 2450 
z
" transform="scale(0.015625)"/>
      <path id="SimSun-53d8" d="M 2750 4225 
L 2750 2225 
L 3650 2225 
L 3650 4225 
L 2750 4225 
z
M 375 4375 
L 3100 4375 
Q 3050 4750 2650 5200 
L 2700 5275 
Q 3150 5075 3325 4925 
Q 3500 4775 3500 4700 
Q 3500 4550 3300 4375 
L 5125 4375 
L 5525 4775 
L 6075 4225 
L 4000 4225 
L 4000 2225 
L 4425 2225 
L 4675 2500 
L 5100 2100 
L 4825 1975 
Q 4300 1325 3525 650 
Q 4500 -50 6125 -175 
L 6125 -275 
Q 5750 -325 5625 -575 
Q 4175 -250 3300 450 
Q 2150 -300 350 -600 
L 325 -500 
Q 2050 -100 3075 675 
Q 2525 1250 2100 2075 
L 1650 2075 
L 1375 2025 
L 1175 2225 
L 2400 2225 
L 2400 4225 
L 1200 4225 
Q 875 4225 600 4150 
L 375 4375 
z
M 2275 2075 
Q 2725 1350 3300 850 
Q 3800 1300 4425 2075 
L 2275 2075 
z
M 1675 3850 
L 2125 3450 
L 1875 3350 
Q 1150 2575 325 1950 
L 250 2025 
Q 700 2425 1087 2937 
Q 1475 3450 1675 3850 
z
M 4350 3700 
Q 5675 3050 5812 2875 
Q 5950 2700 5950 2575 
Q 5950 2475 5900 2375 
Q 5850 2275 5800 2275 
Q 5700 2275 5500 2550 
Q 5200 2950 4275 3625 
L 4350 3700 
z
" transform="scale(0.015625)"/>
      <path id="SimSun-5316" d="M 1375 -600 
Q 1400 200 1400 925 
L 1400 3125 
Q 850 2300 350 1775 
L 275 1850 
Q 825 2625 1300 3650 
Q 1775 4675 1900 5200 
L 2450 4875 
L 2200 4725 
Q 1875 4000 1600 3475 
L 1950 3275 
L 1750 3075 
L 1750 350 
Q 1750 75 1775 -400 
L 1375 -600 
z
M 3450 2125 
L 3450 3925 
Q 3450 4475 3425 5200 
L 4000 4925 
L 3800 4725 
L 3800 2400 
Q 4150 2725 4562 3225 
Q 4975 3725 5150 4025 
L 5600 3600 
L 5325 3525 
Q 4600 2700 3800 2000 
L 3800 425 
Q 3800 0 4225 0 
L 5300 0 
Q 5500 0 5550 325 
Q 5600 650 5600 1325 
L 5725 1325 
Q 5775 650 5850 425 
Q 5925 200 6125 125 
Q 5900 -325 5400 -325 
L 4075 -325 
Q 3450 -325 3450 250 
L 3450 1775 
Q 2800 1275 1950 925 
L 1925 1025 
Q 2800 1525 3450 2125 
z
" transform="scale(0.015625)"/>
      <path id="SimSun-8d8b" d="M 3900 5225 
L 4425 4900 
L 4225 4825 
Q 4000 4475 3800 4150 
L 4750 4150 
L 4975 4425 
L 5400 4025 
Q 5100 4000 4475 3075 
L 5350 3075 
L 5500 3325 
L 5900 3050 
L 5725 2875 
Q 5725 1050 5750 525 
L 5400 375 
L 5400 800 
L 3725 800 
Q 3525 800 3250 725 
L 3025 950 
L 5400 950 
L 5400 1900 
L 4050 1900 
Q 3850 1900 3575 1825 
L 3350 2050 
L 5400 2050 
L 5400 2925 
L 3900 2925 
Q 3700 2925 3425 2850 
L 3200 3075 
L 4350 3075 
L 4775 4000 
L 3725 4000 
Q 3450 3625 3000 3200 
L 2950 3250 
Q 3650 4250 3900 5225 
z
M 300 -550 
L 225 -500 
Q 675 275 787 1112 
Q 900 1950 850 2425 
L 1400 2150 
Q 1250 2075 1212 1812 
Q 1175 1550 1125 1075 
Q 1500 750 1725 625 
L 1725 2825 
L 950 2825 
Q 750 2825 475 2750 
L 250 2975 
L 1600 2975 
L 1600 4025 
L 1225 4025 
Q 1025 4025 750 3950 
L 525 4175 
L 1600 4175 
Q 1600 4675 1575 5225 
L 2125 4975 
L 1925 4800 
L 1925 4175 
L 2400 4175 
L 2700 4475 
L 3100 4025 
L 1925 4025 
L 1925 2975 
L 2475 2975 
L 2800 3275 
L 3200 2825 
L 1750 2825 
L 2250 2600 
L 2050 2400 
L 2050 1800 
L 2625 1800 
L 2925 2100 
L 3300 1650 
L 2050 1650 
L 2050 425 
Q 2925 25 3737 0 
Q 4550 -25 4925 -25 
Q 5625 -25 6150 25 
L 6150 -50 
Q 5700 -250 5700 -475 
Q 4950 -500 4012 -412 
Q 3075 -325 2325 -12 
Q 1575 300 1100 900 
Q 775 -25 300 -550 
z
" transform="scale(0.015625)"/>
      <path id="SimSun-52bf" d="M 1650 4175 
Q 1650 4775 1625 5200 
L 2150 4950 
L 1975 4800 
L 1975 4175 
L 2200 4175 
L 2475 4450 
L 2900 4025 
L 1975 4025 
L 1975 3425 
Q 2400 3525 2800 3625 
L 2825 3525 
Q 2400 3375 1975 3225 
L 1975 2150 
Q 2000 1800 1475 1575 
Q 1450 1850 800 2025 
L 800 2150 
Q 1225 2100 1437 2087 
Q 1650 2075 1650 2325 
L 1650 3100 
Q 700 2750 700 2650 
L 400 3100 
Q 575 3100 1650 3350 
L 1650 4025 
L 1300 4025 
Q 975 4025 700 3950 
L 475 4175 
L 1650 4175 
z
M 3650 4175 
L 3650 4525 
Q 3650 4875 3625 5225 
L 4175 4975 
L 3975 4800 
L 3975 4200 
L 4700 4250 
L 4850 4475 
L 5200 4200 
L 5025 4050 
Q 5000 3900 5000 3575 
Q 5000 3225 5050 2812 
Q 5100 2400 5425 2175 
Q 5600 2650 5700 3050 
L 5800 3025 
Q 5725 2525 5725 2250 
Q 5725 1975 5825 1775 
Q 5900 1650 5775 1650 
Q 5725 1650 5475 1750 
Q 5225 1850 5012 2137 
Q 4800 2425 4737 2750 
Q 4675 3075 4675 3475 
Q 4675 3850 4700 4100 
L 3975 4050 
Q 3925 3450 3750 3050 
Q 4100 2900 4262 2787 
Q 4425 2675 4387 2475 
Q 4350 2275 4275 2275 
Q 4225 2275 4125 2400 
Q 3925 2625 3625 2825 
Q 3225 2225 2100 1800 
L 2050 1875 
Q 3075 2400 3375 2975 
Q 3225 3100 2850 3300 
L 2900 3375 
Q 3225 3275 3475 3175 
Q 3600 3500 3650 4025 
L 3300 4000 
L 3125 3925 
L 2875 4125 
L 3650 4175 
z
M 2600 1425 
Q 2675 1700 2700 2025 
L 3175 1775 
L 3000 1650 
L 2950 1425 
L 4725 1425 
L 4875 1675 
L 5325 1375 
L 5125 1225 
Q 5050 400 4987 112 
Q 4925 -175 4750 -350 
Q 4575 -525 4225 -600 
Q 4250 -350 3650 -50 
L 3675 50 
Q 4225 -100 4412 -87 
Q 4600 -75 4675 312 
Q 4750 700 4775 1275 
L 2925 1275 
Q 2800 775 2575 450 
Q 2350 125 1875 -162 
Q 1400 -450 450 -650 
L 400 -550 
Q 1500 -225 1950 200 
Q 2400 625 2575 1275 
L 1450 1275 
Q 1125 1275 850 1200 
L 625 1425 
L 2600 1425 
z
" transform="scale(0.015625)"/>
     </defs>
     <use xlink:href="#STIXGeneral-Regular-70" transform="translate(0 0.578125)"/>
     <use xlink:href="#STIXGeneral-Regular-72" transform="translate(49.999985 0.578125)"/>
     <use xlink:href="#STIXGeneral-Regular-6f" transform="translate(83.299973 0.578125)"/>
     <use xlink:href="#STIXGeneral-Regular-74" transform="translate(133.299957 0.578125)"/>
     <use xlink:href="#STIXGeneral-Regular-6f" transform="translate(161.099945 0.578125)"/>
     <use xlink:href="#STIXGeneral-Regular-26" transform="translate(235.16635 0.578125)"/>
     <use xlink:href="#STIXGeneral-Regular-6d" transform="translate(337.032757 0.578125)"/>
     <use xlink:href="#STIXGeneral-Regular-69" transform="translate(414.832745 0.578125)"/>
     <use xlink:href="#STIXGeneral-Regular-63" transform="translate(442.632733 0.578125)"/>
     <use xlink:href="#STIXGeneral-Regular-61" transform="translate(487.032727 0.578125)"/>
     <use xlink:href="#STIXGeneral-Regular-2a" transform="translate(545.872717 0.578125)"/>
     <use xlink:href="#SimSun-7684" transform="translate(610.312698 0.578125)"/>
     <use xlink:href="#SimSun-541e" transform="translate(710.312698 0.578125)"/>
     <use xlink:href="#SimSun-5410" transform="translate(810.312698 0.578125)"/>
     <use xlink:href="#SimSun-91cf" transform="translate(910.312698 0.578125)"/>
     <use xlink:href="#SimSun-968f" transform="translate(1010.312698 0.578125)"/>
     <use xlink:href="#SimSun-65f6" transform="translate(1110.312698 0.578125)"/>
     <use xlink:href="#SimSun-95f4" transform="translate(1210.312698 0.578125)"/>
     <use xlink:href="#SimSun-7684" transform="translate(1310.312698 0.578125)"/>
     <use xlink:href="#SimSun-53d8" transform="translate(1410.312698 0.578125)"/>
     <use xlink:href="#SimSun-5316" transform="translate(1510.312698 0.578125)"/>
     <use xlink:href="#SimSun-8d8b" transform="translate(1610.312698 0.578125)"/>
     <use xlink:href="#SimSun-52bf" transform="translate(1710.312698 0.578125)"/>
    </g>
   </g>
   <g id="legend_1">
    <g id="patch_7">
     <path d="M 715.235156 131.136437 
L 816.14 131.136437 
Q 819.94 131.136437 819.94 127.336437 
L 819.94 75.508 
Q 819.94 71.708 816.14 71.708 
L 715.235156 71.708 
Q 711.435156 71.708 711.435156 75.508 
L 711.435156 127.336437 
Q 711.435156 131.136437 715.235156 131.136437 
z
" style="fill: #ffffff; opacity: 0.8; stroke: #cccccc; stroke-linejoin: miter"/>
    </g>
    <g id="line2d_24">
     <path d="M 719.035156 85.958 
L 738.035156 85.958 
L 757.035156 85.958 
" style="fill: none; stroke: #ff0000; stroke-width: 1.5; stroke-linecap: square"/>
    </g>
    <g id="text_25">
     <!-- mica -->
     <g transform="translate(772.235156 92.608) scale(0.19 -0.19)">
      <defs>
       <path id="TimesNewRomanPSMT-6d" d="M 1050 2338 
Q 1363 2650 1419 2697 
Q 1559 2816 1721 2881 
Q 1884 2947 2044 2947 
Q 2313 2947 2506 2790 
Q 2700 2634 2766 2338 
Q 3088 2713 3309 2830 
Q 3531 2947 3766 2947 
Q 3994 2947 4170 2830 
Q 4347 2713 4450 2447 
Q 4519 2266 4519 1878 
L 4519 647 
Q 4519 378 4559 278 
Q 4591 209 4675 161 
Q 4759 113 4950 113 
L 4950 0 
L 3538 0 
L 3538 113 
L 3597 113 
Q 3781 113 3884 184 
Q 3956 234 3988 344 
Q 4000 397 4000 647 
L 4000 1878 
Q 4000 2228 3916 2372 
Q 3794 2572 3525 2572 
Q 3359 2572 3192 2489 
Q 3025 2406 2788 2181 
L 2781 2147 
L 2788 2013 
L 2788 647 
Q 2788 353 2820 281 
Q 2853 209 2943 161 
Q 3034 113 3253 113 
L 3253 0 
L 1806 0 
L 1806 113 
Q 2044 113 2133 169 
Q 2222 225 2256 338 
Q 2272 391 2272 647 
L 2272 1878 
Q 2272 2228 2169 2381 
Q 2031 2581 1784 2581 
Q 1616 2581 1450 2491 
Q 1191 2353 1050 2181 
L 1050 647 
Q 1050 366 1089 281 
Q 1128 197 1204 155 
Q 1281 113 1516 113 
L 1516 0 
L 100 0 
L 100 113 
Q 297 113 375 155 
Q 453 197 493 289 
Q 534 381 534 647 
L 534 1741 
Q 534 2213 506 2350 
Q 484 2453 437 2492 
Q 391 2531 309 2531 
Q 222 2531 100 2484 
L 53 2597 
L 916 2947 
L 1050 2947 
L 1050 2338 
z
" transform="scale(0.015625)"/>
       <path id="TimesNewRomanPSMT-69" d="M 928 4444 
Q 1059 4444 1151 4351 
Q 1244 4259 1244 4128 
Q 1244 3997 1151 3903 
Q 1059 3809 928 3809 
Q 797 3809 703 3903 
Q 609 3997 609 4128 
Q 609 4259 701 4351 
Q 794 4444 928 4444 
z
M 1188 2947 
L 1188 647 
Q 1188 378 1227 289 
Q 1266 200 1342 156 
Q 1419 113 1622 113 
L 1622 0 
L 231 0 
L 231 113 
Q 441 113 512 153 
Q 584 194 626 287 
Q 669 381 669 647 
L 669 1750 
Q 669 2216 641 2353 
Q 619 2453 572 2492 
Q 525 2531 444 2531 
Q 356 2531 231 2484 
L 188 2597 
L 1050 2947 
L 1188 2947 
z
" transform="scale(0.015625)"/>
       <path id="TimesNewRomanPSMT-63" d="M 2631 1088 
Q 2516 522 2178 217 
Q 1841 -88 1431 -88 
Q 944 -88 581 321 
Q 219 731 219 1428 
Q 219 2103 620 2525 
Q 1022 2947 1584 2947 
Q 2006 2947 2278 2723 
Q 2550 2500 2550 2259 
Q 2550 2141 2473 2067 
Q 2397 1994 2259 1994 
Q 2075 1994 1981 2113 
Q 1928 2178 1911 2362 
Q 1894 2547 1784 2644 
Q 1675 2738 1481 2738 
Q 1169 2738 978 2506 
Q 725 2200 725 1697 
Q 725 1184 976 792 
Q 1228 400 1656 400 
Q 1963 400 2206 609 
Q 2378 753 2541 1131 
L 2631 1088 
z
" transform="scale(0.015625)"/>
       <path id="TimesNewRomanPSMT-61" d="M 1822 413 
Q 1381 72 1269 19 
Q 1100 -59 909 -59 
Q 613 -59 420 144 
Q 228 347 228 678 
Q 228 888 322 1041 
Q 450 1253 767 1440 
Q 1084 1628 1822 1897 
L 1822 2009 
Q 1822 2438 1686 2597 
Q 1550 2756 1291 2756 
Q 1094 2756 978 2650 
Q 859 2544 859 2406 
L 866 2225 
Q 866 2081 792 2003 
Q 719 1925 600 1925 
Q 484 1925 411 2006 
Q 338 2088 338 2228 
Q 338 2497 613 2722 
Q 888 2947 1384 2947 
Q 1766 2947 2009 2819 
Q 2194 2722 2281 2516 
Q 2338 2381 2338 1966 
L 2338 994 
Q 2338 584 2353 492 
Q 2369 400 2405 369 
Q 2441 338 2488 338 
Q 2538 338 2575 359 
Q 2641 400 2828 588 
L 2828 413 
Q 2478 -56 2159 -56 
Q 2006 -56 1915 50 
Q 1825 156 1822 413 
z
M 1822 616 
L 1822 1706 
Q 1350 1519 1213 1441 
Q 966 1303 859 1153 
Q 753 1003 753 825 
Q 753 600 887 451 
Q 1022 303 1197 303 
Q 1434 303 1822 616 
z
" transform="scale(0.015625)"/>
      </defs>
      <use xlink:href="#TimesNewRomanPSMT-6d"/>
      <use xlink:href="#TimesNewRomanPSMT-69" x="77.783203"/>
      <use xlink:href="#TimesNewRomanPSMT-63" x="105.566406"/>
      <use xlink:href="#TimesNewRomanPSMT-61" x="149.951172"/>
     </g>
    </g>
    <g id="line2d_25">
     <path d="M 719.035156 112.822219 
L 738.035156 112.822219 
L 757.035156 112.822219 
" style="fill: none; stroke: #0000ff; stroke-width: 1.5; stroke-linecap: square"/>
    </g>
    <g id="text_26">
     <!-- proto -->
     <g transform="translate(772.235156 119.472219) scale(0.19 -0.19)">
      <defs>
       <path id="TimesNewRomanPSMT-70" d="M -6 2578 
L 875 2934 
L 994 2934 
L 994 2266 
Q 1216 2644 1439 2795 
Q 1663 2947 1909 2947 
Q 2341 2947 2628 2609 
Q 2981 2197 2981 1534 
Q 2981 794 2556 309 
Q 2206 -88 1675 -88 
Q 1444 -88 1275 -22 
Q 1150 25 994 166 
L 994 -706 
Q 994 -1000 1030 -1079 
Q 1066 -1159 1155 -1206 
Q 1244 -1253 1478 -1253 
L 1478 -1369 
L -22 -1369 
L -22 -1253 
L 56 -1253 
Q 228 -1256 350 -1188 
Q 409 -1153 442 -1076 
Q 475 -1000 475 -688 
L 475 2019 
Q 475 2297 450 2372 
Q 425 2447 370 2484 
Q 316 2522 222 2522 
Q 147 2522 31 2478 
L -6 2578 
z
M 994 2081 
L 994 1013 
Q 994 666 1022 556 
Q 1066 375 1236 237 
Q 1406 100 1666 100 
Q 1978 100 2172 344 
Q 2425 663 2425 1241 
Q 2425 1897 2138 2250 
Q 1938 2494 1663 2494 
Q 1513 2494 1366 2419 
Q 1253 2363 994 2081 
z
" transform="scale(0.015625)"/>
       <path id="TimesNewRomanPSMT-72" d="M 1038 2947 
L 1038 2303 
Q 1397 2947 1775 2947 
Q 1947 2947 2059 2842 
Q 2172 2738 2172 2600 
Q 2172 2478 2090 2393 
Q 2009 2309 1897 2309 
Q 1788 2309 1652 2417 
Q 1516 2525 1450 2525 
Q 1394 2525 1328 2463 
Q 1188 2334 1038 2041 
L 1038 669 
Q 1038 431 1097 309 
Q 1138 225 1241 169 
Q 1344 113 1538 113 
L 1538 0 
L 72 0 
L 72 113 
Q 291 113 397 181 
Q 475 231 506 341 
Q 522 394 522 644 
L 522 1753 
Q 522 2253 501 2348 
Q 481 2444 426 2487 
Q 372 2531 291 2531 
Q 194 2531 72 2484 
L 41 2597 
L 906 2947 
L 1038 2947 
z
" transform="scale(0.015625)"/>
       <path id="TimesNewRomanPSMT-6f" d="M 1600 2947 
Q 2250 2947 2644 2453 
Q 2978 2031 2978 1484 
Q 2978 1100 2793 706 
Q 2609 313 2286 112 
Q 1963 -88 1566 -88 
Q 919 -88 538 428 
Q 216 863 216 1403 
Q 216 1797 411 2186 
Q 606 2575 925 2761 
Q 1244 2947 1600 2947 
z
M 1503 2744 
Q 1338 2744 1170 2645 
Q 1003 2547 900 2300 
Q 797 2053 797 1666 
Q 797 1041 1045 587 
Q 1294 134 1700 134 
Q 2003 134 2200 384 
Q 2397 634 2397 1244 
Q 2397 2006 2069 2444 
Q 1847 2744 1503 2744 
z
" transform="scale(0.015625)"/>
       <path id="TimesNewRomanPSMT-74" d="M 1031 3803 
L 1031 2863 
L 1700 2863 
L 1700 2644 
L 1031 2644 
L 1031 788 
Q 1031 509 1111 412 
Q 1191 316 1316 316 
Q 1419 316 1516 380 
Q 1613 444 1666 569 
L 1788 569 
Q 1678 263 1478 108 
Q 1278 -47 1066 -47 
Q 922 -47 784 33 
Q 647 113 581 261 
Q 516 409 516 719 
L 516 2644 
L 63 2644 
L 63 2747 
Q 234 2816 414 2980 
Q 594 3144 734 3369 
Q 806 3488 934 3803 
L 1031 3803 
z
" transform="scale(0.015625)"/>
      </defs>
      <use xlink:href="#TimesNewRomanPSMT-70"/>
      <use xlink:href="#TimesNewRomanPSMT-72" x="50"/>
      <use xlink:href="#TimesNewRomanPSMT-6f" x="83.300781"/>
      <use xlink:href="#TimesNewRomanPSMT-74" x="133.300781"/>
      <use xlink:href="#TimesNewRomanPSMT-6f" x="161.083984"/>
     </g>
    </g>
   </g>
  </g>
 </g>
 <defs>
  <clipPath id="pe3d4a3385d">
   <rect x="115.2" y="62.208" width="714.24" height="399.168"/>
  </clipPath>
 </defs>
</svg>
