<?xml version="1.0" encoding="utf-8" standalone="no"?>
<!DOCTYPE svg PUBLIC "-//W3C//DTD SVG 1.1//EN"
  "http://www.w3.org/Graphics/SVG/1.1/DTD/svg11.dtd">
<svg xmlns:xlink="http://www.w3.org/1999/xlink" width="2520pt" height="864pt" viewBox="0 0 2520 864" xmlns="http://www.w3.org/2000/svg" version="1.1">
 <metadata>
  <rdf:RDF xmlns:dc="http://purl.org/dc/elements/1.1/" xmlns:cc="http://creativecommons.org/ns#" xmlns:rdf="http://www.w3.org/1999/02/22-rdf-syntax-ns#">
   <cc:Work>
    <dc:type rdf:resource="http://purl.org/dc/dcmitype/StillImage"/>
    <dc:date>2023-10-24T00:13:55.311145</dc:date>
    <dc:format>image/svg+xml</dc:format>
    <dc:creator>
     <cc:Agent>
      <dc:title>Matplotlib v3.7.1, https://matplotlib.org/</dc:title>
     </cc:Agent>
    </dc:creator>
   </cc:Work>
  </rdf:RDF>
 </metadata>
 <defs>
  <style type="text/css">*{stroke-linejoin: round; stroke-linecap: butt}</style>
 </defs>
 <g id="figure_1">
  <g id="patch_1">
   <path d="M 0 864 
L 2520 864 
L 2520 0 
L 0 0 
z
" style="fill: #ffffff"/>
  </g>
  <g id="axes_1">
   <g id="patch_2">
    <path d="M 201.6 673.92 
L 2444.4 673.92 
L 2444.4 25.92 
L 201.6 25.92 
z
" style="fill: #ffffff"/>
   </g>
   <g id="patch_3">
    <path d="M 246.456 673.92 
L 268.884 673.92 
L 268.884 157.599497 
L 246.456 157.599497 
z
" clip-path="url(#pcf66be9ebe)" style="fill: #ff0000"/>
   </g>
   <g id="patch_4">
    <path d="M 470.736 673.92 
L 493.164 673.92 
L 493.164 155.333246 
L 470.736 155.333246 
z
" clip-path="url(#pcf66be9ebe)" style="fill: #ff0000"/>
   </g>
   <g id="patch_5">
    <path d="M 695.016 673.92 
L 717.444 673.92 
L 717.444 156.599042 
L 695.016 156.599042 
z
" clip-path="url(#pcf66be9ebe)" style="fill: #ff0000"/>
   </g>
   <g id="patch_6">
    <path d="M 919.296 673.92 
L 941.724 673.92 
L 941.724 165.53288 
L 919.296 165.53288 
z
" clip-path="url(#pcf66be9ebe)" style="fill: #ff0000"/>
   </g>
   <g id="patch_7">
    <path d="M 1143.576 673.92 
L 1166.004 673.92 
L 1166.004 168.699607 
L 1143.576 168.699607 
z
" clip-path="url(#pcf66be9ebe)" style="fill: #ff0000"/>
   </g>
   <g id="patch_8">
    <path d="M 1367.856 673.92 
L 1390.284 673.92 
L 1390.284 176.210365 
L 1367.856 176.210365 
z
" clip-path="url(#pcf66be9ebe)" style="fill: #ff0000"/>
   </g>
   <g id="patch_9">
    <path d="M 1592.136 673.92 
L 1614.564 673.92 
L 1614.564 176.867453 
L 1592.136 176.867453 
z
" clip-path="url(#pcf66be9ebe)" style="fill: #ff0000"/>
   </g>
   <g id="patch_10">
    <path d="M 1816.416 673.92 
L 1838.844 673.92 
L 1838.844 179.227404 
L 1816.416 179.227404 
z
" clip-path="url(#pcf66be9ebe)" style="fill: #ff0000"/>
   </g>
   <g id="patch_11">
    <path d="M 2040.696 673.92 
L 2063.124 673.92 
L 2063.124 166.426569 
L 2040.696 166.426569 
z
" clip-path="url(#pcf66be9ebe)" style="fill: #ff0000"/>
   </g>
   <g id="patch_12">
    <path d="M 2264.976 673.92 
L 2287.404 673.92 
L 2287.404 164.797205 
L 2264.976 164.797205 
z
" clip-path="url(#pcf66be9ebe)" style="fill: #ff0000"/>
   </g>
   <g id="patch_13">
    <path d="M 268.884 673.92 
L 291.312 673.92 
L 291.312 161.526361 
L 268.884 161.526361 
z
" clip-path="url(#pcf66be9ebe)" style="fill: #0000ff"/>
   </g>
   <g id="patch_14">
    <path d="M 493.164 673.92 
L 515.592 673.92 
L 515.592 156.829462 
L 493.164 156.829462 
z
" clip-path="url(#pcf66be9ebe)" style="fill: #0000ff"/>
   </g>
   <g id="patch_15">
    <path d="M 717.444 673.92 
L 739.872 673.92 
L 739.872 161.429112 
L 717.444 161.429112 
z
" clip-path="url(#pcf66be9ebe)" style="fill: #0000ff"/>
   </g>
   <g id="patch_16">
    <path d="M 941.724 673.92 
L 964.152 673.92 
L 964.152 159.548341 
L 941.724 159.548341 
z
" clip-path="url(#pcf66be9ebe)" style="fill: #0000ff"/>
   </g>
   <g id="patch_17">
    <path d="M 1166.004 673.92 
L 1188.432 673.92 
L 1188.432 190.45726 
L 1166.004 190.45726 
z
" clip-path="url(#pcf66be9ebe)" style="fill: #0000ff"/>
   </g>
   <g id="patch_18">
    <path d="M 1390.284 673.92 
L 1412.712 673.92 
L 1412.712 172.986808 
L 1390.284 172.986808 
z
" clip-path="url(#pcf66be9ebe)" style="fill: #0000ff"/>
   </g>
   <g id="patch_19">
    <path d="M 1614.564 673.92 
L 1636.992 673.92 
L 1636.992 172.526906 
L 1614.564 172.526906 
z
" clip-path="url(#pcf66be9ebe)" style="fill: #0000ff"/>
   </g>
   <g id="patch_20">
    <path d="M 1838.844 673.92 
L 1861.272 673.92 
L 1861.272 166.588018 
L 1838.844 166.588018 
z
" clip-path="url(#pcf66be9ebe)" style="fill: #0000ff"/>
   </g>
   <g id="patch_21">
    <path d="M 2063.124 673.92 
L 2085.552 673.92 
L 2085.552 169.382178 
L 2063.124 169.382178 
z
" clip-path="url(#pcf66be9ebe)" style="fill: #0000ff"/>
   </g>
   <g id="patch_22">
    <path d="M 2287.404 673.92 
L 2309.832 673.92 
L 2309.832 173.272592 
L 2287.404 173.272592 
z
" clip-path="url(#pcf66be9ebe)" style="fill: #0000ff"/>
   </g>
   <g id="patch_23">
    <path d="M 291.312 673.92 
L 313.74 673.92 
L 313.74 151.768291 
L 291.312 151.768291 
z
" clip-path="url(#pcf66be9ebe)" style="fill: #9467bd"/>
   </g>
   <g id="patch_24">
    <path d="M 515.592 673.92 
L 538.02 673.92 
L 538.02 162.751307 
L 515.592 162.751307 
z
" clip-path="url(#pcf66be9ebe)" style="fill: #9467bd"/>
   </g>
   <g id="patch_25">
    <path d="M 739.872 673.92 
L 762.3 673.92 
L 762.3 159.115703 
L 739.872 159.115703 
z
" clip-path="url(#pcf66be9ebe)" style="fill: #9467bd"/>
   </g>
   <g id="patch_26">
    <path d="M 964.152 673.92 
L 986.58 673.92 
L 986.58 156.993973 
L 964.152 156.993973 
z
" clip-path="url(#pcf66be9ebe)" style="fill: #9467bd"/>
   </g>
   <g id="patch_27">
    <path d="M 1188.432 673.92 
L 1210.86 673.92 
L 1210.86 156.598969 
L 1188.432 156.598969 
z
" clip-path="url(#pcf66be9ebe)" style="fill: #9467bd"/>
   </g>
   <g id="patch_28">
    <path d="M 1412.712 673.92 
L 1435.14 673.92 
L 1435.14 166.5499 
L 1412.712 166.5499 
z
" clip-path="url(#pcf66be9ebe)" style="fill: #9467bd"/>
   </g>
   <g id="patch_29">
    <path d="M 1636.992 673.92 
L 1659.42 673.92 
L 1659.42 173.191997 
L 1636.992 173.191997 
z
" clip-path="url(#pcf66be9ebe)" style="fill: #9467bd"/>
   </g>
   <g id="patch_30">
    <path d="M 1861.272 673.92 
L 1883.7 673.92 
L 1883.7 180.36756 
L 1861.272 180.36756 
z
" clip-path="url(#pcf66be9ebe)" style="fill: #9467bd"/>
   </g>
   <g id="patch_31">
    <path d="M 2085.552 673.92 
L 2107.98 673.92 
L 2107.98 164.937303 
L 2085.552 164.937303 
z
" clip-path="url(#pcf66be9ebe)" style="fill: #9467bd"/>
   </g>
   <g id="patch_32">
    <path d="M 2309.832 673.92 
L 2332.26 673.92 
L 2332.26 169.677131 
L 2309.832 169.677131 
z
" clip-path="url(#pcf66be9ebe)" style="fill: #9467bd"/>
   </g>
   <g id="patch_33">
    <path d="M 313.74 673.92 
L 336.168 673.92 
L 336.168 154.802599 
L 313.74 154.802599 
z
" clip-path="url(#pcf66be9ebe)" style="fill: #ff7f0e"/>
   </g>
   <g id="patch_34">
    <path d="M 538.02 673.92 
L 560.448 673.92 
L 560.448 151.180781 
L 538.02 151.180781 
z
" clip-path="url(#pcf66be9ebe)" style="fill: #ff7f0e"/>
   </g>
   <g id="patch_35">
    <path d="M 762.3 673.92 
L 784.728 673.92 
L 784.728 161.347982 
L 762.3 161.347982 
z
" clip-path="url(#pcf66be9ebe)" style="fill: #ff7f0e"/>
   </g>
   <g id="patch_36">
    <path d="M 986.58 673.92 
L 1009.008 673.92 
L 1009.008 161.667122 
L 986.58 161.667122 
z
" clip-path="url(#pcf66be9ebe)" style="fill: #ff7f0e"/>
   </g>
   <g id="patch_37">
    <path d="M 1210.86 673.92 
L 1233.288 673.92 
L 1233.288 169.579624 
L 1210.86 169.579624 
z
" clip-path="url(#pcf66be9ebe)" style="fill: #ff7f0e"/>
   </g>
   <g id="patch_38">
    <path d="M 1435.14 673.92 
L 1457.568 673.92 
L 1457.568 172.264855 
L 1435.14 172.264855 
z
" clip-path="url(#pcf66be9ebe)" style="fill: #ff7f0e"/>
   </g>
   <g id="patch_39">
    <path d="M 1659.42 673.92 
L 1681.848 673.92 
L 1681.848 175.003205 
L 1659.42 175.003205 
z
" clip-path="url(#pcf66be9ebe)" style="fill: #ff7f0e"/>
   </g>
   <g id="patch_40">
    <path d="M 1883.7 673.92 
L 1906.128 673.92 
L 1906.128 171.849422 
L 1883.7 171.849422 
z
" clip-path="url(#pcf66be9ebe)" style="fill: #ff7f0e"/>
   </g>
   <g id="patch_41">
    <path d="M 2107.98 673.92 
L 2130.408 673.92 
L 2130.408 164.639272 
L 2107.98 164.639272 
z
" clip-path="url(#pcf66be9ebe)" style="fill: #ff7f0e"/>
   </g>
   <g id="patch_42">
    <path d="M 2332.26 673.92 
L 2354.688 673.92 
L 2354.688 165.785584 
L 2332.26 165.785584 
z
" clip-path="url(#pcf66be9ebe)" style="fill: #ff7f0e"/>
   </g>
   <g id="patch_43">
    <path d="M 336.168 673.92 
L 358.596 673.92 
L 358.596 182.11379 
L 336.168 182.11379 
z
" clip-path="url(#pcf66be9ebe)" style="fill: #1f77b4"/>
   </g>
   <g id="patch_44">
    <path d="M 560.448 673.92 
L 582.876 673.92 
L 582.876 164.584046 
L 560.448 164.584046 
z
" clip-path="url(#pcf66be9ebe)" style="fill: #1f77b4"/>
   </g>
   <g id="patch_45">
    <path d="M 784.728 673.92 
L 807.156 673.92 
L 807.156 162.625725 
L 784.728 162.625725 
z
" clip-path="url(#pcf66be9ebe)" style="fill: #1f77b4"/>
   </g>
   <g id="patch_46">
    <path d="M 1009.008 673.92 
L 1031.436 673.92 
L 1031.436 170.952071 
L 1009.008 170.952071 
z
" clip-path="url(#pcf66be9ebe)" style="fill: #1f77b4"/>
   </g>
   <g id="patch_47">
    <path d="M 1233.288 673.92 
L 1255.716 673.92 
L 1255.716 168.732542 
L 1233.288 168.732542 
z
" clip-path="url(#pcf66be9ebe)" style="fill: #1f77b4"/>
   </g>
   <g id="patch_48">
    <path d="M 1457.568 673.92 
L 1479.996 673.92 
L 1479.996 180.290108 
L 1457.568 180.290108 
z
" clip-path="url(#pcf66be9ebe)" style="fill: #1f77b4"/>
   </g>
   <g id="patch_49">
    <path d="M 1681.848 673.92 
L 1704.276 673.92 
L 1704.276 260.553348 
L 1681.848 260.553348 
z
" clip-path="url(#pcf66be9ebe)" style="fill: #1f77b4"/>
   </g>
   <g id="patch_50">
    <path d="M 1906.128 673.92 
L 1928.556 673.92 
L 1928.556 433.012133 
L 1906.128 433.012133 
z
" clip-path="url(#pcf66be9ebe)" style="fill: #1f77b4"/>
   </g>
   <g id="patch_51">
    <path d="M 2130.408 673.92 
L 2152.836 673.92 
L 2152.836 169.366577 
L 2130.408 169.366577 
z
" clip-path="url(#pcf66be9ebe)" style="fill: #1f77b4"/>
   </g>
   <g id="patch_52">
    <path d="M 2354.688 673.92 
L 2377.116 673.92 
L 2377.116 180.853511 
L 2354.688 180.853511 
z
" clip-path="url(#pcf66be9ebe)" style="fill: #1f77b4"/>
   </g>
   <g id="patch_53">
    <path d="M 358.596 673.92 
L 381.024 673.92 
L 381.024 159.177182 
L 358.596 159.177182 
z
" clip-path="url(#pcf66be9ebe)" style="fill: #d62728"/>
   </g>
   <g id="patch_54">
    <path d="M 582.876 673.92 
L 605.304 673.92 
L 605.304 161.948419 
L 582.876 161.948419 
z
" clip-path="url(#pcf66be9ebe)" style="fill: #d62728"/>
   </g>
   <g id="patch_55">
    <path d="M 807.156 673.92 
L 829.584 673.92 
L 829.584 170.550781 
L 807.156 170.550781 
z
" clip-path="url(#pcf66be9ebe)" style="fill: #d62728"/>
   </g>
   <g id="patch_56">
    <path d="M 1031.436 673.92 
L 1053.864 673.92 
L 1053.864 174.907609 
L 1031.436 174.907609 
z
" clip-path="url(#pcf66be9ebe)" style="fill: #d62728"/>
   </g>
   <g id="patch_57">
    <path d="M 1255.716 673.92 
L 1278.144 673.92 
L 1278.144 180.638408 
L 1255.716 180.638408 
z
" clip-path="url(#pcf66be9ebe)" style="fill: #d62728"/>
   </g>
   <g id="patch_58">
    <path d="M 1479.996 673.92 
L 1502.424 673.92 
L 1502.424 184.873136 
L 1479.996 184.873136 
z
" clip-path="url(#pcf66be9ebe)" style="fill: #d62728"/>
   </g>
   <g id="patch_59">
    <path d="M 1704.276 673.92 
L 1726.704 673.92 
L 1726.704 270.170834 
L 1704.276 270.170834 
z
" clip-path="url(#pcf66be9ebe)" style="fill: #d62728"/>
   </g>
   <g id="patch_60">
    <path d="M 1928.556 673.92 
L 1950.984 673.92 
L 1950.984 430.881314 
L 1928.556 430.881314 
z
" clip-path="url(#pcf66be9ebe)" style="fill: #d62728"/>
   </g>
   <g id="patch_61">
    <path d="M 2152.836 673.92 
L 2175.264 673.92 
L 2175.264 563.268508 
L 2152.836 563.268508 
z
" clip-path="url(#pcf66be9ebe)" style="fill: #d62728"/>
   </g>
   <g id="patch_62">
    <path d="M 2377.116 673.92 
L 2399.544 673.92 
L 2399.544 658.954472 
L 2377.116 658.954472 
z
" clip-path="url(#pcf66be9ebe)" style="fill: #d62728"/>
   </g>
   <g id="matplotlib.axis_1">
    <g id="xtick_1">
     <g id="line2d_1">
      <defs>
       <path id="me333199537" d="M 0 0 
L 0 3.5 
" style="stroke: #000000; stroke-width: 0.8"/>
      </defs>
      <g>
       <use xlink:href="#me333199537" x="313.74" y="673.92" style="stroke: #000000; stroke-width: 0.8"/>
      </g>
     </g>
     <g id="text_1">
      <!-- 10% -->
      <g transform="translate(268.74 723.810625) scale(0.6 -0.6)">
       <defs>
        <path id="SimSun-31" d="M 1825 4450 
L 1825 650 
Q 1825 450 1950 350 
Q 2075 250 2300 250 
L 2550 250 
L 2550 100 
L 725 100 
L 725 250 
L 950 250 
Q 1200 250 1312 350 
Q 1425 450 1425 650 
L 1425 3675 
Q 1425 3775 1362 3837 
Q 1300 3900 1175 3900 
L 725 3900 
L 725 4050 
L 950 4050 
Q 1250 4050 1437 4150 
Q 1625 4250 1725 4450 
L 1825 4450 
z
" transform="scale(0.015625)"/>
        <path id="SimSun-30" d="M 1600 4225 
Q 1250 4225 1012 3687 
Q 775 3150 775 2250 
Q 775 1300 1012 775 
Q 1250 250 1600 250 
Q 1975 250 2187 775 
Q 2400 1300 2400 2250 
Q 2400 3150 2200 3687 
Q 2000 4225 1600 4225 
z
M 1600 50 
Q 1050 50 675 625 
Q 300 1200 300 2250 
Q 300 3225 662 3825 
Q 1025 4425 1600 4425 
Q 2150 4425 2512 3850 
Q 2875 3275 2875 2250 
Q 2875 1225 2512 637 
Q 2150 50 1600 50 
z
" transform="scale(0.015625)"/>
        <path id="SimSun-25" d="M 750 4250 
Q 600 4250 500 4050 
Q 400 3850 400 3300 
Q 400 2675 512 2487 
Q 625 2300 750 2300 
Q 925 2300 1012 2525 
Q 1100 2750 1100 3300 
Q 1100 3750 1037 4000 
Q 975 4250 750 4250 
z
M 1425 3275 
Q 1425 2825 1275 2487 
Q 1125 2150 750 2150 
Q 450 2150 262 2450 
Q 75 2750 75 3275 
Q 75 3825 275 4125 
Q 475 4425 750 4425 
Q 1050 4425 1237 4112 
Q 1425 3800 1425 3275 
z
M 2725 1200 
Q 2725 1625 2650 1900 
Q 2575 2175 2375 2175 
Q 2225 2175 2125 1937 
Q 2025 1700 2025 1200 
Q 2025 575 2137 400 
Q 2250 225 2375 225 
Q 2550 225 2637 437 
Q 2725 650 2725 1200 
z
M 3050 1175 
Q 3050 675 2875 362 
Q 2700 50 2375 50 
Q 2100 50 1900 362 
Q 1700 675 1700 1175 
Q 1700 1725 1900 2037 
Q 2100 2350 2375 2350 
Q 2675 2350 2862 2025 
Q 3050 1700 3050 1175 
z
M 2525 4350 
L 725 50 
L 575 125 
L 2350 4425 
L 2525 4350 
z
" transform="scale(0.015625)"/>
       </defs>
       <use xlink:href="#SimSun-31"/>
       <use xlink:href="#SimSun-30" x="50"/>
       <use xlink:href="#SimSun-25" x="100"/>
      </g>
     </g>
    </g>
    <g id="xtick_2">
     <g id="line2d_2">
      <g>
       <use xlink:href="#me333199537" x="538.02" y="673.92" style="stroke: #000000; stroke-width: 0.8"/>
      </g>
     </g>
     <g id="text_2">
      <!-- 20% -->
      <g transform="translate(493.02 723.810625) scale(0.6 -0.6)">
       <defs>
        <path id="SimSun-32" d="M 2325 3325 
Q 2325 3775 2125 4012 
Q 1925 4250 1525 4250 
Q 1225 4250 1012 4087 
Q 800 3925 800 3675 
Q 800 3525 900 3425 
Q 975 3325 975 3225 
Q 975 3100 912 3037 
Q 850 2975 725 2975 
Q 575 2975 487 3062 
Q 400 3150 400 3350 
Q 400 3875 775 4150 
Q 1150 4425 1575 4425 
Q 2175 4425 2462 4125 
Q 2750 3825 2750 3375 
Q 2750 3075 2612 2775 
Q 2475 2475 2175 2200 
Q 1450 1500 1062 1062 
Q 675 625 600 475 
L 2075 475 
Q 2300 475 2450 650 
Q 2600 825 2650 1175 
L 2800 1175 
L 2650 100 
L 325 100 
L 325 425 
Q 450 650 737 1000 
Q 1025 1350 1500 1825 
Q 1925 2250 2125 2625 
Q 2325 3000 2325 3325 
z
" transform="scale(0.015625)"/>
       </defs>
       <use xlink:href="#SimSun-32"/>
       <use xlink:href="#SimSun-30" x="50"/>
       <use xlink:href="#SimSun-25" x="100"/>
      </g>
     </g>
    </g>
    <g id="xtick_3">
     <g id="line2d_3">
      <g>
       <use xlink:href="#me333199537" x="762.3" y="673.92" style="stroke: #000000; stroke-width: 0.8"/>
      </g>
     </g>
     <g id="text_3">
      <!-- 30% -->
      <g transform="translate(717.3 723.810625) scale(0.6 -0.6)">
       <defs>
        <path id="SimSun-33" d="M 2800 1250 
Q 2800 775 2450 412 
Q 2100 50 1475 50 
Q 1025 50 700 300 
Q 375 550 375 875 
Q 375 1025 475 1137 
Q 575 1250 675 1250 
Q 825 1250 887 1137 
Q 950 1025 950 950 
Q 950 825 900 750 
Q 850 650 850 575 
Q 850 425 1037 325 
Q 1225 225 1450 225 
Q 1900 225 2125 487 
Q 2350 750 2350 1300 
Q 2350 1750 2112 2025 
Q 1875 2300 1225 2300 
L 1225 2475 
Q 1725 2475 1962 2712 
Q 2200 2950 2200 3375 
Q 2200 3725 2012 3987 
Q 1825 4250 1425 4250 
Q 1250 4250 1050 4162 
Q 850 4075 850 3875 
Q 850 3675 900 3625 
Q 950 3575 950 3500 
Q 950 3375 900 3300 
Q 850 3225 725 3225 
Q 625 3225 537 3300 
Q 450 3375 450 3575 
Q 450 3950 775 4187 
Q 1100 4425 1525 4425 
Q 2025 4425 2325 4112 
Q 2625 3800 2625 3450 
Q 2625 3075 2437 2812 
Q 2250 2550 1850 2425 
Q 2400 2225 2600 1900 
Q 2800 1575 2800 1250 
z
" transform="scale(0.015625)"/>
       </defs>
       <use xlink:href="#SimSun-33"/>
       <use xlink:href="#SimSun-30" x="50"/>
       <use xlink:href="#SimSun-25" x="100"/>
      </g>
     </g>
    </g>
    <g id="xtick_4">
     <g id="line2d_4">
      <g>
       <use xlink:href="#me333199537" x="986.58" y="673.92" style="stroke: #000000; stroke-width: 0.8"/>
      </g>
     </g>
     <g id="text_4">
      <!-- 40% -->
      <g transform="translate(941.58 723.810625) scale(0.6 -0.6)">
       <defs>
        <path id="SimSun-34" d="M 2300 575 
Q 2300 400 2400 325 
Q 2500 250 2675 250 
L 2900 250 
L 2900 100 
L 1250 100 
L 1250 250 
L 1525 250 
Q 1725 250 1812 325 
Q 1900 400 1900 575 
L 1900 1400 
L 225 1400 
L 225 1525 
L 2050 4425 
L 2300 4425 
L 2300 1550 
L 2975 1550 
L 2975 1400 
L 2300 1400 
L 2300 575 
z
M 1875 3800 
L 450 1550 
L 1900 1550 
L 1900 3800 
L 1875 3800 
z
" transform="scale(0.015625)"/>
       </defs>
       <use xlink:href="#SimSun-34"/>
       <use xlink:href="#SimSun-30" x="50"/>
       <use xlink:href="#SimSun-25" x="100"/>
      </g>
     </g>
    </g>
    <g id="xtick_5">
     <g id="line2d_5">
      <g>
       <use xlink:href="#me333199537" x="1210.86" y="673.92" style="stroke: #000000; stroke-width: 0.8"/>
      </g>
     </g>
     <g id="text_5">
      <!-- 50% -->
      <g transform="translate(1165.86 723.810625) scale(0.6 -0.6)">
       <defs>
        <path id="SimSun-35" d="M 1725 2850 
Q 2200 2850 2500 2487 
Q 2800 2125 2800 1525 
Q 2800 850 2487 450 
Q 2175 50 1525 50 
Q 1075 50 725 312 
Q 375 575 375 950 
Q 375 1100 462 1212 
Q 550 1325 700 1325 
Q 850 1325 900 1225 
Q 950 1125 950 1050 
Q 950 900 875 825 
Q 800 725 800 625 
Q 800 425 1037 325 
Q 1275 225 1550 225 
Q 1950 225 2162 550 
Q 2375 875 2375 1475 
Q 2375 1975 2187 2287 
Q 2000 2600 1625 2600 
Q 1350 2600 1150 2500 
Q 950 2400 775 2075 
L 550 2100 
L 675 4375 
L 2725 4375 
L 2650 4000 
L 850 4000 
L 750 2350 
Q 1000 2700 1237 2775 
Q 1475 2850 1725 2850 
z
" transform="scale(0.015625)"/>
       </defs>
       <use xlink:href="#SimSun-35"/>
       <use xlink:href="#SimSun-30" x="50"/>
       <use xlink:href="#SimSun-25" x="100"/>
      </g>
     </g>
    </g>
    <g id="xtick_6">
     <g id="line2d_6">
      <g>
       <use xlink:href="#me333199537" x="1435.14" y="673.92" style="stroke: #000000; stroke-width: 0.8"/>
      </g>
     </g>
     <g id="text_6">
      <!-- 60% -->
      <g transform="translate(1390.14 723.810625) scale(0.6 -0.6)">
       <defs>
        <path id="SimSun-36" d="M 775 1800 
Q 775 1050 1037 637 
Q 1300 225 1675 225 
Q 2050 225 2250 500 
Q 2450 775 2450 1525 
Q 2450 2025 2237 2300 
Q 2025 2575 1725 2575 
Q 1450 2575 1212 2412 
Q 975 2250 775 1800 
z
M 1750 2825 
Q 2350 2825 2612 2425 
Q 2875 2025 2875 1525 
Q 2875 775 2512 412 
Q 2150 50 1675 50 
Q 1000 50 650 562 
Q 300 1075 300 2050 
Q 300 3200 725 3812 
Q 1150 4425 1875 4425 
Q 2225 4425 2437 4225 
Q 2650 4025 2650 3875 
Q 2650 3725 2587 3650 
Q 2525 3575 2375 3575 
Q 2250 3575 2187 3637 
Q 2125 3700 2125 3825 
Q 2125 3875 2150 3925 
Q 2150 3975 2150 4025 
Q 2150 4125 2075 4187 
Q 2000 4250 1800 4250 
Q 1375 4250 1075 3862 
Q 775 3475 775 2175 
Q 925 2500 1187 2662 
Q 1450 2825 1750 2825 
z
" transform="scale(0.015625)"/>
       </defs>
       <use xlink:href="#SimSun-36"/>
       <use xlink:href="#SimSun-30" x="50"/>
       <use xlink:href="#SimSun-25" x="100"/>
      </g>
     </g>
    </g>
    <g id="xtick_7">
     <g id="line2d_7">
      <g>
       <use xlink:href="#me333199537" x="1659.42" y="673.92" style="stroke: #000000; stroke-width: 0.8"/>
      </g>
     </g>
     <g id="text_7">
      <!-- 70% -->
      <g transform="translate(1614.42 723.810625) scale(0.6 -0.6)">
       <defs>
        <path id="SimSun-37" d="M 2825 4200 
Q 2300 3350 1987 2537 
Q 1675 1725 1675 1125 
Q 1675 1025 1700 850 
Q 1700 650 1700 400 
Q 1700 200 1637 125 
Q 1575 50 1425 50 
Q 1300 50 1212 137 
Q 1125 225 1125 450 
Q 1125 925 1337 1625 
Q 1550 2325 2475 4000 
L 1225 4000 
Q 950 4000 787 3825 
Q 625 3650 550 3300 
L 400 3325 
L 575 4375 
L 2825 4375 
L 2825 4200 
z
" transform="scale(0.015625)"/>
       </defs>
       <use xlink:href="#SimSun-37"/>
       <use xlink:href="#SimSun-30" x="50"/>
       <use xlink:href="#SimSun-25" x="100"/>
      </g>
     </g>
    </g>
    <g id="xtick_8">
     <g id="line2d_8">
      <g>
       <use xlink:href="#me333199537" x="1883.7" y="673.92" style="stroke: #000000; stroke-width: 0.8"/>
      </g>
     </g>
     <g id="text_8">
      <!-- 80% -->
      <g transform="translate(1838.7 723.810625) scale(0.6 -0.6)">
       <defs>
        <path id="SimSun-38" d="M 625 1125 
Q 625 725 887 475 
Q 1150 225 1550 225 
Q 2025 225 2237 475 
Q 2450 725 2450 1100 
Q 2450 1425 2150 1725 
Q 1850 2025 1250 2275 
Q 950 2075 787 1775 
Q 625 1475 625 1125 
z
M 2825 1175 
Q 2825 700 2475 375 
Q 2125 50 1550 50 
Q 1025 50 650 375 
Q 275 700 275 1125 
Q 275 1550 487 1850 
Q 700 2150 1100 2375 
Q 750 2550 562 2812 
Q 375 3075 375 3400 
Q 375 3825 700 4125 
Q 1025 4425 1600 4425 
Q 2125 4425 2450 4125 
Q 2775 3825 2775 3400 
Q 2775 3100 2587 2837 
Q 2400 2575 2000 2375 
Q 2425 2125 2625 1825 
Q 2825 1525 2825 1175 
z
M 2425 3375 
Q 2425 3725 2225 3987 
Q 2025 4250 1600 4250 
Q 1125 4250 925 4000 
Q 725 3750 725 3475 
Q 725 3200 1012 2937 
Q 1300 2675 1825 2475 
Q 2125 2625 2275 2850 
Q 2425 3075 2425 3375 
z
" transform="scale(0.015625)"/>
       </defs>
       <use xlink:href="#SimSun-38"/>
       <use xlink:href="#SimSun-30" x="50"/>
       <use xlink:href="#SimSun-25" x="100"/>
      </g>
     </g>
    </g>
    <g id="xtick_9">
     <g id="line2d_9">
      <g>
       <use xlink:href="#me333199537" x="2107.98" y="673.92" style="stroke: #000000; stroke-width: 0.8"/>
      </g>
     </g>
     <g id="text_9">
      <!-- 90% -->
      <g transform="translate(2062.98 723.810625) scale(0.6 -0.6)">
       <defs>
        <path id="SimSun-39" d="M 700 3050 
Q 700 2500 912 2212 
Q 1125 1925 1450 1925 
Q 1825 1925 2100 2275 
Q 2375 2625 2375 2925 
Q 2375 3525 2175 3887 
Q 1975 4250 1525 4250 
Q 1100 4250 900 3912 
Q 700 3575 700 3050 
z
M 1375 1700 
Q 875 1700 575 2012 
Q 275 2325 275 3025 
Q 275 3625 600 4025 
Q 925 4425 1525 4425 
Q 2150 4425 2500 3925 
Q 2850 3425 2850 2475 
Q 2850 1425 2437 737 
Q 2025 50 1300 50 
Q 975 50 737 200 
Q 500 350 500 600 
Q 500 700 562 800 
Q 625 900 775 900 
Q 925 900 975 787 
Q 1025 675 1025 525 
Q 1025 425 1050 362 
Q 1075 300 1100 275 
Q 1125 250 1187 237 
Q 1250 225 1325 225 
Q 1775 225 2050 725 
Q 2325 1225 2375 2400 
Q 2250 2100 2000 1900 
Q 1750 1700 1375 1700 
z
" transform="scale(0.015625)"/>
       </defs>
       <use xlink:href="#SimSun-39"/>
       <use xlink:href="#SimSun-30" x="50"/>
       <use xlink:href="#SimSun-25" x="100"/>
      </g>
     </g>
    </g>
    <g id="xtick_10">
     <g id="line2d_10">
      <g>
       <use xlink:href="#me333199537" x="2332.26" y="673.92" style="stroke: #000000; stroke-width: 0.8"/>
      </g>
     </g>
     <g id="text_10">
      <!-- 99.5% -->
      <g transform="translate(2257.26 723.810625) scale(0.6 -0.6)">
       <defs>
        <path id="SimSun-2e" d="M 800 25 
Q 650 25 537 125 
Q 425 225 425 400 
Q 425 575 537 675 
Q 650 775 800 775 
Q 950 775 1062 662 
Q 1175 550 1175 400 
Q 1175 225 1062 125 
Q 950 25 800 25 
z
" transform="scale(0.015625)"/>
       </defs>
       <use xlink:href="#SimSun-39"/>
       <use xlink:href="#SimSun-39" x="50"/>
       <use xlink:href="#SimSun-2e" x="100"/>
       <use xlink:href="#SimSun-35" x="150"/>
       <use xlink:href="#SimSun-25" x="200"/>
      </g>
     </g>
    </g>
    <g id="text_11">
     <!-- $\mathrm{Load\ Factor\ (\%)}$ -->
     <g transform="translate(1095.15 785.245) scale(0.7 -0.7)">
      <defs>
       <path id="STIXGeneral-Regular-4c" d="M 3827 1114 
L 3520 0 
L 77 0 
L 77 122 
Q 429 141 531 256 
Q 634 371 634 736 
L 634 3494 
Q 634 3872 541 3981 
Q 448 4090 77 4115 
L 77 4237 
L 1888 4237 
L 1888 4115 
Q 1498 4090 1392 3984 
Q 1286 3878 1286 3507 
L 1286 538 
Q 1286 358 1398 304 
Q 1510 250 1862 250 
L 2310 250 
Q 3085 250 3392 640 
Q 3520 813 3661 1114 
L 3827 1114 
z
" transform="scale(0.015625)"/>
       <path id="STIXGeneral-Regular-6f" d="M 3008 1478 
Q 3008 806 2608 371 
Q 2208 -64 1568 -64 
Q 979 -64 582 368 
Q 186 800 186 1459 
Q 186 2125 582 2534 
Q 979 2944 1626 2944 
Q 2221 2944 2614 2537 
Q 3008 2131 3008 1478 
z
M 2432 1306 
Q 2432 2035 2112 2445 
Q 1856 2765 1504 2765 
Q 1171 2765 966 2493 
Q 762 2221 762 1747 
Q 762 928 1101 435 
Q 1318 115 1677 115 
Q 2029 115 2230 432 
Q 2432 749 2432 1306 
z
" transform="scale(0.015625)"/>
       <path id="STIXGeneral-Regular-61" d="M 2829 422 
L 2829 243 
Q 2586 -64 2253 -64 
Q 1888 -64 1843 403 
L 1837 403 
Q 1427 -64 909 -64 
Q 608 -64 422 112 
Q 237 288 237 602 
Q 237 1050 685 1350 
Q 992 1555 1837 1869 
L 1837 2214 
Q 1837 2502 1699 2646 
Q 1562 2790 1338 2790 
Q 1146 2790 1018 2697 
Q 890 2605 890 2477 
Q 890 2419 909 2348 
Q 928 2278 928 2208 
Q 928 2112 841 2029 
Q 755 1946 634 1946 
Q 525 1946 441 2029 
Q 358 2112 358 2240 
Q 358 2547 685 2752 
Q 986 2944 1421 2944 
Q 1939 2944 2176 2656 
Q 2291 2522 2323 2384 
Q 2355 2246 2355 1946 
L 2355 723 
Q 2355 301 2554 301 
Q 2682 301 2829 422 
z
M 1837 813 
L 1837 1715 
Q 1248 1510 1018 1293 
Q 800 1094 800 800 
Q 800 557 921 432 
Q 1043 307 1242 307 
Q 1453 307 1613 410 
Q 1747 506 1792 589 
Q 1837 672 1837 813 
z
" transform="scale(0.015625)"/>
       <path id="STIXGeneral-Regular-64" d="M 3142 269 
L 2202 -64 
L 2176 -45 
L 2176 365 
Q 1869 -64 1357 -64 
Q 826 -64 499 317 
Q 173 698 173 1312 
Q 173 1990 563 2467 
Q 954 2944 1504 2944 
Q 1850 2944 2176 2669 
L 2176 3667 
Q 2176 3866 2118 3930 
Q 2061 3994 1882 3994 
Q 1792 3994 1741 3987 
L 1741 4090 
Q 2323 4243 2682 4371 
L 2714 4358 
L 2714 730 
Q 2714 506 2768 435 
Q 2822 365 2995 365 
Q 3034 365 3142 371 
L 3142 269 
z
M 2176 653 
L 2176 2125 
Q 2176 2381 1981 2573 
Q 1786 2765 1523 2765 
Q 1158 2765 940 2438 
Q 723 2112 723 1568 
Q 723 979 963 624 
Q 1203 269 1606 269 
Q 1907 269 2080 474 
Q 2176 582 2176 653 
z
" transform="scale(0.015625)"/>
       <path id="STIXGeneral-Regular-46" d="M 3494 3322 
L 3334 3322 
Q 3264 3757 3094 3875 
Q 2925 3994 2349 3994 
L 1504 3994 
Q 1370 3994 1328 3946 
Q 1286 3898 1286 3744 
L 1286 2355 
L 2195 2355 
Q 2598 2355 2736 2470 
Q 2874 2586 2918 2963 
L 3066 2963 
L 3066 1472 
L 2918 1472 
Q 2880 1862 2745 1977 
Q 2611 2093 2195 2093 
L 1286 2093 
L 1286 717 
Q 1286 352 1392 246 
Q 1498 141 1869 122 
L 1869 0 
L 70 0 
L 70 122 
Q 435 147 534 259 
Q 634 371 634 787 
L 634 3526 
Q 634 3878 538 3984 
Q 442 4090 77 4115 
L 77 4237 
L 3462 4237 
L 3494 3322 
z
" transform="scale(0.015625)"/>
       <path id="STIXGeneral-Regular-63" d="M 2547 998 
L 2637 941 
Q 2362 403 2112 205 
Q 1786 -64 1376 -64 
Q 845 -64 502 336 
Q 160 736 160 1357 
Q 160 2170 698 2618 
Q 1094 2944 1562 2944 
Q 1965 2944 2256 2749 
Q 2547 2554 2547 2285 
Q 2547 2176 2457 2096 
Q 2368 2016 2246 2016 
Q 2022 2016 1939 2310 
L 1901 2451 
Q 1850 2630 1773 2694 
Q 1696 2758 1523 2758 
Q 1133 2758 893 2451 
Q 653 2144 653 1645 
Q 653 1094 928 745 
Q 1203 397 1645 397 
Q 1920 397 2118 528 
Q 2317 659 2547 998 
z
" transform="scale(0.015625)"/>
       <path id="STIXGeneral-Regular-74" d="M 1702 493 
L 1786 422 
Q 1478 -64 1011 -64 
Q 448 -64 448 749 
L 448 2675 
L 109 2675 
Q 83 2694 83 2720 
Q 83 2771 192 2842 
Q 435 2982 813 3526 
Q 826 3546 874 3606 
Q 922 3667 941 3706 
Q 986 3706 986 3622 
L 986 2880 
L 1632 2880 
L 1632 2675 
L 986 2675 
L 986 845 
Q 986 538 1062 403 
Q 1139 269 1318 269 
Q 1510 269 1702 493 
z
" transform="scale(0.015625)"/>
       <path id="STIXGeneral-Regular-72" d="M 1024 2931 
L 1024 2342 
Q 1267 2688 1430 2816 
Q 1594 2944 1792 2944 
Q 1958 2944 2051 2854 
Q 2144 2765 2144 2605 
Q 2144 2470 2077 2393 
Q 2010 2317 1894 2317 
Q 1773 2317 1638 2445 
Q 1536 2541 1472 2541 
Q 1338 2541 1181 2355 
Q 1024 2170 1024 2016 
L 1024 576 
Q 1024 301 1133 205 
Q 1242 109 1568 96 
L 1568 0 
L 32 0 
L 32 96 
Q 339 154 412 224 
Q 486 294 486 538 
L 486 2138 
Q 486 2349 438 2435 
Q 390 2522 269 2522 
Q 166 2522 45 2496 
L 45 2598 
Q 448 2726 992 2944 
L 1024 2931 
z
" transform="scale(0.015625)"/>
       <path id="STIXGeneral-Regular-28" d="M 1946 -1030 
L 1869 -1133 
Q 1126 -710 716 32 
Q 307 774 307 1613 
Q 307 3386 1888 4326 
L 1946 4224 
Q 1293 3667 1075 3126 
Q 858 2586 858 1632 
Q 858 685 1082 96 
Q 1306 -493 1946 -1030 
z
" transform="scale(0.015625)"/>
       <path id="STIXGeneral-Regular-25" d="M 4390 1363 
Q 4390 781 4070 329 
Q 3750 -122 3341 -122 
Q 3014 -122 2790 134 
Q 2566 390 2566 762 
Q 2566 1274 2940 1693 
Q 3315 2112 3776 2112 
Q 4070 2112 4230 1917 
Q 4390 1722 4390 1363 
z
M 4243 1376 
Q 4243 1626 4131 1779 
Q 4019 1933 3840 1933 
Q 3654 1933 3526 1786 
Q 3315 1562 3171 1187 
Q 3027 813 3027 486 
Q 3027 301 3129 176 
Q 3232 51 3386 51 
Q 3718 51 3980 457 
Q 4243 864 4243 1376 
z
M 3974 4518 
L 1222 -115 
L 922 -115 
L 3443 4096 
Q 3264 3891 3094 3811 
Q 2925 3731 2669 3731 
Q 2445 3731 2182 3821 
Q 2208 3674 2208 3539 
Q 2208 3206 2067 2873 
Q 1926 2541 1696 2323 
Q 1453 2086 1146 2086 
Q 826 2086 608 2339 
Q 390 2592 390 2963 
Q 390 3507 761 3916 
Q 1133 4326 1626 4326 
Q 1792 4326 2010 4147 
Q 2310 3898 2624 3898 
Q 2918 3898 3084 3994 
Q 3251 4090 3693 4518 
L 3974 4518 
z
M 2054 3642 
Q 2054 3782 2025 3833 
Q 1997 3885 1894 3936 
Q 1747 4006 1613 4154 
Q 1414 4058 1331 3984 
Q 1248 3910 1152 3750 
Q 845 3264 845 2707 
Q 845 2509 944 2384 
Q 1043 2259 1210 2259 
Q 1549 2259 1801 2675 
Q 2054 3091 2054 3642 
z
" transform="scale(0.015625)"/>
       <path id="STIXGeneral-Regular-29" d="M 186 4224 
L 262 4326 
Q 992 3891 1408 3148 
Q 1824 2406 1824 1581 
Q 1824 -166 243 -1133 
L 186 -1030 
Q 845 -486 1059 54 
Q 1274 595 1274 1562 
Q 1274 2534 1059 3120 
Q 845 3706 186 4224 
z
" transform="scale(0.015625)"/>
      </defs>
      <use xlink:href="#STIXGeneral-Regular-4c" transform="translate(0 0.40625)"/>
      <use xlink:href="#STIXGeneral-Regular-6f" transform="translate(61.099991 0.40625)"/>
      <use xlink:href="#STIXGeneral-Regular-61" transform="translate(111.099976 0.40625)"/>
      <use xlink:href="#STIXGeneral-Regular-64" transform="translate(155.499969 0.40625)"/>
      <use xlink:href="#STIXGeneral-Regular-46" transform="translate(229.566374 0.40625)"/>
      <use xlink:href="#STIXGeneral-Regular-61" transform="translate(285.166365 0.40625)"/>
      <use xlink:href="#STIXGeneral-Regular-63" transform="translate(329.566359 0.40625)"/>
      <use xlink:href="#STIXGeneral-Regular-74" transform="translate(373.966353 0.40625)"/>
      <use xlink:href="#STIXGeneral-Regular-6f" transform="translate(401.766341 0.40625)"/>
      <use xlink:href="#STIXGeneral-Regular-72" transform="translate(451.766325 0.40625)"/>
      <use xlink:href="#STIXGeneral-Regular-28" transform="translate(509.132733 0.40625)"/>
      <use xlink:href="#STIXGeneral-Regular-25" transform="translate(542.432721 0.40625)"/>
      <use xlink:href="#STIXGeneral-Regular-29" transform="translate(617.132702 0.40625)"/>
     </g>
    </g>
   </g>
   <g id="matplotlib.axis_2">
    <g id="ytick_1">
     <g id="line2d_11">
      <defs>
       <path id="m6586def4db" d="M 0 0 
L -3.5 0 
" style="stroke: #000000; stroke-width: 0.8"/>
      </defs>
      <g>
       <use xlink:href="#m6586def4db" x="201.6" y="592.92" style="stroke: #000000; stroke-width: 0.8"/>
      </g>
     </g>
     <g id="text_12">
      <!-- 0.5 -->
      <g transform="translate(104.6 614.365313) scale(0.6 -0.6)">
       <use xlink:href="#SimSun-30"/>
       <use xlink:href="#SimSun-2e" x="50"/>
       <use xlink:href="#SimSun-35" x="100"/>
      </g>
     </g>
    </g>
    <g id="ytick_2">
     <g id="line2d_12">
      <g>
       <use xlink:href="#m6586def4db" x="201.6" y="511.92" style="stroke: #000000; stroke-width: 0.8"/>
      </g>
     </g>
     <g id="text_13">
      <!-- 1.0 -->
      <g transform="translate(104.6 533.365313) scale(0.6 -0.6)">
       <use xlink:href="#SimSun-31"/>
       <use xlink:href="#SimSun-2e" x="50"/>
       <use xlink:href="#SimSun-30" x="100"/>
      </g>
     </g>
    </g>
    <g id="ytick_3">
     <g id="line2d_13">
      <g>
       <use xlink:href="#m6586def4db" x="201.6" y="430.92" style="stroke: #000000; stroke-width: 0.8"/>
      </g>
     </g>
     <g id="text_14">
      <!-- 1.5 -->
      <g transform="translate(104.6 452.365313) scale(0.6 -0.6)">
       <use xlink:href="#SimSun-31"/>
       <use xlink:href="#SimSun-2e" x="50"/>
       <use xlink:href="#SimSun-35" x="100"/>
      </g>
     </g>
    </g>
    <g id="ytick_4">
     <g id="line2d_14">
      <g>
       <use xlink:href="#m6586def4db" x="201.6" y="349.92" style="stroke: #000000; stroke-width: 0.8"/>
      </g>
     </g>
     <g id="text_15">
      <!-- 2.0 -->
      <g transform="translate(104.6 371.365313) scale(0.6 -0.6)">
       <use xlink:href="#SimSun-32"/>
       <use xlink:href="#SimSun-2e" x="50"/>
       <use xlink:href="#SimSun-30" x="100"/>
      </g>
     </g>
    </g>
    <g id="ytick_5">
     <g id="line2d_15">
      <g>
       <use xlink:href="#m6586def4db" x="201.6" y="268.92" style="stroke: #000000; stroke-width: 0.8"/>
      </g>
     </g>
     <g id="text_16">
      <!-- 2.5 -->
      <g transform="translate(104.6 290.365313) scale(0.6 -0.6)">
       <use xlink:href="#SimSun-32"/>
       <use xlink:href="#SimSun-2e" x="50"/>
       <use xlink:href="#SimSun-35" x="100"/>
      </g>
     </g>
    </g>
    <g id="ytick_6">
     <g id="line2d_16">
      <g>
       <use xlink:href="#m6586def4db" x="201.6" y="187.92" style="stroke: #000000; stroke-width: 0.8"/>
      </g>
     </g>
     <g id="text_17">
      <!-- 3.0 -->
      <g transform="translate(104.6 209.365313) scale(0.6 -0.6)">
       <use xlink:href="#SimSun-33"/>
       <use xlink:href="#SimSun-2e" x="50"/>
       <use xlink:href="#SimSun-30" x="100"/>
      </g>
     </g>
    </g>
    <g id="ytick_7">
     <g id="line2d_17">
      <g>
       <use xlink:href="#m6586def4db" x="201.6" y="106.92" style="stroke: #000000; stroke-width: 0.8"/>
      </g>
     </g>
     <g id="text_18">
      <!-- 3.5 -->
      <g transform="translate(104.6 128.365313) scale(0.6 -0.6)">
       <use xlink:href="#SimSun-33"/>
       <use xlink:href="#SimSun-2e" x="50"/>
       <use xlink:href="#SimSun-35" x="100"/>
      </g>
     </g>
    </g>
    <g id="ytick_8">
     <g id="line2d_18">
      <g>
       <use xlink:href="#m6586def4db" x="201.6" y="25.92" style="stroke: #000000; stroke-width: 0.8"/>
      </g>
     </g>
     <g id="text_19">
      <!-- 4.0 -->
      <g transform="translate(104.6 47.365313) scale(0.6 -0.6)">
       <use xlink:href="#SimSun-34"/>
       <use xlink:href="#SimSun-2e" x="50"/>
       <use xlink:href="#SimSun-30" x="100"/>
      </g>
     </g>
    </g>
    <g id="text_20">
     <!-- $\mathrm{Throughput\ (Mops)}$ -->
     <g transform="translate(85.2 626.77) rotate(-90) scale(0.7 -0.7)">
      <defs>
       <path id="STIXGeneral-Regular-54" d="M 3795 3149 
L 3642 3149 
Q 3539 3674 3353 3821 
Q 3168 3968 2656 3968 
L 2278 3968 
L 2278 710 
Q 2278 346 2387 243 
Q 2496 141 2893 122 
L 2893 0 
L 1024 0 
L 1024 122 
Q 1427 147 1526 256 
Q 1626 365 1626 787 
L 1626 3968 
L 1242 3968 
Q 723 3968 540 3817 
Q 358 3667 262 3149 
L 109 3149 
L 154 4237 
L 3750 4237 
L 3795 3149 
z
" transform="scale(0.015625)"/>
       <path id="STIXGeneral-Regular-68" d="M 3117 0 
L 1760 0 
L 1760 96 
Q 2042 128 2118 224 
Q 2195 320 2195 653 
L 2195 1920 
Q 2195 2598 1722 2598 
Q 1530 2598 1370 2508 
Q 1210 2419 1005 2195 
L 1005 653 
Q 1005 320 1081 224 
Q 1158 128 1440 96 
L 1440 0 
L 58 0 
L 58 96 
Q 333 134 400 224 
Q 467 314 467 653 
L 467 3667 
Q 467 3872 406 3933 
Q 346 3994 141 3994 
Q 83 3994 64 3987 
L 64 4090 
L 237 4141 
Q 730 4288 973 4371 
L 1005 4352 
L 1005 2406 
Q 1229 2694 1446 2819 
Q 1664 2944 1946 2944 
Q 2733 2944 2733 1926 
L 2733 653 
Q 2733 320 2793 233 
Q 2854 147 3117 96 
L 3117 0 
z
" transform="scale(0.015625)"/>
       <path id="STIXGeneral-Regular-75" d="M 3072 320 
L 3072 230 
Q 2573 96 2195 -58 
L 2163 -38 
L 2163 486 
L 2150 486 
Q 1747 -64 1235 -64 
Q 870 -64 662 160 
Q 454 384 454 755 
L 454 2362 
Q 454 2598 371 2688 
Q 288 2778 58 2790 
L 58 2880 
L 992 2880 
L 992 813 
Q 992 595 1123 451 
Q 1254 307 1446 307 
Q 1760 307 1984 506 
Q 2067 582 2099 649 
Q 2131 717 2131 877 
L 2131 2355 
Q 2131 2605 2041 2678 
Q 1952 2752 1658 2771 
L 1658 2880 
L 2669 2880 
L 2669 685 
Q 2669 461 2742 390 
Q 2816 320 3034 320 
L 3072 320 
z
" transform="scale(0.015625)"/>
       <path id="STIXGeneral-Regular-67" d="M 3008 2483 
L 2477 2483 
Q 2598 2208 2598 1946 
Q 2598 1453 2265 1203 
Q 1933 954 1600 954 
Q 1530 954 1357 973 
L 1235 986 
Q 1107 947 979 812 
Q 851 678 851 582 
Q 851 435 1350 410 
L 2176 371 
Q 2528 358 2739 172 
Q 2950 -13 2950 -314 
Q 2950 -685 2566 -986 
Q 2035 -1395 1286 -1395 
Q 826 -1395 502 -1212 
Q 179 -1030 179 -774 
Q 179 -595 320 -419 
Q 461 -243 806 6 
Q 602 102 534 172 
Q 467 243 467 346 
Q 467 531 762 787 
Q 909 915 1037 1043 
Q 717 1203 579 1401 
Q 442 1600 442 1901 
Q 442 2336 752 2640 
Q 1062 2944 1510 2944 
Q 1766 2944 2022 2848 
L 2163 2797 
Q 2349 2733 2515 2733 
L 3008 2733 
L 3008 2483 
z
M 973 2163 
L 973 2144 
Q 973 1683 1155 1398 
Q 1338 1114 1632 1114 
Q 1850 1114 1978 1270 
Q 2106 1427 2106 1690 
Q 2106 2112 1914 2464 
Q 1754 2765 1446 2765 
Q 1222 2765 1097 2605 
Q 973 2445 973 2163 
z
M 2771 -410 
Q 2771 -230 2595 -163 
Q 2419 -96 1978 -96 
Q 1344 -96 941 -13 
Q 749 -243 688 -348 
Q 627 -454 627 -563 
Q 627 -774 880 -902 
Q 1133 -1030 1555 -1030 
Q 2099 -1030 2435 -860 
Q 2771 -691 2771 -410 
z
" transform="scale(0.015625)"/>
       <path id="STIXGeneral-Regular-70" d="M 1018 2931 
L 1018 2438 
Q 1421 2944 1939 2944 
Q 2406 2944 2707 2560 
Q 3008 2176 3008 1581 
Q 3008 883 2621 409 
Q 2234 -64 1664 -64 
Q 1466 -64 1328 -6 
Q 1190 51 1018 211 
L 1018 -794 
Q 1018 -1094 1120 -1180 
Q 1222 -1267 1581 -1274 
L 1581 -1389 
L 32 -1389 
L 32 -1280 
Q 314 -1254 397 -1171 
Q 480 -1088 480 -838 
L 480 2157 
Q 480 2381 429 2451 
Q 378 2522 218 2522 
Q 115 2522 58 2515 
L 58 2618 
Q 506 2752 979 2944 
L 1018 2931 
z
M 1018 2138 
L 1018 563 
Q 1018 422 1238 281 
Q 1459 141 1683 141 
Q 2029 141 2243 467 
Q 2458 794 2458 1325 
Q 2458 1888 2243 2224 
Q 2029 2560 1670 2560 
Q 1446 2560 1232 2419 
Q 1018 2278 1018 2138 
z
" transform="scale(0.015625)"/>
       <path id="STIXGeneral-Regular-4d" d="M 5530 0 
L 3738 0 
L 3738 122 
Q 4115 147 4214 265 
Q 4314 384 4314 787 
L 4314 3661 
L 2682 0 
L 2592 0 
L 979 3514 
L 979 966 
Q 979 448 1088 294 
Q 1197 141 1574 122 
L 1574 0 
L 77 0 
L 77 122 
Q 358 141 480 205 
Q 602 269 650 432 
Q 698 595 698 966 
L 698 3514 
Q 698 3878 589 3984 
Q 480 4090 90 4115 
L 90 4237 
L 1357 4237 
L 2835 1024 
L 4250 4237 
L 5523 4237 
L 5523 4115 
Q 5178 4109 5072 3993 
Q 4966 3878 4966 3520 
L 4966 717 
Q 4966 378 5072 262 
Q 5178 147 5530 122 
L 5530 0 
z
" transform="scale(0.015625)"/>
       <path id="STIXGeneral-Regular-73" d="M 998 1926 
L 1664 1523 
Q 1984 1331 2105 1164 
Q 2227 998 2227 736 
Q 2227 416 1961 176 
Q 1696 -64 1331 -64 
Q 1030 -64 864 -6 
Q 691 51 570 51 
Q 461 51 416 -26 
L 333 -26 
L 333 979 
L 435 979 
Q 538 512 730 294 
Q 922 77 1248 77 
Q 1485 77 1632 211 
Q 1779 346 1779 550 
Q 1779 845 1440 1030 
L 1094 1222 
Q 326 1651 326 2150 
Q 326 2522 566 2730 
Q 806 2938 1210 2938 
Q 1491 2938 1638 2867 
Q 1754 2816 1818 2816 
Q 1862 2816 1920 2880 
L 1990 2880 
L 2022 2010 
L 1926 2010 
Q 1818 2445 1654 2621 
Q 1491 2797 1203 2797 
Q 986 2797 854 2688 
Q 723 2579 723 2362 
Q 723 2253 796 2128 
Q 870 2003 998 1926 
z
" transform="scale(0.015625)"/>
      </defs>
      <use xlink:href="#STIXGeneral-Regular-54" transform="translate(0 0.703125)"/>
      <use xlink:href="#STIXGeneral-Regular-68" transform="translate(61.099991 0.703125)"/>
      <use xlink:href="#STIXGeneral-Regular-72" transform="translate(111.099976 0.703125)"/>
      <use xlink:href="#STIXGeneral-Regular-6f" transform="translate(144.399963 0.703125)"/>
      <use xlink:href="#STIXGeneral-Regular-75" transform="translate(194.399948 0.703125)"/>
      <use xlink:href="#STIXGeneral-Regular-67" transform="translate(244.399933 0.703125)"/>
      <use xlink:href="#STIXGeneral-Regular-68" transform="translate(294.399918 0.703125)"/>
      <use xlink:href="#STIXGeneral-Regular-70" transform="translate(344.399902 0.703125)"/>
      <use xlink:href="#STIXGeneral-Regular-75" transform="translate(394.399887 0.703125)"/>
      <use xlink:href="#STIXGeneral-Regular-74" transform="translate(444.399872 0.703125)"/>
      <use xlink:href="#STIXGeneral-Regular-28" transform="translate(496.26628 0.703125)"/>
      <use xlink:href="#STIXGeneral-Regular-4d" transform="translate(529.566267 0.703125)"/>
      <use xlink:href="#STIXGeneral-Regular-6f" transform="translate(618.466261 0.703125)"/>
      <use xlink:href="#STIXGeneral-Regular-70" transform="translate(668.466246 0.703125)"/>
      <use xlink:href="#STIXGeneral-Regular-73" transform="translate(718.466231 0.703125)"/>
      <use xlink:href="#STIXGeneral-Regular-29" transform="translate(757.366225 0.703125)"/>
     </g>
    </g>
   </g>
   <g id="patch_63">
    <path d="M 201.6 673.92 
L 201.6 25.92 
" style="fill: none; stroke: #000000; stroke-width: 0.8; stroke-linejoin: miter; stroke-linecap: square"/>
   </g>
   <g id="patch_64">
    <path d="M 2444.4 673.92 
L 2444.4 25.92 
" style="fill: none; stroke: #000000; stroke-width: 0.8; stroke-linejoin: miter; stroke-linecap: square"/>
   </g>
   <g id="patch_65">
    <path d="M 201.6 673.92 
L 2444.4 673.92 
" style="fill: none; stroke: #000000; stroke-width: 0.8; stroke-linejoin: miter; stroke-linecap: square"/>
   </g>
   <g id="patch_66">
    <path d="M 201.6 25.92 
L 2444.4 25.92 
" style="fill: none; stroke: #000000; stroke-width: 0.8; stroke-linejoin: miter; stroke-linecap: square"/>
   </g>
   <g id="legend_1">
    <g id="patch_67">
     <path d="M 55.944 852.48 
L 181.944 852.48 
L 181.944 808.38 
L 55.944 808.38 
z
" style="fill: #ff0000"/>
    </g>
    <g id="text_21">
     <!-- 0% -->
     <g transform="translate(232.344 852.48) scale(0.63 -0.63)">
      <defs>
       <path id="TimesNewRomanPS-BoldMT-30" d="M 2966 2119 
Q 2966 1484 2788 934 
Q 2681 597 2501 381 
Q 2322 166 2094 39 
Q 1866 -88 1597 -88 
Q 1291 -88 1044 68 
Q 797 225 606 516 
Q 469 728 366 1081 
Q 231 1559 231 2069 
Q 231 2759 425 3338 
Q 584 3816 909 4070 
Q 1234 4325 1597 4325 
Q 1966 4325 2286 4073 
Q 2606 3822 2756 3397 
Q 2966 2813 2966 2119 
z
M 2003 2125 
Q 2003 3238 1991 3422 
Q 1959 3856 1841 4009 
Q 1763 4109 1588 4109 
Q 1453 4109 1375 4034 
Q 1259 3925 1218 3648 
Q 1178 3372 1178 1719 
Q 1178 819 1241 513 
Q 1288 291 1375 216 
Q 1463 141 1606 141 
Q 1763 141 1841 241 
Q 1972 416 1991 781 
L 2003 2125 
z
" transform="scale(0.015625)"/>
       <path id="TimesNewRomanPS-BoldMT-25" d="M 4916 4334 
L 1906 -178 
L 1488 -178 
L 4494 4334 
L 4916 4334 
z
M 1494 4334 
Q 1938 4334 2242 4020 
Q 2547 3706 2547 3209 
Q 2547 2700 2240 2383 
Q 1934 2066 1481 2066 
Q 1034 2066 739 2372 
Q 444 2678 444 3178 
Q 444 3694 747 4014 
Q 1050 4334 1494 4334 
z
M 1494 4169 
Q 1425 4169 1381 4128 
Q 1303 4056 1264 3879 
Q 1225 3703 1225 3150 
Q 1225 2709 1278 2469 
Q 1309 2331 1384 2263 
Q 1431 2222 1494 2222 
Q 1563 2222 1603 2259 
Q 1675 2325 1709 2472 
Q 1763 2709 1763 3138 
Q 1763 3663 1713 3897 
Q 1678 4059 1600 4134 
Q 1563 4169 1494 4169 
z
M 4894 2097 
Q 5347 2097 5651 1786 
Q 5956 1475 5956 972 
Q 5956 463 5647 144 
Q 5338 -175 4900 -175 
Q 4466 -175 4161 144 
Q 3856 463 3856 963 
Q 3856 1466 4153 1781 
Q 4450 2097 4894 2097 
z
M 4903 1934 
Q 4841 1934 4797 1897 
Q 4722 1828 4681 1658 
Q 4641 1488 4641 1006 
Q 4641 494 4688 269 
Q 4722 109 4803 38 
Q 4844 0 4909 0 
Q 4969 0 5006 34 
Q 5084 106 5122 269 
Q 5175 497 5175 959 
Q 5175 1447 5125 1672 
Q 5088 1834 5013 1900 
Q 4975 1934 4903 1934 
z
" transform="scale(0.015625)"/>
      </defs>
      <use xlink:href="#TimesNewRomanPS-BoldMT-30"/>
      <use xlink:href="#TimesNewRomanPS-BoldMT-25" x="50"/>
     </g>
    </g>
    <g id="patch_68">
     <path d="M 452.844 852.48 
L 578.844 852.48 
L 578.844 808.38 
L 452.844 808.38 
z
" style="fill: #0000ff"/>
    </g>
    <g id="text_22">
     <!-- 40% -->
     <g transform="translate(629.244 852.48) scale(0.63 -0.63)">
      <defs>
       <path id="TimesNewRomanPS-BoldMT-34" d="M 159 1597 
L 2172 4325 
L 2553 4325 
L 2553 1597 
L 2941 1597 
L 2941 950 
L 2553 950 
L 2553 0 
L 1694 0 
L 1694 950 
L 159 950 
L 159 1597 
z
M 463 1597 
L 1694 1597 
L 1694 3269 
L 463 1597 
z
" transform="scale(0.015625)"/>
      </defs>
      <use xlink:href="#TimesNewRomanPS-BoldMT-34"/>
      <use xlink:href="#TimesNewRomanPS-BoldMT-30" x="50"/>
      <use xlink:href="#TimesNewRomanPS-BoldMT-25" x="100"/>
     </g>
    </g>
    <g id="patch_69">
     <path d="M 881.244 852.48 
L 1007.244 852.48 
L 1007.244 808.38 
L 881.244 808.38 
z
" style="fill: #9467bd"/>
    </g>
    <g id="text_23">
     <!-- 50% -->
     <g transform="translate(1057.644 852.48) scale(0.63 -0.63)">
      <defs>
       <path id="TimesNewRomanPS-BoldMT-35" d="M 975 4238 
L 2959 4238 
L 2644 3431 
L 975 3431 
L 816 3009 
Q 1894 2969 2475 2472 
Q 2953 2063 2953 1453 
Q 2953 1063 2731 689 
Q 2509 316 2106 114 
Q 1703 -88 1222 -88 
Q 703 -88 425 106 
Q 231 244 231 419 
Q 231 553 332 656 
Q 434 759 569 759 
Q 691 759 816 709 
Q 941 659 1244 447 
Q 1434 316 1572 266 
Q 1669 228 1791 228 
Q 2047 228 2226 415 
Q 2406 603 2406 866 
Q 2406 1416 1856 1759 
Q 1306 2103 469 2103 
Q 384 2103 216 2100 
L 975 4238 
z
" transform="scale(0.015625)"/>
      </defs>
      <use xlink:href="#TimesNewRomanPS-BoldMT-35"/>
      <use xlink:href="#TimesNewRomanPS-BoldMT-30" x="50"/>
      <use xlink:href="#TimesNewRomanPS-BoldMT-25" x="100"/>
     </g>
    </g>
    <g id="patch_70">
     <path d="M 1309.644 852.48 
L 1435.644 852.48 
L 1435.644 808.38 
L 1309.644 808.38 
z
" style="fill: #ff7f0e"/>
    </g>
    <g id="text_24">
     <!-- 60% -->
     <g transform="translate(1486.044 852.48) scale(0.63 -0.63)">
      <defs>
       <path id="TimesNewRomanPS-BoldMT-36" d="M 3006 4325 
L 3006 4238 
Q 2441 4094 2098 3867 
Q 1756 3641 1557 3317 
Q 1359 2994 1250 2516 
Q 1388 2609 1478 2638 
Q 1681 2700 1888 2700 
Q 2363 2700 2680 2354 
Q 2997 2009 2997 1413 
Q 2997 994 2825 644 
Q 2653 294 2337 103 
Q 2022 -88 1663 -88 
Q 1272 -88 940 126 
Q 609 341 423 753 
Q 238 1166 238 1650 
Q 238 2363 580 2977 
Q 922 3591 1551 3955 
Q 2181 4319 3006 4325 
z
M 1209 2263 
Q 1184 1831 1184 1631 
Q 1184 1200 1267 797 
Q 1350 394 1494 231 
Q 1597 116 1738 116 
Q 1881 116 1993 283 
Q 2106 450 2106 963 
Q 2106 1825 1897 2153 
Q 1763 2366 1534 2366 
Q 1409 2366 1209 2263 
z
" transform="scale(0.015625)"/>
      </defs>
      <use xlink:href="#TimesNewRomanPS-BoldMT-36"/>
      <use xlink:href="#TimesNewRomanPS-BoldMT-30" x="50"/>
      <use xlink:href="#TimesNewRomanPS-BoldMT-25" x="100"/>
     </g>
    </g>
    <g id="patch_71">
     <path d="M 1738.044 852.48 
L 1864.044 852.48 
L 1864.044 808.38 
L 1738.044 808.38 
z
" style="fill: #1f77b4"/>
    </g>
    <g id="text_25">
     <!-- 80% -->
     <g transform="translate(1914.444 852.48) scale(0.63 -0.63)">
      <defs>
       <path id="TimesNewRomanPS-BoldMT-38" d="M 2181 2394 
Q 2628 2066 2801 1783 
Q 2975 1500 2975 1134 
Q 2975 622 2589 267 
Q 2203 -88 1541 -88 
Q 913 -88 569 221 
Q 225 531 225 978 
Q 225 1319 423 1575 
Q 622 1831 1084 2044 
Q 581 2428 439 2672 
Q 297 2916 297 3238 
Q 297 3663 658 3986 
Q 1019 4309 1647 4309 
Q 2253 4309 2579 4023 
Q 2906 3738 2906 3338 
Q 2906 3038 2729 2808 
Q 2553 2578 2181 2394 
z
M 1944 2553 
Q 2059 2709 2115 2903 
Q 2172 3097 2172 3328 
Q 2172 3734 1997 3950 
Q 1866 4116 1634 4116 
Q 1425 4116 1278 3964 
Q 1131 3813 1131 3588 
Q 1131 3359 1295 3114 
Q 1459 2869 1944 2553 
z
M 1319 1894 
Q 1222 1806 1181 1734 
Q 1119 1625 1069 1415 
Q 1019 1206 1019 978 
Q 1019 684 1094 486 
Q 1169 288 1308 200 
Q 1447 113 1594 113 
Q 1822 113 1978 280 
Q 2134 447 2134 738 
Q 2134 1344 1319 1894 
z
" transform="scale(0.015625)"/>
      </defs>
      <use xlink:href="#TimesNewRomanPS-BoldMT-38"/>
      <use xlink:href="#TimesNewRomanPS-BoldMT-30" x="50"/>
      <use xlink:href="#TimesNewRomanPS-BoldMT-25" x="100"/>
     </g>
    </g>
    <g id="patch_72">
     <path d="M 2166.444 852.48 
L 2292.444 852.48 
L 2292.444 808.38 
L 2166.444 808.38 
z
" style="fill: #d62728"/>
    </g>
    <g id="text_26">
     <!-- 100% -->
     <g transform="translate(2342.844 852.48) scale(0.63 -0.63)">
      <defs>
       <path id="TimesNewRomanPS-BoldMT-31" d="M 2084 4325 
L 2084 859 
Q 2084 469 2118 361 
Q 2153 253 2262 184 
Q 2372 116 2613 116 
L 2709 116 
L 2709 0 
L 478 0 
L 478 116 
L 591 116 
Q 863 116 978 178 
Q 1094 241 1134 350 
Q 1175 459 1175 859 
L 1175 3056 
Q 1175 3350 1147 3423 
Q 1119 3497 1042 3548 
Q 966 3600 866 3600 
Q 706 3600 478 3500 
L 422 3613 
L 1981 4325 
L 2084 4325 
z
" transform="scale(0.015625)"/>
      </defs>
      <use xlink:href="#TimesNewRomanPS-BoldMT-31"/>
      <use xlink:href="#TimesNewRomanPS-BoldMT-30" x="50"/>
      <use xlink:href="#TimesNewRomanPS-BoldMT-30" x="100"/>
      <use xlink:href="#TimesNewRomanPS-BoldMT-25" x="150"/>
     </g>
    </g>
   </g>
  </g>
 </g>
 <defs>
  <clipPath id="pcf66be9ebe">
   <rect x="201.6" y="25.92" width="2242.8" height="648"/>
  </clipPath>
 </defs>
</svg>
