<?xml version="1.0" encoding="utf-8" standalone="no"?>
<!DOCTYPE svg PUBLIC "-//W3C//DTD SVG 1.1//EN"
  "http://www.w3.org/Graphics/SVG/1.1/DTD/svg11.dtd">
<svg xmlns:xlink="http://www.w3.org/1999/xlink" width="921.6pt" height="518.4pt" viewBox="0 0 921.6 518.4" xmlns="http://www.w3.org/2000/svg" version="1.1">
 <metadata>
  <rdf:RDF xmlns:dc="http://purl.org/dc/elements/1.1/" xmlns:cc="http://creativecommons.org/ns#" xmlns:rdf="http://www.w3.org/1999/02/22-rdf-syntax-ns#">
   <cc:Work>
    <dc:type rdf:resource="http://purl.org/dc/dcmitype/StillImage"/>
    <dc:date>2023-07-10T15:00:19.048782</dc:date>
    <dc:format>image/svg+xml</dc:format>
    <dc:creator>
     <cc:Agent>
      <dc:title>Matplotlib v3.7.1, https://matplotlib.org/</dc:title>
     </cc:Agent>
    </dc:creator>
   </cc:Work>
  </rdf:RDF>
 </metadata>
 <defs>
  <style type="text/css">*{stroke-linejoin: round; stroke-linecap: butt}</style>
 </defs>
 <g id="figure_1">
  <g id="patch_1">
   <path d="M 0 518.4 
L 921.6 518.4 
L 921.6 0 
L 0 0 
z
" style="fill: #ffffff"/>
  </g>
  <g id="axes_1">
   <g id="patch_2">
    <path d="M 115.2 461.376 
L 829.44 461.376 
L 829.44 62.208 
L 115.2 62.208 
z
" style="fill: #ffffff"/>
   </g>
   <g id="matplotlib.axis_1">
    <g id="xtick_1">
     <g id="line2d_1">
      <defs>
       <path id="m71f987d7f4" d="M 0 0 
L 0 3.5 
" style="stroke: #000000; stroke-width: 0.8"/>
      </defs>
      <g>
       <use xlink:href="#m71f987d7f4" x="115.2" y="461.376" style="stroke: #000000; stroke-width: 0.8"/>
      </g>
     </g>
     <g id="text_1">
      <!-- 0 -->
      <g transform="translate(110.45 481.958031) scale(0.19 -0.19)">
       <defs>
        <path id="SimSun-30" d="M 1600 4225 
Q 1250 4225 1012 3687 
Q 775 3150 775 2250 
Q 775 1300 1012 775 
Q 1250 250 1600 250 
Q 1975 250 2187 775 
Q 2400 1300 2400 2250 
Q 2400 3150 2200 3687 
Q 2000 4225 1600 4225 
z
M 1600 50 
Q 1050 50 675 625 
Q 300 1200 300 2250 
Q 300 3225 662 3825 
Q 1025 4425 1600 4425 
Q 2150 4425 2512 3850 
Q 2875 3275 2875 2250 
Q 2875 1225 2512 637 
Q 2150 50 1600 50 
z
" transform="scale(0.015625)"/>
       </defs>
       <use xlink:href="#SimSun-30"/>
      </g>
     </g>
    </g>
    <g id="xtick_2">
     <g id="line2d_2">
      <g>
       <use xlink:href="#m71f987d7f4" x="186.624" y="461.376" style="stroke: #000000; stroke-width: 0.8"/>
      </g>
     </g>
     <g id="text_2">
      <!-- 10 -->
      <g transform="translate(177.124 481.958031) scale(0.19 -0.19)">
       <defs>
        <path id="SimSun-31" d="M 1825 4450 
L 1825 650 
Q 1825 450 1950 350 
Q 2075 250 2300 250 
L 2550 250 
L 2550 100 
L 725 100 
L 725 250 
L 950 250 
Q 1200 250 1312 350 
Q 1425 450 1425 650 
L 1425 3675 
Q 1425 3775 1362 3837 
Q 1300 3900 1175 3900 
L 725 3900 
L 725 4050 
L 950 4050 
Q 1250 4050 1437 4150 
Q 1625 4250 1725 4450 
L 1825 4450 
z
" transform="scale(0.015625)"/>
       </defs>
       <use xlink:href="#SimSun-31"/>
       <use xlink:href="#SimSun-30" x="50"/>
      </g>
     </g>
    </g>
    <g id="xtick_3">
     <g id="line2d_3">
      <g>
       <use xlink:href="#m71f987d7f4" x="258.048" y="461.376" style="stroke: #000000; stroke-width: 0.8"/>
      </g>
     </g>
     <g id="text_3">
      <!-- 20 -->
      <g transform="translate(248.548 481.958031) scale(0.19 -0.19)">
       <defs>
        <path id="SimSun-32" d="M 2325 3325 
Q 2325 3775 2125 4012 
Q 1925 4250 1525 4250 
Q 1225 4250 1012 4087 
Q 800 3925 800 3675 
Q 800 3525 900 3425 
Q 975 3325 975 3225 
Q 975 3100 912 3037 
Q 850 2975 725 2975 
Q 575 2975 487 3062 
Q 400 3150 400 3350 
Q 400 3875 775 4150 
Q 1150 4425 1575 4425 
Q 2175 4425 2462 4125 
Q 2750 3825 2750 3375 
Q 2750 3075 2612 2775 
Q 2475 2475 2175 2200 
Q 1450 1500 1062 1062 
Q 675 625 600 475 
L 2075 475 
Q 2300 475 2450 650 
Q 2600 825 2650 1175 
L 2800 1175 
L 2650 100 
L 325 100 
L 325 425 
Q 450 650 737 1000 
Q 1025 1350 1500 1825 
Q 1925 2250 2125 2625 
Q 2325 3000 2325 3325 
z
" transform="scale(0.015625)"/>
       </defs>
       <use xlink:href="#SimSun-32"/>
       <use xlink:href="#SimSun-30" x="50"/>
      </g>
     </g>
    </g>
    <g id="xtick_4">
     <g id="line2d_4">
      <g>
       <use xlink:href="#m71f987d7f4" x="329.472" y="461.376" style="stroke: #000000; stroke-width: 0.8"/>
      </g>
     </g>
     <g id="text_4">
      <!-- 30 -->
      <g transform="translate(319.972 481.958031) scale(0.19 -0.19)">
       <defs>
        <path id="SimSun-33" d="M 2800 1250 
Q 2800 775 2450 412 
Q 2100 50 1475 50 
Q 1025 50 700 300 
Q 375 550 375 875 
Q 375 1025 475 1137 
Q 575 1250 675 1250 
Q 825 1250 887 1137 
Q 950 1025 950 950 
Q 950 825 900 750 
Q 850 650 850 575 
Q 850 425 1037 325 
Q 1225 225 1450 225 
Q 1900 225 2125 487 
Q 2350 750 2350 1300 
Q 2350 1750 2112 2025 
Q 1875 2300 1225 2300 
L 1225 2475 
Q 1725 2475 1962 2712 
Q 2200 2950 2200 3375 
Q 2200 3725 2012 3987 
Q 1825 4250 1425 4250 
Q 1250 4250 1050 4162 
Q 850 4075 850 3875 
Q 850 3675 900 3625 
Q 950 3575 950 3500 
Q 950 3375 900 3300 
Q 850 3225 725 3225 
Q 625 3225 537 3300 
Q 450 3375 450 3575 
Q 450 3950 775 4187 
Q 1100 4425 1525 4425 
Q 2025 4425 2325 4112 
Q 2625 3800 2625 3450 
Q 2625 3075 2437 2812 
Q 2250 2550 1850 2425 
Q 2400 2225 2600 1900 
Q 2800 1575 2800 1250 
z
" transform="scale(0.015625)"/>
       </defs>
       <use xlink:href="#SimSun-33"/>
       <use xlink:href="#SimSun-30" x="50"/>
      </g>
     </g>
    </g>
    <g id="xtick_5">
     <g id="line2d_5">
      <g>
       <use xlink:href="#m71f987d7f4" x="400.896" y="461.376" style="stroke: #000000; stroke-width: 0.8"/>
      </g>
     </g>
     <g id="text_5">
      <!-- 40 -->
      <g transform="translate(391.396 481.958031) scale(0.19 -0.19)">
       <defs>
        <path id="SimSun-34" d="M 2300 575 
Q 2300 400 2400 325 
Q 2500 250 2675 250 
L 2900 250 
L 2900 100 
L 1250 100 
L 1250 250 
L 1525 250 
Q 1725 250 1812 325 
Q 1900 400 1900 575 
L 1900 1400 
L 225 1400 
L 225 1525 
L 2050 4425 
L 2300 4425 
L 2300 1550 
L 2975 1550 
L 2975 1400 
L 2300 1400 
L 2300 575 
z
M 1875 3800 
L 450 1550 
L 1900 1550 
L 1900 3800 
L 1875 3800 
z
" transform="scale(0.015625)"/>
       </defs>
       <use xlink:href="#SimSun-34"/>
       <use xlink:href="#SimSun-30" x="50"/>
      </g>
     </g>
    </g>
    <g id="xtick_6">
     <g id="line2d_6">
      <g>
       <use xlink:href="#m71f987d7f4" x="472.32" y="461.376" style="stroke: #000000; stroke-width: 0.8"/>
      </g>
     </g>
     <g id="text_6">
      <!-- 50 -->
      <g transform="translate(462.82 481.958031) scale(0.19 -0.19)">
       <defs>
        <path id="SimSun-35" d="M 1725 2850 
Q 2200 2850 2500 2487 
Q 2800 2125 2800 1525 
Q 2800 850 2487 450 
Q 2175 50 1525 50 
Q 1075 50 725 312 
Q 375 575 375 950 
Q 375 1100 462 1212 
Q 550 1325 700 1325 
Q 850 1325 900 1225 
Q 950 1125 950 1050 
Q 950 900 875 825 
Q 800 725 800 625 
Q 800 425 1037 325 
Q 1275 225 1550 225 
Q 1950 225 2162 550 
Q 2375 875 2375 1475 
Q 2375 1975 2187 2287 
Q 2000 2600 1625 2600 
Q 1350 2600 1150 2500 
Q 950 2400 775 2075 
L 550 2100 
L 675 4375 
L 2725 4375 
L 2650 4000 
L 850 4000 
L 750 2350 
Q 1000 2700 1237 2775 
Q 1475 2850 1725 2850 
z
" transform="scale(0.015625)"/>
       </defs>
       <use xlink:href="#SimSun-35"/>
       <use xlink:href="#SimSun-30" x="50"/>
      </g>
     </g>
    </g>
    <g id="xtick_7">
     <g id="line2d_7">
      <g>
       <use xlink:href="#m71f987d7f4" x="543.744" y="461.376" style="stroke: #000000; stroke-width: 0.8"/>
      </g>
     </g>
     <g id="text_7">
      <!-- 60 -->
      <g transform="translate(534.244 481.958031) scale(0.19 -0.19)">
       <defs>
        <path id="SimSun-36" d="M 775 1800 
Q 775 1050 1037 637 
Q 1300 225 1675 225 
Q 2050 225 2250 500 
Q 2450 775 2450 1525 
Q 2450 2025 2237 2300 
Q 2025 2575 1725 2575 
Q 1450 2575 1212 2412 
Q 975 2250 775 1800 
z
M 1750 2825 
Q 2350 2825 2612 2425 
Q 2875 2025 2875 1525 
Q 2875 775 2512 412 
Q 2150 50 1675 50 
Q 1000 50 650 562 
Q 300 1075 300 2050 
Q 300 3200 725 3812 
Q 1150 4425 1875 4425 
Q 2225 4425 2437 4225 
Q 2650 4025 2650 3875 
Q 2650 3725 2587 3650 
Q 2525 3575 2375 3575 
Q 2250 3575 2187 3637 
Q 2125 3700 2125 3825 
Q 2125 3875 2150 3925 
Q 2150 3975 2150 4025 
Q 2150 4125 2075 4187 
Q 2000 4250 1800 4250 
Q 1375 4250 1075 3862 
Q 775 3475 775 2175 
Q 925 2500 1187 2662 
Q 1450 2825 1750 2825 
z
" transform="scale(0.015625)"/>
       </defs>
       <use xlink:href="#SimSun-36"/>
       <use xlink:href="#SimSun-30" x="50"/>
      </g>
     </g>
    </g>
    <g id="xtick_8">
     <g id="line2d_8">
      <g>
       <use xlink:href="#m71f987d7f4" x="615.168" y="461.376" style="stroke: #000000; stroke-width: 0.8"/>
      </g>
     </g>
     <g id="text_8">
      <!-- 70 -->
      <g transform="translate(605.668 481.958031) scale(0.19 -0.19)">
       <defs>
        <path id="SimSun-37" d="M 2825 4200 
Q 2300 3350 1987 2537 
Q 1675 1725 1675 1125 
Q 1675 1025 1700 850 
Q 1700 650 1700 400 
Q 1700 200 1637 125 
Q 1575 50 1425 50 
Q 1300 50 1212 137 
Q 1125 225 1125 450 
Q 1125 925 1337 1625 
Q 1550 2325 2475 4000 
L 1225 4000 
Q 950 4000 787 3825 
Q 625 3650 550 3300 
L 400 3325 
L 575 4375 
L 2825 4375 
L 2825 4200 
z
" transform="scale(0.015625)"/>
       </defs>
       <use xlink:href="#SimSun-37"/>
       <use xlink:href="#SimSun-30" x="50"/>
      </g>
     </g>
    </g>
    <g id="xtick_9">
     <g id="line2d_9">
      <g>
       <use xlink:href="#m71f987d7f4" x="686.592" y="461.376" style="stroke: #000000; stroke-width: 0.8"/>
      </g>
     </g>
     <g id="text_9">
      <!-- 80 -->
      <g transform="translate(677.092 481.958031) scale(0.19 -0.19)">
       <defs>
        <path id="SimSun-38" d="M 625 1125 
Q 625 725 887 475 
Q 1150 225 1550 225 
Q 2025 225 2237 475 
Q 2450 725 2450 1100 
Q 2450 1425 2150 1725 
Q 1850 2025 1250 2275 
Q 950 2075 787 1775 
Q 625 1475 625 1125 
z
M 2825 1175 
Q 2825 700 2475 375 
Q 2125 50 1550 50 
Q 1025 50 650 375 
Q 275 700 275 1125 
Q 275 1550 487 1850 
Q 700 2150 1100 2375 
Q 750 2550 562 2812 
Q 375 3075 375 3400 
Q 375 3825 700 4125 
Q 1025 4425 1600 4425 
Q 2125 4425 2450 4125 
Q 2775 3825 2775 3400 
Q 2775 3100 2587 2837 
Q 2400 2575 2000 2375 
Q 2425 2125 2625 1825 
Q 2825 1525 2825 1175 
z
M 2425 3375 
Q 2425 3725 2225 3987 
Q 2025 4250 1600 4250 
Q 1125 4250 925 4000 
Q 725 3750 725 3475 
Q 725 3200 1012 2937 
Q 1300 2675 1825 2475 
Q 2125 2625 2275 2850 
Q 2425 3075 2425 3375 
z
" transform="scale(0.015625)"/>
       </defs>
       <use xlink:href="#SimSun-38"/>
       <use xlink:href="#SimSun-30" x="50"/>
      </g>
     </g>
    </g>
    <g id="xtick_10">
     <g id="line2d_10">
      <g>
       <use xlink:href="#m71f987d7f4" x="758.016" y="461.376" style="stroke: #000000; stroke-width: 0.8"/>
      </g>
     </g>
     <g id="text_10">
      <!-- 90 -->
      <g transform="translate(748.516 481.958031) scale(0.19 -0.19)">
       <defs>
        <path id="SimSun-39" d="M 700 3050 
Q 700 2500 912 2212 
Q 1125 1925 1450 1925 
Q 1825 1925 2100 2275 
Q 2375 2625 2375 2925 
Q 2375 3525 2175 3887 
Q 1975 4250 1525 4250 
Q 1100 4250 900 3912 
Q 700 3575 700 3050 
z
M 1375 1700 
Q 875 1700 575 2012 
Q 275 2325 275 3025 
Q 275 3625 600 4025 
Q 925 4425 1525 4425 
Q 2150 4425 2500 3925 
Q 2850 3425 2850 2475 
Q 2850 1425 2437 737 
Q 2025 50 1300 50 
Q 975 50 737 200 
Q 500 350 500 600 
Q 500 700 562 800 
Q 625 900 775 900 
Q 925 900 975 787 
Q 1025 675 1025 525 
Q 1025 425 1050 362 
Q 1075 300 1100 275 
Q 1125 250 1187 237 
Q 1250 225 1325 225 
Q 1775 225 2050 725 
Q 2325 1225 2375 2400 
Q 2250 2100 2000 1900 
Q 1750 1700 1375 1700 
z
" transform="scale(0.015625)"/>
       </defs>
       <use xlink:href="#SimSun-39"/>
       <use xlink:href="#SimSun-30" x="50"/>
      </g>
     </g>
    </g>
    <g id="xtick_11">
     <g id="line2d_11">
      <g>
       <use xlink:href="#m71f987d7f4" x="829.44" y="461.376" style="stroke: #000000; stroke-width: 0.8"/>
      </g>
     </g>
     <g id="text_11">
      <!-- 100 -->
      <g transform="translate(815.19 481.958031) scale(0.19 -0.19)">
       <use xlink:href="#SimSun-31"/>
       <use xlink:href="#SimSun-30" x="50"/>
       <use xlink:href="#SimSun-30" x="100"/>
      </g>
     </g>
    </g>
    <g id="text_12">
     <!-- 索引装载率 $\mathrm{(\%)}$ -->
     <g transform="translate(406.58 504.17725) scale(0.19 -0.19)">
      <defs>
       <path id="SimSun-7d22" d="M 4725 1325 
Q 4375 1250 3450 1150 
L 3450 -50 
Q 3475 -500 2875 -625 
Q 2875 -325 2200 -125 
L 2200 -25 
Q 2850 -75 2987 -75 
Q 3125 -75 3100 175 
L 3100 1100 
Q 2400 1025 2050 925 
Q 1700 825 1475 700 
L 1225 1175 
Q 1525 1250 2050 1525 
Q 2575 1800 3225 2200 
Q 2900 2200 2437 2150 
Q 1975 2100 1650 1950 
L 1425 2375 
Q 1775 2425 2212 2737 
Q 2650 3050 2875 3375 
L 1000 3375 
Q 1050 3000 975 2850 
Q 900 2700 800 2675 
Q 700 2650 625 2650 
Q 525 2650 462 2675 
Q 400 2700 400 2725 
Q 400 2800 550 2975 
Q 750 3225 875 3800 
L 975 3800 
L 1000 3525 
L 3025 3525 
L 3025 4250 
L 1575 4250 
Q 1375 4250 1100 4175 
L 875 4400 
L 3025 4400 
L 3025 4775 
Q 3025 5025 3000 5275 
L 3625 5050 
L 3375 4900 
L 3375 4400 
L 4725 4400 
L 5125 4750 
L 5575 4250 
L 3375 4250 
L 3375 3525 
L 5300 3525 
L 5500 3750 
L 5950 3325 
Q 5600 3300 5050 2675 
L 4975 2725 
L 5325 3375 
L 2925 3375 
L 3325 3100 
Q 3100 3075 2675 2800 
Q 2250 2500 1925 2350 
L 3425 2375 
Q 3775 2625 4050 3000 
L 4475 2625 
Q 4250 2600 3850 2325 
Q 3425 2050 2975 1787 
Q 2525 1525 2025 1250 
L 4625 1450 
Q 4275 1825 3950 2050 
L 4000 2125 
Q 4700 1850 4962 1662 
Q 5225 1475 5275 1312 
Q 5325 1150 5212 937 
Q 5100 725 4987 925 
Q 4875 1125 4725 1325 
z
M 3925 725 
Q 5025 375 5312 212 
Q 5600 50 5612 -150 
Q 5625 -350 5562 -425 
Q 5500 -500 5475 -500 
Q 5375 -500 5200 -275 
Q 4925 50 3900 650 
L 3925 725 
z
M 2150 750 
L 2575 350 
Q 2275 350 1775 75 
Q 1275 -225 425 -525 
L 375 -450 
Q 1600 150 2150 750 
z
" transform="scale(0.015625)"/>
       <path id="SimSun-5f15" d="M 5075 4675 
L 5075 575 
Q 5075 100 5100 -425 
L 4700 -600 
Q 4725 175 4725 725 
Q 4725 4575 4700 5150 
L 5300 4850 
L 5075 4675 
z
M 3375 4475 
Q 3375 3475 3400 3125 
L 3025 3000 
L 3025 3250 
L 1525 3250 
L 1275 2150 
L 3125 2150 
L 3325 2400 
L 3750 2050 
L 3500 1900 
Q 3375 1125 3225 575 
Q 3075 25 2850 -187 
Q 2625 -400 2250 -475 
Q 2275 -125 1600 125 
L 1600 225 
Q 2125 125 2350 112 
Q 2575 100 2675 225 
Q 2775 350 2900 787 
Q 3025 1225 3150 2000 
L 1275 2000 
L 1100 1775 
L 725 2125 
Q 925 2200 1025 2575 
Q 1125 2950 1200 3675 
L 1575 3400 
L 3025 3400 
L 3025 4550 
L 1650 4550 
Q 1325 4550 1050 4475 
L 825 4700 
L 3000 4700 
L 3175 4950 
L 3575 4650 
L 3375 4475 
z
" transform="scale(0.015625)"/>
       <path id="SimSun-88c5" d="M 700 4725 
Q 1375 4450 1462 4325 
Q 1550 4200 1550 4125 
Q 1550 4025 1475 3887 
Q 1400 3750 1350 3750 
Q 1275 3750 1200 3925 
Q 1075 4225 650 4675 
L 700 4725 
z
M 2250 4775 
L 2250 2200 
L 1900 1975 
Q 1925 2600 1925 3475 
Q 1400 3150 1062 2887 
Q 725 2625 700 2475 
L 350 2900 
Q 775 3025 1925 3625 
Q 1925 4900 1900 5250 
L 2475 4925 
L 2250 4775 
z
M 2375 4000 
L 3900 4000 
Q 3900 4850 3875 5175 
L 4450 4925 
L 4225 4750 
L 4225 4000 
L 5125 4000 
L 5475 4350 
L 5950 3850 
L 4225 3850 
L 4225 2800 
L 4900 2800 
L 5250 3100 
L 5700 2650 
L 3475 2650 
Q 3150 2650 2875 2575 
L 2650 2800 
L 3900 2800 
L 3900 3850 
L 3200 3850 
Q 2875 3850 2600 3775 
L 2375 4000 
z
M 3125 1800 
Q 3125 2100 2650 2525 
L 2700 2575 
Q 3300 2375 3387 2250 
Q 3475 2125 3475 2050 
Q 3475 1950 3350 1800 
L 5050 1800 
L 5475 2175 
L 6000 1650 
L 3325 1650 
Q 3600 1225 4150 675 
Q 4775 1225 5000 1625 
L 5425 1200 
Q 5225 1175 4987 1050 
Q 4750 925 4250 600 
Q 4550 350 5037 162 
Q 5525 -25 6100 -75 
L 6100 -175 
Q 5675 -250 5550 -550 
Q 4825 -250 4262 212 
Q 3700 675 3175 1650 
Q 2825 1325 2450 1025 
L 2450 -25 
L 3750 375 
L 3800 300 
Q 2450 -300 2300 -625 
L 2000 -200 
Q 2150 -75 2125 75 
L 2125 800 
Q 1325 300 275 0 
L 250 75 
Q 1725 700 2725 1650 
L 1200 1650 
Q 875 1650 600 1575 
L 375 1800 
L 3125 1800 
z
" transform="scale(0.015625)"/>
       <path id="SimSun-8f7d" d="M 1850 5200 
L 2375 5000 
L 2200 4825 
L 2200 4325 
L 2675 4325 
L 2975 4600 
L 3400 4175 
L 2200 4175 
L 2200 3525 
L 3700 3525 
Q 3675 4525 3650 5200 
L 4200 4950 
L 4000 4775 
Q 4000 3950 4025 3525 
L 5250 3525 
L 5625 3850 
L 6100 3375 
L 4050 3375 
Q 4125 2300 4425 1400 
Q 4925 2200 5175 3075 
L 5650 2750 
L 5450 2575 
Q 5075 1775 4575 1050 
Q 4950 350 5650 -50 
L 5875 1050 
L 5975 1025 
Q 5925 350 5950 25 
Q 5975 -300 6075 -500 
Q 6125 -625 6025 -625 
Q 5975 -625 5775 -562 
Q 5575 -500 5125 -150 
Q 4675 200 4350 775 
Q 3575 -125 2625 -600 
L 2575 -525 
Q 3575 175 4175 1075 
Q 3825 1950 3725 3375 
L 1100 3375 
Q 775 3375 500 3300 
L 275 3525 
L 1875 3525 
L 1875 4175 
L 1525 4175 
Q 1200 4175 925 4100 
L 700 4325 
L 1875 4325 
Q 1875 4800 1850 5200 
z
M 4500 4850 
Q 5000 4650 5212 4512 
Q 5425 4375 5400 4187 
Q 5375 4000 5300 3925 
Q 5225 3850 5200 3850 
Q 5125 3850 5025 4050 
Q 4900 4325 4450 4775 
L 4500 4850 
z
M 500 525 
Q 850 550 1975 725 
L 1975 1400 
L 1150 1400 
L 975 1250 
L 700 1575 
Q 900 1575 1350 2450 
L 1150 2450 
Q 850 2450 575 2375 
L 350 2600 
L 1425 2600 
Q 1625 3025 1700 3300 
L 2150 3025 
L 1975 2950 
Q 1900 2850 1775 2600 
L 2700 2600 
L 3025 2900 
L 3425 2450 
L 1700 2450 
L 1175 1550 
L 1975 1550 
Q 1975 1925 1950 2300 
L 2450 2075 
L 2300 1900 
L 2300 1550 
L 2800 1550 
L 3075 1850 
L 3475 1400 
L 2300 1400 
L 2300 775 
L 3400 925 
L 3425 850 
L 2300 575 
Q 2300 -50 2325 -400 
L 1950 -550 
Q 1975 225 1975 500 
Q 850 275 725 100 
L 500 525 
z
" transform="scale(0.015625)"/>
       <path id="SimSun-7387" d="M 875 3725 
L 925 3800 
Q 1375 3650 1550 3525 
Q 1725 3400 1725 3250 
Q 1725 3175 1662 3025 
Q 1600 2875 1550 2875 
Q 1500 2875 1425 3050 
Q 1275 3325 875 3725 
z
M 550 1850 
Q 875 1925 2000 2575 
L 2050 2500 
Q 1675 2225 1337 1937 
Q 1000 1650 875 1425 
L 550 1850 
z
M 5200 3450 
Q 4800 3150 4275 2800 
L 4225 2875 
Q 4775 3400 5050 3925 
L 5450 3525 
L 5200 3450 
z
M 4325 2500 
L 4350 2575 
Q 5225 2350 5375 2212 
Q 5525 2075 5525 1900 
Q 5525 1775 5487 1662 
Q 5450 1550 5400 1550 
Q 5325 1550 5200 1800 
Q 4975 2150 4325 2500 
z
M 3150 3900 
Q 2500 3300 2300 3150 
Q 2800 3150 3400 3175 
Q 3700 3500 3850 3825 
L 4250 3450 
Q 4050 3400 3450 2825 
Q 2850 2250 2475 1950 
Q 3150 1975 3850 2000 
Q 3750 2175 3550 2450 
L 3600 2500 
Q 4050 2250 4200 2100 
Q 4350 1950 4350 1850 
Q 4350 1775 4250 1625 
Q 4150 1475 4100 1475 
Q 4075 1475 4050 1550 
Q 4000 1700 3900 1900 
Q 3650 1875 3075 1800 
L 3500 1550 
L 3325 1425 
L 3325 975 
L 5325 975 
L 5650 1300 
L 6100 825 
L 3325 825 
Q 3325 -275 3350 -525 
L 2975 -650 
Q 3000 0 3000 825 
L 1125 825 
Q 800 825 525 750 
L 300 975 
L 3000 975 
L 3000 1775 
Q 2450 1700 2200 1525 
L 1950 1950 
Q 2275 1950 2675 2350 
Q 3075 2750 3325 3050 
Q 2400 2950 2150 2775 
L 1950 3175 
Q 2150 3150 2475 3575 
Q 2800 4000 2900 4225 
L 1450 4225 
Q 1125 4225 850 4150 
L 625 4375 
L 3100 4375 
Q 3050 4800 2675 5200 
L 2725 5250 
Q 3225 5050 3337 4912 
Q 3450 4775 3450 4700 
Q 3450 4550 3250 4375 
L 5025 4375 
L 5350 4675 
L 5775 4225 
L 3050 4225 
L 3375 3950 
L 3150 3900 
z
" transform="scale(0.015625)"/>
       <path id="SimSun-20" d="M 0 0 
Q 0 0 0 0 
z
" transform="scale(0.015625)"/>
       <path id="STIXGeneral-Regular-28" d="M 1946 -1030 
L 1869 -1133 
Q 1126 -710 716 32 
Q 307 774 307 1613 
Q 307 3386 1888 4326 
L 1946 4224 
Q 1293 3667 1075 3126 
Q 858 2586 858 1632 
Q 858 685 1082 96 
Q 1306 -493 1946 -1030 
z
" transform="scale(0.015625)"/>
       <path id="STIXGeneral-Regular-25" d="M 4390 1363 
Q 4390 781 4070 329 
Q 3750 -122 3341 -122 
Q 3014 -122 2790 134 
Q 2566 390 2566 762 
Q 2566 1274 2940 1693 
Q 3315 2112 3776 2112 
Q 4070 2112 4230 1917 
Q 4390 1722 4390 1363 
z
M 4243 1376 
Q 4243 1626 4131 1779 
Q 4019 1933 3840 1933 
Q 3654 1933 3526 1786 
Q 3315 1562 3171 1187 
Q 3027 813 3027 486 
Q 3027 301 3129 176 
Q 3232 51 3386 51 
Q 3718 51 3980 457 
Q 4243 864 4243 1376 
z
M 3974 4518 
L 1222 -115 
L 922 -115 
L 3443 4096 
Q 3264 3891 3094 3811 
Q 2925 3731 2669 3731 
Q 2445 3731 2182 3821 
Q 2208 3674 2208 3539 
Q 2208 3206 2067 2873 
Q 1926 2541 1696 2323 
Q 1453 2086 1146 2086 
Q 826 2086 608 2339 
Q 390 2592 390 2963 
Q 390 3507 761 3916 
Q 1133 4326 1626 4326 
Q 1792 4326 2010 4147 
Q 2310 3898 2624 3898 
Q 2918 3898 3084 3994 
Q 3251 4090 3693 4518 
L 3974 4518 
z
M 2054 3642 
Q 2054 3782 2025 3833 
Q 1997 3885 1894 3936 
Q 1747 4006 1613 4154 
Q 1414 4058 1331 3984 
Q 1248 3910 1152 3750 
Q 845 3264 845 2707 
Q 845 2509 944 2384 
Q 1043 2259 1210 2259 
Q 1549 2259 1801 2675 
Q 2054 3091 2054 3642 
z
" transform="scale(0.015625)"/>
       <path id="STIXGeneral-Regular-29" d="M 186 4224 
L 262 4326 
Q 992 3891 1408 3148 
Q 1824 2406 1824 1581 
Q 1824 -166 243 -1133 
L 186 -1030 
Q 845 -486 1059 54 
Q 1274 595 1274 1562 
Q 1274 2534 1059 3120 
Q 845 3706 186 4224 
z
" transform="scale(0.015625)"/>
      </defs>
      <use xlink:href="#SimSun-7d22" transform="translate(0 0.578125)"/>
      <use xlink:href="#SimSun-5f15" transform="translate(100 0.578125)"/>
      <use xlink:href="#SimSun-88c5" transform="translate(200 0.578125)"/>
      <use xlink:href="#SimSun-8f7d" transform="translate(300 0.578125)"/>
      <use xlink:href="#SimSun-7387" transform="translate(400 0.578125)"/>
      <use xlink:href="#SimSun-20" transform="translate(500 0.578125)"/>
      <use xlink:href="#STIXGeneral-Regular-28" transform="translate(550 0.578125)"/>
      <use xlink:href="#STIXGeneral-Regular-25" transform="translate(583.299988 0.578125)"/>
      <use xlink:href="#STIXGeneral-Regular-29" transform="translate(657.999969 0.578125)"/>
     </g>
    </g>
   </g>
   <g id="matplotlib.axis_2">
    <g id="ytick_1">
     <g id="line2d_12">
      <defs>
       <path id="m29433761b6" d="M 0 0 
L -3.5 0 
" style="stroke: #000000; stroke-width: 0.8"/>
      </defs>
      <g>
       <use xlink:href="#m29433761b6" x="115.2" y="461.376" style="stroke: #000000; stroke-width: 0.8"/>
      </g>
     </g>
     <g id="text_13">
      <!-- 0 -->
      <g transform="translate(98.7 468.167016) scale(0.19 -0.19)">
       <use xlink:href="#SimSun-30"/>
      </g>
     </g>
    </g>
    <g id="ytick_2">
     <g id="line2d_13">
      <g>
       <use xlink:href="#m29433761b6" x="115.2" y="421.4592" style="stroke: #000000; stroke-width: 0.8"/>
      </g>
     </g>
     <g id="text_14">
      <!-- 0.1 -->
      <g transform="translate(79.7 428.250216) scale(0.19 -0.19)">
       <defs>
        <path id="SimSun-2e" d="M 800 25 
Q 650 25 537 125 
Q 425 225 425 400 
Q 425 575 537 675 
Q 650 775 800 775 
Q 950 775 1062 662 
Q 1175 550 1175 400 
Q 1175 225 1062 125 
Q 950 25 800 25 
z
" transform="scale(0.015625)"/>
       </defs>
       <use xlink:href="#SimSun-30"/>
       <use xlink:href="#SimSun-2e" x="50"/>
       <use xlink:href="#SimSun-31" x="100"/>
      </g>
     </g>
    </g>
    <g id="ytick_3">
     <g id="line2d_14">
      <g>
       <use xlink:href="#m29433761b6" x="115.2" y="381.5424" style="stroke: #000000; stroke-width: 0.8"/>
      </g>
     </g>
     <g id="text_15">
      <!-- 0.2 -->
      <g transform="translate(79.7 388.333416) scale(0.19 -0.19)">
       <use xlink:href="#SimSun-30"/>
       <use xlink:href="#SimSun-2e" x="50"/>
       <use xlink:href="#SimSun-32" x="100"/>
      </g>
     </g>
    </g>
    <g id="ytick_4">
     <g id="line2d_15">
      <g>
       <use xlink:href="#m29433761b6" x="115.2" y="341.6256" style="stroke: #000000; stroke-width: 0.8"/>
      </g>
     </g>
     <g id="text_16">
      <!-- 0.3 -->
      <g transform="translate(79.7 348.416616) scale(0.19 -0.19)">
       <use xlink:href="#SimSun-30"/>
       <use xlink:href="#SimSun-2e" x="50"/>
       <use xlink:href="#SimSun-33" x="100"/>
      </g>
     </g>
    </g>
    <g id="ytick_5">
     <g id="line2d_16">
      <g>
       <use xlink:href="#m29433761b6" x="115.2" y="301.7088" style="stroke: #000000; stroke-width: 0.8"/>
      </g>
     </g>
     <g id="text_17">
      <!-- 0.4 -->
      <g transform="translate(79.7 308.499816) scale(0.19 -0.19)">
       <use xlink:href="#SimSun-30"/>
       <use xlink:href="#SimSun-2e" x="50"/>
       <use xlink:href="#SimSun-34" x="100"/>
      </g>
     </g>
    </g>
    <g id="ytick_6">
     <g id="line2d_17">
      <g>
       <use xlink:href="#m29433761b6" x="115.2" y="261.792" style="stroke: #000000; stroke-width: 0.8"/>
      </g>
     </g>
     <g id="text_18">
      <!-- 0.5 -->
      <g transform="translate(79.7 268.583016) scale(0.19 -0.19)">
       <use xlink:href="#SimSun-30"/>
       <use xlink:href="#SimSun-2e" x="50"/>
       <use xlink:href="#SimSun-35" x="100"/>
      </g>
     </g>
    </g>
    <g id="ytick_7">
     <g id="line2d_18">
      <g>
       <use xlink:href="#m29433761b6" x="115.2" y="221.8752" style="stroke: #000000; stroke-width: 0.8"/>
      </g>
     </g>
     <g id="text_19">
      <!-- 0.6 -->
      <g transform="translate(79.7 228.666216) scale(0.19 -0.19)">
       <use xlink:href="#SimSun-30"/>
       <use xlink:href="#SimSun-2e" x="50"/>
       <use xlink:href="#SimSun-36" x="100"/>
      </g>
     </g>
    </g>
    <g id="ytick_8">
     <g id="line2d_19">
      <g>
       <use xlink:href="#m29433761b6" x="115.2" y="181.9584" style="stroke: #000000; stroke-width: 0.8"/>
      </g>
     </g>
     <g id="text_20">
      <!-- 0.7 -->
      <g transform="translate(79.7 188.749416) scale(0.19 -0.19)">
       <use xlink:href="#SimSun-30"/>
       <use xlink:href="#SimSun-2e" x="50"/>
       <use xlink:href="#SimSun-37" x="100"/>
      </g>
     </g>
    </g>
    <g id="ytick_9">
     <g id="line2d_20">
      <g>
       <use xlink:href="#m29433761b6" x="115.2" y="142.0416" style="stroke: #000000; stroke-width: 0.8"/>
      </g>
     </g>
     <g id="text_21">
      <!-- 0.8 -->
      <g transform="translate(79.7 148.832616) scale(0.19 -0.19)">
       <use xlink:href="#SimSun-30"/>
       <use xlink:href="#SimSun-2e" x="50"/>
       <use xlink:href="#SimSun-38" x="100"/>
      </g>
     </g>
    </g>
    <g id="ytick_10">
     <g id="line2d_21">
      <g>
       <use xlink:href="#m29433761b6" x="115.2" y="102.1248" style="stroke: #000000; stroke-width: 0.8"/>
      </g>
     </g>
     <g id="text_22">
      <!-- 0.9 -->
      <g transform="translate(79.7 108.915816) scale(0.19 -0.19)">
       <use xlink:href="#SimSun-30"/>
       <use xlink:href="#SimSun-2e" x="50"/>
       <use xlink:href="#SimSun-39" x="100"/>
      </g>
     </g>
    </g>
    <g id="ytick_11">
     <g id="line2d_22">
      <g>
       <use xlink:href="#m29433761b6" x="115.2" y="62.208" style="stroke: #000000; stroke-width: 0.8"/>
      </g>
     </g>
     <g id="text_23">
      <!-- 1.0 -->
      <g transform="translate(79.7 68.999016) scale(0.19 -0.19)">
       <use xlink:href="#SimSun-31"/>
       <use xlink:href="#SimSun-2e" x="50"/>
       <use xlink:href="#SimSun-30" x="100"/>
      </g>
     </g>
    </g>
    <g id="text_24">
     <!-- 吞吐量 $\mathrm{(Mops)}$ -->
     <g transform="translate(71.52 323.067) rotate(-90) scale(0.19 -0.19)">
      <defs>
       <path id="SimSun-541e" d="M 2200 1700 
L 2200 75 
L 4200 75 
L 4200 1700 
L 2200 1700 
z
M 1025 4675 
L 4550 4675 
L 4875 5000 
L 5350 4525 
L 3300 4525 
Q 3150 4025 2900 3375 
L 5075 3375 
L 5450 3750 
L 5975 3225 
L 3700 3225 
Q 3925 2925 4312 2587 
Q 4700 2250 5225 2037 
Q 5750 1825 6100 1800 
L 6100 1700 
Q 5700 1675 5575 1375 
Q 4600 1900 4137 2437 
Q 3675 2975 3575 3225 
L 2825 3225 
Q 2425 2575 1950 2075 
L 2200 1850 
L 4175 1850 
L 4325 2100 
L 4750 1775 
L 4550 1600 
L 4550 375 
Q 4550 -50 4575 -375 
L 4200 -500 
L 4200 -75 
L 2200 -75 
L 2200 -450 
L 1825 -575 
Q 1850 175 1850 625 
L 1850 2000 
Q 1175 1400 375 1075 
L 325 1150 
Q 1075 1575 1600 2100 
Q 2125 2625 2450 3225 
L 1225 3225 
Q 900 3225 625 3150 
L 400 3375 
L 2525 3375 
Q 2800 4025 2900 4525 
L 1850 4525 
Q 1525 4525 1250 4450 
L 1025 4675 
z
" transform="scale(0.015625)"/>
       <path id="SimSun-5410" d="M 3775 3000 
L 3775 3750 
Q 3775 4400 3750 5175 
L 4350 4900 
L 4125 4700 
L 4125 3000 
L 4925 3000 
L 5250 3325 
L 5725 2850 
L 4125 2850 
L 4125 75 
L 5225 75 
L 5575 425 
L 6075 -75 
L 2675 -75 
Q 2350 -75 2075 -150 
L 1850 75 
L 3775 75 
L 3775 2850 
L 3225 2850 
Q 2900 2850 2625 2775 
L 2400 3000 
L 3775 3000 
z
M 575 4250 
L 950 4025 
L 1875 4025 
L 2050 4275 
L 2450 3950 
L 2250 3800 
L 2250 1950 
Q 2250 1375 2275 950 
L 1900 775 
L 1900 1225 
L 950 1225 
L 950 600 
L 575 425 
Q 600 1075 600 2375 
Q 600 3675 575 4250 
z
M 950 3875 
L 950 1375 
L 1900 1375 
L 1900 3875 
L 950 3875 
z
" transform="scale(0.015625)"/>
       <path id="SimSun-91cf" d="M 1700 2400 
L 1700 1875 
L 3025 1875 
L 3025 2400 
L 1700 2400 
z
M 3350 2400 
L 3350 1875 
L 4625 1875 
L 4625 2400 
L 3350 2400 
z
M 1700 1725 
L 1700 1225 
L 3025 1225 
L 3025 1725 
L 1700 1725 
z
M 3350 1725 
L 3350 1225 
L 4625 1225 
L 4625 1725 
L 3350 1725 
z
M 4950 2325 
Q 4950 1350 4975 1025 
L 4625 875 
L 4625 1075 
L 3350 1075 
L 3350 525 
L 4700 525 
L 5050 825 
L 5450 375 
L 3350 375 
L 3350 -225 
L 5275 -225 
L 5650 125 
L 6075 -375 
L 1175 -375 
Q 850 -375 575 -450 
L 350 -225 
L 3025 -225 
L 3025 375 
L 1725 375 
Q 1400 375 1125 300 
L 900 525 
L 3025 525 
L 3025 1075 
L 1700 1075 
L 1700 925 
L 1350 800 
Q 1375 1300 1375 1787 
Q 1375 2275 1350 2750 
L 1700 2550 
L 4600 2550 
L 4750 2750 
L 5125 2475 
L 4950 2325 
z
M 1775 4800 
L 1775 4375 
L 4550 4375 
L 4550 4800 
L 1775 4800 
z
M 1775 4225 
L 1775 3775 
L 4550 3775 
L 4550 4225 
L 1775 4225 
z
M 4875 4750 
Q 4875 3825 4900 3525 
L 4550 3375 
L 4550 3625 
L 1775 3625 
L 1775 3400 
L 1425 3250 
Q 1450 3650 1450 4262 
Q 1450 4875 1425 5125 
L 1800 4950 
L 4500 4950 
L 4650 5175 
L 5050 4900 
L 4875 4750 
z
M 250 3125 
L 5375 3125 
L 5725 3450 
L 6150 2975 
L 950 2975 
Q 750 2975 475 2900 
L 250 3125 
z
" transform="scale(0.015625)"/>
       <path id="STIXGeneral-Regular-4d" d="M 5530 0 
L 3738 0 
L 3738 122 
Q 4115 147 4214 265 
Q 4314 384 4314 787 
L 4314 3661 
L 2682 0 
L 2592 0 
L 979 3514 
L 979 966 
Q 979 448 1088 294 
Q 1197 141 1574 122 
L 1574 0 
L 77 0 
L 77 122 
Q 358 141 480 205 
Q 602 269 650 432 
Q 698 595 698 966 
L 698 3514 
Q 698 3878 589 3984 
Q 480 4090 90 4115 
L 90 4237 
L 1357 4237 
L 2835 1024 
L 4250 4237 
L 5523 4237 
L 5523 4115 
Q 5178 4109 5072 3993 
Q 4966 3878 4966 3520 
L 4966 717 
Q 4966 378 5072 262 
Q 5178 147 5530 122 
L 5530 0 
z
" transform="scale(0.015625)"/>
       <path id="STIXGeneral-Regular-6f" d="M 3008 1478 
Q 3008 806 2608 371 
Q 2208 -64 1568 -64 
Q 979 -64 582 368 
Q 186 800 186 1459 
Q 186 2125 582 2534 
Q 979 2944 1626 2944 
Q 2221 2944 2614 2537 
Q 3008 2131 3008 1478 
z
M 2432 1306 
Q 2432 2035 2112 2445 
Q 1856 2765 1504 2765 
Q 1171 2765 966 2493 
Q 762 2221 762 1747 
Q 762 928 1101 435 
Q 1318 115 1677 115 
Q 2029 115 2230 432 
Q 2432 749 2432 1306 
z
" transform="scale(0.015625)"/>
       <path id="STIXGeneral-Regular-70" d="M 1018 2931 
L 1018 2438 
Q 1421 2944 1939 2944 
Q 2406 2944 2707 2560 
Q 3008 2176 3008 1581 
Q 3008 883 2621 409 
Q 2234 -64 1664 -64 
Q 1466 -64 1328 -6 
Q 1190 51 1018 211 
L 1018 -794 
Q 1018 -1094 1120 -1180 
Q 1222 -1267 1581 -1274 
L 1581 -1389 
L 32 -1389 
L 32 -1280 
Q 314 -1254 397 -1171 
Q 480 -1088 480 -838 
L 480 2157 
Q 480 2381 429 2451 
Q 378 2522 218 2522 
Q 115 2522 58 2515 
L 58 2618 
Q 506 2752 979 2944 
L 1018 2931 
z
M 1018 2138 
L 1018 563 
Q 1018 422 1238 281 
Q 1459 141 1683 141 
Q 2029 141 2243 467 
Q 2458 794 2458 1325 
Q 2458 1888 2243 2224 
Q 2029 2560 1670 2560 
Q 1446 2560 1232 2419 
Q 1018 2278 1018 2138 
z
" transform="scale(0.015625)"/>
       <path id="STIXGeneral-Regular-73" d="M 998 1926 
L 1664 1523 
Q 1984 1331 2105 1164 
Q 2227 998 2227 736 
Q 2227 416 1961 176 
Q 1696 -64 1331 -64 
Q 1030 -64 864 -6 
Q 691 51 570 51 
Q 461 51 416 -26 
L 333 -26 
L 333 979 
L 435 979 
Q 538 512 730 294 
Q 922 77 1248 77 
Q 1485 77 1632 211 
Q 1779 346 1779 550 
Q 1779 845 1440 1030 
L 1094 1222 
Q 326 1651 326 2150 
Q 326 2522 566 2730 
Q 806 2938 1210 2938 
Q 1491 2938 1638 2867 
Q 1754 2816 1818 2816 
Q 1862 2816 1920 2880 
L 1990 2880 
L 2022 2010 
L 1926 2010 
Q 1818 2445 1654 2621 
Q 1491 2797 1203 2797 
Q 986 2797 854 2688 
Q 723 2579 723 2362 
Q 723 2253 796 2128 
Q 870 2003 998 1926 
z
" transform="scale(0.015625)"/>
      </defs>
      <use xlink:href="#SimSun-541e" transform="translate(0 0.140625)"/>
      <use xlink:href="#SimSun-5410" transform="translate(100 0.140625)"/>
      <use xlink:href="#SimSun-91cf" transform="translate(200 0.140625)"/>
      <use xlink:href="#SimSun-20" transform="translate(300 0.140625)"/>
      <use xlink:href="#STIXGeneral-Regular-28" transform="translate(350 0.140625)"/>
      <use xlink:href="#STIXGeneral-Regular-4d" transform="translate(383.299988 0.140625)"/>
      <use xlink:href="#STIXGeneral-Regular-6f" transform="translate(472.199982 0.140625)"/>
      <use xlink:href="#STIXGeneral-Regular-70" transform="translate(522.199966 0.140625)"/>
      <use xlink:href="#STIXGeneral-Regular-73" transform="translate(572.199951 0.140625)"/>
      <use xlink:href="#STIXGeneral-Regular-29" transform="translate(611.099945 0.140625)"/>
     </g>
    </g>
   </g>
   <g id="line2d_23">
    <path d="M 115.913526 388.971475 
L 116.789184 346.747484 
L 117.658414 345.881689 
L 118.522644 346.240501 
L 119.382589 345.972899 
L 120.24182 347.106855 
L 121.104622 345.476014 
L 121.969567 346.823406 
L 122.837368 346.266367 
L 123.702313 346.475252 
L 124.5744 345.774872 
L 125.445059 346.540635 
L 126.315003 345.514933 
L 127.193518 346.929744 
L 128.076319 345.83818 
L 128.956262 346.240381 
L 129.839063 346.779817 
L 130.723292 346.515208 
L 131.613235 345.687334 
L 132.504607 346.160148 
L 133.398121 346.346041 
L 134.293778 346.831789 
L 135.186578 346.481758 
L 136.087235 346.831509 
L 136.991462 346.073689 
L 138.797775 346.349314 
L 140.612659 346.33698 
L 141.526886 346.19767 
L 142.436828 346.677989 
L 143.356055 346.011937 
L 144.271711 346.808916 
L 145.192366 346.326761 
L 146.113021 346.347558 
L 147.040819 346.239423 
L 147.967903 346.493454 
L 148.897129 346.028383 
L 149.827784 346.645776 
L 150.759153 346.84053 
L 152.632604 345.917933 
L 153.573972 346.191244 
L 154.513912 346.236749 
L 155.456709 346.909347 
L 156.402363 345.871271 
L 158.295099 347.02786 
L 159.247895 345.552735 
L 160.200691 346.727326 
L 161.156344 345.927513 
L 162.119854 346.601509 
L 164.047588 345.915898 
L 165.011098 347.007662 
L 166.95383 346.214675 
L 167.930911 345.606981 
L 168.906563 346.960879 
L 169.888643 346.190006 
L 171.849946 346.777981 
L 172.83774 346.104465 
L 173.825533 346.340293 
L 174.822612 346.016288 
L 175.812549 346.825681 
L 176.810342 345.78521 
L 177.806707 346.510179 
L 178.806643 345.951463 
L 179.805151 346.576521 
L 180.805801 346.671922 
L 181.810737 346.297861 
L 182.818529 346.625459 
L 183.825608 345.692324 
L 184.836972 346.655755 
L 185.847621 345.859016 
L 186.861128 346.467787 
L 187.873206 346.125381 
L 188.887427 345.504435 
L 189.903076 346.660705 
L 190.91444 346.089895 
L 191.935803 346.523471 
L 192.952881 346.450783 
L 193.972815 346.023074 
L 194.99275 346.518482 
L 196.012685 345.806326 
L 198.050412 346.754669 
L 199.078203 346.466869 
L 200.103137 346.520278 
L 201.128786 345.920408 
L 202.149435 346.375699 
L 203.172227 346.278382 
L 204.200018 346.726528 
L 205.226381 346.070416 
L 206.254172 345.874943 
L 207.280535 346.434177 
L 208.305469 346.285687 
L 210.361052 346.421444 
L 211.3917 345.837621 
L 212.416635 346.403082 
L 214.468646 346.357537 
L 215.49858 346.365201 
L 216.528515 345.736192 
L 217.559163 346.546942 
L 218.58624 345.639154 
L 219.613317 346.092609 
L 220.641108 346.709763 
L 221.674614 346.031497 
L 222.707405 346.204336 
L 225.797921 346.457728 
L 226.834998 346.202021 
L 227.868503 346.544867 
L 228.902723 346.027744 
L 230.971876 346.241459 
L 232.010381 345.891269 
L 233.043172 346.451701 
L 234.07882 345.632608 
L 235.113754 346.567539 
L 236.147259 346.137156 
L 237.187192 346.404878 
L 238.222126 346.120791 
L 239.261345 346.49517 
L 240.302707 346.559157 
L 241.338355 345.963558 
L 242.37686 346.210603 
L 243.413222 346.802889 
L 244.455299 345.76605 
L 245.495946 346.069697 
L 246.537308 346.084386 
L 247.577956 346.547541 
L 248.620746 346.323328 
L 249.664965 346.506427 
L 250.710612 346.183101 
L 252.800479 346.030499 
L 253.843983 346.657552 
L 254.890345 346.140909 
L 255.933135 346.578117 
L 256.975926 346.287483 
L 258.025144 346.152484 
L 259.067935 346.690084 
L 260.112154 345.859894 
L 261.156372 346.256228 
L 262.20202 346.157035 
L 263.251953 346.381966 
L 264.301885 346.174439 
L 265.35039 346.156316 
L 266.39818 345.912225 
L 268.49876 346.441642 
L 269.547978 346.49509 
L 270.59934 347.17184 
L 271.652844 346.06331 
L 272.705633 346.383443 
L 273.75628 345.963638 
L 274.805499 346.385239 
L 275.853289 346.401725 
L 276.905364 346.027146 
L 277.95744 346.431064 
L 279.010944 346.380888 
L 280.06302 346.455413 
L 281.112238 345.912944 
L 282.166456 346.694834 
L 283.218532 346.297702 
L 285.324111 346.051934 
L 286.375473 346.425475 
L 287.435405 345.97697 
L 288.489623 346.472258 
L 289.548127 345.750642 
L 290.602345 346.434337 
L 291.653706 346.225333 
L 293.769285 346.256627 
L 294.824218 346.055207 
L 295.877722 346.764209 
L 297.991158 345.882807 
L 299.04609 346.74018 
L 300.101737 346.039879 
L 303.27582 345.870472 
L 304.329324 346.273353 
L 305.386399 345.995372 
L 306.445617 346.471899 
L 307.503406 346.28425 
L 310.680346 346.270997 
L 311.743135 345.91015 
L 312.795924 346.652363 
L 313.855142 346.249522 
L 315.972864 346.229803 
L 317.031368 346.686651 
L 318.089157 346.338856 
L 319.146232 346.429108 
L 320.204736 346.095763 
L 321.262525 346.866676 
L 322.322458 345.870233 
L 323.383818 346.056804 
L 324.440893 346.428789 
L 325.504397 346.318538 
L 326.567186 346.710202 
L 327.624975 345.888315 
L 328.684908 346.932858 
L 330.8112 345.927753 
L 331.872561 346.343327 
L 332.93035 346.026347 
L 333.993139 346.368913 
L 335.052357 346.07804 
L 336.113718 345.972939 
L 338.233582 346.790794 
L 339.299228 345.782017 
L 340.363446 345.942482 
L 341.425521 345.504675 
L 342.489024 346.385878 
L 343.551813 346.232358 
L 344.613888 346.356978 
L 345.678106 346.170806 
L 346.738752 346.234913 
L 347.803684 346.071413 
L 348.865759 346.512294 
L 349.929262 345.722261 
L 350.989908 346.728284 
L 352.045555 346.295067 
L 353.109773 345.567025 
L 354.171133 346.486987 
L 355.233208 346.052253 
L 357.353787 346.471699 
L 358.420861 345.992897 
L 360.535726 345.996689 
L 362.66059 346.213038 
L 363.721951 345.798622 
L 365.843244 346.614921 
L 366.911032 345.501481 
L 367.973821 346.460043 
L 369.031611 346.042913 
L 370.0944 346.574445 
L 371.159332 346.000521 
L 372.221407 346.033453 
L 373.282767 345.780779 
L 374.340557 346.690563 
L 375.404774 346.594922 
L 376.466849 346.795065 
L 377.529638 346.150808 
L 378.589571 346.436532 
L 379.646646 346.246249 
L 380.710863 345.932024 
L 381.77151 346.37989 
L 382.832156 346.561312 
L 383.893517 345.510263 
L 384.950592 346.546264 
L 386.010524 346.731039 
L 387.068314 346.043631 
L 388.125389 346.477607 
L 389.186035 345.950146 
L 390.245253 346.147734 
L 391.303043 346.750039 
L 392.360118 345.922524 
L 393.419336 346.581191 
L 394.474982 345.88117 
L 396.587704 346.388153 
L 397.648351 345.937772 
L 399.76393 346.263892 
L 400.81172 345.954577 
L 401.873795 346.623104 
L 402.931584 345.483599 
L 403.985802 346.626856 
L 405.03145 345.905759 
L 406.087096 345.889712 
L 407.139886 346.301015 
L 408.194819 346.43753 
L 409.246894 346.243934 
L 410.293256 346.354264 
L 411.346045 346.089895 
L 412.401692 346.11137 
L 413.454482 345.893025 
L 414.500844 345.833709 
L 415.550776 346.409469 
L 416.600709 345.811435 
L 418.70986 346.294788 
L 419.761221 345.841892 
L 420.809011 346.920963 
L 421.858944 345.927074 
L 422.909591 345.968189 
L 423.957381 346.736228 
L 425.005171 346.124822 
L 426.055104 345.838778 
L 427.105037 346.275229 
L 428.145684 345.971262 
L 429.191332 346.229763 
L 431.281912 346.21691 
L 432.328274 345.711045 
L 433.36535 346.271796 
L 434.411712 346.159869 
L 436.497293 346.264451 
L 437.539369 346.096801 
L 438.570732 346.253474 
L 439.611379 346.045507 
L 440.648456 346.332749 
L 441.684818 346.49022 
L 442.725466 346.021278 
L 443.761828 345.965474 
L 444.793905 346.349274 
L 445.829553 346.081113 
L 446.858772 346.247247 
L 447.889421 346.123026 
L 448.920783 346.39941 
L 450.985651 346.491099 
L 452.017728 345.777825 
L 453.046234 345.989265 
L 454.079025 345.948949 
L 455.111101 346.073689 
L 456.138893 345.666737 
L 457.163113 346.268044 
L 458.18519 345.910509 
L 459.212268 345.937333 
L 460.233631 346.207729 
L 462.282785 345.894822 
L 463.305577 346.059359 
L 465.351875 345.877538 
L 466.373238 346.125102 
L 467.392458 345.834427 
L 468.409536 346.407353 
L 469.421614 345.959606 
L 470.435835 346.127337 
L 471.45077 346.174758 
L 472.467848 345.84273 
L 473.48064 345.72773 
L 474.494147 346.58151 
L 475.50551 345.16167 
L 476.516874 346.327041 
L 477.524667 345.821774 
L 478.531745 346.338616 
L 479.539538 346.348556 
L 480.544474 345.808561 
L 481.554409 346.254033 
L 482.55863 346.183699 
L 483.561423 345.748447 
L 484.562788 346.398132 
L 485.562724 345.777386 
L 486.566945 346.088019 
L 487.567596 345.946234 
L 488.564675 346.139511 
L 489.563896 345.963399 
L 490.560975 346.354264 
L 491.555912 345.442884 
L 492.54942 346.195076 
L 493.54007 346.397015 
L 494.533578 345.999643 
L 497.495532 345.983676 
L 498.482611 346.510658 
L 499.468977 345.643146 
L 500.450342 346.030299 
L 501.425994 346.062871 
L 502.41236 345.786647 
L 503.390154 346.457409 
L 504.365806 345.670848 
L 505.337887 346.121389 
L 507.288476 345.698191 
L 508.261271 346.269081 
L 509.226924 346.226171 
L 510.196147 345.620633 
L 511.166085 346.513811 
L 512.132452 345.874384 
L 514.063757 346.525906 
L 515.030838 345.711045 
L 515.990062 346.036287 
L 516.947858 346.087181 
L 517.907796 346.26014 
L 518.862735 346.046106 
L 519.820531 345.574649 
L 520.776899 346.511257 
L 521.729695 345.889233 
L 522.683919 345.546907 
L 523.631716 346.699664 
L 524.580941 346.066623 
L 525.533023 345.943799 
L 526.477962 346.212879 
L 527.425044 345.57421 
L 528.368556 345.932184 
L 529.311352 346.170806 
L 531.194803 346.030299 
L 532.129743 346.235751 
L 533.066112 346.111011 
L 534.002481 346.264611 
L 534.936707 345.802135 
L 536.800159 346.270119 
L 537.727956 345.886958 
L 538.656468 345.983317 
L 539.582838 346.243455 
L 540.512064 346.1352 
L 541.434862 345.803093 
L 543.27903 345.803891 
L 544.198971 346.119992 
L 545.113912 345.600555 
L 546.02814 346.163062 
L 546.941652 345.707093 
L 547.854451 346.339255 
L 548.765107 346.127656 
L 549.669335 345.671607 
L 550.573563 346.480042 
L 551.480648 345.572374 
L 552.382019 345.668613 
L 553.283389 346.510259 
L 554.181903 345.635761 
L 555.977503 346.346001 
L 556.869588 345.415341 
L 557.764531 346.088777 
L 558.655188 345.816984 
L 559.54656 345.940367 
L 560.436503 346.336341 
L 561.315732 345.912664 
L 562.204247 345.798901 
L 563.087048 345.894462 
L 563.971277 345.545989 
L 564.85122 346.305206 
L 565.728307 345.575048 
L 567.483195 346.280977 
L 568.357425 345.80437 
L 569.229512 346.419568 
L 570.092314 346.130929 
L 570.956544 346.307082 
L 571.821489 345.902965 
L 572.686433 345.791557 
L 573.552092 346.157195 
L 575.274839 345.936774 
L 576.98473 346.138593 
L 577.842532 346.028902 
L 578.69462 346.348436 
L 579.54528 345.936175 
L 580.395226 346.066264 
L 581.239457 345.781578 
L 582.08726 345.888754 
L 582.930063 346.272474 
L 583.772152 345.76597 
L 584.614956 345.867638 
L 585.449902 346.190206 
L 586.289848 345.623667 
L 587.124081 346.086622 
L 587.952599 346.277743 
L 588.78326 346.189008 
L 589.611779 345.653245 
L 590.439583 345.62686 
L 591.266673 346.204416 
L 592.911567 345.648615 
L 593.726515 345.899851 
L 594.54432 346.395099 
L 595.359268 345.946713 
L 596.982021 346.035488 
L 597.789827 346.344404 
L 598.597632 346.43278 
L 599.401866 345.649493 
L 600.203244 346.596998 
L 601.006764 345.478489 
L 601.810284 345.857938 
L 602.609518 346.026028 
L 605.789315 345.785649 
L 606.576407 346.274031 
L 607.367071 345.5693 
L 608.152735 346.332389 
L 608.932685 345.592212 
L 609.714063 346.157594 
L 610.494728 346.129213 
L 611.274678 345.649932 
L 612.049628 345.939967 
L 612.819579 345.848758 
L 613.590244 346.311074 
L 614.362337 345.616561 
L 615.131574 345.760302 
L 615.897953 346.212599 
L 617.419999 345.930866 
L 618.17995 346.521715 
L 618.939901 345.480685 
L 619.695567 346.214635 
L 620.441948 345.426278 
L 621.196186 345.964796 
L 621.946852 346.176075 
L 622.699661 345.865123 
L 623.444613 346.057722 
L 624.186708 345.692284 
L 624.929518 346.266128 
L 625.663757 346.041037 
L 626.404424 345.328602 
L 627.142948 346.147894 
L 627.875758 345.899651 
L 628.612854 346.151806 
L 629.344236 345.878456 
L 630.073475 345.279304 
L 630.798428 346.680703 
L 631.521953 345.742619 
L 632.967575 345.960405 
L 633.689672 346.472338 
L 634.41034 346.064109 
L 635.121009 345.936135 
L 635.836677 345.923641 
L 636.549489 346.167254 
L 637.260872 345.695996 
L 637.967255 346.499481 
L 638.674353 345.248249 
L 639.382879 345.827322 
L 640.084262 346.096322 
L 640.782789 345.312515 
L 641.48203 346.332789 
L 642.1777 345.587582 
L 642.874798 345.788403 
L 643.566182 346.399969 
L 644.256852 345.298265 
L 644.943951 346.532572 
L 645.626051 345.713998 
L 646.987392 346.071892 
L 647.670205 345.471185 
L 648.350162 346.04922 
L 649.029404 345.927952 
L 649.70079 346.100752 
L 652.36919 345.637957 
L 653.032005 345.876899 
L 653.694106 346.273712 
L 654.359063 345.55956 
L 655.018307 346.381288 
L 655.674693 345.553932 
L 656.331794 346.083907 
L 656.983181 345.676038 
L 658.282383 346.358016 
L 658.926628 345.314152 
L 659.573015 346.753472 
L 660.21726 345.757308 
L 660.86079 346.10662 
L 661.503606 345.638955 
L 662.142851 345.515851 
L 662.779238 346.206412 
L 663.407055 345.810238 
L 664.0413 345.57413 
L 664.669117 346.189407 
L 665.302648 345.721623 
L 665.928323 346.141148 
L 666.55114 345.632688 
L 667.792489 346.233436 
L 668.414592 346.245291 
L 669.030981 345.910469 
L 669.644513 345.248369 
L 670.259474 346.230681 
L 670.868006 345.865243 
L 672.080786 345.961283 
L 672.689318 345.704339 
L 673.29428 346.107897 
L 673.894956 345.727331 
L 674.497774 345.597681 
L 675.090593 346.180067 
L 675.686984 345.978327 
L 676.276232 346.042633 
L 676.870479 345.349279 
L 677.460442 346.421923 
L 678.047547 346.106301 
L 678.635366 345.314471 
L 679.220329 346.204736 
L 679.805292 345.818261 
L 680.38954 345.596803 
L 680.970217 345.600595 
L 681.548751 346.156875 
L 682.122286 345.831953 
L 682.700106 346.521555 
L 683.270784 346.494571 
L 683.845033 344.937098 
L 684.414996 346.152724 
L 684.980675 346.105782 
L 685.548495 345.384964 
L 686.110602 345.955695 
L 686.673423 345.736392 
L 687.231245 345.994254 
L 687.792637 345.728448 
L 688.346888 345.672685 
L 688.897567 346.321532 
L 689.450388 345.468949 
L 690.001782 345.793153 
L 690.54889 345.429152 
L 691.093855 346.247047 
L 691.638106 345.383687 
L 692.180928 346.01525 
L 692.720893 345.556766 
L 693.263716 345.750203 
L 694.34079 345.716154 
L 694.877184 346.013334 
L 696.467796 345.725854 
L 696.99562 346.158911 
L 697.520586 346.013734 
L 698.046267 345.251961 
L 698.567662 346.142944 
L 699.088343 345.53094 
L 699.605453 346.057203 
L 700.121848 345.590616 
L 700.638958 345.646858 
L 701.151782 346.145619 
L 701.663178 344.915902 
L 702.171717 346.206811 
L 702.678828 345.277428 
L 703.184509 345.958928 
L 703.687334 345.58826 
L 704.193731 345.523875 
L 704.696556 346.379252 
L 705.196524 345.072695 
L 706.192174 346.267924 
L 706.684285 346.029022 
L 707.177825 345.493977 
L 707.670651 345.70342 
L 708.156334 346.418251 
L 708.644874 345.10391 
L 709.129843 346.387754 
L 709.615526 345.303534 
L 710.098353 346.530696 
L 710.577608 345.648535 
L 711.07329 346.072731 
L 711.548974 345.55984 
L 712.026801 345.48751 
L 712.50177 345.978288 
L 713.448852 345.499286 
L 713.91668 345.709727 
L 714.387364 345.645581 
L 714.854477 345.82856 
L 715.319447 345.505154 
L 715.782989 346.385798 
L 716.245102 345.05585 
L 716.703644 345.968508 
L 717.1629 345.538564 
L 717.620728 345.829797 
L 718.073556 345.532856 
L 718.527813 345.590456 
L 718.975642 345.960844 
L 719.426327 345.624705 
L 719.872727 345.571655 
L 720.31627 345.85227 
L 720.759099 345.63189 
L 721.100506 366.734704 
L 721.432627 374.208287 
L 721.76332 374.444594 
L 722.094728 374.257424 
L 722.421135 374.517921 
L 722.663263 384.045622 
L 722.772541 432.323994 
L 722.880392 432.268071 
L 722.967529 432.266274 
L 722.967529 432.266274 
" clip-path="url(#p41a7fce7ff)" style="fill: none; stroke: #ff0000; stroke-width: 1.5; stroke-linecap: square"/>
   </g>
   <g id="line2d_24">
    <path d="M 115.414272 443.238046 
L 116.317071 370.690699 
L 117.218442 324.726743 
L 118.071959 346.831948 
L 118.929761 346.242417 
L 119.785421 346.505189 
L 120.645366 346.07289 
L 122.368827 346.654797 
L 123.229486 346.084027 
L 124.095145 347.028778 
L 124.961518 345.884204 
L 125.835034 346.505189 
L 126.706406 346.069018 
L 127.582065 346.424318 
L 130.219753 346.266726 
L 131.107553 346.501158 
L 132.881011 346.036406 
L 133.77024 346.588136 
L 134.66304 345.933261 
L 135.552983 346.590571 
L 136.452211 346.117557 
L 137.348582 347.103143 
L 138.25281 345.696515 
L 139.153467 347.236465 
L 140.06198 346.061873 
L 140.968351 346.895616 
L 141.878292 345.97693 
L 142.788948 346.414578 
L 144.620974 346.090414 
L 146.456571 346.479203 
L 147.372941 346.376697 
L 148.302167 345.904082 
L 149.228536 346.403002 
L 150.154191 346.042075 
L 152.016215 346.278023 
L 152.954012 346.225412 
L 153.890381 345.77583 
L 154.828892 346.206173 
L 155.768832 346.236709 
L 156.712343 347.031412 
L 157.657283 345.738747 
L 158.604365 346.422043 
L 159.550733 346.325085 
L 160.504243 346.040558 
L 161.454182 346.630169 
L 162.411264 346.113645 
L 164.324713 345.933261 
L 167.195958 346.36596 
L 168.14804 346.382325 
L 169.111549 346.272395 
L 170.075059 346.683338 
L 171.039997 345.881649 
L 172.004936 346.419248 
L 172.974159 346.077521 
L 174.910464 346.324326 
L 175.878973 346.156995 
L 176.848911 346.472018 
L 177.819564 346.161346 
L 178.788787 346.407313 
L 179.764439 345.856741 
L 180.739377 346.837656 
L 181.715743 346.075645 
L 182.688538 346.706051 
L 183.663475 346.641625 
L 184.644127 346.098118 
L 185.619064 346.295067 
L 186.598287 345.941165 
L 187.578939 346.981676 
L 188.558876 345.854745 
L 189.538099 346.383084 
L 193.472847 346.542591 
L 194.456356 346.206811 
L 195.446292 346.014013 
L 196.433372 347.159665 
L 197.417595 346.176993 
L 198.407532 346.287323 
L 199.398897 346.227648 
L 200.39169 346.316223 
L 201.380198 346.282972 
L 202.375135 346.075405 
L 203.368643 346.557919 
L 204.361436 345.995412 
L 205.356372 346.757583 
L 206.34988 346.338137 
L 207.346959 346.165378 
L 208.343324 346.698906 
L 209.339689 346.150529 
L 210.336054 346.631366 
L 211.333133 345.982199 
L 212.33164 346.847396 
L 213.331576 346.330673 
L 214.333655 346.128055 
L 215.332163 346.231679 
L 217.334892 346.090214 
L 218.339827 346.569336 
L 219.348334 346.337539 
L 221.358205 346.148812 
L 222.363141 346.612845 
L 223.365934 345.990941 
L 224.37087 346.920524 
L 225.37652 346.311234 
L 226.386455 346.215034 
L 227.394248 346.320335 
L 228.399183 345.858817 
L 229.409119 346.488504 
L 231.428275 345.94819 
L 232.433211 346.86963 
L 233.446003 346.424278 
L 234.456653 346.199826 
L 237.479316 346.477208 
L 238.494966 346.395418 
L 239.511329 346.695792 
L 240.526979 346.183859 
L 242.551849 346.324326 
L 245.596654 346.396735 
L 246.614446 346.039161 
L 247.629381 346.173201 
L 248.647173 346.142705 
L 249.659965 346.633362 
L 250.676329 346.441243 
L 253.727562 346.5095 
L 254.74964 346.73978 
L 255.775288 346.339734 
L 256.795937 346.193279 
L 258.840806 346.143304 
L 259.859313 346.595002 
L 260.883533 346.164938 
L 261.906324 346.270359 
L 263.95905 346.223417 
L 264.981842 347.102265 
L 266.008919 346.264611 
L 267.035282 346.550535 
L 268.062359 345.767447 
L 269.088008 346.623782 
L 270.112228 346.409309 
L 272.165668 346.31782 
L 273.19703 345.965554 
L 274.221965 346.551852 
L 275.248328 346.013654 
L 276.278976 346.340772 
L 277.306767 345.939808 
L 278.341701 345.95813 
L 279.372349 346.522234 
L 280.407283 345.917734 
L 281.440074 345.714477 
L 282.470008 346.652243 
L 283.507085 345.62698 
L 284.539162 346.659627 
L 285.575524 345.678433 
L 286.611172 346.374182 
L 287.638963 346.280577 
L 288.668183 346.048022 
L 289.70026 346.256388 
L 290.734479 346.184298 
L 291.769413 345.975414 
L 292.803633 346.343327 
L 293.84428 345.874424 
L 294.8785 346.71611 
L 295.90772 346.262176 
L 297.976159 346.555924 
L 299.013949 346.012017 
L 300.051026 346.522354 
L 301.090245 346.120112 
L 302.125179 347.094361 
L 303.160113 346.714713 
L 304.20076 345.950945 
L 305.238551 346.256348 
L 306.277056 345.882966 
L 307.317704 346.355102 
L 308.352637 346.630608 
L 309.395428 346.510698 
L 310.435361 346.673199 
L 311.478866 345.646339 
L 312.520942 346.340932 
L 313.554447 346.394979 
L 314.595809 346.328078 
L 315.632886 346.685454 
L 316.675676 346.573966 
L 317.71561 346.342808 
L 318.759114 346.882962 
L 320.843267 346.156915 
L 321.888914 346.50487 
L 322.93099 346.164819 
L 323.970924 346.484393 
L 325.017285 345.955176 
L 326.057933 346.658949 
L 327.102866 346.062392 
L 328.140657 347.245047 
L 329.183447 346.136358 
L 330.22838 346.787241 
L 331.267599 346.510857 
L 332.311104 346.009423 
L 333.351752 346.805244 
L 335.436618 346.234553 
L 336.481551 346.750957 
L 338.567132 345.766768 
L 339.608494 346.71136 
L 340.654856 345.908473 
L 341.694075 346.477367 
L 342.741151 346.282933 
L 343.786798 346.292074 
L 344.831017 346.085065 
L 345.883092 346.109614 
L 346.930168 346.765287 
L 347.978673 346.072651 
L 350.067825 346.423959 
L 351.116329 345.862808 
L 352.164119 346.685853 
L 353.205481 346.430505 
L 354.256128 346.003036 
L 355.301775 346.775825 
L 356.353851 345.764852 
L 357.399498 346.684096 
L 358.447288 346.041037 
L 359.487222 346.14502 
L 360.53644 346.822887 
L 361.588516 345.823969 
L 363.683382 346.248804 
L 364.738314 346.140469 
L 365.781105 346.866357 
L 366.832466 346.194078 
L 368.927332 346.570413 
L 369.982264 346.163701 
L 371.033626 346.071413 
L 372.077844 346.350073 
L 373.130634 346.180147 
L 374.178424 346.621068 
L 375.2355 346.104944 
L 376.286861 346.514051 
L 377.330365 346.062113 
L 378.382441 346.319137 
L 379.427374 346.740738 
L 380.481592 346.029062 
L 381.532954 346.647253 
L 382.584315 345.968628 
L 383.635676 346.045667 
L 384.683466 346.451142 
L 385.73697 346.058281 
L 386.782618 346.796023 
L 387.828265 346.047543 
L 388.877484 346.097559 
L 389.926702 346.264052 
L 390.978063 345.834068 
L 392.030853 346.588136 
L 393.080786 346.311034 
L 395.17708 346.233396 
L 396.232727 345.730245 
L 397.286231 346.086382 
L 399.391096 346.270079 
L 400.443886 346.134642 
L 401.496676 345.847081 
L 402.55018 346.192641 
L 403.599398 346.263174 
L 404.655045 346.531973 
L 405.705692 346.026068 
L 407.808415 346.42831 
L 408.856919 346.095164 
L 409.910423 346.380369 
L 410.96107 346.439486 
L 412.01386 345.838539 
L 413.060221 346.565943 
L 414.111583 346.465512 
L 415.165087 346.109015 
L 416.216448 346.838255 
L 417.264952 346.152804 
L 418.314885 346.282214 
L 419.365532 346.695513 
L 421.465398 346.181504 
L 422.513188 346.517843 
L 423.564549 346.257545 
L 424.618053 346.53365 
L 426.718633 345.92432 
L 427.765709 346.185735 
L 428.819213 346.296424 
L 429.866289 346.781972 
L 430.915507 346.175317 
L 431.966868 346.481479 
L 433.013944 346.486788 
L 434.063877 346.118515 
L 435.113096 346.699345 
L 436.162314 345.76593 
L 437.213676 346.290876 
L 439.307827 346.468067 
L 440.355617 346.305805 
L 441.40555 345.949707 
L 442.45334 346.414578 
L 443.496845 346.487825 
L 444.551063 346.049379 
L 445.602424 346.215753 
L 446.650929 346.245012 
L 447.695862 346.079716 
L 448.740081 346.362287 
L 449.790013 346.161985 
L 450.838518 346.613244 
L 451.881308 346.107498 
L 452.928384 346.461001 
L 453.97546 346.062073 
L 455.026107 346.307641 
L 457.114545 346.4711 
L 458.16162 346.280498 
L 459.202268 346.629091 
L 460.250058 346.240261 
L 461.294277 346.350113 
L 462.333496 345.867199 
L 464.42622 346.643262 
L 465.471867 346.220183 
L 466.5168 346.197271 
L 467.557448 346.034171 
L 469.6416 346.525707 
L 470.685819 346.272434 
L 471.73218 346.500679 
L 473.815619 346.331591 
L 474.854124 346.451781 
L 475.897628 346.922839 
L 476.942561 346.112568 
L 479.026714 346.166934 
L 480.06879 346.658789 
L 481.115151 345.964915 
L 482.15937 345.958728 
L 483.199304 346.491458 
L 484.243523 346.369871 
L 485.285599 346.524389 
L 486.326961 345.831434 
L 487.365466 346.358056 
L 488.403256 346.594403 
L 489.448904 346.046944 
L 490.484552 346.390548 
L 492.56299 346.125381 
L 493.601495 346.679107 
L 494.645 346.176634 
L 495.679933 346.332549 
L 496.719867 346.307002 
L 497.754086 346.572529 
L 498.788306 346.294229 
L 499.829668 346.372905 
L 500.86603 346.590611 
L 501.904535 346.075166 
L 502.940897 346.790355 
L 503.975117 345.967071 
L 505.009336 346.3656 
L 506.043556 346.453337 
L 507.082775 346.127457 
L 508.117709 346.098118 
L 509.151214 346.412103 
L 510.189719 346.316702 
L 511.221796 346.460003 
L 512.256015 345.987468 
L 513.291663 346.409868 
L 514.324454 346.5863 
L 515.363674 345.891668 
L 516.391465 346.610131 
L 517.421399 346.004872 
L 518.457047 346.819574 
L 519.486981 346.141667 
L 520.525486 346.191723 
L 521.556849 346.952018 
L 522.592497 345.745413 
L 523.62743 346.065865 
L 525.692298 346.472937 
L 526.725089 346.985508 
L 527.759309 345.23328 
L 528.793528 346.590092 
L 529.817748 345.90033 
L 532.906836 346.257266 
L 533.931771 346.624101 
L 534.964562 345.68941 
L 535.992353 345.962041 
L 537.018716 346.47613 
L 538.051507 346.149491 
L 539.076442 346.07792 
L 540.10709 346.220223 
L 541.134881 346.204616 
L 542.16053 346.572489 
L 543.18975 345.729686 
L 544.212541 346.353625 
L 545.23819 346.223856 
L 546.264553 346.606538 
L 548.310851 345.797025 
L 549.328643 346.631765 
L 550.354291 345.966831 
L 551.379226 346.148453 
L 552.402732 346.100273 
L 553.427666 346.669287 
L 554.451886 345.986351 
L 555.473964 345.873386 
L 556.496755 346.692359 
L 557.520975 345.924081 
L 558.544481 346.165338 
L 559.56513 346.664657 
L 560.592207 345.956014 
L 561.614285 346.440764 
L 562.633505 345.906038 
L 563.655583 346.47138 
L 564.673375 346.47122 
L 565.693309 346.124104 
L 566.711816 346.429986 
L 567.732465 346.268922 
L 568.753114 346.444436 
L 569.767334 345.898055 
L 570.787983 346.607177 
L 572.821425 346.060596 
L 573.83636 346.456411 
L 574.853437 345.891309 
L 576.876879 346.782451 
L 577.894671 346.388033 
L 578.906035 346.396017 
L 579.921684 345.864405 
L 580.933763 346.642862 
L 581.945126 346.11632 
L 583.967854 346.740858 
L 584.976361 345.856861 
L 585.986296 347.196708 
L 586.996232 345.671926 
L 588.010452 346.246808 
L 589.018959 346.41861 
L 590.024609 345.91941 
L 591.02526 346.878052 
L 592.035909 345.681346 
L 593.042988 346.728524 
L 594.050066 346.054648 
L 595.058573 346.78784 
L 596.066365 346.263373 
L 597.072015 346.330074 
L 598.077665 346.217429 
L 599.079744 346.523511 
L 600.086108 345.965993 
L 601.091044 345.971422 
L 602.098122 346.686372 
L 603.103058 346.081872 
L 604.111565 346.431303 
L 605.118643 347.012372 
L 606.115722 346.190805 
L 607.118515 345.840535 
L 608.122022 346.411864 
L 609.12553 346.331232 
L 610.126894 346.411425 
L 612.118195 346.174958 
L 613.117417 346.48064 
L 614.120924 345.956573 
L 615.118003 346.327759 
L 616.119368 346.226011 
L 617.112161 346.937249 
L 618.104955 346.388033 
L 619.104177 346.067861 
L 621.100477 346.114803 
L 622.097556 346.489901 
L 623.09535 346.053092 
L 624.092429 346.673319 
L 625.085937 346.146816 
L 626.080159 345.788164 
L 627.073667 346.334146 
L 628.067889 346.046705 
L 629.057111 346.563188 
L 630.047048 345.636201 
L 631.03627 346.171565 
L 632.026921 345.950705 
L 633.021857 346.616637 
L 634.01108 346.413301 
L 635.003159 346.530097 
L 635.983811 346.817858 
L 636.966605 345.505473 
L 637.954399 346.688367 
L 638.939336 345.776588 
L 639.932129 346.645537 
L 640.917066 346.053251 
L 641.901289 346.347358 
L 643.865449 346.080075 
L 644.850386 345.78042 
L 645.83318 346.396775 
L 647.804483 346.367836 
L 648.785134 345.94827 
L 649.770071 346.005032 
L 650.74858 346.266287 
L 651.732088 345.643585 
L 652.712026 346.369632 
L 653.694106 345.636201 
L 654.672614 346.391347 
L 655.652552 345.724377 
L 656.633203 346.38951 
L 657.608141 345.888355 
L 658.588792 345.704658 
L 659.561587 346.339495 
L 660.539382 345.892027 
L 661.516462 346.767203 
L 662.492114 345.789441 
L 664.438418 346.208568 
L 666.376865 345.953459 
L 667.342518 346.612645 
L 668.307456 346.133444 
L 669.275965 346.158392 
L 670.243761 345.97218 
L 671.205842 346.48563 
L 672.17078 345.637198 
L 673.130004 346.285926 
L 674.094943 345.871191 
L 675.05631 346.33682 
L 676.01982 345.873706 
L 676.981901 345.864724 
L 677.939697 346.007068 
L 678.898207 346.477567 
L 679.856003 345.734196 
L 680.81237 346.290636 
L 681.766595 345.76142 
L 682.721533 346.600271 
L 683.675758 345.993216 
L 684.625697 345.582193 
L 685.580636 346.654718 
L 686.530575 345.825286 
L 687.479086 345.850394 
L 689.350395 346.287283 
L 690.284621 345.90987 
L 691.224561 345.705257 
L 692.15593 346.130211 
L 693.089441 345.93885 
L 694.018668 345.998006 
L 694.945037 345.880851 
L 696.799918 346.088458 
L 697.72843 345.804729 
L 698.642657 346.513133 
L 699.564741 345.762857 
L 700.483968 346.033812 
L 701.405338 346.651325 
L 702.322422 346.213757 
L 704.149448 345.925597 
L 705.060818 346.330513 
L 705.969331 346.470781 
L 706.877844 346.242257 
L 707.7885 345.590655 
L 708.692728 346.274909 
L 709.594099 345.671447 
L 710.496899 346.004154 
L 712.288927 346.2124 
L 713.183155 346.10199 
L 714.080955 345.743218 
L 714.973755 346.283172 
L 715.865126 345.609297 
L 716.753641 346.404918 
L 717.636442 345.655361 
L 718.520671 345.917454 
L 719.397757 346.453178 
L 720.275558 345.606343 
L 721.151931 346.109255 
L 722.026161 345.829917 
L 722.894676 346.77363 
L 723.760335 345.521839 
L 724.625994 346.464913 
L 725.493796 345.345487 
L 726.359455 346.737106 
L 727.216543 345.342732 
L 728.071488 346.872823 
L 728.925719 345.851911 
L 729.777093 345.777785 
L 730.624896 346.357577 
L 732.316216 345.851312 
L 733.159734 345.899372 
L 733.99968 346.376857 
L 734.834627 345.810996 
L 735.664573 345.97214 
L 736.492378 345.834028 
L 737.319468 346.197271 
L 738.138701 345.820337 
L 738.95722 346.085544 
L 739.77431 346.203219 
L 740.587116 345.528864 
L 741.396349 346.113725 
L 743.006246 345.809799 
L 743.804052 345.687853 
L 744.602573 345.914261 
L 745.394665 345.587582 
L 746.184614 346.102429 
L 746.970278 346.059838 
L 747.750943 345.504874 
L 748.525179 346.269521 
L 749.300129 345.831992 
L 750.837174 345.927314 
L 751.598554 346.283052 
L 752.357791 345.271042 
L 753.111314 346.019801 
L 753.858409 345.760501 
L 754.605504 346.079277 
L 755.345457 345.672485 
L 756.08041 345.530501 
L 756.811077 346.049699 
L 757.539602 345.659113 
L 758.262413 346.137116 
L 758.985224 345.447993 
L 759.698749 345.865762 
L 760.409418 345.503836 
L 761.116516 346.568976 
L 761.815757 345.229089 
L 762.512855 345.824009 
L 763.205668 345.736751 
L 763.894909 346.133404 
L 764.576294 345.269804 
L 765.251965 346.035209 
L 765.921923 345.738308 
L 766.590451 345.941364 
L 767.913938 345.656199 
L 768.567468 346.220622 
L 769.217426 345.236593 
L 769.865242 346.021238 
L 770.505915 345.276311 
L 771.139446 346.384241 
L 771.769405 345.349279 
L 772.390794 346.397374 
L 773.010755 345.419852 
L 773.623572 346.263613 
L 774.230676 345.661588 
L 775.434885 346.089336 
L 776.025562 345.648216 
L 776.613381 346.052453 
L 777.196915 346.236789 
L 777.773307 345.47825 
L 778.346842 345.970663 
L 778.913948 346.181943 
L 779.478198 345.838698 
L 780.589555 345.72302 
L 781.137377 346.590811 
L 781.678771 345.561796 
L 782.211594 345.566665 
L 783.269384 345.955415 
L 783.792207 345.85219 
L 784.30646 346.192122 
L 784.817142 345.66542 
L 785.322109 346.004114 
L 785.82422 345.601792 
L 786.319903 346.24593 
L 786.809871 345.763056 
L 787.776238 345.735553 
L 788.254065 345.952102 
L 788.726177 345.501122 
L 789.19329 345.933381 
L 790.113946 345.724656 
L 791.013888 346.024072 
L 791.457431 345.906318 
L 791.896689 345.514814 
L 792.755919 345.995851 
L 793.177321 345.827961 
L 793.597294 345.424003 
L 794.243681 374.131407 
L 794.55009 375.525621 
L 794.855071 374.349193 
L 795.155052 374.319734 
L 795.453604 374.647372 
L 795.727872 374.756504 
L 796.099277 443.7301 
L 796.099277 443.7301 
" clip-path="url(#p41a7fce7ff)" style="fill: none; stroke: #0000ff; stroke-width: 1.5; stroke-linecap: square"/>
   </g>
   <g id="patch_3">
    <path d="M 115.2 461.376 
L 115.2 62.208 
" style="fill: none; stroke: #000000; stroke-width: 0.8; stroke-linejoin: miter; stroke-linecap: square"/>
   </g>
   <g id="patch_4">
    <path d="M 829.44 461.376 
L 829.44 62.208 
" style="fill: none; stroke: #000000; stroke-width: 0.8; stroke-linejoin: miter; stroke-linecap: square"/>
   </g>
   <g id="patch_5">
    <path d="M 115.2 461.376 
L 829.44 461.376 
" style="fill: none; stroke: #000000; stroke-width: 0.8; stroke-linejoin: miter; stroke-linecap: square"/>
   </g>
   <g id="patch_6">
    <path d="M 115.2 62.208 
L 829.44 62.208 
" style="fill: none; stroke: #000000; stroke-width: 0.8; stroke-linejoin: miter; stroke-linecap: square"/>
   </g>
   <g id="text_25">
    <!-- $\mathrm{proto\ &amp;\ mica*}$的吞吐量随索引装载率的变化趋势 -->
    <g transform="translate(231.666 56.208) scale(0.228 -0.228)">
     <defs>
      <path id="STIXGeneral-Regular-72" d="M 1024 2931 
L 1024 2342 
Q 1267 2688 1430 2816 
Q 1594 2944 1792 2944 
Q 1958 2944 2051 2854 
Q 2144 2765 2144 2605 
Q 2144 2470 2077 2393 
Q 2010 2317 1894 2317 
Q 1773 2317 1638 2445 
Q 1536 2541 1472 2541 
Q 1338 2541 1181 2355 
Q 1024 2170 1024 2016 
L 1024 576 
Q 1024 301 1133 205 
Q 1242 109 1568 96 
L 1568 0 
L 32 0 
L 32 96 
Q 339 154 412 224 
Q 486 294 486 538 
L 486 2138 
Q 486 2349 438 2435 
Q 390 2522 269 2522 
Q 166 2522 45 2496 
L 45 2598 
Q 448 2726 992 2944 
L 1024 2931 
z
" transform="scale(0.015625)"/>
      <path id="STIXGeneral-Regular-74" d="M 1702 493 
L 1786 422 
Q 1478 -64 1011 -64 
Q 448 -64 448 749 
L 448 2675 
L 109 2675 
Q 83 2694 83 2720 
Q 83 2771 192 2842 
Q 435 2982 813 3526 
Q 826 3546 874 3606 
Q 922 3667 941 3706 
Q 986 3706 986 3622 
L 986 2880 
L 1632 2880 
L 1632 2675 
L 986 2675 
L 986 845 
Q 986 538 1062 403 
Q 1139 269 1318 269 
Q 1510 269 1702 493 
z
" transform="scale(0.015625)"/>
      <path id="STIXGeneral-Regular-26" d="M 4704 710 
L 4800 640 
Q 4659 294 4409 105 
Q 4160 -83 3834 -83 
Q 3309 -83 2746 499 
Q 2387 186 2070 51 
Q 1754 -83 1363 -83 
Q 838 -83 553 160 
Q 269 403 269 877 
Q 269 1267 528 1628 
Q 787 1990 1274 2272 
L 1517 2413 
Q 1293 2957 1293 3366 
Q 1293 3789 1571 4057 
Q 1850 4326 2266 4326 
Q 2656 4326 2899 4115 
Q 3142 3904 3142 3533 
Q 3142 3181 2921 2937 
Q 2701 2694 2150 2458 
Q 2509 1683 2995 1139 
Q 3315 1568 3449 1821 
Q 3584 2074 3584 2291 
Q 3584 2438 3494 2502 
Q 3405 2566 3168 2592 
L 3168 2726 
L 4550 2726 
L 4550 2592 
Q 4326 2592 4201 2509 
Q 4077 2426 3949 2214 
Q 3859 2074 3702 1814 
Q 3546 1555 3424 1363 
Q 3302 1171 3142 960 
Q 3379 659 3606 515 
Q 3834 371 4115 371 
Q 4301 371 4425 444 
Q 4550 518 4704 710 
z
M 2803 3558 
Q 2803 3795 2662 3958 
Q 2522 4122 2304 4122 
Q 2080 4122 1939 3974 
Q 1798 3827 1798 3590 
Q 1798 3334 1849 3139 
Q 1901 2944 2054 2662 
Q 2458 2848 2630 3059 
Q 2803 3270 2803 3558 
z
M 2586 666 
Q 2035 1312 1613 2195 
Q 1197 1926 1027 1686 
Q 858 1446 858 1114 
Q 858 717 1078 486 
Q 1299 256 1651 256 
Q 2061 256 2586 666 
z
" transform="scale(0.015625)"/>
      <path id="STIXGeneral-Regular-6d" d="M 4960 0 
L 3565 0 
L 3565 96 
Q 3834 122 3907 208 
Q 3981 294 3981 576 
L 3981 1894 
Q 3981 2278 3869 2444 
Q 3757 2611 3488 2611 
Q 3264 2611 3107 2521 
Q 2950 2432 2803 2221 
L 2803 608 
Q 2803 301 2896 201 
Q 2989 102 3264 96 
L 3264 0 
L 1830 0 
L 1830 96 
Q 2112 115 2189 188 
Q 2266 262 2266 550 
L 2266 1901 
Q 2266 2611 1850 2611 
Q 1670 2611 1468 2531 
Q 1267 2451 1171 2336 
Q 1088 2240 1088 2227 
L 1088 448 
Q 1088 243 1177 176 
Q 1267 109 1523 96 
L 1523 0 
L 102 0 
L 102 96 
Q 371 102 460 195 
Q 550 288 550 563 
L 550 2150 
Q 550 2387 499 2480 
Q 448 2573 326 2573 
Q 230 2573 122 2547 
L 122 2656 
Q 557 2778 1011 2944 
L 1062 2925 
L 1062 2451 
L 1075 2451 
Q 1363 2752 1584 2848 
Q 1805 2944 2054 2944 
Q 2560 2944 2733 2406 
Q 3232 2944 3776 2944 
Q 4518 2944 4518 1792 
L 4518 493 
Q 4518 282 4582 202 
Q 4646 122 4794 109 
L 4960 96 
L 4960 0 
z
" transform="scale(0.015625)"/>
      <path id="STIXGeneral-Regular-69" d="M 1152 4045 
Q 1152 3904 1056 3811 
Q 960 3718 819 3718 
Q 685 3718 592 3811 
Q 499 3904 499 4045 
Q 499 4179 595 4275 
Q 691 4371 826 4371 
Q 966 4371 1059 4275 
Q 1152 4179 1152 4045 
z
M 1619 0 
L 102 0 
L 102 96 
Q 435 115 521 211 
Q 608 307 608 666 
L 608 2118 
Q 608 2342 563 2432 
Q 518 2522 397 2522 
Q 243 2522 128 2490 
L 128 2592 
L 1120 2944 
L 1146 2918 
L 1146 672 
Q 1146 314 1226 218 
Q 1306 122 1619 96 
L 1619 0 
z
" transform="scale(0.015625)"/>
      <path id="STIXGeneral-Regular-63" d="M 2547 998 
L 2637 941 
Q 2362 403 2112 205 
Q 1786 -64 1376 -64 
Q 845 -64 502 336 
Q 160 736 160 1357 
Q 160 2170 698 2618 
Q 1094 2944 1562 2944 
Q 1965 2944 2256 2749 
Q 2547 2554 2547 2285 
Q 2547 2176 2457 2096 
Q 2368 2016 2246 2016 
Q 2022 2016 1939 2310 
L 1901 2451 
Q 1850 2630 1773 2694 
Q 1696 2758 1523 2758 
Q 1133 2758 893 2451 
Q 653 2144 653 1645 
Q 653 1094 928 745 
Q 1203 397 1645 397 
Q 1920 397 2118 528 
Q 2317 659 2547 998 
z
" transform="scale(0.015625)"/>
      <path id="STIXGeneral-Regular-61" d="M 2829 422 
L 2829 243 
Q 2586 -64 2253 -64 
Q 1888 -64 1843 403 
L 1837 403 
Q 1427 -64 909 -64 
Q 608 -64 422 112 
Q 237 288 237 602 
Q 237 1050 685 1350 
Q 992 1555 1837 1869 
L 1837 2214 
Q 1837 2502 1699 2646 
Q 1562 2790 1338 2790 
Q 1146 2790 1018 2697 
Q 890 2605 890 2477 
Q 890 2419 909 2348 
Q 928 2278 928 2208 
Q 928 2112 841 2029 
Q 755 1946 634 1946 
Q 525 1946 441 2029 
Q 358 2112 358 2240 
Q 358 2547 685 2752 
Q 986 2944 1421 2944 
Q 1939 2944 2176 2656 
Q 2291 2522 2323 2384 
Q 2355 2246 2355 1946 
L 2355 723 
Q 2355 301 2554 301 
Q 2682 301 2829 422 
z
M 1837 813 
L 1837 1715 
Q 1248 1510 1018 1293 
Q 800 1094 800 800 
Q 800 557 921 432 
Q 1043 307 1242 307 
Q 1453 307 1613 410 
Q 1747 506 1792 589 
Q 1837 672 1837 813 
z
" transform="scale(0.015625)"/>
      <path id="STIXGeneral-Regular-2a" d="M 1715 3014 
L 1773 2976 
Q 2010 2822 2387 2758 
Q 2605 2726 2688 2665 
Q 2771 2605 2771 2483 
Q 2771 2374 2707 2304 
Q 2643 2234 2541 2234 
Q 2381 2234 2157 2515 
Q 2010 2694 1715 2886 
L 1664 2918 
L 1664 2861 
Q 1664 2502 1792 2157 
Q 1850 1997 1850 1946 
Q 1850 1850 1770 1773 
Q 1690 1696 1594 1696 
Q 1504 1696 1433 1766 
Q 1363 1837 1363 1926 
Q 1363 2016 1440 2227 
Q 1542 2502 1542 2861 
L 1542 2918 
Q 1286 2758 1210 2688 
Q 1133 2611 947 2400 
Q 806 2240 672 2240 
Q 563 2240 499 2304 
Q 435 2368 435 2470 
Q 435 2592 528 2656 
Q 621 2720 838 2758 
Q 1062 2803 1180 2848 
Q 1299 2893 1498 3014 
Q 1222 3181 877 3251 
Q 640 3302 544 3366 
Q 448 3430 448 3546 
Q 448 3648 505 3715 
Q 563 3782 659 3782 
Q 787 3782 973 3578 
Q 1242 3277 1542 3110 
L 1542 3194 
Q 1542 3456 1446 3776 
Q 1376 3987 1376 4109 
Q 1376 4198 1443 4262 
Q 1510 4326 1606 4326 
Q 1702 4326 1772 4259 
Q 1843 4192 1843 4096 
Q 1843 3994 1773 3795 
Q 1664 3507 1664 3264 
L 1664 3110 
Q 1882 3238 2035 3379 
Q 2067 3411 2153 3504 
Q 2240 3597 2291 3648 
Q 2342 3699 2409 3747 
Q 2477 3795 2528 3795 
Q 2637 3795 2701 3728 
Q 2765 3661 2765 3552 
Q 2765 3424 2691 3363 
Q 2618 3302 2432 3277 
Q 2074 3219 1715 3014 
z
" transform="scale(0.015625)"/>
      <path id="SimSun-7684" d="M 1125 3775 
L 1125 2175 
L 2425 2175 
L 2425 3775 
L 1125 3775 
z
M 1125 2025 
L 1125 275 
L 2425 275 
L 2425 2025 
L 1125 2025 
z
M 2750 3625 
Q 2750 700 2775 -200 
L 2425 -400 
L 2425 125 
L 1125 125 
L 1125 -300 
L 775 -500 
Q 800 675 800 1837 
Q 800 3000 775 4150 
L 1150 3925 
L 1400 3925 
Q 1650 4775 1675 5225 
L 2225 4925 
Q 1975 4800 1550 3925 
L 2375 3925 
L 2625 4175 
L 3000 3800 
L 2750 3625 
z
M 3975 5200 
L 4525 4875 
Q 4325 4750 3900 3850 
L 5250 3850 
L 5525 4125 
L 5900 3750 
L 5675 3575 
Q 5625 650 5537 262 
Q 5450 -125 5287 -275 
Q 5125 -425 4775 -550 
Q 4650 -150 3950 50 
L 3950 175 
Q 4575 50 4850 50 
Q 5125 50 5187 475 
Q 5250 900 5300 3700 
L 3850 3700 
Q 3400 2975 2900 2475 
L 2825 2525 
Q 3350 3325 3600 3950 
Q 3850 4575 3975 5200 
z
M 3525 2750 
Q 4125 2300 4225 2087 
Q 4325 1875 4325 1775 
Q 4325 1600 4225 1475 
Q 4125 1350 4075 1350 
Q 3975 1350 3925 1700 
Q 3825 2200 3475 2675 
L 3525 2750 
z
" transform="scale(0.015625)"/>
      <path id="SimSun-968f" d="M 2175 4225 
L 2250 4275 
Q 2800 3825 2850 3625 
Q 2900 3425 2775 3300 
Q 2650 3175 2600 3175 
Q 2500 3175 2475 3425 
Q 2425 3800 2175 4225 
z
M 6050 0 
L 6050 -100 
Q 5650 -175 5625 -475 
Q 4975 -450 4487 -425 
Q 4000 -400 3650 -262 
Q 3300 -125 3050 150 
Q 2875 300 2750 300 
Q 2650 300 2487 162 
Q 2325 25 2125 -375 
L 1750 -100 
Q 2100 175 2575 450 
L 2575 2300 
Q 2525 2300 2250 2225 
L 2025 2450 
L 2550 2450 
L 2700 2650 
L 3075 2375 
L 2875 2225 
L 2875 475 
Q 3325 75 3762 0 
Q 4200 -75 4725 -62 
Q 5250 -50 6050 0 
z
M 600 4900 
L 950 4675 
L 1700 4675 
L 1900 4900 
L 2300 4625 
L 2075 4450 
L 1475 3000 
Q 1650 2775 1900 2475 
Q 2125 2175 2162 1975 
Q 2200 1775 2200 1650 
Q 2200 1400 2075 1150 
Q 1950 900 1400 800 
Q 1400 1075 950 1250 
L 950 -475 
L 600 -650 
Q 625 0 625 2175 
Q 625 4350 600 4900 
z
M 1300 3000 
L 1725 4525 
L 950 4525 
L 950 1350 
Q 1275 1275 1425 1275 
Q 1600 1275 1725 1350 
Q 1850 1425 1850 1675 
Q 1850 1825 1812 2100 
Q 1775 2375 1300 3000 
z
M 3900 3250 
L 3900 2600 
L 5150 2600 
L 5150 3250 
L 3900 3250 
z
M 3575 250 
Q 3600 725 3600 3200 
Q 3350 2875 3000 2625 
L 2950 2675 
Q 3525 3325 3850 4175 
L 3600 4175 
Q 3275 4175 3000 4100 
L 2775 4325 
L 3900 4325 
Q 4100 4925 4100 5150 
L 4600 4900 
Q 4425 4800 4225 4325 
L 5325 4325 
L 5625 4625 
L 6025 4175 
L 4175 4175 
Q 4025 3825 3825 3475 
L 3925 3400 
L 5100 3400 
L 5250 3625 
L 5650 3350 
L 5475 3200 
L 5475 875 
Q 5525 425 5025 275 
Q 5025 550 4525 650 
L 4525 750 
Q 4950 725 5050 725 
Q 5150 725 5150 900 
L 5150 1650 
L 3900 1650 
L 3900 400 
L 3575 250 
z
M 3900 2450 
L 3900 1800 
L 5150 1800 
L 5150 2450 
L 3900 2450 
z
" transform="scale(0.015625)"/>
      <path id="SimSun-53d8" d="M 2750 4225 
L 2750 2225 
L 3650 2225 
L 3650 4225 
L 2750 4225 
z
M 375 4375 
L 3100 4375 
Q 3050 4750 2650 5200 
L 2700 5275 
Q 3150 5075 3325 4925 
Q 3500 4775 3500 4700 
Q 3500 4550 3300 4375 
L 5125 4375 
L 5525 4775 
L 6075 4225 
L 4000 4225 
L 4000 2225 
L 4425 2225 
L 4675 2500 
L 5100 2100 
L 4825 1975 
Q 4300 1325 3525 650 
Q 4500 -50 6125 -175 
L 6125 -275 
Q 5750 -325 5625 -575 
Q 4175 -250 3300 450 
Q 2150 -300 350 -600 
L 325 -500 
Q 2050 -100 3075 675 
Q 2525 1250 2100 2075 
L 1650 2075 
L 1375 2025 
L 1175 2225 
L 2400 2225 
L 2400 4225 
L 1200 4225 
Q 875 4225 600 4150 
L 375 4375 
z
M 2275 2075 
Q 2725 1350 3300 850 
Q 3800 1300 4425 2075 
L 2275 2075 
z
M 1675 3850 
L 2125 3450 
L 1875 3350 
Q 1150 2575 325 1950 
L 250 2025 
Q 700 2425 1087 2937 
Q 1475 3450 1675 3850 
z
M 4350 3700 
Q 5675 3050 5812 2875 
Q 5950 2700 5950 2575 
Q 5950 2475 5900 2375 
Q 5850 2275 5800 2275 
Q 5700 2275 5500 2550 
Q 5200 2950 4275 3625 
L 4350 3700 
z
" transform="scale(0.015625)"/>
      <path id="SimSun-5316" d="M 1375 -600 
Q 1400 200 1400 925 
L 1400 3125 
Q 850 2300 350 1775 
L 275 1850 
Q 825 2625 1300 3650 
Q 1775 4675 1900 5200 
L 2450 4875 
L 2200 4725 
Q 1875 4000 1600 3475 
L 1950 3275 
L 1750 3075 
L 1750 350 
Q 1750 75 1775 -400 
L 1375 -600 
z
M 3450 2125 
L 3450 3925 
Q 3450 4475 3425 5200 
L 4000 4925 
L 3800 4725 
L 3800 2400 
Q 4150 2725 4562 3225 
Q 4975 3725 5150 4025 
L 5600 3600 
L 5325 3525 
Q 4600 2700 3800 2000 
L 3800 425 
Q 3800 0 4225 0 
L 5300 0 
Q 5500 0 5550 325 
Q 5600 650 5600 1325 
L 5725 1325 
Q 5775 650 5850 425 
Q 5925 200 6125 125 
Q 5900 -325 5400 -325 
L 4075 -325 
Q 3450 -325 3450 250 
L 3450 1775 
Q 2800 1275 1950 925 
L 1925 1025 
Q 2800 1525 3450 2125 
z
" transform="scale(0.015625)"/>
      <path id="SimSun-8d8b" d="M 3900 5225 
L 4425 4900 
L 4225 4825 
Q 4000 4475 3800 4150 
L 4750 4150 
L 4975 4425 
L 5400 4025 
Q 5100 4000 4475 3075 
L 5350 3075 
L 5500 3325 
L 5900 3050 
L 5725 2875 
Q 5725 1050 5750 525 
L 5400 375 
L 5400 800 
L 3725 800 
Q 3525 800 3250 725 
L 3025 950 
L 5400 950 
L 5400 1900 
L 4050 1900 
Q 3850 1900 3575 1825 
L 3350 2050 
L 5400 2050 
L 5400 2925 
L 3900 2925 
Q 3700 2925 3425 2850 
L 3200 3075 
L 4350 3075 
L 4775 4000 
L 3725 4000 
Q 3450 3625 3000 3200 
L 2950 3250 
Q 3650 4250 3900 5225 
z
M 300 -550 
L 225 -500 
Q 675 275 787 1112 
Q 900 1950 850 2425 
L 1400 2150 
Q 1250 2075 1212 1812 
Q 1175 1550 1125 1075 
Q 1500 750 1725 625 
L 1725 2825 
L 950 2825 
Q 750 2825 475 2750 
L 250 2975 
L 1600 2975 
L 1600 4025 
L 1225 4025 
Q 1025 4025 750 3950 
L 525 4175 
L 1600 4175 
Q 1600 4675 1575 5225 
L 2125 4975 
L 1925 4800 
L 1925 4175 
L 2400 4175 
L 2700 4475 
L 3100 4025 
L 1925 4025 
L 1925 2975 
L 2475 2975 
L 2800 3275 
L 3200 2825 
L 1750 2825 
L 2250 2600 
L 2050 2400 
L 2050 1800 
L 2625 1800 
L 2925 2100 
L 3300 1650 
L 2050 1650 
L 2050 425 
Q 2925 25 3737 0 
Q 4550 -25 4925 -25 
Q 5625 -25 6150 25 
L 6150 -50 
Q 5700 -250 5700 -475 
Q 4950 -500 4012 -412 
Q 3075 -325 2325 -12 
Q 1575 300 1100 900 
Q 775 -25 300 -550 
z
" transform="scale(0.015625)"/>
      <path id="SimSun-52bf" d="M 1650 4175 
Q 1650 4775 1625 5200 
L 2150 4950 
L 1975 4800 
L 1975 4175 
L 2200 4175 
L 2475 4450 
L 2900 4025 
L 1975 4025 
L 1975 3425 
Q 2400 3525 2800 3625 
L 2825 3525 
Q 2400 3375 1975 3225 
L 1975 2150 
Q 2000 1800 1475 1575 
Q 1450 1850 800 2025 
L 800 2150 
Q 1225 2100 1437 2087 
Q 1650 2075 1650 2325 
L 1650 3100 
Q 700 2750 700 2650 
L 400 3100 
Q 575 3100 1650 3350 
L 1650 4025 
L 1300 4025 
Q 975 4025 700 3950 
L 475 4175 
L 1650 4175 
z
M 3650 4175 
L 3650 4525 
Q 3650 4875 3625 5225 
L 4175 4975 
L 3975 4800 
L 3975 4200 
L 4700 4250 
L 4850 4475 
L 5200 4200 
L 5025 4050 
Q 5000 3900 5000 3575 
Q 5000 3225 5050 2812 
Q 5100 2400 5425 2175 
Q 5600 2650 5700 3050 
L 5800 3025 
Q 5725 2525 5725 2250 
Q 5725 1975 5825 1775 
Q 5900 1650 5775 1650 
Q 5725 1650 5475 1750 
Q 5225 1850 5012 2137 
Q 4800 2425 4737 2750 
Q 4675 3075 4675 3475 
Q 4675 3850 4700 4100 
L 3975 4050 
Q 3925 3450 3750 3050 
Q 4100 2900 4262 2787 
Q 4425 2675 4387 2475 
Q 4350 2275 4275 2275 
Q 4225 2275 4125 2400 
Q 3925 2625 3625 2825 
Q 3225 2225 2100 1800 
L 2050 1875 
Q 3075 2400 3375 2975 
Q 3225 3100 2850 3300 
L 2900 3375 
Q 3225 3275 3475 3175 
Q 3600 3500 3650 4025 
L 3300 4000 
L 3125 3925 
L 2875 4125 
L 3650 4175 
z
M 2600 1425 
Q 2675 1700 2700 2025 
L 3175 1775 
L 3000 1650 
L 2950 1425 
L 4725 1425 
L 4875 1675 
L 5325 1375 
L 5125 1225 
Q 5050 400 4987 112 
Q 4925 -175 4750 -350 
Q 4575 -525 4225 -600 
Q 4250 -350 3650 -50 
L 3675 50 
Q 4225 -100 4412 -87 
Q 4600 -75 4675 312 
Q 4750 700 4775 1275 
L 2925 1275 
Q 2800 775 2575 450 
Q 2350 125 1875 -162 
Q 1400 -450 450 -650 
L 400 -550 
Q 1500 -225 1950 200 
Q 2400 625 2575 1275 
L 1450 1275 
Q 1125 1275 850 1200 
L 625 1425 
L 2600 1425 
z
" transform="scale(0.015625)"/>
     </defs>
     <use xlink:href="#STIXGeneral-Regular-70" transform="translate(0 0.578125)"/>
     <use xlink:href="#STIXGeneral-Regular-72" transform="translate(49.999985 0.578125)"/>
     <use xlink:href="#STIXGeneral-Regular-6f" transform="translate(83.299973 0.578125)"/>
     <use xlink:href="#STIXGeneral-Regular-74" transform="translate(133.299957 0.578125)"/>
     <use xlink:href="#STIXGeneral-Regular-6f" transform="translate(161.099945 0.578125)"/>
     <use xlink:href="#STIXGeneral-Regular-26" transform="translate(235.16635 0.578125)"/>
     <use xlink:href="#STIXGeneral-Regular-6d" transform="translate(337.032757 0.578125)"/>
     <use xlink:href="#STIXGeneral-Regular-69" transform="translate(414.832745 0.578125)"/>
     <use xlink:href="#STIXGeneral-Regular-63" transform="translate(442.632733 0.578125)"/>
     <use xlink:href="#STIXGeneral-Regular-61" transform="translate(487.032727 0.578125)"/>
     <use xlink:href="#STIXGeneral-Regular-2a" transform="translate(545.872717 0.578125)"/>
     <use xlink:href="#SimSun-7684" transform="translate(610.312698 0.578125)"/>
     <use xlink:href="#SimSun-541e" transform="translate(710.312698 0.578125)"/>
     <use xlink:href="#SimSun-5410" transform="translate(810.312698 0.578125)"/>
     <use xlink:href="#SimSun-91cf" transform="translate(910.312698 0.578125)"/>
     <use xlink:href="#SimSun-968f" transform="translate(1010.312698 0.578125)"/>
     <use xlink:href="#SimSun-7d22" transform="translate(1110.312698 0.578125)"/>
     <use xlink:href="#SimSun-5f15" transform="translate(1210.312698 0.578125)"/>
     <use xlink:href="#SimSun-88c5" transform="translate(1310.312698 0.578125)"/>
     <use xlink:href="#SimSun-8f7d" transform="translate(1410.312698 0.578125)"/>
     <use xlink:href="#SimSun-7387" transform="translate(1510.312698 0.578125)"/>
     <use xlink:href="#SimSun-7684" transform="translate(1610.312698 0.578125)"/>
     <use xlink:href="#SimSun-53d8" transform="translate(1710.312698 0.578125)"/>
     <use xlink:href="#SimSun-5316" transform="translate(1810.312698 0.578125)"/>
     <use xlink:href="#SimSun-8d8b" transform="translate(1910.312698 0.578125)"/>
     <use xlink:href="#SimSun-52bf" transform="translate(2010.312698 0.578125)"/>
    </g>
   </g>
   <g id="legend_1">
    <g id="patch_7">
     <path d="M 694.127344 131.207687 
L 816.14 131.207687 
Q 819.94 131.207687 819.94 127.407687 
L 819.94 75.508 
Q 819.94 71.708 816.14 71.708 
L 694.127344 71.708 
Q 690.327344 71.708 690.327344 75.508 
L 690.327344 127.407687 
Q 690.327344 131.207687 694.127344 131.207687 
z
" style="fill: #ffffff; opacity: 0.8; stroke: #cccccc; stroke-linejoin: miter"/>
    </g>
    <g id="line2d_25">
     <path d="M 697.927344 85.958 
L 716.927344 85.958 
L 735.927344 85.958 
" style="fill: none; stroke: #ff0000; stroke-width: 1.5; stroke-linecap: square"/>
    </g>
    <g id="text_26">
     <!-- mz_600 -->
     <g transform="translate(751.127344 92.608) scale(0.19 -0.19)">
      <defs>
       <path id="TimesNewRomanPSMT-6d" d="M 1050 2338 
Q 1363 2650 1419 2697 
Q 1559 2816 1721 2881 
Q 1884 2947 2044 2947 
Q 2313 2947 2506 2790 
Q 2700 2634 2766 2338 
Q 3088 2713 3309 2830 
Q 3531 2947 3766 2947 
Q 3994 2947 4170 2830 
Q 4347 2713 4450 2447 
Q 4519 2266 4519 1878 
L 4519 647 
Q 4519 378 4559 278 
Q 4591 209 4675 161 
Q 4759 113 4950 113 
L 4950 0 
L 3538 0 
L 3538 113 
L 3597 113 
Q 3781 113 3884 184 
Q 3956 234 3988 344 
Q 4000 397 4000 647 
L 4000 1878 
Q 4000 2228 3916 2372 
Q 3794 2572 3525 2572 
Q 3359 2572 3192 2489 
Q 3025 2406 2788 2181 
L 2781 2147 
L 2788 2013 
L 2788 647 
Q 2788 353 2820 281 
Q 2853 209 2943 161 
Q 3034 113 3253 113 
L 3253 0 
L 1806 0 
L 1806 113 
Q 2044 113 2133 169 
Q 2222 225 2256 338 
Q 2272 391 2272 647 
L 2272 1878 
Q 2272 2228 2169 2381 
Q 2031 2581 1784 2581 
Q 1616 2581 1450 2491 
Q 1191 2353 1050 2181 
L 1050 647 
Q 1050 366 1089 281 
Q 1128 197 1204 155 
Q 1281 113 1516 113 
L 1516 0 
L 100 0 
L 100 113 
Q 297 113 375 155 
Q 453 197 493 289 
Q 534 381 534 647 
L 534 1741 
Q 534 2213 506 2350 
Q 484 2453 437 2492 
Q 391 2531 309 2531 
Q 222 2531 100 2484 
L 53 2597 
L 916 2947 
L 1050 2947 
L 1050 2338 
z
" transform="scale(0.015625)"/>
       <path id="TimesNewRomanPSMT-7a" d="M 2688 878 
L 2653 0 
L 128 0 
L 128 113 
L 2028 2644 
L 1091 2644 
Q 788 2644 694 2605 
Q 600 2566 541 2456 
Q 456 2300 444 2069 
L 319 2069 
L 338 2863 
L 2738 2863 
L 2738 2747 
L 819 209 
L 1863 209 
Q 2191 209 2308 264 
Q 2425 319 2497 456 
Q 2547 556 2581 878 
L 2688 878 
z
" transform="scale(0.015625)"/>
       <path id="TimesNewRomanPSMT-5f" d="M 3256 -1381 
L -53 -1381 
L -53 -1119 
L 3256 -1119 
L 3256 -1381 
z
" transform="scale(0.015625)"/>
       <path id="TimesNewRomanPSMT-36" d="M 2869 4325 
L 2869 4209 
Q 2456 4169 2195 4045 
Q 1934 3922 1679 3669 
Q 1425 3416 1258 3105 
Q 1091 2794 978 2366 
Q 1428 2675 1881 2675 
Q 2316 2675 2634 2325 
Q 2953 1975 2953 1425 
Q 2953 894 2631 456 
Q 2244 -75 1606 -75 
Q 1172 -75 869 213 
Q 275 772 275 1663 
Q 275 2231 503 2743 
Q 731 3256 1154 3653 
Q 1578 4050 1965 4187 
Q 2353 4325 2688 4325 
L 2869 4325 
z
M 925 2138 
Q 869 1716 869 1456 
Q 869 1156 980 804 
Q 1091 453 1309 247 
Q 1469 100 1697 100 
Q 1969 100 2183 356 
Q 2397 613 2397 1088 
Q 2397 1622 2184 2012 
Q 1972 2403 1581 2403 
Q 1463 2403 1327 2353 
Q 1191 2303 925 2138 
z
" transform="scale(0.015625)"/>
       <path id="TimesNewRomanPSMT-30" d="M 231 2094 
Q 231 2819 450 3342 
Q 669 3866 1031 4122 
Q 1313 4325 1613 4325 
Q 2100 4325 2488 3828 
Q 2972 3213 2972 2159 
Q 2972 1422 2759 906 
Q 2547 391 2217 158 
Q 1888 -75 1581 -75 
Q 975 -75 572 641 
Q 231 1244 231 2094 
z
M 844 2016 
Q 844 1141 1059 588 
Q 1238 122 1591 122 
Q 1759 122 1940 273 
Q 2122 425 2216 781 
Q 2359 1319 2359 2297 
Q 2359 3022 2209 3506 
Q 2097 3866 1919 4016 
Q 1791 4119 1609 4119 
Q 1397 4119 1231 3928 
Q 1006 3669 925 3112 
Q 844 2556 844 2016 
z
" transform="scale(0.015625)"/>
      </defs>
      <use xlink:href="#TimesNewRomanPSMT-6d"/>
      <use xlink:href="#TimesNewRomanPSMT-7a" x="77.783203"/>
      <use xlink:href="#TimesNewRomanPSMT-5f" x="122.167969"/>
      <use xlink:href="#TimesNewRomanPSMT-36" x="172.167969"/>
      <use xlink:href="#TimesNewRomanPSMT-30" x="222.167969"/>
      <use xlink:href="#TimesNewRomanPSMT-30" x="272.167969"/>
     </g>
    </g>
    <g id="line2d_26">
     <path d="M 697.927344 112.857844 
L 716.927344 112.857844 
L 735.927344 112.857844 
" style="fill: none; stroke: #0000ff; stroke-width: 1.5; stroke-linecap: square"/>
    </g>
    <g id="text_27">
     <!-- pz_600 -->
     <g transform="translate(751.127344 119.507844) scale(0.19 -0.19)">
      <defs>
       <path id="TimesNewRomanPSMT-70" d="M -6 2578 
L 875 2934 
L 994 2934 
L 994 2266 
Q 1216 2644 1439 2795 
Q 1663 2947 1909 2947 
Q 2341 2947 2628 2609 
Q 2981 2197 2981 1534 
Q 2981 794 2556 309 
Q 2206 -88 1675 -88 
Q 1444 -88 1275 -22 
Q 1150 25 994 166 
L 994 -706 
Q 994 -1000 1030 -1079 
Q 1066 -1159 1155 -1206 
Q 1244 -1253 1478 -1253 
L 1478 -1369 
L -22 -1369 
L -22 -1253 
L 56 -1253 
Q 228 -1256 350 -1188 
Q 409 -1153 442 -1076 
Q 475 -1000 475 -688 
L 475 2019 
Q 475 2297 450 2372 
Q 425 2447 370 2484 
Q 316 2522 222 2522 
Q 147 2522 31 2478 
L -6 2578 
z
M 994 2081 
L 994 1013 
Q 994 666 1022 556 
Q 1066 375 1236 237 
Q 1406 100 1666 100 
Q 1978 100 2172 344 
Q 2425 663 2425 1241 
Q 2425 1897 2138 2250 
Q 1938 2494 1663 2494 
Q 1513 2494 1366 2419 
Q 1253 2363 994 2081 
z
" transform="scale(0.015625)"/>
      </defs>
      <use xlink:href="#TimesNewRomanPSMT-70"/>
      <use xlink:href="#TimesNewRomanPSMT-7a" x="50"/>
      <use xlink:href="#TimesNewRomanPSMT-5f" x="94.384766"/>
      <use xlink:href="#TimesNewRomanPSMT-36" x="144.384766"/>
      <use xlink:href="#TimesNewRomanPSMT-30" x="194.384766"/>
      <use xlink:href="#TimesNewRomanPSMT-30" x="244.384766"/>
     </g>
    </g>
   </g>
  </g>
 </g>
 <defs>
  <clipPath id="p41a7fce7ff">
   <rect x="115.2" y="62.208" width="714.24" height="399.168"/>
  </clipPath>
 </defs>
</svg>
