<?xml version="1.0" encoding="utf-8" standalone="no"?>
<!DOCTYPE svg PUBLIC "-//W3C//DTD SVG 1.1//EN"
  "http://www.w3.org/Graphics/SVG/1.1/DTD/svg11.dtd">
<svg xmlns:xlink="http://www.w3.org/1999/xlink" width="921.6pt" height="518.4pt" viewBox="0 0 921.6 518.4" xmlns="http://www.w3.org/2000/svg" version="1.1">
 <metadata>
  <rdf:RDF xmlns:dc="http://purl.org/dc/elements/1.1/" xmlns:cc="http://creativecommons.org/ns#" xmlns:rdf="http://www.w3.org/1999/02/22-rdf-syntax-ns#">
   <cc:Work>
    <dc:type rdf:resource="http://purl.org/dc/dcmitype/StillImage"/>
    <dc:date>2023-07-10T15:00:19.450593</dc:date>
    <dc:format>image/svg+xml</dc:format>
    <dc:creator>
     <cc:Agent>
      <dc:title>Matplotlib v3.7.1, https://matplotlib.org/</dc:title>
     </cc:Agent>
    </dc:creator>
   </cc:Work>
  </rdf:RDF>
 </metadata>
 <defs>
  <style type="text/css">*{stroke-linejoin: round; stroke-linecap: butt}</style>
 </defs>
 <g id="figure_1">
  <g id="patch_1">
   <path d="M 0 518.4 
L 921.6 518.4 
L 921.6 0 
L 0 0 
z
" style="fill: #ffffff"/>
  </g>
  <g id="axes_1">
   <g id="patch_2">
    <path d="M 115.2 461.376 
L 829.44 461.376 
L 829.44 62.208 
L 115.2 62.208 
z
" style="fill: #ffffff"/>
   </g>
   <g id="matplotlib.axis_1">
    <g id="xtick_1">
     <g id="line2d_1">
      <defs>
       <path id="m800898e698" d="M 0 0 
L 0 3.5 
" style="stroke: #000000; stroke-width: 0.8"/>
      </defs>
      <g>
       <use xlink:href="#m800898e698" x="115.2" y="461.376" style="stroke: #000000; stroke-width: 0.8"/>
      </g>
     </g>
     <g id="text_1">
      <!-- 0 -->
      <g transform="translate(110.45 481.958031) scale(0.19 -0.19)">
       <defs>
        <path id="SimSun-30" d="M 1600 4225 
Q 1250 4225 1012 3687 
Q 775 3150 775 2250 
Q 775 1300 1012 775 
Q 1250 250 1600 250 
Q 1975 250 2187 775 
Q 2400 1300 2400 2250 
Q 2400 3150 2200 3687 
Q 2000 4225 1600 4225 
z
M 1600 50 
Q 1050 50 675 625 
Q 300 1200 300 2250 
Q 300 3225 662 3825 
Q 1025 4425 1600 4425 
Q 2150 4425 2512 3850 
Q 2875 3275 2875 2250 
Q 2875 1225 2512 637 
Q 2150 50 1600 50 
z
" transform="scale(0.015625)"/>
       </defs>
       <use xlink:href="#SimSun-30"/>
      </g>
     </g>
    </g>
    <g id="xtick_2">
     <g id="line2d_2">
      <g>
       <use xlink:href="#m800898e698" x="194.56" y="461.376" style="stroke: #000000; stroke-width: 0.8"/>
      </g>
     </g>
     <g id="text_2">
      <!-- 100 -->
      <g transform="translate(180.31 481.958031) scale(0.19 -0.19)">
       <defs>
        <path id="SimSun-31" d="M 1825 4450 
L 1825 650 
Q 1825 450 1950 350 
Q 2075 250 2300 250 
L 2550 250 
L 2550 100 
L 725 100 
L 725 250 
L 950 250 
Q 1200 250 1312 350 
Q 1425 450 1425 650 
L 1425 3675 
Q 1425 3775 1362 3837 
Q 1300 3900 1175 3900 
L 725 3900 
L 725 4050 
L 950 4050 
Q 1250 4050 1437 4150 
Q 1625 4250 1725 4450 
L 1825 4450 
z
" transform="scale(0.015625)"/>
       </defs>
       <use xlink:href="#SimSun-31"/>
       <use xlink:href="#SimSun-30" x="50"/>
       <use xlink:href="#SimSun-30" x="100"/>
      </g>
     </g>
    </g>
    <g id="xtick_3">
     <g id="line2d_3">
      <g>
       <use xlink:href="#m800898e698" x="273.92" y="461.376" style="stroke: #000000; stroke-width: 0.8"/>
      </g>
     </g>
     <g id="text_3">
      <!-- 200 -->
      <g transform="translate(259.67 481.958031) scale(0.19 -0.19)">
       <defs>
        <path id="SimSun-32" d="M 2325 3325 
Q 2325 3775 2125 4012 
Q 1925 4250 1525 4250 
Q 1225 4250 1012 4087 
Q 800 3925 800 3675 
Q 800 3525 900 3425 
Q 975 3325 975 3225 
Q 975 3100 912 3037 
Q 850 2975 725 2975 
Q 575 2975 487 3062 
Q 400 3150 400 3350 
Q 400 3875 775 4150 
Q 1150 4425 1575 4425 
Q 2175 4425 2462 4125 
Q 2750 3825 2750 3375 
Q 2750 3075 2612 2775 
Q 2475 2475 2175 2200 
Q 1450 1500 1062 1062 
Q 675 625 600 475 
L 2075 475 
Q 2300 475 2450 650 
Q 2600 825 2650 1175 
L 2800 1175 
L 2650 100 
L 325 100 
L 325 425 
Q 450 650 737 1000 
Q 1025 1350 1500 1825 
Q 1925 2250 2125 2625 
Q 2325 3000 2325 3325 
z
" transform="scale(0.015625)"/>
       </defs>
       <use xlink:href="#SimSun-32"/>
       <use xlink:href="#SimSun-30" x="50"/>
       <use xlink:href="#SimSun-30" x="100"/>
      </g>
     </g>
    </g>
    <g id="xtick_4">
     <g id="line2d_4">
      <g>
       <use xlink:href="#m800898e698" x="353.28" y="461.376" style="stroke: #000000; stroke-width: 0.8"/>
      </g>
     </g>
     <g id="text_4">
      <!-- 300 -->
      <g transform="translate(339.03 481.958031) scale(0.19 -0.19)">
       <defs>
        <path id="SimSun-33" d="M 2800 1250 
Q 2800 775 2450 412 
Q 2100 50 1475 50 
Q 1025 50 700 300 
Q 375 550 375 875 
Q 375 1025 475 1137 
Q 575 1250 675 1250 
Q 825 1250 887 1137 
Q 950 1025 950 950 
Q 950 825 900 750 
Q 850 650 850 575 
Q 850 425 1037 325 
Q 1225 225 1450 225 
Q 1900 225 2125 487 
Q 2350 750 2350 1300 
Q 2350 1750 2112 2025 
Q 1875 2300 1225 2300 
L 1225 2475 
Q 1725 2475 1962 2712 
Q 2200 2950 2200 3375 
Q 2200 3725 2012 3987 
Q 1825 4250 1425 4250 
Q 1250 4250 1050 4162 
Q 850 4075 850 3875 
Q 850 3675 900 3625 
Q 950 3575 950 3500 
Q 950 3375 900 3300 
Q 850 3225 725 3225 
Q 625 3225 537 3300 
Q 450 3375 450 3575 
Q 450 3950 775 4187 
Q 1100 4425 1525 4425 
Q 2025 4425 2325 4112 
Q 2625 3800 2625 3450 
Q 2625 3075 2437 2812 
Q 2250 2550 1850 2425 
Q 2400 2225 2600 1900 
Q 2800 1575 2800 1250 
z
" transform="scale(0.015625)"/>
       </defs>
       <use xlink:href="#SimSun-33"/>
       <use xlink:href="#SimSun-30" x="50"/>
       <use xlink:href="#SimSun-30" x="100"/>
      </g>
     </g>
    </g>
    <g id="xtick_5">
     <g id="line2d_5">
      <g>
       <use xlink:href="#m800898e698" x="432.64" y="461.376" style="stroke: #000000; stroke-width: 0.8"/>
      </g>
     </g>
     <g id="text_5">
      <!-- 400 -->
      <g transform="translate(418.39 481.958031) scale(0.19 -0.19)">
       <defs>
        <path id="SimSun-34" d="M 2300 575 
Q 2300 400 2400 325 
Q 2500 250 2675 250 
L 2900 250 
L 2900 100 
L 1250 100 
L 1250 250 
L 1525 250 
Q 1725 250 1812 325 
Q 1900 400 1900 575 
L 1900 1400 
L 225 1400 
L 225 1525 
L 2050 4425 
L 2300 4425 
L 2300 1550 
L 2975 1550 
L 2975 1400 
L 2300 1400 
L 2300 575 
z
M 1875 3800 
L 450 1550 
L 1900 1550 
L 1900 3800 
L 1875 3800 
z
" transform="scale(0.015625)"/>
       </defs>
       <use xlink:href="#SimSun-34"/>
       <use xlink:href="#SimSun-30" x="50"/>
       <use xlink:href="#SimSun-30" x="100"/>
      </g>
     </g>
    </g>
    <g id="xtick_6">
     <g id="line2d_6">
      <g>
       <use xlink:href="#m800898e698" x="512" y="461.376" style="stroke: #000000; stroke-width: 0.8"/>
      </g>
     </g>
     <g id="text_6">
      <!-- 500 -->
      <g transform="translate(497.75 481.958031) scale(0.19 -0.19)">
       <defs>
        <path id="SimSun-35" d="M 1725 2850 
Q 2200 2850 2500 2487 
Q 2800 2125 2800 1525 
Q 2800 850 2487 450 
Q 2175 50 1525 50 
Q 1075 50 725 312 
Q 375 575 375 950 
Q 375 1100 462 1212 
Q 550 1325 700 1325 
Q 850 1325 900 1225 
Q 950 1125 950 1050 
Q 950 900 875 825 
Q 800 725 800 625 
Q 800 425 1037 325 
Q 1275 225 1550 225 
Q 1950 225 2162 550 
Q 2375 875 2375 1475 
Q 2375 1975 2187 2287 
Q 2000 2600 1625 2600 
Q 1350 2600 1150 2500 
Q 950 2400 775 2075 
L 550 2100 
L 675 4375 
L 2725 4375 
L 2650 4000 
L 850 4000 
L 750 2350 
Q 1000 2700 1237 2775 
Q 1475 2850 1725 2850 
z
" transform="scale(0.015625)"/>
       </defs>
       <use xlink:href="#SimSun-35"/>
       <use xlink:href="#SimSun-30" x="50"/>
       <use xlink:href="#SimSun-30" x="100"/>
      </g>
     </g>
    </g>
    <g id="xtick_7">
     <g id="line2d_7">
      <g>
       <use xlink:href="#m800898e698" x="591.36" y="461.376" style="stroke: #000000; stroke-width: 0.8"/>
      </g>
     </g>
     <g id="text_7">
      <!-- 600 -->
      <g transform="translate(577.11 481.958031) scale(0.19 -0.19)">
       <defs>
        <path id="SimSun-36" d="M 775 1800 
Q 775 1050 1037 637 
Q 1300 225 1675 225 
Q 2050 225 2250 500 
Q 2450 775 2450 1525 
Q 2450 2025 2237 2300 
Q 2025 2575 1725 2575 
Q 1450 2575 1212 2412 
Q 975 2250 775 1800 
z
M 1750 2825 
Q 2350 2825 2612 2425 
Q 2875 2025 2875 1525 
Q 2875 775 2512 412 
Q 2150 50 1675 50 
Q 1000 50 650 562 
Q 300 1075 300 2050 
Q 300 3200 725 3812 
Q 1150 4425 1875 4425 
Q 2225 4425 2437 4225 
Q 2650 4025 2650 3875 
Q 2650 3725 2587 3650 
Q 2525 3575 2375 3575 
Q 2250 3575 2187 3637 
Q 2125 3700 2125 3825 
Q 2125 3875 2150 3925 
Q 2150 3975 2150 4025 
Q 2150 4125 2075 4187 
Q 2000 4250 1800 4250 
Q 1375 4250 1075 3862 
Q 775 3475 775 2175 
Q 925 2500 1187 2662 
Q 1450 2825 1750 2825 
z
" transform="scale(0.015625)"/>
       </defs>
       <use xlink:href="#SimSun-36"/>
       <use xlink:href="#SimSun-30" x="50"/>
       <use xlink:href="#SimSun-30" x="100"/>
      </g>
     </g>
    </g>
    <g id="xtick_8">
     <g id="line2d_8">
      <g>
       <use xlink:href="#m800898e698" x="670.72" y="461.376" style="stroke: #000000; stroke-width: 0.8"/>
      </g>
     </g>
     <g id="text_8">
      <!-- 700 -->
      <g transform="translate(656.47 481.958031) scale(0.19 -0.19)">
       <defs>
        <path id="SimSun-37" d="M 2825 4200 
Q 2300 3350 1987 2537 
Q 1675 1725 1675 1125 
Q 1675 1025 1700 850 
Q 1700 650 1700 400 
Q 1700 200 1637 125 
Q 1575 50 1425 50 
Q 1300 50 1212 137 
Q 1125 225 1125 450 
Q 1125 925 1337 1625 
Q 1550 2325 2475 4000 
L 1225 4000 
Q 950 4000 787 3825 
Q 625 3650 550 3300 
L 400 3325 
L 575 4375 
L 2825 4375 
L 2825 4200 
z
" transform="scale(0.015625)"/>
       </defs>
       <use xlink:href="#SimSun-37"/>
       <use xlink:href="#SimSun-30" x="50"/>
       <use xlink:href="#SimSun-30" x="100"/>
      </g>
     </g>
    </g>
    <g id="xtick_9">
     <g id="line2d_9">
      <g>
       <use xlink:href="#m800898e698" x="750.08" y="461.376" style="stroke: #000000; stroke-width: 0.8"/>
      </g>
     </g>
     <g id="text_9">
      <!-- 800 -->
      <g transform="translate(735.83 481.958031) scale(0.19 -0.19)">
       <defs>
        <path id="SimSun-38" d="M 625 1125 
Q 625 725 887 475 
Q 1150 225 1550 225 
Q 2025 225 2237 475 
Q 2450 725 2450 1100 
Q 2450 1425 2150 1725 
Q 1850 2025 1250 2275 
Q 950 2075 787 1775 
Q 625 1475 625 1125 
z
M 2825 1175 
Q 2825 700 2475 375 
Q 2125 50 1550 50 
Q 1025 50 650 375 
Q 275 700 275 1125 
Q 275 1550 487 1850 
Q 700 2150 1100 2375 
Q 750 2550 562 2812 
Q 375 3075 375 3400 
Q 375 3825 700 4125 
Q 1025 4425 1600 4425 
Q 2125 4425 2450 4125 
Q 2775 3825 2775 3400 
Q 2775 3100 2587 2837 
Q 2400 2575 2000 2375 
Q 2425 2125 2625 1825 
Q 2825 1525 2825 1175 
z
M 2425 3375 
Q 2425 3725 2225 3987 
Q 2025 4250 1600 4250 
Q 1125 4250 925 4000 
Q 725 3750 725 3475 
Q 725 3200 1012 2937 
Q 1300 2675 1825 2475 
Q 2125 2625 2275 2850 
Q 2425 3075 2425 3375 
z
" transform="scale(0.015625)"/>
       </defs>
       <use xlink:href="#SimSun-38"/>
       <use xlink:href="#SimSun-30" x="50"/>
       <use xlink:href="#SimSun-30" x="100"/>
      </g>
     </g>
    </g>
    <g id="xtick_10">
     <g id="line2d_10">
      <g>
       <use xlink:href="#m800898e698" x="829.44" y="461.376" style="stroke: #000000; stroke-width: 0.8"/>
      </g>
     </g>
     <g id="text_10">
      <!-- 900 -->
      <g transform="translate(815.19 481.958031) scale(0.19 -0.19)">
       <defs>
        <path id="SimSun-39" d="M 700 3050 
Q 700 2500 912 2212 
Q 1125 1925 1450 1925 
Q 1825 1925 2100 2275 
Q 2375 2625 2375 2925 
Q 2375 3525 2175 3887 
Q 1975 4250 1525 4250 
Q 1100 4250 900 3912 
Q 700 3575 700 3050 
z
M 1375 1700 
Q 875 1700 575 2012 
Q 275 2325 275 3025 
Q 275 3625 600 4025 
Q 925 4425 1525 4425 
Q 2150 4425 2500 3925 
Q 2850 3425 2850 2475 
Q 2850 1425 2437 737 
Q 2025 50 1300 50 
Q 975 50 737 200 
Q 500 350 500 600 
Q 500 700 562 800 
Q 625 900 775 900 
Q 925 900 975 787 
Q 1025 675 1025 525 
Q 1025 425 1050 362 
Q 1075 300 1100 275 
Q 1125 250 1187 237 
Q 1250 225 1325 225 
Q 1775 225 2050 725 
Q 2325 1225 2375 2400 
Q 2250 2100 2000 1900 
Q 1750 1700 1375 1700 
z
" transform="scale(0.015625)"/>
       </defs>
       <use xlink:href="#SimSun-39"/>
       <use xlink:href="#SimSun-30" x="50"/>
       <use xlink:href="#SimSun-30" x="100"/>
      </g>
     </g>
    </g>
    <g id="text_11">
     <!-- 时间 $\mathrm{(s)}$ -->
     <g transform="translate(438.5 503.98725) scale(0.19 -0.19)">
      <defs>
       <path id="SimSun-65f6" d="M 4500 3600 
Q 4500 4575 4475 5225 
L 5100 4900 
L 4850 4725 
L 4850 3600 
L 5225 3600 
L 5550 3925 
L 6025 3450 
L 4850 3450 
L 4850 100 
Q 4850 -375 4300 -575 
Q 4275 -200 3475 -25 
L 3475 100 
Q 4150 0 4325 25 
Q 4500 50 4500 325 
L 4500 3450 
L 3200 3450 
Q 2875 3450 2600 3375 
L 2375 3600 
L 4500 3600 
z
M 2875 2825 
Q 3525 2375 3637 2200 
Q 3750 2025 3750 1925 
Q 3750 1800 3637 1637 
Q 3525 1475 3475 1475 
Q 3400 1475 3325 1775 
Q 3200 2225 2800 2750 
L 2875 2825 
z
M 925 4150 
L 925 2650 
L 1950 2650 
L 1950 4150 
L 925 4150 
z
M 925 2500 
L 925 900 
L 1950 900 
L 1950 2500 
L 925 2500 
z
M 2300 2000 
Q 2300 800 2325 450 
L 1950 250 
L 1950 750 
L 925 750 
L 925 225 
L 550 25 
Q 575 825 575 2425 
Q 575 4025 550 4500 
L 950 4300 
L 1900 4300 
L 2100 4550 
L 2500 4225 
L 2300 4050 
L 2300 2000 
z
" transform="scale(0.015625)"/>
       <path id="SimSun-95f4" d="M 2150 525 
Q 2175 1325 2175 2112 
Q 2175 2900 2150 3675 
L 2525 3450 
L 3750 3450 
L 4000 3700 
L 4325 3375 
L 4125 3200 
Q 4125 1550 4150 775 
L 3800 575 
L 3800 975 
L 2500 975 
L 2500 700 
L 2150 525 
z
M 2500 3300 
L 2500 2325 
L 3800 2325 
L 3800 3300 
L 2500 3300 
z
M 2500 2175 
L 2500 1125 
L 3800 1125 
L 3800 2175 
L 2500 2175 
z
M 1275 5200 
Q 1850 4825 1950 4675 
Q 2050 4525 2050 4425 
Q 2050 4275 1950 4137 
Q 1850 4000 1825 4000 
Q 1750 4000 1675 4275 
Q 1550 4650 1200 5125 
L 1275 5200 
z
M 1125 425 
Q 1125 25 1150 -375 
L 750 -525 
Q 775 -150 775 1950 
Q 775 4050 750 4425 
L 1350 4125 
L 1125 3975 
L 1125 425 
z
M 4225 125 
Q 5025 0 5125 37 
Q 5225 75 5225 250 
L 5225 4450 
L 3225 4450 
Q 2900 4450 2625 4375 
L 2400 4600 
L 5175 4600 
L 5425 4850 
L 5775 4500 
L 5575 4350 
L 5575 225 
Q 5575 -100 5462 -250 
Q 5350 -400 5000 -550 
Q 4800 -125 4225 25 
L 4225 125 
z
" transform="scale(0.015625)"/>
       <path id="SimSun-20" d="M 0 0 
Q 0 0 0 0 
z
" transform="scale(0.015625)"/>
       <path id="STIXGeneral-Regular-28" d="M 1946 -1030 
L 1869 -1133 
Q 1126 -710 716 32 
Q 307 774 307 1613 
Q 307 3386 1888 4326 
L 1946 4224 
Q 1293 3667 1075 3126 
Q 858 2586 858 1632 
Q 858 685 1082 96 
Q 1306 -493 1946 -1030 
z
" transform="scale(0.015625)"/>
       <path id="STIXGeneral-Regular-73" d="M 998 1926 
L 1664 1523 
Q 1984 1331 2105 1164 
Q 2227 998 2227 736 
Q 2227 416 1961 176 
Q 1696 -64 1331 -64 
Q 1030 -64 864 -6 
Q 691 51 570 51 
Q 461 51 416 -26 
L 333 -26 
L 333 979 
L 435 979 
Q 538 512 730 294 
Q 922 77 1248 77 
Q 1485 77 1632 211 
Q 1779 346 1779 550 
Q 1779 845 1440 1030 
L 1094 1222 
Q 326 1651 326 2150 
Q 326 2522 566 2730 
Q 806 2938 1210 2938 
Q 1491 2938 1638 2867 
Q 1754 2816 1818 2816 
Q 1862 2816 1920 2880 
L 1990 2880 
L 2022 2010 
L 1926 2010 
Q 1818 2445 1654 2621 
Q 1491 2797 1203 2797 
Q 986 2797 854 2688 
Q 723 2579 723 2362 
Q 723 2253 796 2128 
Q 870 2003 998 1926 
z
" transform="scale(0.015625)"/>
       <path id="STIXGeneral-Regular-29" d="M 186 4224 
L 262 4326 
Q 992 3891 1408 3148 
Q 1824 2406 1824 1581 
Q 1824 -166 243 -1133 
L 186 -1030 
Q 845 -486 1059 54 
Q 1274 595 1274 1562 
Q 1274 2534 1059 3120 
Q 845 3706 186 4224 
z
" transform="scale(0.015625)"/>
      </defs>
      <use xlink:href="#SimSun-65f6" transform="translate(0 0.359375)"/>
      <use xlink:href="#SimSun-95f4" transform="translate(100 0.359375)"/>
      <use xlink:href="#SimSun-20" transform="translate(200 0.359375)"/>
      <use xlink:href="#STIXGeneral-Regular-28" transform="translate(250 0.359375)"/>
      <use xlink:href="#STIXGeneral-Regular-73" transform="translate(283.299988 0.359375)"/>
      <use xlink:href="#STIXGeneral-Regular-29" transform="translate(322.199982 0.359375)"/>
     </g>
    </g>
   </g>
   <g id="matplotlib.axis_2">
    <g id="ytick_1">
     <g id="line2d_11">
      <defs>
       <path id="me5abd01b7f" d="M 0 0 
L -3.5 0 
" style="stroke: #000000; stroke-width: 0.8"/>
      </defs>
      <g>
       <use xlink:href="#me5abd01b7f" x="115.2" y="461.376" style="stroke: #000000; stroke-width: 0.8"/>
      </g>
     </g>
     <g id="text_12">
      <!-- 0 -->
      <g transform="translate(98.7 468.167016) scale(0.19 -0.19)">
       <use xlink:href="#SimSun-30"/>
      </g>
     </g>
    </g>
    <g id="ytick_2">
     <g id="line2d_12">
      <g>
       <use xlink:href="#me5abd01b7f" x="115.2" y="421.4592" style="stroke: #000000; stroke-width: 0.8"/>
      </g>
     </g>
     <g id="text_13">
      <!-- 10 -->
      <g transform="translate(89.2 428.250216) scale(0.19 -0.19)">
       <use xlink:href="#SimSun-31"/>
       <use xlink:href="#SimSun-30" x="50"/>
      </g>
     </g>
    </g>
    <g id="ytick_3">
     <g id="line2d_13">
      <g>
       <use xlink:href="#me5abd01b7f" x="115.2" y="381.5424" style="stroke: #000000; stroke-width: 0.8"/>
      </g>
     </g>
     <g id="text_14">
      <!-- 20 -->
      <g transform="translate(89.2 388.333416) scale(0.19 -0.19)">
       <use xlink:href="#SimSun-32"/>
       <use xlink:href="#SimSun-30" x="50"/>
      </g>
     </g>
    </g>
    <g id="ytick_4">
     <g id="line2d_14">
      <g>
       <use xlink:href="#me5abd01b7f" x="115.2" y="341.6256" style="stroke: #000000; stroke-width: 0.8"/>
      </g>
     </g>
     <g id="text_15">
      <!-- 30 -->
      <g transform="translate(89.2 348.416616) scale(0.19 -0.19)">
       <use xlink:href="#SimSun-33"/>
       <use xlink:href="#SimSun-30" x="50"/>
      </g>
     </g>
    </g>
    <g id="ytick_5">
     <g id="line2d_15">
      <g>
       <use xlink:href="#me5abd01b7f" x="115.2" y="301.7088" style="stroke: #000000; stroke-width: 0.8"/>
      </g>
     </g>
     <g id="text_16">
      <!-- 40 -->
      <g transform="translate(89.2 308.499816) scale(0.19 -0.19)">
       <use xlink:href="#SimSun-34"/>
       <use xlink:href="#SimSun-30" x="50"/>
      </g>
     </g>
    </g>
    <g id="ytick_6">
     <g id="line2d_16">
      <g>
       <use xlink:href="#me5abd01b7f" x="115.2" y="261.792" style="stroke: #000000; stroke-width: 0.8"/>
      </g>
     </g>
     <g id="text_17">
      <!-- 50 -->
      <g transform="translate(89.2 268.583016) scale(0.19 -0.19)">
       <use xlink:href="#SimSun-35"/>
       <use xlink:href="#SimSun-30" x="50"/>
      </g>
     </g>
    </g>
    <g id="ytick_7">
     <g id="line2d_17">
      <g>
       <use xlink:href="#me5abd01b7f" x="115.2" y="221.8752" style="stroke: #000000; stroke-width: 0.8"/>
      </g>
     </g>
     <g id="text_18">
      <!-- 60 -->
      <g transform="translate(89.2 228.666216) scale(0.19 -0.19)">
       <use xlink:href="#SimSun-36"/>
       <use xlink:href="#SimSun-30" x="50"/>
      </g>
     </g>
    </g>
    <g id="ytick_8">
     <g id="line2d_18">
      <g>
       <use xlink:href="#me5abd01b7f" x="115.2" y="181.9584" style="stroke: #000000; stroke-width: 0.8"/>
      </g>
     </g>
     <g id="text_19">
      <!-- 70 -->
      <g transform="translate(89.2 188.749416) scale(0.19 -0.19)">
       <use xlink:href="#SimSun-37"/>
       <use xlink:href="#SimSun-30" x="50"/>
      </g>
     </g>
    </g>
    <g id="ytick_9">
     <g id="line2d_19">
      <g>
       <use xlink:href="#me5abd01b7f" x="115.2" y="142.0416" style="stroke: #000000; stroke-width: 0.8"/>
      </g>
     </g>
     <g id="text_20">
      <!-- 80 -->
      <g transform="translate(89.2 148.832616) scale(0.19 -0.19)">
       <use xlink:href="#SimSun-38"/>
       <use xlink:href="#SimSun-30" x="50"/>
      </g>
     </g>
    </g>
    <g id="ytick_10">
     <g id="line2d_20">
      <g>
       <use xlink:href="#me5abd01b7f" x="115.2" y="102.1248" style="stroke: #000000; stroke-width: 0.8"/>
      </g>
     </g>
     <g id="text_21">
      <!-- 90 -->
      <g transform="translate(89.2 108.915816) scale(0.19 -0.19)">
       <use xlink:href="#SimSun-39"/>
       <use xlink:href="#SimSun-30" x="50"/>
      </g>
     </g>
    </g>
    <g id="ytick_11">
     <g id="line2d_21">
      <g>
       <use xlink:href="#me5abd01b7f" x="115.2" y="62.208" style="stroke: #000000; stroke-width: 0.8"/>
      </g>
     </g>
     <g id="text_22">
      <!-- 100 -->
      <g transform="translate(79.7 68.999016) scale(0.19 -0.19)">
       <use xlink:href="#SimSun-31"/>
       <use xlink:href="#SimSun-30" x="50"/>
       <use xlink:href="#SimSun-30" x="100"/>
      </g>
     </g>
    </g>
    <g id="text_23">
     <!-- 读取命中率 $\mathrm{(\%)}$ -->
     <g transform="translate(72.28 327.532) rotate(-90) scale(0.19 -0.19)">
      <defs>
       <path id="SimSun-8bfb" d="M 1450 275 
L 2375 850 
L 2425 775 
Q 1600 50 1325 -325 
L 1025 50 
Q 1125 175 1125 400 
L 1125 2850 
L 1050 2850 
Q 725 2850 450 2775 
L 225 3000 
L 1125 3000 
L 1350 3225 
L 1675 2900 
L 1450 2725 
L 1450 275 
z
M 750 4925 
L 800 5000 
Q 1150 4800 1387 4600 
Q 1625 4400 1587 4200 
Q 1550 4000 1400 3925 
Q 1250 3850 1175 4200 
Q 1100 4525 750 4925 
z
M 5100 2700 
L 5425 3325 
L 2575 3325 
Q 2375 3325 2100 3250 
L 1875 3475 
L 3650 3475 
L 3650 4250 
L 3025 4250 
Q 2700 4250 2425 4175 
L 2200 4400 
L 3650 4400 
Q 3650 4825 3625 5250 
L 4175 5000 
L 3975 4825 
L 3975 4400 
L 4875 4400 
L 5150 4675 
L 5550 4250 
L 3975 4250 
L 3975 3475 
L 5375 3475 
L 5625 3750 
L 6075 3300 
Q 5725 3275 5200 2650 
L 5100 2700 
z
M 2750 2925 
L 2775 3000 
Q 3350 2825 3462 2687 
Q 3575 2550 3575 2450 
Q 3575 2350 3512 2250 
Q 3450 2150 3425 2150 
Q 3350 2150 3275 2350 
Q 3125 2625 2750 2925 
z
M 2375 2275 
Q 2975 2075 3100 1950 
Q 3225 1825 3225 1700 
Q 3225 1625 3162 1512 
Q 3100 1400 3075 1400 
Q 3000 1400 2900 1625 
Q 2725 1925 2350 2200 
L 2375 2275 
z
M 4475 2625 
Q 4425 1550 4350 1175 
L 5275 1175 
L 5600 1500 
L 6050 1025 
L 4325 1025 
Q 4250 825 4125 575 
Q 4850 350 5200 150 
Q 5550 -50 5600 -237 
Q 5650 -425 5587 -500 
Q 5525 -575 5475 -575 
Q 5350 -575 5175 -325 
Q 4925 25 4075 475 
Q 3425 -425 1975 -650 
L 1950 -550 
Q 3600 -100 3975 1025 
L 2700 1025 
Q 2500 1025 2225 950 
L 2000 1175 
L 4000 1175 
Q 4100 1800 4100 3075 
L 4675 2800 
L 4475 2625 
z
" transform="scale(0.015625)"/>
       <path id="SimSun-53d6" d="M 1300 2225 
L 1300 1125 
L 2425 1350 
L 2425 2225 
L 1300 2225 
z
M 2750 1225 
Q 2750 100 2775 -350 
L 2400 -575 
Q 2425 125 2425 1150 
Q 775 700 575 425 
L 325 925 
Q 625 975 975 1050 
L 975 4650 
L 775 4650 
L 525 4600 
L 325 4800 
L 2675 4800 
L 2975 5100 
L 3425 4650 
L 2750 4650 
L 2750 1425 
L 3500 1575 
L 3525 1475 
L 2750 1225 
z
M 1300 4650 
L 1300 3600 
L 2425 3600 
L 2425 4650 
L 1300 4650 
z
M 2425 3450 
L 1300 3450 
L 1300 2375 
L 2425 2375 
L 2425 3450 
z
M 2925 4175 
L 5050 4175 
L 5250 4425 
L 5700 4075 
L 5475 3925 
Q 5100 2350 4550 1275 
Q 5200 375 6100 125 
L 6100 25 
Q 5775 -25 5600 -275 
Q 4875 225 4375 975 
Q 3700 25 2825 -525 
L 2775 -450 
Q 3650 325 4175 1250 
Q 3650 2625 3525 4025 
L 3350 4025 
L 3125 3975 
L 2925 4175 
z
M 3650 4025 
Q 3900 2525 4350 1600 
Q 4825 2650 5075 4025 
L 3650 4025 
z
" transform="scale(0.015625)"/>
       <path id="SimSun-547d" d="M 1775 3150 
L 3650 3150 
L 3950 3450 
L 4400 3000 
L 2550 3000 
Q 2225 3000 2000 2925 
L 1775 3150 
z
M 1450 2125 
L 1450 575 
L 2400 575 
L 2400 2125 
L 1450 2125 
z
M 1100 -250 
Q 1125 525 1125 1125 
Q 1125 1725 1100 2500 
L 1450 2275 
L 2350 2275 
L 2525 2500 
L 2900 2200 
L 2725 2050 
Q 2725 550 2750 150 
L 2400 0 
L 2400 425 
L 1450 425 
L 1450 -100 
L 1100 -250 
z
M 3775 2175 
L 3775 -450 
L 3425 -625 
Q 3450 75 3450 1050 
Q 3450 2025 3425 2550 
L 3775 2325 
L 4825 2325 
L 5000 2575 
L 5400 2275 
L 5200 2100 
L 5200 525 
Q 5225 75 4700 -125 
Q 4700 150 4025 325 
L 4025 425 
Q 4550 375 4712 375 
Q 4875 375 4875 700 
L 4875 2175 
L 3775 2175 
z
M 2975 5275 
L 3475 4900 
L 3250 4725 
Q 3750 4025 4450 3625 
Q 5150 3225 6125 3075 
L 6125 2975 
Q 5700 2950 5550 2625 
Q 4650 3050 4112 3500 
Q 3575 3950 3150 4650 
Q 2600 3900 1962 3362 
Q 1325 2825 275 2425 
L 225 2525 
Q 1250 2975 1962 3750 
Q 2675 4525 2975 5275 
z
" transform="scale(0.015625)"/>
       <path id="SimSun-4e2d" d="M 3325 3625 
L 3325 1975 
L 5125 1975 
L 5125 3625 
L 3325 3625 
z
M 2950 3775 
Q 2950 4750 2925 5250 
L 3525 4975 
L 3325 4775 
L 3325 3775 
L 5075 3775 
L 5275 4075 
L 5700 3750 
L 5475 3550 
L 5475 2100 
Q 5475 1825 5500 1525 
L 5125 1375 
L 5125 1825 
L 3325 1825 
Q 3325 -75 3350 -400 
L 2925 -625 
Q 2950 -50 2950 1825 
L 1225 1825 
L 1225 1525 
L 850 1325 
Q 875 1775 875 2625 
Q 875 3475 850 4000 
L 1225 3775 
L 2950 3775 
z
M 1225 3625 
L 1225 1975 
L 2950 1975 
L 2950 3625 
L 1225 3625 
z
" transform="scale(0.015625)"/>
       <path id="SimSun-7387" d="M 875 3725 
L 925 3800 
Q 1375 3650 1550 3525 
Q 1725 3400 1725 3250 
Q 1725 3175 1662 3025 
Q 1600 2875 1550 2875 
Q 1500 2875 1425 3050 
Q 1275 3325 875 3725 
z
M 550 1850 
Q 875 1925 2000 2575 
L 2050 2500 
Q 1675 2225 1337 1937 
Q 1000 1650 875 1425 
L 550 1850 
z
M 5200 3450 
Q 4800 3150 4275 2800 
L 4225 2875 
Q 4775 3400 5050 3925 
L 5450 3525 
L 5200 3450 
z
M 4325 2500 
L 4350 2575 
Q 5225 2350 5375 2212 
Q 5525 2075 5525 1900 
Q 5525 1775 5487 1662 
Q 5450 1550 5400 1550 
Q 5325 1550 5200 1800 
Q 4975 2150 4325 2500 
z
M 3150 3900 
Q 2500 3300 2300 3150 
Q 2800 3150 3400 3175 
Q 3700 3500 3850 3825 
L 4250 3450 
Q 4050 3400 3450 2825 
Q 2850 2250 2475 1950 
Q 3150 1975 3850 2000 
Q 3750 2175 3550 2450 
L 3600 2500 
Q 4050 2250 4200 2100 
Q 4350 1950 4350 1850 
Q 4350 1775 4250 1625 
Q 4150 1475 4100 1475 
Q 4075 1475 4050 1550 
Q 4000 1700 3900 1900 
Q 3650 1875 3075 1800 
L 3500 1550 
L 3325 1425 
L 3325 975 
L 5325 975 
L 5650 1300 
L 6100 825 
L 3325 825 
Q 3325 -275 3350 -525 
L 2975 -650 
Q 3000 0 3000 825 
L 1125 825 
Q 800 825 525 750 
L 300 975 
L 3000 975 
L 3000 1775 
Q 2450 1700 2200 1525 
L 1950 1950 
Q 2275 1950 2675 2350 
Q 3075 2750 3325 3050 
Q 2400 2950 2150 2775 
L 1950 3175 
Q 2150 3150 2475 3575 
Q 2800 4000 2900 4225 
L 1450 4225 
Q 1125 4225 850 4150 
L 625 4375 
L 3100 4375 
Q 3050 4800 2675 5200 
L 2725 5250 
Q 3225 5050 3337 4912 
Q 3450 4775 3450 4700 
Q 3450 4550 3250 4375 
L 5025 4375 
L 5350 4675 
L 5775 4225 
L 3050 4225 
L 3375 3950 
L 3150 3900 
z
" transform="scale(0.015625)"/>
       <path id="STIXGeneral-Regular-25" d="M 4390 1363 
Q 4390 781 4070 329 
Q 3750 -122 3341 -122 
Q 3014 -122 2790 134 
Q 2566 390 2566 762 
Q 2566 1274 2940 1693 
Q 3315 2112 3776 2112 
Q 4070 2112 4230 1917 
Q 4390 1722 4390 1363 
z
M 4243 1376 
Q 4243 1626 4131 1779 
Q 4019 1933 3840 1933 
Q 3654 1933 3526 1786 
Q 3315 1562 3171 1187 
Q 3027 813 3027 486 
Q 3027 301 3129 176 
Q 3232 51 3386 51 
Q 3718 51 3980 457 
Q 4243 864 4243 1376 
z
M 3974 4518 
L 1222 -115 
L 922 -115 
L 3443 4096 
Q 3264 3891 3094 3811 
Q 2925 3731 2669 3731 
Q 2445 3731 2182 3821 
Q 2208 3674 2208 3539 
Q 2208 3206 2067 2873 
Q 1926 2541 1696 2323 
Q 1453 2086 1146 2086 
Q 826 2086 608 2339 
Q 390 2592 390 2963 
Q 390 3507 761 3916 
Q 1133 4326 1626 4326 
Q 1792 4326 2010 4147 
Q 2310 3898 2624 3898 
Q 2918 3898 3084 3994 
Q 3251 4090 3693 4518 
L 3974 4518 
z
M 2054 3642 
Q 2054 3782 2025 3833 
Q 1997 3885 1894 3936 
Q 1747 4006 1613 4154 
Q 1414 4058 1331 3984 
Q 1248 3910 1152 3750 
Q 845 3264 845 2707 
Q 845 2509 944 2384 
Q 1043 2259 1210 2259 
Q 1549 2259 1801 2675 
Q 2054 3091 2054 3642 
z
" transform="scale(0.015625)"/>
      </defs>
      <use xlink:href="#SimSun-8bfb" transform="translate(0 0.578125)"/>
      <use xlink:href="#SimSun-53d6" transform="translate(100 0.578125)"/>
      <use xlink:href="#SimSun-547d" transform="translate(200 0.578125)"/>
      <use xlink:href="#SimSun-4e2d" transform="translate(300 0.578125)"/>
      <use xlink:href="#SimSun-7387" transform="translate(400 0.578125)"/>
      <use xlink:href="#SimSun-20" transform="translate(500 0.578125)"/>
      <use xlink:href="#STIXGeneral-Regular-28" transform="translate(550 0.578125)"/>
      <use xlink:href="#STIXGeneral-Regular-25" transform="translate(583.299988 0.578125)"/>
      <use xlink:href="#STIXGeneral-Regular-29" transform="translate(657.999969 0.578125)"/>
     </g>
    </g>
   </g>
   <g id="line2d_22">
    <path d="M 115.9936 247.503781 
L 116.7872 212.313929 
L 117.564928 197.933902 
L 118.33472 188.642867 
L 119.104512 182.204687 
L 119.874304 176.932476 
L 121.413888 169.198995 
L 122.191616 166.435555 
L 122.961408 164.6385 
L 123.739136 162.415534 
L 124.516864 160.624068 
L 125.302528 158.223072 
L 126.080256 156.869494 
L 127.651584 153.154437 
L 128.437248 150.656843 
L 129.230848 149.89563 
L 130.024448 149.432595 
L 131.611648 145.782203 
L 132.413184 145.181056 
L 133.21472 143.703336 
L 134.016256 142.986431 
L 134.825728 142.718589 
L 135.627264 141.231289 
L 136.436736 140.048554 
L 138.05568 138.704156 
L 138.873088 137.976074 
L 139.690496 136.417323 
L 140.507904 136.00139 
L 141.325312 134.962356 
L 142.968064 134.161225 
L 143.793408 132.550582 
L 144.618752 132.093535 
L 145.452032 131.422534 
L 146.285312 131.794957 
L 147.118592 130.54636 
L 147.951872 129.98513 
L 148.793088 129.639051 
L 149.626368 129.14528 
L 150.467584 128.357323 
L 151.3088 127.01053 
L 152.157952 126.968218 
L 152.999168 126.435329 
L 153.84832 125.764726 
L 154.697472 125.627812 
L 155.546624 125.771512 
L 156.403712 124.857817 
L 157.252864 124.855023 
L 158.117888 123.821577 
L 158.974976 122.483965 
L 159.84 122.360223 
L 160.705024 121.393039 
L 161.570048 122.619682 
L 162.443008 121.357912 
L 163.315968 120.929604 
L 164.188928 120.967925 
L 165.069824 119.704159 
L 165.942784 119.098222 
L 166.82368 119.418754 
L 167.704576 119.546487 
L 168.593408 118.391295 
L 169.48224 117.426905 
L 170.371072 117.368228 
L 171.259904 116.861683 
L 173.045504 117.156269 
L 173.942272 115.401926 
L 174.83904 115.758383 
L 175.735808 114.958051 
L 176.640512 116.12442 
L 177.53728 114.58922 
L 178.441984 115.109735 
L 179.346688 114.104231 
L 180.251392 113.531824 
L 181.156096 114.271083 
L 182.0608 112.616532 
L 182.97344 113.074377 
L 183.878144 112.95822 
L 185.703424 111.666512 
L 188.433408 111.075344 
L 189.346048 110.289781 
L 190.258688 110.633066 
L 191.171328 110.063453 
L 192.091904 110.299761 
L 193.004544 108.962947 
L 193.917184 108.917442 
L 194.83776 108.408503 
L 195.7504 108.968935 
L 196.670976 108.531846 
L 197.583616 107.741094 
L 198.504192 107.714749 
L 199.424768 108.123896 
L 200.337408 107.220978 
L 202.17856 106.892463 
L 203.099136 106.673719 
L 204.011776 106.24142 
L 204.932352 106.77391 
L 205.852928 106.597477 
L 206.773504 105.74685 
L 207.686144 105.768406 
L 208.60672 105.108182 
L 209.527296 104.9074 
L 210.447872 105.138119 
L 211.368448 104.651933 
L 212.29696 104.919774 
L 213.2096 103.768574 
L 214.138112 103.851202 
L 215.058688 103.029714 
L 215.9872 103.98652 
L 216.907776 103.52588 
L 217.836288 103.221314 
L 218.756864 103.371801 
L 219.685376 102.986604 
L 220.605952 102.991394 
L 221.534464 101.836202 
L 222.45504 101.751977 
L 223.383552 101.268185 
L 224.312064 101.433441 
L 225.240576 101.934796 
L 226.161152 101.873723 
L 227.089664 101.070198 
L 228.026112 101.071795 
L 228.946688 100.764435 
L 229.8752 100.032361 
L 230.803712 100.075471 
L 231.732224 100.29701 
L 232.668672 99.982465 
L 233.597184 99.49588 
L 234.525696 99.679098 
L 235.462144 99.003306 
L 236.398592 99.40926 
L 238.263552 98.621302 
L 239.2 98.382999 
L 240.136448 98.268837 
L 241.06496 98.576596 
L 242.001408 98.359448 
L 242.937856 98.355856 
L 243.874304 97.972255 
L 245.739264 97.419408 
L 246.675712 97.383882 
L 248.548608 96.820656 
L 249.485056 97.254152 
L 250.421504 96.704099 
L 251.365888 96.987508 
L 252.302336 96.342452 
L 253.238784 95.899775 
L 254.183168 95.065913 
L 255.127552 96.343251 
L 257.008384 95.611576 
L 257.944832 95.517771 
L 258.889216 94.833597 
L 259.825664 95.151734 
L 260.762112 94.632417 
L 261.714432 95.035177 
L 262.65088 94.298712 
L 263.587328 94.744583 
L 265.476096 93.992151 
L 266.42048 93.036543 
L 267.356928 93.79616 
L 268.301312 94.010912 
L 269.245696 93.630106 
L 270.19008 93.084443 
L 271.1424 93.413358 
L 272.086784 93.170264 
L 273.031168 92.810215 
L 273.975552 92.77908 
L 274.919936 92.871687 
L 276.808704 92.513633 
L 277.753088 92.508045 
L 278.705408 92.310856 
L 279.649792 91.851413 
L 281.53856 91.796727 
L 282.482944 92.434997 
L 283.435264 91.169235 
L 284.379648 91.555231 
L 285.331968 91.479788 
L 286.276352 91.533276 
L 287.228672 91.167638 
L 288.173056 91.448254 
L 289.125376 90.166525 
L 290.077696 90.573676 
L 291.02208 90.728554 
L 291.9744 90.625967 
L 292.918784 90.113436 
L 293.871104 89.869943 
L 294.823424 90.326991 
L 295.775744 89.072006 
L 296.720128 90.249951 
L 297.672448 89.347831 
L 298.616832 89.31031 
L 299.569152 89.631241 
L 300.521472 89.385353 
L 301.473792 89.604497 
L 302.426112 88.688805 
L 303.378432 88.658069 
L 305.283072 89.001354 
L 307.187712 88.683217 
L 308.147968 89.076397 
L 309.100288 88.580631 
L 310.052608 88.755067 
L 311.004928 88.274469 
L 311.957248 88.595799 
L 312.917504 87.840573 
L 313.869824 87.773912 
L 315.7824 88.050935 
L 316.73472 87.409472 
L 317.694976 87.877297 
L 318.655232 87.161189 
L 319.607552 87.654561 
L 320.567808 86.659435 
L 321.528064 87.51126 
L 322.480384 86.921289 
L 323.44064 86.81072 
L 324.400896 86.376026 
L 325.361152 86.820699 
L 326.313472 86.213564 
L 327.273728 86.575211 
L 328.226048 86.541281 
L 329.186304 85.882654 
L 330.14656 86.215959 
L 331.106816 86.366845 
L 332.059136 85.747735 
L 333.019392 86.0527 
L 333.987584 85.698638 
L 334.94784 86.138521 
L 335.90016 86.131336 
L 336.860416 85.671494 
L 338.780928 85.245981 
L 340.70144 85.268734 
L 341.669632 84.719479 
L 343.590144 85.402854 
L 344.5504 84.608909 
L 345.518592 85.057175 
L 346.478848 84.760992 
L 347.44704 84.21014 
L 348.407296 80.833578 
L 349.367552 84.234889 
L 350.335744 83.878831 
L 351.303936 83.850889 
L 352.264192 84.24367 
L 353.224448 84.068835 
L 354.19264 84.087995 
L 355.160832 83.630149 
L 356.129024 84.257641 
L 357.08928 83.206233 
L 358.057472 79.982552 
L 359.017728 83.604203 
L 359.98592 83.50481 
L 360.954112 83.642523 
L 361.914368 83.556303 
L 362.88256 82.757169 
L 364.818944 83.496428 
L 365.7792 83.025809 
L 366.747392 83.238565 
L 367.715584 82.466574 
L 368.683776 83.288461 
L 369.651968 83.017027 
L 370.62016 83.004653 
L 372.548608 82.711264 
L 373.524736 82.416279 
L 374.492928 82.377959 
L 375.46112 82.971522 
L 376.421376 82.459389 
L 377.389568 82.237851 
L 379.333888 82.689709 
L 381.262336 81.965219 
L 382.230528 82.129277 
L 383.19872 82.503697 
L 384.174848 82.268188 
L 385.135104 81.789585 
L 386.103296 82.47815 
L 387.071488 82.047448 
L 388.047616 81.884587 
L 389.015808 81.876205 
L 389.991936 81.342517 
L 391.936256 81.701369 
L 392.904448 81.121378 
L 395.824896 81.758051 
L 397.769216 81.282642 
L 398.737408 81.659856 
L 399.713536 80.786875 
L 400.681728 81.03396 
L 401.657856 80.882277 
L 402.626048 80.943349 
L 403.59424 81.123374 
L 405.546496 81.018792 
L 406.514688 80.835973 
L 407.48288 81.104214 
L 408.451072 84.041691 
L 409.4272 80.574917 
L 411.37152 80.554959 
L 412.347648 80.834376 
L 413.31584 80.198103 
L 415.26016 80.274344 
L 416.228352 79.924273 
L 417.196544 79.858011 
L 418.172672 80.399283 
L 420.116992 80.489096 
L 421.09312 80.715823 
L 422.069248 79.7674 
L 423.045376 80.373337 
L 424.013568 80.303084 
L 424.98176 79.960198 
L 425.949952 80.282726 
L 426.92608 79.802926 
L 427.894272 80.240015 
L 428.8704 79.779375 
L 429.838592 80.335416 
L 430.81472 80.018078 
L 432.766976 80.330227 
L 435.687424 79.835259 
L 436.655616 80.032448 
L 437.623808 79.687567 
L 438.599936 79.994926 
L 439.576064 79.770993 
L 440.552192 79.680382 
L 441.520384 80.332223 
L 442.496512 79.840448 
L 443.47264 79.905512 
L 445.41696 79.764207 
L 446.385152 79.991733 
L 447.36128 79.235309 
L 448.337408 79.888747 
L 450.281728 79.640465 
L 451.24992 79.727084 
L 453.202176 79.341887 
L 454.170368 79.712714 
L 455.146496 79.822086 
L 456.114688 79.492374 
L 457.090816 79.682378 
L 458.066944 79.651242 
L 459.035136 78.860091 
L 460.011264 79.650843 
L 460.979456 79.848831 
L 461.955584 79.265247 
L 462.923776 79.802926 
L 463.891968 79.068856 
L 464.868096 79.16785 
L 465.836288 79.579392 
L 466.80448 79.355459 
L 467.772672 79.611326 
L 468.740864 79.677188 
L 469.716992 79.161862 
L 470.685184 79.541072 
L 471.64544 79.435692 
L 472.613632 79.517521 
L 473.581824 79.054885 
L 474.557952 79.40775 
L 475.526144 78.983834 
L 477.454592 79.363442 
L 478.422784 78.712798 
L 479.398912 78.934736 
L 480.367104 79.430902 
L 483.27168 79.431301 
L 484.231936 79.83965 
L 485.200128 79.846036 
L 486.16832 79.337496 
L 487.136512 79.288399 
L 488.104704 79.56582 
L 489.072896 79.046902 
L 491.001344 79.58059 
L 491.969536 79.464033 
L 492.937728 79.770194 
L 493.90592 79.444074 
L 494.866176 79.813704 
L 495.834368 79.223334 
L 496.80256 79.45086 
L 497.770752 79.423318 
L 498.731008 79.151883 
L 500.659456 79.602145 
L 501.627648 79.579392 
L 502.587904 79.83007 
L 503.556096 78.975451 
L 505.484544 79.496764 
L 507.412992 79.707924 
L 508.381184 80.060789 
L 509.34144 79.605737 
L 510.309632 79.723492 
L 511.277824 80.020473 
L 512.230144 79.809712 
L 513.198336 79.066461 
L 514.158592 79.299575 
L 515.118848 79.370627 
L 516.079104 79.695949 
L 518.959872 79.177829 
L 519.920128 79.640465 
L 520.880384 79.167451 
L 521.84064 79.506344 
L 523.761152 79.689163 
L 524.713472 79.648847 
L 526.633984 79.740257 
L 527.59424 79.692357 
L 528.554496 79.810111 
L 529.49888 80.140622 
L 530.459136 79.542669 
L 531.419392 79.970577 
L 532.371712 80.256381 
L 533.331968 79.507143 
L 534.284288 80.287117 
L 535.244544 80.133837 
L 536.2048 80.29989 
L 537.15712 79.684773 
L 538.117376 79.802527 
L 539.069696 80.130244 
L 540.01408 80.145812 
L 540.9664 80.423233 
L 541.926656 80.057995 
L 542.878976 80.050011 
L 543.839232 79.908307 
L 544.791552 79.511933 
L 546.696192 80.404872 
L 547.648512 80.312265 
L 549.553152 80.664331 
L 550.505472 80.351383 
L 552.410112 80.373737 
L 553.362432 81.045137 
L 554.314752 80.38651 
L 555.267072 80.956522 
L 556.211456 80.418842 
L 558.116096 80.465545 
L 559.06048 80.857129 
L 560.0128 80.726601 
L 560.96512 81.213985 
L 561.909504 80.911815 
L 563.806208 81.036355 
L 564.750592 81.390018 
L 565.694976 81.064297 
L 566.647296 81.43233 
L 568.544 81.281445 
L 569.488384 81.833893 
L 572.321536 81.390018 
L 574.21824 81.81154 
L 576.107008 81.741286 
L 577.043456 82.472961 
L 577.98784 82.006733 
L 578.932224 82.194342 
L 580.820992 82.16161 
L 581.765376 81.810342 
L 582.70976 82.470167 
L 583.638272 81.653868 
L 584.582656 82.316487 
L 585.52704 82.530042 
L 586.471424 82.265394 
L 587.407872 82.271381 
L 589.280768 82.895281 
L 590.225152 82.836204 
L 591.1616 82.60309 
L 593.034496 82.638616 
L 593.970944 83.139172 
L 594.907392 82.67973 
L 595.84384 82.927613 
L 596.780288 82.903663 
L 597.7088 83.408212 
L 598.645248 82.964337 
L 599.581696 83.431363 
L 600.518144 83.246549 
L 601.454592 83.54832 
L 602.39104 83.443338 
L 603.319552 83.464095 
L 604.248064 83.707588 
L 605.184512 83.714773 
L 606.113024 84.27241 
L 607.049472 83.813766 
L 607.977984 83.906373 
L 608.914432 84.245267 
L 609.842944 84.101966 
L 610.771456 84.279196 
L 611.707904 84.153059 
L 612.636416 84.624876 
L 613.564928 80.979674 
L 614.49344 84.213733 
L 615.421952 84.35424 
L 616.350464 84.612901 
L 617.278976 84.634456 
L 618.207488 85.321025 
L 620.056576 84.817275 
L 620.985088 85.224027 
L 621.9136 84.979736 
L 623.762688 84.980934 
L 624.6912 85.494264 
L 625.611776 85.367727 
L 626.540288 85.05917 
L 627.4688 85.706621 
L 628.389376 85.143395 
L 629.309952 85.598446 
L 630.230528 85.585673 
L 631.151104 85.724983 
L 632.07168 86.170055 
L 632.992256 86.487394 
L 633.912832 86.212766 
L 634.833408 85.67349 
L 635.753984 86.31655 
L 636.666624 86.342895 
L 637.5872 86.543277 
L 638.507776 87.153605 
L 639.420416 86.765614 
L 640.340992 86.774795 
L 641.261568 86.999526 
L 643.094784 86.708932 
L 644.01536 86.618321 
L 644.928 87.233838 
L 645.848576 86.923684 
L 646.761216 86.891751 
L 647.681792 87.888074 
L 648.586496 86.934462 
L 649.507072 87.505272 
L 650.419712 87.759941 
L 651.332352 88.136357 
L 652.244992 88.06291 
L 653.157632 87.742777 
L 654.070272 88.092049 
L 654.974976 88.015808 
L 655.887616 88.274469 
L 656.800256 88.090053 
L 657.712896 88.094444 
L 658.625536 88.4034 
L 663.172864 88.645296 
L 664.077568 88.84488 
L 664.990208 88.709562 
L 666.799616 89.344239 
L 667.70432 89.553802 
L 668.609024 89.545819 
L 669.521664 89.354218 
L 670.418432 90.199257 
L 671.331072 89.77055 
L 672.22784 89.487141 
L 674.029312 90.105053 
L 674.934016 90.024022 
L 676.735488 90.067531 
L 677.632256 90.517793 
L 678.53696 90.477477 
L 679.441664 90.646724 
L 680.346368 90.607207 
L 681.243136 90.425984 
L 682.14784 91.196378 
L 683.044608 87.163185 
L 683.949312 91.141692 
L 684.84608 91.157659 
L 685.750784 92.010282 
L 686.647552 90.936121 
L 687.54432 91.247073 
L 688.441088 92.378714 
L 689.337856 91.802715 
L 690.234624 91.811097 
L 691.131392 91.969168 
L 692.924928 91.953999 
L 693.81376 92.29409 
L 694.710528 93.460459 
L 696.496128 92.70683 
L 697.38496 92.708826 
L 698.281728 92.846539 
L 700.059392 94.009315 
L 701.852928 95.102237 
L 702.74176 94.475544 
L 703.638528 95.585231 
L 704.52736 91.395962 
L 705.416192 95.556091 
L 706.305024 95.772041 
L 707.193856 95.813555 
L 708.090624 95.71975 
L 708.979456 95.833114 
L 709.868288 96.152848 
L 710.75712 96.810676 
L 711.638016 96.347642 
L 712.526848 96.561596 
L 713.41568 96.328881 
L 714.296576 96.776348 
L 715.185408 96.624664 
L 716.066304 97.076123 
L 716.9472 97.298061 
L 717.836032 96.953978 
L 718.716928 97.430584 
L 719.597824 97.191483 
L 720.486656 97.251757 
L 721.367552 97.599033 
L 722.256384 95.235959 
L 723.129344 101.06461 
L 724.01024 101.60668 
L 724.899072 102.588633 
L 725.772032 101.876518 
L 726.652928 102.411403 
L 727.533824 102.470879 
L 728.41472 102.386255 
L 730.176512 102.870446 
L 731.081216 102.705989 
L 731.962112 103.102762 
L 732.835072 103.184192 
L 733.715968 103.719476 
L 734.588928 102.789415 
L 735.469824 103.766578 
L 736.342784 104.035617 
L 737.215744 105.438693 
L 738.09664 107.368271 
L 738.9696 107.819331 
L 739.850496 107.363481 
L 740.723456 107.22457 
L 741.596416 107.700778 
L 742.477312 107.911938 
L 743.350272 109.205641 
L 744.223232 109.404028 
L 745.096192 108.751787 
L 745.969152 109.505416 
L 746.834176 109.667079 
L 747.707136 108.73143 
L 748.580096 109.561699 
L 749.44512 109.854289 
L 750.310144 112.668024 
L 751.183104 114.786409 
L 752.921088 114.937694 
L 753.786112 119.946853 
L 754.659072 114.786409 
L 755.524096 115.751198 
L 756.38912 115.916853 
L 757.246208 116.221019 
L 757.246208 116.221019 
" clip-path="url(#pae7808f83f)" style="fill: none; stroke: #ff0000; stroke-width: 1.5; stroke-linecap: square"/>
   </g>
   <g id="line2d_23">
    <path d="M 115.9936 279.085954 
L 116.779264 230.27609 
L 117.572864 203.958145 
L 118.342656 192.383471 
L 119.112448 185.303428 
L 119.88224 179.915458 
L 120.652032 175.329417 
L 122.191616 167.875753 
L 122.961408 166.241958 
L 123.739136 162.854619 
L 124.508928 161.802412 
L 125.294592 159.39503 
L 126.07232 158.189542 
L 126.857984 155.946617 
L 128.429312 152.638712 
L 129.214976 150.680793 
L 130.008576 150.614132 
L 130.802176 148.488962 
L 131.595776 147.152148 
L 132.397312 146.549005 
L 133.190912 144.999036 
L 133.992448 144.489697 
L 134.793984 142.811196 
L 135.59552 142.358939 
L 136.404992 140.97662 
L 137.214464 140.850483 
L 138.833408 138.1074 
L 139.650816 138.277446 
L 140.460288 136.94183 
L 141.277696 136.565813 
L 142.10304 135.896409 
L 143.745792 133.639513 
L 144.571136 133.213201 
L 145.388544 132.599281 
L 147.055104 131.939456 
L 147.880448 131.385411 
L 148.713728 130.053387 
L 149.554944 129.733255 
L 151.22944 128.416399 
L 152.070656 127.902271 
L 152.919808 127.096351 
L 155.459328 126.237741 
L 157.157632 125.276943 
L 158.01472 124.937251 
L 158.871808 123.561718 
L 159.728896 123.451947 
L 160.585984 123.188895 
L 161.443072 122.371 
L 162.30016 122.679557 
L 163.157248 121.397829 
L 164.014336 121.438544 
L 164.871424 121.157529 
L 165.736448 120.284948 
L 167.466496 119.896159 
L 169.20448 118.95532 
L 170.069504 118.468734 
L 170.942464 116.66649 
L 172.680448 117.59256 
L 173.545472 117.246082 
L 174.418432 116.195871 
L 175.299328 116.154358 
L 176.172288 115.358816 
L 177.045248 116.212636 
L 178.799104 114.935299 
L 179.672064 114.468671 
L 180.545024 114.204422 
L 181.42592 113.614452 
L 182.306816 113.948555 
L 183.187712 113.424448 
L 184.068608 113.133055 
L 184.949504 112.61733 
L 185.8304 112.56943 
L 186.711296 111.941539 
L 189.36192 111.165157 
L 190.242816 111.532391 
L 191.131648 110.612309 
L 192.02048 110.841432 
L 192.909312 110.189989 
L 193.798144 109.21562 
L 194.686976 108.916244 
L 195.575808 109.903387 
L 196.46464 109.008851 
L 197.353472 108.681134 
L 198.25024 108.152636 
L 200.03584 108.48634 
L 200.924672 107.665651 
L 201.82144 107.996561 
L 202.718208 107.304404 
L 203.614976 106.784687 
L 204.511744 106.968305 
L 205.400576 107.290832 
L 206.297344 107.069693 
L 207.194112 105.665819 
L 208.09088 105.736472 
L 210.797056 105.501362 
L 211.693824 105.035932 
L 213.495296 104.380898 
L 214.392064 104.344573 
L 215.296768 103.910678 
L 216.201472 104.488274 
L 217.106176 103.948998 
L 218.002944 103.888324 
L 218.907648 104.089904 
L 219.812352 102.884816 
L 220.717056 102.708384 
L 221.613824 102.116417 
L 222.526464 102.434155 
L 223.431168 101.470164 
L 224.327936 101.397516 
L 225.23264 102.500018 
L 226.137344 101.648992 
L 227.049984 101.508485 
L 227.962624 101.836202 
L 228.867328 101.548401 
L 229.779968 100.869017 
L 231.589376 100.299405 
L 232.502016 99.853534 
L 233.40672 100.526531 
L 234.31936 100.338922 
L 235.232 99.93696 
L 236.136704 99.742965 
L 237.049344 98.691955 
L 237.954048 99.407264 
L 238.866688 98.666408 
L 239.779328 99.414449 
L 240.691968 98.561028 
L 241.612544 99.196903 
L 242.525184 99.06398 
L 243.437824 98.340288 
L 245.27104 98.163457 
L 246.18368 97.707607 
L 248.937472 97.180306 
L 249.858048 93.027362 
L 250.770688 97.583466 
L 251.691264 96.981919 
L 252.61184 97.182701 
L 254.452992 96.083791 
L 255.373568 96.63145 
L 256.286208 96.624664 
L 257.21472 96.04627 
L 259.047936 95.432349 
L 259.968512 95.668258 
L 260.889088 94.928599 
L 261.809664 95.480649 
L 262.738176 95.219593 
L 263.658752 95.091859 
L 264.579328 94.551386 
L 265.50784 94.887485 
L 266.428416 93.933074 
L 267.356928 94.111902 
L 268.277504 93.896351 
L 269.206016 93.962214 
L 270.126592 93.585 
L 271.055104 93.834081 
L 271.967744 93.550671 
L 272.896256 93.732692 
L 273.824768 92.982655 
L 274.745344 92.486889 
L 275.673856 93.603761 
L 276.602368 92.663321 
L 277.53088 93.177449 
L 278.451456 92.360752 
L 279.379968 92.350373 
L 280.30848 92.520818 
L 282.165504 91.520902 
L 283.094016 91.854607 
L 284.022528 91.92486 
L 284.95104 92.507246 
L 286.808064 91.383189 
L 287.736576 91.186399 
L 288.673024 90.82635 
L 289.601536 90.738932 
L 290.530048 91.409135 
L 292.395008 90.336571 
L 293.331456 91.081019 
L 294.259968 89.843598 
L 295.18848 90.465901 
L 296.124928 89.951374 
L 297.05344 89.912255 
L 298.9184 89.575357 
L 299.854848 89.794101 
L 300.791296 89.744205 
L 301.727744 89.249636 
L 302.656256 89.724247 
L 303.592704 89.176189 
L 304.529152 89.461594 
L 305.457664 88.947865 
L 306.394112 84.776959 
L 307.322624 89.314301 
L 308.259072 88.720739 
L 309.19552 89.009736 
L 310.131968 89.043665 
L 311.06048 88.033371 
L 311.988992 88.107617 
L 312.92544 88.668048 
L 313.861888 87.578719 
L 314.798336 88.065305 
L 315.726848 91.610316 
L 316.663296 87.989064 
L 317.599744 87.679708 
L 318.536192 87.02627 
L 319.464704 87.278944 
L 320.401152 87.385921 
L 321.3376 87.053414 
L 322.274048 87.104906 
L 324.15488 86.980765 
L 325.091328 86.324932 
L 326.027776 86.543676 
L 326.964224 86.593971 
L 328.83712 85.833157 
L 329.773568 85.945323 
L 330.710016 85.612817 
L 331.646464 86.295793 
L 332.590848 85.928558 
L 333.527296 86.195203 
L 335.392256 85.667503 
L 337.273088 85.757714 
L 338.209536 85.536975 
L 339.15392 84.975744 
L 340.090368 84.707903 
L 341.026816 85.069549 
L 341.9712 84.916668 
L 342.907648 84.050872 
L 343.852032 84.875553 
L 344.78848 84.897907 
L 345.724928 83.961059 
L 346.661376 84.662398 
L 347.60576 84.141882 
L 348.550144 84.482373 
L 349.486592 83.705193 
L 350.430976 84.254049 
L 351.367424 84.002573 
L 352.303872 87.7795 
L 353.248256 83.37069 
L 354.184704 83.540336 
L 355.129088 83.594224 
L 356.065536 83.280079 
L 357.946368 82.949967 
L 358.890752 83.244952 
L 359.8272 83.408212 
L 360.763648 82.922823 
L 362.636544 82.773135 
L 363.580928 83.200245 
L 364.517376 82.308903 
L 365.46176 82.565568 
L 366.398208 82.380354 
L 368.27904 82.683323 
L 370.159872 82.452204 
L 371.104256 81.973602 
L 372.04864 81.994758 
L 372.985088 82.202724 
L 373.929472 81.53771 
L 374.86592 81.246318 
L 375.810304 81.785594 
L 376.754688 82.181568 
L 377.691136 81.915722 
L 378.63552 81.198817 
L 379.579904 81.365669 
L 380.516352 81.678617 
L 382.397184 80.671915 
L 383.341568 80.621221 
L 384.285952 80.916605 
L 385.2224 80.782485 
L 386.166784 81.086651 
L 387.103232 80.313063 
L 388.047616 80.019674 
L 389.928448 80.566535 
L 390.864896 80.19451 
L 391.80928 80.195708 
L 392.745728 79.912298 
L 393.690112 79.802527 
L 394.62656 80.032847 
L 395.570944 79.876373 
L 396.507392 80.240414 
L 397.451776 79.346278 
L 399.324672 79.650045 
L 400.269056 78.849713 
L 401.205504 79.673596 
L 402.141952 79.103983 
L 403.086336 79.440083 
L 405.903616 78.575485 
L 406.840064 79.150287 
L 407.776512 79.329912 
L 408.71296 79.219742 
L 409.649408 78.632566 
L 410.585856 78.78864 
L 411.53024 78.284491 
L 412.466688 78.573489 
L 414.339584 78.085306 
L 415.283968 78.204258 
L 416.220416 77.937215 
L 417.156864 78.056965 
L 418.093312 77.921647 
L 419.966208 78.222221 
L 420.902656 78.32321 
L 421.839104 77.471386 
L 422.775552 77.223103 
L 424.648448 77.724059 
L 425.584896 77.57038 
L 426.513408 77.596326 
L 427.449856 77.046671 
L 428.386304 76.978014 
L 430.2592 77.18638 
L 431.187712 76.892992 
L 432.12416 76.833915 
L 433.060608 77.079403 
L 433.98912 76.687819 
L 434.925568 77.088983 
L 435.85408 76.257915 
L 436.790528 76.578846 
L 437.71904 76.514979 
L 438.655488 72.346867 
L 439.584 76.182473 
L 440.520448 76.247537 
L 441.44896 76.588426 
L 442.385408 76.185666 
L 443.321856 76.119404 
L 444.258304 76.176884 
L 445.186816 76.026398 
L 446.123264 75.594897 
L 447.051776 76.209217 
L 447.988224 76.15972 
L 448.916736 75.802864 
L 451.710208 75.407687 
L 452.63872 75.464369 
L 453.567232 75.071189 
L 454.495744 75.532228 
L 455.432192 75.189343 
L 456.360704 75.31029 
L 457.289216 75.197725 
L 459.14624 75.314681 
L 460.074752 74.889967 
L 461.0112 74.778998 
L 461.939712 74.953434 
L 462.868224 74.434516 
L 463.796736 74.95064 
L 465.645824 74.490799 
L 466.574336 74.455672 
L 467.502848 74.812129 
L 468.43136 74.125959 
L 469.359872 74.486807 
L 470.288384 74.519539 
L 472.137472 73.853327 
L 473.065984 74.071672 
L 474.915072 74.050117 
L 475.835648 73.908412 
L 477.684736 72.856605 
L 478.613248 73.770699 
L 481.382912 73.480105 
L 482.311424 73.667315 
L 483.232 72.83026 
L 484.160512 72.551241 
L 485.081088 73.417835 
L 486.0096 73.718808 
L 486.930176 73.40107 
L 487.850752 73.4825 
L 489.691904 72.869378 
L 490.61248 72.832655 
L 491.52512 73.225835 
L 493.366272 73.03144 
L 494.286848 73.077744 
L 495.207424 72.674185 
L 496.128 73.185918 
L 497.048576 72.301362 
L 497.969152 72.395965 
L 498.889728 73.045411 
L 499.810304 72.422709 
L 500.722944 72.67658 
L 501.64352 72.308547 
L 502.55616 72.477395 
L 503.476736 72.242285 
L 504.389376 72.270626 
L 505.309952 71.943708 
L 506.222592 72.344073 
L 507.135232 72.190793 
L 508.055808 71.91377 
L 508.968448 72.390377 
L 509.889024 71.945304 
L 510.801664 71.815974 
L 511.714304 71.873055 
L 512.63488 72.209154 
L 513.54752 71.369704 
L 514.468096 71.82715 
L 515.380736 71.370103 
L 516.301312 71.57288 
L 517.213952 70.99728 
L 518.126592 70.978519 
L 519.039232 71.199259 
L 519.951872 71.059151 
L 520.864512 71.244764 
L 521.777152 70.974528 
L 523.602432 70.951376 
L 524.515072 70.822844 
L 525.419776 70.966943 
L 526.332416 71.242769 
L 527.245056 70.684732 
L 528.157696 71.267517 
L 529.0624 70.782129 
L 529.967104 70.440042 
L 532.689152 70.637231 
L 533.601792 70.58494 
L 534.506496 69.929506 
L 535.419136 70.009339 
L 536.32384 70.223293 
L 541.752064 70.056441 
L 542.648832 70.387351 
L 543.553536 69.711161 
L 544.45824 69.990978 
L 545.355008 69.718745 
L 546.259712 69.830911 
L 547.164416 69.551494 
L 548.06912 69.722737 
L 549.870592 69.763851 
L 550.76736 69.801373 
L 553.473536 69.203419 
L 554.37824 69.506388 
L 555.282944 69.228567 
L 556.171776 69.656475 
L 557.07648 69.003835 
L 557.973248 69.187852 
L 558.877952 68.951544 
L 559.77472 69.046546 
L 562.457088 68.805449 
L 563.353856 69.206213 
L 564.250624 68.725216 
L 565.147392 68.697274 
L 566.04416 69.153523 
L 566.932992 68.57433 
L 567.82976 68.400293 
L 568.726528 68.377541 
L 569.623296 68.638996 
L 570.520064 68.365166 
L 571.416832 68.883686 
L 572.305664 68.492102 
L 574.091264 68.493698 
L 574.980096 68.83818 
L 576.765696 68.375545 
L 577.654528 68.158397 
L 578.54336 68.265374 
L 579.432192 67.831479 
L 580.321024 67.965599 
L 581.217792 67.753242 
L 582.106624 67.760826 
L 582.995456 68.10451 
L 583.876352 68.111296 
L 584.765184 67.82629 
L 586.542848 68.035454 
L 588.320512 67.263862 
L 589.201408 67.208378 
L 590.082304 67.537292 
L 590.971136 67.237118 
L 591.859968 67.40397 
L 594.518528 67.250689 
L 595.399424 67.443088 
L 597.169152 67.422332 
L 598.050048 67.354872 
L 598.930944 67.148502 
L 599.819776 67.156885 
L 600.700672 67.320145 
L 601.589504 67.065475 
L 603.351296 67.190814 
L 604.232192 66.887846 
L 605.113088 66.863097 
L 605.993984 66.501052 
L 606.87488 66.8619 
L 607.755776 67.003205 
L 608.636672 66.812004 
L 610.398464 66.679879 
L 611.271424 66.549351 
L 612.144384 66.893035 
L 613.02528 66.411638 
L 613.906176 66.580087 
L 616.525056 66.295879 
L 617.398016 66.503048 
L 618.278912 66.327015 
L 619.151872 66.680278 
L 620.024832 66.295879 
L 620.897792 66.06516 
L 621.770752 66.504245 
L 622.643712 66.277119 
L 623.516672 66.202474 
L 624.389632 65.894716 
L 626.135552 66.102283 
L 627.008512 65.887131 
L 627.881472 66.028836 
L 628.746496 65.57139 
L 629.619456 65.804903 
L 634.825472 65.889526 
L 635.690496 65.613302 
L 637.420544 65.534267 
L 638.293504 65.684753 
L 639.158528 65.635256 
L 640.015616 65.239681 
L 640.872704 65.739838 
L 642.610688 65.26403 
L 644.3328 65.473993 
L 645.197824 65.222916 
L 646.054912 69.462479 
L 646.919936 65.378192 
L 647.777024 65.114342 
L 649.499136 65.420903 
L 650.356224 64.864862 
L 652.0704 65.10117 
L 652.927488 65.408928 
L 655.506688 65.137494 
L 656.363776 65.299556 
L 657.220864 65.086001 
L 658.070016 65.048479 
L 658.927104 64.753095 
L 659.784192 64.720763 
L 661.490432 65.065644 
L 664.045824 64.945893 
L 664.894976 64.898791 
L 665.752064 64.992596 
L 666.601216 64.637736 
L 667.450368 64.561095 
L 668.29952 64.905977 
L 669.997824 64.734334 
L 670.846976 64.380671 
L 671.704064 64.416996 
L 672.553216 64.719565 
L 673.402368 64.495632 
L 674.25152 64.531956 
L 675.100672 64.800596 
L 676.79104 64.391848 
L 677.632256 69.085265 
L 678.481408 64.627357 
L 679.322624 64.277686 
L 680.16384 64.48206 
L 681.012992 64.310019 
L 683.53664 64.694018 
L 684.377856 64.508804 
L 686.901504 64.414601 
L 688.583936 64.232181 
L 689.417216 64.470484 
L 691.099648 63.980306 
L 691.932928 64.417794 
L 692.774144 64.307624 
L 693.607424 64.330376 
L 694.44864 64.53475 
L 695.28192 64.201046 
L 696.94848 64.153944 
L 697.78176 64.303233 
L 698.61504 64.155541 
L 699.44832 64.464098 
L 700.2816 64.228988 
L 703.606784 64.341154 
L 706.098688 64.087682 
L 706.924032 64.173503 
L 707.757312 64.114826 
L 708.582656 63.931607 
L 709.408 64.149553 
L 710.233344 64.161528 
L 711.066624 63.850576 
L 711.891968 64.265312 
L 712.717312 64.171108 
L 713.542656 63.839799 
L 714.368 63.913645 
L 715.193344 64.271699 
L 716.018688 64.094468 
L 716.844032 64.21342 
L 717.66144 64.020622 
L 718.486784 64.307225 
L 720.129536 63.939192 
L 720.946944 64.228588 
L 722.589696 64.000663 
L 723.407104 64.220206 
L 726.684672 64.342351 
L 727.50208 63.94478 
L 728.319488 64.225395 
L 729.954304 64.027408 
L 730.771712 63.82982 
L 731.581184 64.336364 
L 732.398592 64.053354 
L 733.216 64.213021 
L 734.025472 64.234177 
L 734.84288 63.956755 
L 736.46976 64.177096 
L 737.279232 64.112431 
L 738.898176 64.133586 
L 740.51712 64.145162 
L 741.326592 63.898476 
L 742.144 64.082892 
L 743.762944 64.084888 
L 745.381888 63.945977 
L 747.000832 64.134784 
L 747.810304 64.108439 
L 748.619776 63.908456 
L 749.429248 63.90167 
L 751.040256 64.481661 
L 751.841792 64.556305 
L 752.651264 64.95707 
L 753.4528 64.819756 
L 755.055872 64.943498 
L 755.857408 64.927532 
L 756.658944 65.327498 
L 757.46048 67.260269 
L 758.262016 67.207579 
L 759.055616 66.805617 
L 759.055616 66.805617 
" clip-path="url(#pae7808f83f)" style="fill: none; stroke: #0000ff; stroke-width: 1.5; stroke-linecap: square"/>
   </g>
   <g id="patch_3">
    <path d="M 115.2 461.376 
L 115.2 62.208 
" style="fill: none; stroke: #000000; stroke-width: 0.8; stroke-linejoin: miter; stroke-linecap: square"/>
   </g>
   <g id="patch_4">
    <path d="M 829.44 461.376 
L 829.44 62.208 
" style="fill: none; stroke: #000000; stroke-width: 0.8; stroke-linejoin: miter; stroke-linecap: square"/>
   </g>
   <g id="patch_5">
    <path d="M 115.2 461.376 
L 829.44 461.376 
" style="fill: none; stroke: #000000; stroke-width: 0.8; stroke-linejoin: miter; stroke-linecap: square"/>
   </g>
   <g id="patch_6">
    <path d="M 115.2 62.208 
L 829.44 62.208 
" style="fill: none; stroke: #000000; stroke-width: 0.8; stroke-linejoin: miter; stroke-linecap: square"/>
   </g>
   <g id="text_24">
    <!-- $\mathrm{proto\ &amp;\ mica*}$的读取命中率随时间的变化趋势 -->
    <g transform="translate(243.066 56.208) scale(0.228 -0.228)">
     <defs>
      <path id="STIXGeneral-Regular-70" d="M 1018 2931 
L 1018 2438 
Q 1421 2944 1939 2944 
Q 2406 2944 2707 2560 
Q 3008 2176 3008 1581 
Q 3008 883 2621 409 
Q 2234 -64 1664 -64 
Q 1466 -64 1328 -6 
Q 1190 51 1018 211 
L 1018 -794 
Q 1018 -1094 1120 -1180 
Q 1222 -1267 1581 -1274 
L 1581 -1389 
L 32 -1389 
L 32 -1280 
Q 314 -1254 397 -1171 
Q 480 -1088 480 -838 
L 480 2157 
Q 480 2381 429 2451 
Q 378 2522 218 2522 
Q 115 2522 58 2515 
L 58 2618 
Q 506 2752 979 2944 
L 1018 2931 
z
M 1018 2138 
L 1018 563 
Q 1018 422 1238 281 
Q 1459 141 1683 141 
Q 2029 141 2243 467 
Q 2458 794 2458 1325 
Q 2458 1888 2243 2224 
Q 2029 2560 1670 2560 
Q 1446 2560 1232 2419 
Q 1018 2278 1018 2138 
z
" transform="scale(0.015625)"/>
      <path id="STIXGeneral-Regular-72" d="M 1024 2931 
L 1024 2342 
Q 1267 2688 1430 2816 
Q 1594 2944 1792 2944 
Q 1958 2944 2051 2854 
Q 2144 2765 2144 2605 
Q 2144 2470 2077 2393 
Q 2010 2317 1894 2317 
Q 1773 2317 1638 2445 
Q 1536 2541 1472 2541 
Q 1338 2541 1181 2355 
Q 1024 2170 1024 2016 
L 1024 576 
Q 1024 301 1133 205 
Q 1242 109 1568 96 
L 1568 0 
L 32 0 
L 32 96 
Q 339 154 412 224 
Q 486 294 486 538 
L 486 2138 
Q 486 2349 438 2435 
Q 390 2522 269 2522 
Q 166 2522 45 2496 
L 45 2598 
Q 448 2726 992 2944 
L 1024 2931 
z
" transform="scale(0.015625)"/>
      <path id="STIXGeneral-Regular-6f" d="M 3008 1478 
Q 3008 806 2608 371 
Q 2208 -64 1568 -64 
Q 979 -64 582 368 
Q 186 800 186 1459 
Q 186 2125 582 2534 
Q 979 2944 1626 2944 
Q 2221 2944 2614 2537 
Q 3008 2131 3008 1478 
z
M 2432 1306 
Q 2432 2035 2112 2445 
Q 1856 2765 1504 2765 
Q 1171 2765 966 2493 
Q 762 2221 762 1747 
Q 762 928 1101 435 
Q 1318 115 1677 115 
Q 2029 115 2230 432 
Q 2432 749 2432 1306 
z
" transform="scale(0.015625)"/>
      <path id="STIXGeneral-Regular-74" d="M 1702 493 
L 1786 422 
Q 1478 -64 1011 -64 
Q 448 -64 448 749 
L 448 2675 
L 109 2675 
Q 83 2694 83 2720 
Q 83 2771 192 2842 
Q 435 2982 813 3526 
Q 826 3546 874 3606 
Q 922 3667 941 3706 
Q 986 3706 986 3622 
L 986 2880 
L 1632 2880 
L 1632 2675 
L 986 2675 
L 986 845 
Q 986 538 1062 403 
Q 1139 269 1318 269 
Q 1510 269 1702 493 
z
" transform="scale(0.015625)"/>
      <path id="STIXGeneral-Regular-26" d="M 4704 710 
L 4800 640 
Q 4659 294 4409 105 
Q 4160 -83 3834 -83 
Q 3309 -83 2746 499 
Q 2387 186 2070 51 
Q 1754 -83 1363 -83 
Q 838 -83 553 160 
Q 269 403 269 877 
Q 269 1267 528 1628 
Q 787 1990 1274 2272 
L 1517 2413 
Q 1293 2957 1293 3366 
Q 1293 3789 1571 4057 
Q 1850 4326 2266 4326 
Q 2656 4326 2899 4115 
Q 3142 3904 3142 3533 
Q 3142 3181 2921 2937 
Q 2701 2694 2150 2458 
Q 2509 1683 2995 1139 
Q 3315 1568 3449 1821 
Q 3584 2074 3584 2291 
Q 3584 2438 3494 2502 
Q 3405 2566 3168 2592 
L 3168 2726 
L 4550 2726 
L 4550 2592 
Q 4326 2592 4201 2509 
Q 4077 2426 3949 2214 
Q 3859 2074 3702 1814 
Q 3546 1555 3424 1363 
Q 3302 1171 3142 960 
Q 3379 659 3606 515 
Q 3834 371 4115 371 
Q 4301 371 4425 444 
Q 4550 518 4704 710 
z
M 2803 3558 
Q 2803 3795 2662 3958 
Q 2522 4122 2304 4122 
Q 2080 4122 1939 3974 
Q 1798 3827 1798 3590 
Q 1798 3334 1849 3139 
Q 1901 2944 2054 2662 
Q 2458 2848 2630 3059 
Q 2803 3270 2803 3558 
z
M 2586 666 
Q 2035 1312 1613 2195 
Q 1197 1926 1027 1686 
Q 858 1446 858 1114 
Q 858 717 1078 486 
Q 1299 256 1651 256 
Q 2061 256 2586 666 
z
" transform="scale(0.015625)"/>
      <path id="STIXGeneral-Regular-6d" d="M 4960 0 
L 3565 0 
L 3565 96 
Q 3834 122 3907 208 
Q 3981 294 3981 576 
L 3981 1894 
Q 3981 2278 3869 2444 
Q 3757 2611 3488 2611 
Q 3264 2611 3107 2521 
Q 2950 2432 2803 2221 
L 2803 608 
Q 2803 301 2896 201 
Q 2989 102 3264 96 
L 3264 0 
L 1830 0 
L 1830 96 
Q 2112 115 2189 188 
Q 2266 262 2266 550 
L 2266 1901 
Q 2266 2611 1850 2611 
Q 1670 2611 1468 2531 
Q 1267 2451 1171 2336 
Q 1088 2240 1088 2227 
L 1088 448 
Q 1088 243 1177 176 
Q 1267 109 1523 96 
L 1523 0 
L 102 0 
L 102 96 
Q 371 102 460 195 
Q 550 288 550 563 
L 550 2150 
Q 550 2387 499 2480 
Q 448 2573 326 2573 
Q 230 2573 122 2547 
L 122 2656 
Q 557 2778 1011 2944 
L 1062 2925 
L 1062 2451 
L 1075 2451 
Q 1363 2752 1584 2848 
Q 1805 2944 2054 2944 
Q 2560 2944 2733 2406 
Q 3232 2944 3776 2944 
Q 4518 2944 4518 1792 
L 4518 493 
Q 4518 282 4582 202 
Q 4646 122 4794 109 
L 4960 96 
L 4960 0 
z
" transform="scale(0.015625)"/>
      <path id="STIXGeneral-Regular-69" d="M 1152 4045 
Q 1152 3904 1056 3811 
Q 960 3718 819 3718 
Q 685 3718 592 3811 
Q 499 3904 499 4045 
Q 499 4179 595 4275 
Q 691 4371 826 4371 
Q 966 4371 1059 4275 
Q 1152 4179 1152 4045 
z
M 1619 0 
L 102 0 
L 102 96 
Q 435 115 521 211 
Q 608 307 608 666 
L 608 2118 
Q 608 2342 563 2432 
Q 518 2522 397 2522 
Q 243 2522 128 2490 
L 128 2592 
L 1120 2944 
L 1146 2918 
L 1146 672 
Q 1146 314 1226 218 
Q 1306 122 1619 96 
L 1619 0 
z
" transform="scale(0.015625)"/>
      <path id="STIXGeneral-Regular-63" d="M 2547 998 
L 2637 941 
Q 2362 403 2112 205 
Q 1786 -64 1376 -64 
Q 845 -64 502 336 
Q 160 736 160 1357 
Q 160 2170 698 2618 
Q 1094 2944 1562 2944 
Q 1965 2944 2256 2749 
Q 2547 2554 2547 2285 
Q 2547 2176 2457 2096 
Q 2368 2016 2246 2016 
Q 2022 2016 1939 2310 
L 1901 2451 
Q 1850 2630 1773 2694 
Q 1696 2758 1523 2758 
Q 1133 2758 893 2451 
Q 653 2144 653 1645 
Q 653 1094 928 745 
Q 1203 397 1645 397 
Q 1920 397 2118 528 
Q 2317 659 2547 998 
z
" transform="scale(0.015625)"/>
      <path id="STIXGeneral-Regular-61" d="M 2829 422 
L 2829 243 
Q 2586 -64 2253 -64 
Q 1888 -64 1843 403 
L 1837 403 
Q 1427 -64 909 -64 
Q 608 -64 422 112 
Q 237 288 237 602 
Q 237 1050 685 1350 
Q 992 1555 1837 1869 
L 1837 2214 
Q 1837 2502 1699 2646 
Q 1562 2790 1338 2790 
Q 1146 2790 1018 2697 
Q 890 2605 890 2477 
Q 890 2419 909 2348 
Q 928 2278 928 2208 
Q 928 2112 841 2029 
Q 755 1946 634 1946 
Q 525 1946 441 2029 
Q 358 2112 358 2240 
Q 358 2547 685 2752 
Q 986 2944 1421 2944 
Q 1939 2944 2176 2656 
Q 2291 2522 2323 2384 
Q 2355 2246 2355 1946 
L 2355 723 
Q 2355 301 2554 301 
Q 2682 301 2829 422 
z
M 1837 813 
L 1837 1715 
Q 1248 1510 1018 1293 
Q 800 1094 800 800 
Q 800 557 921 432 
Q 1043 307 1242 307 
Q 1453 307 1613 410 
Q 1747 506 1792 589 
Q 1837 672 1837 813 
z
" transform="scale(0.015625)"/>
      <path id="STIXGeneral-Regular-2a" d="M 1715 3014 
L 1773 2976 
Q 2010 2822 2387 2758 
Q 2605 2726 2688 2665 
Q 2771 2605 2771 2483 
Q 2771 2374 2707 2304 
Q 2643 2234 2541 2234 
Q 2381 2234 2157 2515 
Q 2010 2694 1715 2886 
L 1664 2918 
L 1664 2861 
Q 1664 2502 1792 2157 
Q 1850 1997 1850 1946 
Q 1850 1850 1770 1773 
Q 1690 1696 1594 1696 
Q 1504 1696 1433 1766 
Q 1363 1837 1363 1926 
Q 1363 2016 1440 2227 
Q 1542 2502 1542 2861 
L 1542 2918 
Q 1286 2758 1210 2688 
Q 1133 2611 947 2400 
Q 806 2240 672 2240 
Q 563 2240 499 2304 
Q 435 2368 435 2470 
Q 435 2592 528 2656 
Q 621 2720 838 2758 
Q 1062 2803 1180 2848 
Q 1299 2893 1498 3014 
Q 1222 3181 877 3251 
Q 640 3302 544 3366 
Q 448 3430 448 3546 
Q 448 3648 505 3715 
Q 563 3782 659 3782 
Q 787 3782 973 3578 
Q 1242 3277 1542 3110 
L 1542 3194 
Q 1542 3456 1446 3776 
Q 1376 3987 1376 4109 
Q 1376 4198 1443 4262 
Q 1510 4326 1606 4326 
Q 1702 4326 1772 4259 
Q 1843 4192 1843 4096 
Q 1843 3994 1773 3795 
Q 1664 3507 1664 3264 
L 1664 3110 
Q 1882 3238 2035 3379 
Q 2067 3411 2153 3504 
Q 2240 3597 2291 3648 
Q 2342 3699 2409 3747 
Q 2477 3795 2528 3795 
Q 2637 3795 2701 3728 
Q 2765 3661 2765 3552 
Q 2765 3424 2691 3363 
Q 2618 3302 2432 3277 
Q 2074 3219 1715 3014 
z
" transform="scale(0.015625)"/>
      <path id="SimSun-7684" d="M 1125 3775 
L 1125 2175 
L 2425 2175 
L 2425 3775 
L 1125 3775 
z
M 1125 2025 
L 1125 275 
L 2425 275 
L 2425 2025 
L 1125 2025 
z
M 2750 3625 
Q 2750 700 2775 -200 
L 2425 -400 
L 2425 125 
L 1125 125 
L 1125 -300 
L 775 -500 
Q 800 675 800 1837 
Q 800 3000 775 4150 
L 1150 3925 
L 1400 3925 
Q 1650 4775 1675 5225 
L 2225 4925 
Q 1975 4800 1550 3925 
L 2375 3925 
L 2625 4175 
L 3000 3800 
L 2750 3625 
z
M 3975 5200 
L 4525 4875 
Q 4325 4750 3900 3850 
L 5250 3850 
L 5525 4125 
L 5900 3750 
L 5675 3575 
Q 5625 650 5537 262 
Q 5450 -125 5287 -275 
Q 5125 -425 4775 -550 
Q 4650 -150 3950 50 
L 3950 175 
Q 4575 50 4850 50 
Q 5125 50 5187 475 
Q 5250 900 5300 3700 
L 3850 3700 
Q 3400 2975 2900 2475 
L 2825 2525 
Q 3350 3325 3600 3950 
Q 3850 4575 3975 5200 
z
M 3525 2750 
Q 4125 2300 4225 2087 
Q 4325 1875 4325 1775 
Q 4325 1600 4225 1475 
Q 4125 1350 4075 1350 
Q 3975 1350 3925 1700 
Q 3825 2200 3475 2675 
L 3525 2750 
z
" transform="scale(0.015625)"/>
      <path id="SimSun-968f" d="M 2175 4225 
L 2250 4275 
Q 2800 3825 2850 3625 
Q 2900 3425 2775 3300 
Q 2650 3175 2600 3175 
Q 2500 3175 2475 3425 
Q 2425 3800 2175 4225 
z
M 6050 0 
L 6050 -100 
Q 5650 -175 5625 -475 
Q 4975 -450 4487 -425 
Q 4000 -400 3650 -262 
Q 3300 -125 3050 150 
Q 2875 300 2750 300 
Q 2650 300 2487 162 
Q 2325 25 2125 -375 
L 1750 -100 
Q 2100 175 2575 450 
L 2575 2300 
Q 2525 2300 2250 2225 
L 2025 2450 
L 2550 2450 
L 2700 2650 
L 3075 2375 
L 2875 2225 
L 2875 475 
Q 3325 75 3762 0 
Q 4200 -75 4725 -62 
Q 5250 -50 6050 0 
z
M 600 4900 
L 950 4675 
L 1700 4675 
L 1900 4900 
L 2300 4625 
L 2075 4450 
L 1475 3000 
Q 1650 2775 1900 2475 
Q 2125 2175 2162 1975 
Q 2200 1775 2200 1650 
Q 2200 1400 2075 1150 
Q 1950 900 1400 800 
Q 1400 1075 950 1250 
L 950 -475 
L 600 -650 
Q 625 0 625 2175 
Q 625 4350 600 4900 
z
M 1300 3000 
L 1725 4525 
L 950 4525 
L 950 1350 
Q 1275 1275 1425 1275 
Q 1600 1275 1725 1350 
Q 1850 1425 1850 1675 
Q 1850 1825 1812 2100 
Q 1775 2375 1300 3000 
z
M 3900 3250 
L 3900 2600 
L 5150 2600 
L 5150 3250 
L 3900 3250 
z
M 3575 250 
Q 3600 725 3600 3200 
Q 3350 2875 3000 2625 
L 2950 2675 
Q 3525 3325 3850 4175 
L 3600 4175 
Q 3275 4175 3000 4100 
L 2775 4325 
L 3900 4325 
Q 4100 4925 4100 5150 
L 4600 4900 
Q 4425 4800 4225 4325 
L 5325 4325 
L 5625 4625 
L 6025 4175 
L 4175 4175 
Q 4025 3825 3825 3475 
L 3925 3400 
L 5100 3400 
L 5250 3625 
L 5650 3350 
L 5475 3200 
L 5475 875 
Q 5525 425 5025 275 
Q 5025 550 4525 650 
L 4525 750 
Q 4950 725 5050 725 
Q 5150 725 5150 900 
L 5150 1650 
L 3900 1650 
L 3900 400 
L 3575 250 
z
M 3900 2450 
L 3900 1800 
L 5150 1800 
L 5150 2450 
L 3900 2450 
z
" transform="scale(0.015625)"/>
      <path id="SimSun-53d8" d="M 2750 4225 
L 2750 2225 
L 3650 2225 
L 3650 4225 
L 2750 4225 
z
M 375 4375 
L 3100 4375 
Q 3050 4750 2650 5200 
L 2700 5275 
Q 3150 5075 3325 4925 
Q 3500 4775 3500 4700 
Q 3500 4550 3300 4375 
L 5125 4375 
L 5525 4775 
L 6075 4225 
L 4000 4225 
L 4000 2225 
L 4425 2225 
L 4675 2500 
L 5100 2100 
L 4825 1975 
Q 4300 1325 3525 650 
Q 4500 -50 6125 -175 
L 6125 -275 
Q 5750 -325 5625 -575 
Q 4175 -250 3300 450 
Q 2150 -300 350 -600 
L 325 -500 
Q 2050 -100 3075 675 
Q 2525 1250 2100 2075 
L 1650 2075 
L 1375 2025 
L 1175 2225 
L 2400 2225 
L 2400 4225 
L 1200 4225 
Q 875 4225 600 4150 
L 375 4375 
z
M 2275 2075 
Q 2725 1350 3300 850 
Q 3800 1300 4425 2075 
L 2275 2075 
z
M 1675 3850 
L 2125 3450 
L 1875 3350 
Q 1150 2575 325 1950 
L 250 2025 
Q 700 2425 1087 2937 
Q 1475 3450 1675 3850 
z
M 4350 3700 
Q 5675 3050 5812 2875 
Q 5950 2700 5950 2575 
Q 5950 2475 5900 2375 
Q 5850 2275 5800 2275 
Q 5700 2275 5500 2550 
Q 5200 2950 4275 3625 
L 4350 3700 
z
" transform="scale(0.015625)"/>
      <path id="SimSun-5316" d="M 1375 -600 
Q 1400 200 1400 925 
L 1400 3125 
Q 850 2300 350 1775 
L 275 1850 
Q 825 2625 1300 3650 
Q 1775 4675 1900 5200 
L 2450 4875 
L 2200 4725 
Q 1875 4000 1600 3475 
L 1950 3275 
L 1750 3075 
L 1750 350 
Q 1750 75 1775 -400 
L 1375 -600 
z
M 3450 2125 
L 3450 3925 
Q 3450 4475 3425 5200 
L 4000 4925 
L 3800 4725 
L 3800 2400 
Q 4150 2725 4562 3225 
Q 4975 3725 5150 4025 
L 5600 3600 
L 5325 3525 
Q 4600 2700 3800 2000 
L 3800 425 
Q 3800 0 4225 0 
L 5300 0 
Q 5500 0 5550 325 
Q 5600 650 5600 1325 
L 5725 1325 
Q 5775 650 5850 425 
Q 5925 200 6125 125 
Q 5900 -325 5400 -325 
L 4075 -325 
Q 3450 -325 3450 250 
L 3450 1775 
Q 2800 1275 1950 925 
L 1925 1025 
Q 2800 1525 3450 2125 
z
" transform="scale(0.015625)"/>
      <path id="SimSun-8d8b" d="M 3900 5225 
L 4425 4900 
L 4225 4825 
Q 4000 4475 3800 4150 
L 4750 4150 
L 4975 4425 
L 5400 4025 
Q 5100 4000 4475 3075 
L 5350 3075 
L 5500 3325 
L 5900 3050 
L 5725 2875 
Q 5725 1050 5750 525 
L 5400 375 
L 5400 800 
L 3725 800 
Q 3525 800 3250 725 
L 3025 950 
L 5400 950 
L 5400 1900 
L 4050 1900 
Q 3850 1900 3575 1825 
L 3350 2050 
L 5400 2050 
L 5400 2925 
L 3900 2925 
Q 3700 2925 3425 2850 
L 3200 3075 
L 4350 3075 
L 4775 4000 
L 3725 4000 
Q 3450 3625 3000 3200 
L 2950 3250 
Q 3650 4250 3900 5225 
z
M 300 -550 
L 225 -500 
Q 675 275 787 1112 
Q 900 1950 850 2425 
L 1400 2150 
Q 1250 2075 1212 1812 
Q 1175 1550 1125 1075 
Q 1500 750 1725 625 
L 1725 2825 
L 950 2825 
Q 750 2825 475 2750 
L 250 2975 
L 1600 2975 
L 1600 4025 
L 1225 4025 
Q 1025 4025 750 3950 
L 525 4175 
L 1600 4175 
Q 1600 4675 1575 5225 
L 2125 4975 
L 1925 4800 
L 1925 4175 
L 2400 4175 
L 2700 4475 
L 3100 4025 
L 1925 4025 
L 1925 2975 
L 2475 2975 
L 2800 3275 
L 3200 2825 
L 1750 2825 
L 2250 2600 
L 2050 2400 
L 2050 1800 
L 2625 1800 
L 2925 2100 
L 3300 1650 
L 2050 1650 
L 2050 425 
Q 2925 25 3737 0 
Q 4550 -25 4925 -25 
Q 5625 -25 6150 25 
L 6150 -50 
Q 5700 -250 5700 -475 
Q 4950 -500 4012 -412 
Q 3075 -325 2325 -12 
Q 1575 300 1100 900 
Q 775 -25 300 -550 
z
" transform="scale(0.015625)"/>
      <path id="SimSun-52bf" d="M 1650 4175 
Q 1650 4775 1625 5200 
L 2150 4950 
L 1975 4800 
L 1975 4175 
L 2200 4175 
L 2475 4450 
L 2900 4025 
L 1975 4025 
L 1975 3425 
Q 2400 3525 2800 3625 
L 2825 3525 
Q 2400 3375 1975 3225 
L 1975 2150 
Q 2000 1800 1475 1575 
Q 1450 1850 800 2025 
L 800 2150 
Q 1225 2100 1437 2087 
Q 1650 2075 1650 2325 
L 1650 3100 
Q 700 2750 700 2650 
L 400 3100 
Q 575 3100 1650 3350 
L 1650 4025 
L 1300 4025 
Q 975 4025 700 3950 
L 475 4175 
L 1650 4175 
z
M 3650 4175 
L 3650 4525 
Q 3650 4875 3625 5225 
L 4175 4975 
L 3975 4800 
L 3975 4200 
L 4700 4250 
L 4850 4475 
L 5200 4200 
L 5025 4050 
Q 5000 3900 5000 3575 
Q 5000 3225 5050 2812 
Q 5100 2400 5425 2175 
Q 5600 2650 5700 3050 
L 5800 3025 
Q 5725 2525 5725 2250 
Q 5725 1975 5825 1775 
Q 5900 1650 5775 1650 
Q 5725 1650 5475 1750 
Q 5225 1850 5012 2137 
Q 4800 2425 4737 2750 
Q 4675 3075 4675 3475 
Q 4675 3850 4700 4100 
L 3975 4050 
Q 3925 3450 3750 3050 
Q 4100 2900 4262 2787 
Q 4425 2675 4387 2475 
Q 4350 2275 4275 2275 
Q 4225 2275 4125 2400 
Q 3925 2625 3625 2825 
Q 3225 2225 2100 1800 
L 2050 1875 
Q 3075 2400 3375 2975 
Q 3225 3100 2850 3300 
L 2900 3375 
Q 3225 3275 3475 3175 
Q 3600 3500 3650 4025 
L 3300 4000 
L 3125 3925 
L 2875 4125 
L 3650 4175 
z
M 2600 1425 
Q 2675 1700 2700 2025 
L 3175 1775 
L 3000 1650 
L 2950 1425 
L 4725 1425 
L 4875 1675 
L 5325 1375 
L 5125 1225 
Q 5050 400 4987 112 
Q 4925 -175 4750 -350 
Q 4575 -525 4225 -600 
Q 4250 -350 3650 -50 
L 3675 50 
Q 4225 -100 4412 -87 
Q 4600 -75 4675 312 
Q 4750 700 4775 1275 
L 2925 1275 
Q 2800 775 2575 450 
Q 2350 125 1875 -162 
Q 1400 -450 450 -650 
L 400 -550 
Q 1500 -225 1950 200 
Q 2400 625 2575 1275 
L 1450 1275 
Q 1125 1275 850 1200 
L 625 1425 
L 2600 1425 
z
" transform="scale(0.015625)"/>
     </defs>
     <use xlink:href="#STIXGeneral-Regular-70" transform="translate(0 0.578125)"/>
     <use xlink:href="#STIXGeneral-Regular-72" transform="translate(49.999985 0.578125)"/>
     <use xlink:href="#STIXGeneral-Regular-6f" transform="translate(83.299973 0.578125)"/>
     <use xlink:href="#STIXGeneral-Regular-74" transform="translate(133.299957 0.578125)"/>
     <use xlink:href="#STIXGeneral-Regular-6f" transform="translate(161.099945 0.578125)"/>
     <use xlink:href="#STIXGeneral-Regular-26" transform="translate(235.16635 0.578125)"/>
     <use xlink:href="#STIXGeneral-Regular-6d" transform="translate(337.032757 0.578125)"/>
     <use xlink:href="#STIXGeneral-Regular-69" transform="translate(414.832745 0.578125)"/>
     <use xlink:href="#STIXGeneral-Regular-63" transform="translate(442.632733 0.578125)"/>
     <use xlink:href="#STIXGeneral-Regular-61" transform="translate(487.032727 0.578125)"/>
     <use xlink:href="#STIXGeneral-Regular-2a" transform="translate(545.872717 0.578125)"/>
     <use xlink:href="#SimSun-7684" transform="translate(610.312698 0.578125)"/>
     <use xlink:href="#SimSun-8bfb" transform="translate(710.312698 0.578125)"/>
     <use xlink:href="#SimSun-53d6" transform="translate(810.312698 0.578125)"/>
     <use xlink:href="#SimSun-547d" transform="translate(910.312698 0.578125)"/>
     <use xlink:href="#SimSun-4e2d" transform="translate(1010.312698 0.578125)"/>
     <use xlink:href="#SimSun-7387" transform="translate(1110.312698 0.578125)"/>
     <use xlink:href="#SimSun-968f" transform="translate(1210.312698 0.578125)"/>
     <use xlink:href="#SimSun-65f6" transform="translate(1310.312698 0.578125)"/>
     <use xlink:href="#SimSun-95f4" transform="translate(1410.312698 0.578125)"/>
     <use xlink:href="#SimSun-7684" transform="translate(1510.312698 0.578125)"/>
     <use xlink:href="#SimSun-53d8" transform="translate(1610.312698 0.578125)"/>
     <use xlink:href="#SimSun-5316" transform="translate(1710.312698 0.578125)"/>
     <use xlink:href="#SimSun-8d8b" transform="translate(1810.312698 0.578125)"/>
     <use xlink:href="#SimSun-52bf" transform="translate(1910.312698 0.578125)"/>
    </g>
   </g>
   <g id="legend_1">
    <g id="patch_7">
     <path d="M 128.5 451.876 
L 250.512656 451.876 
Q 254.312656 451.876 254.312656 448.076 
L 254.312656 396.176312 
Q 254.312656 392.376312 250.512656 392.376312 
L 128.5 392.376312 
Q 124.7 392.376312 124.7 396.176312 
L 124.7 448.076 
Q 124.7 451.876 128.5 451.876 
z
" style="fill: #ffffff; opacity: 0.8; stroke: #cccccc; stroke-linejoin: miter"/>
    </g>
    <g id="line2d_24">
     <path d="M 132.3 406.626312 
L 151.3 406.626312 
L 170.3 406.626312 
" style="fill: none; stroke: #ff0000; stroke-width: 1.5; stroke-linecap: square"/>
    </g>
    <g id="text_25">
     <!-- mz_600 -->
     <g transform="translate(185.5 413.276312) scale(0.19 -0.19)">
      <defs>
       <path id="TimesNewRomanPSMT-6d" d="M 1050 2338 
Q 1363 2650 1419 2697 
Q 1559 2816 1721 2881 
Q 1884 2947 2044 2947 
Q 2313 2947 2506 2790 
Q 2700 2634 2766 2338 
Q 3088 2713 3309 2830 
Q 3531 2947 3766 2947 
Q 3994 2947 4170 2830 
Q 4347 2713 4450 2447 
Q 4519 2266 4519 1878 
L 4519 647 
Q 4519 378 4559 278 
Q 4591 209 4675 161 
Q 4759 113 4950 113 
L 4950 0 
L 3538 0 
L 3538 113 
L 3597 113 
Q 3781 113 3884 184 
Q 3956 234 3988 344 
Q 4000 397 4000 647 
L 4000 1878 
Q 4000 2228 3916 2372 
Q 3794 2572 3525 2572 
Q 3359 2572 3192 2489 
Q 3025 2406 2788 2181 
L 2781 2147 
L 2788 2013 
L 2788 647 
Q 2788 353 2820 281 
Q 2853 209 2943 161 
Q 3034 113 3253 113 
L 3253 0 
L 1806 0 
L 1806 113 
Q 2044 113 2133 169 
Q 2222 225 2256 338 
Q 2272 391 2272 647 
L 2272 1878 
Q 2272 2228 2169 2381 
Q 2031 2581 1784 2581 
Q 1616 2581 1450 2491 
Q 1191 2353 1050 2181 
L 1050 647 
Q 1050 366 1089 281 
Q 1128 197 1204 155 
Q 1281 113 1516 113 
L 1516 0 
L 100 0 
L 100 113 
Q 297 113 375 155 
Q 453 197 493 289 
Q 534 381 534 647 
L 534 1741 
Q 534 2213 506 2350 
Q 484 2453 437 2492 
Q 391 2531 309 2531 
Q 222 2531 100 2484 
L 53 2597 
L 916 2947 
L 1050 2947 
L 1050 2338 
z
" transform="scale(0.015625)"/>
       <path id="TimesNewRomanPSMT-7a" d="M 2688 878 
L 2653 0 
L 128 0 
L 128 113 
L 2028 2644 
L 1091 2644 
Q 788 2644 694 2605 
Q 600 2566 541 2456 
Q 456 2300 444 2069 
L 319 2069 
L 338 2863 
L 2738 2863 
L 2738 2747 
L 819 209 
L 1863 209 
Q 2191 209 2308 264 
Q 2425 319 2497 456 
Q 2547 556 2581 878 
L 2688 878 
z
" transform="scale(0.015625)"/>
       <path id="TimesNewRomanPSMT-5f" d="M 3256 -1381 
L -53 -1381 
L -53 -1119 
L 3256 -1119 
L 3256 -1381 
z
" transform="scale(0.015625)"/>
       <path id="TimesNewRomanPSMT-36" d="M 2869 4325 
L 2869 4209 
Q 2456 4169 2195 4045 
Q 1934 3922 1679 3669 
Q 1425 3416 1258 3105 
Q 1091 2794 978 2366 
Q 1428 2675 1881 2675 
Q 2316 2675 2634 2325 
Q 2953 1975 2953 1425 
Q 2953 894 2631 456 
Q 2244 -75 1606 -75 
Q 1172 -75 869 213 
Q 275 772 275 1663 
Q 275 2231 503 2743 
Q 731 3256 1154 3653 
Q 1578 4050 1965 4187 
Q 2353 4325 2688 4325 
L 2869 4325 
z
M 925 2138 
Q 869 1716 869 1456 
Q 869 1156 980 804 
Q 1091 453 1309 247 
Q 1469 100 1697 100 
Q 1969 100 2183 356 
Q 2397 613 2397 1088 
Q 2397 1622 2184 2012 
Q 1972 2403 1581 2403 
Q 1463 2403 1327 2353 
Q 1191 2303 925 2138 
z
" transform="scale(0.015625)"/>
       <path id="TimesNewRomanPSMT-30" d="M 231 2094 
Q 231 2819 450 3342 
Q 669 3866 1031 4122 
Q 1313 4325 1613 4325 
Q 2100 4325 2488 3828 
Q 2972 3213 2972 2159 
Q 2972 1422 2759 906 
Q 2547 391 2217 158 
Q 1888 -75 1581 -75 
Q 975 -75 572 641 
Q 231 1244 231 2094 
z
M 844 2016 
Q 844 1141 1059 588 
Q 1238 122 1591 122 
Q 1759 122 1940 273 
Q 2122 425 2216 781 
Q 2359 1319 2359 2297 
Q 2359 3022 2209 3506 
Q 2097 3866 1919 4016 
Q 1791 4119 1609 4119 
Q 1397 4119 1231 3928 
Q 1006 3669 925 3112 
Q 844 2556 844 2016 
z
" transform="scale(0.015625)"/>
      </defs>
      <use xlink:href="#TimesNewRomanPSMT-6d"/>
      <use xlink:href="#TimesNewRomanPSMT-7a" x="77.783203"/>
      <use xlink:href="#TimesNewRomanPSMT-5f" x="122.167969"/>
      <use xlink:href="#TimesNewRomanPSMT-36" x="172.167969"/>
      <use xlink:href="#TimesNewRomanPSMT-30" x="222.167969"/>
      <use xlink:href="#TimesNewRomanPSMT-30" x="272.167969"/>
     </g>
    </g>
    <g id="line2d_25">
     <path d="M 132.3 433.526156 
L 151.3 433.526156 
L 170.3 433.526156 
" style="fill: none; stroke: #0000ff; stroke-width: 1.5; stroke-linecap: square"/>
    </g>
    <g id="text_26">
     <!-- pz_600 -->
     <g transform="translate(185.5 440.176156) scale(0.19 -0.19)">
      <defs>
       <path id="TimesNewRomanPSMT-70" d="M -6 2578 
L 875 2934 
L 994 2934 
L 994 2266 
Q 1216 2644 1439 2795 
Q 1663 2947 1909 2947 
Q 2341 2947 2628 2609 
Q 2981 2197 2981 1534 
Q 2981 794 2556 309 
Q 2206 -88 1675 -88 
Q 1444 -88 1275 -22 
Q 1150 25 994 166 
L 994 -706 
Q 994 -1000 1030 -1079 
Q 1066 -1159 1155 -1206 
Q 1244 -1253 1478 -1253 
L 1478 -1369 
L -22 -1369 
L -22 -1253 
L 56 -1253 
Q 228 -1256 350 -1188 
Q 409 -1153 442 -1076 
Q 475 -1000 475 -688 
L 475 2019 
Q 475 2297 450 2372 
Q 425 2447 370 2484 
Q 316 2522 222 2522 
Q 147 2522 31 2478 
L -6 2578 
z
M 994 2081 
L 994 1013 
Q 994 666 1022 556 
Q 1066 375 1236 237 
Q 1406 100 1666 100 
Q 1978 100 2172 344 
Q 2425 663 2425 1241 
Q 2425 1897 2138 2250 
Q 1938 2494 1663 2494 
Q 1513 2494 1366 2419 
Q 1253 2363 994 2081 
z
" transform="scale(0.015625)"/>
      </defs>
      <use xlink:href="#TimesNewRomanPSMT-70"/>
      <use xlink:href="#TimesNewRomanPSMT-7a" x="50"/>
      <use xlink:href="#TimesNewRomanPSMT-5f" x="94.384766"/>
      <use xlink:href="#TimesNewRomanPSMT-36" x="144.384766"/>
      <use xlink:href="#TimesNewRomanPSMT-30" x="194.384766"/>
      <use xlink:href="#TimesNewRomanPSMT-30" x="244.384766"/>
     </g>
    </g>
   </g>
  </g>
 </g>
 <defs>
  <clipPath id="pae7808f83f">
   <rect x="115.2" y="62.208" width="714.24" height="399.168"/>
  </clipPath>
 </defs>
</svg>
