<?xml version="1.0" encoding="utf-8" standalone="no"?>
<!DOCTYPE svg PUBLIC "-//W3C//DTD SVG 1.1//EN"
  "http://www.w3.org/Graphics/SVG/1.1/DTD/svg11.dtd">
<svg xmlns:xlink="http://www.w3.org/1999/xlink" width="1080pt" height="864pt" viewBox="0 0 1080 864" xmlns="http://www.w3.org/2000/svg" version="1.1">
 <metadata>
  <rdf:RDF xmlns:dc="http://purl.org/dc/elements/1.1/" xmlns:cc="http://creativecommons.org/ns#" xmlns:rdf="http://www.w3.org/1999/02/22-rdf-syntax-ns#">
   <cc:Work>
    <dc:type rdf:resource="http://purl.org/dc/dcmitype/StillImage"/>
    <dc:date>2023-11-08T11:40:45.022168</dc:date>
    <dc:format>image/svg+xml</dc:format>
    <dc:creator>
     <cc:Agent>
      <dc:title>Matplotlib v3.7.1, https://matplotlib.org/</dc:title>
     </cc:Agent>
    </dc:creator>
   </cc:Work>
  </rdf:RDF>
 </metadata>
 <defs>
  <style type="text/css">*{stroke-linejoin: round; stroke-linecap: butt}</style>
 </defs>
 <g id="figure_1">
  <g id="patch_1">
   <path d="M 0 864 
L 1080 864 
L 1080 0 
L 0 0 
z
" style="fill: #ffffff"/>
  </g>
  <g id="axes_1">
   <g id="patch_2">
    <path d="M 172.8 751.68 
L 1036.8 751.68 
L 1036.8 17.28 
L 172.8 17.28 
z
" style="fill: #ffffff"/>
   </g>
   <g id="matplotlib.axis_1">
    <g id="xtick_1">
     <g id="line2d_1">
      <defs>
       <path id="m6032f600dc" d="M 0 0 
L 0 3.5 
" style="stroke: #000000; stroke-width: 0.8"/>
      </defs>
      <g>
       <use xlink:href="#m6032f600dc" x="172.8" y="751.68" style="stroke: #000000; stroke-width: 0.8"/>
      </g>
     </g>
     <g id="text_1">
      <!-- 0 -->
      <g transform="translate(160.3 794.422187) scale(0.5 -0.5)">
       <defs>
        <path id="SimSun-30" d="M 1600 4225 
Q 1250 4225 1012 3687 
Q 775 3150 775 2250 
Q 775 1300 1012 775 
Q 1250 250 1600 250 
Q 1975 250 2187 775 
Q 2400 1300 2400 2250 
Q 2400 3150 2200 3687 
Q 2000 4225 1600 4225 
z
M 1600 50 
Q 1050 50 675 625 
Q 300 1200 300 2250 
Q 300 3225 662 3825 
Q 1025 4425 1600 4425 
Q 2150 4425 2512 3850 
Q 2875 3275 2875 2250 
Q 2875 1225 2512 637 
Q 2150 50 1600 50 
z
" transform="scale(0.015625)"/>
       </defs>
       <use xlink:href="#SimSun-30"/>
      </g>
     </g>
    </g>
    <g id="xtick_2">
     <g id="line2d_2">
      <g>
       <use xlink:href="#m6032f600dc" x="259.2" y="751.68" style="stroke: #000000; stroke-width: 0.8"/>
      </g>
     </g>
     <g id="text_2">
      <!-- 10 -->
      <g transform="translate(234.2 794.422187) scale(0.5 -0.5)">
       <defs>
        <path id="SimSun-31" d="M 1825 4450 
L 1825 650 
Q 1825 450 1950 350 
Q 2075 250 2300 250 
L 2550 250 
L 2550 100 
L 725 100 
L 725 250 
L 950 250 
Q 1200 250 1312 350 
Q 1425 450 1425 650 
L 1425 3675 
Q 1425 3775 1362 3837 
Q 1300 3900 1175 3900 
L 725 3900 
L 725 4050 
L 950 4050 
Q 1250 4050 1437 4150 
Q 1625 4250 1725 4450 
L 1825 4450 
z
" transform="scale(0.015625)"/>
       </defs>
       <use xlink:href="#SimSun-31"/>
       <use xlink:href="#SimSun-30" x="50"/>
      </g>
     </g>
    </g>
    <g id="xtick_3">
     <g id="line2d_3">
      <g>
       <use xlink:href="#m6032f600dc" x="345.6" y="751.68" style="stroke: #000000; stroke-width: 0.8"/>
      </g>
     </g>
     <g id="text_3">
      <!-- 20 -->
      <g transform="translate(320.6 794.422187) scale(0.5 -0.5)">
       <defs>
        <path id="SimSun-32" d="M 2325 3325 
Q 2325 3775 2125 4012 
Q 1925 4250 1525 4250 
Q 1225 4250 1012 4087 
Q 800 3925 800 3675 
Q 800 3525 900 3425 
Q 975 3325 975 3225 
Q 975 3100 912 3037 
Q 850 2975 725 2975 
Q 575 2975 487 3062 
Q 400 3150 400 3350 
Q 400 3875 775 4150 
Q 1150 4425 1575 4425 
Q 2175 4425 2462 4125 
Q 2750 3825 2750 3375 
Q 2750 3075 2612 2775 
Q 2475 2475 2175 2200 
Q 1450 1500 1062 1062 
Q 675 625 600 475 
L 2075 475 
Q 2300 475 2450 650 
Q 2600 825 2650 1175 
L 2800 1175 
L 2650 100 
L 325 100 
L 325 425 
Q 450 650 737 1000 
Q 1025 1350 1500 1825 
Q 1925 2250 2125 2625 
Q 2325 3000 2325 3325 
z
" transform="scale(0.015625)"/>
       </defs>
       <use xlink:href="#SimSun-32"/>
       <use xlink:href="#SimSun-30" x="50"/>
      </g>
     </g>
    </g>
    <g id="xtick_4">
     <g id="line2d_4">
      <g>
       <use xlink:href="#m6032f600dc" x="432" y="751.68" style="stroke: #000000; stroke-width: 0.8"/>
      </g>
     </g>
     <g id="text_4">
      <!-- 30 -->
      <g transform="translate(407 794.422187) scale(0.5 -0.5)">
       <defs>
        <path id="SimSun-33" d="M 2800 1250 
Q 2800 775 2450 412 
Q 2100 50 1475 50 
Q 1025 50 700 300 
Q 375 550 375 875 
Q 375 1025 475 1137 
Q 575 1250 675 1250 
Q 825 1250 887 1137 
Q 950 1025 950 950 
Q 950 825 900 750 
Q 850 650 850 575 
Q 850 425 1037 325 
Q 1225 225 1450 225 
Q 1900 225 2125 487 
Q 2350 750 2350 1300 
Q 2350 1750 2112 2025 
Q 1875 2300 1225 2300 
L 1225 2475 
Q 1725 2475 1962 2712 
Q 2200 2950 2200 3375 
Q 2200 3725 2012 3987 
Q 1825 4250 1425 4250 
Q 1250 4250 1050 4162 
Q 850 4075 850 3875 
Q 850 3675 900 3625 
Q 950 3575 950 3500 
Q 950 3375 900 3300 
Q 850 3225 725 3225 
Q 625 3225 537 3300 
Q 450 3375 450 3575 
Q 450 3950 775 4187 
Q 1100 4425 1525 4425 
Q 2025 4425 2325 4112 
Q 2625 3800 2625 3450 
Q 2625 3075 2437 2812 
Q 2250 2550 1850 2425 
Q 2400 2225 2600 1900 
Q 2800 1575 2800 1250 
z
" transform="scale(0.015625)"/>
       </defs>
       <use xlink:href="#SimSun-33"/>
       <use xlink:href="#SimSun-30" x="50"/>
      </g>
     </g>
    </g>
    <g id="xtick_5">
     <g id="line2d_5">
      <g>
       <use xlink:href="#m6032f600dc" x="518.4" y="751.68" style="stroke: #000000; stroke-width: 0.8"/>
      </g>
     </g>
     <g id="text_5">
      <!-- 40 -->
      <g transform="translate(493.4 794.422187) scale(0.5 -0.5)">
       <defs>
        <path id="SimSun-34" d="M 2300 575 
Q 2300 400 2400 325 
Q 2500 250 2675 250 
L 2900 250 
L 2900 100 
L 1250 100 
L 1250 250 
L 1525 250 
Q 1725 250 1812 325 
Q 1900 400 1900 575 
L 1900 1400 
L 225 1400 
L 225 1525 
L 2050 4425 
L 2300 4425 
L 2300 1550 
L 2975 1550 
L 2975 1400 
L 2300 1400 
L 2300 575 
z
M 1875 3800 
L 450 1550 
L 1900 1550 
L 1900 3800 
L 1875 3800 
z
" transform="scale(0.015625)"/>
       </defs>
       <use xlink:href="#SimSun-34"/>
       <use xlink:href="#SimSun-30" x="50"/>
      </g>
     </g>
    </g>
    <g id="xtick_6">
     <g id="line2d_6">
      <g>
       <use xlink:href="#m6032f600dc" x="604.8" y="751.68" style="stroke: #000000; stroke-width: 0.8"/>
      </g>
     </g>
     <g id="text_6">
      <!-- 50 -->
      <g transform="translate(579.8 794.422187) scale(0.5 -0.5)">
       <defs>
        <path id="SimSun-35" d="M 1725 2850 
Q 2200 2850 2500 2487 
Q 2800 2125 2800 1525 
Q 2800 850 2487 450 
Q 2175 50 1525 50 
Q 1075 50 725 312 
Q 375 575 375 950 
Q 375 1100 462 1212 
Q 550 1325 700 1325 
Q 850 1325 900 1225 
Q 950 1125 950 1050 
Q 950 900 875 825 
Q 800 725 800 625 
Q 800 425 1037 325 
Q 1275 225 1550 225 
Q 1950 225 2162 550 
Q 2375 875 2375 1475 
Q 2375 1975 2187 2287 
Q 2000 2600 1625 2600 
Q 1350 2600 1150 2500 
Q 950 2400 775 2075 
L 550 2100 
L 675 4375 
L 2725 4375 
L 2650 4000 
L 850 4000 
L 750 2350 
Q 1000 2700 1237 2775 
Q 1475 2850 1725 2850 
z
" transform="scale(0.015625)"/>
       </defs>
       <use xlink:href="#SimSun-35"/>
       <use xlink:href="#SimSun-30" x="50"/>
      </g>
     </g>
    </g>
    <g id="xtick_7">
     <g id="line2d_7">
      <g>
       <use xlink:href="#m6032f600dc" x="691.2" y="751.68" style="stroke: #000000; stroke-width: 0.8"/>
      </g>
     </g>
     <g id="text_7">
      <!-- 60 -->
      <g transform="translate(666.2 794.422187) scale(0.5 -0.5)">
       <defs>
        <path id="SimSun-36" d="M 775 1800 
Q 775 1050 1037 637 
Q 1300 225 1675 225 
Q 2050 225 2250 500 
Q 2450 775 2450 1525 
Q 2450 2025 2237 2300 
Q 2025 2575 1725 2575 
Q 1450 2575 1212 2412 
Q 975 2250 775 1800 
z
M 1750 2825 
Q 2350 2825 2612 2425 
Q 2875 2025 2875 1525 
Q 2875 775 2512 412 
Q 2150 50 1675 50 
Q 1000 50 650 562 
Q 300 1075 300 2050 
Q 300 3200 725 3812 
Q 1150 4425 1875 4425 
Q 2225 4425 2437 4225 
Q 2650 4025 2650 3875 
Q 2650 3725 2587 3650 
Q 2525 3575 2375 3575 
Q 2250 3575 2187 3637 
Q 2125 3700 2125 3825 
Q 2125 3875 2150 3925 
Q 2150 3975 2150 4025 
Q 2150 4125 2075 4187 
Q 2000 4250 1800 4250 
Q 1375 4250 1075 3862 
Q 775 3475 775 2175 
Q 925 2500 1187 2662 
Q 1450 2825 1750 2825 
z
" transform="scale(0.015625)"/>
       </defs>
       <use xlink:href="#SimSun-36"/>
       <use xlink:href="#SimSun-30" x="50"/>
      </g>
     </g>
    </g>
    <g id="xtick_8">
     <g id="line2d_8">
      <g>
       <use xlink:href="#m6032f600dc" x="777.6" y="751.68" style="stroke: #000000; stroke-width: 0.8"/>
      </g>
     </g>
     <g id="text_8">
      <!-- 70 -->
      <g transform="translate(752.6 794.422187) scale(0.5 -0.5)">
       <defs>
        <path id="SimSun-37" d="M 2825 4200 
Q 2300 3350 1987 2537 
Q 1675 1725 1675 1125 
Q 1675 1025 1700 850 
Q 1700 650 1700 400 
Q 1700 200 1637 125 
Q 1575 50 1425 50 
Q 1300 50 1212 137 
Q 1125 225 1125 450 
Q 1125 925 1337 1625 
Q 1550 2325 2475 4000 
L 1225 4000 
Q 950 4000 787 3825 
Q 625 3650 550 3300 
L 400 3325 
L 575 4375 
L 2825 4375 
L 2825 4200 
z
" transform="scale(0.015625)"/>
       </defs>
       <use xlink:href="#SimSun-37"/>
       <use xlink:href="#SimSun-30" x="50"/>
      </g>
     </g>
    </g>
    <g id="xtick_9">
     <g id="line2d_9">
      <g>
       <use xlink:href="#m6032f600dc" x="864" y="751.68" style="stroke: #000000; stroke-width: 0.8"/>
      </g>
     </g>
     <g id="text_9">
      <!-- 80 -->
      <g transform="translate(839 794.422187) scale(0.5 -0.5)">
       <defs>
        <path id="SimSun-38" d="M 625 1125 
Q 625 725 887 475 
Q 1150 225 1550 225 
Q 2025 225 2237 475 
Q 2450 725 2450 1100 
Q 2450 1425 2150 1725 
Q 1850 2025 1250 2275 
Q 950 2075 787 1775 
Q 625 1475 625 1125 
z
M 2825 1175 
Q 2825 700 2475 375 
Q 2125 50 1550 50 
Q 1025 50 650 375 
Q 275 700 275 1125 
Q 275 1550 487 1850 
Q 700 2150 1100 2375 
Q 750 2550 562 2812 
Q 375 3075 375 3400 
Q 375 3825 700 4125 
Q 1025 4425 1600 4425 
Q 2125 4425 2450 4125 
Q 2775 3825 2775 3400 
Q 2775 3100 2587 2837 
Q 2400 2575 2000 2375 
Q 2425 2125 2625 1825 
Q 2825 1525 2825 1175 
z
M 2425 3375 
Q 2425 3725 2225 3987 
Q 2025 4250 1600 4250 
Q 1125 4250 925 4000 
Q 725 3750 725 3475 
Q 725 3200 1012 2937 
Q 1300 2675 1825 2475 
Q 2125 2625 2275 2850 
Q 2425 3075 2425 3375 
z
" transform="scale(0.015625)"/>
       </defs>
       <use xlink:href="#SimSun-38"/>
       <use xlink:href="#SimSun-30" x="50"/>
      </g>
     </g>
    </g>
    <g id="xtick_10">
     <g id="line2d_10">
      <g>
       <use xlink:href="#m6032f600dc" x="950.4" y="751.68" style="stroke: #000000; stroke-width: 0.8"/>
      </g>
     </g>
     <g id="text_10">
      <!-- 90 -->
      <g transform="translate(925.4 794.422187) scale(0.5 -0.5)">
       <defs>
        <path id="SimSun-39" d="M 700 3050 
Q 700 2500 912 2212 
Q 1125 1925 1450 1925 
Q 1825 1925 2100 2275 
Q 2375 2625 2375 2925 
Q 2375 3525 2175 3887 
Q 1975 4250 1525 4250 
Q 1100 4250 900 3912 
Q 700 3575 700 3050 
z
M 1375 1700 
Q 875 1700 575 2012 
Q 275 2325 275 3025 
Q 275 3625 600 4025 
Q 925 4425 1525 4425 
Q 2150 4425 2500 3925 
Q 2850 3425 2850 2475 
Q 2850 1425 2437 737 
Q 2025 50 1300 50 
Q 975 50 737 200 
Q 500 350 500 600 
Q 500 700 562 800 
Q 625 900 775 900 
Q 925 900 975 787 
Q 1025 675 1025 525 
Q 1025 425 1050 362 
Q 1075 300 1100 275 
Q 1125 250 1187 237 
Q 1250 225 1325 225 
Q 1775 225 2050 725 
Q 2325 1225 2375 2400 
Q 2250 2100 2000 1900 
Q 1750 1700 1375 1700 
z
" transform="scale(0.015625)"/>
       </defs>
       <use xlink:href="#SimSun-39"/>
       <use xlink:href="#SimSun-30" x="50"/>
      </g>
     </g>
    </g>
    <g id="xtick_11">
     <g id="line2d_11">
      <g>
       <use xlink:href="#m6032f600dc" x="1036.8" y="751.68" style="stroke: #000000; stroke-width: 0.8"/>
      </g>
     </g>
     <g id="text_11">
      <!-- 100 -->
      <g transform="translate(999.3 794.422187) scale(0.5 -0.5)">
       <use xlink:href="#SimSun-31"/>
       <use xlink:href="#SimSun-30" x="50"/>
       <use xlink:href="#SimSun-30" x="100"/>
      </g>
     </g>
    </g>
    <g id="text_12">
     <!-- $\mathrm{\ Load\ Factor}$ $\mathrm{(\%)}$ -->
     <g transform="translate(394.5 847.4675) scale(0.6 -0.6)">
      <defs>
       <path id="STIXGeneral-Regular-4c" d="M 3827 1114 
L 3520 0 
L 77 0 
L 77 122 
Q 429 141 531 256 
Q 634 371 634 736 
L 634 3494 
Q 634 3872 541 3981 
Q 448 4090 77 4115 
L 77 4237 
L 1888 4237 
L 1888 4115 
Q 1498 4090 1392 3984 
Q 1286 3878 1286 3507 
L 1286 538 
Q 1286 358 1398 304 
Q 1510 250 1862 250 
L 2310 250 
Q 3085 250 3392 640 
Q 3520 813 3661 1114 
L 3827 1114 
z
" transform="scale(0.015625)"/>
       <path id="STIXGeneral-Regular-6f" d="M 3008 1478 
Q 3008 806 2608 371 
Q 2208 -64 1568 -64 
Q 979 -64 582 368 
Q 186 800 186 1459 
Q 186 2125 582 2534 
Q 979 2944 1626 2944 
Q 2221 2944 2614 2537 
Q 3008 2131 3008 1478 
z
M 2432 1306 
Q 2432 2035 2112 2445 
Q 1856 2765 1504 2765 
Q 1171 2765 966 2493 
Q 762 2221 762 1747 
Q 762 928 1101 435 
Q 1318 115 1677 115 
Q 2029 115 2230 432 
Q 2432 749 2432 1306 
z
" transform="scale(0.015625)"/>
       <path id="STIXGeneral-Regular-61" d="M 2829 422 
L 2829 243 
Q 2586 -64 2253 -64 
Q 1888 -64 1843 403 
L 1837 403 
Q 1427 -64 909 -64 
Q 608 -64 422 112 
Q 237 288 237 602 
Q 237 1050 685 1350 
Q 992 1555 1837 1869 
L 1837 2214 
Q 1837 2502 1699 2646 
Q 1562 2790 1338 2790 
Q 1146 2790 1018 2697 
Q 890 2605 890 2477 
Q 890 2419 909 2348 
Q 928 2278 928 2208 
Q 928 2112 841 2029 
Q 755 1946 634 1946 
Q 525 1946 441 2029 
Q 358 2112 358 2240 
Q 358 2547 685 2752 
Q 986 2944 1421 2944 
Q 1939 2944 2176 2656 
Q 2291 2522 2323 2384 
Q 2355 2246 2355 1946 
L 2355 723 
Q 2355 301 2554 301 
Q 2682 301 2829 422 
z
M 1837 813 
L 1837 1715 
Q 1248 1510 1018 1293 
Q 800 1094 800 800 
Q 800 557 921 432 
Q 1043 307 1242 307 
Q 1453 307 1613 410 
Q 1747 506 1792 589 
Q 1837 672 1837 813 
z
" transform="scale(0.015625)"/>
       <path id="STIXGeneral-Regular-64" d="M 3142 269 
L 2202 -64 
L 2176 -45 
L 2176 365 
Q 1869 -64 1357 -64 
Q 826 -64 499 317 
Q 173 698 173 1312 
Q 173 1990 563 2467 
Q 954 2944 1504 2944 
Q 1850 2944 2176 2669 
L 2176 3667 
Q 2176 3866 2118 3930 
Q 2061 3994 1882 3994 
Q 1792 3994 1741 3987 
L 1741 4090 
Q 2323 4243 2682 4371 
L 2714 4358 
L 2714 730 
Q 2714 506 2768 435 
Q 2822 365 2995 365 
Q 3034 365 3142 371 
L 3142 269 
z
M 2176 653 
L 2176 2125 
Q 2176 2381 1981 2573 
Q 1786 2765 1523 2765 
Q 1158 2765 940 2438 
Q 723 2112 723 1568 
Q 723 979 963 624 
Q 1203 269 1606 269 
Q 1907 269 2080 474 
Q 2176 582 2176 653 
z
" transform="scale(0.015625)"/>
       <path id="STIXGeneral-Regular-46" d="M 3494 3322 
L 3334 3322 
Q 3264 3757 3094 3875 
Q 2925 3994 2349 3994 
L 1504 3994 
Q 1370 3994 1328 3946 
Q 1286 3898 1286 3744 
L 1286 2355 
L 2195 2355 
Q 2598 2355 2736 2470 
Q 2874 2586 2918 2963 
L 3066 2963 
L 3066 1472 
L 2918 1472 
Q 2880 1862 2745 1977 
Q 2611 2093 2195 2093 
L 1286 2093 
L 1286 717 
Q 1286 352 1392 246 
Q 1498 141 1869 122 
L 1869 0 
L 70 0 
L 70 122 
Q 435 147 534 259 
Q 634 371 634 787 
L 634 3526 
Q 634 3878 538 3984 
Q 442 4090 77 4115 
L 77 4237 
L 3462 4237 
L 3494 3322 
z
" transform="scale(0.015625)"/>
       <path id="STIXGeneral-Regular-63" d="M 2547 998 
L 2637 941 
Q 2362 403 2112 205 
Q 1786 -64 1376 -64 
Q 845 -64 502 336 
Q 160 736 160 1357 
Q 160 2170 698 2618 
Q 1094 2944 1562 2944 
Q 1965 2944 2256 2749 
Q 2547 2554 2547 2285 
Q 2547 2176 2457 2096 
Q 2368 2016 2246 2016 
Q 2022 2016 1939 2310 
L 1901 2451 
Q 1850 2630 1773 2694 
Q 1696 2758 1523 2758 
Q 1133 2758 893 2451 
Q 653 2144 653 1645 
Q 653 1094 928 745 
Q 1203 397 1645 397 
Q 1920 397 2118 528 
Q 2317 659 2547 998 
z
" transform="scale(0.015625)"/>
       <path id="STIXGeneral-Regular-74" d="M 1702 493 
L 1786 422 
Q 1478 -64 1011 -64 
Q 448 -64 448 749 
L 448 2675 
L 109 2675 
Q 83 2694 83 2720 
Q 83 2771 192 2842 
Q 435 2982 813 3526 
Q 826 3546 874 3606 
Q 922 3667 941 3706 
Q 986 3706 986 3622 
L 986 2880 
L 1632 2880 
L 1632 2675 
L 986 2675 
L 986 845 
Q 986 538 1062 403 
Q 1139 269 1318 269 
Q 1510 269 1702 493 
z
" transform="scale(0.015625)"/>
       <path id="STIXGeneral-Regular-72" d="M 1024 2931 
L 1024 2342 
Q 1267 2688 1430 2816 
Q 1594 2944 1792 2944 
Q 1958 2944 2051 2854 
Q 2144 2765 2144 2605 
Q 2144 2470 2077 2393 
Q 2010 2317 1894 2317 
Q 1773 2317 1638 2445 
Q 1536 2541 1472 2541 
Q 1338 2541 1181 2355 
Q 1024 2170 1024 2016 
L 1024 576 
Q 1024 301 1133 205 
Q 1242 109 1568 96 
L 1568 0 
L 32 0 
L 32 96 
Q 339 154 412 224 
Q 486 294 486 538 
L 486 2138 
Q 486 2349 438 2435 
Q 390 2522 269 2522 
Q 166 2522 45 2496 
L 45 2598 
Q 448 2726 992 2944 
L 1024 2931 
z
" transform="scale(0.015625)"/>
       <path id="SimSun-20" d="M 0 0 
Q 0 0 0 0 
z
" transform="scale(0.015625)"/>
       <path id="STIXGeneral-Regular-28" d="M 1946 -1030 
L 1869 -1133 
Q 1126 -710 716 32 
Q 307 774 307 1613 
Q 307 3386 1888 4326 
L 1946 4224 
Q 1293 3667 1075 3126 
Q 858 2586 858 1632 
Q 858 685 1082 96 
Q 1306 -493 1946 -1030 
z
" transform="scale(0.015625)"/>
       <path id="STIXGeneral-Regular-25" d="M 4390 1363 
Q 4390 781 4070 329 
Q 3750 -122 3341 -122 
Q 3014 -122 2790 134 
Q 2566 390 2566 762 
Q 2566 1274 2940 1693 
Q 3315 2112 3776 2112 
Q 4070 2112 4230 1917 
Q 4390 1722 4390 1363 
z
M 4243 1376 
Q 4243 1626 4131 1779 
Q 4019 1933 3840 1933 
Q 3654 1933 3526 1786 
Q 3315 1562 3171 1187 
Q 3027 813 3027 486 
Q 3027 301 3129 176 
Q 3232 51 3386 51 
Q 3718 51 3980 457 
Q 4243 864 4243 1376 
z
M 3974 4518 
L 1222 -115 
L 922 -115 
L 3443 4096 
Q 3264 3891 3094 3811 
Q 2925 3731 2669 3731 
Q 2445 3731 2182 3821 
Q 2208 3674 2208 3539 
Q 2208 3206 2067 2873 
Q 1926 2541 1696 2323 
Q 1453 2086 1146 2086 
Q 826 2086 608 2339 
Q 390 2592 390 2963 
Q 390 3507 761 3916 
Q 1133 4326 1626 4326 
Q 1792 4326 2010 4147 
Q 2310 3898 2624 3898 
Q 2918 3898 3084 3994 
Q 3251 4090 3693 4518 
L 3974 4518 
z
M 2054 3642 
Q 2054 3782 2025 3833 
Q 1997 3885 1894 3936 
Q 1747 4006 1613 4154 
Q 1414 4058 1331 3984 
Q 1248 3910 1152 3750 
Q 845 3264 845 2707 
Q 845 2509 944 2384 
Q 1043 2259 1210 2259 
Q 1549 2259 1801 2675 
Q 2054 3091 2054 3642 
z
" transform="scale(0.015625)"/>
       <path id="STIXGeneral-Regular-29" d="M 186 4224 
L 262 4326 
Q 992 3891 1408 3148 
Q 1824 2406 1824 1581 
Q 1824 -166 243 -1133 
L 186 -1030 
Q 845 -486 1059 54 
Q 1274 595 1274 1562 
Q 1274 2534 1059 3120 
Q 845 3706 186 4224 
z
" transform="scale(0.015625)"/>
      </defs>
      <use xlink:href="#STIXGeneral-Regular-4c" transform="translate(24.06642 0.40625)"/>
      <use xlink:href="#STIXGeneral-Regular-6f" transform="translate(85.166411 0.40625)"/>
      <use xlink:href="#STIXGeneral-Regular-61" transform="translate(135.166395 0.40625)"/>
      <use xlink:href="#STIXGeneral-Regular-64" transform="translate(179.566389 0.40625)"/>
      <use xlink:href="#STIXGeneral-Regular-46" transform="translate(253.632794 0.40625)"/>
      <use xlink:href="#STIXGeneral-Regular-61" transform="translate(309.232785 0.40625)"/>
      <use xlink:href="#STIXGeneral-Regular-63" transform="translate(353.632779 0.40625)"/>
      <use xlink:href="#STIXGeneral-Regular-74" transform="translate(398.032773 0.40625)"/>
      <use xlink:href="#STIXGeneral-Regular-6f" transform="translate(425.83276 0.40625)"/>
      <use xlink:href="#STIXGeneral-Regular-72" transform="translate(475.832745 0.40625)"/>
      <use xlink:href="#SimSun-20" transform="translate(509.132733 0.40625)"/>
      <use xlink:href="#STIXGeneral-Regular-28" transform="translate(559.132733 0.40625)"/>
      <use xlink:href="#STIXGeneral-Regular-25" transform="translate(592.432721 0.40625)"/>
      <use xlink:href="#STIXGeneral-Regular-29" transform="translate(667.132702 0.40625)"/>
     </g>
    </g>
   </g>
   <g id="matplotlib.axis_2">
    <g id="ytick_1">
     <g id="line2d_12">
      <defs>
       <path id="m29dfd88f8e" d="M 0 0 
L -3.5 0 
" style="stroke: #000000; stroke-width: 0.8"/>
      </defs>
      <g>
       <use xlink:href="#m29dfd88f8e" x="172.8" y="741.800179" style="stroke: #000000; stroke-width: 0.8"/>
      </g>
     </g>
     <g id="text_13">
      <!-- 0 -->
      <g transform="translate(140.8 759.671273) scale(0.5 -0.5)">
       <use xlink:href="#SimSun-30"/>
      </g>
     </g>
    </g>
    <g id="ytick_2">
     <g id="line2d_13">
      <g>
       <use xlink:href="#m29dfd88f8e" x="172.8" y="675.934709" style="stroke: #000000; stroke-width: 0.8"/>
      </g>
     </g>
     <g id="text_14">
      <!-- 1.0 -->
      <g transform="translate(90.8 693.805802) scale(0.5 -0.5)">
       <defs>
        <path id="SimSun-2e" d="M 800 25 
Q 650 25 537 125 
Q 425 225 425 400 
Q 425 575 537 675 
Q 650 775 800 775 
Q 950 775 1062 662 
Q 1175 550 1175 400 
Q 1175 225 1062 125 
Q 950 25 800 25 
z
" transform="scale(0.015625)"/>
       </defs>
       <use xlink:href="#SimSun-31"/>
       <use xlink:href="#SimSun-2e" x="50"/>
       <use xlink:href="#SimSun-30" x="100"/>
      </g>
     </g>
    </g>
    <g id="ytick_3">
     <g id="line2d_14">
      <g>
       <use xlink:href="#m29dfd88f8e" x="172.8" y="610.069238" style="stroke: #000000; stroke-width: 0.8"/>
      </g>
     </g>
     <g id="text_15">
      <!-- 2.0 -->
      <g transform="translate(90.8 627.940331) scale(0.5 -0.5)">
       <use xlink:href="#SimSun-32"/>
       <use xlink:href="#SimSun-2e" x="50"/>
       <use xlink:href="#SimSun-30" x="100"/>
      </g>
     </g>
    </g>
    <g id="ytick_4">
     <g id="line2d_15">
      <g>
       <use xlink:href="#m29dfd88f8e" x="172.8" y="544.203767" style="stroke: #000000; stroke-width: 0.8"/>
      </g>
     </g>
     <g id="text_16">
      <!-- 3.0 -->
      <g transform="translate(90.8 562.074861) scale(0.5 -0.5)">
       <use xlink:href="#SimSun-33"/>
       <use xlink:href="#SimSun-2e" x="50"/>
       <use xlink:href="#SimSun-30" x="100"/>
      </g>
     </g>
    </g>
    <g id="ytick_5">
     <g id="line2d_16">
      <g>
       <use xlink:href="#m29dfd88f8e" x="172.8" y="478.338296" style="stroke: #000000; stroke-width: 0.8"/>
      </g>
     </g>
     <g id="text_17">
      <!-- 4.0 -->
      <g transform="translate(90.8 496.20939) scale(0.5 -0.5)">
       <use xlink:href="#SimSun-34"/>
       <use xlink:href="#SimSun-2e" x="50"/>
       <use xlink:href="#SimSun-30" x="100"/>
      </g>
     </g>
    </g>
    <g id="ytick_6">
     <g id="line2d_17">
      <g>
       <use xlink:href="#m29dfd88f8e" x="172.8" y="412.472825" style="stroke: #000000; stroke-width: 0.8"/>
      </g>
     </g>
     <g id="text_18">
      <!-- 5.0 -->
      <g transform="translate(90.8 430.343919) scale(0.5 -0.5)">
       <use xlink:href="#SimSun-35"/>
       <use xlink:href="#SimSun-2e" x="50"/>
       <use xlink:href="#SimSun-30" x="100"/>
      </g>
     </g>
    </g>
    <g id="ytick_7">
     <g id="line2d_18">
      <g>
       <use xlink:href="#m29dfd88f8e" x="172.8" y="346.607354" style="stroke: #000000; stroke-width: 0.8"/>
      </g>
     </g>
     <g id="text_19">
      <!-- 6.0 -->
      <g transform="translate(90.8 364.478448) scale(0.5 -0.5)">
       <use xlink:href="#SimSun-36"/>
       <use xlink:href="#SimSun-2e" x="50"/>
       <use xlink:href="#SimSun-30" x="100"/>
      </g>
     </g>
    </g>
    <g id="ytick_8">
     <g id="line2d_19">
      <g>
       <use xlink:href="#m29dfd88f8e" x="172.8" y="280.741883" style="stroke: #000000; stroke-width: 0.8"/>
      </g>
     </g>
     <g id="text_20">
      <!-- 7.0 -->
      <g transform="translate(90.8 298.612977) scale(0.5 -0.5)">
       <use xlink:href="#SimSun-37"/>
       <use xlink:href="#SimSun-2e" x="50"/>
       <use xlink:href="#SimSun-30" x="100"/>
      </g>
     </g>
    </g>
    <g id="ytick_9">
     <g id="line2d_20">
      <g>
       <use xlink:href="#m29dfd88f8e" x="172.8" y="214.876413" style="stroke: #000000; stroke-width: 0.8"/>
      </g>
     </g>
     <g id="text_21">
      <!-- 8.0 -->
      <g transform="translate(90.8 232.747506) scale(0.5 -0.5)">
       <use xlink:href="#SimSun-38"/>
       <use xlink:href="#SimSun-2e" x="50"/>
       <use xlink:href="#SimSun-30" x="100"/>
      </g>
     </g>
    </g>
    <g id="ytick_10">
     <g id="line2d_21">
      <g>
       <use xlink:href="#m29dfd88f8e" x="172.8" y="149.010942" style="stroke: #000000; stroke-width: 0.8"/>
      </g>
     </g>
     <g id="text_22">
      <!-- 9.0 -->
      <g transform="translate(90.8 166.882035) scale(0.5 -0.5)">
       <use xlink:href="#SimSun-39"/>
       <use xlink:href="#SimSun-2e" x="50"/>
       <use xlink:href="#SimSun-30" x="100"/>
      </g>
     </g>
    </g>
    <g id="ytick_11">
     <g id="line2d_22">
      <g>
       <use xlink:href="#m29dfd88f8e" x="172.8" y="83.145471" style="stroke: #000000; stroke-width: 0.8"/>
      </g>
     </g>
     <g id="text_23">
      <!-- 10.0 -->
      <g transform="translate(65.8 101.016565) scale(0.5 -0.5)">
       <use xlink:href="#SimSun-31"/>
       <use xlink:href="#SimSun-30" x="50"/>
       <use xlink:href="#SimSun-2e" x="100"/>
       <use xlink:href="#SimSun-30" x="150"/>
      </g>
     </g>
    </g>
    <g id="ytick_12">
     <g id="line2d_23">
      <g>
       <use xlink:href="#m29dfd88f8e" x="172.8" y="17.28" style="stroke: #000000; stroke-width: 0.8"/>
      </g>
     </g>
     <g id="text_24">
      <!-- 11.0 -->
      <g transform="translate(65.8 35.151094) scale(0.5 -0.5)">
       <use xlink:href="#SimSun-31"/>
       <use xlink:href="#SimSun-31" x="50"/>
       <use xlink:href="#SimSun-2e" x="100"/>
       <use xlink:href="#SimSun-30" x="150"/>
      </g>
     </g>
    </g>
    <g id="text_25">
     <!-- $\mathrm{kick\ number}$ $\mathrm{(M)}$ -->
     <g transform="translate(51 596.88) rotate(-90) scale(0.6 -0.6)">
      <defs>
       <path id="STIXGeneral-Regular-6b" d="M 3232 0 
L 1837 0 
L 1837 96 
L 1958 96 
Q 2093 96 2093 192 
Q 2093 250 2022 339 
L 1062 1606 
L 1062 429 
Q 1062 262 1142 185 
Q 1222 109 1414 102 
L 1542 96 
L 1542 0 
L 45 0 
L 45 96 
Q 390 154 457 214 
Q 525 275 525 525 
L 525 3610 
Q 525 3840 467 3920 
Q 410 4000 250 4000 
Q 211 4000 45 3987 
L 45 4090 
L 237 4141 
Q 621 4243 1037 4371 
L 1062 4358 
L 1062 1670 
L 1939 2451 
Q 2086 2586 2086 2675 
Q 2086 2739 2019 2761 
Q 1952 2784 1766 2790 
L 1766 2880 
L 3072 2880 
L 3072 2784 
Q 2752 2784 2505 2646 
Q 2259 2509 1690 1978 
L 1504 1805 
L 2483 563 
Q 2829 122 3232 96 
L 3232 0 
z
" transform="scale(0.015625)"/>
       <path id="STIXGeneral-Regular-69" d="M 1152 4045 
Q 1152 3904 1056 3811 
Q 960 3718 819 3718 
Q 685 3718 592 3811 
Q 499 3904 499 4045 
Q 499 4179 595 4275 
Q 691 4371 826 4371 
Q 966 4371 1059 4275 
Q 1152 4179 1152 4045 
z
M 1619 0 
L 102 0 
L 102 96 
Q 435 115 521 211 
Q 608 307 608 666 
L 608 2118 
Q 608 2342 563 2432 
Q 518 2522 397 2522 
Q 243 2522 128 2490 
L 128 2592 
L 1120 2944 
L 1146 2918 
L 1146 672 
Q 1146 314 1226 218 
Q 1306 122 1619 96 
L 1619 0 
z
" transform="scale(0.015625)"/>
       <path id="STIXGeneral-Regular-6e" d="M 3104 0 
L 1773 0 
L 1779 96 
Q 2016 115 2096 233 
Q 2176 352 2176 672 
L 2176 1946 
Q 2176 2592 1709 2592 
Q 1549 2592 1408 2515 
Q 1267 2438 1050 2227 
L 1050 461 
Q 1050 269 1136 192 
Q 1222 115 1466 96 
L 1466 0 
L 115 0 
L 115 96 
Q 358 115 435 214 
Q 512 314 512 602 
L 512 2157 
Q 512 2394 467 2483 
Q 422 2573 288 2573 
Q 160 2573 102 2547 
L 102 2656 
Q 550 2784 979 2944 
L 1030 2925 
L 1030 2426 
L 1037 2426 
Q 1491 2944 1958 2944 
Q 2323 2944 2518 2688 
Q 2714 2432 2714 1958 
L 2714 544 
Q 2714 288 2790 205 
Q 2867 122 3104 96 
L 3104 0 
z
" transform="scale(0.015625)"/>
       <path id="STIXGeneral-Regular-75" d="M 3072 320 
L 3072 230 
Q 2573 96 2195 -58 
L 2163 -38 
L 2163 486 
L 2150 486 
Q 1747 -64 1235 -64 
Q 870 -64 662 160 
Q 454 384 454 755 
L 454 2362 
Q 454 2598 371 2688 
Q 288 2778 58 2790 
L 58 2880 
L 992 2880 
L 992 813 
Q 992 595 1123 451 
Q 1254 307 1446 307 
Q 1760 307 1984 506 
Q 2067 582 2099 649 
Q 2131 717 2131 877 
L 2131 2355 
Q 2131 2605 2041 2678 
Q 1952 2752 1658 2771 
L 1658 2880 
L 2669 2880 
L 2669 685 
Q 2669 461 2742 390 
Q 2816 320 3034 320 
L 3072 320 
z
" transform="scale(0.015625)"/>
       <path id="STIXGeneral-Regular-6d" d="M 4960 0 
L 3565 0 
L 3565 96 
Q 3834 122 3907 208 
Q 3981 294 3981 576 
L 3981 1894 
Q 3981 2278 3869 2444 
Q 3757 2611 3488 2611 
Q 3264 2611 3107 2521 
Q 2950 2432 2803 2221 
L 2803 608 
Q 2803 301 2896 201 
Q 2989 102 3264 96 
L 3264 0 
L 1830 0 
L 1830 96 
Q 2112 115 2189 188 
Q 2266 262 2266 550 
L 2266 1901 
Q 2266 2611 1850 2611 
Q 1670 2611 1468 2531 
Q 1267 2451 1171 2336 
Q 1088 2240 1088 2227 
L 1088 448 
Q 1088 243 1177 176 
Q 1267 109 1523 96 
L 1523 0 
L 102 0 
L 102 96 
Q 371 102 460 195 
Q 550 288 550 563 
L 550 2150 
Q 550 2387 499 2480 
Q 448 2573 326 2573 
Q 230 2573 122 2547 
L 122 2656 
Q 557 2778 1011 2944 
L 1062 2925 
L 1062 2451 
L 1075 2451 
Q 1363 2752 1584 2848 
Q 1805 2944 2054 2944 
Q 2560 2944 2733 2406 
Q 3232 2944 3776 2944 
Q 4518 2944 4518 1792 
L 4518 493 
Q 4518 282 4582 202 
Q 4646 122 4794 109 
L 4960 96 
L 4960 0 
z
" transform="scale(0.015625)"/>
       <path id="STIXGeneral-Regular-62" d="M 979 4358 
L 979 2406 
Q 1082 2650 1315 2797 
Q 1549 2944 1843 2944 
Q 2349 2944 2672 2541 
Q 2995 2138 2995 1536 
Q 2995 832 2566 384 
Q 2138 -64 1498 -64 
Q 1107 -64 774 67 
Q 442 198 442 358 
L 442 3622 
Q 442 3859 384 3926 
Q 326 3994 128 3994 
Q 83 3994 19 3981 
L 19 4090 
L 211 4147 
Q 864 4346 947 4371 
L 979 4358 
z
M 979 2035 
L 979 474 
Q 979 326 1161 233 
Q 1344 141 1600 141 
Q 1978 141 2195 416 
Q 2432 710 2432 1261 
Q 2432 1888 2182 2240 
Q 1971 2541 1613 2541 
Q 1357 2541 1168 2390 
Q 979 2240 979 2035 
z
" transform="scale(0.015625)"/>
       <path id="STIXGeneral-Regular-65" d="M 2611 1050 
L 2714 1005 
Q 2330 -64 1376 -64 
Q 813 -64 486 329 
Q 160 723 160 1389 
Q 160 2074 525 2509 
Q 890 2944 1485 2944 
Q 2061 2944 2374 2502 
Q 2560 2246 2592 1773 
L 621 1773 
Q 646 1370 700 1158 
Q 755 947 915 730 
Q 1184 378 1626 378 
Q 1939 378 2153 531 
Q 2368 685 2611 1050 
z
M 634 1978 
L 1939 1978 
Q 1882 2381 1750 2547 
Q 1619 2714 1312 2714 
Q 1043 2714 864 2525 
Q 685 2336 634 1978 
z
" transform="scale(0.015625)"/>
       <path id="STIXGeneral-Regular-4d" d="M 5530 0 
L 3738 0 
L 3738 122 
Q 4115 147 4214 265 
Q 4314 384 4314 787 
L 4314 3661 
L 2682 0 
L 2592 0 
L 979 3514 
L 979 966 
Q 979 448 1088 294 
Q 1197 141 1574 122 
L 1574 0 
L 77 0 
L 77 122 
Q 358 141 480 205 
Q 602 269 650 432 
Q 698 595 698 966 
L 698 3514 
Q 698 3878 589 3984 
Q 480 4090 90 4115 
L 90 4237 
L 1357 4237 
L 2835 1024 
L 4250 4237 
L 5523 4237 
L 5523 4115 
Q 5178 4109 5072 3993 
Q 4966 3878 4966 3520 
L 4966 717 
Q 4966 378 5072 262 
Q 5178 147 5530 122 
L 5530 0 
z
" transform="scale(0.015625)"/>
      </defs>
      <use xlink:href="#STIXGeneral-Regular-6b" transform="translate(0 0.703125)"/>
      <use xlink:href="#STIXGeneral-Regular-69" transform="translate(49.999985 0.703125)"/>
      <use xlink:href="#STIXGeneral-Regular-63" transform="translate(77.799973 0.703125)"/>
      <use xlink:href="#STIXGeneral-Regular-6b" transform="translate(122.199966 0.703125)"/>
      <use xlink:href="#STIXGeneral-Regular-6e" transform="translate(196.266371 0.703125)"/>
      <use xlink:href="#STIXGeneral-Regular-75" transform="translate(246.266356 0.703125)"/>
      <use xlink:href="#STIXGeneral-Regular-6d" transform="translate(296.266341 0.703125)"/>
      <use xlink:href="#STIXGeneral-Regular-62" transform="translate(374.066328 0.703125)"/>
      <use xlink:href="#STIXGeneral-Regular-65" transform="translate(424.066313 0.703125)"/>
      <use xlink:href="#STIXGeneral-Regular-72" transform="translate(468.466307 0.703125)"/>
      <use xlink:href="#SimSun-20" transform="translate(501.766295 0.703125)"/>
      <use xlink:href="#STIXGeneral-Regular-28" transform="translate(551.766295 0.703125)"/>
      <use xlink:href="#STIXGeneral-Regular-4d" transform="translate(585.066283 0.703125)"/>
      <use xlink:href="#STIXGeneral-Regular-29" transform="translate(673.966276 0.703125)"/>
     </g>
    </g>
   </g>
   <g id="line2d_24">
    <path d="M 173.202624 741.800179 
L 173.615616 741.800179 
L 174.354336 741.800179 
L 175.652928 741.800179 
L 176.47632 741.800179 
L 177.296256 741.800179 
L 178.111872 741.800179 
L 178.929216 741.800179 
L 179.75952 741.800179 
L 180.588096 741.800179 
L 181.421856 741.800179 
L 182.254752 741.800179 
L 183.098016 741.800179 
L 183.944736 741.800179 
L 184.795776 741.800179 
L 185.653728 741.800179 
L 186.516 741.800179 
L 187.377408 741.800179 
L 188.241408 741.800179 
L 189.12096 741.800179 
L 190.001376 741.800179 
L 190.886976 741.800179 
L 191.774304 741.800179 
L 192.669408 741.800179 
L 193.568832 741.800179 
L 194.46912 741.800179 
L 195.386688 741.800179 
L 196.298208 741.800179 
L 197.215776 741.800179 
L 198.146304 741.800179 
L 241.729056 741.800179 
L 285.94944 741.800179 
L 329.906304 741.800179 
L 373.532256 741.800048 
L 417.576384 741.798533 
L 461.4408 741.78997 
L 504.768672 741.73899 
L 548.13888 741.531317 
L 592.020576 740.857974 
L 635.879808 739.083097 
L 679.238784 734.900508 
L 723.072096 725.836563 
L 766.678176 707.787514 
L 810.097632 673.827343 
L 853.642368 611.62195 
L 882.375552 545.004625 
L 908.424288 456.972064 
L 925.825248 375.762837 
L 943.602912 264.154916 
L 954.624096 172.009517 
L 964.395072 67.162161 
" clip-path="url(#pa2a1298feb)" style="fill: none; stroke: #ff0000; stroke-width: 4; stroke-linecap: square"/>
    <defs>
     <path id="m25ac96f92f" d="M -8.5 8.5 
L 8.5 8.5 
L 8.5 -8.5 
L -8.5 -8.5 
z
" style="stroke: #ff0000; stroke-width: 5; stroke-linejoin: miter"/>
    </defs>
    <g clip-path="url(#pa2a1298feb)">
     <use xlink:href="#m25ac96f92f" x="173.202624" y="741.800179" style="fill: #ffffff; stroke: #ff0000; stroke-width: 5; stroke-linejoin: miter"/>
     <use xlink:href="#m25ac96f92f" x="173.615616" y="741.800179" style="fill: #ffffff; stroke: #ff0000; stroke-width: 5; stroke-linejoin: miter"/>
     <use xlink:href="#m25ac96f92f" x="174.354336" y="741.800179" style="fill: #ffffff; stroke: #ff0000; stroke-width: 5; stroke-linejoin: miter"/>
     <use xlink:href="#m25ac96f92f" x="175.652928" y="741.800179" style="fill: #ffffff; stroke: #ff0000; stroke-width: 5; stroke-linejoin: miter"/>
     <use xlink:href="#m25ac96f92f" x="176.47632" y="741.800179" style="fill: #ffffff; stroke: #ff0000; stroke-width: 5; stroke-linejoin: miter"/>
     <use xlink:href="#m25ac96f92f" x="177.296256" y="741.800179" style="fill: #ffffff; stroke: #ff0000; stroke-width: 5; stroke-linejoin: miter"/>
     <use xlink:href="#m25ac96f92f" x="178.111872" y="741.800179" style="fill: #ffffff; stroke: #ff0000; stroke-width: 5; stroke-linejoin: miter"/>
     <use xlink:href="#m25ac96f92f" x="178.929216" y="741.800179" style="fill: #ffffff; stroke: #ff0000; stroke-width: 5; stroke-linejoin: miter"/>
     <use xlink:href="#m25ac96f92f" x="179.75952" y="741.800179" style="fill: #ffffff; stroke: #ff0000; stroke-width: 5; stroke-linejoin: miter"/>
     <use xlink:href="#m25ac96f92f" x="180.588096" y="741.800179" style="fill: #ffffff; stroke: #ff0000; stroke-width: 5; stroke-linejoin: miter"/>
     <use xlink:href="#m25ac96f92f" x="181.421856" y="741.800179" style="fill: #ffffff; stroke: #ff0000; stroke-width: 5; stroke-linejoin: miter"/>
     <use xlink:href="#m25ac96f92f" x="182.254752" y="741.800179" style="fill: #ffffff; stroke: #ff0000; stroke-width: 5; stroke-linejoin: miter"/>
     <use xlink:href="#m25ac96f92f" x="183.098016" y="741.800179" style="fill: #ffffff; stroke: #ff0000; stroke-width: 5; stroke-linejoin: miter"/>
     <use xlink:href="#m25ac96f92f" x="183.944736" y="741.800179" style="fill: #ffffff; stroke: #ff0000; stroke-width: 5; stroke-linejoin: miter"/>
     <use xlink:href="#m25ac96f92f" x="184.795776" y="741.800179" style="fill: #ffffff; stroke: #ff0000; stroke-width: 5; stroke-linejoin: miter"/>
     <use xlink:href="#m25ac96f92f" x="185.653728" y="741.800179" style="fill: #ffffff; stroke: #ff0000; stroke-width: 5; stroke-linejoin: miter"/>
     <use xlink:href="#m25ac96f92f" x="186.516" y="741.800179" style="fill: #ffffff; stroke: #ff0000; stroke-width: 5; stroke-linejoin: miter"/>
     <use xlink:href="#m25ac96f92f" x="187.377408" y="741.800179" style="fill: #ffffff; stroke: #ff0000; stroke-width: 5; stroke-linejoin: miter"/>
     <use xlink:href="#m25ac96f92f" x="188.241408" y="741.800179" style="fill: #ffffff; stroke: #ff0000; stroke-width: 5; stroke-linejoin: miter"/>
     <use xlink:href="#m25ac96f92f" x="189.12096" y="741.800179" style="fill: #ffffff; stroke: #ff0000; stroke-width: 5; stroke-linejoin: miter"/>
     <use xlink:href="#m25ac96f92f" x="190.001376" y="741.800179" style="fill: #ffffff; stroke: #ff0000; stroke-width: 5; stroke-linejoin: miter"/>
     <use xlink:href="#m25ac96f92f" x="190.886976" y="741.800179" style="fill: #ffffff; stroke: #ff0000; stroke-width: 5; stroke-linejoin: miter"/>
     <use xlink:href="#m25ac96f92f" x="191.774304" y="741.800179" style="fill: #ffffff; stroke: #ff0000; stroke-width: 5; stroke-linejoin: miter"/>
     <use xlink:href="#m25ac96f92f" x="192.669408" y="741.800179" style="fill: #ffffff; stroke: #ff0000; stroke-width: 5; stroke-linejoin: miter"/>
     <use xlink:href="#m25ac96f92f" x="193.568832" y="741.800179" style="fill: #ffffff; stroke: #ff0000; stroke-width: 5; stroke-linejoin: miter"/>
     <use xlink:href="#m25ac96f92f" x="194.46912" y="741.800179" style="fill: #ffffff; stroke: #ff0000; stroke-width: 5; stroke-linejoin: miter"/>
     <use xlink:href="#m25ac96f92f" x="195.386688" y="741.800179" style="fill: #ffffff; stroke: #ff0000; stroke-width: 5; stroke-linejoin: miter"/>
     <use xlink:href="#m25ac96f92f" x="196.298208" y="741.800179" style="fill: #ffffff; stroke: #ff0000; stroke-width: 5; stroke-linejoin: miter"/>
     <use xlink:href="#m25ac96f92f" x="197.215776" y="741.800179" style="fill: #ffffff; stroke: #ff0000; stroke-width: 5; stroke-linejoin: miter"/>
     <use xlink:href="#m25ac96f92f" x="198.146304" y="741.800179" style="fill: #ffffff; stroke: #ff0000; stroke-width: 5; stroke-linejoin: miter"/>
     <use xlink:href="#m25ac96f92f" x="241.729056" y="741.800179" style="fill: #ffffff; stroke: #ff0000; stroke-width: 5; stroke-linejoin: miter"/>
     <use xlink:href="#m25ac96f92f" x="285.94944" y="741.800179" style="fill: #ffffff; stroke: #ff0000; stroke-width: 5; stroke-linejoin: miter"/>
     <use xlink:href="#m25ac96f92f" x="329.906304" y="741.800179" style="fill: #ffffff; stroke: #ff0000; stroke-width: 5; stroke-linejoin: miter"/>
     <use xlink:href="#m25ac96f92f" x="373.532256" y="741.800048" style="fill: #ffffff; stroke: #ff0000; stroke-width: 5; stroke-linejoin: miter"/>
     <use xlink:href="#m25ac96f92f" x="417.576384" y="741.798533" style="fill: #ffffff; stroke: #ff0000; stroke-width: 5; stroke-linejoin: miter"/>
     <use xlink:href="#m25ac96f92f" x="461.4408" y="741.78997" style="fill: #ffffff; stroke: #ff0000; stroke-width: 5; stroke-linejoin: miter"/>
     <use xlink:href="#m25ac96f92f" x="504.768672" y="741.73899" style="fill: #ffffff; stroke: #ff0000; stroke-width: 5; stroke-linejoin: miter"/>
     <use xlink:href="#m25ac96f92f" x="548.13888" y="741.531317" style="fill: #ffffff; stroke: #ff0000; stroke-width: 5; stroke-linejoin: miter"/>
     <use xlink:href="#m25ac96f92f" x="592.020576" y="740.857974" style="fill: #ffffff; stroke: #ff0000; stroke-width: 5; stroke-linejoin: miter"/>
     <use xlink:href="#m25ac96f92f" x="635.879808" y="739.083097" style="fill: #ffffff; stroke: #ff0000; stroke-width: 5; stroke-linejoin: miter"/>
     <use xlink:href="#m25ac96f92f" x="679.238784" y="734.900508" style="fill: #ffffff; stroke: #ff0000; stroke-width: 5; stroke-linejoin: miter"/>
     <use xlink:href="#m25ac96f92f" x="723.072096" y="725.836563" style="fill: #ffffff; stroke: #ff0000; stroke-width: 5; stroke-linejoin: miter"/>
     <use xlink:href="#m25ac96f92f" x="766.678176" y="707.787514" style="fill: #ffffff; stroke: #ff0000; stroke-width: 5; stroke-linejoin: miter"/>
     <use xlink:href="#m25ac96f92f" x="810.097632" y="673.827343" style="fill: #ffffff; stroke: #ff0000; stroke-width: 5; stroke-linejoin: miter"/>
     <use xlink:href="#m25ac96f92f" x="853.642368" y="611.62195" style="fill: #ffffff; stroke: #ff0000; stroke-width: 5; stroke-linejoin: miter"/>
     <use xlink:href="#m25ac96f92f" x="882.375552" y="545.004625" style="fill: #ffffff; stroke: #ff0000; stroke-width: 5; stroke-linejoin: miter"/>
     <use xlink:href="#m25ac96f92f" x="908.424288" y="456.972064" style="fill: #ffffff; stroke: #ff0000; stroke-width: 5; stroke-linejoin: miter"/>
     <use xlink:href="#m25ac96f92f" x="925.825248" y="375.762837" style="fill: #ffffff; stroke: #ff0000; stroke-width: 5; stroke-linejoin: miter"/>
     <use xlink:href="#m25ac96f92f" x="943.602912" y="264.154916" style="fill: #ffffff; stroke: #ff0000; stroke-width: 5; stroke-linejoin: miter"/>
     <use xlink:href="#m25ac96f92f" x="954.624096" y="172.009517" style="fill: #ffffff; stroke: #ff0000; stroke-width: 5; stroke-linejoin: miter"/>
     <use xlink:href="#m25ac96f92f" x="964.395072" y="67.162161" style="fill: #ffffff; stroke: #ff0000; stroke-width: 5; stroke-linejoin: miter"/>
    </g>
   </g>
   <g id="line2d_25">
    <path d="M 173.074752 741.800179 
L 173.414304 741.800179 
L 173.843712 741.800179 
L 174.751776 741.800179 
L 175.319424 741.800179 
L 175.865472 741.800179 
L 176.402016 741.800179 
L 176.933376 741.800179 
L 177.463872 741.800179 
L 177.995232 741.800179 
L 178.525728 741.800179 
L 179.052768 741.800179 
L 179.576352 741.800179 
L 180.103392 741.800179 
L 180.630432 741.800179 
L 181.157472 741.800179 
L 224.86896 741.800179 
L 268.272864 741.800179 
L 311.707872 741.800179 
L 355.447872 741.800179 
L 399.132576 741.799784 
L 442.513152 741.794976 
L 485.9784 741.768762 
L 529.341696 741.651587 
L 573.086016 741.248161 
L 616.346496 740.076678 
L 659.588832 737.207512 
L 703.28304 730.699015 
L 746.602272 717.5578 
L 790.117632 692.003446 
L 833.551776 644.923664 
L 869.76288 577.614356 
L 890.063424 522.493783 
L 904.322016 473.216663 
L 920.05632 405.633355 
L 931.138848 347.442924 
L 941.516352 281.975017 
L 953.005824 191.990796 
L 963.47232 87.837068 
" clip-path="url(#pa2a1298feb)" style="fill: none; stroke-dasharray: 25.6,6.4,4,6.4; stroke-dashoffset: 0; stroke: #0000ff; stroke-width: 4"/>
    <defs>
     <path id="m26c5c8e748" d="M 0 8.5 
C 2.254226 8.5 4.416429 7.604386 6.010408 6.010408 
C 7.604386 4.416429 8.5 2.254226 8.5 0 
C 8.5 -2.254226 7.604386 -4.416429 6.010408 -6.010408 
C 4.416429 -7.604386 2.254226 -8.5 0 -8.5 
C -2.254226 -8.5 -4.416429 -7.604386 -6.010408 -6.010408 
C -7.604386 -4.416429 -8.5 -2.254226 -8.5 0 
C -8.5 2.254226 -7.604386 4.416429 -6.010408 6.010408 
C -4.416429 7.604386 -2.254226 8.5 0 8.5 
z
" style="stroke: #0000ff; stroke-width: 5"/>
    </defs>
    <g clip-path="url(#pa2a1298feb)">
     <use xlink:href="#m26c5c8e748" x="173.074752" y="741.800179" style="fill: #ffffff; stroke: #0000ff; stroke-width: 5"/>
     <use xlink:href="#m26c5c8e748" x="173.414304" y="741.800179" style="fill: #ffffff; stroke: #0000ff; stroke-width: 5"/>
     <use xlink:href="#m26c5c8e748" x="173.843712" y="741.800179" style="fill: #ffffff; stroke: #0000ff; stroke-width: 5"/>
     <use xlink:href="#m26c5c8e748" x="174.751776" y="741.800179" style="fill: #ffffff; stroke: #0000ff; stroke-width: 5"/>
     <use xlink:href="#m26c5c8e748" x="175.319424" y="741.800179" style="fill: #ffffff; stroke: #0000ff; stroke-width: 5"/>
     <use xlink:href="#m26c5c8e748" x="175.865472" y="741.800179" style="fill: #ffffff; stroke: #0000ff; stroke-width: 5"/>
     <use xlink:href="#m26c5c8e748" x="176.402016" y="741.800179" style="fill: #ffffff; stroke: #0000ff; stroke-width: 5"/>
     <use xlink:href="#m26c5c8e748" x="176.933376" y="741.800179" style="fill: #ffffff; stroke: #0000ff; stroke-width: 5"/>
     <use xlink:href="#m26c5c8e748" x="177.463872" y="741.800179" style="fill: #ffffff; stroke: #0000ff; stroke-width: 5"/>
     <use xlink:href="#m26c5c8e748" x="177.995232" y="741.800179" style="fill: #ffffff; stroke: #0000ff; stroke-width: 5"/>
     <use xlink:href="#m26c5c8e748" x="178.525728" y="741.800179" style="fill: #ffffff; stroke: #0000ff; stroke-width: 5"/>
     <use xlink:href="#m26c5c8e748" x="179.052768" y="741.800179" style="fill: #ffffff; stroke: #0000ff; stroke-width: 5"/>
     <use xlink:href="#m26c5c8e748" x="179.576352" y="741.800179" style="fill: #ffffff; stroke: #0000ff; stroke-width: 5"/>
     <use xlink:href="#m26c5c8e748" x="180.103392" y="741.800179" style="fill: #ffffff; stroke: #0000ff; stroke-width: 5"/>
     <use xlink:href="#m26c5c8e748" x="180.630432" y="741.800179" style="fill: #ffffff; stroke: #0000ff; stroke-width: 5"/>
     <use xlink:href="#m26c5c8e748" x="181.157472" y="741.800179" style="fill: #ffffff; stroke: #0000ff; stroke-width: 5"/>
     <use xlink:href="#m26c5c8e748" x="224.86896" y="741.800179" style="fill: #ffffff; stroke: #0000ff; stroke-width: 5"/>
     <use xlink:href="#m26c5c8e748" x="268.272864" y="741.800179" style="fill: #ffffff; stroke: #0000ff; stroke-width: 5"/>
     <use xlink:href="#m26c5c8e748" x="311.707872" y="741.800179" style="fill: #ffffff; stroke: #0000ff; stroke-width: 5"/>
     <use xlink:href="#m26c5c8e748" x="355.447872" y="741.800179" style="fill: #ffffff; stroke: #0000ff; stroke-width: 5"/>
     <use xlink:href="#m26c5c8e748" x="399.132576" y="741.799784" style="fill: #ffffff; stroke: #0000ff; stroke-width: 5"/>
     <use xlink:href="#m26c5c8e748" x="442.513152" y="741.794976" style="fill: #ffffff; stroke: #0000ff; stroke-width: 5"/>
     <use xlink:href="#m26c5c8e748" x="485.9784" y="741.768762" style="fill: #ffffff; stroke: #0000ff; stroke-width: 5"/>
     <use xlink:href="#m26c5c8e748" x="529.341696" y="741.651587" style="fill: #ffffff; stroke: #0000ff; stroke-width: 5"/>
     <use xlink:href="#m26c5c8e748" x="573.086016" y="741.248161" style="fill: #ffffff; stroke: #0000ff; stroke-width: 5"/>
     <use xlink:href="#m26c5c8e748" x="616.346496" y="740.076678" style="fill: #ffffff; stroke: #0000ff; stroke-width: 5"/>
     <use xlink:href="#m26c5c8e748" x="659.588832" y="737.207512" style="fill: #ffffff; stroke: #0000ff; stroke-width: 5"/>
     <use xlink:href="#m26c5c8e748" x="703.28304" y="730.699015" style="fill: #ffffff; stroke: #0000ff; stroke-width: 5"/>
     <use xlink:href="#m26c5c8e748" x="746.602272" y="717.5578" style="fill: #ffffff; stroke: #0000ff; stroke-width: 5"/>
     <use xlink:href="#m26c5c8e748" x="790.117632" y="692.003446" style="fill: #ffffff; stroke: #0000ff; stroke-width: 5"/>
     <use xlink:href="#m26c5c8e748" x="833.551776" y="644.923664" style="fill: #ffffff; stroke: #0000ff; stroke-width: 5"/>
     <use xlink:href="#m26c5c8e748" x="869.76288" y="577.614356" style="fill: #ffffff; stroke: #0000ff; stroke-width: 5"/>
     <use xlink:href="#m26c5c8e748" x="890.063424" y="522.493783" style="fill: #ffffff; stroke: #0000ff; stroke-width: 5"/>
     <use xlink:href="#m26c5c8e748" x="904.322016" y="473.216663" style="fill: #ffffff; stroke: #0000ff; stroke-width: 5"/>
     <use xlink:href="#m26c5c8e748" x="920.05632" y="405.633355" style="fill: #ffffff; stroke: #0000ff; stroke-width: 5"/>
     <use xlink:href="#m26c5c8e748" x="931.138848" y="347.442924" style="fill: #ffffff; stroke: #0000ff; stroke-width: 5"/>
     <use xlink:href="#m26c5c8e748" x="941.516352" y="281.975017" style="fill: #ffffff; stroke: #0000ff; stroke-width: 5"/>
     <use xlink:href="#m26c5c8e748" x="953.005824" y="191.990796" style="fill: #ffffff; stroke: #0000ff; stroke-width: 5"/>
     <use xlink:href="#m26c5c8e748" x="963.47232" y="87.837068" style="fill: #ffffff; stroke: #0000ff; stroke-width: 5"/>
    </g>
   </g>
   <g id="patch_3">
    <path d="M 172.8 751.68 
L 172.8 17.28 
" style="fill: none; stroke: #000000; stroke-width: 0.8; stroke-linejoin: miter; stroke-linecap: square"/>
   </g>
   <g id="patch_4">
    <path d="M 1036.8 751.68 
L 1036.8 17.28 
" style="fill: none; stroke: #000000; stroke-width: 0.8; stroke-linejoin: miter; stroke-linecap: square"/>
   </g>
   <g id="patch_5">
    <path d="M 172.8 751.68 
L 1036.8 751.68 
" style="fill: none; stroke: #000000; stroke-width: 0.8; stroke-linejoin: miter; stroke-linecap: square"/>
   </g>
   <g id="patch_6">
    <path d="M 172.8 17.28 
L 1036.8 17.28 
" style="fill: none; stroke: #000000; stroke-width: 0.8; stroke-linejoin: miter; stroke-linecap: square"/>
   </g>
   <g id="legend_1">
    <g id="patch_7">
     <path d="M 209.9 134.617031 
L 904.763125 134.617031 
Q 915.363125 134.617031 915.363125 124.017031 
L 915.363125 54.38 
Q 915.363125 43.78 904.763125 43.78 
L 209.9 43.78 
Q 199.3 43.78 199.3 54.38 
L 199.3 124.017031 
Q 199.3 134.617031 209.9 134.617031 
z
" style="fill: #ffffff; opacity: 0.8; stroke: #cccccc; stroke-linejoin: miter"/>
    </g>
    <g id="line2d_26">
     <path d="M 220.5 83.53 
L 273.5 83.53 
L 326.5 83.53 
" style="fill: none; stroke: #ff0000; stroke-width: 4; stroke-linecap: square"/>
     <g>
      <use xlink:href="#m25ac96f92f" x="273.5" y="83.53" style="fill: #ffffff; stroke: #ff0000; stroke-width: 5; stroke-linejoin: miter"/>
     </g>
    </g>
    <g id="text_26">
     <!-- uniform -->
     <g transform="translate(368.9 102.08) scale(0.53 -0.53)">
      <defs>
       <path id="TimesNewRomanPS-BoldMT-75" d="M 3038 2922 
L 3038 634 
Q 3038 300 3100 217 
Q 3163 134 3353 113 
L 3353 0 
L 2163 0 
L 2163 391 
Q 1953 141 1743 26 
Q 1534 -88 1275 -88 
Q 1028 -88 836 64 
Q 644 216 578 419 
Q 513 622 513 1128 
L 513 2288 
Q 513 2619 452 2700 
Q 391 2781 197 2806 
L 197 2922 
L 1388 2922 
L 1388 925 
Q 1388 613 1417 522 
Q 1447 431 1511 384 
Q 1575 338 1659 338 
Q 1772 338 1863 397 
Q 1988 478 2163 725 
L 2163 2288 
Q 2163 2619 2102 2700 
Q 2041 2781 1847 2806 
L 1847 2922 
L 3038 2922 
z
" transform="scale(0.015625)"/>
       <path id="TimesNewRomanPS-BoldMT-6e" d="M 1409 2922 
L 1409 2544 
Q 1634 2788 1840 2898 
Q 2047 3009 2284 3009 
Q 2569 3009 2756 2851 
Q 2944 2694 3006 2459 
Q 3056 2281 3056 1775 
L 3056 638 
Q 3056 300 3117 217 
Q 3178 134 3372 113 
L 3372 0 
L 1894 0 
L 1894 113 
Q 2059 134 2131 250 
Q 2181 328 2181 638 
L 2181 1938 
Q 2181 2297 2153 2390 
Q 2125 2484 2058 2536 
Q 1991 2588 1909 2588 
Q 1641 2588 1409 2203 
L 1409 638 
Q 1409 309 1470 221 
Q 1531 134 1697 113 
L 1697 0 
L 219 0 
L 219 113 
Q 403 131 481 231 
Q 534 300 534 638 
L 534 2288 
Q 534 2619 473 2700 
Q 413 2781 219 2806 
L 219 2922 
L 1409 2922 
z
" transform="scale(0.015625)"/>
       <path id="TimesNewRomanPS-BoldMT-69" d="M 919 4338 
Q 1122 4338 1262 4195 
Q 1403 4053 1403 3853 
Q 1403 3653 1261 3512 
Q 1119 3372 919 3372 
Q 719 3372 578 3512 
Q 438 3653 438 3853 
Q 438 4053 578 4195 
Q 719 4338 919 4338 
z
M 1356 2922 
L 1356 606 
Q 1356 297 1428 211 
Q 1500 125 1709 113 
L 1709 0 
L 131 0 
L 131 113 
Q 325 119 419 225 
Q 481 297 481 606 
L 481 2313 
Q 481 2622 409 2708 
Q 338 2794 131 2806 
L 131 2922 
L 1356 2922 
z
" transform="scale(0.015625)"/>
       <path id="TimesNewRomanPS-BoldMT-66" d="M 1497 2616 
L 1497 588 
Q 1497 294 1559 219 
Q 1659 103 1928 113 
L 1928 0 
L 206 0 
L 206 113 
Q 403 116 486 158 
Q 569 200 600 275 
Q 631 350 631 588 
L 631 2616 
L 206 2616 
L 206 2922 
L 631 2922 
L 631 3138 
L 628 3284 
Q 628 3734 958 4034 
Q 1288 4334 1850 4334 
Q 2234 4334 2420 4190 
Q 2606 4047 2606 3872 
Q 2606 3731 2490 3628 
Q 2375 3525 2184 3525 
Q 2022 3525 1926 3609 
Q 1831 3694 1831 3797 
Q 1831 3825 1850 3913 
Q 1863 3966 1863 4013 
Q 1863 4078 1825 4109 
Q 1775 4156 1703 4156 
Q 1613 4156 1552 4081 
Q 1491 4006 1491 3841 
L 1497 3294 
L 1497 2922 
L 1928 2922 
L 1928 2616 
L 1497 2616 
z
" transform="scale(0.015625)"/>
       <path id="TimesNewRomanPS-BoldMT-6f" d="M 1594 3009 
Q 1975 3009 2303 2812 
Q 2631 2616 2801 2253 
Q 2972 1891 2972 1459 
Q 2972 838 2656 419 
Q 2275 -88 1603 -88 
Q 944 -88 587 375 
Q 231 838 231 1447 
Q 231 2075 595 2542 
Q 959 3009 1594 3009 
z
M 1606 2788 
Q 1447 2788 1333 2667 
Q 1219 2547 1183 2192 
Q 1147 1838 1147 1206 
Q 1147 872 1191 581 
Q 1225 359 1337 243 
Q 1450 128 1594 128 
Q 1734 128 1828 206 
Q 1950 313 1991 503 
Q 2053 800 2053 1703 
Q 2053 2234 1993 2432 
Q 1934 2631 1819 2722 
Q 1738 2788 1606 2788 
z
" transform="scale(0.015625)"/>
       <path id="TimesNewRomanPS-BoldMT-72" d="M 1428 2922 
L 1428 2259 
Q 1719 2713 1937 2861 
Q 2156 3009 2359 3009 
Q 2534 3009 2639 2901 
Q 2744 2794 2744 2597 
Q 2744 2388 2642 2272 
Q 2541 2156 2397 2156 
Q 2231 2156 2109 2262 
Q 1988 2369 1966 2381 
Q 1934 2400 1894 2400 
Q 1803 2400 1722 2331 
Q 1594 2225 1528 2028 
Q 1428 1725 1428 1359 
L 1428 688 
L 1431 513 
Q 1431 334 1453 284 
Q 1491 200 1564 161 
Q 1638 122 1813 113 
L 1813 0 
L 234 0 
L 234 113 
Q 425 128 492 217 
Q 559 306 559 688 
L 559 2303 
Q 559 2553 534 2622 
Q 503 2709 443 2750 
Q 384 2791 234 2806 
L 234 2922 
L 1428 2922 
z
" transform="scale(0.015625)"/>
       <path id="TimesNewRomanPS-BoldMT-6d" d="M 1428 2922 
L 1428 2538 
Q 1669 2800 1873 2904 
Q 2078 3009 2322 3009 
Q 2603 3009 2793 2878 
Q 2984 2747 3088 2478 
Q 3338 2759 3567 2884 
Q 3797 3009 4047 3009 
Q 4350 3009 4529 2870 
Q 4709 2731 4779 2517 
Q 4850 2303 4850 1834 
L 4850 638 
Q 4850 300 4911 219 
Q 4972 138 5166 113 
L 5166 0 
L 3656 0 
L 3656 113 
Q 3834 128 3919 250 
Q 3975 334 3975 638 
L 3975 1894 
Q 3975 2284 3944 2390 
Q 3913 2497 3845 2548 
Q 3778 2600 3688 2600 
Q 3553 2600 3415 2501 
Q 3278 2403 3138 2206 
L 3138 638 
Q 3138 322 3191 241 
Q 3263 125 3466 113 
L 3466 0 
L 1953 0 
L 1953 113 
Q 2075 119 2145 173 
Q 2216 228 2239 304 
Q 2263 381 2263 638 
L 2263 1894 
Q 2263 2291 2231 2391 
Q 2200 2491 2126 2547 
Q 2053 2603 1969 2603 
Q 1844 2603 1741 2538 
Q 1594 2441 1428 2206 
L 1428 638 
Q 1428 328 1489 229 
Q 1550 131 1744 113 
L 1744 0 
L 238 0 
L 238 113 
Q 422 131 500 231 
Q 553 300 553 638 
L 553 2288 
Q 553 2619 492 2700 
Q 431 2781 238 2806 
L 238 2922 
L 1428 2922 
z
" transform="scale(0.015625)"/>
      </defs>
      <use xlink:href="#TimesNewRomanPS-BoldMT-75"/>
      <use xlink:href="#TimesNewRomanPS-BoldMT-6e" x="55.615234"/>
      <use xlink:href="#TimesNewRomanPS-BoldMT-69" x="111.230469"/>
      <use xlink:href="#TimesNewRomanPS-BoldMT-66" x="139.013672"/>
      <use xlink:href="#TimesNewRomanPS-BoldMT-6f" x="172.314453"/>
      <use xlink:href="#TimesNewRomanPS-BoldMT-72" x="222.314453"/>
      <use xlink:href="#TimesNewRomanPS-BoldMT-6d" x="266.699219"/>
     </g>
    </g>
    <g id="line2d_27">
     <path d="M 660.391719 83.53 
L 713.391719 83.53 
L 766.391719 83.53 
" style="fill: none; stroke-dasharray: 25.6,6.4,4,6.4; stroke-dashoffset: 0; stroke: #0000ff; stroke-width: 4"/>
     <g>
      <use xlink:href="#m26c5c8e748" x="713.391719" y="83.53" style="fill: #ffffff; stroke: #0000ff; stroke-width: 5"/>
     </g>
    </g>
    <g id="text_27">
     <!-- zipf -->
     <g transform="translate(808.791719 102.08) scale(0.53 -0.53)">
      <defs>
       <path id="TimesNewRomanPS-BoldMT-7a" d="M 2609 0 
L 66 0 
L 66 69 
L 1672 2731 
L 1203 2731 
Q 900 2731 769 2676 
Q 638 2622 556 2501 
Q 475 2381 388 2072 
L 278 2072 
L 278 2922 
L 2738 2922 
L 2738 2838 
L 1144 200 
L 1344 200 
Q 1944 200 2209 372 
Q 2475 544 2609 1000 
L 2697 1000 
L 2609 0 
z
" transform="scale(0.015625)"/>
       <path id="TimesNewRomanPS-BoldMT-70" d="M 1347 297 
L 1347 -791 
Q 1347 -1016 1383 -1097 
Q 1419 -1178 1494 -1215 
Q 1569 -1253 1788 -1253 
L 1788 -1369 
L 122 -1369 
L 122 -1253 
Q 316 -1247 409 -1144 
Q 472 -1072 472 -772 
L 472 2313 
Q 472 2622 400 2708 
Q 328 2794 122 2806 
L 122 2922 
L 1347 2922 
L 1347 2538 
Q 1500 2763 1659 2863 
Q 1888 3009 2156 3009 
Q 2478 3009 2742 2806 
Q 3006 2603 3143 2245 
Q 3281 1888 3281 1475 
Q 3281 1031 3139 664 
Q 2997 297 2726 104 
Q 2456 -88 2125 -88 
Q 1884 -88 1675 19 
Q 1519 100 1347 297 
z
M 1347 613 
Q 1616 231 1922 231 
Q 2091 231 2200 409 
Q 2363 672 2363 1409 
Q 2363 2166 2184 2444 
Q 2066 2628 1866 2628 
Q 1550 2628 1347 2172 
L 1347 613 
z
" transform="scale(0.015625)"/>
      </defs>
      <use xlink:href="#TimesNewRomanPS-BoldMT-7a"/>
      <use xlink:href="#TimesNewRomanPS-BoldMT-69" x="44.384766"/>
      <use xlink:href="#TimesNewRomanPS-BoldMT-70" x="72.167969"/>
      <use xlink:href="#TimesNewRomanPS-BoldMT-66" x="127.783203"/>
     </g>
    </g>
   </g>
  </g>
 </g>
 <defs>
  <clipPath id="pa2a1298feb">
   <rect x="172.8" y="17.28" width="864" height="734.4"/>
  </clipPath>
 </defs>
</svg>
