<?xml version="1.0" encoding="utf-8" standalone="no"?>
<!DOCTYPE svg PUBLIC "-//W3C//DTD SVG 1.1//EN"
  "http://www.w3.org/Graphics/SVG/1.1/DTD/svg11.dtd">
<svg xmlns:xlink="http://www.w3.org/1999/xlink" width="1080pt" height="864pt" viewBox="0 0 1080 864" xmlns="http://www.w3.org/2000/svg" version="1.1">
 <metadata>
  <rdf:RDF xmlns:dc="http://purl.org/dc/elements/1.1/" xmlns:cc="http://creativecommons.org/ns#" xmlns:rdf="http://www.w3.org/1999/02/22-rdf-syntax-ns#">
   <cc:Work>
    <dc:type rdf:resource="http://purl.org/dc/dcmitype/StillImage"/>
    <dc:date>2023-10-12T13:43:15.911822</dc:date>
    <dc:format>image/svg+xml</dc:format>
    <dc:creator>
     <cc:Agent>
      <dc:title>Matplotlib v3.7.1, https://matplotlib.org/</dc:title>
     </cc:Agent>
    </dc:creator>
   </cc:Work>
  </rdf:RDF>
 </metadata>
 <defs>
  <style type="text/css">*{stroke-linejoin: round; stroke-linecap: butt}</style>
 </defs>
 <g id="figure_1">
  <g id="patch_1">
   <path d="M 0 864 
L 1080 864 
L 1080 0 
L 0 0 
z
" style="fill: #ffffff"/>
  </g>
  <g id="axes_1">
   <g id="patch_2">
    <path d="M 129.6 760.32 
L 1047.6 760.32 
L 1047.6 17.28 
L 129.6 17.28 
z
" style="fill: #ffffff"/>
   </g>
   <g id="matplotlib.axis_1">
    <g id="xtick_1">
     <g id="line2d_1">
      <defs>
       <path id="m90faae134c" d="M 0 0 
L 0 3.5 
" style="stroke: #000000; stroke-width: 0.8"/>
      </defs>
      <g>
       <use xlink:href="#m90faae134c" x="129.6" y="760.32" style="stroke: #000000; stroke-width: 0.8"/>
      </g>
     </g>
     <g id="text_1">
      <!-- 0 -->
      <g transform="translate(119.6 795.91375) scale(0.4 -0.4)">
       <defs>
        <path id="SimSun-30" d="M 1600 4225 
Q 1250 4225 1012 3687 
Q 775 3150 775 2250 
Q 775 1300 1012 775 
Q 1250 250 1600 250 
Q 1975 250 2187 775 
Q 2400 1300 2400 2250 
Q 2400 3150 2200 3687 
Q 2000 4225 1600 4225 
z
M 1600 50 
Q 1050 50 675 625 
Q 300 1200 300 2250 
Q 300 3225 662 3825 
Q 1025 4425 1600 4425 
Q 2150 4425 2512 3850 
Q 2875 3275 2875 2250 
Q 2875 1225 2512 637 
Q 2150 50 1600 50 
z
" transform="scale(0.015625)"/>
       </defs>
       <use xlink:href="#SimSun-30"/>
      </g>
     </g>
    </g>
    <g id="xtick_2">
     <g id="line2d_2">
      <g>
       <use xlink:href="#m90faae134c" x="221.4" y="760.32" style="stroke: #000000; stroke-width: 0.8"/>
      </g>
     </g>
     <g id="text_2">
      <!-- 10 -->
      <g transform="translate(201.4 795.91375) scale(0.4 -0.4)">
       <defs>
        <path id="SimSun-31" d="M 1825 4450 
L 1825 650 
Q 1825 450 1950 350 
Q 2075 250 2300 250 
L 2550 250 
L 2550 100 
L 725 100 
L 725 250 
L 950 250 
Q 1200 250 1312 350 
Q 1425 450 1425 650 
L 1425 3675 
Q 1425 3775 1362 3837 
Q 1300 3900 1175 3900 
L 725 3900 
L 725 4050 
L 950 4050 
Q 1250 4050 1437 4150 
Q 1625 4250 1725 4450 
L 1825 4450 
z
" transform="scale(0.015625)"/>
       </defs>
       <use xlink:href="#SimSun-31"/>
       <use xlink:href="#SimSun-30" x="50"/>
      </g>
     </g>
    </g>
    <g id="xtick_3">
     <g id="line2d_3">
      <g>
       <use xlink:href="#m90faae134c" x="313.2" y="760.32" style="stroke: #000000; stroke-width: 0.8"/>
      </g>
     </g>
     <g id="text_3">
      <!-- 20 -->
      <g transform="translate(293.2 795.91375) scale(0.4 -0.4)">
       <defs>
        <path id="SimSun-32" d="M 2325 3325 
Q 2325 3775 2125 4012 
Q 1925 4250 1525 4250 
Q 1225 4250 1012 4087 
Q 800 3925 800 3675 
Q 800 3525 900 3425 
Q 975 3325 975 3225 
Q 975 3100 912 3037 
Q 850 2975 725 2975 
Q 575 2975 487 3062 
Q 400 3150 400 3350 
Q 400 3875 775 4150 
Q 1150 4425 1575 4425 
Q 2175 4425 2462 4125 
Q 2750 3825 2750 3375 
Q 2750 3075 2612 2775 
Q 2475 2475 2175 2200 
Q 1450 1500 1062 1062 
Q 675 625 600 475 
L 2075 475 
Q 2300 475 2450 650 
Q 2600 825 2650 1175 
L 2800 1175 
L 2650 100 
L 325 100 
L 325 425 
Q 450 650 737 1000 
Q 1025 1350 1500 1825 
Q 1925 2250 2125 2625 
Q 2325 3000 2325 3325 
z
" transform="scale(0.015625)"/>
       </defs>
       <use xlink:href="#SimSun-32"/>
       <use xlink:href="#SimSun-30" x="50"/>
      </g>
     </g>
    </g>
    <g id="xtick_4">
     <g id="line2d_4">
      <g>
       <use xlink:href="#m90faae134c" x="405" y="760.32" style="stroke: #000000; stroke-width: 0.8"/>
      </g>
     </g>
     <g id="text_4">
      <!-- 30 -->
      <g transform="translate(385 795.91375) scale(0.4 -0.4)">
       <defs>
        <path id="SimSun-33" d="M 2800 1250 
Q 2800 775 2450 412 
Q 2100 50 1475 50 
Q 1025 50 700 300 
Q 375 550 375 875 
Q 375 1025 475 1137 
Q 575 1250 675 1250 
Q 825 1250 887 1137 
Q 950 1025 950 950 
Q 950 825 900 750 
Q 850 650 850 575 
Q 850 425 1037 325 
Q 1225 225 1450 225 
Q 1900 225 2125 487 
Q 2350 750 2350 1300 
Q 2350 1750 2112 2025 
Q 1875 2300 1225 2300 
L 1225 2475 
Q 1725 2475 1962 2712 
Q 2200 2950 2200 3375 
Q 2200 3725 2012 3987 
Q 1825 4250 1425 4250 
Q 1250 4250 1050 4162 
Q 850 4075 850 3875 
Q 850 3675 900 3625 
Q 950 3575 950 3500 
Q 950 3375 900 3300 
Q 850 3225 725 3225 
Q 625 3225 537 3300 
Q 450 3375 450 3575 
Q 450 3950 775 4187 
Q 1100 4425 1525 4425 
Q 2025 4425 2325 4112 
Q 2625 3800 2625 3450 
Q 2625 3075 2437 2812 
Q 2250 2550 1850 2425 
Q 2400 2225 2600 1900 
Q 2800 1575 2800 1250 
z
" transform="scale(0.015625)"/>
       </defs>
       <use xlink:href="#SimSun-33"/>
       <use xlink:href="#SimSun-30" x="50"/>
      </g>
     </g>
    </g>
    <g id="xtick_5">
     <g id="line2d_5">
      <g>
       <use xlink:href="#m90faae134c" x="496.8" y="760.32" style="stroke: #000000; stroke-width: 0.8"/>
      </g>
     </g>
     <g id="text_5">
      <!-- 40 -->
      <g transform="translate(476.8 795.91375) scale(0.4 -0.4)">
       <defs>
        <path id="SimSun-34" d="M 2300 575 
Q 2300 400 2400 325 
Q 2500 250 2675 250 
L 2900 250 
L 2900 100 
L 1250 100 
L 1250 250 
L 1525 250 
Q 1725 250 1812 325 
Q 1900 400 1900 575 
L 1900 1400 
L 225 1400 
L 225 1525 
L 2050 4425 
L 2300 4425 
L 2300 1550 
L 2975 1550 
L 2975 1400 
L 2300 1400 
L 2300 575 
z
M 1875 3800 
L 450 1550 
L 1900 1550 
L 1900 3800 
L 1875 3800 
z
" transform="scale(0.015625)"/>
       </defs>
       <use xlink:href="#SimSun-34"/>
       <use xlink:href="#SimSun-30" x="50"/>
      </g>
     </g>
    </g>
    <g id="xtick_6">
     <g id="line2d_6">
      <g>
       <use xlink:href="#m90faae134c" x="588.6" y="760.32" style="stroke: #000000; stroke-width: 0.8"/>
      </g>
     </g>
     <g id="text_6">
      <!-- 50 -->
      <g transform="translate(568.6 795.91375) scale(0.4 -0.4)">
       <defs>
        <path id="SimSun-35" d="M 1725 2850 
Q 2200 2850 2500 2487 
Q 2800 2125 2800 1525 
Q 2800 850 2487 450 
Q 2175 50 1525 50 
Q 1075 50 725 312 
Q 375 575 375 950 
Q 375 1100 462 1212 
Q 550 1325 700 1325 
Q 850 1325 900 1225 
Q 950 1125 950 1050 
Q 950 900 875 825 
Q 800 725 800 625 
Q 800 425 1037 325 
Q 1275 225 1550 225 
Q 1950 225 2162 550 
Q 2375 875 2375 1475 
Q 2375 1975 2187 2287 
Q 2000 2600 1625 2600 
Q 1350 2600 1150 2500 
Q 950 2400 775 2075 
L 550 2100 
L 675 4375 
L 2725 4375 
L 2650 4000 
L 850 4000 
L 750 2350 
Q 1000 2700 1237 2775 
Q 1475 2850 1725 2850 
z
" transform="scale(0.015625)"/>
       </defs>
       <use xlink:href="#SimSun-35"/>
       <use xlink:href="#SimSun-30" x="50"/>
      </g>
     </g>
    </g>
    <g id="xtick_7">
     <g id="line2d_7">
      <g>
       <use xlink:href="#m90faae134c" x="680.4" y="760.32" style="stroke: #000000; stroke-width: 0.8"/>
      </g>
     </g>
     <g id="text_7">
      <!-- 60 -->
      <g transform="translate(660.4 795.91375) scale(0.4 -0.4)">
       <defs>
        <path id="SimSun-36" d="M 775 1800 
Q 775 1050 1037 637 
Q 1300 225 1675 225 
Q 2050 225 2250 500 
Q 2450 775 2450 1525 
Q 2450 2025 2237 2300 
Q 2025 2575 1725 2575 
Q 1450 2575 1212 2412 
Q 975 2250 775 1800 
z
M 1750 2825 
Q 2350 2825 2612 2425 
Q 2875 2025 2875 1525 
Q 2875 775 2512 412 
Q 2150 50 1675 50 
Q 1000 50 650 562 
Q 300 1075 300 2050 
Q 300 3200 725 3812 
Q 1150 4425 1875 4425 
Q 2225 4425 2437 4225 
Q 2650 4025 2650 3875 
Q 2650 3725 2587 3650 
Q 2525 3575 2375 3575 
Q 2250 3575 2187 3637 
Q 2125 3700 2125 3825 
Q 2125 3875 2150 3925 
Q 2150 3975 2150 4025 
Q 2150 4125 2075 4187 
Q 2000 4250 1800 4250 
Q 1375 4250 1075 3862 
Q 775 3475 775 2175 
Q 925 2500 1187 2662 
Q 1450 2825 1750 2825 
z
" transform="scale(0.015625)"/>
       </defs>
       <use xlink:href="#SimSun-36"/>
       <use xlink:href="#SimSun-30" x="50"/>
      </g>
     </g>
    </g>
    <g id="xtick_8">
     <g id="line2d_8">
      <g>
       <use xlink:href="#m90faae134c" x="772.2" y="760.32" style="stroke: #000000; stroke-width: 0.8"/>
      </g>
     </g>
     <g id="text_8">
      <!-- 70 -->
      <g transform="translate(752.2 795.91375) scale(0.4 -0.4)">
       <defs>
        <path id="SimSun-37" d="M 2825 4200 
Q 2300 3350 1987 2537 
Q 1675 1725 1675 1125 
Q 1675 1025 1700 850 
Q 1700 650 1700 400 
Q 1700 200 1637 125 
Q 1575 50 1425 50 
Q 1300 50 1212 137 
Q 1125 225 1125 450 
Q 1125 925 1337 1625 
Q 1550 2325 2475 4000 
L 1225 4000 
Q 950 4000 787 3825 
Q 625 3650 550 3300 
L 400 3325 
L 575 4375 
L 2825 4375 
L 2825 4200 
z
" transform="scale(0.015625)"/>
       </defs>
       <use xlink:href="#SimSun-37"/>
       <use xlink:href="#SimSun-30" x="50"/>
      </g>
     </g>
    </g>
    <g id="xtick_9">
     <g id="line2d_9">
      <g>
       <use xlink:href="#m90faae134c" x="864" y="760.32" style="stroke: #000000; stroke-width: 0.8"/>
      </g>
     </g>
     <g id="text_9">
      <!-- 80 -->
      <g transform="translate(844 795.91375) scale(0.4 -0.4)">
       <defs>
        <path id="SimSun-38" d="M 625 1125 
Q 625 725 887 475 
Q 1150 225 1550 225 
Q 2025 225 2237 475 
Q 2450 725 2450 1100 
Q 2450 1425 2150 1725 
Q 1850 2025 1250 2275 
Q 950 2075 787 1775 
Q 625 1475 625 1125 
z
M 2825 1175 
Q 2825 700 2475 375 
Q 2125 50 1550 50 
Q 1025 50 650 375 
Q 275 700 275 1125 
Q 275 1550 487 1850 
Q 700 2150 1100 2375 
Q 750 2550 562 2812 
Q 375 3075 375 3400 
Q 375 3825 700 4125 
Q 1025 4425 1600 4425 
Q 2125 4425 2450 4125 
Q 2775 3825 2775 3400 
Q 2775 3100 2587 2837 
Q 2400 2575 2000 2375 
Q 2425 2125 2625 1825 
Q 2825 1525 2825 1175 
z
M 2425 3375 
Q 2425 3725 2225 3987 
Q 2025 4250 1600 4250 
Q 1125 4250 925 4000 
Q 725 3750 725 3475 
Q 725 3200 1012 2937 
Q 1300 2675 1825 2475 
Q 2125 2625 2275 2850 
Q 2425 3075 2425 3375 
z
" transform="scale(0.015625)"/>
       </defs>
       <use xlink:href="#SimSun-38"/>
       <use xlink:href="#SimSun-30" x="50"/>
      </g>
     </g>
    </g>
    <g id="xtick_10">
     <g id="line2d_10">
      <g>
       <use xlink:href="#m90faae134c" x="955.8" y="760.32" style="stroke: #000000; stroke-width: 0.8"/>
      </g>
     </g>
     <g id="text_10">
      <!-- 90 -->
      <g transform="translate(935.8 795.91375) scale(0.4 -0.4)">
       <defs>
        <path id="SimSun-39" d="M 700 3050 
Q 700 2500 912 2212 
Q 1125 1925 1450 1925 
Q 1825 1925 2100 2275 
Q 2375 2625 2375 2925 
Q 2375 3525 2175 3887 
Q 1975 4250 1525 4250 
Q 1100 4250 900 3912 
Q 700 3575 700 3050 
z
M 1375 1700 
Q 875 1700 575 2012 
Q 275 2325 275 3025 
Q 275 3625 600 4025 
Q 925 4425 1525 4425 
Q 2150 4425 2500 3925 
Q 2850 3425 2850 2475 
Q 2850 1425 2437 737 
Q 2025 50 1300 50 
Q 975 50 737 200 
Q 500 350 500 600 
Q 500 700 562 800 
Q 625 900 775 900 
Q 925 900 975 787 
Q 1025 675 1025 525 
Q 1025 425 1050 362 
Q 1075 300 1100 275 
Q 1125 250 1187 237 
Q 1250 225 1325 225 
Q 1775 225 2050 725 
Q 2325 1225 2375 2400 
Q 2250 2100 2000 1900 
Q 1750 1700 1375 1700 
z
" transform="scale(0.015625)"/>
       </defs>
       <use xlink:href="#SimSun-39"/>
       <use xlink:href="#SimSun-30" x="50"/>
      </g>
     </g>
    </g>
    <g id="xtick_11">
     <g id="line2d_11">
      <g>
       <use xlink:href="#m90faae134c" x="1047.6" y="760.32" style="stroke: #000000; stroke-width: 0.8"/>
      </g>
     </g>
     <g id="text_11">
      <!-- 100 -->
      <g transform="translate(1017.6 795.91375) scale(0.4 -0.4)">
       <use xlink:href="#SimSun-31"/>
       <use xlink:href="#SimSun-30" x="50"/>
       <use xlink:href="#SimSun-30" x="100"/>
      </g>
     </g>
    </g>
    <g id="text_12">
     <!-- $\mathrm{\ Load\ Factor}$ $\mathrm{(\%)}$ -->
     <g transform="translate(413.35 840.57) scale(0.5 -0.5)">
      <defs>
       <path id="STIXGeneral-Regular-4c" d="M 3827 1114 
L 3520 0 
L 77 0 
L 77 122 
Q 429 141 531 256 
Q 634 371 634 736 
L 634 3494 
Q 634 3872 541 3981 
Q 448 4090 77 4115 
L 77 4237 
L 1888 4237 
L 1888 4115 
Q 1498 4090 1392 3984 
Q 1286 3878 1286 3507 
L 1286 538 
Q 1286 358 1398 304 
Q 1510 250 1862 250 
L 2310 250 
Q 3085 250 3392 640 
Q 3520 813 3661 1114 
L 3827 1114 
z
" transform="scale(0.015625)"/>
       <path id="STIXGeneral-Regular-6f" d="M 3008 1478 
Q 3008 806 2608 371 
Q 2208 -64 1568 -64 
Q 979 -64 582 368 
Q 186 800 186 1459 
Q 186 2125 582 2534 
Q 979 2944 1626 2944 
Q 2221 2944 2614 2537 
Q 3008 2131 3008 1478 
z
M 2432 1306 
Q 2432 2035 2112 2445 
Q 1856 2765 1504 2765 
Q 1171 2765 966 2493 
Q 762 2221 762 1747 
Q 762 928 1101 435 
Q 1318 115 1677 115 
Q 2029 115 2230 432 
Q 2432 749 2432 1306 
z
" transform="scale(0.015625)"/>
       <path id="STIXGeneral-Regular-61" d="M 2829 422 
L 2829 243 
Q 2586 -64 2253 -64 
Q 1888 -64 1843 403 
L 1837 403 
Q 1427 -64 909 -64 
Q 608 -64 422 112 
Q 237 288 237 602 
Q 237 1050 685 1350 
Q 992 1555 1837 1869 
L 1837 2214 
Q 1837 2502 1699 2646 
Q 1562 2790 1338 2790 
Q 1146 2790 1018 2697 
Q 890 2605 890 2477 
Q 890 2419 909 2348 
Q 928 2278 928 2208 
Q 928 2112 841 2029 
Q 755 1946 634 1946 
Q 525 1946 441 2029 
Q 358 2112 358 2240 
Q 358 2547 685 2752 
Q 986 2944 1421 2944 
Q 1939 2944 2176 2656 
Q 2291 2522 2323 2384 
Q 2355 2246 2355 1946 
L 2355 723 
Q 2355 301 2554 301 
Q 2682 301 2829 422 
z
M 1837 813 
L 1837 1715 
Q 1248 1510 1018 1293 
Q 800 1094 800 800 
Q 800 557 921 432 
Q 1043 307 1242 307 
Q 1453 307 1613 410 
Q 1747 506 1792 589 
Q 1837 672 1837 813 
z
" transform="scale(0.015625)"/>
       <path id="STIXGeneral-Regular-64" d="M 3142 269 
L 2202 -64 
L 2176 -45 
L 2176 365 
Q 1869 -64 1357 -64 
Q 826 -64 499 317 
Q 173 698 173 1312 
Q 173 1990 563 2467 
Q 954 2944 1504 2944 
Q 1850 2944 2176 2669 
L 2176 3667 
Q 2176 3866 2118 3930 
Q 2061 3994 1882 3994 
Q 1792 3994 1741 3987 
L 1741 4090 
Q 2323 4243 2682 4371 
L 2714 4358 
L 2714 730 
Q 2714 506 2768 435 
Q 2822 365 2995 365 
Q 3034 365 3142 371 
L 3142 269 
z
M 2176 653 
L 2176 2125 
Q 2176 2381 1981 2573 
Q 1786 2765 1523 2765 
Q 1158 2765 940 2438 
Q 723 2112 723 1568 
Q 723 979 963 624 
Q 1203 269 1606 269 
Q 1907 269 2080 474 
Q 2176 582 2176 653 
z
" transform="scale(0.015625)"/>
       <path id="STIXGeneral-Regular-46" d="M 3494 3322 
L 3334 3322 
Q 3264 3757 3094 3875 
Q 2925 3994 2349 3994 
L 1504 3994 
Q 1370 3994 1328 3946 
Q 1286 3898 1286 3744 
L 1286 2355 
L 2195 2355 
Q 2598 2355 2736 2470 
Q 2874 2586 2918 2963 
L 3066 2963 
L 3066 1472 
L 2918 1472 
Q 2880 1862 2745 1977 
Q 2611 2093 2195 2093 
L 1286 2093 
L 1286 717 
Q 1286 352 1392 246 
Q 1498 141 1869 122 
L 1869 0 
L 70 0 
L 70 122 
Q 435 147 534 259 
Q 634 371 634 787 
L 634 3526 
Q 634 3878 538 3984 
Q 442 4090 77 4115 
L 77 4237 
L 3462 4237 
L 3494 3322 
z
" transform="scale(0.015625)"/>
       <path id="STIXGeneral-Regular-63" d="M 2547 998 
L 2637 941 
Q 2362 403 2112 205 
Q 1786 -64 1376 -64 
Q 845 -64 502 336 
Q 160 736 160 1357 
Q 160 2170 698 2618 
Q 1094 2944 1562 2944 
Q 1965 2944 2256 2749 
Q 2547 2554 2547 2285 
Q 2547 2176 2457 2096 
Q 2368 2016 2246 2016 
Q 2022 2016 1939 2310 
L 1901 2451 
Q 1850 2630 1773 2694 
Q 1696 2758 1523 2758 
Q 1133 2758 893 2451 
Q 653 2144 653 1645 
Q 653 1094 928 745 
Q 1203 397 1645 397 
Q 1920 397 2118 528 
Q 2317 659 2547 998 
z
" transform="scale(0.015625)"/>
       <path id="STIXGeneral-Regular-74" d="M 1702 493 
L 1786 422 
Q 1478 -64 1011 -64 
Q 448 -64 448 749 
L 448 2675 
L 109 2675 
Q 83 2694 83 2720 
Q 83 2771 192 2842 
Q 435 2982 813 3526 
Q 826 3546 874 3606 
Q 922 3667 941 3706 
Q 986 3706 986 3622 
L 986 2880 
L 1632 2880 
L 1632 2675 
L 986 2675 
L 986 845 
Q 986 538 1062 403 
Q 1139 269 1318 269 
Q 1510 269 1702 493 
z
" transform="scale(0.015625)"/>
       <path id="STIXGeneral-Regular-72" d="M 1024 2931 
L 1024 2342 
Q 1267 2688 1430 2816 
Q 1594 2944 1792 2944 
Q 1958 2944 2051 2854 
Q 2144 2765 2144 2605 
Q 2144 2470 2077 2393 
Q 2010 2317 1894 2317 
Q 1773 2317 1638 2445 
Q 1536 2541 1472 2541 
Q 1338 2541 1181 2355 
Q 1024 2170 1024 2016 
L 1024 576 
Q 1024 301 1133 205 
Q 1242 109 1568 96 
L 1568 0 
L 32 0 
L 32 96 
Q 339 154 412 224 
Q 486 294 486 538 
L 486 2138 
Q 486 2349 438 2435 
Q 390 2522 269 2522 
Q 166 2522 45 2496 
L 45 2598 
Q 448 2726 992 2944 
L 1024 2931 
z
" transform="scale(0.015625)"/>
       <path id="SimSun-20" d="M 0 0 
Q 0 0 0 0 
z
" transform="scale(0.015625)"/>
       <path id="STIXGeneral-Regular-28" d="M 1946 -1030 
L 1869 -1133 
Q 1126 -710 716 32 
Q 307 774 307 1613 
Q 307 3386 1888 4326 
L 1946 4224 
Q 1293 3667 1075 3126 
Q 858 2586 858 1632 
Q 858 685 1082 96 
Q 1306 -493 1946 -1030 
z
" transform="scale(0.015625)"/>
       <path id="STIXGeneral-Regular-25" d="M 4390 1363 
Q 4390 781 4070 329 
Q 3750 -122 3341 -122 
Q 3014 -122 2790 134 
Q 2566 390 2566 762 
Q 2566 1274 2940 1693 
Q 3315 2112 3776 2112 
Q 4070 2112 4230 1917 
Q 4390 1722 4390 1363 
z
M 4243 1376 
Q 4243 1626 4131 1779 
Q 4019 1933 3840 1933 
Q 3654 1933 3526 1786 
Q 3315 1562 3171 1187 
Q 3027 813 3027 486 
Q 3027 301 3129 176 
Q 3232 51 3386 51 
Q 3718 51 3980 457 
Q 4243 864 4243 1376 
z
M 3974 4518 
L 1222 -115 
L 922 -115 
L 3443 4096 
Q 3264 3891 3094 3811 
Q 2925 3731 2669 3731 
Q 2445 3731 2182 3821 
Q 2208 3674 2208 3539 
Q 2208 3206 2067 2873 
Q 1926 2541 1696 2323 
Q 1453 2086 1146 2086 
Q 826 2086 608 2339 
Q 390 2592 390 2963 
Q 390 3507 761 3916 
Q 1133 4326 1626 4326 
Q 1792 4326 2010 4147 
Q 2310 3898 2624 3898 
Q 2918 3898 3084 3994 
Q 3251 4090 3693 4518 
L 3974 4518 
z
M 2054 3642 
Q 2054 3782 2025 3833 
Q 1997 3885 1894 3936 
Q 1747 4006 1613 4154 
Q 1414 4058 1331 3984 
Q 1248 3910 1152 3750 
Q 845 3264 845 2707 
Q 845 2509 944 2384 
Q 1043 2259 1210 2259 
Q 1549 2259 1801 2675 
Q 2054 3091 2054 3642 
z
" transform="scale(0.015625)"/>
       <path id="STIXGeneral-Regular-29" d="M 186 4224 
L 262 4326 
Q 992 3891 1408 3148 
Q 1824 2406 1824 1581 
Q 1824 -166 243 -1133 
L 186 -1030 
Q 845 -486 1059 54 
Q 1274 595 1274 1562 
Q 1274 2534 1059 3120 
Q 845 3706 186 4224 
z
" transform="scale(0.015625)"/>
      </defs>
      <use xlink:href="#STIXGeneral-Regular-4c" transform="translate(24.06642 0.40625)"/>
      <use xlink:href="#STIXGeneral-Regular-6f" transform="translate(85.166411 0.40625)"/>
      <use xlink:href="#STIXGeneral-Regular-61" transform="translate(135.166395 0.40625)"/>
      <use xlink:href="#STIXGeneral-Regular-64" transform="translate(179.566389 0.40625)"/>
      <use xlink:href="#STIXGeneral-Regular-46" transform="translate(253.632794 0.40625)"/>
      <use xlink:href="#STIXGeneral-Regular-61" transform="translate(309.232785 0.40625)"/>
      <use xlink:href="#STIXGeneral-Regular-63" transform="translate(353.632779 0.40625)"/>
      <use xlink:href="#STIXGeneral-Regular-74" transform="translate(398.032773 0.40625)"/>
      <use xlink:href="#STIXGeneral-Regular-6f" transform="translate(425.83276 0.40625)"/>
      <use xlink:href="#STIXGeneral-Regular-72" transform="translate(475.832745 0.40625)"/>
      <use xlink:href="#SimSun-20" transform="translate(509.132733 0.40625)"/>
      <use xlink:href="#STIXGeneral-Regular-28" transform="translate(559.132733 0.40625)"/>
      <use xlink:href="#STIXGeneral-Regular-25" transform="translate(592.432721 0.40625)"/>
      <use xlink:href="#STIXGeneral-Regular-29" transform="translate(667.132702 0.40625)"/>
     </g>
    </g>
   </g>
   <g id="matplotlib.axis_2">
    <g id="ytick_1">
     <g id="line2d_12">
      <defs>
       <path id="m78ec97b7d7" d="M 0 0 
L -3.5 0 
" style="stroke: #000000; stroke-width: 0.8"/>
      </defs>
      <g>
       <use xlink:href="#m78ec97b7d7" x="129.6" y="760.32" style="stroke: #000000; stroke-width: 0.8"/>
      </g>
     </g>
     <g id="text_13">
      <!-- 0 -->
      <g transform="translate(102.6 774.616875) scale(0.4 -0.4)">
       <use xlink:href="#SimSun-30"/>
      </g>
     </g>
    </g>
    <g id="ytick_2">
     <g id="line2d_13">
      <g>
       <use xlink:href="#m78ec97b7d7" x="129.6" y="686.016" style="stroke: #000000; stroke-width: 0.8"/>
      </g>
     </g>
     <g id="text_14">
      <!-- 10 -->
      <g transform="translate(82.6 700.312875) scale(0.4 -0.4)">
       <use xlink:href="#SimSun-31"/>
       <use xlink:href="#SimSun-30" x="50"/>
      </g>
     </g>
    </g>
    <g id="ytick_3">
     <g id="line2d_14">
      <g>
       <use xlink:href="#m78ec97b7d7" x="129.6" y="611.712" style="stroke: #000000; stroke-width: 0.8"/>
      </g>
     </g>
     <g id="text_15">
      <!-- 20 -->
      <g transform="translate(82.6 626.008875) scale(0.4 -0.4)">
       <use xlink:href="#SimSun-32"/>
       <use xlink:href="#SimSun-30" x="50"/>
      </g>
     </g>
    </g>
    <g id="ytick_4">
     <g id="line2d_15">
      <g>
       <use xlink:href="#m78ec97b7d7" x="129.6" y="537.408" style="stroke: #000000; stroke-width: 0.8"/>
      </g>
     </g>
     <g id="text_16">
      <!-- 30 -->
      <g transform="translate(82.6 551.704875) scale(0.4 -0.4)">
       <use xlink:href="#SimSun-33"/>
       <use xlink:href="#SimSun-30" x="50"/>
      </g>
     </g>
    </g>
    <g id="ytick_5">
     <g id="line2d_16">
      <g>
       <use xlink:href="#m78ec97b7d7" x="129.6" y="463.104" style="stroke: #000000; stroke-width: 0.8"/>
      </g>
     </g>
     <g id="text_17">
      <!-- 40 -->
      <g transform="translate(82.6 477.400875) scale(0.4 -0.4)">
       <use xlink:href="#SimSun-34"/>
       <use xlink:href="#SimSun-30" x="50"/>
      </g>
     </g>
    </g>
    <g id="ytick_6">
     <g id="line2d_17">
      <g>
       <use xlink:href="#m78ec97b7d7" x="129.6" y="388.8" style="stroke: #000000; stroke-width: 0.8"/>
      </g>
     </g>
     <g id="text_18">
      <!-- 50 -->
      <g transform="translate(82.6 403.096875) scale(0.4 -0.4)">
       <use xlink:href="#SimSun-35"/>
       <use xlink:href="#SimSun-30" x="50"/>
      </g>
     </g>
    </g>
    <g id="ytick_7">
     <g id="line2d_18">
      <g>
       <use xlink:href="#m78ec97b7d7" x="129.6" y="314.496" style="stroke: #000000; stroke-width: 0.8"/>
      </g>
     </g>
     <g id="text_19">
      <!-- 60 -->
      <g transform="translate(82.6 328.792875) scale(0.4 -0.4)">
       <use xlink:href="#SimSun-36"/>
       <use xlink:href="#SimSun-30" x="50"/>
      </g>
     </g>
    </g>
    <g id="ytick_8">
     <g id="line2d_19">
      <g>
       <use xlink:href="#m78ec97b7d7" x="129.6" y="240.192" style="stroke: #000000; stroke-width: 0.8"/>
      </g>
     </g>
     <g id="text_20">
      <!-- 70 -->
      <g transform="translate(82.6 254.488875) scale(0.4 -0.4)">
       <use xlink:href="#SimSun-37"/>
       <use xlink:href="#SimSun-30" x="50"/>
      </g>
     </g>
    </g>
    <g id="ytick_9">
     <g id="line2d_20">
      <g>
       <use xlink:href="#m78ec97b7d7" x="129.6" y="165.888" style="stroke: #000000; stroke-width: 0.8"/>
      </g>
     </g>
     <g id="text_21">
      <!-- 80 -->
      <g transform="translate(82.6 180.184875) scale(0.4 -0.4)">
       <use xlink:href="#SimSun-38"/>
       <use xlink:href="#SimSun-30" x="50"/>
      </g>
     </g>
    </g>
    <g id="ytick_10">
     <g id="line2d_21">
      <g>
       <use xlink:href="#m78ec97b7d7" x="129.6" y="91.584" style="stroke: #000000; stroke-width: 0.8"/>
      </g>
     </g>
     <g id="text_22">
      <!-- 90 -->
      <g transform="translate(82.6 105.880875) scale(0.4 -0.4)">
       <use xlink:href="#SimSun-39"/>
       <use xlink:href="#SimSun-30" x="50"/>
      </g>
     </g>
    </g>
    <g id="ytick_11">
     <g id="line2d_22">
      <g>
       <use xlink:href="#m78ec97b7d7" x="129.6" y="17.28" style="stroke: #000000; stroke-width: 0.8"/>
      </g>
     </g>
     <g id="text_23">
      <!-- 100 -->
      <g transform="translate(62.6 31.576875) scale(0.4 -0.4)">
       <use xlink:href="#SimSun-31"/>
       <use xlink:href="#SimSun-30" x="50"/>
       <use xlink:href="#SimSun-30" x="100"/>
      </g>
     </g>
    </g>
    <g id="text_24">
     <!-- $\mathrm{\ bucket\ ratio}$ $\mathrm{(\%)}$ -->
     <g transform="translate(49.6 561.3) rotate(-90) scale(0.5 -0.5)">
      <defs>
       <path id="STIXGeneral-Regular-62" d="M 979 4358 
L 979 2406 
Q 1082 2650 1315 2797 
Q 1549 2944 1843 2944 
Q 2349 2944 2672 2541 
Q 2995 2138 2995 1536 
Q 2995 832 2566 384 
Q 2138 -64 1498 -64 
Q 1107 -64 774 67 
Q 442 198 442 358 
L 442 3622 
Q 442 3859 384 3926 
Q 326 3994 128 3994 
Q 83 3994 19 3981 
L 19 4090 
L 211 4147 
Q 864 4346 947 4371 
L 979 4358 
z
M 979 2035 
L 979 474 
Q 979 326 1161 233 
Q 1344 141 1600 141 
Q 1978 141 2195 416 
Q 2432 710 2432 1261 
Q 2432 1888 2182 2240 
Q 1971 2541 1613 2541 
Q 1357 2541 1168 2390 
Q 979 2240 979 2035 
z
" transform="scale(0.015625)"/>
       <path id="STIXGeneral-Regular-75" d="M 3072 320 
L 3072 230 
Q 2573 96 2195 -58 
L 2163 -38 
L 2163 486 
L 2150 486 
Q 1747 -64 1235 -64 
Q 870 -64 662 160 
Q 454 384 454 755 
L 454 2362 
Q 454 2598 371 2688 
Q 288 2778 58 2790 
L 58 2880 
L 992 2880 
L 992 813 
Q 992 595 1123 451 
Q 1254 307 1446 307 
Q 1760 307 1984 506 
Q 2067 582 2099 649 
Q 2131 717 2131 877 
L 2131 2355 
Q 2131 2605 2041 2678 
Q 1952 2752 1658 2771 
L 1658 2880 
L 2669 2880 
L 2669 685 
Q 2669 461 2742 390 
Q 2816 320 3034 320 
L 3072 320 
z
" transform="scale(0.015625)"/>
       <path id="STIXGeneral-Regular-6b" d="M 3232 0 
L 1837 0 
L 1837 96 
L 1958 96 
Q 2093 96 2093 192 
Q 2093 250 2022 339 
L 1062 1606 
L 1062 429 
Q 1062 262 1142 185 
Q 1222 109 1414 102 
L 1542 96 
L 1542 0 
L 45 0 
L 45 96 
Q 390 154 457 214 
Q 525 275 525 525 
L 525 3610 
Q 525 3840 467 3920 
Q 410 4000 250 4000 
Q 211 4000 45 3987 
L 45 4090 
L 237 4141 
Q 621 4243 1037 4371 
L 1062 4358 
L 1062 1670 
L 1939 2451 
Q 2086 2586 2086 2675 
Q 2086 2739 2019 2761 
Q 1952 2784 1766 2790 
L 1766 2880 
L 3072 2880 
L 3072 2784 
Q 2752 2784 2505 2646 
Q 2259 2509 1690 1978 
L 1504 1805 
L 2483 563 
Q 2829 122 3232 96 
L 3232 0 
z
" transform="scale(0.015625)"/>
       <path id="STIXGeneral-Regular-65" d="M 2611 1050 
L 2714 1005 
Q 2330 -64 1376 -64 
Q 813 -64 486 329 
Q 160 723 160 1389 
Q 160 2074 525 2509 
Q 890 2944 1485 2944 
Q 2061 2944 2374 2502 
Q 2560 2246 2592 1773 
L 621 1773 
Q 646 1370 700 1158 
Q 755 947 915 730 
Q 1184 378 1626 378 
Q 1939 378 2153 531 
Q 2368 685 2611 1050 
z
M 634 1978 
L 1939 1978 
Q 1882 2381 1750 2547 
Q 1619 2714 1312 2714 
Q 1043 2714 864 2525 
Q 685 2336 634 1978 
z
" transform="scale(0.015625)"/>
       <path id="STIXGeneral-Regular-69" d="M 1152 4045 
Q 1152 3904 1056 3811 
Q 960 3718 819 3718 
Q 685 3718 592 3811 
Q 499 3904 499 4045 
Q 499 4179 595 4275 
Q 691 4371 826 4371 
Q 966 4371 1059 4275 
Q 1152 4179 1152 4045 
z
M 1619 0 
L 102 0 
L 102 96 
Q 435 115 521 211 
Q 608 307 608 666 
L 608 2118 
Q 608 2342 563 2432 
Q 518 2522 397 2522 
Q 243 2522 128 2490 
L 128 2592 
L 1120 2944 
L 1146 2918 
L 1146 672 
Q 1146 314 1226 218 
Q 1306 122 1619 96 
L 1619 0 
z
" transform="scale(0.015625)"/>
      </defs>
      <use xlink:href="#STIXGeneral-Regular-62" transform="translate(24.06642 0.40625)"/>
      <use xlink:href="#STIXGeneral-Regular-75" transform="translate(74.066405 0.40625)"/>
      <use xlink:href="#STIXGeneral-Regular-63" transform="translate(124.066389 0.40625)"/>
      <use xlink:href="#STIXGeneral-Regular-6b" transform="translate(168.466383 0.40625)"/>
      <use xlink:href="#STIXGeneral-Regular-65" transform="translate(218.466368 0.40625)"/>
      <use xlink:href="#STIXGeneral-Regular-74" transform="translate(262.866362 0.40625)"/>
      <use xlink:href="#STIXGeneral-Regular-72" transform="translate(314.73277 0.40625)"/>
      <use xlink:href="#STIXGeneral-Regular-61" transform="translate(348.032757 0.40625)"/>
      <use xlink:href="#STIXGeneral-Regular-74" transform="translate(392.432751 0.40625)"/>
      <use xlink:href="#STIXGeneral-Regular-69" transform="translate(420.232739 0.40625)"/>
      <use xlink:href="#STIXGeneral-Regular-6f" transform="translate(448.032727 0.40625)"/>
      <use xlink:href="#SimSun-20" transform="translate(498.032712 0.40625)"/>
      <use xlink:href="#STIXGeneral-Regular-28" transform="translate(548.032712 0.40625)"/>
      <use xlink:href="#STIXGeneral-Regular-25" transform="translate(581.332699 0.40625)"/>
      <use xlink:href="#STIXGeneral-Regular-29" transform="translate(656.032681 0.40625)"/>
     </g>
    </g>
   </g>
   <g id="line2d_23">
    <path d="M 129.869892 760.32 
L 564.218838 760.215974 
L 567.599832 760.066623 
L 572.12649 759.654236 
L 575.533188 759.173489 
L 578.953656 758.374721 
L 581.238558 757.662146 
L 583.53264 756.776442 
L 585.83223 755.696805 
L 588.128148 754.426207 
L 591.60186 752.159935 
L 595.09026 749.481276 
L 598.600692 746.416236 
L 602.105616 743.059924 
L 606.793842 738.148429 
L 611.506854 732.814145 
L 616.238226 727.118001 
L 622.178604 719.608838 
L 628.153866 711.72667 
L 634.152078 703.538369 
L 643.800258 689.982348 
L 651.052458 679.632543 
L 666.872352 656.790008 
L 690.116112 623.321257 
L 711.045594 593.688822 
L 735.734286 559.645701 
L 750.551724 539.622259 
L 771.56199 511.520486 
L 780.22791 500.054636 
L 804.895488 467.51097 
L 817.175574 451.340191 
L 835.511706 427.060616 
L 857.315124 397.717966 
L 876.455424 371.265742 
L 887.033538 356.268966 
L 895.159674 344.571287 
L 907.694964 326.118632 
L 919.891512 307.556749 
L 930.589884 290.70163 
L 941.880366 272.263092 
L 952.55487 254.109139 
L 962.55648 236.409183 
L 970.169454 222.423684 
L 977.26284 208.936765 
L 982.395378 198.881205 
L 988.521192 186.468722 
L 994.688316 173.635678 
L 999.692334 162.838564 
L 1006.47819 147.728102 
L 1012.941828 132.727611 
L 1018.578348 119.096542 
L 1024.835436 103.292824 
L 1030.638114 87.937903 
L 1036.238832 72.261245 
L 1041.983676 55.120798 
L 1043.105472 51.598045 
L 1043.105472 51.598045 
" clip-path="url(#p3a314210d7)" style="fill: none; stroke: #ff0000; stroke-width: 4; stroke-linecap: square"/>
   </g>
   <g id="line2d_24">
    <path d="M 129.869892 760.32 
L 228.899142 760.213745 
L 253.976148 759.932876 
L 271.099602 759.530892 
L 287.033328 758.921599 
L 301.622184 758.111685 
L 313.875648 757.1866 
L 325.4553 756.092845 
L 335.390814 754.947821 
L 345.450258 753.599946 
L 357.501762 751.694049 
L 369.745128 749.392111 
L 380.242458 747.13847 
L 389.899818 744.776346 
L 401.609826 741.571615 
L 410.486886 738.913761 
L 420.451776 735.636211 
L 429.499584 732.459715 
L 437.624802 729.359009 
L 445.802346 726.040593 
L 455.088834 722.04378 
L 466.546392 716.777856 
L 473.907834 713.212007 
L 484.474014 707.765524 
L 494.058852 702.557556 
L 504.790272 696.417817 
L 514.523826 690.568606 
L 525.41406 683.761617 
L 535.28715 677.297912 
L 548.563266 668.250657 
L 569.85903 653.226388 
L 575.533188 649.659053 
L 578.953656 647.843063 
L 581.238558 646.792404 
L 583.53264 645.895555 
L 585.83223 645.170348 
L 588.128148 644.624957 
L 590.438754 644.254923 
L 592.759458 644.072878 
L 596.271726 644.064705 
L 599.770224 644.373809 
L 602.105616 644.711892 
L 606.793842 645.738031 
L 610.323552 646.733704 
L 615.054006 648.364677 
L 622.178604 651.207548 
L 626.957712 653.342302 
L 638.981676 659.235352 
L 680.314626 680.309453 
L 690.116112 684.9111 
L 699.95799 689.239308 
L 709.818228 693.322312 
L 715.973418 695.720102 
L 724.611798 698.935236 
L 738.203706 703.506419 
L 746.842086 706.172446 
L 759.203874 709.659533 
L 770.324526 712.492001 
L 776.513682 713.961734 
L 790.101 716.929436 
L 802.438002 719.343573 
L 814.72176 721.453807 
L 825.735924 723.182861 
L 837.953586 724.883679 
L 860.914602 727.665621 
L 872.90919 728.938449 
L 912.17664 732.484979 
L 956.275524 735.676335 
L 970.169454 736.582101 
L 995.841324 738.213817 
L 1043.105472 740.999474 
L 1043.105472 740.999474 
" clip-path="url(#p3a314210d7)" style="fill: none; stroke-dasharray: 14.8,6.4; stroke-dashoffset: 0; stroke: #0000ff; stroke-width: 4"/>
   </g>
   <g id="line2d_25">
    <path d="M 129.869892 760.32 
L 228.899142 760.213745 
L 253.976148 759.932876 
L 271.099602 759.530892 
L 287.033328 758.921599 
L 301.622184 758.111685 
L 313.875648 757.1866 
L 325.4553 756.092845 
L 335.390814 754.947821 
L 345.450258 753.599946 
L 357.501762 751.694049 
L 369.745128 749.392111 
L 380.242458 747.13847 
L 389.899818 744.776346 
L 401.609826 741.571615 
L 410.486886 738.913761 
L 420.451776 735.636211 
L 429.499584 732.459715 
L 437.624802 729.359009 
L 445.802346 726.040593 
L 455.088834 722.04378 
L 466.546392 716.777856 
L 473.907834 713.212007 
L 484.474014 707.765524 
L 494.058852 702.557556 
L 504.790272 696.417817 
L 514.523826 690.568606 
L 525.41406 683.761617 
L 535.28715 677.297912 
L 548.563266 668.250657 
L 561.966984 658.631261 
L 574.39395 649.378184 
L 584.681058 641.445489 
L 595.09026 633.186599 
L 607.970718 622.577474 
L 618.612174 613.577773 
L 632.951334 601.102875 
L 652.266054 583.69642 
L 670.533336 566.683776 
L 683.982954 553.852218 
L 695.031084 543.101172 
L 713.510424 524.728022 
L 733.261194 504.57975 
L 748.081386 489.162413 
L 761.677884 474.666445 
L 778.989528 455.921032 
L 790.101 443.631151 
L 808.582176 422.771789 
L 823.294044 405.75543 
L 836.737236 389.822423 
L 851.288454 372.128412 
L 862.110756 358.640006 
L 879.995232 335.634002 
L 890.515512 321.620268 
L 900.897174 307.434891 
L 911.060352 293.123197 
L 920.97567 278.707478 
L 933.727608 259.439708 
L 941.880366 246.637129 
L 953.494902 227.642797 
L 962.55648 212.17642 
L 969.346926 200.164435 
L 976.504572 187.08173 
L 984.504942 171.833806 
L 991.063134 158.846953 
L 997.529526 145.546537 
L 1004.19237 131.308404 
L 1011.82554 114.228887 
L 1017.354654 101.303706 
L 1022.682726 88.344346 
L 1028.722248 72.965647 
L 1033.997994 58.823366 
L 1038.354822 46.513423 
L 1041.93135 35.893895 
L 1043.105472 32.277519 
L 1043.105472 32.277519 
" clip-path="url(#p3a314210d7)" style="fill: none; stroke-dasharray: 25.6,6.4,4,6.4; stroke-dashoffset: 0; stroke: #9467bd; stroke-width: 4"/>
   </g>
   <g id="patch_3">
    <path d="M 129.6 760.32 
L 129.6 17.28 
" style="fill: none; stroke: #000000; stroke-width: 0.8; stroke-linejoin: miter; stroke-linecap: square"/>
   </g>
   <g id="patch_4">
    <path d="M 1047.6 760.32 
L 1047.6 17.28 
" style="fill: none; stroke: #000000; stroke-width: 0.8; stroke-linejoin: miter; stroke-linecap: square"/>
   </g>
   <g id="patch_5">
    <path d="M 129.6 760.32 
L 1047.6 760.32 
" style="fill: none; stroke: #000000; stroke-width: 0.8; stroke-linejoin: miter; stroke-linecap: square"/>
   </g>
   <g id="patch_6">
    <path d="M 129.6 17.28 
L 1047.6 17.28 
" style="fill: none; stroke: #000000; stroke-width: 0.8; stroke-linejoin: miter; stroke-linecap: square"/>
   </g>
   <g id="patch_7">
    <path d="M 843.336433 555.124819 
Q 808.913382 533.052336 775.4315 511.583341 
" style="fill: none; stroke: #000000; stroke-linecap: round"/>
    <path d="M 782.294528 523.111518 
L 775.4315 511.583341 
L 788.771858 513.009825 
" style="fill: none; stroke: #000000; stroke-linecap: round"/>
   </g>
   <g id="text_25">
    <!-- (70.07,33.70) -->
    <g transform="translate(772.2 581.9904) scale(0.3 -0.3)">
     <defs>
      <path id="SimSun-28" d="M 2900 5025 
Q 2325 4425 2037 3737 
Q 1750 3050 1750 2300 
Q 1750 1525 2037 850 
Q 2325 175 2900 -425 
L 2775 -550 
Q 2075 75 1725 787 
Q 1375 1500 1375 2300 
Q 1375 3075 1725 3787 
Q 2075 4500 2775 5150 
L 2900 5025 
z
" transform="scale(0.015625)"/>
      <path id="SimSun-2e" d="M 800 25 
Q 650 25 537 125 
Q 425 225 425 400 
Q 425 575 537 675 
Q 650 775 800 775 
Q 950 775 1062 662 
Q 1175 550 1175 400 
Q 1175 225 1062 125 
Q 950 25 800 25 
z
" transform="scale(0.015625)"/>
      <path id="SimSun-2c" d="M 450 550 
Q 450 650 537 750 
Q 625 850 800 850 
Q 1000 850 1112 687 
Q 1225 525 1225 350 
Q 1225 0 1025 -300 
Q 825 -600 450 -750 
L 350 -625 
Q 600 -475 725 -312 
Q 850 -150 850 25 
Q 850 150 650 250 
Q 450 350 450 550 
z
" transform="scale(0.015625)"/>
      <path id="SimSun-29" d="M 275 5025 
L 400 5150 
Q 1100 4500 1450 3787 
Q 1800 3075 1800 2300 
Q 1800 1500 1450 787 
Q 1100 75 400 -550 
L 275 -425 
Q 850 175 1137 850 
Q 1425 1525 1425 2300 
Q 1425 3050 1137 3737 
Q 850 4425 275 5025 
z
" transform="scale(0.015625)"/>
     </defs>
     <use xlink:href="#SimSun-28"/>
     <use xlink:href="#SimSun-37" x="50"/>
     <use xlink:href="#SimSun-30" x="100"/>
     <use xlink:href="#SimSun-2e" x="150"/>
     <use xlink:href="#SimSun-30" x="200"/>
     <use xlink:href="#SimSun-37" x="250"/>
     <use xlink:href="#SimSun-2c" x="300"/>
     <use xlink:href="#SimSun-33" x="350"/>
     <use xlink:href="#SimSun-33" x="400"/>
     <use xlink:href="#SimSun-2e" x="450"/>
     <use xlink:href="#SimSun-37" x="500"/>
     <use xlink:href="#SimSun-30" x="550"/>
     <use xlink:href="#SimSun-29" x="600"/>
    </g>
   </g>
   <g id="patch_8">
    <path d="M 849.380415 648.588436 
Q 811.858022 680.194629 775.190732 711.080545 
" style="fill: none; stroke: #000000; stroke-linecap: round"/>
    <path d="M 788.23407 707.938677 
L 775.190732 711.080545 
L 780.503241 698.760754 
" style="fill: none; stroke: #000000; stroke-linecap: round"/>
   </g>
   <g id="text_26">
    <!-- (70.07, 6.35) -->
    <g transform="translate(772.2 641.4336) scale(0.3 -0.3)">
     <use xlink:href="#SimSun-28"/>
     <use xlink:href="#SimSun-37" x="50"/>
     <use xlink:href="#SimSun-30" x="100"/>
     <use xlink:href="#SimSun-2e" x="150"/>
     <use xlink:href="#SimSun-30" x="200"/>
     <use xlink:href="#SimSun-37" x="250"/>
     <use xlink:href="#SimSun-2c" x="300"/>
     <use xlink:href="#SimSun-20" x="350"/>
     <use xlink:href="#SimSun-36" x="400"/>
     <use xlink:href="#SimSun-2e" x="450"/>
     <use xlink:href="#SimSun-33" x="500"/>
     <use xlink:href="#SimSun-35" x="550"/>
     <use xlink:href="#SimSun-29" x="600"/>
    </g>
   </g>
   <g id="patch_9">
    <path d="M 687.049388 432.482511 
Q 728.983728 447.243813 769.863464 461.633885 
" style="fill: none; stroke: #000000; stroke-linecap: round"/>
    <path d="M 760.536509 451.989825 
L 769.863464 461.633885 
L 756.552042 463.309013 
" style="fill: none; stroke: #000000; stroke-linecap: round"/>
   </g>
   <g id="text_27">
    <!-- (70.07,40.06) -->
    <g transform="translate(542.7 425.952) scale(0.3 -0.3)">
     <use xlink:href="#SimSun-28"/>
     <use xlink:href="#SimSun-37" x="50"/>
     <use xlink:href="#SimSun-30" x="100"/>
     <use xlink:href="#SimSun-2e" x="150"/>
     <use xlink:href="#SimSun-30" x="200"/>
     <use xlink:href="#SimSun-37" x="250"/>
     <use xlink:href="#SimSun-2c" x="300"/>
     <use xlink:href="#SimSun-34" x="350"/>
     <use xlink:href="#SimSun-30" x="400"/>
     <use xlink:href="#SimSun-2e" x="450"/>
     <use xlink:href="#SimSun-30" x="500"/>
     <use xlink:href="#SimSun-36" x="550"/>
     <use xlink:href="#SimSun-29" x="600"/>
    </g>
   </g>
   <g id="patch_10">
    <path d="M 555.481806 545.129222 
Q 574.914341 593.649216 593.931196 641.131323 
" style="fill: none; stroke: #000000; stroke-linecap: round"/>
    <path d="M 595.03954 627.760775 
L 593.931196 641.131323 
L 583.899764 632.222319 
" style="fill: none; stroke: #000000; stroke-linecap: round"/>
   </g>
   <g id="text_28">
    <!-- (50.70,15.65) -->
    <g transform="translate(450.9 537.408) scale(0.3 -0.3)">
     <use xlink:href="#SimSun-28"/>
     <use xlink:href="#SimSun-35" x="50"/>
     <use xlink:href="#SimSun-30" x="100"/>
     <use xlink:href="#SimSun-2e" x="150"/>
     <use xlink:href="#SimSun-37" x="200"/>
     <use xlink:href="#SimSun-30" x="250"/>
     <use xlink:href="#SimSun-2c" x="300"/>
     <use xlink:href="#SimSun-31" x="350"/>
     <use xlink:href="#SimSun-35" x="400"/>
     <use xlink:href="#SimSun-2e" x="450"/>
     <use xlink:href="#SimSun-36" x="500"/>
     <use xlink:href="#SimSun-35" x="550"/>
     <use xlink:href="#SimSun-29" x="600"/>
    </g>
   </g>
   <g id="patch_11">
    <path d="M 446.499067 692.904841 
Q 502.248963 726.09934 557.038217 758.721855 
" style="fill: none; stroke: #000000; stroke-linecap: round"/>
    <path d="M 549.797107 747.427329 
L 557.038217 758.721855 
L 543.65793 757.738028 
" style="fill: none; stroke: #000000; stroke-linecap: round"/>
   </g>
   <g id="text_29">
    <!-- (46.85,0.0005) -->
    <g transform="translate(313.2 686.016) scale(0.3 -0.3)">
     <use xlink:href="#SimSun-28"/>
     <use xlink:href="#SimSun-34" x="50"/>
     <use xlink:href="#SimSun-36" x="100"/>
     <use xlink:href="#SimSun-2e" x="150"/>
     <use xlink:href="#SimSun-38" x="200"/>
     <use xlink:href="#SimSun-35" x="250"/>
     <use xlink:href="#SimSun-2c" x="300"/>
     <use xlink:href="#SimSun-30" x="350"/>
     <use xlink:href="#SimSun-2e" x="400"/>
     <use xlink:href="#SimSun-30" x="450"/>
     <use xlink:href="#SimSun-30" x="500"/>
     <use xlink:href="#SimSun-30" x="550"/>
     <use xlink:href="#SimSun-35" x="600"/>
     <use xlink:href="#SimSun-29" x="650"/>
    </g>
   </g>
   <g id="legend_1">
    <g id="patch_12">
     <path d="M 159.7 234.235156 
L 598.4075 234.235156 
Q 607.0075 234.235156 607.0075 225.635156 
L 607.0075 47.38 
Q 607.0075 38.78 598.4075 38.78 
L 159.7 38.78 
Q 151.1 38.78 151.1 47.38 
L 151.1 225.635156 
Q 151.1 234.235156 159.7 234.235156 
z
" style="fill: #ffffff; opacity: 0.8; stroke: #cccccc; stroke-linejoin: miter"/>
    </g>
    <g id="line2d_26">
     <path d="M 168.3 71.03 
L 211.3 71.03 
L 254.3 71.03 
" style="fill: none; stroke: #ff0000; stroke-width: 4; stroke-linecap: square"/>
    </g>
    <g id="text_30">
     <!-- full_and_invalid -->
     <g transform="translate(288.7 86.08) scale(0.43 -0.43)">
      <defs>
       <path id="TimesNewRomanPS-BoldMT-66" d="M 1497 2616 
L 1497 588 
Q 1497 294 1559 219 
Q 1659 103 1928 113 
L 1928 0 
L 206 0 
L 206 113 
Q 403 116 486 158 
Q 569 200 600 275 
Q 631 350 631 588 
L 631 2616 
L 206 2616 
L 206 2922 
L 631 2922 
L 631 3138 
L 628 3284 
Q 628 3734 958 4034 
Q 1288 4334 1850 4334 
Q 2234 4334 2420 4190 
Q 2606 4047 2606 3872 
Q 2606 3731 2490 3628 
Q 2375 3525 2184 3525 
Q 2022 3525 1926 3609 
Q 1831 3694 1831 3797 
Q 1831 3825 1850 3913 
Q 1863 3966 1863 4013 
Q 1863 4078 1825 4109 
Q 1775 4156 1703 4156 
Q 1613 4156 1552 4081 
Q 1491 4006 1491 3841 
L 1497 3294 
L 1497 2922 
L 1928 2922 
L 1928 2616 
L 1497 2616 
z
" transform="scale(0.015625)"/>
       <path id="TimesNewRomanPS-BoldMT-75" d="M 3038 2922 
L 3038 634 
Q 3038 300 3100 217 
Q 3163 134 3353 113 
L 3353 0 
L 2163 0 
L 2163 391 
Q 1953 141 1743 26 
Q 1534 -88 1275 -88 
Q 1028 -88 836 64 
Q 644 216 578 419 
Q 513 622 513 1128 
L 513 2288 
Q 513 2619 452 2700 
Q 391 2781 197 2806 
L 197 2922 
L 1388 2922 
L 1388 925 
Q 1388 613 1417 522 
Q 1447 431 1511 384 
Q 1575 338 1659 338 
Q 1772 338 1863 397 
Q 1988 478 2163 725 
L 2163 2288 
Q 2163 2619 2102 2700 
Q 2041 2781 1847 2806 
L 1847 2922 
L 3038 2922 
z
" transform="scale(0.015625)"/>
       <path id="TimesNewRomanPS-BoldMT-6c" d="M 1359 4238 
L 1359 606 
Q 1359 297 1431 211 
Q 1503 125 1713 113 
L 1713 0 
L 134 0 
L 134 113 
Q 328 119 422 225 
Q 484 297 484 606 
L 484 3631 
Q 484 3938 412 4023 
Q 341 4109 134 4122 
L 134 4238 
L 1359 4238 
z
" transform="scale(0.015625)"/>
       <path id="TimesNewRomanPS-BoldMT-5f" d="M -59 -972 
L 3259 -972 
L 3259 -1381 
L -59 -1381 
L -59 -972 
z
" transform="scale(0.015625)"/>
       <path id="TimesNewRomanPS-BoldMT-61" d="M 1828 431 
Q 1294 -41 869 -41 
Q 619 -41 453 123 
Q 288 288 288 534 
Q 288 869 575 1136 
Q 863 1403 1828 1847 
L 1828 2141 
Q 1828 2472 1792 2558 
Q 1756 2644 1656 2708 
Q 1556 2772 1431 2772 
Q 1228 2772 1097 2681 
Q 1016 2625 1016 2550 
Q 1016 2484 1103 2388 
Q 1222 2253 1222 2128 
Q 1222 1975 1108 1867 
Q 994 1759 809 1759 
Q 613 1759 480 1878 
Q 347 1997 347 2156 
Q 347 2381 525 2586 
Q 703 2791 1022 2900 
Q 1341 3009 1684 3009 
Q 2100 3009 2342 2832 
Q 2584 2656 2656 2450 
Q 2700 2319 2700 1847 
L 2700 713 
Q 2700 513 2715 461 
Q 2731 409 2762 384 
Q 2794 359 2834 359 
Q 2916 359 3000 475 
L 3094 400 
Q 2938 169 2770 64 
Q 2603 -41 2391 -41 
Q 2141 -41 2000 76 
Q 1859 194 1828 431 
z
M 1828 659 
L 1828 1638 
Q 1450 1416 1266 1163 
Q 1144 994 1144 822 
Q 1144 678 1247 569 
Q 1325 484 1466 484 
Q 1622 484 1828 659 
z
" transform="scale(0.015625)"/>
       <path id="TimesNewRomanPS-BoldMT-6e" d="M 1409 2922 
L 1409 2544 
Q 1634 2788 1840 2898 
Q 2047 3009 2284 3009 
Q 2569 3009 2756 2851 
Q 2944 2694 3006 2459 
Q 3056 2281 3056 1775 
L 3056 638 
Q 3056 300 3117 217 
Q 3178 134 3372 113 
L 3372 0 
L 1894 0 
L 1894 113 
Q 2059 134 2131 250 
Q 2181 328 2181 638 
L 2181 1938 
Q 2181 2297 2153 2390 
Q 2125 2484 2058 2536 
Q 1991 2588 1909 2588 
Q 1641 2588 1409 2203 
L 1409 638 
Q 1409 309 1470 221 
Q 1531 134 1697 113 
L 1697 0 
L 219 0 
L 219 113 
Q 403 131 481 231 
Q 534 300 534 638 
L 534 2288 
Q 534 2619 473 2700 
Q 413 2781 219 2806 
L 219 2922 
L 1409 2922 
z
" transform="scale(0.015625)"/>
       <path id="TimesNewRomanPS-BoldMT-64" d="M 3056 4238 
L 3056 875 
Q 3056 534 3075 472 
Q 3100 369 3170 319 
Q 3241 269 3416 256 
L 3416 153 
L 2181 -88 
L 2181 375 
Q 1959 106 1786 9 
Q 1613 -88 1394 -88 
Q 834 -88 509 413 
Q 247 819 247 1409 
Q 247 1881 409 2254 
Q 572 2628 855 2818 
Q 1138 3009 1463 3009 
Q 1672 3009 1834 2928 
Q 1997 2847 2181 2644 
L 2181 3525 
Q 2181 3859 2153 3928 
Q 2116 4019 2041 4062 
Q 1966 4106 1759 4106 
L 1759 4238 
L 3056 4238 
z
M 2181 2256 
Q 1950 2700 1616 2700 
Q 1500 2700 1425 2638 
Q 1309 2541 1236 2297 
Q 1163 2053 1163 1550 
Q 1163 997 1244 731 
Q 1325 466 1466 347 
Q 1538 288 1663 288 
Q 1938 288 2181 719 
L 2181 2256 
z
" transform="scale(0.015625)"/>
       <path id="TimesNewRomanPS-BoldMT-69" d="M 919 4338 
Q 1122 4338 1262 4195 
Q 1403 4053 1403 3853 
Q 1403 3653 1261 3512 
Q 1119 3372 919 3372 
Q 719 3372 578 3512 
Q 438 3653 438 3853 
Q 438 4053 578 4195 
Q 719 4338 919 4338 
z
M 1356 2922 
L 1356 606 
Q 1356 297 1428 211 
Q 1500 125 1709 113 
L 1709 0 
L 131 0 
L 131 113 
Q 325 119 419 225 
Q 481 297 481 606 
L 481 2313 
Q 481 2622 409 2708 
Q 338 2794 131 2806 
L 131 2922 
L 1356 2922 
z
" transform="scale(0.015625)"/>
       <path id="TimesNewRomanPS-BoldMT-76" d="M 1534 -88 
L 550 2178 
Q 372 2588 272 2697 
Q 200 2778 59 2806 
L 59 2922 
L 1613 2922 
L 1613 2806 
Q 1466 2806 1413 2753 
Q 1338 2684 1338 2591 
Q 1338 2475 1475 2156 
L 1956 1059 
L 2341 2006 
Q 2506 2413 2506 2581 
Q 2506 2678 2436 2739 
Q 2366 2800 2188 2806 
L 2188 2922 
L 3144 2922 
L 3144 2806 
Q 3006 2788 2918 2703 
Q 2831 2619 2656 2206 
L 1681 -88 
L 1534 -88 
z
" transform="scale(0.015625)"/>
      </defs>
      <use xlink:href="#TimesNewRomanPS-BoldMT-66"/>
      <use xlink:href="#TimesNewRomanPS-BoldMT-75" x="33.300781"/>
      <use xlink:href="#TimesNewRomanPS-BoldMT-6c" x="88.916016"/>
      <use xlink:href="#TimesNewRomanPS-BoldMT-6c" x="116.699219"/>
      <use xlink:href="#TimesNewRomanPS-BoldMT-5f" x="144.482422"/>
      <use xlink:href="#TimesNewRomanPS-BoldMT-61" x="194.482422"/>
      <use xlink:href="#TimesNewRomanPS-BoldMT-6e" x="244.482422"/>
      <use xlink:href="#TimesNewRomanPS-BoldMT-64" x="300.097656"/>
      <use xlink:href="#TimesNewRomanPS-BoldMT-5f" x="355.712891"/>
      <use xlink:href="#TimesNewRomanPS-BoldMT-69" x="405.712891"/>
      <use xlink:href="#TimesNewRomanPS-BoldMT-6e" x="433.496094"/>
      <use xlink:href="#TimesNewRomanPS-BoldMT-76" x="489.111328"/>
      <use xlink:href="#TimesNewRomanPS-BoldMT-61" x="539.111328"/>
      <use xlink:href="#TimesNewRomanPS-BoldMT-6c" x="589.111328"/>
      <use xlink:href="#TimesNewRomanPS-BoldMT-69" x="616.894531"/>
      <use xlink:href="#TimesNewRomanPS-BoldMT-64" x="644.677734"/>
     </g>
    </g>
    <g id="line2d_27">
     <path d="M 168.3 131.908594 
L 211.3 131.908594 
L 254.3 131.908594 
" style="fill: none; stroke-dasharray: 14.8,6.4; stroke-dashoffset: 0; stroke: #0000ff; stroke-width: 4"/>
    </g>
    <g id="text_31">
     <!-- full_and_valid -->
     <g transform="translate(288.7 146.958594) scale(0.43 -0.43)">
      <use xlink:href="#TimesNewRomanPS-BoldMT-66"/>
      <use xlink:href="#TimesNewRomanPS-BoldMT-75" x="33.300781"/>
      <use xlink:href="#TimesNewRomanPS-BoldMT-6c" x="88.916016"/>
      <use xlink:href="#TimesNewRomanPS-BoldMT-6c" x="116.699219"/>
      <use xlink:href="#TimesNewRomanPS-BoldMT-5f" x="144.482422"/>
      <use xlink:href="#TimesNewRomanPS-BoldMT-61" x="194.482422"/>
      <use xlink:href="#TimesNewRomanPS-BoldMT-6e" x="244.482422"/>
      <use xlink:href="#TimesNewRomanPS-BoldMT-64" x="300.097656"/>
      <use xlink:href="#TimesNewRomanPS-BoldMT-5f" x="355.712891"/>
      <use xlink:href="#TimesNewRomanPS-BoldMT-76" x="405.712891"/>
      <use xlink:href="#TimesNewRomanPS-BoldMT-61" x="455.712891"/>
      <use xlink:href="#TimesNewRomanPS-BoldMT-6c" x="505.712891"/>
      <use xlink:href="#TimesNewRomanPS-BoldMT-69" x="533.496094"/>
      <use xlink:href="#TimesNewRomanPS-BoldMT-64" x="561.279297"/>
     </g>
    </g>
    <g id="line2d_28">
     <path d="M 168.3 192.787187 
L 211.3 192.787187 
L 254.3 192.787187 
" style="fill: none; stroke-dasharray: 25.6,6.4,4,6.4; stroke-dashoffset: 0; stroke: #9467bd; stroke-width: 4"/>
    </g>
    <g id="text_32">
     <!-- full -->
     <g transform="translate(288.7 207.837187) scale(0.43 -0.43)">
      <use xlink:href="#TimesNewRomanPS-BoldMT-66"/>
      <use xlink:href="#TimesNewRomanPS-BoldMT-75" x="33.300781"/>
      <use xlink:href="#TimesNewRomanPS-BoldMT-6c" x="88.916016"/>
      <use xlink:href="#TimesNewRomanPS-BoldMT-6c" x="116.699219"/>
     </g>
    </g>
   </g>
  </g>
 </g>
 <defs>
  <clipPath id="p3a314210d7">
   <rect x="129.6" y="17.28" width="918" height="743.04"/>
  </clipPath>
 </defs>
</svg>
