<?xml version="1.0" encoding="utf-8" standalone="no"?>
<!DOCTYPE svg PUBLIC "-//W3C//DTD SVG 1.1//EN"
  "http://www.w3.org/Graphics/SVG/1.1/DTD/svg11.dtd">
<svg xmlns:xlink="http://www.w3.org/1999/xlink" width="921.6pt" height="518.4pt" viewBox="0 0 921.6 518.4" xmlns="http://www.w3.org/2000/svg" version="1.1">
 <metadata>
  <rdf:RDF xmlns:dc="http://purl.org/dc/elements/1.1/" xmlns:cc="http://creativecommons.org/ns#" xmlns:rdf="http://www.w3.org/1999/02/22-rdf-syntax-ns#">
   <cc:Work>
    <dc:type rdf:resource="http://purl.org/dc/dcmitype/StillImage"/>
    <dc:date>2023-08-11T10:09:58.227029</dc:date>
    <dc:format>image/svg+xml</dc:format>
    <dc:creator>
     <cc:Agent>
      <dc:title>Matplotlib v3.7.1, https://matplotlib.org/</dc:title>
     </cc:Agent>
    </dc:creator>
   </cc:Work>
  </rdf:RDF>
 </metadata>
 <defs>
  <style type="text/css">*{stroke-linejoin: round; stroke-linecap: butt}</style>
 </defs>
 <g id="figure_1">
  <g id="patch_1">
   <path d="M 0 518.4 
L 921.6 518.4 
L 921.6 0 
L 0 0 
z
" style="fill: #ffffff"/>
  </g>
  <g id="axes_1">
   <g id="patch_2">
    <path d="M 115.2 461.376 
L 829.44 461.376 
L 829.44 62.208 
L 115.2 62.208 
z
" style="fill: #ffffff"/>
   </g>
   <g id="matplotlib.axis_1">
    <g id="xtick_1">
     <g id="line2d_1">
      <defs>
       <path id="md14a862286" d="M 0 0 
L 0 3.5 
" style="stroke: #000000; stroke-width: 0.8"/>
      </defs>
      <g>
       <use xlink:href="#md14a862286" x="115.2" y="461.376" style="stroke: #000000; stroke-width: 0.8"/>
      </g>
     </g>
     <g id="text_1">
      <!-- 0 -->
      <g transform="translate(110.45 481.958031) scale(0.19 -0.19)">
       <defs>
        <path id="SimSun-30" d="M 1600 4225 
Q 1250 4225 1012 3687 
Q 775 3150 775 2250 
Q 775 1300 1012 775 
Q 1250 250 1600 250 
Q 1975 250 2187 775 
Q 2400 1300 2400 2250 
Q 2400 3150 2200 3687 
Q 2000 4225 1600 4225 
z
M 1600 50 
Q 1050 50 675 625 
Q 300 1200 300 2250 
Q 300 3225 662 3825 
Q 1025 4425 1600 4425 
Q 2150 4425 2512 3850 
Q 2875 3275 2875 2250 
Q 2875 1225 2512 637 
Q 2150 50 1600 50 
z
" transform="scale(0.015625)"/>
       </defs>
       <use xlink:href="#SimSun-30"/>
      </g>
     </g>
    </g>
    <g id="xtick_2">
     <g id="line2d_2">
      <g>
       <use xlink:href="#md14a862286" x="186.624" y="461.376" style="stroke: #000000; stroke-width: 0.8"/>
      </g>
     </g>
     <g id="text_2">
      <!-- 10 -->
      <g transform="translate(177.124 481.958031) scale(0.19 -0.19)">
       <defs>
        <path id="SimSun-31" d="M 1825 4450 
L 1825 650 
Q 1825 450 1950 350 
Q 2075 250 2300 250 
L 2550 250 
L 2550 100 
L 725 100 
L 725 250 
L 950 250 
Q 1200 250 1312 350 
Q 1425 450 1425 650 
L 1425 3675 
Q 1425 3775 1362 3837 
Q 1300 3900 1175 3900 
L 725 3900 
L 725 4050 
L 950 4050 
Q 1250 4050 1437 4150 
Q 1625 4250 1725 4450 
L 1825 4450 
z
" transform="scale(0.015625)"/>
       </defs>
       <use xlink:href="#SimSun-31"/>
       <use xlink:href="#SimSun-30" x="50"/>
      </g>
     </g>
    </g>
    <g id="xtick_3">
     <g id="line2d_3">
      <g>
       <use xlink:href="#md14a862286" x="258.048" y="461.376" style="stroke: #000000; stroke-width: 0.8"/>
      </g>
     </g>
     <g id="text_3">
      <!-- 20 -->
      <g transform="translate(248.548 481.958031) scale(0.19 -0.19)">
       <defs>
        <path id="SimSun-32" d="M 2325 3325 
Q 2325 3775 2125 4012 
Q 1925 4250 1525 4250 
Q 1225 4250 1012 4087 
Q 800 3925 800 3675 
Q 800 3525 900 3425 
Q 975 3325 975 3225 
Q 975 3100 912 3037 
Q 850 2975 725 2975 
Q 575 2975 487 3062 
Q 400 3150 400 3350 
Q 400 3875 775 4150 
Q 1150 4425 1575 4425 
Q 2175 4425 2462 4125 
Q 2750 3825 2750 3375 
Q 2750 3075 2612 2775 
Q 2475 2475 2175 2200 
Q 1450 1500 1062 1062 
Q 675 625 600 475 
L 2075 475 
Q 2300 475 2450 650 
Q 2600 825 2650 1175 
L 2800 1175 
L 2650 100 
L 325 100 
L 325 425 
Q 450 650 737 1000 
Q 1025 1350 1500 1825 
Q 1925 2250 2125 2625 
Q 2325 3000 2325 3325 
z
" transform="scale(0.015625)"/>
       </defs>
       <use xlink:href="#SimSun-32"/>
       <use xlink:href="#SimSun-30" x="50"/>
      </g>
     </g>
    </g>
    <g id="xtick_4">
     <g id="line2d_4">
      <g>
       <use xlink:href="#md14a862286" x="329.472" y="461.376" style="stroke: #000000; stroke-width: 0.8"/>
      </g>
     </g>
     <g id="text_4">
      <!-- 30 -->
      <g transform="translate(319.972 481.958031) scale(0.19 -0.19)">
       <defs>
        <path id="SimSun-33" d="M 2800 1250 
Q 2800 775 2450 412 
Q 2100 50 1475 50 
Q 1025 50 700 300 
Q 375 550 375 875 
Q 375 1025 475 1137 
Q 575 1250 675 1250 
Q 825 1250 887 1137 
Q 950 1025 950 950 
Q 950 825 900 750 
Q 850 650 850 575 
Q 850 425 1037 325 
Q 1225 225 1450 225 
Q 1900 225 2125 487 
Q 2350 750 2350 1300 
Q 2350 1750 2112 2025 
Q 1875 2300 1225 2300 
L 1225 2475 
Q 1725 2475 1962 2712 
Q 2200 2950 2200 3375 
Q 2200 3725 2012 3987 
Q 1825 4250 1425 4250 
Q 1250 4250 1050 4162 
Q 850 4075 850 3875 
Q 850 3675 900 3625 
Q 950 3575 950 3500 
Q 950 3375 900 3300 
Q 850 3225 725 3225 
Q 625 3225 537 3300 
Q 450 3375 450 3575 
Q 450 3950 775 4187 
Q 1100 4425 1525 4425 
Q 2025 4425 2325 4112 
Q 2625 3800 2625 3450 
Q 2625 3075 2437 2812 
Q 2250 2550 1850 2425 
Q 2400 2225 2600 1900 
Q 2800 1575 2800 1250 
z
" transform="scale(0.015625)"/>
       </defs>
       <use xlink:href="#SimSun-33"/>
       <use xlink:href="#SimSun-30" x="50"/>
      </g>
     </g>
    </g>
    <g id="xtick_5">
     <g id="line2d_5">
      <g>
       <use xlink:href="#md14a862286" x="400.896" y="461.376" style="stroke: #000000; stroke-width: 0.8"/>
      </g>
     </g>
     <g id="text_5">
      <!-- 40 -->
      <g transform="translate(391.396 481.958031) scale(0.19 -0.19)">
       <defs>
        <path id="SimSun-34" d="M 2300 575 
Q 2300 400 2400 325 
Q 2500 250 2675 250 
L 2900 250 
L 2900 100 
L 1250 100 
L 1250 250 
L 1525 250 
Q 1725 250 1812 325 
Q 1900 400 1900 575 
L 1900 1400 
L 225 1400 
L 225 1525 
L 2050 4425 
L 2300 4425 
L 2300 1550 
L 2975 1550 
L 2975 1400 
L 2300 1400 
L 2300 575 
z
M 1875 3800 
L 450 1550 
L 1900 1550 
L 1900 3800 
L 1875 3800 
z
" transform="scale(0.015625)"/>
       </defs>
       <use xlink:href="#SimSun-34"/>
       <use xlink:href="#SimSun-30" x="50"/>
      </g>
     </g>
    </g>
    <g id="xtick_6">
     <g id="line2d_6">
      <g>
       <use xlink:href="#md14a862286" x="472.32" y="461.376" style="stroke: #000000; stroke-width: 0.8"/>
      </g>
     </g>
     <g id="text_6">
      <!-- 50 -->
      <g transform="translate(462.82 481.958031) scale(0.19 -0.19)">
       <defs>
        <path id="SimSun-35" d="M 1725 2850 
Q 2200 2850 2500 2487 
Q 2800 2125 2800 1525 
Q 2800 850 2487 450 
Q 2175 50 1525 50 
Q 1075 50 725 312 
Q 375 575 375 950 
Q 375 1100 462 1212 
Q 550 1325 700 1325 
Q 850 1325 900 1225 
Q 950 1125 950 1050 
Q 950 900 875 825 
Q 800 725 800 625 
Q 800 425 1037 325 
Q 1275 225 1550 225 
Q 1950 225 2162 550 
Q 2375 875 2375 1475 
Q 2375 1975 2187 2287 
Q 2000 2600 1625 2600 
Q 1350 2600 1150 2500 
Q 950 2400 775 2075 
L 550 2100 
L 675 4375 
L 2725 4375 
L 2650 4000 
L 850 4000 
L 750 2350 
Q 1000 2700 1237 2775 
Q 1475 2850 1725 2850 
z
" transform="scale(0.015625)"/>
       </defs>
       <use xlink:href="#SimSun-35"/>
       <use xlink:href="#SimSun-30" x="50"/>
      </g>
     </g>
    </g>
    <g id="xtick_7">
     <g id="line2d_7">
      <g>
       <use xlink:href="#md14a862286" x="543.744" y="461.376" style="stroke: #000000; stroke-width: 0.8"/>
      </g>
     </g>
     <g id="text_7">
      <!-- 60 -->
      <g transform="translate(534.244 481.958031) scale(0.19 -0.19)">
       <defs>
        <path id="SimSun-36" d="M 775 1800 
Q 775 1050 1037 637 
Q 1300 225 1675 225 
Q 2050 225 2250 500 
Q 2450 775 2450 1525 
Q 2450 2025 2237 2300 
Q 2025 2575 1725 2575 
Q 1450 2575 1212 2412 
Q 975 2250 775 1800 
z
M 1750 2825 
Q 2350 2825 2612 2425 
Q 2875 2025 2875 1525 
Q 2875 775 2512 412 
Q 2150 50 1675 50 
Q 1000 50 650 562 
Q 300 1075 300 2050 
Q 300 3200 725 3812 
Q 1150 4425 1875 4425 
Q 2225 4425 2437 4225 
Q 2650 4025 2650 3875 
Q 2650 3725 2587 3650 
Q 2525 3575 2375 3575 
Q 2250 3575 2187 3637 
Q 2125 3700 2125 3825 
Q 2125 3875 2150 3925 
Q 2150 3975 2150 4025 
Q 2150 4125 2075 4187 
Q 2000 4250 1800 4250 
Q 1375 4250 1075 3862 
Q 775 3475 775 2175 
Q 925 2500 1187 2662 
Q 1450 2825 1750 2825 
z
" transform="scale(0.015625)"/>
       </defs>
       <use xlink:href="#SimSun-36"/>
       <use xlink:href="#SimSun-30" x="50"/>
      </g>
     </g>
    </g>
    <g id="xtick_8">
     <g id="line2d_8">
      <g>
       <use xlink:href="#md14a862286" x="615.168" y="461.376" style="stroke: #000000; stroke-width: 0.8"/>
      </g>
     </g>
     <g id="text_8">
      <!-- 70 -->
      <g transform="translate(605.668 481.958031) scale(0.19 -0.19)">
       <defs>
        <path id="SimSun-37" d="M 2825 4200 
Q 2300 3350 1987 2537 
Q 1675 1725 1675 1125 
Q 1675 1025 1700 850 
Q 1700 650 1700 400 
Q 1700 200 1637 125 
Q 1575 50 1425 50 
Q 1300 50 1212 137 
Q 1125 225 1125 450 
Q 1125 925 1337 1625 
Q 1550 2325 2475 4000 
L 1225 4000 
Q 950 4000 787 3825 
Q 625 3650 550 3300 
L 400 3325 
L 575 4375 
L 2825 4375 
L 2825 4200 
z
" transform="scale(0.015625)"/>
       </defs>
       <use xlink:href="#SimSun-37"/>
       <use xlink:href="#SimSun-30" x="50"/>
      </g>
     </g>
    </g>
    <g id="xtick_9">
     <g id="line2d_9">
      <g>
       <use xlink:href="#md14a862286" x="686.592" y="461.376" style="stroke: #000000; stroke-width: 0.8"/>
      </g>
     </g>
     <g id="text_9">
      <!-- 80 -->
      <g transform="translate(677.092 481.958031) scale(0.19 -0.19)">
       <defs>
        <path id="SimSun-38" d="M 625 1125 
Q 625 725 887 475 
Q 1150 225 1550 225 
Q 2025 225 2237 475 
Q 2450 725 2450 1100 
Q 2450 1425 2150 1725 
Q 1850 2025 1250 2275 
Q 950 2075 787 1775 
Q 625 1475 625 1125 
z
M 2825 1175 
Q 2825 700 2475 375 
Q 2125 50 1550 50 
Q 1025 50 650 375 
Q 275 700 275 1125 
Q 275 1550 487 1850 
Q 700 2150 1100 2375 
Q 750 2550 562 2812 
Q 375 3075 375 3400 
Q 375 3825 700 4125 
Q 1025 4425 1600 4425 
Q 2125 4425 2450 4125 
Q 2775 3825 2775 3400 
Q 2775 3100 2587 2837 
Q 2400 2575 2000 2375 
Q 2425 2125 2625 1825 
Q 2825 1525 2825 1175 
z
M 2425 3375 
Q 2425 3725 2225 3987 
Q 2025 4250 1600 4250 
Q 1125 4250 925 4000 
Q 725 3750 725 3475 
Q 725 3200 1012 2937 
Q 1300 2675 1825 2475 
Q 2125 2625 2275 2850 
Q 2425 3075 2425 3375 
z
" transform="scale(0.015625)"/>
       </defs>
       <use xlink:href="#SimSun-38"/>
       <use xlink:href="#SimSun-30" x="50"/>
      </g>
     </g>
    </g>
    <g id="xtick_10">
     <g id="line2d_10">
      <g>
       <use xlink:href="#md14a862286" x="758.016" y="461.376" style="stroke: #000000; stroke-width: 0.8"/>
      </g>
     </g>
     <g id="text_10">
      <!-- 90 -->
      <g transform="translate(748.516 481.958031) scale(0.19 -0.19)">
       <defs>
        <path id="SimSun-39" d="M 700 3050 
Q 700 2500 912 2212 
Q 1125 1925 1450 1925 
Q 1825 1925 2100 2275 
Q 2375 2625 2375 2925 
Q 2375 3525 2175 3887 
Q 1975 4250 1525 4250 
Q 1100 4250 900 3912 
Q 700 3575 700 3050 
z
M 1375 1700 
Q 875 1700 575 2012 
Q 275 2325 275 3025 
Q 275 3625 600 4025 
Q 925 4425 1525 4425 
Q 2150 4425 2500 3925 
Q 2850 3425 2850 2475 
Q 2850 1425 2437 737 
Q 2025 50 1300 50 
Q 975 50 737 200 
Q 500 350 500 600 
Q 500 700 562 800 
Q 625 900 775 900 
Q 925 900 975 787 
Q 1025 675 1025 525 
Q 1025 425 1050 362 
Q 1075 300 1100 275 
Q 1125 250 1187 237 
Q 1250 225 1325 225 
Q 1775 225 2050 725 
Q 2325 1225 2375 2400 
Q 2250 2100 2000 1900 
Q 1750 1700 1375 1700 
z
" transform="scale(0.015625)"/>
       </defs>
       <use xlink:href="#SimSun-39"/>
       <use xlink:href="#SimSun-30" x="50"/>
      </g>
     </g>
    </g>
    <g id="xtick_11">
     <g id="line2d_11">
      <g>
       <use xlink:href="#md14a862286" x="829.44" y="461.376" style="stroke: #000000; stroke-width: 0.8"/>
      </g>
     </g>
     <g id="text_11">
      <!-- 100 -->
      <g transform="translate(815.19 481.958031) scale(0.19 -0.19)">
       <use xlink:href="#SimSun-31"/>
       <use xlink:href="#SimSun-30" x="50"/>
       <use xlink:href="#SimSun-30" x="100"/>
      </g>
     </g>
    </g>
    <g id="text_12">
     <!-- 索引装载率 $\mathrm{(\%)}$ -->
     <g transform="translate(406.58 504.17725) scale(0.19 -0.19)">
      <defs>
       <path id="SimSun-7d22" d="M 4725 1325 
Q 4375 1250 3450 1150 
L 3450 -50 
Q 3475 -500 2875 -625 
Q 2875 -325 2200 -125 
L 2200 -25 
Q 2850 -75 2987 -75 
Q 3125 -75 3100 175 
L 3100 1100 
Q 2400 1025 2050 925 
Q 1700 825 1475 700 
L 1225 1175 
Q 1525 1250 2050 1525 
Q 2575 1800 3225 2200 
Q 2900 2200 2437 2150 
Q 1975 2100 1650 1950 
L 1425 2375 
Q 1775 2425 2212 2737 
Q 2650 3050 2875 3375 
L 1000 3375 
Q 1050 3000 975 2850 
Q 900 2700 800 2675 
Q 700 2650 625 2650 
Q 525 2650 462 2675 
Q 400 2700 400 2725 
Q 400 2800 550 2975 
Q 750 3225 875 3800 
L 975 3800 
L 1000 3525 
L 3025 3525 
L 3025 4250 
L 1575 4250 
Q 1375 4250 1100 4175 
L 875 4400 
L 3025 4400 
L 3025 4775 
Q 3025 5025 3000 5275 
L 3625 5050 
L 3375 4900 
L 3375 4400 
L 4725 4400 
L 5125 4750 
L 5575 4250 
L 3375 4250 
L 3375 3525 
L 5300 3525 
L 5500 3750 
L 5950 3325 
Q 5600 3300 5050 2675 
L 4975 2725 
L 5325 3375 
L 2925 3375 
L 3325 3100 
Q 3100 3075 2675 2800 
Q 2250 2500 1925 2350 
L 3425 2375 
Q 3775 2625 4050 3000 
L 4475 2625 
Q 4250 2600 3850 2325 
Q 3425 2050 2975 1787 
Q 2525 1525 2025 1250 
L 4625 1450 
Q 4275 1825 3950 2050 
L 4000 2125 
Q 4700 1850 4962 1662 
Q 5225 1475 5275 1312 
Q 5325 1150 5212 937 
Q 5100 725 4987 925 
Q 4875 1125 4725 1325 
z
M 3925 725 
Q 5025 375 5312 212 
Q 5600 50 5612 -150 
Q 5625 -350 5562 -425 
Q 5500 -500 5475 -500 
Q 5375 -500 5200 -275 
Q 4925 50 3900 650 
L 3925 725 
z
M 2150 750 
L 2575 350 
Q 2275 350 1775 75 
Q 1275 -225 425 -525 
L 375 -450 
Q 1600 150 2150 750 
z
" transform="scale(0.015625)"/>
       <path id="SimSun-5f15" d="M 5075 4675 
L 5075 575 
Q 5075 100 5100 -425 
L 4700 -600 
Q 4725 175 4725 725 
Q 4725 4575 4700 5150 
L 5300 4850 
L 5075 4675 
z
M 3375 4475 
Q 3375 3475 3400 3125 
L 3025 3000 
L 3025 3250 
L 1525 3250 
L 1275 2150 
L 3125 2150 
L 3325 2400 
L 3750 2050 
L 3500 1900 
Q 3375 1125 3225 575 
Q 3075 25 2850 -187 
Q 2625 -400 2250 -475 
Q 2275 -125 1600 125 
L 1600 225 
Q 2125 125 2350 112 
Q 2575 100 2675 225 
Q 2775 350 2900 787 
Q 3025 1225 3150 2000 
L 1275 2000 
L 1100 1775 
L 725 2125 
Q 925 2200 1025 2575 
Q 1125 2950 1200 3675 
L 1575 3400 
L 3025 3400 
L 3025 4550 
L 1650 4550 
Q 1325 4550 1050 4475 
L 825 4700 
L 3000 4700 
L 3175 4950 
L 3575 4650 
L 3375 4475 
z
" transform="scale(0.015625)"/>
       <path id="SimSun-88c5" d="M 700 4725 
Q 1375 4450 1462 4325 
Q 1550 4200 1550 4125 
Q 1550 4025 1475 3887 
Q 1400 3750 1350 3750 
Q 1275 3750 1200 3925 
Q 1075 4225 650 4675 
L 700 4725 
z
M 2250 4775 
L 2250 2200 
L 1900 1975 
Q 1925 2600 1925 3475 
Q 1400 3150 1062 2887 
Q 725 2625 700 2475 
L 350 2900 
Q 775 3025 1925 3625 
Q 1925 4900 1900 5250 
L 2475 4925 
L 2250 4775 
z
M 2375 4000 
L 3900 4000 
Q 3900 4850 3875 5175 
L 4450 4925 
L 4225 4750 
L 4225 4000 
L 5125 4000 
L 5475 4350 
L 5950 3850 
L 4225 3850 
L 4225 2800 
L 4900 2800 
L 5250 3100 
L 5700 2650 
L 3475 2650 
Q 3150 2650 2875 2575 
L 2650 2800 
L 3900 2800 
L 3900 3850 
L 3200 3850 
Q 2875 3850 2600 3775 
L 2375 4000 
z
M 3125 1800 
Q 3125 2100 2650 2525 
L 2700 2575 
Q 3300 2375 3387 2250 
Q 3475 2125 3475 2050 
Q 3475 1950 3350 1800 
L 5050 1800 
L 5475 2175 
L 6000 1650 
L 3325 1650 
Q 3600 1225 4150 675 
Q 4775 1225 5000 1625 
L 5425 1200 
Q 5225 1175 4987 1050 
Q 4750 925 4250 600 
Q 4550 350 5037 162 
Q 5525 -25 6100 -75 
L 6100 -175 
Q 5675 -250 5550 -550 
Q 4825 -250 4262 212 
Q 3700 675 3175 1650 
Q 2825 1325 2450 1025 
L 2450 -25 
L 3750 375 
L 3800 300 
Q 2450 -300 2300 -625 
L 2000 -200 
Q 2150 -75 2125 75 
L 2125 800 
Q 1325 300 275 0 
L 250 75 
Q 1725 700 2725 1650 
L 1200 1650 
Q 875 1650 600 1575 
L 375 1800 
L 3125 1800 
z
" transform="scale(0.015625)"/>
       <path id="SimSun-8f7d" d="M 1850 5200 
L 2375 5000 
L 2200 4825 
L 2200 4325 
L 2675 4325 
L 2975 4600 
L 3400 4175 
L 2200 4175 
L 2200 3525 
L 3700 3525 
Q 3675 4525 3650 5200 
L 4200 4950 
L 4000 4775 
Q 4000 3950 4025 3525 
L 5250 3525 
L 5625 3850 
L 6100 3375 
L 4050 3375 
Q 4125 2300 4425 1400 
Q 4925 2200 5175 3075 
L 5650 2750 
L 5450 2575 
Q 5075 1775 4575 1050 
Q 4950 350 5650 -50 
L 5875 1050 
L 5975 1025 
Q 5925 350 5950 25 
Q 5975 -300 6075 -500 
Q 6125 -625 6025 -625 
Q 5975 -625 5775 -562 
Q 5575 -500 5125 -150 
Q 4675 200 4350 775 
Q 3575 -125 2625 -600 
L 2575 -525 
Q 3575 175 4175 1075 
Q 3825 1950 3725 3375 
L 1100 3375 
Q 775 3375 500 3300 
L 275 3525 
L 1875 3525 
L 1875 4175 
L 1525 4175 
Q 1200 4175 925 4100 
L 700 4325 
L 1875 4325 
Q 1875 4800 1850 5200 
z
M 4500 4850 
Q 5000 4650 5212 4512 
Q 5425 4375 5400 4187 
Q 5375 4000 5300 3925 
Q 5225 3850 5200 3850 
Q 5125 3850 5025 4050 
Q 4900 4325 4450 4775 
L 4500 4850 
z
M 500 525 
Q 850 550 1975 725 
L 1975 1400 
L 1150 1400 
L 975 1250 
L 700 1575 
Q 900 1575 1350 2450 
L 1150 2450 
Q 850 2450 575 2375 
L 350 2600 
L 1425 2600 
Q 1625 3025 1700 3300 
L 2150 3025 
L 1975 2950 
Q 1900 2850 1775 2600 
L 2700 2600 
L 3025 2900 
L 3425 2450 
L 1700 2450 
L 1175 1550 
L 1975 1550 
Q 1975 1925 1950 2300 
L 2450 2075 
L 2300 1900 
L 2300 1550 
L 2800 1550 
L 3075 1850 
L 3475 1400 
L 2300 1400 
L 2300 775 
L 3400 925 
L 3425 850 
L 2300 575 
Q 2300 -50 2325 -400 
L 1950 -550 
Q 1975 225 1975 500 
Q 850 275 725 100 
L 500 525 
z
" transform="scale(0.015625)"/>
       <path id="SimSun-7387" d="M 875 3725 
L 925 3800 
Q 1375 3650 1550 3525 
Q 1725 3400 1725 3250 
Q 1725 3175 1662 3025 
Q 1600 2875 1550 2875 
Q 1500 2875 1425 3050 
Q 1275 3325 875 3725 
z
M 550 1850 
Q 875 1925 2000 2575 
L 2050 2500 
Q 1675 2225 1337 1937 
Q 1000 1650 875 1425 
L 550 1850 
z
M 5200 3450 
Q 4800 3150 4275 2800 
L 4225 2875 
Q 4775 3400 5050 3925 
L 5450 3525 
L 5200 3450 
z
M 4325 2500 
L 4350 2575 
Q 5225 2350 5375 2212 
Q 5525 2075 5525 1900 
Q 5525 1775 5487 1662 
Q 5450 1550 5400 1550 
Q 5325 1550 5200 1800 
Q 4975 2150 4325 2500 
z
M 3150 3900 
Q 2500 3300 2300 3150 
Q 2800 3150 3400 3175 
Q 3700 3500 3850 3825 
L 4250 3450 
Q 4050 3400 3450 2825 
Q 2850 2250 2475 1950 
Q 3150 1975 3850 2000 
Q 3750 2175 3550 2450 
L 3600 2500 
Q 4050 2250 4200 2100 
Q 4350 1950 4350 1850 
Q 4350 1775 4250 1625 
Q 4150 1475 4100 1475 
Q 4075 1475 4050 1550 
Q 4000 1700 3900 1900 
Q 3650 1875 3075 1800 
L 3500 1550 
L 3325 1425 
L 3325 975 
L 5325 975 
L 5650 1300 
L 6100 825 
L 3325 825 
Q 3325 -275 3350 -525 
L 2975 -650 
Q 3000 0 3000 825 
L 1125 825 
Q 800 825 525 750 
L 300 975 
L 3000 975 
L 3000 1775 
Q 2450 1700 2200 1525 
L 1950 1950 
Q 2275 1950 2675 2350 
Q 3075 2750 3325 3050 
Q 2400 2950 2150 2775 
L 1950 3175 
Q 2150 3150 2475 3575 
Q 2800 4000 2900 4225 
L 1450 4225 
Q 1125 4225 850 4150 
L 625 4375 
L 3100 4375 
Q 3050 4800 2675 5200 
L 2725 5250 
Q 3225 5050 3337 4912 
Q 3450 4775 3450 4700 
Q 3450 4550 3250 4375 
L 5025 4375 
L 5350 4675 
L 5775 4225 
L 3050 4225 
L 3375 3950 
L 3150 3900 
z
" transform="scale(0.015625)"/>
       <path id="SimSun-20" d="M 0 0 
Q 0 0 0 0 
z
" transform="scale(0.015625)"/>
       <path id="STIXGeneral-Regular-28" d="M 1946 -1030 
L 1869 -1133 
Q 1126 -710 716 32 
Q 307 774 307 1613 
Q 307 3386 1888 4326 
L 1946 4224 
Q 1293 3667 1075 3126 
Q 858 2586 858 1632 
Q 858 685 1082 96 
Q 1306 -493 1946 -1030 
z
" transform="scale(0.015625)"/>
       <path id="STIXGeneral-Regular-25" d="M 4390 1363 
Q 4390 781 4070 329 
Q 3750 -122 3341 -122 
Q 3014 -122 2790 134 
Q 2566 390 2566 762 
Q 2566 1274 2940 1693 
Q 3315 2112 3776 2112 
Q 4070 2112 4230 1917 
Q 4390 1722 4390 1363 
z
M 4243 1376 
Q 4243 1626 4131 1779 
Q 4019 1933 3840 1933 
Q 3654 1933 3526 1786 
Q 3315 1562 3171 1187 
Q 3027 813 3027 486 
Q 3027 301 3129 176 
Q 3232 51 3386 51 
Q 3718 51 3980 457 
Q 4243 864 4243 1376 
z
M 3974 4518 
L 1222 -115 
L 922 -115 
L 3443 4096 
Q 3264 3891 3094 3811 
Q 2925 3731 2669 3731 
Q 2445 3731 2182 3821 
Q 2208 3674 2208 3539 
Q 2208 3206 2067 2873 
Q 1926 2541 1696 2323 
Q 1453 2086 1146 2086 
Q 826 2086 608 2339 
Q 390 2592 390 2963 
Q 390 3507 761 3916 
Q 1133 4326 1626 4326 
Q 1792 4326 2010 4147 
Q 2310 3898 2624 3898 
Q 2918 3898 3084 3994 
Q 3251 4090 3693 4518 
L 3974 4518 
z
M 2054 3642 
Q 2054 3782 2025 3833 
Q 1997 3885 1894 3936 
Q 1747 4006 1613 4154 
Q 1414 4058 1331 3984 
Q 1248 3910 1152 3750 
Q 845 3264 845 2707 
Q 845 2509 944 2384 
Q 1043 2259 1210 2259 
Q 1549 2259 1801 2675 
Q 2054 3091 2054 3642 
z
" transform="scale(0.015625)"/>
       <path id="STIXGeneral-Regular-29" d="M 186 4224 
L 262 4326 
Q 992 3891 1408 3148 
Q 1824 2406 1824 1581 
Q 1824 -166 243 -1133 
L 186 -1030 
Q 845 -486 1059 54 
Q 1274 595 1274 1562 
Q 1274 2534 1059 3120 
Q 845 3706 186 4224 
z
" transform="scale(0.015625)"/>
      </defs>
      <use xlink:href="#SimSun-7d22" transform="translate(0 0.578125)"/>
      <use xlink:href="#SimSun-5f15" transform="translate(100 0.578125)"/>
      <use xlink:href="#SimSun-88c5" transform="translate(200 0.578125)"/>
      <use xlink:href="#SimSun-8f7d" transform="translate(300 0.578125)"/>
      <use xlink:href="#SimSun-7387" transform="translate(400 0.578125)"/>
      <use xlink:href="#SimSun-20" transform="translate(500 0.578125)"/>
      <use xlink:href="#STIXGeneral-Regular-28" transform="translate(550 0.578125)"/>
      <use xlink:href="#STIXGeneral-Regular-25" transform="translate(583.299988 0.578125)"/>
      <use xlink:href="#STIXGeneral-Regular-29" transform="translate(657.999969 0.578125)"/>
     </g>
    </g>
   </g>
   <g id="matplotlib.axis_2">
    <g id="ytick_1">
     <g id="line2d_12">
      <defs>
       <path id="m8bac7634bc" d="M 0 0 
L -3.5 0 
" style="stroke: #000000; stroke-width: 0.8"/>
      </defs>
      <g>
       <use xlink:href="#m8bac7634bc" x="115.2" y="461.376" style="stroke: #000000; stroke-width: 0.8"/>
      </g>
     </g>
     <g id="text_13">
      <!-- 0 -->
      <g transform="translate(98.7 468.167016) scale(0.19 -0.19)">
       <use xlink:href="#SimSun-30"/>
      </g>
     </g>
    </g>
    <g id="ytick_2">
     <g id="line2d_13">
      <g>
       <use xlink:href="#m8bac7634bc" x="115.2" y="428.112" style="stroke: #000000; stroke-width: 0.8"/>
      </g>
     </g>
     <g id="text_14">
      <!-- 0.5 -->
      <g transform="translate(79.7 434.903016) scale(0.19 -0.19)">
       <defs>
        <path id="SimSun-2e" d="M 800 25 
Q 650 25 537 125 
Q 425 225 425 400 
Q 425 575 537 675 
Q 650 775 800 775 
Q 950 775 1062 662 
Q 1175 550 1175 400 
Q 1175 225 1062 125 
Q 950 25 800 25 
z
" transform="scale(0.015625)"/>
       </defs>
       <use xlink:href="#SimSun-30"/>
       <use xlink:href="#SimSun-2e" x="50"/>
       <use xlink:href="#SimSun-35" x="100"/>
      </g>
     </g>
    </g>
    <g id="ytick_3">
     <g id="line2d_14">
      <g>
       <use xlink:href="#m8bac7634bc" x="115.2" y="394.848" style="stroke: #000000; stroke-width: 0.8"/>
      </g>
     </g>
     <g id="text_15">
      <!-- 1.0 -->
      <g transform="translate(79.7 401.639016) scale(0.19 -0.19)">
       <use xlink:href="#SimSun-31"/>
       <use xlink:href="#SimSun-2e" x="50"/>
       <use xlink:href="#SimSun-30" x="100"/>
      </g>
     </g>
    </g>
    <g id="ytick_4">
     <g id="line2d_15">
      <g>
       <use xlink:href="#m8bac7634bc" x="115.2" y="361.584" style="stroke: #000000; stroke-width: 0.8"/>
      </g>
     </g>
     <g id="text_16">
      <!-- 1.5 -->
      <g transform="translate(79.7 368.375016) scale(0.19 -0.19)">
       <use xlink:href="#SimSun-31"/>
       <use xlink:href="#SimSun-2e" x="50"/>
       <use xlink:href="#SimSun-35" x="100"/>
      </g>
     </g>
    </g>
    <g id="ytick_5">
     <g id="line2d_16">
      <g>
       <use xlink:href="#m8bac7634bc" x="115.2" y="328.32" style="stroke: #000000; stroke-width: 0.8"/>
      </g>
     </g>
     <g id="text_17">
      <!-- 2.0 -->
      <g transform="translate(79.7 335.111016) scale(0.19 -0.19)">
       <use xlink:href="#SimSun-32"/>
       <use xlink:href="#SimSun-2e" x="50"/>
       <use xlink:href="#SimSun-30" x="100"/>
      </g>
     </g>
    </g>
    <g id="ytick_6">
     <g id="line2d_17">
      <g>
       <use xlink:href="#m8bac7634bc" x="115.2" y="295.056" style="stroke: #000000; stroke-width: 0.8"/>
      </g>
     </g>
     <g id="text_18">
      <!-- 2.5 -->
      <g transform="translate(79.7 301.847016) scale(0.19 -0.19)">
       <use xlink:href="#SimSun-32"/>
       <use xlink:href="#SimSun-2e" x="50"/>
       <use xlink:href="#SimSun-35" x="100"/>
      </g>
     </g>
    </g>
    <g id="ytick_7">
     <g id="line2d_18">
      <g>
       <use xlink:href="#m8bac7634bc" x="115.2" y="261.792" style="stroke: #000000; stroke-width: 0.8"/>
      </g>
     </g>
     <g id="text_19">
      <!-- 3.0 -->
      <g transform="translate(79.7 268.583016) scale(0.19 -0.19)">
       <use xlink:href="#SimSun-33"/>
       <use xlink:href="#SimSun-2e" x="50"/>
       <use xlink:href="#SimSun-30" x="100"/>
      </g>
     </g>
    </g>
    <g id="ytick_8">
     <g id="line2d_19">
      <g>
       <use xlink:href="#m8bac7634bc" x="115.2" y="228.528" style="stroke: #000000; stroke-width: 0.8"/>
      </g>
     </g>
     <g id="text_20">
      <!-- 3.5 -->
      <g transform="translate(79.7 235.319016) scale(0.19 -0.19)">
       <use xlink:href="#SimSun-33"/>
       <use xlink:href="#SimSun-2e" x="50"/>
       <use xlink:href="#SimSun-35" x="100"/>
      </g>
     </g>
    </g>
    <g id="ytick_9">
     <g id="line2d_20">
      <g>
       <use xlink:href="#m8bac7634bc" x="115.2" y="195.264" style="stroke: #000000; stroke-width: 0.8"/>
      </g>
     </g>
     <g id="text_21">
      <!-- 4.0 -->
      <g transform="translate(79.7 202.055016) scale(0.19 -0.19)">
       <use xlink:href="#SimSun-34"/>
       <use xlink:href="#SimSun-2e" x="50"/>
       <use xlink:href="#SimSun-30" x="100"/>
      </g>
     </g>
    </g>
    <g id="ytick_10">
     <g id="line2d_21">
      <g>
       <use xlink:href="#m8bac7634bc" x="115.2" y="162" style="stroke: #000000; stroke-width: 0.8"/>
      </g>
     </g>
     <g id="text_22">
      <!-- 4.5 -->
      <g transform="translate(79.7 168.791016) scale(0.19 -0.19)">
       <use xlink:href="#SimSun-34"/>
       <use xlink:href="#SimSun-2e" x="50"/>
       <use xlink:href="#SimSun-35" x="100"/>
      </g>
     </g>
    </g>
    <g id="ytick_11">
     <g id="line2d_22">
      <g>
       <use xlink:href="#m8bac7634bc" x="115.2" y="128.736" style="stroke: #000000; stroke-width: 0.8"/>
      </g>
     </g>
     <g id="text_23">
      <!-- 5.0 -->
      <g transform="translate(79.7 135.527016) scale(0.19 -0.19)">
       <use xlink:href="#SimSun-35"/>
       <use xlink:href="#SimSun-2e" x="50"/>
       <use xlink:href="#SimSun-30" x="100"/>
      </g>
     </g>
    </g>
    <g id="ytick_12">
     <g id="line2d_23">
      <g>
       <use xlink:href="#m8bac7634bc" x="115.2" y="95.472" style="stroke: #000000; stroke-width: 0.8"/>
      </g>
     </g>
     <g id="text_24">
      <!-- 5.5 -->
      <g transform="translate(79.7 102.263016) scale(0.19 -0.19)">
       <use xlink:href="#SimSun-35"/>
       <use xlink:href="#SimSun-2e" x="50"/>
       <use xlink:href="#SimSun-35" x="100"/>
      </g>
     </g>
    </g>
    <g id="ytick_13">
     <g id="line2d_24">
      <g>
       <use xlink:href="#m8bac7634bc" x="115.2" y="62.208" style="stroke: #000000; stroke-width: 0.8"/>
      </g>
     </g>
     <g id="text_25">
      <!-- 6.0 -->
      <g transform="translate(79.7 68.999016) scale(0.19 -0.19)">
       <use xlink:href="#SimSun-36"/>
       <use xlink:href="#SimSun-2e" x="50"/>
       <use xlink:href="#SimSun-30" x="100"/>
      </g>
     </g>
    </g>
    <g id="text_26">
     <!-- 吞吐量 $\mathrm{(Mops)}$ -->
     <g transform="translate(71.52 323.067) rotate(-90) scale(0.19 -0.19)">
      <defs>
       <path id="SimSun-541e" d="M 2200 1700 
L 2200 75 
L 4200 75 
L 4200 1700 
L 2200 1700 
z
M 1025 4675 
L 4550 4675 
L 4875 5000 
L 5350 4525 
L 3300 4525 
Q 3150 4025 2900 3375 
L 5075 3375 
L 5450 3750 
L 5975 3225 
L 3700 3225 
Q 3925 2925 4312 2587 
Q 4700 2250 5225 2037 
Q 5750 1825 6100 1800 
L 6100 1700 
Q 5700 1675 5575 1375 
Q 4600 1900 4137 2437 
Q 3675 2975 3575 3225 
L 2825 3225 
Q 2425 2575 1950 2075 
L 2200 1850 
L 4175 1850 
L 4325 2100 
L 4750 1775 
L 4550 1600 
L 4550 375 
Q 4550 -50 4575 -375 
L 4200 -500 
L 4200 -75 
L 2200 -75 
L 2200 -450 
L 1825 -575 
Q 1850 175 1850 625 
L 1850 2000 
Q 1175 1400 375 1075 
L 325 1150 
Q 1075 1575 1600 2100 
Q 2125 2625 2450 3225 
L 1225 3225 
Q 900 3225 625 3150 
L 400 3375 
L 2525 3375 
Q 2800 4025 2900 4525 
L 1850 4525 
Q 1525 4525 1250 4450 
L 1025 4675 
z
" transform="scale(0.015625)"/>
       <path id="SimSun-5410" d="M 3775 3000 
L 3775 3750 
Q 3775 4400 3750 5175 
L 4350 4900 
L 4125 4700 
L 4125 3000 
L 4925 3000 
L 5250 3325 
L 5725 2850 
L 4125 2850 
L 4125 75 
L 5225 75 
L 5575 425 
L 6075 -75 
L 2675 -75 
Q 2350 -75 2075 -150 
L 1850 75 
L 3775 75 
L 3775 2850 
L 3225 2850 
Q 2900 2850 2625 2775 
L 2400 3000 
L 3775 3000 
z
M 575 4250 
L 950 4025 
L 1875 4025 
L 2050 4275 
L 2450 3950 
L 2250 3800 
L 2250 1950 
Q 2250 1375 2275 950 
L 1900 775 
L 1900 1225 
L 950 1225 
L 950 600 
L 575 425 
Q 600 1075 600 2375 
Q 600 3675 575 4250 
z
M 950 3875 
L 950 1375 
L 1900 1375 
L 1900 3875 
L 950 3875 
z
" transform="scale(0.015625)"/>
       <path id="SimSun-91cf" d="M 1700 2400 
L 1700 1875 
L 3025 1875 
L 3025 2400 
L 1700 2400 
z
M 3350 2400 
L 3350 1875 
L 4625 1875 
L 4625 2400 
L 3350 2400 
z
M 1700 1725 
L 1700 1225 
L 3025 1225 
L 3025 1725 
L 1700 1725 
z
M 3350 1725 
L 3350 1225 
L 4625 1225 
L 4625 1725 
L 3350 1725 
z
M 4950 2325 
Q 4950 1350 4975 1025 
L 4625 875 
L 4625 1075 
L 3350 1075 
L 3350 525 
L 4700 525 
L 5050 825 
L 5450 375 
L 3350 375 
L 3350 -225 
L 5275 -225 
L 5650 125 
L 6075 -375 
L 1175 -375 
Q 850 -375 575 -450 
L 350 -225 
L 3025 -225 
L 3025 375 
L 1725 375 
Q 1400 375 1125 300 
L 900 525 
L 3025 525 
L 3025 1075 
L 1700 1075 
L 1700 925 
L 1350 800 
Q 1375 1300 1375 1787 
Q 1375 2275 1350 2750 
L 1700 2550 
L 4600 2550 
L 4750 2750 
L 5125 2475 
L 4950 2325 
z
M 1775 4800 
L 1775 4375 
L 4550 4375 
L 4550 4800 
L 1775 4800 
z
M 1775 4225 
L 1775 3775 
L 4550 3775 
L 4550 4225 
L 1775 4225 
z
M 4875 4750 
Q 4875 3825 4900 3525 
L 4550 3375 
L 4550 3625 
L 1775 3625 
L 1775 3400 
L 1425 3250 
Q 1450 3650 1450 4262 
Q 1450 4875 1425 5125 
L 1800 4950 
L 4500 4950 
L 4650 5175 
L 5050 4900 
L 4875 4750 
z
M 250 3125 
L 5375 3125 
L 5725 3450 
L 6150 2975 
L 950 2975 
Q 750 2975 475 2900 
L 250 3125 
z
" transform="scale(0.015625)"/>
       <path id="STIXGeneral-Regular-4d" d="M 5530 0 
L 3738 0 
L 3738 122 
Q 4115 147 4214 265 
Q 4314 384 4314 787 
L 4314 3661 
L 2682 0 
L 2592 0 
L 979 3514 
L 979 966 
Q 979 448 1088 294 
Q 1197 141 1574 122 
L 1574 0 
L 77 0 
L 77 122 
Q 358 141 480 205 
Q 602 269 650 432 
Q 698 595 698 966 
L 698 3514 
Q 698 3878 589 3984 
Q 480 4090 90 4115 
L 90 4237 
L 1357 4237 
L 2835 1024 
L 4250 4237 
L 5523 4237 
L 5523 4115 
Q 5178 4109 5072 3993 
Q 4966 3878 4966 3520 
L 4966 717 
Q 4966 378 5072 262 
Q 5178 147 5530 122 
L 5530 0 
z
" transform="scale(0.015625)"/>
       <path id="STIXGeneral-Regular-6f" d="M 3008 1478 
Q 3008 806 2608 371 
Q 2208 -64 1568 -64 
Q 979 -64 582 368 
Q 186 800 186 1459 
Q 186 2125 582 2534 
Q 979 2944 1626 2944 
Q 2221 2944 2614 2537 
Q 3008 2131 3008 1478 
z
M 2432 1306 
Q 2432 2035 2112 2445 
Q 1856 2765 1504 2765 
Q 1171 2765 966 2493 
Q 762 2221 762 1747 
Q 762 928 1101 435 
Q 1318 115 1677 115 
Q 2029 115 2230 432 
Q 2432 749 2432 1306 
z
" transform="scale(0.015625)"/>
       <path id="STIXGeneral-Regular-70" d="M 1018 2931 
L 1018 2438 
Q 1421 2944 1939 2944 
Q 2406 2944 2707 2560 
Q 3008 2176 3008 1581 
Q 3008 883 2621 409 
Q 2234 -64 1664 -64 
Q 1466 -64 1328 -6 
Q 1190 51 1018 211 
L 1018 -794 
Q 1018 -1094 1120 -1180 
Q 1222 -1267 1581 -1274 
L 1581 -1389 
L 32 -1389 
L 32 -1280 
Q 314 -1254 397 -1171 
Q 480 -1088 480 -838 
L 480 2157 
Q 480 2381 429 2451 
Q 378 2522 218 2522 
Q 115 2522 58 2515 
L 58 2618 
Q 506 2752 979 2944 
L 1018 2931 
z
M 1018 2138 
L 1018 563 
Q 1018 422 1238 281 
Q 1459 141 1683 141 
Q 2029 141 2243 467 
Q 2458 794 2458 1325 
Q 2458 1888 2243 2224 
Q 2029 2560 1670 2560 
Q 1446 2560 1232 2419 
Q 1018 2278 1018 2138 
z
" transform="scale(0.015625)"/>
       <path id="STIXGeneral-Regular-73" d="M 998 1926 
L 1664 1523 
Q 1984 1331 2105 1164 
Q 2227 998 2227 736 
Q 2227 416 1961 176 
Q 1696 -64 1331 -64 
Q 1030 -64 864 -6 
Q 691 51 570 51 
Q 461 51 416 -26 
L 333 -26 
L 333 979 
L 435 979 
Q 538 512 730 294 
Q 922 77 1248 77 
Q 1485 77 1632 211 
Q 1779 346 1779 550 
Q 1779 845 1440 1030 
L 1094 1222 
Q 326 1651 326 2150 
Q 326 2522 566 2730 
Q 806 2938 1210 2938 
Q 1491 2938 1638 2867 
Q 1754 2816 1818 2816 
Q 1862 2816 1920 2880 
L 1990 2880 
L 2022 2010 
L 1926 2010 
Q 1818 2445 1654 2621 
Q 1491 2797 1203 2797 
Q 986 2797 854 2688 
Q 723 2579 723 2362 
Q 723 2253 796 2128 
Q 870 2003 998 1926 
z
" transform="scale(0.015625)"/>
      </defs>
      <use xlink:href="#SimSun-541e" transform="translate(0 0.140625)"/>
      <use xlink:href="#SimSun-5410" transform="translate(100 0.140625)"/>
      <use xlink:href="#SimSun-91cf" transform="translate(200 0.140625)"/>
      <use xlink:href="#SimSun-20" transform="translate(300 0.140625)"/>
      <use xlink:href="#STIXGeneral-Regular-28" transform="translate(350 0.140625)"/>
      <use xlink:href="#STIXGeneral-Regular-4d" transform="translate(383.299988 0.140625)"/>
      <use xlink:href="#STIXGeneral-Regular-6f" transform="translate(472.199982 0.140625)"/>
      <use xlink:href="#STIXGeneral-Regular-70" transform="translate(522.199966 0.140625)"/>
      <use xlink:href="#STIXGeneral-Regular-73" transform="translate(572.199951 0.140625)"/>
      <use xlink:href="#STIXGeneral-Regular-29" transform="translate(611.099945 0.140625)"/>
     </g>
    </g>
   </g>
   <g id="line2d_25">
    <path d="M 115.453555 455.834324 
L 115.775677 454.339786 
L 116.057802 455.230589 
L 116.927032 442.386194 
L 117.62913 446.036153 
L 118.486932 442.624445 
L 119.375447 441.947389 
L 122.033848 442.0126 
L 122.922363 441.954208 
L 123.806592 442.041313 
L 124.693678 441.986022 
L 125.577907 442.053967 
L 126.465708 441.96766 
L 127.348508 442.079514 
L 128.237737 441.945194 
L 130.009766 441.996693 
L 136.214369 442.010278 
L 138.875628 441.967986 
L 139.760571 442.03321 
L 140.648371 441.970767 
L 141.531172 442.075835 
L 142.418972 441.971911 
L 145.076659 441.997372 
L 147.737203 441.98521 
L 150.392748 442.063387 
L 153.938235 442.027801 
L 166.35244 441.965352 
L 167.237384 442.039763 
L 168.126612 441.945094 
L 169.009413 442.066361 
L 169.898642 441.940024 
L 170.780728 442.107555 
L 171.673528 441.855674 
L 172.555615 442.093458 
L 174.330501 441.964826 
L 176.103245 442.004118 
L 176.991759 441.958865 
L 177.87456 442.070852 
L 178.764503 441.920425 
L 179.649446 442.041453 
L 180.537247 441.956231 
L 181.42219 442.045857 
L 185.853335 441.987086 
L 187.623222 442.02675 
L 190.28448 441.995409 
L 191.169423 442.02538 
L 192.059366 441.929493 
L 192.94431 442.03029 
L 200.03957 441.977905 
L 200.923799 442.042045 
L 202.698685 441.979323 
L 205.354944 442.068936 
L 206.244173 441.939552 
L 207.128402 442.061012 
L 208.018345 441.932347 
L 208.902574 442.043469 
L 211.563118 441.96285 
L 213.334433 442.021009 
L 215.110748 441.954241 
L 217.768435 442.079813 
L 218.658378 441.915269 
L 219.541179 442.08306 
L 220.431122 441.939086 
L 221.31678 442.011529 
L 222.20458 441.972437 
L 223.088809 442.049184 
L 223.977324 441.967986 
L 226.635011 441.991045 
L 228.409897 441.997458 
L 231.068298 442.004237 
L 231.957527 441.938235 
L 233.731699 441.967002 
L 236.3901 442.049363 
L 237.278615 441.940104 
L 238.161416 442.084796 
L 239.051359 441.938707 
L 239.936302 442.024508 
L 242.595418 441.995163 
L 243.478218 442.088475 
L 244.368876 441.902177 
L 245.253819 442.028487 
L 246.143762 441.940177 
L 247.027277 442.067539 
L 247.915077 441.962072 
L 248.80002 442.041832 
L 249.689249 441.935434 
L 250.575621 442.008389 
L 251.464136 441.957408 
L 253.236879 441.993513 
L 263.873341 441.974892 
L 264.756142 442.070759 
L 265.644657 441.965684 
L 266.530314 442.024089 
L 268.308058 441.95492 
L 269.191572 442.059402 
L 270.081516 441.927763 
L 272.742774 442.010404 
L 279.830177 442.06219 
L 280.717978 441.973674 
L 281.600064 442.08594 
L 282.49215 441.88285 
L 283.375665 442.106078 
L 284.262751 441.983321 
L 286.921866 442.043622 
L 287.808952 441.980467 
L 289.580268 442.007025 
L 291.355868 441.959757 
L 292.237955 442.099831 
L 293.126469 441.962531 
L 298.441843 442.036177 
L 300.217444 441.988962 
L 301.989473 441.990619 
L 306.424904 441.964201 
L 307.309847 442.033031 
L 308.198362 441.961426 
L 309.084019 442.035911 
L 309.97182 441.978584 
L 310.856049 442.053468 
L 311.744563 441.964187 
L 312.629507 442.039218 
L 313.518021 441.949338 
L 314.402964 442.039377 
L 315.292193 441.948014 
L 316.176422 442.059549 
L 317.064937 441.948966 
L 317.950595 442.034048 
L 318.839823 441.934835 
L 319.724767 442.041486 
L 320.613281 441.96299 
L 321.498225 442.045405 
L 322.386025 441.968492 
L 323.268826 442.095154 
L 324.159483 441.912189 
L 325.04514 442.021022 
L 327.706399 441.978837 
L 330.365514 442.027948 
L 331.254743 441.945267 
L 332.139686 442.032485 
L 333.028201 441.964194 
L 333.91243 442.056588 
L 334.800945 441.947802 
L 336.57226 442.04593 
L 337.461489 441.938674 
L 338.346432 442.038952 
L 339.234947 441.953603 
L 340.119176 442.063627 
L 341.006262 441.982616 
L 344.548178 442.069934 
L 346.321636 441.976715 
L 347.205865 442.045265 
L 348.092951 441.99962 
L 348.976466 442.068324 
L 350.750638 441.987492 
L 351.639153 441.960675 
L 352.521953 442.08129 
L 353.413325 441.906654 
L 354.297554 442.044527 
L 355.186783 441.954122 
L 356.071726 442.046702 
L 356.959526 441.969809 
L 357.84447 442.041779 
L 360.505014 441.977606 
L 361.389243 442.064944 
L 362.277757 441.957202 
L 364.936873 442.052763 
L 365.824673 441.974346 
L 366.708902 442.056495 
L 369.369446 441.994318 
L 370.252961 442.05404 
L 372.028562 441.989814 
L 377.352507 441.967188 
L 378.236736 442.046882 
L 379.127393 441.918183 
L 380.901565 441.97732 
L 381.785795 442.047421 
L 383.560681 441.996893 
L 388.879626 442.032385 
L 389.768141 441.958453 
L 390.649513 442.12106 
L 391.54017 441.915782 
L 392.424399 442.053262 
L 393.312914 441.95345 
L 394.197857 442.047048 
L 395.970601 442.030749 
L 400.406746 441.926732 
L 402.179489 442.012028 
L 403.064433 442.040109 
L 403.953661 441.943624 
L 404.839319 442.013924 
L 406.614205 442.016359 
L 410.161836 441.97724 
L 411.046065 442.057247 
L 411.933151 441.992595 
L 412.816666 442.070439 
L 413.704466 441.9774 
L 414.588695 442.053634 
L 415.477924 441.92477 
L 416.362867 442.047707 
L 417.25281 441.924257 
L 419.027697 441.965651 
L 421.683241 442.048199 
L 423.458127 441.997465 
L 424.345928 441.975783 
L 425.229443 442.073307 
L 426.117957 441.963921 
L 427.0029 442.036823 
L 427.894272 441.904698 
L 428.778501 442.059875 
L 429.667016 441.943517 
L 430.550531 442.070526 
L 431.439759 441.960974 
L 432.32256 442.087211 
L 433.212503 441.920765 
L 434.098161 442.027196 
L 438.532877 442.000971 
L 445.62528 442.042038 
L 446.513795 441.95641 
L 450.058568 442.027841 
L 451.834168 441.974792 
L 452.719112 442.045258 
L 453.60834 441.942639 
L 456.268884 442.035279 
L 458.929428 441.985277 
L 461.589258 442.041826 
L 463.365573 441.978039 
L 464.255516 441.92777 
L 465.136888 442.109159 
L 466.026831 441.926832 
L 466.912489 442.02671 
L 469.573747 441.954408 
L 470.457976 442.048878 
L 471.347205 441.941634 
L 473.117806 442.025114 
L 474.894121 441.973262 
L 475.777636 442.078017 
L 478.441037 441.979569 
L 479.324552 442.06374 
L 481.98581 441.957767 
L 483.757125 442.032917 
L 485.532012 441.989794 
L 492.626557 442.02234 
L 494.401444 442.009367 
L 498.83616 441.955519 
L 499.721103 442.0508 
L 500.610332 441.93906 
L 501.493847 442.069388 
L 502.384504 441.915336 
L 503.268733 442.054845 
L 505.930706 441.96468 
L 506.816364 442.040448 
L 507.705592 441.939792 
L 508.589107 442.069348 
L 509.483336 441.921244 
L 510.368993 442.028507 
L 511.258936 441.936765 
L 512.140308 442.11657 
L 513.030966 441.909222 
L 513.915195 442.06217 
L 514.802995 441.98038 
L 517.462111 442.005375 
L 528.985659 442.052437 
L 529.876316 441.919547 
L 530.759117 442.078689 
L 531.646917 441.98849 
L 534.306747 442.032924 
L 536.968719 441.957714 
L 537.852234 442.07032 
L 538.742892 441.913387 
L 539.627835 442.051718 
L 540.515635 441.974552 
L 543.174751 442.038113 
L 544.063265 441.968039 
L 546.721667 442.028507 
L 547.610895 441.958825 
L 549.381496 442.042358 
L 556.474614 441.974799 
L 558.245929 442.052071 
L 559.135872 441.920758 
L 560.020815 442.041386 
L 560.910044 441.948394 
L 561.794988 442.03965 
L 562.683502 441.959377 
L 563.56916 442.030815 
L 564.45696 441.969596 
L 566.230418 441.979442 
L 568.889533 441.978331 
L 579.528138 441.992395 
L 580.417367 441.952199 
L 581.30231 442.035279 
L 583.962854 441.975078 
L 585.733455 442.016618 
L 593.718659 441.994484 
L 599.923976 442.064412 
L 600.813204 441.94204 
L 601.699576 442.008249 
L 603.474463 442.00914 
L 605.245064 442.022293 
L 606.133578 441.955612 
L 607.01995 442.020018 
L 607.908465 441.94864 
L 608.79198 442.076367 
L 609.679066 441.989362 
L 610.564723 442.035485 
L 611.453952 441.937097 
L 612.336038 442.107369 
L 613.226696 441.925189 
L 614.998011 442.01711 
L 616.774326 441.963356 
L 617.659983 442.026058 
L 618.548498 441.954734 
L 619.434156 442.034128 
L 620.323384 441.946917 
L 621.209042 442.024189 
L 623.869586 441.965165 
L 625.643044 441.987645 
L 630.073475 442.03973 
L 630.963418 441.928888 
L 632.734733 442.048738 
L 633.623962 441.952126 
L 634.506762 442.091722 
L 635.394563 441.964074 
L 636.28022 442.040262 
L 638.940764 441.941155 
L 639.825708 442.030103 
L 642.486966 441.965278 
L 643.372623 442.032911 
L 644.261852 441.949245 
L 645.146796 442.031747 
L 646.03531 441.967913 
L 646.917396 442.09882 
L 647.80734 441.919474 
L 648.694426 442.004357 
L 649.585797 441.901019 
L 650.467884 442.107296 
L 651.357827 441.933039 
L 652.240627 442.082527 
L 653.131999 441.905842 
L 654.016942 442.036004 
L 655.791114 442.020883 
L 658.453801 441.953117 
L 659.33803 442.059223 
L 662.000717 441.917458 
L 662.883517 442.085408 
L 664.659118 441.982223 
L 709.859796 441.969829 
L 710.741883 442.088874 
L 711.630397 441.95176 
L 712.513912 442.052537 
L 713.401713 441.961739 
L 714.285228 442.058478 
L 715.171599 442.001915 
L 716.0544 442.070832 
L 716.941486 441.983693 
L 719.595602 442.105207 
L 720.485545 441.904525 
L 721.368346 442.07831 
L 722.255432 441.98072 
L 726.684434 442.029019 
L 731.115579 441.98509 
L 731.999094 442.062336 
L 732.886894 441.967494 
L 733.771123 442.041214 
L 734.658209 441.975856 
L 736.429524 442.002441 
L 737.313039 442.052736 
L 738.200125 441.975165 
L 739.969298 442.053821 
L 740.857098 441.977067 
L 741.740613 442.056568 
L 742.628413 441.982509 
L 743.511214 442.063893 
L 744.401157 441.929906 
L 745.2861 442.03514 
L 747.944502 441.995283 
L 748.827302 442.086779 
L 749.714388 441.984698 
L 752.36779 442.075855 
L 754.140534 441.996653 
L 755.02762 441.993273 
L 755.908278 442.11021 
L 756.798935 441.911218 
L 757.681021 442.092646 
L 758.57025 441.928149 
L 759.453765 442.057719 
L 761.227937 441.994717 
L 770.977313 441.984425 
L 771.861542 442.051 
L 772.750057 441.96607 
L 774.522086 442.001789 
L 777.184059 442.003758 
L 782.485862 442.195532 
L 783.335808 442.809399 
L 784.201467 442.456954 
L 785.873503 443.319835 
L 786.687736 443.574338 
L 787.505541 443.522094 
L 788.31049 443.80535 
L 791.461716 444.460604 
L 792.245952 444.238746 
L 793.005903 444.783298 
L 793.784425 444.38238 
L 795.290043 445.076287 
L 796.060708 444.542999 
L 796.814945 444.909515 
L 797.572754 444.832615 
L 798.322706 445.004969 
L 799.079086 444.854935 
L 800.557563 445.331935 
L 801.280374 445.57703 
L 802.019612 445.244377 
L 803.456663 445.850766 
L 804.147333 446.289153 
L 804.84586 446.113918 
L 805.547244 446.063749 
L 806.224343 446.590012 
L 806.919299 446.197683 
L 807.591398 446.707161 
L 808.256356 446.84399 
L 808.927027 446.737272 
L 809.574843 447.221356 
L 810.214088 447.41335 
L 811.433295 448.266824 
L 812.004687 448.896265 
L 812.559652 449.251339 
L 813.574587 450.57643 
L 813.574587 450.57643 
" clip-path="url(#p6d65bfcfb0)" style="fill: none; stroke: #ff0000; stroke-width: 1.5; stroke-linecap: square"/>
   </g>
   <g id="line2d_26">
    <path d="M 116.017091 452.117425 
L 117.164874 442.165641 
L 122.547387 442.230852 
L 123.603034 442.121919 
L 124.649395 442.228237 
L 125.695043 442.124959 
L 126.737833 442.233779 
L 129.842634 442.15332 
L 130.875425 442.349198 
L 131.911788 442.120495 
L 133.968084 442.227864 
L 135.000876 442.13732 
L 136.032238 442.267821 
L 137.064315 442.133282 
L 139.119183 442.260071 
L 140.149117 442.052763 
L 142.2097 442.197135 
L 143.241777 442.120954 
L 144.271711 442.191141 
L 145.302359 442.110749 
L 147.365798 442.233805 
L 148.395732 442.116477 
L 149.425667 442.27786 
L 150.4606 442.173425 
L 153.562545 442.244323 
L 155.63884 442.131213 
L 156.672346 442.283369 
L 157.710851 442.031374 
L 158.750784 442.268067 
L 159.797146 442.139183 
L 160.842079 442.199723 
L 162.939802 442.176458 
L 163.986163 442.352099 
L 165.038953 442.125405 
L 168.197322 442.208704 
L 169.254397 442.121992 
L 170.307187 442.326379 
L 171.365691 442.042418 
L 172.426337 442.182818 
L 175.616847 442.189917 
L 177.751711 442.227385 
L 178.820928 442.130022 
L 179.892288 442.227778 
L 180.965791 442.10389 
L 182.043579 442.197794 
L 184.192727 442.131751 
L 185.263373 442.229049 
L 186.343304 442.203023 
L 187.416092 442.289383 
L 188.496737 442.074291 
L 191.730102 442.232355 
L 192.808604 442.088302 
L 193.886392 442.236626 
L 198.197545 442.126822 
L 199.273905 442.229933 
L 200.35455 442.151264 
L 201.430909 442.249612 
L 206.822707 442.064858 
L 207.896924 442.187568 
L 213.268009 442.197009 
L 214.346511 442.086359 
L 215.417157 442.179266 
L 218.641951 442.133827 
L 221.866744 442.176079 
L 222.938819 442.217712 
L 224.012321 442.07179 
L 225.08511 442.233799 
L 226.157898 442.148689 
L 227.233544 442.215843 
L 229.381978 442.103304 
L 230.450481 442.229534 
L 236.880069 442.14821 
L 237.951429 442.269571 
L 239.025646 442.113356 
L 240.098435 442.27174 
L 241.171223 442.120561 
L 243.317514 442.218198 
L 244.390303 442.089386 
L 245.462377 442.193456 
L 247.607954 442.156626 
L 250.827748 442.175673 
L 251.899108 442.122018 
L 252.971182 442.344295 
L 254.042542 442.093844 
L 256.180977 442.2683 
L 257.253765 442.086127 
L 258.325839 442.208571 
L 260.467131 442.187276 
L 261.53492 442.227179 
L 262.603423 442.102985 
L 263.675497 442.251216 
L 265.821074 442.097796 
L 266.888863 442.243805 
L 267.962365 442.062822 
L 269.035868 442.225835 
L 270.103657 442.233426 
L 271.176445 442.111933 
L 272.244234 442.243146 
L 273.316308 442.114128 
L 278.715249 442.224585 
L 279.781609 442.22356 
L 280.854397 442.091648 
L 285.121267 442.210893 
L 286.186199 442.044926 
L 287.256845 442.198506 
L 294.727795 442.197035 
L 295.790584 442.221212 
L 296.854088 442.061159 
L 297.923305 442.228896 
L 300.053169 442.076054 
L 301.114529 442.190815 
L 302.171604 442.110183 
L 304.300754 442.234471 
L 305.365686 442.081057 
L 306.425618 442.242208 
L 307.493407 442.058085 
L 308.55691 442.206449 
L 310.681774 442.173558 
L 311.739564 442.253205 
L 312.803781 442.102566 
L 313.867999 442.244151 
L 314.928645 442.104462 
L 324.46732 442.194634 
L 325.530109 442.100736 
L 326.592899 442.169539 
L 327.647831 442.096259 
L 329.759839 442.27323 
L 330.8162 442.005867 
L 331.874703 442.243578 
L 333.991711 442.117435 
L 335.050929 442.218411 
L 336.110147 442.088894 
L 338.225725 442.17552 
L 348.776479 442.230832 
L 349.835697 442.058917 
L 350.889915 442.259691 
L 351.940562 442.080784 
L 352.993352 442.235941 
L 355.101788 442.111394 
L 356.146721 442.202664 
L 360.347881 442.099984 
L 367.68884 442.162088 
L 388.552504 442.163286 
L 389.591724 442.10508 
L 390.630228 442.226574 
L 391.669448 442.081117 
L 392.71081 442.213787 
L 393.747172 442.119949 
L 395.808468 442.230273 
L 398.907556 442.129529 
L 400.968852 442.210727 
L 402.003072 442.092759 
L 408.194819 442.209037 
L 410.251116 442.091449 
L 411.283907 442.181741 
L 413.335918 442.057679 
L 414.359424 442.252513 
L 415.384358 442.094336 
L 425.586563 442.047261 
L 426.602212 442.24596 
L 427.615004 442.086685 
L 428.627796 442.176605 
L 430.660524 442.092267 
L 434.706693 442.137945 
L 449.770729 442.201466 
L 450.769951 442.09588 
L 451.76703 442.214758 
L 453.757617 442.128944 
L 467.578875 442.144319 
L 469.52875 442.175647 
L 471.484339 442.165102 
L 476.360456 442.056821 
L 477.330394 442.184581 
L 481.209431 442.061185 
L 482.175798 442.214166 
L 484.105674 442.123948 
L 486.025551 442.126363 
L 533.289669 442.114275 
L 534.179612 442.242341 
L 535.070984 442.116038 
L 539.498557 442.132876 
L 540.381358 442.240205 
L 541.259873 442.11786 
L 545.625308 442.22338 
L 546.500966 442.056109 
L 547.363054 442.19019 
L 548.230856 442.109358 
L 549.096515 442.210281 
L 549.957174 442.124899 
L 551.679206 442.158309 
L 552.539151 442.016718 
L 553.398382 442.167238 
L 555.962504 442.14378 
L 557.660252 442.10204 
L 558.508769 442.224032 
L 563.557018 442.125578 
L 564.39125 442.207374 
L 565.21834 442.057985 
L 566.875377 442.191613 
L 567.703895 442.071357 
L 568.533128 442.205604 
L 570.180879 442.069248 
L 571.001541 442.165022 
L 571.821489 442.077185 
L 572.640722 442.289782 
L 573.457098 442.055351 
L 574.273475 442.229315 
L 575.902656 442.104096 
L 579.131021 442.220121 
L 579.932398 442.118958 
L 582.332244 442.195891 
L 583.927857 442.135843 
L 584.722806 442.204719 
L 586.304133 442.14342 
L 587.092654 442.206682 
L 587.881175 442.074231 
L 588.664696 442.164423 
L 589.451789 442.101109 
L 591.009546 442.206003 
L 591.790925 442.039344 
L 592.566589 442.184581 
L 594.117204 442.133541 
L 600.244669 442.167058 
L 601.004621 442.02045 
L 601.760287 442.164596 
L 603.270904 442.083026 
L 604.020142 442.253804 
L 604.771523 442.103477 
L 607.004237 442.085674 
L 607.743475 442.186617 
L 608.484856 442.088628 
L 609.22338 442.163419 
L 610.694715 442.096379 
L 613.620242 442.160751 
L 615.07872 442.069268 
L 615.799388 442.13092 
L 617.24001 442.034421 
L 618.675633 442.136289 
L 619.387016 442.069415 
L 620.102684 442.162461 
L 620.811924 441.997678 
L 621.520451 442.177629 
L 622.227548 442.06702 
L 623.636744 442.113356 
L 624.34027 442.070932 
L 625.040225 442.229042 
L 625.741609 442.007477 
L 626.439421 442.150725 
L 628.52286 442.200368 
L 629.21353 441.963076 
L 629.902771 442.194294 
L 630.587013 442.0639 
L 636.011666 442.140739 
L 637.348009 442.093638 
L 638.011538 442.236473 
L 638.676495 442.040402 
L 639.33931 442.163239 
L 639.998554 442.083525 
L 641.969856 442.153639 
L 642.621957 442.162787 
L 643.275487 442.045651 
L 644.570404 442.162028 
L 645.217505 442.101275 
L 645.865321 442.154218 
L 646.511708 442.088508 
L 647.79734 442.137859 
L 649.698647 442.143667 
L 652.222771 442.165355 
L 654.091223 442.045731 
L 655.331858 442.117495 
L 657.183168 442.024901 
L 657.793129 442.20591 
L 659.008051 442.066481 
L 660.821507 442.209303 
L 661.425754 441.970827 
L 662.028572 442.131372 
L 665.000525 442.122956 
L 665.591916 442.041879 
L 666.763983 442.091821 
L 668.511729 442.130128 
L 669.67094 442.059542 
L 670.246618 442.180457 
L 670.821581 442.038772 
L 671.962222 442.16451 
L 674.786327 442.084377 
L 675.907684 442.152182 
L 676.465505 442.053747 
L 677.021184 442.135191 
L 677.575434 442.042983 
L 678.128256 442.182705 
L 678.676792 441.985057 
L 679.222472 442.170763 
L 681.404475 442.12937 
L 681.94444 442.229202 
L 682.479406 441.992522 
L 683.017943 442.205158 
L 683.552195 442.098647 
L 684.086446 442.218417 
L 687.785495 442.061525 
L 688.827571 442.107841 
L 690.898867 442.032472 
L 691.411692 442.164789 
L 693.446561 442.023071 
L 693.9501 442.153287 
L 695.957115 442.023916 
L 696.452797 442.110915 
L 697.929846 441.968618 
L 698.420529 442.120182 
L 698.910497 441.989288 
L 699.884006 442.070725 
L 700.368261 442.120422 
L 701.331057 442.045252 
L 701.808883 442.140234 
L 702.758108 442.067605 
L 703.234506 442.148117 
L 704.176589 442.039983 
L 705.116529 442.135198 
L 705.584356 442.033769 
L 706.05004 442.193283 
L 706.514296 442.010604 
L 706.977124 442.10359 
L 707.437809 442.042651 
L 707.899922 442.150253 
L 708.354179 442.056382 
L 709.269834 442.172806 
L 709.721234 442.061385 
L 711.966804 442.154444 
L 712.409633 442.057666 
L 713.292434 442.187023 
L 713.73312 441.998223 
L 714.171663 442.123329 
L 715.913695 442.075203 
L 724.685276 442.187189 
L 725.087393 442.050142 
L 726.282317 442.165628 
L 727.862216 442.06692 
L 729.033569 442.133341 
L 729.422116 442.03808 
L 729.809948 442.082354 
L 730.193495 442.000119 
L 730.575613 442.199963 
L 730.958446 442.059642 
L 733.223301 442.165747 
L 733.59542 442.043935 
L 734.713206 442.162813 
L 735.080325 442.000718 
L 735.811707 442.179425 
L 736.178112 441.98855 
L 736.540232 442.129363 
L 736.903066 442.026498 
L 737.262328 442.190316 
L 737.622305 442.060986 
L 737.980854 442.090165 
L 738.338688 441.993579 
L 738.695094 442.150858 
L 739.404334 442.078589 
L 741.155651 442.156041 
L 741.500628 442.022659 
L 741.840607 442.152941 
L 742.179156 442.040901 
L 742.521277 442.176651 
L 743.202662 442.133408 
L 743.542641 442.059349 
L 743.879048 442.165794 
L 744.215455 442.072029 
L 745.547512 442.180749 
L 745.877491 442.033809 
L 746.531021 442.075735 
L 747.828795 442.13714 
L 748.150917 442.060666 
L 748.470182 442.172021 
L 750.060795 442.074311 
L 750.374346 442.136116 
L 750.689326 442.051406 
L 751.001449 442.174403 
L 751.310715 442.043682 
L 752.239227 442.171422 
L 752.545636 442.038985 
L 753.156311 442.110243 
L 754.653358 442.054705 
L 754.950482 442.156147 
L 755.24832 442.06867 
L 755.838996 442.115499 
L 756.718226 442.073593 
L 757.591027 442.13559 
L 758.167419 442.094935 
L 759.024507 442.072715 
L 759.306632 442.210534 
L 759.586614 442.003352 
L 759.863025 442.179592 
L 760.143721 442.060886 
L 760.700114 442.065749 
L 762.335724 442.086958 
L 762.607849 442.047667 
L 762.879974 442.148783 
L 763.149957 442.062815 
L 763.684209 442.073905 
L 763.948477 442.047341 
L 764.214175 442.248096 
L 764.478444 442.096299 
L 766.559025 442.013571 
L 766.81258 442.176991 
L 767.064707 442.007497 
L 767.318262 442.122344 
L 767.570388 441.957135 
L 767.822515 442.11498 
L 768.566753 442.062975 
L 769.05815 442.070845 
L 770.513772 442.071949 
L 770.755185 442.026032 
L 770.994455 442.143374 
L 771.232297 441.996766 
L 771.470139 442.12462 
L 771.710124 442.009719 
L 771.945108 442.116217 
L 771.945108 442.116217 
" clip-path="url(#p6d65bfcfb0)" style="fill: none; stroke: #0000ff; stroke-width: 1.5; stroke-linecap: square"/>
   </g>
   <g id="line2d_27">
    <path d="M 115.582118 456.817056 
L 116.719903 446.403069 
L 117.999107 437.691852 
L 119.090465 442.137193 
L 120.164682 442.099825 
L 121.225329 442.187994 
L 122.287404 442.052004 
L 123.337336 442.18514 
L 124.380127 442.115219 
L 125.422917 442.179492 
L 127.499213 442.050248 
L 128.537718 442.086406 
L 129.571223 442.297227 
L 130.6033 442.004164 
L 131.638234 442.204373 
L 132.667453 442.098747 
L 133.695959 442.308822 
L 134.721608 442.022745 
L 135.747256 442.209902 
L 136.771476 442.056255 
L 137.797839 442.314624 
L 138.826345 442.112359 
L 141.908291 442.174562 
L 142.940367 442.195146 
L 143.971016 442.087337 
L 147.066532 442.203615 
L 149.132114 442.104515 
L 152.237629 442.156487 
L 155.351716 442.182672 
L 156.389507 442.024462 
L 157.426583 442.224119 
L 159.510021 442.135324 
L 160.557097 442.079753 
L 162.642678 442.163259 
L 167.850916 442.114774 
L 168.891564 442.193782 
L 169.93364 442.038925 
L 170.978573 442.18685 
L 173.068439 442.123096 
L 178.293105 442.170311 
L 179.341609 442.113463 
L 180.389399 442.190935 
L 181.437189 442.122418 
L 182.484979 442.566632 
L 183.532055 441.736362 
L 184.577702 442.216801 
L 187.715359 442.133361 
L 188.764577 442.219329 
L 190.8573 442.058384 
L 192.955023 442.183663 
L 196.104822 442.035153 
L 197.149755 442.200082 
L 200.303839 442.052936 
L 201.3502 442.150333 
L 204.502856 442.0991 
L 206.602007 442.16302 
L 207.65194 442.040774 
L 208.69973 442.189145 
L 209.748948 442.104714 
L 210.798167 442.1691 
L 211.848814 441.988211 
L 212.898033 442.125731 
L 214.99647 442.131818 
L 218.147697 442.212024 
L 219.199772 442.002634 
L 220.251848 442.179625 
L 222.353856 442.134778 
L 223.400932 442.209403 
L 224.453007 442.021428 
L 225.500083 442.218511 
L 226.548588 442.038532 
L 227.594949 442.12136 
L 228.647025 442.072335 
L 230.744033 442.169692 
L 232.840328 442.110383 
L 234.940908 442.1179 
L 235.99084 442.045578 
L 237.04363 442.195924 
L 239.147067 442.054865 
L 242.298294 442.118067 
L 246.495168 442.059289 
L 247.54153 442.14352 
L 248.590748 442.057885 
L 252.790479 442.191866 
L 253.838984 442.065596 
L 254.888916 442.196383 
L 255.940278 442.073466 
L 260.133581 442.157371 
L 261.185656 442.01419 
L 262.231304 442.326432 
L 263.280522 442.057553 
L 265.376102 442.170238 
L 268.51733 442.064179 
L 269.56512 442.192285 
L 273.746995 442.125777 
L 275.84329 442.123981 
L 276.89108 442.047733 
L 280.036593 442.159494 
L 281.082954 442.051053 
L 282.130744 442.167131 
L 284.233467 442.088561 
L 287.376123 442.189311 
L 288.423913 442.034541 
L 289.47456 442.214386 
L 290.523064 442.061791 
L 292.614359 442.126689 
L 293.666435 442.066953 
L 294.712796 442.168741 
L 296.808376 442.086606 
L 299.944604 442.235475 
L 300.995251 442.018541 
L 302.041613 442.126456 
L 303.086546 442.085049 
L 304.126479 442.2077 
L 305.172127 442.116077 
L 307.258422 442.307246 
L 308.304783 442.138318 
L 309.347574 442.234398 
L 310.395364 442.045611 
L 312.486659 442.245401 
L 313.53302 442.064578 
L 314.575811 442.154537 
L 316.66282 442.164989 
L 318.755543 442.149162 
L 320.839695 442.16582 
L 321.879629 442.307472 
L 322.92599 442.072947 
L 325.012285 442.180942 
L 326.060076 442.119191 
L 327.104294 442.245894 
L 328.149942 442.042444 
L 329.192018 442.221624 
L 333.361751 442.104555 
L 334.402399 442.219183 
L 335.445189 442.072748 
L 337.52577 442.222389 
L 338.57356 442.114927 
L 339.611351 442.165907 
L 340.65557 442.056588 
L 341.694789 442.203622 
L 342.729723 442.235548 
L 343.771085 442.05742 
L 344.807447 442.194348 
L 345.848095 442.089786 
L 347.92439 442.199171 
L 348.964324 442.128831 
L 350.003543 442.204926 
L 351.044905 442.046862 
L 352.084124 442.193895 
L 358.308726 442.146228 
L 360.383593 442.200076 
L 362.457746 442.185546 
L 368.68449 442.102825 
L 370.755786 442.23179 
L 371.79572 442.046988 
L 374.906235 442.181914 
L 375.939026 442.105307 
L 378.008893 442.191247 
L 379.047398 442.006572 
L 380.08876 442.160551 
L 382.157199 442.167623 
L 383.185705 442.241622 
L 384.227067 442.066448 
L 385.263429 442.198213 
L 387.331154 442.091954 
L 388.363231 442.187083 
L 389.396022 442.135597 
L 390.430241 442.200096 
L 391.461604 442.131998 
L 392.492252 442.183424 
L 393.528614 442.038147 
L 394.560691 442.202724 
L 396.626273 442.115898 
L 399.723932 442.194308 
L 401.784515 442.070406 
L 403.848668 442.167796 
L 406.930614 442.169679 
L 412.067428 442.169479 
L 419.251968 442.089579 
L 420.279759 442.236234 
L 421.306836 442.092354 
L 425.406574 442.187036 
L 426.432223 442.121107 
L 428.479235 442.173305 
L 429.50274 442.188986 
L 430.528389 442.088096 
L 432.576115 442.18663 
L 433.60105 442.030483 
L 434.627412 442.220912 
L 436.662282 442.125411 
L 446.860915 442.297965 
L 447.874422 442.087271 
L 451.94059 442.202251 
L 453.973317 442.014988 
L 454.993252 442.299489 
L 456.011044 442.091382 
L 458.044485 442.133115 
L 459.061563 442.038446 
L 460.077212 442.17071 
L 463.122017 442.135643 
L 464.138381 442.069734 
L 465.151887 442.240944 
L 467.1789 442.118153 
L 481.330852 442.082474 
L 482.337216 442.257024 
L 483.347866 442.049064 
L 484.356372 442.166472 
L 509.457623 442.082035 
L 510.453274 442.288678 
L 511.447496 442.141677 
L 518.409907 442.21861 
L 519.406986 442.077737 
L 520.400494 442.307019 
L 521.396859 442.05086 
L 522.390367 442.245641 
L 523.380303 442.07952 
L 524.37524 442.208066 
L 526.365112 442.13384 
L 528.3507 442.160212 
L 545.156767 442.100756 
L 546.146703 442.18212 
L 547.130212 442.105639 
L 549.0958 442.165368 
L 550.080023 442.053475 
L 552.040612 442.131452 
L 556.943155 442.07952 
L 557.923807 442.214645 
L 561.843556 442.059682 
L 562.822065 442.176425 
L 565.760448 442.104255 
L 567.713894 442.185972 
L 568.689546 442.018987 
L 569.666627 442.203276 
L 571.617216 442.120182 
L 573.564234 442.222196 
L 577.452557 442.102546 
L 578.42678 442.184947 
L 580.365942 442.151078 
L 582.299389 442.172826 
L 583.26647 442.066208 
L 588.105446 442.159401 
L 589.072527 442.078516 
L 590.038894 442.163891 
L 591.008118 442.08584 
L 592.939423 442.179745 
L 595.833523 442.064246 
L 596.797033 442.219322 
L 597.759828 442.093238 
L 598.722624 442.171249 
L 599.686134 442.034574 
L 600.651786 442.113629 
L 601.607439 442.340543 
L 602.569521 442.147066 
L 604.489398 442.128711 
L 605.450051 442.192132 
L 606.412846 442.042105 
L 608.324867 442.234491 
L 609.283377 442.080485 
L 610.238316 442.142023 
L 611.198968 442.040768 
L 612.154621 442.197714 
L 613.110989 442.015194 
L 614.070213 442.189604 
L 615.024438 442.097383 
L 618.805624 442.232335 
L 619.746993 442.073579 
L 621.627587 442.131732 
L 622.568241 442.124939 
L 623.508895 442.23497 
L 624.449549 442.013032 
L 625.388774 442.194787 
L 626.330143 442.090231 
L 630.07776 442.126176 
L 631.013414 442.077445 
L 631.946926 442.198373 
L 632.884723 442.061691 
L 633.815378 442.151357 
L 637.542996 442.101448 
L 638.467937 442.158888 
L 639.399306 442.088455 
L 640.327818 442.247184 
L 641.25633 442.042185 
L 643.111212 442.144472 
L 650.495025 442.176997 
L 651.414966 442.069129 
L 652.339192 442.179166 
L 653.256276 442.084364 
L 659.669437 442.163026 
L 660.58295 442.082727 
L 661.493606 442.16626 
L 663.317061 442.122477 
L 665.139087 442.126556 
L 667.857485 442.095028 
L 678.658222 442.026138 
L 679.552451 442.164976 
L 680.445965 442.073752 
L 682.232279 442.110409 
L 684.010022 442.13708 
L 685.784909 442.087876 
L 714.31594 442.175041 
L 715.153029 441.934296 
L 715.990118 442.140566 
L 716.825065 442.051306 
L 717.65644 442.126476 
L 718.486387 442.072408 
L 719.314906 442.131924 
L 720.9698 442.059349 
L 723.426785 442.133368 
L 724.238876 442.018108 
L 725.054538 442.125358 
L 725.866629 442.047201 
L 726.675149 442.131885 
L 727.480812 442.021648 
L 728.28576 442.129396 
L 729.085709 442.03951 
L 733.054026 442.131698 
L 736.188826 442.038978 
L 736.965919 442.267415 
L 737.738726 442.069821 
L 741.566339 442.142309 
L 742.322004 442.053215 
L 743.076242 442.124992 
L 744.566147 442.029192 
L 745.308956 442.149268 
L 746.048195 441.989122 
L 746.784576 442.17425 
L 747.518815 442.010631 
L 748.245197 442.161336 
L 750.413629 442.073799 
L 751.127869 442.18828 
L 751.842824 442.032685 
L 752.553492 442.222396 
L 753.259876 442.015514 
L 753.963402 442.20456 
L 754.658358 442.018847 
L 756.041841 442.134486 
L 756.727511 442.02858 
L 757.411039 442.158775 
L 758.092424 442.056415 
L 758.766666 442.142476 
L 762.083597 442.059708 
L 762.733555 442.169353 
L 763.379942 442.031028 
L 764.024901 442.292443 
L 764.663432 442.088528 
L 765.302676 442.129995 
L 766.564024 442.040675 
L 767.188984 442.164277 
L 767.806088 442.020836 
L 768.422477 442.109378 
L 769.037437 441.98386 
L 769.641684 442.125624 
L 770.841608 442.091409 
L 773.187886 442.048458 
L 774.332813 442.083785 
L 786.226337 441.984345 
L 786.689879 442.22499 
L 787.14985 442.053841 
L 788.500477 442.137027 
L 788.94402 441.989721 
L 789.816108 442.060966 
L 791.088169 442.161949 
L 791.505285 441.990998 
L 791.915259 442.104681 
L 793.133038 442.066947 
L 794.687224 441.995183 
L 795.065772 442.151377 
L 796.176415 442.051233 
L 796.538534 442.133747 
L 796.897083 442.004244 
L 797.602038 442.09107 
L 809.98196 442.034015 
L 810.191946 442.15302 
L 810.397647 442.030137 
L 810.601206 442.106664 
L 810.80405 442.03804 
L 811.399726 442.201446 
L 811.972547 442.159161 
L 812.34038 442.220134 
L 813.053906 442.241143 
L 813.735291 442.222043 
L 814.068127 442.30517 
L 814.230259 442.234936 
L 814.38882 442.407397 
L 814.548096 442.281865 
L 814.859505 442.342193 
L 816.7151 442.450886 
L 816.847235 442.694505 
L 816.976512 442.390492 
L 817.232924 442.475262 
L 817.357916 442.436802 
L 817.482194 442.531964 
L 817.72575 442.482474 
L 818.082156 442.575586 
L 818.197862 442.575779 
L 818.313569 442.443595 
L 818.541412 442.490943 
L 818.874248 442.572699 
L 819.087805 442.52432 
L 819.704195 442.619701 
L 819.902039 442.550745 
L 819.997747 442.651335 
L 820.093455 442.531718 
L 820.280586 442.656817 
L 820.465574 442.668293 
L 820.556283 442.550439 
L 820.645563 442.707405 
L 820.734843 442.535124 
L 820.822694 442.677454 
L 820.91126 442.615257 
L 821.083392 442.575806 
L 821.252667 442.700127 
L 821.497651 442.564855 
L 821.576932 442.736744 
L 821.656212 442.56115 
L 821.734779 442.714517 
L 821.813345 442.620686 
L 821.890483 442.69227 
L 822.189036 442.757075 
L 822.261888 442.624664 
L 822.333312 442.778177 
L 822.404736 442.687959 
L 822.544727 442.692356 
L 822.613294 442.678678 
L 822.682575 442.86658 
L 822.749714 442.652872 
L 822.816138 442.747249 
L 823.013268 442.660503 
L 823.144689 442.746084 
L 823.20897 442.702322 
L 823.271823 442.801183 
L 823.335391 442.685883 
L 823.39753 442.748007 
L 823.455383 442.738154 
L 823.455383 442.738154 
" clip-path="url(#p6d65bfcfb0)" style="fill: none; stroke: #9467bd; stroke-width: 1.5; stroke-linecap: square"/>
   </g>
   <g id="patch_3">
    <path d="M 115.2 461.376 
L 115.2 62.208 
" style="fill: none; stroke: #000000; stroke-width: 0.8; stroke-linejoin: miter; stroke-linecap: square"/>
   </g>
   <g id="patch_4">
    <path d="M 829.44 461.376 
L 829.44 62.208 
" style="fill: none; stroke: #000000; stroke-width: 0.8; stroke-linejoin: miter; stroke-linecap: square"/>
   </g>
   <g id="patch_5">
    <path d="M 115.2 461.376 
L 829.44 461.376 
" style="fill: none; stroke: #000000; stroke-width: 0.8; stroke-linejoin: miter; stroke-linecap: square"/>
   </g>
   <g id="patch_6">
    <path d="M 115.2 62.208 
L 829.44 62.208 
" style="fill: none; stroke: #000000; stroke-width: 0.8; stroke-linejoin: miter; stroke-linecap: square"/>
   </g>
   <g id="text_27">
    <!-- $\mathrm{proto\ &amp;\ mica*}$的吞吐量随索引装载率的变化趋势 -->
    <g transform="translate(231.666 56.208) scale(0.228 -0.228)">
     <defs>
      <path id="STIXGeneral-Regular-72" d="M 1024 2931 
L 1024 2342 
Q 1267 2688 1430 2816 
Q 1594 2944 1792 2944 
Q 1958 2944 2051 2854 
Q 2144 2765 2144 2605 
Q 2144 2470 2077 2393 
Q 2010 2317 1894 2317 
Q 1773 2317 1638 2445 
Q 1536 2541 1472 2541 
Q 1338 2541 1181 2355 
Q 1024 2170 1024 2016 
L 1024 576 
Q 1024 301 1133 205 
Q 1242 109 1568 96 
L 1568 0 
L 32 0 
L 32 96 
Q 339 154 412 224 
Q 486 294 486 538 
L 486 2138 
Q 486 2349 438 2435 
Q 390 2522 269 2522 
Q 166 2522 45 2496 
L 45 2598 
Q 448 2726 992 2944 
L 1024 2931 
z
" transform="scale(0.015625)"/>
      <path id="STIXGeneral-Regular-74" d="M 1702 493 
L 1786 422 
Q 1478 -64 1011 -64 
Q 448 -64 448 749 
L 448 2675 
L 109 2675 
Q 83 2694 83 2720 
Q 83 2771 192 2842 
Q 435 2982 813 3526 
Q 826 3546 874 3606 
Q 922 3667 941 3706 
Q 986 3706 986 3622 
L 986 2880 
L 1632 2880 
L 1632 2675 
L 986 2675 
L 986 845 
Q 986 538 1062 403 
Q 1139 269 1318 269 
Q 1510 269 1702 493 
z
" transform="scale(0.015625)"/>
      <path id="STIXGeneral-Regular-26" d="M 4704 710 
L 4800 640 
Q 4659 294 4409 105 
Q 4160 -83 3834 -83 
Q 3309 -83 2746 499 
Q 2387 186 2070 51 
Q 1754 -83 1363 -83 
Q 838 -83 553 160 
Q 269 403 269 877 
Q 269 1267 528 1628 
Q 787 1990 1274 2272 
L 1517 2413 
Q 1293 2957 1293 3366 
Q 1293 3789 1571 4057 
Q 1850 4326 2266 4326 
Q 2656 4326 2899 4115 
Q 3142 3904 3142 3533 
Q 3142 3181 2921 2937 
Q 2701 2694 2150 2458 
Q 2509 1683 2995 1139 
Q 3315 1568 3449 1821 
Q 3584 2074 3584 2291 
Q 3584 2438 3494 2502 
Q 3405 2566 3168 2592 
L 3168 2726 
L 4550 2726 
L 4550 2592 
Q 4326 2592 4201 2509 
Q 4077 2426 3949 2214 
Q 3859 2074 3702 1814 
Q 3546 1555 3424 1363 
Q 3302 1171 3142 960 
Q 3379 659 3606 515 
Q 3834 371 4115 371 
Q 4301 371 4425 444 
Q 4550 518 4704 710 
z
M 2803 3558 
Q 2803 3795 2662 3958 
Q 2522 4122 2304 4122 
Q 2080 4122 1939 3974 
Q 1798 3827 1798 3590 
Q 1798 3334 1849 3139 
Q 1901 2944 2054 2662 
Q 2458 2848 2630 3059 
Q 2803 3270 2803 3558 
z
M 2586 666 
Q 2035 1312 1613 2195 
Q 1197 1926 1027 1686 
Q 858 1446 858 1114 
Q 858 717 1078 486 
Q 1299 256 1651 256 
Q 2061 256 2586 666 
z
" transform="scale(0.015625)"/>
      <path id="STIXGeneral-Regular-6d" d="M 4960 0 
L 3565 0 
L 3565 96 
Q 3834 122 3907 208 
Q 3981 294 3981 576 
L 3981 1894 
Q 3981 2278 3869 2444 
Q 3757 2611 3488 2611 
Q 3264 2611 3107 2521 
Q 2950 2432 2803 2221 
L 2803 608 
Q 2803 301 2896 201 
Q 2989 102 3264 96 
L 3264 0 
L 1830 0 
L 1830 96 
Q 2112 115 2189 188 
Q 2266 262 2266 550 
L 2266 1901 
Q 2266 2611 1850 2611 
Q 1670 2611 1468 2531 
Q 1267 2451 1171 2336 
Q 1088 2240 1088 2227 
L 1088 448 
Q 1088 243 1177 176 
Q 1267 109 1523 96 
L 1523 0 
L 102 0 
L 102 96 
Q 371 102 460 195 
Q 550 288 550 563 
L 550 2150 
Q 550 2387 499 2480 
Q 448 2573 326 2573 
Q 230 2573 122 2547 
L 122 2656 
Q 557 2778 1011 2944 
L 1062 2925 
L 1062 2451 
L 1075 2451 
Q 1363 2752 1584 2848 
Q 1805 2944 2054 2944 
Q 2560 2944 2733 2406 
Q 3232 2944 3776 2944 
Q 4518 2944 4518 1792 
L 4518 493 
Q 4518 282 4582 202 
Q 4646 122 4794 109 
L 4960 96 
L 4960 0 
z
" transform="scale(0.015625)"/>
      <path id="STIXGeneral-Regular-69" d="M 1152 4045 
Q 1152 3904 1056 3811 
Q 960 3718 819 3718 
Q 685 3718 592 3811 
Q 499 3904 499 4045 
Q 499 4179 595 4275 
Q 691 4371 826 4371 
Q 966 4371 1059 4275 
Q 1152 4179 1152 4045 
z
M 1619 0 
L 102 0 
L 102 96 
Q 435 115 521 211 
Q 608 307 608 666 
L 608 2118 
Q 608 2342 563 2432 
Q 518 2522 397 2522 
Q 243 2522 128 2490 
L 128 2592 
L 1120 2944 
L 1146 2918 
L 1146 672 
Q 1146 314 1226 218 
Q 1306 122 1619 96 
L 1619 0 
z
" transform="scale(0.015625)"/>
      <path id="STIXGeneral-Regular-63" d="M 2547 998 
L 2637 941 
Q 2362 403 2112 205 
Q 1786 -64 1376 -64 
Q 845 -64 502 336 
Q 160 736 160 1357 
Q 160 2170 698 2618 
Q 1094 2944 1562 2944 
Q 1965 2944 2256 2749 
Q 2547 2554 2547 2285 
Q 2547 2176 2457 2096 
Q 2368 2016 2246 2016 
Q 2022 2016 1939 2310 
L 1901 2451 
Q 1850 2630 1773 2694 
Q 1696 2758 1523 2758 
Q 1133 2758 893 2451 
Q 653 2144 653 1645 
Q 653 1094 928 745 
Q 1203 397 1645 397 
Q 1920 397 2118 528 
Q 2317 659 2547 998 
z
" transform="scale(0.015625)"/>
      <path id="STIXGeneral-Regular-61" d="M 2829 422 
L 2829 243 
Q 2586 -64 2253 -64 
Q 1888 -64 1843 403 
L 1837 403 
Q 1427 -64 909 -64 
Q 608 -64 422 112 
Q 237 288 237 602 
Q 237 1050 685 1350 
Q 992 1555 1837 1869 
L 1837 2214 
Q 1837 2502 1699 2646 
Q 1562 2790 1338 2790 
Q 1146 2790 1018 2697 
Q 890 2605 890 2477 
Q 890 2419 909 2348 
Q 928 2278 928 2208 
Q 928 2112 841 2029 
Q 755 1946 634 1946 
Q 525 1946 441 2029 
Q 358 2112 358 2240 
Q 358 2547 685 2752 
Q 986 2944 1421 2944 
Q 1939 2944 2176 2656 
Q 2291 2522 2323 2384 
Q 2355 2246 2355 1946 
L 2355 723 
Q 2355 301 2554 301 
Q 2682 301 2829 422 
z
M 1837 813 
L 1837 1715 
Q 1248 1510 1018 1293 
Q 800 1094 800 800 
Q 800 557 921 432 
Q 1043 307 1242 307 
Q 1453 307 1613 410 
Q 1747 506 1792 589 
Q 1837 672 1837 813 
z
" transform="scale(0.015625)"/>
      <path id="STIXGeneral-Regular-2a" d="M 1715 3014 
L 1773 2976 
Q 2010 2822 2387 2758 
Q 2605 2726 2688 2665 
Q 2771 2605 2771 2483 
Q 2771 2374 2707 2304 
Q 2643 2234 2541 2234 
Q 2381 2234 2157 2515 
Q 2010 2694 1715 2886 
L 1664 2918 
L 1664 2861 
Q 1664 2502 1792 2157 
Q 1850 1997 1850 1946 
Q 1850 1850 1770 1773 
Q 1690 1696 1594 1696 
Q 1504 1696 1433 1766 
Q 1363 1837 1363 1926 
Q 1363 2016 1440 2227 
Q 1542 2502 1542 2861 
L 1542 2918 
Q 1286 2758 1210 2688 
Q 1133 2611 947 2400 
Q 806 2240 672 2240 
Q 563 2240 499 2304 
Q 435 2368 435 2470 
Q 435 2592 528 2656 
Q 621 2720 838 2758 
Q 1062 2803 1180 2848 
Q 1299 2893 1498 3014 
Q 1222 3181 877 3251 
Q 640 3302 544 3366 
Q 448 3430 448 3546 
Q 448 3648 505 3715 
Q 563 3782 659 3782 
Q 787 3782 973 3578 
Q 1242 3277 1542 3110 
L 1542 3194 
Q 1542 3456 1446 3776 
Q 1376 3987 1376 4109 
Q 1376 4198 1443 4262 
Q 1510 4326 1606 4326 
Q 1702 4326 1772 4259 
Q 1843 4192 1843 4096 
Q 1843 3994 1773 3795 
Q 1664 3507 1664 3264 
L 1664 3110 
Q 1882 3238 2035 3379 
Q 2067 3411 2153 3504 
Q 2240 3597 2291 3648 
Q 2342 3699 2409 3747 
Q 2477 3795 2528 3795 
Q 2637 3795 2701 3728 
Q 2765 3661 2765 3552 
Q 2765 3424 2691 3363 
Q 2618 3302 2432 3277 
Q 2074 3219 1715 3014 
z
" transform="scale(0.015625)"/>
      <path id="SimSun-7684" d="M 1125 3775 
L 1125 2175 
L 2425 2175 
L 2425 3775 
L 1125 3775 
z
M 1125 2025 
L 1125 275 
L 2425 275 
L 2425 2025 
L 1125 2025 
z
M 2750 3625 
Q 2750 700 2775 -200 
L 2425 -400 
L 2425 125 
L 1125 125 
L 1125 -300 
L 775 -500 
Q 800 675 800 1837 
Q 800 3000 775 4150 
L 1150 3925 
L 1400 3925 
Q 1650 4775 1675 5225 
L 2225 4925 
Q 1975 4800 1550 3925 
L 2375 3925 
L 2625 4175 
L 3000 3800 
L 2750 3625 
z
M 3975 5200 
L 4525 4875 
Q 4325 4750 3900 3850 
L 5250 3850 
L 5525 4125 
L 5900 3750 
L 5675 3575 
Q 5625 650 5537 262 
Q 5450 -125 5287 -275 
Q 5125 -425 4775 -550 
Q 4650 -150 3950 50 
L 3950 175 
Q 4575 50 4850 50 
Q 5125 50 5187 475 
Q 5250 900 5300 3700 
L 3850 3700 
Q 3400 2975 2900 2475 
L 2825 2525 
Q 3350 3325 3600 3950 
Q 3850 4575 3975 5200 
z
M 3525 2750 
Q 4125 2300 4225 2087 
Q 4325 1875 4325 1775 
Q 4325 1600 4225 1475 
Q 4125 1350 4075 1350 
Q 3975 1350 3925 1700 
Q 3825 2200 3475 2675 
L 3525 2750 
z
" transform="scale(0.015625)"/>
      <path id="SimSun-968f" d="M 2175 4225 
L 2250 4275 
Q 2800 3825 2850 3625 
Q 2900 3425 2775 3300 
Q 2650 3175 2600 3175 
Q 2500 3175 2475 3425 
Q 2425 3800 2175 4225 
z
M 6050 0 
L 6050 -100 
Q 5650 -175 5625 -475 
Q 4975 -450 4487 -425 
Q 4000 -400 3650 -262 
Q 3300 -125 3050 150 
Q 2875 300 2750 300 
Q 2650 300 2487 162 
Q 2325 25 2125 -375 
L 1750 -100 
Q 2100 175 2575 450 
L 2575 2300 
Q 2525 2300 2250 2225 
L 2025 2450 
L 2550 2450 
L 2700 2650 
L 3075 2375 
L 2875 2225 
L 2875 475 
Q 3325 75 3762 0 
Q 4200 -75 4725 -62 
Q 5250 -50 6050 0 
z
M 600 4900 
L 950 4675 
L 1700 4675 
L 1900 4900 
L 2300 4625 
L 2075 4450 
L 1475 3000 
Q 1650 2775 1900 2475 
Q 2125 2175 2162 1975 
Q 2200 1775 2200 1650 
Q 2200 1400 2075 1150 
Q 1950 900 1400 800 
Q 1400 1075 950 1250 
L 950 -475 
L 600 -650 
Q 625 0 625 2175 
Q 625 4350 600 4900 
z
M 1300 3000 
L 1725 4525 
L 950 4525 
L 950 1350 
Q 1275 1275 1425 1275 
Q 1600 1275 1725 1350 
Q 1850 1425 1850 1675 
Q 1850 1825 1812 2100 
Q 1775 2375 1300 3000 
z
M 3900 3250 
L 3900 2600 
L 5150 2600 
L 5150 3250 
L 3900 3250 
z
M 3575 250 
Q 3600 725 3600 3200 
Q 3350 2875 3000 2625 
L 2950 2675 
Q 3525 3325 3850 4175 
L 3600 4175 
Q 3275 4175 3000 4100 
L 2775 4325 
L 3900 4325 
Q 4100 4925 4100 5150 
L 4600 4900 
Q 4425 4800 4225 4325 
L 5325 4325 
L 5625 4625 
L 6025 4175 
L 4175 4175 
Q 4025 3825 3825 3475 
L 3925 3400 
L 5100 3400 
L 5250 3625 
L 5650 3350 
L 5475 3200 
L 5475 875 
Q 5525 425 5025 275 
Q 5025 550 4525 650 
L 4525 750 
Q 4950 725 5050 725 
Q 5150 725 5150 900 
L 5150 1650 
L 3900 1650 
L 3900 400 
L 3575 250 
z
M 3900 2450 
L 3900 1800 
L 5150 1800 
L 5150 2450 
L 3900 2450 
z
" transform="scale(0.015625)"/>
      <path id="SimSun-53d8" d="M 2750 4225 
L 2750 2225 
L 3650 2225 
L 3650 4225 
L 2750 4225 
z
M 375 4375 
L 3100 4375 
Q 3050 4750 2650 5200 
L 2700 5275 
Q 3150 5075 3325 4925 
Q 3500 4775 3500 4700 
Q 3500 4550 3300 4375 
L 5125 4375 
L 5525 4775 
L 6075 4225 
L 4000 4225 
L 4000 2225 
L 4425 2225 
L 4675 2500 
L 5100 2100 
L 4825 1975 
Q 4300 1325 3525 650 
Q 4500 -50 6125 -175 
L 6125 -275 
Q 5750 -325 5625 -575 
Q 4175 -250 3300 450 
Q 2150 -300 350 -600 
L 325 -500 
Q 2050 -100 3075 675 
Q 2525 1250 2100 2075 
L 1650 2075 
L 1375 2025 
L 1175 2225 
L 2400 2225 
L 2400 4225 
L 1200 4225 
Q 875 4225 600 4150 
L 375 4375 
z
M 2275 2075 
Q 2725 1350 3300 850 
Q 3800 1300 4425 2075 
L 2275 2075 
z
M 1675 3850 
L 2125 3450 
L 1875 3350 
Q 1150 2575 325 1950 
L 250 2025 
Q 700 2425 1087 2937 
Q 1475 3450 1675 3850 
z
M 4350 3700 
Q 5675 3050 5812 2875 
Q 5950 2700 5950 2575 
Q 5950 2475 5900 2375 
Q 5850 2275 5800 2275 
Q 5700 2275 5500 2550 
Q 5200 2950 4275 3625 
L 4350 3700 
z
" transform="scale(0.015625)"/>
      <path id="SimSun-5316" d="M 1375 -600 
Q 1400 200 1400 925 
L 1400 3125 
Q 850 2300 350 1775 
L 275 1850 
Q 825 2625 1300 3650 
Q 1775 4675 1900 5200 
L 2450 4875 
L 2200 4725 
Q 1875 4000 1600 3475 
L 1950 3275 
L 1750 3075 
L 1750 350 
Q 1750 75 1775 -400 
L 1375 -600 
z
M 3450 2125 
L 3450 3925 
Q 3450 4475 3425 5200 
L 4000 4925 
L 3800 4725 
L 3800 2400 
Q 4150 2725 4562 3225 
Q 4975 3725 5150 4025 
L 5600 3600 
L 5325 3525 
Q 4600 2700 3800 2000 
L 3800 425 
Q 3800 0 4225 0 
L 5300 0 
Q 5500 0 5550 325 
Q 5600 650 5600 1325 
L 5725 1325 
Q 5775 650 5850 425 
Q 5925 200 6125 125 
Q 5900 -325 5400 -325 
L 4075 -325 
Q 3450 -325 3450 250 
L 3450 1775 
Q 2800 1275 1950 925 
L 1925 1025 
Q 2800 1525 3450 2125 
z
" transform="scale(0.015625)"/>
      <path id="SimSun-8d8b" d="M 3900 5225 
L 4425 4900 
L 4225 4825 
Q 4000 4475 3800 4150 
L 4750 4150 
L 4975 4425 
L 5400 4025 
Q 5100 4000 4475 3075 
L 5350 3075 
L 5500 3325 
L 5900 3050 
L 5725 2875 
Q 5725 1050 5750 525 
L 5400 375 
L 5400 800 
L 3725 800 
Q 3525 800 3250 725 
L 3025 950 
L 5400 950 
L 5400 1900 
L 4050 1900 
Q 3850 1900 3575 1825 
L 3350 2050 
L 5400 2050 
L 5400 2925 
L 3900 2925 
Q 3700 2925 3425 2850 
L 3200 3075 
L 4350 3075 
L 4775 4000 
L 3725 4000 
Q 3450 3625 3000 3200 
L 2950 3250 
Q 3650 4250 3900 5225 
z
M 300 -550 
L 225 -500 
Q 675 275 787 1112 
Q 900 1950 850 2425 
L 1400 2150 
Q 1250 2075 1212 1812 
Q 1175 1550 1125 1075 
Q 1500 750 1725 625 
L 1725 2825 
L 950 2825 
Q 750 2825 475 2750 
L 250 2975 
L 1600 2975 
L 1600 4025 
L 1225 4025 
Q 1025 4025 750 3950 
L 525 4175 
L 1600 4175 
Q 1600 4675 1575 5225 
L 2125 4975 
L 1925 4800 
L 1925 4175 
L 2400 4175 
L 2700 4475 
L 3100 4025 
L 1925 4025 
L 1925 2975 
L 2475 2975 
L 2800 3275 
L 3200 2825 
L 1750 2825 
L 2250 2600 
L 2050 2400 
L 2050 1800 
L 2625 1800 
L 2925 2100 
L 3300 1650 
L 2050 1650 
L 2050 425 
Q 2925 25 3737 0 
Q 4550 -25 4925 -25 
Q 5625 -25 6150 25 
L 6150 -50 
Q 5700 -250 5700 -475 
Q 4950 -500 4012 -412 
Q 3075 -325 2325 -12 
Q 1575 300 1100 900 
Q 775 -25 300 -550 
z
" transform="scale(0.015625)"/>
      <path id="SimSun-52bf" d="M 1650 4175 
Q 1650 4775 1625 5200 
L 2150 4950 
L 1975 4800 
L 1975 4175 
L 2200 4175 
L 2475 4450 
L 2900 4025 
L 1975 4025 
L 1975 3425 
Q 2400 3525 2800 3625 
L 2825 3525 
Q 2400 3375 1975 3225 
L 1975 2150 
Q 2000 1800 1475 1575 
Q 1450 1850 800 2025 
L 800 2150 
Q 1225 2100 1437 2087 
Q 1650 2075 1650 2325 
L 1650 3100 
Q 700 2750 700 2650 
L 400 3100 
Q 575 3100 1650 3350 
L 1650 4025 
L 1300 4025 
Q 975 4025 700 3950 
L 475 4175 
L 1650 4175 
z
M 3650 4175 
L 3650 4525 
Q 3650 4875 3625 5225 
L 4175 4975 
L 3975 4800 
L 3975 4200 
L 4700 4250 
L 4850 4475 
L 5200 4200 
L 5025 4050 
Q 5000 3900 5000 3575 
Q 5000 3225 5050 2812 
Q 5100 2400 5425 2175 
Q 5600 2650 5700 3050 
L 5800 3025 
Q 5725 2525 5725 2250 
Q 5725 1975 5825 1775 
Q 5900 1650 5775 1650 
Q 5725 1650 5475 1750 
Q 5225 1850 5012 2137 
Q 4800 2425 4737 2750 
Q 4675 3075 4675 3475 
Q 4675 3850 4700 4100 
L 3975 4050 
Q 3925 3450 3750 3050 
Q 4100 2900 4262 2787 
Q 4425 2675 4387 2475 
Q 4350 2275 4275 2275 
Q 4225 2275 4125 2400 
Q 3925 2625 3625 2825 
Q 3225 2225 2100 1800 
L 2050 1875 
Q 3075 2400 3375 2975 
Q 3225 3100 2850 3300 
L 2900 3375 
Q 3225 3275 3475 3175 
Q 3600 3500 3650 4025 
L 3300 4000 
L 3125 3925 
L 2875 4125 
L 3650 4175 
z
M 2600 1425 
Q 2675 1700 2700 2025 
L 3175 1775 
L 3000 1650 
L 2950 1425 
L 4725 1425 
L 4875 1675 
L 5325 1375 
L 5125 1225 
Q 5050 400 4987 112 
Q 4925 -175 4750 -350 
Q 4575 -525 4225 -600 
Q 4250 -350 3650 -50 
L 3675 50 
Q 4225 -100 4412 -87 
Q 4600 -75 4675 312 
Q 4750 700 4775 1275 
L 2925 1275 
Q 2800 775 2575 450 
Q 2350 125 1875 -162 
Q 1400 -450 450 -650 
L 400 -550 
Q 1500 -225 1950 200 
Q 2400 625 2575 1275 
L 1450 1275 
Q 1125 1275 850 1200 
L 625 1425 
L 2600 1425 
z
" transform="scale(0.015625)"/>
     </defs>
     <use xlink:href="#STIXGeneral-Regular-70" transform="translate(0 0.578125)"/>
     <use xlink:href="#STIXGeneral-Regular-72" transform="translate(49.999985 0.578125)"/>
     <use xlink:href="#STIXGeneral-Regular-6f" transform="translate(83.299973 0.578125)"/>
     <use xlink:href="#STIXGeneral-Regular-74" transform="translate(133.299957 0.578125)"/>
     <use xlink:href="#STIXGeneral-Regular-6f" transform="translate(161.099945 0.578125)"/>
     <use xlink:href="#STIXGeneral-Regular-26" transform="translate(235.16635 0.578125)"/>
     <use xlink:href="#STIXGeneral-Regular-6d" transform="translate(337.032757 0.578125)"/>
     <use xlink:href="#STIXGeneral-Regular-69" transform="translate(414.832745 0.578125)"/>
     <use xlink:href="#STIXGeneral-Regular-63" transform="translate(442.632733 0.578125)"/>
     <use xlink:href="#STIXGeneral-Regular-61" transform="translate(487.032727 0.578125)"/>
     <use xlink:href="#STIXGeneral-Regular-2a" transform="translate(545.872717 0.578125)"/>
     <use xlink:href="#SimSun-7684" transform="translate(610.312698 0.578125)"/>
     <use xlink:href="#SimSun-541e" transform="translate(710.312698 0.578125)"/>
     <use xlink:href="#SimSun-5410" transform="translate(810.312698 0.578125)"/>
     <use xlink:href="#SimSun-91cf" transform="translate(910.312698 0.578125)"/>
     <use xlink:href="#SimSun-968f" transform="translate(1010.312698 0.578125)"/>
     <use xlink:href="#SimSun-7d22" transform="translate(1110.312698 0.578125)"/>
     <use xlink:href="#SimSun-5f15" transform="translate(1210.312698 0.578125)"/>
     <use xlink:href="#SimSun-88c5" transform="translate(1310.312698 0.578125)"/>
     <use xlink:href="#SimSun-8f7d" transform="translate(1410.312698 0.578125)"/>
     <use xlink:href="#SimSun-7387" transform="translate(1510.312698 0.578125)"/>
     <use xlink:href="#SimSun-7684" transform="translate(1610.312698 0.578125)"/>
     <use xlink:href="#SimSun-53d8" transform="translate(1710.312698 0.578125)"/>
     <use xlink:href="#SimSun-5316" transform="translate(1810.312698 0.578125)"/>
     <use xlink:href="#SimSun-8d8b" transform="translate(1910.312698 0.578125)"/>
     <use xlink:href="#SimSun-52bf" transform="translate(2010.312698 0.578125)"/>
    </g>
   </g>
   <g id="legend_1">
    <g id="patch_7">
     <path d="M 699.414688 158.000656 
L 816.14 158.000656 
Q 819.94 158.000656 819.94 154.200656 
L 819.94 75.508 
Q 819.94 71.708 816.14 71.708 
L 699.414688 71.708 
Q 695.614688 71.708 695.614688 75.508 
L 695.614688 154.200656 
Q 695.614688 158.000656 699.414688 158.000656 
z
" style="fill: #ffffff; opacity: 0.8; stroke: #cccccc; stroke-linejoin: miter"/>
    </g>
    <g id="line2d_28">
     <path d="M 703.214688 85.958 
L 722.214688 85.958 
L 741.214688 85.958 
" style="fill: none; stroke: #ff0000; stroke-width: 1.5; stroke-linecap: square"/>
    </g>
    <g id="text_28">
     <!-- memc3 -->
     <g transform="translate(756.414688 92.608) scale(0.19 -0.19)">
      <defs>
       <path id="TimesNewRomanPSMT-6d" d="M 1050 2338 
Q 1363 2650 1419 2697 
Q 1559 2816 1721 2881 
Q 1884 2947 2044 2947 
Q 2313 2947 2506 2790 
Q 2700 2634 2766 2338 
Q 3088 2713 3309 2830 
Q 3531 2947 3766 2947 
Q 3994 2947 4170 2830 
Q 4347 2713 4450 2447 
Q 4519 2266 4519 1878 
L 4519 647 
Q 4519 378 4559 278 
Q 4591 209 4675 161 
Q 4759 113 4950 113 
L 4950 0 
L 3538 0 
L 3538 113 
L 3597 113 
Q 3781 113 3884 184 
Q 3956 234 3988 344 
Q 4000 397 4000 647 
L 4000 1878 
Q 4000 2228 3916 2372 
Q 3794 2572 3525 2572 
Q 3359 2572 3192 2489 
Q 3025 2406 2788 2181 
L 2781 2147 
L 2788 2013 
L 2788 647 
Q 2788 353 2820 281 
Q 2853 209 2943 161 
Q 3034 113 3253 113 
L 3253 0 
L 1806 0 
L 1806 113 
Q 2044 113 2133 169 
Q 2222 225 2256 338 
Q 2272 391 2272 647 
L 2272 1878 
Q 2272 2228 2169 2381 
Q 2031 2581 1784 2581 
Q 1616 2581 1450 2491 
Q 1191 2353 1050 2181 
L 1050 647 
Q 1050 366 1089 281 
Q 1128 197 1204 155 
Q 1281 113 1516 113 
L 1516 0 
L 100 0 
L 100 113 
Q 297 113 375 155 
Q 453 197 493 289 
Q 534 381 534 647 
L 534 1741 
Q 534 2213 506 2350 
Q 484 2453 437 2492 
Q 391 2531 309 2531 
Q 222 2531 100 2484 
L 53 2597 
L 916 2947 
L 1050 2947 
L 1050 2338 
z
" transform="scale(0.015625)"/>
       <path id="TimesNewRomanPSMT-65" d="M 681 1784 
Q 678 1147 991 784 
Q 1303 422 1725 422 
Q 2006 422 2214 576 
Q 2422 731 2563 1106 
L 2659 1044 
Q 2594 616 2278 264 
Q 1963 -88 1488 -88 
Q 972 -88 605 314 
Q 238 716 238 1394 
Q 238 2128 614 2539 
Q 991 2950 1559 2950 
Q 2041 2950 2350 2633 
Q 2659 2316 2659 1784 
L 681 1784 
z
M 681 1966 
L 2006 1966 
Q 1991 2241 1941 2353 
Q 1863 2528 1708 2628 
Q 1553 2728 1384 2728 
Q 1125 2728 920 2526 
Q 716 2325 681 1966 
z
" transform="scale(0.015625)"/>
       <path id="TimesNewRomanPSMT-63" d="M 2631 1088 
Q 2516 522 2178 217 
Q 1841 -88 1431 -88 
Q 944 -88 581 321 
Q 219 731 219 1428 
Q 219 2103 620 2525 
Q 1022 2947 1584 2947 
Q 2006 2947 2278 2723 
Q 2550 2500 2550 2259 
Q 2550 2141 2473 2067 
Q 2397 1994 2259 1994 
Q 2075 1994 1981 2113 
Q 1928 2178 1911 2362 
Q 1894 2547 1784 2644 
Q 1675 2738 1481 2738 
Q 1169 2738 978 2506 
Q 725 2200 725 1697 
Q 725 1184 976 792 
Q 1228 400 1656 400 
Q 1963 400 2206 609 
Q 2378 753 2541 1131 
L 2631 1088 
z
" transform="scale(0.015625)"/>
       <path id="TimesNewRomanPSMT-33" d="M 325 3431 
Q 506 3859 782 4092 
Q 1059 4325 1472 4325 
Q 1981 4325 2253 3994 
Q 2459 3747 2459 3466 
Q 2459 3003 1878 2509 
Q 2269 2356 2469 2072 
Q 2669 1788 2669 1403 
Q 2669 853 2319 450 
Q 1863 -75 997 -75 
Q 569 -75 414 31 
Q 259 138 259 259 
Q 259 350 332 419 
Q 406 488 509 488 
Q 588 488 669 463 
Q 722 447 909 348 
Q 1097 250 1169 231 
Q 1284 197 1416 197 
Q 1734 197 1970 444 
Q 2206 691 2206 1028 
Q 2206 1275 2097 1509 
Q 2016 1684 1919 1775 
Q 1784 1900 1550 2001 
Q 1316 2103 1072 2103 
L 972 2103 
L 972 2197 
Q 1219 2228 1467 2375 
Q 1716 2522 1828 2728 
Q 1941 2934 1941 3181 
Q 1941 3503 1739 3701 
Q 1538 3900 1238 3900 
Q 753 3900 428 3381 
L 325 3431 
z
" transform="scale(0.015625)"/>
      </defs>
      <use xlink:href="#TimesNewRomanPSMT-6d"/>
      <use xlink:href="#TimesNewRomanPSMT-65" x="77.783203"/>
      <use xlink:href="#TimesNewRomanPSMT-6d" x="122.167969"/>
      <use xlink:href="#TimesNewRomanPSMT-63" x="199.951172"/>
      <use xlink:href="#TimesNewRomanPSMT-33" x="244.335938"/>
     </g>
    </g>
    <g id="line2d_29">
     <path d="M 703.214688 112.822219 
L 722.214688 112.822219 
L 741.214688 112.822219 
" style="fill: none; stroke: #0000ff; stroke-width: 1.5; stroke-linecap: square"/>
    </g>
    <g id="text_29">
     <!-- mica -->
     <g transform="translate(756.414688 119.472219) scale(0.19 -0.19)">
      <defs>
       <path id="TimesNewRomanPSMT-69" d="M 928 4444 
Q 1059 4444 1151 4351 
Q 1244 4259 1244 4128 
Q 1244 3997 1151 3903 
Q 1059 3809 928 3809 
Q 797 3809 703 3903 
Q 609 3997 609 4128 
Q 609 4259 701 4351 
Q 794 4444 928 4444 
z
M 1188 2947 
L 1188 647 
Q 1188 378 1227 289 
Q 1266 200 1342 156 
Q 1419 113 1622 113 
L 1622 0 
L 231 0 
L 231 113 
Q 441 113 512 153 
Q 584 194 626 287 
Q 669 381 669 647 
L 669 1750 
Q 669 2216 641 2353 
Q 619 2453 572 2492 
Q 525 2531 444 2531 
Q 356 2531 231 2484 
L 188 2597 
L 1050 2947 
L 1188 2947 
z
" transform="scale(0.015625)"/>
       <path id="TimesNewRomanPSMT-61" d="M 1822 413 
Q 1381 72 1269 19 
Q 1100 -59 909 -59 
Q 613 -59 420 144 
Q 228 347 228 678 
Q 228 888 322 1041 
Q 450 1253 767 1440 
Q 1084 1628 1822 1897 
L 1822 2009 
Q 1822 2438 1686 2597 
Q 1550 2756 1291 2756 
Q 1094 2756 978 2650 
Q 859 2544 859 2406 
L 866 2225 
Q 866 2081 792 2003 
Q 719 1925 600 1925 
Q 484 1925 411 2006 
Q 338 2088 338 2228 
Q 338 2497 613 2722 
Q 888 2947 1384 2947 
Q 1766 2947 2009 2819 
Q 2194 2722 2281 2516 
Q 2338 2381 2338 1966 
L 2338 994 
Q 2338 584 2353 492 
Q 2369 400 2405 369 
Q 2441 338 2488 338 
Q 2538 338 2575 359 
Q 2641 400 2828 588 
L 2828 413 
Q 2478 -56 2159 -56 
Q 2006 -56 1915 50 
Q 1825 156 1822 413 
z
M 1822 616 
L 1822 1706 
Q 1350 1519 1213 1441 
Q 966 1303 859 1153 
Q 753 1003 753 825 
Q 753 600 887 451 
Q 1022 303 1197 303 
Q 1434 303 1822 616 
z
" transform="scale(0.015625)"/>
      </defs>
      <use xlink:href="#TimesNewRomanPSMT-6d"/>
      <use xlink:href="#TimesNewRomanPSMT-69" x="77.783203"/>
      <use xlink:href="#TimesNewRomanPSMT-63" x="105.566406"/>
      <use xlink:href="#TimesNewRomanPSMT-61" x="149.951172"/>
     </g>
    </g>
    <g id="line2d_30">
     <path d="M 703.214688 139.686437 
L 722.214688 139.686437 
L 741.214688 139.686437 
" style="fill: none; stroke: #9467bd; stroke-width: 1.5; stroke-linecap: square"/>
    </g>
    <g id="text_30">
     <!-- proto -->
     <g transform="translate(756.414688 146.336437) scale(0.19 -0.19)">
      <defs>
       <path id="TimesNewRomanPSMT-70" d="M -6 2578 
L 875 2934 
L 994 2934 
L 994 2266 
Q 1216 2644 1439 2795 
Q 1663 2947 1909 2947 
Q 2341 2947 2628 2609 
Q 2981 2197 2981 1534 
Q 2981 794 2556 309 
Q 2206 -88 1675 -88 
Q 1444 -88 1275 -22 
Q 1150 25 994 166 
L 994 -706 
Q 994 -1000 1030 -1079 
Q 1066 -1159 1155 -1206 
Q 1244 -1253 1478 -1253 
L 1478 -1369 
L -22 -1369 
L -22 -1253 
L 56 -1253 
Q 228 -1256 350 -1188 
Q 409 -1153 442 -1076 
Q 475 -1000 475 -688 
L 475 2019 
Q 475 2297 450 2372 
Q 425 2447 370 2484 
Q 316 2522 222 2522 
Q 147 2522 31 2478 
L -6 2578 
z
M 994 2081 
L 994 1013 
Q 994 666 1022 556 
Q 1066 375 1236 237 
Q 1406 100 1666 100 
Q 1978 100 2172 344 
Q 2425 663 2425 1241 
Q 2425 1897 2138 2250 
Q 1938 2494 1663 2494 
Q 1513 2494 1366 2419 
Q 1253 2363 994 2081 
z
" transform="scale(0.015625)"/>
       <path id="TimesNewRomanPSMT-72" d="M 1038 2947 
L 1038 2303 
Q 1397 2947 1775 2947 
Q 1947 2947 2059 2842 
Q 2172 2738 2172 2600 
Q 2172 2478 2090 2393 
Q 2009 2309 1897 2309 
Q 1788 2309 1652 2417 
Q 1516 2525 1450 2525 
Q 1394 2525 1328 2463 
Q 1188 2334 1038 2041 
L 1038 669 
Q 1038 431 1097 309 
Q 1138 225 1241 169 
Q 1344 113 1538 113 
L 1538 0 
L 72 0 
L 72 113 
Q 291 113 397 181 
Q 475 231 506 341 
Q 522 394 522 644 
L 522 1753 
Q 522 2253 501 2348 
Q 481 2444 426 2487 
Q 372 2531 291 2531 
Q 194 2531 72 2484 
L 41 2597 
L 906 2947 
L 1038 2947 
z
" transform="scale(0.015625)"/>
       <path id="TimesNewRomanPSMT-6f" d="M 1600 2947 
Q 2250 2947 2644 2453 
Q 2978 2031 2978 1484 
Q 2978 1100 2793 706 
Q 2609 313 2286 112 
Q 1963 -88 1566 -88 
Q 919 -88 538 428 
Q 216 863 216 1403 
Q 216 1797 411 2186 
Q 606 2575 925 2761 
Q 1244 2947 1600 2947 
z
M 1503 2744 
Q 1338 2744 1170 2645 
Q 1003 2547 900 2300 
Q 797 2053 797 1666 
Q 797 1041 1045 587 
Q 1294 134 1700 134 
Q 2003 134 2200 384 
Q 2397 634 2397 1244 
Q 2397 2006 2069 2444 
Q 1847 2744 1503 2744 
z
" transform="scale(0.015625)"/>
       <path id="TimesNewRomanPSMT-74" d="M 1031 3803 
L 1031 2863 
L 1700 2863 
L 1700 2644 
L 1031 2644 
L 1031 788 
Q 1031 509 1111 412 
Q 1191 316 1316 316 
Q 1419 316 1516 380 
Q 1613 444 1666 569 
L 1788 569 
Q 1678 263 1478 108 
Q 1278 -47 1066 -47 
Q 922 -47 784 33 
Q 647 113 581 261 
Q 516 409 516 719 
L 516 2644 
L 63 2644 
L 63 2747 
Q 234 2816 414 2980 
Q 594 3144 734 3369 
Q 806 3488 934 3803 
L 1031 3803 
z
" transform="scale(0.015625)"/>
      </defs>
      <use xlink:href="#TimesNewRomanPSMT-70"/>
      <use xlink:href="#TimesNewRomanPSMT-72" x="50"/>
      <use xlink:href="#TimesNewRomanPSMT-6f" x="83.300781"/>
      <use xlink:href="#TimesNewRomanPSMT-74" x="133.300781"/>
      <use xlink:href="#TimesNewRomanPSMT-6f" x="161.083984"/>
     </g>
    </g>
   </g>
  </g>
 </g>
 <defs>
  <clipPath id="p6d65bfcfb0">
   <rect x="115.2" y="62.208" width="714.24" height="399.168"/>
  </clipPath>
 </defs>
</svg>
