<?xml version="1.0" encoding="utf-8" standalone="no"?>
<!DOCTYPE svg PUBLIC "-//W3C//DTD SVG 1.1//EN"
  "http://www.w3.org/Graphics/SVG/1.1/DTD/svg11.dtd">
<svg xmlns:xlink="http://www.w3.org/1999/xlink" width="921.6pt" height="518.4pt" viewBox="0 0 921.6 518.4" xmlns="http://www.w3.org/2000/svg" version="1.1">
 <metadata>
  <rdf:RDF xmlns:dc="http://purl.org/dc/elements/1.1/" xmlns:cc="http://creativecommons.org/ns#" xmlns:rdf="http://www.w3.org/1999/02/22-rdf-syntax-ns#">
   <cc:Work>
    <dc:type rdf:resource="http://purl.org/dc/dcmitype/StillImage"/>
    <dc:date>2023-08-11T10:09:58.857471</dc:date>
    <dc:format>image/svg+xml</dc:format>
    <dc:creator>
     <cc:Agent>
      <dc:title>Matplotlib v3.7.1, https://matplotlib.org/</dc:title>
     </cc:Agent>
    </dc:creator>
   </cc:Work>
  </rdf:RDF>
 </metadata>
 <defs>
  <style type="text/css">*{stroke-linejoin: round; stroke-linecap: butt}</style>
 </defs>
 <g id="figure_1">
  <g id="patch_1">
   <path d="M 0 518.4 
L 921.6 518.4 
L 921.6 0 
L 0 0 
z
" style="fill: #ffffff"/>
  </g>
  <g id="axes_1">
   <g id="patch_2">
    <path d="M 115.2 461.376 
L 829.44 461.376 
L 829.44 62.208 
L 115.2 62.208 
z
" style="fill: #ffffff"/>
   </g>
   <g id="matplotlib.axis_1">
    <g id="xtick_1">
     <g id="line2d_1">
      <defs>
       <path id="m4933deb055" d="M 0 0 
L 0 3.5 
" style="stroke: #000000; stroke-width: 0.8"/>
      </defs>
      <g>
       <use xlink:href="#m4933deb055" x="115.2" y="461.376" style="stroke: #000000; stroke-width: 0.8"/>
      </g>
     </g>
     <g id="text_1">
      <!-- 0 -->
      <g transform="translate(110.45 481.958031) scale(0.19 -0.19)">
       <defs>
        <path id="SimSun-30" d="M 1600 4225 
Q 1250 4225 1012 3687 
Q 775 3150 775 2250 
Q 775 1300 1012 775 
Q 1250 250 1600 250 
Q 1975 250 2187 775 
Q 2400 1300 2400 2250 
Q 2400 3150 2200 3687 
Q 2000 4225 1600 4225 
z
M 1600 50 
Q 1050 50 675 625 
Q 300 1200 300 2250 
Q 300 3225 662 3825 
Q 1025 4425 1600 4425 
Q 2150 4425 2512 3850 
Q 2875 3275 2875 2250 
Q 2875 1225 2512 637 
Q 2150 50 1600 50 
z
" transform="scale(0.015625)"/>
       </defs>
       <use xlink:href="#SimSun-30"/>
      </g>
     </g>
    </g>
    <g id="xtick_2">
     <g id="line2d_2">
      <g>
       <use xlink:href="#m4933deb055" x="234.24" y="461.376" style="stroke: #000000; stroke-width: 0.8"/>
      </g>
     </g>
     <g id="text_2">
      <!-- 50 -->
      <g transform="translate(224.74 481.958031) scale(0.19 -0.19)">
       <defs>
        <path id="SimSun-35" d="M 1725 2850 
Q 2200 2850 2500 2487 
Q 2800 2125 2800 1525 
Q 2800 850 2487 450 
Q 2175 50 1525 50 
Q 1075 50 725 312 
Q 375 575 375 950 
Q 375 1100 462 1212 
Q 550 1325 700 1325 
Q 850 1325 900 1225 
Q 950 1125 950 1050 
Q 950 900 875 825 
Q 800 725 800 625 
Q 800 425 1037 325 
Q 1275 225 1550 225 
Q 1950 225 2162 550 
Q 2375 875 2375 1475 
Q 2375 1975 2187 2287 
Q 2000 2600 1625 2600 
Q 1350 2600 1150 2500 
Q 950 2400 775 2075 
L 550 2100 
L 675 4375 
L 2725 4375 
L 2650 4000 
L 850 4000 
L 750 2350 
Q 1000 2700 1237 2775 
Q 1475 2850 1725 2850 
z
" transform="scale(0.015625)"/>
       </defs>
       <use xlink:href="#SimSun-35"/>
       <use xlink:href="#SimSun-30" x="50"/>
      </g>
     </g>
    </g>
    <g id="xtick_3">
     <g id="line2d_3">
      <g>
       <use xlink:href="#m4933deb055" x="353.28" y="461.376" style="stroke: #000000; stroke-width: 0.8"/>
      </g>
     </g>
     <g id="text_3">
      <!-- 100 -->
      <g transform="translate(339.03 481.958031) scale(0.19 -0.19)">
       <defs>
        <path id="SimSun-31" d="M 1825 4450 
L 1825 650 
Q 1825 450 1950 350 
Q 2075 250 2300 250 
L 2550 250 
L 2550 100 
L 725 100 
L 725 250 
L 950 250 
Q 1200 250 1312 350 
Q 1425 450 1425 650 
L 1425 3675 
Q 1425 3775 1362 3837 
Q 1300 3900 1175 3900 
L 725 3900 
L 725 4050 
L 950 4050 
Q 1250 4050 1437 4150 
Q 1625 4250 1725 4450 
L 1825 4450 
z
" transform="scale(0.015625)"/>
       </defs>
       <use xlink:href="#SimSun-31"/>
       <use xlink:href="#SimSun-30" x="50"/>
       <use xlink:href="#SimSun-30" x="100"/>
      </g>
     </g>
    </g>
    <g id="xtick_4">
     <g id="line2d_4">
      <g>
       <use xlink:href="#m4933deb055" x="472.32" y="461.376" style="stroke: #000000; stroke-width: 0.8"/>
      </g>
     </g>
     <g id="text_4">
      <!-- 150 -->
      <g transform="translate(458.07 481.958031) scale(0.19 -0.19)">
       <use xlink:href="#SimSun-31"/>
       <use xlink:href="#SimSun-35" x="50"/>
       <use xlink:href="#SimSun-30" x="100"/>
      </g>
     </g>
    </g>
    <g id="xtick_5">
     <g id="line2d_5">
      <g>
       <use xlink:href="#m4933deb055" x="591.36" y="461.376" style="stroke: #000000; stroke-width: 0.8"/>
      </g>
     </g>
     <g id="text_5">
      <!-- 200 -->
      <g transform="translate(577.11 481.958031) scale(0.19 -0.19)">
       <defs>
        <path id="SimSun-32" d="M 2325 3325 
Q 2325 3775 2125 4012 
Q 1925 4250 1525 4250 
Q 1225 4250 1012 4087 
Q 800 3925 800 3675 
Q 800 3525 900 3425 
Q 975 3325 975 3225 
Q 975 3100 912 3037 
Q 850 2975 725 2975 
Q 575 2975 487 3062 
Q 400 3150 400 3350 
Q 400 3875 775 4150 
Q 1150 4425 1575 4425 
Q 2175 4425 2462 4125 
Q 2750 3825 2750 3375 
Q 2750 3075 2612 2775 
Q 2475 2475 2175 2200 
Q 1450 1500 1062 1062 
Q 675 625 600 475 
L 2075 475 
Q 2300 475 2450 650 
Q 2600 825 2650 1175 
L 2800 1175 
L 2650 100 
L 325 100 
L 325 425 
Q 450 650 737 1000 
Q 1025 1350 1500 1825 
Q 1925 2250 2125 2625 
Q 2325 3000 2325 3325 
z
" transform="scale(0.015625)"/>
       </defs>
       <use xlink:href="#SimSun-32"/>
       <use xlink:href="#SimSun-30" x="50"/>
       <use xlink:href="#SimSun-30" x="100"/>
      </g>
     </g>
    </g>
    <g id="xtick_6">
     <g id="line2d_6">
      <g>
       <use xlink:href="#m4933deb055" x="710.4" y="461.376" style="stroke: #000000; stroke-width: 0.8"/>
      </g>
     </g>
     <g id="text_6">
      <!-- 250 -->
      <g transform="translate(696.15 481.958031) scale(0.19 -0.19)">
       <use xlink:href="#SimSun-32"/>
       <use xlink:href="#SimSun-35" x="50"/>
       <use xlink:href="#SimSun-30" x="100"/>
      </g>
     </g>
    </g>
    <g id="xtick_7">
     <g id="line2d_7">
      <g>
       <use xlink:href="#m4933deb055" x="829.44" y="461.376" style="stroke: #000000; stroke-width: 0.8"/>
      </g>
     </g>
     <g id="text_7">
      <!-- 300 -->
      <g transform="translate(815.19 481.958031) scale(0.19 -0.19)">
       <defs>
        <path id="SimSun-33" d="M 2800 1250 
Q 2800 775 2450 412 
Q 2100 50 1475 50 
Q 1025 50 700 300 
Q 375 550 375 875 
Q 375 1025 475 1137 
Q 575 1250 675 1250 
Q 825 1250 887 1137 
Q 950 1025 950 950 
Q 950 825 900 750 
Q 850 650 850 575 
Q 850 425 1037 325 
Q 1225 225 1450 225 
Q 1900 225 2125 487 
Q 2350 750 2350 1300 
Q 2350 1750 2112 2025 
Q 1875 2300 1225 2300 
L 1225 2475 
Q 1725 2475 1962 2712 
Q 2200 2950 2200 3375 
Q 2200 3725 2012 3987 
Q 1825 4250 1425 4250 
Q 1250 4250 1050 4162 
Q 850 4075 850 3875 
Q 850 3675 900 3625 
Q 950 3575 950 3500 
Q 950 3375 900 3300 
Q 850 3225 725 3225 
Q 625 3225 537 3300 
Q 450 3375 450 3575 
Q 450 3950 775 4187 
Q 1100 4425 1525 4425 
Q 2025 4425 2325 4112 
Q 2625 3800 2625 3450 
Q 2625 3075 2437 2812 
Q 2250 2550 1850 2425 
Q 2400 2225 2600 1900 
Q 2800 1575 2800 1250 
z
" transform="scale(0.015625)"/>
       </defs>
       <use xlink:href="#SimSun-33"/>
       <use xlink:href="#SimSun-30" x="50"/>
       <use xlink:href="#SimSun-30" x="100"/>
      </g>
     </g>
    </g>
    <g id="text_8">
     <!-- 请求数 $\mathrm{(M)}$ -->
     <g transform="translate(424.25 504.17725) scale(0.19 -0.19)">
      <defs>
       <path id="SimSun-8bf7" d="M 3800 4400 
Q 3800 4925 3775 5250 
L 4350 5000 
L 4150 4825 
L 4150 4400 
L 5175 4400 
L 5525 4725 
L 5950 4250 
L 4150 4250 
L 4150 3725 
L 4875 3725 
L 5200 4025 
L 5600 3575 
L 4150 3575 
L 4150 2950 
L 5325 2950 
L 5675 3275 
L 6100 2800 
L 2650 2800 
Q 2450 2800 2175 2725 
L 1950 2950 
L 3800 2950 
L 3800 3575 
L 3225 3575 
Q 3025 3575 2750 3500 
L 2525 3725 
L 3800 3725 
L 3800 4250 
L 2850 4250 
Q 2650 4250 2375 4175 
L 2150 4400 
L 3800 4400 
z
M 3075 2150 
L 3075 1650 
L 4975 1650 
L 4975 2150 
L 3075 2150 
z
M 3075 1500 
L 3075 925 
L 4975 925 
L 4975 1500 
L 3075 1500 
z
M 2725 2500 
L 3050 2300 
L 4925 2300 
L 5075 2525 
L 5475 2225 
L 5300 2075 
L 5300 50 
Q 5325 -425 4750 -600 
Q 4750 -275 4075 -125 
L 4075 -25 
Q 4500 -50 4750 -62 
Q 5000 -75 4975 175 
L 4975 775 
L 3075 775 
L 3075 -450 
L 2725 -625 
Q 2750 125 2750 1000 
Q 2750 1875 2725 2500 
z
M 850 5000 
L 925 5050 
Q 1375 4750 1512 4562 
Q 1650 4375 1600 4200 
Q 1550 4025 1450 3950 
L 1325 3875 
Q 1225 3875 1200 4150 
Q 1150 4500 850 5000 
z
M 200 3075 
L 1100 3075 
L 1300 3325 
L 1725 3000 
L 1500 2825 
L 1500 600 
L 2400 1425 
L 2475 1350 
Q 1775 525 1400 -150 
L 1050 250 
Q 1150 400 1150 600 
L 1150 2925 
L 900 2925 
Q 700 2925 425 2850 
L 200 3075 
z
" transform="scale(0.015625)"/>
       <path id="SimSun-6c42" d="M 3950 5025 
Q 4500 4825 4737 4687 
Q 4975 4550 4975 4350 
Q 4975 4300 4912 4125 
Q 4850 3950 4800 3950 
Q 4725 3950 4625 4150 
Q 4425 4475 3900 4950 
L 3950 5025 
z
M 2900 5225 
L 3500 4900 
L 3300 4700 
L 3300 3775 
L 5050 3775 
L 5400 4150 
L 5900 3625 
L 3325 3625 
Q 3650 2575 4000 2000 
Q 4725 2575 5100 3125 
L 5525 2650 
Q 5250 2600 4950 2425 
Q 4650 2225 4050 1875 
Q 4900 650 6100 375 
L 6100 275 
Q 5675 225 5525 -75 
Q 3750 900 3300 3325 
L 3300 175 
Q 3325 -425 2675 -600 
Q 2650 -250 1925 -25 
L 1925 75 
Q 2475 25 2687 25 
Q 2900 25 2925 250 
L 2925 1700 
Q 1950 1075 1387 700 
Q 825 325 700 100 
L 300 600 
Q 575 650 1225 975 
Q 1875 1300 2925 1850 
L 2925 3625 
L 1275 3625 
Q 950 3625 675 3550 
L 450 3775 
L 2925 3775 
Q 2925 4850 2900 5225 
z
M 1050 3175 
Q 1775 2900 1975 2712 
Q 2175 2525 2175 2350 
Q 2175 2250 2075 2075 
Q 1975 1900 1925 1900 
Q 1850 1900 1750 2175 
Q 1575 2575 1000 3100 
L 1050 3175 
z
" transform="scale(0.015625)"/>
       <path id="SimSun-6570" d="M 1875 1525 
Q 1675 1200 1500 900 
Q 1825 825 2275 725 
Q 2500 975 2725 1525 
L 1875 1525 
z
M 850 4900 
Q 1325 4600 1425 4450 
Q 1525 4300 1525 4225 
Q 1525 4100 1437 3975 
Q 1350 3850 1300 3850 
Q 1225 3850 1150 4100 
Q 1050 4450 775 4850 
L 850 4900 
z
M 3000 4975 
L 3450 4675 
Q 3250 4625 3100 4425 
Q 2925 4225 2525 3825 
L 2450 3875 
Q 2925 4625 3000 4975 
z
M 1875 5250 
L 2425 5000 
L 2225 4825 
L 2225 3675 
L 2850 3675 
L 3125 3950 
L 3550 3525 
L 2225 3525 
L 2225 3300 
Q 2800 3175 2937 3062 
Q 3075 2950 3075 2775 
Q 3075 2700 3050 2587 
Q 3025 2475 2975 2475 
Q 2925 2475 2800 2650 
Q 2600 2925 2225 3175 
L 2225 2400 
L 1925 2200 
L 2275 2050 
Q 2150 2000 1950 1675 
L 2725 1675 
L 2900 1900 
L 3275 1575 
L 3050 1450 
Q 2800 875 2600 650 
Q 3000 550 3137 437 
Q 3275 325 3275 150 
Q 3275 -25 3200 -25 
Q 3125 -25 3025 75 
Q 2750 275 2400 425 
Q 1525 -275 325 -500 
L 300 -425 
Q 1450 -50 2100 550 
Q 1600 725 1125 800 
Q 1225 950 1525 1525 
L 1200 1525 
Q 875 1525 600 1450 
L 375 1675 
L 1575 1675 
Q 1675 1925 1775 2275 
L 1900 2225 
L 1900 3250 
Q 1225 2475 350 2050 
L 300 2125 
Q 1225 2775 1700 3525 
L 1250 3525 
Q 925 3525 650 3450 
L 425 3675 
L 1900 3675 
Q 1900 4575 1875 5250 
z
M 3925 3525 
Q 4050 2075 4525 1100 
Q 4925 1950 5025 3525 
L 3925 3525 
z
M 4050 5250 
L 4625 4925 
Q 4425 4850 4325 4625 
Q 4225 4400 3950 3675 
L 5375 3675 
L 5675 3975 
L 6125 3525 
L 5400 3525 
Q 5250 1675 4750 775 
Q 5325 75 6100 -100 
L 6100 -200 
Q 5625 -275 5600 -500 
Q 4950 -50 4525 525 
Q 3700 -275 2550 -650 
L 2500 -575 
Q 3650 -50 4325 800 
Q 3850 1975 3825 3375 
Q 3575 2725 3100 2150 
L 3025 2200 
Q 3625 3200 4050 5250 
z
" transform="scale(0.015625)"/>
       <path id="SimSun-20" d="M 0 0 
Q 0 0 0 0 
z
" transform="scale(0.015625)"/>
       <path id="STIXGeneral-Regular-28" d="M 1946 -1030 
L 1869 -1133 
Q 1126 -710 716 32 
Q 307 774 307 1613 
Q 307 3386 1888 4326 
L 1946 4224 
Q 1293 3667 1075 3126 
Q 858 2586 858 1632 
Q 858 685 1082 96 
Q 1306 -493 1946 -1030 
z
" transform="scale(0.015625)"/>
       <path id="STIXGeneral-Regular-4d" d="M 5530 0 
L 3738 0 
L 3738 122 
Q 4115 147 4214 265 
Q 4314 384 4314 787 
L 4314 3661 
L 2682 0 
L 2592 0 
L 979 3514 
L 979 966 
Q 979 448 1088 294 
Q 1197 141 1574 122 
L 1574 0 
L 77 0 
L 77 122 
Q 358 141 480 205 
Q 602 269 650 432 
Q 698 595 698 966 
L 698 3514 
Q 698 3878 589 3984 
Q 480 4090 90 4115 
L 90 4237 
L 1357 4237 
L 2835 1024 
L 4250 4237 
L 5523 4237 
L 5523 4115 
Q 5178 4109 5072 3993 
Q 4966 3878 4966 3520 
L 4966 717 
Q 4966 378 5072 262 
Q 5178 147 5530 122 
L 5530 0 
z
" transform="scale(0.015625)"/>
       <path id="STIXGeneral-Regular-29" d="M 186 4224 
L 262 4326 
Q 992 3891 1408 3148 
Q 1824 2406 1824 1581 
Q 1824 -166 243 -1133 
L 186 -1030 
Q 845 -486 1059 54 
Q 1274 595 1274 1562 
Q 1274 2534 1059 3120 
Q 845 3706 186 4224 
z
" transform="scale(0.015625)"/>
      </defs>
      <use xlink:href="#SimSun-8bf7" transform="translate(0 0.96875)"/>
      <use xlink:href="#SimSun-6c42" transform="translate(100 0.96875)"/>
      <use xlink:href="#SimSun-6570" transform="translate(200 0.96875)"/>
      <use xlink:href="#SimSun-20" transform="translate(300 0.96875)"/>
      <use xlink:href="#STIXGeneral-Regular-28" transform="translate(350 0.96875)"/>
      <use xlink:href="#STIXGeneral-Regular-4d" transform="translate(383.299988 0.96875)"/>
      <use xlink:href="#STIXGeneral-Regular-29" transform="translate(472.199982 0.96875)"/>
     </g>
    </g>
   </g>
   <g id="matplotlib.axis_2">
    <g id="ytick_1">
     <g id="line2d_8">
      <defs>
       <path id="m52b066c33c" d="M 0 0 
L -3.5 0 
" style="stroke: #000000; stroke-width: 0.8"/>
      </defs>
      <g>
       <use xlink:href="#m52b066c33c" x="115.2" y="461.376" style="stroke: #000000; stroke-width: 0.8"/>
      </g>
     </g>
     <g id="text_9">
      <!-- 0 -->
      <g transform="translate(98.7 468.167016) scale(0.19 -0.19)">
       <use xlink:href="#SimSun-30"/>
      </g>
     </g>
    </g>
    <g id="ytick_2">
     <g id="line2d_9">
      <g>
       <use xlink:href="#m52b066c33c" x="115.2" y="428.112" style="stroke: #000000; stroke-width: 0.8"/>
      </g>
     </g>
     <g id="text_10">
      <!-- 0.5 -->
      <g transform="translate(79.7 434.903016) scale(0.19 -0.19)">
       <defs>
        <path id="SimSun-2e" d="M 800 25 
Q 650 25 537 125 
Q 425 225 425 400 
Q 425 575 537 675 
Q 650 775 800 775 
Q 950 775 1062 662 
Q 1175 550 1175 400 
Q 1175 225 1062 125 
Q 950 25 800 25 
z
" transform="scale(0.015625)"/>
       </defs>
       <use xlink:href="#SimSun-30"/>
       <use xlink:href="#SimSun-2e" x="50"/>
       <use xlink:href="#SimSun-35" x="100"/>
      </g>
     </g>
    </g>
    <g id="ytick_3">
     <g id="line2d_10">
      <g>
       <use xlink:href="#m52b066c33c" x="115.2" y="394.848" style="stroke: #000000; stroke-width: 0.8"/>
      </g>
     </g>
     <g id="text_11">
      <!-- 1.0 -->
      <g transform="translate(79.7 401.639016) scale(0.19 -0.19)">
       <use xlink:href="#SimSun-31"/>
       <use xlink:href="#SimSun-2e" x="50"/>
       <use xlink:href="#SimSun-30" x="100"/>
      </g>
     </g>
    </g>
    <g id="ytick_4">
     <g id="line2d_11">
      <g>
       <use xlink:href="#m52b066c33c" x="115.2" y="361.584" style="stroke: #000000; stroke-width: 0.8"/>
      </g>
     </g>
     <g id="text_12">
      <!-- 1.5 -->
      <g transform="translate(79.7 368.375016) scale(0.19 -0.19)">
       <use xlink:href="#SimSun-31"/>
       <use xlink:href="#SimSun-2e" x="50"/>
       <use xlink:href="#SimSun-35" x="100"/>
      </g>
     </g>
    </g>
    <g id="ytick_5">
     <g id="line2d_12">
      <g>
       <use xlink:href="#m52b066c33c" x="115.2" y="328.32" style="stroke: #000000; stroke-width: 0.8"/>
      </g>
     </g>
     <g id="text_13">
      <!-- 2.0 -->
      <g transform="translate(79.7 335.111016) scale(0.19 -0.19)">
       <use xlink:href="#SimSun-32"/>
       <use xlink:href="#SimSun-2e" x="50"/>
       <use xlink:href="#SimSun-30" x="100"/>
      </g>
     </g>
    </g>
    <g id="ytick_6">
     <g id="line2d_13">
      <g>
       <use xlink:href="#m52b066c33c" x="115.2" y="295.056" style="stroke: #000000; stroke-width: 0.8"/>
      </g>
     </g>
     <g id="text_14">
      <!-- 2.5 -->
      <g transform="translate(79.7 301.847016) scale(0.19 -0.19)">
       <use xlink:href="#SimSun-32"/>
       <use xlink:href="#SimSun-2e" x="50"/>
       <use xlink:href="#SimSun-35" x="100"/>
      </g>
     </g>
    </g>
    <g id="ytick_7">
     <g id="line2d_14">
      <g>
       <use xlink:href="#m52b066c33c" x="115.2" y="261.792" style="stroke: #000000; stroke-width: 0.8"/>
      </g>
     </g>
     <g id="text_15">
      <!-- 3.0 -->
      <g transform="translate(79.7 268.583016) scale(0.19 -0.19)">
       <use xlink:href="#SimSun-33"/>
       <use xlink:href="#SimSun-2e" x="50"/>
       <use xlink:href="#SimSun-30" x="100"/>
      </g>
     </g>
    </g>
    <g id="ytick_8">
     <g id="line2d_15">
      <g>
       <use xlink:href="#m52b066c33c" x="115.2" y="228.528" style="stroke: #000000; stroke-width: 0.8"/>
      </g>
     </g>
     <g id="text_16">
      <!-- 3.5 -->
      <g transform="translate(79.7 235.319016) scale(0.19 -0.19)">
       <use xlink:href="#SimSun-33"/>
       <use xlink:href="#SimSun-2e" x="50"/>
       <use xlink:href="#SimSun-35" x="100"/>
      </g>
     </g>
    </g>
    <g id="ytick_9">
     <g id="line2d_16">
      <g>
       <use xlink:href="#m52b066c33c" x="115.2" y="195.264" style="stroke: #000000; stroke-width: 0.8"/>
      </g>
     </g>
     <g id="text_17">
      <!-- 4.0 -->
      <g transform="translate(79.7 202.055016) scale(0.19 -0.19)">
       <defs>
        <path id="SimSun-34" d="M 2300 575 
Q 2300 400 2400 325 
Q 2500 250 2675 250 
L 2900 250 
L 2900 100 
L 1250 100 
L 1250 250 
L 1525 250 
Q 1725 250 1812 325 
Q 1900 400 1900 575 
L 1900 1400 
L 225 1400 
L 225 1525 
L 2050 4425 
L 2300 4425 
L 2300 1550 
L 2975 1550 
L 2975 1400 
L 2300 1400 
L 2300 575 
z
M 1875 3800 
L 450 1550 
L 1900 1550 
L 1900 3800 
L 1875 3800 
z
" transform="scale(0.015625)"/>
       </defs>
       <use xlink:href="#SimSun-34"/>
       <use xlink:href="#SimSun-2e" x="50"/>
       <use xlink:href="#SimSun-30" x="100"/>
      </g>
     </g>
    </g>
    <g id="ytick_10">
     <g id="line2d_17">
      <g>
       <use xlink:href="#m52b066c33c" x="115.2" y="162" style="stroke: #000000; stroke-width: 0.8"/>
      </g>
     </g>
     <g id="text_18">
      <!-- 4.5 -->
      <g transform="translate(79.7 168.791016) scale(0.19 -0.19)">
       <use xlink:href="#SimSun-34"/>
       <use xlink:href="#SimSun-2e" x="50"/>
       <use xlink:href="#SimSun-35" x="100"/>
      </g>
     </g>
    </g>
    <g id="ytick_11">
     <g id="line2d_18">
      <g>
       <use xlink:href="#m52b066c33c" x="115.2" y="128.736" style="stroke: #000000; stroke-width: 0.8"/>
      </g>
     </g>
     <g id="text_19">
      <!-- 5.0 -->
      <g transform="translate(79.7 135.527016) scale(0.19 -0.19)">
       <use xlink:href="#SimSun-35"/>
       <use xlink:href="#SimSun-2e" x="50"/>
       <use xlink:href="#SimSun-30" x="100"/>
      </g>
     </g>
    </g>
    <g id="ytick_12">
     <g id="line2d_19">
      <g>
       <use xlink:href="#m52b066c33c" x="115.2" y="95.472" style="stroke: #000000; stroke-width: 0.8"/>
      </g>
     </g>
     <g id="text_20">
      <!-- 5.5 -->
      <g transform="translate(79.7 102.263016) scale(0.19 -0.19)">
       <use xlink:href="#SimSun-35"/>
       <use xlink:href="#SimSun-2e" x="50"/>
       <use xlink:href="#SimSun-35" x="100"/>
      </g>
     </g>
    </g>
    <g id="ytick_13">
     <g id="line2d_20">
      <g>
       <use xlink:href="#m52b066c33c" x="115.2" y="62.208" style="stroke: #000000; stroke-width: 0.8"/>
      </g>
     </g>
     <g id="text_21">
      <!-- 6.0 -->
      <g transform="translate(79.7 68.999016) scale(0.19 -0.19)">
       <defs>
        <path id="SimSun-36" d="M 775 1800 
Q 775 1050 1037 637 
Q 1300 225 1675 225 
Q 2050 225 2250 500 
Q 2450 775 2450 1525 
Q 2450 2025 2237 2300 
Q 2025 2575 1725 2575 
Q 1450 2575 1212 2412 
Q 975 2250 775 1800 
z
M 1750 2825 
Q 2350 2825 2612 2425 
Q 2875 2025 2875 1525 
Q 2875 775 2512 412 
Q 2150 50 1675 50 
Q 1000 50 650 562 
Q 300 1075 300 2050 
Q 300 3200 725 3812 
Q 1150 4425 1875 4425 
Q 2225 4425 2437 4225 
Q 2650 4025 2650 3875 
Q 2650 3725 2587 3650 
Q 2525 3575 2375 3575 
Q 2250 3575 2187 3637 
Q 2125 3700 2125 3825 
Q 2125 3875 2150 3925 
Q 2150 3975 2150 4025 
Q 2150 4125 2075 4187 
Q 2000 4250 1800 4250 
Q 1375 4250 1075 3862 
Q 775 3475 775 2175 
Q 925 2500 1187 2662 
Q 1450 2825 1750 2825 
z
" transform="scale(0.015625)"/>
       </defs>
       <use xlink:href="#SimSun-36"/>
       <use xlink:href="#SimSun-2e" x="50"/>
       <use xlink:href="#SimSun-30" x="100"/>
      </g>
     </g>
    </g>
    <g id="text_22">
     <!-- 吞吐量 $\mathrm{(Mops)}$ -->
     <g transform="translate(71.52 323.067) rotate(-90) scale(0.19 -0.19)">
      <defs>
       <path id="SimSun-541e" d="M 2200 1700 
L 2200 75 
L 4200 75 
L 4200 1700 
L 2200 1700 
z
M 1025 4675 
L 4550 4675 
L 4875 5000 
L 5350 4525 
L 3300 4525 
Q 3150 4025 2900 3375 
L 5075 3375 
L 5450 3750 
L 5975 3225 
L 3700 3225 
Q 3925 2925 4312 2587 
Q 4700 2250 5225 2037 
Q 5750 1825 6100 1800 
L 6100 1700 
Q 5700 1675 5575 1375 
Q 4600 1900 4137 2437 
Q 3675 2975 3575 3225 
L 2825 3225 
Q 2425 2575 1950 2075 
L 2200 1850 
L 4175 1850 
L 4325 2100 
L 4750 1775 
L 4550 1600 
L 4550 375 
Q 4550 -50 4575 -375 
L 4200 -500 
L 4200 -75 
L 2200 -75 
L 2200 -450 
L 1825 -575 
Q 1850 175 1850 625 
L 1850 2000 
Q 1175 1400 375 1075 
L 325 1150 
Q 1075 1575 1600 2100 
Q 2125 2625 2450 3225 
L 1225 3225 
Q 900 3225 625 3150 
L 400 3375 
L 2525 3375 
Q 2800 4025 2900 4525 
L 1850 4525 
Q 1525 4525 1250 4450 
L 1025 4675 
z
" transform="scale(0.015625)"/>
       <path id="SimSun-5410" d="M 3775 3000 
L 3775 3750 
Q 3775 4400 3750 5175 
L 4350 4900 
L 4125 4700 
L 4125 3000 
L 4925 3000 
L 5250 3325 
L 5725 2850 
L 4125 2850 
L 4125 75 
L 5225 75 
L 5575 425 
L 6075 -75 
L 2675 -75 
Q 2350 -75 2075 -150 
L 1850 75 
L 3775 75 
L 3775 2850 
L 3225 2850 
Q 2900 2850 2625 2775 
L 2400 3000 
L 3775 3000 
z
M 575 4250 
L 950 4025 
L 1875 4025 
L 2050 4275 
L 2450 3950 
L 2250 3800 
L 2250 1950 
Q 2250 1375 2275 950 
L 1900 775 
L 1900 1225 
L 950 1225 
L 950 600 
L 575 425 
Q 600 1075 600 2375 
Q 600 3675 575 4250 
z
M 950 3875 
L 950 1375 
L 1900 1375 
L 1900 3875 
L 950 3875 
z
" transform="scale(0.015625)"/>
       <path id="SimSun-91cf" d="M 1700 2400 
L 1700 1875 
L 3025 1875 
L 3025 2400 
L 1700 2400 
z
M 3350 2400 
L 3350 1875 
L 4625 1875 
L 4625 2400 
L 3350 2400 
z
M 1700 1725 
L 1700 1225 
L 3025 1225 
L 3025 1725 
L 1700 1725 
z
M 3350 1725 
L 3350 1225 
L 4625 1225 
L 4625 1725 
L 3350 1725 
z
M 4950 2325 
Q 4950 1350 4975 1025 
L 4625 875 
L 4625 1075 
L 3350 1075 
L 3350 525 
L 4700 525 
L 5050 825 
L 5450 375 
L 3350 375 
L 3350 -225 
L 5275 -225 
L 5650 125 
L 6075 -375 
L 1175 -375 
Q 850 -375 575 -450 
L 350 -225 
L 3025 -225 
L 3025 375 
L 1725 375 
Q 1400 375 1125 300 
L 900 525 
L 3025 525 
L 3025 1075 
L 1700 1075 
L 1700 925 
L 1350 800 
Q 1375 1300 1375 1787 
Q 1375 2275 1350 2750 
L 1700 2550 
L 4600 2550 
L 4750 2750 
L 5125 2475 
L 4950 2325 
z
M 1775 4800 
L 1775 4375 
L 4550 4375 
L 4550 4800 
L 1775 4800 
z
M 1775 4225 
L 1775 3775 
L 4550 3775 
L 4550 4225 
L 1775 4225 
z
M 4875 4750 
Q 4875 3825 4900 3525 
L 4550 3375 
L 4550 3625 
L 1775 3625 
L 1775 3400 
L 1425 3250 
Q 1450 3650 1450 4262 
Q 1450 4875 1425 5125 
L 1800 4950 
L 4500 4950 
L 4650 5175 
L 5050 4900 
L 4875 4750 
z
M 250 3125 
L 5375 3125 
L 5725 3450 
L 6150 2975 
L 950 2975 
Q 750 2975 475 2900 
L 250 3125 
z
" transform="scale(0.015625)"/>
       <path id="STIXGeneral-Regular-6f" d="M 3008 1478 
Q 3008 806 2608 371 
Q 2208 -64 1568 -64 
Q 979 -64 582 368 
Q 186 800 186 1459 
Q 186 2125 582 2534 
Q 979 2944 1626 2944 
Q 2221 2944 2614 2537 
Q 3008 2131 3008 1478 
z
M 2432 1306 
Q 2432 2035 2112 2445 
Q 1856 2765 1504 2765 
Q 1171 2765 966 2493 
Q 762 2221 762 1747 
Q 762 928 1101 435 
Q 1318 115 1677 115 
Q 2029 115 2230 432 
Q 2432 749 2432 1306 
z
" transform="scale(0.015625)"/>
       <path id="STIXGeneral-Regular-70" d="M 1018 2931 
L 1018 2438 
Q 1421 2944 1939 2944 
Q 2406 2944 2707 2560 
Q 3008 2176 3008 1581 
Q 3008 883 2621 409 
Q 2234 -64 1664 -64 
Q 1466 -64 1328 -6 
Q 1190 51 1018 211 
L 1018 -794 
Q 1018 -1094 1120 -1180 
Q 1222 -1267 1581 -1274 
L 1581 -1389 
L 32 -1389 
L 32 -1280 
Q 314 -1254 397 -1171 
Q 480 -1088 480 -838 
L 480 2157 
Q 480 2381 429 2451 
Q 378 2522 218 2522 
Q 115 2522 58 2515 
L 58 2618 
Q 506 2752 979 2944 
L 1018 2931 
z
M 1018 2138 
L 1018 563 
Q 1018 422 1238 281 
Q 1459 141 1683 141 
Q 2029 141 2243 467 
Q 2458 794 2458 1325 
Q 2458 1888 2243 2224 
Q 2029 2560 1670 2560 
Q 1446 2560 1232 2419 
Q 1018 2278 1018 2138 
z
" transform="scale(0.015625)"/>
       <path id="STIXGeneral-Regular-73" d="M 998 1926 
L 1664 1523 
Q 1984 1331 2105 1164 
Q 2227 998 2227 736 
Q 2227 416 1961 176 
Q 1696 -64 1331 -64 
Q 1030 -64 864 -6 
Q 691 51 570 51 
Q 461 51 416 -26 
L 333 -26 
L 333 979 
L 435 979 
Q 538 512 730 294 
Q 922 77 1248 77 
Q 1485 77 1632 211 
Q 1779 346 1779 550 
Q 1779 845 1440 1030 
L 1094 1222 
Q 326 1651 326 2150 
Q 326 2522 566 2730 
Q 806 2938 1210 2938 
Q 1491 2938 1638 2867 
Q 1754 2816 1818 2816 
Q 1862 2816 1920 2880 
L 1990 2880 
L 2022 2010 
L 1926 2010 
Q 1818 2445 1654 2621 
Q 1491 2797 1203 2797 
Q 986 2797 854 2688 
Q 723 2579 723 2362 
Q 723 2253 796 2128 
Q 870 2003 998 1926 
z
" transform="scale(0.015625)"/>
      </defs>
      <use xlink:href="#SimSun-541e" transform="translate(0 0.140625)"/>
      <use xlink:href="#SimSun-5410" transform="translate(100 0.140625)"/>
      <use xlink:href="#SimSun-91cf" transform="translate(200 0.140625)"/>
      <use xlink:href="#SimSun-20" transform="translate(300 0.140625)"/>
      <use xlink:href="#STIXGeneral-Regular-28" transform="translate(350 0.140625)"/>
      <use xlink:href="#STIXGeneral-Regular-4d" transform="translate(383.299988 0.140625)"/>
      <use xlink:href="#STIXGeneral-Regular-6f" transform="translate(472.199982 0.140625)"/>
      <use xlink:href="#STIXGeneral-Regular-70" transform="translate(522.199966 0.140625)"/>
      <use xlink:href="#STIXGeneral-Regular-73" transform="translate(572.199951 0.140625)"/>
      <use xlink:href="#STIXGeneral-Regular-29" transform="translate(611.099945 0.140625)"/>
     </g>
    </g>
   </g>
   <g id="line2d_21">
    <path d="M 115.398342 455.834324 
L 115.650183 454.339786 
L 115.87014 455.230589 
L 116.549823 442.386194 
L 117.098869 446.036153 
L 117.769993 442.624445 
L 118.465384 441.947389 
L 120.545348 442.0126 
L 121.240499 441.954208 
L 121.932533 442.041313 
L 122.626546 441.986022 
L 123.318126 442.053967 
L 124.012807 441.96766 
L 124.703508 442.079514 
L 125.398978 441.945194 
L 126.785368 441.996693 
L 131.6394 442.010278 
L 133.721615 441.967986 
L 134.413932 442.03321 
L 135.108523 441.970767 
L 135.799317 442.075835 
L 136.49383 441.971911 
L 138.573468 441.997372 
L 140.655004 441.98521 
L 142.732338 442.063387 
L 145.506422 442.027801 
L 155.218422 441.965352 
L 155.910523 442.039763 
L 156.605995 441.945094 
L 157.297091 442.066361 
L 157.992713 441.940024 
L 158.682369 442.107555 
L 159.381006 441.855674 
L 160.071133 442.093458 
L 161.459832 441.964826 
L 162.846396 442.004118 
L 163.541342 441.958865 
L 164.232312 442.070852 
L 164.928634 441.920425 
L 165.620625 442.041453 
L 166.315674 441.956231 
L 167.007541 442.045857 
L 170.474636 441.987086 
L 171.85879 442.02675 
L 173.940786 441.995409 
L 174.633382 442.02538 
L 175.329411 441.929493 
L 176.021836 442.03029 
L 181.57209 441.977905 
L 182.264093 442.042045 
L 183.652343 441.979323 
L 185.730355 442.068936 
L 186.426025 441.939552 
L 187.117347 442.061012 
L 187.813274 441.932347 
L 188.505263 442.043469 
L 190.586242 441.96285 
L 191.971884 442.021009 
L 193.36155 441.954241 
L 195.440638 442.079813 
L 196.137177 441.915269 
L 196.827709 442.08306 
L 197.523395 441.939086 
L 199.602688 442.049184 
L 200.297303 441.967986 
L 202.376135 441.991045 
L 203.764939 441.997458 
L 205.844332 442.004237 
L 206.540051 441.938235 
L 207.928056 441.967002 
L 210.007425 442.049363 
L 210.703076 441.940104 
L 211.393548 442.084796 
L 212.089249 441.938707 
L 212.781878 442.024508 
L 214.861638 441.995163 
L 215.551979 442.088475 
L 216.24899 441.902177 
L 216.941481 442.028487 
L 217.637098 441.940177 
L 218.32819 442.067539 
L 219.023055 441.962072 
L 219.715101 442.041832 
L 220.410928 441.935434 
L 221.104103 442.008389 
L 221.799137 441.957408 
L 223.185593 441.993513 
L 231.504863 441.974892 
L 232.195845 442.070759 
L 232.890582 441.965684 
L 233.583228 442.024089 
L 234.973463 441.95492 
L 235.664883 442.059402 
L 236.360979 441.927763 
L 238.442631 442.010404 
L 243.98631 442.06219 
L 244.680758 441.973674 
L 245.37119 442.08594 
L 246.068891 441.88285 
L 246.75963 442.106078 
L 247.4537 441.983321 
L 249.533416 442.043622 
L 250.227624 441.980467 
L 251.613014 442.007025 
L 253.002359 441.959757 
L 253.692298 442.099831 
L 254.387149 441.962531 
L 258.544997 442.036177 
L 259.933739 441.988962 
L 261.319562 441.990619 
L 264.788145 441.964201 
L 265.480474 442.033031 
L 266.175368 441.961426 
L 266.867595 442.035911 
L 267.561915 441.978584 
L 268.253513 442.053468 
L 268.948307 441.964187 
L 269.640415 442.039218 
L 270.335737 441.949338 
L 271.027838 442.039377 
L 271.723225 441.948014 
L 272.414621 442.059549 
L 273.109995 441.948966 
L 273.802289 442.034048 
L 274.498133 441.934835 
L 275.190158 442.041486 
L 275.884994 441.96299 
L 276.576881 442.045405 
L 277.27152 441.968492 
L 277.961673 442.095154 
L 278.658293 441.912189 
L 279.35101 442.021022 
L 281.432625 441.978837 
L 283.512389 442.027948 
L 284.207861 441.945267 
L 284.900212 442.032485 
L 285.595008 441.964194 
L 286.286502 442.056588 
L 286.981881 441.947802 
L 288.367017 442.04593 
L 289.062722 441.938674 
L 289.75484 442.038952 
L 290.450012 441.953603 
L 291.141246 442.063627 
L 291.83534 441.982616 
L 294.605265 442.069934 
L 295.992617 441.976715 
L 296.684508 442.045265 
L 297.377999 441.99962 
L 298.069029 442.068324 
L 299.456914 441.987492 
L 300.151846 441.960675 
L 300.842449 442.08129 
L 301.539266 441.906654 
L 302.231182 442.044527 
L 302.926335 441.954122 
L 303.618176 442.046702 
L 304.31281 441.969809 
L 305.004828 442.041779 
L 307.085871 441.977606 
L 307.77706 442.064944 
L 308.472104 441.957202 
L 310.551318 442.052763 
L 311.245748 441.974346 
L 311.937208 442.056495 
L 314.017939 441.994318 
L 314.709569 442.05404 
L 316.097613 441.989814 
L 320.26134 441.967188 
L 320.953174 442.046882 
L 321.649613 441.918183 
L 323.037369 441.97732 
L 323.729182 442.047421 
L 325.116774 441.996893 
L 329.276882 442.032385 
L 329.971844 441.958453 
L 330.661026 442.12106 
L 331.357517 441.915782 
L 332.049087 442.053262 
L 332.744231 441.95345 
L 333.436015 442.047048 
L 334.822439 442.030749 
L 338.29199 441.926732 
L 339.678252 442.012028 
L 340.370326 442.040109 
L 341.065853 441.943624 
L 341.758902 442.013924 
L 343.146627 442.016359 
L 345.921102 441.97724 
L 346.612605 442.057247 
L 347.306347 441.992595 
L 347.997336 442.070439 
L 348.691656 441.9774 
L 349.383247 442.053634 
L 350.07945 441.92477 
L 350.77127 442.047707 
L 351.467492 441.924257 
L 352.855806 441.965651 
L 354.932863 442.048199 
L 356.320855 441.997465 
L 357.015273 441.975783 
L 357.706174 442.073307 
L 358.400977 441.963921 
L 359.093171 442.036823 
L 359.790093 441.904698 
L 360.481463 442.059875 
L 361.176997 441.943517 
L 361.867984 442.070526 
L 362.56293 441.960974 
L 363.253321 442.087211 
L 363.949677 441.920765 
L 364.642173 442.027196 
L 368.109998 442.000971 
L 373.656612 442.042038 
L 374.351682 441.95641 
L 377.123995 442.027841 
L 378.512685 441.974792 
L 379.204595 442.045258 
L 379.900175 441.942639 
L 381.98107 442.035279 
L 384.061335 441.985277 
L 386.141106 442.041826 
L 387.530189 441.978039 
L 388.226282 441.92777 
L 388.915926 442.109159 
L 389.612056 441.926832 
L 390.304611 442.02671 
L 392.386071 441.954408 
L 393.077838 442.048878 
L 393.773439 441.941634 
L 395.158334 442.025114 
L 396.547316 441.973262 
L 397.238037 442.078017 
L 399.320853 441.979569 
L 400.012083 442.06374 
L 402.093023 441.957767 
L 403.478351 442.032917 
L 404.866491 441.989794 
L 410.414676 442.02234 
L 411.802733 442.009367 
L 415.271039 441.955519 
L 415.962736 442.0508 
L 416.658391 441.93906 
L 417.349387 442.069388 
L 418.045895 441.915336 
L 418.737444 442.054845 
L 420.819311 441.96468 
L 421.511376 442.040448 
L 422.207043 441.939792 
L 422.898073 442.069348 
L 423.597323 441.921244 
L 424.289815 442.028507 
L 424.985589 441.936765 
L 425.674966 442.11657 
L 426.371727 441.909222 
L 427.063011 442.06217 
L 427.757224 441.98038 
L 429.837021 442.005375 
L 438.848945 442.052437 
L 439.545338 441.919547 
L 440.236032 442.078689 
L 440.929954 441.98849 
L 443.010185 442.032924 
L 445.091878 441.957714 
L 445.782875 442.07032 
L 446.479487 441.913387 
L 447.171186 442.051718 
L 447.865606 441.974552 
L 449.945534 442.038113 
L 450.640192 441.968039 
L 452.719724 442.028507 
L 453.414708 441.958825 
L 454.799521 442.042358 
L 460.346704 441.974799 
L 461.732028 442.052071 
L 462.428431 441.920758 
L 463.12046 442.041386 
L 463.81582 441.948394 
L 464.507914 442.03965 
L 465.202884 441.959377 
L 465.895292 442.030815 
L 466.589891 441.969596 
L 467.976616 441.979442 
L 470.055797 441.978331 
L 478.376455 441.992395 
L 479.071675 441.952199 
L 479.763921 442.035279 
L 481.844609 441.975078 
L 483.229218 442.016618 
L 489.473785 441.994484 
L 494.327041 442.064412 
L 495.022633 441.94204 
L 496.410672 441.963156 
L 498.488654 442.022293 
L 499.183752 441.955612 
L 499.876584 442.020018 
L 500.57193 441.94864 
L 501.262705 442.076367 
L 501.956594 441.989362 
L 502.64883 442.035485 
L 503.34459 441.937097 
L 504.034256 442.107369 
L 504.730478 441.925189 
L 506.115925 442.01711 
L 507.505193 441.963356 
L 508.197775 442.026058 
L 508.892902 441.954734 
L 509.585189 442.034128 
L 510.280639 441.946917 
L 510.973283 442.024189 
L 513.054093 441.965165 
L 514.440856 441.987645 
L 517.905432 442.03973 
L 518.60145 441.928888 
L 519.98704 442.048738 
L 520.682269 441.952126 
L 521.37246 442.091722 
L 522.067225 441.964074 
L 522.759267 442.040262 
L 524.83996 441.941155 
L 525.532356 442.030103 
L 527.613713 441.965278 
L 528.306017 442.032911 
L 529.00131 441.949245 
L 529.693647 442.031747 
L 530.388269 441.967913 
L 531.07828 442.09882 
L 531.774671 441.919474 
L 532.467988 442.004357 
L 533.165008 441.901019 
L 533.85464 442.107296 
L 534.550512 441.933039 
L 535.241047 442.082527 
L 535.937923 441.905842 
L 536.630146 442.036004 
L 538.017178 442.020883 
L 540.099267 441.953117 
L 540.79062 442.059223 
L 542.872939 441.917458 
L 543.563354 442.085408 
L 544.951573 441.982223 
L 580.312495 441.969829 
L 581.002822 442.088874 
L 581.698056 441.95176 
L 582.389684 442.052537 
L 583.084523 441.961739 
L 583.775976 442.058478 
L 584.469415 442.001915 
L 585.160387 442.070832 
L 585.854445 441.983693 
L 587.930767 442.105207 
L 588.627661 441.904525 
L 589.318374 442.07831 
L 590.012577 441.98072 
L 593.478555 442.029019 
L 596.945021 441.98509 
L 597.636303 442.062336 
L 598.330978 441.967494 
L 599.022981 442.041214 
L 599.71736 441.975856 
L 601.102836 442.002441 
L 601.794461 442.052736 
L 602.488864 441.975165 
L 603.873201 442.053821 
L 604.56754 441.977067 
L 605.259029 442.056568 
L 605.953166 441.982509 
L 606.644391 442.063893 
L 607.340411 441.929906 
L 608.032664 442.03514 
L 610.112912 441.995283 
L 610.803317 442.086779 
L 611.497342 441.984698 
L 613.573521 442.075855 
L 614.960913 441.996653 
L 615.654705 441.993273 
L 616.344272 442.11021 
L 617.040961 441.911218 
L 617.731162 442.092646 
L 618.427246 441.928149 
L 619.118695 442.057719 
L 620.506494 441.994717 
L 628.133577 441.984425 
L 628.825228 442.051 
L 629.519922 441.96607 
L 630.906036 442.001789 
L 632.988495 442.003758 
L 637.134235 442.195532 
L 637.798742 442.809399 
L 638.475868 442.456954 
L 639.782832 443.319835 
L 640.419962 443.574338 
L 641.059029 443.522094 
L 641.687938 443.80535 
L 644.150552 444.460604 
L 644.76393 444.238746 
L 645.357818 444.783298 
L 645.966088 444.38238 
L 647.14323 445.076287 
L 647.745717 444.542999 
L 648.335087 444.909515 
L 648.927211 444.832615 
L 649.513164 445.004969 
L 650.104488 444.854935 
L 651.259607 445.331935 
L 651.825085 445.57703 
L 652.402469 445.244377 
L 653.525459 445.850766 
L 654.065448 446.289153 
L 654.611742 446.113918 
L 655.159802 446.063749 
L 655.689023 446.590012 
L 656.232303 446.197683 
L 656.757331 446.707161 
L 657.277462 446.84399 
L 657.801414 446.737272 
L 658.308039 447.221356 
L 658.807819 447.41335 
L 659.760874 448.266824 
L 660.207551 448.896265 
L 660.641518 449.251339 
L 661.434986 450.57643 
L 661.434986 450.57643 
" clip-path="url(#p94e7f3b38a)" style="fill: none; stroke: #ff0000; stroke-width: 1.5; stroke-linecap: square"/>
   </g>
   <g id="line2d_22">
    <path d="M 115.508242 452.117425 
L 116.182497 442.165641 
L 119.487659 442.230852 
L 120.153076 442.121919 
L 120.817552 442.228237 
L 121.485667 442.124959 
L 122.152638 442.233779 
L 124.163188 442.15332 
L 124.828453 442.349198 
L 125.508235 442.120495 
L 126.859232 442.227864 
L 127.538813 442.13732 
L 128.218457 442.267821 
L 128.902859 442.133282 
L 130.271919 442.260071 
L 130.961998 442.052763 
L 132.343688 442.197135 
L 133.038544 442.120954 
L 133.730314 442.191141 
L 134.4269 442.110749 
L 135.818935 442.233805 
L 136.520066 442.116477 
L 137.216815 442.27786 
L 137.918617 442.173425 
L 140.030651 442.244323 
L 141.454943 442.131213 
L 142.163691 442.283369 
L 142.884585 442.031374 
L 143.595571 442.268067 
L 144.31511 442.139183 
L 145.034307 442.199723 
L 146.482157 442.176458 
L 147.201587 442.352099 
L 147.933255 442.125405 
L 150.119129 442.208704 
L 150.85538 442.121992 
L 151.586409 442.326379 
L 152.32934 442.042418 
L 153.068105 442.182818 
L 155.30131 442.189917 
L 156.798292 442.227385 
L 157.549951 442.130022 
L 158.301437 442.227778 
L 159.0593 442.10389 
L 159.816663 442.197794 
L 161.33653 442.131751 
L 162.093775 442.229049 
L 162.853581 442.203023 
L 163.610423 442.289383 
L 164.377755 442.074291 
L 166.674015 442.232355 
L 167.444418 442.088302 
L 168.209755 442.236626 
L 171.282408 442.126822 
L 172.052721 442.229933 
L 172.823202 442.151264 
L 173.592567 442.249612 
L 177.45986 442.064858 
L 178.232082 442.187568 
L 182.101889 442.197009 
L 182.881304 442.086359 
L 183.658278 442.179266 
L 185.985988 442.133827 
L 188.319796 442.176079 
L 189.096066 442.217712 
L 189.879946 442.07179 
L 190.652623 442.233799 
L 191.433621 442.148689 
L 192.213149 442.215843 
L 193.778192 442.103304 
L 194.554716 442.229534 
L 199.248225 442.14821 
L 200.025133 442.269571 
L 200.809321 442.113356 
L 201.590966 442.27174 
L 202.375882 442.120561 
L 203.943263 442.218198 
L 204.733255 442.089386 
L 205.518607 442.193456 
L 207.093935 442.156626 
L 209.450341 442.175673 
L 210.240617 442.122018 
L 211.023138 442.344295 
L 211.813359 442.093844 
L 213.386882 442.2683 
L 214.178539 442.086127 
L 214.967164 442.208571 
L 216.545252 442.187276 
L 217.332882 442.227179 
L 218.126986 442.102985 
L 218.912664 442.251216 
L 220.503782 442.097796 
L 221.291588 442.243805 
L 222.088842 442.062822 
L 222.879841 442.225835 
L 223.670536 442.233426 
L 224.466333 442.111933 
L 225.255944 442.243146 
L 226.051448 442.114128 
L 230.064205 442.224585 
L 230.856552 442.22356 
L 231.654768 442.091648 
L 234.832667 442.210893 
L 235.63323 442.044926 
L 236.428122 442.198506 
L 242.008662 442.197035 
L 242.80518 442.221212 
L 243.606122 442.061159 
L 244.401109 442.228896 
L 246.003207 442.076054 
L 246.802432 442.190815 
L 247.602678 442.110183 
L 249.188874 442.234471 
L 249.995392 442.081057 
L 250.791086 442.242208 
L 251.593554 442.058085 
L 252.394395 442.206449 
L 253.993929 442.173558 
L 254.790754 442.253205 
L 255.593257 442.102566 
L 256.391739 442.244151 
L 257.196783 442.104462 
L 264.406648 442.194634 
L 265.211987 442.100736 
L 266.016152 442.169539 
L 266.824195 442.096259 
L 268.424029 442.27323 
L 269.231672 442.005867 
L 270.030702 442.243578 
L 271.642613 442.117435 
L 272.44449 442.218411 
L 273.254574 442.088894 
L 274.864476 442.17552 
L 282.925446 442.230832 
L 283.733801 442.058917 
L 284.538247 442.259691 
L 285.350098 442.080784 
L 286.153008 442.235941 
L 287.772252 442.111394 
L 288.579386 442.202664 
L 291.811144 442.099984 
L 297.478786 442.162088 
L 313.704254 442.163286 
L 314.51671 442.10508 
L 315.32616 442.226574 
L 316.142675 442.081117 
L 316.956249 442.213787 
L 317.772589 442.119949 
L 319.385746 442.230273 
L 321.830513 442.129529 
L 323.446274 442.210727 
L 324.26196 442.092759 
L 329.156299 442.209037 
L 330.789975 442.091449 
L 331.604237 442.181741 
L 333.242387 442.057679 
L 334.054973 442.252513 
L 334.872183 442.094336 
L 343.029449 442.047261 
L 343.842359 442.24596 
L 344.658666 442.086685 
L 345.472207 442.176605 
L 347.105888 442.092267 
L 350.364577 442.137945 
L 362.617038 442.201466 
L 363.438588 442.09588 
L 364.254652 442.214758 
L 365.889091 442.128944 
L 377.325466 442.144319 
L 378.959268 442.175647 
L 380.587819 442.165102 
L 384.685533 442.056821 
L 385.499885 442.184581 
L 388.768988 442.061185 
L 389.585693 442.214166 
L 391.222798 442.123948 
L 392.856884 442.126363 
L 434.384195 442.114275 
L 435.191986 442.242341 
L 436.006022 442.116038 
L 440.062769 442.132876 
L 440.87057 442.240205 
L 441.682659 442.11786 
L 445.725805 442.22338 
L 446.538383 442.056109 
L 447.347182 442.19019 
L 448.155992 442.109358 
L 448.963835 442.210281 
L 449.773241 442.124899 
L 451.384547 442.158309 
L 452.199016 442.016718 
L 453.00705 442.167238 
L 455.427262 442.14378 
L 457.042297 442.10204 
L 457.847791 442.224032 
L 462.680084 442.125578 
L 463.484527 442.207374 
L 464.293588 442.057985 
L 465.89045 442.191613 
L 466.698605 442.071357 
L 467.500537 442.205604 
L 469.116269 442.069248 
L 469.911876 442.165022 
L 470.719593 442.077185 
L 471.514754 442.289782 
L 472.322486 442.055351 
L 473.122044 442.229315 
L 474.728129 442.104096 
L 477.932684 442.220121 
L 478.734625 442.118958 
L 481.13061 442.195891 
L 482.735379 442.135843 
L 483.535151 442.204719 
L 485.13613 442.14342 
L 485.933388 442.206682 
L 486.737615 442.074231 
L 487.537376 442.164423 
L 488.337475 442.101109 
L 489.927083 442.206003 
L 490.7295 442.039344 
L 491.526359 442.184581 
L 493.126021 442.133541 
L 499.503836 442.167058 
L 500.303466 442.02045 
L 501.098596 442.164596 
L 502.694106 442.083026 
L 503.482844 442.253804 
L 504.279321 442.103477 
L 506.665207 442.085674 
L 507.455375 442.186617 
L 508.251605 442.088628 
L 509.045357 442.163419 
L 510.63496 442.096379 
L 513.802595 442.160751 
L 515.394098 442.069268 
L 516.186857 442.13092 
L 517.771884 442.034421 
L 519.35568 442.136289 
L 520.148963 442.069415 
L 520.931801 442.162461 
L 521.729119 441.997678 
L 522.515185 442.177629 
L 523.306118 442.06702 
L 524.885819 442.113356 
L 525.676975 442.070932 
L 526.46082 442.229042 
L 527.254517 442.007477 
L 528.043093 442.150725 
L 530.40967 442.200368 
L 531.202641 441.963076 
L 531.985934 442.194294 
L 532.775726 442.0639 
L 539.057469 442.140739 
L 540.627876 442.093638 
L 541.405702 442.236473 
L 542.190554 442.040402 
L 542.97284 442.163239 
L 543.755064 442.083525 
L 546.097806 442.153639 
L 546.881763 442.162787 
L 547.666201 442.045651 
L 549.221483 442.162028 
L 550.003266 442.101275 
L 550.782561 442.154218 
L 551.564664 442.088508 
L 553.127183 442.137859 
L 555.459357 442.143667 
L 558.570951 442.165355 
L 560.909699 442.045731 
L 562.459566 442.117495 
L 564.795805 442.024901 
L 565.567627 442.20591 
L 567.120049 442.066481 
L 569.446441 442.209303 
L 570.227629 441.970827 
L 571.002658 442.131372 
L 574.863082 442.122956 
L 575.640492 442.041879 
L 577.182719 442.091821 
L 579.49196 442.130128 
L 581.034868 442.059542 
L 581.80239 442.180457 
L 582.574803 442.038772 
L 584.111159 442.16451 
L 587.945823 442.084377 
L 589.481058 442.152182 
L 590.251885 442.053747 
L 591.019529 442.135191 
L 591.788789 442.042983 
L 592.549321 442.182705 
L 593.322308 441.985057 
L 594.080252 442.170763 
L 597.137392 442.12937 
L 597.896415 442.229202 
L 598.665259 441.992522 
L 599.423603 442.205158 
L 600.188664 442.098647 
L 600.945427 442.218417 
L 606.282504 442.061525 
L 607.804869 442.107841 
L 610.852655 442.032472 
L 611.612875 442.164789 
L 614.654609 442.023071 
L 615.410349 442.153287 
L 618.448871 442.023916 
L 619.204918 442.110915 
L 621.479925 441.968618 
L 622.233419 442.120182 
L 622.988583 441.989288 
L 624.497351 442.070725 
L 625.253316 442.120422 
L 626.768253 442.045252 
L 627.522578 442.140234 
L 629.034774 442.067605 
L 629.779808 442.148117 
L 631.286209 442.039983 
L 632.790839 442.135198 
L 633.545936 442.033769 
L 634.293059 442.193283 
L 635.04918 442.010604 
L 635.80217 442.10359 
L 636.555643 442.042651 
L 637.304621 442.150253 
L 638.058571 442.056382 
L 639.552523 442.172806 
L 640.304865 442.061385 
L 644.045468 442.154444 
L 644.794278 442.057666 
L 646.284575 442.187023 
L 647.036836 441.998223 
L 647.780622 442.123329 
L 650.767229 442.075203 
L 666.387172 442.187189 
L 667.130362 442.050142 
L 669.343311 442.165628 
L 672.307412 442.06692 
L 674.520756 442.133341 
L 675.262025 442.03808 
L 675.99919 442.082354 
L 676.739628 442.000119 
L 677.470208 442.199963 
L 678.208429 442.059642 
L 682.625447 442.165747 
L 683.360878 442.043935 
L 685.564523 442.162813 
L 686.30529 442.000718 
L 687.772334 442.179425 
L 688.508918 441.98855 
L 689.237521 442.129363 
L 689.972838 442.026498 
L 690.699978 442.190316 
L 691.432557 442.060986 
L 692.166381 442.090165 
L 692.903072 441.993579 
L 693.634873 442.150858 
L 695.101417 442.078589 
L 698.759112 442.156041 
L 699.492246 442.022659 
L 700.216661 442.152941 
L 700.948036 442.040901 
L 701.670761 442.176651 
L 703.123804 442.133408 
L 703.853359 442.059349 
L 704.580822 442.165794 
L 705.3107 442.072029 
L 708.220437 442.180749 
L 708.948598 442.033809 
L 710.403747 442.075735 
L 713.308581 442.13714 
L 714.035022 442.060666 
L 714.757454 442.172021 
L 718.376192 442.074311 
L 719.100519 442.136116 
L 719.825156 442.051406 
L 720.548548 442.174403 
L 721.27634 442.043682 
L 723.449089 442.171422 
L 724.175418 442.038985 
L 725.623054 442.110243 
L 729.234918 442.054705 
L 729.953101 442.156147 
L 730.674255 442.06867 
L 732.116979 442.115499 
L 734.279443 442.073593 
L 736.43756 442.13559 
L 737.879122 442.094935 
L 740.041496 442.072715 
L 740.758281 442.210534 
L 741.48192 442.003352 
L 742.199036 442.179592 
L 742.914714 442.060886 
L 743.632397 442.119078 
L 745.070859 442.083319 
L 747.21372 442.116969 
L 752.949403 442.047341 
L 753.65825 442.248096 
L 754.376169 442.096299 
L 760.104743 442.013571 
L 760.81335 442.176991 
L 761.529158 442.007497 
L 762.240784 442.122344 
L 762.960648 441.957135 
L 763.670443 442.11498 
L 765.804797 442.062975 
L 767.22623 442.070845 
L 771.499758 442.071949 
L 772.215289 442.026032 
L 772.926429 442.143374 
L 773.6404 441.996766 
L 774.350421 442.12462 
L 775.066852 442.009719 
L 775.777839 442.116217 
L 775.777839 442.116217 
" clip-path="url(#p94e7f3b38a)" style="fill: none; stroke: #0000ff; stroke-width: 1.5; stroke-linecap: square"/>
   </g>
   <g id="line2d_23">
    <path d="M 115.351628 456.817056 
L 115.876414 446.403069 
L 116.702499 437.691852 
L 117.357798 442.137193 
L 118.016641 442.099825 
L 118.673661 442.187994 
L 119.333393 442.052004 
L 119.9935 442.18514 
L 120.65297 442.115219 
L 121.316068 442.179492 
L 122.650616 442.050248 
L 123.319916 442.086406 
L 123.984571 442.297227 
L 124.661042 442.004164 
L 125.332878 442.204373 
L 126.009672 442.098747 
L 126.682413 442.308822 
L 127.363883 442.022745 
L 128.039745 442.209902 
L 128.722925 442.056255 
L 129.398929 442.314624 
L 130.083338 442.112359 
L 132.14947 442.174562 
L 132.838571 442.195146 
L 133.535334 442.087337 
L 135.623217 442.203615 
L 137.027651 442.104515 
L 139.143498 442.156487 
L 141.276183 442.182672 
L 141.99474 442.024462 
L 142.706087 442.224119 
L 144.142371 442.135324 
L 144.864135 442.079753 
L 146.307447 442.163259 
L 149.929849 442.114774 
L 150.655455 442.193782 
L 151.386982 442.038925 
L 152.113454 442.18685 
L 153.57907 442.123096 
L 157.254149 442.170311 
L 157.991559 442.113463 
L 158.729157 442.190935 
L 159.470552 442.122418 
L 160.193658 442.566632 
L 160.950027 441.736362 
L 161.689684 442.216801 
L 163.916194 442.133361 
L 164.655789 442.219329 
L 166.147687 442.058384 
L 167.639232 442.183663 
L 169.890442 442.035153 
L 170.638666 442.200082 
L 172.890081 442.052936 
L 173.641674 442.150333 
L 175.905955 442.0991 
L 177.414454 442.16302 
L 178.17311 442.040774 
L 178.926059 442.189145 
L 179.682654 442.104714 
L 180.437929 442.1691 
L 181.199866 441.988211 
L 181.960018 442.125731 
L 183.477966 442.131818 
L 185.753856 442.212024 
L 186.51998 442.002634 
L 187.281329 442.179625 
L 188.806594 442.134778 
L 189.565264 442.209403 
L 190.331394 442.021428 
L 191.089974 442.218511 
L 191.855037 442.038532 
L 192.619312 442.12136 
L 193.383746 442.072335 
L 194.911931 442.169692 
L 196.443517 442.110383 
L 197.977614 442.1179 
L 198.747217 442.045578 
L 199.513373 442.195924 
L 201.053593 442.054865 
L 203.364612 442.118067 
L 206.445669 442.059289 
L 207.216415 442.14352 
L 207.988749 442.057885 
L 211.075202 442.191866 
L 211.851766 442.065596 
L 212.620762 442.196383 
L 213.396132 442.073466 
L 216.49071 442.157371 
L 217.270155 442.01419 
L 218.037635 442.326432 
L 218.816528 442.057553 
L 220.365488 442.170238 
L 222.694327 442.064179 
L 223.468473 442.192285 
L 226.570193 442.125777 
L 228.123318 442.123981 
L 228.906306 442.047733 
L 231.247134 442.159494 
L 232.031106 442.051053 
L 232.80732 442.167131 
L 234.373668 442.088561 
L 236.714384 442.189311 
L 237.498922 442.034541 
L 238.278918 442.214386 
L 239.061799 442.061791 
L 240.625951 442.126689 
L 241.411067 442.066953 
L 242.193662 442.168741 
L 243.763729 442.086606 
L 246.107783 442.235475 
L 246.895983 442.018541 
L 247.682518 442.126456 
L 248.467799 442.085049 
L 249.248304 442.2077 
L 250.03102 442.116077 
L 251.589523 442.307246 
L 252.374313 442.138318 
L 253.156742 442.234398 
L 253.944248 442.045611 
L 255.512865 442.245401 
L 256.303452 442.064578 
L 257.089147 442.154537 
L 258.662573 442.164989 
L 260.233141 442.149162 
L 261.806512 442.16582 
L 262.587507 442.307472 
L 263.377535 442.072947 
L 264.951106 442.180942 
L 265.740734 442.119191 
L 266.527619 442.245894 
L 267.321223 442.042444 
L 268.106999 442.221624 
L 271.261838 442.104555 
L 272.047499 442.219183 
L 272.837815 442.072748 
L 274.413217 442.222389 
L 275.203012 442.114927 
L 275.992313 442.165907 
L 276.783889 442.056588 
L 277.571481 442.203622 
L 278.355595 442.235548 
L 279.148002 442.05742 
L 279.935397 442.194348 
L 280.725579 442.089786 
L 282.301 442.199171 
L 283.091292 442.128831 
L 283.879492 442.204926 
L 284.673613 442.046862 
L 285.461298 442.193895 
L 290.19638 442.146228 
L 291.779279 442.200076 
L 293.357309 442.185546 
L 298.111867 442.102825 
L 299.692751 442.23179 
L 300.487974 442.046988 
L 302.867048 442.181914 
L 303.660795 442.105307 
L 305.241444 442.191247 
L 306.03924 442.006572 
L 306.833378 442.160551 
L 308.4198 442.167623 
L 309.206204 442.241622 
L 310.000984 442.066448 
L 310.792286 442.198213 
L 312.380299 442.091954 
L 313.171284 442.187083 
L 313.964516 442.135597 
L 314.753885 442.200096 
L 315.547401 442.131998 
L 316.337214 442.183424 
L 317.134647 442.038147 
L 317.925825 442.202724 
L 319.510214 442.115898 
L 321.889578 442.194308 
L 323.478841 442.070406 
L 325.060742 442.167796 
L 327.434507 442.169679 
L 331.386558 442.169479 
L 336.93048 442.089579 
L 337.720679 442.236234 
L 338.515681 442.092354 
L 341.685583 442.187036 
L 342.478089 442.121107 
L 344.06173 442.173305 
L 344.849544 442.188986 
L 345.643886 442.088096 
L 347.225835 442.18663 
L 348.022998 442.030483 
L 348.812924 442.220912 
L 350.395408 442.125411 
L 358.2974 442.297965 
L 359.089857 442.087271 
L 362.245164 442.202251 
L 363.830299 442.014988 
L 364.614306 442.299489 
L 365.406921 442.091382 
L 366.98957 442.133115 
L 367.784748 442.038446 
L 368.572331 442.17071 
L 370.94052 442.135643 
L 371.731538 442.069734 
L 372.517488 442.240944 
L 374.099629 442.118153 
L 385.140477 442.082474 
L 385.923349 442.257024 
L 386.713798 442.049064 
L 387.502274 442.166472 
L 407.147095 442.082035 
L 407.925286 442.288678 
L 408.706733 442.141677 
L 414.168262 442.21861 
L 414.952888 442.077737 
L 415.730996 442.307019 
L 416.515398 442.05086 
L 417.291991 442.245641 
L 418.074636 442.07952 
L 418.853534 442.208066 
L 420.416936 442.13384 
L 421.978132 442.160212 
L 435.223153 442.100756 
L 436.000825 442.18212 
L 436.779789 442.105639 
L 438.329026 442.165368 
L 439.106902 442.053475 
L 440.656846 442.131452 
L 444.530379 442.07952 
L 445.30156 442.214645 
L 448.402631 442.059682 
L 449.174886 442.176425 
L 451.498645 442.104255 
L 453.046288 442.185972 
L 453.823927 442.018987 
L 454.591611 442.203276 
L 456.138498 442.120182 
L 457.674944 442.222196 
L 460.762942 442.102546 
L 461.531279 442.184947 
L 463.071475 442.151078 
L 464.60512 442.172826 
L 465.375623 442.066208 
L 469.215418 442.159401 
L 469.983869 442.078516 
L 470.749746 442.163891 
L 471.51922 442.08584 
L 473.052844 442.179745 
L 475.356094 442.064246 
L 476.119859 442.219322 
L 476.887698 442.093238 
L 477.651423 442.171249 
L 478.421057 442.034574 
L 479.187437 442.113629 
L 479.945269 442.340543 
L 480.707851 442.147066 
L 482.23766 442.128711 
L 482.998664 442.192132 
L 483.766653 442.042105 
L 485.29116 442.234491 
L 486.054423 442.080485 
L 486.818234 442.142023 
L 487.582716 442.040768 
L 488.345927 442.197714 
L 489.110125 442.015194 
L 489.870324 442.189604 
L 490.634216 442.097383 
L 493.672843 442.232335 
L 494.434963 442.073579 
L 495.955821 442.131732 
L 496.715436 442.124939 
L 497.470045 442.23497 
L 498.234487 442.013032 
L 498.991726 442.194787 
L 499.752201 442.090231 
L 502.792123 442.126176 
L 503.550123 442.077445 
L 504.305691 442.198373 
L 505.064088 442.061691 
L 506.57565 442.129596 
L 508.847495 442.101448 
L 509.599797 442.158888 
L 510.354408 442.088455 
L 511.105472 442.247184 
L 511.863595 442.042185 
L 513.373053 442.144472 
L 519.395875 442.176997 
L 520.148384 442.069129 
L 520.899119 442.179166 
L 521.65349 442.084364 
L 526.903304 442.163026 
L 527.655656 442.082727 
L 528.402425 442.16626 
L 529.900534 442.122477 
L 531.395224 442.126556 
L 533.639847 442.095028 
L 542.582196 442.026138 
L 543.324386 442.164976 
L 544.067903 442.073752 
L 545.557055 442.110409 
L 547.042608 442.13708 
L 548.529258 442.087876 
L 572.871336 442.175041 
L 573.609543 441.934296 
L 574.338151 442.140566 
L 575.071159 442.051306 
L 575.802874 442.126476 
L 576.534737 442.072408 
L 577.2654 442.131924 
L 578.730687 442.059349 
L 580.919283 442.133368 
L 581.648707 442.018108 
L 582.374994 442.125358 
L 583.107054 442.047201 
L 583.834284 442.131885 
L 584.564302 442.021648 
L 585.290415 442.129396 
L 586.019547 442.03951 
L 589.650333 442.131698 
L 592.55255 442.038978 
L 593.271056 442.267415 
L 593.996288 442.069821 
L 596.168361 442.090684 
L 596.893115 442.056016 
L 597.614809 442.142309 
L 598.337844 442.053215 
L 599.058688 442.124992 
L 600.499306 442.029192 
L 601.216605 442.149268 
L 601.939359 441.989122 
L 602.654503 442.17425 
L 603.375926 442.010631 
L 604.092599 442.161336 
L 606.244055 442.073799 
L 606.960361 442.18828 
L 607.679796 442.032685 
L 608.393503 442.222396 
L 609.114785 442.015514 
L 609.828204 442.20456 
L 610.548058 442.018847 
L 611.972362 442.134486 
L 612.690561 442.02858 
L 613.401554 442.158775 
L 614.118458 442.056415 
L 614.829112 442.142476 
L 618.393227 442.059708 
L 619.102655 442.169353 
L 619.815057 442.031028 
L 620.519598 442.292443 
L 621.230793 442.088528 
L 621.940231 442.129995 
L 623.365328 442.040675 
L 624.071423 442.164277 
L 624.784173 442.020836 
L 625.49082 442.109378 
L 626.204636 441.98386 
L 626.914977 442.125624 
L 628.332388 442.091409 
L 631.164195 442.048458 
L 632.573529 442.083785 
L 648.730428 441.984345 
L 649.423003 442.22499 
L 650.122913 442.053841 
L 652.215776 442.137027 
L 652.917158 441.989721 
L 654.312664 442.060966 
L 656.401209 442.161949 
L 657.096985 441.990998 
L 657.791239 442.104681 
L 659.876627 442.066947 
L 662.65182 441.995183 
L 663.341007 442.151377 
L 665.416634 442.051233 
L 666.107749 442.133747 
L 666.803264 442.004244 
L 668.186402 442.09107 
L 694.997793 442.011522 
L 695.680085 442.12122 
L 696.366477 442.005069 
L 697.049324 442.086978 
L 697.734232 442.008029 
L 699.780349 442.15302 
L 700.461619 442.030137 
L 701.143247 442.106664 
L 701.824351 442.03804 
L 703.858002 442.201446 
L 705.891848 442.159161 
L 707.243438 442.220134 
L 709.943841 442.241143 
L 711.293207 442.261148 
L 714.660127 442.234936 
L 715.325187 442.407397 
L 715.995344 442.281865 
L 717.329473 442.342193 
L 725.981486 442.450886 
L 726.638501 442.694505 
L 727.302735 442.390492 
L 728.628607 442.475262 
L 729.293234 442.436802 
L 729.953668 442.531964 
L 731.279335 442.482474 
L 733.256001 442.575586 
L 733.911012 442.575779 
L 734.576084 442.443595 
L 735.235772 442.523542 
L 737.21425 442.51148 
L 737.869451 442.572699 
L 739.191212 442.52432 
L 743.129362 442.619701 
L 744.443033 442.550745 
L 745.095927 442.651335 
L 745.754556 442.531718 
L 746.406948 442.677793 
L 749.02104 442.550439 
L 749.672301 442.707405 
L 750.330404 442.535124 
L 750.982717 442.677454 
L 752.947555 442.575806 
L 753.596016 442.710039 
L 761.412856 442.677441 
L 762.061196 442.757075 
L 762.713733 442.624664 
L 763.362855 442.778177 
L 764.011538 442.687959 
L 765.309747 442.692356 
L 765.962965 442.678678 
L 766.605765 442.86658 
L 767.257213 442.652872 
L 767.904331 442.747249 
L 768.555356 442.691032 
L 769.202436 442.768691 
L 769.856737 442.660503 
L 771.152762 442.746084 
L 771.801906 442.702322 
L 772.449367 442.801183 
L 773.097689 442.685883 
L 774.395302 442.738154 
L 774.395302 442.738154 
" clip-path="url(#p94e7f3b38a)" style="fill: none; stroke: #9467bd; stroke-width: 1.5; stroke-linecap: square"/>
   </g>
   <g id="patch_3">
    <path d="M 115.2 461.376 
L 115.2 62.208 
" style="fill: none; stroke: #000000; stroke-width: 0.8; stroke-linejoin: miter; stroke-linecap: square"/>
   </g>
   <g id="patch_4">
    <path d="M 829.44 461.376 
L 829.44 62.208 
" style="fill: none; stroke: #000000; stroke-width: 0.8; stroke-linejoin: miter; stroke-linecap: square"/>
   </g>
   <g id="patch_5">
    <path d="M 115.2 461.376 
L 829.44 461.376 
" style="fill: none; stroke: #000000; stroke-width: 0.8; stroke-linejoin: miter; stroke-linecap: square"/>
   </g>
   <g id="patch_6">
    <path d="M 115.2 62.208 
L 829.44 62.208 
" style="fill: none; stroke: #000000; stroke-width: 0.8; stroke-linejoin: miter; stroke-linecap: square"/>
   </g>
   <g id="text_23">
    <!-- $\mathrm{proto\ &amp;\ mica*}$的吞吐量随请求数的变化趋势 -->
    <g transform="translate(254.466 56.208) scale(0.228 -0.228)">
     <defs>
      <path id="STIXGeneral-Regular-72" d="M 1024 2931 
L 1024 2342 
Q 1267 2688 1430 2816 
Q 1594 2944 1792 2944 
Q 1958 2944 2051 2854 
Q 2144 2765 2144 2605 
Q 2144 2470 2077 2393 
Q 2010 2317 1894 2317 
Q 1773 2317 1638 2445 
Q 1536 2541 1472 2541 
Q 1338 2541 1181 2355 
Q 1024 2170 1024 2016 
L 1024 576 
Q 1024 301 1133 205 
Q 1242 109 1568 96 
L 1568 0 
L 32 0 
L 32 96 
Q 339 154 412 224 
Q 486 294 486 538 
L 486 2138 
Q 486 2349 438 2435 
Q 390 2522 269 2522 
Q 166 2522 45 2496 
L 45 2598 
Q 448 2726 992 2944 
L 1024 2931 
z
" transform="scale(0.015625)"/>
      <path id="STIXGeneral-Regular-74" d="M 1702 493 
L 1786 422 
Q 1478 -64 1011 -64 
Q 448 -64 448 749 
L 448 2675 
L 109 2675 
Q 83 2694 83 2720 
Q 83 2771 192 2842 
Q 435 2982 813 3526 
Q 826 3546 874 3606 
Q 922 3667 941 3706 
Q 986 3706 986 3622 
L 986 2880 
L 1632 2880 
L 1632 2675 
L 986 2675 
L 986 845 
Q 986 538 1062 403 
Q 1139 269 1318 269 
Q 1510 269 1702 493 
z
" transform="scale(0.015625)"/>
      <path id="STIXGeneral-Regular-26" d="M 4704 710 
L 4800 640 
Q 4659 294 4409 105 
Q 4160 -83 3834 -83 
Q 3309 -83 2746 499 
Q 2387 186 2070 51 
Q 1754 -83 1363 -83 
Q 838 -83 553 160 
Q 269 403 269 877 
Q 269 1267 528 1628 
Q 787 1990 1274 2272 
L 1517 2413 
Q 1293 2957 1293 3366 
Q 1293 3789 1571 4057 
Q 1850 4326 2266 4326 
Q 2656 4326 2899 4115 
Q 3142 3904 3142 3533 
Q 3142 3181 2921 2937 
Q 2701 2694 2150 2458 
Q 2509 1683 2995 1139 
Q 3315 1568 3449 1821 
Q 3584 2074 3584 2291 
Q 3584 2438 3494 2502 
Q 3405 2566 3168 2592 
L 3168 2726 
L 4550 2726 
L 4550 2592 
Q 4326 2592 4201 2509 
Q 4077 2426 3949 2214 
Q 3859 2074 3702 1814 
Q 3546 1555 3424 1363 
Q 3302 1171 3142 960 
Q 3379 659 3606 515 
Q 3834 371 4115 371 
Q 4301 371 4425 444 
Q 4550 518 4704 710 
z
M 2803 3558 
Q 2803 3795 2662 3958 
Q 2522 4122 2304 4122 
Q 2080 4122 1939 3974 
Q 1798 3827 1798 3590 
Q 1798 3334 1849 3139 
Q 1901 2944 2054 2662 
Q 2458 2848 2630 3059 
Q 2803 3270 2803 3558 
z
M 2586 666 
Q 2035 1312 1613 2195 
Q 1197 1926 1027 1686 
Q 858 1446 858 1114 
Q 858 717 1078 486 
Q 1299 256 1651 256 
Q 2061 256 2586 666 
z
" transform="scale(0.015625)"/>
      <path id="STIXGeneral-Regular-6d" d="M 4960 0 
L 3565 0 
L 3565 96 
Q 3834 122 3907 208 
Q 3981 294 3981 576 
L 3981 1894 
Q 3981 2278 3869 2444 
Q 3757 2611 3488 2611 
Q 3264 2611 3107 2521 
Q 2950 2432 2803 2221 
L 2803 608 
Q 2803 301 2896 201 
Q 2989 102 3264 96 
L 3264 0 
L 1830 0 
L 1830 96 
Q 2112 115 2189 188 
Q 2266 262 2266 550 
L 2266 1901 
Q 2266 2611 1850 2611 
Q 1670 2611 1468 2531 
Q 1267 2451 1171 2336 
Q 1088 2240 1088 2227 
L 1088 448 
Q 1088 243 1177 176 
Q 1267 109 1523 96 
L 1523 0 
L 102 0 
L 102 96 
Q 371 102 460 195 
Q 550 288 550 563 
L 550 2150 
Q 550 2387 499 2480 
Q 448 2573 326 2573 
Q 230 2573 122 2547 
L 122 2656 
Q 557 2778 1011 2944 
L 1062 2925 
L 1062 2451 
L 1075 2451 
Q 1363 2752 1584 2848 
Q 1805 2944 2054 2944 
Q 2560 2944 2733 2406 
Q 3232 2944 3776 2944 
Q 4518 2944 4518 1792 
L 4518 493 
Q 4518 282 4582 202 
Q 4646 122 4794 109 
L 4960 96 
L 4960 0 
z
" transform="scale(0.015625)"/>
      <path id="STIXGeneral-Regular-69" d="M 1152 4045 
Q 1152 3904 1056 3811 
Q 960 3718 819 3718 
Q 685 3718 592 3811 
Q 499 3904 499 4045 
Q 499 4179 595 4275 
Q 691 4371 826 4371 
Q 966 4371 1059 4275 
Q 1152 4179 1152 4045 
z
M 1619 0 
L 102 0 
L 102 96 
Q 435 115 521 211 
Q 608 307 608 666 
L 608 2118 
Q 608 2342 563 2432 
Q 518 2522 397 2522 
Q 243 2522 128 2490 
L 128 2592 
L 1120 2944 
L 1146 2918 
L 1146 672 
Q 1146 314 1226 218 
Q 1306 122 1619 96 
L 1619 0 
z
" transform="scale(0.015625)"/>
      <path id="STIXGeneral-Regular-63" d="M 2547 998 
L 2637 941 
Q 2362 403 2112 205 
Q 1786 -64 1376 -64 
Q 845 -64 502 336 
Q 160 736 160 1357 
Q 160 2170 698 2618 
Q 1094 2944 1562 2944 
Q 1965 2944 2256 2749 
Q 2547 2554 2547 2285 
Q 2547 2176 2457 2096 
Q 2368 2016 2246 2016 
Q 2022 2016 1939 2310 
L 1901 2451 
Q 1850 2630 1773 2694 
Q 1696 2758 1523 2758 
Q 1133 2758 893 2451 
Q 653 2144 653 1645 
Q 653 1094 928 745 
Q 1203 397 1645 397 
Q 1920 397 2118 528 
Q 2317 659 2547 998 
z
" transform="scale(0.015625)"/>
      <path id="STIXGeneral-Regular-61" d="M 2829 422 
L 2829 243 
Q 2586 -64 2253 -64 
Q 1888 -64 1843 403 
L 1837 403 
Q 1427 -64 909 -64 
Q 608 -64 422 112 
Q 237 288 237 602 
Q 237 1050 685 1350 
Q 992 1555 1837 1869 
L 1837 2214 
Q 1837 2502 1699 2646 
Q 1562 2790 1338 2790 
Q 1146 2790 1018 2697 
Q 890 2605 890 2477 
Q 890 2419 909 2348 
Q 928 2278 928 2208 
Q 928 2112 841 2029 
Q 755 1946 634 1946 
Q 525 1946 441 2029 
Q 358 2112 358 2240 
Q 358 2547 685 2752 
Q 986 2944 1421 2944 
Q 1939 2944 2176 2656 
Q 2291 2522 2323 2384 
Q 2355 2246 2355 1946 
L 2355 723 
Q 2355 301 2554 301 
Q 2682 301 2829 422 
z
M 1837 813 
L 1837 1715 
Q 1248 1510 1018 1293 
Q 800 1094 800 800 
Q 800 557 921 432 
Q 1043 307 1242 307 
Q 1453 307 1613 410 
Q 1747 506 1792 589 
Q 1837 672 1837 813 
z
" transform="scale(0.015625)"/>
      <path id="STIXGeneral-Regular-2a" d="M 1715 3014 
L 1773 2976 
Q 2010 2822 2387 2758 
Q 2605 2726 2688 2665 
Q 2771 2605 2771 2483 
Q 2771 2374 2707 2304 
Q 2643 2234 2541 2234 
Q 2381 2234 2157 2515 
Q 2010 2694 1715 2886 
L 1664 2918 
L 1664 2861 
Q 1664 2502 1792 2157 
Q 1850 1997 1850 1946 
Q 1850 1850 1770 1773 
Q 1690 1696 1594 1696 
Q 1504 1696 1433 1766 
Q 1363 1837 1363 1926 
Q 1363 2016 1440 2227 
Q 1542 2502 1542 2861 
L 1542 2918 
Q 1286 2758 1210 2688 
Q 1133 2611 947 2400 
Q 806 2240 672 2240 
Q 563 2240 499 2304 
Q 435 2368 435 2470 
Q 435 2592 528 2656 
Q 621 2720 838 2758 
Q 1062 2803 1180 2848 
Q 1299 2893 1498 3014 
Q 1222 3181 877 3251 
Q 640 3302 544 3366 
Q 448 3430 448 3546 
Q 448 3648 505 3715 
Q 563 3782 659 3782 
Q 787 3782 973 3578 
Q 1242 3277 1542 3110 
L 1542 3194 
Q 1542 3456 1446 3776 
Q 1376 3987 1376 4109 
Q 1376 4198 1443 4262 
Q 1510 4326 1606 4326 
Q 1702 4326 1772 4259 
Q 1843 4192 1843 4096 
Q 1843 3994 1773 3795 
Q 1664 3507 1664 3264 
L 1664 3110 
Q 1882 3238 2035 3379 
Q 2067 3411 2153 3504 
Q 2240 3597 2291 3648 
Q 2342 3699 2409 3747 
Q 2477 3795 2528 3795 
Q 2637 3795 2701 3728 
Q 2765 3661 2765 3552 
Q 2765 3424 2691 3363 
Q 2618 3302 2432 3277 
Q 2074 3219 1715 3014 
z
" transform="scale(0.015625)"/>
      <path id="SimSun-7684" d="M 1125 3775 
L 1125 2175 
L 2425 2175 
L 2425 3775 
L 1125 3775 
z
M 1125 2025 
L 1125 275 
L 2425 275 
L 2425 2025 
L 1125 2025 
z
M 2750 3625 
Q 2750 700 2775 -200 
L 2425 -400 
L 2425 125 
L 1125 125 
L 1125 -300 
L 775 -500 
Q 800 675 800 1837 
Q 800 3000 775 4150 
L 1150 3925 
L 1400 3925 
Q 1650 4775 1675 5225 
L 2225 4925 
Q 1975 4800 1550 3925 
L 2375 3925 
L 2625 4175 
L 3000 3800 
L 2750 3625 
z
M 3975 5200 
L 4525 4875 
Q 4325 4750 3900 3850 
L 5250 3850 
L 5525 4125 
L 5900 3750 
L 5675 3575 
Q 5625 650 5537 262 
Q 5450 -125 5287 -275 
Q 5125 -425 4775 -550 
Q 4650 -150 3950 50 
L 3950 175 
Q 4575 50 4850 50 
Q 5125 50 5187 475 
Q 5250 900 5300 3700 
L 3850 3700 
Q 3400 2975 2900 2475 
L 2825 2525 
Q 3350 3325 3600 3950 
Q 3850 4575 3975 5200 
z
M 3525 2750 
Q 4125 2300 4225 2087 
Q 4325 1875 4325 1775 
Q 4325 1600 4225 1475 
Q 4125 1350 4075 1350 
Q 3975 1350 3925 1700 
Q 3825 2200 3475 2675 
L 3525 2750 
z
" transform="scale(0.015625)"/>
      <path id="SimSun-968f" d="M 2175 4225 
L 2250 4275 
Q 2800 3825 2850 3625 
Q 2900 3425 2775 3300 
Q 2650 3175 2600 3175 
Q 2500 3175 2475 3425 
Q 2425 3800 2175 4225 
z
M 6050 0 
L 6050 -100 
Q 5650 -175 5625 -475 
Q 4975 -450 4487 -425 
Q 4000 -400 3650 -262 
Q 3300 -125 3050 150 
Q 2875 300 2750 300 
Q 2650 300 2487 162 
Q 2325 25 2125 -375 
L 1750 -100 
Q 2100 175 2575 450 
L 2575 2300 
Q 2525 2300 2250 2225 
L 2025 2450 
L 2550 2450 
L 2700 2650 
L 3075 2375 
L 2875 2225 
L 2875 475 
Q 3325 75 3762 0 
Q 4200 -75 4725 -62 
Q 5250 -50 6050 0 
z
M 600 4900 
L 950 4675 
L 1700 4675 
L 1900 4900 
L 2300 4625 
L 2075 4450 
L 1475 3000 
Q 1650 2775 1900 2475 
Q 2125 2175 2162 1975 
Q 2200 1775 2200 1650 
Q 2200 1400 2075 1150 
Q 1950 900 1400 800 
Q 1400 1075 950 1250 
L 950 -475 
L 600 -650 
Q 625 0 625 2175 
Q 625 4350 600 4900 
z
M 1300 3000 
L 1725 4525 
L 950 4525 
L 950 1350 
Q 1275 1275 1425 1275 
Q 1600 1275 1725 1350 
Q 1850 1425 1850 1675 
Q 1850 1825 1812 2100 
Q 1775 2375 1300 3000 
z
M 3900 3250 
L 3900 2600 
L 5150 2600 
L 5150 3250 
L 3900 3250 
z
M 3575 250 
Q 3600 725 3600 3200 
Q 3350 2875 3000 2625 
L 2950 2675 
Q 3525 3325 3850 4175 
L 3600 4175 
Q 3275 4175 3000 4100 
L 2775 4325 
L 3900 4325 
Q 4100 4925 4100 5150 
L 4600 4900 
Q 4425 4800 4225 4325 
L 5325 4325 
L 5625 4625 
L 6025 4175 
L 4175 4175 
Q 4025 3825 3825 3475 
L 3925 3400 
L 5100 3400 
L 5250 3625 
L 5650 3350 
L 5475 3200 
L 5475 875 
Q 5525 425 5025 275 
Q 5025 550 4525 650 
L 4525 750 
Q 4950 725 5050 725 
Q 5150 725 5150 900 
L 5150 1650 
L 3900 1650 
L 3900 400 
L 3575 250 
z
M 3900 2450 
L 3900 1800 
L 5150 1800 
L 5150 2450 
L 3900 2450 
z
" transform="scale(0.015625)"/>
      <path id="SimSun-53d8" d="M 2750 4225 
L 2750 2225 
L 3650 2225 
L 3650 4225 
L 2750 4225 
z
M 375 4375 
L 3100 4375 
Q 3050 4750 2650 5200 
L 2700 5275 
Q 3150 5075 3325 4925 
Q 3500 4775 3500 4700 
Q 3500 4550 3300 4375 
L 5125 4375 
L 5525 4775 
L 6075 4225 
L 4000 4225 
L 4000 2225 
L 4425 2225 
L 4675 2500 
L 5100 2100 
L 4825 1975 
Q 4300 1325 3525 650 
Q 4500 -50 6125 -175 
L 6125 -275 
Q 5750 -325 5625 -575 
Q 4175 -250 3300 450 
Q 2150 -300 350 -600 
L 325 -500 
Q 2050 -100 3075 675 
Q 2525 1250 2100 2075 
L 1650 2075 
L 1375 2025 
L 1175 2225 
L 2400 2225 
L 2400 4225 
L 1200 4225 
Q 875 4225 600 4150 
L 375 4375 
z
M 2275 2075 
Q 2725 1350 3300 850 
Q 3800 1300 4425 2075 
L 2275 2075 
z
M 1675 3850 
L 2125 3450 
L 1875 3350 
Q 1150 2575 325 1950 
L 250 2025 
Q 700 2425 1087 2937 
Q 1475 3450 1675 3850 
z
M 4350 3700 
Q 5675 3050 5812 2875 
Q 5950 2700 5950 2575 
Q 5950 2475 5900 2375 
Q 5850 2275 5800 2275 
Q 5700 2275 5500 2550 
Q 5200 2950 4275 3625 
L 4350 3700 
z
" transform="scale(0.015625)"/>
      <path id="SimSun-5316" d="M 1375 -600 
Q 1400 200 1400 925 
L 1400 3125 
Q 850 2300 350 1775 
L 275 1850 
Q 825 2625 1300 3650 
Q 1775 4675 1900 5200 
L 2450 4875 
L 2200 4725 
Q 1875 4000 1600 3475 
L 1950 3275 
L 1750 3075 
L 1750 350 
Q 1750 75 1775 -400 
L 1375 -600 
z
M 3450 2125 
L 3450 3925 
Q 3450 4475 3425 5200 
L 4000 4925 
L 3800 4725 
L 3800 2400 
Q 4150 2725 4562 3225 
Q 4975 3725 5150 4025 
L 5600 3600 
L 5325 3525 
Q 4600 2700 3800 2000 
L 3800 425 
Q 3800 0 4225 0 
L 5300 0 
Q 5500 0 5550 325 
Q 5600 650 5600 1325 
L 5725 1325 
Q 5775 650 5850 425 
Q 5925 200 6125 125 
Q 5900 -325 5400 -325 
L 4075 -325 
Q 3450 -325 3450 250 
L 3450 1775 
Q 2800 1275 1950 925 
L 1925 1025 
Q 2800 1525 3450 2125 
z
" transform="scale(0.015625)"/>
      <path id="SimSun-8d8b" d="M 3900 5225 
L 4425 4900 
L 4225 4825 
Q 4000 4475 3800 4150 
L 4750 4150 
L 4975 4425 
L 5400 4025 
Q 5100 4000 4475 3075 
L 5350 3075 
L 5500 3325 
L 5900 3050 
L 5725 2875 
Q 5725 1050 5750 525 
L 5400 375 
L 5400 800 
L 3725 800 
Q 3525 800 3250 725 
L 3025 950 
L 5400 950 
L 5400 1900 
L 4050 1900 
Q 3850 1900 3575 1825 
L 3350 2050 
L 5400 2050 
L 5400 2925 
L 3900 2925 
Q 3700 2925 3425 2850 
L 3200 3075 
L 4350 3075 
L 4775 4000 
L 3725 4000 
Q 3450 3625 3000 3200 
L 2950 3250 
Q 3650 4250 3900 5225 
z
M 300 -550 
L 225 -500 
Q 675 275 787 1112 
Q 900 1950 850 2425 
L 1400 2150 
Q 1250 2075 1212 1812 
Q 1175 1550 1125 1075 
Q 1500 750 1725 625 
L 1725 2825 
L 950 2825 
Q 750 2825 475 2750 
L 250 2975 
L 1600 2975 
L 1600 4025 
L 1225 4025 
Q 1025 4025 750 3950 
L 525 4175 
L 1600 4175 
Q 1600 4675 1575 5225 
L 2125 4975 
L 1925 4800 
L 1925 4175 
L 2400 4175 
L 2700 4475 
L 3100 4025 
L 1925 4025 
L 1925 2975 
L 2475 2975 
L 2800 3275 
L 3200 2825 
L 1750 2825 
L 2250 2600 
L 2050 2400 
L 2050 1800 
L 2625 1800 
L 2925 2100 
L 3300 1650 
L 2050 1650 
L 2050 425 
Q 2925 25 3737 0 
Q 4550 -25 4925 -25 
Q 5625 -25 6150 25 
L 6150 -50 
Q 5700 -250 5700 -475 
Q 4950 -500 4012 -412 
Q 3075 -325 2325 -12 
Q 1575 300 1100 900 
Q 775 -25 300 -550 
z
" transform="scale(0.015625)"/>
      <path id="SimSun-52bf" d="M 1650 4175 
Q 1650 4775 1625 5200 
L 2150 4950 
L 1975 4800 
L 1975 4175 
L 2200 4175 
L 2475 4450 
L 2900 4025 
L 1975 4025 
L 1975 3425 
Q 2400 3525 2800 3625 
L 2825 3525 
Q 2400 3375 1975 3225 
L 1975 2150 
Q 2000 1800 1475 1575 
Q 1450 1850 800 2025 
L 800 2150 
Q 1225 2100 1437 2087 
Q 1650 2075 1650 2325 
L 1650 3100 
Q 700 2750 700 2650 
L 400 3100 
Q 575 3100 1650 3350 
L 1650 4025 
L 1300 4025 
Q 975 4025 700 3950 
L 475 4175 
L 1650 4175 
z
M 3650 4175 
L 3650 4525 
Q 3650 4875 3625 5225 
L 4175 4975 
L 3975 4800 
L 3975 4200 
L 4700 4250 
L 4850 4475 
L 5200 4200 
L 5025 4050 
Q 5000 3900 5000 3575 
Q 5000 3225 5050 2812 
Q 5100 2400 5425 2175 
Q 5600 2650 5700 3050 
L 5800 3025 
Q 5725 2525 5725 2250 
Q 5725 1975 5825 1775 
Q 5900 1650 5775 1650 
Q 5725 1650 5475 1750 
Q 5225 1850 5012 2137 
Q 4800 2425 4737 2750 
Q 4675 3075 4675 3475 
Q 4675 3850 4700 4100 
L 3975 4050 
Q 3925 3450 3750 3050 
Q 4100 2900 4262 2787 
Q 4425 2675 4387 2475 
Q 4350 2275 4275 2275 
Q 4225 2275 4125 2400 
Q 3925 2625 3625 2825 
Q 3225 2225 2100 1800 
L 2050 1875 
Q 3075 2400 3375 2975 
Q 3225 3100 2850 3300 
L 2900 3375 
Q 3225 3275 3475 3175 
Q 3600 3500 3650 4025 
L 3300 4000 
L 3125 3925 
L 2875 4125 
L 3650 4175 
z
M 2600 1425 
Q 2675 1700 2700 2025 
L 3175 1775 
L 3000 1650 
L 2950 1425 
L 4725 1425 
L 4875 1675 
L 5325 1375 
L 5125 1225 
Q 5050 400 4987 112 
Q 4925 -175 4750 -350 
Q 4575 -525 4225 -600 
Q 4250 -350 3650 -50 
L 3675 50 
Q 4225 -100 4412 -87 
Q 4600 -75 4675 312 
Q 4750 700 4775 1275 
L 2925 1275 
Q 2800 775 2575 450 
Q 2350 125 1875 -162 
Q 1400 -450 450 -650 
L 400 -550 
Q 1500 -225 1950 200 
Q 2400 625 2575 1275 
L 1450 1275 
Q 1125 1275 850 1200 
L 625 1425 
L 2600 1425 
z
" transform="scale(0.015625)"/>
     </defs>
     <use xlink:href="#STIXGeneral-Regular-70" transform="translate(0 0.578125)"/>
     <use xlink:href="#STIXGeneral-Regular-72" transform="translate(49.999985 0.578125)"/>
     <use xlink:href="#STIXGeneral-Regular-6f" transform="translate(83.299973 0.578125)"/>
     <use xlink:href="#STIXGeneral-Regular-74" transform="translate(133.299957 0.578125)"/>
     <use xlink:href="#STIXGeneral-Regular-6f" transform="translate(161.099945 0.578125)"/>
     <use xlink:href="#STIXGeneral-Regular-26" transform="translate(235.16635 0.578125)"/>
     <use xlink:href="#STIXGeneral-Regular-6d" transform="translate(337.032757 0.578125)"/>
     <use xlink:href="#STIXGeneral-Regular-69" transform="translate(414.832745 0.578125)"/>
     <use xlink:href="#STIXGeneral-Regular-63" transform="translate(442.632733 0.578125)"/>
     <use xlink:href="#STIXGeneral-Regular-61" transform="translate(487.032727 0.578125)"/>
     <use xlink:href="#STIXGeneral-Regular-2a" transform="translate(545.872717 0.578125)"/>
     <use xlink:href="#SimSun-7684" transform="translate(610.312698 0.578125)"/>
     <use xlink:href="#SimSun-541e" transform="translate(710.312698 0.578125)"/>
     <use xlink:href="#SimSun-5410" transform="translate(810.312698 0.578125)"/>
     <use xlink:href="#SimSun-91cf" transform="translate(910.312698 0.578125)"/>
     <use xlink:href="#SimSun-968f" transform="translate(1010.312698 0.578125)"/>
     <use xlink:href="#SimSun-8bf7" transform="translate(1110.312698 0.578125)"/>
     <use xlink:href="#SimSun-6c42" transform="translate(1210.312698 0.578125)"/>
     <use xlink:href="#SimSun-6570" transform="translate(1310.312698 0.578125)"/>
     <use xlink:href="#SimSun-7684" transform="translate(1410.312698 0.578125)"/>
     <use xlink:href="#SimSun-53d8" transform="translate(1510.312698 0.578125)"/>
     <use xlink:href="#SimSun-5316" transform="translate(1610.312698 0.578125)"/>
     <use xlink:href="#SimSun-8d8b" transform="translate(1710.312698 0.578125)"/>
     <use xlink:href="#SimSun-52bf" transform="translate(1810.312698 0.578125)"/>
    </g>
   </g>
   <g id="legend_1">
    <g id="patch_7">
     <path d="M 699.414688 158.000656 
L 816.14 158.000656 
Q 819.94 158.000656 819.94 154.200656 
L 819.94 75.508 
Q 819.94 71.708 816.14 71.708 
L 699.414688 71.708 
Q 695.614688 71.708 695.614688 75.508 
L 695.614688 154.200656 
Q 695.614688 158.000656 699.414688 158.000656 
z
" style="fill: #ffffff; opacity: 0.8; stroke: #cccccc; stroke-linejoin: miter"/>
    </g>
    <g id="line2d_24">
     <path d="M 703.214688 85.958 
L 722.214688 85.958 
L 741.214688 85.958 
" style="fill: none; stroke: #ff0000; stroke-width: 1.5; stroke-linecap: square"/>
    </g>
    <g id="text_24">
     <!-- memc3 -->
     <g transform="translate(756.414688 92.608) scale(0.19 -0.19)">
      <defs>
       <path id="TimesNewRomanPSMT-6d" d="M 1050 2338 
Q 1363 2650 1419 2697 
Q 1559 2816 1721 2881 
Q 1884 2947 2044 2947 
Q 2313 2947 2506 2790 
Q 2700 2634 2766 2338 
Q 3088 2713 3309 2830 
Q 3531 2947 3766 2947 
Q 3994 2947 4170 2830 
Q 4347 2713 4450 2447 
Q 4519 2266 4519 1878 
L 4519 647 
Q 4519 378 4559 278 
Q 4591 209 4675 161 
Q 4759 113 4950 113 
L 4950 0 
L 3538 0 
L 3538 113 
L 3597 113 
Q 3781 113 3884 184 
Q 3956 234 3988 344 
Q 4000 397 4000 647 
L 4000 1878 
Q 4000 2228 3916 2372 
Q 3794 2572 3525 2572 
Q 3359 2572 3192 2489 
Q 3025 2406 2788 2181 
L 2781 2147 
L 2788 2013 
L 2788 647 
Q 2788 353 2820 281 
Q 2853 209 2943 161 
Q 3034 113 3253 113 
L 3253 0 
L 1806 0 
L 1806 113 
Q 2044 113 2133 169 
Q 2222 225 2256 338 
Q 2272 391 2272 647 
L 2272 1878 
Q 2272 2228 2169 2381 
Q 2031 2581 1784 2581 
Q 1616 2581 1450 2491 
Q 1191 2353 1050 2181 
L 1050 647 
Q 1050 366 1089 281 
Q 1128 197 1204 155 
Q 1281 113 1516 113 
L 1516 0 
L 100 0 
L 100 113 
Q 297 113 375 155 
Q 453 197 493 289 
Q 534 381 534 647 
L 534 1741 
Q 534 2213 506 2350 
Q 484 2453 437 2492 
Q 391 2531 309 2531 
Q 222 2531 100 2484 
L 53 2597 
L 916 2947 
L 1050 2947 
L 1050 2338 
z
" transform="scale(0.015625)"/>
       <path id="TimesNewRomanPSMT-65" d="M 681 1784 
Q 678 1147 991 784 
Q 1303 422 1725 422 
Q 2006 422 2214 576 
Q 2422 731 2563 1106 
L 2659 1044 
Q 2594 616 2278 264 
Q 1963 -88 1488 -88 
Q 972 -88 605 314 
Q 238 716 238 1394 
Q 238 2128 614 2539 
Q 991 2950 1559 2950 
Q 2041 2950 2350 2633 
Q 2659 2316 2659 1784 
L 681 1784 
z
M 681 1966 
L 2006 1966 
Q 1991 2241 1941 2353 
Q 1863 2528 1708 2628 
Q 1553 2728 1384 2728 
Q 1125 2728 920 2526 
Q 716 2325 681 1966 
z
" transform="scale(0.015625)"/>
       <path id="TimesNewRomanPSMT-63" d="M 2631 1088 
Q 2516 522 2178 217 
Q 1841 -88 1431 -88 
Q 944 -88 581 321 
Q 219 731 219 1428 
Q 219 2103 620 2525 
Q 1022 2947 1584 2947 
Q 2006 2947 2278 2723 
Q 2550 2500 2550 2259 
Q 2550 2141 2473 2067 
Q 2397 1994 2259 1994 
Q 2075 1994 1981 2113 
Q 1928 2178 1911 2362 
Q 1894 2547 1784 2644 
Q 1675 2738 1481 2738 
Q 1169 2738 978 2506 
Q 725 2200 725 1697 
Q 725 1184 976 792 
Q 1228 400 1656 400 
Q 1963 400 2206 609 
Q 2378 753 2541 1131 
L 2631 1088 
z
" transform="scale(0.015625)"/>
       <path id="TimesNewRomanPSMT-33" d="M 325 3431 
Q 506 3859 782 4092 
Q 1059 4325 1472 4325 
Q 1981 4325 2253 3994 
Q 2459 3747 2459 3466 
Q 2459 3003 1878 2509 
Q 2269 2356 2469 2072 
Q 2669 1788 2669 1403 
Q 2669 853 2319 450 
Q 1863 -75 997 -75 
Q 569 -75 414 31 
Q 259 138 259 259 
Q 259 350 332 419 
Q 406 488 509 488 
Q 588 488 669 463 
Q 722 447 909 348 
Q 1097 250 1169 231 
Q 1284 197 1416 197 
Q 1734 197 1970 444 
Q 2206 691 2206 1028 
Q 2206 1275 2097 1509 
Q 2016 1684 1919 1775 
Q 1784 1900 1550 2001 
Q 1316 2103 1072 2103 
L 972 2103 
L 972 2197 
Q 1219 2228 1467 2375 
Q 1716 2522 1828 2728 
Q 1941 2934 1941 3181 
Q 1941 3503 1739 3701 
Q 1538 3900 1238 3900 
Q 753 3900 428 3381 
L 325 3431 
z
" transform="scale(0.015625)"/>
      </defs>
      <use xlink:href="#TimesNewRomanPSMT-6d"/>
      <use xlink:href="#TimesNewRomanPSMT-65" x="77.783203"/>
      <use xlink:href="#TimesNewRomanPSMT-6d" x="122.167969"/>
      <use xlink:href="#TimesNewRomanPSMT-63" x="199.951172"/>
      <use xlink:href="#TimesNewRomanPSMT-33" x="244.335938"/>
     </g>
    </g>
    <g id="line2d_25">
     <path d="M 703.214688 112.822219 
L 722.214688 112.822219 
L 741.214688 112.822219 
" style="fill: none; stroke: #0000ff; stroke-width: 1.5; stroke-linecap: square"/>
    </g>
    <g id="text_25">
     <!-- mica -->
     <g transform="translate(756.414688 119.472219) scale(0.19 -0.19)">
      <defs>
       <path id="TimesNewRomanPSMT-69" d="M 928 4444 
Q 1059 4444 1151 4351 
Q 1244 4259 1244 4128 
Q 1244 3997 1151 3903 
Q 1059 3809 928 3809 
Q 797 3809 703 3903 
Q 609 3997 609 4128 
Q 609 4259 701 4351 
Q 794 4444 928 4444 
z
M 1188 2947 
L 1188 647 
Q 1188 378 1227 289 
Q 1266 200 1342 156 
Q 1419 113 1622 113 
L 1622 0 
L 231 0 
L 231 113 
Q 441 113 512 153 
Q 584 194 626 287 
Q 669 381 669 647 
L 669 1750 
Q 669 2216 641 2353 
Q 619 2453 572 2492 
Q 525 2531 444 2531 
Q 356 2531 231 2484 
L 188 2597 
L 1050 2947 
L 1188 2947 
z
" transform="scale(0.015625)"/>
       <path id="TimesNewRomanPSMT-61" d="M 1822 413 
Q 1381 72 1269 19 
Q 1100 -59 909 -59 
Q 613 -59 420 144 
Q 228 347 228 678 
Q 228 888 322 1041 
Q 450 1253 767 1440 
Q 1084 1628 1822 1897 
L 1822 2009 
Q 1822 2438 1686 2597 
Q 1550 2756 1291 2756 
Q 1094 2756 978 2650 
Q 859 2544 859 2406 
L 866 2225 
Q 866 2081 792 2003 
Q 719 1925 600 1925 
Q 484 1925 411 2006 
Q 338 2088 338 2228 
Q 338 2497 613 2722 
Q 888 2947 1384 2947 
Q 1766 2947 2009 2819 
Q 2194 2722 2281 2516 
Q 2338 2381 2338 1966 
L 2338 994 
Q 2338 584 2353 492 
Q 2369 400 2405 369 
Q 2441 338 2488 338 
Q 2538 338 2575 359 
Q 2641 400 2828 588 
L 2828 413 
Q 2478 -56 2159 -56 
Q 2006 -56 1915 50 
Q 1825 156 1822 413 
z
M 1822 616 
L 1822 1706 
Q 1350 1519 1213 1441 
Q 966 1303 859 1153 
Q 753 1003 753 825 
Q 753 600 887 451 
Q 1022 303 1197 303 
Q 1434 303 1822 616 
z
" transform="scale(0.015625)"/>
      </defs>
      <use xlink:href="#TimesNewRomanPSMT-6d"/>
      <use xlink:href="#TimesNewRomanPSMT-69" x="77.783203"/>
      <use xlink:href="#TimesNewRomanPSMT-63" x="105.566406"/>
      <use xlink:href="#TimesNewRomanPSMT-61" x="149.951172"/>
     </g>
    </g>
    <g id="line2d_26">
     <path d="M 703.214688 139.686437 
L 722.214688 139.686437 
L 741.214688 139.686437 
" style="fill: none; stroke: #9467bd; stroke-width: 1.5; stroke-linecap: square"/>
    </g>
    <g id="text_26">
     <!-- proto -->
     <g transform="translate(756.414688 146.336437) scale(0.19 -0.19)">
      <defs>
       <path id="TimesNewRomanPSMT-70" d="M -6 2578 
L 875 2934 
L 994 2934 
L 994 2266 
Q 1216 2644 1439 2795 
Q 1663 2947 1909 2947 
Q 2341 2947 2628 2609 
Q 2981 2197 2981 1534 
Q 2981 794 2556 309 
Q 2206 -88 1675 -88 
Q 1444 -88 1275 -22 
Q 1150 25 994 166 
L 994 -706 
Q 994 -1000 1030 -1079 
Q 1066 -1159 1155 -1206 
Q 1244 -1253 1478 -1253 
L 1478 -1369 
L -22 -1369 
L -22 -1253 
L 56 -1253 
Q 228 -1256 350 -1188 
Q 409 -1153 442 -1076 
Q 475 -1000 475 -688 
L 475 2019 
Q 475 2297 450 2372 
Q 425 2447 370 2484 
Q 316 2522 222 2522 
Q 147 2522 31 2478 
L -6 2578 
z
M 994 2081 
L 994 1013 
Q 994 666 1022 556 
Q 1066 375 1236 237 
Q 1406 100 1666 100 
Q 1978 100 2172 344 
Q 2425 663 2425 1241 
Q 2425 1897 2138 2250 
Q 1938 2494 1663 2494 
Q 1513 2494 1366 2419 
Q 1253 2363 994 2081 
z
" transform="scale(0.015625)"/>
       <path id="TimesNewRomanPSMT-72" d="M 1038 2947 
L 1038 2303 
Q 1397 2947 1775 2947 
Q 1947 2947 2059 2842 
Q 2172 2738 2172 2600 
Q 2172 2478 2090 2393 
Q 2009 2309 1897 2309 
Q 1788 2309 1652 2417 
Q 1516 2525 1450 2525 
Q 1394 2525 1328 2463 
Q 1188 2334 1038 2041 
L 1038 669 
Q 1038 431 1097 309 
Q 1138 225 1241 169 
Q 1344 113 1538 113 
L 1538 0 
L 72 0 
L 72 113 
Q 291 113 397 181 
Q 475 231 506 341 
Q 522 394 522 644 
L 522 1753 
Q 522 2253 501 2348 
Q 481 2444 426 2487 
Q 372 2531 291 2531 
Q 194 2531 72 2484 
L 41 2597 
L 906 2947 
L 1038 2947 
z
" transform="scale(0.015625)"/>
       <path id="TimesNewRomanPSMT-6f" d="M 1600 2947 
Q 2250 2947 2644 2453 
Q 2978 2031 2978 1484 
Q 2978 1100 2793 706 
Q 2609 313 2286 112 
Q 1963 -88 1566 -88 
Q 919 -88 538 428 
Q 216 863 216 1403 
Q 216 1797 411 2186 
Q 606 2575 925 2761 
Q 1244 2947 1600 2947 
z
M 1503 2744 
Q 1338 2744 1170 2645 
Q 1003 2547 900 2300 
Q 797 2053 797 1666 
Q 797 1041 1045 587 
Q 1294 134 1700 134 
Q 2003 134 2200 384 
Q 2397 634 2397 1244 
Q 2397 2006 2069 2444 
Q 1847 2744 1503 2744 
z
" transform="scale(0.015625)"/>
       <path id="TimesNewRomanPSMT-74" d="M 1031 3803 
L 1031 2863 
L 1700 2863 
L 1700 2644 
L 1031 2644 
L 1031 788 
Q 1031 509 1111 412 
Q 1191 316 1316 316 
Q 1419 316 1516 380 
Q 1613 444 1666 569 
L 1788 569 
Q 1678 263 1478 108 
Q 1278 -47 1066 -47 
Q 922 -47 784 33 
Q 647 113 581 261 
Q 516 409 516 719 
L 516 2644 
L 63 2644 
L 63 2747 
Q 234 2816 414 2980 
Q 594 3144 734 3369 
Q 806 3488 934 3803 
L 1031 3803 
z
" transform="scale(0.015625)"/>
      </defs>
      <use xlink:href="#TimesNewRomanPSMT-70"/>
      <use xlink:href="#TimesNewRomanPSMT-72" x="50"/>
      <use xlink:href="#TimesNewRomanPSMT-6f" x="83.300781"/>
      <use xlink:href="#TimesNewRomanPSMT-74" x="133.300781"/>
      <use xlink:href="#TimesNewRomanPSMT-6f" x="161.083984"/>
     </g>
    </g>
   </g>
  </g>
 </g>
 <defs>
  <clipPath id="p94e7f3b38a">
   <rect x="115.2" y="62.208" width="714.24" height="399.168"/>
  </clipPath>
 </defs>
</svg>
