<?xml version="1.0" encoding="utf-8" standalone="no"?>
<!DOCTYPE svg PUBLIC "-//W3C//DTD SVG 1.1//EN"
  "http://www.w3.org/Graphics/SVG/1.1/DTD/svg11.dtd">
<svg xmlns:xlink="http://www.w3.org/1999/xlink" width="921.6pt" height="518.4pt" viewBox="0 0 921.6 518.4" xmlns="http://www.w3.org/2000/svg" version="1.1">
 <metadata>
  <rdf:RDF xmlns:dc="http://purl.org/dc/elements/1.1/" xmlns:cc="http://creativecommons.org/ns#" xmlns:rdf="http://www.w3.org/1999/02/22-rdf-syntax-ns#">
   <cc:Work>
    <dc:type rdf:resource="http://purl.org/dc/dcmitype/StillImage"/>
    <dc:date>2023-07-04T16:28:34.828945</dc:date>
    <dc:format>image/svg+xml</dc:format>
    <dc:creator>
     <cc:Agent>
      <dc:title>Matplotlib v3.7.1, https://matplotlib.org/</dc:title>
     </cc:Agent>
    </dc:creator>
   </cc:Work>
  </rdf:RDF>
 </metadata>
 <defs>
  <style type="text/css">*{stroke-linejoin: round; stroke-linecap: butt}</style>
 </defs>
 <g id="figure_1">
  <g id="patch_1">
   <path d="M 0 518.4 
L 921.6 518.4 
L 921.6 0 
L 0 0 
z
" style="fill: #ffffff"/>
  </g>
  <g id="axes_1">
   <g id="patch_2">
    <path d="M 115.2 461.376 
L 829.44 461.376 
L 829.44 62.208 
L 115.2 62.208 
z
" style="fill: #ffffff"/>
   </g>
   <g id="matplotlib.axis_1">
    <g id="xtick_1">
     <g id="line2d_1">
      <defs>
       <path id="mae0c69941e" d="M 0 0 
L 0 3.5 
" style="stroke: #000000; stroke-width: 0.8"/>
      </defs>
      <g>
       <use xlink:href="#mae0c69941e" x="115.2" y="461.376" style="stroke: #000000; stroke-width: 0.8"/>
      </g>
     </g>
     <g id="text_1">
      <!-- 0 -->
      <g transform="translate(110.45 481.958031) scale(0.19 -0.19)">
       <defs>
        <path id="SimSun-30" d="M 1600 4225 
Q 1250 4225 1012 3687 
Q 775 3150 775 2250 
Q 775 1300 1012 775 
Q 1250 250 1600 250 
Q 1975 250 2187 775 
Q 2400 1300 2400 2250 
Q 2400 3150 2200 3687 
Q 2000 4225 1600 4225 
z
M 1600 50 
Q 1050 50 675 625 
Q 300 1200 300 2250 
Q 300 3225 662 3825 
Q 1025 4425 1600 4425 
Q 2150 4425 2512 3850 
Q 2875 3275 2875 2250 
Q 2875 1225 2512 637 
Q 2150 50 1600 50 
z
" transform="scale(0.015625)"/>
       </defs>
       <use xlink:href="#SimSun-30"/>
      </g>
     </g>
    </g>
    <g id="xtick_2">
     <g id="line2d_2">
      <g>
       <use xlink:href="#mae0c69941e" x="186.624" y="461.376" style="stroke: #000000; stroke-width: 0.8"/>
      </g>
     </g>
     <g id="text_2">
      <!-- 10 -->
      <g transform="translate(177.124 481.958031) scale(0.19 -0.19)">
       <defs>
        <path id="SimSun-31" d="M 1825 4450 
L 1825 650 
Q 1825 450 1950 350 
Q 2075 250 2300 250 
L 2550 250 
L 2550 100 
L 725 100 
L 725 250 
L 950 250 
Q 1200 250 1312 350 
Q 1425 450 1425 650 
L 1425 3675 
Q 1425 3775 1362 3837 
Q 1300 3900 1175 3900 
L 725 3900 
L 725 4050 
L 950 4050 
Q 1250 4050 1437 4150 
Q 1625 4250 1725 4450 
L 1825 4450 
z
" transform="scale(0.015625)"/>
       </defs>
       <use xlink:href="#SimSun-31"/>
       <use xlink:href="#SimSun-30" x="50"/>
      </g>
     </g>
    </g>
    <g id="xtick_3">
     <g id="line2d_3">
      <g>
       <use xlink:href="#mae0c69941e" x="258.048" y="461.376" style="stroke: #000000; stroke-width: 0.8"/>
      </g>
     </g>
     <g id="text_3">
      <!-- 20 -->
      <g transform="translate(248.548 481.958031) scale(0.19 -0.19)">
       <defs>
        <path id="SimSun-32" d="M 2325 3325 
Q 2325 3775 2125 4012 
Q 1925 4250 1525 4250 
Q 1225 4250 1012 4087 
Q 800 3925 800 3675 
Q 800 3525 900 3425 
Q 975 3325 975 3225 
Q 975 3100 912 3037 
Q 850 2975 725 2975 
Q 575 2975 487 3062 
Q 400 3150 400 3350 
Q 400 3875 775 4150 
Q 1150 4425 1575 4425 
Q 2175 4425 2462 4125 
Q 2750 3825 2750 3375 
Q 2750 3075 2612 2775 
Q 2475 2475 2175 2200 
Q 1450 1500 1062 1062 
Q 675 625 600 475 
L 2075 475 
Q 2300 475 2450 650 
Q 2600 825 2650 1175 
L 2800 1175 
L 2650 100 
L 325 100 
L 325 425 
Q 450 650 737 1000 
Q 1025 1350 1500 1825 
Q 1925 2250 2125 2625 
Q 2325 3000 2325 3325 
z
" transform="scale(0.015625)"/>
       </defs>
       <use xlink:href="#SimSun-32"/>
       <use xlink:href="#SimSun-30" x="50"/>
      </g>
     </g>
    </g>
    <g id="xtick_4">
     <g id="line2d_4">
      <g>
       <use xlink:href="#mae0c69941e" x="329.472" y="461.376" style="stroke: #000000; stroke-width: 0.8"/>
      </g>
     </g>
     <g id="text_4">
      <!-- 30 -->
      <g transform="translate(319.972 481.958031) scale(0.19 -0.19)">
       <defs>
        <path id="SimSun-33" d="M 2800 1250 
Q 2800 775 2450 412 
Q 2100 50 1475 50 
Q 1025 50 700 300 
Q 375 550 375 875 
Q 375 1025 475 1137 
Q 575 1250 675 1250 
Q 825 1250 887 1137 
Q 950 1025 950 950 
Q 950 825 900 750 
Q 850 650 850 575 
Q 850 425 1037 325 
Q 1225 225 1450 225 
Q 1900 225 2125 487 
Q 2350 750 2350 1300 
Q 2350 1750 2112 2025 
Q 1875 2300 1225 2300 
L 1225 2475 
Q 1725 2475 1962 2712 
Q 2200 2950 2200 3375 
Q 2200 3725 2012 3987 
Q 1825 4250 1425 4250 
Q 1250 4250 1050 4162 
Q 850 4075 850 3875 
Q 850 3675 900 3625 
Q 950 3575 950 3500 
Q 950 3375 900 3300 
Q 850 3225 725 3225 
Q 625 3225 537 3300 
Q 450 3375 450 3575 
Q 450 3950 775 4187 
Q 1100 4425 1525 4425 
Q 2025 4425 2325 4112 
Q 2625 3800 2625 3450 
Q 2625 3075 2437 2812 
Q 2250 2550 1850 2425 
Q 2400 2225 2600 1900 
Q 2800 1575 2800 1250 
z
" transform="scale(0.015625)"/>
       </defs>
       <use xlink:href="#SimSun-33"/>
       <use xlink:href="#SimSun-30" x="50"/>
      </g>
     </g>
    </g>
    <g id="xtick_5">
     <g id="line2d_5">
      <g>
       <use xlink:href="#mae0c69941e" x="400.896" y="461.376" style="stroke: #000000; stroke-width: 0.8"/>
      </g>
     </g>
     <g id="text_5">
      <!-- 40 -->
      <g transform="translate(391.396 481.958031) scale(0.19 -0.19)">
       <defs>
        <path id="SimSun-34" d="M 2300 575 
Q 2300 400 2400 325 
Q 2500 250 2675 250 
L 2900 250 
L 2900 100 
L 1250 100 
L 1250 250 
L 1525 250 
Q 1725 250 1812 325 
Q 1900 400 1900 575 
L 1900 1400 
L 225 1400 
L 225 1525 
L 2050 4425 
L 2300 4425 
L 2300 1550 
L 2975 1550 
L 2975 1400 
L 2300 1400 
L 2300 575 
z
M 1875 3800 
L 450 1550 
L 1900 1550 
L 1900 3800 
L 1875 3800 
z
" transform="scale(0.015625)"/>
       </defs>
       <use xlink:href="#SimSun-34"/>
       <use xlink:href="#SimSun-30" x="50"/>
      </g>
     </g>
    </g>
    <g id="xtick_6">
     <g id="line2d_6">
      <g>
       <use xlink:href="#mae0c69941e" x="472.32" y="461.376" style="stroke: #000000; stroke-width: 0.8"/>
      </g>
     </g>
     <g id="text_6">
      <!-- 50 -->
      <g transform="translate(462.82 481.958031) scale(0.19 -0.19)">
       <defs>
        <path id="SimSun-35" d="M 1725 2850 
Q 2200 2850 2500 2487 
Q 2800 2125 2800 1525 
Q 2800 850 2487 450 
Q 2175 50 1525 50 
Q 1075 50 725 312 
Q 375 575 375 950 
Q 375 1100 462 1212 
Q 550 1325 700 1325 
Q 850 1325 900 1225 
Q 950 1125 950 1050 
Q 950 900 875 825 
Q 800 725 800 625 
Q 800 425 1037 325 
Q 1275 225 1550 225 
Q 1950 225 2162 550 
Q 2375 875 2375 1475 
Q 2375 1975 2187 2287 
Q 2000 2600 1625 2600 
Q 1350 2600 1150 2500 
Q 950 2400 775 2075 
L 550 2100 
L 675 4375 
L 2725 4375 
L 2650 4000 
L 850 4000 
L 750 2350 
Q 1000 2700 1237 2775 
Q 1475 2850 1725 2850 
z
" transform="scale(0.015625)"/>
       </defs>
       <use xlink:href="#SimSun-35"/>
       <use xlink:href="#SimSun-30" x="50"/>
      </g>
     </g>
    </g>
    <g id="xtick_7">
     <g id="line2d_7">
      <g>
       <use xlink:href="#mae0c69941e" x="543.744" y="461.376" style="stroke: #000000; stroke-width: 0.8"/>
      </g>
     </g>
     <g id="text_7">
      <!-- 60 -->
      <g transform="translate(534.244 481.958031) scale(0.19 -0.19)">
       <defs>
        <path id="SimSun-36" d="M 775 1800 
Q 775 1050 1037 637 
Q 1300 225 1675 225 
Q 2050 225 2250 500 
Q 2450 775 2450 1525 
Q 2450 2025 2237 2300 
Q 2025 2575 1725 2575 
Q 1450 2575 1212 2412 
Q 975 2250 775 1800 
z
M 1750 2825 
Q 2350 2825 2612 2425 
Q 2875 2025 2875 1525 
Q 2875 775 2512 412 
Q 2150 50 1675 50 
Q 1000 50 650 562 
Q 300 1075 300 2050 
Q 300 3200 725 3812 
Q 1150 4425 1875 4425 
Q 2225 4425 2437 4225 
Q 2650 4025 2650 3875 
Q 2650 3725 2587 3650 
Q 2525 3575 2375 3575 
Q 2250 3575 2187 3637 
Q 2125 3700 2125 3825 
Q 2125 3875 2150 3925 
Q 2150 3975 2150 4025 
Q 2150 4125 2075 4187 
Q 2000 4250 1800 4250 
Q 1375 4250 1075 3862 
Q 775 3475 775 2175 
Q 925 2500 1187 2662 
Q 1450 2825 1750 2825 
z
" transform="scale(0.015625)"/>
       </defs>
       <use xlink:href="#SimSun-36"/>
       <use xlink:href="#SimSun-30" x="50"/>
      </g>
     </g>
    </g>
    <g id="xtick_8">
     <g id="line2d_8">
      <g>
       <use xlink:href="#mae0c69941e" x="615.168" y="461.376" style="stroke: #000000; stroke-width: 0.8"/>
      </g>
     </g>
     <g id="text_8">
      <!-- 70 -->
      <g transform="translate(605.668 481.958031) scale(0.19 -0.19)">
       <defs>
        <path id="SimSun-37" d="M 2825 4200 
Q 2300 3350 1987 2537 
Q 1675 1725 1675 1125 
Q 1675 1025 1700 850 
Q 1700 650 1700 400 
Q 1700 200 1637 125 
Q 1575 50 1425 50 
Q 1300 50 1212 137 
Q 1125 225 1125 450 
Q 1125 925 1337 1625 
Q 1550 2325 2475 4000 
L 1225 4000 
Q 950 4000 787 3825 
Q 625 3650 550 3300 
L 400 3325 
L 575 4375 
L 2825 4375 
L 2825 4200 
z
" transform="scale(0.015625)"/>
       </defs>
       <use xlink:href="#SimSun-37"/>
       <use xlink:href="#SimSun-30" x="50"/>
      </g>
     </g>
    </g>
    <g id="xtick_9">
     <g id="line2d_9">
      <g>
       <use xlink:href="#mae0c69941e" x="686.592" y="461.376" style="stroke: #000000; stroke-width: 0.8"/>
      </g>
     </g>
     <g id="text_9">
      <!-- 80 -->
      <g transform="translate(677.092 481.958031) scale(0.19 -0.19)">
       <defs>
        <path id="SimSun-38" d="M 625 1125 
Q 625 725 887 475 
Q 1150 225 1550 225 
Q 2025 225 2237 475 
Q 2450 725 2450 1100 
Q 2450 1425 2150 1725 
Q 1850 2025 1250 2275 
Q 950 2075 787 1775 
Q 625 1475 625 1125 
z
M 2825 1175 
Q 2825 700 2475 375 
Q 2125 50 1550 50 
Q 1025 50 650 375 
Q 275 700 275 1125 
Q 275 1550 487 1850 
Q 700 2150 1100 2375 
Q 750 2550 562 2812 
Q 375 3075 375 3400 
Q 375 3825 700 4125 
Q 1025 4425 1600 4425 
Q 2125 4425 2450 4125 
Q 2775 3825 2775 3400 
Q 2775 3100 2587 2837 
Q 2400 2575 2000 2375 
Q 2425 2125 2625 1825 
Q 2825 1525 2825 1175 
z
M 2425 3375 
Q 2425 3725 2225 3987 
Q 2025 4250 1600 4250 
Q 1125 4250 925 4000 
Q 725 3750 725 3475 
Q 725 3200 1012 2937 
Q 1300 2675 1825 2475 
Q 2125 2625 2275 2850 
Q 2425 3075 2425 3375 
z
" transform="scale(0.015625)"/>
       </defs>
       <use xlink:href="#SimSun-38"/>
       <use xlink:href="#SimSun-30" x="50"/>
      </g>
     </g>
    </g>
    <g id="xtick_10">
     <g id="line2d_10">
      <g>
       <use xlink:href="#mae0c69941e" x="758.016" y="461.376" style="stroke: #000000; stroke-width: 0.8"/>
      </g>
     </g>
     <g id="text_10">
      <!-- 90 -->
      <g transform="translate(748.516 481.958031) scale(0.19 -0.19)">
       <defs>
        <path id="SimSun-39" d="M 700 3050 
Q 700 2500 912 2212 
Q 1125 1925 1450 1925 
Q 1825 1925 2100 2275 
Q 2375 2625 2375 2925 
Q 2375 3525 2175 3887 
Q 1975 4250 1525 4250 
Q 1100 4250 900 3912 
Q 700 3575 700 3050 
z
M 1375 1700 
Q 875 1700 575 2012 
Q 275 2325 275 3025 
Q 275 3625 600 4025 
Q 925 4425 1525 4425 
Q 2150 4425 2500 3925 
Q 2850 3425 2850 2475 
Q 2850 1425 2437 737 
Q 2025 50 1300 50 
Q 975 50 737 200 
Q 500 350 500 600 
Q 500 700 562 800 
Q 625 900 775 900 
Q 925 900 975 787 
Q 1025 675 1025 525 
Q 1025 425 1050 362 
Q 1075 300 1100 275 
Q 1125 250 1187 237 
Q 1250 225 1325 225 
Q 1775 225 2050 725 
Q 2325 1225 2375 2400 
Q 2250 2100 2000 1900 
Q 1750 1700 1375 1700 
z
" transform="scale(0.015625)"/>
       </defs>
       <use xlink:href="#SimSun-39"/>
       <use xlink:href="#SimSun-30" x="50"/>
      </g>
     </g>
    </g>
    <g id="xtick_11">
     <g id="line2d_11">
      <g>
       <use xlink:href="#mae0c69941e" x="829.44" y="461.376" style="stroke: #000000; stroke-width: 0.8"/>
      </g>
     </g>
     <g id="text_11">
      <!-- 100 -->
      <g transform="translate(815.19 481.958031) scale(0.19 -0.19)">
       <use xlink:href="#SimSun-31"/>
       <use xlink:href="#SimSun-30" x="50"/>
       <use xlink:href="#SimSun-30" x="100"/>
      </g>
     </g>
    </g>
    <g id="text_12">
     <!-- 索引装载率 $\mathrm{(\%)}$ -->
     <g transform="translate(406.58 504.17725) scale(0.19 -0.19)">
      <defs>
       <path id="SimSun-7d22" d="M 4725 1325 
Q 4375 1250 3450 1150 
L 3450 -50 
Q 3475 -500 2875 -625 
Q 2875 -325 2200 -125 
L 2200 -25 
Q 2850 -75 2987 -75 
Q 3125 -75 3100 175 
L 3100 1100 
Q 2400 1025 2050 925 
Q 1700 825 1475 700 
L 1225 1175 
Q 1525 1250 2050 1525 
Q 2575 1800 3225 2200 
Q 2900 2200 2437 2150 
Q 1975 2100 1650 1950 
L 1425 2375 
Q 1775 2425 2212 2737 
Q 2650 3050 2875 3375 
L 1000 3375 
Q 1050 3000 975 2850 
Q 900 2700 800 2675 
Q 700 2650 625 2650 
Q 525 2650 462 2675 
Q 400 2700 400 2725 
Q 400 2800 550 2975 
Q 750 3225 875 3800 
L 975 3800 
L 1000 3525 
L 3025 3525 
L 3025 4250 
L 1575 4250 
Q 1375 4250 1100 4175 
L 875 4400 
L 3025 4400 
L 3025 4775 
Q 3025 5025 3000 5275 
L 3625 5050 
L 3375 4900 
L 3375 4400 
L 4725 4400 
L 5125 4750 
L 5575 4250 
L 3375 4250 
L 3375 3525 
L 5300 3525 
L 5500 3750 
L 5950 3325 
Q 5600 3300 5050 2675 
L 4975 2725 
L 5325 3375 
L 2925 3375 
L 3325 3100 
Q 3100 3075 2675 2800 
Q 2250 2500 1925 2350 
L 3425 2375 
Q 3775 2625 4050 3000 
L 4475 2625 
Q 4250 2600 3850 2325 
Q 3425 2050 2975 1787 
Q 2525 1525 2025 1250 
L 4625 1450 
Q 4275 1825 3950 2050 
L 4000 2125 
Q 4700 1850 4962 1662 
Q 5225 1475 5275 1312 
Q 5325 1150 5212 937 
Q 5100 725 4987 925 
Q 4875 1125 4725 1325 
z
M 3925 725 
Q 5025 375 5312 212 
Q 5600 50 5612 -150 
Q 5625 -350 5562 -425 
Q 5500 -500 5475 -500 
Q 5375 -500 5200 -275 
Q 4925 50 3900 650 
L 3925 725 
z
M 2150 750 
L 2575 350 
Q 2275 350 1775 75 
Q 1275 -225 425 -525 
L 375 -450 
Q 1600 150 2150 750 
z
" transform="scale(0.015625)"/>
       <path id="SimSun-5f15" d="M 5075 4675 
L 5075 575 
Q 5075 100 5100 -425 
L 4700 -600 
Q 4725 175 4725 725 
Q 4725 4575 4700 5150 
L 5300 4850 
L 5075 4675 
z
M 3375 4475 
Q 3375 3475 3400 3125 
L 3025 3000 
L 3025 3250 
L 1525 3250 
L 1275 2150 
L 3125 2150 
L 3325 2400 
L 3750 2050 
L 3500 1900 
Q 3375 1125 3225 575 
Q 3075 25 2850 -187 
Q 2625 -400 2250 -475 
Q 2275 -125 1600 125 
L 1600 225 
Q 2125 125 2350 112 
Q 2575 100 2675 225 
Q 2775 350 2900 787 
Q 3025 1225 3150 2000 
L 1275 2000 
L 1100 1775 
L 725 2125 
Q 925 2200 1025 2575 
Q 1125 2950 1200 3675 
L 1575 3400 
L 3025 3400 
L 3025 4550 
L 1650 4550 
Q 1325 4550 1050 4475 
L 825 4700 
L 3000 4700 
L 3175 4950 
L 3575 4650 
L 3375 4475 
z
" transform="scale(0.015625)"/>
       <path id="SimSun-88c5" d="M 700 4725 
Q 1375 4450 1462 4325 
Q 1550 4200 1550 4125 
Q 1550 4025 1475 3887 
Q 1400 3750 1350 3750 
Q 1275 3750 1200 3925 
Q 1075 4225 650 4675 
L 700 4725 
z
M 2250 4775 
L 2250 2200 
L 1900 1975 
Q 1925 2600 1925 3475 
Q 1400 3150 1062 2887 
Q 725 2625 700 2475 
L 350 2900 
Q 775 3025 1925 3625 
Q 1925 4900 1900 5250 
L 2475 4925 
L 2250 4775 
z
M 2375 4000 
L 3900 4000 
Q 3900 4850 3875 5175 
L 4450 4925 
L 4225 4750 
L 4225 4000 
L 5125 4000 
L 5475 4350 
L 5950 3850 
L 4225 3850 
L 4225 2800 
L 4900 2800 
L 5250 3100 
L 5700 2650 
L 3475 2650 
Q 3150 2650 2875 2575 
L 2650 2800 
L 3900 2800 
L 3900 3850 
L 3200 3850 
Q 2875 3850 2600 3775 
L 2375 4000 
z
M 3125 1800 
Q 3125 2100 2650 2525 
L 2700 2575 
Q 3300 2375 3387 2250 
Q 3475 2125 3475 2050 
Q 3475 1950 3350 1800 
L 5050 1800 
L 5475 2175 
L 6000 1650 
L 3325 1650 
Q 3600 1225 4150 675 
Q 4775 1225 5000 1625 
L 5425 1200 
Q 5225 1175 4987 1050 
Q 4750 925 4250 600 
Q 4550 350 5037 162 
Q 5525 -25 6100 -75 
L 6100 -175 
Q 5675 -250 5550 -550 
Q 4825 -250 4262 212 
Q 3700 675 3175 1650 
Q 2825 1325 2450 1025 
L 2450 -25 
L 3750 375 
L 3800 300 
Q 2450 -300 2300 -625 
L 2000 -200 
Q 2150 -75 2125 75 
L 2125 800 
Q 1325 300 275 0 
L 250 75 
Q 1725 700 2725 1650 
L 1200 1650 
Q 875 1650 600 1575 
L 375 1800 
L 3125 1800 
z
" transform="scale(0.015625)"/>
       <path id="SimSun-8f7d" d="M 1850 5200 
L 2375 5000 
L 2200 4825 
L 2200 4325 
L 2675 4325 
L 2975 4600 
L 3400 4175 
L 2200 4175 
L 2200 3525 
L 3700 3525 
Q 3675 4525 3650 5200 
L 4200 4950 
L 4000 4775 
Q 4000 3950 4025 3525 
L 5250 3525 
L 5625 3850 
L 6100 3375 
L 4050 3375 
Q 4125 2300 4425 1400 
Q 4925 2200 5175 3075 
L 5650 2750 
L 5450 2575 
Q 5075 1775 4575 1050 
Q 4950 350 5650 -50 
L 5875 1050 
L 5975 1025 
Q 5925 350 5950 25 
Q 5975 -300 6075 -500 
Q 6125 -625 6025 -625 
Q 5975 -625 5775 -562 
Q 5575 -500 5125 -150 
Q 4675 200 4350 775 
Q 3575 -125 2625 -600 
L 2575 -525 
Q 3575 175 4175 1075 
Q 3825 1950 3725 3375 
L 1100 3375 
Q 775 3375 500 3300 
L 275 3525 
L 1875 3525 
L 1875 4175 
L 1525 4175 
Q 1200 4175 925 4100 
L 700 4325 
L 1875 4325 
Q 1875 4800 1850 5200 
z
M 4500 4850 
Q 5000 4650 5212 4512 
Q 5425 4375 5400 4187 
Q 5375 4000 5300 3925 
Q 5225 3850 5200 3850 
Q 5125 3850 5025 4050 
Q 4900 4325 4450 4775 
L 4500 4850 
z
M 500 525 
Q 850 550 1975 725 
L 1975 1400 
L 1150 1400 
L 975 1250 
L 700 1575 
Q 900 1575 1350 2450 
L 1150 2450 
Q 850 2450 575 2375 
L 350 2600 
L 1425 2600 
Q 1625 3025 1700 3300 
L 2150 3025 
L 1975 2950 
Q 1900 2850 1775 2600 
L 2700 2600 
L 3025 2900 
L 3425 2450 
L 1700 2450 
L 1175 1550 
L 1975 1550 
Q 1975 1925 1950 2300 
L 2450 2075 
L 2300 1900 
L 2300 1550 
L 2800 1550 
L 3075 1850 
L 3475 1400 
L 2300 1400 
L 2300 775 
L 3400 925 
L 3425 850 
L 2300 575 
Q 2300 -50 2325 -400 
L 1950 -550 
Q 1975 225 1975 500 
Q 850 275 725 100 
L 500 525 
z
" transform="scale(0.015625)"/>
       <path id="SimSun-7387" d="M 875 3725 
L 925 3800 
Q 1375 3650 1550 3525 
Q 1725 3400 1725 3250 
Q 1725 3175 1662 3025 
Q 1600 2875 1550 2875 
Q 1500 2875 1425 3050 
Q 1275 3325 875 3725 
z
M 550 1850 
Q 875 1925 2000 2575 
L 2050 2500 
Q 1675 2225 1337 1937 
Q 1000 1650 875 1425 
L 550 1850 
z
M 5200 3450 
Q 4800 3150 4275 2800 
L 4225 2875 
Q 4775 3400 5050 3925 
L 5450 3525 
L 5200 3450 
z
M 4325 2500 
L 4350 2575 
Q 5225 2350 5375 2212 
Q 5525 2075 5525 1900 
Q 5525 1775 5487 1662 
Q 5450 1550 5400 1550 
Q 5325 1550 5200 1800 
Q 4975 2150 4325 2500 
z
M 3150 3900 
Q 2500 3300 2300 3150 
Q 2800 3150 3400 3175 
Q 3700 3500 3850 3825 
L 4250 3450 
Q 4050 3400 3450 2825 
Q 2850 2250 2475 1950 
Q 3150 1975 3850 2000 
Q 3750 2175 3550 2450 
L 3600 2500 
Q 4050 2250 4200 2100 
Q 4350 1950 4350 1850 
Q 4350 1775 4250 1625 
Q 4150 1475 4100 1475 
Q 4075 1475 4050 1550 
Q 4000 1700 3900 1900 
Q 3650 1875 3075 1800 
L 3500 1550 
L 3325 1425 
L 3325 975 
L 5325 975 
L 5650 1300 
L 6100 825 
L 3325 825 
Q 3325 -275 3350 -525 
L 2975 -650 
Q 3000 0 3000 825 
L 1125 825 
Q 800 825 525 750 
L 300 975 
L 3000 975 
L 3000 1775 
Q 2450 1700 2200 1525 
L 1950 1950 
Q 2275 1950 2675 2350 
Q 3075 2750 3325 3050 
Q 2400 2950 2150 2775 
L 1950 3175 
Q 2150 3150 2475 3575 
Q 2800 4000 2900 4225 
L 1450 4225 
Q 1125 4225 850 4150 
L 625 4375 
L 3100 4375 
Q 3050 4800 2675 5200 
L 2725 5250 
Q 3225 5050 3337 4912 
Q 3450 4775 3450 4700 
Q 3450 4550 3250 4375 
L 5025 4375 
L 5350 4675 
L 5775 4225 
L 3050 4225 
L 3375 3950 
L 3150 3900 
z
" transform="scale(0.015625)"/>
       <path id="SimSun-20" d="M 0 0 
Q 0 0 0 0 
z
" transform="scale(0.015625)"/>
       <path id="STIXGeneral-Regular-28" d="M 1946 -1030 
L 1869 -1133 
Q 1126 -710 716 32 
Q 307 774 307 1613 
Q 307 3386 1888 4326 
L 1946 4224 
Q 1293 3667 1075 3126 
Q 858 2586 858 1632 
Q 858 685 1082 96 
Q 1306 -493 1946 -1030 
z
" transform="scale(0.015625)"/>
       <path id="STIXGeneral-Regular-25" d="M 4390 1363 
Q 4390 781 4070 329 
Q 3750 -122 3341 -122 
Q 3014 -122 2790 134 
Q 2566 390 2566 762 
Q 2566 1274 2940 1693 
Q 3315 2112 3776 2112 
Q 4070 2112 4230 1917 
Q 4390 1722 4390 1363 
z
M 4243 1376 
Q 4243 1626 4131 1779 
Q 4019 1933 3840 1933 
Q 3654 1933 3526 1786 
Q 3315 1562 3171 1187 
Q 3027 813 3027 486 
Q 3027 301 3129 176 
Q 3232 51 3386 51 
Q 3718 51 3980 457 
Q 4243 864 4243 1376 
z
M 3974 4518 
L 1222 -115 
L 922 -115 
L 3443 4096 
Q 3264 3891 3094 3811 
Q 2925 3731 2669 3731 
Q 2445 3731 2182 3821 
Q 2208 3674 2208 3539 
Q 2208 3206 2067 2873 
Q 1926 2541 1696 2323 
Q 1453 2086 1146 2086 
Q 826 2086 608 2339 
Q 390 2592 390 2963 
Q 390 3507 761 3916 
Q 1133 4326 1626 4326 
Q 1792 4326 2010 4147 
Q 2310 3898 2624 3898 
Q 2918 3898 3084 3994 
Q 3251 4090 3693 4518 
L 3974 4518 
z
M 2054 3642 
Q 2054 3782 2025 3833 
Q 1997 3885 1894 3936 
Q 1747 4006 1613 4154 
Q 1414 4058 1331 3984 
Q 1248 3910 1152 3750 
Q 845 3264 845 2707 
Q 845 2509 944 2384 
Q 1043 2259 1210 2259 
Q 1549 2259 1801 2675 
Q 2054 3091 2054 3642 
z
" transform="scale(0.015625)"/>
       <path id="STIXGeneral-Regular-29" d="M 186 4224 
L 262 4326 
Q 992 3891 1408 3148 
Q 1824 2406 1824 1581 
Q 1824 -166 243 -1133 
L 186 -1030 
Q 845 -486 1059 54 
Q 1274 595 1274 1562 
Q 1274 2534 1059 3120 
Q 845 3706 186 4224 
z
" transform="scale(0.015625)"/>
      </defs>
      <use xlink:href="#SimSun-7d22" transform="translate(0 0.578125)"/>
      <use xlink:href="#SimSun-5f15" transform="translate(100 0.578125)"/>
      <use xlink:href="#SimSun-88c5" transform="translate(200 0.578125)"/>
      <use xlink:href="#SimSun-8f7d" transform="translate(300 0.578125)"/>
      <use xlink:href="#SimSun-7387" transform="translate(400 0.578125)"/>
      <use xlink:href="#SimSun-20" transform="translate(500 0.578125)"/>
      <use xlink:href="#STIXGeneral-Regular-28" transform="translate(550 0.578125)"/>
      <use xlink:href="#STIXGeneral-Regular-25" transform="translate(583.299988 0.578125)"/>
      <use xlink:href="#STIXGeneral-Regular-29" transform="translate(657.999969 0.578125)"/>
     </g>
    </g>
   </g>
   <g id="matplotlib.axis_2">
    <g id="ytick_1">
     <g id="line2d_12">
      <defs>
       <path id="mf1aacdce38" d="M 0 0 
L -3.5 0 
" style="stroke: #000000; stroke-width: 0.8"/>
      </defs>
      <g>
       <use xlink:href="#mf1aacdce38" x="115.2" y="461.376" style="stroke: #000000; stroke-width: 0.8"/>
      </g>
     </g>
     <g id="text_13">
      <!-- 0 -->
      <g transform="translate(98.7 468.167016) scale(0.19 -0.19)">
       <use xlink:href="#SimSun-30"/>
      </g>
     </g>
    </g>
    <g id="ytick_2">
     <g id="line2d_13">
      <g>
       <use xlink:href="#mf1aacdce38" x="115.2" y="394.848" style="stroke: #000000; stroke-width: 0.8"/>
      </g>
     </g>
     <g id="text_14">
      <!-- 0.5 -->
      <g transform="translate(79.7 401.639016) scale(0.19 -0.19)">
       <defs>
        <path id="SimSun-2e" d="M 800 25 
Q 650 25 537 125 
Q 425 225 425 400 
Q 425 575 537 675 
Q 650 775 800 775 
Q 950 775 1062 662 
Q 1175 550 1175 400 
Q 1175 225 1062 125 
Q 950 25 800 25 
z
" transform="scale(0.015625)"/>
       </defs>
       <use xlink:href="#SimSun-30"/>
       <use xlink:href="#SimSun-2e" x="50"/>
       <use xlink:href="#SimSun-35" x="100"/>
      </g>
     </g>
    </g>
    <g id="ytick_3">
     <g id="line2d_14">
      <g>
       <use xlink:href="#mf1aacdce38" x="115.2" y="328.32" style="stroke: #000000; stroke-width: 0.8"/>
      </g>
     </g>
     <g id="text_15">
      <!-- 1.0 -->
      <g transform="translate(79.7 335.111016) scale(0.19 -0.19)">
       <use xlink:href="#SimSun-31"/>
       <use xlink:href="#SimSun-2e" x="50"/>
       <use xlink:href="#SimSun-30" x="100"/>
      </g>
     </g>
    </g>
    <g id="ytick_4">
     <g id="line2d_15">
      <g>
       <use xlink:href="#mf1aacdce38" x="115.2" y="261.792" style="stroke: #000000; stroke-width: 0.8"/>
      </g>
     </g>
     <g id="text_16">
      <!-- 1.5 -->
      <g transform="translate(79.7 268.583016) scale(0.19 -0.19)">
       <use xlink:href="#SimSun-31"/>
       <use xlink:href="#SimSun-2e" x="50"/>
       <use xlink:href="#SimSun-35" x="100"/>
      </g>
     </g>
    </g>
    <g id="ytick_5">
     <g id="line2d_16">
      <g>
       <use xlink:href="#mf1aacdce38" x="115.2" y="195.264" style="stroke: #000000; stroke-width: 0.8"/>
      </g>
     </g>
     <g id="text_17">
      <!-- 2.0 -->
      <g transform="translate(79.7 202.055016) scale(0.19 -0.19)">
       <use xlink:href="#SimSun-32"/>
       <use xlink:href="#SimSun-2e" x="50"/>
       <use xlink:href="#SimSun-30" x="100"/>
      </g>
     </g>
    </g>
    <g id="ytick_6">
     <g id="line2d_17">
      <g>
       <use xlink:href="#mf1aacdce38" x="115.2" y="128.736" style="stroke: #000000; stroke-width: 0.8"/>
      </g>
     </g>
     <g id="text_18">
      <!-- 2.5 -->
      <g transform="translate(79.7 135.527016) scale(0.19 -0.19)">
       <use xlink:href="#SimSun-32"/>
       <use xlink:href="#SimSun-2e" x="50"/>
       <use xlink:href="#SimSun-35" x="100"/>
      </g>
     </g>
    </g>
    <g id="ytick_7">
     <g id="line2d_18">
      <g>
       <use xlink:href="#mf1aacdce38" x="115.2" y="62.208" style="stroke: #000000; stroke-width: 0.8"/>
      </g>
     </g>
     <g id="text_19">
      <!-- 3.0 -->
      <g transform="translate(79.7 68.999016) scale(0.19 -0.19)">
       <use xlink:href="#SimSun-33"/>
       <use xlink:href="#SimSun-2e" x="50"/>
       <use xlink:href="#SimSun-30" x="100"/>
      </g>
     </g>
    </g>
    <g id="text_20">
     <!-- 吞吐量 $\mathrm{(Mops)}$ -->
     <g transform="translate(71.52 323.067) rotate(-90) scale(0.19 -0.19)">
      <defs>
       <path id="SimSun-541e" d="M 2200 1700 
L 2200 75 
L 4200 75 
L 4200 1700 
L 2200 1700 
z
M 1025 4675 
L 4550 4675 
L 4875 5000 
L 5350 4525 
L 3300 4525 
Q 3150 4025 2900 3375 
L 5075 3375 
L 5450 3750 
L 5975 3225 
L 3700 3225 
Q 3925 2925 4312 2587 
Q 4700 2250 5225 2037 
Q 5750 1825 6100 1800 
L 6100 1700 
Q 5700 1675 5575 1375 
Q 4600 1900 4137 2437 
Q 3675 2975 3575 3225 
L 2825 3225 
Q 2425 2575 1950 2075 
L 2200 1850 
L 4175 1850 
L 4325 2100 
L 4750 1775 
L 4550 1600 
L 4550 375 
Q 4550 -50 4575 -375 
L 4200 -500 
L 4200 -75 
L 2200 -75 
L 2200 -450 
L 1825 -575 
Q 1850 175 1850 625 
L 1850 2000 
Q 1175 1400 375 1075 
L 325 1150 
Q 1075 1575 1600 2100 
Q 2125 2625 2450 3225 
L 1225 3225 
Q 900 3225 625 3150 
L 400 3375 
L 2525 3375 
Q 2800 4025 2900 4525 
L 1850 4525 
Q 1525 4525 1250 4450 
L 1025 4675 
z
" transform="scale(0.015625)"/>
       <path id="SimSun-5410" d="M 3775 3000 
L 3775 3750 
Q 3775 4400 3750 5175 
L 4350 4900 
L 4125 4700 
L 4125 3000 
L 4925 3000 
L 5250 3325 
L 5725 2850 
L 4125 2850 
L 4125 75 
L 5225 75 
L 5575 425 
L 6075 -75 
L 2675 -75 
Q 2350 -75 2075 -150 
L 1850 75 
L 3775 75 
L 3775 2850 
L 3225 2850 
Q 2900 2850 2625 2775 
L 2400 3000 
L 3775 3000 
z
M 575 4250 
L 950 4025 
L 1875 4025 
L 2050 4275 
L 2450 3950 
L 2250 3800 
L 2250 1950 
Q 2250 1375 2275 950 
L 1900 775 
L 1900 1225 
L 950 1225 
L 950 600 
L 575 425 
Q 600 1075 600 2375 
Q 600 3675 575 4250 
z
M 950 3875 
L 950 1375 
L 1900 1375 
L 1900 3875 
L 950 3875 
z
" transform="scale(0.015625)"/>
       <path id="SimSun-91cf" d="M 1700 2400 
L 1700 1875 
L 3025 1875 
L 3025 2400 
L 1700 2400 
z
M 3350 2400 
L 3350 1875 
L 4625 1875 
L 4625 2400 
L 3350 2400 
z
M 1700 1725 
L 1700 1225 
L 3025 1225 
L 3025 1725 
L 1700 1725 
z
M 3350 1725 
L 3350 1225 
L 4625 1225 
L 4625 1725 
L 3350 1725 
z
M 4950 2325 
Q 4950 1350 4975 1025 
L 4625 875 
L 4625 1075 
L 3350 1075 
L 3350 525 
L 4700 525 
L 5050 825 
L 5450 375 
L 3350 375 
L 3350 -225 
L 5275 -225 
L 5650 125 
L 6075 -375 
L 1175 -375 
Q 850 -375 575 -450 
L 350 -225 
L 3025 -225 
L 3025 375 
L 1725 375 
Q 1400 375 1125 300 
L 900 525 
L 3025 525 
L 3025 1075 
L 1700 1075 
L 1700 925 
L 1350 800 
Q 1375 1300 1375 1787 
Q 1375 2275 1350 2750 
L 1700 2550 
L 4600 2550 
L 4750 2750 
L 5125 2475 
L 4950 2325 
z
M 1775 4800 
L 1775 4375 
L 4550 4375 
L 4550 4800 
L 1775 4800 
z
M 1775 4225 
L 1775 3775 
L 4550 3775 
L 4550 4225 
L 1775 4225 
z
M 4875 4750 
Q 4875 3825 4900 3525 
L 4550 3375 
L 4550 3625 
L 1775 3625 
L 1775 3400 
L 1425 3250 
Q 1450 3650 1450 4262 
Q 1450 4875 1425 5125 
L 1800 4950 
L 4500 4950 
L 4650 5175 
L 5050 4900 
L 4875 4750 
z
M 250 3125 
L 5375 3125 
L 5725 3450 
L 6150 2975 
L 950 2975 
Q 750 2975 475 2900 
L 250 3125 
z
" transform="scale(0.015625)"/>
       <path id="STIXGeneral-Regular-4d" d="M 5530 0 
L 3738 0 
L 3738 122 
Q 4115 147 4214 265 
Q 4314 384 4314 787 
L 4314 3661 
L 2682 0 
L 2592 0 
L 979 3514 
L 979 966 
Q 979 448 1088 294 
Q 1197 141 1574 122 
L 1574 0 
L 77 0 
L 77 122 
Q 358 141 480 205 
Q 602 269 650 432 
Q 698 595 698 966 
L 698 3514 
Q 698 3878 589 3984 
Q 480 4090 90 4115 
L 90 4237 
L 1357 4237 
L 2835 1024 
L 4250 4237 
L 5523 4237 
L 5523 4115 
Q 5178 4109 5072 3993 
Q 4966 3878 4966 3520 
L 4966 717 
Q 4966 378 5072 262 
Q 5178 147 5530 122 
L 5530 0 
z
" transform="scale(0.015625)"/>
       <path id="STIXGeneral-Regular-6f" d="M 3008 1478 
Q 3008 806 2608 371 
Q 2208 -64 1568 -64 
Q 979 -64 582 368 
Q 186 800 186 1459 
Q 186 2125 582 2534 
Q 979 2944 1626 2944 
Q 2221 2944 2614 2537 
Q 3008 2131 3008 1478 
z
M 2432 1306 
Q 2432 2035 2112 2445 
Q 1856 2765 1504 2765 
Q 1171 2765 966 2493 
Q 762 2221 762 1747 
Q 762 928 1101 435 
Q 1318 115 1677 115 
Q 2029 115 2230 432 
Q 2432 749 2432 1306 
z
" transform="scale(0.015625)"/>
       <path id="STIXGeneral-Regular-70" d="M 1018 2931 
L 1018 2438 
Q 1421 2944 1939 2944 
Q 2406 2944 2707 2560 
Q 3008 2176 3008 1581 
Q 3008 883 2621 409 
Q 2234 -64 1664 -64 
Q 1466 -64 1328 -6 
Q 1190 51 1018 211 
L 1018 -794 
Q 1018 -1094 1120 -1180 
Q 1222 -1267 1581 -1274 
L 1581 -1389 
L 32 -1389 
L 32 -1280 
Q 314 -1254 397 -1171 
Q 480 -1088 480 -838 
L 480 2157 
Q 480 2381 429 2451 
Q 378 2522 218 2522 
Q 115 2522 58 2515 
L 58 2618 
Q 506 2752 979 2944 
L 1018 2931 
z
M 1018 2138 
L 1018 563 
Q 1018 422 1238 281 
Q 1459 141 1683 141 
Q 2029 141 2243 467 
Q 2458 794 2458 1325 
Q 2458 1888 2243 2224 
Q 2029 2560 1670 2560 
Q 1446 2560 1232 2419 
Q 1018 2278 1018 2138 
z
" transform="scale(0.015625)"/>
       <path id="STIXGeneral-Regular-73" d="M 998 1926 
L 1664 1523 
Q 1984 1331 2105 1164 
Q 2227 998 2227 736 
Q 2227 416 1961 176 
Q 1696 -64 1331 -64 
Q 1030 -64 864 -6 
Q 691 51 570 51 
Q 461 51 416 -26 
L 333 -26 
L 333 979 
L 435 979 
Q 538 512 730 294 
Q 922 77 1248 77 
Q 1485 77 1632 211 
Q 1779 346 1779 550 
Q 1779 845 1440 1030 
L 1094 1222 
Q 326 1651 326 2150 
Q 326 2522 566 2730 
Q 806 2938 1210 2938 
Q 1491 2938 1638 2867 
Q 1754 2816 1818 2816 
Q 1862 2816 1920 2880 
L 1990 2880 
L 2022 2010 
L 1926 2010 
Q 1818 2445 1654 2621 
Q 1491 2797 1203 2797 
Q 986 2797 854 2688 
Q 723 2579 723 2362 
Q 723 2253 796 2128 
Q 870 2003 998 1926 
z
" transform="scale(0.015625)"/>
      </defs>
      <use xlink:href="#SimSun-541e" transform="translate(0 0.140625)"/>
      <use xlink:href="#SimSun-5410" transform="translate(100 0.140625)"/>
      <use xlink:href="#SimSun-91cf" transform="translate(200 0.140625)"/>
      <use xlink:href="#SimSun-20" transform="translate(300 0.140625)"/>
      <use xlink:href="#STIXGeneral-Regular-28" transform="translate(350 0.140625)"/>
      <use xlink:href="#STIXGeneral-Regular-4d" transform="translate(383.299988 0.140625)"/>
      <use xlink:href="#STIXGeneral-Regular-6f" transform="translate(472.199982 0.140625)"/>
      <use xlink:href="#STIXGeneral-Regular-70" transform="translate(522.199966 0.140625)"/>
      <use xlink:href="#STIXGeneral-Regular-73" transform="translate(572.199951 0.140625)"/>
      <use xlink:href="#STIXGeneral-Regular-29" transform="translate(611.099945 0.140625)"/>
     </g>
    </g>
   </g>
   <g id="line2d_19">
    <path d="M 116.43135 132.260574 
L 117.225585 143.225785 
L 118.011249 138.868986 
L 118.801198 129.410354 
L 119.589005 139.955535 
L 120.37324 138.061389 
L 121.162476 136.674587 
L 121.953139 136.037741 
L 122.740946 133.654442 
L 123.53161 138.401214 
L 124.32513 138.984838 
L 125.111508 134.898688 
L 125.889316 144.376919 
L 126.672837 140.911595 
L 127.462787 143.985708 
L 128.257021 148.781658 
L 129.059113 129.995495 
L 129.856919 139.760541 
L 130.658296 128.741189 
L 131.458245 134.997802 
L 132.263194 133.786606 
L 133.070999 135.453705 
L 133.87809 129.731432 
L 134.683039 134.668714 
L 135.495844 134.74429 
L 136.305078 130.540678 
L 137.12074 141.724488 
L 137.931402 136.005461 
L 138.754207 137.656008 
L 139.569155 139.803398 
L 140.388388 138.063452 
L 141.205478 147.086112 
L 142.023283 142.476241 
L 142.846802 149.738171 
L 143.664607 131.161904 
L 144.485268 147.122237 
L 145.31093 133.893517 
L 146.140163 135.362774 
L 146.967252 143.088046 
L 147.799342 145.609883 
L 148.629289 138.723862 
L 149.462807 135.894825 
L 150.296325 132.461102 
L 151.134843 137.12558 
L 151.965504 139.63467 
L 152.80545 136.840028 
L 153.64254 138.354033 
L 154.485343 136.823011 
L 155.32386 133.569898 
L 156.166664 150.550465 
L 157.01161 143.628333 
L 157.85727 135.257181 
L 158.701501 144.566032 
L 159.550733 140.018231 
L 160.401393 144.217305 
L 161.252767 139.99613 
L 162.106998 133.000711 
L 162.955515 136.406665 
L 163.81046 141.897633 
L 164.670405 141.015352 
L 165.531064 145.002695 
L 166.390295 134.62112 
L 168.115899 152.261698 
L 168.982272 144.610818 
L 169.849359 142.619848 
L 170.719304 136.256738 
L 171.58782 138.39681 
L 172.460621 133.605836 
L 173.335565 138.924111 
L 174.206938 140.879422 
L 175.082596 136.53388 
L 175.958254 142.051619 
L 176.832484 135.098325 
L 177.715284 141.784749 
L 178.596657 141.122156 
L 179.471601 134.888163 
L 180.357972 138.040074 
L 181.242202 153.920174 
L 182.127859 141.824719 
L 183.009231 149.147163 
L 183.899889 141.552233 
L 184.789117 139.137852 
L 185.67906 142.872694 
L 186.567575 137.344124 
L 187.456804 145.163067 
L 188.344604 139.933274 
L 189.235976 144.913121 
L 190.130918 139.005515 
L 191.020147 137.807013 
L 191.91509 151.045779 
L 192.814318 136.255966 
L 193.715689 149.958991 
L 194.614203 137.145232 
L 195.509146 150.86787 
L 196.405517 144.088919 
L 197.304031 140.430784 
L 198.203973 140.991881 
L 199.100344 152.176555 
L 200.001715 144.241096 
L 200.899515 145.241796 
L 201.798743 141.495019 
L 202.700114 141.552233 
L 203.599342 137.217508 
L 204.50357 138.492038 
L 205.407084 137.119686 
L 206.313454 149.149851 
L 207.213396 141.52988 
L 208.114767 144.997958 
L 209.017567 148.948577 
L 209.922509 151.061027 
L 210.831022 144.018466 
L 211.738107 141.995563 
L 212.640906 146.052853 
L 213.547277 154.481538 
L 214.45079 144.922768 
L 215.35359 152.748164 
L 216.262817 146.253541 
L 217.163474 141.996694 
L 218.073416 143.635305 
L 218.97193 143.435322 
L 219.8783 142.419093 
L 220.774671 143.403641 
L 221.686042 139.213415 
L 222.600269 147.135862 
L 223.514496 143.594896 
L 224.432294 143.857894 
L 225.346522 140.477008 
L 226.267177 143.136877 
L 227.18069 143.562483 
L 228.095631 136.823357 
L 229.005573 144.338014 
L 229.920515 144.729544 
L 230.838313 143.478605 
L 231.753969 137.39595 
L 232.671053 144.141543 
L 233.584566 145.243965 
L 234.50665 138.236797 
L 235.43159 144.944749 
L 236.352246 147.343642 
L 237.271473 141.250436 
L 238.189985 141.432749 
L 239.109212 141.396385 
L 240.022725 147.967329 
L 240.945523 150.800051 
L 241.86475 148.636494 
L 242.784691 148.947446 
L 243.706775 144.851463 
L 244.628145 147.512929 
L 245.5488 145.104469 
L 246.468741 145.253904 
L 247.389396 146.118436 
L 248.309338 142.024782 
L 249.238564 141.188245 
L 250.165647 142.878442 
L 251.089874 142.50373 
L 252.016957 143.794187 
L 252.941184 146.377589 
L 253.865411 142.82828 
L 254.79178 149.532453 
L 255.718149 151.627194 
L 256.641661 142.320938 
L 257.562317 145.862463 
L 258.485115 145.532058 
L 259.408627 149.173947 
L 260.336425 143.418477 
L 261.262794 142.699642 
L 262.189878 141.751591 
L 263.116247 146.422203 
L 264.03476 142.936042 
L 264.958986 143.437344 
L 265.88607 141.456273 
L 266.814582 137.487625 
L 267.741665 143.271317 
L 268.665178 138.890155 
L 269.59369 146.829115 
L 270.520773 137.6148 
L 271.450714 139.419692 
L 272.376369 149.504951 
L 273.303452 141.303246 
L 275.155476 144.759309 
L 276.085417 150.681219 
L 277.018929 143.09366 
L 277.948869 140.889774 
L 278.879524 146.368541 
L 279.807322 145.21625 
L 280.735119 141.035351 
L 281.664346 141.454331 
L 282.594286 147.832636 
L 283.525655 147.810921 
L 284.459881 140.410573 
L 285.389821 153.867843 
L 286.316191 150.627943 
L 287.243274 140.807306 
L 288.170358 142.541412 
L 289.097441 151.052339 
L 290.023811 146.778766 
L 290.94018 149.560235 
L 291.855836 157.557965 
L 292.770778 151.480193 
L 293.690719 148.69424 
L 294.602089 152.451462 
L 295.517745 155.701262 
L 296.431972 148.560945 
L 297.342628 151.724325 
L 298.255427 148.236408 
L 299.163226 159.065676 
L 300.072453 151.863621 
L 300.985966 158.024872 
L 301.898051 149.747472 
L 302.811564 150.139282 
L 303.720791 149.429494 
L 304.635018 158.352323 
L 305.547103 151.672792 
L 306.458473 155.437439 
L 307.369129 148.323466 
L 308.278356 156.93046 
L 309.187584 155.902469 
L 310.093955 154.509386 
L 311.003896 150.172306 
L 311.915267 157.384088 
L 312.822351 158.170289 
L 313.731579 153.332386 
L 315.552177 161.481494 
L 316.457833 157.352088 
L 317.363489 155.341958 
L 318.26986 152.52435 
L 319.179802 154.214441 
L 320.084029 157.73497 
L 320.989686 157.684887 
L 321.894628 165.454759 
L 322.79957 158.247501 
L 323.704512 153.834739 
L 324.612311 157.283883 
L 325.517967 156.472814 
L 326.423624 155.433487 
L 327.32928 151.836571 
L 328.237079 155.264772 
L 329.142735 152.109681 
L 330.04982 158.777663 
L 330.959762 158.001348 
L 331.864704 158.633164 
L 332.766789 155.498192 
L 333.67316 151.674841 
L 334.578816 159.156287 
L 335.476616 159.457007 
L 336.385129 164.477077 
L 337.294356 162.186358 
L 338.204298 161.110321 
L 339.113526 155.915362 
L 340.019896 162.412913 
L 340.931267 159.276091 
L 341.836923 158.348544 
L 342.744008 158.430041 
L 343.653235 160.209771 
L 344.562463 161.247981 
L 345.472404 156.009925 
L 346.381632 156.481143 
L 347.294431 154.115141 
L 348.2158 153.891461 
L 349.139313 160.001286 
L 350.059254 151.514695 
L 350.980623 154.666153 
L 351.904136 160.644492 
L 352.830505 154.617255 
L 353.757588 157.203824 
L 354.680387 157.430564 
L 355.614612 146.598395 
L 356.55241 151.27872 
L 357.48735 147.064624 
L 358.420147 149.982116 
L 359.356516 150.420961 
L 360.293599 151.119359 
L 361.233539 150.096238 
L 362.169193 143.417279 
L 364.045501 147.171335 
L 364.983299 143.240275 
L 365.923238 145.545031 
L 366.855322 144.6163 
L 367.792404 142.779342 
L 368.733773 151.33789 
L 369.664428 153.514739 
L 370.602225 154.22921 
L 371.530022 151.009867 
L 372.464248 159.789408 
L 373.396332 148.38418 
L 374.330557 153.83909 
L 375.266212 147.477244 
L 376.198295 150.508592 
L 377.134664 150.446854 
L 378.072461 152.196048 
L 379.005972 151.818102 
L 379.93377 155.76618 
L 380.863711 148.2881 
L 381.796508 151.829772 
L 382.73002 152.405891 
L 383.657818 145.419373 
L 384.588472 155.80917 
L 385.51627 153.917074 
L 386.452639 152.887899 
L 387.382579 153.508991 
L 388.314662 149.352535 
L 389.245317 153.754347 
L 390.1774 155.569297 
L 391.106627 144.803643 
L 392.03371 155.02394 
L 392.965793 151.843357 
L 393.897162 151.926131 
L 394.827817 150.012519 
L 395.756329 146.486668 
L 396.682698 145.978035 
L 397.609068 152.944382 
L 398.53758 149.527849 
L 399.461092 156.191188 
L 400.389604 147.159426 
L 401.31383 149.759247 
L 402.241628 154.664862 
L 403.169426 147.333889 
L 404.097938 147.325626 
L 405.032164 145.40181 
L 405.970675 143.887672 
L 406.90133 150.787876 
L 407.834842 147.019717 
L 408.768353 146.436347 
L 409.694008 150.795394 
L 410.626806 149.6569 
L 411.560317 146.608681 
L 412.490258 149.883761 
L 413.420198 147.039729 
L 414.352282 146.866397 
L 415.290079 147.77815 
L 416.215734 148.340737 
L 417.149245 156.193596 
L 418.082043 153.95441 
L 419.009841 141.418512 
L 419.944781 144.118444 
L 420.876864 147.76048 
L 421.808947 147.324682 
L 422.734602 151.049238 
L 423.664543 149.896202 
L 424.590912 144.530439 
L 425.517996 146.944554 
L 426.444365 150.982564 
L 427.365734 147.899763 
L 428.291389 143.509647 
L 429.212759 150.762303 
L 430.136986 144.725286 
L 431.061212 151.720093 
L 431.982582 155.083563 
L 432.90538 148.017345 
L 433.830321 145.555316 
L 434.753119 153.784883 
L 435.677345 152.187639 
L 436.598715 157.532073 
L 437.520799 146.396802 
L 438.438597 144.729478 
L 439.351396 149.91789 
L 440.274908 147.670334 
L 441.191992 146.295733 
L 442.111933 150.637284 
L 443.029732 149.579063 
L 443.943959 155.298555 
L 444.862472 154.133184 
L 445.782413 149.165871 
L 446.698068 148.403832 
L 447.610867 151.925771 
L 448.522952 148.82401 
L 449.431465 157.550727 
L 450.336407 150.235322 
L 451.243492 146.940323 
L 452.144863 157.873854 
L 453.045519 148.668986 
L 453.95189 146.951207 
L 454.855404 147.899963 
L 455.756774 160.225126 
L 456.658145 151.741396 
L 457.554516 154.82256 
L 458.457316 146.034451 
L 459.35583 149.675169 
L 460.251487 151.199126 
L 461.144287 152.464755 
L 462.031373 153.457219 
L 462.920602 157.574957 
L 463.810545 156.908798 
L 464.694774 153.862175 
L 465.578289 154.642017 
L 466.466089 160.753332 
L 467.351747 153.718648 
L 468.23169 151.270657 
L 469.113777 153.479187 
L 469.995863 152.022304 
L 470.881521 157.535812 
L 471.775749 150.295223 
L 472.665692 153.390997 
L 473.553492 151.035095 
L 474.44415 147.371863 
L 475.335521 149.548061 
L 476.227607 152.197618 
L 477.113265 157.654497 
L 477.996065 154.680762 
L 478.87958 154.133583 
L 479.766666 155.677378 
L 480.653752 160.576806 
L 481.53941 154.219431 
L 482.427924 156.595345 
L 483.315725 145.600542 
L 484.206382 149.658125 
L 485.08704 150.799253 
L 485.964127 151.45466 
L 486.842642 148.824076 
L 487.720443 152.888671 
L 488.601815 152.228008 
L 489.476759 154.699523 
L 490.357417 150.241895 
L 491.230218 152.48784 
L 492.101591 148.241757 
L 492.97225 154.456457 
L 493.845051 147.020023 
L 494.713567 149.007294 
L 495.582083 161.324807 
L 496.452027 154.494883 
L 497.314829 149.381741 
L 498.176202 155.185191 
L 499.044004 150.703798 
L 499.900378 150.436901 
L 500.760323 148.595619 
L 501.620982 155.997844 
L 502.479498 153.308543 
L 503.338015 152.010967 
L 504.200102 153.070372 
L 505.057905 152.776478 
L 505.915707 153.621384 
L 506.769938 153.574867 
L 507.622026 159.776182 
L 508.476257 156.767972 
L 509.326203 159.12317 
L 510.17972 149.651232 
L 511.028237 150.661087 
L 511.877468 150.206462 
L 512.720271 154.93792 
L 513.565217 153.877796 
L 514.40802 161.142827 
L 516.925716 151.851659 
L 517.759235 158.158899 
L 518.601324 157.203038 
L 519.434842 157.212539 
L 520.269074 150.433202 
L 521.105449 156.326226 
L 521.939681 154.76685 
L 522.771057 158.004781 
L 523.600289 162.710359 
L 524.426665 158.255046 
L 525.250898 155.480735 
L 526.077274 162.239541 
L 526.897935 156.466228 
L 527.721454 153.129489 
L 528.544973 155.129574 
L 529.367777 155.670167 
L 530.188439 159.607547 
L 531.006244 153.713379 
L 531.824763 156.531984 
L 532.641853 152.038802 
L 534.273892 165.737636 
L 535.083126 160.623137 
L 535.891645 159.416452 
L 536.700165 155.664565 
L 537.512256 156.559021 
L 538.318633 162.524666 
L 539.115725 158.136546 
L 539.913531 158.683153 
L 540.714194 163.901729 
L 541.511286 160.468778 
L 542.304806 162.085355 
L 543.099041 158.236245 
L 543.888991 159.978613 
L 544.678226 162.052118 
L 545.468175 170.347175 
L 546.257411 157.05029 
L 547.040218 157.547308 
L 547.826596 158.997991 
L 548.610117 155.219719 
L 549.397924 155.510393 
L 550.177874 162.258169 
L 550.957824 165.206996 
L 551.73706 163.024757 
L 552.51701 159.031348 
L 553.29696 156.353835 
L 554.074053 158.637422 
L 554.850432 162.989524 
L 555.623954 159.325455 
L 556.396762 154.876408 
L 557.17314 156.034514 
L 557.945234 160.588342 
L 558.71447 159.079274 
L 559.479421 164.150065 
L 560.243658 160.501803 
L 561.007895 159.449835 
L 561.77356 157.936563 
L 562.536369 162.84609 
L 563.298463 159.134533 
L 564.059128 162.152442 
L 564.818365 157.608234 
L 565.576888 158.38415 
L 566.335411 159.595785 
L 567.087506 163.920663 
L 567.841743 171.663458 
L 568.593124 166.700775 
L 569.342362 163.080322 
L 570.095885 157.386243 
L 571.595075 160.698446 
L 572.345027 156.924299 
L 573.089265 162.055764 
L 573.828503 163.420293 
L 574.567741 159.200848 
L 575.304837 161.661426 
L 576.041219 159.123396 
L 576.774743 163.928168 
L 577.512553 157.626809 
L 578.25822 166.430219 
L 579.003172 159.606841 
L 579.750981 157.863874 
L 580.506647 150.718262 
L 581.261599 148.955988 
L 582.013693 156.698876 
L 582.765074 153.564702 
L 583.514312 148.199911 
L 584.263549 153.75118 
L 585.011359 147.204492 
L 586.503406 154.75381 
L 587.248358 159.847274 
L 587.986168 151.098935 
L 588.723264 169.276527 
L 589.457503 151.116791 
L 590.196741 153.067924 
L 590.933837 148.778358 
L 591.668076 150.137485 
L 592.398743 155.092997 
L 593.130125 146.940003 
L 593.85865 150.020875 
L 594.588603 152.123839 
L 595.312128 154.610283 
L 596.039224 147.203893 
L 597.475561 151.819925 
L 598.197658 149.154055 
L 598.916897 166.106281 
L 599.633994 153.205211 
L 600.345377 152.907538 
L 601.06176 150.515551 
L 601.776 157.533762 
L 602.48524 162.021196 
L 603.194481 151.138958 
L 603.902292 149.766206 
L 604.606533 153.570809 
L 605.315773 159.388324 
L 606.0193 152.984285 
L 606.719969 148.856848 
L 607.416353 148.858698 
L 608.809121 156.195432 
L 609.507648 166.028097 
L 610.201175 152.923731 
L 610.896845 158.492431 
L 611.591086 161.762947 
L 612.279613 156.360741 
L 612.968855 161.583495 
L 613.655954 153.238675 
L 614.338767 154.319609 
L 615.024438 155.674904 
L 615.705108 158.269602 
L 616.382208 156.792534 
L 617.063593 157.5412 
L 617.740692 151.862636 
L 618.412078 160.859311 
L 619.082749 166.26378 
L 619.753421 160.571351 
L 620.421949 153.633412 
L 621.094049 166.535999 
L 621.757578 160.966514 
L 622.423964 150.801142 
L 623.083922 162.268241 
L 623.741023 160.507019 
L 624.398124 160.118615 
L 625.048796 155.245226 
L 625.701612 165.143994 
L 626.355855 152.987957 
L 627.004385 165.798642 
L 627.653629 153.816683 
L 628.302874 158.662304 
L 629.592077 162.183577 
L 630.239178 161.713717 
L 630.888422 155.454137 
L 631.532667 159.049842 
L 632.17834 157.687176 
L 633.461115 150.495499 
L 634.099645 156.577941 
L 634.736748 167.151742 
L 635.372421 166.45876 
L 636.005952 153.975273 
L 636.636626 159.774745 
L 637.2673 154.92806 
L 638.517934 160.371661 
L 639.141466 154.570978 
L 639.765711 159.457233 
L 640.379244 150.715574 
L 640.997061 158.481228 
L 641.61345 159.320878 
L 642.227697 162.037668 
L 642.841943 158.956929 
L 643.449761 155.199987 
L 644.060436 153.197414 
L 644.666112 163.060802 
L 645.272502 155.445103 
L 645.873178 156.361898 
L 647.074529 162.102746 
L 647.674491 161.935255 
L 648.273738 162.72759 
L 648.870843 159.175341 
L 649.466519 159.059622 
L 650.061481 157.700508 
L 650.6543 159.214419 
L 651.243548 153.561349 
L 651.831368 162.763236 
L 652.417759 155.921563 
L 653.002721 161.092239 
L 653.586255 160.662601 
L 654.166932 157.837662 
L 654.744753 159.126243 
L 655.326144 162.845651 
L 655.90325 163.371994 
L 656.472499 164.599848 
L 657.043891 154.953407 
L 657.612426 168.860101 
L 658.18239 163.921182 
L 658.748782 155.263215 
L 659.31946 163.863516 
L 659.887995 158.634042 
L 660.45153 159.028247 
L 661.01578 164.310983 
L 661.577887 158.628068 
L 662.138565 163.368082 
L 662.699244 164.995117 
L 663.254922 156.997081 
L 663.812029 167.118797 
L 664.364851 158.770265 
L 664.914102 172.539938 
L 665.467638 161.742377 
L 666.014031 155.066691 
L 666.558282 168.70219 
L 667.106819 162.07499 
L 667.651069 162.00467 
L 668.193178 161.52841 
L 668.736714 158.192629 
L 669.274537 162.985652 
L 669.810931 159.796193 
L 670.345897 159.446935 
L 670.880148 158.787589 
L 671.412257 162.774985 
L 671.942938 156.538118 
L 672.475761 166.397048 
L 673.003584 159.879899 
L 673.531407 162.226501 
L 674.05566 167.022571 
L 674.577055 169.228267 
L 675.096307 163.928447 
L 675.616988 160.874506 
L 676.136241 164.271026 
L 676.652636 161.308628 
L 677.168317 172.329044 
L 677.683284 159.079235 
L 678.19468 169.617602 
L 678.70679 157.845486 
L 679.726011 163.788446 
L 680.22955 162.916197 
L 680.734518 159.836789 
L 681.237343 174.537854 
L 681.738025 173.734967 
L 682.238707 171.572581 
L 682.739389 164.250243 
L 683.234358 167.828744 
L 683.731469 164.786791 
L 685.214231 178.534364 
L 685.704914 163.062399 
L 686.195597 156.949048 
L 686.682708 170.673588 
L 687.167677 165.596703 
L 687.650504 162.827462 
L 688.126188 170.115258 
L 688.6083 163.105828 
L 689.089697 163.493341 
L 689.569667 164.391482 
L 690.043208 160.139731 
L 690.518177 162.195912 
L 690.991718 158.755882 
L 691.46526 158.775361 
L 691.937372 170.032631 
L 692.410913 162.746351 
L 692.880883 163.782046 
L 693.357281 168.549415 
L 693.827965 164.38761 
L 694.296507 158.897294 
L 694.767191 170.335546 
L 695.231447 164.119023 
L 695.692846 164.465568 
L 696.161388 167.475534 
L 696.629929 153.117368 
L 697.093471 163.128674 
L 697.556298 164.550497 
L 698.018412 164.679947 
L 698.481953 166.316935 
L 698.940495 169.278536 
L 699.398323 157.761142 
L 699.851151 170.423496 
L 700.303265 157.145957 
L 700.751808 159.192319 
L 701.204636 156.739751 
L 701.657464 164.941096 
L 702.107436 166.819288 
L 702.558835 158.274964 
L 703.006664 159.331642 
L 703.450207 155.66076 
L 703.892321 174.611886 
L 704.33515 160.148845 
L 704.772979 170.29221 
L 705.654351 158.408978 
L 706.093609 163.164692 
L 706.527153 159.992212 
L 706.961411 170.546852 
L 707.397097 157.526844 
L 707.829212 155.765754 
L 708.262042 168.849922 
L 708.692014 158.859014 
L 709.117701 169.106095 
L 709.543388 158.816595 
L 709.968361 161.602735 
L 710.393334 160.745575 
L 710.814735 166.653088 
L 711.234708 164.09321 
L 711.653253 167.422937 
L 712.070369 172.505623 
L 712.487485 166.947581 
L 712.898173 168.592113 
L 713.31029 159.588427 
L 713.721692 167.998058 
L 714.130237 167.10138 
L 714.537354 171.726593 
L 714.941614 161.177514 
L 715.348731 175.077263 
L 715.752276 173.755285 
L 716.156536 161.284012 
L 716.556511 163.52747 
L 716.955057 158.937823 
L 717.352888 159.269877 
L 717.747149 166.6824 
L 718.143552 167.146819 
L 718.539241 166.307954 
L 718.929216 167.178021 
L 719.319905 160.293144 
L 719.706309 168.061619 
L 720.091999 167.392161 
L 720.476974 168.154346 
L 720.861235 167.053587 
L 721.244782 173.877962 
L 721.622615 165.380567 
L 722.002591 164.669503 
L 722.378995 168.076654 
L 722.7554 167.575446 
L 723.132518 174.124143 
L 723.503209 175.380564 
L 723.8739 165.019586 
L 724.242447 164.475467 
L 724.614566 168.157126 
L 725.345948 172.617669 
L 725.708782 167.910015 
L 726.071616 168.643859 
L 726.431593 171.220714 
L 726.790856 170.766128 
L 727.146547 172.498185 
L 727.503667 172.816561 
L 727.860073 170.024953 
L 728.566456 178.003696 
L 728.919291 171.752779 
L 729.269983 172.549345 
L 729.61996 165.595958 
L 729.969224 171.859317 
L 730.31563 167.693267 
L 730.662751 173.165501 
L 731.007729 174.892075 
L 731.34985 178.250941 
L 731.689828 169.384821 
L 732.03052 178.287092 
L 732.706906 166.779717 
L 733.045455 174.064267 
L 733.37972 171.789702 
L 733.71327 166.742262 
L 734.044677 171.962049 
L 734.377513 185.144652 
L 734.706778 175.185743 
L 735.034614 172.478839 
L 735.360307 172.437219 
L 736.011694 179.673855 
L 736.334531 176.716566 
L 736.656653 180.306816 
L 736.978775 171.046903 
L 737.296612 175.075347 
L 737.61302 174.423998 
L 738.245123 171.62434 
L 738.562245 174.560846 
L 738.875796 173.459634 
L 739.191491 173.101208 
L 739.502899 175.037213 
L 739.812879 172.510945 
L 740.125002 176.548037 
L 740.434982 174.364548 
L 740.745677 178.114811 
L 741.053514 173.133873 
L 741.362066 178.23866 
L 741.664904 176.355039 
L 741.964884 186.466909 
L 742.263437 186.674876 
L 742.564132 176.246279 
L 742.866255 176.144651 
L 743.165522 180.302505 
L 743.464074 176.231271 
L 743.761198 180.639216 
L 744.056179 179.457958 
L 744.346875 189.312405 
L 744.638999 177.14776 
L 744.930409 176.399014 
L 745.223247 181.786452 
L 745.513943 178.431125 
L 745.799639 176.953605 
L 746.088192 185.592093 
L 746.373888 180.609345 
L 746.943137 175.155792 
L 747.227405 176.923095 
L 747.508815 176.564882 
L 747.79094 181.364345 
L 748.074493 176.294206 
L 748.353761 173.863978 
L 748.634458 176.129775 
L 748.910154 174.146443 
L 749.189422 186.770038 
L 749.738673 179.181282 
L 750.013655 180.401259 
L 750.287209 175.853099 
L 750.560049 180.811763 
L 750.83146 177.401352 
L 751.1043 178.701176 
L 751.376425 175.951228 
L 751.644979 190.349723 
L 751.910676 180.269054 
L 752.178516 176.571827 
L 752.445642 182.291027 
L 752.710625 176.459502 
L 752.97418 179.948629 
L 753.238449 175.314036 
L 753.763415 187.317217 
L 754.024827 179.36434 
L 754.281953 184.175286 
L 754.799063 175.851755 
L 755.054761 176.712295 
L 755.311173 178.349189 
L 755.566157 180.860768 
L 755.818284 175.681497 
L 756.071839 197.549024 
L 756.325394 175.180993 
L 756.578235 180.834157 
L 756.827505 176.280674 
L 757.07606 176.565707 
L 757.571028 184.373513 
L 757.819584 184.609913 
L 758.064568 177.382325 
L 758.553823 184.959624 
L 758.799521 184.929248 
L 759.040934 182.272705 
L 759.283776 181.965226 
L 759.526618 184.167076 
L 759.768745 183.175849 
L 760.007301 175.262756 
L 760.486556 180.097625 
L 760.725827 181.01965 
L 760.96224 189.194637 
L 761.199368 181.994165 
L 761.435781 193.029364 
L 761.670052 180.915028 
L 761.90218 190.509284 
L 762.135022 177.720779 
L 762.366436 187.847126 
L 762.827121 179.123669 
L 763.055677 177.869044 
L 763.286377 182.155057 
L 763.513505 179.343397 
L 763.740634 186.749707 
L 763.96919 186.511244 
L 764.197033 179.99275 
L 764.421304 180.286844 
L 764.869847 183.889881 
L 765.09269 182.930999 
L 765.314104 187.409079 
L 765.536233 176.385908 
L 765.755505 186.440085 
L 765.974062 178.16685 
L 766.194048 187.38139 
L 766.414034 180.149557 
L 766.631877 178.915143 
L 766.847578 179.808494 
L 767.065421 179.763282 
L 767.279693 181.404408 
L 767.496108 177.910836 
L 767.711094 177.09833 
L 768.134638 184.550597 
L 768.346053 185.405628 
L 768.555325 181.315008 
L 768.766026 184.843919 
L 768.976727 179.913808 
L 769.187428 179.6141 
L 769.395986 179.026019 
L 769.808817 184.510494 
L 770.017375 181.057664 
L 770.225219 187.233512 
L 770.430205 186.903905 
L 770.837322 179.287966 
L 771.240154 188.099134 
L 771.439427 179.014603 
L 771.636557 184.671106 
L 771.832259 184.85483 
L 772.031532 180.07116 
L 772.232233 184.373659 
L 772.427935 193.8725 
L 772.624351 178.721493 
L 772.820767 196.730743 
L 773.018611 177.844002 
L 773.214313 183.99425 
L 773.411443 185.798423 
L 773.605716 179.376062 
L 773.799276 180.653879 
L 773.990692 178.66726 
L 774.182822 183.660958 
L 774.376381 184.854484 
L 774.757786 178.354937 
L 774.949916 179.662093 
L 775.327035 186.58972 
L 775.513452 186.521582 
L 775.699868 183.785818 
L 775.884856 183.754177 
L 776.070559 187.819956 
L 776.255547 184.490043 
L 776.439821 185.303588 
L 776.624095 180.717693 
L 776.809797 180.277025 
L 776.994071 187.804694 
L 777.175488 182.665672 
L 777.355476 186.576308 
L 777.539036 184.34613 
L 777.721882 180.002157 
L 777.902584 180.330699 
L 778.082573 185.706667 
L 778.261847 178.774849 
L 778.436836 189.941587 
L 778.790385 184.148834 
L 778.963945 185.272226 
L 779.31178 192.390616 
L 779.486054 185.46569 
L 779.661043 189.840025 
L 779.835318 190.793651 
L 780.00745 185.660683 
L 780.176724 184.761171 
L 780.348142 180.121442 
L 780.513846 196.130687 
L 780.678121 184.432151 
L 780.845967 183.857934 
L 781.010957 190.196975 
L 781.180232 184.291124 
L 781.348792 184.464829 
L 781.683057 191.534547 
L 782.016607 177.560367 
L 782.175882 200.918853 
L 782.341586 187.424367 
L 782.501576 191.149403 
L 782.665137 186.443691 
L 782.822269 188.89256 
L 782.980116 195.52805 
L 783.136535 193.633518 
L 783.296525 188.862383 
L 783.453658 198.718799 
L 783.612933 193.237504 
L 783.765066 198.703724 
L 784.082189 187.926095 
L 784.234322 191.387067 
L 784.385741 199.844506 
L 784.694292 189.03799 
L 784.846426 194.059085 
L 785.000701 194.549223 
L 785.151406 188.471771 
L 785.302825 189.648771 
L 785.454958 188.768419 
L 785.607805 193.283155 
L 785.761367 186.665881 
L 785.914214 188.116844 
L 786.061348 193.990029 
L 786.362043 184.509935 
L 786.509176 192.617157 
L 786.805586 184.073139 
L 787.09271 196.761465 
L 787.236987 189.646176 
L 787.381263 189.831071 
L 787.521254 195.41615 
L 787.668388 191.751455 
L 787.813379 192.490182 
L 787.959798 195.219027 
L 788.102646 181.370253 
L 788.239066 204.038937 
L 788.379771 189.876243 
L 788.656896 195.98994 
L 788.791173 205.817709 
L 788.931878 187.676468 
L 789.068298 197.322509 
L 789.206861 189.691442 
L 789.343281 198.55828 
L 789.4797 198.153763 
L 789.618977 189.554913 
L 789.75254 196.858942 
L 789.891103 191.529876 
L 790.28822 206.488019 
L 790.422497 191.200856 
L 790.551775 198.744732 
L 790.951035 187.813662 
L 791.213161 197.588488 
L 791.343153 196.658254 
L 791.47243 189.241633 
L 791.604564 192.716457 
L 791.731699 192.657606 
L 791.85812 197.305824 
L 791.98954 190.837666 
L 792.243809 198.340215 
L 792.369516 197.73324 
L 792.625213 189.395672 
L 792.875197 202.585566 
L 793.002332 190.848364 
L 793.127324 208.982646 
L 793.380165 185.562608 
L 793.5073 195.208635 
L 793.628721 194.439385 
L 793.749427 201.573103 
L 793.870848 199.218305 
L 793.993697 187.955713 
L 794.115832 208.294254 
L 794.35796 189.416681 
L 794.475809 203.426387 
L 794.59723 192.134842 
L 794.71508 201.151182 
L 794.8365 194.519272 
L 794.950065 198.840984 
L 795.068628 194.181097 
L 795.18505 203.103779 
L 795.300042 200.383715 
L 795.412178 203.063836 
L 795.644306 195.17593 
L 795.876434 191.924867 
L 796.100705 203.478478 
L 796.212127 200.40732 
L 796.324262 208.457647 
L 796.551391 193.834047 
L 796.664955 193.725407 
L 796.999219 203.601276 
L 797.109212 194.564751 
L 797.219919 197.405244 
L 797.329198 206.281476 
L 797.439905 196.172307 
L 797.652035 201.27225 
L 797.761313 194.774194 
L 797.979871 202.539396 
L 798.087007 200.387681 
L 798.296993 208.233115 
L 798.400558 206.000182 
L 798.609116 198.824339 
L 798.711967 205.053143 
L 798.819103 190.54948 
L 799.024804 205.336499 
L 799.128369 199.095387 
L 799.231219 203.754849 
L 799.334784 198.95021 
L 799.434063 203.36711 
L 799.535485 202.937127 
L 799.635479 198.79335 
L 799.736187 203.339581 
L 799.839752 193.402374 
L 799.939031 200.280491 
L 800.042596 196.554617 
L 800.139732 203.268835 
L 800.238298 201.620684 
L 800.336148 207.177342 
L 800.436142 203.721691 
L 800.530422 213.017622 
L 800.627558 203.208747 
L 800.724695 207.452954 
L 800.92254 198.308122 
L 801.018962 209.383756 
L 801.213949 196.48886 
L 801.406794 210.510541 
L 801.593211 199.542735 
L 801.688205 200.644998 
L 801.786056 200.016388 
L 801.878907 196.946626 
L 802.06818 204.364565 
L 802.163174 194.305558 
L 802.441014 206.516493 
L 802.628859 192.204723 
L 802.811704 201.452514 
L 802.901699 198.789359 
L 802.991693 201.091201 
L 803.085258 192.862685 
L 803.174538 205.087019 
L 803.265961 195.018392 
L 803.445949 201.122323 
L 803.536658 199.458577 
L 803.627366 194.789176 
L 803.805212 199.61372 
L 803.895206 194.805768 
L 804.071624 197.446744 
L 804.158047 202.766868 
L 804.245898 194.639302 
L 804.503739 207.39598 
L 804.588733 204.929241 
L 804.673728 209.384874 
L 804.930854 194.189001 
L 805.017277 191.935844 
L 805.187267 205.384319 
L 805.270118 199.406246 
L 805.352256 209.283924 
L 805.436536 194.960579 
L 805.522959 195.219746 
L 805.685806 202.714298 
L 805.847939 200.206179 
L 806.009357 207.194945 
L 806.092209 197.260545 
L 806.170775 200.909007 
L 806.25077 209.477308 
L 806.327194 207.721435 
L 806.407903 204.96506 
L 806.485755 205.72316 
L 806.565036 206.452573 
L 806.643602 197.893612 
L 806.722168 200.246029 
L 806.80002 205.93106 
L 806.877873 198.047412 
L 806.957153 206.109528 
L 807.035005 202.029325 
L 807.112143 204.887076 
L 807.187139 203.264564 
L 807.412124 208.662952 
L 807.487119 205.062976 
L 807.558543 212.295607 
L 807.634253 199.153493 
L 807.708534 203.426613 
L 807.785672 194.906412 
L 807.930662 210.149893 
L 808.002086 210.099292 
L 808.074939 200.805516 
L 808.145649 213.552294 
L 808.215644 212.830931 
L 808.432773 202.54847 
L 808.573478 213.149028 
L 808.641331 211.987103 
L 808.709898 214.617088 
L 808.77918 207.545109 
L 808.848461 210.348346 
L 808.917742 207.628854 
L 809.125586 213.430335 
L 809.19701 203.538194 
L 809.264863 207.394716 
L 809.401997 214.124808 
L 809.471278 199.817602 
L 809.538417 208.325815 
L 809.604841 211.992905 
L 809.671265 204.899982 
L 809.804114 216.232322 
L 809.871252 204.945474 
L 809.936963 210.690686 
L 810.003387 215.228614 
L 810.136236 208.468477 
L 810.199803 210.722592 
L 810.199803 210.722592 
" clip-path="url(#p74a0a4233b)" style="fill: none; stroke: #ff0000; stroke-width: 1.5; stroke-linecap: square"/>
   </g>
   <g id="line2d_20">
    <path d="M 116.297787 191.625664 
L 117.076308 140.06512 
L 117.844831 133.248275 
L 118.614781 135.306292 
L 119.386161 129.550848 
L 120.155397 138.38574 
L 120.926776 130.078615 
L 121.699584 147.046435 
L 122.472392 141.836175 
L 123.250199 138.944509 
L 124.025149 134.11089 
L 124.805814 134.827729 
L 125.590049 137.505442 
L 127.161377 130.519656 
L 127.944899 136.181002 
L 128.729848 147.653263 
L 129.519798 134.489035 
L 130.309747 137.699051 
L 131.098268 151.048813 
L 131.892503 131.570692 
L 132.688166 132.184772 
L 133.482401 146.126845 
L 134.273065 138.565286 
L 135.070871 138.553896 
L 135.867249 139.96755 
L 136.660055 139.379881 
L 137.453576 131.659307 
L 138.25781 134.649355 
L 139.062044 139.43663 
L 139.865564 135.355416 
L 140.66837 135.922607 
L 141.474033 138.614024 
L 142.281124 138.812983 
L 143.086072 135.993247 
L 143.892449 135.454343 
L 144.700969 134.69152 
L 145.516631 143.528022 
L 146.333007 130.924226 
L 147.148669 135.089757 
L 147.96576 136.843541 
L 148.784993 138.185717 
L 149.607798 131.488583 
L 150.429888 134.057521 
L 151.253407 133.075621 
L 152.07764 134.338057 
L 153.725391 139.302735 
L 154.552481 135.892284 
L 155.377428 145.737483 
L 156.20809 135.847338 
L 157.040179 134.855964 
L 157.873697 136.989051 
L 158.712929 131.218399 
L 159.54859 140.069431 
L 160.385679 137.785724 
L 161.22134 140.715777 
L 162.051287 140.275322 
L 162.889091 141.224091 
L 163.730465 141.927198 
L 164.57184 140.270931 
L 165.4125 136.617665 
L 166.258161 151.681693 
L 167.098821 134.058732 
L 167.942339 138.638267 
L 168.775857 142.067014 
L 169.622231 132.659169 
L 170.467891 133.417935 
L 171.313551 142.784598 
L 172.162068 138.380059 
L 173.010586 146.412556 
L 173.859817 139.157944 
L 174.714048 136.124773 
L 175.565422 133.597334 
L 176.414653 140.16909 
L 177.263885 152.22693 
L 178.110973 141.701788 
L 178.963776 144.127346 
L 179.811579 138.428677 
L 180.662953 139.248967 
L 181.518612 135.100308 
L 182.377129 132.041138 
L 183.229217 138.726789 
L 184.081306 141.172531 
L 184.934108 136.112438 
L 185.789768 135.519794 
L 186.649713 143.61222 
L 187.506086 145.700866 
L 188.361032 140.729136 
L 189.214548 134.47408 
L 190.076636 138.03088 
L 190.935153 142.915326 
L 191.798669 138.170163 
L 193.526415 138.271046 
L 194.390646 140.161984 
L 195.249876 151.001165 
L 196.110536 139.413145 
L 196.964767 147.277926 
L 197.823283 138.986714 
L 198.687514 143.852545 
L 199.548887 140.19445 
L 200.408118 140.798937 
L 201.268777 137.940575 
L 202.130865 137.520437 
L 202.994381 139.239121 
L 203.861468 147.701456 
L 204.724984 140.106607 
L 205.592072 134.631951 
L 207.322675 140.676791 
L 208.190477 155.158726 
L 209.056136 139.129856 
L 209.92108 140.769066 
L 210.791025 136.946194 
L 211.662397 143.086755 
L 212.528771 148.354642 
L 213.397286 136.173112 
L 215.12789 152.052827 
L 215.996406 138.217877 
L 216.867779 135.545686 
L 217.732009 148.323387 
L 218.605524 141.774477 
L 219.476183 142.103644 
L 220.347556 141.703239 
L 221.216072 139.557418 
L 222.089587 144.02126 
L 222.968817 147.635913 
L 223.842332 140.906286 
L 224.713705 139.796786 
L 225.590792 142.654416 
L 226.465021 140.734618 
L 227.338537 144.00528 
L 228.20991 144.85129 
L 229.080568 147.63111 
L 230.826885 138.40981 
L 231.703972 142.205086 
L 232.578916 141.239671 
L 233.450289 140.614561 
L 234.32309 151.963759 
L 235.200177 141.955925 
L 236.072978 147.595584 
L 236.951493 145.786049 
L 238.704238 139.896431 
L 239.58561 141.792759 
L 240.465554 159.270103 
L 241.346212 142.157505 
L 242.221156 145.933488 
L 243.103242 152.640548 
L 243.983186 137.955024 
L 244.862415 150.000504 
L 245.743073 144.50263 
L 246.622303 142.714544 
L 247.505818 146.181611 
L 248.385047 143.454109 
L 249.262848 150.24248 
L 250.137792 146.604942 
L 251.019878 144.6739 
L 251.902679 146.731119 
L 252.78048 142.008296 
L 253.662566 143.58968 
L 254.543939 143.916412 
L 255.426025 145.844859 
L 256.30454 144.39548 
L 257.183055 149.970886 
L 258.060142 144.566058 
L 258.945085 141.652478 
L 259.825743 150.7412 
L 260.706401 146.776664 
L 261.587773 141.251913 
L 262.466289 141.740561 
L 263.351232 150.364519 
L 264.231176 152.345709 
L 265.115405 140.932272 
L 265.993206 149.624927 
L 266.874578 140.328943 
L 267.753807 150.42655 
L 268.633037 151.898202 
L 269.514409 147.411461 
L 270.395067 150.985784 
L 271.281439 147.055829 
L 272.164954 161.251081 
L 273.047754 145.198367 
L 273.935555 150.461943 
L 274.812641 143.142598 
L 275.699013 141.611709 
L 276.587528 148.763922 
L 277.4739 146.886262 
L 278.355986 148.39392 
L 279.2445 144.944496 
L 280.131587 150.761066 
L 281.013673 153.298617 
L 281.901473 145.344196 
L 282.785702 149.013149 
L 283.67136 143.331086 
L 284.561303 147.051265 
L 285.447675 148.050968 
L 286.334761 145.613249 
L 287.221847 142.708729 
L 288.109647 146.785672 
L 288.995305 142.791943 
L 289.87882 148.434981 
L 290.765906 147.475847 
L 291.652278 151.832446 
L 292.542935 152.330741 
L 293.428593 146.149305 
L 294.318536 149.247713 
L 295.204193 149.300922 
L 296.094136 141.861522 
L 296.980508 147.863944 
L 297.864023 145.856834 
L 298.748252 146.131954 
L 299.634624 143.083216 
L 300.523853 145.509093 
L 301.415224 146.665176 
L 302.305167 152.224163 
L 303.196539 149.311274 
L 304.085768 149.117877 
L 304.974282 149.992854 
L 305.86494 144.204811 
L 306.760596 146.486655 
L 307.65054 143.416215 
L 308.539768 149.866969 
L 309.435425 153.961422 
L 310.32394 142.205858 
L 311.213883 146.534529 
L 312.105969 163.255037 
L 313.000197 143.092636 
L 313.895854 149.977206 
L 314.788654 152.766951 
L 315.68074 143.637394 
L 316.570683 159.549561 
L 317.465626 150.65997 
L 318.361283 156.144259 
L 319.25694 143.308227 
L 320.146883 144.325559 
L 321.038968 147.302821 
L 321.933197 142.028973 
L 322.827425 148.171463 
L 323.727368 149.944155 
L 324.625167 143.056099 
L 325.52011 142.928724 
L 326.41291 146.746806 
L 327.304282 144.086657 
L 328.19851 150.088308 
L 329.092024 150.752058 
L 329.98911 143.404014 
L 330.885481 146.547648 
L 331.783995 143.312285 
L 332.68608 148.258189 
L 333.594593 139.775377 
L 334.503107 137.156183 
L 335.40662 143.745502 
L 336.315133 146.542259 
L 337.222218 143.04918 
L 338.127875 140.704813 
L 339.036388 144.90108 
L 339.944901 156.938869 
L 340.859128 141.568879 
L 341.769784 139.304106 
L 342.672584 147.212329 
L 343.585382 138.881587 
L 344.486753 144.926068 
L 345.399552 139.060134 
L 346.30878 144.178825 
L 348.139377 137.284023 
L 349.060746 141.408799 
L 349.979973 143.489515 
L 350.897057 144.734001 
L 351.819141 139.700919 
L 352.739082 142.227852 
L 353.664023 143.031098 
L 354.583964 142.721356 
L 355.503905 141.443646 
L 356.422418 137.500026 
L 357.343788 140.841821 
L 358.261586 142.994481 
L 359.177242 141.590487 
L 360.097897 138.177188 
L 361.022838 140.777036 
L 361.942779 143.989939 
L 362.864148 143.56891 
L 363.786232 140.259687 
L 364.713316 140.990923 
L 365.638257 144.141862 
L 366.561769 138.823774 
L 367.490281 139.783374 
L 368.408079 143.435255 
L 369.332306 139.712242 
L 370.255104 142.672166 
L 371.170045 138.180767 
L 372.091415 140.516126 
L 373.007785 137.720101 
L 373.93344 140.264956 
L 374.856238 141.436115 
L 375.781893 137.268362 
L 376.70612 144.422185 
L 377.625347 137.893938 
L 378.551716 144.529375 
L 379.4738 138.23689 
L 380.395169 151.024796 
L 381.31511 153.257422 
L 382.235766 142.018262 
L 383.15785 140.55583 
L 384.079219 148.825753 
L 384.997732 145.414303 
L 385.919101 150.150325 
L 386.840471 149.223338 
L 387.761841 143.018031 
L 388.677496 140.256281 
L 389.596009 147.666276 
L 390.518093 140.704201 
L 391.429463 153.716785 
L 392.339405 146.876988 
L 393.24649 147.390983 
L 394.15286 150.596821 
L 395.061373 145.714345 
L 395.968458 160.53987 
L 396.872686 143.395312 
L 398.686856 145.735155 
L 399.591084 151.89908 
L 400.498883 150.238009 
L 401.404539 158.527904 
L 402.313766 148.218871 
L 403.218708 148.0612 
L 404.116508 149.779126 
L 405.020022 146.105623 
L 405.921393 148.779622 
L 406.821335 153.395535 
L 407.726277 150.270196 
L 408.629076 156.402441 
L 409.534019 154.980538 
L 410.438246 145.949029 
L 411.337475 151.636534 
L 412.238131 147.309074 
L 413.137359 146.587072 
L 414.03873 149.921403 
L 414.939387 147.742624 
L 415.845043 155.777916 
L 416.743557 153.106258 
L 417.66207 140.503406 
L 418.580582 150.353369 
L 419.499809 145.529863 
L 420.416893 144.855388 
L 421.332549 147.952786 
L 422.249633 141.356082 
L 423.166003 145.858285 
L 424.080945 144.056201 
L 424.999457 141.785108 
L 425.910113 146.274271 
L 426.82434 158.944755 
L 427.739996 145.749352 
L 428.649938 148.189306 
L 429.564879 146.672654 
L 430.47625 149.134829 
L 431.393334 140.486907 
L 432.303276 147.085726 
L 433.22036 141.22739 
L 434.131016 152.600658 
L 435.047386 143.763983 
L 435.960899 149.421524 
L 436.871555 146.605035 
L 437.790781 141.731061 
L 438.71358 150.107255 
L 439.63852 139.678565 
L 440.559176 140.661596 
L 441.483402 153.422212 
L 442.402629 139.255328 
L 443.324713 140.261297 
L 444.252511 142.458837 
L 445.171738 143.732595 
L 446.097393 146.220037 
L 447.023048 142.824674 
L 447.940132 143.945685 
L 448.86293 143.430718 
L 449.782157 146.859199 
L 450.705669 146.573155 
L 451.632038 139.825566 
L 452.553408 149.276387 
L 453.474063 149.573887 
L 455.323945 138.140518 
L 456.248886 141.257834 
L 457.165256 146.397095 
L 458.085197 144.113508 
L 459.003709 143.344125 
L 459.924365 143.127989 
L 460.843592 150.710451 
L 461.76139 146.113526 
L 462.680617 147.09858 
L 463.593416 145.652008 
L 464.511928 148.533695 
L 465.429727 156.239207 
L 466.349668 143.627987 
L 467.268895 141.937643 
L 468.18455 148.532737 
L 469.105206 147.770459 
L 470.028004 148.431375 
L 470.950088 140.45512 
L 471.865743 141.863438 
L 472.778542 145.544153 
L 473.697769 155.477182 
L 474.606996 149.092144 
L 475.520509 146.873329 
L 476.429023 147.16081 
L 477.33825 146.406968 
L 478.246764 151.403008 
L 479.148134 146.212799 
L 480.051648 144.83249 
L 480.950876 153.577156 
L 481.857247 156.562693 
L 482.759332 153.422465 
L 483.665702 147.739391 
L 484.567073 145.773861 
L 485.470587 149.379598 
L 486.377672 154.823199 
L 487.280471 150.137645 
L 488.18327 148.221838 
L 489.083927 148.938664 
L 489.988155 148.9021 
L 491.786611 156.309355 
L 493.58721 148.274449 
L 494.484296 154.036652 
L 495.380667 151.511821 
L 496.274181 147.713072 
L 497.173409 148.169108 
L 498.062638 155.584426 
L 498.958295 160.02827 
L 499.84681 154.970013 
L 500.745324 154.4741 
L 501.638124 154.3591 
L 502.528067 157.071965 
L 503.421581 154.91872 
L 504.306524 153.732752 
L 505.199324 147.655698 
L 506.089267 159.756756 
L 507.869153 150.963883 
L 508.758382 160.225951 
L 509.649039 157.78444 
L 510.553267 147.967435 
L 511.458209 145.193537 
L 512.360294 158.721314 
L 513.27095 147.446388 
L 514.176607 156.920893 
L 515.082263 151.109912 
L 515.977206 144.527725 
L 516.880719 151.552935 
L 517.789233 154.231898 
L 518.69346 150.802459 
L 519.599831 143.58026 
L 520.506202 148.832858 
L 522.317514 144.607971 
L 524.123827 145.71968 
L 525.027341 164.227078 
L 525.927997 149.488505 
L 526.834368 147.402293 
L 527.735025 145.816705 
L 528.634253 144.662098 
L 529.534909 153.991772 
L 530.433423 152.098145 
L 531.33408 154.551352 
L 532.230451 153.18802 
L 533.128965 144.658838 
L 534.024622 146.218906 
L 534.927421 152.767151 
L 535.828792 148.769244 
L 536.728735 152.644101 
L 537.628677 144.009538 
L 538.531476 152.956357 
L 539.435704 144.152254 
L 540.33279 148.789655 
L 541.232732 148.077752 
L 542.13696 145.400945 
L 543.034045 145.198992 
L 543.926845 145.826192 
L 544.824645 149.824578 
L 545.716731 145.974629 
L 546.615245 156.577223 
L 547.515901 149.206333 
L 548.410844 153.275252 
L 549.305787 155.202648 
L 550.202158 145.295285 
L 551.095672 152.832322 
L 551.997043 147.804069 
L 552.893414 146.862379 
L 553.789786 145.618531 
L 554.686157 151.419839 
L 555.581814 146.726236 
L 556.476756 154.655681 
L 557.370985 154.528147 
L 558.265928 149.516393 
L 559.162299 152.786378 
L 560.051528 145.393573 
L 560.939328 150.862548 
L 561.837842 145.290601 
L 562.74207 145.18586 
L 563.640584 143.958258 
L 564.535526 149.057616 
L 565.440468 148.626355 
L 566.338982 156.511121 
L 567.236068 148.917162 
L 568.135296 160.278428 
L 569.035953 149.500812 
L 569.939466 146.939817 
L 570.844408 145.65443 
L 571.744351 150.230013 
L 572.640008 143.296105 
L 573.543521 152.662662 
L 574.436321 151.419147 
L 575.333407 149.076337 
L 576.228349 150.646465 
L 577.124006 147.249931 
L 578.023949 150.644282 
L 578.921034 151.777321 
L 579.817405 143.763424 
L 580.71092 146.545346 
L 581.606577 146.965949 
L 582.503662 154.827976 
L 583.397176 146.574818 
L 584.285691 144.952133 
L 585.175634 148.262966 
L 586.069148 148.103538 
L 586.961234 151.864699 
L 587.85332 148.287528 
L 588.742548 147.191985 
L 588.742548 147.191985 
" clip-path="url(#p74a0a4233b)" style="fill: none; stroke: #0000ff; stroke-width: 1.5; stroke-linecap: square"/>
   </g>
   <g id="patch_3">
    <path d="M 115.2 461.376 
L 115.2 62.208 
" style="fill: none; stroke: #000000; stroke-width: 0.8; stroke-linejoin: miter; stroke-linecap: square"/>
   </g>
   <g id="patch_4">
    <path d="M 829.44 461.376 
L 829.44 62.208 
" style="fill: none; stroke: #000000; stroke-width: 0.8; stroke-linejoin: miter; stroke-linecap: square"/>
   </g>
   <g id="patch_5">
    <path d="M 115.2 461.376 
L 829.44 461.376 
" style="fill: none; stroke: #000000; stroke-width: 0.8; stroke-linejoin: miter; stroke-linecap: square"/>
   </g>
   <g id="patch_6">
    <path d="M 115.2 62.208 
L 829.44 62.208 
" style="fill: none; stroke: #000000; stroke-width: 0.8; stroke-linejoin: miter; stroke-linecap: square"/>
   </g>
   <g id="text_21">
    <!-- $\mathrm{proto\ &amp;\ mica*}$的吞吐量随索引装载率的变化趋势 -->
    <g transform="translate(231.666 56.208) scale(0.228 -0.228)">
     <defs>
      <path id="STIXGeneral-Regular-72" d="M 1024 2931 
L 1024 2342 
Q 1267 2688 1430 2816 
Q 1594 2944 1792 2944 
Q 1958 2944 2051 2854 
Q 2144 2765 2144 2605 
Q 2144 2470 2077 2393 
Q 2010 2317 1894 2317 
Q 1773 2317 1638 2445 
Q 1536 2541 1472 2541 
Q 1338 2541 1181 2355 
Q 1024 2170 1024 2016 
L 1024 576 
Q 1024 301 1133 205 
Q 1242 109 1568 96 
L 1568 0 
L 32 0 
L 32 96 
Q 339 154 412 224 
Q 486 294 486 538 
L 486 2138 
Q 486 2349 438 2435 
Q 390 2522 269 2522 
Q 166 2522 45 2496 
L 45 2598 
Q 448 2726 992 2944 
L 1024 2931 
z
" transform="scale(0.015625)"/>
      <path id="STIXGeneral-Regular-74" d="M 1702 493 
L 1786 422 
Q 1478 -64 1011 -64 
Q 448 -64 448 749 
L 448 2675 
L 109 2675 
Q 83 2694 83 2720 
Q 83 2771 192 2842 
Q 435 2982 813 3526 
Q 826 3546 874 3606 
Q 922 3667 941 3706 
Q 986 3706 986 3622 
L 986 2880 
L 1632 2880 
L 1632 2675 
L 986 2675 
L 986 845 
Q 986 538 1062 403 
Q 1139 269 1318 269 
Q 1510 269 1702 493 
z
" transform="scale(0.015625)"/>
      <path id="STIXGeneral-Regular-26" d="M 4704 710 
L 4800 640 
Q 4659 294 4409 105 
Q 4160 -83 3834 -83 
Q 3309 -83 2746 499 
Q 2387 186 2070 51 
Q 1754 -83 1363 -83 
Q 838 -83 553 160 
Q 269 403 269 877 
Q 269 1267 528 1628 
Q 787 1990 1274 2272 
L 1517 2413 
Q 1293 2957 1293 3366 
Q 1293 3789 1571 4057 
Q 1850 4326 2266 4326 
Q 2656 4326 2899 4115 
Q 3142 3904 3142 3533 
Q 3142 3181 2921 2937 
Q 2701 2694 2150 2458 
Q 2509 1683 2995 1139 
Q 3315 1568 3449 1821 
Q 3584 2074 3584 2291 
Q 3584 2438 3494 2502 
Q 3405 2566 3168 2592 
L 3168 2726 
L 4550 2726 
L 4550 2592 
Q 4326 2592 4201 2509 
Q 4077 2426 3949 2214 
Q 3859 2074 3702 1814 
Q 3546 1555 3424 1363 
Q 3302 1171 3142 960 
Q 3379 659 3606 515 
Q 3834 371 4115 371 
Q 4301 371 4425 444 
Q 4550 518 4704 710 
z
M 2803 3558 
Q 2803 3795 2662 3958 
Q 2522 4122 2304 4122 
Q 2080 4122 1939 3974 
Q 1798 3827 1798 3590 
Q 1798 3334 1849 3139 
Q 1901 2944 2054 2662 
Q 2458 2848 2630 3059 
Q 2803 3270 2803 3558 
z
M 2586 666 
Q 2035 1312 1613 2195 
Q 1197 1926 1027 1686 
Q 858 1446 858 1114 
Q 858 717 1078 486 
Q 1299 256 1651 256 
Q 2061 256 2586 666 
z
" transform="scale(0.015625)"/>
      <path id="STIXGeneral-Regular-6d" d="M 4960 0 
L 3565 0 
L 3565 96 
Q 3834 122 3907 208 
Q 3981 294 3981 576 
L 3981 1894 
Q 3981 2278 3869 2444 
Q 3757 2611 3488 2611 
Q 3264 2611 3107 2521 
Q 2950 2432 2803 2221 
L 2803 608 
Q 2803 301 2896 201 
Q 2989 102 3264 96 
L 3264 0 
L 1830 0 
L 1830 96 
Q 2112 115 2189 188 
Q 2266 262 2266 550 
L 2266 1901 
Q 2266 2611 1850 2611 
Q 1670 2611 1468 2531 
Q 1267 2451 1171 2336 
Q 1088 2240 1088 2227 
L 1088 448 
Q 1088 243 1177 176 
Q 1267 109 1523 96 
L 1523 0 
L 102 0 
L 102 96 
Q 371 102 460 195 
Q 550 288 550 563 
L 550 2150 
Q 550 2387 499 2480 
Q 448 2573 326 2573 
Q 230 2573 122 2547 
L 122 2656 
Q 557 2778 1011 2944 
L 1062 2925 
L 1062 2451 
L 1075 2451 
Q 1363 2752 1584 2848 
Q 1805 2944 2054 2944 
Q 2560 2944 2733 2406 
Q 3232 2944 3776 2944 
Q 4518 2944 4518 1792 
L 4518 493 
Q 4518 282 4582 202 
Q 4646 122 4794 109 
L 4960 96 
L 4960 0 
z
" transform="scale(0.015625)"/>
      <path id="STIXGeneral-Regular-69" d="M 1152 4045 
Q 1152 3904 1056 3811 
Q 960 3718 819 3718 
Q 685 3718 592 3811 
Q 499 3904 499 4045 
Q 499 4179 595 4275 
Q 691 4371 826 4371 
Q 966 4371 1059 4275 
Q 1152 4179 1152 4045 
z
M 1619 0 
L 102 0 
L 102 96 
Q 435 115 521 211 
Q 608 307 608 666 
L 608 2118 
Q 608 2342 563 2432 
Q 518 2522 397 2522 
Q 243 2522 128 2490 
L 128 2592 
L 1120 2944 
L 1146 2918 
L 1146 672 
Q 1146 314 1226 218 
Q 1306 122 1619 96 
L 1619 0 
z
" transform="scale(0.015625)"/>
      <path id="STIXGeneral-Regular-63" d="M 2547 998 
L 2637 941 
Q 2362 403 2112 205 
Q 1786 -64 1376 -64 
Q 845 -64 502 336 
Q 160 736 160 1357 
Q 160 2170 698 2618 
Q 1094 2944 1562 2944 
Q 1965 2944 2256 2749 
Q 2547 2554 2547 2285 
Q 2547 2176 2457 2096 
Q 2368 2016 2246 2016 
Q 2022 2016 1939 2310 
L 1901 2451 
Q 1850 2630 1773 2694 
Q 1696 2758 1523 2758 
Q 1133 2758 893 2451 
Q 653 2144 653 1645 
Q 653 1094 928 745 
Q 1203 397 1645 397 
Q 1920 397 2118 528 
Q 2317 659 2547 998 
z
" transform="scale(0.015625)"/>
      <path id="STIXGeneral-Regular-61" d="M 2829 422 
L 2829 243 
Q 2586 -64 2253 -64 
Q 1888 -64 1843 403 
L 1837 403 
Q 1427 -64 909 -64 
Q 608 -64 422 112 
Q 237 288 237 602 
Q 237 1050 685 1350 
Q 992 1555 1837 1869 
L 1837 2214 
Q 1837 2502 1699 2646 
Q 1562 2790 1338 2790 
Q 1146 2790 1018 2697 
Q 890 2605 890 2477 
Q 890 2419 909 2348 
Q 928 2278 928 2208 
Q 928 2112 841 2029 
Q 755 1946 634 1946 
Q 525 1946 441 2029 
Q 358 2112 358 2240 
Q 358 2547 685 2752 
Q 986 2944 1421 2944 
Q 1939 2944 2176 2656 
Q 2291 2522 2323 2384 
Q 2355 2246 2355 1946 
L 2355 723 
Q 2355 301 2554 301 
Q 2682 301 2829 422 
z
M 1837 813 
L 1837 1715 
Q 1248 1510 1018 1293 
Q 800 1094 800 800 
Q 800 557 921 432 
Q 1043 307 1242 307 
Q 1453 307 1613 410 
Q 1747 506 1792 589 
Q 1837 672 1837 813 
z
" transform="scale(0.015625)"/>
      <path id="STIXGeneral-Regular-2a" d="M 1715 3014 
L 1773 2976 
Q 2010 2822 2387 2758 
Q 2605 2726 2688 2665 
Q 2771 2605 2771 2483 
Q 2771 2374 2707 2304 
Q 2643 2234 2541 2234 
Q 2381 2234 2157 2515 
Q 2010 2694 1715 2886 
L 1664 2918 
L 1664 2861 
Q 1664 2502 1792 2157 
Q 1850 1997 1850 1946 
Q 1850 1850 1770 1773 
Q 1690 1696 1594 1696 
Q 1504 1696 1433 1766 
Q 1363 1837 1363 1926 
Q 1363 2016 1440 2227 
Q 1542 2502 1542 2861 
L 1542 2918 
Q 1286 2758 1210 2688 
Q 1133 2611 947 2400 
Q 806 2240 672 2240 
Q 563 2240 499 2304 
Q 435 2368 435 2470 
Q 435 2592 528 2656 
Q 621 2720 838 2758 
Q 1062 2803 1180 2848 
Q 1299 2893 1498 3014 
Q 1222 3181 877 3251 
Q 640 3302 544 3366 
Q 448 3430 448 3546 
Q 448 3648 505 3715 
Q 563 3782 659 3782 
Q 787 3782 973 3578 
Q 1242 3277 1542 3110 
L 1542 3194 
Q 1542 3456 1446 3776 
Q 1376 3987 1376 4109 
Q 1376 4198 1443 4262 
Q 1510 4326 1606 4326 
Q 1702 4326 1772 4259 
Q 1843 4192 1843 4096 
Q 1843 3994 1773 3795 
Q 1664 3507 1664 3264 
L 1664 3110 
Q 1882 3238 2035 3379 
Q 2067 3411 2153 3504 
Q 2240 3597 2291 3648 
Q 2342 3699 2409 3747 
Q 2477 3795 2528 3795 
Q 2637 3795 2701 3728 
Q 2765 3661 2765 3552 
Q 2765 3424 2691 3363 
Q 2618 3302 2432 3277 
Q 2074 3219 1715 3014 
z
" transform="scale(0.015625)"/>
      <path id="SimSun-7684" d="M 1125 3775 
L 1125 2175 
L 2425 2175 
L 2425 3775 
L 1125 3775 
z
M 1125 2025 
L 1125 275 
L 2425 275 
L 2425 2025 
L 1125 2025 
z
M 2750 3625 
Q 2750 700 2775 -200 
L 2425 -400 
L 2425 125 
L 1125 125 
L 1125 -300 
L 775 -500 
Q 800 675 800 1837 
Q 800 3000 775 4150 
L 1150 3925 
L 1400 3925 
Q 1650 4775 1675 5225 
L 2225 4925 
Q 1975 4800 1550 3925 
L 2375 3925 
L 2625 4175 
L 3000 3800 
L 2750 3625 
z
M 3975 5200 
L 4525 4875 
Q 4325 4750 3900 3850 
L 5250 3850 
L 5525 4125 
L 5900 3750 
L 5675 3575 
Q 5625 650 5537 262 
Q 5450 -125 5287 -275 
Q 5125 -425 4775 -550 
Q 4650 -150 3950 50 
L 3950 175 
Q 4575 50 4850 50 
Q 5125 50 5187 475 
Q 5250 900 5300 3700 
L 3850 3700 
Q 3400 2975 2900 2475 
L 2825 2525 
Q 3350 3325 3600 3950 
Q 3850 4575 3975 5200 
z
M 3525 2750 
Q 4125 2300 4225 2087 
Q 4325 1875 4325 1775 
Q 4325 1600 4225 1475 
Q 4125 1350 4075 1350 
Q 3975 1350 3925 1700 
Q 3825 2200 3475 2675 
L 3525 2750 
z
" transform="scale(0.015625)"/>
      <path id="SimSun-968f" d="M 2175 4225 
L 2250 4275 
Q 2800 3825 2850 3625 
Q 2900 3425 2775 3300 
Q 2650 3175 2600 3175 
Q 2500 3175 2475 3425 
Q 2425 3800 2175 4225 
z
M 6050 0 
L 6050 -100 
Q 5650 -175 5625 -475 
Q 4975 -450 4487 -425 
Q 4000 -400 3650 -262 
Q 3300 -125 3050 150 
Q 2875 300 2750 300 
Q 2650 300 2487 162 
Q 2325 25 2125 -375 
L 1750 -100 
Q 2100 175 2575 450 
L 2575 2300 
Q 2525 2300 2250 2225 
L 2025 2450 
L 2550 2450 
L 2700 2650 
L 3075 2375 
L 2875 2225 
L 2875 475 
Q 3325 75 3762 0 
Q 4200 -75 4725 -62 
Q 5250 -50 6050 0 
z
M 600 4900 
L 950 4675 
L 1700 4675 
L 1900 4900 
L 2300 4625 
L 2075 4450 
L 1475 3000 
Q 1650 2775 1900 2475 
Q 2125 2175 2162 1975 
Q 2200 1775 2200 1650 
Q 2200 1400 2075 1150 
Q 1950 900 1400 800 
Q 1400 1075 950 1250 
L 950 -475 
L 600 -650 
Q 625 0 625 2175 
Q 625 4350 600 4900 
z
M 1300 3000 
L 1725 4525 
L 950 4525 
L 950 1350 
Q 1275 1275 1425 1275 
Q 1600 1275 1725 1350 
Q 1850 1425 1850 1675 
Q 1850 1825 1812 2100 
Q 1775 2375 1300 3000 
z
M 3900 3250 
L 3900 2600 
L 5150 2600 
L 5150 3250 
L 3900 3250 
z
M 3575 250 
Q 3600 725 3600 3200 
Q 3350 2875 3000 2625 
L 2950 2675 
Q 3525 3325 3850 4175 
L 3600 4175 
Q 3275 4175 3000 4100 
L 2775 4325 
L 3900 4325 
Q 4100 4925 4100 5150 
L 4600 4900 
Q 4425 4800 4225 4325 
L 5325 4325 
L 5625 4625 
L 6025 4175 
L 4175 4175 
Q 4025 3825 3825 3475 
L 3925 3400 
L 5100 3400 
L 5250 3625 
L 5650 3350 
L 5475 3200 
L 5475 875 
Q 5525 425 5025 275 
Q 5025 550 4525 650 
L 4525 750 
Q 4950 725 5050 725 
Q 5150 725 5150 900 
L 5150 1650 
L 3900 1650 
L 3900 400 
L 3575 250 
z
M 3900 2450 
L 3900 1800 
L 5150 1800 
L 5150 2450 
L 3900 2450 
z
" transform="scale(0.015625)"/>
      <path id="SimSun-53d8" d="M 2750 4225 
L 2750 2225 
L 3650 2225 
L 3650 4225 
L 2750 4225 
z
M 375 4375 
L 3100 4375 
Q 3050 4750 2650 5200 
L 2700 5275 
Q 3150 5075 3325 4925 
Q 3500 4775 3500 4700 
Q 3500 4550 3300 4375 
L 5125 4375 
L 5525 4775 
L 6075 4225 
L 4000 4225 
L 4000 2225 
L 4425 2225 
L 4675 2500 
L 5100 2100 
L 4825 1975 
Q 4300 1325 3525 650 
Q 4500 -50 6125 -175 
L 6125 -275 
Q 5750 -325 5625 -575 
Q 4175 -250 3300 450 
Q 2150 -300 350 -600 
L 325 -500 
Q 2050 -100 3075 675 
Q 2525 1250 2100 2075 
L 1650 2075 
L 1375 2025 
L 1175 2225 
L 2400 2225 
L 2400 4225 
L 1200 4225 
Q 875 4225 600 4150 
L 375 4375 
z
M 2275 2075 
Q 2725 1350 3300 850 
Q 3800 1300 4425 2075 
L 2275 2075 
z
M 1675 3850 
L 2125 3450 
L 1875 3350 
Q 1150 2575 325 1950 
L 250 2025 
Q 700 2425 1087 2937 
Q 1475 3450 1675 3850 
z
M 4350 3700 
Q 5675 3050 5812 2875 
Q 5950 2700 5950 2575 
Q 5950 2475 5900 2375 
Q 5850 2275 5800 2275 
Q 5700 2275 5500 2550 
Q 5200 2950 4275 3625 
L 4350 3700 
z
" transform="scale(0.015625)"/>
      <path id="SimSun-5316" d="M 1375 -600 
Q 1400 200 1400 925 
L 1400 3125 
Q 850 2300 350 1775 
L 275 1850 
Q 825 2625 1300 3650 
Q 1775 4675 1900 5200 
L 2450 4875 
L 2200 4725 
Q 1875 4000 1600 3475 
L 1950 3275 
L 1750 3075 
L 1750 350 
Q 1750 75 1775 -400 
L 1375 -600 
z
M 3450 2125 
L 3450 3925 
Q 3450 4475 3425 5200 
L 4000 4925 
L 3800 4725 
L 3800 2400 
Q 4150 2725 4562 3225 
Q 4975 3725 5150 4025 
L 5600 3600 
L 5325 3525 
Q 4600 2700 3800 2000 
L 3800 425 
Q 3800 0 4225 0 
L 5300 0 
Q 5500 0 5550 325 
Q 5600 650 5600 1325 
L 5725 1325 
Q 5775 650 5850 425 
Q 5925 200 6125 125 
Q 5900 -325 5400 -325 
L 4075 -325 
Q 3450 -325 3450 250 
L 3450 1775 
Q 2800 1275 1950 925 
L 1925 1025 
Q 2800 1525 3450 2125 
z
" transform="scale(0.015625)"/>
      <path id="SimSun-8d8b" d="M 3900 5225 
L 4425 4900 
L 4225 4825 
Q 4000 4475 3800 4150 
L 4750 4150 
L 4975 4425 
L 5400 4025 
Q 5100 4000 4475 3075 
L 5350 3075 
L 5500 3325 
L 5900 3050 
L 5725 2875 
Q 5725 1050 5750 525 
L 5400 375 
L 5400 800 
L 3725 800 
Q 3525 800 3250 725 
L 3025 950 
L 5400 950 
L 5400 1900 
L 4050 1900 
Q 3850 1900 3575 1825 
L 3350 2050 
L 5400 2050 
L 5400 2925 
L 3900 2925 
Q 3700 2925 3425 2850 
L 3200 3075 
L 4350 3075 
L 4775 4000 
L 3725 4000 
Q 3450 3625 3000 3200 
L 2950 3250 
Q 3650 4250 3900 5225 
z
M 300 -550 
L 225 -500 
Q 675 275 787 1112 
Q 900 1950 850 2425 
L 1400 2150 
Q 1250 2075 1212 1812 
Q 1175 1550 1125 1075 
Q 1500 750 1725 625 
L 1725 2825 
L 950 2825 
Q 750 2825 475 2750 
L 250 2975 
L 1600 2975 
L 1600 4025 
L 1225 4025 
Q 1025 4025 750 3950 
L 525 4175 
L 1600 4175 
Q 1600 4675 1575 5225 
L 2125 4975 
L 1925 4800 
L 1925 4175 
L 2400 4175 
L 2700 4475 
L 3100 4025 
L 1925 4025 
L 1925 2975 
L 2475 2975 
L 2800 3275 
L 3200 2825 
L 1750 2825 
L 2250 2600 
L 2050 2400 
L 2050 1800 
L 2625 1800 
L 2925 2100 
L 3300 1650 
L 2050 1650 
L 2050 425 
Q 2925 25 3737 0 
Q 4550 -25 4925 -25 
Q 5625 -25 6150 25 
L 6150 -50 
Q 5700 -250 5700 -475 
Q 4950 -500 4012 -412 
Q 3075 -325 2325 -12 
Q 1575 300 1100 900 
Q 775 -25 300 -550 
z
" transform="scale(0.015625)"/>
      <path id="SimSun-52bf" d="M 1650 4175 
Q 1650 4775 1625 5200 
L 2150 4950 
L 1975 4800 
L 1975 4175 
L 2200 4175 
L 2475 4450 
L 2900 4025 
L 1975 4025 
L 1975 3425 
Q 2400 3525 2800 3625 
L 2825 3525 
Q 2400 3375 1975 3225 
L 1975 2150 
Q 2000 1800 1475 1575 
Q 1450 1850 800 2025 
L 800 2150 
Q 1225 2100 1437 2087 
Q 1650 2075 1650 2325 
L 1650 3100 
Q 700 2750 700 2650 
L 400 3100 
Q 575 3100 1650 3350 
L 1650 4025 
L 1300 4025 
Q 975 4025 700 3950 
L 475 4175 
L 1650 4175 
z
M 3650 4175 
L 3650 4525 
Q 3650 4875 3625 5225 
L 4175 4975 
L 3975 4800 
L 3975 4200 
L 4700 4250 
L 4850 4475 
L 5200 4200 
L 5025 4050 
Q 5000 3900 5000 3575 
Q 5000 3225 5050 2812 
Q 5100 2400 5425 2175 
Q 5600 2650 5700 3050 
L 5800 3025 
Q 5725 2525 5725 2250 
Q 5725 1975 5825 1775 
Q 5900 1650 5775 1650 
Q 5725 1650 5475 1750 
Q 5225 1850 5012 2137 
Q 4800 2425 4737 2750 
Q 4675 3075 4675 3475 
Q 4675 3850 4700 4100 
L 3975 4050 
Q 3925 3450 3750 3050 
Q 4100 2900 4262 2787 
Q 4425 2675 4387 2475 
Q 4350 2275 4275 2275 
Q 4225 2275 4125 2400 
Q 3925 2625 3625 2825 
Q 3225 2225 2100 1800 
L 2050 1875 
Q 3075 2400 3375 2975 
Q 3225 3100 2850 3300 
L 2900 3375 
Q 3225 3275 3475 3175 
Q 3600 3500 3650 4025 
L 3300 4000 
L 3125 3925 
L 2875 4125 
L 3650 4175 
z
M 2600 1425 
Q 2675 1700 2700 2025 
L 3175 1775 
L 3000 1650 
L 2950 1425 
L 4725 1425 
L 4875 1675 
L 5325 1375 
L 5125 1225 
Q 5050 400 4987 112 
Q 4925 -175 4750 -350 
Q 4575 -525 4225 -600 
Q 4250 -350 3650 -50 
L 3675 50 
Q 4225 -100 4412 -87 
Q 4600 -75 4675 312 
Q 4750 700 4775 1275 
L 2925 1275 
Q 2800 775 2575 450 
Q 2350 125 1875 -162 
Q 1400 -450 450 -650 
L 400 -550 
Q 1500 -225 1950 200 
Q 2400 625 2575 1275 
L 1450 1275 
Q 1125 1275 850 1200 
L 625 1425 
L 2600 1425 
z
" transform="scale(0.015625)"/>
     </defs>
     <use xlink:href="#STIXGeneral-Regular-70" transform="translate(0 0.578125)"/>
     <use xlink:href="#STIXGeneral-Regular-72" transform="translate(49.999985 0.578125)"/>
     <use xlink:href="#STIXGeneral-Regular-6f" transform="translate(83.299973 0.578125)"/>
     <use xlink:href="#STIXGeneral-Regular-74" transform="translate(133.299957 0.578125)"/>
     <use xlink:href="#STIXGeneral-Regular-6f" transform="translate(161.099945 0.578125)"/>
     <use xlink:href="#STIXGeneral-Regular-26" transform="translate(235.16635 0.578125)"/>
     <use xlink:href="#STIXGeneral-Regular-6d" transform="translate(337.032757 0.578125)"/>
     <use xlink:href="#STIXGeneral-Regular-69" transform="translate(414.832745 0.578125)"/>
     <use xlink:href="#STIXGeneral-Regular-63" transform="translate(442.632733 0.578125)"/>
     <use xlink:href="#STIXGeneral-Regular-61" transform="translate(487.032727 0.578125)"/>
     <use xlink:href="#STIXGeneral-Regular-2a" transform="translate(545.872717 0.578125)"/>
     <use xlink:href="#SimSun-7684" transform="translate(610.312698 0.578125)"/>
     <use xlink:href="#SimSun-541e" transform="translate(710.312698 0.578125)"/>
     <use xlink:href="#SimSun-5410" transform="translate(810.312698 0.578125)"/>
     <use xlink:href="#SimSun-91cf" transform="translate(910.312698 0.578125)"/>
     <use xlink:href="#SimSun-968f" transform="translate(1010.312698 0.578125)"/>
     <use xlink:href="#SimSun-7d22" transform="translate(1110.312698 0.578125)"/>
     <use xlink:href="#SimSun-5f15" transform="translate(1210.312698 0.578125)"/>
     <use xlink:href="#SimSun-88c5" transform="translate(1310.312698 0.578125)"/>
     <use xlink:href="#SimSun-8f7d" transform="translate(1410.312698 0.578125)"/>
     <use xlink:href="#SimSun-7387" transform="translate(1510.312698 0.578125)"/>
     <use xlink:href="#SimSun-7684" transform="translate(1610.312698 0.578125)"/>
     <use xlink:href="#SimSun-53d8" transform="translate(1710.312698 0.578125)"/>
     <use xlink:href="#SimSun-5316" transform="translate(1810.312698 0.578125)"/>
     <use xlink:href="#SimSun-8d8b" transform="translate(1910.312698 0.578125)"/>
     <use xlink:href="#SimSun-52bf" transform="translate(2010.312698 0.578125)"/>
    </g>
   </g>
   <g id="legend_1">
    <g id="patch_7">
     <path d="M 715.235156 131.136437 
L 816.14 131.136437 
Q 819.94 131.136437 819.94 127.336437 
L 819.94 75.508 
Q 819.94 71.708 816.14 71.708 
L 715.235156 71.708 
Q 711.435156 71.708 711.435156 75.508 
L 711.435156 127.336437 
Q 711.435156 131.136437 715.235156 131.136437 
z
" style="fill: #ffffff; opacity: 0.8; stroke: #cccccc; stroke-linejoin: miter"/>
    </g>
    <g id="line2d_21">
     <path d="M 719.035156 85.958 
L 738.035156 85.958 
L 757.035156 85.958 
" style="fill: none; stroke: #ff0000; stroke-width: 1.5; stroke-linecap: square"/>
    </g>
    <g id="text_22">
     <!-- mica -->
     <g transform="translate(772.235156 92.608) scale(0.19 -0.19)">
      <defs>
       <path id="TimesNewRomanPSMT-6d" d="M 1050 2338 
Q 1363 2650 1419 2697 
Q 1559 2816 1721 2881 
Q 1884 2947 2044 2947 
Q 2313 2947 2506 2790 
Q 2700 2634 2766 2338 
Q 3088 2713 3309 2830 
Q 3531 2947 3766 2947 
Q 3994 2947 4170 2830 
Q 4347 2713 4450 2447 
Q 4519 2266 4519 1878 
L 4519 647 
Q 4519 378 4559 278 
Q 4591 209 4675 161 
Q 4759 113 4950 113 
L 4950 0 
L 3538 0 
L 3538 113 
L 3597 113 
Q 3781 113 3884 184 
Q 3956 234 3988 344 
Q 4000 397 4000 647 
L 4000 1878 
Q 4000 2228 3916 2372 
Q 3794 2572 3525 2572 
Q 3359 2572 3192 2489 
Q 3025 2406 2788 2181 
L 2781 2147 
L 2788 2013 
L 2788 647 
Q 2788 353 2820 281 
Q 2853 209 2943 161 
Q 3034 113 3253 113 
L 3253 0 
L 1806 0 
L 1806 113 
Q 2044 113 2133 169 
Q 2222 225 2256 338 
Q 2272 391 2272 647 
L 2272 1878 
Q 2272 2228 2169 2381 
Q 2031 2581 1784 2581 
Q 1616 2581 1450 2491 
Q 1191 2353 1050 2181 
L 1050 647 
Q 1050 366 1089 281 
Q 1128 197 1204 155 
Q 1281 113 1516 113 
L 1516 0 
L 100 0 
L 100 113 
Q 297 113 375 155 
Q 453 197 493 289 
Q 534 381 534 647 
L 534 1741 
Q 534 2213 506 2350 
Q 484 2453 437 2492 
Q 391 2531 309 2531 
Q 222 2531 100 2484 
L 53 2597 
L 916 2947 
L 1050 2947 
L 1050 2338 
z
" transform="scale(0.015625)"/>
       <path id="TimesNewRomanPSMT-69" d="M 928 4444 
Q 1059 4444 1151 4351 
Q 1244 4259 1244 4128 
Q 1244 3997 1151 3903 
Q 1059 3809 928 3809 
Q 797 3809 703 3903 
Q 609 3997 609 4128 
Q 609 4259 701 4351 
Q 794 4444 928 4444 
z
M 1188 2947 
L 1188 647 
Q 1188 378 1227 289 
Q 1266 200 1342 156 
Q 1419 113 1622 113 
L 1622 0 
L 231 0 
L 231 113 
Q 441 113 512 153 
Q 584 194 626 287 
Q 669 381 669 647 
L 669 1750 
Q 669 2216 641 2353 
Q 619 2453 572 2492 
Q 525 2531 444 2531 
Q 356 2531 231 2484 
L 188 2597 
L 1050 2947 
L 1188 2947 
z
" transform="scale(0.015625)"/>
       <path id="TimesNewRomanPSMT-63" d="M 2631 1088 
Q 2516 522 2178 217 
Q 1841 -88 1431 -88 
Q 944 -88 581 321 
Q 219 731 219 1428 
Q 219 2103 620 2525 
Q 1022 2947 1584 2947 
Q 2006 2947 2278 2723 
Q 2550 2500 2550 2259 
Q 2550 2141 2473 2067 
Q 2397 1994 2259 1994 
Q 2075 1994 1981 2113 
Q 1928 2178 1911 2362 
Q 1894 2547 1784 2644 
Q 1675 2738 1481 2738 
Q 1169 2738 978 2506 
Q 725 2200 725 1697 
Q 725 1184 976 792 
Q 1228 400 1656 400 
Q 1963 400 2206 609 
Q 2378 753 2541 1131 
L 2631 1088 
z
" transform="scale(0.015625)"/>
       <path id="TimesNewRomanPSMT-61" d="M 1822 413 
Q 1381 72 1269 19 
Q 1100 -59 909 -59 
Q 613 -59 420 144 
Q 228 347 228 678 
Q 228 888 322 1041 
Q 450 1253 767 1440 
Q 1084 1628 1822 1897 
L 1822 2009 
Q 1822 2438 1686 2597 
Q 1550 2756 1291 2756 
Q 1094 2756 978 2650 
Q 859 2544 859 2406 
L 866 2225 
Q 866 2081 792 2003 
Q 719 1925 600 1925 
Q 484 1925 411 2006 
Q 338 2088 338 2228 
Q 338 2497 613 2722 
Q 888 2947 1384 2947 
Q 1766 2947 2009 2819 
Q 2194 2722 2281 2516 
Q 2338 2381 2338 1966 
L 2338 994 
Q 2338 584 2353 492 
Q 2369 400 2405 369 
Q 2441 338 2488 338 
Q 2538 338 2575 359 
Q 2641 400 2828 588 
L 2828 413 
Q 2478 -56 2159 -56 
Q 2006 -56 1915 50 
Q 1825 156 1822 413 
z
M 1822 616 
L 1822 1706 
Q 1350 1519 1213 1441 
Q 966 1303 859 1153 
Q 753 1003 753 825 
Q 753 600 887 451 
Q 1022 303 1197 303 
Q 1434 303 1822 616 
z
" transform="scale(0.015625)"/>
      </defs>
      <use xlink:href="#TimesNewRomanPSMT-6d"/>
      <use xlink:href="#TimesNewRomanPSMT-69" x="77.783203"/>
      <use xlink:href="#TimesNewRomanPSMT-63" x="105.566406"/>
      <use xlink:href="#TimesNewRomanPSMT-61" x="149.951172"/>
     </g>
    </g>
    <g id="line2d_22">
     <path d="M 719.035156 112.822219 
L 738.035156 112.822219 
L 757.035156 112.822219 
" style="fill: none; stroke: #0000ff; stroke-width: 1.5; stroke-linecap: square"/>
    </g>
    <g id="text_23">
     <!-- proto -->
     <g transform="translate(772.235156 119.472219) scale(0.19 -0.19)">
      <defs>
       <path id="TimesNewRomanPSMT-70" d="M -6 2578 
L 875 2934 
L 994 2934 
L 994 2266 
Q 1216 2644 1439 2795 
Q 1663 2947 1909 2947 
Q 2341 2947 2628 2609 
Q 2981 2197 2981 1534 
Q 2981 794 2556 309 
Q 2206 -88 1675 -88 
Q 1444 -88 1275 -22 
Q 1150 25 994 166 
L 994 -706 
Q 994 -1000 1030 -1079 
Q 1066 -1159 1155 -1206 
Q 1244 -1253 1478 -1253 
L 1478 -1369 
L -22 -1369 
L -22 -1253 
L 56 -1253 
Q 228 -1256 350 -1188 
Q 409 -1153 442 -1076 
Q 475 -1000 475 -688 
L 475 2019 
Q 475 2297 450 2372 
Q 425 2447 370 2484 
Q 316 2522 222 2522 
Q 147 2522 31 2478 
L -6 2578 
z
M 994 2081 
L 994 1013 
Q 994 666 1022 556 
Q 1066 375 1236 237 
Q 1406 100 1666 100 
Q 1978 100 2172 344 
Q 2425 663 2425 1241 
Q 2425 1897 2138 2250 
Q 1938 2494 1663 2494 
Q 1513 2494 1366 2419 
Q 1253 2363 994 2081 
z
" transform="scale(0.015625)"/>
       <path id="TimesNewRomanPSMT-72" d="M 1038 2947 
L 1038 2303 
Q 1397 2947 1775 2947 
Q 1947 2947 2059 2842 
Q 2172 2738 2172 2600 
Q 2172 2478 2090 2393 
Q 2009 2309 1897 2309 
Q 1788 2309 1652 2417 
Q 1516 2525 1450 2525 
Q 1394 2525 1328 2463 
Q 1188 2334 1038 2041 
L 1038 669 
Q 1038 431 1097 309 
Q 1138 225 1241 169 
Q 1344 113 1538 113 
L 1538 0 
L 72 0 
L 72 113 
Q 291 113 397 181 
Q 475 231 506 341 
Q 522 394 522 644 
L 522 1753 
Q 522 2253 501 2348 
Q 481 2444 426 2487 
Q 372 2531 291 2531 
Q 194 2531 72 2484 
L 41 2597 
L 906 2947 
L 1038 2947 
z
" transform="scale(0.015625)"/>
       <path id="TimesNewRomanPSMT-6f" d="M 1600 2947 
Q 2250 2947 2644 2453 
Q 2978 2031 2978 1484 
Q 2978 1100 2793 706 
Q 2609 313 2286 112 
Q 1963 -88 1566 -88 
Q 919 -88 538 428 
Q 216 863 216 1403 
Q 216 1797 411 2186 
Q 606 2575 925 2761 
Q 1244 2947 1600 2947 
z
M 1503 2744 
Q 1338 2744 1170 2645 
Q 1003 2547 900 2300 
Q 797 2053 797 1666 
Q 797 1041 1045 587 
Q 1294 134 1700 134 
Q 2003 134 2200 384 
Q 2397 634 2397 1244 
Q 2397 2006 2069 2444 
Q 1847 2744 1503 2744 
z
" transform="scale(0.015625)"/>
       <path id="TimesNewRomanPSMT-74" d="M 1031 3803 
L 1031 2863 
L 1700 2863 
L 1700 2644 
L 1031 2644 
L 1031 788 
Q 1031 509 1111 412 
Q 1191 316 1316 316 
Q 1419 316 1516 380 
Q 1613 444 1666 569 
L 1788 569 
Q 1678 263 1478 108 
Q 1278 -47 1066 -47 
Q 922 -47 784 33 
Q 647 113 581 261 
Q 516 409 516 719 
L 516 2644 
L 63 2644 
L 63 2747 
Q 234 2816 414 2980 
Q 594 3144 734 3369 
Q 806 3488 934 3803 
L 1031 3803 
z
" transform="scale(0.015625)"/>
      </defs>
      <use xlink:href="#TimesNewRomanPSMT-70"/>
      <use xlink:href="#TimesNewRomanPSMT-72" x="50"/>
      <use xlink:href="#TimesNewRomanPSMT-6f" x="83.300781"/>
      <use xlink:href="#TimesNewRomanPSMT-74" x="133.300781"/>
      <use xlink:href="#TimesNewRomanPSMT-6f" x="161.083984"/>
     </g>
    </g>
   </g>
  </g>
 </g>
 <defs>
  <clipPath id="p74a0a4233b">
   <rect x="115.2" y="62.208" width="714.24" height="399.168"/>
  </clipPath>
 </defs>
</svg>
