<?xml version="1.0" encoding="utf-8" standalone="no"?>
<!DOCTYPE svg PUBLIC "-//W3C//DTD SVG 1.1//EN"
  "http://www.w3.org/Graphics/SVG/1.1/DTD/svg11.dtd">
<svg xmlns:xlink="http://www.w3.org/1999/xlink" width="921.6pt" height="518.4pt" viewBox="0 0 921.6 518.4" xmlns="http://www.w3.org/2000/svg" version="1.1">
 <metadata>
  <rdf:RDF xmlns:dc="http://purl.org/dc/elements/1.1/" xmlns:cc="http://creativecommons.org/ns#" xmlns:rdf="http://www.w3.org/1999/02/22-rdf-syntax-ns#">
   <cc:Work>
    <dc:type rdf:resource="http://purl.org/dc/dcmitype/StillImage"/>
    <dc:date>2023-07-04T16:28:35.208475</dc:date>
    <dc:format>image/svg+xml</dc:format>
    <dc:creator>
     <cc:Agent>
      <dc:title>Matplotlib v3.7.1, https://matplotlib.org/</dc:title>
     </cc:Agent>
    </dc:creator>
   </cc:Work>
  </rdf:RDF>
 </metadata>
 <defs>
  <style type="text/css">*{stroke-linejoin: round; stroke-linecap: butt}</style>
 </defs>
 <g id="figure_1">
  <g id="patch_1">
   <path d="M 0 518.4 
L 921.6 518.4 
L 921.6 0 
L 0 0 
z
" style="fill: #ffffff"/>
  </g>
  <g id="axes_1">
   <g id="patch_2">
    <path d="M 115.2 461.376 
L 829.44 461.376 
L 829.44 62.208 
L 115.2 62.208 
z
" style="fill: #ffffff"/>
   </g>
   <g id="matplotlib.axis_1">
    <g id="xtick_1">
     <g id="line2d_1">
      <defs>
       <path id="mf6cab079b4" d="M 0 0 
L 0 3.5 
" style="stroke: #000000; stroke-width: 0.8"/>
      </defs>
      <g>
       <use xlink:href="#mf6cab079b4" x="115.2" y="461.376" style="stroke: #000000; stroke-width: 0.8"/>
      </g>
     </g>
     <g id="text_1">
      <!-- 0 -->
      <g transform="translate(110.45 481.958031) scale(0.19 -0.19)">
       <defs>
        <path id="SimSun-30" d="M 1600 4225 
Q 1250 4225 1012 3687 
Q 775 3150 775 2250 
Q 775 1300 1012 775 
Q 1250 250 1600 250 
Q 1975 250 2187 775 
Q 2400 1300 2400 2250 
Q 2400 3150 2200 3687 
Q 2000 4225 1600 4225 
z
M 1600 50 
Q 1050 50 675 625 
Q 300 1200 300 2250 
Q 300 3225 662 3825 
Q 1025 4425 1600 4425 
Q 2150 4425 2512 3850 
Q 2875 3275 2875 2250 
Q 2875 1225 2512 637 
Q 2150 50 1600 50 
z
" transform="scale(0.015625)"/>
       </defs>
       <use xlink:href="#SimSun-30"/>
      </g>
     </g>
    </g>
    <g id="xtick_2">
     <g id="line2d_2">
      <g>
       <use xlink:href="#mf6cab079b4" x="217.234286" y="461.376" style="stroke: #000000; stroke-width: 0.8"/>
      </g>
     </g>
     <g id="text_2">
      <!-- 200 -->
      <g transform="translate(202.984286 481.958031) scale(0.19 -0.19)">
       <defs>
        <path id="SimSun-32" d="M 2325 3325 
Q 2325 3775 2125 4012 
Q 1925 4250 1525 4250 
Q 1225 4250 1012 4087 
Q 800 3925 800 3675 
Q 800 3525 900 3425 
Q 975 3325 975 3225 
Q 975 3100 912 3037 
Q 850 2975 725 2975 
Q 575 2975 487 3062 
Q 400 3150 400 3350 
Q 400 3875 775 4150 
Q 1150 4425 1575 4425 
Q 2175 4425 2462 4125 
Q 2750 3825 2750 3375 
Q 2750 3075 2612 2775 
Q 2475 2475 2175 2200 
Q 1450 1500 1062 1062 
Q 675 625 600 475 
L 2075 475 
Q 2300 475 2450 650 
Q 2600 825 2650 1175 
L 2800 1175 
L 2650 100 
L 325 100 
L 325 425 
Q 450 650 737 1000 
Q 1025 1350 1500 1825 
Q 1925 2250 2125 2625 
Q 2325 3000 2325 3325 
z
" transform="scale(0.015625)"/>
       </defs>
       <use xlink:href="#SimSun-32"/>
       <use xlink:href="#SimSun-30" x="50"/>
       <use xlink:href="#SimSun-30" x="100"/>
      </g>
     </g>
    </g>
    <g id="xtick_3">
     <g id="line2d_3">
      <g>
       <use xlink:href="#mf6cab079b4" x="319.268571" y="461.376" style="stroke: #000000; stroke-width: 0.8"/>
      </g>
     </g>
     <g id="text_3">
      <!-- 400 -->
      <g transform="translate(305.018571 481.958031) scale(0.19 -0.19)">
       <defs>
        <path id="SimSun-34" d="M 2300 575 
Q 2300 400 2400 325 
Q 2500 250 2675 250 
L 2900 250 
L 2900 100 
L 1250 100 
L 1250 250 
L 1525 250 
Q 1725 250 1812 325 
Q 1900 400 1900 575 
L 1900 1400 
L 225 1400 
L 225 1525 
L 2050 4425 
L 2300 4425 
L 2300 1550 
L 2975 1550 
L 2975 1400 
L 2300 1400 
L 2300 575 
z
M 1875 3800 
L 450 1550 
L 1900 1550 
L 1900 3800 
L 1875 3800 
z
" transform="scale(0.015625)"/>
       </defs>
       <use xlink:href="#SimSun-34"/>
       <use xlink:href="#SimSun-30" x="50"/>
       <use xlink:href="#SimSun-30" x="100"/>
      </g>
     </g>
    </g>
    <g id="xtick_4">
     <g id="line2d_4">
      <g>
       <use xlink:href="#mf6cab079b4" x="421.302857" y="461.376" style="stroke: #000000; stroke-width: 0.8"/>
      </g>
     </g>
     <g id="text_4">
      <!-- 600 -->
      <g transform="translate(407.052857 481.958031) scale(0.19 -0.19)">
       <defs>
        <path id="SimSun-36" d="M 775 1800 
Q 775 1050 1037 637 
Q 1300 225 1675 225 
Q 2050 225 2250 500 
Q 2450 775 2450 1525 
Q 2450 2025 2237 2300 
Q 2025 2575 1725 2575 
Q 1450 2575 1212 2412 
Q 975 2250 775 1800 
z
M 1750 2825 
Q 2350 2825 2612 2425 
Q 2875 2025 2875 1525 
Q 2875 775 2512 412 
Q 2150 50 1675 50 
Q 1000 50 650 562 
Q 300 1075 300 2050 
Q 300 3200 725 3812 
Q 1150 4425 1875 4425 
Q 2225 4425 2437 4225 
Q 2650 4025 2650 3875 
Q 2650 3725 2587 3650 
Q 2525 3575 2375 3575 
Q 2250 3575 2187 3637 
Q 2125 3700 2125 3825 
Q 2125 3875 2150 3925 
Q 2150 3975 2150 4025 
Q 2150 4125 2075 4187 
Q 2000 4250 1800 4250 
Q 1375 4250 1075 3862 
Q 775 3475 775 2175 
Q 925 2500 1187 2662 
Q 1450 2825 1750 2825 
z
" transform="scale(0.015625)"/>
       </defs>
       <use xlink:href="#SimSun-36"/>
       <use xlink:href="#SimSun-30" x="50"/>
       <use xlink:href="#SimSun-30" x="100"/>
      </g>
     </g>
    </g>
    <g id="xtick_5">
     <g id="line2d_5">
      <g>
       <use xlink:href="#mf6cab079b4" x="523.337143" y="461.376" style="stroke: #000000; stroke-width: 0.8"/>
      </g>
     </g>
     <g id="text_5">
      <!-- 800 -->
      <g transform="translate(509.087143 481.958031) scale(0.19 -0.19)">
       <defs>
        <path id="SimSun-38" d="M 625 1125 
Q 625 725 887 475 
Q 1150 225 1550 225 
Q 2025 225 2237 475 
Q 2450 725 2450 1100 
Q 2450 1425 2150 1725 
Q 1850 2025 1250 2275 
Q 950 2075 787 1775 
Q 625 1475 625 1125 
z
M 2825 1175 
Q 2825 700 2475 375 
Q 2125 50 1550 50 
Q 1025 50 650 375 
Q 275 700 275 1125 
Q 275 1550 487 1850 
Q 700 2150 1100 2375 
Q 750 2550 562 2812 
Q 375 3075 375 3400 
Q 375 3825 700 4125 
Q 1025 4425 1600 4425 
Q 2125 4425 2450 4125 
Q 2775 3825 2775 3400 
Q 2775 3100 2587 2837 
Q 2400 2575 2000 2375 
Q 2425 2125 2625 1825 
Q 2825 1525 2825 1175 
z
M 2425 3375 
Q 2425 3725 2225 3987 
Q 2025 4250 1600 4250 
Q 1125 4250 925 4000 
Q 725 3750 725 3475 
Q 725 3200 1012 2937 
Q 1300 2675 1825 2475 
Q 2125 2625 2275 2850 
Q 2425 3075 2425 3375 
z
" transform="scale(0.015625)"/>
       </defs>
       <use xlink:href="#SimSun-38"/>
       <use xlink:href="#SimSun-30" x="50"/>
       <use xlink:href="#SimSun-30" x="100"/>
      </g>
     </g>
    </g>
    <g id="xtick_6">
     <g id="line2d_6">
      <g>
       <use xlink:href="#mf6cab079b4" x="625.371429" y="461.376" style="stroke: #000000; stroke-width: 0.8"/>
      </g>
     </g>
     <g id="text_6">
      <!-- 1000 -->
      <g transform="translate(606.371429 481.958031) scale(0.19 -0.19)">
       <defs>
        <path id="SimSun-31" d="M 1825 4450 
L 1825 650 
Q 1825 450 1950 350 
Q 2075 250 2300 250 
L 2550 250 
L 2550 100 
L 725 100 
L 725 250 
L 950 250 
Q 1200 250 1312 350 
Q 1425 450 1425 650 
L 1425 3675 
Q 1425 3775 1362 3837 
Q 1300 3900 1175 3900 
L 725 3900 
L 725 4050 
L 950 4050 
Q 1250 4050 1437 4150 
Q 1625 4250 1725 4450 
L 1825 4450 
z
" transform="scale(0.015625)"/>
       </defs>
       <use xlink:href="#SimSun-31"/>
       <use xlink:href="#SimSun-30" x="50"/>
       <use xlink:href="#SimSun-30" x="100"/>
       <use xlink:href="#SimSun-30" x="150"/>
      </g>
     </g>
    </g>
    <g id="xtick_7">
     <g id="line2d_7">
      <g>
       <use xlink:href="#mf6cab079b4" x="727.405714" y="461.376" style="stroke: #000000; stroke-width: 0.8"/>
      </g>
     </g>
     <g id="text_7">
      <!-- 1200 -->
      <g transform="translate(708.405714 481.958031) scale(0.19 -0.19)">
       <use xlink:href="#SimSun-31"/>
       <use xlink:href="#SimSun-32" x="50"/>
       <use xlink:href="#SimSun-30" x="100"/>
       <use xlink:href="#SimSun-30" x="150"/>
      </g>
     </g>
    </g>
    <g id="xtick_8">
     <g id="line2d_8">
      <g>
       <use xlink:href="#mf6cab079b4" x="829.44" y="461.376" style="stroke: #000000; stroke-width: 0.8"/>
      </g>
     </g>
     <g id="text_8">
      <!-- 1400 -->
      <g transform="translate(810.44 481.958031) scale(0.19 -0.19)">
       <use xlink:href="#SimSun-31"/>
       <use xlink:href="#SimSun-34" x="50"/>
       <use xlink:href="#SimSun-30" x="100"/>
       <use xlink:href="#SimSun-30" x="150"/>
      </g>
     </g>
    </g>
    <g id="text_9">
     <!-- 时间 $\mathrm{(s)}$ -->
     <g transform="translate(438.5 503.98725) scale(0.19 -0.19)">
      <defs>
       <path id="SimSun-65f6" d="M 4500 3600 
Q 4500 4575 4475 5225 
L 5100 4900 
L 4850 4725 
L 4850 3600 
L 5225 3600 
L 5550 3925 
L 6025 3450 
L 4850 3450 
L 4850 100 
Q 4850 -375 4300 -575 
Q 4275 -200 3475 -25 
L 3475 100 
Q 4150 0 4325 25 
Q 4500 50 4500 325 
L 4500 3450 
L 3200 3450 
Q 2875 3450 2600 3375 
L 2375 3600 
L 4500 3600 
z
M 2875 2825 
Q 3525 2375 3637 2200 
Q 3750 2025 3750 1925 
Q 3750 1800 3637 1637 
Q 3525 1475 3475 1475 
Q 3400 1475 3325 1775 
Q 3200 2225 2800 2750 
L 2875 2825 
z
M 925 4150 
L 925 2650 
L 1950 2650 
L 1950 4150 
L 925 4150 
z
M 925 2500 
L 925 900 
L 1950 900 
L 1950 2500 
L 925 2500 
z
M 2300 2000 
Q 2300 800 2325 450 
L 1950 250 
L 1950 750 
L 925 750 
L 925 225 
L 550 25 
Q 575 825 575 2425 
Q 575 4025 550 4500 
L 950 4300 
L 1900 4300 
L 2100 4550 
L 2500 4225 
L 2300 4050 
L 2300 2000 
z
" transform="scale(0.015625)"/>
       <path id="SimSun-95f4" d="M 2150 525 
Q 2175 1325 2175 2112 
Q 2175 2900 2150 3675 
L 2525 3450 
L 3750 3450 
L 4000 3700 
L 4325 3375 
L 4125 3200 
Q 4125 1550 4150 775 
L 3800 575 
L 3800 975 
L 2500 975 
L 2500 700 
L 2150 525 
z
M 2500 3300 
L 2500 2325 
L 3800 2325 
L 3800 3300 
L 2500 3300 
z
M 2500 2175 
L 2500 1125 
L 3800 1125 
L 3800 2175 
L 2500 2175 
z
M 1275 5200 
Q 1850 4825 1950 4675 
Q 2050 4525 2050 4425 
Q 2050 4275 1950 4137 
Q 1850 4000 1825 4000 
Q 1750 4000 1675 4275 
Q 1550 4650 1200 5125 
L 1275 5200 
z
M 1125 425 
Q 1125 25 1150 -375 
L 750 -525 
Q 775 -150 775 1950 
Q 775 4050 750 4425 
L 1350 4125 
L 1125 3975 
L 1125 425 
z
M 4225 125 
Q 5025 0 5125 37 
Q 5225 75 5225 250 
L 5225 4450 
L 3225 4450 
Q 2900 4450 2625 4375 
L 2400 4600 
L 5175 4600 
L 5425 4850 
L 5775 4500 
L 5575 4350 
L 5575 225 
Q 5575 -100 5462 -250 
Q 5350 -400 5000 -550 
Q 4800 -125 4225 25 
L 4225 125 
z
" transform="scale(0.015625)"/>
       <path id="SimSun-20" d="M 0 0 
Q 0 0 0 0 
z
" transform="scale(0.015625)"/>
       <path id="STIXGeneral-Regular-28" d="M 1946 -1030 
L 1869 -1133 
Q 1126 -710 716 32 
Q 307 774 307 1613 
Q 307 3386 1888 4326 
L 1946 4224 
Q 1293 3667 1075 3126 
Q 858 2586 858 1632 
Q 858 685 1082 96 
Q 1306 -493 1946 -1030 
z
" transform="scale(0.015625)"/>
       <path id="STIXGeneral-Regular-73" d="M 998 1926 
L 1664 1523 
Q 1984 1331 2105 1164 
Q 2227 998 2227 736 
Q 2227 416 1961 176 
Q 1696 -64 1331 -64 
Q 1030 -64 864 -6 
Q 691 51 570 51 
Q 461 51 416 -26 
L 333 -26 
L 333 979 
L 435 979 
Q 538 512 730 294 
Q 922 77 1248 77 
Q 1485 77 1632 211 
Q 1779 346 1779 550 
Q 1779 845 1440 1030 
L 1094 1222 
Q 326 1651 326 2150 
Q 326 2522 566 2730 
Q 806 2938 1210 2938 
Q 1491 2938 1638 2867 
Q 1754 2816 1818 2816 
Q 1862 2816 1920 2880 
L 1990 2880 
L 2022 2010 
L 1926 2010 
Q 1818 2445 1654 2621 
Q 1491 2797 1203 2797 
Q 986 2797 854 2688 
Q 723 2579 723 2362 
Q 723 2253 796 2128 
Q 870 2003 998 1926 
z
" transform="scale(0.015625)"/>
       <path id="STIXGeneral-Regular-29" d="M 186 4224 
L 262 4326 
Q 992 3891 1408 3148 
Q 1824 2406 1824 1581 
Q 1824 -166 243 -1133 
L 186 -1030 
Q 845 -486 1059 54 
Q 1274 595 1274 1562 
Q 1274 2534 1059 3120 
Q 845 3706 186 4224 
z
" transform="scale(0.015625)"/>
      </defs>
      <use xlink:href="#SimSun-65f6" transform="translate(0 0.359375)"/>
      <use xlink:href="#SimSun-95f4" transform="translate(100 0.359375)"/>
      <use xlink:href="#SimSun-20" transform="translate(200 0.359375)"/>
      <use xlink:href="#STIXGeneral-Regular-28" transform="translate(250 0.359375)"/>
      <use xlink:href="#STIXGeneral-Regular-73" transform="translate(283.299988 0.359375)"/>
      <use xlink:href="#STIXGeneral-Regular-29" transform="translate(322.199982 0.359375)"/>
     </g>
    </g>
   </g>
   <g id="matplotlib.axis_2">
    <g id="ytick_1">
     <g id="line2d_9">
      <defs>
       <path id="mb156b813db" d="M 0 0 
L -3.5 0 
" style="stroke: #000000; stroke-width: 0.8"/>
      </defs>
      <g>
       <use xlink:href="#mb156b813db" x="115.2" y="461.376" style="stroke: #000000; stroke-width: 0.8"/>
      </g>
     </g>
     <g id="text_10">
      <!-- 0 -->
      <g transform="translate(98.7 468.167016) scale(0.19 -0.19)">
       <use xlink:href="#SimSun-30"/>
      </g>
     </g>
    </g>
    <g id="ytick_2">
     <g id="line2d_10">
      <g>
       <use xlink:href="#mb156b813db" x="115.2" y="404.352" style="stroke: #000000; stroke-width: 0.8"/>
      </g>
     </g>
     <g id="text_11">
      <!-- 10 -->
      <g transform="translate(89.2 411.143016) scale(0.19 -0.19)">
       <use xlink:href="#SimSun-31"/>
       <use xlink:href="#SimSun-30" x="50"/>
      </g>
     </g>
    </g>
    <g id="ytick_3">
     <g id="line2d_11">
      <g>
       <use xlink:href="#mb156b813db" x="115.2" y="347.328" style="stroke: #000000; stroke-width: 0.8"/>
      </g>
     </g>
     <g id="text_12">
      <!-- 20 -->
      <g transform="translate(89.2 354.119016) scale(0.19 -0.19)">
       <use xlink:href="#SimSun-32"/>
       <use xlink:href="#SimSun-30" x="50"/>
      </g>
     </g>
    </g>
    <g id="ytick_4">
     <g id="line2d_12">
      <g>
       <use xlink:href="#mb156b813db" x="115.2" y="290.304" style="stroke: #000000; stroke-width: 0.8"/>
      </g>
     </g>
     <g id="text_13">
      <!-- 30 -->
      <g transform="translate(89.2 297.095016) scale(0.19 -0.19)">
       <defs>
        <path id="SimSun-33" d="M 2800 1250 
Q 2800 775 2450 412 
Q 2100 50 1475 50 
Q 1025 50 700 300 
Q 375 550 375 875 
Q 375 1025 475 1137 
Q 575 1250 675 1250 
Q 825 1250 887 1137 
Q 950 1025 950 950 
Q 950 825 900 750 
Q 850 650 850 575 
Q 850 425 1037 325 
Q 1225 225 1450 225 
Q 1900 225 2125 487 
Q 2350 750 2350 1300 
Q 2350 1750 2112 2025 
Q 1875 2300 1225 2300 
L 1225 2475 
Q 1725 2475 1962 2712 
Q 2200 2950 2200 3375 
Q 2200 3725 2012 3987 
Q 1825 4250 1425 4250 
Q 1250 4250 1050 4162 
Q 850 4075 850 3875 
Q 850 3675 900 3625 
Q 950 3575 950 3500 
Q 950 3375 900 3300 
Q 850 3225 725 3225 
Q 625 3225 537 3300 
Q 450 3375 450 3575 
Q 450 3950 775 4187 
Q 1100 4425 1525 4425 
Q 2025 4425 2325 4112 
Q 2625 3800 2625 3450 
Q 2625 3075 2437 2812 
Q 2250 2550 1850 2425 
Q 2400 2225 2600 1900 
Q 2800 1575 2800 1250 
z
" transform="scale(0.015625)"/>
       </defs>
       <use xlink:href="#SimSun-33"/>
       <use xlink:href="#SimSun-30" x="50"/>
      </g>
     </g>
    </g>
    <g id="ytick_5">
     <g id="line2d_13">
      <g>
       <use xlink:href="#mb156b813db" x="115.2" y="233.28" style="stroke: #000000; stroke-width: 0.8"/>
      </g>
     </g>
     <g id="text_14">
      <!-- 40 -->
      <g transform="translate(89.2 240.071016) scale(0.19 -0.19)">
       <use xlink:href="#SimSun-34"/>
       <use xlink:href="#SimSun-30" x="50"/>
      </g>
     </g>
    </g>
    <g id="ytick_6">
     <g id="line2d_14">
      <g>
       <use xlink:href="#mb156b813db" x="115.2" y="176.256" style="stroke: #000000; stroke-width: 0.8"/>
      </g>
     </g>
     <g id="text_15">
      <!-- 50 -->
      <g transform="translate(89.2 183.047016) scale(0.19 -0.19)">
       <defs>
        <path id="SimSun-35" d="M 1725 2850 
Q 2200 2850 2500 2487 
Q 2800 2125 2800 1525 
Q 2800 850 2487 450 
Q 2175 50 1525 50 
Q 1075 50 725 312 
Q 375 575 375 950 
Q 375 1100 462 1212 
Q 550 1325 700 1325 
Q 850 1325 900 1225 
Q 950 1125 950 1050 
Q 950 900 875 825 
Q 800 725 800 625 
Q 800 425 1037 325 
Q 1275 225 1550 225 
Q 1950 225 2162 550 
Q 2375 875 2375 1475 
Q 2375 1975 2187 2287 
Q 2000 2600 1625 2600 
Q 1350 2600 1150 2500 
Q 950 2400 775 2075 
L 550 2100 
L 675 4375 
L 2725 4375 
L 2650 4000 
L 850 4000 
L 750 2350 
Q 1000 2700 1237 2775 
Q 1475 2850 1725 2850 
z
" transform="scale(0.015625)"/>
       </defs>
       <use xlink:href="#SimSun-35"/>
       <use xlink:href="#SimSun-30" x="50"/>
      </g>
     </g>
    </g>
    <g id="ytick_7">
     <g id="line2d_15">
      <g>
       <use xlink:href="#mb156b813db" x="115.2" y="119.232" style="stroke: #000000; stroke-width: 0.8"/>
      </g>
     </g>
     <g id="text_16">
      <!-- 60 -->
      <g transform="translate(89.2 126.023016) scale(0.19 -0.19)">
       <use xlink:href="#SimSun-36"/>
       <use xlink:href="#SimSun-30" x="50"/>
      </g>
     </g>
    </g>
    <g id="ytick_8">
     <g id="line2d_16">
      <g>
       <use xlink:href="#mb156b813db" x="115.2" y="62.208" style="stroke: #000000; stroke-width: 0.8"/>
      </g>
     </g>
     <g id="text_17">
      <!-- 70 -->
      <g transform="translate(89.2 68.999016) scale(0.19 -0.19)">
       <defs>
        <path id="SimSun-37" d="M 2825 4200 
Q 2300 3350 1987 2537 
Q 1675 1725 1675 1125 
Q 1675 1025 1700 850 
Q 1700 650 1700 400 
Q 1700 200 1637 125 
Q 1575 50 1425 50 
Q 1300 50 1212 137 
Q 1125 225 1125 450 
Q 1125 925 1337 1625 
Q 1550 2325 2475 4000 
L 1225 4000 
Q 950 4000 787 3825 
Q 625 3650 550 3300 
L 400 3325 
L 575 4375 
L 2825 4375 
L 2825 4200 
z
" transform="scale(0.015625)"/>
       </defs>
       <use xlink:href="#SimSun-37"/>
       <use xlink:href="#SimSun-30" x="50"/>
      </g>
     </g>
    </g>
    <g id="text_18">
     <!-- 读取命中率 $\mathrm{(\%)}$ -->
     <g transform="translate(81.78 327.532) rotate(-90) scale(0.19 -0.19)">
      <defs>
       <path id="SimSun-8bfb" d="M 1450 275 
L 2375 850 
L 2425 775 
Q 1600 50 1325 -325 
L 1025 50 
Q 1125 175 1125 400 
L 1125 2850 
L 1050 2850 
Q 725 2850 450 2775 
L 225 3000 
L 1125 3000 
L 1350 3225 
L 1675 2900 
L 1450 2725 
L 1450 275 
z
M 750 4925 
L 800 5000 
Q 1150 4800 1387 4600 
Q 1625 4400 1587 4200 
Q 1550 4000 1400 3925 
Q 1250 3850 1175 4200 
Q 1100 4525 750 4925 
z
M 5100 2700 
L 5425 3325 
L 2575 3325 
Q 2375 3325 2100 3250 
L 1875 3475 
L 3650 3475 
L 3650 4250 
L 3025 4250 
Q 2700 4250 2425 4175 
L 2200 4400 
L 3650 4400 
Q 3650 4825 3625 5250 
L 4175 5000 
L 3975 4825 
L 3975 4400 
L 4875 4400 
L 5150 4675 
L 5550 4250 
L 3975 4250 
L 3975 3475 
L 5375 3475 
L 5625 3750 
L 6075 3300 
Q 5725 3275 5200 2650 
L 5100 2700 
z
M 2750 2925 
L 2775 3000 
Q 3350 2825 3462 2687 
Q 3575 2550 3575 2450 
Q 3575 2350 3512 2250 
Q 3450 2150 3425 2150 
Q 3350 2150 3275 2350 
Q 3125 2625 2750 2925 
z
M 2375 2275 
Q 2975 2075 3100 1950 
Q 3225 1825 3225 1700 
Q 3225 1625 3162 1512 
Q 3100 1400 3075 1400 
Q 3000 1400 2900 1625 
Q 2725 1925 2350 2200 
L 2375 2275 
z
M 4475 2625 
Q 4425 1550 4350 1175 
L 5275 1175 
L 5600 1500 
L 6050 1025 
L 4325 1025 
Q 4250 825 4125 575 
Q 4850 350 5200 150 
Q 5550 -50 5600 -237 
Q 5650 -425 5587 -500 
Q 5525 -575 5475 -575 
Q 5350 -575 5175 -325 
Q 4925 25 4075 475 
Q 3425 -425 1975 -650 
L 1950 -550 
Q 3600 -100 3975 1025 
L 2700 1025 
Q 2500 1025 2225 950 
L 2000 1175 
L 4000 1175 
Q 4100 1800 4100 3075 
L 4675 2800 
L 4475 2625 
z
" transform="scale(0.015625)"/>
       <path id="SimSun-53d6" d="M 1300 2225 
L 1300 1125 
L 2425 1350 
L 2425 2225 
L 1300 2225 
z
M 2750 1225 
Q 2750 100 2775 -350 
L 2400 -575 
Q 2425 125 2425 1150 
Q 775 700 575 425 
L 325 925 
Q 625 975 975 1050 
L 975 4650 
L 775 4650 
L 525 4600 
L 325 4800 
L 2675 4800 
L 2975 5100 
L 3425 4650 
L 2750 4650 
L 2750 1425 
L 3500 1575 
L 3525 1475 
L 2750 1225 
z
M 1300 4650 
L 1300 3600 
L 2425 3600 
L 2425 4650 
L 1300 4650 
z
M 2425 3450 
L 1300 3450 
L 1300 2375 
L 2425 2375 
L 2425 3450 
z
M 2925 4175 
L 5050 4175 
L 5250 4425 
L 5700 4075 
L 5475 3925 
Q 5100 2350 4550 1275 
Q 5200 375 6100 125 
L 6100 25 
Q 5775 -25 5600 -275 
Q 4875 225 4375 975 
Q 3700 25 2825 -525 
L 2775 -450 
Q 3650 325 4175 1250 
Q 3650 2625 3525 4025 
L 3350 4025 
L 3125 3975 
L 2925 4175 
z
M 3650 4025 
Q 3900 2525 4350 1600 
Q 4825 2650 5075 4025 
L 3650 4025 
z
" transform="scale(0.015625)"/>
       <path id="SimSun-547d" d="M 1775 3150 
L 3650 3150 
L 3950 3450 
L 4400 3000 
L 2550 3000 
Q 2225 3000 2000 2925 
L 1775 3150 
z
M 1450 2125 
L 1450 575 
L 2400 575 
L 2400 2125 
L 1450 2125 
z
M 1100 -250 
Q 1125 525 1125 1125 
Q 1125 1725 1100 2500 
L 1450 2275 
L 2350 2275 
L 2525 2500 
L 2900 2200 
L 2725 2050 
Q 2725 550 2750 150 
L 2400 0 
L 2400 425 
L 1450 425 
L 1450 -100 
L 1100 -250 
z
M 3775 2175 
L 3775 -450 
L 3425 -625 
Q 3450 75 3450 1050 
Q 3450 2025 3425 2550 
L 3775 2325 
L 4825 2325 
L 5000 2575 
L 5400 2275 
L 5200 2100 
L 5200 525 
Q 5225 75 4700 -125 
Q 4700 150 4025 325 
L 4025 425 
Q 4550 375 4712 375 
Q 4875 375 4875 700 
L 4875 2175 
L 3775 2175 
z
M 2975 5275 
L 3475 4900 
L 3250 4725 
Q 3750 4025 4450 3625 
Q 5150 3225 6125 3075 
L 6125 2975 
Q 5700 2950 5550 2625 
Q 4650 3050 4112 3500 
Q 3575 3950 3150 4650 
Q 2600 3900 1962 3362 
Q 1325 2825 275 2425 
L 225 2525 
Q 1250 2975 1962 3750 
Q 2675 4525 2975 5275 
z
" transform="scale(0.015625)"/>
       <path id="SimSun-4e2d" d="M 3325 3625 
L 3325 1975 
L 5125 1975 
L 5125 3625 
L 3325 3625 
z
M 2950 3775 
Q 2950 4750 2925 5250 
L 3525 4975 
L 3325 4775 
L 3325 3775 
L 5075 3775 
L 5275 4075 
L 5700 3750 
L 5475 3550 
L 5475 2100 
Q 5475 1825 5500 1525 
L 5125 1375 
L 5125 1825 
L 3325 1825 
Q 3325 -75 3350 -400 
L 2925 -625 
Q 2950 -50 2950 1825 
L 1225 1825 
L 1225 1525 
L 850 1325 
Q 875 1775 875 2625 
Q 875 3475 850 4000 
L 1225 3775 
L 2950 3775 
z
M 1225 3625 
L 1225 1975 
L 2950 1975 
L 2950 3625 
L 1225 3625 
z
" transform="scale(0.015625)"/>
       <path id="SimSun-7387" d="M 875 3725 
L 925 3800 
Q 1375 3650 1550 3525 
Q 1725 3400 1725 3250 
Q 1725 3175 1662 3025 
Q 1600 2875 1550 2875 
Q 1500 2875 1425 3050 
Q 1275 3325 875 3725 
z
M 550 1850 
Q 875 1925 2000 2575 
L 2050 2500 
Q 1675 2225 1337 1937 
Q 1000 1650 875 1425 
L 550 1850 
z
M 5200 3450 
Q 4800 3150 4275 2800 
L 4225 2875 
Q 4775 3400 5050 3925 
L 5450 3525 
L 5200 3450 
z
M 4325 2500 
L 4350 2575 
Q 5225 2350 5375 2212 
Q 5525 2075 5525 1900 
Q 5525 1775 5487 1662 
Q 5450 1550 5400 1550 
Q 5325 1550 5200 1800 
Q 4975 2150 4325 2500 
z
M 3150 3900 
Q 2500 3300 2300 3150 
Q 2800 3150 3400 3175 
Q 3700 3500 3850 3825 
L 4250 3450 
Q 4050 3400 3450 2825 
Q 2850 2250 2475 1950 
Q 3150 1975 3850 2000 
Q 3750 2175 3550 2450 
L 3600 2500 
Q 4050 2250 4200 2100 
Q 4350 1950 4350 1850 
Q 4350 1775 4250 1625 
Q 4150 1475 4100 1475 
Q 4075 1475 4050 1550 
Q 4000 1700 3900 1900 
Q 3650 1875 3075 1800 
L 3500 1550 
L 3325 1425 
L 3325 975 
L 5325 975 
L 5650 1300 
L 6100 825 
L 3325 825 
Q 3325 -275 3350 -525 
L 2975 -650 
Q 3000 0 3000 825 
L 1125 825 
Q 800 825 525 750 
L 300 975 
L 3000 975 
L 3000 1775 
Q 2450 1700 2200 1525 
L 1950 1950 
Q 2275 1950 2675 2350 
Q 3075 2750 3325 3050 
Q 2400 2950 2150 2775 
L 1950 3175 
Q 2150 3150 2475 3575 
Q 2800 4000 2900 4225 
L 1450 4225 
Q 1125 4225 850 4150 
L 625 4375 
L 3100 4375 
Q 3050 4800 2675 5200 
L 2725 5250 
Q 3225 5050 3337 4912 
Q 3450 4775 3450 4700 
Q 3450 4550 3250 4375 
L 5025 4375 
L 5350 4675 
L 5775 4225 
L 3050 4225 
L 3375 3950 
L 3150 3900 
z
" transform="scale(0.015625)"/>
       <path id="STIXGeneral-Regular-25" d="M 4390 1363 
Q 4390 781 4070 329 
Q 3750 -122 3341 -122 
Q 3014 -122 2790 134 
Q 2566 390 2566 762 
Q 2566 1274 2940 1693 
Q 3315 2112 3776 2112 
Q 4070 2112 4230 1917 
Q 4390 1722 4390 1363 
z
M 4243 1376 
Q 4243 1626 4131 1779 
Q 4019 1933 3840 1933 
Q 3654 1933 3526 1786 
Q 3315 1562 3171 1187 
Q 3027 813 3027 486 
Q 3027 301 3129 176 
Q 3232 51 3386 51 
Q 3718 51 3980 457 
Q 4243 864 4243 1376 
z
M 3974 4518 
L 1222 -115 
L 922 -115 
L 3443 4096 
Q 3264 3891 3094 3811 
Q 2925 3731 2669 3731 
Q 2445 3731 2182 3821 
Q 2208 3674 2208 3539 
Q 2208 3206 2067 2873 
Q 1926 2541 1696 2323 
Q 1453 2086 1146 2086 
Q 826 2086 608 2339 
Q 390 2592 390 2963 
Q 390 3507 761 3916 
Q 1133 4326 1626 4326 
Q 1792 4326 2010 4147 
Q 2310 3898 2624 3898 
Q 2918 3898 3084 3994 
Q 3251 4090 3693 4518 
L 3974 4518 
z
M 2054 3642 
Q 2054 3782 2025 3833 
Q 1997 3885 1894 3936 
Q 1747 4006 1613 4154 
Q 1414 4058 1331 3984 
Q 1248 3910 1152 3750 
Q 845 3264 845 2707 
Q 845 2509 944 2384 
Q 1043 2259 1210 2259 
Q 1549 2259 1801 2675 
Q 2054 3091 2054 3642 
z
" transform="scale(0.015625)"/>
      </defs>
      <use xlink:href="#SimSun-8bfb" transform="translate(0 0.578125)"/>
      <use xlink:href="#SimSun-53d6" transform="translate(100 0.578125)"/>
      <use xlink:href="#SimSun-547d" transform="translate(200 0.578125)"/>
      <use xlink:href="#SimSun-4e2d" transform="translate(300 0.578125)"/>
      <use xlink:href="#SimSun-7387" transform="translate(400 0.578125)"/>
      <use xlink:href="#SimSun-20" transform="translate(500 0.578125)"/>
      <use xlink:href="#STIXGeneral-Regular-28" transform="translate(550 0.578125)"/>
      <use xlink:href="#STIXGeneral-Regular-25" transform="translate(583.299988 0.578125)"/>
      <use xlink:href="#STIXGeneral-Regular-29" transform="translate(657.999969 0.578125)"/>
     </g>
    </g>
   </g>
   <g id="line2d_17">
    <path d="M 116.205038 461.082326 
L 123.551506 455.847523 
L 124.046373 455.858358 
L 124.546341 455.360538 
L 125.041207 455.191747 
L 126.530907 454.051837 
L 127.030875 453.84313 
L 128.035913 453.06076 
L 128.535881 452.781343 
L 129.040951 452.105038 
L 129.546021 452.080518 
L 130.05109 451.565591 
L 131.066331 450.885295 
L 131.571401 450.194734 
L 132.076471 450.013398 
L 132.586642 449.349068 
L 133.096814 449.837764 
L 133.606985 448.766853 
L 134.117157 448.890595 
L 134.627328 448.54503 
L 135.137499 447.862452 
L 135.652773 447.397707 
L 136.168046 447.348096 
L 137.198592 446.964324 
L 138.23424 445.820423 
L 138.754615 445.699532 
L 139.27499 445.129862 
L 140.320841 444.921155 
L 140.841216 443.400895 
L 141.366693 443.597057 
L 141.892169 443.572537 
L 142.417646 442.922463 
L 142.943122 442.988041 
L 143.468599 442.124127 
L 144.529755 441.979286 
L 145.060334 441.525375 
L 145.590912 440.821129 
L 146.126592 440.39573 
L 146.662272 439.822639 
L 147.19285 440.364367 
L 147.733632 439.150896 
L 148.269312 438.238512 
L 148.804992 438.386774 
L 149.886555 438.223686 
L 150.973221 437.647173 
L 152.054784 436.369836 
L 152.600667 436.521519 
L 153.146551 435.658746 
L 153.697536 435.78591 
L 154.243419 434.928269 
L 154.794405 434.684776 
L 155.34539 434.697892 
L 155.891273 434.264509 
L 156.44736 432.914751 
L 156.998345 433.307076 
L 157.54933 432.249281 
L 158.105417 432.321132 
L 158.661504 432.229893 
L 159.217591 431.538762 
L 159.773678 431.887749 
L 160.329765 430.644626 
L 160.885851 430.690815 
L 161.44704 429.979156 
L 162.564315 429.905025 
L 163.120402 428.266725 
L 163.681591 429.237844 
L 164.242779 427.325259 
L 164.803968 428.452623 
L 165.365157 426.37695 
L 165.926345 427.086899 
L 166.487534 426.963727 
L 167.048722 426.441957 
L 167.615013 424.92797 
L 168.176201 425.292353 
L 168.742491 424.920557 
L 169.30368 425.003812 
L 169.86997 424.64285 
L 170.436261 424.706147 
L 170.997449 424.468356 
L 171.563739 424.466076 
L 172.135131 422.189107 
L 172.701422 422.720001 
L 173.267712 422.108133 
L 174.395191 420.133392 
L 174.966583 420.825663 
L 175.532873 420.652881 
L 176.099163 420.249721 
L 176.670555 418.262435 
L 177.236846 418.991772 
L 177.803136 417.675658 
L 178.369426 418.192295 
L 178.935717 418.310905 
L 180.073399 417.79997 
L 181.211081 417.022733 
L 181.777371 417.013609 
L 182.348763 415.123263 
L 182.915054 415.313724 
L 183.486446 414.566139 
L 184.057838 415.010926 
L 184.62923 414.096261 
L 185.19552 414.595221 
L 185.766912 414.418447 
L 186.338304 412.756767 
L 186.909696 412.52468 
L 187.481088 412.576572 
L 188.047378 412.909021 
L 189.195264 411.193169 
L 189.766656 411.398456 
L 190.338048 410.05554 
L 190.914542 409.072447 
L 191.485934 409.743619 
L 192.062427 410.10287 
L 192.633819 409.72138 
L 193.205211 407.79796 
L 193.776603 406.355823 
L 194.353097 406.803462 
L 194.924489 406.075265 
L 195.495881 406.664323 
L 196.072375 405.624205 
L 196.648869 405.829492 
L 197.220261 405.321978 
L 197.796754 404.976983 
L 198.373248 405.048833 
L 198.94464 405.496472 
L 199.521134 404.44609 
L 200.102729 403.981914 
L 201.255717 402.437704 
L 201.83221 402.985135 
L 202.408704 401.21682 
L 202.985198 399.921805 
L 203.566793 402.406911 
L 204.143287 400.639167 
L 204.719781 400.236008 
L 205.296274 399.055041 
L 205.872768 399.895574 
L 206.454363 399.57624 
L 207.030857 399.954309 
L 207.612453 398.188846 
L 208.188946 398.566345 
L 208.76544 398.609683 
L 209.341934 399.259757 
L 210.505125 397.013011 
L 211.08672 398.047997 
L 211.663214 396.840228 
L 212.826405 395.806954 
L 213.408 393.576745 
L 213.989595 395.046253 
L 214.571191 394.095663 
L 215.152786 393.725578 
L 215.734382 391.550112 
L 216.315977 392.989398 
L 216.897573 393.583018 
L 217.479168 391.399569 
L 218.060763 392.586808 
L 218.647461 391.993188 
L 219.229056 391.958404 
L 219.810651 389.85764 
L 220.392247 389.31249 
L 220.978944 390.552192 
L 221.560539 386.913491 
L 222.142135 387.914262 
L 222.728832 389.934622 
L 223.310427 389.007412 
L 223.892023 387.464913 
L 224.47872 387.170099 
L 225.060315 387.771702 
L 225.647013 384.10962 
L 226.228608 386.432208 
L 226.810203 386.15108 
L 227.978496 383.474943 
L 228.565193 386.099758 
L 229.15189 384.096505 
L 229.733486 384.741446 
L 230.320183 382.843688 
L 230.90688 383.140212 
L 231.493577 380.980143 
L 232.080274 383.080337 
L 233.248567 382.463338 
L 233.835264 379.259729 
L 234.421961 380.83017 
L 235.003557 379.612708 
L 235.590254 381.021771 
L 236.176951 378.652994 
L 236.763648 379.273985 
L 237.350345 379.139409 
L 237.937042 379.559105 
L 238.528841 377.048909 
L 239.115538 376.725012 
L 239.702235 377.324335 
L 240.294034 376.777475 
L 240.880731 374.77023 
L 241.467429 375.100399 
L 242.059227 377.614017 
L 242.645925 375.573128 
L 243.232622 375.207604 
L 243.824421 373.778582 
L 244.411118 374.464011 
L 244.997815 370.857813 
L 245.584512 373.271639 
L 246.171209 374.169197 
L 246.763008 371.900782 
L 247.349705 372.359825 
L 247.936402 371.885956 
L 248.528201 373.598957 
L 249.114898 371.18342 
L 249.701595 371.700628 
L 250.293394 369.407693 
L 251.47189 368.773586 
L 252.650386 369.681978 
L 253.242185 367.439795 
L 253.833984 368.289452 
L 254.420681 364.594297 
L 255.01248 366.303306 
L 255.599177 364.725452 
L 256.190976 367.23964 
L 256.782775 364.10275 
L 257.374574 364.611974 
L 258.558171 365.944625 
L 259.14997 363.796531 
L 259.741769 362.295089 
L 260.333568 364.749402 
L 260.925367 364.55381 
L 261.517166 363.352314 
L 262.700763 360.047203 
L 263.297664 361.469382 
L 263.884361 361.352483 
L 264.47616 358.58967 
L 265.073061 361.612512 
L 265.664859 357.931043 
L 266.26176 358.671784 
L 266.853559 360.378513 
L 267.445358 359.819677 
L 268.042258 358.199626 
L 268.634057 357.382472 
L 269.225856 356.334371 
L 269.822757 356.176414 
L 270.414555 355.88046 
L 271.011456 357.725756 
L 271.603255 357.468008 
L 272.195054 355.536605 
L 272.791954 356.33266 
L 273.388855 355.925508 
L 273.980654 355.663768 
L 274.572453 355.02567 
L 275.169353 352.69795 
L 275.761152 351.276912 
L 276.358053 350.675309 
L 276.954953 352.739578 
L 277.546752 348.791806 
L 278.143653 353.215158 
L 278.735451 350.150118 
L 279.332352 352.130561 
L 279.929253 349.446442 
L 280.521051 348.951473 
L 281.123054 348.15884 
L 281.719954 347.695805 
L 282.316855 346.300428 
L 282.908654 349.713314 
L 283.505554 346.724686 
L 284.102455 347.384454 
L 284.699355 349.557068 
L 285.296256 344.181416 
L 285.893157 345.47586 
L 286.490057 344.345645 
L 287.086958 344.146061 
L 288.280759 346.040968 
L 288.877659 342.818542 
L 289.479662 345.486695 
L 290.076562 341.466503 
L 290.673463 343.197752 
L 291.270363 341.69688 
L 291.867264 342.463283 
L 292.469266 343.507392 
L 293.066167 343.151562 
L 293.668169 339.944532 
L 294.26507 341.403777 
L 294.86197 338.29882 
L 295.463973 341.616476 
L 296.060873 339.714156 
L 296.657774 339.115404 
L 297.259776 343.048349 
L 297.851575 338.833705 
L 298.453577 339.613223 
L 299.050478 339.102288 
L 299.65248 336.482035 
L 300.249381 337.15777 
L 300.851383 336.82646 
L 301.448283 335.286242 
L 302.045184 337.32428 
L 302.647186 335.801169 
L 303.249189 334.946949 
L 303.846089 336.090851 
L 304.44299 335.778929 
L 305.050094 334.570591 
L 305.646994 334.907032 
L 306.248997 330.765949 
L 306.850999 330.132413 
L 307.447899 335.23492 
L 308.651904 331.910991 
L 309.253906 331.248372 
L 309.855909 329.328945 
L 310.457911 329.136204 
L 311.059913 331.483882 
L 311.661915 329.95963 
L 312.263918 328.031078 
L 312.86592 330.097058 
L 313.467922 330.142107 
L 314.069925 326.660792 
L 314.671927 329.263937 
L 315.273929 325.662872 
L 315.875931 324.004044 
L 316.477934 326.559859 
L 317.085038 326.956746 
L 317.68704 323.23593 
L 318.289042 324.108968 
L 318.891045 320.379028 
L 319.493047 327.313146 
L 320.100151 326.896301 
L 320.702153 327.851453 
L 321.304155 323.262732 
L 321.906158 325.859604 
L 322.50816 325.803721 
L 323.115264 321.889023 
L 323.717266 321.541747 
L 324.319269 318.682564 
L 324.921271 322.399388 
L 326.130377 318.859908 
L 326.732379 320.159485 
L 327.339483 315.008508 
L 327.941486 319.14845 
L 328.543488 320.453729 
L 329.150592 315.25314 
L 329.752594 319.459231 
L 330.354597 322.114268 
L 330.961701 320.498208 
L 331.563703 312.238282 
L 332.165705 318.295941 
L 332.772809 314.822039 
L 333.374811 318.680283 
L 333.976814 318.45903 
L 334.583918 315.03873 
L 335.18592 314.819188 
L 335.787922 315.403114 
L 336.389925 312.310702 
L 336.997029 311.822577 
L 338.201033 314.497002 
L 338.808137 310.736269 
L 339.410139 312.380842 
L 340.012142 313.591461 
L 340.614144 314.345889 
L 341.216146 313.886275 
L 341.82325 309.320364 
L 342.425253 309.892314 
L 343.032357 308.049299 
L 343.634359 310.687799 
L 344.236361 310.804698 
L 344.838363 310.114138 
L 345.440366 310.227045 
L 346.04747 304.495563 
L 346.649472 307.521827 
L 347.256576 305.121686 
L 347.858578 305.092604 
L 348.460581 301.294236 
L 349.062583 304.099246 
L 349.669687 302.423881 
L 350.271689 307.058221 
L 350.873691 305.029308 
L 351.480795 305.971914 
L 352.082798 304.205311 
L 352.6848 306.941892 
L 353.286802 304.75103 
L 353.888805 303.211953 
L 354.495909 300.688641 
L 355.097911 302.423881 
L 355.699913 301.561108 
L 356.301915 303.27582 
L 356.903918 299.440385 
L 357.50592 307.350184 
L 358.113024 303.381314 
L 358.715026 294.91439 
L 359.919031 301.168212 
L 361.128137 300.178276 
L 362.332142 299.951891 
L 362.939246 295.948236 
L 364.14325 298.490365 
L 365.352357 297.612196 
L 365.954359 295.323823 
L 366.556361 295.265088 
L 367.158363 291.313325 
L 367.765467 292.874642 
L 368.36747 290.457395 
L 368.969472 295.717288 
L 369.576576 297.274044 
L 370.780581 292.683612 
L 371.387685 292.730941 
L 371.989687 288.64118 
L 372.591689 289.63967 
L 373.193691 292.548465 
L 373.795694 294.046485 
L 374.397696 288.159327 
L 374.999698 288.760931 
L 375.596599 289.612299 
L 376.805705 292.87065 
L 377.407707 288.994729 
L 378.611712 284.042765 
L 379.213714 285.040685 
L 379.815717 287.815473 
L 380.417719 284.638095 
L 381.621723 288.278508 
L 382.223726 285.920565 
L 382.825728 289.588349 
L 383.42773 283.169727 
L 384.029733 286.590027 
L 384.631735 284.794911 
L 385.233737 289.937906 
L 385.835739 282.142155 
L 386.43264 279.305781 
L 387.034642 279.768816 
L 387.631543 284.882728 
L 388.233545 282.86693 
L 388.835547 282.244798 
L 389.43755 277.865925 
L 390.03445 281.928885 
L 390.631351 281.624947 
L 391.233353 277.383502 
L 391.835355 280.996543 
L 392.432256 278.586708 
L 393.034258 280.303131 
L 393.631159 279.698106 
L 394.228059 279.352541 
L 394.830062 270.834296 
L 395.432064 282.430696 
L 396.034066 278.533676 
L 396.630967 280.035118 
L 397.227867 281.847911 
L 397.824768 279.346268 
L 398.42677 279.906814 
L 399.023671 272.265028 
L 399.620571 274.167919 
L 400.222574 277.833421 
L 400.824576 277.571111 
L 401.421477 277.028243 
L 402.018377 272.693848 
L 402.620379 274.681135 
L 403.819282 277.718803 
L 404.416183 273.581712 
L 405.013083 273.284047 
L 406.206885 272.123038 
L 407.405787 275.645981 
L 408.002688 268.988429 
L 408.599589 272.917953 
L 409.196489 270.65467 
L 409.79339 272.655072 
L 410.39029 273.818362 
L 410.987191 270.042803 
L 411.584091 267.738463 
L 412.180992 260.801493 
L 412.777893 268.747217 
L 413.374793 267.333022 
L 413.971694 270.77271 
L 414.568594 267.651786 
L 415.160393 267.259461 
L 415.762395 269.760534 
L 416.359296 266.288913 
L 416.951095 264.688249 
L 417.547995 268.480345 
L 418.139794 268.734672 
L 418.736695 265.929661 
L 419.333595 265.589798 
L 419.925394 269.577487 
L 420.517193 260.386929 
L 421.114094 262.59946 
L 421.710994 262.396454 
L 422.302793 265.808771 
L 422.899694 265.581815 
L 423.491493 262.736317 
L 424.088393 261.033581 
L 424.685294 266.49705 
L 425.277093 262.05374 
L 425.868891 266.513587 
L 426.46069 263.998829 
L 427.052489 258.450964 
L 427.64939 254.156486 
L 428.241189 260.5791 
L 428.832987 248.731793 
L 429.424786 261.764628 
L 430.011483 257.654909 
L 430.608384 263.091577 
L 431.200183 259.220788 
L 431.791982 258.565012 
L 432.378679 264.92775 
L 432.970478 258.216025 
L 433.562277 260.001446 
L 434.154075 257.327591 
L 434.745874 263.877368 
L 435.337673 259.258994 
L 435.929472 256.509297 
L 436.521271 264.28737 
L 437.107968 244.230889 
L 437.699767 258.011309 
L 438.291566 257.365797 
L 438.878263 258.978436 
L 439.475163 251.965054 
L 440.066962 249.075078 
L 441.240357 258.493732 
L 441.832155 253.680336 
L 442.418853 250.663766 
L 443.010651 259.228771 
L 443.597349 258.67963 
L 444.770743 254.104024 
L 445.35744 249.386429 
L 445.944137 241.108255 
L 446.535936 250.373514 
L 447.70933 245.661051 
L 448.296027 252.0734 
L 448.882725 244.889516 
L 449.469422 249.209654 
L 450.056119 247.15679 
L 450.642816 249.066524 
L 451.229513 247.928895 
L 451.81621 248.108521 
L 452.402907 242.775636 
L 452.989605 252.365933 
L 453.576302 245.000713 
L 454.157897 239.658705 
L 454.744594 242.194562 
L 455.331291 246.644715 
L 455.912887 238.430978 
L 456.499584 248.420442 
L 457.081179 253.079303 
L 457.667877 240.668029 
L 458.249472 247.759534 
L 458.836169 240.568808 
L 459.417765 244.99387 
L 459.99936 244.28107 
L 460.586057 247.301631 
L 461.167653 239.115266 
L 461.749248 248.602919 
L 462.330843 247.82226 
L 462.912439 240.458751 
L 463.499136 240.00427 
L 464.07563 241.812501 
L 464.662327 240.157665 
L 465.243922 236.835446 
L 465.825518 239.075349 
L 466.407113 244.335813 
L 466.988709 248.172388 
L 468.146798 235.329443 
L 468.728393 230.010814 
L 469.309989 242.422088 
L 469.891584 234.479785 
L 470.468078 242.063407 
L 471.631269 236.075316 
L 472.207762 241.499439 
L 472.789358 236.115233 
L 473.365851 243.366405 
L 473.942345 237.702211 
L 474.523941 237.682823 
L 475.100434 235.549555 
L 475.676928 242.272115 
L 476.258523 238.878046 
L 476.835017 243.717673 
L 477.411511 230.881571 
L 477.993106 237.067534 
L 478.5696 241.47663 
L 479.146094 235.111611 
L 479.727689 230.421957 
L 480.304183 232.581456 
L 480.880677 229.950369 
L 481.45717 231.927391 
L 482.038766 231.904011 
L 482.615259 236.658672 
L 483.191753 231.305259 
L 483.768247 239.004069 
L 484.344741 235.591753 
L 484.916133 235.410417 
L 485.497728 230.413404 
L 486.06912 230.018227 
L 486.645614 232.25927 
L 487.222107 235.058008 
L 487.798601 229.155454 
L 488.369993 229.128653 
L 488.946487 226.463921 
L 489.517879 236.894181 
L 490.089271 222.527555 
L 490.660663 227.947116 
L 491.237157 235.701809 
L 491.808549 225.079379 
L 492.956434 229.958352 
L 493.532928 224.005617 
L 494.10432 229.807238 
L 494.675712 223.465599 
L 495.252206 223.573945 
L 495.823598 233.70825 
L 496.39499 219.978012 
L 496.966382 228.756286 
L 497.537774 217.031581 
L 498.109166 227.916893 
L 498.680558 233.460196 
L 499.25195 219.181386 
L 499.823342 227.052979 
L 500.394734 226.713686 
L 500.966126 226.914981 
L 501.537518 229.507292 
L 502.10891 226.403476 
L 502.6752 228.888582 
L 503.246592 233.672895 
L 503.817984 231.35487 
L 504.389376 222.70661 
L 504.955666 227.688227 
L 505.527058 222.111279 
L 506.09845 230.733308 
L 506.664741 221.793656 
L 507.231031 229.363021 
L 507.797321 217.971907 
L 508.368713 226.67434 
L 508.935003 226.352724 
L 509.501294 223.266015 
L 510.067584 230.124862 
L 510.633874 214.150159 
L 511.200165 228.255045 
L 511.766455 213.198998 
L 512.337847 227.753234 
L 512.904137 227.521146 
L 513.470427 221.839275 
L 514.036718 224.377983 
L 514.603008 224.216605 
L 515.730487 211.813885 
L 516.296777 214.685614 
L 516.863067 220.468418 
L 517.429358 217.615507 
L 517.990546 220.417667 
L 518.556837 213.612993 
L 519.118025 211.418709 
L 519.684315 207.411633 
L 520.250606 221.814755 
L 520.811794 227.112854 
L 521.372983 212.673807 
L 522.500462 224.339207 
L 523.066752 212.088171 
L 523.627941 220.408543 
L 524.189129 219.891335 
L 524.750318 217.886371 
L 525.872695 226.029398 
L 526.438985 220.219793 
L 527.000174 219.968888 
L 527.561362 216.597629 
L 528.122551 219.045669 
L 528.683739 216.05476 
L 529.244928 207.33522 
L 529.806117 216.370673 
L 530.367305 216.10095 
L 530.928494 206.831128 
L 531.489682 220.94742 
L 532.050871 217.881809 
L 532.612059 209.531215 
L 533.168146 220.772926 
L 533.729335 211.726068 
L 534.285422 214.218588 
L 534.841509 214.77001 
L 535.402697 210.355782 
L 535.958784 210.451012 
L 536.519973 222.197956 
L 537.076059 207.058654 
L 538.188233 218.720632 
L 538.74432 215.716608 
L 539.300407 206.871045 
L 539.856494 208.412404 
L 540.417682 213.727041 
L 541.529856 214.344611 
L 542.085943 198.292355 
L 542.647131 213.509779 
L 543.203218 204.423005 
L 543.759305 210.129396 
L 544.315392 221.837564 
L 544.871479 209.863665 
L 545.427566 212.978886 
L 545.983653 203.045875 
L 546.534638 212.94068 
L 547.090725 218.589477 
L 547.646811 205.637616 
L 548.202898 211.82472 
L 548.753883 203.131981 
L 549.30997 208.835522 
L 549.860955 211.976974 
L 550.417042 208.740292 
L 550.973129 208.029203 
L 551.524114 202.162573 
L 552.075099 201.469162 
L 552.626085 195.199943 
L 553.182171 204.57811 
L 553.733157 201.414419 
L 554.289243 213.457887 
L 554.835127 210.059827 
L 555.386112 204.336328 
L 556.488082 210.405393 
L 557.039067 194.88403 
L 557.595154 197.439276 
L 558.146139 215.590015 
L 558.697125 206.629263 
L 559.24811 215.400125 
L 559.799095 209.573983 
L 560.901065 203.059561 
L 561.45205 203.733014 
L 562.003035 205.606253 
L 562.554021 209.717683 
L 563.105006 211.979825 
L 563.650889 202.287456 
L 564.201874 202.307414 
L 564.752859 202.095855 
L 565.303845 198.640771 
L 565.849728 208.07083 
L 566.400713 207.546209 
L 566.951698 207.675654 
L 567.497582 207.3107 
L 568.043465 197.412474 
L 568.59445 206.874467 
L 569.145435 206.779807 
L 569.691319 210.457855 
L 570.237202 206.31164 
L 570.783086 203.457588 
L 571.334071 203.450746 
L 571.879954 206.78722 
L 572.425838 203.614975 
L 572.971721 205.639897 
L 573.517605 206.473018 
L 574.063488 199.837135 
L 574.609371 203.017363 
L 575.160357 204.879767 
L 575.70624 198.816975 
L 576.252123 195.880239 
L 576.798007 205.000088 
L 577.34389 202.112392 
L 577.889774 208.537857 
L 578.435657 199.353571 
L 578.981541 204.521656 
L 579.522322 201.741166 
L 580.068206 197.900029 
L 580.614089 194.995797 
L 581.159973 201.373932 
L 581.705856 194.399896 
L 582.246638 200.747238 
L 582.792521 204.840991 
L 583.338405 200.740965 
L 583.879186 206.845955 
L 584.42507 207.391104 
L 584.965851 203.896673 
L 585.511735 193.098609 
L 586.052517 207.126513 
L 586.5984 200.314996 
L 587.139182 203.039032 
L 587.679963 199.741334 
L 588.220745 199.233251 
L 588.761527 196.392315 
L 589.302309 195.565467 
L 589.84309 203.459299 
L 590.383872 199.211011 
L 590.924654 202.58113 
L 591.470537 199.084988 
L 592.011319 201.915089 
L 592.546999 202.352463 
L 593.092882 202.034269 
L 593.633664 199.290845 
L 594.174446 198.379031 
L 594.715227 202.245828 
L 595.256009 195.582004 
L 595.796791 198.307751 
L 596.337573 197.677636 
L 596.878354 200.979325 
L 597.419136 194.089686 
L 597.959918 197.974161 
L 598.500699 190.100857 
L 599.036379 186.706788 
L 599.572059 207.697893 
L 600.653623 193.902077 
L 601.194405 196.862193 
L 601.735186 193.392852 
L 602.270866 193.729294 
L 602.806546 186.173614 
L 603.347328 196.825127 
L 603.883008 200.787155 
L 604.418688 196.118029 
L 604.95947 197.06862 
L 605.49515 196.259449 
L 606.03083 192.860248 
L 606.571611 196.614138 
L 607.112393 196.474429 
L 607.648073 202.857696 
L 608.183753 199.725938 
L 608.719433 202.845721 
L 609.260215 198.253008 
L 609.795895 205.977479 
L 610.331575 199.222986 
L 610.867255 202.732243 
L 611.402935 199.217854 
L 611.938615 188.178008 
L 612.474295 195.153754 
L 613.009975 194.957591 
L 613.545655 194.589216 
L 614.081335 198.348238 
L 614.622117 194.747743 
L 615.157797 194.948467 
L 615.693477 194.338881 
L 616.229157 201.392749 
L 616.764837 186.919488 
L 617.300517 197.926831 
L 617.831095 201.206851 
L 618.366775 194.371955 
L 618.902455 201.211413 
L 619.438135 194.569258 
L 619.973815 197.356591 
L 620.509495 191.073116 
L 621.040073 186.284241 
L 621.575753 196.727046 
L 622.111433 194.210577 
L 622.647113 196.966547 
L 623.182793 197.062917 
L 623.713371 196.561106 
L 624.249051 193.004519 
L 624.77963 193.570767 
L 625.310208 200.245997 
L 625.840786 176.882124 
L 626.376466 200.569323 
L 626.912146 196.425959 
L 627.442725 203.835087 
L 627.978405 196.194442 
L 628.508983 196.574221 
L 629.039561 196.076972 
L 629.570139 188.562349 
L 630.100718 199.091831 
L 630.631296 192.184514 
L 631.161874 194.71752 
L 631.692453 191.592035 
L 632.223031 191.610282 
L 632.758711 190.914589 
L 633.289289 192.206753 
L 633.819867 194.488854 
L 634.350446 194.523638 
L 635.411602 195.438874 
L 635.942181 191.537862 
L 636.472759 182.142588 
L 637.008439 190.708733 
L 637.533915 178.420631 
L 638.064494 189.86991 
L 638.595072 181.845492 
L 639.12565 197.64 
L 639.651127 185.492748 
L 640.181705 189.238084 
L 640.707182 194.161536 
L 641.242862 197.21232 
L 641.768338 194.010422 
L 642.298917 197.315533 
L 643.360073 185.341064 
L 643.890651 204.637985 
L 644.416128 188.911336 
L 644.946706 189.739325 
L 645.477285 185.952361 
L 646.002761 189.187903 
L 646.533339 187.785683 
L 647.058816 192.595087 
L 647.589394 184.590058 
L 648.114871 193.072948 
L 648.640347 188.438037 
L 649.170926 191.293229 
L 649.696402 192.628161 
L 650.226981 192.428006 
L 650.752457 196.621551 
L 651.277934 188.20709 
L 651.80341 192.525517 
L 652.859465 192.949206 
L 653.384942 184.189749 
L 653.910418 189.689144 
L 654.435895 192.27062 
L 654.961371 184.895706 
L 655.49195 196.1665 
L 656.017426 192.012301 
L 656.542903 195.611656 
L 657.068379 196.35696 
L 657.598958 187.140171 
L 658.119333 192.083011 
L 658.649911 183.199242 
L 659.175387 182.335899 
L 659.700864 187.823889 
L 660.226341 191.142685 
L 660.751817 186.870447 
L 661.277294 187.89916 
L 661.807872 190.640304 
L 662.333349 191.086232 
L 662.858825 186.182168 
L 663.384302 191.116454 
L 663.909778 190.267367 
L 664.435255 186.657178 
L 664.960731 190.709303 
L 665.486208 173.199514 
L 666.016786 190.644866 
L 666.542263 194.199742 
L 667.067739 190.355754 
L 667.593216 190.633461 
L 668.118693 190.333515 
L 668.639067 190.257673 
L 669.164544 190.384836 
L 669.690021 190.735534 
L 670.215497 190.092303 
L 670.740974 193.875846 
L 671.786825 185.076472 
L 672.837778 185.710009 
L 673.888731 185.140909 
L 674.409106 192.81634 
L 674.934583 185.282899 
L 675.454958 184.605454 
L 675.980434 189.232381 
L 677.026286 188.119273 
L 677.551762 184.446357 
L 678.072137 189.165093 
L 678.597614 188.558358 
L 679.117989 183.801986 
L 679.643465 188.257271 
L 680.16384 184.099651 
L 680.689317 196.358671 
L 681.209691 184.296384 
L 681.735168 188.126116 
L 682.255543 187.998382 
L 682.781019 192.791249 
L 683.301394 183.736408 
L 683.821769 192.530079 
L 684.347246 187.363135 
L 684.867621 188.46826 
L 685.387995 183.230605 
L 686.433847 191.606861 
L 686.954222 186.739292 
L 687.474597 183.993587 
L 687.994971 187.331772 
L 688.515346 187.837574 
L 689.040823 182.669489 
L 689.561198 187.522232 
L 690.081573 183.145069 
L 690.601947 182.987683 
L 691.122322 177.699848 
L 691.642697 186.893827 
L 692.163072 186.351529 
L 692.683447 183.991876 
L 693.203822 190.661973 
L 693.724197 186.636649 
L 694.244571 186.437065 
L 694.764946 186.934884 
L 695.285321 187.753179 
L 695.805696 182.801215 
L 696.326071 186.504353 
L 696.846446 173.232588 
L 697.887195 182.634705 
L 698.40757 181.789039 
L 698.933047 181.677272 
L 699.453422 190.56047 
L 699.973797 182.24295 
L 700.48907 181.798733 
L 701.009445 186.082946 
L 701.524718 185.631316 
L 702.045093 176.562219 
L 702.565467 185.039407 
L 703.085842 189.935487 
L 703.606217 180.591535 
L 704.126592 185.812652 
L 704.646967 189.294538 
L 705.167342 179.949444 
L 705.687717 185.749926 
L 706.20299 180.352034 
L 706.723365 185.154595 
L 707.238638 186.000261 
L 707.759013 184.831839 
L 708.279387 184.985804 
L 708.794661 184.755997 
L 709.315035 186.342975 
L 709.83541 184.995498 
L 710.350683 189.44394 
L 710.871058 185.436864 
L 711.386331 180.526527 
L 711.906706 179.853644 
L 712.421979 180.232284 
L 712.937253 188.08848 
L 713.452526 183.43133 
L 713.972901 185.102133 
L 714.488174 185.49788 
L 715.51872 176.513748 
L 716.039095 184.624842 
L 716.554368 180.830465 
L 717.069641 184.966986 
L 717.590016 180.3201 
L 718.105289 180.863539 
L 718.625664 184.105924 
L 719.140937 184.594049 
L 719.65621 188.655869 
L 720.171483 184.503951 
L 720.691858 184.582074 
L 721.207131 176.144803 
L 721.727506 179.357535 
L 722.242779 189.220977 
L 722.758053 188.068522 
L 723.273326 188.512168 
L 723.788599 179.347271 
L 724.303872 184.170361 
L 724.819145 180.283605 
L 725.849691 188.486508 
L 726.364965 184.669891 
L 726.880238 188.798429 
L 727.395511 184.558124 
L 727.910784 179.065002 
L 728.426057 184.510224 
L 728.94133 179.902685 
L 729.456603 179.58278 
L 729.976978 188.345658 
L 730.492251 186.932033 
L 731.007525 188.517871 
L 731.522798 179.946023 
L 732.038071 173.953941 
L 732.553344 175.812924 
L 733.068617 183.92972 
L 733.58389 182.826876 
L 734.099163 178.122966 
L 734.614437 178.493052 
L 735.124608 179.065572 
L 735.644983 178.734263 
L 736.155154 190.829053 
L 736.675529 173.757779 
L 737.190802 178.429755 
L 737.706075 186.613269 
L 738.216247 183.794573 
L 738.73152 173.822216 
L 739.246793 188.036018 
L 739.762066 182.763579 
L 740.277339 182.964874 
L 740.787511 187.119642 
L 741.302784 178.996573 
L 741.812955 188.541821 
L 742.328229 179.260024 
L 742.8384 178.569464 
L 743.353673 183.268241 
L 743.868946 182.665498 
L 744.379118 182.350725 
L 744.894391 183.718731 
L 745.409664 178.213064 
L 745.919835 183.079492 
L 746.430007 173.894636 
L 746.94528 186.912645 
L 747.460553 182.797223 
L 747.975826 187.347738 
L 748.485998 182.878767 
L 749.516544 183.674822 
L 750.026715 182.392353 
L 750.541989 183.304166 
L 751.05216 179.269148 
L 751.567433 182.850255 
L 752.077605 182.703133 
L 752.587776 183.114847 
L 753.103049 172.45421 
L 753.613221 182.817181 
L 754.123392 173.494898 
L 754.638665 173.11911 
L 755.148837 177.622295 
L 755.659008 174.137558 
L 756.174281 183.368033 
L 756.684453 183.293902 
L 757.194624 182.311949 
L 757.704795 178.409796 
L 758.220069 185.80809 
L 758.73024 177.381654 
L 759.240411 182.593077 
L 759.750583 182.250363 
L 760.260754 182.943775 
L 760.776027 177.337745 
L 761.286199 182.707125 
L 761.79637 182.373535 
L 762.306542 182.468195 
L 762.816713 183.256836 
L 763.326885 182.131753 
L 763.837056 182.545177 
L 764.347227 182.091266 
L 764.857399 177.975844 
L 765.36757 182.728794 
L 765.877742 178.684652 
L 766.393015 178.050545 
L 766.903186 179.094655 
L 767.413358 182.88561 
L 767.923529 173.416775 
L 768.433701 177.631989 
L 768.943872 177.190623 
L 769.454043 168.158022 
L 769.964215 182.105522 
L 770.474386 181.566645 
L 770.984558 173.275356 
L 771.499831 173.128234 
L 772.010002 182.350725 
L 772.520174 181.669288 
L 773.030345 190.951655 
L 773.540517 177.5379 
L 774.050688 181.831807 
L 774.560859 181.938442 
L 775.071031 177.635981 
L 775.581202 181.139535 
L 776.086272 181.840931 
L 776.596443 181.490233 
L 777.106615 182.6233 
L 777.621888 181.55353 
L 778.132059 180.858977 
L 778.642231 181.832377 
L 779.152402 181.337979 
L 779.662574 185.754488 
L 780.167643 181.450886 
L 780.677815 171.269251 
L 781.182885 182.237818 
L 781.693056 176.118572 
L 782.203227 176.292495 
L 782.713399 177.008717 
L 783.22357 181.137254 
L 783.733742 180.965612 
L 784.238811 180.962191 
L 784.748983 181.740568 
L 785.259154 180.22487 
L 785.764224 181.217658 
L 786.274395 181.17318 
L 786.784567 181.787898 
L 787.294738 180.482619 
L 787.799808 176.847909 
L 788.309979 181.758816 
L 788.820151 177.483156 
L 789.330322 182.252644 
L 789.840494 172.604753 
L 790.345563 181.310607 
L 790.855735 180.715277 
L 791.365906 184.751436 
L 791.870976 184.505662 
L 792.886217 177.39762 
L 793.396389 176.42194 
L 793.901458 172.737049 
L 794.41163 184.659627 
L 794.921801 180.166706 
L 795.431973 181.439482 
L 795.937042 181.081371 
L 796.952283 181.29236 
L 797.462455 182.174521 
L 797.967525 176.478964 
L 798.477696 179.821711 
L 798.982766 180.985 
L 799.492937 172.000869 
L 799.998007 182.073018 
L 800.508178 176.711052 
L 801.013248 181.308326 
L 801.523419 176.797728 
L 802.028489 184.443506 
L 802.538661 180.868671 
L 803.04373 182.071878 
L 803.5488 180.633162 
L 804.058971 176.727018 
L 804.564041 179.896982 
L 805.069111 176.37518 
L 805.574181 181.338549 
L 806.07925 181.167477 
L 806.589422 176.315305 
L 807.094491 181.371053 
L 807.599561 181.072247 
L 808.104631 182.150001 
L 808.609701 184.421267 
L 809.11477 180.763747 
L 809.61984 179.610152 
L 810.130011 180.163855 
L 810.635081 181.153221 
L 811.140151 176.429353 
L 811.645221 180.431297 
L 812.15029 182.001168 
L 812.65536 176.530285 
L 813.16043 180.227722 
L 813.665499 180.944513 
L 814.170569 184.586066 
L 814.675639 175.935525 
L 815.180709 176.670564 
L 815.685778 181.15094 
L 816.190848 176.558227 
L 816.695918 181.26955 
L 817.206089 181.740568 
L 817.711159 180.918852 
L 818.216229 181.004388 
L 819.226368 172.00258 
L 819.731438 184.35854 
L 820.746679 176.879843 
L 821.251749 171.221921 
L 821.756818 184.218831 
L 822.261888 180.24882 
L 822.766958 181.628801 
L 823.272027 185.215041 
L 823.777097 185.914155 
L 824.282167 181.57748 
L 824.787237 180.428446 
L 825.297408 181.218228 
L 825.802478 177.024684 
L 826.307547 177.049204 
L 826.812617 176.705349 
L 827.317687 181.812989 
L 827.317687 181.812989 
" clip-path="url(#p16c733dcf4)" style="fill: none; stroke: #ff0000; stroke-width: 1.5; stroke-linecap: square"/>
   </g>
   <g id="line2d_18">
    <path d="M 116.368293 461.149615 
L 117.347822 460.468748 
L 118.796709 459.52215 
L 119.281371 459.220493 
L 119.771136 458.780268 
L 121.719991 457.611276 
L 122.704622 456.976598 
L 123.694354 456.2427 
L 124.189221 455.781375 
L 124.684087 455.694699 
L 125.684023 454.702481 
L 126.183991 454.773191 
L 126.678857 454.427055 
L 127.178825 453.812907 
L 128.683831 452.907366 
L 130.693906 451.721267 
L 132.719287 450.252328 
L 133.229458 450.104066 
L 134.249801 449.370167 
L 134.759973 448.757729 
L 135.270144 448.892876 
L 135.785417 448.342024 
L 136.30069 448.214291 
L 136.815963 447.575052 
L 137.336338 447.507193 
L 137.851611 446.972878 
L 138.887259 446.594239 
L 139.928009 445.393884 
L 140.448384 445.469155 
L 140.968759 444.352625 
L 141.494235 444.643448 
L 142.019712 444.327535 
L 142.540087 443.843401 
L 143.065563 443.863359 
L 143.596142 443.025677 
L 144.652197 442.389289 
L 146.23883 441.095985 
L 147.299986 440.785204 
L 147.830565 439.203928 
L 148.366245 440.49039 
L 148.896823 439.576865 
L 149.427401 439.131508 
L 149.957979 439.235862 
L 150.493659 439.186821 
L 151.029339 438.267024 
L 151.565019 438.127315 
L 152.100699 437.060966 
L 152.641481 437.123693 
L 153.177161 437.026752 
L 153.712841 437.061537 
L 154.253623 436.243242 
L 154.789303 434.806237 
L 155.330085 435.252165 
L 155.870866 434.607224 
L 156.406546 434.894054 
L 158.028891 434.128792 
L 159.115557 432.877686 
L 159.656338 433.10236 
L 160.202222 432.614805 
L 160.743003 431.538762 
L 161.288887 430.966812 
L 161.829669 431.022695 
L 162.375552 431.323212 
L 163.462217 429.875372 
L 164.008101 429.947222 
L 165.655954 428.869469 
L 166.201838 427.290474 
L 166.752823 428.117322 
L 167.298706 426.956884 
L 167.84459 427.35092 
L 168.395575 426.659789 
L 168.94656 426.701416 
L 169.492443 426.213291 
L 170.043429 426.359843 
L 170.594414 425.673274 
L 171.140297 425.28551 
L 171.696384 423.996768 
L 172.247369 424.539636 
L 172.798354 424.683337 
L 173.349339 424.195212 
L 173.900325 423.521188 
L 174.45131 421.19746 
L 175.002295 422.822074 
L 175.558382 422.391542 
L 176.109367 422.665828 
L 176.665454 421.31664 
L 177.216439 420.38886 
L 177.772526 421.457489 
L 178.323511 420.499486 
L 178.879598 418.816138 
L 179.430583 420.167606 
L 179.98667 419.998245 
L 180.542757 418.386747 
L 181.098843 418.523034 
L 181.65493 418.540712 
L 182.767104 417.749789 
L 183.884379 416.167943 
L 184.440466 416.676597 
L 184.996553 416.854512 
L 185.557742 416.423411 
L 186.675017 414.695583 
L 187.231104 414.343175 
L 187.787191 413.350957 
L 188.348379 414.377389 
L 188.904466 414.148723 
L 189.465655 413.351528 
L 190.026843 413.045309 
L 190.58293 413.368635 
L 191.144119 410.5066 
L 191.705307 411.969266 
L 192.261394 410.403387 
L 192.822583 410.684515 
L 193.383771 410.641177 
L 193.94496 410.765489 
L 194.506149 410.012202 
L 195.067337 406.716785 
L 195.633627 409.849684 
L 196.756005 406.967691 
L 197.317193 408.674989 
L 197.878382 406.745868 
L 199.005861 407.267637 
L 199.567049 406.444211 
L 200.133339 406.646646 
L 200.694528 404.783101 
L 201.260818 405.274648 
L 201.822007 404.643393 
L 202.949486 404.681599 
L 203.515776 404.292695 
L 204.082066 404.240233 
L 204.648357 403.009655 
L 205.214647 403.78176 
L 205.780937 401.625112 
L 206.347227 402.540918 
L 206.908416 402.706287 
L 207.479808 400.461823 
L 208.046098 400.721852 
L 208.612389 401.73802 
L 209.178679 401.333149 
L 209.744969 398.951827 
L 210.316361 398.548668 
L 210.882651 400.271933 
L 211.448942 399.114346 
L 212.015232 399.707395 
L 212.581522 397.20005 
L 213.152914 396.658892 
L 213.719205 397.140175 
L 214.285495 396.223799 
L 214.851785 397.120216 
L 215.423177 393.846468 
L 215.994569 396.451325 
L 216.560859 394.56383 
L 217.132251 396.395441 
L 217.698542 395.810375 
L 218.269934 394.412717 
L 219.412718 393.275658 
L 219.979008 393.738123 
L 220.5504 391.890545 
L 221.121792 391.202266 
L 221.693184 392.818326 
L 222.264576 391.637929 
L 222.835968 392.889606 
L 223.40736 391.455452 
L 223.978752 390.383971 
L 224.550144 390.994698 
L 225.126638 391.150374 
L 225.69803 390.893766 
L 226.269422 391.23762 
L 226.840814 388.568897 
L 227.412206 388.943545 
L 227.988699 387.041795 
L 228.560091 386.469844 
L 229.131483 388.134374 
L 229.702875 386.65118 
L 230.279369 386.399134 
L 230.850761 387.9576 
L 231.422153 386.384308 
L 231.998647 386.877565 
L 232.570039 385.924694 
L 233.141431 386.776063 
L 233.717925 385.000906 
L 234.289317 384.619415 
L 234.860709 383.426473 
L 236.013696 382.251208 
L 236.585088 382.99138 
L 237.161582 383.446431 
L 237.738075 382.174226 
L 238.314569 383.20579 
L 238.885961 380.627735 
L 239.462455 379.629245 
L 240.038949 381.967799 
L 240.615442 380.441267 
L 241.191936 375.656953 
L 241.76843 380.477192 
L 242.344923 378.489335 
L 242.921417 377.417284 
L 243.497911 380.42473 
L 244.074405 374.434358 
L 244.650898 376.799714 
L 245.227392 375.722531 
L 245.803886 378.086746 
L 246.385481 377.786229 
L 246.961975 376.530561 
L 247.538469 377.038074 
L 248.696558 374.331145 
L 249.273051 376.122269 
L 249.849545 376.468975 
L 250.426039 374.229072 
L 251.007634 374.950426 
L 251.584128 372.473303 
L 252.160622 372.213844 
L 252.737115 373.813937 
L 253.313609 372.39461 
L 253.895205 373.206632 
L 254.471698 370.644543 
L 255.053294 374.330575 
L 255.629787 372.118044 
L 256.782775 369.239472 
L 257.359269 370.584098 
L 257.940864 370.418158 
L 258.517358 368.134917 
L 259.093851 364.318301 
L 259.675447 368.233569 
L 260.257042 369.015938 
L 260.833536 367.446637 
L 261.41003 368.185098 
L 261.986523 366.752655 
L 262.568119 368.533515 
L 263.149714 365.901857 
L 263.726208 366.567327 
L 264.307803 366.326116 
L 264.889399 364.582322 
L 265.465893 363.310687 
L 266.047488 363.087723 
L 267.205577 364.280095 
L 268.368768 361.480787 
L 269.531959 362.756413 
L 270.108453 361.082759 
L 270.690048 359.866437 
L 271.271643 360.5627 
L 271.853239 361.071924 
L 272.434834 360.91967 
L 273.01643 358.322227 
L 273.598025 357.905952 
L 274.179621 358.820617 
L 274.766318 358.493869 
L 275.347913 356.859562 
L 275.929509 359.575615 
L 276.511104 356.965056 
L 277.097801 356.589838 
L 277.674295 357.285531 
L 278.260992 355.958582 
L 278.842587 356.555624 
L 279.424183 356.223744 
L 280.005778 356.084035 
L 280.582272 354.513024 
L 281.168969 354.191979 
L 281.750565 356.906892 
L 282.33216 352.53087 
L 282.913755 354.221061 
L 283.500453 351.238706 
L 284.082048 354.389852 
L 284.663643 349.210932 
L 285.245239 347.437486 
L 285.826834 352.510341 
L 286.413531 350.74887 
L 286.995127 348.454224 
L 287.576722 349.747528 
L 288.163419 346.694463 
L 288.745015 346.606076 
L 289.331712 348.715964 
L 289.913307 349.58501 
L 290.494903 346.455533 
L 291.076498 348.992531 
L 291.663195 343.255916 
L 292.244791 346.888345 
L 292.826386 347.794456 
L 293.407982 344.373016 
L 293.989577 346.6631 
L 294.576274 340.393311 
L 295.15787 347.334843 
L 295.739465 346.927121 
L 296.326162 345.52205 
L 296.907758 342.501489 
L 297.489353 342.151932 
L 298.07605 339.1787 
L 298.657646 342.526579 
L 299.239241 342.323574 
L 299.825938 341.818341 
L 300.407534 342.868723 
L 300.989129 341.181953 
L 301.570725 340.62654 
L 302.157422 340.409278 
L 302.739017 338.567403 
L 303.320613 338.253201 
L 303.902208 340.517624 
L 304.488905 338.928365 
L 305.070501 340.168637 
L 305.652096 339.6999 
L 306.238793 337.748538 
L 306.820389 339.077768 
L 307.401984 334.2849 
L 307.983579 335.6147 
L 308.565175 339.159312 
L 309.151872 333.282989 
L 309.733467 335.586188 
L 310.315063 334.889355 
L 310.896658 333.343434 
L 311.483355 335.610708 
L 312.064951 334.18796 
L 312.646546 333.61886 
L 313.228142 334.742233 
L 313.809737 332.806268 
L 314.391333 327.86742 
L 314.97803 333.253907 
L 315.559625 330.552109 
L 316.141221 331.519236 
L 316.722816 329.505719 
L 317.309513 331.83572 
L 317.891109 330.467714 
L 318.472704 332.728716 
L 319.054299 326.210872 
L 319.640997 330.388451 
L 320.222592 327.103298 
L 320.804187 328.354404 
L 321.385783 329.190947 
L 321.97248 324.619332 
L 322.554075 329.917432 
L 323.135671 328.233514 
L 323.717266 321.765281 
L 324.298862 327.505317 
L 324.880457 328.823142 
L 325.467154 325.117152 
L 326.04875 326.15727 
L 326.630345 322.658847 
L 327.211941 324.334212 
L 327.798638 323.664751 
L 328.380233 324.54178 
L 328.961829 321.279437 
L 329.543424 320.97721 
L 330.130121 323.982374 
L 330.711717 320.05171 
L 331.293312 318.849074 
L 331.874907 322.66569 
L 332.456503 322.436454 
L 333.0432 323.230228 
L 333.624795 318.352965 
L 334.206391 320.956681 
L 334.782885 319.216308 
L 335.369582 318.642647 
L 335.951177 315.27538 
L 336.532773 316.295539 
L 337.109266 317.637314 
L 337.690862 317.330525 
L 338.854053 312.791414 
L 339.435648 317.29574 
L 340.017243 317.287187 
L 340.598839 313.68441 
L 341.180434 314.964029 
L 341.76203 312.784572 
L 342.343625 317.15204 
L 342.925221 315.353503 
L 343.506816 315.161332 
L 344.088411 308.443905 
L 344.670007 312.598103 
L 345.251602 312.143622 
L 345.828096 313.535007 
L 346.409691 312.766894 
L 346.991287 309.519377 
L 347.572882 312.456684 
L 348.149376 312.391676 
L 349.312567 305.121686 
L 349.894162 310.674113 
L 350.475758 308.940584 
L 351.052251 310.179145 
L 351.633847 308.165628 
L 352.210341 304.333044 
L 352.791936 309.066036 
L 353.36843 308.620109 
L 353.950025 307.867962 
L 354.526519 309.387652 
L 355.684608 302.295577 
L 356.266203 303.248448 
L 356.842697 306.488552 
L 357.424293 304.787526 
L 358.000786 305.492913 
L 358.57728 305.480938 
L 359.158875 305.346361 
L 360.316965 297.642419 
L 360.893458 302.318387 
L 361.469952 300.515858 
L 362.051547 299.849818 
L 362.628041 300.863134 
L 363.204535 298.740701 
L 364.357522 301.624975 
L 364.934016 297.534643 
L 365.51051 297.387521 
L 366.087003 303.828382 
L 366.668599 294.673749 
L 367.245093 294.630981 
L 367.821586 299.612598 
L 368.39808 300.884233 
L 368.974574 292.902013 
L 369.551067 296.570367 
L 370.132663 290.921 
L 371.28565 297.237548 
L 371.857042 294.755293 
L 372.433536 290.808092 
L 373.01003 292.51482 
L 373.586523 295.691057 
L 374.163017 293.755663 
L 374.739511 293.646747 
L 375.316005 296.45803 
L 375.892498 293.98604 
L 376.468992 293.890239 
L 377.045486 281.779482 
L 377.616878 291.103476 
L 378.193371 291.103476 
L 378.769865 292.153859 
L 379.341257 292.116793 
L 379.917751 286.24104 
L 380.489143 287.651814 
L 381.065637 286.631654 
L 381.64213 286.703505 
L 382.213522 295.373434 
L 382.790016 289.443508 
L 383.36651 285.535083 
L 383.943003 287.26177 
L 384.514395 284.874175 
L 385.085787 291.608139 
L 385.662281 283.925866 
L 386.233673 287.684888 
L 386.810167 287.085565 
L 387.381559 284.874175 
L 387.958053 286.210247 
L 388.529445 287.988255 
L 389.672229 283.578589 
L 390.243621 285.309268 
L 390.815013 278.530255 
L 391.386405 281.998454 
L 392.53429 277.611028 
L 393.105682 285.014454 
L 393.677074 279.045752 
L 394.248466 284.286257 
L 394.819858 283.991443 
L 395.39125 285.62404 
L 395.967744 277.584797 
L 396.539136 282.834996 
L 397.110528 276.443747 
L 397.68192 276.340533 
L 398.253312 277.446228 
L 398.829806 276.691231 
L 399.396096 278.538808 
L 399.967488 276.68838 
L 400.533778 278.581006 
L 401.10517 276.004092 
L 401.676562 279.5162 
L 402.247954 273.464813 
L 402.819346 276.04914 
L 403.390738 269.831244 
L 403.957029 271.870422 
L 404.528421 265.065178 
L 405.666103 276.633636 
L 406.237495 274.633805 
L 406.808887 270.189354 
L 407.375177 273.996847 
L 407.941467 269.377332 
L 408.512859 269.100196 
L 409.07915 270.034249 
L 409.650542 268.370289 
L 410.216832 270.089562 
L 410.788224 269.629379 
L 411.354514 266.749667 
L 411.925906 270.887898 
L 412.492197 271.084631 
L 413.058487 268.291025 
L 413.624777 263.637297 
L 414.191067 269.280962 
L 414.757358 271.150209 
L 415.889938 266.541529 
L 416.456229 265.812192 
L 417.027621 267.427682 
L 417.593911 267.440227 
L 417.593911 267.440227 
" clip-path="url(#p16c733dcf4)" style="fill: none; stroke: #0000ff; stroke-width: 1.5; stroke-linecap: square"/>
   </g>
   <g id="patch_3">
    <path d="M 115.2 461.376 
L 115.2 62.208 
" style="fill: none; stroke: #000000; stroke-width: 0.8; stroke-linejoin: miter; stroke-linecap: square"/>
   </g>
   <g id="patch_4">
    <path d="M 829.44 461.376 
L 829.44 62.208 
" style="fill: none; stroke: #000000; stroke-width: 0.8; stroke-linejoin: miter; stroke-linecap: square"/>
   </g>
   <g id="patch_5">
    <path d="M 115.2 461.376 
L 829.44 461.376 
" style="fill: none; stroke: #000000; stroke-width: 0.8; stroke-linejoin: miter; stroke-linecap: square"/>
   </g>
   <g id="patch_6">
    <path d="M 115.2 62.208 
L 829.44 62.208 
" style="fill: none; stroke: #000000; stroke-width: 0.8; stroke-linejoin: miter; stroke-linecap: square"/>
   </g>
   <g id="text_19">
    <!-- $\mathrm{proto\ &amp;\ mica*}$的读取命中率随时间的变化趋势 -->
    <g transform="translate(243.066 56.208) scale(0.228 -0.228)">
     <defs>
      <path id="STIXGeneral-Regular-70" d="M 1018 2931 
L 1018 2438 
Q 1421 2944 1939 2944 
Q 2406 2944 2707 2560 
Q 3008 2176 3008 1581 
Q 3008 883 2621 409 
Q 2234 -64 1664 -64 
Q 1466 -64 1328 -6 
Q 1190 51 1018 211 
L 1018 -794 
Q 1018 -1094 1120 -1180 
Q 1222 -1267 1581 -1274 
L 1581 -1389 
L 32 -1389 
L 32 -1280 
Q 314 -1254 397 -1171 
Q 480 -1088 480 -838 
L 480 2157 
Q 480 2381 429 2451 
Q 378 2522 218 2522 
Q 115 2522 58 2515 
L 58 2618 
Q 506 2752 979 2944 
L 1018 2931 
z
M 1018 2138 
L 1018 563 
Q 1018 422 1238 281 
Q 1459 141 1683 141 
Q 2029 141 2243 467 
Q 2458 794 2458 1325 
Q 2458 1888 2243 2224 
Q 2029 2560 1670 2560 
Q 1446 2560 1232 2419 
Q 1018 2278 1018 2138 
z
" transform="scale(0.015625)"/>
      <path id="STIXGeneral-Regular-72" d="M 1024 2931 
L 1024 2342 
Q 1267 2688 1430 2816 
Q 1594 2944 1792 2944 
Q 1958 2944 2051 2854 
Q 2144 2765 2144 2605 
Q 2144 2470 2077 2393 
Q 2010 2317 1894 2317 
Q 1773 2317 1638 2445 
Q 1536 2541 1472 2541 
Q 1338 2541 1181 2355 
Q 1024 2170 1024 2016 
L 1024 576 
Q 1024 301 1133 205 
Q 1242 109 1568 96 
L 1568 0 
L 32 0 
L 32 96 
Q 339 154 412 224 
Q 486 294 486 538 
L 486 2138 
Q 486 2349 438 2435 
Q 390 2522 269 2522 
Q 166 2522 45 2496 
L 45 2598 
Q 448 2726 992 2944 
L 1024 2931 
z
" transform="scale(0.015625)"/>
      <path id="STIXGeneral-Regular-6f" d="M 3008 1478 
Q 3008 806 2608 371 
Q 2208 -64 1568 -64 
Q 979 -64 582 368 
Q 186 800 186 1459 
Q 186 2125 582 2534 
Q 979 2944 1626 2944 
Q 2221 2944 2614 2537 
Q 3008 2131 3008 1478 
z
M 2432 1306 
Q 2432 2035 2112 2445 
Q 1856 2765 1504 2765 
Q 1171 2765 966 2493 
Q 762 2221 762 1747 
Q 762 928 1101 435 
Q 1318 115 1677 115 
Q 2029 115 2230 432 
Q 2432 749 2432 1306 
z
" transform="scale(0.015625)"/>
      <path id="STIXGeneral-Regular-74" d="M 1702 493 
L 1786 422 
Q 1478 -64 1011 -64 
Q 448 -64 448 749 
L 448 2675 
L 109 2675 
Q 83 2694 83 2720 
Q 83 2771 192 2842 
Q 435 2982 813 3526 
Q 826 3546 874 3606 
Q 922 3667 941 3706 
Q 986 3706 986 3622 
L 986 2880 
L 1632 2880 
L 1632 2675 
L 986 2675 
L 986 845 
Q 986 538 1062 403 
Q 1139 269 1318 269 
Q 1510 269 1702 493 
z
" transform="scale(0.015625)"/>
      <path id="STIXGeneral-Regular-26" d="M 4704 710 
L 4800 640 
Q 4659 294 4409 105 
Q 4160 -83 3834 -83 
Q 3309 -83 2746 499 
Q 2387 186 2070 51 
Q 1754 -83 1363 -83 
Q 838 -83 553 160 
Q 269 403 269 877 
Q 269 1267 528 1628 
Q 787 1990 1274 2272 
L 1517 2413 
Q 1293 2957 1293 3366 
Q 1293 3789 1571 4057 
Q 1850 4326 2266 4326 
Q 2656 4326 2899 4115 
Q 3142 3904 3142 3533 
Q 3142 3181 2921 2937 
Q 2701 2694 2150 2458 
Q 2509 1683 2995 1139 
Q 3315 1568 3449 1821 
Q 3584 2074 3584 2291 
Q 3584 2438 3494 2502 
Q 3405 2566 3168 2592 
L 3168 2726 
L 4550 2726 
L 4550 2592 
Q 4326 2592 4201 2509 
Q 4077 2426 3949 2214 
Q 3859 2074 3702 1814 
Q 3546 1555 3424 1363 
Q 3302 1171 3142 960 
Q 3379 659 3606 515 
Q 3834 371 4115 371 
Q 4301 371 4425 444 
Q 4550 518 4704 710 
z
M 2803 3558 
Q 2803 3795 2662 3958 
Q 2522 4122 2304 4122 
Q 2080 4122 1939 3974 
Q 1798 3827 1798 3590 
Q 1798 3334 1849 3139 
Q 1901 2944 2054 2662 
Q 2458 2848 2630 3059 
Q 2803 3270 2803 3558 
z
M 2586 666 
Q 2035 1312 1613 2195 
Q 1197 1926 1027 1686 
Q 858 1446 858 1114 
Q 858 717 1078 486 
Q 1299 256 1651 256 
Q 2061 256 2586 666 
z
" transform="scale(0.015625)"/>
      <path id="STIXGeneral-Regular-6d" d="M 4960 0 
L 3565 0 
L 3565 96 
Q 3834 122 3907 208 
Q 3981 294 3981 576 
L 3981 1894 
Q 3981 2278 3869 2444 
Q 3757 2611 3488 2611 
Q 3264 2611 3107 2521 
Q 2950 2432 2803 2221 
L 2803 608 
Q 2803 301 2896 201 
Q 2989 102 3264 96 
L 3264 0 
L 1830 0 
L 1830 96 
Q 2112 115 2189 188 
Q 2266 262 2266 550 
L 2266 1901 
Q 2266 2611 1850 2611 
Q 1670 2611 1468 2531 
Q 1267 2451 1171 2336 
Q 1088 2240 1088 2227 
L 1088 448 
Q 1088 243 1177 176 
Q 1267 109 1523 96 
L 1523 0 
L 102 0 
L 102 96 
Q 371 102 460 195 
Q 550 288 550 563 
L 550 2150 
Q 550 2387 499 2480 
Q 448 2573 326 2573 
Q 230 2573 122 2547 
L 122 2656 
Q 557 2778 1011 2944 
L 1062 2925 
L 1062 2451 
L 1075 2451 
Q 1363 2752 1584 2848 
Q 1805 2944 2054 2944 
Q 2560 2944 2733 2406 
Q 3232 2944 3776 2944 
Q 4518 2944 4518 1792 
L 4518 493 
Q 4518 282 4582 202 
Q 4646 122 4794 109 
L 4960 96 
L 4960 0 
z
" transform="scale(0.015625)"/>
      <path id="STIXGeneral-Regular-69" d="M 1152 4045 
Q 1152 3904 1056 3811 
Q 960 3718 819 3718 
Q 685 3718 592 3811 
Q 499 3904 499 4045 
Q 499 4179 595 4275 
Q 691 4371 826 4371 
Q 966 4371 1059 4275 
Q 1152 4179 1152 4045 
z
M 1619 0 
L 102 0 
L 102 96 
Q 435 115 521 211 
Q 608 307 608 666 
L 608 2118 
Q 608 2342 563 2432 
Q 518 2522 397 2522 
Q 243 2522 128 2490 
L 128 2592 
L 1120 2944 
L 1146 2918 
L 1146 672 
Q 1146 314 1226 218 
Q 1306 122 1619 96 
L 1619 0 
z
" transform="scale(0.015625)"/>
      <path id="STIXGeneral-Regular-63" d="M 2547 998 
L 2637 941 
Q 2362 403 2112 205 
Q 1786 -64 1376 -64 
Q 845 -64 502 336 
Q 160 736 160 1357 
Q 160 2170 698 2618 
Q 1094 2944 1562 2944 
Q 1965 2944 2256 2749 
Q 2547 2554 2547 2285 
Q 2547 2176 2457 2096 
Q 2368 2016 2246 2016 
Q 2022 2016 1939 2310 
L 1901 2451 
Q 1850 2630 1773 2694 
Q 1696 2758 1523 2758 
Q 1133 2758 893 2451 
Q 653 2144 653 1645 
Q 653 1094 928 745 
Q 1203 397 1645 397 
Q 1920 397 2118 528 
Q 2317 659 2547 998 
z
" transform="scale(0.015625)"/>
      <path id="STIXGeneral-Regular-61" d="M 2829 422 
L 2829 243 
Q 2586 -64 2253 -64 
Q 1888 -64 1843 403 
L 1837 403 
Q 1427 -64 909 -64 
Q 608 -64 422 112 
Q 237 288 237 602 
Q 237 1050 685 1350 
Q 992 1555 1837 1869 
L 1837 2214 
Q 1837 2502 1699 2646 
Q 1562 2790 1338 2790 
Q 1146 2790 1018 2697 
Q 890 2605 890 2477 
Q 890 2419 909 2348 
Q 928 2278 928 2208 
Q 928 2112 841 2029 
Q 755 1946 634 1946 
Q 525 1946 441 2029 
Q 358 2112 358 2240 
Q 358 2547 685 2752 
Q 986 2944 1421 2944 
Q 1939 2944 2176 2656 
Q 2291 2522 2323 2384 
Q 2355 2246 2355 1946 
L 2355 723 
Q 2355 301 2554 301 
Q 2682 301 2829 422 
z
M 1837 813 
L 1837 1715 
Q 1248 1510 1018 1293 
Q 800 1094 800 800 
Q 800 557 921 432 
Q 1043 307 1242 307 
Q 1453 307 1613 410 
Q 1747 506 1792 589 
Q 1837 672 1837 813 
z
" transform="scale(0.015625)"/>
      <path id="STIXGeneral-Regular-2a" d="M 1715 3014 
L 1773 2976 
Q 2010 2822 2387 2758 
Q 2605 2726 2688 2665 
Q 2771 2605 2771 2483 
Q 2771 2374 2707 2304 
Q 2643 2234 2541 2234 
Q 2381 2234 2157 2515 
Q 2010 2694 1715 2886 
L 1664 2918 
L 1664 2861 
Q 1664 2502 1792 2157 
Q 1850 1997 1850 1946 
Q 1850 1850 1770 1773 
Q 1690 1696 1594 1696 
Q 1504 1696 1433 1766 
Q 1363 1837 1363 1926 
Q 1363 2016 1440 2227 
Q 1542 2502 1542 2861 
L 1542 2918 
Q 1286 2758 1210 2688 
Q 1133 2611 947 2400 
Q 806 2240 672 2240 
Q 563 2240 499 2304 
Q 435 2368 435 2470 
Q 435 2592 528 2656 
Q 621 2720 838 2758 
Q 1062 2803 1180 2848 
Q 1299 2893 1498 3014 
Q 1222 3181 877 3251 
Q 640 3302 544 3366 
Q 448 3430 448 3546 
Q 448 3648 505 3715 
Q 563 3782 659 3782 
Q 787 3782 973 3578 
Q 1242 3277 1542 3110 
L 1542 3194 
Q 1542 3456 1446 3776 
Q 1376 3987 1376 4109 
Q 1376 4198 1443 4262 
Q 1510 4326 1606 4326 
Q 1702 4326 1772 4259 
Q 1843 4192 1843 4096 
Q 1843 3994 1773 3795 
Q 1664 3507 1664 3264 
L 1664 3110 
Q 1882 3238 2035 3379 
Q 2067 3411 2153 3504 
Q 2240 3597 2291 3648 
Q 2342 3699 2409 3747 
Q 2477 3795 2528 3795 
Q 2637 3795 2701 3728 
Q 2765 3661 2765 3552 
Q 2765 3424 2691 3363 
Q 2618 3302 2432 3277 
Q 2074 3219 1715 3014 
z
" transform="scale(0.015625)"/>
      <path id="SimSun-7684" d="M 1125 3775 
L 1125 2175 
L 2425 2175 
L 2425 3775 
L 1125 3775 
z
M 1125 2025 
L 1125 275 
L 2425 275 
L 2425 2025 
L 1125 2025 
z
M 2750 3625 
Q 2750 700 2775 -200 
L 2425 -400 
L 2425 125 
L 1125 125 
L 1125 -300 
L 775 -500 
Q 800 675 800 1837 
Q 800 3000 775 4150 
L 1150 3925 
L 1400 3925 
Q 1650 4775 1675 5225 
L 2225 4925 
Q 1975 4800 1550 3925 
L 2375 3925 
L 2625 4175 
L 3000 3800 
L 2750 3625 
z
M 3975 5200 
L 4525 4875 
Q 4325 4750 3900 3850 
L 5250 3850 
L 5525 4125 
L 5900 3750 
L 5675 3575 
Q 5625 650 5537 262 
Q 5450 -125 5287 -275 
Q 5125 -425 4775 -550 
Q 4650 -150 3950 50 
L 3950 175 
Q 4575 50 4850 50 
Q 5125 50 5187 475 
Q 5250 900 5300 3700 
L 3850 3700 
Q 3400 2975 2900 2475 
L 2825 2525 
Q 3350 3325 3600 3950 
Q 3850 4575 3975 5200 
z
M 3525 2750 
Q 4125 2300 4225 2087 
Q 4325 1875 4325 1775 
Q 4325 1600 4225 1475 
Q 4125 1350 4075 1350 
Q 3975 1350 3925 1700 
Q 3825 2200 3475 2675 
L 3525 2750 
z
" transform="scale(0.015625)"/>
      <path id="SimSun-968f" d="M 2175 4225 
L 2250 4275 
Q 2800 3825 2850 3625 
Q 2900 3425 2775 3300 
Q 2650 3175 2600 3175 
Q 2500 3175 2475 3425 
Q 2425 3800 2175 4225 
z
M 6050 0 
L 6050 -100 
Q 5650 -175 5625 -475 
Q 4975 -450 4487 -425 
Q 4000 -400 3650 -262 
Q 3300 -125 3050 150 
Q 2875 300 2750 300 
Q 2650 300 2487 162 
Q 2325 25 2125 -375 
L 1750 -100 
Q 2100 175 2575 450 
L 2575 2300 
Q 2525 2300 2250 2225 
L 2025 2450 
L 2550 2450 
L 2700 2650 
L 3075 2375 
L 2875 2225 
L 2875 475 
Q 3325 75 3762 0 
Q 4200 -75 4725 -62 
Q 5250 -50 6050 0 
z
M 600 4900 
L 950 4675 
L 1700 4675 
L 1900 4900 
L 2300 4625 
L 2075 4450 
L 1475 3000 
Q 1650 2775 1900 2475 
Q 2125 2175 2162 1975 
Q 2200 1775 2200 1650 
Q 2200 1400 2075 1150 
Q 1950 900 1400 800 
Q 1400 1075 950 1250 
L 950 -475 
L 600 -650 
Q 625 0 625 2175 
Q 625 4350 600 4900 
z
M 1300 3000 
L 1725 4525 
L 950 4525 
L 950 1350 
Q 1275 1275 1425 1275 
Q 1600 1275 1725 1350 
Q 1850 1425 1850 1675 
Q 1850 1825 1812 2100 
Q 1775 2375 1300 3000 
z
M 3900 3250 
L 3900 2600 
L 5150 2600 
L 5150 3250 
L 3900 3250 
z
M 3575 250 
Q 3600 725 3600 3200 
Q 3350 2875 3000 2625 
L 2950 2675 
Q 3525 3325 3850 4175 
L 3600 4175 
Q 3275 4175 3000 4100 
L 2775 4325 
L 3900 4325 
Q 4100 4925 4100 5150 
L 4600 4900 
Q 4425 4800 4225 4325 
L 5325 4325 
L 5625 4625 
L 6025 4175 
L 4175 4175 
Q 4025 3825 3825 3475 
L 3925 3400 
L 5100 3400 
L 5250 3625 
L 5650 3350 
L 5475 3200 
L 5475 875 
Q 5525 425 5025 275 
Q 5025 550 4525 650 
L 4525 750 
Q 4950 725 5050 725 
Q 5150 725 5150 900 
L 5150 1650 
L 3900 1650 
L 3900 400 
L 3575 250 
z
M 3900 2450 
L 3900 1800 
L 5150 1800 
L 5150 2450 
L 3900 2450 
z
" transform="scale(0.015625)"/>
      <path id="SimSun-53d8" d="M 2750 4225 
L 2750 2225 
L 3650 2225 
L 3650 4225 
L 2750 4225 
z
M 375 4375 
L 3100 4375 
Q 3050 4750 2650 5200 
L 2700 5275 
Q 3150 5075 3325 4925 
Q 3500 4775 3500 4700 
Q 3500 4550 3300 4375 
L 5125 4375 
L 5525 4775 
L 6075 4225 
L 4000 4225 
L 4000 2225 
L 4425 2225 
L 4675 2500 
L 5100 2100 
L 4825 1975 
Q 4300 1325 3525 650 
Q 4500 -50 6125 -175 
L 6125 -275 
Q 5750 -325 5625 -575 
Q 4175 -250 3300 450 
Q 2150 -300 350 -600 
L 325 -500 
Q 2050 -100 3075 675 
Q 2525 1250 2100 2075 
L 1650 2075 
L 1375 2025 
L 1175 2225 
L 2400 2225 
L 2400 4225 
L 1200 4225 
Q 875 4225 600 4150 
L 375 4375 
z
M 2275 2075 
Q 2725 1350 3300 850 
Q 3800 1300 4425 2075 
L 2275 2075 
z
M 1675 3850 
L 2125 3450 
L 1875 3350 
Q 1150 2575 325 1950 
L 250 2025 
Q 700 2425 1087 2937 
Q 1475 3450 1675 3850 
z
M 4350 3700 
Q 5675 3050 5812 2875 
Q 5950 2700 5950 2575 
Q 5950 2475 5900 2375 
Q 5850 2275 5800 2275 
Q 5700 2275 5500 2550 
Q 5200 2950 4275 3625 
L 4350 3700 
z
" transform="scale(0.015625)"/>
      <path id="SimSun-5316" d="M 1375 -600 
Q 1400 200 1400 925 
L 1400 3125 
Q 850 2300 350 1775 
L 275 1850 
Q 825 2625 1300 3650 
Q 1775 4675 1900 5200 
L 2450 4875 
L 2200 4725 
Q 1875 4000 1600 3475 
L 1950 3275 
L 1750 3075 
L 1750 350 
Q 1750 75 1775 -400 
L 1375 -600 
z
M 3450 2125 
L 3450 3925 
Q 3450 4475 3425 5200 
L 4000 4925 
L 3800 4725 
L 3800 2400 
Q 4150 2725 4562 3225 
Q 4975 3725 5150 4025 
L 5600 3600 
L 5325 3525 
Q 4600 2700 3800 2000 
L 3800 425 
Q 3800 0 4225 0 
L 5300 0 
Q 5500 0 5550 325 
Q 5600 650 5600 1325 
L 5725 1325 
Q 5775 650 5850 425 
Q 5925 200 6125 125 
Q 5900 -325 5400 -325 
L 4075 -325 
Q 3450 -325 3450 250 
L 3450 1775 
Q 2800 1275 1950 925 
L 1925 1025 
Q 2800 1525 3450 2125 
z
" transform="scale(0.015625)"/>
      <path id="SimSun-8d8b" d="M 3900 5225 
L 4425 4900 
L 4225 4825 
Q 4000 4475 3800 4150 
L 4750 4150 
L 4975 4425 
L 5400 4025 
Q 5100 4000 4475 3075 
L 5350 3075 
L 5500 3325 
L 5900 3050 
L 5725 2875 
Q 5725 1050 5750 525 
L 5400 375 
L 5400 800 
L 3725 800 
Q 3525 800 3250 725 
L 3025 950 
L 5400 950 
L 5400 1900 
L 4050 1900 
Q 3850 1900 3575 1825 
L 3350 2050 
L 5400 2050 
L 5400 2925 
L 3900 2925 
Q 3700 2925 3425 2850 
L 3200 3075 
L 4350 3075 
L 4775 4000 
L 3725 4000 
Q 3450 3625 3000 3200 
L 2950 3250 
Q 3650 4250 3900 5225 
z
M 300 -550 
L 225 -500 
Q 675 275 787 1112 
Q 900 1950 850 2425 
L 1400 2150 
Q 1250 2075 1212 1812 
Q 1175 1550 1125 1075 
Q 1500 750 1725 625 
L 1725 2825 
L 950 2825 
Q 750 2825 475 2750 
L 250 2975 
L 1600 2975 
L 1600 4025 
L 1225 4025 
Q 1025 4025 750 3950 
L 525 4175 
L 1600 4175 
Q 1600 4675 1575 5225 
L 2125 4975 
L 1925 4800 
L 1925 4175 
L 2400 4175 
L 2700 4475 
L 3100 4025 
L 1925 4025 
L 1925 2975 
L 2475 2975 
L 2800 3275 
L 3200 2825 
L 1750 2825 
L 2250 2600 
L 2050 2400 
L 2050 1800 
L 2625 1800 
L 2925 2100 
L 3300 1650 
L 2050 1650 
L 2050 425 
Q 2925 25 3737 0 
Q 4550 -25 4925 -25 
Q 5625 -25 6150 25 
L 6150 -50 
Q 5700 -250 5700 -475 
Q 4950 -500 4012 -412 
Q 3075 -325 2325 -12 
Q 1575 300 1100 900 
Q 775 -25 300 -550 
z
" transform="scale(0.015625)"/>
      <path id="SimSun-52bf" d="M 1650 4175 
Q 1650 4775 1625 5200 
L 2150 4950 
L 1975 4800 
L 1975 4175 
L 2200 4175 
L 2475 4450 
L 2900 4025 
L 1975 4025 
L 1975 3425 
Q 2400 3525 2800 3625 
L 2825 3525 
Q 2400 3375 1975 3225 
L 1975 2150 
Q 2000 1800 1475 1575 
Q 1450 1850 800 2025 
L 800 2150 
Q 1225 2100 1437 2087 
Q 1650 2075 1650 2325 
L 1650 3100 
Q 700 2750 700 2650 
L 400 3100 
Q 575 3100 1650 3350 
L 1650 4025 
L 1300 4025 
Q 975 4025 700 3950 
L 475 4175 
L 1650 4175 
z
M 3650 4175 
L 3650 4525 
Q 3650 4875 3625 5225 
L 4175 4975 
L 3975 4800 
L 3975 4200 
L 4700 4250 
L 4850 4475 
L 5200 4200 
L 5025 4050 
Q 5000 3900 5000 3575 
Q 5000 3225 5050 2812 
Q 5100 2400 5425 2175 
Q 5600 2650 5700 3050 
L 5800 3025 
Q 5725 2525 5725 2250 
Q 5725 1975 5825 1775 
Q 5900 1650 5775 1650 
Q 5725 1650 5475 1750 
Q 5225 1850 5012 2137 
Q 4800 2425 4737 2750 
Q 4675 3075 4675 3475 
Q 4675 3850 4700 4100 
L 3975 4050 
Q 3925 3450 3750 3050 
Q 4100 2900 4262 2787 
Q 4425 2675 4387 2475 
Q 4350 2275 4275 2275 
Q 4225 2275 4125 2400 
Q 3925 2625 3625 2825 
Q 3225 2225 2100 1800 
L 2050 1875 
Q 3075 2400 3375 2975 
Q 3225 3100 2850 3300 
L 2900 3375 
Q 3225 3275 3475 3175 
Q 3600 3500 3650 4025 
L 3300 4000 
L 3125 3925 
L 2875 4125 
L 3650 4175 
z
M 2600 1425 
Q 2675 1700 2700 2025 
L 3175 1775 
L 3000 1650 
L 2950 1425 
L 4725 1425 
L 4875 1675 
L 5325 1375 
L 5125 1225 
Q 5050 400 4987 112 
Q 4925 -175 4750 -350 
Q 4575 -525 4225 -600 
Q 4250 -350 3650 -50 
L 3675 50 
Q 4225 -100 4412 -87 
Q 4600 -75 4675 312 
Q 4750 700 4775 1275 
L 2925 1275 
Q 2800 775 2575 450 
Q 2350 125 1875 -162 
Q 1400 -450 450 -650 
L 400 -550 
Q 1500 -225 1950 200 
Q 2400 625 2575 1275 
L 1450 1275 
Q 1125 1275 850 1200 
L 625 1425 
L 2600 1425 
z
" transform="scale(0.015625)"/>
     </defs>
     <use xlink:href="#STIXGeneral-Regular-70" transform="translate(0 0.578125)"/>
     <use xlink:href="#STIXGeneral-Regular-72" transform="translate(49.999985 0.578125)"/>
     <use xlink:href="#STIXGeneral-Regular-6f" transform="translate(83.299973 0.578125)"/>
     <use xlink:href="#STIXGeneral-Regular-74" transform="translate(133.299957 0.578125)"/>
     <use xlink:href="#STIXGeneral-Regular-6f" transform="translate(161.099945 0.578125)"/>
     <use xlink:href="#STIXGeneral-Regular-26" transform="translate(235.16635 0.578125)"/>
     <use xlink:href="#STIXGeneral-Regular-6d" transform="translate(337.032757 0.578125)"/>
     <use xlink:href="#STIXGeneral-Regular-69" transform="translate(414.832745 0.578125)"/>
     <use xlink:href="#STIXGeneral-Regular-63" transform="translate(442.632733 0.578125)"/>
     <use xlink:href="#STIXGeneral-Regular-61" transform="translate(487.032727 0.578125)"/>
     <use xlink:href="#STIXGeneral-Regular-2a" transform="translate(545.872717 0.578125)"/>
     <use xlink:href="#SimSun-7684" transform="translate(610.312698 0.578125)"/>
     <use xlink:href="#SimSun-8bfb" transform="translate(710.312698 0.578125)"/>
     <use xlink:href="#SimSun-53d6" transform="translate(810.312698 0.578125)"/>
     <use xlink:href="#SimSun-547d" transform="translate(910.312698 0.578125)"/>
     <use xlink:href="#SimSun-4e2d" transform="translate(1010.312698 0.578125)"/>
     <use xlink:href="#SimSun-7387" transform="translate(1110.312698 0.578125)"/>
     <use xlink:href="#SimSun-968f" transform="translate(1210.312698 0.578125)"/>
     <use xlink:href="#SimSun-65f6" transform="translate(1310.312698 0.578125)"/>
     <use xlink:href="#SimSun-95f4" transform="translate(1410.312698 0.578125)"/>
     <use xlink:href="#SimSun-7684" transform="translate(1510.312698 0.578125)"/>
     <use xlink:href="#SimSun-53d8" transform="translate(1610.312698 0.578125)"/>
     <use xlink:href="#SimSun-5316" transform="translate(1710.312698 0.578125)"/>
     <use xlink:href="#SimSun-8d8b" transform="translate(1810.312698 0.578125)"/>
     <use xlink:href="#SimSun-52bf" transform="translate(1910.312698 0.578125)"/>
    </g>
   </g>
   <g id="legend_1">
    <g id="patch_7">
     <path d="M 715.235156 131.136437 
L 816.14 131.136437 
Q 819.94 131.136437 819.94 127.336437 
L 819.94 75.508 
Q 819.94 71.708 816.14 71.708 
L 715.235156 71.708 
Q 711.435156 71.708 711.435156 75.508 
L 711.435156 127.336437 
Q 711.435156 131.136437 715.235156 131.136437 
z
" style="fill: #ffffff; opacity: 0.8; stroke: #cccccc; stroke-linejoin: miter"/>
    </g>
    <g id="line2d_19">
     <path d="M 719.035156 85.958 
L 738.035156 85.958 
L 757.035156 85.958 
" style="fill: none; stroke: #ff0000; stroke-width: 1.5; stroke-linecap: square"/>
    </g>
    <g id="text_20">
     <!-- mica -->
     <g transform="translate(772.235156 92.608) scale(0.19 -0.19)">
      <defs>
       <path id="TimesNewRomanPSMT-6d" d="M 1050 2338 
Q 1363 2650 1419 2697 
Q 1559 2816 1721 2881 
Q 1884 2947 2044 2947 
Q 2313 2947 2506 2790 
Q 2700 2634 2766 2338 
Q 3088 2713 3309 2830 
Q 3531 2947 3766 2947 
Q 3994 2947 4170 2830 
Q 4347 2713 4450 2447 
Q 4519 2266 4519 1878 
L 4519 647 
Q 4519 378 4559 278 
Q 4591 209 4675 161 
Q 4759 113 4950 113 
L 4950 0 
L 3538 0 
L 3538 113 
L 3597 113 
Q 3781 113 3884 184 
Q 3956 234 3988 344 
Q 4000 397 4000 647 
L 4000 1878 
Q 4000 2228 3916 2372 
Q 3794 2572 3525 2572 
Q 3359 2572 3192 2489 
Q 3025 2406 2788 2181 
L 2781 2147 
L 2788 2013 
L 2788 647 
Q 2788 353 2820 281 
Q 2853 209 2943 161 
Q 3034 113 3253 113 
L 3253 0 
L 1806 0 
L 1806 113 
Q 2044 113 2133 169 
Q 2222 225 2256 338 
Q 2272 391 2272 647 
L 2272 1878 
Q 2272 2228 2169 2381 
Q 2031 2581 1784 2581 
Q 1616 2581 1450 2491 
Q 1191 2353 1050 2181 
L 1050 647 
Q 1050 366 1089 281 
Q 1128 197 1204 155 
Q 1281 113 1516 113 
L 1516 0 
L 100 0 
L 100 113 
Q 297 113 375 155 
Q 453 197 493 289 
Q 534 381 534 647 
L 534 1741 
Q 534 2213 506 2350 
Q 484 2453 437 2492 
Q 391 2531 309 2531 
Q 222 2531 100 2484 
L 53 2597 
L 916 2947 
L 1050 2947 
L 1050 2338 
z
" transform="scale(0.015625)"/>
       <path id="TimesNewRomanPSMT-69" d="M 928 4444 
Q 1059 4444 1151 4351 
Q 1244 4259 1244 4128 
Q 1244 3997 1151 3903 
Q 1059 3809 928 3809 
Q 797 3809 703 3903 
Q 609 3997 609 4128 
Q 609 4259 701 4351 
Q 794 4444 928 4444 
z
M 1188 2947 
L 1188 647 
Q 1188 378 1227 289 
Q 1266 200 1342 156 
Q 1419 113 1622 113 
L 1622 0 
L 231 0 
L 231 113 
Q 441 113 512 153 
Q 584 194 626 287 
Q 669 381 669 647 
L 669 1750 
Q 669 2216 641 2353 
Q 619 2453 572 2492 
Q 525 2531 444 2531 
Q 356 2531 231 2484 
L 188 2597 
L 1050 2947 
L 1188 2947 
z
" transform="scale(0.015625)"/>
       <path id="TimesNewRomanPSMT-63" d="M 2631 1088 
Q 2516 522 2178 217 
Q 1841 -88 1431 -88 
Q 944 -88 581 321 
Q 219 731 219 1428 
Q 219 2103 620 2525 
Q 1022 2947 1584 2947 
Q 2006 2947 2278 2723 
Q 2550 2500 2550 2259 
Q 2550 2141 2473 2067 
Q 2397 1994 2259 1994 
Q 2075 1994 1981 2113 
Q 1928 2178 1911 2362 
Q 1894 2547 1784 2644 
Q 1675 2738 1481 2738 
Q 1169 2738 978 2506 
Q 725 2200 725 1697 
Q 725 1184 976 792 
Q 1228 400 1656 400 
Q 1963 400 2206 609 
Q 2378 753 2541 1131 
L 2631 1088 
z
" transform="scale(0.015625)"/>
       <path id="TimesNewRomanPSMT-61" d="M 1822 413 
Q 1381 72 1269 19 
Q 1100 -59 909 -59 
Q 613 -59 420 144 
Q 228 347 228 678 
Q 228 888 322 1041 
Q 450 1253 767 1440 
Q 1084 1628 1822 1897 
L 1822 2009 
Q 1822 2438 1686 2597 
Q 1550 2756 1291 2756 
Q 1094 2756 978 2650 
Q 859 2544 859 2406 
L 866 2225 
Q 866 2081 792 2003 
Q 719 1925 600 1925 
Q 484 1925 411 2006 
Q 338 2088 338 2228 
Q 338 2497 613 2722 
Q 888 2947 1384 2947 
Q 1766 2947 2009 2819 
Q 2194 2722 2281 2516 
Q 2338 2381 2338 1966 
L 2338 994 
Q 2338 584 2353 492 
Q 2369 400 2405 369 
Q 2441 338 2488 338 
Q 2538 338 2575 359 
Q 2641 400 2828 588 
L 2828 413 
Q 2478 -56 2159 -56 
Q 2006 -56 1915 50 
Q 1825 156 1822 413 
z
M 1822 616 
L 1822 1706 
Q 1350 1519 1213 1441 
Q 966 1303 859 1153 
Q 753 1003 753 825 
Q 753 600 887 451 
Q 1022 303 1197 303 
Q 1434 303 1822 616 
z
" transform="scale(0.015625)"/>
      </defs>
      <use xlink:href="#TimesNewRomanPSMT-6d"/>
      <use xlink:href="#TimesNewRomanPSMT-69" x="77.783203"/>
      <use xlink:href="#TimesNewRomanPSMT-63" x="105.566406"/>
      <use xlink:href="#TimesNewRomanPSMT-61" x="149.951172"/>
     </g>
    </g>
    <g id="line2d_20">
     <path d="M 719.035156 112.822219 
L 738.035156 112.822219 
L 757.035156 112.822219 
" style="fill: none; stroke: #0000ff; stroke-width: 1.5; stroke-linecap: square"/>
    </g>
    <g id="text_21">
     <!-- proto -->
     <g transform="translate(772.235156 119.472219) scale(0.19 -0.19)">
      <defs>
       <path id="TimesNewRomanPSMT-70" d="M -6 2578 
L 875 2934 
L 994 2934 
L 994 2266 
Q 1216 2644 1439 2795 
Q 1663 2947 1909 2947 
Q 2341 2947 2628 2609 
Q 2981 2197 2981 1534 
Q 2981 794 2556 309 
Q 2206 -88 1675 -88 
Q 1444 -88 1275 -22 
Q 1150 25 994 166 
L 994 -706 
Q 994 -1000 1030 -1079 
Q 1066 -1159 1155 -1206 
Q 1244 -1253 1478 -1253 
L 1478 -1369 
L -22 -1369 
L -22 -1253 
L 56 -1253 
Q 228 -1256 350 -1188 
Q 409 -1153 442 -1076 
Q 475 -1000 475 -688 
L 475 2019 
Q 475 2297 450 2372 
Q 425 2447 370 2484 
Q 316 2522 222 2522 
Q 147 2522 31 2478 
L -6 2578 
z
M 994 2081 
L 994 1013 
Q 994 666 1022 556 
Q 1066 375 1236 237 
Q 1406 100 1666 100 
Q 1978 100 2172 344 
Q 2425 663 2425 1241 
Q 2425 1897 2138 2250 
Q 1938 2494 1663 2494 
Q 1513 2494 1366 2419 
Q 1253 2363 994 2081 
z
" transform="scale(0.015625)"/>
       <path id="TimesNewRomanPSMT-72" d="M 1038 2947 
L 1038 2303 
Q 1397 2947 1775 2947 
Q 1947 2947 2059 2842 
Q 2172 2738 2172 2600 
Q 2172 2478 2090 2393 
Q 2009 2309 1897 2309 
Q 1788 2309 1652 2417 
Q 1516 2525 1450 2525 
Q 1394 2525 1328 2463 
Q 1188 2334 1038 2041 
L 1038 669 
Q 1038 431 1097 309 
Q 1138 225 1241 169 
Q 1344 113 1538 113 
L 1538 0 
L 72 0 
L 72 113 
Q 291 113 397 181 
Q 475 231 506 341 
Q 522 394 522 644 
L 522 1753 
Q 522 2253 501 2348 
Q 481 2444 426 2487 
Q 372 2531 291 2531 
Q 194 2531 72 2484 
L 41 2597 
L 906 2947 
L 1038 2947 
z
" transform="scale(0.015625)"/>
       <path id="TimesNewRomanPSMT-6f" d="M 1600 2947 
Q 2250 2947 2644 2453 
Q 2978 2031 2978 1484 
Q 2978 1100 2793 706 
Q 2609 313 2286 112 
Q 1963 -88 1566 -88 
Q 919 -88 538 428 
Q 216 863 216 1403 
Q 216 1797 411 2186 
Q 606 2575 925 2761 
Q 1244 2947 1600 2947 
z
M 1503 2744 
Q 1338 2744 1170 2645 
Q 1003 2547 900 2300 
Q 797 2053 797 1666 
Q 797 1041 1045 587 
Q 1294 134 1700 134 
Q 2003 134 2200 384 
Q 2397 634 2397 1244 
Q 2397 2006 2069 2444 
Q 1847 2744 1503 2744 
z
" transform="scale(0.015625)"/>
       <path id="TimesNewRomanPSMT-74" d="M 1031 3803 
L 1031 2863 
L 1700 2863 
L 1700 2644 
L 1031 2644 
L 1031 788 
Q 1031 509 1111 412 
Q 1191 316 1316 316 
Q 1419 316 1516 380 
Q 1613 444 1666 569 
L 1788 569 
Q 1678 263 1478 108 
Q 1278 -47 1066 -47 
Q 922 -47 784 33 
Q 647 113 581 261 
Q 516 409 516 719 
L 516 2644 
L 63 2644 
L 63 2747 
Q 234 2816 414 2980 
Q 594 3144 734 3369 
Q 806 3488 934 3803 
L 1031 3803 
z
" transform="scale(0.015625)"/>
      </defs>
      <use xlink:href="#TimesNewRomanPSMT-70"/>
      <use xlink:href="#TimesNewRomanPSMT-72" x="50"/>
      <use xlink:href="#TimesNewRomanPSMT-6f" x="83.300781"/>
      <use xlink:href="#TimesNewRomanPSMT-74" x="133.300781"/>
      <use xlink:href="#TimesNewRomanPSMT-6f" x="161.083984"/>
     </g>
    </g>
   </g>
  </g>
 </g>
 <defs>
  <clipPath id="p16c733dcf4">
   <rect x="115.2" y="62.208" width="714.24" height="399.168"/>
  </clipPath>
 </defs>
</svg>
