<?xml version="1.0" encoding="utf-8" standalone="no"?>
<!DOCTYPE svg PUBLIC "-//W3C//DTD SVG 1.1//EN"
  "http://www.w3.org/Graphics/SVG/1.1/DTD/svg11.dtd">
<svg xmlns:xlink="http://www.w3.org/1999/xlink" width="921.6pt" height="518.4pt" viewBox="0 0 921.6 518.4" xmlns="http://www.w3.org/2000/svg" version="1.1">
 <metadata>
  <rdf:RDF xmlns:dc="http://purl.org/dc/elements/1.1/" xmlns:cc="http://creativecommons.org/ns#" xmlns:rdf="http://www.w3.org/1999/02/22-rdf-syntax-ns#">
   <cc:Work>
    <dc:type rdf:resource="http://purl.org/dc/dcmitype/StillImage"/>
    <dc:date>2023-07-04T16:28:35.383469</dc:date>
    <dc:format>image/svg+xml</dc:format>
    <dc:creator>
     <cc:Agent>
      <dc:title>Matplotlib v3.7.1, https://matplotlib.org/</dc:title>
     </cc:Agent>
    </dc:creator>
   </cc:Work>
  </rdf:RDF>
 </metadata>
 <defs>
  <style type="text/css">*{stroke-linejoin: round; stroke-linecap: butt}</style>
 </defs>
 <g id="figure_1">
  <g id="patch_1">
   <path d="M 0 518.4 
L 921.6 518.4 
L 921.6 0 
L 0 0 
z
" style="fill: #ffffff"/>
  </g>
  <g id="axes_1">
   <g id="patch_2">
    <path d="M 115.2 461.376 
L 829.44 461.376 
L 829.44 62.208 
L 115.2 62.208 
z
" style="fill: #ffffff"/>
   </g>
   <g id="matplotlib.axis_1">
    <g id="xtick_1">
     <g id="line2d_1">
      <defs>
       <path id="m6065fb0985" d="M 0 0 
L 0 3.5 
" style="stroke: #000000; stroke-width: 0.8"/>
      </defs>
      <g>
       <use xlink:href="#m6065fb0985" x="115.2" y="461.376" style="stroke: #000000; stroke-width: 0.8"/>
      </g>
     </g>
     <g id="text_1">
      <!-- 0 -->
      <g transform="translate(110.45 481.958031) scale(0.19 -0.19)">
       <defs>
        <path id="SimSun-30" d="M 1600 4225 
Q 1250 4225 1012 3687 
Q 775 3150 775 2250 
Q 775 1300 1012 775 
Q 1250 250 1600 250 
Q 1975 250 2187 775 
Q 2400 1300 2400 2250 
Q 2400 3150 2200 3687 
Q 2000 4225 1600 4225 
z
M 1600 50 
Q 1050 50 675 625 
Q 300 1200 300 2250 
Q 300 3225 662 3825 
Q 1025 4425 1600 4425 
Q 2150 4425 2512 3850 
Q 2875 3275 2875 2250 
Q 2875 1225 2512 637 
Q 2150 50 1600 50 
z
" transform="scale(0.015625)"/>
       </defs>
       <use xlink:href="#SimSun-30"/>
      </g>
     </g>
    </g>
    <g id="xtick_2">
     <g id="line2d_2">
      <g>
       <use xlink:href="#m6065fb0985" x="217.234286" y="461.376" style="stroke: #000000; stroke-width: 0.8"/>
      </g>
     </g>
     <g id="text_2">
      <!-- 200 -->
      <g transform="translate(202.984286 481.958031) scale(0.19 -0.19)">
       <defs>
        <path id="SimSun-32" d="M 2325 3325 
Q 2325 3775 2125 4012 
Q 1925 4250 1525 4250 
Q 1225 4250 1012 4087 
Q 800 3925 800 3675 
Q 800 3525 900 3425 
Q 975 3325 975 3225 
Q 975 3100 912 3037 
Q 850 2975 725 2975 
Q 575 2975 487 3062 
Q 400 3150 400 3350 
Q 400 3875 775 4150 
Q 1150 4425 1575 4425 
Q 2175 4425 2462 4125 
Q 2750 3825 2750 3375 
Q 2750 3075 2612 2775 
Q 2475 2475 2175 2200 
Q 1450 1500 1062 1062 
Q 675 625 600 475 
L 2075 475 
Q 2300 475 2450 650 
Q 2600 825 2650 1175 
L 2800 1175 
L 2650 100 
L 325 100 
L 325 425 
Q 450 650 737 1000 
Q 1025 1350 1500 1825 
Q 1925 2250 2125 2625 
Q 2325 3000 2325 3325 
z
" transform="scale(0.015625)"/>
       </defs>
       <use xlink:href="#SimSun-32"/>
       <use xlink:href="#SimSun-30" x="50"/>
       <use xlink:href="#SimSun-30" x="100"/>
      </g>
     </g>
    </g>
    <g id="xtick_3">
     <g id="line2d_3">
      <g>
       <use xlink:href="#m6065fb0985" x="319.268571" y="461.376" style="stroke: #000000; stroke-width: 0.8"/>
      </g>
     </g>
     <g id="text_3">
      <!-- 400 -->
      <g transform="translate(305.018571 481.958031) scale(0.19 -0.19)">
       <defs>
        <path id="SimSun-34" d="M 2300 575 
Q 2300 400 2400 325 
Q 2500 250 2675 250 
L 2900 250 
L 2900 100 
L 1250 100 
L 1250 250 
L 1525 250 
Q 1725 250 1812 325 
Q 1900 400 1900 575 
L 1900 1400 
L 225 1400 
L 225 1525 
L 2050 4425 
L 2300 4425 
L 2300 1550 
L 2975 1550 
L 2975 1400 
L 2300 1400 
L 2300 575 
z
M 1875 3800 
L 450 1550 
L 1900 1550 
L 1900 3800 
L 1875 3800 
z
" transform="scale(0.015625)"/>
       </defs>
       <use xlink:href="#SimSun-34"/>
       <use xlink:href="#SimSun-30" x="50"/>
       <use xlink:href="#SimSun-30" x="100"/>
      </g>
     </g>
    </g>
    <g id="xtick_4">
     <g id="line2d_4">
      <g>
       <use xlink:href="#m6065fb0985" x="421.302857" y="461.376" style="stroke: #000000; stroke-width: 0.8"/>
      </g>
     </g>
     <g id="text_4">
      <!-- 600 -->
      <g transform="translate(407.052857 481.958031) scale(0.19 -0.19)">
       <defs>
        <path id="SimSun-36" d="M 775 1800 
Q 775 1050 1037 637 
Q 1300 225 1675 225 
Q 2050 225 2250 500 
Q 2450 775 2450 1525 
Q 2450 2025 2237 2300 
Q 2025 2575 1725 2575 
Q 1450 2575 1212 2412 
Q 975 2250 775 1800 
z
M 1750 2825 
Q 2350 2825 2612 2425 
Q 2875 2025 2875 1525 
Q 2875 775 2512 412 
Q 2150 50 1675 50 
Q 1000 50 650 562 
Q 300 1075 300 2050 
Q 300 3200 725 3812 
Q 1150 4425 1875 4425 
Q 2225 4425 2437 4225 
Q 2650 4025 2650 3875 
Q 2650 3725 2587 3650 
Q 2525 3575 2375 3575 
Q 2250 3575 2187 3637 
Q 2125 3700 2125 3825 
Q 2125 3875 2150 3925 
Q 2150 3975 2150 4025 
Q 2150 4125 2075 4187 
Q 2000 4250 1800 4250 
Q 1375 4250 1075 3862 
Q 775 3475 775 2175 
Q 925 2500 1187 2662 
Q 1450 2825 1750 2825 
z
" transform="scale(0.015625)"/>
       </defs>
       <use xlink:href="#SimSun-36"/>
       <use xlink:href="#SimSun-30" x="50"/>
       <use xlink:href="#SimSun-30" x="100"/>
      </g>
     </g>
    </g>
    <g id="xtick_5">
     <g id="line2d_5">
      <g>
       <use xlink:href="#m6065fb0985" x="523.337143" y="461.376" style="stroke: #000000; stroke-width: 0.8"/>
      </g>
     </g>
     <g id="text_5">
      <!-- 800 -->
      <g transform="translate(509.087143 481.958031) scale(0.19 -0.19)">
       <defs>
        <path id="SimSun-38" d="M 625 1125 
Q 625 725 887 475 
Q 1150 225 1550 225 
Q 2025 225 2237 475 
Q 2450 725 2450 1100 
Q 2450 1425 2150 1725 
Q 1850 2025 1250 2275 
Q 950 2075 787 1775 
Q 625 1475 625 1125 
z
M 2825 1175 
Q 2825 700 2475 375 
Q 2125 50 1550 50 
Q 1025 50 650 375 
Q 275 700 275 1125 
Q 275 1550 487 1850 
Q 700 2150 1100 2375 
Q 750 2550 562 2812 
Q 375 3075 375 3400 
Q 375 3825 700 4125 
Q 1025 4425 1600 4425 
Q 2125 4425 2450 4125 
Q 2775 3825 2775 3400 
Q 2775 3100 2587 2837 
Q 2400 2575 2000 2375 
Q 2425 2125 2625 1825 
Q 2825 1525 2825 1175 
z
M 2425 3375 
Q 2425 3725 2225 3987 
Q 2025 4250 1600 4250 
Q 1125 4250 925 4000 
Q 725 3750 725 3475 
Q 725 3200 1012 2937 
Q 1300 2675 1825 2475 
Q 2125 2625 2275 2850 
Q 2425 3075 2425 3375 
z
" transform="scale(0.015625)"/>
       </defs>
       <use xlink:href="#SimSun-38"/>
       <use xlink:href="#SimSun-30" x="50"/>
       <use xlink:href="#SimSun-30" x="100"/>
      </g>
     </g>
    </g>
    <g id="xtick_6">
     <g id="line2d_6">
      <g>
       <use xlink:href="#m6065fb0985" x="625.371429" y="461.376" style="stroke: #000000; stroke-width: 0.8"/>
      </g>
     </g>
     <g id="text_6">
      <!-- 1000 -->
      <g transform="translate(606.371429 481.958031) scale(0.19 -0.19)">
       <defs>
        <path id="SimSun-31" d="M 1825 4450 
L 1825 650 
Q 1825 450 1950 350 
Q 2075 250 2300 250 
L 2550 250 
L 2550 100 
L 725 100 
L 725 250 
L 950 250 
Q 1200 250 1312 350 
Q 1425 450 1425 650 
L 1425 3675 
Q 1425 3775 1362 3837 
Q 1300 3900 1175 3900 
L 725 3900 
L 725 4050 
L 950 4050 
Q 1250 4050 1437 4150 
Q 1625 4250 1725 4450 
L 1825 4450 
z
" transform="scale(0.015625)"/>
       </defs>
       <use xlink:href="#SimSun-31"/>
       <use xlink:href="#SimSun-30" x="50"/>
       <use xlink:href="#SimSun-30" x="100"/>
       <use xlink:href="#SimSun-30" x="150"/>
      </g>
     </g>
    </g>
    <g id="xtick_7">
     <g id="line2d_7">
      <g>
       <use xlink:href="#m6065fb0985" x="727.405714" y="461.376" style="stroke: #000000; stroke-width: 0.8"/>
      </g>
     </g>
     <g id="text_7">
      <!-- 1200 -->
      <g transform="translate(708.405714 481.958031) scale(0.19 -0.19)">
       <use xlink:href="#SimSun-31"/>
       <use xlink:href="#SimSun-32" x="50"/>
       <use xlink:href="#SimSun-30" x="100"/>
       <use xlink:href="#SimSun-30" x="150"/>
      </g>
     </g>
    </g>
    <g id="xtick_8">
     <g id="line2d_8">
      <g>
       <use xlink:href="#m6065fb0985" x="829.44" y="461.376" style="stroke: #000000; stroke-width: 0.8"/>
      </g>
     </g>
     <g id="text_8">
      <!-- 1400 -->
      <g transform="translate(810.44 481.958031) scale(0.19 -0.19)">
       <use xlink:href="#SimSun-31"/>
       <use xlink:href="#SimSun-34" x="50"/>
       <use xlink:href="#SimSun-30" x="100"/>
       <use xlink:href="#SimSun-30" x="150"/>
      </g>
     </g>
    </g>
    <g id="text_9">
     <!-- 时间 $\mathrm{(s)}$ -->
     <g transform="translate(438.5 503.98725) scale(0.19 -0.19)">
      <defs>
       <path id="SimSun-65f6" d="M 4500 3600 
Q 4500 4575 4475 5225 
L 5100 4900 
L 4850 4725 
L 4850 3600 
L 5225 3600 
L 5550 3925 
L 6025 3450 
L 4850 3450 
L 4850 100 
Q 4850 -375 4300 -575 
Q 4275 -200 3475 -25 
L 3475 100 
Q 4150 0 4325 25 
Q 4500 50 4500 325 
L 4500 3450 
L 3200 3450 
Q 2875 3450 2600 3375 
L 2375 3600 
L 4500 3600 
z
M 2875 2825 
Q 3525 2375 3637 2200 
Q 3750 2025 3750 1925 
Q 3750 1800 3637 1637 
Q 3525 1475 3475 1475 
Q 3400 1475 3325 1775 
Q 3200 2225 2800 2750 
L 2875 2825 
z
M 925 4150 
L 925 2650 
L 1950 2650 
L 1950 4150 
L 925 4150 
z
M 925 2500 
L 925 900 
L 1950 900 
L 1950 2500 
L 925 2500 
z
M 2300 2000 
Q 2300 800 2325 450 
L 1950 250 
L 1950 750 
L 925 750 
L 925 225 
L 550 25 
Q 575 825 575 2425 
Q 575 4025 550 4500 
L 950 4300 
L 1900 4300 
L 2100 4550 
L 2500 4225 
L 2300 4050 
L 2300 2000 
z
" transform="scale(0.015625)"/>
       <path id="SimSun-95f4" d="M 2150 525 
Q 2175 1325 2175 2112 
Q 2175 2900 2150 3675 
L 2525 3450 
L 3750 3450 
L 4000 3700 
L 4325 3375 
L 4125 3200 
Q 4125 1550 4150 775 
L 3800 575 
L 3800 975 
L 2500 975 
L 2500 700 
L 2150 525 
z
M 2500 3300 
L 2500 2325 
L 3800 2325 
L 3800 3300 
L 2500 3300 
z
M 2500 2175 
L 2500 1125 
L 3800 1125 
L 3800 2175 
L 2500 2175 
z
M 1275 5200 
Q 1850 4825 1950 4675 
Q 2050 4525 2050 4425 
Q 2050 4275 1950 4137 
Q 1850 4000 1825 4000 
Q 1750 4000 1675 4275 
Q 1550 4650 1200 5125 
L 1275 5200 
z
M 1125 425 
Q 1125 25 1150 -375 
L 750 -525 
Q 775 -150 775 1950 
Q 775 4050 750 4425 
L 1350 4125 
L 1125 3975 
L 1125 425 
z
M 4225 125 
Q 5025 0 5125 37 
Q 5225 75 5225 250 
L 5225 4450 
L 3225 4450 
Q 2900 4450 2625 4375 
L 2400 4600 
L 5175 4600 
L 5425 4850 
L 5775 4500 
L 5575 4350 
L 5575 225 
Q 5575 -100 5462 -250 
Q 5350 -400 5000 -550 
Q 4800 -125 4225 25 
L 4225 125 
z
" transform="scale(0.015625)"/>
       <path id="SimSun-20" d="M 0 0 
Q 0 0 0 0 
z
" transform="scale(0.015625)"/>
       <path id="STIXGeneral-Regular-28" d="M 1946 -1030 
L 1869 -1133 
Q 1126 -710 716 32 
Q 307 774 307 1613 
Q 307 3386 1888 4326 
L 1946 4224 
Q 1293 3667 1075 3126 
Q 858 2586 858 1632 
Q 858 685 1082 96 
Q 1306 -493 1946 -1030 
z
" transform="scale(0.015625)"/>
       <path id="STIXGeneral-Regular-73" d="M 998 1926 
L 1664 1523 
Q 1984 1331 2105 1164 
Q 2227 998 2227 736 
Q 2227 416 1961 176 
Q 1696 -64 1331 -64 
Q 1030 -64 864 -6 
Q 691 51 570 51 
Q 461 51 416 -26 
L 333 -26 
L 333 979 
L 435 979 
Q 538 512 730 294 
Q 922 77 1248 77 
Q 1485 77 1632 211 
Q 1779 346 1779 550 
Q 1779 845 1440 1030 
L 1094 1222 
Q 326 1651 326 2150 
Q 326 2522 566 2730 
Q 806 2938 1210 2938 
Q 1491 2938 1638 2867 
Q 1754 2816 1818 2816 
Q 1862 2816 1920 2880 
L 1990 2880 
L 2022 2010 
L 1926 2010 
Q 1818 2445 1654 2621 
Q 1491 2797 1203 2797 
Q 986 2797 854 2688 
Q 723 2579 723 2362 
Q 723 2253 796 2128 
Q 870 2003 998 1926 
z
" transform="scale(0.015625)"/>
       <path id="STIXGeneral-Regular-29" d="M 186 4224 
L 262 4326 
Q 992 3891 1408 3148 
Q 1824 2406 1824 1581 
Q 1824 -166 243 -1133 
L 186 -1030 
Q 845 -486 1059 54 
Q 1274 595 1274 1562 
Q 1274 2534 1059 3120 
Q 845 3706 186 4224 
z
" transform="scale(0.015625)"/>
      </defs>
      <use xlink:href="#SimSun-65f6" transform="translate(0 0.359375)"/>
      <use xlink:href="#SimSun-95f4" transform="translate(100 0.359375)"/>
      <use xlink:href="#SimSun-20" transform="translate(200 0.359375)"/>
      <use xlink:href="#STIXGeneral-Regular-28" transform="translate(250 0.359375)"/>
      <use xlink:href="#STIXGeneral-Regular-73" transform="translate(283.299988 0.359375)"/>
      <use xlink:href="#STIXGeneral-Regular-29" transform="translate(322.199982 0.359375)"/>
     </g>
    </g>
   </g>
   <g id="matplotlib.axis_2">
    <g id="ytick_1">
     <g id="line2d_9">
      <defs>
       <path id="m5de5daeb89" d="M 0 0 
L -3.5 0 
" style="stroke: #000000; stroke-width: 0.8"/>
      </defs>
      <g>
       <use xlink:href="#m5de5daeb89" x="115.2" y="461.376" style="stroke: #000000; stroke-width: 0.8"/>
      </g>
     </g>
     <g id="text_10">
      <!-- 0 -->
      <g transform="translate(98.7 468.167016) scale(0.19 -0.19)">
       <use xlink:href="#SimSun-30"/>
      </g>
     </g>
    </g>
    <g id="ytick_2">
     <g id="line2d_10">
      <g>
       <use xlink:href="#m5de5daeb89" x="115.2" y="394.848" style="stroke: #000000; stroke-width: 0.8"/>
      </g>
     </g>
     <g id="text_11">
      <!-- 0.5 -->
      <g transform="translate(79.7 401.639016) scale(0.19 -0.19)">
       <defs>
        <path id="SimSun-2e" d="M 800 25 
Q 650 25 537 125 
Q 425 225 425 400 
Q 425 575 537 675 
Q 650 775 800 775 
Q 950 775 1062 662 
Q 1175 550 1175 400 
Q 1175 225 1062 125 
Q 950 25 800 25 
z
" transform="scale(0.015625)"/>
        <path id="SimSun-35" d="M 1725 2850 
Q 2200 2850 2500 2487 
Q 2800 2125 2800 1525 
Q 2800 850 2487 450 
Q 2175 50 1525 50 
Q 1075 50 725 312 
Q 375 575 375 950 
Q 375 1100 462 1212 
Q 550 1325 700 1325 
Q 850 1325 900 1225 
Q 950 1125 950 1050 
Q 950 900 875 825 
Q 800 725 800 625 
Q 800 425 1037 325 
Q 1275 225 1550 225 
Q 1950 225 2162 550 
Q 2375 875 2375 1475 
Q 2375 1975 2187 2287 
Q 2000 2600 1625 2600 
Q 1350 2600 1150 2500 
Q 950 2400 775 2075 
L 550 2100 
L 675 4375 
L 2725 4375 
L 2650 4000 
L 850 4000 
L 750 2350 
Q 1000 2700 1237 2775 
Q 1475 2850 1725 2850 
z
" transform="scale(0.015625)"/>
       </defs>
       <use xlink:href="#SimSun-30"/>
       <use xlink:href="#SimSun-2e" x="50"/>
       <use xlink:href="#SimSun-35" x="100"/>
      </g>
     </g>
    </g>
    <g id="ytick_3">
     <g id="line2d_11">
      <g>
       <use xlink:href="#m5de5daeb89" x="115.2" y="328.32" style="stroke: #000000; stroke-width: 0.8"/>
      </g>
     </g>
     <g id="text_12">
      <!-- 1.0 -->
      <g transform="translate(79.7 335.111016) scale(0.19 -0.19)">
       <use xlink:href="#SimSun-31"/>
       <use xlink:href="#SimSun-2e" x="50"/>
       <use xlink:href="#SimSun-30" x="100"/>
      </g>
     </g>
    </g>
    <g id="ytick_4">
     <g id="line2d_12">
      <g>
       <use xlink:href="#m5de5daeb89" x="115.2" y="261.792" style="stroke: #000000; stroke-width: 0.8"/>
      </g>
     </g>
     <g id="text_13">
      <!-- 1.5 -->
      <g transform="translate(79.7 268.583016) scale(0.19 -0.19)">
       <use xlink:href="#SimSun-31"/>
       <use xlink:href="#SimSun-2e" x="50"/>
       <use xlink:href="#SimSun-35" x="100"/>
      </g>
     </g>
    </g>
    <g id="ytick_5">
     <g id="line2d_13">
      <g>
       <use xlink:href="#m5de5daeb89" x="115.2" y="195.264" style="stroke: #000000; stroke-width: 0.8"/>
      </g>
     </g>
     <g id="text_14">
      <!-- 2.0 -->
      <g transform="translate(79.7 202.055016) scale(0.19 -0.19)">
       <use xlink:href="#SimSun-32"/>
       <use xlink:href="#SimSun-2e" x="50"/>
       <use xlink:href="#SimSun-30" x="100"/>
      </g>
     </g>
    </g>
    <g id="ytick_6">
     <g id="line2d_14">
      <g>
       <use xlink:href="#m5de5daeb89" x="115.2" y="128.736" style="stroke: #000000; stroke-width: 0.8"/>
      </g>
     </g>
     <g id="text_15">
      <!-- 2.5 -->
      <g transform="translate(79.7 135.527016) scale(0.19 -0.19)">
       <use xlink:href="#SimSun-32"/>
       <use xlink:href="#SimSun-2e" x="50"/>
       <use xlink:href="#SimSun-35" x="100"/>
      </g>
     </g>
    </g>
    <g id="ytick_7">
     <g id="line2d_15">
      <g>
       <use xlink:href="#m5de5daeb89" x="115.2" y="62.208" style="stroke: #000000; stroke-width: 0.8"/>
      </g>
     </g>
     <g id="text_16">
      <!-- 3.0 -->
      <g transform="translate(79.7 68.999016) scale(0.19 -0.19)">
       <defs>
        <path id="SimSun-33" d="M 2800 1250 
Q 2800 775 2450 412 
Q 2100 50 1475 50 
Q 1025 50 700 300 
Q 375 550 375 875 
Q 375 1025 475 1137 
Q 575 1250 675 1250 
Q 825 1250 887 1137 
Q 950 1025 950 950 
Q 950 825 900 750 
Q 850 650 850 575 
Q 850 425 1037 325 
Q 1225 225 1450 225 
Q 1900 225 2125 487 
Q 2350 750 2350 1300 
Q 2350 1750 2112 2025 
Q 1875 2300 1225 2300 
L 1225 2475 
Q 1725 2475 1962 2712 
Q 2200 2950 2200 3375 
Q 2200 3725 2012 3987 
Q 1825 4250 1425 4250 
Q 1250 4250 1050 4162 
Q 850 4075 850 3875 
Q 850 3675 900 3625 
Q 950 3575 950 3500 
Q 950 3375 900 3300 
Q 850 3225 725 3225 
Q 625 3225 537 3300 
Q 450 3375 450 3575 
Q 450 3950 775 4187 
Q 1100 4425 1525 4425 
Q 2025 4425 2325 4112 
Q 2625 3800 2625 3450 
Q 2625 3075 2437 2812 
Q 2250 2550 1850 2425 
Q 2400 2225 2600 1900 
Q 2800 1575 2800 1250 
z
" transform="scale(0.015625)"/>
       </defs>
       <use xlink:href="#SimSun-33"/>
       <use xlink:href="#SimSun-2e" x="50"/>
       <use xlink:href="#SimSun-30" x="100"/>
      </g>
     </g>
    </g>
    <g id="text_17">
     <!-- 吞吐量 $\mathrm{(Mops)}$ -->
     <g transform="translate(71.52 323.067) rotate(-90) scale(0.19 -0.19)">
      <defs>
       <path id="SimSun-541e" d="M 2200 1700 
L 2200 75 
L 4200 75 
L 4200 1700 
L 2200 1700 
z
M 1025 4675 
L 4550 4675 
L 4875 5000 
L 5350 4525 
L 3300 4525 
Q 3150 4025 2900 3375 
L 5075 3375 
L 5450 3750 
L 5975 3225 
L 3700 3225 
Q 3925 2925 4312 2587 
Q 4700 2250 5225 2037 
Q 5750 1825 6100 1800 
L 6100 1700 
Q 5700 1675 5575 1375 
Q 4600 1900 4137 2437 
Q 3675 2975 3575 3225 
L 2825 3225 
Q 2425 2575 1950 2075 
L 2200 1850 
L 4175 1850 
L 4325 2100 
L 4750 1775 
L 4550 1600 
L 4550 375 
Q 4550 -50 4575 -375 
L 4200 -500 
L 4200 -75 
L 2200 -75 
L 2200 -450 
L 1825 -575 
Q 1850 175 1850 625 
L 1850 2000 
Q 1175 1400 375 1075 
L 325 1150 
Q 1075 1575 1600 2100 
Q 2125 2625 2450 3225 
L 1225 3225 
Q 900 3225 625 3150 
L 400 3375 
L 2525 3375 
Q 2800 4025 2900 4525 
L 1850 4525 
Q 1525 4525 1250 4450 
L 1025 4675 
z
" transform="scale(0.015625)"/>
       <path id="SimSun-5410" d="M 3775 3000 
L 3775 3750 
Q 3775 4400 3750 5175 
L 4350 4900 
L 4125 4700 
L 4125 3000 
L 4925 3000 
L 5250 3325 
L 5725 2850 
L 4125 2850 
L 4125 75 
L 5225 75 
L 5575 425 
L 6075 -75 
L 2675 -75 
Q 2350 -75 2075 -150 
L 1850 75 
L 3775 75 
L 3775 2850 
L 3225 2850 
Q 2900 2850 2625 2775 
L 2400 3000 
L 3775 3000 
z
M 575 4250 
L 950 4025 
L 1875 4025 
L 2050 4275 
L 2450 3950 
L 2250 3800 
L 2250 1950 
Q 2250 1375 2275 950 
L 1900 775 
L 1900 1225 
L 950 1225 
L 950 600 
L 575 425 
Q 600 1075 600 2375 
Q 600 3675 575 4250 
z
M 950 3875 
L 950 1375 
L 1900 1375 
L 1900 3875 
L 950 3875 
z
" transform="scale(0.015625)"/>
       <path id="SimSun-91cf" d="M 1700 2400 
L 1700 1875 
L 3025 1875 
L 3025 2400 
L 1700 2400 
z
M 3350 2400 
L 3350 1875 
L 4625 1875 
L 4625 2400 
L 3350 2400 
z
M 1700 1725 
L 1700 1225 
L 3025 1225 
L 3025 1725 
L 1700 1725 
z
M 3350 1725 
L 3350 1225 
L 4625 1225 
L 4625 1725 
L 3350 1725 
z
M 4950 2325 
Q 4950 1350 4975 1025 
L 4625 875 
L 4625 1075 
L 3350 1075 
L 3350 525 
L 4700 525 
L 5050 825 
L 5450 375 
L 3350 375 
L 3350 -225 
L 5275 -225 
L 5650 125 
L 6075 -375 
L 1175 -375 
Q 850 -375 575 -450 
L 350 -225 
L 3025 -225 
L 3025 375 
L 1725 375 
Q 1400 375 1125 300 
L 900 525 
L 3025 525 
L 3025 1075 
L 1700 1075 
L 1700 925 
L 1350 800 
Q 1375 1300 1375 1787 
Q 1375 2275 1350 2750 
L 1700 2550 
L 4600 2550 
L 4750 2750 
L 5125 2475 
L 4950 2325 
z
M 1775 4800 
L 1775 4375 
L 4550 4375 
L 4550 4800 
L 1775 4800 
z
M 1775 4225 
L 1775 3775 
L 4550 3775 
L 4550 4225 
L 1775 4225 
z
M 4875 4750 
Q 4875 3825 4900 3525 
L 4550 3375 
L 4550 3625 
L 1775 3625 
L 1775 3400 
L 1425 3250 
Q 1450 3650 1450 4262 
Q 1450 4875 1425 5125 
L 1800 4950 
L 4500 4950 
L 4650 5175 
L 5050 4900 
L 4875 4750 
z
M 250 3125 
L 5375 3125 
L 5725 3450 
L 6150 2975 
L 950 2975 
Q 750 2975 475 2900 
L 250 3125 
z
" transform="scale(0.015625)"/>
       <path id="STIXGeneral-Regular-4d" d="M 5530 0 
L 3738 0 
L 3738 122 
Q 4115 147 4214 265 
Q 4314 384 4314 787 
L 4314 3661 
L 2682 0 
L 2592 0 
L 979 3514 
L 979 966 
Q 979 448 1088 294 
Q 1197 141 1574 122 
L 1574 0 
L 77 0 
L 77 122 
Q 358 141 480 205 
Q 602 269 650 432 
Q 698 595 698 966 
L 698 3514 
Q 698 3878 589 3984 
Q 480 4090 90 4115 
L 90 4237 
L 1357 4237 
L 2835 1024 
L 4250 4237 
L 5523 4237 
L 5523 4115 
Q 5178 4109 5072 3993 
Q 4966 3878 4966 3520 
L 4966 717 
Q 4966 378 5072 262 
Q 5178 147 5530 122 
L 5530 0 
z
" transform="scale(0.015625)"/>
       <path id="STIXGeneral-Regular-6f" d="M 3008 1478 
Q 3008 806 2608 371 
Q 2208 -64 1568 -64 
Q 979 -64 582 368 
Q 186 800 186 1459 
Q 186 2125 582 2534 
Q 979 2944 1626 2944 
Q 2221 2944 2614 2537 
Q 3008 2131 3008 1478 
z
M 2432 1306 
Q 2432 2035 2112 2445 
Q 1856 2765 1504 2765 
Q 1171 2765 966 2493 
Q 762 2221 762 1747 
Q 762 928 1101 435 
Q 1318 115 1677 115 
Q 2029 115 2230 432 
Q 2432 749 2432 1306 
z
" transform="scale(0.015625)"/>
       <path id="STIXGeneral-Regular-70" d="M 1018 2931 
L 1018 2438 
Q 1421 2944 1939 2944 
Q 2406 2944 2707 2560 
Q 3008 2176 3008 1581 
Q 3008 883 2621 409 
Q 2234 -64 1664 -64 
Q 1466 -64 1328 -6 
Q 1190 51 1018 211 
L 1018 -794 
Q 1018 -1094 1120 -1180 
Q 1222 -1267 1581 -1274 
L 1581 -1389 
L 32 -1389 
L 32 -1280 
Q 314 -1254 397 -1171 
Q 480 -1088 480 -838 
L 480 2157 
Q 480 2381 429 2451 
Q 378 2522 218 2522 
Q 115 2522 58 2515 
L 58 2618 
Q 506 2752 979 2944 
L 1018 2931 
z
M 1018 2138 
L 1018 563 
Q 1018 422 1238 281 
Q 1459 141 1683 141 
Q 2029 141 2243 467 
Q 2458 794 2458 1325 
Q 2458 1888 2243 2224 
Q 2029 2560 1670 2560 
Q 1446 2560 1232 2419 
Q 1018 2278 1018 2138 
z
" transform="scale(0.015625)"/>
      </defs>
      <use xlink:href="#SimSun-541e" transform="translate(0 0.140625)"/>
      <use xlink:href="#SimSun-5410" transform="translate(100 0.140625)"/>
      <use xlink:href="#SimSun-91cf" transform="translate(200 0.140625)"/>
      <use xlink:href="#SimSun-20" transform="translate(300 0.140625)"/>
      <use xlink:href="#STIXGeneral-Regular-28" transform="translate(350 0.140625)"/>
      <use xlink:href="#STIXGeneral-Regular-4d" transform="translate(383.299988 0.140625)"/>
      <use xlink:href="#STIXGeneral-Regular-6f" transform="translate(472.199982 0.140625)"/>
      <use xlink:href="#STIXGeneral-Regular-70" transform="translate(522.199966 0.140625)"/>
      <use xlink:href="#STIXGeneral-Regular-73" transform="translate(572.199951 0.140625)"/>
      <use xlink:href="#STIXGeneral-Regular-29" transform="translate(611.099945 0.140625)"/>
     </g>
    </g>
   </g>
   <g id="line2d_16">
    <path d="M 116.205038 132.260574 
L 116.694802 143.225785 
L 117.184567 138.868986 
L 117.674331 129.410354 
L 118.158994 139.955535 
L 118.648759 138.061389 
L 119.133422 136.674587 
L 119.623186 136.037741 
L 120.112951 133.654442 
L 120.602715 138.401214 
L 121.09248 138.984838 
L 121.582245 134.898688 
L 122.077111 144.376919 
L 122.566875 140.911595 
L 123.061742 143.985708 
L 123.551506 148.781658 
L 124.046373 129.995495 
L 124.546341 139.760541 
L 125.041207 128.741189 
L 125.541175 134.997802 
L 126.036041 133.786606 
L 126.530907 135.453705 
L 127.030875 129.731432 
L 127.535945 134.668714 
L 128.035913 134.74429 
L 128.535881 130.540678 
L 129.040951 141.724488 
L 129.546021 136.005461 
L 130.05109 137.656008 
L 130.55616 139.803398 
L 131.066331 138.063452 
L 131.571401 147.086112 
L 132.076471 142.476241 
L 132.586642 149.738171 
L 133.096814 131.161904 
L 133.606985 147.122237 
L 134.117157 133.893517 
L 134.627328 135.362774 
L 135.137499 143.088046 
L 135.652773 145.609883 
L 136.168046 138.723862 
L 137.198592 132.461102 
L 137.718967 137.12558 
L 138.23424 139.63467 
L 138.754615 136.840028 
L 139.27499 138.354033 
L 139.800466 136.823011 
L 140.320841 133.569898 
L 140.841216 150.550465 
L 141.892169 135.257181 
L 142.417646 144.566032 
L 142.943122 140.018231 
L 143.468599 144.217305 
L 143.999177 139.99613 
L 144.529755 133.000711 
L 145.060334 136.406665 
L 145.590912 141.897633 
L 146.126592 141.015352 
L 146.662272 145.002695 
L 147.19285 134.62112 
L 148.269312 152.261698 
L 148.804992 144.610818 
L 149.345774 142.619848 
L 149.886555 136.256738 
L 150.427337 138.39681 
L 150.973221 133.605836 
L 151.514002 138.924111 
L 152.054784 140.879422 
L 152.600667 136.53388 
L 153.146551 142.051619 
L 153.697536 135.098325 
L 154.243419 141.784749 
L 154.794405 141.122156 
L 155.34539 134.888163 
L 155.891273 138.040074 
L 156.44736 153.920174 
L 156.998345 141.824719 
L 157.54933 149.147163 
L 158.105417 141.552233 
L 158.661504 139.137852 
L 159.217591 142.872694 
L 159.773678 137.344124 
L 160.329765 145.163067 
L 160.885851 139.933274 
L 161.44704 144.913121 
L 162.003127 139.005515 
L 162.564315 137.807013 
L 163.120402 151.045779 
L 163.681591 136.255966 
L 164.242779 149.958991 
L 164.803968 137.145232 
L 165.365157 150.86787 
L 165.926345 144.088919 
L 166.487534 140.430784 
L 167.048722 140.991881 
L 167.615013 152.176555 
L 168.176201 144.241096 
L 168.742491 145.241796 
L 169.30368 141.495019 
L 169.86997 141.552233 
L 170.436261 137.217508 
L 170.997449 138.492038 
L 171.563739 137.119686 
L 172.135131 149.149851 
L 172.701422 141.52988 
L 173.828901 148.948577 
L 174.395191 151.061027 
L 174.966583 144.018466 
L 175.532873 141.995563 
L 176.099163 146.052853 
L 176.670555 154.481538 
L 177.236846 144.922768 
L 177.803136 152.748164 
L 178.369426 146.253541 
L 178.935717 141.996694 
L 179.507109 143.635305 
L 180.073399 143.435322 
L 180.644791 142.419093 
L 181.211081 143.403641 
L 181.777371 139.213415 
L 182.348763 147.135862 
L 182.915054 143.594896 
L 183.486446 143.857894 
L 184.057838 140.477008 
L 184.62923 143.136877 
L 185.19552 143.562483 
L 185.766912 136.823357 
L 186.338304 144.338014 
L 186.909696 144.729544 
L 187.481088 143.478605 
L 188.047378 137.39595 
L 188.623872 144.141543 
L 189.195264 145.243965 
L 189.766656 138.236797 
L 190.338048 144.944749 
L 190.914542 147.343642 
L 191.485934 141.250436 
L 192.062427 141.432749 
L 192.633819 141.396385 
L 193.205211 147.967329 
L 193.776603 150.800051 
L 194.353097 148.636494 
L 194.924489 148.947446 
L 195.495881 144.851463 
L 196.072375 147.512929 
L 196.648869 145.104469 
L 197.220261 145.253904 
L 197.796754 146.118436 
L 198.373248 142.024782 
L 198.94464 141.188245 
L 199.521134 142.878442 
L 200.102729 142.50373 
L 200.679223 143.794187 
L 201.255717 146.377589 
L 201.83221 142.82828 
L 202.408704 149.532453 
L 202.985198 151.627194 
L 203.566793 142.320938 
L 204.143287 145.862463 
L 204.719781 145.532058 
L 205.296274 149.173947 
L 205.872768 143.418477 
L 206.454363 142.699642 
L 207.030857 141.751591 
L 207.612453 146.422203 
L 208.188946 142.936042 
L 208.76544 143.437344 
L 209.341934 141.456273 
L 209.923529 137.487625 
L 210.505125 143.271317 
L 211.08672 138.890155 
L 211.663214 146.829115 
L 212.244809 137.6148 
L 212.826405 139.419692 
L 213.408 149.504951 
L 213.989595 141.303246 
L 215.152786 144.759309 
L 215.734382 150.681219 
L 216.315977 143.09366 
L 216.897573 140.889774 
L 217.479168 146.368541 
L 218.060763 145.21625 
L 218.647461 141.035351 
L 219.229056 141.454331 
L 219.810651 147.832636 
L 220.392247 147.810921 
L 220.978944 140.410573 
L 221.560539 153.867843 
L 222.142135 150.627943 
L 222.728832 140.807306 
L 223.310427 142.541412 
L 223.892023 151.052339 
L 224.47872 146.778766 
L 225.060315 149.560235 
L 225.647013 157.557965 
L 226.228608 151.480193 
L 226.810203 148.69424 
L 227.978496 155.701262 
L 228.565193 148.560945 
L 229.15189 151.724325 
L 229.733486 148.236408 
L 230.320183 159.065676 
L 230.90688 151.863621 
L 231.493577 158.024872 
L 232.080274 149.747472 
L 232.66187 150.139282 
L 233.248567 149.429494 
L 233.835264 158.352323 
L 234.421961 151.672792 
L 235.003557 155.437439 
L 235.590254 148.323466 
L 236.176951 156.93046 
L 236.763648 155.902469 
L 237.350345 154.509386 
L 237.937042 150.172306 
L 238.528841 157.384088 
L 239.115538 158.170289 
L 239.702235 153.332386 
L 240.880731 161.481494 
L 241.467429 157.352088 
L 242.059227 155.341958 
L 242.645925 152.52435 
L 243.232622 154.214441 
L 243.824421 157.73497 
L 244.411118 157.684887 
L 244.997815 165.454759 
L 245.584512 158.247501 
L 246.171209 153.834739 
L 246.763008 157.283883 
L 247.349705 156.472814 
L 247.936402 155.433487 
L 248.528201 151.836571 
L 249.114898 155.264772 
L 249.701595 152.109681 
L 250.293394 158.777663 
L 250.880091 158.001348 
L 251.47189 158.633164 
L 252.063689 155.498192 
L 252.650386 151.674841 
L 253.242185 159.156287 
L 253.833984 159.457007 
L 254.420681 164.477077 
L 255.01248 162.186358 
L 255.599177 161.110321 
L 256.190976 155.915362 
L 256.782775 162.412913 
L 257.374574 159.276091 
L 257.966373 158.348544 
L 258.558171 158.430041 
L 259.14997 160.209771 
L 259.741769 161.247981 
L 260.333568 156.009925 
L 260.925367 156.481143 
L 261.517166 154.115141 
L 262.108965 153.891461 
L 262.700763 160.001286 
L 263.297664 151.514695 
L 263.884361 154.666153 
L 264.47616 160.644492 
L 265.073061 154.617255 
L 265.664859 157.203824 
L 266.26176 157.430564 
L 266.853559 146.598395 
L 267.445358 151.27872 
L 268.042258 147.064624 
L 268.634057 149.982116 
L 269.225856 150.420961 
L 269.822757 151.119359 
L 270.414555 150.096238 
L 271.011456 143.417279 
L 272.195054 147.171335 
L 272.791954 143.240275 
L 273.388855 145.545031 
L 273.980654 144.6163 
L 274.572453 142.779342 
L 275.169353 151.33789 
L 275.761152 153.514739 
L 276.358053 154.22921 
L 276.954953 151.009867 
L 277.546752 159.789408 
L 278.143653 148.38418 
L 278.735451 153.83909 
L 279.332352 147.477244 
L 279.929253 150.508592 
L 280.521051 150.446854 
L 281.123054 152.196048 
L 281.719954 151.818102 
L 282.316855 155.76618 
L 282.908654 148.2881 
L 283.505554 151.829772 
L 284.102455 152.405891 
L 284.699355 145.419373 
L 285.296256 155.80917 
L 285.893157 153.917074 
L 286.490057 152.887899 
L 287.086958 153.508991 
L 287.683858 149.352535 
L 288.280759 153.754347 
L 288.877659 155.569297 
L 289.479662 144.803643 
L 290.076562 155.02394 
L 290.673463 151.843357 
L 291.270363 151.926131 
L 291.867264 150.012519 
L 292.469266 146.486668 
L 293.066167 145.978035 
L 293.668169 152.944382 
L 294.26507 149.527849 
L 294.86197 156.191188 
L 295.463973 147.159426 
L 296.060873 149.759247 
L 296.657774 154.664862 
L 297.259776 147.333889 
L 297.851575 147.325626 
L 298.453577 145.40181 
L 299.050478 143.887672 
L 299.65248 150.787876 
L 300.249381 147.019717 
L 300.851383 146.436347 
L 301.448283 150.795394 
L 302.045184 149.6569 
L 302.647186 146.608681 
L 303.249189 149.883761 
L 303.846089 147.039729 
L 304.44299 146.866397 
L 305.050094 147.77815 
L 305.646994 148.340737 
L 306.248997 156.193596 
L 306.850999 153.95441 
L 307.447899 141.418512 
L 308.049902 144.118444 
L 308.651904 147.76048 
L 309.253906 147.324682 
L 309.855909 151.049238 
L 310.457911 149.896202 
L 311.059913 144.530439 
L 311.661915 146.944554 
L 312.263918 150.982564 
L 312.86592 147.899763 
L 313.467922 143.509647 
L 314.069925 150.762303 
L 314.671927 144.725286 
L 315.273929 151.720093 
L 315.875931 155.083563 
L 316.477934 148.017345 
L 317.085038 145.555316 
L 317.68704 153.784883 
L 318.289042 152.187639 
L 318.891045 157.532073 
L 319.493047 146.396802 
L 320.100151 144.729478 
L 320.702153 149.91789 
L 321.304155 147.670334 
L 321.906158 146.295733 
L 322.50816 150.637284 
L 323.115264 149.579063 
L 323.717266 155.298555 
L 324.319269 154.133184 
L 324.921271 149.165871 
L 325.528375 148.403832 
L 326.130377 151.925771 
L 326.732379 148.82401 
L 327.339483 157.550727 
L 327.941486 150.235322 
L 328.543488 146.940323 
L 329.150592 157.873854 
L 329.752594 148.668986 
L 330.354597 146.951207 
L 330.961701 147.899963 
L 331.563703 160.225126 
L 332.165705 151.741396 
L 332.772809 154.82256 
L 333.374811 146.034451 
L 333.976814 149.675169 
L 335.18592 152.464755 
L 335.787922 153.457219 
L 336.389925 157.574957 
L 336.997029 156.908798 
L 337.599031 153.862175 
L 338.201033 154.642017 
L 338.808137 160.753332 
L 339.410139 153.718648 
L 340.012142 151.270657 
L 340.614144 153.479187 
L 341.216146 152.022304 
L 341.82325 157.535812 
L 342.425253 150.295223 
L 343.032357 153.390997 
L 343.634359 151.035095 
L 344.236361 147.371863 
L 344.838363 149.548061 
L 345.440366 152.197618 
L 346.04747 157.654497 
L 346.649472 154.680762 
L 347.256576 154.133583 
L 347.858578 155.677378 
L 348.460581 160.576806 
L 349.062583 154.219431 
L 349.669687 156.595345 
L 350.271689 145.600542 
L 350.873691 149.658125 
L 351.480795 150.799253 
L 352.082798 151.45466 
L 352.6848 148.824076 
L 353.286802 152.888671 
L 353.888805 152.228008 
L 354.495909 154.699523 
L 355.097911 150.241895 
L 355.699913 152.48784 
L 356.301915 148.241757 
L 356.903918 154.456457 
L 357.50592 147.020023 
L 358.113024 149.007294 
L 358.715026 161.324807 
L 359.317029 154.494883 
L 359.919031 149.381741 
L 360.526135 155.185191 
L 361.128137 150.703798 
L 361.730139 150.436901 
L 362.332142 148.595619 
L 362.939246 155.997844 
L 363.541248 153.308543 
L 364.14325 152.010967 
L 364.745253 153.070372 
L 365.352357 152.776478 
L 365.954359 153.621384 
L 366.556361 153.574867 
L 367.158363 159.776182 
L 367.765467 156.767972 
L 368.36747 159.12317 
L 368.969472 149.651232 
L 369.576576 150.661087 
L 370.178578 150.206462 
L 370.780581 154.93792 
L 371.387685 153.877796 
L 371.989687 161.142827 
L 373.795694 151.851659 
L 374.397696 158.158899 
L 374.999698 157.203038 
L 375.596599 157.212539 
L 376.198601 150.433202 
L 376.805705 156.326226 
L 377.407707 154.76685 
L 378.00971 158.004781 
L 378.611712 162.710359 
L 379.213714 158.255046 
L 379.815717 155.480735 
L 380.417719 162.239541 
L 381.019721 156.466228 
L 381.621723 153.129489 
L 382.223726 155.129574 
L 382.825728 155.670167 
L 383.42773 159.607547 
L 384.029733 153.713379 
L 384.631735 156.531984 
L 385.233737 152.038802 
L 386.43264 165.737636 
L 387.034642 160.623137 
L 387.631543 159.416452 
L 388.233545 155.664565 
L 388.835547 156.559021 
L 389.43755 162.524666 
L 390.03445 158.136546 
L 390.631351 158.683153 
L 391.233353 163.901729 
L 391.835355 160.468778 
L 392.432256 162.085355 
L 393.034258 158.236245 
L 394.228059 162.052118 
L 394.830062 170.347175 
L 395.432064 157.05029 
L 396.034066 157.547308 
L 396.630967 158.997991 
L 397.227867 155.219719 
L 397.824768 155.510393 
L 398.42677 162.258169 
L 399.023671 165.206996 
L 399.620571 163.024757 
L 400.222574 159.031348 
L 400.824576 156.353835 
L 401.421477 158.637422 
L 402.018377 162.989524 
L 402.620379 159.325455 
L 403.21728 154.876408 
L 403.819282 156.034514 
L 404.416183 160.588342 
L 405.013083 159.079274 
L 405.609984 164.150065 
L 406.206885 160.501803 
L 406.808887 159.449835 
L 407.405787 157.936563 
L 408.002688 162.84609 
L 408.599589 159.134533 
L 409.196489 162.152442 
L 409.79339 157.608234 
L 410.39029 158.38415 
L 410.987191 159.595785 
L 411.584091 163.920663 
L 412.180992 171.663458 
L 412.777893 166.700775 
L 413.374793 163.080322 
L 413.971694 157.386243 
L 415.160393 160.698446 
L 415.762395 156.924299 
L 416.359296 162.055764 
L 416.951095 163.420293 
L 417.547995 159.200848 
L 418.139794 161.661426 
L 418.736695 159.123396 
L 419.333595 163.928168 
L 419.925394 157.626809 
L 420.517193 166.430219 
L 421.114094 159.606841 
L 421.710994 157.863874 
L 422.302793 150.718262 
L 422.899694 148.955988 
L 423.491493 156.698876 
L 424.088393 153.564702 
L 424.685294 148.199911 
L 425.277093 153.75118 
L 425.868891 147.204492 
L 427.052489 154.75381 
L 427.64939 159.847274 
L 428.241189 151.098935 
L 428.832987 169.276527 
L 429.424786 151.116791 
L 430.011483 153.067924 
L 430.608384 148.778358 
L 431.200183 150.137485 
L 431.791982 155.092997 
L 432.378679 146.940003 
L 432.970478 150.020875 
L 434.154075 154.610283 
L 434.745874 147.203893 
L 435.929472 151.819925 
L 436.521271 149.154055 
L 437.107968 166.106281 
L 437.699767 153.205211 
L 438.291566 152.907538 
L 438.878263 150.515551 
L 439.475163 157.533762 
L 440.066962 162.021196 
L 440.653659 151.138958 
L 441.240357 149.766206 
L 441.832155 153.570809 
L 442.418853 159.388324 
L 443.010651 152.984285 
L 443.597349 148.856848 
L 444.184046 148.858698 
L 445.35744 156.195432 
L 445.944137 166.028097 
L 446.535936 152.923731 
L 447.122633 158.492431 
L 447.70933 161.762947 
L 448.296027 156.360741 
L 448.882725 161.583495 
L 449.469422 153.238675 
L 450.056119 154.319609 
L 450.642816 155.674904 
L 451.229513 158.269602 
L 451.81621 156.792534 
L 452.402907 157.5412 
L 452.989605 151.862636 
L 453.576302 160.859311 
L 454.157897 166.26378 
L 454.744594 160.571351 
L 455.331291 153.633412 
L 455.912887 166.535999 
L 456.499584 160.966514 
L 457.081179 150.801142 
L 457.667877 162.268241 
L 458.249472 160.507019 
L 458.836169 160.118615 
L 459.417765 155.245226 
L 459.99936 165.143994 
L 460.586057 152.987957 
L 461.167653 165.798642 
L 461.749248 153.816683 
L 462.330843 158.662304 
L 463.499136 162.183577 
L 464.07563 161.713717 
L 464.662327 155.454137 
L 465.243922 159.049842 
L 465.825518 157.687176 
L 466.988709 150.495499 
L 467.565202 156.577941 
L 468.146798 167.151742 
L 468.728393 166.45876 
L 469.309989 153.975273 
L 469.891584 159.774745 
L 470.468078 154.92806 
L 471.631269 160.371661 
L 472.207762 154.570978 
L 472.789358 159.457233 
L 473.365851 150.715574 
L 473.942345 158.481228 
L 474.523941 159.320878 
L 475.100434 162.037668 
L 475.676928 158.956929 
L 476.258523 155.199987 
L 476.835017 153.197414 
L 477.411511 163.060802 
L 477.993106 155.445103 
L 478.5696 156.361898 
L 479.727689 162.102746 
L 480.304183 161.935255 
L 480.880677 162.72759 
L 481.45717 159.175341 
L 482.038766 159.059622 
L 482.615259 157.700508 
L 483.191753 159.214419 
L 483.768247 153.561349 
L 484.344741 162.763236 
L 484.916133 155.921563 
L 485.497728 161.092239 
L 486.06912 160.662601 
L 486.645614 157.837662 
L 487.222107 159.126243 
L 487.798601 162.845651 
L 488.369993 163.371994 
L 488.946487 164.599848 
L 489.517879 154.953407 
L 490.089271 168.860101 
L 490.660663 163.921182 
L 491.237157 155.263215 
L 491.808549 163.863516 
L 492.385042 158.634042 
L 492.956434 159.028247 
L 493.532928 164.310983 
L 494.10432 158.628068 
L 494.675712 163.368082 
L 495.252206 164.995117 
L 495.823598 156.997081 
L 496.39499 167.118797 
L 496.966382 158.770265 
L 497.537774 172.539938 
L 498.109166 161.742377 
L 498.680558 155.066691 
L 499.25195 168.70219 
L 499.823342 162.07499 
L 500.394734 162.00467 
L 500.966126 161.52841 
L 501.537518 158.192629 
L 502.10891 162.985652 
L 502.6752 159.796193 
L 503.246592 159.446935 
L 503.817984 158.787589 
L 504.389376 162.774985 
L 504.955666 156.538118 
L 505.527058 166.397048 
L 506.09845 159.879899 
L 506.664741 162.226501 
L 507.231031 167.022571 
L 507.797321 169.228267 
L 508.368713 163.928447 
L 508.935003 160.874506 
L 509.501294 164.271026 
L 510.067584 161.308628 
L 510.633874 172.329044 
L 511.200165 159.079235 
L 511.766455 169.617602 
L 512.337847 157.845486 
L 513.470427 163.788446 
L 514.036718 162.916197 
L 514.603008 159.836789 
L 515.169298 174.537854 
L 515.730487 173.734967 
L 516.296777 171.572581 
L 516.863067 164.250243 
L 517.429358 167.828744 
L 517.990546 164.786791 
L 519.684315 178.534364 
L 520.250606 163.062399 
L 520.811794 156.949048 
L 521.372983 170.673588 
L 521.939273 165.596703 
L 522.500462 162.827462 
L 523.066752 170.115258 
L 523.627941 163.105828 
L 524.189129 163.493341 
L 524.750318 164.391482 
L 525.311506 160.139731 
L 525.872695 162.195912 
L 526.438985 158.755882 
L 527.000174 158.775361 
L 527.561362 170.032631 
L 528.122551 162.746351 
L 528.683739 163.782046 
L 529.244928 168.549415 
L 529.806117 164.38761 
L 530.367305 158.897294 
L 530.928494 170.335546 
L 531.489682 164.119023 
L 532.050871 164.465568 
L 532.612059 167.475534 
L 533.168146 153.117368 
L 533.729335 163.128674 
L 534.285422 164.550497 
L 534.841509 164.679947 
L 535.402697 166.316935 
L 535.958784 169.278536 
L 536.519973 157.761142 
L 537.076059 170.423496 
L 537.632146 157.145957 
L 538.188233 159.192319 
L 538.74432 156.739751 
L 539.300407 164.941096 
L 539.856494 166.819288 
L 540.417682 158.274964 
L 540.973769 159.331642 
L 541.529856 155.66076 
L 542.085943 174.611886 
L 542.647131 160.148845 
L 543.203218 170.29221 
L 544.315392 158.408978 
L 544.871479 163.164692 
L 545.427566 159.992212 
L 545.983653 170.546852 
L 546.534638 157.526844 
L 547.090725 155.765754 
L 547.646811 168.849922 
L 548.202898 158.859014 
L 548.753883 169.106095 
L 549.30997 158.816595 
L 549.860955 161.602735 
L 550.417042 160.745575 
L 550.973129 166.653088 
L 551.524114 164.09321 
L 552.075099 167.422937 
L 552.626085 172.505623 
L 553.182171 166.947581 
L 553.733157 168.592113 
L 554.289243 159.588427 
L 554.835127 167.998058 
L 555.386112 167.10138 
L 555.937097 171.726593 
L 556.488082 161.177514 
L 557.039067 175.077263 
L 557.595154 173.755285 
L 558.146139 161.284012 
L 558.697125 163.52747 
L 559.24811 158.937823 
L 559.799095 159.269877 
L 560.35008 166.6824 
L 560.901065 167.146819 
L 561.45205 166.307954 
L 562.003035 167.178021 
L 562.554021 160.293144 
L 563.105006 168.061619 
L 563.650889 167.392161 
L 564.201874 168.154346 
L 564.752859 167.053587 
L 565.303845 173.877962 
L 565.849728 165.380567 
L 566.400713 164.669503 
L 566.951698 168.076654 
L 567.497582 167.575446 
L 568.043465 174.124143 
L 568.59445 175.380564 
L 569.145435 165.019586 
L 569.691319 164.475467 
L 570.237202 168.157126 
L 571.334071 172.617669 
L 571.879954 167.910015 
L 572.425838 168.643859 
L 572.971721 171.220714 
L 573.517605 170.766128 
L 574.063488 172.498185 
L 574.609371 172.816561 
L 575.160357 170.024953 
L 575.70624 173.511433 
L 576.252123 178.003696 
L 576.798007 171.752779 
L 577.34389 172.549345 
L 577.889774 165.595958 
L 578.435657 171.859317 
L 578.981541 167.693267 
L 579.522322 173.165501 
L 580.068206 174.892075 
L 580.614089 178.250941 
L 581.159973 169.384821 
L 581.705856 178.287092 
L 582.246638 171.777434 
L 582.792521 166.779717 
L 583.338405 174.064267 
L 583.879186 171.789702 
L 584.42507 166.742262 
L 584.965851 171.962049 
L 585.511735 185.144652 
L 586.052517 175.185743 
L 586.5984 172.478839 
L 587.139182 172.437219 
L 588.220745 179.673855 
L 588.761527 176.716566 
L 589.302309 180.306816 
L 589.84309 171.046903 
L 590.383872 175.075347 
L 590.924654 174.423998 
L 592.011319 171.62434 
L 592.546999 174.560846 
L 593.092882 173.459634 
L 593.633664 173.101208 
L 594.174446 175.037213 
L 594.715227 172.510945 
L 595.256009 176.548037 
L 595.796791 174.364548 
L 596.337573 178.114811 
L 596.878354 173.133873 
L 597.419136 178.23866 
L 597.959918 176.355039 
L 598.500699 186.466909 
L 599.036379 186.674876 
L 599.572059 176.246279 
L 600.112841 176.144651 
L 600.653623 180.302505 
L 601.194405 176.231271 
L 601.735186 180.639216 
L 602.270866 179.457958 
L 602.806546 189.312405 
L 603.347328 177.14776 
L 603.883008 176.399014 
L 604.418688 181.786452 
L 604.95947 178.431125 
L 605.49515 176.953605 
L 606.03083 185.592093 
L 606.571611 180.609345 
L 607.112393 178.28511 
L 607.648073 175.155792 
L 608.183753 176.923095 
L 608.719433 176.564882 
L 609.260215 181.364345 
L 609.795895 176.294206 
L 610.331575 173.863978 
L 610.867255 176.129775 
L 611.402935 174.146443 
L 611.938615 186.770038 
L 612.474295 182.488908 
L 613.009975 179.181282 
L 613.545655 180.401259 
L 614.081335 175.853099 
L 614.622117 180.811763 
L 615.157797 177.401352 
L 615.693477 178.701176 
L 616.229157 175.951228 
L 616.764837 190.349723 
L 617.300517 180.269054 
L 617.831095 176.571827 
L 618.366775 182.291027 
L 618.902455 176.459502 
L 619.438135 179.948629 
L 619.973815 175.314036 
L 620.509495 182.825992 
L 621.040073 187.317217 
L 621.575753 179.36434 
L 622.111433 184.175286 
L 623.182793 175.851755 
L 623.713371 176.712295 
L 624.249051 178.349189 
L 624.77963 180.860768 
L 625.310208 175.681497 
L 625.840786 197.549024 
L 626.376466 175.180993 
L 626.912146 180.834157 
L 627.442725 176.280674 
L 627.978405 176.565707 
L 629.039561 184.373513 
L 629.570139 184.609913 
L 630.100718 177.382325 
L 630.631296 181.820474 
L 631.161874 184.959624 
L 631.692453 184.929248 
L 632.223031 182.272705 
L 632.758711 181.965226 
L 633.289289 184.167076 
L 633.819867 183.175849 
L 634.350446 175.262756 
L 635.411602 180.097625 
L 635.942181 181.01965 
L 636.472759 189.194637 
L 637.008439 181.994165 
L 637.533915 193.029364 
L 638.064494 180.915028 
L 638.595072 190.509284 
L 639.12565 177.720779 
L 639.651127 187.847126 
L 640.181705 182.656013 
L 640.707182 179.123669 
L 641.242862 177.869044 
L 641.768338 182.155057 
L 642.298917 179.343397 
L 642.829495 186.749707 
L 643.360073 186.511244 
L 643.890651 179.99275 
L 644.416128 180.286844 
L 645.477285 183.889881 
L 646.002761 182.930999 
L 646.533339 187.409079 
L 647.058816 176.385908 
L 647.589394 186.440085 
L 648.114871 178.16685 
L 648.640347 187.38139 
L 649.170926 180.149557 
L 649.696402 178.915143 
L 650.226981 179.808494 
L 650.752457 179.763282 
L 651.277934 181.404408 
L 651.80341 177.910836 
L 652.328887 177.09833 
L 652.859465 181.433986 
L 653.384942 184.550597 
L 653.910418 185.405628 
L 654.435895 181.315008 
L 654.961371 184.843919 
L 655.49195 179.913808 
L 656.017426 179.6141 
L 656.542903 179.026019 
L 657.068379 181.391408 
L 657.598958 184.510494 
L 658.119333 181.057664 
L 658.649911 187.233512 
L 659.175387 186.903905 
L 660.226341 179.287966 
L 660.751817 184.474755 
L 661.277294 188.099134 
L 661.807872 179.014603 
L 662.333349 184.671106 
L 662.858825 184.85483 
L 663.384302 180.07116 
L 663.909778 184.373659 
L 664.435255 193.8725 
L 664.960731 178.721493 
L 665.486208 196.730743 
L 666.016786 177.844002 
L 666.542263 183.99425 
L 667.067739 185.798423 
L 667.593216 179.376062 
L 668.118693 180.653879 
L 668.639067 178.66726 
L 669.164544 183.660958 
L 669.690021 184.854484 
L 670.215497 180.542391 
L 670.740974 178.354937 
L 671.261349 179.662093 
L 672.312302 186.58972 
L 672.837778 186.521582 
L 673.363255 183.785818 
L 673.888731 183.754177 
L 674.409106 187.819956 
L 674.934583 184.490043 
L 675.454958 185.303588 
L 675.980434 180.717693 
L 676.505911 180.277025 
L 677.026286 187.804694 
L 677.551762 182.665672 
L 678.072137 186.576308 
L 678.597614 184.34613 
L 679.117989 180.002157 
L 679.643465 180.330699 
L 680.16384 185.706667 
L 680.689317 178.774849 
L 681.209691 189.941587 
L 681.735168 187.32375 
L 682.255543 184.148834 
L 682.781019 185.272226 
L 683.821769 192.390616 
L 684.347246 185.46569 
L 684.867621 189.840025 
L 685.387995 190.793651 
L 685.913472 185.660683 
L 686.433847 184.761171 
L 686.954222 180.121442 
L 687.474597 196.130687 
L 687.994971 184.432151 
L 688.515346 183.857934 
L 689.040823 190.196975 
L 689.561198 184.291124 
L 690.081573 184.464829 
L 690.601947 189.289679 
L 691.122322 191.534547 
L 691.642697 185.443629 
L 692.163072 177.560367 
L 692.683447 200.918853 
L 693.203822 187.424367 
L 693.724197 191.149403 
L 694.244571 186.443691 
L 694.764946 188.89256 
L 695.285321 195.52805 
L 695.805696 193.633518 
L 696.326071 188.862383 
L 696.846446 198.718799 
L 697.366821 193.237504 
L 697.887195 198.703724 
L 698.40757 192.484553 
L 698.933047 187.926095 
L 699.453422 191.387067 
L 699.973797 199.844506 
L 700.48907 193.293294 
L 701.009445 189.03799 
L 701.524718 194.059085 
L 702.045093 194.549223 
L 702.565467 188.471771 
L 703.085842 189.648771 
L 703.606217 188.768419 
L 704.126592 193.283155 
L 704.646967 186.665881 
L 705.167342 188.116844 
L 705.687717 193.990029 
L 706.20299 188.438081 
L 706.723365 184.509935 
L 707.238638 192.617157 
L 707.759013 186.184871 
L 708.279387 184.073139 
L 708.794661 192.203193 
L 709.315035 196.761465 
L 709.83541 189.646176 
L 710.350683 189.831071 
L 710.871058 195.41615 
L 711.386331 191.751455 
L 711.906706 192.490182 
L 712.421979 195.219027 
L 712.937253 181.370253 
L 713.452526 204.038937 
L 713.972901 189.876243 
L 714.488174 192.041437 
L 715.003447 195.98994 
L 715.51872 205.817709 
L 716.039095 187.676468 
L 716.554368 197.322509 
L 717.069641 189.691442 
L 717.590016 198.55828 
L 718.105289 198.153763 
L 718.625664 189.554913 
L 719.140937 196.858942 
L 719.65621 191.529876 
L 720.171483 196.593629 
L 720.691858 198.433381 
L 721.207131 206.488019 
L 721.727506 191.200856 
L 722.242779 198.744732 
L 723.273326 192.637927 
L 723.788599 187.813662 
L 724.303872 191.309948 
L 724.819145 197.588488 
L 725.334418 196.658254 
L 725.849691 189.241633 
L 726.364965 192.716457 
L 726.880238 192.657606 
L 727.395511 197.305824 
L 727.910784 190.837666 
L 728.94133 198.340215 
L 729.456603 197.73324 
L 729.976978 194.556714 
L 730.492251 189.395672 
L 731.522798 202.585566 
L 732.038071 190.848364 
L 732.553344 208.982646 
L 733.58389 185.562608 
L 734.099163 195.208635 
L 734.614437 194.439385 
L 735.124608 201.573103 
L 735.644983 199.218305 
L 736.155154 187.955713 
L 736.675529 208.294254 
L 737.190802 195.078613 
L 737.706075 189.416681 
L 738.216247 203.426387 
L 738.73152 192.134842 
L 739.246793 201.151182 
L 739.762066 194.519272 
L 740.277339 198.840984 
L 740.787511 194.181097 
L 741.302784 203.103779 
L 741.812955 200.383715 
L 742.328229 203.063836 
L 742.8384 198.005366 
L 743.353673 195.17593 
L 743.868946 193.218317 
L 744.379118 191.924867 
L 744.894391 202.409786 
L 745.409664 203.478478 
L 745.919835 200.40732 
L 746.430007 208.457647 
L 746.94528 194.989798 
L 747.460553 193.834047 
L 747.975826 193.725407 
L 748.485998 196.239593 
L 749.006373 197.045314 
L 749.516544 203.601276 
L 750.026715 194.564751 
L 750.541989 197.405244 
L 751.05216 206.281476 
L 751.567433 196.172307 
L 752.587776 201.27225 
L 753.103049 194.774194 
L 753.613221 197.791492 
L 754.123392 202.539396 
L 754.638665 200.387681 
L 755.148837 203.164067 
L 755.659008 208.233115 
L 756.174281 206.000182 
L 756.684453 201.824552 
L 757.194624 198.824339 
L 757.704795 205.053143 
L 758.220069 190.54948 
L 758.73024 201.300032 
L 759.240411 205.336499 
L 759.750583 199.095387 
L 760.260754 203.754849 
L 760.776027 198.95021 
L 761.286199 203.36711 
L 761.79637 202.937127 
L 762.306542 198.79335 
L 762.816713 203.339581 
L 763.326885 193.402374 
L 763.837056 200.280491 
L 764.347227 196.554617 
L 764.857399 203.268835 
L 765.36757 201.620684 
L 765.877742 207.177342 
L 766.393015 203.721691 
L 766.903186 213.017622 
L 767.413358 203.208747 
L 767.923529 207.452954 
L 768.433701 201.730335 
L 768.943872 198.308122 
L 769.454043 209.383756 
L 769.964215 197.539085 
L 770.474386 196.48886 
L 770.984558 204.491646 
L 771.499831 210.510541 
L 772.010002 203.392391 
L 772.520174 199.542735 
L 773.030345 200.644998 
L 773.540517 200.016388 
L 774.050688 196.946626 
L 774.560859 199.762969 
L 775.071031 204.364565 
L 775.581202 194.305558 
L 776.086272 198.456399 
L 776.596443 200.418257 
L 777.106615 206.516493 
L 778.132059 192.204723 
L 778.642231 200.531381 
L 779.152402 201.452514 
L 779.662574 198.789359 
L 780.167643 201.091201 
L 780.677815 192.862685 
L 781.182885 205.087019 
L 781.693056 195.018392 
L 782.713399 201.122323 
L 783.22357 199.458577 
L 783.733742 194.789176 
L 784.238811 196.28925 
L 784.748983 199.61372 
L 785.259154 194.805768 
L 785.764224 196.464737 
L 786.274395 197.446744 
L 786.784567 202.766868 
L 787.294738 194.639302 
L 787.799808 201.527412 
L 788.309979 203.903699 
L 788.820151 207.39598 
L 789.330322 204.929241 
L 789.840494 209.384874 
L 790.855735 197.267624 
L 791.365906 194.189001 
L 791.870976 191.935844 
L 792.381147 197.536091 
L 792.886217 205.384319 
L 793.396389 199.406246 
L 793.901458 209.283924 
L 794.41163 194.960579 
L 794.921801 195.219746 
L 795.431973 201.854344 
L 795.937042 202.714298 
L 796.952283 200.206179 
L 797.462455 207.096151 
L 797.967525 207.194945 
L 798.477696 197.260545 
L 798.982766 200.909007 
L 799.492937 209.477308 
L 799.998007 207.721435 
L 800.508178 204.96506 
L 801.523419 206.452573 
L 802.028489 197.893612 
L 802.538661 200.246029 
L 803.04373 205.93106 
L 803.5488 198.047412 
L 804.058971 206.109528 
L 804.564041 202.029325 
L 805.069111 204.887076 
L 805.574181 203.264564 
L 806.07925 204.489611 
L 806.589422 204.74565 
L 807.094491 208.662952 
L 807.599561 205.062976 
L 808.104631 212.295607 
L 808.609701 199.153493 
L 809.11477 203.426613 
L 809.61984 194.906412 
L 810.130011 204.733782 
L 810.635081 210.149893 
L 811.140151 210.099292 
L 811.645221 200.805516 
L 812.15029 213.552294 
L 812.65536 212.830931 
L 813.16043 206.558046 
L 813.665499 208.180105 
L 814.170569 202.54847 
L 814.675639 208.601853 
L 815.180709 213.149028 
L 815.685778 211.987103 
L 816.190848 214.617088 
L 816.695918 207.545109 
L 817.206089 210.348346 
L 817.711159 207.628854 
L 818.216229 209.351038 
L 818.721298 209.440119 
L 819.226368 213.430335 
L 819.731438 203.538194 
L 820.241609 207.394716 
L 820.746679 212.978171 
L 821.251749 214.124808 
L 821.756818 199.817602 
L 822.261888 208.325815 
L 822.766958 211.992905 
L 823.272027 204.899982 
L 824.282167 216.232322 
L 824.787237 204.945474 
L 825.802478 215.228614 
L 826.307547 210.126488 
L 826.812617 208.468477 
L 827.317687 210.722592 
L 827.317687 210.722592 
" clip-path="url(#p8d45cbc1a4)" style="fill: none; stroke: #ff0000; stroke-width: 1.5; stroke-linecap: square"/>
   </g>
   <g id="line2d_17">
    <path d="M 116.368293 191.625664 
L 116.863159 140.06512 
L 117.347822 133.248275 
L 117.832485 135.306292 
L 118.312046 129.550848 
L 118.796709 138.38574 
L 119.281371 130.078615 
L 119.771136 147.046435 
L 120.255799 141.836175 
L 120.740462 138.944509 
L 121.230226 134.11089 
L 121.719991 134.827729 
L 122.209755 137.505442 
L 123.199488 130.519656 
L 123.694354 136.181002 
L 124.189221 147.653263 
L 124.684087 134.489035 
L 125.184055 137.699051 
L 125.684023 151.048813 
L 126.183991 131.570692 
L 126.678857 132.184772 
L 127.178825 146.126845 
L 127.678793 138.565286 
L 128.183863 138.553896 
L 128.683831 139.96755 
L 129.183799 139.379881 
L 129.683767 131.659307 
L 130.188837 134.649355 
L 130.693906 139.43663 
L 131.198976 135.355416 
L 131.709147 135.922607 
L 132.214217 138.614024 
L 132.719287 138.812983 
L 133.229458 135.993247 
L 133.73963 135.454343 
L 134.249801 134.69152 
L 134.759973 143.528022 
L 135.270144 130.924226 
L 135.785417 135.089757 
L 136.30069 136.843541 
L 136.815963 138.185717 
L 137.336338 131.488583 
L 137.851611 134.057521 
L 138.366885 133.075621 
L 138.887259 134.338057 
L 139.928009 139.302735 
L 140.448384 135.892284 
L 140.968759 145.737483 
L 141.494235 135.847338 
L 142.019712 134.855964 
L 142.540087 136.989051 
L 143.065563 131.218399 
L 143.596142 140.069431 
L 144.121618 137.785724 
L 144.652197 140.715777 
L 145.177673 140.275322 
L 145.708251 141.224091 
L 146.23883 141.927198 
L 146.769408 140.270931 
L 147.299986 136.617665 
L 147.830565 151.681693 
L 148.366245 134.058732 
L 148.896823 138.638267 
L 149.427401 142.067014 
L 149.957979 132.659169 
L 150.493659 133.417935 
L 151.029339 142.784598 
L 151.565019 138.380059 
L 152.100699 146.412556 
L 152.641481 139.157944 
L 153.712841 133.597334 
L 154.253623 140.16909 
L 154.789303 152.22693 
L 155.330085 141.701788 
L 155.870866 144.127346 
L 156.406546 138.428677 
L 156.947328 139.248967 
L 157.48811 135.100308 
L 158.028891 132.041138 
L 158.574775 138.726789 
L 159.115557 141.172531 
L 159.656338 136.112438 
L 160.202222 135.519794 
L 160.743003 143.61222 
L 161.288887 145.700866 
L 161.829669 140.729136 
L 162.375552 134.47408 
L 162.921435 138.03088 
L 163.462217 142.915326 
L 164.008101 138.170163 
L 165.104969 138.271046 
L 165.655954 140.161984 
L 166.201838 151.001165 
L 166.752823 139.413145 
L 167.298706 147.277926 
L 167.84459 138.986714 
L 168.395575 143.852545 
L 168.94656 140.19445 
L 169.492443 140.798937 
L 170.043429 137.940575 
L 170.594414 137.520437 
L 171.140297 139.239121 
L 171.696384 147.701456 
L 172.247369 140.106607 
L 172.798354 134.631951 
L 173.900325 140.676791 
L 174.45131 155.158726 
L 175.002295 139.129856 
L 175.558382 140.769066 
L 176.109367 136.946194 
L 177.216439 148.354642 
L 177.772526 136.173112 
L 178.879598 152.052827 
L 179.430583 138.217877 
L 179.98667 135.545686 
L 180.542757 148.323387 
L 181.098843 141.774477 
L 181.65493 142.103644 
L 182.211017 141.703239 
L 182.767104 139.557418 
L 183.884379 147.635913 
L 184.440466 140.906286 
L 184.996553 139.796786 
L 185.557742 142.654416 
L 186.113829 140.734618 
L 186.675017 144.00528 
L 187.231104 144.85129 
L 187.787191 147.63111 
L 188.904466 138.40981 
L 189.465655 142.205086 
L 190.026843 141.239671 
L 190.58293 140.614561 
L 191.144119 151.963759 
L 191.705307 141.955925 
L 192.261394 147.595584 
L 192.822583 145.786049 
L 193.94496 139.896431 
L 194.506149 141.792759 
L 195.067337 159.270103 
L 195.633627 142.157505 
L 196.194816 145.933488 
L 196.756005 152.640548 
L 197.317193 137.955024 
L 197.878382 150.000504 
L 198.444672 144.50263 
L 199.005861 142.714544 
L 199.567049 146.181611 
L 200.133339 143.454109 
L 200.694528 150.24248 
L 201.260818 146.604942 
L 201.822007 144.6739 
L 202.388297 146.731119 
L 202.949486 142.008296 
L 203.515776 143.58968 
L 204.082066 143.916412 
L 204.648357 145.844859 
L 205.214647 144.39548 
L 205.780937 149.970886 
L 206.347227 144.566058 
L 206.908416 141.652478 
L 207.479808 150.7412 
L 208.046098 146.776664 
L 208.612389 141.251913 
L 209.178679 141.740561 
L 209.744969 150.364519 
L 210.316361 152.345709 
L 210.882651 140.932272 
L 211.448942 149.624927 
L 212.015232 140.328943 
L 212.581522 150.42655 
L 213.152914 151.898202 
L 213.719205 147.411461 
L 214.285495 150.985784 
L 214.851785 147.055829 
L 215.423177 161.251081 
L 215.994569 145.198367 
L 216.560859 150.461943 
L 217.132251 143.142598 
L 217.698542 141.611709 
L 218.269934 148.763922 
L 218.841326 146.886262 
L 219.412718 148.39392 
L 219.979008 144.944496 
L 220.5504 150.761066 
L 221.121792 153.298617 
L 221.693184 145.344196 
L 222.264576 149.013149 
L 222.835968 143.331086 
L 223.40736 147.051265 
L 223.978752 148.050968 
L 225.126638 142.708729 
L 225.69803 146.785672 
L 226.269422 142.791943 
L 226.840814 148.434981 
L 227.412206 147.475847 
L 227.988699 151.832446 
L 228.560091 152.330741 
L 229.131483 146.149305 
L 229.702875 149.247713 
L 230.279369 149.300922 
L 230.850761 141.861522 
L 231.422153 147.863944 
L 231.998647 145.856834 
L 232.570039 146.131954 
L 233.141431 143.083216 
L 233.717925 145.509093 
L 234.289317 146.665176 
L 234.860709 152.224163 
L 235.437202 149.311274 
L 236.013696 149.117877 
L 236.585088 149.992854 
L 237.161582 144.204811 
L 237.738075 146.486655 
L 238.314569 143.416215 
L 238.885961 149.866969 
L 239.462455 153.961422 
L 240.038949 142.205858 
L 240.615442 146.534529 
L 241.191936 163.255037 
L 241.76843 143.092636 
L 242.344923 149.977206 
L 242.921417 152.766951 
L 243.497911 143.637394 
L 244.074405 159.549561 
L 244.650898 150.65997 
L 245.227392 156.144259 
L 245.803886 143.308227 
L 246.385481 144.325559 
L 246.961975 147.302821 
L 247.538469 142.028973 
L 248.114962 148.171463 
L 248.696558 149.944155 
L 249.273051 143.056099 
L 249.849545 142.928724 
L 250.426039 146.746806 
L 251.007634 144.086657 
L 251.584128 150.088308 
L 252.160622 150.752058 
L 252.737115 143.404014 
L 253.313609 146.547648 
L 253.895205 143.312285 
L 254.471698 148.258189 
L 255.053294 139.775377 
L 255.629787 137.156183 
L 256.206281 143.745502 
L 256.782775 146.542259 
L 257.359269 143.04918 
L 257.940864 140.704813 
L 258.517358 144.90108 
L 259.093851 156.938869 
L 259.675447 141.568879 
L 260.257042 139.304106 
L 260.833536 147.212329 
L 261.41003 138.881587 
L 261.986523 144.926068 
L 262.568119 139.060134 
L 263.149714 144.178825 
L 264.307803 137.284023 
L 264.889399 141.408799 
L 265.465893 143.489515 
L 266.047488 144.734001 
L 266.629083 139.700919 
L 267.205577 142.227852 
L 267.787173 143.031098 
L 268.368768 142.721356 
L 268.950363 141.443646 
L 269.531959 137.500026 
L 270.108453 140.841821 
L 270.690048 142.994481 
L 271.271643 141.590487 
L 271.853239 138.177188 
L 272.434834 140.777036 
L 273.01643 143.989939 
L 273.598025 143.56891 
L 274.179621 140.259687 
L 274.766318 140.990923 
L 275.347913 144.141862 
L 275.929509 138.823774 
L 276.511104 139.783374 
L 277.097801 143.435255 
L 277.674295 139.712242 
L 278.260992 142.672166 
L 278.842587 138.180767 
L 279.424183 140.516126 
L 280.005778 137.720101 
L 280.582272 140.264956 
L 281.168969 141.436115 
L 281.750565 137.268362 
L 282.33216 144.422185 
L 282.913755 137.893938 
L 283.500453 144.529375 
L 284.082048 138.23689 
L 284.663643 151.024796 
L 285.245239 153.257422 
L 285.826834 142.018262 
L 286.413531 140.55583 
L 286.995127 148.825753 
L 287.576722 145.414303 
L 288.163419 150.150325 
L 288.745015 149.223338 
L 289.331712 143.018031 
L 289.913307 140.256281 
L 290.494903 147.666276 
L 291.076498 140.704201 
L 291.663195 153.716785 
L 292.244791 146.876988 
L 292.826386 147.390983 
L 293.407982 150.596821 
L 293.989577 145.714345 
L 294.576274 160.53987 
L 295.15787 143.395312 
L 296.326162 145.735155 
L 296.907758 151.89908 
L 297.489353 150.238009 
L 298.07605 158.527904 
L 298.657646 148.218871 
L 299.239241 148.0612 
L 299.825938 149.779126 
L 300.407534 146.105623 
L 300.989129 148.779622 
L 301.570725 153.395535 
L 302.157422 150.270196 
L 302.739017 156.402441 
L 303.320613 154.980538 
L 303.902208 145.949029 
L 304.488905 151.636534 
L 305.070501 147.309074 
L 305.652096 146.587072 
L 306.238793 149.921403 
L 306.820389 147.742624 
L 307.401984 155.777916 
L 307.983579 153.106258 
L 308.565175 140.503406 
L 309.151872 150.353369 
L 309.733467 145.529863 
L 310.315063 144.855388 
L 310.896658 147.952786 
L 311.483355 141.356082 
L 312.064951 145.858285 
L 312.646546 144.056201 
L 313.228142 141.785108 
L 313.809737 146.274271 
L 314.391333 158.944755 
L 314.97803 145.749352 
L 315.559625 148.189306 
L 316.141221 146.672654 
L 316.722816 149.134829 
L 317.309513 140.486907 
L 317.891109 147.085726 
L 318.472704 141.22739 
L 319.054299 152.600658 
L 319.640997 143.763983 
L 320.222592 149.421524 
L 320.804187 146.605035 
L 321.385783 141.731061 
L 321.97248 150.107255 
L 322.554075 139.678565 
L 323.135671 140.661596 
L 323.717266 153.422212 
L 324.298862 139.255328 
L 324.880457 140.261297 
L 325.467154 142.458837 
L 326.04875 143.732595 
L 326.630345 146.220037 
L 327.211941 142.824674 
L 327.798638 143.945685 
L 328.380233 143.430718 
L 328.961829 146.859199 
L 329.543424 146.573155 
L 330.130121 139.825566 
L 330.711717 149.276387 
L 331.293312 149.573887 
L 332.456503 138.140518 
L 333.0432 141.257834 
L 333.624795 146.397095 
L 334.206391 144.113508 
L 334.782885 143.344125 
L 335.369582 143.127989 
L 335.951177 150.710451 
L 336.532773 146.113526 
L 337.109266 147.09858 
L 337.690862 145.652008 
L 338.272457 148.533695 
L 338.854053 156.239207 
L 339.435648 143.627987 
L 340.017243 141.937643 
L 340.598839 148.532737 
L 341.180434 147.770459 
L 341.76203 148.431375 
L 342.343625 140.45512 
L 342.925221 141.863438 
L 343.506816 145.544153 
L 344.088411 155.477182 
L 344.670007 149.092144 
L 345.251602 146.873329 
L 345.828096 147.16081 
L 346.409691 146.406968 
L 346.991287 151.403008 
L 347.572882 146.212799 
L 348.149376 144.83249 
L 348.730971 153.577156 
L 349.312567 156.562693 
L 349.894162 153.422465 
L 350.475758 147.739391 
L 351.052251 145.773861 
L 351.633847 149.379598 
L 352.210341 154.823199 
L 352.791936 150.137645 
L 353.36843 148.221838 
L 353.950025 148.938664 
L 354.526519 148.9021 
L 355.684608 156.309355 
L 356.842697 148.274449 
L 357.424293 154.036652 
L 358.000786 151.511821 
L 358.57728 147.713072 
L 359.158875 148.169108 
L 359.735369 155.584426 
L 360.316965 160.02827 
L 360.893458 154.970013 
L 361.469952 154.4741 
L 362.051547 154.3591 
L 362.628041 157.071965 
L 363.204535 154.91872 
L 363.781029 153.732752 
L 364.357522 147.655698 
L 364.934016 159.756756 
L 366.087003 150.963883 
L 366.668599 160.225951 
L 367.245093 157.78444 
L 367.821586 147.967435 
L 368.39808 145.193537 
L 368.974574 158.721314 
L 369.551067 147.446388 
L 370.132663 156.920893 
L 371.28565 144.527725 
L 371.857042 151.552935 
L 372.433536 154.231898 
L 373.01003 150.802459 
L 373.586523 143.58026 
L 374.163017 148.832858 
L 375.316005 144.607971 
L 376.468992 145.71968 
L 377.045486 164.227078 
L 377.616878 149.488505 
L 378.193371 147.402293 
L 378.769865 145.816705 
L 379.341257 144.662098 
L 379.917751 153.991772 
L 380.489143 152.098145 
L 381.065637 154.551352 
L 381.64213 153.18802 
L 382.213522 144.658838 
L 382.790016 146.218906 
L 383.36651 152.767151 
L 383.943003 148.769244 
L 384.514395 152.644101 
L 385.085787 144.009538 
L 385.662281 152.956357 
L 386.233673 144.152254 
L 386.810167 148.789655 
L 387.381559 148.077752 
L 387.958053 145.400945 
L 388.529445 145.198992 
L 389.100837 145.826192 
L 389.672229 149.824578 
L 390.243621 145.974629 
L 390.815013 156.577223 
L 391.386405 149.206333 
L 391.957797 153.275252 
L 392.53429 155.202648 
L 393.105682 145.295285 
L 393.677074 152.832322 
L 394.248466 147.804069 
L 394.819858 146.862379 
L 395.39125 145.618531 
L 395.967744 151.419839 
L 396.539136 146.726236 
L 397.110528 154.655681 
L 397.68192 154.528147 
L 398.253312 149.516393 
L 398.829806 152.786378 
L 399.396096 145.393573 
L 399.967488 150.862548 
L 400.533778 145.290601 
L 401.10517 145.18586 
L 401.676562 143.958258 
L 402.247954 149.057616 
L 402.819346 148.626355 
L 403.390738 156.511121 
L 403.957029 148.917162 
L 404.528421 160.278428 
L 405.099813 149.500812 
L 405.666103 146.939817 
L 406.237495 145.65443 
L 406.808887 150.230013 
L 407.375177 143.296105 
L 407.941467 152.662662 
L 408.512859 151.419147 
L 409.07915 149.076337 
L 409.650542 150.646465 
L 410.216832 147.249931 
L 410.788224 150.644282 
L 411.354514 151.777321 
L 411.925906 143.763424 
L 412.492197 146.545346 
L 413.058487 146.965949 
L 413.624777 154.827976 
L 414.191067 146.574818 
L 414.757358 144.952133 
L 415.323648 148.262966 
L 415.889938 148.103538 
L 416.456229 151.864699 
L 417.027621 148.287528 
L 417.593911 147.191985 
L 417.593911 147.191985 
" clip-path="url(#p8d45cbc1a4)" style="fill: none; stroke: #0000ff; stroke-width: 1.5; stroke-linecap: square"/>
   </g>
   <g id="patch_3">
    <path d="M 115.2 461.376 
L 115.2 62.208 
" style="fill: none; stroke: #000000; stroke-width: 0.8; stroke-linejoin: miter; stroke-linecap: square"/>
   </g>
   <g id="patch_4">
    <path d="M 829.44 461.376 
L 829.44 62.208 
" style="fill: none; stroke: #000000; stroke-width: 0.8; stroke-linejoin: miter; stroke-linecap: square"/>
   </g>
   <g id="patch_5">
    <path d="M 115.2 461.376 
L 829.44 461.376 
" style="fill: none; stroke: #000000; stroke-width: 0.8; stroke-linejoin: miter; stroke-linecap: square"/>
   </g>
   <g id="patch_6">
    <path d="M 115.2 62.208 
L 829.44 62.208 
" style="fill: none; stroke: #000000; stroke-width: 0.8; stroke-linejoin: miter; stroke-linecap: square"/>
   </g>
   <g id="text_18">
    <!-- $\mathrm{proto\ &amp;\ mica*}$的吞吐量随时间的变化趋势 -->
    <g transform="translate(265.866 56.208) scale(0.228 -0.228)">
     <defs>
      <path id="STIXGeneral-Regular-72" d="M 1024 2931 
L 1024 2342 
Q 1267 2688 1430 2816 
Q 1594 2944 1792 2944 
Q 1958 2944 2051 2854 
Q 2144 2765 2144 2605 
Q 2144 2470 2077 2393 
Q 2010 2317 1894 2317 
Q 1773 2317 1638 2445 
Q 1536 2541 1472 2541 
Q 1338 2541 1181 2355 
Q 1024 2170 1024 2016 
L 1024 576 
Q 1024 301 1133 205 
Q 1242 109 1568 96 
L 1568 0 
L 32 0 
L 32 96 
Q 339 154 412 224 
Q 486 294 486 538 
L 486 2138 
Q 486 2349 438 2435 
Q 390 2522 269 2522 
Q 166 2522 45 2496 
L 45 2598 
Q 448 2726 992 2944 
L 1024 2931 
z
" transform="scale(0.015625)"/>
      <path id="STIXGeneral-Regular-74" d="M 1702 493 
L 1786 422 
Q 1478 -64 1011 -64 
Q 448 -64 448 749 
L 448 2675 
L 109 2675 
Q 83 2694 83 2720 
Q 83 2771 192 2842 
Q 435 2982 813 3526 
Q 826 3546 874 3606 
Q 922 3667 941 3706 
Q 986 3706 986 3622 
L 986 2880 
L 1632 2880 
L 1632 2675 
L 986 2675 
L 986 845 
Q 986 538 1062 403 
Q 1139 269 1318 269 
Q 1510 269 1702 493 
z
" transform="scale(0.015625)"/>
      <path id="STIXGeneral-Regular-26" d="M 4704 710 
L 4800 640 
Q 4659 294 4409 105 
Q 4160 -83 3834 -83 
Q 3309 -83 2746 499 
Q 2387 186 2070 51 
Q 1754 -83 1363 -83 
Q 838 -83 553 160 
Q 269 403 269 877 
Q 269 1267 528 1628 
Q 787 1990 1274 2272 
L 1517 2413 
Q 1293 2957 1293 3366 
Q 1293 3789 1571 4057 
Q 1850 4326 2266 4326 
Q 2656 4326 2899 4115 
Q 3142 3904 3142 3533 
Q 3142 3181 2921 2937 
Q 2701 2694 2150 2458 
Q 2509 1683 2995 1139 
Q 3315 1568 3449 1821 
Q 3584 2074 3584 2291 
Q 3584 2438 3494 2502 
Q 3405 2566 3168 2592 
L 3168 2726 
L 4550 2726 
L 4550 2592 
Q 4326 2592 4201 2509 
Q 4077 2426 3949 2214 
Q 3859 2074 3702 1814 
Q 3546 1555 3424 1363 
Q 3302 1171 3142 960 
Q 3379 659 3606 515 
Q 3834 371 4115 371 
Q 4301 371 4425 444 
Q 4550 518 4704 710 
z
M 2803 3558 
Q 2803 3795 2662 3958 
Q 2522 4122 2304 4122 
Q 2080 4122 1939 3974 
Q 1798 3827 1798 3590 
Q 1798 3334 1849 3139 
Q 1901 2944 2054 2662 
Q 2458 2848 2630 3059 
Q 2803 3270 2803 3558 
z
M 2586 666 
Q 2035 1312 1613 2195 
Q 1197 1926 1027 1686 
Q 858 1446 858 1114 
Q 858 717 1078 486 
Q 1299 256 1651 256 
Q 2061 256 2586 666 
z
" transform="scale(0.015625)"/>
      <path id="STIXGeneral-Regular-6d" d="M 4960 0 
L 3565 0 
L 3565 96 
Q 3834 122 3907 208 
Q 3981 294 3981 576 
L 3981 1894 
Q 3981 2278 3869 2444 
Q 3757 2611 3488 2611 
Q 3264 2611 3107 2521 
Q 2950 2432 2803 2221 
L 2803 608 
Q 2803 301 2896 201 
Q 2989 102 3264 96 
L 3264 0 
L 1830 0 
L 1830 96 
Q 2112 115 2189 188 
Q 2266 262 2266 550 
L 2266 1901 
Q 2266 2611 1850 2611 
Q 1670 2611 1468 2531 
Q 1267 2451 1171 2336 
Q 1088 2240 1088 2227 
L 1088 448 
Q 1088 243 1177 176 
Q 1267 109 1523 96 
L 1523 0 
L 102 0 
L 102 96 
Q 371 102 460 195 
Q 550 288 550 563 
L 550 2150 
Q 550 2387 499 2480 
Q 448 2573 326 2573 
Q 230 2573 122 2547 
L 122 2656 
Q 557 2778 1011 2944 
L 1062 2925 
L 1062 2451 
L 1075 2451 
Q 1363 2752 1584 2848 
Q 1805 2944 2054 2944 
Q 2560 2944 2733 2406 
Q 3232 2944 3776 2944 
Q 4518 2944 4518 1792 
L 4518 493 
Q 4518 282 4582 202 
Q 4646 122 4794 109 
L 4960 96 
L 4960 0 
z
" transform="scale(0.015625)"/>
      <path id="STIXGeneral-Regular-69" d="M 1152 4045 
Q 1152 3904 1056 3811 
Q 960 3718 819 3718 
Q 685 3718 592 3811 
Q 499 3904 499 4045 
Q 499 4179 595 4275 
Q 691 4371 826 4371 
Q 966 4371 1059 4275 
Q 1152 4179 1152 4045 
z
M 1619 0 
L 102 0 
L 102 96 
Q 435 115 521 211 
Q 608 307 608 666 
L 608 2118 
Q 608 2342 563 2432 
Q 518 2522 397 2522 
Q 243 2522 128 2490 
L 128 2592 
L 1120 2944 
L 1146 2918 
L 1146 672 
Q 1146 314 1226 218 
Q 1306 122 1619 96 
L 1619 0 
z
" transform="scale(0.015625)"/>
      <path id="STIXGeneral-Regular-63" d="M 2547 998 
L 2637 941 
Q 2362 403 2112 205 
Q 1786 -64 1376 -64 
Q 845 -64 502 336 
Q 160 736 160 1357 
Q 160 2170 698 2618 
Q 1094 2944 1562 2944 
Q 1965 2944 2256 2749 
Q 2547 2554 2547 2285 
Q 2547 2176 2457 2096 
Q 2368 2016 2246 2016 
Q 2022 2016 1939 2310 
L 1901 2451 
Q 1850 2630 1773 2694 
Q 1696 2758 1523 2758 
Q 1133 2758 893 2451 
Q 653 2144 653 1645 
Q 653 1094 928 745 
Q 1203 397 1645 397 
Q 1920 397 2118 528 
Q 2317 659 2547 998 
z
" transform="scale(0.015625)"/>
      <path id="STIXGeneral-Regular-61" d="M 2829 422 
L 2829 243 
Q 2586 -64 2253 -64 
Q 1888 -64 1843 403 
L 1837 403 
Q 1427 -64 909 -64 
Q 608 -64 422 112 
Q 237 288 237 602 
Q 237 1050 685 1350 
Q 992 1555 1837 1869 
L 1837 2214 
Q 1837 2502 1699 2646 
Q 1562 2790 1338 2790 
Q 1146 2790 1018 2697 
Q 890 2605 890 2477 
Q 890 2419 909 2348 
Q 928 2278 928 2208 
Q 928 2112 841 2029 
Q 755 1946 634 1946 
Q 525 1946 441 2029 
Q 358 2112 358 2240 
Q 358 2547 685 2752 
Q 986 2944 1421 2944 
Q 1939 2944 2176 2656 
Q 2291 2522 2323 2384 
Q 2355 2246 2355 1946 
L 2355 723 
Q 2355 301 2554 301 
Q 2682 301 2829 422 
z
M 1837 813 
L 1837 1715 
Q 1248 1510 1018 1293 
Q 800 1094 800 800 
Q 800 557 921 432 
Q 1043 307 1242 307 
Q 1453 307 1613 410 
Q 1747 506 1792 589 
Q 1837 672 1837 813 
z
" transform="scale(0.015625)"/>
      <path id="STIXGeneral-Regular-2a" d="M 1715 3014 
L 1773 2976 
Q 2010 2822 2387 2758 
Q 2605 2726 2688 2665 
Q 2771 2605 2771 2483 
Q 2771 2374 2707 2304 
Q 2643 2234 2541 2234 
Q 2381 2234 2157 2515 
Q 2010 2694 1715 2886 
L 1664 2918 
L 1664 2861 
Q 1664 2502 1792 2157 
Q 1850 1997 1850 1946 
Q 1850 1850 1770 1773 
Q 1690 1696 1594 1696 
Q 1504 1696 1433 1766 
Q 1363 1837 1363 1926 
Q 1363 2016 1440 2227 
Q 1542 2502 1542 2861 
L 1542 2918 
Q 1286 2758 1210 2688 
Q 1133 2611 947 2400 
Q 806 2240 672 2240 
Q 563 2240 499 2304 
Q 435 2368 435 2470 
Q 435 2592 528 2656 
Q 621 2720 838 2758 
Q 1062 2803 1180 2848 
Q 1299 2893 1498 3014 
Q 1222 3181 877 3251 
Q 640 3302 544 3366 
Q 448 3430 448 3546 
Q 448 3648 505 3715 
Q 563 3782 659 3782 
Q 787 3782 973 3578 
Q 1242 3277 1542 3110 
L 1542 3194 
Q 1542 3456 1446 3776 
Q 1376 3987 1376 4109 
Q 1376 4198 1443 4262 
Q 1510 4326 1606 4326 
Q 1702 4326 1772 4259 
Q 1843 4192 1843 4096 
Q 1843 3994 1773 3795 
Q 1664 3507 1664 3264 
L 1664 3110 
Q 1882 3238 2035 3379 
Q 2067 3411 2153 3504 
Q 2240 3597 2291 3648 
Q 2342 3699 2409 3747 
Q 2477 3795 2528 3795 
Q 2637 3795 2701 3728 
Q 2765 3661 2765 3552 
Q 2765 3424 2691 3363 
Q 2618 3302 2432 3277 
Q 2074 3219 1715 3014 
z
" transform="scale(0.015625)"/>
      <path id="SimSun-7684" d="M 1125 3775 
L 1125 2175 
L 2425 2175 
L 2425 3775 
L 1125 3775 
z
M 1125 2025 
L 1125 275 
L 2425 275 
L 2425 2025 
L 1125 2025 
z
M 2750 3625 
Q 2750 700 2775 -200 
L 2425 -400 
L 2425 125 
L 1125 125 
L 1125 -300 
L 775 -500 
Q 800 675 800 1837 
Q 800 3000 775 4150 
L 1150 3925 
L 1400 3925 
Q 1650 4775 1675 5225 
L 2225 4925 
Q 1975 4800 1550 3925 
L 2375 3925 
L 2625 4175 
L 3000 3800 
L 2750 3625 
z
M 3975 5200 
L 4525 4875 
Q 4325 4750 3900 3850 
L 5250 3850 
L 5525 4125 
L 5900 3750 
L 5675 3575 
Q 5625 650 5537 262 
Q 5450 -125 5287 -275 
Q 5125 -425 4775 -550 
Q 4650 -150 3950 50 
L 3950 175 
Q 4575 50 4850 50 
Q 5125 50 5187 475 
Q 5250 900 5300 3700 
L 3850 3700 
Q 3400 2975 2900 2475 
L 2825 2525 
Q 3350 3325 3600 3950 
Q 3850 4575 3975 5200 
z
M 3525 2750 
Q 4125 2300 4225 2087 
Q 4325 1875 4325 1775 
Q 4325 1600 4225 1475 
Q 4125 1350 4075 1350 
Q 3975 1350 3925 1700 
Q 3825 2200 3475 2675 
L 3525 2750 
z
" transform="scale(0.015625)"/>
      <path id="SimSun-968f" d="M 2175 4225 
L 2250 4275 
Q 2800 3825 2850 3625 
Q 2900 3425 2775 3300 
Q 2650 3175 2600 3175 
Q 2500 3175 2475 3425 
Q 2425 3800 2175 4225 
z
M 6050 0 
L 6050 -100 
Q 5650 -175 5625 -475 
Q 4975 -450 4487 -425 
Q 4000 -400 3650 -262 
Q 3300 -125 3050 150 
Q 2875 300 2750 300 
Q 2650 300 2487 162 
Q 2325 25 2125 -375 
L 1750 -100 
Q 2100 175 2575 450 
L 2575 2300 
Q 2525 2300 2250 2225 
L 2025 2450 
L 2550 2450 
L 2700 2650 
L 3075 2375 
L 2875 2225 
L 2875 475 
Q 3325 75 3762 0 
Q 4200 -75 4725 -62 
Q 5250 -50 6050 0 
z
M 600 4900 
L 950 4675 
L 1700 4675 
L 1900 4900 
L 2300 4625 
L 2075 4450 
L 1475 3000 
Q 1650 2775 1900 2475 
Q 2125 2175 2162 1975 
Q 2200 1775 2200 1650 
Q 2200 1400 2075 1150 
Q 1950 900 1400 800 
Q 1400 1075 950 1250 
L 950 -475 
L 600 -650 
Q 625 0 625 2175 
Q 625 4350 600 4900 
z
M 1300 3000 
L 1725 4525 
L 950 4525 
L 950 1350 
Q 1275 1275 1425 1275 
Q 1600 1275 1725 1350 
Q 1850 1425 1850 1675 
Q 1850 1825 1812 2100 
Q 1775 2375 1300 3000 
z
M 3900 3250 
L 3900 2600 
L 5150 2600 
L 5150 3250 
L 3900 3250 
z
M 3575 250 
Q 3600 725 3600 3200 
Q 3350 2875 3000 2625 
L 2950 2675 
Q 3525 3325 3850 4175 
L 3600 4175 
Q 3275 4175 3000 4100 
L 2775 4325 
L 3900 4325 
Q 4100 4925 4100 5150 
L 4600 4900 
Q 4425 4800 4225 4325 
L 5325 4325 
L 5625 4625 
L 6025 4175 
L 4175 4175 
Q 4025 3825 3825 3475 
L 3925 3400 
L 5100 3400 
L 5250 3625 
L 5650 3350 
L 5475 3200 
L 5475 875 
Q 5525 425 5025 275 
Q 5025 550 4525 650 
L 4525 750 
Q 4950 725 5050 725 
Q 5150 725 5150 900 
L 5150 1650 
L 3900 1650 
L 3900 400 
L 3575 250 
z
M 3900 2450 
L 3900 1800 
L 5150 1800 
L 5150 2450 
L 3900 2450 
z
" transform="scale(0.015625)"/>
      <path id="SimSun-53d8" d="M 2750 4225 
L 2750 2225 
L 3650 2225 
L 3650 4225 
L 2750 4225 
z
M 375 4375 
L 3100 4375 
Q 3050 4750 2650 5200 
L 2700 5275 
Q 3150 5075 3325 4925 
Q 3500 4775 3500 4700 
Q 3500 4550 3300 4375 
L 5125 4375 
L 5525 4775 
L 6075 4225 
L 4000 4225 
L 4000 2225 
L 4425 2225 
L 4675 2500 
L 5100 2100 
L 4825 1975 
Q 4300 1325 3525 650 
Q 4500 -50 6125 -175 
L 6125 -275 
Q 5750 -325 5625 -575 
Q 4175 -250 3300 450 
Q 2150 -300 350 -600 
L 325 -500 
Q 2050 -100 3075 675 
Q 2525 1250 2100 2075 
L 1650 2075 
L 1375 2025 
L 1175 2225 
L 2400 2225 
L 2400 4225 
L 1200 4225 
Q 875 4225 600 4150 
L 375 4375 
z
M 2275 2075 
Q 2725 1350 3300 850 
Q 3800 1300 4425 2075 
L 2275 2075 
z
M 1675 3850 
L 2125 3450 
L 1875 3350 
Q 1150 2575 325 1950 
L 250 2025 
Q 700 2425 1087 2937 
Q 1475 3450 1675 3850 
z
M 4350 3700 
Q 5675 3050 5812 2875 
Q 5950 2700 5950 2575 
Q 5950 2475 5900 2375 
Q 5850 2275 5800 2275 
Q 5700 2275 5500 2550 
Q 5200 2950 4275 3625 
L 4350 3700 
z
" transform="scale(0.015625)"/>
      <path id="SimSun-5316" d="M 1375 -600 
Q 1400 200 1400 925 
L 1400 3125 
Q 850 2300 350 1775 
L 275 1850 
Q 825 2625 1300 3650 
Q 1775 4675 1900 5200 
L 2450 4875 
L 2200 4725 
Q 1875 4000 1600 3475 
L 1950 3275 
L 1750 3075 
L 1750 350 
Q 1750 75 1775 -400 
L 1375 -600 
z
M 3450 2125 
L 3450 3925 
Q 3450 4475 3425 5200 
L 4000 4925 
L 3800 4725 
L 3800 2400 
Q 4150 2725 4562 3225 
Q 4975 3725 5150 4025 
L 5600 3600 
L 5325 3525 
Q 4600 2700 3800 2000 
L 3800 425 
Q 3800 0 4225 0 
L 5300 0 
Q 5500 0 5550 325 
Q 5600 650 5600 1325 
L 5725 1325 
Q 5775 650 5850 425 
Q 5925 200 6125 125 
Q 5900 -325 5400 -325 
L 4075 -325 
Q 3450 -325 3450 250 
L 3450 1775 
Q 2800 1275 1950 925 
L 1925 1025 
Q 2800 1525 3450 2125 
z
" transform="scale(0.015625)"/>
      <path id="SimSun-8d8b" d="M 3900 5225 
L 4425 4900 
L 4225 4825 
Q 4000 4475 3800 4150 
L 4750 4150 
L 4975 4425 
L 5400 4025 
Q 5100 4000 4475 3075 
L 5350 3075 
L 5500 3325 
L 5900 3050 
L 5725 2875 
Q 5725 1050 5750 525 
L 5400 375 
L 5400 800 
L 3725 800 
Q 3525 800 3250 725 
L 3025 950 
L 5400 950 
L 5400 1900 
L 4050 1900 
Q 3850 1900 3575 1825 
L 3350 2050 
L 5400 2050 
L 5400 2925 
L 3900 2925 
Q 3700 2925 3425 2850 
L 3200 3075 
L 4350 3075 
L 4775 4000 
L 3725 4000 
Q 3450 3625 3000 3200 
L 2950 3250 
Q 3650 4250 3900 5225 
z
M 300 -550 
L 225 -500 
Q 675 275 787 1112 
Q 900 1950 850 2425 
L 1400 2150 
Q 1250 2075 1212 1812 
Q 1175 1550 1125 1075 
Q 1500 750 1725 625 
L 1725 2825 
L 950 2825 
Q 750 2825 475 2750 
L 250 2975 
L 1600 2975 
L 1600 4025 
L 1225 4025 
Q 1025 4025 750 3950 
L 525 4175 
L 1600 4175 
Q 1600 4675 1575 5225 
L 2125 4975 
L 1925 4800 
L 1925 4175 
L 2400 4175 
L 2700 4475 
L 3100 4025 
L 1925 4025 
L 1925 2975 
L 2475 2975 
L 2800 3275 
L 3200 2825 
L 1750 2825 
L 2250 2600 
L 2050 2400 
L 2050 1800 
L 2625 1800 
L 2925 2100 
L 3300 1650 
L 2050 1650 
L 2050 425 
Q 2925 25 3737 0 
Q 4550 -25 4925 -25 
Q 5625 -25 6150 25 
L 6150 -50 
Q 5700 -250 5700 -475 
Q 4950 -500 4012 -412 
Q 3075 -325 2325 -12 
Q 1575 300 1100 900 
Q 775 -25 300 -550 
z
" transform="scale(0.015625)"/>
      <path id="SimSun-52bf" d="M 1650 4175 
Q 1650 4775 1625 5200 
L 2150 4950 
L 1975 4800 
L 1975 4175 
L 2200 4175 
L 2475 4450 
L 2900 4025 
L 1975 4025 
L 1975 3425 
Q 2400 3525 2800 3625 
L 2825 3525 
Q 2400 3375 1975 3225 
L 1975 2150 
Q 2000 1800 1475 1575 
Q 1450 1850 800 2025 
L 800 2150 
Q 1225 2100 1437 2087 
Q 1650 2075 1650 2325 
L 1650 3100 
Q 700 2750 700 2650 
L 400 3100 
Q 575 3100 1650 3350 
L 1650 4025 
L 1300 4025 
Q 975 4025 700 3950 
L 475 4175 
L 1650 4175 
z
M 3650 4175 
L 3650 4525 
Q 3650 4875 3625 5225 
L 4175 4975 
L 3975 4800 
L 3975 4200 
L 4700 4250 
L 4850 4475 
L 5200 4200 
L 5025 4050 
Q 5000 3900 5000 3575 
Q 5000 3225 5050 2812 
Q 5100 2400 5425 2175 
Q 5600 2650 5700 3050 
L 5800 3025 
Q 5725 2525 5725 2250 
Q 5725 1975 5825 1775 
Q 5900 1650 5775 1650 
Q 5725 1650 5475 1750 
Q 5225 1850 5012 2137 
Q 4800 2425 4737 2750 
Q 4675 3075 4675 3475 
Q 4675 3850 4700 4100 
L 3975 4050 
Q 3925 3450 3750 3050 
Q 4100 2900 4262 2787 
Q 4425 2675 4387 2475 
Q 4350 2275 4275 2275 
Q 4225 2275 4125 2400 
Q 3925 2625 3625 2825 
Q 3225 2225 2100 1800 
L 2050 1875 
Q 3075 2400 3375 2975 
Q 3225 3100 2850 3300 
L 2900 3375 
Q 3225 3275 3475 3175 
Q 3600 3500 3650 4025 
L 3300 4000 
L 3125 3925 
L 2875 4125 
L 3650 4175 
z
M 2600 1425 
Q 2675 1700 2700 2025 
L 3175 1775 
L 3000 1650 
L 2950 1425 
L 4725 1425 
L 4875 1675 
L 5325 1375 
L 5125 1225 
Q 5050 400 4987 112 
Q 4925 -175 4750 -350 
Q 4575 -525 4225 -600 
Q 4250 -350 3650 -50 
L 3675 50 
Q 4225 -100 4412 -87 
Q 4600 -75 4675 312 
Q 4750 700 4775 1275 
L 2925 1275 
Q 2800 775 2575 450 
Q 2350 125 1875 -162 
Q 1400 -450 450 -650 
L 400 -550 
Q 1500 -225 1950 200 
Q 2400 625 2575 1275 
L 1450 1275 
Q 1125 1275 850 1200 
L 625 1425 
L 2600 1425 
z
" transform="scale(0.015625)"/>
     </defs>
     <use xlink:href="#STIXGeneral-Regular-70" transform="translate(0 0.578125)"/>
     <use xlink:href="#STIXGeneral-Regular-72" transform="translate(49.999985 0.578125)"/>
     <use xlink:href="#STIXGeneral-Regular-6f" transform="translate(83.299973 0.578125)"/>
     <use xlink:href="#STIXGeneral-Regular-74" transform="translate(133.299957 0.578125)"/>
     <use xlink:href="#STIXGeneral-Regular-6f" transform="translate(161.099945 0.578125)"/>
     <use xlink:href="#STIXGeneral-Regular-26" transform="translate(235.16635 0.578125)"/>
     <use xlink:href="#STIXGeneral-Regular-6d" transform="translate(337.032757 0.578125)"/>
     <use xlink:href="#STIXGeneral-Regular-69" transform="translate(414.832745 0.578125)"/>
     <use xlink:href="#STIXGeneral-Regular-63" transform="translate(442.632733 0.578125)"/>
     <use xlink:href="#STIXGeneral-Regular-61" transform="translate(487.032727 0.578125)"/>
     <use xlink:href="#STIXGeneral-Regular-2a" transform="translate(545.872717 0.578125)"/>
     <use xlink:href="#SimSun-7684" transform="translate(610.312698 0.578125)"/>
     <use xlink:href="#SimSun-541e" transform="translate(710.312698 0.578125)"/>
     <use xlink:href="#SimSun-5410" transform="translate(810.312698 0.578125)"/>
     <use xlink:href="#SimSun-91cf" transform="translate(910.312698 0.578125)"/>
     <use xlink:href="#SimSun-968f" transform="translate(1010.312698 0.578125)"/>
     <use xlink:href="#SimSun-65f6" transform="translate(1110.312698 0.578125)"/>
     <use xlink:href="#SimSun-95f4" transform="translate(1210.312698 0.578125)"/>
     <use xlink:href="#SimSun-7684" transform="translate(1310.312698 0.578125)"/>
     <use xlink:href="#SimSun-53d8" transform="translate(1410.312698 0.578125)"/>
     <use xlink:href="#SimSun-5316" transform="translate(1510.312698 0.578125)"/>
     <use xlink:href="#SimSun-8d8b" transform="translate(1610.312698 0.578125)"/>
     <use xlink:href="#SimSun-52bf" transform="translate(1710.312698 0.578125)"/>
    </g>
   </g>
   <g id="legend_1">
    <g id="patch_7">
     <path d="M 715.235156 131.136437 
L 816.14 131.136437 
Q 819.94 131.136437 819.94 127.336437 
L 819.94 75.508 
Q 819.94 71.708 816.14 71.708 
L 715.235156 71.708 
Q 711.435156 71.708 711.435156 75.508 
L 711.435156 127.336437 
Q 711.435156 131.136437 715.235156 131.136437 
z
" style="fill: #ffffff; opacity: 0.8; stroke: #cccccc; stroke-linejoin: miter"/>
    </g>
    <g id="line2d_18">
     <path d="M 719.035156 85.958 
L 738.035156 85.958 
L 757.035156 85.958 
" style="fill: none; stroke: #ff0000; stroke-width: 1.5; stroke-linecap: square"/>
    </g>
    <g id="text_19">
     <!-- mica -->
     <g transform="translate(772.235156 92.608) scale(0.19 -0.19)">
      <defs>
       <path id="TimesNewRomanPSMT-6d" d="M 1050 2338 
Q 1363 2650 1419 2697 
Q 1559 2816 1721 2881 
Q 1884 2947 2044 2947 
Q 2313 2947 2506 2790 
Q 2700 2634 2766 2338 
Q 3088 2713 3309 2830 
Q 3531 2947 3766 2947 
Q 3994 2947 4170 2830 
Q 4347 2713 4450 2447 
Q 4519 2266 4519 1878 
L 4519 647 
Q 4519 378 4559 278 
Q 4591 209 4675 161 
Q 4759 113 4950 113 
L 4950 0 
L 3538 0 
L 3538 113 
L 3597 113 
Q 3781 113 3884 184 
Q 3956 234 3988 344 
Q 4000 397 4000 647 
L 4000 1878 
Q 4000 2228 3916 2372 
Q 3794 2572 3525 2572 
Q 3359 2572 3192 2489 
Q 3025 2406 2788 2181 
L 2781 2147 
L 2788 2013 
L 2788 647 
Q 2788 353 2820 281 
Q 2853 209 2943 161 
Q 3034 113 3253 113 
L 3253 0 
L 1806 0 
L 1806 113 
Q 2044 113 2133 169 
Q 2222 225 2256 338 
Q 2272 391 2272 647 
L 2272 1878 
Q 2272 2228 2169 2381 
Q 2031 2581 1784 2581 
Q 1616 2581 1450 2491 
Q 1191 2353 1050 2181 
L 1050 647 
Q 1050 366 1089 281 
Q 1128 197 1204 155 
Q 1281 113 1516 113 
L 1516 0 
L 100 0 
L 100 113 
Q 297 113 375 155 
Q 453 197 493 289 
Q 534 381 534 647 
L 534 1741 
Q 534 2213 506 2350 
Q 484 2453 437 2492 
Q 391 2531 309 2531 
Q 222 2531 100 2484 
L 53 2597 
L 916 2947 
L 1050 2947 
L 1050 2338 
z
" transform="scale(0.015625)"/>
       <path id="TimesNewRomanPSMT-69" d="M 928 4444 
Q 1059 4444 1151 4351 
Q 1244 4259 1244 4128 
Q 1244 3997 1151 3903 
Q 1059 3809 928 3809 
Q 797 3809 703 3903 
Q 609 3997 609 4128 
Q 609 4259 701 4351 
Q 794 4444 928 4444 
z
M 1188 2947 
L 1188 647 
Q 1188 378 1227 289 
Q 1266 200 1342 156 
Q 1419 113 1622 113 
L 1622 0 
L 231 0 
L 231 113 
Q 441 113 512 153 
Q 584 194 626 287 
Q 669 381 669 647 
L 669 1750 
Q 669 2216 641 2353 
Q 619 2453 572 2492 
Q 525 2531 444 2531 
Q 356 2531 231 2484 
L 188 2597 
L 1050 2947 
L 1188 2947 
z
" transform="scale(0.015625)"/>
       <path id="TimesNewRomanPSMT-63" d="M 2631 1088 
Q 2516 522 2178 217 
Q 1841 -88 1431 -88 
Q 944 -88 581 321 
Q 219 731 219 1428 
Q 219 2103 620 2525 
Q 1022 2947 1584 2947 
Q 2006 2947 2278 2723 
Q 2550 2500 2550 2259 
Q 2550 2141 2473 2067 
Q 2397 1994 2259 1994 
Q 2075 1994 1981 2113 
Q 1928 2178 1911 2362 
Q 1894 2547 1784 2644 
Q 1675 2738 1481 2738 
Q 1169 2738 978 2506 
Q 725 2200 725 1697 
Q 725 1184 976 792 
Q 1228 400 1656 400 
Q 1963 400 2206 609 
Q 2378 753 2541 1131 
L 2631 1088 
z
" transform="scale(0.015625)"/>
       <path id="TimesNewRomanPSMT-61" d="M 1822 413 
Q 1381 72 1269 19 
Q 1100 -59 909 -59 
Q 613 -59 420 144 
Q 228 347 228 678 
Q 228 888 322 1041 
Q 450 1253 767 1440 
Q 1084 1628 1822 1897 
L 1822 2009 
Q 1822 2438 1686 2597 
Q 1550 2756 1291 2756 
Q 1094 2756 978 2650 
Q 859 2544 859 2406 
L 866 2225 
Q 866 2081 792 2003 
Q 719 1925 600 1925 
Q 484 1925 411 2006 
Q 338 2088 338 2228 
Q 338 2497 613 2722 
Q 888 2947 1384 2947 
Q 1766 2947 2009 2819 
Q 2194 2722 2281 2516 
Q 2338 2381 2338 1966 
L 2338 994 
Q 2338 584 2353 492 
Q 2369 400 2405 369 
Q 2441 338 2488 338 
Q 2538 338 2575 359 
Q 2641 400 2828 588 
L 2828 413 
Q 2478 -56 2159 -56 
Q 2006 -56 1915 50 
Q 1825 156 1822 413 
z
M 1822 616 
L 1822 1706 
Q 1350 1519 1213 1441 
Q 966 1303 859 1153 
Q 753 1003 753 825 
Q 753 600 887 451 
Q 1022 303 1197 303 
Q 1434 303 1822 616 
z
" transform="scale(0.015625)"/>
      </defs>
      <use xlink:href="#TimesNewRomanPSMT-6d"/>
      <use xlink:href="#TimesNewRomanPSMT-69" x="77.783203"/>
      <use xlink:href="#TimesNewRomanPSMT-63" x="105.566406"/>
      <use xlink:href="#TimesNewRomanPSMT-61" x="149.951172"/>
     </g>
    </g>
    <g id="line2d_19">
     <path d="M 719.035156 112.822219 
L 738.035156 112.822219 
L 757.035156 112.822219 
" style="fill: none; stroke: #0000ff; stroke-width: 1.5; stroke-linecap: square"/>
    </g>
    <g id="text_20">
     <!-- proto -->
     <g transform="translate(772.235156 119.472219) scale(0.19 -0.19)">
      <defs>
       <path id="TimesNewRomanPSMT-70" d="M -6 2578 
L 875 2934 
L 994 2934 
L 994 2266 
Q 1216 2644 1439 2795 
Q 1663 2947 1909 2947 
Q 2341 2947 2628 2609 
Q 2981 2197 2981 1534 
Q 2981 794 2556 309 
Q 2206 -88 1675 -88 
Q 1444 -88 1275 -22 
Q 1150 25 994 166 
L 994 -706 
Q 994 -1000 1030 -1079 
Q 1066 -1159 1155 -1206 
Q 1244 -1253 1478 -1253 
L 1478 -1369 
L -22 -1369 
L -22 -1253 
L 56 -1253 
Q 228 -1256 350 -1188 
Q 409 -1153 442 -1076 
Q 475 -1000 475 -688 
L 475 2019 
Q 475 2297 450 2372 
Q 425 2447 370 2484 
Q 316 2522 222 2522 
Q 147 2522 31 2478 
L -6 2578 
z
M 994 2081 
L 994 1013 
Q 994 666 1022 556 
Q 1066 375 1236 237 
Q 1406 100 1666 100 
Q 1978 100 2172 344 
Q 2425 663 2425 1241 
Q 2425 1897 2138 2250 
Q 1938 2494 1663 2494 
Q 1513 2494 1366 2419 
Q 1253 2363 994 2081 
z
" transform="scale(0.015625)"/>
       <path id="TimesNewRomanPSMT-72" d="M 1038 2947 
L 1038 2303 
Q 1397 2947 1775 2947 
Q 1947 2947 2059 2842 
Q 2172 2738 2172 2600 
Q 2172 2478 2090 2393 
Q 2009 2309 1897 2309 
Q 1788 2309 1652 2417 
Q 1516 2525 1450 2525 
Q 1394 2525 1328 2463 
Q 1188 2334 1038 2041 
L 1038 669 
Q 1038 431 1097 309 
Q 1138 225 1241 169 
Q 1344 113 1538 113 
L 1538 0 
L 72 0 
L 72 113 
Q 291 113 397 181 
Q 475 231 506 341 
Q 522 394 522 644 
L 522 1753 
Q 522 2253 501 2348 
Q 481 2444 426 2487 
Q 372 2531 291 2531 
Q 194 2531 72 2484 
L 41 2597 
L 906 2947 
L 1038 2947 
z
" transform="scale(0.015625)"/>
       <path id="TimesNewRomanPSMT-6f" d="M 1600 2947 
Q 2250 2947 2644 2453 
Q 2978 2031 2978 1484 
Q 2978 1100 2793 706 
Q 2609 313 2286 112 
Q 1963 -88 1566 -88 
Q 919 -88 538 428 
Q 216 863 216 1403 
Q 216 1797 411 2186 
Q 606 2575 925 2761 
Q 1244 2947 1600 2947 
z
M 1503 2744 
Q 1338 2744 1170 2645 
Q 1003 2547 900 2300 
Q 797 2053 797 1666 
Q 797 1041 1045 587 
Q 1294 134 1700 134 
Q 2003 134 2200 384 
Q 2397 634 2397 1244 
Q 2397 2006 2069 2444 
Q 1847 2744 1503 2744 
z
" transform="scale(0.015625)"/>
       <path id="TimesNewRomanPSMT-74" d="M 1031 3803 
L 1031 2863 
L 1700 2863 
L 1700 2644 
L 1031 2644 
L 1031 788 
Q 1031 509 1111 412 
Q 1191 316 1316 316 
Q 1419 316 1516 380 
Q 1613 444 1666 569 
L 1788 569 
Q 1678 263 1478 108 
Q 1278 -47 1066 -47 
Q 922 -47 784 33 
Q 647 113 581 261 
Q 516 409 516 719 
L 516 2644 
L 63 2644 
L 63 2747 
Q 234 2816 414 2980 
Q 594 3144 734 3369 
Q 806 3488 934 3803 
L 1031 3803 
z
" transform="scale(0.015625)"/>
      </defs>
      <use xlink:href="#TimesNewRomanPSMT-70"/>
      <use xlink:href="#TimesNewRomanPSMT-72" x="50"/>
      <use xlink:href="#TimesNewRomanPSMT-6f" x="83.300781"/>
      <use xlink:href="#TimesNewRomanPSMT-74" x="133.300781"/>
      <use xlink:href="#TimesNewRomanPSMT-6f" x="161.083984"/>
     </g>
    </g>
   </g>
  </g>
 </g>
 <defs>
  <clipPath id="p8d45cbc1a4">
   <rect x="115.2" y="62.208" width="714.24" height="399.168"/>
  </clipPath>
 </defs>
</svg>
