<?xml version="1.0" encoding="utf-8" standalone="no"?>
<!DOCTYPE svg PUBLIC "-//W3C//DTD SVG 1.1//EN"
  "http://www.w3.org/Graphics/SVG/1.1/DTD/svg11.dtd">
<svg xmlns:xlink="http://www.w3.org/1999/xlink" width="921.6pt" height="518.4pt" viewBox="0 0 921.6 518.4" xmlns="http://www.w3.org/2000/svg" version="1.1">
 <metadata>
  <rdf:RDF xmlns:dc="http://purl.org/dc/elements/1.1/" xmlns:cc="http://creativecommons.org/ns#" xmlns:rdf="http://www.w3.org/1999/02/22-rdf-syntax-ns#">
   <cc:Work>
    <dc:type rdf:resource="http://purl.org/dc/dcmitype/StillImage"/>
    <dc:date>2023-08-26T17:28:02.892343</dc:date>
    <dc:format>image/svg+xml</dc:format>
    <dc:creator>
     <cc:Agent>
      <dc:title>Matplotlib v3.7.1, https://matplotlib.org/</dc:title>
     </cc:Agent>
    </dc:creator>
   </cc:Work>
  </rdf:RDF>
 </metadata>
 <defs>
  <style type="text/css">*{stroke-linejoin: round; stroke-linecap: butt}</style>
 </defs>
 <g id="figure_1">
  <g id="patch_1">
   <path d="M 0 518.4 
L 921.6 518.4 
L 921.6 0 
L 0 0 
z
" style="fill: #ffffff"/>
  </g>
  <g id="axes_1">
   <g id="patch_2">
    <path d="M 115.2 461.376 
L 829.44 461.376 
L 829.44 62.208 
L 115.2 62.208 
z
" style="fill: #ffffff"/>
   </g>
   <g id="matplotlib.axis_1">
    <g id="xtick_1">
     <g id="line2d_1">
      <defs>
       <path id="m19f917941e" d="M 0 0 
L 0 3.5 
" style="stroke: #000000; stroke-width: 0.8"/>
      </defs>
      <g>
       <use xlink:href="#m19f917941e" x="115.2" y="461.376" style="stroke: #000000; stroke-width: 0.8"/>
      </g>
     </g>
     <g id="text_1">
      <!-- 0 -->
      <g transform="translate(110.45 481.958031) scale(0.19 -0.19)">
       <defs>
        <path id="SimSun-30" d="M 1600 4225 
Q 1250 4225 1012 3687 
Q 775 3150 775 2250 
Q 775 1300 1012 775 
Q 1250 250 1600 250 
Q 1975 250 2187 775 
Q 2400 1300 2400 2250 
Q 2400 3150 2200 3687 
Q 2000 4225 1600 4225 
z
M 1600 50 
Q 1050 50 675 625 
Q 300 1200 300 2250 
Q 300 3225 662 3825 
Q 1025 4425 1600 4425 
Q 2150 4425 2512 3850 
Q 2875 3275 2875 2250 
Q 2875 1225 2512 637 
Q 2150 50 1600 50 
z
" transform="scale(0.015625)"/>
       </defs>
       <use xlink:href="#SimSun-30"/>
      </g>
     </g>
    </g>
    <g id="xtick_2">
     <g id="line2d_2">
      <g>
       <use xlink:href="#m19f917941e" x="186.624" y="461.376" style="stroke: #000000; stroke-width: 0.8"/>
      </g>
     </g>
     <g id="text_2">
      <!-- 10 -->
      <g transform="translate(177.124 481.958031) scale(0.19 -0.19)">
       <defs>
        <path id="SimSun-31" d="M 1825 4450 
L 1825 650 
Q 1825 450 1950 350 
Q 2075 250 2300 250 
L 2550 250 
L 2550 100 
L 725 100 
L 725 250 
L 950 250 
Q 1200 250 1312 350 
Q 1425 450 1425 650 
L 1425 3675 
Q 1425 3775 1362 3837 
Q 1300 3900 1175 3900 
L 725 3900 
L 725 4050 
L 950 4050 
Q 1250 4050 1437 4150 
Q 1625 4250 1725 4450 
L 1825 4450 
z
" transform="scale(0.015625)"/>
       </defs>
       <use xlink:href="#SimSun-31"/>
       <use xlink:href="#SimSun-30" x="50"/>
      </g>
     </g>
    </g>
    <g id="xtick_3">
     <g id="line2d_3">
      <g>
       <use xlink:href="#m19f917941e" x="258.048" y="461.376" style="stroke: #000000; stroke-width: 0.8"/>
      </g>
     </g>
     <g id="text_3">
      <!-- 20 -->
      <g transform="translate(248.548 481.958031) scale(0.19 -0.19)">
       <defs>
        <path id="SimSun-32" d="M 2325 3325 
Q 2325 3775 2125 4012 
Q 1925 4250 1525 4250 
Q 1225 4250 1012 4087 
Q 800 3925 800 3675 
Q 800 3525 900 3425 
Q 975 3325 975 3225 
Q 975 3100 912 3037 
Q 850 2975 725 2975 
Q 575 2975 487 3062 
Q 400 3150 400 3350 
Q 400 3875 775 4150 
Q 1150 4425 1575 4425 
Q 2175 4425 2462 4125 
Q 2750 3825 2750 3375 
Q 2750 3075 2612 2775 
Q 2475 2475 2175 2200 
Q 1450 1500 1062 1062 
Q 675 625 600 475 
L 2075 475 
Q 2300 475 2450 650 
Q 2600 825 2650 1175 
L 2800 1175 
L 2650 100 
L 325 100 
L 325 425 
Q 450 650 737 1000 
Q 1025 1350 1500 1825 
Q 1925 2250 2125 2625 
Q 2325 3000 2325 3325 
z
" transform="scale(0.015625)"/>
       </defs>
       <use xlink:href="#SimSun-32"/>
       <use xlink:href="#SimSun-30" x="50"/>
      </g>
     </g>
    </g>
    <g id="xtick_4">
     <g id="line2d_4">
      <g>
       <use xlink:href="#m19f917941e" x="329.472" y="461.376" style="stroke: #000000; stroke-width: 0.8"/>
      </g>
     </g>
     <g id="text_4">
      <!-- 30 -->
      <g transform="translate(319.972 481.958031) scale(0.19 -0.19)">
       <defs>
        <path id="SimSun-33" d="M 2800 1250 
Q 2800 775 2450 412 
Q 2100 50 1475 50 
Q 1025 50 700 300 
Q 375 550 375 875 
Q 375 1025 475 1137 
Q 575 1250 675 1250 
Q 825 1250 887 1137 
Q 950 1025 950 950 
Q 950 825 900 750 
Q 850 650 850 575 
Q 850 425 1037 325 
Q 1225 225 1450 225 
Q 1900 225 2125 487 
Q 2350 750 2350 1300 
Q 2350 1750 2112 2025 
Q 1875 2300 1225 2300 
L 1225 2475 
Q 1725 2475 1962 2712 
Q 2200 2950 2200 3375 
Q 2200 3725 2012 3987 
Q 1825 4250 1425 4250 
Q 1250 4250 1050 4162 
Q 850 4075 850 3875 
Q 850 3675 900 3625 
Q 950 3575 950 3500 
Q 950 3375 900 3300 
Q 850 3225 725 3225 
Q 625 3225 537 3300 
Q 450 3375 450 3575 
Q 450 3950 775 4187 
Q 1100 4425 1525 4425 
Q 2025 4425 2325 4112 
Q 2625 3800 2625 3450 
Q 2625 3075 2437 2812 
Q 2250 2550 1850 2425 
Q 2400 2225 2600 1900 
Q 2800 1575 2800 1250 
z
" transform="scale(0.015625)"/>
       </defs>
       <use xlink:href="#SimSun-33"/>
       <use xlink:href="#SimSun-30" x="50"/>
      </g>
     </g>
    </g>
    <g id="xtick_5">
     <g id="line2d_5">
      <g>
       <use xlink:href="#m19f917941e" x="400.896" y="461.376" style="stroke: #000000; stroke-width: 0.8"/>
      </g>
     </g>
     <g id="text_5">
      <!-- 40 -->
      <g transform="translate(391.396 481.958031) scale(0.19 -0.19)">
       <defs>
        <path id="SimSun-34" d="M 2300 575 
Q 2300 400 2400 325 
Q 2500 250 2675 250 
L 2900 250 
L 2900 100 
L 1250 100 
L 1250 250 
L 1525 250 
Q 1725 250 1812 325 
Q 1900 400 1900 575 
L 1900 1400 
L 225 1400 
L 225 1525 
L 2050 4425 
L 2300 4425 
L 2300 1550 
L 2975 1550 
L 2975 1400 
L 2300 1400 
L 2300 575 
z
M 1875 3800 
L 450 1550 
L 1900 1550 
L 1900 3800 
L 1875 3800 
z
" transform="scale(0.015625)"/>
       </defs>
       <use xlink:href="#SimSun-34"/>
       <use xlink:href="#SimSun-30" x="50"/>
      </g>
     </g>
    </g>
    <g id="xtick_6">
     <g id="line2d_6">
      <g>
       <use xlink:href="#m19f917941e" x="472.32" y="461.376" style="stroke: #000000; stroke-width: 0.8"/>
      </g>
     </g>
     <g id="text_6">
      <!-- 50 -->
      <g transform="translate(462.82 481.958031) scale(0.19 -0.19)">
       <defs>
        <path id="SimSun-35" d="M 1725 2850 
Q 2200 2850 2500 2487 
Q 2800 2125 2800 1525 
Q 2800 850 2487 450 
Q 2175 50 1525 50 
Q 1075 50 725 312 
Q 375 575 375 950 
Q 375 1100 462 1212 
Q 550 1325 700 1325 
Q 850 1325 900 1225 
Q 950 1125 950 1050 
Q 950 900 875 825 
Q 800 725 800 625 
Q 800 425 1037 325 
Q 1275 225 1550 225 
Q 1950 225 2162 550 
Q 2375 875 2375 1475 
Q 2375 1975 2187 2287 
Q 2000 2600 1625 2600 
Q 1350 2600 1150 2500 
Q 950 2400 775 2075 
L 550 2100 
L 675 4375 
L 2725 4375 
L 2650 4000 
L 850 4000 
L 750 2350 
Q 1000 2700 1237 2775 
Q 1475 2850 1725 2850 
z
" transform="scale(0.015625)"/>
       </defs>
       <use xlink:href="#SimSun-35"/>
       <use xlink:href="#SimSun-30" x="50"/>
      </g>
     </g>
    </g>
    <g id="xtick_7">
     <g id="line2d_7">
      <g>
       <use xlink:href="#m19f917941e" x="543.744" y="461.376" style="stroke: #000000; stroke-width: 0.8"/>
      </g>
     </g>
     <g id="text_7">
      <!-- 60 -->
      <g transform="translate(534.244 481.958031) scale(0.19 -0.19)">
       <defs>
        <path id="SimSun-36" d="M 775 1800 
Q 775 1050 1037 637 
Q 1300 225 1675 225 
Q 2050 225 2250 500 
Q 2450 775 2450 1525 
Q 2450 2025 2237 2300 
Q 2025 2575 1725 2575 
Q 1450 2575 1212 2412 
Q 975 2250 775 1800 
z
M 1750 2825 
Q 2350 2825 2612 2425 
Q 2875 2025 2875 1525 
Q 2875 775 2512 412 
Q 2150 50 1675 50 
Q 1000 50 650 562 
Q 300 1075 300 2050 
Q 300 3200 725 3812 
Q 1150 4425 1875 4425 
Q 2225 4425 2437 4225 
Q 2650 4025 2650 3875 
Q 2650 3725 2587 3650 
Q 2525 3575 2375 3575 
Q 2250 3575 2187 3637 
Q 2125 3700 2125 3825 
Q 2125 3875 2150 3925 
Q 2150 3975 2150 4025 
Q 2150 4125 2075 4187 
Q 2000 4250 1800 4250 
Q 1375 4250 1075 3862 
Q 775 3475 775 2175 
Q 925 2500 1187 2662 
Q 1450 2825 1750 2825 
z
" transform="scale(0.015625)"/>
       </defs>
       <use xlink:href="#SimSun-36"/>
       <use xlink:href="#SimSun-30" x="50"/>
      </g>
     </g>
    </g>
    <g id="xtick_8">
     <g id="line2d_8">
      <g>
       <use xlink:href="#m19f917941e" x="615.168" y="461.376" style="stroke: #000000; stroke-width: 0.8"/>
      </g>
     </g>
     <g id="text_8">
      <!-- 70 -->
      <g transform="translate(605.668 481.958031) scale(0.19 -0.19)">
       <defs>
        <path id="SimSun-37" d="M 2825 4200 
Q 2300 3350 1987 2537 
Q 1675 1725 1675 1125 
Q 1675 1025 1700 850 
Q 1700 650 1700 400 
Q 1700 200 1637 125 
Q 1575 50 1425 50 
Q 1300 50 1212 137 
Q 1125 225 1125 450 
Q 1125 925 1337 1625 
Q 1550 2325 2475 4000 
L 1225 4000 
Q 950 4000 787 3825 
Q 625 3650 550 3300 
L 400 3325 
L 575 4375 
L 2825 4375 
L 2825 4200 
z
" transform="scale(0.015625)"/>
       </defs>
       <use xlink:href="#SimSun-37"/>
       <use xlink:href="#SimSun-30" x="50"/>
      </g>
     </g>
    </g>
    <g id="xtick_9">
     <g id="line2d_9">
      <g>
       <use xlink:href="#m19f917941e" x="686.592" y="461.376" style="stroke: #000000; stroke-width: 0.8"/>
      </g>
     </g>
     <g id="text_9">
      <!-- 80 -->
      <g transform="translate(677.092 481.958031) scale(0.19 -0.19)">
       <defs>
        <path id="SimSun-38" d="M 625 1125 
Q 625 725 887 475 
Q 1150 225 1550 225 
Q 2025 225 2237 475 
Q 2450 725 2450 1100 
Q 2450 1425 2150 1725 
Q 1850 2025 1250 2275 
Q 950 2075 787 1775 
Q 625 1475 625 1125 
z
M 2825 1175 
Q 2825 700 2475 375 
Q 2125 50 1550 50 
Q 1025 50 650 375 
Q 275 700 275 1125 
Q 275 1550 487 1850 
Q 700 2150 1100 2375 
Q 750 2550 562 2812 
Q 375 3075 375 3400 
Q 375 3825 700 4125 
Q 1025 4425 1600 4425 
Q 2125 4425 2450 4125 
Q 2775 3825 2775 3400 
Q 2775 3100 2587 2837 
Q 2400 2575 2000 2375 
Q 2425 2125 2625 1825 
Q 2825 1525 2825 1175 
z
M 2425 3375 
Q 2425 3725 2225 3987 
Q 2025 4250 1600 4250 
Q 1125 4250 925 4000 
Q 725 3750 725 3475 
Q 725 3200 1012 2937 
Q 1300 2675 1825 2475 
Q 2125 2625 2275 2850 
Q 2425 3075 2425 3375 
z
" transform="scale(0.015625)"/>
       </defs>
       <use xlink:href="#SimSun-38"/>
       <use xlink:href="#SimSun-30" x="50"/>
      </g>
     </g>
    </g>
    <g id="xtick_10">
     <g id="line2d_10">
      <g>
       <use xlink:href="#m19f917941e" x="758.016" y="461.376" style="stroke: #000000; stroke-width: 0.8"/>
      </g>
     </g>
     <g id="text_10">
      <!-- 90 -->
      <g transform="translate(748.516 481.958031) scale(0.19 -0.19)">
       <defs>
        <path id="SimSun-39" d="M 700 3050 
Q 700 2500 912 2212 
Q 1125 1925 1450 1925 
Q 1825 1925 2100 2275 
Q 2375 2625 2375 2925 
Q 2375 3525 2175 3887 
Q 1975 4250 1525 4250 
Q 1100 4250 900 3912 
Q 700 3575 700 3050 
z
M 1375 1700 
Q 875 1700 575 2012 
Q 275 2325 275 3025 
Q 275 3625 600 4025 
Q 925 4425 1525 4425 
Q 2150 4425 2500 3925 
Q 2850 3425 2850 2475 
Q 2850 1425 2437 737 
Q 2025 50 1300 50 
Q 975 50 737 200 
Q 500 350 500 600 
Q 500 700 562 800 
Q 625 900 775 900 
Q 925 900 975 787 
Q 1025 675 1025 525 
Q 1025 425 1050 362 
Q 1075 300 1100 275 
Q 1125 250 1187 237 
Q 1250 225 1325 225 
Q 1775 225 2050 725 
Q 2325 1225 2375 2400 
Q 2250 2100 2000 1900 
Q 1750 1700 1375 1700 
z
" transform="scale(0.015625)"/>
       </defs>
       <use xlink:href="#SimSun-39"/>
       <use xlink:href="#SimSun-30" x="50"/>
      </g>
     </g>
    </g>
    <g id="xtick_11">
     <g id="line2d_11">
      <g>
       <use xlink:href="#m19f917941e" x="829.44" y="461.376" style="stroke: #000000; stroke-width: 0.8"/>
      </g>
     </g>
     <g id="text_11">
      <!-- 100 -->
      <g transform="translate(815.19 481.958031) scale(0.19 -0.19)">
       <use xlink:href="#SimSun-31"/>
       <use xlink:href="#SimSun-30" x="50"/>
       <use xlink:href="#SimSun-30" x="100"/>
      </g>
     </g>
    </g>
    <g id="text_12">
     <!-- 索引装载率 $\mathrm{(\%)}$ -->
     <g transform="translate(406.58 504.17725) scale(0.19 -0.19)">
      <defs>
       <path id="SimSun-7d22" d="M 4725 1325 
Q 4375 1250 3450 1150 
L 3450 -50 
Q 3475 -500 2875 -625 
Q 2875 -325 2200 -125 
L 2200 -25 
Q 2850 -75 2987 -75 
Q 3125 -75 3100 175 
L 3100 1100 
Q 2400 1025 2050 925 
Q 1700 825 1475 700 
L 1225 1175 
Q 1525 1250 2050 1525 
Q 2575 1800 3225 2200 
Q 2900 2200 2437 2150 
Q 1975 2100 1650 1950 
L 1425 2375 
Q 1775 2425 2212 2737 
Q 2650 3050 2875 3375 
L 1000 3375 
Q 1050 3000 975 2850 
Q 900 2700 800 2675 
Q 700 2650 625 2650 
Q 525 2650 462 2675 
Q 400 2700 400 2725 
Q 400 2800 550 2975 
Q 750 3225 875 3800 
L 975 3800 
L 1000 3525 
L 3025 3525 
L 3025 4250 
L 1575 4250 
Q 1375 4250 1100 4175 
L 875 4400 
L 3025 4400 
L 3025 4775 
Q 3025 5025 3000 5275 
L 3625 5050 
L 3375 4900 
L 3375 4400 
L 4725 4400 
L 5125 4750 
L 5575 4250 
L 3375 4250 
L 3375 3525 
L 5300 3525 
L 5500 3750 
L 5950 3325 
Q 5600 3300 5050 2675 
L 4975 2725 
L 5325 3375 
L 2925 3375 
L 3325 3100 
Q 3100 3075 2675 2800 
Q 2250 2500 1925 2350 
L 3425 2375 
Q 3775 2625 4050 3000 
L 4475 2625 
Q 4250 2600 3850 2325 
Q 3425 2050 2975 1787 
Q 2525 1525 2025 1250 
L 4625 1450 
Q 4275 1825 3950 2050 
L 4000 2125 
Q 4700 1850 4962 1662 
Q 5225 1475 5275 1312 
Q 5325 1150 5212 937 
Q 5100 725 4987 925 
Q 4875 1125 4725 1325 
z
M 3925 725 
Q 5025 375 5312 212 
Q 5600 50 5612 -150 
Q 5625 -350 5562 -425 
Q 5500 -500 5475 -500 
Q 5375 -500 5200 -275 
Q 4925 50 3900 650 
L 3925 725 
z
M 2150 750 
L 2575 350 
Q 2275 350 1775 75 
Q 1275 -225 425 -525 
L 375 -450 
Q 1600 150 2150 750 
z
" transform="scale(0.015625)"/>
       <path id="SimSun-5f15" d="M 5075 4675 
L 5075 575 
Q 5075 100 5100 -425 
L 4700 -600 
Q 4725 175 4725 725 
Q 4725 4575 4700 5150 
L 5300 4850 
L 5075 4675 
z
M 3375 4475 
Q 3375 3475 3400 3125 
L 3025 3000 
L 3025 3250 
L 1525 3250 
L 1275 2150 
L 3125 2150 
L 3325 2400 
L 3750 2050 
L 3500 1900 
Q 3375 1125 3225 575 
Q 3075 25 2850 -187 
Q 2625 -400 2250 -475 
Q 2275 -125 1600 125 
L 1600 225 
Q 2125 125 2350 112 
Q 2575 100 2675 225 
Q 2775 350 2900 787 
Q 3025 1225 3150 2000 
L 1275 2000 
L 1100 1775 
L 725 2125 
Q 925 2200 1025 2575 
Q 1125 2950 1200 3675 
L 1575 3400 
L 3025 3400 
L 3025 4550 
L 1650 4550 
Q 1325 4550 1050 4475 
L 825 4700 
L 3000 4700 
L 3175 4950 
L 3575 4650 
L 3375 4475 
z
" transform="scale(0.015625)"/>
       <path id="SimSun-88c5" d="M 700 4725 
Q 1375 4450 1462 4325 
Q 1550 4200 1550 4125 
Q 1550 4025 1475 3887 
Q 1400 3750 1350 3750 
Q 1275 3750 1200 3925 
Q 1075 4225 650 4675 
L 700 4725 
z
M 2250 4775 
L 2250 2200 
L 1900 1975 
Q 1925 2600 1925 3475 
Q 1400 3150 1062 2887 
Q 725 2625 700 2475 
L 350 2900 
Q 775 3025 1925 3625 
Q 1925 4900 1900 5250 
L 2475 4925 
L 2250 4775 
z
M 2375 4000 
L 3900 4000 
Q 3900 4850 3875 5175 
L 4450 4925 
L 4225 4750 
L 4225 4000 
L 5125 4000 
L 5475 4350 
L 5950 3850 
L 4225 3850 
L 4225 2800 
L 4900 2800 
L 5250 3100 
L 5700 2650 
L 3475 2650 
Q 3150 2650 2875 2575 
L 2650 2800 
L 3900 2800 
L 3900 3850 
L 3200 3850 
Q 2875 3850 2600 3775 
L 2375 4000 
z
M 3125 1800 
Q 3125 2100 2650 2525 
L 2700 2575 
Q 3300 2375 3387 2250 
Q 3475 2125 3475 2050 
Q 3475 1950 3350 1800 
L 5050 1800 
L 5475 2175 
L 6000 1650 
L 3325 1650 
Q 3600 1225 4150 675 
Q 4775 1225 5000 1625 
L 5425 1200 
Q 5225 1175 4987 1050 
Q 4750 925 4250 600 
Q 4550 350 5037 162 
Q 5525 -25 6100 -75 
L 6100 -175 
Q 5675 -250 5550 -550 
Q 4825 -250 4262 212 
Q 3700 675 3175 1650 
Q 2825 1325 2450 1025 
L 2450 -25 
L 3750 375 
L 3800 300 
Q 2450 -300 2300 -625 
L 2000 -200 
Q 2150 -75 2125 75 
L 2125 800 
Q 1325 300 275 0 
L 250 75 
Q 1725 700 2725 1650 
L 1200 1650 
Q 875 1650 600 1575 
L 375 1800 
L 3125 1800 
z
" transform="scale(0.015625)"/>
       <path id="SimSun-8f7d" d="M 1850 5200 
L 2375 5000 
L 2200 4825 
L 2200 4325 
L 2675 4325 
L 2975 4600 
L 3400 4175 
L 2200 4175 
L 2200 3525 
L 3700 3525 
Q 3675 4525 3650 5200 
L 4200 4950 
L 4000 4775 
Q 4000 3950 4025 3525 
L 5250 3525 
L 5625 3850 
L 6100 3375 
L 4050 3375 
Q 4125 2300 4425 1400 
Q 4925 2200 5175 3075 
L 5650 2750 
L 5450 2575 
Q 5075 1775 4575 1050 
Q 4950 350 5650 -50 
L 5875 1050 
L 5975 1025 
Q 5925 350 5950 25 
Q 5975 -300 6075 -500 
Q 6125 -625 6025 -625 
Q 5975 -625 5775 -562 
Q 5575 -500 5125 -150 
Q 4675 200 4350 775 
Q 3575 -125 2625 -600 
L 2575 -525 
Q 3575 175 4175 1075 
Q 3825 1950 3725 3375 
L 1100 3375 
Q 775 3375 500 3300 
L 275 3525 
L 1875 3525 
L 1875 4175 
L 1525 4175 
Q 1200 4175 925 4100 
L 700 4325 
L 1875 4325 
Q 1875 4800 1850 5200 
z
M 4500 4850 
Q 5000 4650 5212 4512 
Q 5425 4375 5400 4187 
Q 5375 4000 5300 3925 
Q 5225 3850 5200 3850 
Q 5125 3850 5025 4050 
Q 4900 4325 4450 4775 
L 4500 4850 
z
M 500 525 
Q 850 550 1975 725 
L 1975 1400 
L 1150 1400 
L 975 1250 
L 700 1575 
Q 900 1575 1350 2450 
L 1150 2450 
Q 850 2450 575 2375 
L 350 2600 
L 1425 2600 
Q 1625 3025 1700 3300 
L 2150 3025 
L 1975 2950 
Q 1900 2850 1775 2600 
L 2700 2600 
L 3025 2900 
L 3425 2450 
L 1700 2450 
L 1175 1550 
L 1975 1550 
Q 1975 1925 1950 2300 
L 2450 2075 
L 2300 1900 
L 2300 1550 
L 2800 1550 
L 3075 1850 
L 3475 1400 
L 2300 1400 
L 2300 775 
L 3400 925 
L 3425 850 
L 2300 575 
Q 2300 -50 2325 -400 
L 1950 -550 
Q 1975 225 1975 500 
Q 850 275 725 100 
L 500 525 
z
" transform="scale(0.015625)"/>
       <path id="SimSun-7387" d="M 875 3725 
L 925 3800 
Q 1375 3650 1550 3525 
Q 1725 3400 1725 3250 
Q 1725 3175 1662 3025 
Q 1600 2875 1550 2875 
Q 1500 2875 1425 3050 
Q 1275 3325 875 3725 
z
M 550 1850 
Q 875 1925 2000 2575 
L 2050 2500 
Q 1675 2225 1337 1937 
Q 1000 1650 875 1425 
L 550 1850 
z
M 5200 3450 
Q 4800 3150 4275 2800 
L 4225 2875 
Q 4775 3400 5050 3925 
L 5450 3525 
L 5200 3450 
z
M 4325 2500 
L 4350 2575 
Q 5225 2350 5375 2212 
Q 5525 2075 5525 1900 
Q 5525 1775 5487 1662 
Q 5450 1550 5400 1550 
Q 5325 1550 5200 1800 
Q 4975 2150 4325 2500 
z
M 3150 3900 
Q 2500 3300 2300 3150 
Q 2800 3150 3400 3175 
Q 3700 3500 3850 3825 
L 4250 3450 
Q 4050 3400 3450 2825 
Q 2850 2250 2475 1950 
Q 3150 1975 3850 2000 
Q 3750 2175 3550 2450 
L 3600 2500 
Q 4050 2250 4200 2100 
Q 4350 1950 4350 1850 
Q 4350 1775 4250 1625 
Q 4150 1475 4100 1475 
Q 4075 1475 4050 1550 
Q 4000 1700 3900 1900 
Q 3650 1875 3075 1800 
L 3500 1550 
L 3325 1425 
L 3325 975 
L 5325 975 
L 5650 1300 
L 6100 825 
L 3325 825 
Q 3325 -275 3350 -525 
L 2975 -650 
Q 3000 0 3000 825 
L 1125 825 
Q 800 825 525 750 
L 300 975 
L 3000 975 
L 3000 1775 
Q 2450 1700 2200 1525 
L 1950 1950 
Q 2275 1950 2675 2350 
Q 3075 2750 3325 3050 
Q 2400 2950 2150 2775 
L 1950 3175 
Q 2150 3150 2475 3575 
Q 2800 4000 2900 4225 
L 1450 4225 
Q 1125 4225 850 4150 
L 625 4375 
L 3100 4375 
Q 3050 4800 2675 5200 
L 2725 5250 
Q 3225 5050 3337 4912 
Q 3450 4775 3450 4700 
Q 3450 4550 3250 4375 
L 5025 4375 
L 5350 4675 
L 5775 4225 
L 3050 4225 
L 3375 3950 
L 3150 3900 
z
" transform="scale(0.015625)"/>
       <path id="SimSun-20" d="M 0 0 
Q 0 0 0 0 
z
" transform="scale(0.015625)"/>
       <path id="STIXGeneral-Regular-28" d="M 1946 -1030 
L 1869 -1133 
Q 1126 -710 716 32 
Q 307 774 307 1613 
Q 307 3386 1888 4326 
L 1946 4224 
Q 1293 3667 1075 3126 
Q 858 2586 858 1632 
Q 858 685 1082 96 
Q 1306 -493 1946 -1030 
z
" transform="scale(0.015625)"/>
       <path id="STIXGeneral-Regular-25" d="M 4390 1363 
Q 4390 781 4070 329 
Q 3750 -122 3341 -122 
Q 3014 -122 2790 134 
Q 2566 390 2566 762 
Q 2566 1274 2940 1693 
Q 3315 2112 3776 2112 
Q 4070 2112 4230 1917 
Q 4390 1722 4390 1363 
z
M 4243 1376 
Q 4243 1626 4131 1779 
Q 4019 1933 3840 1933 
Q 3654 1933 3526 1786 
Q 3315 1562 3171 1187 
Q 3027 813 3027 486 
Q 3027 301 3129 176 
Q 3232 51 3386 51 
Q 3718 51 3980 457 
Q 4243 864 4243 1376 
z
M 3974 4518 
L 1222 -115 
L 922 -115 
L 3443 4096 
Q 3264 3891 3094 3811 
Q 2925 3731 2669 3731 
Q 2445 3731 2182 3821 
Q 2208 3674 2208 3539 
Q 2208 3206 2067 2873 
Q 1926 2541 1696 2323 
Q 1453 2086 1146 2086 
Q 826 2086 608 2339 
Q 390 2592 390 2963 
Q 390 3507 761 3916 
Q 1133 4326 1626 4326 
Q 1792 4326 2010 4147 
Q 2310 3898 2624 3898 
Q 2918 3898 3084 3994 
Q 3251 4090 3693 4518 
L 3974 4518 
z
M 2054 3642 
Q 2054 3782 2025 3833 
Q 1997 3885 1894 3936 
Q 1747 4006 1613 4154 
Q 1414 4058 1331 3984 
Q 1248 3910 1152 3750 
Q 845 3264 845 2707 
Q 845 2509 944 2384 
Q 1043 2259 1210 2259 
Q 1549 2259 1801 2675 
Q 2054 3091 2054 3642 
z
" transform="scale(0.015625)"/>
       <path id="STIXGeneral-Regular-29" d="M 186 4224 
L 262 4326 
Q 992 3891 1408 3148 
Q 1824 2406 1824 1581 
Q 1824 -166 243 -1133 
L 186 -1030 
Q 845 -486 1059 54 
Q 1274 595 1274 1562 
Q 1274 2534 1059 3120 
Q 845 3706 186 4224 
z
" transform="scale(0.015625)"/>
      </defs>
      <use xlink:href="#SimSun-7d22" transform="translate(0 0.578125)"/>
      <use xlink:href="#SimSun-5f15" transform="translate(100 0.578125)"/>
      <use xlink:href="#SimSun-88c5" transform="translate(200 0.578125)"/>
      <use xlink:href="#SimSun-8f7d" transform="translate(300 0.578125)"/>
      <use xlink:href="#SimSun-7387" transform="translate(400 0.578125)"/>
      <use xlink:href="#SimSun-20" transform="translate(500 0.578125)"/>
      <use xlink:href="#STIXGeneral-Regular-28" transform="translate(550 0.578125)"/>
      <use xlink:href="#STIXGeneral-Regular-25" transform="translate(583.299988 0.578125)"/>
      <use xlink:href="#STIXGeneral-Regular-29" transform="translate(657.999969 0.578125)"/>
     </g>
    </g>
   </g>
   <g id="matplotlib.axis_2">
    <g id="ytick_1">
     <g id="line2d_12">
      <defs>
       <path id="m754c38acab" d="M 0 0 
L -3.5 0 
" style="stroke: #000000; stroke-width: 0.8"/>
      </defs>
      <g>
       <use xlink:href="#m754c38acab" x="115.2" y="461.376" style="stroke: #000000; stroke-width: 0.8"/>
      </g>
     </g>
     <g id="text_13">
      <!-- 0 -->
      <g transform="translate(98.7 468.167016) scale(0.19 -0.19)">
       <use xlink:href="#SimSun-30"/>
      </g>
     </g>
    </g>
    <g id="ytick_2">
     <g id="line2d_13">
      <g>
       <use xlink:href="#m754c38acab" x="115.2" y="421.4592" style="stroke: #000000; stroke-width: 0.8"/>
      </g>
     </g>
     <g id="text_14">
      <!-- 10 -->
      <g transform="translate(89.2 428.250216) scale(0.19 -0.19)">
       <use xlink:href="#SimSun-31"/>
       <use xlink:href="#SimSun-30" x="50"/>
      </g>
     </g>
    </g>
    <g id="ytick_3">
     <g id="line2d_14">
      <g>
       <use xlink:href="#m754c38acab" x="115.2" y="381.5424" style="stroke: #000000; stroke-width: 0.8"/>
      </g>
     </g>
     <g id="text_15">
      <!-- 20 -->
      <g transform="translate(89.2 388.333416) scale(0.19 -0.19)">
       <use xlink:href="#SimSun-32"/>
       <use xlink:href="#SimSun-30" x="50"/>
      </g>
     </g>
    </g>
    <g id="ytick_4">
     <g id="line2d_15">
      <g>
       <use xlink:href="#m754c38acab" x="115.2" y="341.6256" style="stroke: #000000; stroke-width: 0.8"/>
      </g>
     </g>
     <g id="text_16">
      <!-- 30 -->
      <g transform="translate(89.2 348.416616) scale(0.19 -0.19)">
       <use xlink:href="#SimSun-33"/>
       <use xlink:href="#SimSun-30" x="50"/>
      </g>
     </g>
    </g>
    <g id="ytick_5">
     <g id="line2d_16">
      <g>
       <use xlink:href="#m754c38acab" x="115.2" y="301.7088" style="stroke: #000000; stroke-width: 0.8"/>
      </g>
     </g>
     <g id="text_17">
      <!-- 40 -->
      <g transform="translate(89.2 308.499816) scale(0.19 -0.19)">
       <use xlink:href="#SimSun-34"/>
       <use xlink:href="#SimSun-30" x="50"/>
      </g>
     </g>
    </g>
    <g id="ytick_6">
     <g id="line2d_17">
      <g>
       <use xlink:href="#m754c38acab" x="115.2" y="261.792" style="stroke: #000000; stroke-width: 0.8"/>
      </g>
     </g>
     <g id="text_18">
      <!-- 50 -->
      <g transform="translate(89.2 268.583016) scale(0.19 -0.19)">
       <use xlink:href="#SimSun-35"/>
       <use xlink:href="#SimSun-30" x="50"/>
      </g>
     </g>
    </g>
    <g id="ytick_7">
     <g id="line2d_18">
      <g>
       <use xlink:href="#m754c38acab" x="115.2" y="221.8752" style="stroke: #000000; stroke-width: 0.8"/>
      </g>
     </g>
     <g id="text_19">
      <!-- 60 -->
      <g transform="translate(89.2 228.666216) scale(0.19 -0.19)">
       <use xlink:href="#SimSun-36"/>
       <use xlink:href="#SimSun-30" x="50"/>
      </g>
     </g>
    </g>
    <g id="ytick_8">
     <g id="line2d_19">
      <g>
       <use xlink:href="#m754c38acab" x="115.2" y="181.9584" style="stroke: #000000; stroke-width: 0.8"/>
      </g>
     </g>
     <g id="text_20">
      <!-- 70 -->
      <g transform="translate(89.2 188.749416) scale(0.19 -0.19)">
       <use xlink:href="#SimSun-37"/>
       <use xlink:href="#SimSun-30" x="50"/>
      </g>
     </g>
    </g>
    <g id="ytick_9">
     <g id="line2d_20">
      <g>
       <use xlink:href="#m754c38acab" x="115.2" y="142.0416" style="stroke: #000000; stroke-width: 0.8"/>
      </g>
     </g>
     <g id="text_21">
      <!-- 80 -->
      <g transform="translate(89.2 148.832616) scale(0.19 -0.19)">
       <use xlink:href="#SimSun-38"/>
       <use xlink:href="#SimSun-30" x="50"/>
      </g>
     </g>
    </g>
    <g id="ytick_10">
     <g id="line2d_21">
      <g>
       <use xlink:href="#m754c38acab" x="115.2" y="102.1248" style="stroke: #000000; stroke-width: 0.8"/>
      </g>
     </g>
     <g id="text_22">
      <!-- 90 -->
      <g transform="translate(89.2 108.915816) scale(0.19 -0.19)">
       <use xlink:href="#SimSun-39"/>
       <use xlink:href="#SimSun-30" x="50"/>
      </g>
     </g>
    </g>
    <g id="ytick_11">
     <g id="line2d_22">
      <g>
       <use xlink:href="#m754c38acab" x="115.2" y="62.208" style="stroke: #000000; stroke-width: 0.8"/>
      </g>
     </g>
     <g id="text_23">
      <!-- 100 -->
      <g transform="translate(79.7 68.999016) scale(0.19 -0.19)">
       <use xlink:href="#SimSun-31"/>
       <use xlink:href="#SimSun-30" x="50"/>
       <use xlink:href="#SimSun-30" x="100"/>
      </g>
     </g>
    </g>
    <g id="text_24">
     <!-- 读取命中率 $\mathrm{(\%)}$ -->
     <g transform="translate(72.28 327.532) rotate(-90) scale(0.19 -0.19)">
      <defs>
       <path id="SimSun-8bfb" d="M 1450 275 
L 2375 850 
L 2425 775 
Q 1600 50 1325 -325 
L 1025 50 
Q 1125 175 1125 400 
L 1125 2850 
L 1050 2850 
Q 725 2850 450 2775 
L 225 3000 
L 1125 3000 
L 1350 3225 
L 1675 2900 
L 1450 2725 
L 1450 275 
z
M 750 4925 
L 800 5000 
Q 1150 4800 1387 4600 
Q 1625 4400 1587 4200 
Q 1550 4000 1400 3925 
Q 1250 3850 1175 4200 
Q 1100 4525 750 4925 
z
M 5100 2700 
L 5425 3325 
L 2575 3325 
Q 2375 3325 2100 3250 
L 1875 3475 
L 3650 3475 
L 3650 4250 
L 3025 4250 
Q 2700 4250 2425 4175 
L 2200 4400 
L 3650 4400 
Q 3650 4825 3625 5250 
L 4175 5000 
L 3975 4825 
L 3975 4400 
L 4875 4400 
L 5150 4675 
L 5550 4250 
L 3975 4250 
L 3975 3475 
L 5375 3475 
L 5625 3750 
L 6075 3300 
Q 5725 3275 5200 2650 
L 5100 2700 
z
M 2750 2925 
L 2775 3000 
Q 3350 2825 3462 2687 
Q 3575 2550 3575 2450 
Q 3575 2350 3512 2250 
Q 3450 2150 3425 2150 
Q 3350 2150 3275 2350 
Q 3125 2625 2750 2925 
z
M 2375 2275 
Q 2975 2075 3100 1950 
Q 3225 1825 3225 1700 
Q 3225 1625 3162 1512 
Q 3100 1400 3075 1400 
Q 3000 1400 2900 1625 
Q 2725 1925 2350 2200 
L 2375 2275 
z
M 4475 2625 
Q 4425 1550 4350 1175 
L 5275 1175 
L 5600 1500 
L 6050 1025 
L 4325 1025 
Q 4250 825 4125 575 
Q 4850 350 5200 150 
Q 5550 -50 5600 -237 
Q 5650 -425 5587 -500 
Q 5525 -575 5475 -575 
Q 5350 -575 5175 -325 
Q 4925 25 4075 475 
Q 3425 -425 1975 -650 
L 1950 -550 
Q 3600 -100 3975 1025 
L 2700 1025 
Q 2500 1025 2225 950 
L 2000 1175 
L 4000 1175 
Q 4100 1800 4100 3075 
L 4675 2800 
L 4475 2625 
z
" transform="scale(0.015625)"/>
       <path id="SimSun-53d6" d="M 1300 2225 
L 1300 1125 
L 2425 1350 
L 2425 2225 
L 1300 2225 
z
M 2750 1225 
Q 2750 100 2775 -350 
L 2400 -575 
Q 2425 125 2425 1150 
Q 775 700 575 425 
L 325 925 
Q 625 975 975 1050 
L 975 4650 
L 775 4650 
L 525 4600 
L 325 4800 
L 2675 4800 
L 2975 5100 
L 3425 4650 
L 2750 4650 
L 2750 1425 
L 3500 1575 
L 3525 1475 
L 2750 1225 
z
M 1300 4650 
L 1300 3600 
L 2425 3600 
L 2425 4650 
L 1300 4650 
z
M 2425 3450 
L 1300 3450 
L 1300 2375 
L 2425 2375 
L 2425 3450 
z
M 2925 4175 
L 5050 4175 
L 5250 4425 
L 5700 4075 
L 5475 3925 
Q 5100 2350 4550 1275 
Q 5200 375 6100 125 
L 6100 25 
Q 5775 -25 5600 -275 
Q 4875 225 4375 975 
Q 3700 25 2825 -525 
L 2775 -450 
Q 3650 325 4175 1250 
Q 3650 2625 3525 4025 
L 3350 4025 
L 3125 3975 
L 2925 4175 
z
M 3650 4025 
Q 3900 2525 4350 1600 
Q 4825 2650 5075 4025 
L 3650 4025 
z
" transform="scale(0.015625)"/>
       <path id="SimSun-547d" d="M 1775 3150 
L 3650 3150 
L 3950 3450 
L 4400 3000 
L 2550 3000 
Q 2225 3000 2000 2925 
L 1775 3150 
z
M 1450 2125 
L 1450 575 
L 2400 575 
L 2400 2125 
L 1450 2125 
z
M 1100 -250 
Q 1125 525 1125 1125 
Q 1125 1725 1100 2500 
L 1450 2275 
L 2350 2275 
L 2525 2500 
L 2900 2200 
L 2725 2050 
Q 2725 550 2750 150 
L 2400 0 
L 2400 425 
L 1450 425 
L 1450 -100 
L 1100 -250 
z
M 3775 2175 
L 3775 -450 
L 3425 -625 
Q 3450 75 3450 1050 
Q 3450 2025 3425 2550 
L 3775 2325 
L 4825 2325 
L 5000 2575 
L 5400 2275 
L 5200 2100 
L 5200 525 
Q 5225 75 4700 -125 
Q 4700 150 4025 325 
L 4025 425 
Q 4550 375 4712 375 
Q 4875 375 4875 700 
L 4875 2175 
L 3775 2175 
z
M 2975 5275 
L 3475 4900 
L 3250 4725 
Q 3750 4025 4450 3625 
Q 5150 3225 6125 3075 
L 6125 2975 
Q 5700 2950 5550 2625 
Q 4650 3050 4112 3500 
Q 3575 3950 3150 4650 
Q 2600 3900 1962 3362 
Q 1325 2825 275 2425 
L 225 2525 
Q 1250 2975 1962 3750 
Q 2675 4525 2975 5275 
z
" transform="scale(0.015625)"/>
       <path id="SimSun-4e2d" d="M 3325 3625 
L 3325 1975 
L 5125 1975 
L 5125 3625 
L 3325 3625 
z
M 2950 3775 
Q 2950 4750 2925 5250 
L 3525 4975 
L 3325 4775 
L 3325 3775 
L 5075 3775 
L 5275 4075 
L 5700 3750 
L 5475 3550 
L 5475 2100 
Q 5475 1825 5500 1525 
L 5125 1375 
L 5125 1825 
L 3325 1825 
Q 3325 -75 3350 -400 
L 2925 -625 
Q 2950 -50 2950 1825 
L 1225 1825 
L 1225 1525 
L 850 1325 
Q 875 1775 875 2625 
Q 875 3475 850 4000 
L 1225 3775 
L 2950 3775 
z
M 1225 3625 
L 1225 1975 
L 2950 1975 
L 2950 3625 
L 1225 3625 
z
" transform="scale(0.015625)"/>
      </defs>
      <use xlink:href="#SimSun-8bfb" transform="translate(0 0.578125)"/>
      <use xlink:href="#SimSun-53d6" transform="translate(100 0.578125)"/>
      <use xlink:href="#SimSun-547d" transform="translate(200 0.578125)"/>
      <use xlink:href="#SimSun-4e2d" transform="translate(300 0.578125)"/>
      <use xlink:href="#SimSun-7387" transform="translate(400 0.578125)"/>
      <use xlink:href="#SimSun-20" transform="translate(500 0.578125)"/>
      <use xlink:href="#STIXGeneral-Regular-28" transform="translate(550 0.578125)"/>
      <use xlink:href="#STIXGeneral-Regular-25" transform="translate(583.299988 0.578125)"/>
      <use xlink:href="#STIXGeneral-Regular-29" transform="translate(657.999969 0.578125)"/>
     </g>
    </g>
   </g>
   <g id="line2d_23">
    <path d="M 115.834959 434.661282 
L 116.537772 437.376024 
L 119.027612 437.656639 
L 124.469407 436.653929 
L 129.344809 434.706388 
L 134.434483 433.710464 
L 139.834852 432.902149 
L 144.861673 431.366151 
L 149.571372 430.312347 
L 154.167506 429.161546 
L 158.642934 428.212723 
L 162.953372 426.751769 
L 171.063567 424.795446 
L 178.980204 422.998392 
L 182.702108 421.301529 
L 186.427584 420.716348 
L 190.122348 419.637397 
L 193.654264 418.913706 
L 197.241892 418.013582 
L 200.765952 416.830049 
L 204.135022 416.267222 
L 210.828165 414.212305 
L 214.171523 413.712147 
L 227.075697 410.139594 
L 230.224067 409.213524 
L 233.331725 408.71656 
L 239.554898 406.868811 
L 242.606131 405.746351 
L 245.668078 405.402268 
L 257.649454 402.180184 
L 260.614264 401.53912 
L 263.574789 400.683304 
L 266.493888 400.297708 
L 269.396559 399.016378 
L 272.272804 398.169743 
L 278.011008 396.866859 
L 280.848684 396.644123 
L 283.695644 395.549604 
L 286.509036 395.272582 
L 289.31457 394.004824 
L 292.094392 394.041947 
L 294.885642 392.876775 
L 297.685463 392.506347 
L 300.418145 391.734357 
L 303.180826 391.449351 
L 308.629763 389.646309 
L 311.343875 388.948962 
L 314.017989 389.006842 
L 316.687104 387.796564 
L 319.326221 387.283234 
L 321.99605 386.527609 
L 324.657308 386.362753 
L 329.922685 385.07823 
L 332.561802 384.501033 
L 335.181635 384.618788 
L 337.804324 383.309916 
L 340.407014 382.553093 
L 343.008276 382.588619 
L 345.598825 381.831797 
L 353.291904 380.530908 
L 355.830313 380.090626 
L 358.386578 379.277521 
L 360.89356 378.359834 
L 365.931809 378.157455 
L 368.444506 377.553913 
L 370.92149 376.349224 
L 373.394903 376.536833 
L 375.881887 375.858248 
L 380.768003 375.292627 
L 383.217132 374.440403 
L 388.069678 373.613327 
L 390.505951 373.360254 
L 392.914368 372.93514 
L 395.330642 372.379898 
L 397.738345 372.304854 
L 400.128906 371.405928 
L 402.518039 371.273005 
L 404.898601 370.998776 
L 407.289876 370.231975 
L 409.679724 369.690703 
L 412.041715 369.659568 
L 414.407278 369.103128 
L 416.749985 369.501896 
L 419.107692 368.575827 
L 423.784535 368.128359 
L 426.136527 367.265757 
L 428.481377 367.349982 
L 430.785516 366.71251 
L 433.108938 366.376012 
L 435.422362 366.403554 
L 437.700787 366.032328 
L 440.034209 365.379289 
L 442.329062 365.281892 
L 444.595346 364.794508 
L 446.884485 364.62087 
L 449.15934 363.793794 
L 451.413481 363.525952 
L 453.672622 363.672846 
L 455.955333 363.374668 
L 458.21376 362.749171 
L 460.455759 362.865728 
L 462.715615 362.525637 
L 467.168187 361.221156 
L 469.417329 361.356474 
L 471.641472 360.73018 
L 473.880614 360.833963 
L 476.106186 360.155378 
L 478.316759 360.216051 
L 480.525189 359.943819 
L 484.940621 359.190589 
L 487.137623 358.890414 
L 489.339625 358.984219 
L 491.537341 358.472485 
L 493.720059 358.317209 
L 495.886349 357.928419 
L 498.068352 357.360403 
L 500.228214 357.475763 
L 502.385933 357.424669 
L 504.549366 356.782408 
L 506.719941 356.300213 
L 511.008952 356.241136 
L 513.182385 356.39761 
L 515.326533 355.26557 
L 519.593403 355.059599 
L 521.711124 354.307966 
L 523.837417 354.648057 
L 525.950139 353.74474 
L 528.069289 354.323134 
L 530.167012 353.77348 
L 532.261878 353.675284 
L 534.358172 353.876066 
L 536.463752 354.270843 
L 538.553618 352.744425 
L 540.652055 353.003485 
L 542.747635 352.265423 
L 544.834644 352.144076 
L 546.903798 351.213615 
L 548.975094 352.071427 
L 551.042104 351.044368 
L 553.114829 351.285865 
L 555.176125 351.374879 
L 557.226708 350.628435 
L 559.275863 350.76535 
L 563.356316 350.44362 
L 565.423327 351.292251 
L 567.488195 350.31908 
L 569.540206 349.998548 
L 571.577219 349.00422 
L 573.599232 348.72161 
L 575.626959 349.242524 
L 577.651116 349.347106 
L 579.696699 349.051322 
L 581.70657 348.518433 
L 583.710013 348.316853 
L 585.694886 347.764405 
L 587.692616 348.240213 
L 589.691059 348.251789 
L 593.687946 347.585977 
L 595.680676 346.857096 
L 597.657692 347.30137 
L 601.632438 346.908588 
L 603.60374 346.113047 
L 605.58647 345.798502 
L 607.55563 346.041596 
L 609.51479 345.927434 
L 613.435254 345.317106 
L 615.3937 346.100273 
L 617.32929 345.380174 
L 623.153917 345.482361 
L 625.087365 344.24973 
L 627.011528 344.573855 
L 628.932119 344.398221 
L 630.846282 344.391036 
L 632.762588 344.61936 
L 634.67318 343.449798 
L 636.573773 343.466563 
L 638.485079 343.207503 
L 640.391386 343.622238 
L 642.284122 343.468958 
L 644.176858 343.496101 
L 646.069594 343.235445 
L 647.964472 342.769615 
L 649.852923 343.112501 
L 653.579827 342.857432 
L 655.448993 342.636293 
L 657.30816 342.077458 
L 659.169469 342.664634 
L 661.022922 341.714614 
L 662.89566 342.280236 
L 666.576852 341.959304 
L 668.424591 341.498665 
L 670.260902 341.607637 
L 672.0865 340.81968 
L 673.926382 341.450365 
L 675.745551 341.204079 
L 677.550436 341.161767 
L 679.356035 340.901908 
L 681.151634 340.447655 
L 684.738547 340.635663 
L 686.499863 339.770666 
L 688.268321 340.333493 
L 690.040351 340.25326 
L 693.55584 339.432571 
L 695.292157 339.560305 
L 697.030618 339.504421 
L 698.77622 339.890816 
L 700.513252 339.064538 
L 702.248141 338.953969 
L 703.993029 339.172313 
L 705.701491 339.211432 
L 707.407096 338.494925 
L 709.094131 338.028697 
L 710.79188 338.229479 
L 712.481772 339.097669 
L 714.166664 338.829827 
L 715.844413 338.260614 
L 717.502879 338.803881 
L 719.13206 338.423075 
L 720.786954 338.422676 
L 722.427564 338.006743 
L 724.051745 337.351309 
L 727.305108 338.561187 
L 728.904292 337.842286 
L 730.519188 337.702976 
L 732.105516 337.902161 
L 733.693271 337.372465 
L 735.259599 337.496606 
L 736.815214 336.73659 
L 738.365829 337.352507 
L 739.905731 336.587701 
L 741.427776 337.256706 
L 742.934108 336.882686 
L 744.429727 336.931384 
L 745.90249 337.651084 
L 747.390252 337.085463 
L 748.863729 336.848357 
L 750.311493 336.850353 
L 751.752115 336.677913 
L 753.191309 336.983276 
L 756.033984 336.673123 
L 757.42818 336.689089 
L 758.818806 337.150128 
L 760.18729 336.687892 
L 761.525061 335.242105 
L 762.851405 336.040841 
L 764.184891 336.131851 
L 765.487665 336.071976 
L 766.779725 336.578121 
L 768.047501 336.028067 
L 769.308849 337.465471 
L 770.549484 336.035651 
L 771.777976 336.65037 
L 772.99147 336.622029 
L 774.196393 337.019201 
L 775.370604 336.210487 
L 776.535529 336.725414 
L 777.678313 336.977289 
L 778.801098 336.463959 
L 779.910313 336.651568 
L 781.010957 336.144225 
L 782.07946 337.116997 
L 783.13225 336.793272 
L 784.162898 336.943359 
L 785.207831 337.674236 
L 786.209196 336.9238 
L 787.191276 336.693879 
L 788.169784 337.726926 
L 789.149722 338.135674 
L 790.11466 338.897287 
L 791.056028 338.781927 
L 791.974541 339.013445 
L 792.900196 339.953884 
L 793.802281 340.467214 
L 794.697938 339.686841 
L 795.592881 339.609802 
L 796.489252 341.305467 
L 797.34134 340.503539 
L 798.206285 341.588078 
L 799.04766 342.086639 
L 799.879749 341.327422 
L 801.507502 342.962414 
L 802.300308 343.019894 
L 803.078116 342.741275 
L 803.85878 343.992666 
L 803.85878 343.992666 
" clip-path="url(#pea3f7d3c37)" style="fill: none; stroke: #ff0000; stroke-width: 1.5; stroke-linecap: square"/>
   </g>
   <g id="line2d_24">
    <path d="M 115.991378 437.763616 
L 126.617841 435.777356 
L 139.250604 432.225559 
L 152.191918 427.685822 
L 165.300365 422.592837 
L 178.503091 418.87339 
L 191.705103 413.514958 
L 204.894259 409.088185 
L 218.041275 404.109762 
L 231.026872 399.890157 
L 243.977472 394.045539 
L 256.793795 390.659397 
L 269.457984 383.340652 
L 282.04575 379.736963 
L 294.482811 378.241281 
L 306.744883 373.013377 
L 318.888392 367.104493 
L 330.884767 362.883292 
L 342.678298 359.250464 
L 354.300411 356.25391 
L 365.772534 351.930521 
L 377.148948 346.875857 
L 388.298949 342.94964 
L 399.310387 338.000356 
L 410.060413 332.757684 
L 420.704018 331.212105 
L 431.194775 327.673481 
L 441.435548 324.996261 
L 451.616325 320.302045 
L 461.516406 317.969707 
L 471.259354 313.216414 
L 480.82517 308.246773 
L 490.207427 307.863971 
L 499.428265 304.696972 
L 508.38912 299.823929 
L 517.240696 296.290094 
L 525.91657 295.152466 
L 534.395313 285.753257 
L 542.726922 289.08591 
L 550.951396 285.73729 
L 558.891602 286.529239 
L 566.681818 285.603569 
L 574.282045 282.846116 
L 581.728712 281.83662 
L 589.011103 279.571342 
L 596.176358 281.063831 
L 603.240906 284.314256 
L 610.185462 282.172321 
L 616.998597 282.01904 
L 623.668884 274.735821 
L 630.272033 279.34182 
L 636.704479 281.027108 
L 643.039073 282.968262 
L 649.256532 278.933072 
L 655.281147 280.43594 
L 661.253622 276.937631 
L 667.081106 278.447684 
L 672.786455 278.451676 
L 678.358956 274.69311 
L 683.827177 279.616847 
L 689.186834 282.410624 
L 694.384358 280.640314 
L 699.484032 280.643108 
L 704.450143 279.691092 
L 709.282691 280.618759 
L 713.980961 278.827293 
L 718.569953 281.084987 
L 723.034668 278.797355 
L 727.404388 277.399469 
L 731.646973 279.51466 
L 735.760282 281.772753 
L 739.777882 281.855381 
L 743.640492 283.974963 
L 747.401679 282.227805 
L 751.042161 282.581468 
L 754.567649 284.496676 
L 757.982431 278.955426 
L 761.281505 281.468987 
L 764.471301 285.105806 
L 770.504486 281.87973 
L 773.358589 278.164275 
L 776.112699 282.377892 
L 778.75753 284.590879 
L 781.309509 282.91637 
L 783.742211 285.250704 
L 786.093489 287.322785 
L 788.332631 287.689621 
L 790.481065 287.893596 
L 792.545219 288.454826 
L 794.507236 283.780568 
L 796.379973 285.151311 
L 798.176287 287.37787 
L 799.898319 286.108117 
L 801.531786 286.311693 
L 803.086687 284.470331 
L 804.569449 288.952588 
L 807.307845 289.654326 
L 808.581335 290.269843 
L 809.781972 296.307259 
L 810.933327 289.008472 
L 812.012544 289.396463 
L 813.038907 299.31938 
L 814.009559 292.042548 
L 814.9245 292.80895 
L 815.796588 293.060426 
L 816.617249 295.650228 
L 817.3872 293.976517 
L 818.114296 296.300872 
L 818.802109 290.980761 
L 819.448497 295.475393 
L 820.061315 289.717793 
L 820.62985 294.302238 
L 821.171958 296.759915 
L 822.159037 294.09028 
L 822.610437 300.287363 
L 823.034696 292.087255 
L 823.441098 298.906641 
L 823.829645 297.901536 
L 824.176051 303.66632 
L 824.503173 298.53262 
L 824.805297 299.066707 
L 825.075994 301.696027 
L 825.343834 302.066854 
L 825.60096 302.091203 
L 825.842373 304.261879 
L 826.068787 299.574848 
L 826.27806 301.636551 
L 826.476618 301.909981 
L 826.660178 304.458668 
L 826.833738 303.074753 
L 826.995871 305.302909 
L 827.150147 301.769074 
L 827.293709 306.101245 
L 827.426557 302.917082 
L 827.552978 306.753884 
L 827.672256 305.519258 
L 827.8851 307.989708 
L 827.982236 306.636529 
L 828.07223 309.114564 
L 828.156511 307.755796 
L 828.235791 309.827877 
L 828.310787 304.688988 
L 828.445778 312.65239 
L 828.505774 309.574405 
L 828.563628 311.55388 
L 828.616481 309.7688 
L 828.797184 313.431167 
L 828.905034 314.777161 
L 828.937175 311.490811 
L 828.995028 315.624994 
L 829.020741 314.348854 
L 829.04574 314.693336 
L 829.178588 318.432343 
L 829.192873 317.020884 
L 829.265011 320.785438 
L 829.274296 317.935778 
L 829.394289 330.986575 
L 829.400003 326.42169 
L 829.401431 325.398223 
L 829.44 350.5494 
L 829.44 344.272084 
" clip-path="url(#pea3f7d3c37)" style="fill: none; stroke: #0000ff; stroke-width: 1.5; stroke-linecap: square"/>
   </g>
   <g id="line2d_25">
    <path d="M 121.861002 435.004567 
L 138.70921 431.833177 
L 155.637412 422.637943 
L 172.870595 412.932173 
L 190.300908 404.158461 
L 224.585856 385.427103 
L 241.212649 373.533094 
L 257.409469 367.529607 
L 288.71818 350.038864 
L 303.712934 341.742556 
L 332.688937 325.967437 
L 346.578048 316.640877 
L 360.087183 310.689681 
L 373.162775 305.19194 
L 385.756969 294.711385 
L 397.835482 287.609787 
L 409.439025 279.145829 
L 420.5376 276.739245 
L 431.136207 273.059315 
L 441.243418 266.462665 
L 450.91637 260.785697 
L 460.232202 253.866919 
L 469.12449 241.519455 
L 477.815363 246.89984 
L 486.099832 242.216801 
L 494.05218 231.714691 
L 501.589555 227.705049 
L 508.838377 225.773475 
L 515.627942 221.961021 
L 522.330371 217.498323 
L 528.504261 211.238171 
L 534.298176 211.059743 
L 539.816394 205.096971 
L 545.118912 205.385171 
L 550.124306 202.946653 
L 554.978281 193.699128 
L 559.692979 201.04821 
L 564.280543 194.800034 
L 568.481702 185.905772 
L 576.374054 188.576605 
L 580.153098 190.58442 
L 583.744297 189.011299 
L 587.251215 181.047499 
L 590.768847 183.228553 
L 594.115062 182.158383 
L 597.376996 181.721294 
L 600.566077 176.949241 
L 603.676593 179.787724 
L 606.644974 179.320698 
L 609.631212 178.194645 
L 612.52674 181.038717 
L 615.261565 176.964409 
L 617.989962 176.553266 
L 620.699789 172.01273 
L 623.309622 174.996112 
L 625.776607 174.64684 
L 628.237164 170.883484 
L 630.627725 173.921152 
L 632.909722 173.8505 
L 635.210289 173.249353 
L 637.425147 173.314816 
L 641.764869 172.490534 
L 643.871163 172.611482 
L 645.868178 171.814344 
L 647.893048 171.731716 
L 649.883635 167.890522 
L 651.808512 171.59999 
L 655.615411 170.912224 
L 657.493862 174.85321 
L 659.31946 174.602532 
L 661.127916 171.158511 
L 662.952799 168.152776 
L 664.749827 170.428033 
L 668.194606 170.660349 
L 669.865928 170.696673 
L 671.516536 170.51585 
L 673.164288 171.049937 
L 674.759186 170.962918 
L 676.344084 171.009621 
L 677.944696 167.238681 
L 679.483169 167.36402 
L 681.033784 167.310132 
L 682.521546 167.510913 
L 683.966454 171.751275 
L 685.449216 171.194037 
L 686.845555 167.546839 
L 688.338317 171.544506 
L 689.766797 167.993508 
L 691.219561 172.170002 
L 692.680182 171.713753 
L 694.092948 171.8355 
L 695.495716 175.944136 
L 696.899912 175.900626 
L 698.294108 168.705623 
L 699.649021 160.502721 
L 700.928225 176.784784 
L 702.233856 165.034874 
L 703.518774 173.226201 
L 704.75798 169.509548 
L 706.000758 173.079307 
L 707.235679 170.090337 
L 708.490598 169.645664 
L 709.751232 169.433706 
L 710.968297 177.300908 
L 712.14465 174.196977 
L 713.33386 170.129855 
L 714.508785 170.561355 
L 715.696566 181.811506 
L 716.898632 174.442067 
L 718.094984 170.765729 
L 719.249196 174.634865 
L 720.367695 175.00649 
L 721.46334 179.255633 
L 722.548984 175.119455 
L 723.621773 179.384166 
L 724.69599 171.806759 
L 725.753779 179.339459 
L 726.792998 175.995229 
L 727.823647 176.115379 
L 728.836439 168.33799 
L 729.814948 176.365258 
L 730.808456 176.5848 
L 731.817677 172.367191 
L 732.831183 176.300593 
L 733.822548 176.516942 
L 734.785344 176.59478 
L 735.758139 169.189814 
L 736.733076 176.754048 
L 737.7023 180.696231 
L 738.625812 177.452592 
L 739.539325 177.54919 
L 740.435697 169.950229 
L 741.32064 178.246537 
L 742.204869 177.879701 
L 743.075528 173.921152 
L 743.9619 178.163111 
L 744.824701 178.608183 
L 745.688932 178.516374 
L 746.538877 178.601397 
L 747.408108 186.31452 
L 748.262339 178.270886 
L 749.097999 162.673796 
L 749.919375 179.060839 
L 750.670042 175.311854 
L 751.286431 178.808964 
L 751.914248 179.361014 
L 752.537065 182.887264 
L 753.038461 183.09563 
L 753.522002 186.327294 
L 753.522002 186.327294 
" clip-path="url(#pea3f7d3c37)" style="fill: none; stroke: #9467bd; stroke-width: 1.5; stroke-linecap: square"/>
   </g>
   <g id="line2d_26">
    <path d="M 119.896128 432.200412 
L 137.152166 430.206168 
L 154.254643 421.911857 
L 171.683528 412.946144 
L 189.28383 402.595319 
L 206.65129 393.929781 
L 223.805192 384.488659 
L 240.52055 374.518241 
L 256.875218 366.21874 
L 288.52962 349.107206 
L 303.753646 338.057836 
L 318.545556 331.230866 
L 332.954634 324.426648 
L 347.001592 318.758862 
L 360.600722 308.117841 
L 373.787021 300.85458 
L 386.49835 295.637854 
L 398.672571 292.170281 
L 421.576819 276.073433 
L 432.23328 261.287851 
L 442.493338 264.4309 
L 452.329137 256.825552 
L 461.802816 253.775509 
L 470.770099 247.834692 
L 479.395976 240.713135 
L 487.739013 235.783411 
L 495.678505 229.122893 
L 503.326587 226.780576 
L 510.554696 220.086927 
L 517.364974 215.269768 
L 523.918126 218.055561 
L 530.142013 208.214074 
L 535.941642 211.567485 
L 541.462717 208.762132 
L 546.696668 208.834781 
L 551.632067 202.93388 
L 556.474614 196.24582 
L 561.1536 193.322713 
L 565.550461 194.869489 
L 569.746621 192.723961 
L 573.749222 183.753458 
L 577.560407 192.194664 
L 584.695665 189.445993 
L 588.173299 184.617657 
L 591.63522 184.403703 
L 595.026432 178.855268 
L 598.368361 181.227124 
L 601.44245 181.078634 
L 604.541537 172.755183 
L 607.592056 168.060967 
L 610.535439 174.963779 
L 613.468109 178.215002 
L 616.293642 173.401835 
L 619.004897 175.903421 
L 621.723295 175.53898 
L 624.310986 182.299289 
L 626.840824 174.427697 
L 629.264241 174.535073 
L 631.644803 177.668941 
L 633.901087 173.732346 
L 640.526377 172.771149 
L 642.691238 168.789049 
L 644.738964 168.710014 
L 646.793119 168.453748 
L 648.872271 171.509379 
L 650.913569 182.257377 
L 652.853445 175.321434 
L 654.829747 167.776759 
L 656.768195 174.602931 
L 658.645217 166.97044 
L 660.473672 166.824744 
L 664.0413 174.553834 
L 665.782618 170.805646 
L 667.474652 174.596145 
L 669.140974 166.87903 
L 670.823724 170.817222 
L 672.492188 178.333156 
L 674.147796 170.632806 
L 675.822689 160.25843 
L 677.398303 167.467005 
L 678.943918 171.174078 
L 680.535245 171.160506 
L 682.091574 174.918274 
L 683.625761 167.175612 
L 685.120666 167.33009 
L 686.609142 167.649026 
L 688.09119 175.256768 
L 689.546811 171.743691 
L 692.382344 163.801046 
L 693.755113 172.122102 
L 695.148595 168.483287 
L 696.518508 176.276643 
L 697.855565 172.803881 
L 699.19905 180.037204 
L 700.531108 172.747598 
L 701.875308 169.081639 
L 703.188081 173.013045 
L 704.470856 172.858966 
L 705.725061 169.324334 
L 706.972838 173.33717 
L 708.200617 173.660096 
L 709.443395 177.191935 
L 710.654031 170.118279 
L 711.85324 161.994012 
L 713.021023 173.967456 
L 714.220232 170.295909 
L 715.369444 170.5881 
L 716.515085 166.62955 
L 717.675011 174.311938 
L 718.789225 178.429755 
L 719.894154 175.126241 
L 720.996227 174.884345 
L 722.067587 175.03044 
L 723.171087 171.428348 
L 724.222449 179.376981 
L 725.247383 172.067416 
L 726.27446 176.001217 
L 727.292252 172.205927 
L 728.307901 179.935017 
L 729.326408 176.67621 
L 730.325629 168.891236 
L 731.314138 180.170926 
L 732.275505 176.817914 
L 733.200445 173.064139 
L 734.148956 177.360384 
L 735.082468 173.055357 
L 736.027407 177.355993 
L 736.933064 173.62497 
L 737.848719 177.52045 
L 738.770089 173.646525 
L 739.674317 174.170632 
L 740.55426 177.650579 
L 741.427776 177.85176 
L 742.327004 174.324312 
L 743.180521 178.156325 
L 744.056893 178.36509 
L 744.890412 190.650283 
L 745.746785 174.810898 
L 746.585303 174.563813 
L 747.405251 179.078802 
L 748.21877 174.576985 
L 749.037289 175.178931 
L 749.837238 179.572972 
L 750.6429 175.429209 
L 751.439278 179.198952 
L 753.008463 171.352107 
L 753.779128 178.536732 
L 754.545508 179.638036 
L 755.306888 179.501122 
L 756.054697 175.622007 
L 756.78965 179.771359 
L 757.52746 180.115441 
L 758.244557 176.478622 
L 758.951654 176.544484 
L 759.655181 176.413956 
L 760.352279 176.645474 
L 761.035092 176.658247 
L 761.717192 184.39572 
L 762.376435 184.429649 
L 763.037107 180.869869 
L 763.695636 184.178972 
L 764.327739 173.517194 
L 764.943414 177.32366 
L 765.577659 184.807262 
L 766.191191 181.168447 
L 766.798295 181.283806 
L 767.404685 181.63228 
L 768.003218 181.311748 
L 768.587466 181.641061 
L 769.159572 177.873714 
L 769.73525 177.806254 
L 770.2895 181.888945 
L 770.833751 182.113277 
L 771.390858 186.150063 
L 772.478646 178.099643 
L 773.012897 193.858796 
L 773.539292 182.59667 
L 774.066401 178.632133 
L 774.56994 178.538329 
L 775.082765 182.166367 
L 775.581304 182.920794 
L 776.081272 183.038149 
L 776.569098 189.888671 
L 777.06121 182.767913 
L 777.557606 178.913546 
L 778.036861 182.644171 
L 778.525402 163.387508 
L 779.0018 181.924072 
L 779.471055 182.828586 
L 779.923169 186.64104 
L 780.383854 183.14832 
L 780.830254 186.682154 
L 781.279511 186.222712 
L 781.714483 179.515891 
L 782.15017 183.056112 
L 782.571571 179.565787 
L 783.002972 179.14227 
L 783.425802 186.774761 
L 784.267177 179.658793 
L 784.681436 179.737828 
L 785.077125 183.36906 
L 785.482813 175.996427 
L 785.882788 179.218112 
L 786.281334 179.445637 
L 786.675594 183.331937 
L 787.066284 183.001027 
L 787.454116 179.515891 
L 787.83052 186.436666 
L 788.206925 179.493538 
L 788.582615 183.173467 
L 788.957591 175.499063 
L 789.328996 175.823188 
L 789.688259 183.523139 
L 790.041093 179.808481 
L 790.740334 186.910079 
L 791.083169 183.561858 
L 791.408863 183.644486 
L 791.671703 186.624275 
L 791.935258 180.065545 
L 792.196669 190.582025 
L 792.45951 183.156702 
L 792.709494 183.238931 
L 792.959478 180.212838 
L 793.125181 183.472843 
L 793.449446 192.059346 
L 793.608008 185.755685 
L 793.715858 189.174559 
L 793.715858 189.174559 
" clip-path="url(#pea3f7d3c37)" style="fill: none; stroke: #ff7f0e; stroke-width: 1.5; stroke-linecap: square"/>
   </g>
   <g id="line2d_27">
    <path d="M 124.163712 211.564691 
L 136.635771 157.585202 
L 147.694349 132.952944 
L 158.02583 135.709997 
L 167.785206 117.916684 
L 177.104609 94.392517 
L 186.13546 96.658993 
L 194.825618 108.089567 
L 203.224366 104.757313 
L 211.35956 92.953915 
L 219.186202 83.854481 
L 226.745718 97.609012 
L 234.080963 84.635653 
L 241.250504 87.762336 
L 248.173632 96.604706 
L 254.944627 95.797588 
L 261.518492 65.924254 
L 267.928796 86.558046 
L 274.231964 62.208 
L 280.384428 62.208 
L 286.465467 96.121313 
L 292.385802 65.355839 
L 298.201144 74.648071 
L 303.912207 62.208 
L 309.458995 68.336426 
L 314.818652 79.94982 
L 320.209021 62.208 
L 325.473684 65.689543 
L 330.366228 62.208 
L 335.555182 85.753324 
L 340.597716 74.196213 
L 345.492403 80.925387 
L 350.305667 62.208 
L 359.700065 62.208 
L 364.251203 81.698974 
L 368.679491 62.208 
L 373.10135 64.659291 
L 377.478213 62.208 
L 394.202143 62.208 
L 398.204029 63.059425 
L 402.160919 67.47103 
L 406.062812 62.208 
L 409.863997 66.682274 
L 413.620186 62.208 
L 420.979 62.208 
L 424.578056 76.671852 
L 428.072832 62.208 
L 451.130642 62.208 
L 454.195446 69.387036 
L 457.267392 80.06518 
L 460.267914 62.208 
L 469.043781 62.208 
L 471.887885 68.150813 
L 474.660564 62.208 
L 495.49566 62.208 
L 497.96193 69.575843 
L 500.366062 62.208 
L 518.786312 62.208 
L 520.994742 74.694374 
L 523.177459 62.208 
L 527.475041 62.208 
L 529.556337 74.009402 
L 531.650488 70.051252 
L 533.686072 80.782884 
L 535.74594 62.208 
L 539.81068 62.208 
L 541.766984 64.008248 
L 543.761856 73.636579 
L 545.706017 62.208 
L 547.62518 64.341154 
L 549.557199 62.208 
L 553.379812 62.208 
L 555.268977 78.958686 
L 557.160284 63.50809 
L 559.037307 62.208 
L 566.361838 62.208 
L 568.160294 73.111673 
L 569.938038 68.31088 
L 571.708639 62.208 
L 575.219843 62.208 
L 576.956874 62.361281 
L 578.679621 62.208 
L 580.415224 62.208 
L 582.146542 77.549224 
L 583.810721 62.208 
L 592.123046 62.208 
L 593.741514 68.811037 
L 595.348554 62.208 
L 598.549064 62.208 
L 600.134676 77.957173 
L 601.712433 68.614646 
L 603.27519 62.208 
L 604.809377 74.323946 
L 606.323566 62.208 
L 607.872753 73.202284 
L 609.363372 62.208 
L 615.380844 62.208 
L 616.875748 64.322792 
L 618.357082 64.114826 
L 619.831273 62.208 
L 622.731087 62.208 
L 624.183137 64.356721 
L 625.633759 64.359116 
L 627.025812 62.208 
L 628.439293 64.481262 
L 629.853489 75.153817 
L 631.265541 69.672442 
L 632.651167 62.208 
L 634.033935 64.694417 
L 635.403133 63.790701 
L 636.795187 62.208 
L 638.177956 62.208 
L 639.545011 64.152746 
L 640.891354 62.208 
L 642.226982 68.807844 
L 643.571182 62.208 
L 647.583068 62.208 
L 648.880842 65.561011 
L 650.18433 62.208 
L 651.48139 62.208 
L 652.779164 64.40063 
L 654.064796 62.208 
L 656.647488 62.208 
L 657.936691 68.240227 
L 659.21161 69.737506 
L 660.484385 62.208 
L 661.740019 64.311216 
L 662.987082 62.208 
L 664.239859 64.359116 
L 665.489065 64.166717 
L 666.728986 62.208 
L 667.953193 64.448131 
L 669.180972 62.208 
L 671.592246 62.208 
L 672.7486 65.606916 
L 673.915668 62.208 
L 675.087736 65.712695 
L 676.266232 62.208 
L 680.843082 62.208 
L 681.95444 76.307412 
L 683.069368 62.208 
L 684.173583 62.208 
L 685.273513 71.256739 
L 686.377014 62.208 
L 687.477658 65.741036 
L 688.55616 62.208 
L 691.763098 62.208 
L 692.821601 71.758893 
L 693.878676 71.060748 
L 694.91861 62.208 
L 695.959972 65.890724 
L 697.003476 76.06392 
L 698.018412 62.208 
L 700.056138 62.208 
L 701.061788 70.208923 
L 702.071009 62.208 
L 703.08523 62.208 
L 704.079452 65.558217 
L 705.068675 62.208 
L 711.826099 62.208 
L 712.780324 66.365335 
L 713.722406 62.208 
L 715.585859 62.208 
L 716.507942 71.013646 
L 717.499308 62.208 
L 723.332506 62.208 
L 724.281016 66.404852 
L 725.222385 62.208 
L 726.153039 66.740553 
L 727.075837 72.023541 
L 727.987208 62.208 
L 728.893578 62.208 
L 729.787807 66.757318 
L 730.675607 62.208 
L 732.446208 62.208 
L 733.300439 83.207829 
L 734.160384 62.208 
L 735.023186 83.306823 
L 735.878845 85.839943 
L 736.718077 62.208 
L 744.816845 62.208 
L 745.594652 67.471429 
L 746.36246 62.208 
L 748.582318 62.208 
L 750.074365 78.668491 
L 750.797891 72.981544 
L 751.519273 62.285838 
L 752.959895 62.208 
L 753.676278 67.84505 
L 754.373376 62.208 
L 755.075474 62.208 
L 755.775429 67.861416 
L 756.468242 62.208 
L 757.154627 67.927279 
L 757.900293 67.951628 
L 758.662387 62.208 
L 760.156577 62.208 
L 760.893673 68.932384 
L 761.617912 62.208 
L 762.34358 67.961208 
L 763.050678 62.31817 
L 763.764204 62.208 
L 764.471301 62.724523 
L 765.164828 68.679711 
L 765.855498 79.78217 
L 766.54474 62.208 
L 767.223268 62.208 
L 767.888225 63.535234 
L 768.584609 64.025412 
L 769.280279 63.61866 
L 769.971663 62.208 
L 770.660191 63.794294 
L 771.333719 63.643408 
L 771.997248 62.208 
L 772.671491 62.208 
L 773.325734 64.076106 
L 773.974979 63.126885 
L 774.626365 64.267308 
L 775.271324 62.208 
L 775.908426 65.972953 
L 776.536957 81.548887 
L 777.158346 62.208 
L 777.774735 65.138691 
L 778.387553 62.208 
L 778.990372 62.208 
L 779.53748 71.196465 
L 779.963881 66.144595 
L 780.403139 77.158837 
L 780.833825 81.999548 
L 781.263798 66.994823 
L 781.688771 81.995556 
L 782.107315 71.490253 
L 782.525146 72.204763 
L 782.941548 67.151297 
L 784.160041 81.873012 
L 784.553587 62.208 
L 784.951419 62.208 
L 785.342822 77.463003 
L 785.727798 86.955618 
L 786.503462 62.344116 
L 786.882724 77.43586 
L 787.259843 87.164782 
L 787.634819 77.439453 
L 788.006938 62.208 
L 788.379771 77.561997 
L 788.746176 82.481344 
L 789.105439 77.650213 
L 789.464701 77.39275 
L 789.821107 67.607546 
L 790.169656 87.496889 
L 790.521777 77.645024 
L 791.217446 67.230731 
L 791.558139 82.704079 
L 791.901688 62.208 
L 792.239524 77.733639 
L 792.574502 87.684498 
L 792.908052 78.027028 
L 793.23946 62.208 
L 793.566582 72.816289 
L 793.888704 72.984738 
L 794.207255 67.740868 
L 794.518664 73.029844 
L 794.837929 68.674522 
L 795.155052 78.002679 
L 795.467174 77.884126 
L 795.772155 78.115244 
L 796.075707 72.967573 
L 796.380687 62.208 
L 796.681382 78.270121 
L 796.982077 78.499643 
L 797.278487 68.47853 
L 797.574182 78.601031 
L 797.862021 78.935534 
L 798.152003 73.78986 
L 798.440556 78.810994 
L 798.73268 93.886771 
L 799.287644 70.489139 
L 799.444063 98.711115 
L 799.569769 89.240056 
L 799.824753 89.06083 
L 799.949745 88.80137 
L 800.202586 88.834501 
L 800.328292 88.583425 
L 800.453284 88.715549 
L 800.578276 88.512373 
L 800.701839 88.577437 
L 800.826117 88.340731 
L 800.908255 88.495209 
L 800.908255 88.495209 
" clip-path="url(#pea3f7d3c37)" style="fill: none; stroke: #d62728; stroke-width: 1.5; stroke-linecap: square"/>
   </g>
   <g id="line2d_28">
    <path d="M 116.164224 434.933515 
L 123.877302 435.28598 
L 140.88907 428.484158 
L 158.020116 420.127975 
L 175.185446 412.599666 
L 192.193644 401.550297 
L 209.079706 393.311469 
L 225.616504 381.609859 
L 241.88832 375.762847 
L 257.805873 368.903144 
L 273.246313 357.146449 
L 288.457482 347.730475 
L 303.153684 342.164876 
L 317.609902 332.54373 
L 331.676859 326.71907 
L 345.38241 317.660352 
L 358.684416 312.006935 
L 371.63573 303.358961 
L 384.279921 294.557306 
L 396.534136 287.222993 
L 408.440517 284.806031 
L 420.010491 276.361233 
L 431.231201 266.075472 
L 442.182643 267.747587 
L 452.766966 258.331613 
L 462.977741 258.100894 
L 472.898534 249.233776 
L 482.511491 244.354745 
L 491.859464 241.491114 
L 500.934597 225.803412 
L 509.669038 231.774566 
L 526.389396 217.182182 
L 534.341745 215.325651 
L 542.064822 207.922283 
L 549.525059 209.65547 
L 556.757453 202.582612 
L 563.747005 189.300696 
L 570.540142 194.740558 
L 577.131149 191.071405 
L 583.507884 187.278112 
L 589.701773 177.180359 
L 595.682104 183.699172 
L 601.512445 173.818566 
L 607.189225 177.927602 
L 612.733156 172.205528 
L 618.215662 177.79867 
L 623.458184 173.524379 
L 628.530716 171.990776 
L 633.4704 164.542301 
L 638.240809 166.046366 
L 642.899796 164.466459 
L 647.432364 161.78405 
L 651.840653 159.003446 
L 656.130378 165.406101 
L 660.294397 160.89151 
L 664.391992 166.461102 
L 668.387451 160.758588 
L 672.289344 153.471776 
L 676.094815 155.002186 
L 679.818862 150.885566 
L 683.455058 146.650793 
L 686.99126 157.145718 
L 690.462467 147.464696 
L 693.853678 159.87922 
L 697.175608 155.614909 
L 700.404687 157.580412 
L 703.565914 156.38171 
L 706.670001 156.045212 
L 709.708378 160.231686 
L 712.683901 151.000926 
L 715.613714 150.956219 
L 718.482816 154.692831 
L 721.285494 155.003782 
L 724.036032 165.742998 
L 726.735145 154.826951 
L 729.360691 162.04311 
L 731.956954 161.6643 
L 734.495363 147.336963 
L 736.977347 158.91523 
L 739.425047 144.104101 
L 741.815608 159.164311 
L 744.164744 147.978426 
L 746.454597 151.806846 
L 748.704453 151.869515 
L 750.897884 150.050507 
L 753.052746 157.524928 
L 755.16404 156.199291 
L 757.223194 148.07223 
L 759.239493 152.537323 
L 761.224366 148.536063 
L 763.158528 149.458141 
L 765.039836 157.069078 
L 766.885432 168.529989 
L 768.695316 157.300595 
L 770.459489 157.727705 
L 772.181522 157.985168 
L 773.864986 157.970798 
L 775.504881 162.159667 
L 777.107635 169.73388 
L 778.66325 158.933591 
L 780.184581 154.933529 
L 781.671629 155.141895 
L 783.124393 155.517911 
L 785.901358 155.891133 
L 787.231273 167.775562 
L 788.527619 156.376122 
L 789.798252 164.295216 
L 791.027459 160.308725 
L 792.221668 164.67243 
L 793.386593 161.174121 
L 794.517949 161.061955 
L 795.612879 153.637031 
L 796.685668 161.573689 
L 797.722744 161.625181 
L 798.739822 162.148091 
L 799.723331 160.7526 
L 800.681841 155.185803 
L 801.612495 154.940714 
L 802.515295 155.236497 
L 803.387382 167.077816 
L 804.233042 156.129037 
L 805.053704 163.255783 
L 805.848653 159.845291 
L 806.612175 162.886552 
L 807.362127 167.945607 
L 808.085652 168.620201 
L 808.78775 165.28635 
L 809.469135 157.79716 
L 810.129093 158.408686 
L 811.378299 165.722242 
L 811.975404 165.800878 
L 812.555366 163.154793 
L 813.117473 172.702093 
L 813.662438 171.176074 
L 814.187405 167.820668 
L 814.694515 167.864975 
L 815.184484 175.404461 
L 815.659453 161.892624 
L 816.11871 156.143008 
L 816.562967 161.752516 
L 817.402199 169.389797 
L 817.805745 175.444777 
L 818.19072 165.92462 
L 818.562839 170.488707 
L 818.926387 180.005271 
L 819.610629 164.820521 
L 819.938465 168.029832 
L 820.257016 179.556207 
L 820.561283 168.595453 
L 820.851978 172.571166 
L 821.139817 165.18097 
L 821.414799 177.033864 
L 821.681211 173.878841 
L 821.936195 177.13206 
L 822.18475 170.670727 
L 822.422592 175.079538 
L 822.654006 167.238681 
L 822.88042 171.378053 
L 823.095406 179.271201 
L 823.302536 172.359607 
L 823.503237 170.913421 
L 824.235333 181.80991 
L 824.40318 181.552446 
L 824.567455 170.816024 
L 824.876721 186.247061 
L 825.164559 168.391877 
L 825.300265 180.146177 
L 825.432399 176.393599 
L 825.560248 184.086764 
L 825.683812 177.624234 
L 825.80309 178.023003 
L 826.02879 186.008758 
L 826.13664 179.43486 
L 826.238776 182.869701 
L 826.338056 168.93754 
L 826.433764 187.04859 
L 826.525901 183.750664 
L 826.614467 183.816926 
L 826.700175 188.390992 
L 826.783741 179.876739 
L 826.864451 192.346348 
L 826.942303 189.443598 
L 827.018012 182.284121 
L 827.091579 186.522088 
L 827.162289 183.088445 
L 827.230856 190.687805 
L 827.297994 180.105462 
L 827.361562 184.075188 
L 827.483697 191.892893 
L 827.540836 181.50255 
L 827.597261 189.004913 
L 827.650829 192.828543 
L 827.751537 183.048528 
L 827.801533 190.51257 
L 827.848673 181.881361 
L 827.894385 184.329059 
L 827.937239 195.399185 
L 828.021519 188.869994 
L 828.207936 197.929112 
L 828.275075 188.299982 
L 828.337928 192.943903 
L 828.424351 197.391033 
L 828.477204 187.344374 
L 828.502917 198.618076 
L 828.527201 192.179895 
L 828.596483 203.561372 
L 828.638623 200.673791 
L 828.680049 204.774843 
L 828.735759 195.717721 
L 828.802898 209.269874 
L 828.862894 206.117644 
L 828.90432 200.589566 
L 828.917176 211.202246 
L 828.942175 205.379982 
L 828.987886 216.755471 
L 828.977172 203.113506 
L 829.055025 206.438176 
L 829.169303 226.477607 
L 829.088594 204.904572 
L 829.186445 221.163883 
L 829.191444 215.212687 
L 829.260726 234.180352 
L 829.294295 222.80127 
L 829.397146 321.858801 
L 829.397146 321.858801 
" clip-path="url(#pea3f7d3c37)" style="fill: none; stroke: #1f77b4; stroke-width: 1.5; stroke-linecap: square"/>
   </g>
   <g id="patch_3">
    <path d="M 115.2 461.376 
L 115.2 62.208 
" style="fill: none; stroke: #000000; stroke-width: 0.8; stroke-linejoin: miter; stroke-linecap: square"/>
   </g>
   <g id="patch_4">
    <path d="M 829.44 461.376 
L 829.44 62.208 
" style="fill: none; stroke: #000000; stroke-width: 0.8; stroke-linejoin: miter; stroke-linecap: square"/>
   </g>
   <g id="patch_5">
    <path d="M 115.2 461.376 
L 829.44 461.376 
" style="fill: none; stroke: #000000; stroke-width: 0.8; stroke-linejoin: miter; stroke-linecap: square"/>
   </g>
   <g id="patch_6">
    <path d="M 115.2 62.208 
L 829.44 62.208 
" style="fill: none; stroke: #000000; stroke-width: 0.8; stroke-linejoin: miter; stroke-linecap: square"/>
   </g>
   <g id="legend_1">
    <g id="patch_7">
     <path d="M 128.5 345.234656 
L 263.18625 345.234656 
Q 266.98625 345.234656 266.98625 341.434656 
L 266.98625 182.149344 
Q 266.98625 178.349344 263.18625 178.349344 
L 128.5 178.349344 
Q 124.7 178.349344 124.7 182.149344 
L 124.7 341.434656 
Q 124.7 345.234656 128.5 345.234656 
z
" style="fill: #ffffff; opacity: 0.8; stroke: #cccccc; stroke-linejoin: miter"/>
    </g>
    <g id="line2d_29">
     <path d="M 132.3 192.599344 
L 151.3 192.599344 
L 170.3 192.599344 
" style="fill: none; stroke: #ff0000; stroke-width: 1.5; stroke-linecap: square"/>
    </g>
    <g id="text_25">
     <!-- MemC3-t -->
     <g transform="translate(185.5 199.249344) scale(0.19 -0.19)">
      <defs>
       <path id="TimesNewRomanPSMT-4d" d="M 2619 0 
L 981 3566 
L 981 734 
Q 981 344 1066 247 
Q 1181 116 1431 116 
L 1581 116 
L 1581 0 
L 106 0 
L 106 116 
L 256 116 
Q 525 116 638 278 
Q 706 378 706 734 
L 706 3503 
Q 706 3784 644 3909 
Q 600 4000 483 4061 
Q 366 4122 106 4122 
L 106 4238 
L 1306 4238 
L 2844 922 
L 4356 4238 
L 5556 4238 
L 5556 4122 
L 5409 4122 
Q 5138 4122 5025 3959 
Q 4956 3859 4956 3503 
L 4956 734 
Q 4956 344 5044 247 
Q 5159 116 5409 116 
L 5556 116 
L 5556 0 
L 3756 0 
L 3756 116 
L 3906 116 
Q 4178 116 4288 278 
Q 4356 378 4356 734 
L 4356 3566 
L 2722 0 
L 2619 0 
z
" transform="scale(0.015625)"/>
       <path id="TimesNewRomanPSMT-65" d="M 681 1784 
Q 678 1147 991 784 
Q 1303 422 1725 422 
Q 2006 422 2214 576 
Q 2422 731 2563 1106 
L 2659 1044 
Q 2594 616 2278 264 
Q 1963 -88 1488 -88 
Q 972 -88 605 314 
Q 238 716 238 1394 
Q 238 2128 614 2539 
Q 991 2950 1559 2950 
Q 2041 2950 2350 2633 
Q 2659 2316 2659 1784 
L 681 1784 
z
M 681 1966 
L 2006 1966 
Q 1991 2241 1941 2353 
Q 1863 2528 1708 2628 
Q 1553 2728 1384 2728 
Q 1125 2728 920 2526 
Q 716 2325 681 1966 
z
" transform="scale(0.015625)"/>
       <path id="TimesNewRomanPSMT-6d" d="M 1050 2338 
Q 1363 2650 1419 2697 
Q 1559 2816 1721 2881 
Q 1884 2947 2044 2947 
Q 2313 2947 2506 2790 
Q 2700 2634 2766 2338 
Q 3088 2713 3309 2830 
Q 3531 2947 3766 2947 
Q 3994 2947 4170 2830 
Q 4347 2713 4450 2447 
Q 4519 2266 4519 1878 
L 4519 647 
Q 4519 378 4559 278 
Q 4591 209 4675 161 
Q 4759 113 4950 113 
L 4950 0 
L 3538 0 
L 3538 113 
L 3597 113 
Q 3781 113 3884 184 
Q 3956 234 3988 344 
Q 4000 397 4000 647 
L 4000 1878 
Q 4000 2228 3916 2372 
Q 3794 2572 3525 2572 
Q 3359 2572 3192 2489 
Q 3025 2406 2788 2181 
L 2781 2147 
L 2788 2013 
L 2788 647 
Q 2788 353 2820 281 
Q 2853 209 2943 161 
Q 3034 113 3253 113 
L 3253 0 
L 1806 0 
L 1806 113 
Q 2044 113 2133 169 
Q 2222 225 2256 338 
Q 2272 391 2272 647 
L 2272 1878 
Q 2272 2228 2169 2381 
Q 2031 2581 1784 2581 
Q 1616 2581 1450 2491 
Q 1191 2353 1050 2181 
L 1050 647 
Q 1050 366 1089 281 
Q 1128 197 1204 155 
Q 1281 113 1516 113 
L 1516 0 
L 100 0 
L 100 113 
Q 297 113 375 155 
Q 453 197 493 289 
Q 534 381 534 647 
L 534 1741 
Q 534 2213 506 2350 
Q 484 2453 437 2492 
Q 391 2531 309 2531 
Q 222 2531 100 2484 
L 53 2597 
L 916 2947 
L 1050 2947 
L 1050 2338 
z
" transform="scale(0.015625)"/>
       <path id="TimesNewRomanPSMT-43" d="M 3853 4334 
L 3950 2894 
L 3853 2894 
Q 3659 3541 3300 3825 
Q 2941 4109 2438 4109 
Q 2016 4109 1675 3895 
Q 1334 3681 1139 3212 
Q 944 2744 944 2047 
Q 944 1472 1128 1050 
Q 1313 628 1683 403 
Q 2053 178 2528 178 
Q 2941 178 3256 354 
Q 3572 531 3950 1056 
L 4047 994 
Q 3728 428 3303 165 
Q 2878 -97 2294 -97 
Q 1241 -97 663 684 
Q 231 1266 231 2053 
Q 231 2688 515 3219 
Q 800 3750 1298 4042 
Q 1797 4334 2388 4334 
Q 2847 4334 3294 4109 
Q 3425 4041 3481 4041 
Q 3566 4041 3628 4100 
Q 3709 4184 3744 4334 
L 3853 4334 
z
" transform="scale(0.015625)"/>
       <path id="TimesNewRomanPSMT-33" d="M 325 3431 
Q 506 3859 782 4092 
Q 1059 4325 1472 4325 
Q 1981 4325 2253 3994 
Q 2459 3747 2459 3466 
Q 2459 3003 1878 2509 
Q 2269 2356 2469 2072 
Q 2669 1788 2669 1403 
Q 2669 853 2319 450 
Q 1863 -75 997 -75 
Q 569 -75 414 31 
Q 259 138 259 259 
Q 259 350 332 419 
Q 406 488 509 488 
Q 588 488 669 463 
Q 722 447 909 348 
Q 1097 250 1169 231 
Q 1284 197 1416 197 
Q 1734 197 1970 444 
Q 2206 691 2206 1028 
Q 2206 1275 2097 1509 
Q 2016 1684 1919 1775 
Q 1784 1900 1550 2001 
Q 1316 2103 1072 2103 
L 972 2103 
L 972 2197 
Q 1219 2228 1467 2375 
Q 1716 2522 1828 2728 
Q 1941 2934 1941 3181 
Q 1941 3503 1739 3701 
Q 1538 3900 1238 3900 
Q 753 3900 428 3381 
L 325 3431 
z
" transform="scale(0.015625)"/>
       <path id="TimesNewRomanPSMT-2d" d="M 259 1672 
L 1875 1672 
L 1875 1200 
L 259 1200 
L 259 1672 
z
" transform="scale(0.015625)"/>
       <path id="TimesNewRomanPSMT-74" d="M 1031 3803 
L 1031 2863 
L 1700 2863 
L 1700 2644 
L 1031 2644 
L 1031 788 
Q 1031 509 1111 412 
Q 1191 316 1316 316 
Q 1419 316 1516 380 
Q 1613 444 1666 569 
L 1788 569 
Q 1678 263 1478 108 
Q 1278 -47 1066 -47 
Q 922 -47 784 33 
Q 647 113 581 261 
Q 516 409 516 719 
L 516 2644 
L 63 2644 
L 63 2747 
Q 234 2816 414 2980 
Q 594 3144 734 3369 
Q 806 3488 934 3803 
L 1031 3803 
z
" transform="scale(0.015625)"/>
      </defs>
      <use xlink:href="#TimesNewRomanPSMT-4d"/>
      <use xlink:href="#TimesNewRomanPSMT-65" x="88.916016"/>
      <use xlink:href="#TimesNewRomanPSMT-6d" x="133.300781"/>
      <use xlink:href="#TimesNewRomanPSMT-43" x="211.083984"/>
      <use xlink:href="#TimesNewRomanPSMT-33" x="277.783203"/>
      <use xlink:href="#TimesNewRomanPSMT-2d" x="327.783203"/>
      <use xlink:href="#TimesNewRomanPSMT-74" x="361.083984"/>
     </g>
    </g>
    <g id="line2d_30">
     <path d="M 132.3 219.463562 
L 151.3 219.463562 
L 170.3 219.463562 
" style="fill: none; stroke: #0000ff; stroke-width: 1.5; stroke-linecap: square"/>
    </g>
    <g id="text_26">
     <!-- caleKV -->
     <g transform="translate(185.5 226.113562) scale(0.19 -0.19)">
      <defs>
       <path id="TimesNewRomanPSMT-63" d="M 2631 1088 
Q 2516 522 2178 217 
Q 1841 -88 1431 -88 
Q 944 -88 581 321 
Q 219 731 219 1428 
Q 219 2103 620 2525 
Q 1022 2947 1584 2947 
Q 2006 2947 2278 2723 
Q 2550 2500 2550 2259 
Q 2550 2141 2473 2067 
Q 2397 1994 2259 1994 
Q 2075 1994 1981 2113 
Q 1928 2178 1911 2362 
Q 1894 2547 1784 2644 
Q 1675 2738 1481 2738 
Q 1169 2738 978 2506 
Q 725 2200 725 1697 
Q 725 1184 976 792 
Q 1228 400 1656 400 
Q 1963 400 2206 609 
Q 2378 753 2541 1131 
L 2631 1088 
z
" transform="scale(0.015625)"/>
       <path id="TimesNewRomanPSMT-61" d="M 1822 413 
Q 1381 72 1269 19 
Q 1100 -59 909 -59 
Q 613 -59 420 144 
Q 228 347 228 678 
Q 228 888 322 1041 
Q 450 1253 767 1440 
Q 1084 1628 1822 1897 
L 1822 2009 
Q 1822 2438 1686 2597 
Q 1550 2756 1291 2756 
Q 1094 2756 978 2650 
Q 859 2544 859 2406 
L 866 2225 
Q 866 2081 792 2003 
Q 719 1925 600 1925 
Q 484 1925 411 2006 
Q 338 2088 338 2228 
Q 338 2497 613 2722 
Q 888 2947 1384 2947 
Q 1766 2947 2009 2819 
Q 2194 2722 2281 2516 
Q 2338 2381 2338 1966 
L 2338 994 
Q 2338 584 2353 492 
Q 2369 400 2405 369 
Q 2441 338 2488 338 
Q 2538 338 2575 359 
Q 2641 400 2828 588 
L 2828 413 
Q 2478 -56 2159 -56 
Q 2006 -56 1915 50 
Q 1825 156 1822 413 
z
M 1822 616 
L 1822 1706 
Q 1350 1519 1213 1441 
Q 966 1303 859 1153 
Q 753 1003 753 825 
Q 753 600 887 451 
Q 1022 303 1197 303 
Q 1434 303 1822 616 
z
" transform="scale(0.015625)"/>
       <path id="TimesNewRomanPSMT-6c" d="M 1184 4444 
L 1184 647 
Q 1184 378 1223 290 
Q 1263 203 1344 158 
Q 1425 113 1647 113 
L 1647 0 
L 244 0 
L 244 113 
Q 441 113 512 153 
Q 584 194 625 287 
Q 666 381 666 647 
L 666 3247 
Q 666 3731 644 3842 
Q 622 3953 573 3993 
Q 525 4034 450 4034 
Q 369 4034 244 3984 
L 191 4094 
L 1044 4444 
L 1184 4444 
z
" transform="scale(0.015625)"/>
       <path id="TimesNewRomanPSMT-4b" d="M 1913 2350 
L 3475 797 
Q 3859 413 4131 273 
Q 4403 134 4675 116 
L 4675 0 
L 2659 0 
L 2659 116 
Q 2841 116 2920 177 
Q 3000 238 3000 313 
Q 3000 388 2970 447 
Q 2941 506 2775 669 
L 1313 2116 
L 1313 750 
Q 1313 428 1353 325 
Q 1384 247 1484 191 
Q 1619 116 1769 116 
L 1913 116 
L 1913 0 
L 106 0 
L 106 116 
L 256 116 
Q 519 116 638 269 
Q 713 369 713 750 
L 713 3488 
Q 713 3809 672 3916 
Q 641 3991 544 4047 
Q 406 4122 256 4122 
L 106 4122 
L 106 4238 
L 1913 4238 
L 1913 4122 
L 1769 4122 
Q 1622 4122 1484 4050 
Q 1388 4000 1350 3900 
Q 1313 3800 1313 3488 
L 1313 2191 
Q 1375 2250 1741 2588 
Q 2669 3438 2863 3722 
Q 2947 3847 2947 3941 
Q 2947 4013 2881 4067 
Q 2816 4122 2659 4122 
L 2563 4122 
L 2563 4238 
L 4119 4238 
L 4119 4122 
Q 3981 4119 3868 4084 
Q 3756 4050 3593 3951 
Q 3431 3853 3194 3634 
Q 3125 3572 2559 2994 
L 1913 2350 
z
" transform="scale(0.015625)"/>
       <path id="TimesNewRomanPSMT-56" d="M 4544 4238 
L 4544 4122 
Q 4319 4081 4203 3978 
Q 4038 3825 3909 3509 
L 2431 -97 
L 2316 -97 
L 728 3556 
Q 606 3838 556 3900 
Q 478 3997 364 4051 
Q 250 4106 56 4122 
L 56 4238 
L 1788 4238 
L 1788 4122 
Q 1494 4094 1406 4022 
Q 1319 3950 1319 3838 
Q 1319 3681 1463 3350 
L 2541 866 
L 3541 3319 
Q 3688 3681 3688 3822 
Q 3688 3913 3597 3995 
Q 3506 4078 3291 4113 
Q 3275 4116 3238 4122 
L 3238 4238 
L 4544 4238 
z
" transform="scale(0.015625)"/>
      </defs>
      <use xlink:href="#TimesNewRomanPSMT-63"/>
      <use xlink:href="#TimesNewRomanPSMT-61" x="44.384766"/>
      <use xlink:href="#TimesNewRomanPSMT-6c" x="88.769531"/>
      <use xlink:href="#TimesNewRomanPSMT-65" x="116.552734"/>
      <use xlink:href="#TimesNewRomanPSMT-4b" x="160.9375"/>
      <use xlink:href="#TimesNewRomanPSMT-56" x="233.154297"/>
     </g>
    </g>
    <g id="line2d_31">
     <path d="M 132.3 246.327781 
L 151.3 246.327781 
L 170.3 246.327781 
" style="fill: none; stroke: #9467bd; stroke-width: 1.5; stroke-linecap: square"/>
    </g>
    <g id="text_27">
     <!-- MICA-t -->
     <g transform="translate(185.5 252.977781) scale(0.19 -0.19)">
      <defs>
       <path id="TimesNewRomanPSMT-49" d="M 1975 116 
L 1975 0 
L 159 0 
L 159 116 
L 309 116 
Q 572 116 691 269 
Q 766 369 766 750 
L 766 3488 
Q 766 3809 725 3913 
Q 694 3991 597 4047 
Q 459 4122 309 4122 
L 159 4122 
L 159 4238 
L 1975 4238 
L 1975 4122 
L 1822 4122 
Q 1563 4122 1444 3969 
Q 1366 3869 1366 3488 
L 1366 750 
Q 1366 428 1406 325 
Q 1438 247 1538 191 
Q 1672 116 1822 116 
L 1975 116 
z
" transform="scale(0.015625)"/>
       <path id="TimesNewRomanPSMT-41" d="M 2928 1419 
L 1288 1419 
L 1000 750 
Q 894 503 894 381 
Q 894 284 986 211 
Q 1078 138 1384 116 
L 1384 0 
L 50 0 
L 50 116 
Q 316 163 394 238 
Q 553 388 747 847 
L 2238 4334 
L 2347 4334 
L 3822 809 
Q 4000 384 4145 257 
Q 4291 131 4550 116 
L 4550 0 
L 2878 0 
L 2878 116 
Q 3131 128 3220 200 
Q 3309 272 3309 375 
Q 3309 513 3184 809 
L 2928 1419 
z
M 2841 1650 
L 2122 3363 
L 1384 1650 
L 2841 1650 
z
" transform="scale(0.015625)"/>
      </defs>
      <use xlink:href="#TimesNewRomanPSMT-4d"/>
      <use xlink:href="#TimesNewRomanPSMT-49" x="88.916016"/>
      <use xlink:href="#TimesNewRomanPSMT-43" x="122.216797"/>
      <use xlink:href="#TimesNewRomanPSMT-41" x="188.916016"/>
      <use xlink:href="#TimesNewRomanPSMT-2d" x="261.132812"/>
      <use xlink:href="#TimesNewRomanPSMT-74" x="294.433594"/>
     </g>
    </g>
    <g id="line2d_32">
     <path d="M 132.3 273.192 
L 151.3 273.192 
L 170.3 273.192 
" style="fill: none; stroke: #ff7f0e; stroke-width: 1.5; stroke-linecap: square"/>
    </g>
    <g id="text_28">
     <!-- MICA-t -->
     <g transform="translate(185.5 279.842) scale(0.19 -0.19)">
      <use xlink:href="#TimesNewRomanPSMT-4d"/>
      <use xlink:href="#TimesNewRomanPSMT-49" x="88.916016"/>
      <use xlink:href="#TimesNewRomanPSMT-43" x="122.216797"/>
      <use xlink:href="#TimesNewRomanPSMT-41" x="188.916016"/>
      <use xlink:href="#TimesNewRomanPSMT-2d" x="261.132812"/>
      <use xlink:href="#TimesNewRomanPSMT-74" x="294.433594"/>
     </g>
    </g>
    <g id="line2d_33">
     <path d="M 132.3 300.056219 
L 151.3 300.056219 
L 170.3 300.056219 
" style="fill: none; stroke: #d62728; stroke-width: 1.5; stroke-linecap: square"/>
    </g>
    <g id="text_29">
     <!-- MICA-t -->
     <g transform="translate(185.5 306.706219) scale(0.19 -0.19)">
      <use xlink:href="#TimesNewRomanPSMT-4d"/>
      <use xlink:href="#TimesNewRomanPSMT-49" x="88.916016"/>
      <use xlink:href="#TimesNewRomanPSMT-43" x="122.216797"/>
      <use xlink:href="#TimesNewRomanPSMT-41" x="188.916016"/>
      <use xlink:href="#TimesNewRomanPSMT-2d" x="261.132812"/>
      <use xlink:href="#TimesNewRomanPSMT-74" x="294.433594"/>
     </g>
    </g>
    <g id="line2d_34">
     <path d="M 132.3 326.920437 
L 151.3 326.920437 
L 170.3 326.920437 
" style="fill: none; stroke: #1f77b4; stroke-width: 1.5; stroke-linecap: square"/>
    </g>
    <g id="text_30">
     <!-- caleKV -->
     <g transform="translate(185.5 333.570437) scale(0.19 -0.19)">
      <use xlink:href="#TimesNewRomanPSMT-63"/>
      <use xlink:href="#TimesNewRomanPSMT-61" x="44.384766"/>
      <use xlink:href="#TimesNewRomanPSMT-6c" x="88.769531"/>
      <use xlink:href="#TimesNewRomanPSMT-65" x="116.552734"/>
      <use xlink:href="#TimesNewRomanPSMT-4b" x="160.9375"/>
      <use xlink:href="#TimesNewRomanPSMT-56" x="233.154297"/>
     </g>
    </g>
   </g>
  </g>
 </g>
 <defs>
  <clipPath id="pea3f7d3c37">
   <rect x="115.2" y="62.208" width="714.24" height="399.168"/>
  </clipPath>
 </defs>
</svg>
