<?xml version="1.0" encoding="utf-8" standalone="no"?>
<!DOCTYPE svg PUBLIC "-//W3C//DTD SVG 1.1//EN"
  "http://www.w3.org/Graphics/SVG/1.1/DTD/svg11.dtd">
<svg xmlns:xlink="http://www.w3.org/1999/xlink" width="921.6pt" height="518.4pt" viewBox="0 0 921.6 518.4" xmlns="http://www.w3.org/2000/svg" version="1.1">
 <metadata>
  <rdf:RDF xmlns:dc="http://purl.org/dc/elements/1.1/" xmlns:cc="http://creativecommons.org/ns#" xmlns:rdf="http://www.w3.org/1999/02/22-rdf-syntax-ns#">
   <cc:Work>
    <dc:type rdf:resource="http://purl.org/dc/dcmitype/StillImage"/>
    <dc:date>2023-08-26T17:28:03.172449</dc:date>
    <dc:format>image/svg+xml</dc:format>
    <dc:creator>
     <cc:Agent>
      <dc:title>Matplotlib v3.7.1, https://matplotlib.org/</dc:title>
     </cc:Agent>
    </dc:creator>
   </cc:Work>
  </rdf:RDF>
 </metadata>
 <defs>
  <style type="text/css">*{stroke-linejoin: round; stroke-linecap: butt}</style>
 </defs>
 <g id="figure_1">
  <g id="patch_1">
   <path d="M 0 518.4 
L 921.6 518.4 
L 921.6 0 
L 0 0 
z
" style="fill: #ffffff"/>
  </g>
  <g id="axes_1">
   <g id="patch_2">
    <path d="M 115.2 461.376 
L 829.44 461.376 
L 829.44 62.208 
L 115.2 62.208 
z
" style="fill: #ffffff"/>
   </g>
   <g id="matplotlib.axis_1">
    <g id="xtick_1">
     <g id="line2d_1">
      <defs>
       <path id="m350d2501f4" d="M 0 0 
L 0 3.5 
" style="stroke: #000000; stroke-width: 0.8"/>
      </defs>
      <g>
       <use xlink:href="#m350d2501f4" x="115.2" y="461.376" style="stroke: #000000; stroke-width: 0.8"/>
      </g>
     </g>
     <g id="text_1">
      <!-- 0 -->
      <g transform="translate(110.45 481.958031) scale(0.19 -0.19)">
       <defs>
        <path id="SimSun-30" d="M 1600 4225 
Q 1250 4225 1012 3687 
Q 775 3150 775 2250 
Q 775 1300 1012 775 
Q 1250 250 1600 250 
Q 1975 250 2187 775 
Q 2400 1300 2400 2250 
Q 2400 3150 2200 3687 
Q 2000 4225 1600 4225 
z
M 1600 50 
Q 1050 50 675 625 
Q 300 1200 300 2250 
Q 300 3225 662 3825 
Q 1025 4425 1600 4425 
Q 2150 4425 2512 3850 
Q 2875 3275 2875 2250 
Q 2875 1225 2512 637 
Q 2150 50 1600 50 
z
" transform="scale(0.015625)"/>
       </defs>
       <use xlink:href="#SimSun-30"/>
      </g>
     </g>
    </g>
    <g id="xtick_2">
     <g id="line2d_2">
      <g>
       <use xlink:href="#m350d2501f4" x="186.624" y="461.376" style="stroke: #000000; stroke-width: 0.8"/>
      </g>
     </g>
     <g id="text_2">
      <!-- 10 -->
      <g transform="translate(177.124 481.958031) scale(0.19 -0.19)">
       <defs>
        <path id="SimSun-31" d="M 1825 4450 
L 1825 650 
Q 1825 450 1950 350 
Q 2075 250 2300 250 
L 2550 250 
L 2550 100 
L 725 100 
L 725 250 
L 950 250 
Q 1200 250 1312 350 
Q 1425 450 1425 650 
L 1425 3675 
Q 1425 3775 1362 3837 
Q 1300 3900 1175 3900 
L 725 3900 
L 725 4050 
L 950 4050 
Q 1250 4050 1437 4150 
Q 1625 4250 1725 4450 
L 1825 4450 
z
" transform="scale(0.015625)"/>
       </defs>
       <use xlink:href="#SimSun-31"/>
       <use xlink:href="#SimSun-30" x="50"/>
      </g>
     </g>
    </g>
    <g id="xtick_3">
     <g id="line2d_3">
      <g>
       <use xlink:href="#m350d2501f4" x="258.048" y="461.376" style="stroke: #000000; stroke-width: 0.8"/>
      </g>
     </g>
     <g id="text_3">
      <!-- 20 -->
      <g transform="translate(248.548 481.958031) scale(0.19 -0.19)">
       <defs>
        <path id="SimSun-32" d="M 2325 3325 
Q 2325 3775 2125 4012 
Q 1925 4250 1525 4250 
Q 1225 4250 1012 4087 
Q 800 3925 800 3675 
Q 800 3525 900 3425 
Q 975 3325 975 3225 
Q 975 3100 912 3037 
Q 850 2975 725 2975 
Q 575 2975 487 3062 
Q 400 3150 400 3350 
Q 400 3875 775 4150 
Q 1150 4425 1575 4425 
Q 2175 4425 2462 4125 
Q 2750 3825 2750 3375 
Q 2750 3075 2612 2775 
Q 2475 2475 2175 2200 
Q 1450 1500 1062 1062 
Q 675 625 600 475 
L 2075 475 
Q 2300 475 2450 650 
Q 2600 825 2650 1175 
L 2800 1175 
L 2650 100 
L 325 100 
L 325 425 
Q 450 650 737 1000 
Q 1025 1350 1500 1825 
Q 1925 2250 2125 2625 
Q 2325 3000 2325 3325 
z
" transform="scale(0.015625)"/>
       </defs>
       <use xlink:href="#SimSun-32"/>
       <use xlink:href="#SimSun-30" x="50"/>
      </g>
     </g>
    </g>
    <g id="xtick_4">
     <g id="line2d_4">
      <g>
       <use xlink:href="#m350d2501f4" x="329.472" y="461.376" style="stroke: #000000; stroke-width: 0.8"/>
      </g>
     </g>
     <g id="text_4">
      <!-- 30 -->
      <g transform="translate(319.972 481.958031) scale(0.19 -0.19)">
       <defs>
        <path id="SimSun-33" d="M 2800 1250 
Q 2800 775 2450 412 
Q 2100 50 1475 50 
Q 1025 50 700 300 
Q 375 550 375 875 
Q 375 1025 475 1137 
Q 575 1250 675 1250 
Q 825 1250 887 1137 
Q 950 1025 950 950 
Q 950 825 900 750 
Q 850 650 850 575 
Q 850 425 1037 325 
Q 1225 225 1450 225 
Q 1900 225 2125 487 
Q 2350 750 2350 1300 
Q 2350 1750 2112 2025 
Q 1875 2300 1225 2300 
L 1225 2475 
Q 1725 2475 1962 2712 
Q 2200 2950 2200 3375 
Q 2200 3725 2012 3987 
Q 1825 4250 1425 4250 
Q 1250 4250 1050 4162 
Q 850 4075 850 3875 
Q 850 3675 900 3625 
Q 950 3575 950 3500 
Q 950 3375 900 3300 
Q 850 3225 725 3225 
Q 625 3225 537 3300 
Q 450 3375 450 3575 
Q 450 3950 775 4187 
Q 1100 4425 1525 4425 
Q 2025 4425 2325 4112 
Q 2625 3800 2625 3450 
Q 2625 3075 2437 2812 
Q 2250 2550 1850 2425 
Q 2400 2225 2600 1900 
Q 2800 1575 2800 1250 
z
" transform="scale(0.015625)"/>
       </defs>
       <use xlink:href="#SimSun-33"/>
       <use xlink:href="#SimSun-30" x="50"/>
      </g>
     </g>
    </g>
    <g id="xtick_5">
     <g id="line2d_5">
      <g>
       <use xlink:href="#m350d2501f4" x="400.896" y="461.376" style="stroke: #000000; stroke-width: 0.8"/>
      </g>
     </g>
     <g id="text_5">
      <!-- 40 -->
      <g transform="translate(391.396 481.958031) scale(0.19 -0.19)">
       <defs>
        <path id="SimSun-34" d="M 2300 575 
Q 2300 400 2400 325 
Q 2500 250 2675 250 
L 2900 250 
L 2900 100 
L 1250 100 
L 1250 250 
L 1525 250 
Q 1725 250 1812 325 
Q 1900 400 1900 575 
L 1900 1400 
L 225 1400 
L 225 1525 
L 2050 4425 
L 2300 4425 
L 2300 1550 
L 2975 1550 
L 2975 1400 
L 2300 1400 
L 2300 575 
z
M 1875 3800 
L 450 1550 
L 1900 1550 
L 1900 3800 
L 1875 3800 
z
" transform="scale(0.015625)"/>
       </defs>
       <use xlink:href="#SimSun-34"/>
       <use xlink:href="#SimSun-30" x="50"/>
      </g>
     </g>
    </g>
    <g id="xtick_6">
     <g id="line2d_6">
      <g>
       <use xlink:href="#m350d2501f4" x="472.32" y="461.376" style="stroke: #000000; stroke-width: 0.8"/>
      </g>
     </g>
     <g id="text_6">
      <!-- 50 -->
      <g transform="translate(462.82 481.958031) scale(0.19 -0.19)">
       <defs>
        <path id="SimSun-35" d="M 1725 2850 
Q 2200 2850 2500 2487 
Q 2800 2125 2800 1525 
Q 2800 850 2487 450 
Q 2175 50 1525 50 
Q 1075 50 725 312 
Q 375 575 375 950 
Q 375 1100 462 1212 
Q 550 1325 700 1325 
Q 850 1325 900 1225 
Q 950 1125 950 1050 
Q 950 900 875 825 
Q 800 725 800 625 
Q 800 425 1037 325 
Q 1275 225 1550 225 
Q 1950 225 2162 550 
Q 2375 875 2375 1475 
Q 2375 1975 2187 2287 
Q 2000 2600 1625 2600 
Q 1350 2600 1150 2500 
Q 950 2400 775 2075 
L 550 2100 
L 675 4375 
L 2725 4375 
L 2650 4000 
L 850 4000 
L 750 2350 
Q 1000 2700 1237 2775 
Q 1475 2850 1725 2850 
z
" transform="scale(0.015625)"/>
       </defs>
       <use xlink:href="#SimSun-35"/>
       <use xlink:href="#SimSun-30" x="50"/>
      </g>
     </g>
    </g>
    <g id="xtick_7">
     <g id="line2d_7">
      <g>
       <use xlink:href="#m350d2501f4" x="543.744" y="461.376" style="stroke: #000000; stroke-width: 0.8"/>
      </g>
     </g>
     <g id="text_7">
      <!-- 60 -->
      <g transform="translate(534.244 481.958031) scale(0.19 -0.19)">
       <defs>
        <path id="SimSun-36" d="M 775 1800 
Q 775 1050 1037 637 
Q 1300 225 1675 225 
Q 2050 225 2250 500 
Q 2450 775 2450 1525 
Q 2450 2025 2237 2300 
Q 2025 2575 1725 2575 
Q 1450 2575 1212 2412 
Q 975 2250 775 1800 
z
M 1750 2825 
Q 2350 2825 2612 2425 
Q 2875 2025 2875 1525 
Q 2875 775 2512 412 
Q 2150 50 1675 50 
Q 1000 50 650 562 
Q 300 1075 300 2050 
Q 300 3200 725 3812 
Q 1150 4425 1875 4425 
Q 2225 4425 2437 4225 
Q 2650 4025 2650 3875 
Q 2650 3725 2587 3650 
Q 2525 3575 2375 3575 
Q 2250 3575 2187 3637 
Q 2125 3700 2125 3825 
Q 2125 3875 2150 3925 
Q 2150 3975 2150 4025 
Q 2150 4125 2075 4187 
Q 2000 4250 1800 4250 
Q 1375 4250 1075 3862 
Q 775 3475 775 2175 
Q 925 2500 1187 2662 
Q 1450 2825 1750 2825 
z
" transform="scale(0.015625)"/>
       </defs>
       <use xlink:href="#SimSun-36"/>
       <use xlink:href="#SimSun-30" x="50"/>
      </g>
     </g>
    </g>
    <g id="xtick_8">
     <g id="line2d_8">
      <g>
       <use xlink:href="#m350d2501f4" x="615.168" y="461.376" style="stroke: #000000; stroke-width: 0.8"/>
      </g>
     </g>
     <g id="text_8">
      <!-- 70 -->
      <g transform="translate(605.668 481.958031) scale(0.19 -0.19)">
       <defs>
        <path id="SimSun-37" d="M 2825 4200 
Q 2300 3350 1987 2537 
Q 1675 1725 1675 1125 
Q 1675 1025 1700 850 
Q 1700 650 1700 400 
Q 1700 200 1637 125 
Q 1575 50 1425 50 
Q 1300 50 1212 137 
Q 1125 225 1125 450 
Q 1125 925 1337 1625 
Q 1550 2325 2475 4000 
L 1225 4000 
Q 950 4000 787 3825 
Q 625 3650 550 3300 
L 400 3325 
L 575 4375 
L 2825 4375 
L 2825 4200 
z
" transform="scale(0.015625)"/>
       </defs>
       <use xlink:href="#SimSun-37"/>
       <use xlink:href="#SimSun-30" x="50"/>
      </g>
     </g>
    </g>
    <g id="xtick_9">
     <g id="line2d_9">
      <g>
       <use xlink:href="#m350d2501f4" x="686.592" y="461.376" style="stroke: #000000; stroke-width: 0.8"/>
      </g>
     </g>
     <g id="text_9">
      <!-- 80 -->
      <g transform="translate(677.092 481.958031) scale(0.19 -0.19)">
       <defs>
        <path id="SimSun-38" d="M 625 1125 
Q 625 725 887 475 
Q 1150 225 1550 225 
Q 2025 225 2237 475 
Q 2450 725 2450 1100 
Q 2450 1425 2150 1725 
Q 1850 2025 1250 2275 
Q 950 2075 787 1775 
Q 625 1475 625 1125 
z
M 2825 1175 
Q 2825 700 2475 375 
Q 2125 50 1550 50 
Q 1025 50 650 375 
Q 275 700 275 1125 
Q 275 1550 487 1850 
Q 700 2150 1100 2375 
Q 750 2550 562 2812 
Q 375 3075 375 3400 
Q 375 3825 700 4125 
Q 1025 4425 1600 4425 
Q 2125 4425 2450 4125 
Q 2775 3825 2775 3400 
Q 2775 3100 2587 2837 
Q 2400 2575 2000 2375 
Q 2425 2125 2625 1825 
Q 2825 1525 2825 1175 
z
M 2425 3375 
Q 2425 3725 2225 3987 
Q 2025 4250 1600 4250 
Q 1125 4250 925 4000 
Q 725 3750 725 3475 
Q 725 3200 1012 2937 
Q 1300 2675 1825 2475 
Q 2125 2625 2275 2850 
Q 2425 3075 2425 3375 
z
" transform="scale(0.015625)"/>
       </defs>
       <use xlink:href="#SimSun-38"/>
       <use xlink:href="#SimSun-30" x="50"/>
      </g>
     </g>
    </g>
    <g id="xtick_10">
     <g id="line2d_10">
      <g>
       <use xlink:href="#m350d2501f4" x="758.016" y="461.376" style="stroke: #000000; stroke-width: 0.8"/>
      </g>
     </g>
     <g id="text_10">
      <!-- 90 -->
      <g transform="translate(748.516 481.958031) scale(0.19 -0.19)">
       <defs>
        <path id="SimSun-39" d="M 700 3050 
Q 700 2500 912 2212 
Q 1125 1925 1450 1925 
Q 1825 1925 2100 2275 
Q 2375 2625 2375 2925 
Q 2375 3525 2175 3887 
Q 1975 4250 1525 4250 
Q 1100 4250 900 3912 
Q 700 3575 700 3050 
z
M 1375 1700 
Q 875 1700 575 2012 
Q 275 2325 275 3025 
Q 275 3625 600 4025 
Q 925 4425 1525 4425 
Q 2150 4425 2500 3925 
Q 2850 3425 2850 2475 
Q 2850 1425 2437 737 
Q 2025 50 1300 50 
Q 975 50 737 200 
Q 500 350 500 600 
Q 500 700 562 800 
Q 625 900 775 900 
Q 925 900 975 787 
Q 1025 675 1025 525 
Q 1025 425 1050 362 
Q 1075 300 1100 275 
Q 1125 250 1187 237 
Q 1250 225 1325 225 
Q 1775 225 2050 725 
Q 2325 1225 2375 2400 
Q 2250 2100 2000 1900 
Q 1750 1700 1375 1700 
z
" transform="scale(0.015625)"/>
       </defs>
       <use xlink:href="#SimSun-39"/>
       <use xlink:href="#SimSun-30" x="50"/>
      </g>
     </g>
    </g>
    <g id="xtick_11">
     <g id="line2d_11">
      <g>
       <use xlink:href="#m350d2501f4" x="829.44" y="461.376" style="stroke: #000000; stroke-width: 0.8"/>
      </g>
     </g>
     <g id="text_11">
      <!-- 100 -->
      <g transform="translate(815.19 481.958031) scale(0.19 -0.19)">
       <use xlink:href="#SimSun-31"/>
       <use xlink:href="#SimSun-30" x="50"/>
       <use xlink:href="#SimSun-30" x="100"/>
      </g>
     </g>
    </g>
    <g id="text_12">
     <!-- 索引装载率 $\mathrm{(\%)}$ -->
     <g transform="translate(406.58 504.17725) scale(0.19 -0.19)">
      <defs>
       <path id="SimSun-7d22" d="M 4725 1325 
Q 4375 1250 3450 1150 
L 3450 -50 
Q 3475 -500 2875 -625 
Q 2875 -325 2200 -125 
L 2200 -25 
Q 2850 -75 2987 -75 
Q 3125 -75 3100 175 
L 3100 1100 
Q 2400 1025 2050 925 
Q 1700 825 1475 700 
L 1225 1175 
Q 1525 1250 2050 1525 
Q 2575 1800 3225 2200 
Q 2900 2200 2437 2150 
Q 1975 2100 1650 1950 
L 1425 2375 
Q 1775 2425 2212 2737 
Q 2650 3050 2875 3375 
L 1000 3375 
Q 1050 3000 975 2850 
Q 900 2700 800 2675 
Q 700 2650 625 2650 
Q 525 2650 462 2675 
Q 400 2700 400 2725 
Q 400 2800 550 2975 
Q 750 3225 875 3800 
L 975 3800 
L 1000 3525 
L 3025 3525 
L 3025 4250 
L 1575 4250 
Q 1375 4250 1100 4175 
L 875 4400 
L 3025 4400 
L 3025 4775 
Q 3025 5025 3000 5275 
L 3625 5050 
L 3375 4900 
L 3375 4400 
L 4725 4400 
L 5125 4750 
L 5575 4250 
L 3375 4250 
L 3375 3525 
L 5300 3525 
L 5500 3750 
L 5950 3325 
Q 5600 3300 5050 2675 
L 4975 2725 
L 5325 3375 
L 2925 3375 
L 3325 3100 
Q 3100 3075 2675 2800 
Q 2250 2500 1925 2350 
L 3425 2375 
Q 3775 2625 4050 3000 
L 4475 2625 
Q 4250 2600 3850 2325 
Q 3425 2050 2975 1787 
Q 2525 1525 2025 1250 
L 4625 1450 
Q 4275 1825 3950 2050 
L 4000 2125 
Q 4700 1850 4962 1662 
Q 5225 1475 5275 1312 
Q 5325 1150 5212 937 
Q 5100 725 4987 925 
Q 4875 1125 4725 1325 
z
M 3925 725 
Q 5025 375 5312 212 
Q 5600 50 5612 -150 
Q 5625 -350 5562 -425 
Q 5500 -500 5475 -500 
Q 5375 -500 5200 -275 
Q 4925 50 3900 650 
L 3925 725 
z
M 2150 750 
L 2575 350 
Q 2275 350 1775 75 
Q 1275 -225 425 -525 
L 375 -450 
Q 1600 150 2150 750 
z
" transform="scale(0.015625)"/>
       <path id="SimSun-5f15" d="M 5075 4675 
L 5075 575 
Q 5075 100 5100 -425 
L 4700 -600 
Q 4725 175 4725 725 
Q 4725 4575 4700 5150 
L 5300 4850 
L 5075 4675 
z
M 3375 4475 
Q 3375 3475 3400 3125 
L 3025 3000 
L 3025 3250 
L 1525 3250 
L 1275 2150 
L 3125 2150 
L 3325 2400 
L 3750 2050 
L 3500 1900 
Q 3375 1125 3225 575 
Q 3075 25 2850 -187 
Q 2625 -400 2250 -475 
Q 2275 -125 1600 125 
L 1600 225 
Q 2125 125 2350 112 
Q 2575 100 2675 225 
Q 2775 350 2900 787 
Q 3025 1225 3150 2000 
L 1275 2000 
L 1100 1775 
L 725 2125 
Q 925 2200 1025 2575 
Q 1125 2950 1200 3675 
L 1575 3400 
L 3025 3400 
L 3025 4550 
L 1650 4550 
Q 1325 4550 1050 4475 
L 825 4700 
L 3000 4700 
L 3175 4950 
L 3575 4650 
L 3375 4475 
z
" transform="scale(0.015625)"/>
       <path id="SimSun-88c5" d="M 700 4725 
Q 1375 4450 1462 4325 
Q 1550 4200 1550 4125 
Q 1550 4025 1475 3887 
Q 1400 3750 1350 3750 
Q 1275 3750 1200 3925 
Q 1075 4225 650 4675 
L 700 4725 
z
M 2250 4775 
L 2250 2200 
L 1900 1975 
Q 1925 2600 1925 3475 
Q 1400 3150 1062 2887 
Q 725 2625 700 2475 
L 350 2900 
Q 775 3025 1925 3625 
Q 1925 4900 1900 5250 
L 2475 4925 
L 2250 4775 
z
M 2375 4000 
L 3900 4000 
Q 3900 4850 3875 5175 
L 4450 4925 
L 4225 4750 
L 4225 4000 
L 5125 4000 
L 5475 4350 
L 5950 3850 
L 4225 3850 
L 4225 2800 
L 4900 2800 
L 5250 3100 
L 5700 2650 
L 3475 2650 
Q 3150 2650 2875 2575 
L 2650 2800 
L 3900 2800 
L 3900 3850 
L 3200 3850 
Q 2875 3850 2600 3775 
L 2375 4000 
z
M 3125 1800 
Q 3125 2100 2650 2525 
L 2700 2575 
Q 3300 2375 3387 2250 
Q 3475 2125 3475 2050 
Q 3475 1950 3350 1800 
L 5050 1800 
L 5475 2175 
L 6000 1650 
L 3325 1650 
Q 3600 1225 4150 675 
Q 4775 1225 5000 1625 
L 5425 1200 
Q 5225 1175 4987 1050 
Q 4750 925 4250 600 
Q 4550 350 5037 162 
Q 5525 -25 6100 -75 
L 6100 -175 
Q 5675 -250 5550 -550 
Q 4825 -250 4262 212 
Q 3700 675 3175 1650 
Q 2825 1325 2450 1025 
L 2450 -25 
L 3750 375 
L 3800 300 
Q 2450 -300 2300 -625 
L 2000 -200 
Q 2150 -75 2125 75 
L 2125 800 
Q 1325 300 275 0 
L 250 75 
Q 1725 700 2725 1650 
L 1200 1650 
Q 875 1650 600 1575 
L 375 1800 
L 3125 1800 
z
" transform="scale(0.015625)"/>
       <path id="SimSun-8f7d" d="M 1850 5200 
L 2375 5000 
L 2200 4825 
L 2200 4325 
L 2675 4325 
L 2975 4600 
L 3400 4175 
L 2200 4175 
L 2200 3525 
L 3700 3525 
Q 3675 4525 3650 5200 
L 4200 4950 
L 4000 4775 
Q 4000 3950 4025 3525 
L 5250 3525 
L 5625 3850 
L 6100 3375 
L 4050 3375 
Q 4125 2300 4425 1400 
Q 4925 2200 5175 3075 
L 5650 2750 
L 5450 2575 
Q 5075 1775 4575 1050 
Q 4950 350 5650 -50 
L 5875 1050 
L 5975 1025 
Q 5925 350 5950 25 
Q 5975 -300 6075 -500 
Q 6125 -625 6025 -625 
Q 5975 -625 5775 -562 
Q 5575 -500 5125 -150 
Q 4675 200 4350 775 
Q 3575 -125 2625 -600 
L 2575 -525 
Q 3575 175 4175 1075 
Q 3825 1950 3725 3375 
L 1100 3375 
Q 775 3375 500 3300 
L 275 3525 
L 1875 3525 
L 1875 4175 
L 1525 4175 
Q 1200 4175 925 4100 
L 700 4325 
L 1875 4325 
Q 1875 4800 1850 5200 
z
M 4500 4850 
Q 5000 4650 5212 4512 
Q 5425 4375 5400 4187 
Q 5375 4000 5300 3925 
Q 5225 3850 5200 3850 
Q 5125 3850 5025 4050 
Q 4900 4325 4450 4775 
L 4500 4850 
z
M 500 525 
Q 850 550 1975 725 
L 1975 1400 
L 1150 1400 
L 975 1250 
L 700 1575 
Q 900 1575 1350 2450 
L 1150 2450 
Q 850 2450 575 2375 
L 350 2600 
L 1425 2600 
Q 1625 3025 1700 3300 
L 2150 3025 
L 1975 2950 
Q 1900 2850 1775 2600 
L 2700 2600 
L 3025 2900 
L 3425 2450 
L 1700 2450 
L 1175 1550 
L 1975 1550 
Q 1975 1925 1950 2300 
L 2450 2075 
L 2300 1900 
L 2300 1550 
L 2800 1550 
L 3075 1850 
L 3475 1400 
L 2300 1400 
L 2300 775 
L 3400 925 
L 3425 850 
L 2300 575 
Q 2300 -50 2325 -400 
L 1950 -550 
Q 1975 225 1975 500 
Q 850 275 725 100 
L 500 525 
z
" transform="scale(0.015625)"/>
       <path id="SimSun-7387" d="M 875 3725 
L 925 3800 
Q 1375 3650 1550 3525 
Q 1725 3400 1725 3250 
Q 1725 3175 1662 3025 
Q 1600 2875 1550 2875 
Q 1500 2875 1425 3050 
Q 1275 3325 875 3725 
z
M 550 1850 
Q 875 1925 2000 2575 
L 2050 2500 
Q 1675 2225 1337 1937 
Q 1000 1650 875 1425 
L 550 1850 
z
M 5200 3450 
Q 4800 3150 4275 2800 
L 4225 2875 
Q 4775 3400 5050 3925 
L 5450 3525 
L 5200 3450 
z
M 4325 2500 
L 4350 2575 
Q 5225 2350 5375 2212 
Q 5525 2075 5525 1900 
Q 5525 1775 5487 1662 
Q 5450 1550 5400 1550 
Q 5325 1550 5200 1800 
Q 4975 2150 4325 2500 
z
M 3150 3900 
Q 2500 3300 2300 3150 
Q 2800 3150 3400 3175 
Q 3700 3500 3850 3825 
L 4250 3450 
Q 4050 3400 3450 2825 
Q 2850 2250 2475 1950 
Q 3150 1975 3850 2000 
Q 3750 2175 3550 2450 
L 3600 2500 
Q 4050 2250 4200 2100 
Q 4350 1950 4350 1850 
Q 4350 1775 4250 1625 
Q 4150 1475 4100 1475 
Q 4075 1475 4050 1550 
Q 4000 1700 3900 1900 
Q 3650 1875 3075 1800 
L 3500 1550 
L 3325 1425 
L 3325 975 
L 5325 975 
L 5650 1300 
L 6100 825 
L 3325 825 
Q 3325 -275 3350 -525 
L 2975 -650 
Q 3000 0 3000 825 
L 1125 825 
Q 800 825 525 750 
L 300 975 
L 3000 975 
L 3000 1775 
Q 2450 1700 2200 1525 
L 1950 1950 
Q 2275 1950 2675 2350 
Q 3075 2750 3325 3050 
Q 2400 2950 2150 2775 
L 1950 3175 
Q 2150 3150 2475 3575 
Q 2800 4000 2900 4225 
L 1450 4225 
Q 1125 4225 850 4150 
L 625 4375 
L 3100 4375 
Q 3050 4800 2675 5200 
L 2725 5250 
Q 3225 5050 3337 4912 
Q 3450 4775 3450 4700 
Q 3450 4550 3250 4375 
L 5025 4375 
L 5350 4675 
L 5775 4225 
L 3050 4225 
L 3375 3950 
L 3150 3900 
z
" transform="scale(0.015625)"/>
       <path id="SimSun-20" d="M 0 0 
Q 0 0 0 0 
z
" transform="scale(0.015625)"/>
       <path id="STIXGeneral-Regular-28" d="M 1946 -1030 
L 1869 -1133 
Q 1126 -710 716 32 
Q 307 774 307 1613 
Q 307 3386 1888 4326 
L 1946 4224 
Q 1293 3667 1075 3126 
Q 858 2586 858 1632 
Q 858 685 1082 96 
Q 1306 -493 1946 -1030 
z
" transform="scale(0.015625)"/>
       <path id="STIXGeneral-Regular-25" d="M 4390 1363 
Q 4390 781 4070 329 
Q 3750 -122 3341 -122 
Q 3014 -122 2790 134 
Q 2566 390 2566 762 
Q 2566 1274 2940 1693 
Q 3315 2112 3776 2112 
Q 4070 2112 4230 1917 
Q 4390 1722 4390 1363 
z
M 4243 1376 
Q 4243 1626 4131 1779 
Q 4019 1933 3840 1933 
Q 3654 1933 3526 1786 
Q 3315 1562 3171 1187 
Q 3027 813 3027 486 
Q 3027 301 3129 176 
Q 3232 51 3386 51 
Q 3718 51 3980 457 
Q 4243 864 4243 1376 
z
M 3974 4518 
L 1222 -115 
L 922 -115 
L 3443 4096 
Q 3264 3891 3094 3811 
Q 2925 3731 2669 3731 
Q 2445 3731 2182 3821 
Q 2208 3674 2208 3539 
Q 2208 3206 2067 2873 
Q 1926 2541 1696 2323 
Q 1453 2086 1146 2086 
Q 826 2086 608 2339 
Q 390 2592 390 2963 
Q 390 3507 761 3916 
Q 1133 4326 1626 4326 
Q 1792 4326 2010 4147 
Q 2310 3898 2624 3898 
Q 2918 3898 3084 3994 
Q 3251 4090 3693 4518 
L 3974 4518 
z
M 2054 3642 
Q 2054 3782 2025 3833 
Q 1997 3885 1894 3936 
Q 1747 4006 1613 4154 
Q 1414 4058 1331 3984 
Q 1248 3910 1152 3750 
Q 845 3264 845 2707 
Q 845 2509 944 2384 
Q 1043 2259 1210 2259 
Q 1549 2259 1801 2675 
Q 2054 3091 2054 3642 
z
" transform="scale(0.015625)"/>
       <path id="STIXGeneral-Regular-29" d="M 186 4224 
L 262 4326 
Q 992 3891 1408 3148 
Q 1824 2406 1824 1581 
Q 1824 -166 243 -1133 
L 186 -1030 
Q 845 -486 1059 54 
Q 1274 595 1274 1562 
Q 1274 2534 1059 3120 
Q 845 3706 186 4224 
z
" transform="scale(0.015625)"/>
      </defs>
      <use xlink:href="#SimSun-7d22" transform="translate(0 0.578125)"/>
      <use xlink:href="#SimSun-5f15" transform="translate(100 0.578125)"/>
      <use xlink:href="#SimSun-88c5" transform="translate(200 0.578125)"/>
      <use xlink:href="#SimSun-8f7d" transform="translate(300 0.578125)"/>
      <use xlink:href="#SimSun-7387" transform="translate(400 0.578125)"/>
      <use xlink:href="#SimSun-20" transform="translate(500 0.578125)"/>
      <use xlink:href="#STIXGeneral-Regular-28" transform="translate(550 0.578125)"/>
      <use xlink:href="#STIXGeneral-Regular-25" transform="translate(583.299988 0.578125)"/>
      <use xlink:href="#STIXGeneral-Regular-29" transform="translate(657.999969 0.578125)"/>
     </g>
    </g>
   </g>
   <g id="matplotlib.axis_2">
    <g id="ytick_1">
     <g id="line2d_12">
      <defs>
       <path id="mc811a1f728" d="M 0 0 
L -3.5 0 
" style="stroke: #000000; stroke-width: 0.8"/>
      </defs>
      <g>
       <use xlink:href="#mc811a1f728" x="115.2" y="461.376" style="stroke: #000000; stroke-width: 0.8"/>
      </g>
     </g>
     <g id="text_13">
      <!-- 0 -->
      <g transform="translate(98.7 468.167016) scale(0.19 -0.19)">
       <use xlink:href="#SimSun-30"/>
      </g>
     </g>
    </g>
    <g id="ytick_2">
     <g id="line2d_13">
      <g>
       <use xlink:href="#mc811a1f728" x="115.2" y="404.352" style="stroke: #000000; stroke-width: 0.8"/>
      </g>
     </g>
     <g id="text_14">
      <!-- 0.5 -->
      <g transform="translate(79.7 411.143016) scale(0.19 -0.19)">
       <defs>
        <path id="SimSun-2e" d="M 800 25 
Q 650 25 537 125 
Q 425 225 425 400 
Q 425 575 537 675 
Q 650 775 800 775 
Q 950 775 1062 662 
Q 1175 550 1175 400 
Q 1175 225 1062 125 
Q 950 25 800 25 
z
" transform="scale(0.015625)"/>
       </defs>
       <use xlink:href="#SimSun-30"/>
       <use xlink:href="#SimSun-2e" x="50"/>
       <use xlink:href="#SimSun-35" x="100"/>
      </g>
     </g>
    </g>
    <g id="ytick_3">
     <g id="line2d_14">
      <g>
       <use xlink:href="#mc811a1f728" x="115.2" y="347.328" style="stroke: #000000; stroke-width: 0.8"/>
      </g>
     </g>
     <g id="text_15">
      <!-- 1.0 -->
      <g transform="translate(79.7 354.119016) scale(0.19 -0.19)">
       <use xlink:href="#SimSun-31"/>
       <use xlink:href="#SimSun-2e" x="50"/>
       <use xlink:href="#SimSun-30" x="100"/>
      </g>
     </g>
    </g>
    <g id="ytick_4">
     <g id="line2d_15">
      <g>
       <use xlink:href="#mc811a1f728" x="115.2" y="290.304" style="stroke: #000000; stroke-width: 0.8"/>
      </g>
     </g>
     <g id="text_16">
      <!-- 1.5 -->
      <g transform="translate(79.7 297.095016) scale(0.19 -0.19)">
       <use xlink:href="#SimSun-31"/>
       <use xlink:href="#SimSun-2e" x="50"/>
       <use xlink:href="#SimSun-35" x="100"/>
      </g>
     </g>
    </g>
    <g id="ytick_5">
     <g id="line2d_16">
      <g>
       <use xlink:href="#mc811a1f728" x="115.2" y="233.28" style="stroke: #000000; stroke-width: 0.8"/>
      </g>
     </g>
     <g id="text_17">
      <!-- 2.0 -->
      <g transform="translate(79.7 240.071016) scale(0.19 -0.19)">
       <use xlink:href="#SimSun-32"/>
       <use xlink:href="#SimSun-2e" x="50"/>
       <use xlink:href="#SimSun-30" x="100"/>
      </g>
     </g>
    </g>
    <g id="ytick_6">
     <g id="line2d_17">
      <g>
       <use xlink:href="#mc811a1f728" x="115.2" y="176.256" style="stroke: #000000; stroke-width: 0.8"/>
      </g>
     </g>
     <g id="text_18">
      <!-- 2.5 -->
      <g transform="translate(79.7 183.047016) scale(0.19 -0.19)">
       <use xlink:href="#SimSun-32"/>
       <use xlink:href="#SimSun-2e" x="50"/>
       <use xlink:href="#SimSun-35" x="100"/>
      </g>
     </g>
    </g>
    <g id="ytick_7">
     <g id="line2d_18">
      <g>
       <use xlink:href="#mc811a1f728" x="115.2" y="119.232" style="stroke: #000000; stroke-width: 0.8"/>
      </g>
     </g>
     <g id="text_19">
      <!-- 3.0 -->
      <g transform="translate(79.7 126.023016) scale(0.19 -0.19)">
       <use xlink:href="#SimSun-33"/>
       <use xlink:href="#SimSun-2e" x="50"/>
       <use xlink:href="#SimSun-30" x="100"/>
      </g>
     </g>
    </g>
    <g id="ytick_8">
     <g id="line2d_19">
      <g>
       <use xlink:href="#mc811a1f728" x="115.2" y="62.208" style="stroke: #000000; stroke-width: 0.8"/>
      </g>
     </g>
     <g id="text_20">
      <!-- 3.5 -->
      <g transform="translate(79.7 68.999016) scale(0.19 -0.19)">
       <use xlink:href="#SimSun-33"/>
       <use xlink:href="#SimSun-2e" x="50"/>
       <use xlink:href="#SimSun-35" x="100"/>
      </g>
     </g>
    </g>
    <g id="text_21">
     <!-- 吞吐量 $\mathrm{(Mops)}$ -->
     <g transform="translate(71.52 323.067) rotate(-90) scale(0.19 -0.19)">
      <defs>
       <path id="SimSun-541e" d="M 2200 1700 
L 2200 75 
L 4200 75 
L 4200 1700 
L 2200 1700 
z
M 1025 4675 
L 4550 4675 
L 4875 5000 
L 5350 4525 
L 3300 4525 
Q 3150 4025 2900 3375 
L 5075 3375 
L 5450 3750 
L 5975 3225 
L 3700 3225 
Q 3925 2925 4312 2587 
Q 4700 2250 5225 2037 
Q 5750 1825 6100 1800 
L 6100 1700 
Q 5700 1675 5575 1375 
Q 4600 1900 4137 2437 
Q 3675 2975 3575 3225 
L 2825 3225 
Q 2425 2575 1950 2075 
L 2200 1850 
L 4175 1850 
L 4325 2100 
L 4750 1775 
L 4550 1600 
L 4550 375 
Q 4550 -50 4575 -375 
L 4200 -500 
L 4200 -75 
L 2200 -75 
L 2200 -450 
L 1825 -575 
Q 1850 175 1850 625 
L 1850 2000 
Q 1175 1400 375 1075 
L 325 1150 
Q 1075 1575 1600 2100 
Q 2125 2625 2450 3225 
L 1225 3225 
Q 900 3225 625 3150 
L 400 3375 
L 2525 3375 
Q 2800 4025 2900 4525 
L 1850 4525 
Q 1525 4525 1250 4450 
L 1025 4675 
z
" transform="scale(0.015625)"/>
       <path id="SimSun-5410" d="M 3775 3000 
L 3775 3750 
Q 3775 4400 3750 5175 
L 4350 4900 
L 4125 4700 
L 4125 3000 
L 4925 3000 
L 5250 3325 
L 5725 2850 
L 4125 2850 
L 4125 75 
L 5225 75 
L 5575 425 
L 6075 -75 
L 2675 -75 
Q 2350 -75 2075 -150 
L 1850 75 
L 3775 75 
L 3775 2850 
L 3225 2850 
Q 2900 2850 2625 2775 
L 2400 3000 
L 3775 3000 
z
M 575 4250 
L 950 4025 
L 1875 4025 
L 2050 4275 
L 2450 3950 
L 2250 3800 
L 2250 1950 
Q 2250 1375 2275 950 
L 1900 775 
L 1900 1225 
L 950 1225 
L 950 600 
L 575 425 
Q 600 1075 600 2375 
Q 600 3675 575 4250 
z
M 950 3875 
L 950 1375 
L 1900 1375 
L 1900 3875 
L 950 3875 
z
" transform="scale(0.015625)"/>
       <path id="SimSun-91cf" d="M 1700 2400 
L 1700 1875 
L 3025 1875 
L 3025 2400 
L 1700 2400 
z
M 3350 2400 
L 3350 1875 
L 4625 1875 
L 4625 2400 
L 3350 2400 
z
M 1700 1725 
L 1700 1225 
L 3025 1225 
L 3025 1725 
L 1700 1725 
z
M 3350 1725 
L 3350 1225 
L 4625 1225 
L 4625 1725 
L 3350 1725 
z
M 4950 2325 
Q 4950 1350 4975 1025 
L 4625 875 
L 4625 1075 
L 3350 1075 
L 3350 525 
L 4700 525 
L 5050 825 
L 5450 375 
L 3350 375 
L 3350 -225 
L 5275 -225 
L 5650 125 
L 6075 -375 
L 1175 -375 
Q 850 -375 575 -450 
L 350 -225 
L 3025 -225 
L 3025 375 
L 1725 375 
Q 1400 375 1125 300 
L 900 525 
L 3025 525 
L 3025 1075 
L 1700 1075 
L 1700 925 
L 1350 800 
Q 1375 1300 1375 1787 
Q 1375 2275 1350 2750 
L 1700 2550 
L 4600 2550 
L 4750 2750 
L 5125 2475 
L 4950 2325 
z
M 1775 4800 
L 1775 4375 
L 4550 4375 
L 4550 4800 
L 1775 4800 
z
M 1775 4225 
L 1775 3775 
L 4550 3775 
L 4550 4225 
L 1775 4225 
z
M 4875 4750 
Q 4875 3825 4900 3525 
L 4550 3375 
L 4550 3625 
L 1775 3625 
L 1775 3400 
L 1425 3250 
Q 1450 3650 1450 4262 
Q 1450 4875 1425 5125 
L 1800 4950 
L 4500 4950 
L 4650 5175 
L 5050 4900 
L 4875 4750 
z
M 250 3125 
L 5375 3125 
L 5725 3450 
L 6150 2975 
L 950 2975 
Q 750 2975 475 2900 
L 250 3125 
z
" transform="scale(0.015625)"/>
       <path id="STIXGeneral-Regular-4d" d="M 5530 0 
L 3738 0 
L 3738 122 
Q 4115 147 4214 265 
Q 4314 384 4314 787 
L 4314 3661 
L 2682 0 
L 2592 0 
L 979 3514 
L 979 966 
Q 979 448 1088 294 
Q 1197 141 1574 122 
L 1574 0 
L 77 0 
L 77 122 
Q 358 141 480 205 
Q 602 269 650 432 
Q 698 595 698 966 
L 698 3514 
Q 698 3878 589 3984 
Q 480 4090 90 4115 
L 90 4237 
L 1357 4237 
L 2835 1024 
L 4250 4237 
L 5523 4237 
L 5523 4115 
Q 5178 4109 5072 3993 
Q 4966 3878 4966 3520 
L 4966 717 
Q 4966 378 5072 262 
Q 5178 147 5530 122 
L 5530 0 
z
" transform="scale(0.015625)"/>
       <path id="STIXGeneral-Regular-6f" d="M 3008 1478 
Q 3008 806 2608 371 
Q 2208 -64 1568 -64 
Q 979 -64 582 368 
Q 186 800 186 1459 
Q 186 2125 582 2534 
Q 979 2944 1626 2944 
Q 2221 2944 2614 2537 
Q 3008 2131 3008 1478 
z
M 2432 1306 
Q 2432 2035 2112 2445 
Q 1856 2765 1504 2765 
Q 1171 2765 966 2493 
Q 762 2221 762 1747 
Q 762 928 1101 435 
Q 1318 115 1677 115 
Q 2029 115 2230 432 
Q 2432 749 2432 1306 
z
" transform="scale(0.015625)"/>
       <path id="STIXGeneral-Regular-70" d="M 1018 2931 
L 1018 2438 
Q 1421 2944 1939 2944 
Q 2406 2944 2707 2560 
Q 3008 2176 3008 1581 
Q 3008 883 2621 409 
Q 2234 -64 1664 -64 
Q 1466 -64 1328 -6 
Q 1190 51 1018 211 
L 1018 -794 
Q 1018 -1094 1120 -1180 
Q 1222 -1267 1581 -1274 
L 1581 -1389 
L 32 -1389 
L 32 -1280 
Q 314 -1254 397 -1171 
Q 480 -1088 480 -838 
L 480 2157 
Q 480 2381 429 2451 
Q 378 2522 218 2522 
Q 115 2522 58 2515 
L 58 2618 
Q 506 2752 979 2944 
L 1018 2931 
z
M 1018 2138 
L 1018 563 
Q 1018 422 1238 281 
Q 1459 141 1683 141 
Q 2029 141 2243 467 
Q 2458 794 2458 1325 
Q 2458 1888 2243 2224 
Q 2029 2560 1670 2560 
Q 1446 2560 1232 2419 
Q 1018 2278 1018 2138 
z
" transform="scale(0.015625)"/>
       <path id="STIXGeneral-Regular-73" d="M 998 1926 
L 1664 1523 
Q 1984 1331 2105 1164 
Q 2227 998 2227 736 
Q 2227 416 1961 176 
Q 1696 -64 1331 -64 
Q 1030 -64 864 -6 
Q 691 51 570 51 
Q 461 51 416 -26 
L 333 -26 
L 333 979 
L 435 979 
Q 538 512 730 294 
Q 922 77 1248 77 
Q 1485 77 1632 211 
Q 1779 346 1779 550 
Q 1779 845 1440 1030 
L 1094 1222 
Q 326 1651 326 2150 
Q 326 2522 566 2730 
Q 806 2938 1210 2938 
Q 1491 2938 1638 2867 
Q 1754 2816 1818 2816 
Q 1862 2816 1920 2880 
L 1990 2880 
L 2022 2010 
L 1926 2010 
Q 1818 2445 1654 2621 
Q 1491 2797 1203 2797 
Q 986 2797 854 2688 
Q 723 2579 723 2362 
Q 723 2253 796 2128 
Q 870 2003 998 1926 
z
" transform="scale(0.015625)"/>
      </defs>
      <use xlink:href="#SimSun-541e" transform="translate(0 0.140625)"/>
      <use xlink:href="#SimSun-5410" transform="translate(100 0.140625)"/>
      <use xlink:href="#SimSun-91cf" transform="translate(200 0.140625)"/>
      <use xlink:href="#SimSun-20" transform="translate(300 0.140625)"/>
      <use xlink:href="#STIXGeneral-Regular-28" transform="translate(350 0.140625)"/>
      <use xlink:href="#STIXGeneral-Regular-4d" transform="translate(383.299988 0.140625)"/>
      <use xlink:href="#STIXGeneral-Regular-6f" transform="translate(472.199982 0.140625)"/>
      <use xlink:href="#STIXGeneral-Regular-70" transform="translate(522.199966 0.140625)"/>
      <use xlink:href="#STIXGeneral-Regular-73" transform="translate(572.199951 0.140625)"/>
      <use xlink:href="#STIXGeneral-Regular-29" transform="translate(611.099945 0.140625)"/>
     </g>
    </g>
   </g>
   <g id="line2d_20">
    <path d="M 115.834959 448.66332 
L 116.537772 447.403637 
L 119.027612 411.908638 
L 124.469407 352.989377 
L 129.344809 363.793269 
L 134.434483 359.251296 
L 139.834852 352.790375 
L 144.861673 359.908521 
L 149.571372 366.050861 
L 154.167506 368.084428 
L 158.642934 370.287311 
L 162.953372 373.309834 
L 167.072394 376.960294 
L 171.063567 379.412257 
L 175.051884 379.254187 
L 178.980204 380.320786 
L 182.702108 384.217601 
L 186.427584 384.006202 
L 190.122348 384.425191 
L 193.654264 387.683896 
L 197.241892 386.327603 
L 200.765952 387.417058 
L 204.135022 390.555112 
L 207.47338 391.003012 
L 210.828165 390.46117 
L 214.171523 390.582985 
L 217.452027 391.748863 
L 220.723246 391.776338 
L 223.925184 393.062628 
L 227.075697 393.984889 
L 230.224067 393.873338 
L 233.331725 394.639307 
L 236.449382 394.236079 
L 239.554898 394.308671 
L 242.606131 395.292723 
L 245.668078 394.987279 
L 248.669315 396.196108 
L 251.674836 395.911946 
L 254.671788 395.977455 
L 260.614264 396.366028 
L 263.574789 396.295524 
L 266.493888 397.194804 
L 269.396559 397.295485 
L 272.272804 397.721831 
L 275.159048 397.379892 
L 278.011008 398.017124 
L 280.848684 398.227611 
L 283.695644 397.852359 
L 286.509036 398.518228 
L 289.31457 398.474776 
L 292.094392 399.058109 
L 294.885642 398.563391 
L 297.685463 398.347852 
L 300.418145 399.678883 
L 303.180826 398.940354 
L 305.911365 399.494388 
L 308.629763 399.585432 
L 311.343875 399.544261 
L 314.017989 400.486799 
L 316.687104 400.398515 
L 319.326221 400.979395 
L 321.99605 400.149936 
L 324.657308 400.269504 
L 327.28714 400.877174 
L 332.561802 400.410832 
L 335.181635 400.899858 
L 337.804324 400.578049 
L 340.407014 400.897201 
L 345.598825 401.064395 
L 348.180088 401.196851 
L 350.731354 401.796196 
L 353.291904 401.518055 
L 355.830313 401.946431 
L 358.386578 401.401658 
L 360.89356 402.447068 
L 363.422684 401.803096 
L 365.931809 402.254817 
L 368.444506 402.073526 
L 370.92149 402.682645 
L 373.394903 402.815967 
L 375.881887 402.362969 
L 378.314588 403.595805 
L 380.768003 403.093389 
L 383.217132 403.018585 
L 388.069678 403.586111 
L 390.505951 403.092557 
L 392.914368 403.677064 
L 395.330642 403.424596 
L 402.518039 403.854203 
L 404.898601 403.998862 
L 407.289876 403.598428 
L 409.679724 403.527912 
L 412.041715 404.223821 
L 414.407278 404.036224 
L 416.749985 404.63217 
L 419.107692 404.103067 
L 423.784535 404.661481 
L 426.136527 404.016927 
L 428.481377 404.190246 
L 430.785516 405.028715 
L 433.108938 404.525775 
L 435.422362 404.774993 
L 437.700787 405.552218 
L 440.034209 404.090659 
L 442.329062 404.99815 
L 444.595346 405.61515 
L 446.884485 405.061447 
L 449.15934 405.246501 
L 451.413481 405.681036 
L 453.672622 405.609687 
L 455.955333 404.927965 
L 460.455759 405.879707 
L 462.715615 405.348905 
L 464.939044 406.133259 
L 467.168187 405.872682 
L 469.417329 405.405689 
L 471.641472 405.939639 
L 473.880614 405.596857 
L 476.106186 405.803603 
L 478.316759 406.179391 
L 480.525189 406.172833 
L 482.73719 405.97309 
L 487.137623 406.250705 
L 489.339625 406.144549 
L 491.537341 406.155897 
L 495.886349 406.843789 
L 498.068352 406.345696 
L 500.228214 406.916267 
L 502.385933 406.953823 
L 506.719941 406.435383 
L 511.008952 407.285577 
L 513.182385 406.397234 
L 515.326533 406.916586 
L 517.454254 407.288063 
L 519.593403 406.990934 
L 521.711124 407.407084 
L 523.837417 407.258844 
L 525.950139 407.42995 
L 528.069289 407.380978 
L 530.167012 407.775846 
L 534.358172 407.904173 
L 536.463752 407.715355 
L 538.553618 407.835904 
L 542.747635 407.582797 
L 548.975094 408.193638 
L 553.114829 407.995252 
L 555.176125 408.334933 
L 563.356316 408.670245 
L 565.423327 408.11831 
L 567.488195 408.018096 
L 573.599232 408.830323 
L 575.626959 408.791478 
L 577.651116 408.90694 
L 579.696699 408.301973 
L 581.70657 409.10568 
L 583.710013 409.233323 
L 585.694886 409.629081 
L 587.692616 409.369815 
L 589.691059 409.36709 
L 591.680932 409.500845 
L 593.687946 409.010234 
L 595.680676 409.297486 
L 597.657692 409.740209 
L 599.65685 409.12086 
L 601.632438 409.726683 
L 603.60374 409.66942 
L 605.58647 409.328975 
L 607.55563 409.738259 
L 609.51479 409.963287 
L 611.46038 410.31354 
L 613.435254 409.440445 
L 615.3937 410.035536 
L 617.32929 410.480039 
L 619.27488 410.219291 
L 621.209756 410.562929 
L 623.153917 410.297505 
L 625.087365 410.34983 
L 627.011528 410.645397 
L 628.932119 410.694061 
L 630.846282 410.939127 
L 634.67318 410.798928 
L 636.573773 411.067192 
L 638.485079 410.736863 
L 640.391386 410.922282 
L 642.284122 411.292688 
L 647.964472 411.105809 
L 649.852923 411.348046 
L 651.722089 411.820262 
L 653.579827 412.072822 
L 655.448993 411.792355 
L 659.169469 411.9568 
L 661.022922 412.018911 
L 662.89566 411.586384 
L 664.737684 412.382017 
L 666.576852 412.457551 
L 668.424591 412.107846 
L 670.260902 412.425047 
L 672.0865 412.578191 
L 673.926382 412.326578 
L 677.550436 413.233169 
L 679.356035 413.150438 
L 681.151634 413.347365 
L 684.738547 413.45303 
L 686.499863 414.169948 
L 691.814523 413.798128 
L 693.55584 414.595301 
L 695.292157 414.765004 
L 700.513252 414.642289 
L 702.248141 414.698435 
L 703.993029 414.47303 
L 705.701491 415.458872 
L 707.407096 415.429003 
L 709.094131 415.881933 
L 710.79188 415.604147 
L 712.481772 415.917391 
L 715.844413 416.10175 
L 719.13206 417.446797 
L 720.786954 416.756032 
L 724.051745 417.433682 
L 725.673784 417.598983 
L 727.305108 417.410028 
L 728.904292 418.186946 
L 730.519188 417.724596 
L 732.105516 418.555321 
L 733.693271 418.43719 
L 735.259599 419.026511 
L 739.905731 419.59723 
L 741.427776 420.169214 
L 744.429727 420.840798 
L 745.90249 421.561159 
L 747.390252 421.060078 
L 748.863729 421.415873 
L 750.311493 422.114337 
L 751.752115 422.316214 
L 753.191309 422.365129 
L 754.621932 422.596464 
L 757.42818 423.601238 
L 758.818806 423.689842 
L 762.851405 425.333034 
L 764.184891 425.109968 
L 765.487665 425.946784 
L 766.779725 426.309354 
L 768.047501 426.883551 
L 771.777976 428.05171 
L 772.99147 428.440295 
L 774.196393 428.700655 
L 775.370604 429.46261 
L 776.535529 429.789483 
L 777.678313 430.41702 
L 779.910313 431.28634 
L 781.010957 431.423323 
L 782.07946 432.424071 
L 783.13225 432.815393 
L 784.162898 433.420839 
L 785.207831 433.143167 
L 786.209196 434.215309 
L 787.191276 434.722481 
L 788.169784 434.936423 
L 789.149722 434.925463 
L 790.11466 435.387437 
L 791.974541 436.672131 
L 792.900196 436.558836 
L 793.802281 437.233681 
L 794.697938 437.359875 
L 795.592881 437.336757 
L 796.489252 437.463601 
L 797.34134 438.55796 
L 798.206285 438.324846 
L 799.04766 438.97882 
L 800.703982 439.457206 
L 801.507502 440.070705 
L 803.078116 440.720881 
L 803.85878 440.749883 
L 803.85878 440.749883 
" clip-path="url(#p969d8b2bee)" style="fill: none; stroke: #ff0000; stroke-width: 1.5; stroke-linecap: square"/>
   </g>
   <g id="line2d_21">
    <path d="M 115.991378 449.121177 
L 126.617841 295.291809 
L 139.250604 214.237474 
L 152.191918 213.767231 
L 165.300365 217.296298 
L 178.503091 212.515235 
L 191.705103 217.410643 
L 204.894259 213.679243 
L 218.041275 217.787549 
L 231.026872 215.289886 
L 243.977472 218.080538 
L 256.793795 217.334482 
L 269.457984 224.351 
L 282.04575 222.992973 
L 294.482811 214.94537 
L 306.744883 216.036798 
L 318.888392 221.149273 
L 330.884767 221.82048 
L 342.678298 220.466513 
L 354.300411 216.672764 
L 365.772534 218.5705 
L 377.148948 220.040384 
L 399.310387 223.236317 
L 410.060413 226.314188 
L 420.704018 224.105876 
L 431.194775 224.457304 
L 441.435548 222.23493 
L 451.616325 225.246014 
L 461.516406 224.702803 
L 471.259354 228.042152 
L 480.82517 229.378372 
L 490.207427 226.936228 
L 499.428265 229.57344 
L 508.38912 230.832165 
L 517.240696 232.887458 
L 525.91657 231.224809 
L 534.395313 240.85898 
L 542.726922 234.540721 
L 550.951396 237.921012 
L 558.891602 234.002483 
L 566.681818 233.107263 
L 574.282045 234.416716 
L 581.728712 236.91536 
L 589.011103 238.828469 
L 596.176358 235.426817 
L 603.240906 233.311568 
L 610.185462 231.080128 
L 616.998597 232.970804 
L 623.668884 239.278172 
L 630.272033 233.296605 
L 636.704479 233.763735 
L 643.039073 231.223156 
L 649.256532 235.324139 
L 655.281147 231.1377 
L 661.253622 235.661254 
L 667.081106 233.245204 
L 672.786455 232.038485 
L 678.358956 238.018945 
L 683.827177 233.173821 
L 689.186834 231.590675 
L 694.384358 231.446245 
L 699.484032 229.515914 
L 704.450143 232.973314 
L 709.282691 230.403447 
L 713.980961 232.772589 
L 718.569953 230.345556 
L 723.034668 233.447719 
L 727.404388 234.700799 
L 731.646973 233.005498 
L 735.760282 233.143028 
L 739.777882 230.785177 
L 743.640492 229.709112 
L 747.401679 229.675673 
L 751.042161 230.324355 
L 754.567649 230.204137 
L 757.982431 237.225867 
L 761.281505 229.507623 
L 764.471301 229.706363 
L 767.551818 229.629529 
L 770.504486 232.470989 
L 773.358589 237.501624 
L 776.112699 232.774209 
L 778.75753 229.993787 
L 781.309509 233.641213 
L 783.742211 229.545658 
L 786.093489 229.321941 
L 788.332631 230.093921 
L 790.481065 228.451789 
L 794.507236 232.991595 
L 796.379973 234.50085 
L 798.176287 229.352495 
L 799.898319 232.334086 
L 801.531786 231.141132 
L 803.086687 233.623433 
L 804.569449 228.475374 
L 805.970788 229.463167 
L 807.307845 228.379186 
L 808.581335 228.698509 
L 809.781972 228.503943 
L 810.933327 231.071939 
L 812.012544 231.61815 
L 813.038907 229.744375 
L 814.009559 230.199689 
L 814.9245 226.994872 
L 815.796588 229.186464 
L 816.617249 227.365345 
L 817.3872 228.546826 
L 818.114296 228.342543 
L 818.802109 234.410307 
L 819.448497 229.000098 
L 820.061315 235.955053 
L 820.62985 230.784824 
L 821.171958 228.296536 
L 821.682639 230.664891 
L 822.159037 236.50392 
L 822.610437 231.149994 
L 823.034696 237.543536 
L 823.441098 228.610955 
L 823.829645 238.388586 
L 824.176051 229.934448 
L 824.503173 232.499068 
L 825.075994 239.29577 
L 825.343834 241.009923 
L 825.60096 227.96022 
L 825.842373 229.465277 
L 826.068787 233.532879 
L 826.27806 230.973664 
L 826.476618 231.565311 
L 826.660178 228.317532 
L 826.833738 231.110887 
L 826.995871 227.407657 
L 827.150147 232.208587 
L 827.293709 228.63446 
L 827.426557 232.790631 
L 827.552978 226.936069 
L 827.672256 230.646301 
L 827.78082 227.856653 
L 827.982236 230.858658 
L 828.07223 228.455142 
L 828.156511 230.349936 
L 828.235791 227.623424 
L 828.310787 235.169844 
L 828.380782 227.585891 
L 828.445778 227.678783 
L 828.616481 231.066978 
L 828.713618 226.616381 
L 828.757187 230.293265 
L 828.835753 227.941139 
L 828.871465 226.561124 
L 828.905034 228.606803 
L 828.937175 232.294488 
L 828.995028 227.714788 
L 829.020741 229.535964 
L 829.110021 235.431584 
L 829.069309 227.413588 
L 829.146447 230.883635 
L 829.220014 225.569135 
L 829.265011 227.71326 
L 829.36929 234.059142 
L 829.365719 225.984327 
L 829.375718 229.263366 
L 829.44 224.757432 
L 829.44 240.192826 
L 829.44 228.383634 
L 829.44 263.835033 
L 829.44 263.835033 
" clip-path="url(#p969d8b2bee)" style="fill: none; stroke: #0000ff; stroke-width: 1.5; stroke-linecap: square"/>
   </g>
   <g id="line2d_22">
    <path d="M 121.861002 416.169688 
L 138.70921 131.832719 
L 155.637412 135.913345 
L 172.870595 140.638023 
L 190.300908 136.896267 
L 207.589087 138.184633 
L 224.585856 138.538969 
L 241.212649 148.655654 
L 257.409469 140.176778 
L 273.251313 139.06992 
L 288.71818 141.042836 
L 303.712934 140.557254 
L 318.411279 145.177156 
L 332.688937 141.234973 
L 346.578048 144.315649 
L 360.087183 145.417284 
L 373.162775 144.659617 
L 385.756969 148.699802 
L 397.835482 155.150733 
L 409.439025 157.473868 
L 420.5376 157.27685 
L 431.136207 165.395962 
L 441.243418 163.62491 
L 450.91637 172.137533 
L 460.232202 167.41915 
L 469.12449 183.772356 
L 477.815363 170.659505 
L 486.099832 173.076821 
L 494.05218 177.796013 
L 501.589555 184.962721 
L 508.838377 182.56144 
L 515.627942 185.335874 
L 522.330371 186.401744 
L 528.504261 198.10105 
L 534.298176 201.41914 
L 539.816394 211.842968 
L 545.118912 205.688983 
L 550.124306 220.832448 
L 554.978281 215.427382 
L 559.692979 218.597848 
L 564.280543 212.219874 
L 568.481702 227.756256 
L 572.514301 229.854158 
L 576.374054 233.026095 
L 580.153098 228.443544 
L 583.744297 238.852511 
L 587.251215 244.119373 
L 590.768847 229.488759 
L 594.115062 236.907046 
L 597.376996 239.316903 
L 600.566077 242.319844 
L 603.676593 239.613656 
L 606.644974 246.738964 
L 609.631212 241.36598 
L 612.52674 243.348317 
L 615.261565 253.357865 
L 617.989962 248.706224 
L 620.699789 246.015432 
L 623.309622 245.861684 
L 625.776607 253.491906 
L 628.237164 256.504427 
L 630.627725 254.269668 
L 632.909722 262.690539 
L 635.210289 256.024969 
L 637.425147 259.909592 
L 639.632863 259.70897 
L 641.764869 257.943599 
L 643.871163 262.567629 
L 645.868178 265.874827 
L 647.893048 263.490448 
L 649.883635 263.349348 
L 651.808512 266.347043 
L 653.719104 265.552322 
L 655.615411 260.5873 
L 657.493862 262.234928 
L 659.31946 263.062107 
L 661.127916 264.431687 
L 662.952799 264.410508 
L 664.749827 260.728719 
L 666.511857 258.440289 
L 668.194606 268.16677 
L 669.865928 263.442788 
L 671.516536 264.705242 
L 673.164288 265.034476 
L 674.759186 265.792234 
L 676.344084 267.426119 
L 677.944696 263.145499 
L 679.483169 268.23302 
L 681.033784 265.500784 
L 682.521546 270.28203 
L 683.966454 268.350866 
L 685.449216 264.734438 
L 686.845555 274.672353 
L 688.338317 260.543881 
L 689.766797 265.011073 
L 691.219561 262.459021 
L 692.680182 254.101538 
L 694.092948 259.246517 
L 695.495716 258.084448 
L 696.899912 256.138983 
L 698.294108 256.731371 
L 699.649021 265.385162 
L 700.928225 266.121125 
L 702.233856 263.896186 
L 703.518774 259.918146 
L 704.75798 264.2661 
L 706.000758 260.606209 
L 707.235679 264.772017 
L 708.490598 258.214599 
L 709.751232 253.669992 
L 710.968297 253.675386 
L 712.14465 259.8564 
L 713.33386 259.234063 
L 714.508785 260.544418 
L 715.696566 251.870075 
L 716.898632 249.780613 
L 718.094984 245.397862 
L 719.249196 247.799177 
L 721.46334 256.500572 
L 722.548984 250.788592 
L 723.621773 253.113084 
L 724.69599 254.971325 
L 725.753779 250.55038 
L 726.792998 255.688835 
L 727.823647 252.899746 
L 728.836439 254.894297 
L 729.814948 259.616637 
L 730.808456 252.765135 
L 731.817677 252.870401 
L 732.831183 242.489011 
L 733.822548 241.763175 
L 734.785344 251.60375 
L 735.758139 247.804024 
L 736.733076 242.597265 
L 737.7023 235.919094 
L 738.625812 247.30844 
L 739.539325 246.591637 
L 740.435697 251.885198 
L 741.32064 249.768683 
L 742.204869 242.457226 
L 743.075528 249.211536 
L 743.9619 242.272012 
L 744.824701 245.036581 
L 745.688932 239.201954 
L 746.538877 240.081093 
L 747.408108 234.587515 
L 748.262339 232.211918 
L 749.097999 250.917443 
L 749.919375 236.351963 
L 750.670042 244.506805 
L 751.286431 292.105707 
L 751.914248 283.444743 
L 752.537065 284.164089 
L 753.038461 298.452513 
L 753.409152 356.23573 
L 753.522002 406.404237 
L 753.522002 406.404237 
" clip-path="url(#p969d8b2bee)" style="fill: none; stroke: #9467bd; stroke-width: 1.5; stroke-linecap: square"/>
   </g>
   <g id="line2d_23">
    <path d="M 119.896128 443.343563 
L 137.152166 158.790678 
L 154.254643 133.644337 
L 171.683528 134.419133 
L 189.28383 136.445835 
L 206.65129 139.064331 
L 223.805192 135.147239 
L 240.52055 139.387521 
L 256.875218 135.428937 
L 272.89705 135.768162 
L 288.52962 138.251021 
L 303.753646 141.593813 
L 318.545556 142.516325 
L 332.954634 138.470769 
L 347.001592 137.602168 
L 360.600722 142.296839 
L 373.787021 142.495055 
L 386.49835 141.576136 
L 398.672571 144.714258 
L 410.377536 148.233665 
L 421.576819 151.057516 
L 432.23328 168.135805 
L 442.493338 158.180692 
L 452.329137 166.397588 
L 461.802816 164.751157 
L 470.770099 168.947656 
L 479.395976 174.500801 
L 487.739013 167.989139 
L 495.678505 178.449097 
L 503.326587 173.174708 
L 510.554696 184.130729 
L 517.364974 187.347738 
L 523.918126 187.767195 
L 530.142013 193.701193 
L 535.941642 201.78187 
L 541.462717 204.077827 
L 546.696668 207.122783 
L 551.632067 209.456935 
L 556.474614 219.809996 
L 561.1536 215.062258 
L 565.550461 215.914698 
L 569.746621 221.953448 
L 573.749222 231.542775 
L 577.560407 230.949509 
L 581.172319 239.456235 
L 584.695665 236.828261 
L 588.173299 237.58205 
L 591.63522 238.551333 
L 595.026432 239.081223 
L 598.368361 229.431838 
L 601.44245 248.44145 
L 604.541537 245.667175 
L 607.592056 245.447678 
L 610.535439 245.397315 
L 613.468109 237.594732 
L 616.293642 246.145276 
L 619.004897 244.215835 
L 621.723295 241.22001 
L 624.310986 247.353614 
L 626.840824 248.92864 
L 629.264241 250.624169 
L 631.644803 255.76933 
L 633.901087 259.058577 
L 636.115231 264.86605 
L 638.319375 257.490338 
L 640.526377 258.669525 
L 642.691238 256.111201 
L 644.738964 266.254904 
L 646.793119 263.374701 
L 648.872271 259.164083 
L 650.913569 253.539589 
L 652.853445 259.508839 
L 654.829747 260.428351 
L 656.768195 255.144792 
L 658.645217 260.104169 
L 660.473672 266.204084 
L 662.276413 259.163376 
L 664.0413 262.193654 
L 665.782618 264.569377 
L 667.474652 263.502355 
L 669.140974 268.219517 
L 670.823724 263.3121 
L 672.492188 261.008365 
L 674.147796 262.074896 
L 675.822689 261.576392 
L 677.398303 261.627087 
L 678.943918 265.986104 
L 680.535245 258.916839 
L 682.091574 260.545581 
L 683.625761 260.311087 
L 685.120666 268.195556 
L 686.609142 259.308582 
L 688.09119 258.69595 
L 689.546811 260.061219 
L 690.981719 264.734644 
L 692.382344 262.402476 
L 693.755113 264.973723 
L 695.148595 260.023617 
L 696.518508 260.56181 
L 697.855565 263.220337 
L 699.19905 258.367925 
L 700.531108 260.157031 
L 701.875308 255.914673 
L 703.188081 256.658608 
L 704.470856 256.711424 
L 705.725061 260.710004 
L 706.972838 258.712214 
L 708.200617 262.609941 
L 709.443395 254.123675 
L 710.654031 259.577827 
L 711.85324 261.038223 
L 713.021023 260.767336 
L 714.220232 253.44761 
L 716.515085 264.402684 
L 717.675011 251.149577 
L 719.894154 256.935768 
L 720.996227 250.945796 
L 722.067587 258.397236 
L 723.171087 252.718832 
L 724.222449 251.515591 
L 725.247383 259.828755 
L 726.27446 256.586028 
L 727.292252 254.436315 
L 728.307901 254.077018 
L 729.326408 249.621231 
L 730.325629 258.336414 
L 731.314138 247.074402 
L 732.275505 252.775388 
L 733.200445 259.808238 
L 734.148956 258.24391 
L 735.082468 255.299384 
L 736.027407 245.90768 
L 736.933064 258.975357 
L 737.848719 242.372146 
L 738.770089 254.122363 
L 739.674317 250.156823 
L 740.55426 251.460335 
L 741.427776 253.939293 
L 742.327004 240.76854 
L 743.180521 251.18833 
L 744.056893 239.90961 
L 744.890412 253.634101 
L 745.746785 240.933533 
L 747.405251 245.860738 
L 748.21877 245.518787 
L 749.037289 241.944033 
L 749.837238 246.447138 
L 750.6429 236.853067 
L 751.439278 240.453813 
L 752.233513 236.404961 
L 753.008463 243.706097 
L 753.779128 240.155247 
L 754.545508 233.97924 
L 755.306888 233.347323 
L 756.78965 236.607909 
L 757.52746 229.999501 
L 758.244557 238.246608 
L 758.951654 237.456061 
L 759.655181 237.451499 
L 760.352279 233.30111 
L 761.035092 238.334904 
L 761.717192 229.415586 
L 762.376435 234.253867 
L 763.037107 233.839531 
L 763.695636 229.935257 
L 764.327739 243.794359 
L 764.943414 243.104802 
L 765.577659 232.108294 
L 766.191191 233.953146 
L 766.798295 237.22451 
L 767.404685 232.270949 
L 768.003218 231.543311 
L 768.587466 238.130074 
L 769.159572 240.081002 
L 770.2895 235.426121 
L 770.833751 243.628282 
L 771.390858 233.273682 
L 771.937252 234.063932 
L 772.478646 237.783071 
L 773.012897 232.294443 
L 773.539292 235.080909 
L 774.066401 234.505126 
L 774.56994 236.909372 
L 775.082765 236.70266 
L 775.581304 237.088793 
L 776.081272 231.490826 
L 776.569098 231.58868 
L 777.06121 233.168723 
L 777.557606 233.101903 
L 778.036861 227.750839 
L 778.525402 236.862578 
L 779.0018 228.37524 
L 779.471055 227.670538 
L 779.923169 229.202225 
L 780.383854 227.647306 
L 780.830254 231.860308 
L 781.279511 224.456437 
L 781.714483 235.218748 
L 782.15017 227.212145 
L 782.571571 235.379373 
L 783.845775 221.651004 
L 784.267177 226.621319 
L 784.681436 225.411783 
L 785.077125 232.939441 
L 785.482813 229.931688 
L 786.281334 222.168189 
L 786.675594 220.480792 
L 787.066284 223.222175 
L 787.454116 224.039808 
L 787.83052 219.344441 
L 788.206925 223.158365 
L 788.582615 217.748578 
L 788.957591 221.488064 
L 789.328996 219.241398 
L 789.688259 218.537277 
L 790.041093 223.209972 
L 790.3875 222.768298 
L 790.740334 215.345097 
L 791.083169 221.659512 
L 791.408863 222.079711 
L 791.671703 270.382631 
L 791.935258 273.948559 
L 792.45951 265.977379 
L 792.709494 275.500376 
L 792.959478 275.693767 
L 793.125181 325.318709 
L 793.290171 337.505787 
L 793.449446 337.11093 
L 793.608008 342.579954 
L 793.715858 352.489881 
L 793.715858 352.489881 
" clip-path="url(#p969d8b2bee)" style="fill: none; stroke: #ff7f0e; stroke-width: 1.5; stroke-linecap: square"/>
   </g>
   <g id="line2d_24">
    <path d="M 124.163712 247.979168 
L 132.729342 -1 
M 584.701567 -1 
L 585.506327 4.687595 
L 585.85569 -1 
M 590.303026 -1 
L 590.508864 1.487374 
L 591.20187 -1 
M 605.47697 -1 
L 606.323566 14.127724 
L 606.934305 -1 
M 608.742919 -1 
L 609.363372 15.574297 
L 610.896131 9.824294 
L 611.832759 -1 
M 612.765157 -1 
L 613.874511 19.073005 
L 615.380844 12.819742 
L 616.843705 -1 
M 626.377263 -1 
L 627.025812 5.720744 
L 627.825315 -1 
M 632.584998 -1 
L 632.651167 -0.191687 
L 632.952926 -1 
M 634.651905 -1 
L 635.403133 2.52009 
L 636.795187 5.68799 
L 638.177956 8.53392 
L 639.545011 0.005787 
L 640.891354 3.814158 
L 641.628812 -1 
M 642.696068 -1 
L 643.571182 6.284837 
L 644.914668 2.883732 
L 645.512581 -1 
M 647.89728 -1 
L 648.880842 3.228453 
L 650.18433 12.529204 
L 651.008135 -1 
M 652.728828 -1 
L 652.779164 -0.686381 
L 654.064796 21.728521 
L 655.363999 1.383453 
L 656.647488 4.542469 
L 657.033483 -1 
M 659.968464 -1 
L 660.484385 8.074136 
L 661.18514 -1 
M 672.991751 -1 
L 673.915668 21.043652 
L 674.581658 -1 
M 675.655884 -1 
L 676.266232 16.994925 
L 676.890947 -1 
M 678.010241 -1 
L 678.568228 13.39265 
L 679.713155 -0.013772 
L 680.843082 10.90126 
L 681.411186 -1 
M 690.114512 -1 
L 690.681024 10.837496 
L 691.763098 3.02457 
L 692.471593 -1 
M 694.749016 -1 
L 694.91861 3.552235 
L 695.406654 -1 
M 701.576872 -1 
L 702.071009 7.919225 
L 702.359588 -1 
M 705.415679 -1 
L 706.043612 8.527374 
L 707.007836 4.80917 
L 707.225198 -1 
M 722.175504 -1 
L 722.386852 0.660868 
L 723.037467 -1 
M 725.205405 -1 
L 725.222385 -0.555215 
L 725.261927 -1 
M 730.532819 -1 
L 730.675607 1.290835 
L 730.900993 -1 
M 734.025837 -1 
L 734.160384 1.33537 
L 734.22472 -1 
M 742.690318 -1 
L 743.249802 19.762847 
L 743.622256 -1 
M 747.634502 -1 
L 747.857364 1.395497 
L 748.582318 -0.326423 
L 748.600226 -1 
M 761.468587 -1 
L 761.617912 4.443315 
L 761.736277 -1 
M 769.953977 -1 
L 769.971663 -0.474024 
L 769.998189 -1 
M 779.607117 -1 
L 779.963881 73.474505 
L 780.403139 55.755506 
L 780.833825 55.919131 
L 781.263798 60.505526 
L 781.688771 52.328261 
L 782.107315 66.169526 
L 782.525146 58.79833 
L 782.941548 62.057069 
L 783.762924 53.878926 
L 784.160041 52.421712 
L 784.553587 81.934392 
L 784.951419 76.371325 
L 785.342822 59.653211 
L 785.727798 58.675831 
L 786.503462 69.529311 
L 786.882724 54.526719 
L 787.259843 53.863701 
L 788.006938 67.485788 
L 788.379771 60.849015 
L 788.746176 59.212461 
L 789.105439 60.448604 
L 789.464701 59.386795 
L 789.821107 64.024591 
L 790.169656 62.514561 
L 790.521777 57.745975 
L 790.871754 62.676429 
L 791.217446 69.926563 
L 791.558139 66.895487 
L 791.901688 85.277778 
L 792.239524 65.707574 
L 792.574502 56.049043 
L 792.908052 61.846308 
L 793.23946 72.289056 
L 793.566582 60.856155 
L 793.888704 66.03309 
L 794.207255 68.596558 
L 794.518664 68.335867 
L 795.155052 51.673466 
L 795.467174 55.735753 
L 795.772155 63.569984 
L 796.075707 60.974788 
L 796.380687 80.989276 
L 796.982077 54.832653 
L 797.278487 63.952353 
L 797.574182 67.014644 
L 797.862021 60.069201 
L 798.152003 65.861516 
L 798.73268 53.550502 
L 799.011233 59.265664 
L 799.287644 56.564278 
L 799.569769 249.487395 
L 799.696904 249.851482 
L 799.824753 246.67309 
L 799.949745 248.044859 
L 800.328292 245.05443 
L 800.453284 247.317541 
L 800.578276 244.807025 
L 800.826117 246.237814 
L 800.908255 272.653133 
L 800.908255 272.653133 
" clip-path="url(#p969d8b2bee)" style="fill: none; stroke: #d62728; stroke-width: 1.5; stroke-linecap: square"/>
   </g>
   <g id="line2d_25">
    <path d="M 116.164224 446.455089 
L 123.877302 358.905298 
L 140.88907 143.642241 
L 158.020116 136.986479 
L 175.185446 135.524327 
L 192.193644 142.312224 
L 209.079706 135.78244 
L 225.616504 149.648704 
L 241.88832 135.293574 
L 257.805873 138.3158 
L 273.246313 144.612025 
L 288.457482 147.123556 
L 303.153684 141.02395 
L 317.609902 143.031126 
L 331.676859 141.859192 
L 345.38241 145.037493 
L 358.684416 145.876601 
L 371.63573 147.52066 
L 384.279921 150.094598 
L 396.534136 151.257887 
L 408.440517 144.173887 
L 420.010491 151.533633 
L 431.231201 156.864088 
L 442.182643 150.068059 
L 452.766966 152.474118 
L 462.977741 152.09833 
L 472.898534 150.426842 
L 482.511491 149.968643 
L 491.859464 150.918503 
L 500.934597 162.676122 
L 509.669038 153.565204 
L 518.171351 157.84311 
L 526.389396 158.465356 
L 534.341745 158.591915 
L 542.064822 160.611477 
L 549.525059 157.605354 
L 556.757453 163.380528 
L 563.747005 169.788315 
L 570.540142 162.85309 
L 577.131149 162.479047 
L 583.507884 163.4558 
L 589.701773 170.97836 
L 595.682104 166.027115 
L 601.512445 168.984448 
L 607.189225 170.438366 
L 612.733156 168.044487 
L 618.215662 168.495239 
L 623.458184 169.734416 
L 628.530716 160.174251 
L 633.4704 158.994972 
L 638.240809 157.720748 
L 642.899796 161.414056 
L 647.432364 162.933346 
L 651.840653 165.116487 
L 656.130378 157.807538 
L 660.294397 157.766937 
L 664.391992 157.438707 
L 668.387451 161.120063 
L 676.094815 164.821707 
L 679.818862 160.345483 
L 683.455058 167.1967 
L 686.99126 162.398016 
L 690.462467 166.847337 
L 693.853678 161.075937 
L 697.175608 160.887986 
L 700.404687 169.167689 
L 703.565914 160.730862 
L 706.670001 165.503155 
L 709.708378 160.866215 
L 712.683901 162.925169 
L 715.613714 160.978255 
L 718.482816 159.372129 
L 721.285494 160.67239 
L 724.036032 160.511662 
L 726.735145 155.327154 
L 729.360691 159.133609 
L 731.956954 158.263765 
L 734.495363 163.737521 
L 736.977347 158.071138 
L 739.425047 167.308695 
L 741.815608 155.535337 
L 744.164744 164.215143 
L 746.454597 160.111479 
L 748.704453 162.829768 
L 750.897884 167.021214 
L 753.052746 163.985028 
L 755.16404 159.57161 
L 757.223194 171.091405 
L 759.239493 158.49445 
L 761.224366 167.460424 
L 763.158528 162.688474 
L 765.039836 161.888244 
L 766.885432 156.0672 
L 768.695316 160.496562 
L 770.459489 155.06668 
L 772.181522 160.03038 
L 773.864986 160.063955 
L 775.504881 156.714445 
L 777.107635 159.538958 
L 778.66325 156.307146 
L 780.184581 160.284365 
L 781.671629 162.004505 
L 783.124393 164.104448 
L 784.52716 160.520011 
L 785.901358 159.815011 
L 788.527619 160.646113 
L 789.798252 157.464585 
L 791.027459 157.962564 
L 792.221668 156.575512 
L 793.386593 160.958844 
L 794.517949 160.270371 
L 795.612879 168.544006 
L 796.685668 159.38992 
L 797.722744 153.517885 
L 798.739822 161.428243 
L 799.723331 163.273711 
L 800.681841 162.685257 
L 801.612495 164.201514 
L 802.515295 162.543211 
L 803.387382 158.629106 
L 804.233042 163.61898 
L 805.053704 161.369508 
L 805.848653 164.419049 
L 806.612175 168.992522 
L 807.362127 158.720356 
L 808.085652 157.092606 
L 808.78775 161.016062 
L 809.469135 173.398892 
L 810.129093 163.910156 
L 810.762624 162.31938 
L 812.555366 164.10276 
L 813.117473 162.439381 
L 813.662438 156.989244 
L 814.187405 164.335042 
L 814.694515 157.482525 
L 815.184484 160.073193 
L 815.659453 163.432933 
L 816.11871 171.190262 
L 816.562967 164.872561 
L 816.988654 166.274382 
L 817.402199 165.962233 
L 817.805745 159.700108 
L 818.19072 167.718355 
L 818.562839 158.026226 
L 818.926387 165.009727 
L 819.277079 160.749327 
L 819.610629 165.558412 
L 819.938465 163.294753 
L 820.257016 159.81305 
L 820.561283 159.49822 
L 820.851978 161.243132 
L 821.139817 169.912605 
L 821.414799 154.525591 
L 821.681211 161.381096 
L 821.936195 163.563883 
L 822.422592 157.846543 
L 822.654006 166.003222 
L 822.88042 168.555662 
L 823.095406 159.245935 
L 823.302536 160.265273 
L 823.503237 165.231881 
L 823.696796 161.703669 
L 823.883927 160.670257 
L 824.061059 156.944914 
L 824.235333 159.567288 
L 824.40318 156.976379 
L 824.567455 164.633996 
L 824.724588 156.525662 
L 825.164559 167.060538 
L 825.300265 160.588736 
L 825.432399 162.098731 
L 825.560248 156.858077 
L 825.80309 163.778225 
L 825.918083 156.441985 
L 826.02879 156.760726 
L 826.13664 159.410244 
L 826.238776 157.624651 
L 826.338056 175.160318 
L 826.433764 156.410542 
L 826.525901 157.35779 
L 826.614467 162.489882 
L 826.700175 156.530577 
L 826.783741 164.004188 
L 826.864451 156.664184 
L 826.942303 159.45089 
L 827.018012 157.096255 
L 827.162289 163.020981 
L 827.230856 154.036051 
L 827.297994 164.944822 
L 827.361562 159.300518 
L 827.483697 154.105232 
L 827.540836 164.41045 
L 827.597261 154.260212 
L 827.650829 161.358925 
L 827.702254 160.264771 
L 827.751537 162.884898 
L 827.801533 158.794305 
L 827.848673 165.05522 
L 827.894385 161.253442 
L 827.980808 155.624489 
L 828.021519 163.05256 
L 828.061517 158.471868 
L 828.173652 154.126981 
L 828.207936 154.852532 
L 828.275075 162.275118 
L 828.337928 158.189862 
L 828.367926 157.323222 
L 828.477204 165.70226 
L 828.61791 152.659149 
L 828.735759 162.481488 
L 828.862894 153.97954 
L 828.977172 165.681515 
L 829.046454 154.60896 
L 829.080737 154.658012 
L 829.088594 165.500373 
L 829.096451 153.164006 
L 829.191444 162.696046 
L 829.270725 152.860353 
L 829.291438 166.693292 
L 829.302152 157.751986 
L 829.37929 154.354416 
L 829.396431 193.111861 
L 829.397146 429.354606 
L 829.397146 429.354606 
" clip-path="url(#p969d8b2bee)" style="fill: none; stroke: #1f77b4; stroke-width: 1.5; stroke-linecap: square"/>
   </g>
   <g id="patch_3">
    <path d="M 115.2 461.376 
L 115.2 62.208 
" style="fill: none; stroke: #000000; stroke-width: 0.8; stroke-linejoin: miter; stroke-linecap: square"/>
   </g>
   <g id="patch_4">
    <path d="M 829.44 461.376 
L 829.44 62.208 
" style="fill: none; stroke: #000000; stroke-width: 0.8; stroke-linejoin: miter; stroke-linecap: square"/>
   </g>
   <g id="patch_5">
    <path d="M 115.2 461.376 
L 829.44 461.376 
" style="fill: none; stroke: #000000; stroke-width: 0.8; stroke-linejoin: miter; stroke-linecap: square"/>
   </g>
   <g id="patch_6">
    <path d="M 115.2 62.208 
L 829.44 62.208 
" style="fill: none; stroke: #000000; stroke-width: 0.8; stroke-linejoin: miter; stroke-linecap: square"/>
   </g>
   <g id="legend_1">
    <g id="patch_7">
     <path d="M 128.5 345.234656 
L 263.18625 345.234656 
Q 266.98625 345.234656 266.98625 341.434656 
L 266.98625 182.149344 
Q 266.98625 178.349344 263.18625 178.349344 
L 128.5 178.349344 
Q 124.7 178.349344 124.7 182.149344 
L 124.7 341.434656 
Q 124.7 345.234656 128.5 345.234656 
z
" style="fill: #ffffff; opacity: 0.8; stroke: #cccccc; stroke-linejoin: miter"/>
    </g>
    <g id="line2d_26">
     <path d="M 132.3 192.599344 
L 151.3 192.599344 
L 170.3 192.599344 
" style="fill: none; stroke: #ff0000; stroke-width: 1.5; stroke-linecap: square"/>
    </g>
    <g id="text_22">
     <!-- MemC3-t -->
     <g transform="translate(185.5 199.249344) scale(0.19 -0.19)">
      <defs>
       <path id="TimesNewRomanPSMT-4d" d="M 2619 0 
L 981 3566 
L 981 734 
Q 981 344 1066 247 
Q 1181 116 1431 116 
L 1581 116 
L 1581 0 
L 106 0 
L 106 116 
L 256 116 
Q 525 116 638 278 
Q 706 378 706 734 
L 706 3503 
Q 706 3784 644 3909 
Q 600 4000 483 4061 
Q 366 4122 106 4122 
L 106 4238 
L 1306 4238 
L 2844 922 
L 4356 4238 
L 5556 4238 
L 5556 4122 
L 5409 4122 
Q 5138 4122 5025 3959 
Q 4956 3859 4956 3503 
L 4956 734 
Q 4956 344 5044 247 
Q 5159 116 5409 116 
L 5556 116 
L 5556 0 
L 3756 0 
L 3756 116 
L 3906 116 
Q 4178 116 4288 278 
Q 4356 378 4356 734 
L 4356 3566 
L 2722 0 
L 2619 0 
z
" transform="scale(0.015625)"/>
       <path id="TimesNewRomanPSMT-65" d="M 681 1784 
Q 678 1147 991 784 
Q 1303 422 1725 422 
Q 2006 422 2214 576 
Q 2422 731 2563 1106 
L 2659 1044 
Q 2594 616 2278 264 
Q 1963 -88 1488 -88 
Q 972 -88 605 314 
Q 238 716 238 1394 
Q 238 2128 614 2539 
Q 991 2950 1559 2950 
Q 2041 2950 2350 2633 
Q 2659 2316 2659 1784 
L 681 1784 
z
M 681 1966 
L 2006 1966 
Q 1991 2241 1941 2353 
Q 1863 2528 1708 2628 
Q 1553 2728 1384 2728 
Q 1125 2728 920 2526 
Q 716 2325 681 1966 
z
" transform="scale(0.015625)"/>
       <path id="TimesNewRomanPSMT-6d" d="M 1050 2338 
Q 1363 2650 1419 2697 
Q 1559 2816 1721 2881 
Q 1884 2947 2044 2947 
Q 2313 2947 2506 2790 
Q 2700 2634 2766 2338 
Q 3088 2713 3309 2830 
Q 3531 2947 3766 2947 
Q 3994 2947 4170 2830 
Q 4347 2713 4450 2447 
Q 4519 2266 4519 1878 
L 4519 647 
Q 4519 378 4559 278 
Q 4591 209 4675 161 
Q 4759 113 4950 113 
L 4950 0 
L 3538 0 
L 3538 113 
L 3597 113 
Q 3781 113 3884 184 
Q 3956 234 3988 344 
Q 4000 397 4000 647 
L 4000 1878 
Q 4000 2228 3916 2372 
Q 3794 2572 3525 2572 
Q 3359 2572 3192 2489 
Q 3025 2406 2788 2181 
L 2781 2147 
L 2788 2013 
L 2788 647 
Q 2788 353 2820 281 
Q 2853 209 2943 161 
Q 3034 113 3253 113 
L 3253 0 
L 1806 0 
L 1806 113 
Q 2044 113 2133 169 
Q 2222 225 2256 338 
Q 2272 391 2272 647 
L 2272 1878 
Q 2272 2228 2169 2381 
Q 2031 2581 1784 2581 
Q 1616 2581 1450 2491 
Q 1191 2353 1050 2181 
L 1050 647 
Q 1050 366 1089 281 
Q 1128 197 1204 155 
Q 1281 113 1516 113 
L 1516 0 
L 100 0 
L 100 113 
Q 297 113 375 155 
Q 453 197 493 289 
Q 534 381 534 647 
L 534 1741 
Q 534 2213 506 2350 
Q 484 2453 437 2492 
Q 391 2531 309 2531 
Q 222 2531 100 2484 
L 53 2597 
L 916 2947 
L 1050 2947 
L 1050 2338 
z
" transform="scale(0.015625)"/>
       <path id="TimesNewRomanPSMT-43" d="M 3853 4334 
L 3950 2894 
L 3853 2894 
Q 3659 3541 3300 3825 
Q 2941 4109 2438 4109 
Q 2016 4109 1675 3895 
Q 1334 3681 1139 3212 
Q 944 2744 944 2047 
Q 944 1472 1128 1050 
Q 1313 628 1683 403 
Q 2053 178 2528 178 
Q 2941 178 3256 354 
Q 3572 531 3950 1056 
L 4047 994 
Q 3728 428 3303 165 
Q 2878 -97 2294 -97 
Q 1241 -97 663 684 
Q 231 1266 231 2053 
Q 231 2688 515 3219 
Q 800 3750 1298 4042 
Q 1797 4334 2388 4334 
Q 2847 4334 3294 4109 
Q 3425 4041 3481 4041 
Q 3566 4041 3628 4100 
Q 3709 4184 3744 4334 
L 3853 4334 
z
" transform="scale(0.015625)"/>
       <path id="TimesNewRomanPSMT-33" d="M 325 3431 
Q 506 3859 782 4092 
Q 1059 4325 1472 4325 
Q 1981 4325 2253 3994 
Q 2459 3747 2459 3466 
Q 2459 3003 1878 2509 
Q 2269 2356 2469 2072 
Q 2669 1788 2669 1403 
Q 2669 853 2319 450 
Q 1863 -75 997 -75 
Q 569 -75 414 31 
Q 259 138 259 259 
Q 259 350 332 419 
Q 406 488 509 488 
Q 588 488 669 463 
Q 722 447 909 348 
Q 1097 250 1169 231 
Q 1284 197 1416 197 
Q 1734 197 1970 444 
Q 2206 691 2206 1028 
Q 2206 1275 2097 1509 
Q 2016 1684 1919 1775 
Q 1784 1900 1550 2001 
Q 1316 2103 1072 2103 
L 972 2103 
L 972 2197 
Q 1219 2228 1467 2375 
Q 1716 2522 1828 2728 
Q 1941 2934 1941 3181 
Q 1941 3503 1739 3701 
Q 1538 3900 1238 3900 
Q 753 3900 428 3381 
L 325 3431 
z
" transform="scale(0.015625)"/>
       <path id="TimesNewRomanPSMT-2d" d="M 259 1672 
L 1875 1672 
L 1875 1200 
L 259 1200 
L 259 1672 
z
" transform="scale(0.015625)"/>
       <path id="TimesNewRomanPSMT-74" d="M 1031 3803 
L 1031 2863 
L 1700 2863 
L 1700 2644 
L 1031 2644 
L 1031 788 
Q 1031 509 1111 412 
Q 1191 316 1316 316 
Q 1419 316 1516 380 
Q 1613 444 1666 569 
L 1788 569 
Q 1678 263 1478 108 
Q 1278 -47 1066 -47 
Q 922 -47 784 33 
Q 647 113 581 261 
Q 516 409 516 719 
L 516 2644 
L 63 2644 
L 63 2747 
Q 234 2816 414 2980 
Q 594 3144 734 3369 
Q 806 3488 934 3803 
L 1031 3803 
z
" transform="scale(0.015625)"/>
      </defs>
      <use xlink:href="#TimesNewRomanPSMT-4d"/>
      <use xlink:href="#TimesNewRomanPSMT-65" x="88.916016"/>
      <use xlink:href="#TimesNewRomanPSMT-6d" x="133.300781"/>
      <use xlink:href="#TimesNewRomanPSMT-43" x="211.083984"/>
      <use xlink:href="#TimesNewRomanPSMT-33" x="277.783203"/>
      <use xlink:href="#TimesNewRomanPSMT-2d" x="327.783203"/>
      <use xlink:href="#TimesNewRomanPSMT-74" x="361.083984"/>
     </g>
    </g>
    <g id="line2d_27">
     <path d="M 132.3 219.463562 
L 151.3 219.463562 
L 170.3 219.463562 
" style="fill: none; stroke: #0000ff; stroke-width: 1.5; stroke-linecap: square"/>
    </g>
    <g id="text_23">
     <!-- caleKV -->
     <g transform="translate(185.5 226.113562) scale(0.19 -0.19)">
      <defs>
       <path id="TimesNewRomanPSMT-63" d="M 2631 1088 
Q 2516 522 2178 217 
Q 1841 -88 1431 -88 
Q 944 -88 581 321 
Q 219 731 219 1428 
Q 219 2103 620 2525 
Q 1022 2947 1584 2947 
Q 2006 2947 2278 2723 
Q 2550 2500 2550 2259 
Q 2550 2141 2473 2067 
Q 2397 1994 2259 1994 
Q 2075 1994 1981 2113 
Q 1928 2178 1911 2362 
Q 1894 2547 1784 2644 
Q 1675 2738 1481 2738 
Q 1169 2738 978 2506 
Q 725 2200 725 1697 
Q 725 1184 976 792 
Q 1228 400 1656 400 
Q 1963 400 2206 609 
Q 2378 753 2541 1131 
L 2631 1088 
z
" transform="scale(0.015625)"/>
       <path id="TimesNewRomanPSMT-61" d="M 1822 413 
Q 1381 72 1269 19 
Q 1100 -59 909 -59 
Q 613 -59 420 144 
Q 228 347 228 678 
Q 228 888 322 1041 
Q 450 1253 767 1440 
Q 1084 1628 1822 1897 
L 1822 2009 
Q 1822 2438 1686 2597 
Q 1550 2756 1291 2756 
Q 1094 2756 978 2650 
Q 859 2544 859 2406 
L 866 2225 
Q 866 2081 792 2003 
Q 719 1925 600 1925 
Q 484 1925 411 2006 
Q 338 2088 338 2228 
Q 338 2497 613 2722 
Q 888 2947 1384 2947 
Q 1766 2947 2009 2819 
Q 2194 2722 2281 2516 
Q 2338 2381 2338 1966 
L 2338 994 
Q 2338 584 2353 492 
Q 2369 400 2405 369 
Q 2441 338 2488 338 
Q 2538 338 2575 359 
Q 2641 400 2828 588 
L 2828 413 
Q 2478 -56 2159 -56 
Q 2006 -56 1915 50 
Q 1825 156 1822 413 
z
M 1822 616 
L 1822 1706 
Q 1350 1519 1213 1441 
Q 966 1303 859 1153 
Q 753 1003 753 825 
Q 753 600 887 451 
Q 1022 303 1197 303 
Q 1434 303 1822 616 
z
" transform="scale(0.015625)"/>
       <path id="TimesNewRomanPSMT-6c" d="M 1184 4444 
L 1184 647 
Q 1184 378 1223 290 
Q 1263 203 1344 158 
Q 1425 113 1647 113 
L 1647 0 
L 244 0 
L 244 113 
Q 441 113 512 153 
Q 584 194 625 287 
Q 666 381 666 647 
L 666 3247 
Q 666 3731 644 3842 
Q 622 3953 573 3993 
Q 525 4034 450 4034 
Q 369 4034 244 3984 
L 191 4094 
L 1044 4444 
L 1184 4444 
z
" transform="scale(0.015625)"/>
       <path id="TimesNewRomanPSMT-4b" d="M 1913 2350 
L 3475 797 
Q 3859 413 4131 273 
Q 4403 134 4675 116 
L 4675 0 
L 2659 0 
L 2659 116 
Q 2841 116 2920 177 
Q 3000 238 3000 313 
Q 3000 388 2970 447 
Q 2941 506 2775 669 
L 1313 2116 
L 1313 750 
Q 1313 428 1353 325 
Q 1384 247 1484 191 
Q 1619 116 1769 116 
L 1913 116 
L 1913 0 
L 106 0 
L 106 116 
L 256 116 
Q 519 116 638 269 
Q 713 369 713 750 
L 713 3488 
Q 713 3809 672 3916 
Q 641 3991 544 4047 
Q 406 4122 256 4122 
L 106 4122 
L 106 4238 
L 1913 4238 
L 1913 4122 
L 1769 4122 
Q 1622 4122 1484 4050 
Q 1388 4000 1350 3900 
Q 1313 3800 1313 3488 
L 1313 2191 
Q 1375 2250 1741 2588 
Q 2669 3438 2863 3722 
Q 2947 3847 2947 3941 
Q 2947 4013 2881 4067 
Q 2816 4122 2659 4122 
L 2563 4122 
L 2563 4238 
L 4119 4238 
L 4119 4122 
Q 3981 4119 3868 4084 
Q 3756 4050 3593 3951 
Q 3431 3853 3194 3634 
Q 3125 3572 2559 2994 
L 1913 2350 
z
" transform="scale(0.015625)"/>
       <path id="TimesNewRomanPSMT-56" d="M 4544 4238 
L 4544 4122 
Q 4319 4081 4203 3978 
Q 4038 3825 3909 3509 
L 2431 -97 
L 2316 -97 
L 728 3556 
Q 606 3838 556 3900 
Q 478 3997 364 4051 
Q 250 4106 56 4122 
L 56 4238 
L 1788 4238 
L 1788 4122 
Q 1494 4094 1406 4022 
Q 1319 3950 1319 3838 
Q 1319 3681 1463 3350 
L 2541 866 
L 3541 3319 
Q 3688 3681 3688 3822 
Q 3688 3913 3597 3995 
Q 3506 4078 3291 4113 
Q 3275 4116 3238 4122 
L 3238 4238 
L 4544 4238 
z
" transform="scale(0.015625)"/>
      </defs>
      <use xlink:href="#TimesNewRomanPSMT-63"/>
      <use xlink:href="#TimesNewRomanPSMT-61" x="44.384766"/>
      <use xlink:href="#TimesNewRomanPSMT-6c" x="88.769531"/>
      <use xlink:href="#TimesNewRomanPSMT-65" x="116.552734"/>
      <use xlink:href="#TimesNewRomanPSMT-4b" x="160.9375"/>
      <use xlink:href="#TimesNewRomanPSMT-56" x="233.154297"/>
     </g>
    </g>
    <g id="line2d_28">
     <path d="M 132.3 246.327781 
L 151.3 246.327781 
L 170.3 246.327781 
" style="fill: none; stroke: #9467bd; stroke-width: 1.5; stroke-linecap: square"/>
    </g>
    <g id="text_24">
     <!-- MICA-t -->
     <g transform="translate(185.5 252.977781) scale(0.19 -0.19)">
      <defs>
       <path id="TimesNewRomanPSMT-49" d="M 1975 116 
L 1975 0 
L 159 0 
L 159 116 
L 309 116 
Q 572 116 691 269 
Q 766 369 766 750 
L 766 3488 
Q 766 3809 725 3913 
Q 694 3991 597 4047 
Q 459 4122 309 4122 
L 159 4122 
L 159 4238 
L 1975 4238 
L 1975 4122 
L 1822 4122 
Q 1563 4122 1444 3969 
Q 1366 3869 1366 3488 
L 1366 750 
Q 1366 428 1406 325 
Q 1438 247 1538 191 
Q 1672 116 1822 116 
L 1975 116 
z
" transform="scale(0.015625)"/>
       <path id="TimesNewRomanPSMT-41" d="M 2928 1419 
L 1288 1419 
L 1000 750 
Q 894 503 894 381 
Q 894 284 986 211 
Q 1078 138 1384 116 
L 1384 0 
L 50 0 
L 50 116 
Q 316 163 394 238 
Q 553 388 747 847 
L 2238 4334 
L 2347 4334 
L 3822 809 
Q 4000 384 4145 257 
Q 4291 131 4550 116 
L 4550 0 
L 2878 0 
L 2878 116 
Q 3131 128 3220 200 
Q 3309 272 3309 375 
Q 3309 513 3184 809 
L 2928 1419 
z
M 2841 1650 
L 2122 3363 
L 1384 1650 
L 2841 1650 
z
" transform="scale(0.015625)"/>
      </defs>
      <use xlink:href="#TimesNewRomanPSMT-4d"/>
      <use xlink:href="#TimesNewRomanPSMT-49" x="88.916016"/>
      <use xlink:href="#TimesNewRomanPSMT-43" x="122.216797"/>
      <use xlink:href="#TimesNewRomanPSMT-41" x="188.916016"/>
      <use xlink:href="#TimesNewRomanPSMT-2d" x="261.132812"/>
      <use xlink:href="#TimesNewRomanPSMT-74" x="294.433594"/>
     </g>
    </g>
    <g id="line2d_29">
     <path d="M 132.3 273.192 
L 151.3 273.192 
L 170.3 273.192 
" style="fill: none; stroke: #ff7f0e; stroke-width: 1.5; stroke-linecap: square"/>
    </g>
    <g id="text_25">
     <!-- MICA-t -->
     <g transform="translate(185.5 279.842) scale(0.19 -0.19)">
      <use xlink:href="#TimesNewRomanPSMT-4d"/>
      <use xlink:href="#TimesNewRomanPSMT-49" x="88.916016"/>
      <use xlink:href="#TimesNewRomanPSMT-43" x="122.216797"/>
      <use xlink:href="#TimesNewRomanPSMT-41" x="188.916016"/>
      <use xlink:href="#TimesNewRomanPSMT-2d" x="261.132812"/>
      <use xlink:href="#TimesNewRomanPSMT-74" x="294.433594"/>
     </g>
    </g>
    <g id="line2d_30">
     <path d="M 132.3 300.056219 
L 151.3 300.056219 
L 170.3 300.056219 
" style="fill: none; stroke: #d62728; stroke-width: 1.5; stroke-linecap: square"/>
    </g>
    <g id="text_26">
     <!-- MICA-t -->
     <g transform="translate(185.5 306.706219) scale(0.19 -0.19)">
      <use xlink:href="#TimesNewRomanPSMT-4d"/>
      <use xlink:href="#TimesNewRomanPSMT-49" x="88.916016"/>
      <use xlink:href="#TimesNewRomanPSMT-43" x="122.216797"/>
      <use xlink:href="#TimesNewRomanPSMT-41" x="188.916016"/>
      <use xlink:href="#TimesNewRomanPSMT-2d" x="261.132812"/>
      <use xlink:href="#TimesNewRomanPSMT-74" x="294.433594"/>
     </g>
    </g>
    <g id="line2d_31">
     <path d="M 132.3 326.920437 
L 151.3 326.920437 
L 170.3 326.920437 
" style="fill: none; stroke: #1f77b4; stroke-width: 1.5; stroke-linecap: square"/>
    </g>
    <g id="text_27">
     <!-- caleKV -->
     <g transform="translate(185.5 333.570437) scale(0.19 -0.19)">
      <use xlink:href="#TimesNewRomanPSMT-63"/>
      <use xlink:href="#TimesNewRomanPSMT-61" x="44.384766"/>
      <use xlink:href="#TimesNewRomanPSMT-6c" x="88.769531"/>
      <use xlink:href="#TimesNewRomanPSMT-65" x="116.552734"/>
      <use xlink:href="#TimesNewRomanPSMT-4b" x="160.9375"/>
      <use xlink:href="#TimesNewRomanPSMT-56" x="233.154297"/>
     </g>
    </g>
   </g>
  </g>
 </g>
 <defs>
  <clipPath id="p969d8b2bee">
   <rect x="115.2" y="62.208" width="714.24" height="399.168"/>
  </clipPath>
 </defs>
</svg>
