<?xml version="1.0" encoding="utf-8" standalone="no"?>
<!DOCTYPE svg PUBLIC "-//W3C//DTD SVG 1.1//EN"
  "http://www.w3.org/Graphics/SVG/1.1/DTD/svg11.dtd">
<svg xmlns:xlink="http://www.w3.org/1999/xlink" width="921.6pt" height="518.4pt" viewBox="0 0 921.6 518.4" xmlns="http://www.w3.org/2000/svg" version="1.1">
 <metadata>
  <rdf:RDF xmlns:dc="http://purl.org/dc/elements/1.1/" xmlns:cc="http://creativecommons.org/ns#" xmlns:rdf="http://www.w3.org/1999/02/22-rdf-syntax-ns#">
   <cc:Work>
    <dc:type rdf:resource="http://purl.org/dc/dcmitype/StillImage"/>
    <dc:date>2023-08-26T17:28:03.853506</dc:date>
    <dc:format>image/svg+xml</dc:format>
    <dc:creator>
     <cc:Agent>
      <dc:title>Matplotlib v3.7.1, https://matplotlib.org/</dc:title>
     </cc:Agent>
    </dc:creator>
   </cc:Work>
  </rdf:RDF>
 </metadata>
 <defs>
  <style type="text/css">*{stroke-linejoin: round; stroke-linecap: butt}</style>
 </defs>
 <g id="figure_1">
  <g id="patch_1">
   <path d="M 0 518.4 
L 921.6 518.4 
L 921.6 0 
L 0 0 
z
" style="fill: #ffffff"/>
  </g>
  <g id="axes_1">
   <g id="patch_2">
    <path d="M 115.2 461.376 
L 829.44 461.376 
L 829.44 62.208 
L 115.2 62.208 
z
" style="fill: #ffffff"/>
   </g>
   <g id="matplotlib.axis_1">
    <g id="xtick_1">
     <g id="line2d_1">
      <defs>
       <path id="md609d09a87" d="M 0 0 
L 0 3.5 
" style="stroke: #000000; stroke-width: 0.8"/>
      </defs>
      <g>
       <use xlink:href="#md609d09a87" x="115.2" y="461.376" style="stroke: #000000; stroke-width: 0.8"/>
      </g>
     </g>
     <g id="text_1">
      <!-- 0 -->
      <g transform="translate(110.45 481.958031) scale(0.19 -0.19)">
       <defs>
        <path id="SimSun-30" d="M 1600 4225 
Q 1250 4225 1012 3687 
Q 775 3150 775 2250 
Q 775 1300 1012 775 
Q 1250 250 1600 250 
Q 1975 250 2187 775 
Q 2400 1300 2400 2250 
Q 2400 3150 2200 3687 
Q 2000 4225 1600 4225 
z
M 1600 50 
Q 1050 50 675 625 
Q 300 1200 300 2250 
Q 300 3225 662 3825 
Q 1025 4425 1600 4425 
Q 2150 4425 2512 3850 
Q 2875 3275 2875 2250 
Q 2875 1225 2512 637 
Q 2150 50 1600 50 
z
" transform="scale(0.015625)"/>
       </defs>
       <use xlink:href="#SimSun-30"/>
      </g>
     </g>
    </g>
    <g id="xtick_2">
     <g id="line2d_2">
      <g>
       <use xlink:href="#md609d09a87" x="234.24" y="461.376" style="stroke: #000000; stroke-width: 0.8"/>
      </g>
     </g>
     <g id="text_2">
      <!-- 100 -->
      <g transform="translate(219.99 481.958031) scale(0.19 -0.19)">
       <defs>
        <path id="SimSun-31" d="M 1825 4450 
L 1825 650 
Q 1825 450 1950 350 
Q 2075 250 2300 250 
L 2550 250 
L 2550 100 
L 725 100 
L 725 250 
L 950 250 
Q 1200 250 1312 350 
Q 1425 450 1425 650 
L 1425 3675 
Q 1425 3775 1362 3837 
Q 1300 3900 1175 3900 
L 725 3900 
L 725 4050 
L 950 4050 
Q 1250 4050 1437 4150 
Q 1625 4250 1725 4450 
L 1825 4450 
z
" transform="scale(0.015625)"/>
       </defs>
       <use xlink:href="#SimSun-31"/>
       <use xlink:href="#SimSun-30" x="50"/>
       <use xlink:href="#SimSun-30" x="100"/>
      </g>
     </g>
    </g>
    <g id="xtick_3">
     <g id="line2d_3">
      <g>
       <use xlink:href="#md609d09a87" x="353.28" y="461.376" style="stroke: #000000; stroke-width: 0.8"/>
      </g>
     </g>
     <g id="text_3">
      <!-- 200 -->
      <g transform="translate(339.03 481.958031) scale(0.19 -0.19)">
       <defs>
        <path id="SimSun-32" d="M 2325 3325 
Q 2325 3775 2125 4012 
Q 1925 4250 1525 4250 
Q 1225 4250 1012 4087 
Q 800 3925 800 3675 
Q 800 3525 900 3425 
Q 975 3325 975 3225 
Q 975 3100 912 3037 
Q 850 2975 725 2975 
Q 575 2975 487 3062 
Q 400 3150 400 3350 
Q 400 3875 775 4150 
Q 1150 4425 1575 4425 
Q 2175 4425 2462 4125 
Q 2750 3825 2750 3375 
Q 2750 3075 2612 2775 
Q 2475 2475 2175 2200 
Q 1450 1500 1062 1062 
Q 675 625 600 475 
L 2075 475 
Q 2300 475 2450 650 
Q 2600 825 2650 1175 
L 2800 1175 
L 2650 100 
L 325 100 
L 325 425 
Q 450 650 737 1000 
Q 1025 1350 1500 1825 
Q 1925 2250 2125 2625 
Q 2325 3000 2325 3325 
z
" transform="scale(0.015625)"/>
       </defs>
       <use xlink:href="#SimSun-32"/>
       <use xlink:href="#SimSun-30" x="50"/>
       <use xlink:href="#SimSun-30" x="100"/>
      </g>
     </g>
    </g>
    <g id="xtick_4">
     <g id="line2d_4">
      <g>
       <use xlink:href="#md609d09a87" x="472.32" y="461.376" style="stroke: #000000; stroke-width: 0.8"/>
      </g>
     </g>
     <g id="text_4">
      <!-- 300 -->
      <g transform="translate(458.07 481.958031) scale(0.19 -0.19)">
       <defs>
        <path id="SimSun-33" d="M 2800 1250 
Q 2800 775 2450 412 
Q 2100 50 1475 50 
Q 1025 50 700 300 
Q 375 550 375 875 
Q 375 1025 475 1137 
Q 575 1250 675 1250 
Q 825 1250 887 1137 
Q 950 1025 950 950 
Q 950 825 900 750 
Q 850 650 850 575 
Q 850 425 1037 325 
Q 1225 225 1450 225 
Q 1900 225 2125 487 
Q 2350 750 2350 1300 
Q 2350 1750 2112 2025 
Q 1875 2300 1225 2300 
L 1225 2475 
Q 1725 2475 1962 2712 
Q 2200 2950 2200 3375 
Q 2200 3725 2012 3987 
Q 1825 4250 1425 4250 
Q 1250 4250 1050 4162 
Q 850 4075 850 3875 
Q 850 3675 900 3625 
Q 950 3575 950 3500 
Q 950 3375 900 3300 
Q 850 3225 725 3225 
Q 625 3225 537 3300 
Q 450 3375 450 3575 
Q 450 3950 775 4187 
Q 1100 4425 1525 4425 
Q 2025 4425 2325 4112 
Q 2625 3800 2625 3450 
Q 2625 3075 2437 2812 
Q 2250 2550 1850 2425 
Q 2400 2225 2600 1900 
Q 2800 1575 2800 1250 
z
" transform="scale(0.015625)"/>
       </defs>
       <use xlink:href="#SimSun-33"/>
       <use xlink:href="#SimSun-30" x="50"/>
       <use xlink:href="#SimSun-30" x="100"/>
      </g>
     </g>
    </g>
    <g id="xtick_5">
     <g id="line2d_5">
      <g>
       <use xlink:href="#md609d09a87" x="591.36" y="461.376" style="stroke: #000000; stroke-width: 0.8"/>
      </g>
     </g>
     <g id="text_5">
      <!-- 400 -->
      <g transform="translate(577.11 481.958031) scale(0.19 -0.19)">
       <defs>
        <path id="SimSun-34" d="M 2300 575 
Q 2300 400 2400 325 
Q 2500 250 2675 250 
L 2900 250 
L 2900 100 
L 1250 100 
L 1250 250 
L 1525 250 
Q 1725 250 1812 325 
Q 1900 400 1900 575 
L 1900 1400 
L 225 1400 
L 225 1525 
L 2050 4425 
L 2300 4425 
L 2300 1550 
L 2975 1550 
L 2975 1400 
L 2300 1400 
L 2300 575 
z
M 1875 3800 
L 450 1550 
L 1900 1550 
L 1900 3800 
L 1875 3800 
z
" transform="scale(0.015625)"/>
       </defs>
       <use xlink:href="#SimSun-34"/>
       <use xlink:href="#SimSun-30" x="50"/>
       <use xlink:href="#SimSun-30" x="100"/>
      </g>
     </g>
    </g>
    <g id="xtick_6">
     <g id="line2d_6">
      <g>
       <use xlink:href="#md609d09a87" x="710.4" y="461.376" style="stroke: #000000; stroke-width: 0.8"/>
      </g>
     </g>
     <g id="text_6">
      <!-- 500 -->
      <g transform="translate(696.15 481.958031) scale(0.19 -0.19)">
       <defs>
        <path id="SimSun-35" d="M 1725 2850 
Q 2200 2850 2500 2487 
Q 2800 2125 2800 1525 
Q 2800 850 2487 450 
Q 2175 50 1525 50 
Q 1075 50 725 312 
Q 375 575 375 950 
Q 375 1100 462 1212 
Q 550 1325 700 1325 
Q 850 1325 900 1225 
Q 950 1125 950 1050 
Q 950 900 875 825 
Q 800 725 800 625 
Q 800 425 1037 325 
Q 1275 225 1550 225 
Q 1950 225 2162 550 
Q 2375 875 2375 1475 
Q 2375 1975 2187 2287 
Q 2000 2600 1625 2600 
Q 1350 2600 1150 2500 
Q 950 2400 775 2075 
L 550 2100 
L 675 4375 
L 2725 4375 
L 2650 4000 
L 850 4000 
L 750 2350 
Q 1000 2700 1237 2775 
Q 1475 2850 1725 2850 
z
" transform="scale(0.015625)"/>
       </defs>
       <use xlink:href="#SimSun-35"/>
       <use xlink:href="#SimSun-30" x="50"/>
       <use xlink:href="#SimSun-30" x="100"/>
      </g>
     </g>
    </g>
    <g id="xtick_7">
     <g id="line2d_7">
      <g>
       <use xlink:href="#md609d09a87" x="829.44" y="461.376" style="stroke: #000000; stroke-width: 0.8"/>
      </g>
     </g>
     <g id="text_7">
      <!-- 600 -->
      <g transform="translate(815.19 481.958031) scale(0.19 -0.19)">
       <defs>
        <path id="SimSun-36" d="M 775 1800 
Q 775 1050 1037 637 
Q 1300 225 1675 225 
Q 2050 225 2250 500 
Q 2450 775 2450 1525 
Q 2450 2025 2237 2300 
Q 2025 2575 1725 2575 
Q 1450 2575 1212 2412 
Q 975 2250 775 1800 
z
M 1750 2825 
Q 2350 2825 2612 2425 
Q 2875 2025 2875 1525 
Q 2875 775 2512 412 
Q 2150 50 1675 50 
Q 1000 50 650 562 
Q 300 1075 300 2050 
Q 300 3200 725 3812 
Q 1150 4425 1875 4425 
Q 2225 4425 2437 4225 
Q 2650 4025 2650 3875 
Q 2650 3725 2587 3650 
Q 2525 3575 2375 3575 
Q 2250 3575 2187 3637 
Q 2125 3700 2125 3825 
Q 2125 3875 2150 3925 
Q 2150 3975 2150 4025 
Q 2150 4125 2075 4187 
Q 2000 4250 1800 4250 
Q 1375 4250 1075 3862 
Q 775 3475 775 2175 
Q 925 2500 1187 2662 
Q 1450 2825 1750 2825 
z
" transform="scale(0.015625)"/>
       </defs>
       <use xlink:href="#SimSun-36"/>
       <use xlink:href="#SimSun-30" x="50"/>
       <use xlink:href="#SimSun-30" x="100"/>
      </g>
     </g>
    </g>
    <g id="text_8">
     <!-- 请求数 $\mathrm{(M)}$ -->
     <g transform="translate(424.25 504.17725) scale(0.19 -0.19)">
      <defs>
       <path id="SimSun-8bf7" d="M 3800 4400 
Q 3800 4925 3775 5250 
L 4350 5000 
L 4150 4825 
L 4150 4400 
L 5175 4400 
L 5525 4725 
L 5950 4250 
L 4150 4250 
L 4150 3725 
L 4875 3725 
L 5200 4025 
L 5600 3575 
L 4150 3575 
L 4150 2950 
L 5325 2950 
L 5675 3275 
L 6100 2800 
L 2650 2800 
Q 2450 2800 2175 2725 
L 1950 2950 
L 3800 2950 
L 3800 3575 
L 3225 3575 
Q 3025 3575 2750 3500 
L 2525 3725 
L 3800 3725 
L 3800 4250 
L 2850 4250 
Q 2650 4250 2375 4175 
L 2150 4400 
L 3800 4400 
z
M 3075 2150 
L 3075 1650 
L 4975 1650 
L 4975 2150 
L 3075 2150 
z
M 3075 1500 
L 3075 925 
L 4975 925 
L 4975 1500 
L 3075 1500 
z
M 2725 2500 
L 3050 2300 
L 4925 2300 
L 5075 2525 
L 5475 2225 
L 5300 2075 
L 5300 50 
Q 5325 -425 4750 -600 
Q 4750 -275 4075 -125 
L 4075 -25 
Q 4500 -50 4750 -62 
Q 5000 -75 4975 175 
L 4975 775 
L 3075 775 
L 3075 -450 
L 2725 -625 
Q 2750 125 2750 1000 
Q 2750 1875 2725 2500 
z
M 850 5000 
L 925 5050 
Q 1375 4750 1512 4562 
Q 1650 4375 1600 4200 
Q 1550 4025 1450 3950 
L 1325 3875 
Q 1225 3875 1200 4150 
Q 1150 4500 850 5000 
z
M 200 3075 
L 1100 3075 
L 1300 3325 
L 1725 3000 
L 1500 2825 
L 1500 600 
L 2400 1425 
L 2475 1350 
Q 1775 525 1400 -150 
L 1050 250 
Q 1150 400 1150 600 
L 1150 2925 
L 900 2925 
Q 700 2925 425 2850 
L 200 3075 
z
" transform="scale(0.015625)"/>
       <path id="SimSun-6c42" d="M 3950 5025 
Q 4500 4825 4737 4687 
Q 4975 4550 4975 4350 
Q 4975 4300 4912 4125 
Q 4850 3950 4800 3950 
Q 4725 3950 4625 4150 
Q 4425 4475 3900 4950 
L 3950 5025 
z
M 2900 5225 
L 3500 4900 
L 3300 4700 
L 3300 3775 
L 5050 3775 
L 5400 4150 
L 5900 3625 
L 3325 3625 
Q 3650 2575 4000 2000 
Q 4725 2575 5100 3125 
L 5525 2650 
Q 5250 2600 4950 2425 
Q 4650 2225 4050 1875 
Q 4900 650 6100 375 
L 6100 275 
Q 5675 225 5525 -75 
Q 3750 900 3300 3325 
L 3300 175 
Q 3325 -425 2675 -600 
Q 2650 -250 1925 -25 
L 1925 75 
Q 2475 25 2687 25 
Q 2900 25 2925 250 
L 2925 1700 
Q 1950 1075 1387 700 
Q 825 325 700 100 
L 300 600 
Q 575 650 1225 975 
Q 1875 1300 2925 1850 
L 2925 3625 
L 1275 3625 
Q 950 3625 675 3550 
L 450 3775 
L 2925 3775 
Q 2925 4850 2900 5225 
z
M 1050 3175 
Q 1775 2900 1975 2712 
Q 2175 2525 2175 2350 
Q 2175 2250 2075 2075 
Q 1975 1900 1925 1900 
Q 1850 1900 1750 2175 
Q 1575 2575 1000 3100 
L 1050 3175 
z
" transform="scale(0.015625)"/>
       <path id="SimSun-6570" d="M 1875 1525 
Q 1675 1200 1500 900 
Q 1825 825 2275 725 
Q 2500 975 2725 1525 
L 1875 1525 
z
M 850 4900 
Q 1325 4600 1425 4450 
Q 1525 4300 1525 4225 
Q 1525 4100 1437 3975 
Q 1350 3850 1300 3850 
Q 1225 3850 1150 4100 
Q 1050 4450 775 4850 
L 850 4900 
z
M 3000 4975 
L 3450 4675 
Q 3250 4625 3100 4425 
Q 2925 4225 2525 3825 
L 2450 3875 
Q 2925 4625 3000 4975 
z
M 1875 5250 
L 2425 5000 
L 2225 4825 
L 2225 3675 
L 2850 3675 
L 3125 3950 
L 3550 3525 
L 2225 3525 
L 2225 3300 
Q 2800 3175 2937 3062 
Q 3075 2950 3075 2775 
Q 3075 2700 3050 2587 
Q 3025 2475 2975 2475 
Q 2925 2475 2800 2650 
Q 2600 2925 2225 3175 
L 2225 2400 
L 1925 2200 
L 2275 2050 
Q 2150 2000 1950 1675 
L 2725 1675 
L 2900 1900 
L 3275 1575 
L 3050 1450 
Q 2800 875 2600 650 
Q 3000 550 3137 437 
Q 3275 325 3275 150 
Q 3275 -25 3200 -25 
Q 3125 -25 3025 75 
Q 2750 275 2400 425 
Q 1525 -275 325 -500 
L 300 -425 
Q 1450 -50 2100 550 
Q 1600 725 1125 800 
Q 1225 950 1525 1525 
L 1200 1525 
Q 875 1525 600 1450 
L 375 1675 
L 1575 1675 
Q 1675 1925 1775 2275 
L 1900 2225 
L 1900 3250 
Q 1225 2475 350 2050 
L 300 2125 
Q 1225 2775 1700 3525 
L 1250 3525 
Q 925 3525 650 3450 
L 425 3675 
L 1900 3675 
Q 1900 4575 1875 5250 
z
M 3925 3525 
Q 4050 2075 4525 1100 
Q 4925 1950 5025 3525 
L 3925 3525 
z
M 4050 5250 
L 4625 4925 
Q 4425 4850 4325 4625 
Q 4225 4400 3950 3675 
L 5375 3675 
L 5675 3975 
L 6125 3525 
L 5400 3525 
Q 5250 1675 4750 775 
Q 5325 75 6100 -100 
L 6100 -200 
Q 5625 -275 5600 -500 
Q 4950 -50 4525 525 
Q 3700 -275 2550 -650 
L 2500 -575 
Q 3650 -50 4325 800 
Q 3850 1975 3825 3375 
Q 3575 2725 3100 2150 
L 3025 2200 
Q 3625 3200 4050 5250 
z
" transform="scale(0.015625)"/>
       <path id="SimSun-20" d="M 0 0 
Q 0 0 0 0 
z
" transform="scale(0.015625)"/>
       <path id="STIXGeneral-Regular-28" d="M 1946 -1030 
L 1869 -1133 
Q 1126 -710 716 32 
Q 307 774 307 1613 
Q 307 3386 1888 4326 
L 1946 4224 
Q 1293 3667 1075 3126 
Q 858 2586 858 1632 
Q 858 685 1082 96 
Q 1306 -493 1946 -1030 
z
" transform="scale(0.015625)"/>
       <path id="STIXGeneral-Regular-4d" d="M 5530 0 
L 3738 0 
L 3738 122 
Q 4115 147 4214 265 
Q 4314 384 4314 787 
L 4314 3661 
L 2682 0 
L 2592 0 
L 979 3514 
L 979 966 
Q 979 448 1088 294 
Q 1197 141 1574 122 
L 1574 0 
L 77 0 
L 77 122 
Q 358 141 480 205 
Q 602 269 650 432 
Q 698 595 698 966 
L 698 3514 
Q 698 3878 589 3984 
Q 480 4090 90 4115 
L 90 4237 
L 1357 4237 
L 2835 1024 
L 4250 4237 
L 5523 4237 
L 5523 4115 
Q 5178 4109 5072 3993 
Q 4966 3878 4966 3520 
L 4966 717 
Q 4966 378 5072 262 
Q 5178 147 5530 122 
L 5530 0 
z
" transform="scale(0.015625)"/>
       <path id="STIXGeneral-Regular-29" d="M 186 4224 
L 262 4326 
Q 992 3891 1408 3148 
Q 1824 2406 1824 1581 
Q 1824 -166 243 -1133 
L 186 -1030 
Q 845 -486 1059 54 
Q 1274 595 1274 1562 
Q 1274 2534 1059 3120 
Q 845 3706 186 4224 
z
" transform="scale(0.015625)"/>
      </defs>
      <use xlink:href="#SimSun-8bf7" transform="translate(0 0.96875)"/>
      <use xlink:href="#SimSun-6c42" transform="translate(100 0.96875)"/>
      <use xlink:href="#SimSun-6570" transform="translate(200 0.96875)"/>
      <use xlink:href="#SimSun-20" transform="translate(300 0.96875)"/>
      <use xlink:href="#STIXGeneral-Regular-28" transform="translate(350 0.96875)"/>
      <use xlink:href="#STIXGeneral-Regular-4d" transform="translate(383.299988 0.96875)"/>
      <use xlink:href="#STIXGeneral-Regular-29" transform="translate(472.199982 0.96875)"/>
     </g>
    </g>
   </g>
   <g id="matplotlib.axis_2">
    <g id="ytick_1">
     <g id="line2d_8">
      <defs>
       <path id="mb148d6e665" d="M 0 0 
L -3.5 0 
" style="stroke: #000000; stroke-width: 0.8"/>
      </defs>
      <g>
       <use xlink:href="#mb148d6e665" x="115.2" y="461.376" style="stroke: #000000; stroke-width: 0.8"/>
      </g>
     </g>
     <g id="text_9">
      <!-- 0 -->
      <g transform="translate(98.7 468.167016) scale(0.19 -0.19)">
       <use xlink:href="#SimSun-30"/>
      </g>
     </g>
    </g>
    <g id="ytick_2">
     <g id="line2d_9">
      <g>
       <use xlink:href="#mb148d6e665" x="115.2" y="404.352" style="stroke: #000000; stroke-width: 0.8"/>
      </g>
     </g>
     <g id="text_10">
      <!-- 0.5 -->
      <g transform="translate(79.7 411.143016) scale(0.19 -0.19)">
       <defs>
        <path id="SimSun-2e" d="M 800 25 
Q 650 25 537 125 
Q 425 225 425 400 
Q 425 575 537 675 
Q 650 775 800 775 
Q 950 775 1062 662 
Q 1175 550 1175 400 
Q 1175 225 1062 125 
Q 950 25 800 25 
z
" transform="scale(0.015625)"/>
       </defs>
       <use xlink:href="#SimSun-30"/>
       <use xlink:href="#SimSun-2e" x="50"/>
       <use xlink:href="#SimSun-35" x="100"/>
      </g>
     </g>
    </g>
    <g id="ytick_3">
     <g id="line2d_10">
      <g>
       <use xlink:href="#mb148d6e665" x="115.2" y="347.328" style="stroke: #000000; stroke-width: 0.8"/>
      </g>
     </g>
     <g id="text_11">
      <!-- 1.0 -->
      <g transform="translate(79.7 354.119016) scale(0.19 -0.19)">
       <use xlink:href="#SimSun-31"/>
       <use xlink:href="#SimSun-2e" x="50"/>
       <use xlink:href="#SimSun-30" x="100"/>
      </g>
     </g>
    </g>
    <g id="ytick_4">
     <g id="line2d_11">
      <g>
       <use xlink:href="#mb148d6e665" x="115.2" y="290.304" style="stroke: #000000; stroke-width: 0.8"/>
      </g>
     </g>
     <g id="text_12">
      <!-- 1.5 -->
      <g transform="translate(79.7 297.095016) scale(0.19 -0.19)">
       <use xlink:href="#SimSun-31"/>
       <use xlink:href="#SimSun-2e" x="50"/>
       <use xlink:href="#SimSun-35" x="100"/>
      </g>
     </g>
    </g>
    <g id="ytick_5">
     <g id="line2d_12">
      <g>
       <use xlink:href="#mb148d6e665" x="115.2" y="233.28" style="stroke: #000000; stroke-width: 0.8"/>
      </g>
     </g>
     <g id="text_13">
      <!-- 2.0 -->
      <g transform="translate(79.7 240.071016) scale(0.19 -0.19)">
       <use xlink:href="#SimSun-32"/>
       <use xlink:href="#SimSun-2e" x="50"/>
       <use xlink:href="#SimSun-30" x="100"/>
      </g>
     </g>
    </g>
    <g id="ytick_6">
     <g id="line2d_13">
      <g>
       <use xlink:href="#mb148d6e665" x="115.2" y="176.256" style="stroke: #000000; stroke-width: 0.8"/>
      </g>
     </g>
     <g id="text_14">
      <!-- 2.5 -->
      <g transform="translate(79.7 183.047016) scale(0.19 -0.19)">
       <use xlink:href="#SimSun-32"/>
       <use xlink:href="#SimSun-2e" x="50"/>
       <use xlink:href="#SimSun-35" x="100"/>
      </g>
     </g>
    </g>
    <g id="ytick_7">
     <g id="line2d_14">
      <g>
       <use xlink:href="#mb148d6e665" x="115.2" y="119.232" style="stroke: #000000; stroke-width: 0.8"/>
      </g>
     </g>
     <g id="text_15">
      <!-- 3.0 -->
      <g transform="translate(79.7 126.023016) scale(0.19 -0.19)">
       <use xlink:href="#SimSun-33"/>
       <use xlink:href="#SimSun-2e" x="50"/>
       <use xlink:href="#SimSun-30" x="100"/>
      </g>
     </g>
    </g>
    <g id="ytick_8">
     <g id="line2d_15">
      <g>
       <use xlink:href="#mb148d6e665" x="115.2" y="62.208" style="stroke: #000000; stroke-width: 0.8"/>
      </g>
     </g>
     <g id="text_16">
      <!-- 3.5 -->
      <g transform="translate(79.7 68.999016) scale(0.19 -0.19)">
       <use xlink:href="#SimSun-33"/>
       <use xlink:href="#SimSun-2e" x="50"/>
       <use xlink:href="#SimSun-35" x="100"/>
      </g>
     </g>
    </g>
    <g id="text_17">
     <!-- 吞吐量 $\mathrm{(Mops)}$ -->
     <g transform="translate(71.52 323.067) rotate(-90) scale(0.19 -0.19)">
      <defs>
       <path id="SimSun-541e" d="M 2200 1700 
L 2200 75 
L 4200 75 
L 4200 1700 
L 2200 1700 
z
M 1025 4675 
L 4550 4675 
L 4875 5000 
L 5350 4525 
L 3300 4525 
Q 3150 4025 2900 3375 
L 5075 3375 
L 5450 3750 
L 5975 3225 
L 3700 3225 
Q 3925 2925 4312 2587 
Q 4700 2250 5225 2037 
Q 5750 1825 6100 1800 
L 6100 1700 
Q 5700 1675 5575 1375 
Q 4600 1900 4137 2437 
Q 3675 2975 3575 3225 
L 2825 3225 
Q 2425 2575 1950 2075 
L 2200 1850 
L 4175 1850 
L 4325 2100 
L 4750 1775 
L 4550 1600 
L 4550 375 
Q 4550 -50 4575 -375 
L 4200 -500 
L 4200 -75 
L 2200 -75 
L 2200 -450 
L 1825 -575 
Q 1850 175 1850 625 
L 1850 2000 
Q 1175 1400 375 1075 
L 325 1150 
Q 1075 1575 1600 2100 
Q 2125 2625 2450 3225 
L 1225 3225 
Q 900 3225 625 3150 
L 400 3375 
L 2525 3375 
Q 2800 4025 2900 4525 
L 1850 4525 
Q 1525 4525 1250 4450 
L 1025 4675 
z
" transform="scale(0.015625)"/>
       <path id="SimSun-5410" d="M 3775 3000 
L 3775 3750 
Q 3775 4400 3750 5175 
L 4350 4900 
L 4125 4700 
L 4125 3000 
L 4925 3000 
L 5250 3325 
L 5725 2850 
L 4125 2850 
L 4125 75 
L 5225 75 
L 5575 425 
L 6075 -75 
L 2675 -75 
Q 2350 -75 2075 -150 
L 1850 75 
L 3775 75 
L 3775 2850 
L 3225 2850 
Q 2900 2850 2625 2775 
L 2400 3000 
L 3775 3000 
z
M 575 4250 
L 950 4025 
L 1875 4025 
L 2050 4275 
L 2450 3950 
L 2250 3800 
L 2250 1950 
Q 2250 1375 2275 950 
L 1900 775 
L 1900 1225 
L 950 1225 
L 950 600 
L 575 425 
Q 600 1075 600 2375 
Q 600 3675 575 4250 
z
M 950 3875 
L 950 1375 
L 1900 1375 
L 1900 3875 
L 950 3875 
z
" transform="scale(0.015625)"/>
       <path id="SimSun-91cf" d="M 1700 2400 
L 1700 1875 
L 3025 1875 
L 3025 2400 
L 1700 2400 
z
M 3350 2400 
L 3350 1875 
L 4625 1875 
L 4625 2400 
L 3350 2400 
z
M 1700 1725 
L 1700 1225 
L 3025 1225 
L 3025 1725 
L 1700 1725 
z
M 3350 1725 
L 3350 1225 
L 4625 1225 
L 4625 1725 
L 3350 1725 
z
M 4950 2325 
Q 4950 1350 4975 1025 
L 4625 875 
L 4625 1075 
L 3350 1075 
L 3350 525 
L 4700 525 
L 5050 825 
L 5450 375 
L 3350 375 
L 3350 -225 
L 5275 -225 
L 5650 125 
L 6075 -375 
L 1175 -375 
Q 850 -375 575 -450 
L 350 -225 
L 3025 -225 
L 3025 375 
L 1725 375 
Q 1400 375 1125 300 
L 900 525 
L 3025 525 
L 3025 1075 
L 1700 1075 
L 1700 925 
L 1350 800 
Q 1375 1300 1375 1787 
Q 1375 2275 1350 2750 
L 1700 2550 
L 4600 2550 
L 4750 2750 
L 5125 2475 
L 4950 2325 
z
M 1775 4800 
L 1775 4375 
L 4550 4375 
L 4550 4800 
L 1775 4800 
z
M 1775 4225 
L 1775 3775 
L 4550 3775 
L 4550 4225 
L 1775 4225 
z
M 4875 4750 
Q 4875 3825 4900 3525 
L 4550 3375 
L 4550 3625 
L 1775 3625 
L 1775 3400 
L 1425 3250 
Q 1450 3650 1450 4262 
Q 1450 4875 1425 5125 
L 1800 4950 
L 4500 4950 
L 4650 5175 
L 5050 4900 
L 4875 4750 
z
M 250 3125 
L 5375 3125 
L 5725 3450 
L 6150 2975 
L 950 2975 
Q 750 2975 475 2900 
L 250 3125 
z
" transform="scale(0.015625)"/>
       <path id="STIXGeneral-Regular-6f" d="M 3008 1478 
Q 3008 806 2608 371 
Q 2208 -64 1568 -64 
Q 979 -64 582 368 
Q 186 800 186 1459 
Q 186 2125 582 2534 
Q 979 2944 1626 2944 
Q 2221 2944 2614 2537 
Q 3008 2131 3008 1478 
z
M 2432 1306 
Q 2432 2035 2112 2445 
Q 1856 2765 1504 2765 
Q 1171 2765 966 2493 
Q 762 2221 762 1747 
Q 762 928 1101 435 
Q 1318 115 1677 115 
Q 2029 115 2230 432 
Q 2432 749 2432 1306 
z
" transform="scale(0.015625)"/>
       <path id="STIXGeneral-Regular-70" d="M 1018 2931 
L 1018 2438 
Q 1421 2944 1939 2944 
Q 2406 2944 2707 2560 
Q 3008 2176 3008 1581 
Q 3008 883 2621 409 
Q 2234 -64 1664 -64 
Q 1466 -64 1328 -6 
Q 1190 51 1018 211 
L 1018 -794 
Q 1018 -1094 1120 -1180 
Q 1222 -1267 1581 -1274 
L 1581 -1389 
L 32 -1389 
L 32 -1280 
Q 314 -1254 397 -1171 
Q 480 -1088 480 -838 
L 480 2157 
Q 480 2381 429 2451 
Q 378 2522 218 2522 
Q 115 2522 58 2515 
L 58 2618 
Q 506 2752 979 2944 
L 1018 2931 
z
M 1018 2138 
L 1018 563 
Q 1018 422 1238 281 
Q 1459 141 1683 141 
Q 2029 141 2243 467 
Q 2458 794 2458 1325 
Q 2458 1888 2243 2224 
Q 2029 2560 1670 2560 
Q 1446 2560 1232 2419 
Q 1018 2278 1018 2138 
z
" transform="scale(0.015625)"/>
       <path id="STIXGeneral-Regular-73" d="M 998 1926 
L 1664 1523 
Q 1984 1331 2105 1164 
Q 2227 998 2227 736 
Q 2227 416 1961 176 
Q 1696 -64 1331 -64 
Q 1030 -64 864 -6 
Q 691 51 570 51 
Q 461 51 416 -26 
L 333 -26 
L 333 979 
L 435 979 
Q 538 512 730 294 
Q 922 77 1248 77 
Q 1485 77 1632 211 
Q 1779 346 1779 550 
Q 1779 845 1440 1030 
L 1094 1222 
Q 326 1651 326 2150 
Q 326 2522 566 2730 
Q 806 2938 1210 2938 
Q 1491 2938 1638 2867 
Q 1754 2816 1818 2816 
Q 1862 2816 1920 2880 
L 1990 2880 
L 2022 2010 
L 1926 2010 
Q 1818 2445 1654 2621 
Q 1491 2797 1203 2797 
Q 986 2797 854 2688 
Q 723 2579 723 2362 
Q 723 2253 796 2128 
Q 870 2003 998 1926 
z
" transform="scale(0.015625)"/>
      </defs>
      <use xlink:href="#SimSun-541e" transform="translate(0 0.140625)"/>
      <use xlink:href="#SimSun-5410" transform="translate(100 0.140625)"/>
      <use xlink:href="#SimSun-91cf" transform="translate(200 0.140625)"/>
      <use xlink:href="#SimSun-20" transform="translate(300 0.140625)"/>
      <use xlink:href="#STIXGeneral-Regular-28" transform="translate(350 0.140625)"/>
      <use xlink:href="#STIXGeneral-Regular-4d" transform="translate(383.299988 0.140625)"/>
      <use xlink:href="#STIXGeneral-Regular-6f" transform="translate(472.199982 0.140625)"/>
      <use xlink:href="#STIXGeneral-Regular-70" transform="translate(522.199966 0.140625)"/>
      <use xlink:href="#STIXGeneral-Regular-73" transform="translate(572.199951 0.140625)"/>
      <use xlink:href="#STIXGeneral-Regular-29" transform="translate(611.099945 0.140625)"/>
     </g>
    </g>
   </g>
   <g id="line2d_16">
    <path d="M 115.332708 448.66332 
L 115.47857 447.403637 
L 115.994975 411.908638 
L 117.126459 352.989377 
L 118.145159 363.793269 
L 119.211278 359.251296 
L 120.344843 352.790375 
L 122.399292 366.050861 
L 124.324101 370.287311 
L 125.243455 373.309834 
L 126.124701 376.960294 
L 126.980347 379.412257 
L 127.837645 379.254187 
L 128.683855 380.320786 
L 129.489339 384.217601 
L 130.29703 384.006202 
L 131.100347 384.425191 
L 131.869643 387.683896 
L 132.653057 386.327603 
L 133.425141 387.417058 
L 134.164462 390.555112 
L 134.899111 391.003012 
L 135.639417 390.46117 
L 136.378408 390.582985 
L 137.105272 391.748863 
L 137.831849 391.776338 
L 138.544996 393.062628 
L 139.248516 393.984889 
L 139.953238 393.873338 
L 140.649926 394.639307 
L 141.350825 394.236079 
L 142.050964 394.308671 
L 142.740831 395.292723 
L 143.433886 394.987279 
L 144.114322 396.196108 
L 144.797687 395.911946 
L 145.4804 395.977455 
L 146.839409 396.366028 
L 147.51882 396.295524 
L 148.18883 397.194804 
L 148.85779 397.295485 
L 149.522298 397.721831 
L 150.190412 397.379892 
L 150.851837 398.017124 
L 151.511065 398.227611 
L 152.174213 397.852359 
L 152.830407 398.518228 
L 153.487055 398.474776 
L 154.137614 399.058109 
L 154.793337 398.563391 
L 155.451348 398.347852 
L 156.095425 399.678883 
L 156.747212 398.940354 
L 157.393217 399.494388 
L 158.038271 399.585432 
L 158.683755 399.544261 
L 159.319401 400.486799 
L 159.955966 400.398515 
L 160.586502 400.979395 
L 161.225663 400.149936 
L 161.863576 400.269504 
L 162.495147 400.877174 
L 163.765894 400.410832 
L 164.397225 400.899858 
L 165.031917 400.578049 
L 165.663312 400.897201 
L 166.923728 401.064395 
L 167.55196 401.196851 
L 168.173934 401.796196 
L 168.798812 401.518055 
L 169.41922 401.946431 
L 170.045354 401.401658 
L 170.661085 402.447068 
L 171.282988 401.803096 
L 171.900178 402.254817 
L 172.51926 402.073526 
L 173.13198 402.682645 
L 173.743309 402.815967 
L 174.359367 402.362969 
L 174.962588 403.595805 
L 175.571023 403.093389 
L 176.180239 403.018585 
L 177.390098 403.586111 
L 177.998547 403.092557 
L 178.60089 403.677064 
L 179.205905 403.424596 
L 181.009796 403.854203 
L 181.60879 403.998862 
L 182.211953 403.598428 
L 182.815853 403.527912 
L 183.412485 404.223821 
L 184.011109 404.036224 
L 184.603479 404.63217 
L 185.201374 404.103067 
L 186.388866 404.661481 
L 186.987659 404.016927 
L 187.584642 404.190246 
L 188.172872 405.028715 
L 188.766384 404.525775 
L 189.357264 404.774993 
L 189.940029 405.552218 
L 190.538076 404.090659 
L 191.126624 404.99815 
L 191.708736 405.61515 
L 192.296629 405.061447 
L 192.882618 405.246501 
L 193.464007 405.681036 
L 194.046174 405.609687 
L 194.635457 404.927965 
L 195.798669 405.879707 
L 196.383556 405.348905 
L 196.960256 406.133259 
L 197.539707 405.872682 
L 198.124003 405.405689 
L 198.702723 405.939639 
L 199.285023 405.596857 
L 199.865164 405.803603 
L 200.441382 406.179391 
L 201.017668 406.172833 
L 201.596039 405.97309 
L 202.748143 406.250705 
L 203.324725 406.144549 
L 203.901188 406.155897 
L 205.043101 406.843789 
L 205.617582 406.345696 
L 206.18614 406.916267 
L 206.754272 406.953823 
L 207.898679 406.435383 
L 209.032224 407.285577 
L 209.606168 406.397234 
L 210.739364 407.288063 
L 211.307109 406.990934 
L 211.870512 407.407084 
L 212.435461 407.258844 
L 212.998624 407.42995 
L 213.562297 407.380978 
L 214.121851 407.775846 
L 215.238724 407.904173 
L 215.798909 407.715355 
L 216.357834 407.835904 
L 217.480231 407.582797 
L 219.151234 408.193638 
L 220.264517 407.995252 
L 220.818234 408.334933 
L 223.022489 408.670245 
L 223.578499 408.11831 
L 224.135525 408.018096 
L 225.79043 408.830323 
L 226.339378 408.791478 
L 226.887091 408.90694 
L 227.441153 408.301973 
L 227.986855 409.10568 
L 228.531193 409.233323 
L 229.071397 409.629081 
L 229.614322 409.369815 
L 230.157264 409.36709 
L 230.698808 409.500845 
L 231.245474 409.010234 
L 231.78917 409.297486 
L 232.328219 409.740209 
L 232.873702 409.12086 
L 233.41286 409.726683 
L 233.952617 409.66942 
L 234.495928 409.328975 
L 235.034994 409.738259 
L 235.571711 409.963287 
L 236.104801 410.31354 
L 236.646978 409.440445 
L 237.714261 410.480039 
L 238.248304 410.219291 
L 238.778761 410.562929 
L 239.31199 410.297505 
L 239.844698 410.34983 
L 240.374297 410.645397 
L 240.903383 410.694061 
L 241.430718 410.939127 
L 242.485721 410.798928 
L 243.01089 411.067192 
L 243.539504 410.736863 
L 244.066213 410.922282 
L 244.589027 411.292688 
L 246.160233 411.105809 
L 246.682499 411.348046 
L 247.199799 411.820262 
L 247.714495 412.072822 
L 248.232151 411.792355 
L 249.264362 411.9568 
L 249.77962 412.018911 
L 250.299392 411.586384 
L 250.81086 412.382017 
L 251.321539 412.457551 
L 251.835895 412.107846 
L 252.346886 412.425047 
L 252.856307 412.578191 
L 253.368354 412.326578 
L 254.377752 413.233169 
L 254.881205 413.150438 
L 255.382597 413.347365 
L 256.383854 413.45303 
L 256.876657 414.169948 
L 258.362505 413.798128 
L 258.850869 414.595301 
L 259.33746 414.765004 
L 260.801352 414.642289 
L 261.28864 414.698435 
L 261.778279 414.47303 
L 262.257627 415.458872 
L 262.737286 415.429003 
L 263.212242 415.881933 
L 263.690073 415.604147 
L 264.164634 415.917391 
L 265.110529 416.10175 
L 266.035211 417.446797 
L 266.500993 416.756032 
L 267.421917 417.433682 
L 267.878897 417.598983 
L 268.337876 417.410028 
L 268.788745 418.186946 
L 269.244441 417.724596 
L 269.691463 418.555321 
L 270.139743 418.43719 
L 270.581847 419.026511 
L 271.896656 419.59723 
L 272.326829 420.169214 
L 273.176211 420.840798 
L 273.591875 421.561159 
L 274.012725 421.060078 
L 274.429885 421.415873 
L 274.839753 422.114337 
L 275.247513 422.316214 
L 275.654762 422.365129 
L 276.059598 422.596464 
L 276.854134 423.601238 
L 277.24756 423.689842 
L 278.391926 425.333034 
L 278.770524 425.109968 
L 279.140364 425.946784 
L 279.50646 426.309354 
L 280.222833 427.244604 
L 281.266509 428.440295 
L 281.607619 428.700655 
L 281.940759 429.46261 
L 282.270519 429.789483 
L 282.912282 430.859527 
L 283.226399 431.28634 
L 283.539086 431.423323 
L 283.841325 432.424071 
L 284.139486 432.815393 
L 284.431335 433.420839 
L 284.726072 433.143167 
L 285.009612 434.215309 
L 285.28786 434.722481 
L 285.563873 434.936423 
L 285.839985 434.925463 
L 286.375896 436.029254 
L 286.633807 436.672131 
L 286.892884 436.558836 
L 287.144916 437.233681 
L 287.39563 437.359875 
L 287.646585 437.336757 
L 287.896217 437.463601 
L 288.134423 438.55796 
L 288.375068 438.324846 
L 288.608894 438.97882 
L 289.069507 439.457206 
L 289.511367 440.355049 
L 289.726994 440.720881 
L 289.942318 440.749883 
L 289.942318 440.749883 
" clip-path="url(#pb081da2e6b)" style="fill: none; stroke: #ff0000; stroke-width: 1.5; stroke-linecap: square"/>
   </g>
   <g id="line2d_17">
    <path d="M 115.328706 449.121177 
L 117.147961 295.291809 
L 119.730295 214.237474 
L 122.404434 213.767231 
L 125.121948 217.296298 
L 127.96542 212.515235 
L 130.792714 217.410643 
L 133.699798 213.679243 
L 136.590464 217.787549 
L 139.534021 215.289886 
L 142.454416 218.080538 
L 145.411 217.334482 
L 148.290407 224.351 
L 151.20767 222.992973 
L 154.229658 214.94537 
L 157.243002 216.036798 
L 160.195921 221.149273 
L 163.150355 221.82048 
L 166.134532 220.466513 
L 169.156099 216.672764 
L 172.153793 218.5705 
L 175.144676 220.040384 
L 181.080013 223.236317 
L 183.988621 226.314188 
L 186.931092 224.105876 
L 189.864819 224.457304 
L 192.832435 222.23493 
L 195.753967 225.246014 
L 198.686098 224.702803 
L 201.57004 228.042152 
L 204.421912 229.378372 
L 207.307449 226.936228 
L 210.164622 229.57344 
L 212.986539 230.832165 
L 215.779571 232.887458 
L 218.597417 231.224809 
L 221.294635 240.85898 
L 224.067874 234.540721 
L 226.788675 237.921012 
L 229.545718 234.002483 
L 232.308108 233.107263 
L 235.052103 234.416716 
L 237.761088 236.91536 
L 240.442291 238.828469 
L 243.146883 235.426817 
L 248.627754 231.080128 
L 251.353228 232.970804 
L 253.986522 239.278172 
L 256.683008 233.296605 
L 259.378931 233.763735 
L 262.095321 231.223156 
L 264.768183 235.324139 
L 267.470566 231.1377 
L 270.107634 235.661254 
L 272.769815 233.245204 
L 275.448299 232.038485 
L 278.039232 238.018945 
L 280.680147 233.173821 
L 283.345671 231.590675 
L 286.001781 231.446245 
L 288.676635 229.515914 
L 291.301062 232.973314 
L 293.94782 230.403447 
L 296.554852 232.772589 
L 299.184573 230.345556 
L 301.771763 233.447719 
L 304.342073 234.700799 
L 306.937774 233.005498 
L 309.508569 233.143028 
L 312.106058 230.785177 
L 314.71422 229.709112 
L 317.302786 229.675673 
L 319.879554 230.324355 
L 322.454578 230.204137 
L 324.939295 237.225867 
L 327.510859 229.507623 
L 330.075092 229.706363 
L 332.636626 229.629529 
L 335.163431 232.470989 
L 337.617489 237.501624 
L 340.128292 232.774209 
L 342.662218 229.993787 
L 345.14556 233.641213 
L 347.673993 229.545658 
L 350.192906 229.321941 
L 352.704069 230.093921 
L 355.221876 228.451789 
L 357.71279 230.859753 
L 360.180171 232.991595 
L 362.622422 234.50085 
L 365.110784 229.352495 
L 367.57176 232.334086 
L 370.042172 231.141132 
L 372.484957 233.623433 
L 374.967379 228.475374 
L 377.441761 229.463167 
L 379.916983 228.379186 
L 382.396775 228.698509 
L 384.869119 228.503943 
L 387.309021 231.071939 
L 389.745412 231.61815 
L 392.190627 229.744375 
L 394.627276 230.199689 
L 397.093898 226.994872 
L 399.541305 229.186464 
L 402.007762 227.365345 
L 404.454979 228.546826 
L 406.897108 228.342543 
L 409.2769 234.410307 
L 411.705839 229.000098 
L 414.057264 235.955053 
L 416.459337 230.784824 
L 418.89182 228.296536 
L 421.304 230.664891 
L 423.644877 236.50392 
L 426.030344 231.149994 
L 428.362984 237.543536 
L 430.797479 228.610955 
L 433.324668 238.388586 
L 435.722795 229.934448 
L 438.094588 232.499068 
L 440.424147 236.928498 
L 442.73412 239.29577 
L 445.024742 241.009923 
L 447.457721 227.96022 
L 449.860285 229.465277 
L 452.22968 233.532879 
L 454.613092 230.973664 
L 456.988985 231.565311 
L 459.39519 228.317532 
L 461.773832 231.110887 
L 464.183095 227.407657 
L 466.55256 232.208587 
L 468.953654 228.63446 
L 471.308984 232.790631 
L 473.715788 226.936069 
L 476.100303 230.646301 
L 478.50971 227.856653 
L 480.890892 229.988198 
L 483.261832 230.858658 
L 485.664446 228.455142 
L 488.035641 230.349936 
L 490.446631 227.623424 
L 492.765568 235.169844 
L 495.175381 227.585891 
L 497.571806 227.678783 
L 499.965545 228.606849 
L 502.363796 227.888848 
L 504.733555 231.066978 
L 507.128951 227.635514 
L 509.537616 226.616381 
L 511.906047 230.293265 
L 514.30589 228.041422 
L 516.699525 227.941139 
L 519.10499 226.561124 
L 521.48817 228.606803 
L 523.830177 232.294488 
L 528.591182 227.714788 
L 530.961407 229.535964 
L 533.320928 230.876518 
L 535.714862 227.413588 
L 538.049905 233.011554 
L 540.358281 235.431584 
L 542.724706 230.061292 
L 545.085426 230.883635 
L 547.474174 228.14776 
L 549.865652 227.671952 
L 552.22909 230.247361 
L 554.607796 228.98404 
L 557.022311 225.569135 
L 559.387579 229.775465 
L 561.786136 227.356826 
L 564.144493 230.677299 
L 566.538065 227.71326 
L 568.879794 232.641206 
L 571.283731 226.54461 
L 573.651307 230.04358 
L 575.998705 232.274621 
L 578.366433 229.798673 
L 580.770261 226.199193 
L 583.161016 227.692777 
L 585.511137 231.580103 
L 587.890074 228.850273 
L 592.640441 229.449196 
L 595.008966 229.80319 
L 599.752945 229.590821 
L 602.140008 228.177207 
L 604.552322 225.984327 
L 606.881335 234.059142 
L 609.291838 226.00863 
L 611.669023 229.263366 
L 614.065481 227.339411 
L 616.431588 230.143543 
L 618.787814 231.269505 
L 621.140569 231.556883 
L 623.545998 226.29513 
L 625.87755 233.410437 
L 628.285881 226.204245 
L 630.667392 228.477199 
L 633.041281 229.564647 
L 635.413907 229.727393 
L 637.746524 233.197121 
L 640.136832 227.623664 
L 642.496458 231.08412 
L 644.885379 228.305785 
L 647.265816 228.182397 
L 649.641541 229.036707 
L 652.00551 229.759669 
L 654.783736 236.416411 
L 657.182214 226.677602 
L 659.549245 229.433788 
L 661.928946 228.862225 
L 664.310665 228.659813 
L 666.676797 230.114153 
L 669.031975 231.005484 
L 671.429722 226.510977 
L 673.797365 229.044451 
L 676.162156 229.853462 
L 678.518829 230.888413 
L 680.883934 229.789458 
L 683.215632 232.749951 
L 685.605446 227.806118 
L 688.000335 227.496101 
L 690.368127 230.056673 
L 692.713446 232.274872 
L 695.109124 227.418286 
L 697.475294 230.222487 
L 699.776273 236.11326 
L 702.127687 230.863232 
L 704.487464 230.133461 
L 706.874533 228.09093 
L 709.211499 233.052645 
L 711.594682 228.114663 
L 713.943965 230.718345 
L 716.267758 233.9393 
L 718.623312 230.685841 
L 720.995634 228.502814 
L 723.384651 227.553433 
L 725.712895 233.730672 
L 728.110086 227.166708 
L 730.4436 233.347505 
L 732.84843 226.007045 
L 735.199243 231.416513 
L 737.520867 233.567937 
L 739.91279 227.310933 
L 742.277073 230.115807 
L 744.605954 234.428292 
L 746.989845 228.390044 
L 749.358079 229.835705 
L 751.680452 234.028189 
L 756.466042 231.572074 
L 758.788601 233.330957 
L 761.147554 230.808945 
L 763.462295 235.028048 
L 765.794102 233.549005 
L 768.160454 228.369538 
L 770.525002 230.223981 
L 772.884286 230.817259 
L 775.234577 231.65363 
L 777.597711 230.223947 
L 779.920119 234.178333 
L 782.309601 226.965368 
L 784.665875 230.756722 
L 787.004337 233.914084 
L 789.374658 228.951445 
L 794.137093 228.429196 
L 796.497685 231.031179 
L 801.229994 230.501312 
L 803.534137 235.645059 
L 805.89051 231.127447 
L 808.245353 231.199901 
L 810.603038 231.034669 
L 812.963197 230.276135 
L 815.285525 234.954989 
L 817.664078 228.402555 
L 820.054172 228.052929 
L 822.391561 232.889979 
L 824.77487 228.961151 
L 827.160834 227.689721 
L 829.502253 233.332633 
L 831.780267 238.314831 
L 834.102674 234.265204 
L 836.471702 229.57709 
L 838.84077 229.553664 
L 841.220645 228.735837 
L 843.569378 232.339959 
L 845.908641 232.176745 
L 848.208481 236.268981 
L 850.546436 231.730715 
L 852.858001 235.007496 
L 855.182863 233.84537 
L 857.481325 236.9001 
L 859.840374 230.138365 
L 862.151824 234.325113 
L 864.47108 234.250161 
L 866.77516 235.724847 
L 869.063308 236.255353 
L 871.396032 233.099006 
L 873.761061 228.956577 
L 876.101096 232.536715 
L 878.484482 228.032058 
L 880.813779 233.313587 
L 883.149409 232.232526 
L 885.527624 228.990541 
L 887.873875 231.282677 
L 890.220675 231.711943 
L 892.594632 228.458837 
L 894.91608 232.574807 
L 897.244628 232.555168 
L 899.613851 229.978481 
L 901.937273 233.426563 
L 904.296474 230.540054 
L 906.64148 230.464303 
L 908.984353 229.797955 
L 911.343967 228.496108 
L 913.66941 233.079823 
L 915.984887 233.950545 
L 918.344811 230.530177 
L 920.726435 228.15198 
L 922.6 231.802823 
L 922.6 231.802823 
" clip-path="url(#pb081da2e6b)" style="fill: none; stroke: #0000ff; stroke-width: 1.5; stroke-linecap: square"/>
   </g>
   <g id="line2d_18">
    <path d="M 115.659147 416.169688 
L 119.246042 131.832719 
L 122.759861 135.913345 
L 126.364947 140.638023 
L 130.173951 136.896267 
L 134.083599 138.184633 
L 138.019276 138.538969 
L 141.872368 148.655654 
L 145.841526 140.176778 
L 149.848725 139.06992 
L 153.852359 141.042836 
L 157.866737 140.557254 
L 161.838141 145.177156 
L 165.873388 141.234973 
L 169.887956 144.315649 
L 173.901354 145.417284 
L 177.924737 144.659617 
L 181.913393 148.699802 
L 185.821048 155.150733 
L 189.702765 157.473868 
L 193.609636 157.27685 
L 197.398862 165.395962 
L 201.222754 163.62491 
L 204.924726 172.137533 
L 208.690453 167.41915 
L 212.239226 183.772356 
L 215.957946 170.659505 
L 219.648442 173.076821 
L 223.259569 177.796013 
L 226.784922 184.962721 
L 230.342761 182.56144 
L 233.860399 185.335874 
L 237.364091 186.401744 
L 240.715718 198.10105 
L 244.01428 201.41914 
L 247.182519 211.842968 
L 250.425093 205.688983 
L 253.462398 220.832448 
L 256.573498 215.427382 
L 259.647567 218.597848 
L 262.795687 212.219874 
L 265.743569 227.756256 
L 268.657477 229.854158 
L 271.524877 233.026095 
L 274.464386 228.443544 
L 277.252866 238.852511 
L 279.96918 244.119373 
L 282.868403 229.488759 
L 285.668992 236.907046 
L 288.439111 239.316903 
L 291.174529 242.319844 
L 293.93199 239.613656 
L 296.601588 246.738964 
L 299.340944 241.36598 
L 302.051797 243.348317 
L 304.630045 253.357865 
L 307.259248 248.706224 
L 309.929802 246.015432 
L 312.581316 245.861684 
L 315.143972 253.491906 
L 317.670857 256.504427 
L 320.219284 254.269668 
L 322.661223 262.690539 
L 325.181827 256.024969 
L 327.653124 259.909592 
L 330.120425 259.70897 
L 332.607289 257.943599 
L 335.040792 262.567629 
L 337.426662 265.874827 
L 339.837606 263.490448 
L 342.249716 263.349348 
L 344.622541 266.347043 
L 346.999621 265.552322 
L 349.428272 260.5873 
L 351.841965 262.234928 
L 354.241598 263.062107 
L 356.616482 264.431687 
L 359.000767 264.410508 
L 361.416071 260.728719 
L 363.866365 258.440289 
L 366.188713 268.16677 
L 368.566892 263.442788 
L 370.92699 264.705242 
L 373.275031 265.034476 
L 375.625936 265.792234 
L 377.945168 267.426119 
L 380.310252 263.145499 
L 382.610392 268.23302 
L 384.940361 265.500784 
L 387.222262 270.28203 
L 389.511636 268.350866 
L 391.849899 264.734438 
L 394.057921 274.672353 
L 396.438122 260.543881 
L 398.77126 265.011073 
L 401.118789 262.459021 
L 403.567762 254.101538 
L 405.955696 259.246517 
L 408.35886 258.084448 
L 410.783183 256.138983 
L 413.197596 256.731371 
L 415.50277 265.385162 
L 417.801597 266.121125 
L 420.124609 263.896186 
L 422.486513 259.918146 
L 424.797237 264.2661 
L 427.151245 260.606209 
L 429.450374 264.772017 
L 431.82805 258.214599 
L 434.251656 253.669992 
L 436.68457 253.675386 
L 439.03644 259.8564 
L 441.391728 259.234063 
L 443.725475 260.544418 
L 446.155113 251.870075 
L 448.612773 249.780613 
L 451.112829 245.397862 
L 453.586578 247.799177 
L 458.376361 256.500572 
L 460.81327 250.788592 
L 463.211282 253.113084 
L 465.594216 254.971325 
L 468.026916 250.55038 
L 470.396554 255.688835 
L 472.79081 252.899746 
L 475.166173 254.894297 
L 477.48539 259.616637 
L 479.880613 252.765135 
L 482.279649 252.870401 
L 484.789936 242.489011 
L 487.308331 241.763175 
L 489.710349 251.60375 
L 492.143507 247.804024 
L 494.640386 242.597265 
L 497.205668 235.919094 
L 499.647188 247.30844 
L 502.091262 246.591637 
L 504.479638 251.885198 
L 506.885396 249.768683 
L 509.378059 242.457226 
L 511.787188 249.211536 
L 514.278473 242.272012 
L 516.735433 245.036581 
L 519.251821 239.201954 
L 521.764178 240.081093 
L 524.327156 234.587515 
L 526.932593 232.211918 
L 529.305428 250.917443 
L 531.847453 236.351963 
L 534.295961 244.506805 
L 536.20486 292.105707 
L 538.204725 283.444743 
L 540.194187 284.164089 
L 542.023243 298.452513 
L 543.205323 356.23573 
L 543.820983 406.404237 
L 543.820983 406.404237 
" clip-path="url(#pb081da2e6b)" style="fill: none; stroke: #9467bd; stroke-width: 1.5; stroke-linecap: square"/>
   </g>
   <g id="line2d_19">
    <path d="M 115.382742 443.343563 
L 118.85067 158.790678 
L 122.381143 133.644337 
L 126.051802 134.419133 
L 129.871624 136.445835 
L 133.758619 139.064331 
L 137.733746 135.147239 
L 141.699479 139.387521 
L 145.716618 135.428937 
L 149.763872 135.768162 
L 153.799449 138.251021 
L 157.809691 141.593813 
L 161.828497 142.516325 
L 165.899457 138.470769 
L 170.002795 137.602168 
L 174.055074 142.296839 
L 178.110913 142.495055 
L 182.194018 141.576136 
L 186.229541 144.714258 
L 190.229717 148.233665 
L 194.223448 151.057516 
L 197.977946 168.135805 
L 201.869658 158.180692 
L 205.657104 166.397588 
L 209.45668 164.751157 
L 213.216949 168.947656 
L 216.899804 174.500801 
L 220.648671 167.989139 
L 224.276698 178.449097 
L 227.953406 173.174708 
L 231.492375 184.130729 
L 234.984361 187.347738 
L 238.469448 187.767195 
L 241.887688 193.701193 
L 245.186324 201.78187 
L 248.450617 204.077827 
L 251.685893 207.122783 
L 254.87148 209.456935 
L 257.925684 219.809996 
L 261.042471 215.062258 
L 264.142513 215.914698 
L 267.161224 221.953448 
L 270.051144 231.542775 
L 272.943179 230.949509 
L 275.735761 239.456235 
L 278.546728 236.828261 
L 281.349949 237.58205 
L 284.142129 238.551333 
L 286.913194 239.081223 
L 289.810662 229.431838 
L 292.467333 248.44145 
L 295.155158 245.667175 
L 297.84113 245.447678 
L 300.518073 245.397315 
L 303.302708 237.594732 
L 305.971212 246.145276 
L 308.649433 244.215835 
L 311.365168 241.22001 
L 314.007604 247.353614 
L 316.63166 248.92864 
L 319.220053 250.624169 
L 321.750488 255.76933 
L 324.232209 259.058577 
L 326.64064 264.86605 
L 329.145964 257.490338 
L 331.626029 258.669525 
L 334.134142 256.111201 
L 336.520999 266.254904 
L 338.936069 263.374701 
L 341.400358 259.164083 
L 343.928639 253.539589 
L 346.379005 259.508839 
L 348.818561 260.428351 
L 351.321979 255.144792 
L 353.764154 260.104169 
L 356.124055 266.204084 
L 358.567915 259.163376 
L 360.969547 262.193654 
L 363.33471 264.569377 
L 365.719255 263.502355 
L 368.035213 268.219517 
L 370.407581 263.3121 
L 372.810455 261.008365 
L 375.196368 262.074896 
L 377.590844 261.576392 
L 379.973976 261.627087 
L 382.298886 265.986104 
L 384.706365 258.916839 
L 387.093058 260.545581 
L 389.488097 260.311087 
L 391.784359 268.195556 
L 394.185364 259.308582 
L 396.580701 258.69595 
L 398.961445 260.061219 
L 401.289968 264.734644 
L 403.644879 262.402476 
L 405.975127 264.973723 
L 408.345755 260.023617 
L 410.715874 260.56181 
L 413.047788 263.220337 
L 415.441032 258.367925 
L 417.808714 260.157031 
L 420.221731 255.914673 
L 422.626657 256.658608 
L 425.020195 256.711424 
L 427.371195 260.710004 
L 429.744433 258.712214 
L 432.06751 262.609941 
L 434.494167 254.123675 
L 436.841943 259.577827 
L 439.186436 261.038223 
L 441.522647 260.767336 
L 443.941187 253.44761 
L 446.293635 258.726641 
L 448.579883 264.402684 
L 451.024118 251.149577 
L 453.428441 253.920875 
L 455.802912 256.935768 
L 458.236788 250.945796 
L 460.583743 258.397236 
L 462.986314 252.718832 
L 465.403721 251.515591 
L 467.721378 259.828755 
L 470.074143 256.586028 
L 472.454028 254.436315 
L 474.831583 254.077018 
L 477.261436 249.621231 
L 479.59304 258.336414 
L 482.045848 247.074402 
L 484.439004 252.775388 
L 486.740581 259.808238 
L 489.076135 258.24391 
L 491.438679 255.299384 
L 493.902253 245.90768 
L 496.212846 258.975357 
L 498.708885 242.372146 
L 501.064786 254.122363 
L 503.468713 250.156823 
L 505.856681 251.460335 
L 508.219248 253.939293 
L 510.729504 240.76854 
L 513.120767 251.18833 
L 515.644248 239.90961 
L 518.002927 253.634101 
L 520.506583 240.933533 
L 525.416873 245.860738 
L 527.855073 245.518787 
L 530.330099 241.944033 
L 532.755888 246.447138 
L 535.293248 236.853067 
L 537.800147 240.453813 
L 540.329858 236.404961 
L 542.785861 243.706097 
L 545.27137 240.155247 
L 547.833263 233.97924 
L 550.397261 233.347323 
L 552.940451 235.110117 
L 555.476922 236.607909 
L 558.080121 229.999501 
L 560.582504 238.246608 
L 563.098005 237.456061 
L 565.604489 237.451499 
L 568.154883 233.30111 
L 570.641444 238.334904 
L 573.237487 229.415586 
L 575.776568 234.253867 
L 578.323821 233.839531 
L 580.906843 229.935257 
L 583.341699 243.794359 
L 585.778098 243.104802 
L 588.344074 232.108294 
L 590.882007 233.953146 
L 593.377592 237.22451 
L 595.926943 232.270949 
L 598.478567 231.543311 
L 600.965807 238.130074 
L 603.42157 240.081002 
L 605.905582 237.559412 
L 608.419662 235.426121 
L 610.837024 243.628282 
L 613.362239 233.273682 
L 615.88194 234.063932 
L 618.356763 237.783071 
L 620.889586 232.294443 
L 623.395237 235.080909 
L 625.904882 234.505126 
L 628.388344 236.909372 
L 630.878542 236.70266 
L 633.36277 237.088793 
L 635.902679 231.490826 
L 638.447635 231.58868 
L 640.971785 233.168723 
L 643.488297 233.101903 
L 646.067547 227.750839 
L 648.537582 236.862578 
L 651.108057 228.37524 
L 653.676204 227.670538 
L 656.226103 229.202225 
L 658.791922 227.647306 
L 661.309698 231.860308 
L 663.908471 224.456437 
L 666.397032 235.218748 
L 668.963068 227.212145 
L 671.442567 235.379373 
L 673.978689 230.299584 
L 676.563867 226.146674 
L 679.189355 221.651004 
L 681.761541 226.621319 
L 684.346983 225.411783 
L 686.850007 232.939441 
L 689.385763 229.931688 
L 691.963726 225.88864 
L 694.576983 222.168189 
L 697.212465 220.480792 
L 699.816102 223.222175 
L 702.41516 224.039808 
L 705.060041 219.344441 
L 707.659794 223.158365 
L 710.327264 217.748578 
L 712.940256 221.488064 
L 715.584421 219.241398 
L 718.234906 218.537277 
L 720.826045 223.209972 
L 723.41708 222.768298 
L 726.08999 215.345097 
L 728.69544 221.659512 
L 731.296558 222.079711 
L 733.370804 270.382631 
L 735.401932 273.948559 
L 737.485251 270.371443 
L 739.600602 265.977379 
L 741.618426 275.500376 
L 743.634194 275.693767 
L 745.110927 325.318709 
L 746.446462 337.505787 
L 747.791375 337.11093 
L 749.073689 342.579954 
L 750.250327 352.489881 
L 750.250327 352.489881 
" clip-path="url(#pb081da2e6b)" style="fill: none; stroke: #ff7f0e; stroke-width: 1.5; stroke-linecap: square"/>
   </g>
   <g id="line2d_20">
    <path d="M 117.399238 247.979168 
L 121.552725 -1 
M 877.82648 -1 
L 880.540776 4.687595 
L 881.795709 -1 
M 897.637042 -1 
L 898.357463 1.487374 
L 900.85317 -1 
L 900.85317 -1 
" clip-path="url(#pb081da2e6b)" style="fill: none; stroke: #d62728; stroke-width: 1.5; stroke-linecap: square"/>
   </g>
   <g id="line2d_21">
    <path d="M 115.360456 446.455089 
L 116.450356 358.905298 
L 119.770506 143.642241 
L 123.299935 136.986479 
L 126.991939 135.524327 
L 130.68895 142.312224 
L 134.525163 135.78244 
L 138.241606 149.648704 
L 142.163665 135.293574 
L 146.08519 138.3158 
L 149.950075 144.612025 
L 153.780725 147.123556 
L 157.716175 141.02395 
L 161.630962 143.031126 
L 165.581844 141.859192 
L 169.496266 145.037493 
L 173.420594 145.876601 
L 177.306255 147.52066 
L 181.179313 150.094598 
L 185.048744 151.257887 
L 188.993078 144.173887 
L 192.852342 151.533633 
L 196.640784 156.864088 
L 200.508449 150.068059 
L 204.356221 152.474118 
L 208.189479 152.09833 
L 212.037504 150.426842 
L 215.876077 149.968643 
L 219.70072 150.918503 
L 223.39243 162.676122 
L 227.191774 153.565204 
L 230.917623 157.84311 
L 234.635721 158.465356 
L 238.344871 158.591915 
L 242.023855 160.611477 
L 245.726678 157.605354 
L 249.355941 163.380528 
L 252.899089 169.788315 
L 256.516946 162.85309 
L 260.141221 162.479047 
L 263.738694 163.4558 
L 267.241639 170.97836 
L 270.801658 166.027115 
L 274.315561 168.984448 
L 277.808955 170.438366 
L 281.327756 168.044487 
L 284.820651 168.495239 
L 288.305219 169.734416 
L 291.898855 160.174251 
L 299.114923 157.720748 
L 302.661899 161.414056 
L 306.193073 162.933346 
L 309.691755 165.116487 
L 313.27666 157.807538 
L 316.851616 157.766937 
L 320.424184 157.438707 
L 323.949967 161.120063 
L 330.908513 164.821707 
L 334.418516 160.345483 
L 337.845295 167.1967 
L 341.322924 162.398016 
L 344.746706 166.847337 
L 348.226548 161.075937 
L 351.709449 160.887986 
L 355.090844 169.167689 
L 358.547066 160.730862 
L 361.944363 165.503155 
L 365.397465 160.866215 
L 368.825393 162.925169 
L 372.270008 160.978255 
L 375.742119 159.372129 
L 379.17973 160.67239 
L 382.610719 160.511662 
L 386.089739 155.327154 
L 389.531477 159.133609 
L 392.959091 158.263765 
L 396.333118 163.737521 
L 399.767869 158.071138 
L 403.082011 167.308695 
L 406.5304 155.535337 
L 409.874048 164.215143 
L 413.265026 160.111479 
L 416.613611 162.829768 
L 419.919911 167.021214 
L 423.243273 163.985028 
L 426.613672 159.57161 
L 429.866492 171.091405 
L 433.233964 158.49445 
L 436.516605 167.460424 
L 439.837873 162.688474 
L 443.163308 161.888244 
L 446.539685 156.0672 
L 449.86518 160.496562 
L 453.243215 155.06668 
L 456.567415 160.03038 
L 459.886559 160.063955 
L 463.231413 156.714445 
L 466.55508 159.538958 
L 469.904733 156.307146 
L 473.205927 160.284365 
L 476.482374 162.004505 
L 479.745829 164.104448 
L 483.035613 160.520011 
L 486.318654 159.815011 
L 492.856883 160.646113 
L 496.151279 157.464585 
L 499.443107 157.962564 
L 502.74136 156.575512 
L 505.992473 160.958844 
L 509.256301 160.270371 
L 512.412686 168.544006 
L 515.661195 159.38992 
L 518.971503 153.517885 
L 522.207709 161.428243 
L 525.414386 163.273711 
L 528.633102 162.685257 
L 531.830909 164.201514 
L 535.050166 162.543211 
L 538.296087 158.629106 
L 541.48314 163.61898 
L 544.697809 161.369508 
L 547.87178 164.419049 
L 550.997921 168.992522 
L 554.216381 158.720356 
L 557.458131 157.092606 
L 560.663394 161.016062 
L 563.728284 173.398892 
L 566.895457 163.910156 
L 570.078854 162.31938 
L 576.405387 163.620862 
L 579.563643 164.10276 
L 582.737116 162.439381 
L 585.96445 156.989244 
L 589.107248 164.335042 
L 592.30822 157.482525 
L 595.4935 160.073193 
L 598.635965 163.432933 
L 601.700571 171.190262 
L 604.824248 164.872561 
L 607.947359 166.274382 
L 611.059083 165.962233 
L 614.242941 159.700108 
L 617.34052 167.718355 
L 620.538261 158.026226 
L 623.657071 165.009727 
L 626.81572 160.749327 
L 629.929592 165.558412 
L 633.049767 163.294753 
L 636.211171 159.81305 
L 639.371975 159.49822 
L 642.508268 161.243132 
L 645.551714 169.912605 
L 648.766726 154.525591 
L 651.918959 161.381096 
L 655.035809 163.563883 
L 658.182747 160.125838 
L 661.34871 157.846543 
L 664.430168 166.003222 
L 667.486485 168.555662 
L 670.643354 159.245935 
L 673.782423 160.265273 
L 676.871122 165.231881 
L 680.000567 161.703669 
L 683.132457 160.670257 
L 686.322582 156.944914 
L 689.463251 159.567288 
L 692.642859 156.976379 
L 695.73654 164.633996 
L 698.910645 156.525662 
L 702.02813 160.715569 
L 705.132291 163.205693 
L 708.183541 167.060538 
L 711.303264 160.588736 
L 714.411661 162.098731 
L 717.576267 156.858077 
L 720.679053 163.176302 
L 723.773482 163.778225 
L 726.942227 156.441985 
L 730.101301 156.760726 
L 733.239412 159.410244 
L 736.39484 157.624651 
L 739.365496 175.160318 
L 742.524812 156.410542 
L 745.673232 157.35779 
L 748.765353 162.489882 
L 751.918649 156.530577 
L 754.991779 164.004188 
L 758.1425 156.664184 
L 761.263981 159.45089 
L 764.413754 157.096255 
L 767.515291 161.569184 
L 770.598984 163.020981 
L 773.778359 154.036051 
L 776.844015 164.944822 
L 779.968854 159.300518 
L 783.126821 156.434663 
L 786.303191 154.105232 
L 789.372957 164.41045 
L 792.548762 154.260212 
L 795.647821 161.358925 
L 798.752053 160.264771 
L 801.826277 162.884898 
L 804.946906 158.794305 
L 808.004378 165.05522 
L 811.089515 161.253442 
L 814.209287 159.24898 
L 817.361062 155.624489 
L 820.428066 163.05256 
L 823.558657 158.471868 
L 826.712108 156.185799 
L 829.876074 154.450901 
L 833.041059 154.126981 
L 836.204597 154.852532 
L 839.336183 158.358732 
L 842.428875 162.275118 
L 845.5633 157.860879 
L 848.695546 158.189862 
L 851.834632 157.323222 
L 854.932972 160.73409 
L 858.040588 159.329726 
L 861.113645 163.668226 
L 864.1615 165.70226 
L 867.27268 158.449287 
L 870.35801 162.616179 
L 873.465871 159.782245 
L 876.511556 164.91826 
L 879.624659 159.476152 
L 882.78996 152.659149 
L 885.897589 159.926163 
L 888.983881 160.96563 
L 892.14463 154.562679 
L 895.269138 157.703709 
L 898.385943 159.390342 
L 901.457829 162.481488 
L 904.596552 156.583085 
L 907.753613 155.121149 
L 910.851063 160.053109 
L 914.00413 155.357343 
L 917.142552 156.216694 
L 920.21538 161.329033 
L 922.6 158.678991 
L 922.6 158.678991 
" clip-path="url(#pb081da2e6b)" style="fill: none; stroke: #1f77b4; stroke-width: 1.5; stroke-linecap: square"/>
   </g>
   <g id="patch_3">
    <path d="M 115.2 461.376 
L 115.2 62.208 
" style="fill: none; stroke: #000000; stroke-width: 0.8; stroke-linejoin: miter; stroke-linecap: square"/>
   </g>
   <g id="patch_4">
    <path d="M 829.44 461.376 
L 829.44 62.208 
" style="fill: none; stroke: #000000; stroke-width: 0.8; stroke-linejoin: miter; stroke-linecap: square"/>
   </g>
   <g id="patch_5">
    <path d="M 115.2 461.376 
L 829.44 461.376 
" style="fill: none; stroke: #000000; stroke-width: 0.8; stroke-linejoin: miter; stroke-linecap: square"/>
   </g>
   <g id="patch_6">
    <path d="M 115.2 62.208 
L 829.44 62.208 
" style="fill: none; stroke: #000000; stroke-width: 0.8; stroke-linejoin: miter; stroke-linecap: square"/>
   </g>
   <g id="legend_1">
    <g id="patch_7">
     <path d="M 404.976875 451.876 
L 539.663125 451.876 
Q 543.463125 451.876 543.463125 448.076 
L 543.463125 288.790687 
Q 543.463125 284.990688 539.663125 284.990688 
L 404.976875 284.990688 
Q 401.176875 284.990688 401.176875 288.790687 
L 401.176875 448.076 
Q 401.176875 451.876 404.976875 451.876 
z
" style="fill: #ffffff; opacity: 0.8; stroke: #cccccc; stroke-linejoin: miter"/>
    </g>
    <g id="line2d_22">
     <path d="M 408.776875 299.240688 
L 427.776875 299.240688 
L 446.776875 299.240688 
" style="fill: none; stroke: #ff0000; stroke-width: 1.5; stroke-linecap: square"/>
    </g>
    <g id="text_18">
     <!-- MemC3-t -->
     <g transform="translate(461.976875 305.890688) scale(0.19 -0.19)">
      <defs>
       <path id="TimesNewRomanPSMT-4d" d="M 2619 0 
L 981 3566 
L 981 734 
Q 981 344 1066 247 
Q 1181 116 1431 116 
L 1581 116 
L 1581 0 
L 106 0 
L 106 116 
L 256 116 
Q 525 116 638 278 
Q 706 378 706 734 
L 706 3503 
Q 706 3784 644 3909 
Q 600 4000 483 4061 
Q 366 4122 106 4122 
L 106 4238 
L 1306 4238 
L 2844 922 
L 4356 4238 
L 5556 4238 
L 5556 4122 
L 5409 4122 
Q 5138 4122 5025 3959 
Q 4956 3859 4956 3503 
L 4956 734 
Q 4956 344 5044 247 
Q 5159 116 5409 116 
L 5556 116 
L 5556 0 
L 3756 0 
L 3756 116 
L 3906 116 
Q 4178 116 4288 278 
Q 4356 378 4356 734 
L 4356 3566 
L 2722 0 
L 2619 0 
z
" transform="scale(0.015625)"/>
       <path id="TimesNewRomanPSMT-65" d="M 681 1784 
Q 678 1147 991 784 
Q 1303 422 1725 422 
Q 2006 422 2214 576 
Q 2422 731 2563 1106 
L 2659 1044 
Q 2594 616 2278 264 
Q 1963 -88 1488 -88 
Q 972 -88 605 314 
Q 238 716 238 1394 
Q 238 2128 614 2539 
Q 991 2950 1559 2950 
Q 2041 2950 2350 2633 
Q 2659 2316 2659 1784 
L 681 1784 
z
M 681 1966 
L 2006 1966 
Q 1991 2241 1941 2353 
Q 1863 2528 1708 2628 
Q 1553 2728 1384 2728 
Q 1125 2728 920 2526 
Q 716 2325 681 1966 
z
" transform="scale(0.015625)"/>
       <path id="TimesNewRomanPSMT-6d" d="M 1050 2338 
Q 1363 2650 1419 2697 
Q 1559 2816 1721 2881 
Q 1884 2947 2044 2947 
Q 2313 2947 2506 2790 
Q 2700 2634 2766 2338 
Q 3088 2713 3309 2830 
Q 3531 2947 3766 2947 
Q 3994 2947 4170 2830 
Q 4347 2713 4450 2447 
Q 4519 2266 4519 1878 
L 4519 647 
Q 4519 378 4559 278 
Q 4591 209 4675 161 
Q 4759 113 4950 113 
L 4950 0 
L 3538 0 
L 3538 113 
L 3597 113 
Q 3781 113 3884 184 
Q 3956 234 3988 344 
Q 4000 397 4000 647 
L 4000 1878 
Q 4000 2228 3916 2372 
Q 3794 2572 3525 2572 
Q 3359 2572 3192 2489 
Q 3025 2406 2788 2181 
L 2781 2147 
L 2788 2013 
L 2788 647 
Q 2788 353 2820 281 
Q 2853 209 2943 161 
Q 3034 113 3253 113 
L 3253 0 
L 1806 0 
L 1806 113 
Q 2044 113 2133 169 
Q 2222 225 2256 338 
Q 2272 391 2272 647 
L 2272 1878 
Q 2272 2228 2169 2381 
Q 2031 2581 1784 2581 
Q 1616 2581 1450 2491 
Q 1191 2353 1050 2181 
L 1050 647 
Q 1050 366 1089 281 
Q 1128 197 1204 155 
Q 1281 113 1516 113 
L 1516 0 
L 100 0 
L 100 113 
Q 297 113 375 155 
Q 453 197 493 289 
Q 534 381 534 647 
L 534 1741 
Q 534 2213 506 2350 
Q 484 2453 437 2492 
Q 391 2531 309 2531 
Q 222 2531 100 2484 
L 53 2597 
L 916 2947 
L 1050 2947 
L 1050 2338 
z
" transform="scale(0.015625)"/>
       <path id="TimesNewRomanPSMT-43" d="M 3853 4334 
L 3950 2894 
L 3853 2894 
Q 3659 3541 3300 3825 
Q 2941 4109 2438 4109 
Q 2016 4109 1675 3895 
Q 1334 3681 1139 3212 
Q 944 2744 944 2047 
Q 944 1472 1128 1050 
Q 1313 628 1683 403 
Q 2053 178 2528 178 
Q 2941 178 3256 354 
Q 3572 531 3950 1056 
L 4047 994 
Q 3728 428 3303 165 
Q 2878 -97 2294 -97 
Q 1241 -97 663 684 
Q 231 1266 231 2053 
Q 231 2688 515 3219 
Q 800 3750 1298 4042 
Q 1797 4334 2388 4334 
Q 2847 4334 3294 4109 
Q 3425 4041 3481 4041 
Q 3566 4041 3628 4100 
Q 3709 4184 3744 4334 
L 3853 4334 
z
" transform="scale(0.015625)"/>
       <path id="TimesNewRomanPSMT-33" d="M 325 3431 
Q 506 3859 782 4092 
Q 1059 4325 1472 4325 
Q 1981 4325 2253 3994 
Q 2459 3747 2459 3466 
Q 2459 3003 1878 2509 
Q 2269 2356 2469 2072 
Q 2669 1788 2669 1403 
Q 2669 853 2319 450 
Q 1863 -75 997 -75 
Q 569 -75 414 31 
Q 259 138 259 259 
Q 259 350 332 419 
Q 406 488 509 488 
Q 588 488 669 463 
Q 722 447 909 348 
Q 1097 250 1169 231 
Q 1284 197 1416 197 
Q 1734 197 1970 444 
Q 2206 691 2206 1028 
Q 2206 1275 2097 1509 
Q 2016 1684 1919 1775 
Q 1784 1900 1550 2001 
Q 1316 2103 1072 2103 
L 972 2103 
L 972 2197 
Q 1219 2228 1467 2375 
Q 1716 2522 1828 2728 
Q 1941 2934 1941 3181 
Q 1941 3503 1739 3701 
Q 1538 3900 1238 3900 
Q 753 3900 428 3381 
L 325 3431 
z
" transform="scale(0.015625)"/>
       <path id="TimesNewRomanPSMT-2d" d="M 259 1672 
L 1875 1672 
L 1875 1200 
L 259 1200 
L 259 1672 
z
" transform="scale(0.015625)"/>
       <path id="TimesNewRomanPSMT-74" d="M 1031 3803 
L 1031 2863 
L 1700 2863 
L 1700 2644 
L 1031 2644 
L 1031 788 
Q 1031 509 1111 412 
Q 1191 316 1316 316 
Q 1419 316 1516 380 
Q 1613 444 1666 569 
L 1788 569 
Q 1678 263 1478 108 
Q 1278 -47 1066 -47 
Q 922 -47 784 33 
Q 647 113 581 261 
Q 516 409 516 719 
L 516 2644 
L 63 2644 
L 63 2747 
Q 234 2816 414 2980 
Q 594 3144 734 3369 
Q 806 3488 934 3803 
L 1031 3803 
z
" transform="scale(0.015625)"/>
      </defs>
      <use xlink:href="#TimesNewRomanPSMT-4d"/>
      <use xlink:href="#TimesNewRomanPSMT-65" x="88.916016"/>
      <use xlink:href="#TimesNewRomanPSMT-6d" x="133.300781"/>
      <use xlink:href="#TimesNewRomanPSMT-43" x="211.083984"/>
      <use xlink:href="#TimesNewRomanPSMT-33" x="277.783203"/>
      <use xlink:href="#TimesNewRomanPSMT-2d" x="327.783203"/>
      <use xlink:href="#TimesNewRomanPSMT-74" x="361.083984"/>
     </g>
    </g>
    <g id="line2d_23">
     <path d="M 408.776875 326.104906 
L 427.776875 326.104906 
L 446.776875 326.104906 
" style="fill: none; stroke: #0000ff; stroke-width: 1.5; stroke-linecap: square"/>
    </g>
    <g id="text_19">
     <!-- caleKV -->
     <g transform="translate(461.976875 332.754906) scale(0.19 -0.19)">
      <defs>
       <path id="TimesNewRomanPSMT-63" d="M 2631 1088 
Q 2516 522 2178 217 
Q 1841 -88 1431 -88 
Q 944 -88 581 321 
Q 219 731 219 1428 
Q 219 2103 620 2525 
Q 1022 2947 1584 2947 
Q 2006 2947 2278 2723 
Q 2550 2500 2550 2259 
Q 2550 2141 2473 2067 
Q 2397 1994 2259 1994 
Q 2075 1994 1981 2113 
Q 1928 2178 1911 2362 
Q 1894 2547 1784 2644 
Q 1675 2738 1481 2738 
Q 1169 2738 978 2506 
Q 725 2200 725 1697 
Q 725 1184 976 792 
Q 1228 400 1656 400 
Q 1963 400 2206 609 
Q 2378 753 2541 1131 
L 2631 1088 
z
" transform="scale(0.015625)"/>
       <path id="TimesNewRomanPSMT-61" d="M 1822 413 
Q 1381 72 1269 19 
Q 1100 -59 909 -59 
Q 613 -59 420 144 
Q 228 347 228 678 
Q 228 888 322 1041 
Q 450 1253 767 1440 
Q 1084 1628 1822 1897 
L 1822 2009 
Q 1822 2438 1686 2597 
Q 1550 2756 1291 2756 
Q 1094 2756 978 2650 
Q 859 2544 859 2406 
L 866 2225 
Q 866 2081 792 2003 
Q 719 1925 600 1925 
Q 484 1925 411 2006 
Q 338 2088 338 2228 
Q 338 2497 613 2722 
Q 888 2947 1384 2947 
Q 1766 2947 2009 2819 
Q 2194 2722 2281 2516 
Q 2338 2381 2338 1966 
L 2338 994 
Q 2338 584 2353 492 
Q 2369 400 2405 369 
Q 2441 338 2488 338 
Q 2538 338 2575 359 
Q 2641 400 2828 588 
L 2828 413 
Q 2478 -56 2159 -56 
Q 2006 -56 1915 50 
Q 1825 156 1822 413 
z
M 1822 616 
L 1822 1706 
Q 1350 1519 1213 1441 
Q 966 1303 859 1153 
Q 753 1003 753 825 
Q 753 600 887 451 
Q 1022 303 1197 303 
Q 1434 303 1822 616 
z
" transform="scale(0.015625)"/>
       <path id="TimesNewRomanPSMT-6c" d="M 1184 4444 
L 1184 647 
Q 1184 378 1223 290 
Q 1263 203 1344 158 
Q 1425 113 1647 113 
L 1647 0 
L 244 0 
L 244 113 
Q 441 113 512 153 
Q 584 194 625 287 
Q 666 381 666 647 
L 666 3247 
Q 666 3731 644 3842 
Q 622 3953 573 3993 
Q 525 4034 450 4034 
Q 369 4034 244 3984 
L 191 4094 
L 1044 4444 
L 1184 4444 
z
" transform="scale(0.015625)"/>
       <path id="TimesNewRomanPSMT-4b" d="M 1913 2350 
L 3475 797 
Q 3859 413 4131 273 
Q 4403 134 4675 116 
L 4675 0 
L 2659 0 
L 2659 116 
Q 2841 116 2920 177 
Q 3000 238 3000 313 
Q 3000 388 2970 447 
Q 2941 506 2775 669 
L 1313 2116 
L 1313 750 
Q 1313 428 1353 325 
Q 1384 247 1484 191 
Q 1619 116 1769 116 
L 1913 116 
L 1913 0 
L 106 0 
L 106 116 
L 256 116 
Q 519 116 638 269 
Q 713 369 713 750 
L 713 3488 
Q 713 3809 672 3916 
Q 641 3991 544 4047 
Q 406 4122 256 4122 
L 106 4122 
L 106 4238 
L 1913 4238 
L 1913 4122 
L 1769 4122 
Q 1622 4122 1484 4050 
Q 1388 4000 1350 3900 
Q 1313 3800 1313 3488 
L 1313 2191 
Q 1375 2250 1741 2588 
Q 2669 3438 2863 3722 
Q 2947 3847 2947 3941 
Q 2947 4013 2881 4067 
Q 2816 4122 2659 4122 
L 2563 4122 
L 2563 4238 
L 4119 4238 
L 4119 4122 
Q 3981 4119 3868 4084 
Q 3756 4050 3593 3951 
Q 3431 3853 3194 3634 
Q 3125 3572 2559 2994 
L 1913 2350 
z
" transform="scale(0.015625)"/>
       <path id="TimesNewRomanPSMT-56" d="M 4544 4238 
L 4544 4122 
Q 4319 4081 4203 3978 
Q 4038 3825 3909 3509 
L 2431 -97 
L 2316 -97 
L 728 3556 
Q 606 3838 556 3900 
Q 478 3997 364 4051 
Q 250 4106 56 4122 
L 56 4238 
L 1788 4238 
L 1788 4122 
Q 1494 4094 1406 4022 
Q 1319 3950 1319 3838 
Q 1319 3681 1463 3350 
L 2541 866 
L 3541 3319 
Q 3688 3681 3688 3822 
Q 3688 3913 3597 3995 
Q 3506 4078 3291 4113 
Q 3275 4116 3238 4122 
L 3238 4238 
L 4544 4238 
z
" transform="scale(0.015625)"/>
      </defs>
      <use xlink:href="#TimesNewRomanPSMT-63"/>
      <use xlink:href="#TimesNewRomanPSMT-61" x="44.384766"/>
      <use xlink:href="#TimesNewRomanPSMT-6c" x="88.769531"/>
      <use xlink:href="#TimesNewRomanPSMT-65" x="116.552734"/>
      <use xlink:href="#TimesNewRomanPSMT-4b" x="160.9375"/>
      <use xlink:href="#TimesNewRomanPSMT-56" x="233.154297"/>
     </g>
    </g>
    <g id="line2d_24">
     <path d="M 408.776875 352.969125 
L 427.776875 352.969125 
L 446.776875 352.969125 
" style="fill: none; stroke: #9467bd; stroke-width: 1.5; stroke-linecap: square"/>
    </g>
    <g id="text_20">
     <!-- MICA-t -->
     <g transform="translate(461.976875 359.619125) scale(0.19 -0.19)">
      <defs>
       <path id="TimesNewRomanPSMT-49" d="M 1975 116 
L 1975 0 
L 159 0 
L 159 116 
L 309 116 
Q 572 116 691 269 
Q 766 369 766 750 
L 766 3488 
Q 766 3809 725 3913 
Q 694 3991 597 4047 
Q 459 4122 309 4122 
L 159 4122 
L 159 4238 
L 1975 4238 
L 1975 4122 
L 1822 4122 
Q 1563 4122 1444 3969 
Q 1366 3869 1366 3488 
L 1366 750 
Q 1366 428 1406 325 
Q 1438 247 1538 191 
Q 1672 116 1822 116 
L 1975 116 
z
" transform="scale(0.015625)"/>
       <path id="TimesNewRomanPSMT-41" d="M 2928 1419 
L 1288 1419 
L 1000 750 
Q 894 503 894 381 
Q 894 284 986 211 
Q 1078 138 1384 116 
L 1384 0 
L 50 0 
L 50 116 
Q 316 163 394 238 
Q 553 388 747 847 
L 2238 4334 
L 2347 4334 
L 3822 809 
Q 4000 384 4145 257 
Q 4291 131 4550 116 
L 4550 0 
L 2878 0 
L 2878 116 
Q 3131 128 3220 200 
Q 3309 272 3309 375 
Q 3309 513 3184 809 
L 2928 1419 
z
M 2841 1650 
L 2122 3363 
L 1384 1650 
L 2841 1650 
z
" transform="scale(0.015625)"/>
      </defs>
      <use xlink:href="#TimesNewRomanPSMT-4d"/>
      <use xlink:href="#TimesNewRomanPSMT-49" x="88.916016"/>
      <use xlink:href="#TimesNewRomanPSMT-43" x="122.216797"/>
      <use xlink:href="#TimesNewRomanPSMT-41" x="188.916016"/>
      <use xlink:href="#TimesNewRomanPSMT-2d" x="261.132812"/>
      <use xlink:href="#TimesNewRomanPSMT-74" x="294.433594"/>
     </g>
    </g>
    <g id="line2d_25">
     <path d="M 408.776875 379.833344 
L 427.776875 379.833344 
L 446.776875 379.833344 
" style="fill: none; stroke: #ff7f0e; stroke-width: 1.5; stroke-linecap: square"/>
    </g>
    <g id="text_21">
     <!-- MICA-t -->
     <g transform="translate(461.976875 386.483344) scale(0.19 -0.19)">
      <use xlink:href="#TimesNewRomanPSMT-4d"/>
      <use xlink:href="#TimesNewRomanPSMT-49" x="88.916016"/>
      <use xlink:href="#TimesNewRomanPSMT-43" x="122.216797"/>
      <use xlink:href="#TimesNewRomanPSMT-41" x="188.916016"/>
      <use xlink:href="#TimesNewRomanPSMT-2d" x="261.132812"/>
      <use xlink:href="#TimesNewRomanPSMT-74" x="294.433594"/>
     </g>
    </g>
    <g id="line2d_26">
     <path d="M 408.776875 406.697563 
L 427.776875 406.697563 
L 446.776875 406.697563 
" style="fill: none; stroke: #d62728; stroke-width: 1.5; stroke-linecap: square"/>
    </g>
    <g id="text_22">
     <!-- MICA-t -->
     <g transform="translate(461.976875 413.347562) scale(0.19 -0.19)">
      <use xlink:href="#TimesNewRomanPSMT-4d"/>
      <use xlink:href="#TimesNewRomanPSMT-49" x="88.916016"/>
      <use xlink:href="#TimesNewRomanPSMT-43" x="122.216797"/>
      <use xlink:href="#TimesNewRomanPSMT-41" x="188.916016"/>
      <use xlink:href="#TimesNewRomanPSMT-2d" x="261.132812"/>
      <use xlink:href="#TimesNewRomanPSMT-74" x="294.433594"/>
     </g>
    </g>
    <g id="line2d_27">
     <path d="M 408.776875 433.561781 
L 427.776875 433.561781 
L 446.776875 433.561781 
" style="fill: none; stroke: #1f77b4; stroke-width: 1.5; stroke-linecap: square"/>
    </g>
    <g id="text_23">
     <!-- caleKV -->
     <g transform="translate(461.976875 440.211781) scale(0.19 -0.19)">
      <use xlink:href="#TimesNewRomanPSMT-63"/>
      <use xlink:href="#TimesNewRomanPSMT-61" x="44.384766"/>
      <use xlink:href="#TimesNewRomanPSMT-6c" x="88.769531"/>
      <use xlink:href="#TimesNewRomanPSMT-65" x="116.552734"/>
      <use xlink:href="#TimesNewRomanPSMT-4b" x="160.9375"/>
      <use xlink:href="#TimesNewRomanPSMT-56" x="233.154297"/>
     </g>
    </g>
   </g>
  </g>
 </g>
 <defs>
  <clipPath id="pb081da2e6b">
   <rect x="115.2" y="62.208" width="714.24" height="399.168"/>
  </clipPath>
 </defs>
</svg>
