<?xml version="1.0" encoding="utf-8" standalone="no"?>
<!DOCTYPE svg PUBLIC "-//W3C//DTD SVG 1.1//EN"
  "http://www.w3.org/Graphics/SVG/1.1/DTD/svg11.dtd">
<svg xmlns:xlink="http://www.w3.org/1999/xlink" width="1080pt" height="864pt" viewBox="0 0 1080 864" xmlns="http://www.w3.org/2000/svg" version="1.1">
 <metadata>
  <rdf:RDF xmlns:dc="http://purl.org/dc/elements/1.1/" xmlns:cc="http://creativecommons.org/ns#" xmlns:rdf="http://www.w3.org/1999/02/22-rdf-syntax-ns#">
   <cc:Work>
    <dc:type rdf:resource="http://purl.org/dc/dcmitype/StillImage"/>
    <dc:date>2023-11-02T17:18:45.572993</dc:date>
    <dc:format>image/svg+xml</dc:format>
    <dc:creator>
     <cc:Agent>
      <dc:title>Matplotlib v3.7.1, https://matplotlib.org/</dc:title>
     </cc:Agent>
    </dc:creator>
   </cc:Work>
  </rdf:RDF>
 </metadata>
 <defs>
  <style type="text/css">*{stroke-linejoin: round; stroke-linecap: butt}</style>
 </defs>
 <g id="figure_1">
  <g id="patch_1">
   <path d="M 0 864 
L 1080 864 
L 1080 0 
L 0 0 
z
" style="fill: #ffffff"/>
  </g>
  <g id="axes_1">
   <g id="patch_2">
    <path d="M 140.4 777.6 
L 1047.6 777.6 
L 1047.6 17.28 
L 140.4 17.28 
z
" style="fill: #ffffff"/>
   </g>
   <g id="matplotlib.axis_1">
    <g id="xtick_1">
     <g id="line2d_1">
      <defs>
       <path id="m8c87720d54" d="M 0 0 
L 0 3.5 
" style="stroke: #000000; stroke-width: 0.8"/>
      </defs>
      <g>
       <use xlink:href="#m8c87720d54" x="140.4" y="777.6" style="stroke: #000000; stroke-width: 0.8"/>
      </g>
     </g>
     <g id="text_1">
      <!-- 0 -->
      <g transform="translate(130.4 813.19375) scale(0.4 -0.4)">
       <defs>
        <path id="SimSun-30" d="M 1600 4225 
Q 1250 4225 1012 3687 
Q 775 3150 775 2250 
Q 775 1300 1012 775 
Q 1250 250 1600 250 
Q 1975 250 2187 775 
Q 2400 1300 2400 2250 
Q 2400 3150 2200 3687 
Q 2000 4225 1600 4225 
z
M 1600 50 
Q 1050 50 675 625 
Q 300 1200 300 2250 
Q 300 3225 662 3825 
Q 1025 4425 1600 4425 
Q 2150 4425 2512 3850 
Q 2875 3275 2875 2250 
Q 2875 1225 2512 637 
Q 2150 50 1600 50 
z
" transform="scale(0.015625)"/>
       </defs>
       <use xlink:href="#SimSun-30"/>
      </g>
     </g>
    </g>
    <g id="xtick_2">
     <g id="line2d_2">
      <g>
       <use xlink:href="#m8c87720d54" x="231.12" y="777.6" style="stroke: #000000; stroke-width: 0.8"/>
      </g>
     </g>
     <g id="text_2">
      <!-- 10 -->
      <g transform="translate(211.12 813.19375) scale(0.4 -0.4)">
       <defs>
        <path id="SimSun-31" d="M 1825 4450 
L 1825 650 
Q 1825 450 1950 350 
Q 2075 250 2300 250 
L 2550 250 
L 2550 100 
L 725 100 
L 725 250 
L 950 250 
Q 1200 250 1312 350 
Q 1425 450 1425 650 
L 1425 3675 
Q 1425 3775 1362 3837 
Q 1300 3900 1175 3900 
L 725 3900 
L 725 4050 
L 950 4050 
Q 1250 4050 1437 4150 
Q 1625 4250 1725 4450 
L 1825 4450 
z
" transform="scale(0.015625)"/>
       </defs>
       <use xlink:href="#SimSun-31"/>
       <use xlink:href="#SimSun-30" x="50"/>
      </g>
     </g>
    </g>
    <g id="xtick_3">
     <g id="line2d_3">
      <g>
       <use xlink:href="#m8c87720d54" x="321.84" y="777.6" style="stroke: #000000; stroke-width: 0.8"/>
      </g>
     </g>
     <g id="text_3">
      <!-- 20 -->
      <g transform="translate(301.84 813.19375) scale(0.4 -0.4)">
       <defs>
        <path id="SimSun-32" d="M 2325 3325 
Q 2325 3775 2125 4012 
Q 1925 4250 1525 4250 
Q 1225 4250 1012 4087 
Q 800 3925 800 3675 
Q 800 3525 900 3425 
Q 975 3325 975 3225 
Q 975 3100 912 3037 
Q 850 2975 725 2975 
Q 575 2975 487 3062 
Q 400 3150 400 3350 
Q 400 3875 775 4150 
Q 1150 4425 1575 4425 
Q 2175 4425 2462 4125 
Q 2750 3825 2750 3375 
Q 2750 3075 2612 2775 
Q 2475 2475 2175 2200 
Q 1450 1500 1062 1062 
Q 675 625 600 475 
L 2075 475 
Q 2300 475 2450 650 
Q 2600 825 2650 1175 
L 2800 1175 
L 2650 100 
L 325 100 
L 325 425 
Q 450 650 737 1000 
Q 1025 1350 1500 1825 
Q 1925 2250 2125 2625 
Q 2325 3000 2325 3325 
z
" transform="scale(0.015625)"/>
       </defs>
       <use xlink:href="#SimSun-32"/>
       <use xlink:href="#SimSun-30" x="50"/>
      </g>
     </g>
    </g>
    <g id="xtick_4">
     <g id="line2d_4">
      <g>
       <use xlink:href="#m8c87720d54" x="412.56" y="777.6" style="stroke: #000000; stroke-width: 0.8"/>
      </g>
     </g>
     <g id="text_4">
      <!-- 30 -->
      <g transform="translate(392.56 813.19375) scale(0.4 -0.4)">
       <defs>
        <path id="SimSun-33" d="M 2800 1250 
Q 2800 775 2450 412 
Q 2100 50 1475 50 
Q 1025 50 700 300 
Q 375 550 375 875 
Q 375 1025 475 1137 
Q 575 1250 675 1250 
Q 825 1250 887 1137 
Q 950 1025 950 950 
Q 950 825 900 750 
Q 850 650 850 575 
Q 850 425 1037 325 
Q 1225 225 1450 225 
Q 1900 225 2125 487 
Q 2350 750 2350 1300 
Q 2350 1750 2112 2025 
Q 1875 2300 1225 2300 
L 1225 2475 
Q 1725 2475 1962 2712 
Q 2200 2950 2200 3375 
Q 2200 3725 2012 3987 
Q 1825 4250 1425 4250 
Q 1250 4250 1050 4162 
Q 850 4075 850 3875 
Q 850 3675 900 3625 
Q 950 3575 950 3500 
Q 950 3375 900 3300 
Q 850 3225 725 3225 
Q 625 3225 537 3300 
Q 450 3375 450 3575 
Q 450 3950 775 4187 
Q 1100 4425 1525 4425 
Q 2025 4425 2325 4112 
Q 2625 3800 2625 3450 
Q 2625 3075 2437 2812 
Q 2250 2550 1850 2425 
Q 2400 2225 2600 1900 
Q 2800 1575 2800 1250 
z
" transform="scale(0.015625)"/>
       </defs>
       <use xlink:href="#SimSun-33"/>
       <use xlink:href="#SimSun-30" x="50"/>
      </g>
     </g>
    </g>
    <g id="xtick_5">
     <g id="line2d_5">
      <g>
       <use xlink:href="#m8c87720d54" x="503.28" y="777.6" style="stroke: #000000; stroke-width: 0.8"/>
      </g>
     </g>
     <g id="text_5">
      <!-- 40 -->
      <g transform="translate(483.28 813.19375) scale(0.4 -0.4)">
       <defs>
        <path id="SimSun-34" d="M 2300 575 
Q 2300 400 2400 325 
Q 2500 250 2675 250 
L 2900 250 
L 2900 100 
L 1250 100 
L 1250 250 
L 1525 250 
Q 1725 250 1812 325 
Q 1900 400 1900 575 
L 1900 1400 
L 225 1400 
L 225 1525 
L 2050 4425 
L 2300 4425 
L 2300 1550 
L 2975 1550 
L 2975 1400 
L 2300 1400 
L 2300 575 
z
M 1875 3800 
L 450 1550 
L 1900 1550 
L 1900 3800 
L 1875 3800 
z
" transform="scale(0.015625)"/>
       </defs>
       <use xlink:href="#SimSun-34"/>
       <use xlink:href="#SimSun-30" x="50"/>
      </g>
     </g>
    </g>
    <g id="xtick_6">
     <g id="line2d_6">
      <g>
       <use xlink:href="#m8c87720d54" x="594" y="777.6" style="stroke: #000000; stroke-width: 0.8"/>
      </g>
     </g>
     <g id="text_6">
      <!-- 50 -->
      <g transform="translate(574 813.19375) scale(0.4 -0.4)">
       <defs>
        <path id="SimSun-35" d="M 1725 2850 
Q 2200 2850 2500 2487 
Q 2800 2125 2800 1525 
Q 2800 850 2487 450 
Q 2175 50 1525 50 
Q 1075 50 725 312 
Q 375 575 375 950 
Q 375 1100 462 1212 
Q 550 1325 700 1325 
Q 850 1325 900 1225 
Q 950 1125 950 1050 
Q 950 900 875 825 
Q 800 725 800 625 
Q 800 425 1037 325 
Q 1275 225 1550 225 
Q 1950 225 2162 550 
Q 2375 875 2375 1475 
Q 2375 1975 2187 2287 
Q 2000 2600 1625 2600 
Q 1350 2600 1150 2500 
Q 950 2400 775 2075 
L 550 2100 
L 675 4375 
L 2725 4375 
L 2650 4000 
L 850 4000 
L 750 2350 
Q 1000 2700 1237 2775 
Q 1475 2850 1725 2850 
z
" transform="scale(0.015625)"/>
       </defs>
       <use xlink:href="#SimSun-35"/>
       <use xlink:href="#SimSun-30" x="50"/>
      </g>
     </g>
    </g>
    <g id="xtick_7">
     <g id="line2d_7">
      <g>
       <use xlink:href="#m8c87720d54" x="684.72" y="777.6" style="stroke: #000000; stroke-width: 0.8"/>
      </g>
     </g>
     <g id="text_7">
      <!-- 60 -->
      <g transform="translate(664.72 813.19375) scale(0.4 -0.4)">
       <defs>
        <path id="SimSun-36" d="M 775 1800 
Q 775 1050 1037 637 
Q 1300 225 1675 225 
Q 2050 225 2250 500 
Q 2450 775 2450 1525 
Q 2450 2025 2237 2300 
Q 2025 2575 1725 2575 
Q 1450 2575 1212 2412 
Q 975 2250 775 1800 
z
M 1750 2825 
Q 2350 2825 2612 2425 
Q 2875 2025 2875 1525 
Q 2875 775 2512 412 
Q 2150 50 1675 50 
Q 1000 50 650 562 
Q 300 1075 300 2050 
Q 300 3200 725 3812 
Q 1150 4425 1875 4425 
Q 2225 4425 2437 4225 
Q 2650 4025 2650 3875 
Q 2650 3725 2587 3650 
Q 2525 3575 2375 3575 
Q 2250 3575 2187 3637 
Q 2125 3700 2125 3825 
Q 2125 3875 2150 3925 
Q 2150 3975 2150 4025 
Q 2150 4125 2075 4187 
Q 2000 4250 1800 4250 
Q 1375 4250 1075 3862 
Q 775 3475 775 2175 
Q 925 2500 1187 2662 
Q 1450 2825 1750 2825 
z
" transform="scale(0.015625)"/>
       </defs>
       <use xlink:href="#SimSun-36"/>
       <use xlink:href="#SimSun-30" x="50"/>
      </g>
     </g>
    </g>
    <g id="xtick_8">
     <g id="line2d_8">
      <g>
       <use xlink:href="#m8c87720d54" x="775.44" y="777.6" style="stroke: #000000; stroke-width: 0.8"/>
      </g>
     </g>
     <g id="text_8">
      <!-- 70 -->
      <g transform="translate(755.44 813.19375) scale(0.4 -0.4)">
       <defs>
        <path id="SimSun-37" d="M 2825 4200 
Q 2300 3350 1987 2537 
Q 1675 1725 1675 1125 
Q 1675 1025 1700 850 
Q 1700 650 1700 400 
Q 1700 200 1637 125 
Q 1575 50 1425 50 
Q 1300 50 1212 137 
Q 1125 225 1125 450 
Q 1125 925 1337 1625 
Q 1550 2325 2475 4000 
L 1225 4000 
Q 950 4000 787 3825 
Q 625 3650 550 3300 
L 400 3325 
L 575 4375 
L 2825 4375 
L 2825 4200 
z
" transform="scale(0.015625)"/>
       </defs>
       <use xlink:href="#SimSun-37"/>
       <use xlink:href="#SimSun-30" x="50"/>
      </g>
     </g>
    </g>
    <g id="xtick_9">
     <g id="line2d_9">
      <g>
       <use xlink:href="#m8c87720d54" x="866.16" y="777.6" style="stroke: #000000; stroke-width: 0.8"/>
      </g>
     </g>
     <g id="text_9">
      <!-- 80 -->
      <g transform="translate(846.16 813.19375) scale(0.4 -0.4)">
       <defs>
        <path id="SimSun-38" d="M 625 1125 
Q 625 725 887 475 
Q 1150 225 1550 225 
Q 2025 225 2237 475 
Q 2450 725 2450 1100 
Q 2450 1425 2150 1725 
Q 1850 2025 1250 2275 
Q 950 2075 787 1775 
Q 625 1475 625 1125 
z
M 2825 1175 
Q 2825 700 2475 375 
Q 2125 50 1550 50 
Q 1025 50 650 375 
Q 275 700 275 1125 
Q 275 1550 487 1850 
Q 700 2150 1100 2375 
Q 750 2550 562 2812 
Q 375 3075 375 3400 
Q 375 3825 700 4125 
Q 1025 4425 1600 4425 
Q 2125 4425 2450 4125 
Q 2775 3825 2775 3400 
Q 2775 3100 2587 2837 
Q 2400 2575 2000 2375 
Q 2425 2125 2625 1825 
Q 2825 1525 2825 1175 
z
M 2425 3375 
Q 2425 3725 2225 3987 
Q 2025 4250 1600 4250 
Q 1125 4250 925 4000 
Q 725 3750 725 3475 
Q 725 3200 1012 2937 
Q 1300 2675 1825 2475 
Q 2125 2625 2275 2850 
Q 2425 3075 2425 3375 
z
" transform="scale(0.015625)"/>
       </defs>
       <use xlink:href="#SimSun-38"/>
       <use xlink:href="#SimSun-30" x="50"/>
      </g>
     </g>
    </g>
    <g id="xtick_10">
     <g id="line2d_10">
      <g>
       <use xlink:href="#m8c87720d54" x="956.88" y="777.6" style="stroke: #000000; stroke-width: 0.8"/>
      </g>
     </g>
     <g id="text_10">
      <!-- 90 -->
      <g transform="translate(936.88 813.19375) scale(0.4 -0.4)">
       <defs>
        <path id="SimSun-39" d="M 700 3050 
Q 700 2500 912 2212 
Q 1125 1925 1450 1925 
Q 1825 1925 2100 2275 
Q 2375 2625 2375 2925 
Q 2375 3525 2175 3887 
Q 1975 4250 1525 4250 
Q 1100 4250 900 3912 
Q 700 3575 700 3050 
z
M 1375 1700 
Q 875 1700 575 2012 
Q 275 2325 275 3025 
Q 275 3625 600 4025 
Q 925 4425 1525 4425 
Q 2150 4425 2500 3925 
Q 2850 3425 2850 2475 
Q 2850 1425 2437 737 
Q 2025 50 1300 50 
Q 975 50 737 200 
Q 500 350 500 600 
Q 500 700 562 800 
Q 625 900 775 900 
Q 925 900 975 787 
Q 1025 675 1025 525 
Q 1025 425 1050 362 
Q 1075 300 1100 275 
Q 1125 250 1187 237 
Q 1250 225 1325 225 
Q 1775 225 2050 725 
Q 2325 1225 2375 2400 
Q 2250 2100 2000 1900 
Q 1750 1700 1375 1700 
z
" transform="scale(0.015625)"/>
       </defs>
       <use xlink:href="#SimSun-39"/>
       <use xlink:href="#SimSun-30" x="50"/>
      </g>
     </g>
    </g>
    <g id="xtick_11">
     <g id="line2d_11">
      <g>
       <use xlink:href="#m8c87720d54" x="1047.6" y="777.6" style="stroke: #000000; stroke-width: 0.8"/>
      </g>
     </g>
     <g id="text_11">
      <!-- 100 -->
      <g transform="translate(1017.6 813.19375) scale(0.4 -0.4)">
       <use xlink:href="#SimSun-31"/>
       <use xlink:href="#SimSun-30" x="50"/>
       <use xlink:href="#SimSun-30" x="100"/>
      </g>
     </g>
    </g>
    <g id="text_12">
     <!-- $\mathrm{\ Load\ Factor}$ $\mathrm{(\%)}$ -->
     <g transform="translate(418.75 857.85) scale(0.5 -0.5)">
      <defs>
       <path id="STIXGeneral-Regular-4c" d="M 3827 1114 
L 3520 0 
L 77 0 
L 77 122 
Q 429 141 531 256 
Q 634 371 634 736 
L 634 3494 
Q 634 3872 541 3981 
Q 448 4090 77 4115 
L 77 4237 
L 1888 4237 
L 1888 4115 
Q 1498 4090 1392 3984 
Q 1286 3878 1286 3507 
L 1286 538 
Q 1286 358 1398 304 
Q 1510 250 1862 250 
L 2310 250 
Q 3085 250 3392 640 
Q 3520 813 3661 1114 
L 3827 1114 
z
" transform="scale(0.015625)"/>
       <path id="STIXGeneral-Regular-6f" d="M 3008 1478 
Q 3008 806 2608 371 
Q 2208 -64 1568 -64 
Q 979 -64 582 368 
Q 186 800 186 1459 
Q 186 2125 582 2534 
Q 979 2944 1626 2944 
Q 2221 2944 2614 2537 
Q 3008 2131 3008 1478 
z
M 2432 1306 
Q 2432 2035 2112 2445 
Q 1856 2765 1504 2765 
Q 1171 2765 966 2493 
Q 762 2221 762 1747 
Q 762 928 1101 435 
Q 1318 115 1677 115 
Q 2029 115 2230 432 
Q 2432 749 2432 1306 
z
" transform="scale(0.015625)"/>
       <path id="STIXGeneral-Regular-61" d="M 2829 422 
L 2829 243 
Q 2586 -64 2253 -64 
Q 1888 -64 1843 403 
L 1837 403 
Q 1427 -64 909 -64 
Q 608 -64 422 112 
Q 237 288 237 602 
Q 237 1050 685 1350 
Q 992 1555 1837 1869 
L 1837 2214 
Q 1837 2502 1699 2646 
Q 1562 2790 1338 2790 
Q 1146 2790 1018 2697 
Q 890 2605 890 2477 
Q 890 2419 909 2348 
Q 928 2278 928 2208 
Q 928 2112 841 2029 
Q 755 1946 634 1946 
Q 525 1946 441 2029 
Q 358 2112 358 2240 
Q 358 2547 685 2752 
Q 986 2944 1421 2944 
Q 1939 2944 2176 2656 
Q 2291 2522 2323 2384 
Q 2355 2246 2355 1946 
L 2355 723 
Q 2355 301 2554 301 
Q 2682 301 2829 422 
z
M 1837 813 
L 1837 1715 
Q 1248 1510 1018 1293 
Q 800 1094 800 800 
Q 800 557 921 432 
Q 1043 307 1242 307 
Q 1453 307 1613 410 
Q 1747 506 1792 589 
Q 1837 672 1837 813 
z
" transform="scale(0.015625)"/>
       <path id="STIXGeneral-Regular-64" d="M 3142 269 
L 2202 -64 
L 2176 -45 
L 2176 365 
Q 1869 -64 1357 -64 
Q 826 -64 499 317 
Q 173 698 173 1312 
Q 173 1990 563 2467 
Q 954 2944 1504 2944 
Q 1850 2944 2176 2669 
L 2176 3667 
Q 2176 3866 2118 3930 
Q 2061 3994 1882 3994 
Q 1792 3994 1741 3987 
L 1741 4090 
Q 2323 4243 2682 4371 
L 2714 4358 
L 2714 730 
Q 2714 506 2768 435 
Q 2822 365 2995 365 
Q 3034 365 3142 371 
L 3142 269 
z
M 2176 653 
L 2176 2125 
Q 2176 2381 1981 2573 
Q 1786 2765 1523 2765 
Q 1158 2765 940 2438 
Q 723 2112 723 1568 
Q 723 979 963 624 
Q 1203 269 1606 269 
Q 1907 269 2080 474 
Q 2176 582 2176 653 
z
" transform="scale(0.015625)"/>
       <path id="STIXGeneral-Regular-46" d="M 3494 3322 
L 3334 3322 
Q 3264 3757 3094 3875 
Q 2925 3994 2349 3994 
L 1504 3994 
Q 1370 3994 1328 3946 
Q 1286 3898 1286 3744 
L 1286 2355 
L 2195 2355 
Q 2598 2355 2736 2470 
Q 2874 2586 2918 2963 
L 3066 2963 
L 3066 1472 
L 2918 1472 
Q 2880 1862 2745 1977 
Q 2611 2093 2195 2093 
L 1286 2093 
L 1286 717 
Q 1286 352 1392 246 
Q 1498 141 1869 122 
L 1869 0 
L 70 0 
L 70 122 
Q 435 147 534 259 
Q 634 371 634 787 
L 634 3526 
Q 634 3878 538 3984 
Q 442 4090 77 4115 
L 77 4237 
L 3462 4237 
L 3494 3322 
z
" transform="scale(0.015625)"/>
       <path id="STIXGeneral-Regular-63" d="M 2547 998 
L 2637 941 
Q 2362 403 2112 205 
Q 1786 -64 1376 -64 
Q 845 -64 502 336 
Q 160 736 160 1357 
Q 160 2170 698 2618 
Q 1094 2944 1562 2944 
Q 1965 2944 2256 2749 
Q 2547 2554 2547 2285 
Q 2547 2176 2457 2096 
Q 2368 2016 2246 2016 
Q 2022 2016 1939 2310 
L 1901 2451 
Q 1850 2630 1773 2694 
Q 1696 2758 1523 2758 
Q 1133 2758 893 2451 
Q 653 2144 653 1645 
Q 653 1094 928 745 
Q 1203 397 1645 397 
Q 1920 397 2118 528 
Q 2317 659 2547 998 
z
" transform="scale(0.015625)"/>
       <path id="STIXGeneral-Regular-74" d="M 1702 493 
L 1786 422 
Q 1478 -64 1011 -64 
Q 448 -64 448 749 
L 448 2675 
L 109 2675 
Q 83 2694 83 2720 
Q 83 2771 192 2842 
Q 435 2982 813 3526 
Q 826 3546 874 3606 
Q 922 3667 941 3706 
Q 986 3706 986 3622 
L 986 2880 
L 1632 2880 
L 1632 2675 
L 986 2675 
L 986 845 
Q 986 538 1062 403 
Q 1139 269 1318 269 
Q 1510 269 1702 493 
z
" transform="scale(0.015625)"/>
       <path id="STIXGeneral-Regular-72" d="M 1024 2931 
L 1024 2342 
Q 1267 2688 1430 2816 
Q 1594 2944 1792 2944 
Q 1958 2944 2051 2854 
Q 2144 2765 2144 2605 
Q 2144 2470 2077 2393 
Q 2010 2317 1894 2317 
Q 1773 2317 1638 2445 
Q 1536 2541 1472 2541 
Q 1338 2541 1181 2355 
Q 1024 2170 1024 2016 
L 1024 576 
Q 1024 301 1133 205 
Q 1242 109 1568 96 
L 1568 0 
L 32 0 
L 32 96 
Q 339 154 412 224 
Q 486 294 486 538 
L 486 2138 
Q 486 2349 438 2435 
Q 390 2522 269 2522 
Q 166 2522 45 2496 
L 45 2598 
Q 448 2726 992 2944 
L 1024 2931 
z
" transform="scale(0.015625)"/>
       <path id="SimSun-20" d="M 0 0 
Q 0 0 0 0 
z
" transform="scale(0.015625)"/>
       <path id="STIXGeneral-Regular-28" d="M 1946 -1030 
L 1869 -1133 
Q 1126 -710 716 32 
Q 307 774 307 1613 
Q 307 3386 1888 4326 
L 1946 4224 
Q 1293 3667 1075 3126 
Q 858 2586 858 1632 
Q 858 685 1082 96 
Q 1306 -493 1946 -1030 
z
" transform="scale(0.015625)"/>
       <path id="STIXGeneral-Regular-25" d="M 4390 1363 
Q 4390 781 4070 329 
Q 3750 -122 3341 -122 
Q 3014 -122 2790 134 
Q 2566 390 2566 762 
Q 2566 1274 2940 1693 
Q 3315 2112 3776 2112 
Q 4070 2112 4230 1917 
Q 4390 1722 4390 1363 
z
M 4243 1376 
Q 4243 1626 4131 1779 
Q 4019 1933 3840 1933 
Q 3654 1933 3526 1786 
Q 3315 1562 3171 1187 
Q 3027 813 3027 486 
Q 3027 301 3129 176 
Q 3232 51 3386 51 
Q 3718 51 3980 457 
Q 4243 864 4243 1376 
z
M 3974 4518 
L 1222 -115 
L 922 -115 
L 3443 4096 
Q 3264 3891 3094 3811 
Q 2925 3731 2669 3731 
Q 2445 3731 2182 3821 
Q 2208 3674 2208 3539 
Q 2208 3206 2067 2873 
Q 1926 2541 1696 2323 
Q 1453 2086 1146 2086 
Q 826 2086 608 2339 
Q 390 2592 390 2963 
Q 390 3507 761 3916 
Q 1133 4326 1626 4326 
Q 1792 4326 2010 4147 
Q 2310 3898 2624 3898 
Q 2918 3898 3084 3994 
Q 3251 4090 3693 4518 
L 3974 4518 
z
M 2054 3642 
Q 2054 3782 2025 3833 
Q 1997 3885 1894 3936 
Q 1747 4006 1613 4154 
Q 1414 4058 1331 3984 
Q 1248 3910 1152 3750 
Q 845 3264 845 2707 
Q 845 2509 944 2384 
Q 1043 2259 1210 2259 
Q 1549 2259 1801 2675 
Q 2054 3091 2054 3642 
z
" transform="scale(0.015625)"/>
       <path id="STIXGeneral-Regular-29" d="M 186 4224 
L 262 4326 
Q 992 3891 1408 3148 
Q 1824 2406 1824 1581 
Q 1824 -166 243 -1133 
L 186 -1030 
Q 845 -486 1059 54 
Q 1274 595 1274 1562 
Q 1274 2534 1059 3120 
Q 845 3706 186 4224 
z
" transform="scale(0.015625)"/>
      </defs>
      <use xlink:href="#STIXGeneral-Regular-4c" transform="translate(24.06642 0.40625)"/>
      <use xlink:href="#STIXGeneral-Regular-6f" transform="translate(85.166411 0.40625)"/>
      <use xlink:href="#STIXGeneral-Regular-61" transform="translate(135.166395 0.40625)"/>
      <use xlink:href="#STIXGeneral-Regular-64" transform="translate(179.566389 0.40625)"/>
      <use xlink:href="#STIXGeneral-Regular-46" transform="translate(253.632794 0.40625)"/>
      <use xlink:href="#STIXGeneral-Regular-61" transform="translate(309.232785 0.40625)"/>
      <use xlink:href="#STIXGeneral-Regular-63" transform="translate(353.632779 0.40625)"/>
      <use xlink:href="#STIXGeneral-Regular-74" transform="translate(398.032773 0.40625)"/>
      <use xlink:href="#STIXGeneral-Regular-6f" transform="translate(425.83276 0.40625)"/>
      <use xlink:href="#STIXGeneral-Regular-72" transform="translate(475.832745 0.40625)"/>
      <use xlink:href="#SimSun-20" transform="translate(509.132733 0.40625)"/>
      <use xlink:href="#STIXGeneral-Regular-28" transform="translate(559.132733 0.40625)"/>
      <use xlink:href="#STIXGeneral-Regular-25" transform="translate(592.432721 0.40625)"/>
      <use xlink:href="#STIXGeneral-Regular-29" transform="translate(667.132702 0.40625)"/>
     </g>
    </g>
   </g>
   <g id="matplotlib.axis_2">
    <g id="ytick_1">
     <g id="line2d_12">
      <defs>
       <path id="m4bad12ad6f" d="M 0 0 
L -3.5 0 
" style="stroke: #000000; stroke-width: 0.8"/>
      </defs>
      <g>
       <use xlink:href="#m4bad12ad6f" x="140.4" y="777.6" style="stroke: #000000; stroke-width: 0.8"/>
      </g>
     </g>
     <g id="text_13">
      <!-- 0 -->
      <g transform="translate(113.4 791.896875) scale(0.4 -0.4)">
       <use xlink:href="#SimSun-30"/>
      </g>
     </g>
    </g>
    <g id="ytick_2">
     <g id="line2d_13">
      <g>
       <use xlink:href="#m4bad12ad6f" x="140.4" y="701.568" style="stroke: #000000; stroke-width: 0.8"/>
      </g>
     </g>
     <g id="text_14">
      <!-- 0.1 -->
      <g transform="translate(73.4 715.864875) scale(0.4 -0.4)">
       <defs>
        <path id="SimSun-2e" d="M 800 25 
Q 650 25 537 125 
Q 425 225 425 400 
Q 425 575 537 675 
Q 650 775 800 775 
Q 950 775 1062 662 
Q 1175 550 1175 400 
Q 1175 225 1062 125 
Q 950 25 800 25 
z
" transform="scale(0.015625)"/>
       </defs>
       <use xlink:href="#SimSun-30"/>
       <use xlink:href="#SimSun-2e" x="50"/>
       <use xlink:href="#SimSun-31" x="100"/>
      </g>
     </g>
    </g>
    <g id="ytick_3">
     <g id="line2d_14">
      <g>
       <use xlink:href="#m4bad12ad6f" x="140.4" y="625.536" style="stroke: #000000; stroke-width: 0.8"/>
      </g>
     </g>
     <g id="text_15">
      <!-- 0.2 -->
      <g transform="translate(73.4 639.832875) scale(0.4 -0.4)">
       <use xlink:href="#SimSun-30"/>
       <use xlink:href="#SimSun-2e" x="50"/>
       <use xlink:href="#SimSun-32" x="100"/>
      </g>
     </g>
    </g>
    <g id="ytick_4">
     <g id="line2d_15">
      <g>
       <use xlink:href="#m4bad12ad6f" x="140.4" y="549.504" style="stroke: #000000; stroke-width: 0.8"/>
      </g>
     </g>
     <g id="text_16">
      <!-- 0.3 -->
      <g transform="translate(73.4 563.800875) scale(0.4 -0.4)">
       <use xlink:href="#SimSun-30"/>
       <use xlink:href="#SimSun-2e" x="50"/>
       <use xlink:href="#SimSun-33" x="100"/>
      </g>
     </g>
    </g>
    <g id="ytick_5">
     <g id="line2d_16">
      <g>
       <use xlink:href="#m4bad12ad6f" x="140.4" y="473.472" style="stroke: #000000; stroke-width: 0.8"/>
      </g>
     </g>
     <g id="text_17">
      <!-- 0.4 -->
      <g transform="translate(73.4 487.768875) scale(0.4 -0.4)">
       <use xlink:href="#SimSun-30"/>
       <use xlink:href="#SimSun-2e" x="50"/>
       <use xlink:href="#SimSun-34" x="100"/>
      </g>
     </g>
    </g>
    <g id="ytick_6">
     <g id="line2d_17">
      <g>
       <use xlink:href="#m4bad12ad6f" x="140.4" y="397.44" style="stroke: #000000; stroke-width: 0.8"/>
      </g>
     </g>
     <g id="text_18">
      <!-- 0.5 -->
      <g transform="translate(73.4 411.736875) scale(0.4 -0.4)">
       <use xlink:href="#SimSun-30"/>
       <use xlink:href="#SimSun-2e" x="50"/>
       <use xlink:href="#SimSun-35" x="100"/>
      </g>
     </g>
    </g>
    <g id="ytick_7">
     <g id="line2d_18">
      <g>
       <use xlink:href="#m4bad12ad6f" x="140.4" y="321.408" style="stroke: #000000; stroke-width: 0.8"/>
      </g>
     </g>
     <g id="text_19">
      <!-- 0.6 -->
      <g transform="translate(73.4 335.704875) scale(0.4 -0.4)">
       <use xlink:href="#SimSun-30"/>
       <use xlink:href="#SimSun-2e" x="50"/>
       <use xlink:href="#SimSun-36" x="100"/>
      </g>
     </g>
    </g>
    <g id="ytick_8">
     <g id="line2d_19">
      <g>
       <use xlink:href="#m4bad12ad6f" x="140.4" y="245.376" style="stroke: #000000; stroke-width: 0.8"/>
      </g>
     </g>
     <g id="text_20">
      <!-- 0.7 -->
      <g transform="translate(73.4 259.672875) scale(0.4 -0.4)">
       <use xlink:href="#SimSun-30"/>
       <use xlink:href="#SimSun-2e" x="50"/>
       <use xlink:href="#SimSun-37" x="100"/>
      </g>
     </g>
    </g>
    <g id="ytick_9">
     <g id="line2d_20">
      <g>
       <use xlink:href="#m4bad12ad6f" x="140.4" y="169.344" style="stroke: #000000; stroke-width: 0.8"/>
      </g>
     </g>
     <g id="text_21">
      <!-- 0.8 -->
      <g transform="translate(73.4 183.640875) scale(0.4 -0.4)">
       <use xlink:href="#SimSun-30"/>
       <use xlink:href="#SimSun-2e" x="50"/>
       <use xlink:href="#SimSun-38" x="100"/>
      </g>
     </g>
    </g>
    <g id="ytick_10">
     <g id="line2d_21">
      <g>
       <use xlink:href="#m4bad12ad6f" x="140.4" y="93.312" style="stroke: #000000; stroke-width: 0.8"/>
      </g>
     </g>
     <g id="text_22">
      <!-- 0.9 -->
      <g transform="translate(73.4 107.608875) scale(0.4 -0.4)">
       <use xlink:href="#SimSun-30"/>
       <use xlink:href="#SimSun-2e" x="50"/>
       <use xlink:href="#SimSun-39" x="100"/>
      </g>
     </g>
    </g>
    <g id="ytick_11">
     <g id="line2d_22">
      <g>
       <use xlink:href="#m4bad12ad6f" x="140.4" y="17.28" style="stroke: #000000; stroke-width: 0.8"/>
      </g>
     </g>
     <g id="text_23">
      <!-- 1.0 -->
      <g transform="translate(73.4 31.576875) scale(0.4 -0.4)">
       <use xlink:href="#SimSun-31"/>
       <use xlink:href="#SimSun-2e" x="50"/>
       <use xlink:href="#SimSun-30" x="100"/>
      </g>
     </g>
    </g>
    <g id="text_24">
     <!-- $\mathrm{Average\ cuckoo\ path}$ -->
     <g transform="translate(58.4 609.44) rotate(-90) scale(0.5 -0.5)">
      <defs>
       <path id="STIXGeneral-Regular-41" d="M 4525 0 
L 2893 0 
L 2893 122 
Q 3149 122 3245 179 
Q 3334 224 3334 333 
Q 3334 499 3213 781 
L 2950 1382 
L 1274 1382 
L 979 653 
Q 922 506 922 384 
Q 922 237 1027 179 
Q 1133 122 1370 122 
L 1370 0 
L 96 0 
L 96 122 
Q 365 147 486 316 
Q 608 486 902 1190 
L 2221 4314 
L 2349 4314 
L 3923 710 
Q 4064 378 4176 262 
Q 4288 147 4525 122 
L 4525 0 
z
M 2861 1645 
L 2118 3405 
L 1382 1645 
L 2861 1645 
z
" transform="scale(0.015625)"/>
       <path id="STIXGeneral-Regular-76" d="M 3053 2880 
L 3053 2784 
Q 2906 2771 2835 2688 
Q 2765 2605 2637 2285 
L 1818 230 
Q 1690 -90 1638 -90 
Q 1587 -90 1523 77 
Q 1510 96 1497 141 
Q 1485 186 1472 211 
L 704 2048 
Q 499 2534 403 2652 
Q 307 2771 122 2784 
L 122 2880 
L 1376 2880 
L 1376 2784 
Q 1210 2771 1146 2732 
Q 1082 2694 1082 2611 
Q 1082 2509 1139 2368 
L 1792 730 
L 2426 2387 
Q 2464 2483 2464 2579 
Q 2464 2758 2163 2784 
L 2163 2880 
L 3053 2880 
z
" transform="scale(0.015625)"/>
       <path id="STIXGeneral-Regular-65" d="M 2611 1050 
L 2714 1005 
Q 2330 -64 1376 -64 
Q 813 -64 486 329 
Q 160 723 160 1389 
Q 160 2074 525 2509 
Q 890 2944 1485 2944 
Q 2061 2944 2374 2502 
Q 2560 2246 2592 1773 
L 621 1773 
Q 646 1370 700 1158 
Q 755 947 915 730 
Q 1184 378 1626 378 
Q 1939 378 2153 531 
Q 2368 685 2611 1050 
z
M 634 1978 
L 1939 1978 
Q 1882 2381 1750 2547 
Q 1619 2714 1312 2714 
Q 1043 2714 864 2525 
Q 685 2336 634 1978 
z
" transform="scale(0.015625)"/>
       <path id="STIXGeneral-Regular-67" d="M 3008 2483 
L 2477 2483 
Q 2598 2208 2598 1946 
Q 2598 1453 2265 1203 
Q 1933 954 1600 954 
Q 1530 954 1357 973 
L 1235 986 
Q 1107 947 979 812 
Q 851 678 851 582 
Q 851 435 1350 410 
L 2176 371 
Q 2528 358 2739 172 
Q 2950 -13 2950 -314 
Q 2950 -685 2566 -986 
Q 2035 -1395 1286 -1395 
Q 826 -1395 502 -1212 
Q 179 -1030 179 -774 
Q 179 -595 320 -419 
Q 461 -243 806 6 
Q 602 102 534 172 
Q 467 243 467 346 
Q 467 531 762 787 
Q 909 915 1037 1043 
Q 717 1203 579 1401 
Q 442 1600 442 1901 
Q 442 2336 752 2640 
Q 1062 2944 1510 2944 
Q 1766 2944 2022 2848 
L 2163 2797 
Q 2349 2733 2515 2733 
L 3008 2733 
L 3008 2483 
z
M 973 2163 
L 973 2144 
Q 973 1683 1155 1398 
Q 1338 1114 1632 1114 
Q 1850 1114 1978 1270 
Q 2106 1427 2106 1690 
Q 2106 2112 1914 2464 
Q 1754 2765 1446 2765 
Q 1222 2765 1097 2605 
Q 973 2445 973 2163 
z
M 2771 -410 
Q 2771 -230 2595 -163 
Q 2419 -96 1978 -96 
Q 1344 -96 941 -13 
Q 749 -243 688 -348 
Q 627 -454 627 -563 
Q 627 -774 880 -902 
Q 1133 -1030 1555 -1030 
Q 2099 -1030 2435 -860 
Q 2771 -691 2771 -410 
z
" transform="scale(0.015625)"/>
       <path id="STIXGeneral-Regular-75" d="M 3072 320 
L 3072 230 
Q 2573 96 2195 -58 
L 2163 -38 
L 2163 486 
L 2150 486 
Q 1747 -64 1235 -64 
Q 870 -64 662 160 
Q 454 384 454 755 
L 454 2362 
Q 454 2598 371 2688 
Q 288 2778 58 2790 
L 58 2880 
L 992 2880 
L 992 813 
Q 992 595 1123 451 
Q 1254 307 1446 307 
Q 1760 307 1984 506 
Q 2067 582 2099 649 
Q 2131 717 2131 877 
L 2131 2355 
Q 2131 2605 2041 2678 
Q 1952 2752 1658 2771 
L 1658 2880 
L 2669 2880 
L 2669 685 
Q 2669 461 2742 390 
Q 2816 320 3034 320 
L 3072 320 
z
" transform="scale(0.015625)"/>
       <path id="STIXGeneral-Regular-6b" d="M 3232 0 
L 1837 0 
L 1837 96 
L 1958 96 
Q 2093 96 2093 192 
Q 2093 250 2022 339 
L 1062 1606 
L 1062 429 
Q 1062 262 1142 185 
Q 1222 109 1414 102 
L 1542 96 
L 1542 0 
L 45 0 
L 45 96 
Q 390 154 457 214 
Q 525 275 525 525 
L 525 3610 
Q 525 3840 467 3920 
Q 410 4000 250 4000 
Q 211 4000 45 3987 
L 45 4090 
L 237 4141 
Q 621 4243 1037 4371 
L 1062 4358 
L 1062 1670 
L 1939 2451 
Q 2086 2586 2086 2675 
Q 2086 2739 2019 2761 
Q 1952 2784 1766 2790 
L 1766 2880 
L 3072 2880 
L 3072 2784 
Q 2752 2784 2505 2646 
Q 2259 2509 1690 1978 
L 1504 1805 
L 2483 563 
Q 2829 122 3232 96 
L 3232 0 
z
" transform="scale(0.015625)"/>
       <path id="STIXGeneral-Regular-70" d="M 1018 2931 
L 1018 2438 
Q 1421 2944 1939 2944 
Q 2406 2944 2707 2560 
Q 3008 2176 3008 1581 
Q 3008 883 2621 409 
Q 2234 -64 1664 -64 
Q 1466 -64 1328 -6 
Q 1190 51 1018 211 
L 1018 -794 
Q 1018 -1094 1120 -1180 
Q 1222 -1267 1581 -1274 
L 1581 -1389 
L 32 -1389 
L 32 -1280 
Q 314 -1254 397 -1171 
Q 480 -1088 480 -838 
L 480 2157 
Q 480 2381 429 2451 
Q 378 2522 218 2522 
Q 115 2522 58 2515 
L 58 2618 
Q 506 2752 979 2944 
L 1018 2931 
z
M 1018 2138 
L 1018 563 
Q 1018 422 1238 281 
Q 1459 141 1683 141 
Q 2029 141 2243 467 
Q 2458 794 2458 1325 
Q 2458 1888 2243 2224 
Q 2029 2560 1670 2560 
Q 1446 2560 1232 2419 
Q 1018 2278 1018 2138 
z
" transform="scale(0.015625)"/>
       <path id="STIXGeneral-Regular-68" d="M 3117 0 
L 1760 0 
L 1760 96 
Q 2042 128 2118 224 
Q 2195 320 2195 653 
L 2195 1920 
Q 2195 2598 1722 2598 
Q 1530 2598 1370 2508 
Q 1210 2419 1005 2195 
L 1005 653 
Q 1005 320 1081 224 
Q 1158 128 1440 96 
L 1440 0 
L 58 0 
L 58 96 
Q 333 134 400 224 
Q 467 314 467 653 
L 467 3667 
Q 467 3872 406 3933 
Q 346 3994 141 3994 
Q 83 3994 64 3987 
L 64 4090 
L 237 4141 
Q 730 4288 973 4371 
L 1005 4352 
L 1005 2406 
Q 1229 2694 1446 2819 
Q 1664 2944 1946 2944 
Q 2733 2944 2733 1926 
L 2733 653 
Q 2733 320 2793 233 
Q 2854 147 3117 96 
L 3117 0 
z
" transform="scale(0.015625)"/>
      </defs>
      <use xlink:href="#STIXGeneral-Regular-41" transform="translate(0 0.703125)"/>
      <use xlink:href="#STIXGeneral-Regular-76" transform="translate(72.199982 0.703125)"/>
      <use xlink:href="#STIXGeneral-Regular-65" transform="translate(122.199966 0.703125)"/>
      <use xlink:href="#STIXGeneral-Regular-72" transform="translate(166.59996 0.703125)"/>
      <use xlink:href="#STIXGeneral-Regular-61" transform="translate(199.899948 0.703125)"/>
      <use xlink:href="#STIXGeneral-Regular-67" transform="translate(244.299942 0.703125)"/>
      <use xlink:href="#STIXGeneral-Regular-65" transform="translate(294.299927 0.703125)"/>
      <use xlink:href="#STIXGeneral-Regular-63" transform="translate(362.766341 0.703125)"/>
      <use xlink:href="#STIXGeneral-Regular-75" transform="translate(407.166334 0.703125)"/>
      <use xlink:href="#STIXGeneral-Regular-63" transform="translate(457.166319 0.703125)"/>
      <use xlink:href="#STIXGeneral-Regular-6b" transform="translate(501.566313 0.703125)"/>
      <use xlink:href="#STIXGeneral-Regular-6f" transform="translate(551.566298 0.703125)"/>
      <use xlink:href="#STIXGeneral-Regular-6f" transform="translate(601.566283 0.703125)"/>
      <use xlink:href="#STIXGeneral-Regular-70" transform="translate(675.632687 0.703125)"/>
      <use xlink:href="#STIXGeneral-Regular-61" transform="translate(725.632672 0.703125)"/>
      <use xlink:href="#STIXGeneral-Regular-74" transform="translate(770.032666 0.703125)"/>
      <use xlink:href="#STIXGeneral-Regular-68" transform="translate(797.832654 0.703125)"/>
     </g>
    </g>
   </g>
   <g id="line2d_23">
    <path d="M 140.842714 777.6 
L 344.0664 777.6 
L 345.235781 772.429824 
L 347.582707 773.022874 
L 348.750274 773.182541 
L 349.916026 773.555098 
L 354.592642 774.513101 
L 358.083547 774.878054 
L 359.252021 772.513459 
L 360.421402 772.908826 
L 361.580803 771.023232 
L 365.066266 771.867187 
L 366.227482 768.567398 
L 368.551728 769.40375 
L 369.71113 769.647053 
L 370.868717 768.529382 
L 372.023582 768.87913 
L 373.183891 769.380941 
L 375.491808 767.73865 
L 376.646674 765.921485 
L 377.800632 765.298022 
L 380.104013 766.446106 
L 381.25525 765.039514 
L 383.554094 764.568115 
L 385.857475 762.690125 
L 387.008712 762.720538 
L 388.150877 763.412429 
L 391.590979 764.917862 
L 392.739494 763.625318 
L 396.172339 763.777382 
L 397.316318 762.712934 
L 398.456669 762.363187 
L 399.596112 762.887808 
L 401.873184 763.093094 
L 403.01172 762.903014 
L 404.14572 763.032269 
L 405.280627 762.56087 
L 406.41372 761.724518 
L 407.54772 761.914598 
L 408.682627 762.233933 
L 409.811184 762.173107 
L 410.942462 762.484838 
L 412.071019 762.454426 
L 413.210462 761.792947 
L 414.338112 761.587661 
L 415.464854 762.294758 
L 416.59069 762.157901 
L 417.716525 761.542042 
L 419.970917 761.42039 
L 421.086773 760.538419 
L 422.206258 760.500403 
L 423.323928 760.781722 
L 424.43797 760.933786 
L 425.565619 761.397581 
L 427.802774 760.629658 
L 428.920445 760.32553 
L 430.040837 760.46999 
L 431.155786 760.758912 
L 432.269827 760.150656 
L 435.600158 760.30272 
L 436.711478 760.68288 
L 437.823706 760.333133 
L 440.037274 760.926182 
L 441.139522 760.842547 
L 442.239048 760.46999 
L 443.350368 760.30272 
L 444.451709 760.584038 
L 445.5594 760.553626 
L 446.658019 760.781722 
L 447.761174 760.713293 
L 448.856165 759.884544 
L 451.059754 759.124224 
L 453.244291 758.645222 
L 454.340189 758.774477 
L 456.529262 758.074982 
L 457.622438 757.352678 
L 458.714707 757.246234 
L 460.893802 756.227405 
L 463.069267 756.014515 
L 464.153371 755.429069 
L 466.325208 754.828416 
L 467.402962 754.843622 
L 468.487066 754.311398 
L 469.560283 754.189747 
L 470.64348 753.923635 
L 471.718512 753.368602 
L 473.871298 752.539853 
L 474.949051 752.517043 
L 477.096394 751.695898 
L 478.168704 751.39177 
L 479.237386 751.612262 
L 480.30516 751.528627 
L 483.515741 750.152448 
L 484.580794 750.023194 
L 485.642218 750.007987 
L 486.711806 749.757082 
L 487.777766 749.323699 
L 488.834654 749.027174 
L 489.893357 748.434125 
L 490.954781 748.221235 
L 492.012576 747.620582 
L 493.073093 747.362074 
L 495.175075 747.1872 
L 496.234685 746.78423 
L 497.29248 746.609357 
L 498.338482 746.297626 
L 499.386298 745.514496 
L 500.443186 745.09632 
L 501.486466 744.967066 
L 503.579376 744.153523 
L 505.665936 743.864602 
L 510.859656 742.07785 
L 511.895678 741.385958 
L 513.957744 740.542003 
L 514.998302 740.230272 
L 517.059461 739.310285 
L 518.091854 739.143014 
L 520.14757 738.185011 
L 521.17452 737.934106 
L 524.254464 736.451482 
L 525.278693 736.124544 
L 526.295664 735.926861 
L 530.356291 734.550682 
L 531.372355 734.292173 
L 534.411475 733.212518 
L 538.430371 731.897165 
L 539.430106 731.448576 
L 540.427118 731.159654 
L 542.433845 730.338509 
L 544.426963 729.639014 
L 545.41944 729.213235 
L 548.393242 728.278042 
L 552.345912 726.49129 
L 553.32841 725.905843 
L 556.273181 724.628506 
L 557.261122 723.967027 
L 558.239083 723.678106 
L 559.220674 723.221914 
L 560.20045 722.621261 
L 564.095966 721.032192 
L 565.06667 720.644429 
L 567.005357 719.595187 
L 568.943136 718.926106 
L 571.836197 717.329434 
L 573.758554 716.341018 
L 574.722 715.808794 
L 575.683632 715.44384 
L 576.639821 714.698726 
L 577.599638 714.128486 
L 578.556734 713.809152 
L 588.031531 709.072358 
L 591.790061 707.224781 
L 594.591494 705.552077 
L 596.463955 704.540851 
L 598.332787 703.271117 
L 599.266296 702.647654 
L 600.201619 702.214272 
L 603.946541 699.591168 
L 604.877328 699.020928 
L 607.666061 696.808397 
L 609.525821 695.705933 
L 611.391024 694.337357 
L 613.258949 692.816717 
L 616.044053 690.703027 
L 619.762666 687.851827 
L 623.480371 684.567245 
L 625.33741 683.000986 
L 628.113442 680.438707 
L 630.882216 678.013286 
L 648.356702 661.605581 
L 650.181082 659.811226 
L 652.932619 657.195725 
L 657.505814 652.991155 
L 671.166432 639.328205 
L 674.796139 635.663462 
L 676.60691 633.777869 
L 680.227546 629.999078 
L 682.042853 628.143898 
L 685.658952 624.167424 
L 687.469723 622.395878 
L 690.176808 619.506662 
L 693.772042 615.781094 
L 703.647821 604.954138 
L 705.435912 602.825242 
L 707.223096 600.772378 
L 709.904779 597.822336 
L 718.810762 587.322317 
L 724.130582 581.346202 
L 736.48211 565.888896 
L 747.034661 552.225946 
L 752.285534 545.192986 
L 758.381918 537.095578 
L 767.061101 525.052109 
L 769.655693 521.235302 
L 775.717603 512.560051 
L 780.034061 506.120141 
L 788.62343 492.799334 
L 797.171976 479.235226 
L 800.583955 473.677286 
L 813.314693 451.704038 
L 818.382312 442.542182 
L 829.295021 422.097178 
L 840.140597 400.48128 
L 842.633582 395.356723 
L 846.761342 386.711885 
L 855.826992 366.928358 
L 865.658318 344.308838 
L 874.609661 322.556083 
L 880.263331 308.163226 
L 887.513674 288.805478 
L 893.12652 272.929997 
L 899.505043 254.150093 
L 904.246978 239.415091 
L 910.572883 218.643149 
L 913.648291 207.603302 
L 917.77968 192.875904 
L 925.972603 161.847245 
L 932.355662 135.334886 
L 936.388166 117.254477 
L 942.112598 89.548416 
L 943.24932 83.64073 
L 944.075779 80.622259 
L 945.589896 72.114278 
L 947.097662 63.902822 
L 948.288816 56.504909 
L 951.09025 40.621824 
L 952.124458 33.847373 
L 953.612266 24.427008 
L 953.984218 22.062413 
L 954.531259 19.781453 
L 956.164219 8.080128 
L 957.269189 0.598579 
L 957.413466 -1 
L 957.413466 -1 
" clip-path="url(#pdea82bcad5)" style="fill: none; stroke-dasharray: 14.8,6.4; stroke-dashoffset: 0; stroke: #ff0000; stroke-width: 4"/>
   </g>
   <g id="line2d_24">
    <path d="M 140.822755 777.6 
L 337.143557 777.6 
L 338.312938 770.559437 
L 339.482318 771.046042 
L 342.988646 771.753139 
L 344.158934 766.582963 
L 345.331037 767.039155 
L 347.671613 768.438144 
L 348.840086 768.863923 
L 350.006746 769.152845 
L 351.168869 769.59383 
L 352.339157 770.255309 
L 353.497651 770.559437 
L 354.666125 770.749517 
L 357.003979 771.365376 
L 360.497606 772.148506 
L 361.653379 767.183616 
L 362.81641 767.753856 
L 363.971275 765.723802 
L 367.461274 767.594189 
L 369.771005 765.282816 
L 370.929499 766.081152 
L 372.091622 766.719821 
L 373.251931 765.723802 
L 374.411333 764.902656 
L 375.567106 765.336038 
L 376.727414 766.020326 
L 377.879558 766.491725 
L 379.029888 767.084774 
L 381.342341 765.997517 
L 383.650258 767.077171 
L 385.944566 766.40809 
L 387.093989 765.351245 
L 388.247947 765.176371 
L 392.841101 767.191219 
L 393.98508 766.332058 
L 395.131781 766.925107 
L 396.272131 766.833869 
L 397.415203 764.187955 
L 398.553739 763.070285 
L 399.695904 763.526477 
L 400.836254 764.248781 
L 403.116955 764.552909 
L 404.255491 765.069926 
L 405.391306 765.092736 
L 406.523491 764.454067 
L 407.660213 764.986291 
L 409.936378 764.035891 
L 411.072192 763.944653 
L 412.200749 764.218368 
L 413.332027 764.12713 
L 414.46512 764.438861 
L 415.590048 763.876224 
L 416.71679 764.340019 
L 417.843533 764.241178 
L 418.968461 763.518874 
L 420.095203 763.450445 
L 421.220131 763.731763 
L 422.338709 763.53408 
L 423.458194 763.039872 
L 424.576771 763.420032 
L 425.695349 762.956237 
L 429.038381 762.979046 
L 430.157866 762.22633 
L 431.275536 761.192294 
L 433.499083 760.713293 
L 434.61131 760.462387 
L 435.723538 761.032627 
L 436.834858 760.675277 
L 439.054776 760.804531 
L 440.16156 760.32553 
L 442.375128 760.842547 
L 444.572366 760.257101 
L 445.671893 760.143053 
L 446.775955 759.679258 
L 447.880925 759.527194 
L 448.982266 759.124224 
L 450.077256 758.318285 
L 451.183133 757.83168 
L 452.277216 757.672013 
L 453.374928 757.322266 
L 454.467197 757.345075 
L 455.56763 756.919296 
L 458.846251 756.729216 
L 461.024438 756.128563 
L 462.113986 755.512704 
L 463.200811 755.55072 
L 464.285822 755.140147 
L 468.622238 754.235366 
L 469.70725 754.144128 
L 470.78591 753.725952 
L 471.862757 753.908429 
L 472.949582 753.414221 
L 474.019171 753.117696 
L 475.093296 752.577869 
L 476.171957 752.555059 
L 477.240638 752.068454 
L 478.316578 751.399373 
L 480.455755 750.44137 
L 481.526251 750.426163 
L 482.594026 749.863526 
L 484.723224 749.240064 
L 485.790091 749.293286 
L 486.845165 748.761062 
L 487.905682 748.783872 
L 488.967106 748.548173 
L 490.030344 747.894298 
L 491.089046 747.552154 
L 492.145027 746.898278 
L 497.425838 745.126733 
L 498.476376 744.959462 
L 499.523285 744.259968 
L 500.569286 744.069888 
L 502.657661 744.221952 
L 504.751478 743.674522 
L 505.795666 743.02825 
L 506.839853 742.708915 
L 507.881318 742.724122 
L 508.915526 742.275533 
L 509.951549 741.986611 
L 510.993014 741.560832 
L 512.025408 741.27191 
L 514.093824 740.503987 
L 515.127125 740.192256 
L 518.214326 738.892109 
L 519.236741 738.169805 
L 522.310334 736.968499 
L 524.350627 736.428672 
L 526.39092 735.75959 
L 529.442741 734.64192 
L 530.462434 734.170522 
L 531.47759 733.569869 
L 534.505824 732.52823 
L 535.511909 732.284928 
L 538.528349 730.931558 
L 542.520936 729.289267 
L 543.525206 729.030758 
L 549.484603 726.339226 
L 550.478894 725.723366 
L 552.446611 724.940237 
L 553.438181 724.719744 
L 555.406805 723.678106 
L 563.235034 720.401126 
L 564.212088 719.868902 
L 565.187328 719.488742 
L 572.920301 715.61111 
L 574.839029 714.698726 
L 576.755942 713.505024 
L 580.581605 711.847526 
L 581.525093 711.520589 
L 582.474024 710.950349 
L 583.427491 710.646221 
L 588.150374 708.258816 
L 591.922512 706.137523 
L 592.852392 705.863808 
L 595.646568 704.449613 
L 603.063835 700.40471 
L 609.49679 697.203763 
L 610.410341 696.542285 
L 612.224741 695.576678 
L 615.86987 693.501005 
L 618.579677 692.048794 
L 623.07576 689.516928 
L 623.965723 689.015117 
L 626.633798 687.205555 
L 635.489885 681.328282 
L 638.117136 679.784832 
L 639.857146 678.499891 
L 645.939014 674.401766 
L 649.390003 671.953536 
L 651.96373 670.220006 
L 657.084874 666.638899 
L 659.624126 664.867354 
L 660.465101 664.388352 
L 671.337893 656.298547 
L 673.815456 654.557414 
L 675.46656 653.211648 
L 677.931422 651.424896 
L 680.387213 649.410048 
L 682.823045 647.653709 
L 685.243454 645.585638 
L 687.654792 643.502362 
L 689.264165 642.118579 
L 690.86628 640.76521 
L 694.045109 637.997645 
L 696.433766 636.036019 
L 698.019552 634.743475 
L 701.949542 631.26121 
L 703.518998 629.793792 
L 705.083011 628.524058 
L 718.185701 616.206874 
L 720.460051 614.039962 
L 732.439627 601.958477 
L 752.746392 580.030848 
L 763.278984 568.040602 
L 772.239398 557.183232 
L 774.960091 553.761792 
L 777.666269 550.325146 
L 789.658546 534.442061 
L 792.92628 529.804109 
L 796.176778 525.348634 
L 798.763205 521.691494 
L 801.96925 517.099162 
L 812.683282 501.064013 
L 815.171731 497.171174 
L 824.366203 482.59584 
L 828.578333 475.441229 
L 832.755082 468.385459 
L 836.893728 461.200435 
L 846.208858 444.450586 
L 852.458558 432.77207 
L 860.301302 417.527654 
L 874.95984 386.483789 
L 881.299354 372.121344 
L 885.45433 362.351232 
L 887.002013 358.747315 
L 894.142584 341.34359 
L 904.585363 313.82761 
L 911.365776 294.675149 
L 917.53655 276.199373 
L 924.56735 253.777536 
L 928.753171 239.559552 
L 935.685086 214.263706 
L 939.798331 198.44905 
L 943.888896 181.683994 
L 948.400402 162.044928 
L 951.976584 145.477555 
L 954.763502 131.426842 
L 958.38323 112.517683 
L 962.285098 90.878976 
L 965.184509 73.589299 
L 965.943835 67.810867 
L 966.166099 67.126579 
L 967.041547 61.302528 
L 967.37449 59.918746 
L 968.654549 51.273907 
L 970.242149 40.462157 
L 971.451446 30.813696 
L 972.677074 22.450176 
L 973.098922 19.340467 
L 973.098922 19.340467 
" clip-path="url(#pdea82bcad5)" style="fill: none; stroke-dasharray: 14.8,6.4; stroke-dashoffset: 0; stroke: #0000ff; stroke-width: 4"/>
   </g>
   <g id="line2d_25">
    <path d="M 140.714798 777.6 
L 362.599589 777.6 
L 363.336235 775.113754 
L 364.805899 775.288627 
L 365.538917 775.334246 
L 366.273749 773.220557 
L 371.407594 774.15575 
L 372.139704 774.269798 
L 372.874536 772.764365 
L 374.340571 773.076096 
L 375.077218 771.798758 
L 376.545067 772.178918 
L 378.014731 770.095642 
L 380.212877 770.833152 
L 380.944987 768.886733 
L 382.412837 769.456973 
L 383.146762 768.818304 
L 384.617333 769.282099 
L 385.35035 769.472179 
L 386.082461 768.87913 
L 387.553939 769.479782 
L 389.029954 768.506573 
L 391.971096 769.525402 
L 392.703206 768.45335 
L 393.441667 768.727066 
L 394.181035 767.769062 
L 395.64707 768.194842 
L 396.383717 767.31287 
L 398.590934 768.202445 
L 400.06332 767.791872 
L 401.532984 768.28608 
L 402.266909 768.111206 
L 405.212587 769.145242 
L 406.686787 768.810701 
L 407.424341 769.061606 
L 408.16008 768.932352 
L 409.633373 767.966746 
L 410.370926 767.913523 
L 411.109387 767.50295 
L 411.848755 767.419315 
L 412.586309 766.499328 
L 413.323862 766.514534 
L 414.058694 765.883469 
L 416.267726 765.161165 
L 417.004373 764.446464 
L 417.746462 764.248781 
L 418.484016 763.815398 
L 419.223384 763.214746 
L 419.959123 762.834586 
L 420.696677 761.853773 
L 422.171784 761.777741 
L 423.65052 760.918579 
L 425.129256 760.948992 
L 425.863181 760.690483 
L 426.601642 760.987008 
L 427.337381 760.485197 
L 428.811581 760.568832 
L 429.551856 760.68288 
L 431.026056 760.46999 
L 431.765424 760.188672 
L 432.502978 760.097434 
L 433.239624 759.869338 
L 434.717453 760.188672 
L 435.458635 759.641242 
L 436.196189 759.580416 
L 436.936464 759.762893 
L 437.672203 759.694464 
L 438.410664 759.238272 
L 439.148218 759.025382 
L 439.883957 759.192653 
L 441.362693 758.439936 
L 442.101154 758.280269 
L 443.576261 758.432333 
L 444.315629 758.333491 
L 445.056811 757.907712 
L 445.79255 757.633997 
L 446.532826 757.557965 
L 447.273101 757.291853 
L 449.487576 757.291853 
L 452.444141 756.371866 
L 453.17988 756.371866 
L 453.921062 756.014515 
L 454.656802 755.786419 
L 456.133723 755.961293 
L 456.871277 755.725594 
L 457.607923 756.067738 
L 458.349106 755.778816 
L 459.087566 755.687578 
L 459.822398 755.877658 
L 460.561766 755.543117 
L 462.037781 755.406259 
L 462.775334 755.14775 
L 463.512888 755.231386 
L 464.252256 754.661146 
L 464.993438 754.668749 
L 465.730992 754.440653 
L 466.467638 753.931238 
L 467.208821 753.824794 
L 467.945467 753.589094 
L 468.682114 752.775552 
L 469.420574 752.920013 
L 470.159942 752.494234 
L 472.378954 751.855565 
L 473.113786 751.673088 
L 474.588893 750.973594 
L 476.068536 750.783514 
L 476.803368 750.813926 
L 477.542736 750.547814 
L 478.28029 750.58583 
L 479.01875 749.795098 
L 479.752675 749.460557 
L 481.96715 749.224858 
L 482.701982 748.867507 
L 483.438629 748.928333 
L 484.173461 748.761062 
L 484.911922 748.449331 
L 485.647661 748.335283 
L 486.381586 747.795456 
L 487.8576 747.92471 
L 490.063003 747.422899 
L 490.797835 747.01993 
L 491.535389 746.913485 
L 495.216806 745.522099 
L 497.421302 744.989875 
L 498.159763 744.320794 
L 498.898224 744.320794 
L 500.368795 743.910221 
L 501.104534 743.568077 
L 501.838459 743.492045 
L 503.311752 742.914202 
L 504.047491 742.876186 
L 506.25743 741.902976 
L 506.994077 741.69769 
L 507.728909 741.705293 
L 508.463741 741.347942 
L 509.19948 741.180672 
L 509.933405 741.150259 
L 512.143344 740.473574 
L 512.87364 740.078208 
L 513.607565 739.812096 
L 514.340582 739.728461 
L 518.744131 738.352282 
L 520.208352 737.865677 
L 520.944091 737.546342 
L 521.676202 737.401882 
L 522.408312 736.960896 
L 523.139515 736.70999 
L 523.872533 736.299418 
L 524.603736 736.048512 
L 525.334939 735.675955 
L 526.064328 735.455462 
L 526.795531 735.090509 
L 528.25703 734.581094 
L 531.177307 733.364582 
L 532.64425 732.938803 
L 534.109378 732.330547 
L 537.031469 731.288909 
L 538.491154 730.961971 
L 539.223264 730.520986 
L 540.682949 730.201651 
L 541.41143 729.791078 
L 545.061096 728.58217 
L 545.789578 728.065152 
L 551.613802 726.324019 
L 553.067136 725.768986 
L 553.793803 725.411635 
L 555.247138 724.879411 
L 557.425325 723.936614 
L 558.151085 723.488026 
L 563.234126 721.397146 
L 565.405056 720.089395 
L 566.130816 719.81568 
L 566.855669 719.351885 
L 573.376622 716.538701 
L 575.546645 715.428634 
L 576.271498 714.904013 
L 577.718482 714.158899 
L 578.44152 713.634278 
L 585.684605 709.726234 
L 595.119485 703.886976 
L 595.847966 703.651277 
L 596.57917 703.096243 
L 598.035226 702.229478 
L 599.491282 701.180237 
L 600.950059 700.199424 
L 602.409744 699.218611 
L 603.141854 698.595149 
L 604.602446 697.55351 
L 606.062131 696.397824 
L 609.729034 693.759514 
L 611.195976 692.626637 
L 615.600432 689.266022 
L 616.337078 688.85545 
L 618.543389 687.068698 
L 620.02031 685.935821 
L 623.703542 682.871731 
L 628.1334 679.11575 
L 642.951605 666.555264 
L 644.44032 665.194291 
L 648.157118 661.962931 
L 651.874824 658.556698 
L 654.104722 656.443008 
L 657.823334 653.356109 
L 661.549205 649.949875 
L 663.038827 648.497664 
L 666.772862 644.893747 
L 679.471848 633.16201 
L 683.211326 629.238758 
L 688.441334 624.220646 
L 692.185349 620.304998 
L 695.170037 617.278925 
L 695.918477 616.594637 
L 697.418986 615.005568 
L 698.916773 613.492531 
L 701.898739 610.382822 
L 705.627331 606.497587 
L 707.115139 605.045376 
L 708.607483 603.48672 
L 710.102549 601.928064 
L 719.062963 592.157952 
L 725.025989 585.649613 
L 730.239667 579.901594 
L 740.636179 567.812506 
L 744.351163 563.182157 
L 748.059797 558.711475 
L 750.28153 555.898291 
L 759.163018 544.637952 
L 761.381122 541.779149 
L 763.599226 538.927949 
L 766.556698 535.027507 
L 771.721387 528.02496 
L 774.672509 524.048486 
L 782.766547 512.529638 
L 784.245283 510.332314 
L 786.443429 507.199795 
L 789.37187 502.881178 
L 793.036051 497.376461 
L 801.08473 485.25696 
L 809.83921 471.510374 
L 826.500845 443.378534 
L 840.90083 417.101875 
L 847.354651 404.587008 
L 853.064568 393.06816 
L 857.336573 384.164813 
L 871.499779 353.356646 
L 881.351064 330.166886 
L 891.138845 305.426074 
L 896.00688 292.30295 
L 902.24388 274.922035 
L 909.832608 252.310118 
L 913.954925 239.468314 
L 920.797027 216.772762 
L 927.591955 192.586982 
L 932.326632 174.582605 
L 932.996146 171.951898 
L 934.027632 167.359565 
L 937.054051 155.141222 
L 938.562725 148.762138 
L 939.275784 145.22665 
L 943.942421 124.393882 
L 949.245005 98.938368 
L 953.843602 75.056717 
L 954.76441 69.749683 
L 955.257019 66.708403 
L 955.582704 64.868429 
L 955.582704 64.868429 
" clip-path="url(#pdea82bcad5)" style="fill: none; stroke: #9467bd; stroke-width: 4; stroke-linecap: square"/>
   </g>
   <g id="line2d_26">
    <path d="M 140.68849 777.6 
L 362.708453 777.6 
L 363.438749 775.12896 
L 365.62873 775.334246 
L 366.359933 773.266176 
L 372.204115 774.269798 
L 372.93169 772.779571 
L 374.393189 773.076096 
L 375.122578 771.829171 
L 376.586798 772.178918 
L 378.049205 770.095642 
L 379.514333 770.658278 
L 380.246443 770.840755 
L 380.979461 768.924749 
L 382.449125 769.525402 
L 383.182142 768.848717 
L 384.64727 769.297306 
L 385.380288 769.502592 
L 386.111491 768.909542 
L 386.844509 769.160448 
L 387.578434 768.68905 
L 388.311451 768.970368 
L 389.044469 768.521779 
L 391.980168 769.525402 
L 392.712278 768.468557 
L 393.444389 768.757478 
L 394.912238 767.981952 
L 395.645256 768.210048 
L 396.381902 767.305267 
L 397.848845 767.951539 
L 398.581862 768.202445 
L 400.053341 767.791872 
L 401.522098 768.293683 
L 402.25693 768.111206 
L 405.194443 769.145242 
L 405.933811 768.985574 
L 406.66955 769.190861 
L 408.141936 768.932352 
L 409.614322 767.966746 
L 410.346432 767.586586 
L 411.821539 767.426918 
L 412.556371 766.499328 
L 413.293018 766.484122 
L 414.028757 765.883469 
L 416.23416 765.161165 
L 416.968085 764.423654 
L 417.706546 764.225971 
L 418.443192 763.792589 
L 419.178931 763.199539 
L 419.913763 762.79657 
L 420.649502 762.051456 
L 421.387056 761.808154 
L 422.120074 761.975424 
L 422.860349 761.260723 
L 424.335456 760.918579 
L 425.07301 760.888166 
L 425.809656 760.622054 
L 426.546302 761.101056 
L 427.282949 760.416768 
L 430.224998 760.690483 
L 430.960738 760.287514 
L 431.697384 760.30272 
L 433.166141 759.793306 
L 434.635805 760.143053 
L 436.10819 759.504384 
L 436.845744 759.694464 
L 437.579669 759.626035 
L 438.317222 759.154637 
L 439.052054 758.827699 
L 439.786886 758.888525 
L 440.52444 758.827699 
L 441.264715 758.356301 
L 441.996826 758.23465 
L 444.206765 758.265062 
L 444.943411 757.717632 
L 446.415797 757.375488 
L 447.15335 757.101773 
L 449.362382 757.018138 
L 450.836582 756.698803 
L 452.308968 756.371866 
L 453.044707 756.196992 
L 453.779539 755.756006 
L 454.516186 755.581133 
L 455.252832 755.725594 
L 457.462771 755.816832 
L 458.938786 755.436672 
L 460.412078 755.565926 
L 461.148725 755.162957 
L 461.884464 755.223782 
L 462.620203 755.162957 
L 464.094403 754.683955 
L 465.56316 754.334208 
L 466.300714 753.794381 
L 467.770378 753.43703 
L 468.502488 752.69952 
L 469.23732 752.669107 
L 469.980317 752.250931 
L 473.654477 751.224499 
L 475.124141 750.547814 
L 475.861694 750.623846 
L 478.067098 750.296909 
L 478.803744 749.977574 
L 479.539483 749.30089 
L 480.273408 749.27808 
L 483.947568 748.654618 
L 484.679678 748.289664 
L 485.41451 748.145203 
L 486.147528 747.765043 
L 488.353838 747.650995 
L 492.764645 746.183578 
L 493.500384 745.83383 
L 494.234309 745.712179 
L 494.970955 745.415654 
L 495.700344 745.301606 
L 496.433362 744.997478 
L 497.169101 744.982272 
L 498.63695 744.16873 
L 500.102078 743.895014 
L 500.834189 743.461632 
L 501.567206 743.355187 
L 503.768981 742.716518 
L 504.506534 742.541645 
L 505.240459 742.017024 
L 506.703773 741.69769 
L 507.437698 741.690086 
L 508.901918 741.10464 
L 509.634029 741.089434 
L 512.571542 740.085811 
L 513.302746 739.713254 
L 515.49817 739.211443 
L 518.424797 738.321869 
L 521.351424 737.386675 
L 522.818366 736.649165 
L 524.279866 735.980083 
L 525.011976 735.812813 
L 527.196514 734.847206 
L 527.929531 734.657126 
L 528.661642 734.307379 
L 530.125862 733.463424 
L 531.588269 733.159296 
L 533.051582 732.619469 
L 535.23612 731.76791 
L 535.965509 731.631053 
L 536.693083 731.250893 
L 541.075766 729.927936 
L 541.800619 729.456538 
L 542.529101 729.236045 
L 543.260304 728.893901 
L 544.719082 728.55936 
L 546.175138 727.806643 
L 546.900898 727.753421 
L 547.630286 727.388467 
L 549.084528 727.01591 
L 549.813917 726.696576 
L 550.546934 726.567322 
L 551.275416 726.263194 
L 552.004805 726.133939 
L 552.730565 725.692954 
L 554.905123 724.92503 
L 559.975464 722.606054 
L 563.604264 721.093018 
L 564.327302 720.621619 
L 565.054877 720.302285 
L 566.497325 719.427917 
L 575.18195 715.527475 
L 578.070475 713.854771 
L 579.519274 713.124864 
L 583.126301 711.45216 
L 584.566934 710.600602 
L 586.01029 709.916314 
L 587.449109 709.140787 
L 589.60643 707.962291 
L 591.048878 707.163955 
L 594.642298 705.34679 
L 601.8246 701.606016 
L 603.260698 700.724045 
L 603.976478 700.40471 
L 606.123821 699.013325 
L 608.27207 698.002099 
L 609.704539 697.158144 
L 611.847346 695.934029 
L 613.281629 695.059661 
L 617.559077 692.710272 
L 619.698254 691.524173 
L 622.535069 689.935104 
L 623.247221 689.334451 
L 628.21777 686.376806 
L 629.635723 685.380787 
L 633.890491 682.681651 
L 635.303909 681.723648 
L 637.429478 680.431104 
L 639.553234 679.184179 
L 642.377347 677.032474 
L 645.904541 674.827546 
L 648.721397 672.729062 
L 650.82973 671.284454 
L 652.233168 670.296038 
L 654.341501 669.011098 
L 658.54728 666.061056 
L 667.632888 659.248589 
L 670.418899 657.218534 
L 677.370773 651.637786 
L 681.52847 648.140314 
L 684.298152 646.034227 
L 691.211016 640.293811 
L 696.028248 636.096845 
L 709.735133 623.863296 
L 723.333154 611.249587 
L 727.396502 607.303526 
L 728.74823 606.003379 
L 730.775822 603.980928 
L 736.839547 597.59424 
L 744.233227 589.740134 
L 746.912189 586.721664 
L 751.596062 581.62752 
L 762.899774 568.413158 
L 766.221034 564.33024 
L 768.204173 562.003661 
L 778.101725 549.564826 
L 780.728976 546.158592 
L 789.886253 534.069504 
L 802.223266 516.703795 
L 809.312126 506.234189 
L 811.241741 503.382989 
L 817.013347 494.464435 
L 826.578864 479.182003 
L 836.714102 461.831501 
L 848.651947 440.329651 
L 856.140883 425.959603 
L 866.055672 405.940378 
L 874.664093 387.53303 
L 880.777714 373.718016 
L 889.896888 352.102118 
L 896.537592 335.489126 
L 904.334069 314.724787 
L 910.881331 296.332646 
L 919.152274 271.62985 
L 922.675838 260.483558 
L 929.692123 237.187354 
L 934.921224 218.780006 
L 939.541594 201.429504 
L 942.415603 190.138752 
L 946.409098 173.616998 
L 949.824706 158.737536 
L 951.600096 150.221952 
L 954.988488 134.232422 
L 960.03252 108.49559 
L 962.957333 92.57449 
L 966.685925 70.783718 
L 969.153509 55.349222 
L 971.03867 41.617843 
L 971.03867 41.617843 
" clip-path="url(#pdea82bcad5)" style="fill: none; stroke: #ff7f0e; stroke-width: 4; stroke-linecap: square"/>
   </g>
   <g id="patch_3">
    <path d="M 140.4 777.6 
L 140.4 17.28 
" style="fill: none; stroke: #000000; stroke-width: 0.8; stroke-linejoin: miter; stroke-linecap: square"/>
   </g>
   <g id="patch_4">
    <path d="M 1047.6 777.6 
L 1047.6 17.28 
" style="fill: none; stroke: #000000; stroke-width: 0.8; stroke-linejoin: miter; stroke-linecap: square"/>
   </g>
   <g id="patch_5">
    <path d="M 140.4 777.6 
L 1047.6 777.6 
" style="fill: none; stroke: #000000; stroke-width: 0.8; stroke-linejoin: miter; stroke-linecap: square"/>
   </g>
   <g id="patch_6">
    <path d="M 140.4 17.28 
L 1047.6 17.28 
" style="fill: none; stroke: #000000; stroke-width: 0.8; stroke-linejoin: miter; stroke-linecap: square"/>
   </g>
   <g id="legend_1">
    <g id="patch_7">
     <path d="M 170.5 173.437188 
L 887.14875 173.437188 
Q 895.74875 173.437188 895.74875 164.837188 
L 895.74875 47.38 
Q 895.74875 38.78 887.14875 38.78 
L 170.5 38.78 
Q 161.9 38.78 161.9 47.38 
L 161.9 164.837188 
Q 161.9 173.437188 170.5 173.437188 
z
" style="fill: #ffffff; opacity: 0.8; stroke: #cccccc; stroke-linejoin: miter"/>
    </g>
    <g id="line2d_27">
     <path d="M 179.1 71.03 
L 222.1 71.03 
L 265.1 71.03 
" style="fill: none; stroke-dasharray: 14.8,6.4; stroke-dashoffset: 0; stroke: #ff0000; stroke-width: 4"/>
    </g>
    <g id="text_25">
     <!-- uniform_1G -->
     <g transform="translate(299.5 86.08) scale(0.43 -0.43)">
      <defs>
       <path id="TimesNewRomanPS-BoldMT-75" d="M 3038 2922 
L 3038 634 
Q 3038 300 3100 217 
Q 3163 134 3353 113 
L 3353 0 
L 2163 0 
L 2163 391 
Q 1953 141 1743 26 
Q 1534 -88 1275 -88 
Q 1028 -88 836 64 
Q 644 216 578 419 
Q 513 622 513 1128 
L 513 2288 
Q 513 2619 452 2700 
Q 391 2781 197 2806 
L 197 2922 
L 1388 2922 
L 1388 925 
Q 1388 613 1417 522 
Q 1447 431 1511 384 
Q 1575 338 1659 338 
Q 1772 338 1863 397 
Q 1988 478 2163 725 
L 2163 2288 
Q 2163 2619 2102 2700 
Q 2041 2781 1847 2806 
L 1847 2922 
L 3038 2922 
z
" transform="scale(0.015625)"/>
       <path id="TimesNewRomanPS-BoldMT-6e" d="M 1409 2922 
L 1409 2544 
Q 1634 2788 1840 2898 
Q 2047 3009 2284 3009 
Q 2569 3009 2756 2851 
Q 2944 2694 3006 2459 
Q 3056 2281 3056 1775 
L 3056 638 
Q 3056 300 3117 217 
Q 3178 134 3372 113 
L 3372 0 
L 1894 0 
L 1894 113 
Q 2059 134 2131 250 
Q 2181 328 2181 638 
L 2181 1938 
Q 2181 2297 2153 2390 
Q 2125 2484 2058 2536 
Q 1991 2588 1909 2588 
Q 1641 2588 1409 2203 
L 1409 638 
Q 1409 309 1470 221 
Q 1531 134 1697 113 
L 1697 0 
L 219 0 
L 219 113 
Q 403 131 481 231 
Q 534 300 534 638 
L 534 2288 
Q 534 2619 473 2700 
Q 413 2781 219 2806 
L 219 2922 
L 1409 2922 
z
" transform="scale(0.015625)"/>
       <path id="TimesNewRomanPS-BoldMT-69" d="M 919 4338 
Q 1122 4338 1262 4195 
Q 1403 4053 1403 3853 
Q 1403 3653 1261 3512 
Q 1119 3372 919 3372 
Q 719 3372 578 3512 
Q 438 3653 438 3853 
Q 438 4053 578 4195 
Q 719 4338 919 4338 
z
M 1356 2922 
L 1356 606 
Q 1356 297 1428 211 
Q 1500 125 1709 113 
L 1709 0 
L 131 0 
L 131 113 
Q 325 119 419 225 
Q 481 297 481 606 
L 481 2313 
Q 481 2622 409 2708 
Q 338 2794 131 2806 
L 131 2922 
L 1356 2922 
z
" transform="scale(0.015625)"/>
       <path id="TimesNewRomanPS-BoldMT-66" d="M 1497 2616 
L 1497 588 
Q 1497 294 1559 219 
Q 1659 103 1928 113 
L 1928 0 
L 206 0 
L 206 113 
Q 403 116 486 158 
Q 569 200 600 275 
Q 631 350 631 588 
L 631 2616 
L 206 2616 
L 206 2922 
L 631 2922 
L 631 3138 
L 628 3284 
Q 628 3734 958 4034 
Q 1288 4334 1850 4334 
Q 2234 4334 2420 4190 
Q 2606 4047 2606 3872 
Q 2606 3731 2490 3628 
Q 2375 3525 2184 3525 
Q 2022 3525 1926 3609 
Q 1831 3694 1831 3797 
Q 1831 3825 1850 3913 
Q 1863 3966 1863 4013 
Q 1863 4078 1825 4109 
Q 1775 4156 1703 4156 
Q 1613 4156 1552 4081 
Q 1491 4006 1491 3841 
L 1497 3294 
L 1497 2922 
L 1928 2922 
L 1928 2616 
L 1497 2616 
z
" transform="scale(0.015625)"/>
       <path id="TimesNewRomanPS-BoldMT-6f" d="M 1594 3009 
Q 1975 3009 2303 2812 
Q 2631 2616 2801 2253 
Q 2972 1891 2972 1459 
Q 2972 838 2656 419 
Q 2275 -88 1603 -88 
Q 944 -88 587 375 
Q 231 838 231 1447 
Q 231 2075 595 2542 
Q 959 3009 1594 3009 
z
M 1606 2788 
Q 1447 2788 1333 2667 
Q 1219 2547 1183 2192 
Q 1147 1838 1147 1206 
Q 1147 872 1191 581 
Q 1225 359 1337 243 
Q 1450 128 1594 128 
Q 1734 128 1828 206 
Q 1950 313 1991 503 
Q 2053 800 2053 1703 
Q 2053 2234 1993 2432 
Q 1934 2631 1819 2722 
Q 1738 2788 1606 2788 
z
" transform="scale(0.015625)"/>
       <path id="TimesNewRomanPS-BoldMT-72" d="M 1428 2922 
L 1428 2259 
Q 1719 2713 1937 2861 
Q 2156 3009 2359 3009 
Q 2534 3009 2639 2901 
Q 2744 2794 2744 2597 
Q 2744 2388 2642 2272 
Q 2541 2156 2397 2156 
Q 2231 2156 2109 2262 
Q 1988 2369 1966 2381 
Q 1934 2400 1894 2400 
Q 1803 2400 1722 2331 
Q 1594 2225 1528 2028 
Q 1428 1725 1428 1359 
L 1428 688 
L 1431 513 
Q 1431 334 1453 284 
Q 1491 200 1564 161 
Q 1638 122 1813 113 
L 1813 0 
L 234 0 
L 234 113 
Q 425 128 492 217 
Q 559 306 559 688 
L 559 2303 
Q 559 2553 534 2622 
Q 503 2709 443 2750 
Q 384 2791 234 2806 
L 234 2922 
L 1428 2922 
z
" transform="scale(0.015625)"/>
       <path id="TimesNewRomanPS-BoldMT-6d" d="M 1428 2922 
L 1428 2538 
Q 1669 2800 1873 2904 
Q 2078 3009 2322 3009 
Q 2603 3009 2793 2878 
Q 2984 2747 3088 2478 
Q 3338 2759 3567 2884 
Q 3797 3009 4047 3009 
Q 4350 3009 4529 2870 
Q 4709 2731 4779 2517 
Q 4850 2303 4850 1834 
L 4850 638 
Q 4850 300 4911 219 
Q 4972 138 5166 113 
L 5166 0 
L 3656 0 
L 3656 113 
Q 3834 128 3919 250 
Q 3975 334 3975 638 
L 3975 1894 
Q 3975 2284 3944 2390 
Q 3913 2497 3845 2548 
Q 3778 2600 3688 2600 
Q 3553 2600 3415 2501 
Q 3278 2403 3138 2206 
L 3138 638 
Q 3138 322 3191 241 
Q 3263 125 3466 113 
L 3466 0 
L 1953 0 
L 1953 113 
Q 2075 119 2145 173 
Q 2216 228 2239 304 
Q 2263 381 2263 638 
L 2263 1894 
Q 2263 2291 2231 2391 
Q 2200 2491 2126 2547 
Q 2053 2603 1969 2603 
Q 1844 2603 1741 2538 
Q 1594 2441 1428 2206 
L 1428 638 
Q 1428 328 1489 229 
Q 1550 131 1744 113 
L 1744 0 
L 238 0 
L 238 113 
Q 422 131 500 231 
Q 553 300 553 638 
L 553 2288 
Q 553 2619 492 2700 
Q 431 2781 238 2806 
L 238 2922 
L 1428 2922 
z
" transform="scale(0.015625)"/>
       <path id="TimesNewRomanPS-BoldMT-5f" d="M -59 -972 
L 3259 -972 
L 3259 -1381 
L -59 -1381 
L -59 -972 
z
" transform="scale(0.015625)"/>
       <path id="TimesNewRomanPS-BoldMT-31" d="M 2084 4325 
L 2084 859 
Q 2084 469 2118 361 
Q 2153 253 2262 184 
Q 2372 116 2613 116 
L 2709 116 
L 2709 0 
L 478 0 
L 478 116 
L 591 116 
Q 863 116 978 178 
Q 1094 241 1134 350 
Q 1175 459 1175 859 
L 1175 3056 
Q 1175 3350 1147 3423 
Q 1119 3497 1042 3548 
Q 966 3600 866 3600 
Q 706 3600 478 3500 
L 422 3613 
L 1981 4325 
L 2084 4325 
z
" transform="scale(0.015625)"/>
       <path id="TimesNewRomanPS-BoldMT-47" d="M 4416 4334 
L 4416 2841 
L 4300 2841 
Q 4091 3453 3672 3772 
Q 3253 4091 2756 4091 
Q 2281 4091 1965 3823 
Q 1650 3556 1519 3078 
Q 1388 2600 1388 2097 
Q 1388 1488 1531 1028 
Q 1675 569 1995 353 
Q 2316 138 2756 138 
Q 2909 138 3070 170 
Q 3231 203 3400 266 
L 3400 1147 
Q 3400 1397 3365 1470 
Q 3331 1544 3223 1603 
Q 3116 1663 2963 1663 
L 2853 1663 
L 2853 1778 
L 4913 1778 
L 4913 1663 
Q 4678 1647 4586 1598 
Q 4494 1550 4444 1438 
Q 4416 1378 4416 1147 
L 4416 266 
Q 4009 84 3570 -8 
Q 3131 -100 2659 -100 
Q 2056 -100 1657 64 
Q 1259 228 954 495 
Q 650 763 478 1097 
Q 259 1528 259 2063 
Q 259 3019 931 3678 
Q 1603 4338 2622 4338 
Q 2938 4338 3191 4288 
Q 3328 4263 3636 4145 
Q 3944 4028 4000 4028 
Q 4088 4028 4163 4092 
Q 4238 4156 4300 4334 
L 4416 4334 
z
" transform="scale(0.015625)"/>
      </defs>
      <use xlink:href="#TimesNewRomanPS-BoldMT-75"/>
      <use xlink:href="#TimesNewRomanPS-BoldMT-6e" x="55.615234"/>
      <use xlink:href="#TimesNewRomanPS-BoldMT-69" x="111.230469"/>
      <use xlink:href="#TimesNewRomanPS-BoldMT-66" x="139.013672"/>
      <use xlink:href="#TimesNewRomanPS-BoldMT-6f" x="172.314453"/>
      <use xlink:href="#TimesNewRomanPS-BoldMT-72" x="222.314453"/>
      <use xlink:href="#TimesNewRomanPS-BoldMT-6d" x="266.699219"/>
      <use xlink:href="#TimesNewRomanPS-BoldMT-5f" x="350"/>
      <use xlink:href="#TimesNewRomanPS-BoldMT-31" x="400"/>
      <use xlink:href="#TimesNewRomanPS-BoldMT-47" x="450"/>
     </g>
    </g>
    <g id="line2d_28">
     <path d="M 179.1 131.908594 
L 222.1 131.908594 
L 265.1 131.908594 
" style="fill: none; stroke-dasharray: 14.8,6.4; stroke-dashoffset: 0; stroke: #0000ff; stroke-width: 4"/>
    </g>
    <g id="text_26">
     <!-- uniform_2G -->
     <g transform="translate(299.5 146.958594) scale(0.43 -0.43)">
      <defs>
       <path id="TimesNewRomanPS-BoldMT-32" d="M 2650 0 
L 156 0 
L 156 69 
Q 1303 1434 1548 1906 
Q 1794 2378 1794 2828 
Q 1794 3156 1591 3373 
Q 1388 3591 1094 3591 
Q 613 3591 347 3109 
L 231 3150 
Q 400 3750 744 4037 
Q 1088 4325 1538 4325 
Q 1859 4325 2125 4175 
Q 2391 4025 2541 3764 
Q 2691 3503 2691 3275 
Q 2691 2859 2459 2431 
Q 2144 1853 1081 819 
L 1997 819 
Q 2334 819 2436 847 
Q 2538 875 2603 942 
Q 2669 1009 2775 1225 
L 2888 1225 
L 2650 0 
z
" transform="scale(0.015625)"/>
      </defs>
      <use xlink:href="#TimesNewRomanPS-BoldMT-75"/>
      <use xlink:href="#TimesNewRomanPS-BoldMT-6e" x="55.615234"/>
      <use xlink:href="#TimesNewRomanPS-BoldMT-69" x="111.230469"/>
      <use xlink:href="#TimesNewRomanPS-BoldMT-66" x="139.013672"/>
      <use xlink:href="#TimesNewRomanPS-BoldMT-6f" x="172.314453"/>
      <use xlink:href="#TimesNewRomanPS-BoldMT-72" x="222.314453"/>
      <use xlink:href="#TimesNewRomanPS-BoldMT-6d" x="266.699219"/>
      <use xlink:href="#TimesNewRomanPS-BoldMT-5f" x="350"/>
      <use xlink:href="#TimesNewRomanPS-BoldMT-32" x="400"/>
      <use xlink:href="#TimesNewRomanPS-BoldMT-47" x="450"/>
     </g>
    </g>
    <g id="line2d_29">
     <path d="M 612.439219 71.03 
L 655.439219 71.03 
L 698.439219 71.03 
" style="fill: none; stroke: #9467bd; stroke-width: 4; stroke-linecap: square"/>
    </g>
    <g id="text_27">
     <!-- zipf_1G -->
     <g transform="translate(732.839219 86.08) scale(0.43 -0.43)">
      <defs>
       <path id="TimesNewRomanPS-BoldMT-7a" d="M 2609 0 
L 66 0 
L 66 69 
L 1672 2731 
L 1203 2731 
Q 900 2731 769 2676 
Q 638 2622 556 2501 
Q 475 2381 388 2072 
L 278 2072 
L 278 2922 
L 2738 2922 
L 2738 2838 
L 1144 200 
L 1344 200 
Q 1944 200 2209 372 
Q 2475 544 2609 1000 
L 2697 1000 
L 2609 0 
z
" transform="scale(0.015625)"/>
       <path id="TimesNewRomanPS-BoldMT-70" d="M 1347 297 
L 1347 -791 
Q 1347 -1016 1383 -1097 
Q 1419 -1178 1494 -1215 
Q 1569 -1253 1788 -1253 
L 1788 -1369 
L 122 -1369 
L 122 -1253 
Q 316 -1247 409 -1144 
Q 472 -1072 472 -772 
L 472 2313 
Q 472 2622 400 2708 
Q 328 2794 122 2806 
L 122 2922 
L 1347 2922 
L 1347 2538 
Q 1500 2763 1659 2863 
Q 1888 3009 2156 3009 
Q 2478 3009 2742 2806 
Q 3006 2603 3143 2245 
Q 3281 1888 3281 1475 
Q 3281 1031 3139 664 
Q 2997 297 2726 104 
Q 2456 -88 2125 -88 
Q 1884 -88 1675 19 
Q 1519 100 1347 297 
z
M 1347 613 
Q 1616 231 1922 231 
Q 2091 231 2200 409 
Q 2363 672 2363 1409 
Q 2363 2166 2184 2444 
Q 2066 2628 1866 2628 
Q 1550 2628 1347 2172 
L 1347 613 
z
" transform="scale(0.015625)"/>
      </defs>
      <use xlink:href="#TimesNewRomanPS-BoldMT-7a"/>
      <use xlink:href="#TimesNewRomanPS-BoldMT-69" x="44.384766"/>
      <use xlink:href="#TimesNewRomanPS-BoldMT-70" x="72.167969"/>
      <use xlink:href="#TimesNewRomanPS-BoldMT-66" x="127.783203"/>
      <use xlink:href="#TimesNewRomanPS-BoldMT-5f" x="161.083984"/>
      <use xlink:href="#TimesNewRomanPS-BoldMT-31" x="211.083984"/>
      <use xlink:href="#TimesNewRomanPS-BoldMT-47" x="261.083984"/>
     </g>
    </g>
    <g id="line2d_30">
     <path d="M 612.439219 131.908594 
L 655.439219 131.908594 
L 698.439219 131.908594 
" style="fill: none; stroke: #ff7f0e; stroke-width: 4; stroke-linecap: square"/>
    </g>
    <g id="text_28">
     <!-- zipf_2G -->
     <g transform="translate(732.839219 146.958594) scale(0.43 -0.43)">
      <use xlink:href="#TimesNewRomanPS-BoldMT-7a"/>
      <use xlink:href="#TimesNewRomanPS-BoldMT-69" x="44.384766"/>
      <use xlink:href="#TimesNewRomanPS-BoldMT-70" x="72.167969"/>
      <use xlink:href="#TimesNewRomanPS-BoldMT-66" x="127.783203"/>
      <use xlink:href="#TimesNewRomanPS-BoldMT-5f" x="161.083984"/>
      <use xlink:href="#TimesNewRomanPS-BoldMT-32" x="211.083984"/>
      <use xlink:href="#TimesNewRomanPS-BoldMT-47" x="261.083984"/>
     </g>
    </g>
   </g>
  </g>
 </g>
 <defs>
  <clipPath id="pdea82bcad5">
   <rect x="140.4" y="17.28" width="907.2" height="760.32"/>
  </clipPath>
 </defs>
</svg>
