<?xml version="1.0" encoding="utf-8" standalone="no"?>
<!DOCTYPE svg PUBLIC "-//W3C//DTD SVG 1.1//EN"
  "http://www.w3.org/Graphics/SVG/1.1/DTD/svg11.dtd">
<svg xmlns:xlink="http://www.w3.org/1999/xlink" width="921.6pt" height="518.4pt" viewBox="0 0 921.6 518.4" xmlns="http://www.w3.org/2000/svg" version="1.1">
 <metadata>
  <rdf:RDF xmlns:dc="http://purl.org/dc/elements/1.1/" xmlns:cc="http://creativecommons.org/ns#" xmlns:rdf="http://www.w3.org/1999/02/22-rdf-syntax-ns#">
   <cc:Work>
    <dc:type rdf:resource="http://purl.org/dc/dcmitype/StillImage"/>
    <dc:date>2023-08-04T11:40:55.482400</dc:date>
    <dc:format>image/svg+xml</dc:format>
    <dc:creator>
     <cc:Agent>
      <dc:title>Matplotlib v3.7.1, https://matplotlib.org/</dc:title>
     </cc:Agent>
    </dc:creator>
   </cc:Work>
  </rdf:RDF>
 </metadata>
 <defs>
  <style type="text/css">*{stroke-linejoin: round; stroke-linecap: butt}</style>
 </defs>
 <g id="figure_1">
  <g id="patch_1">
   <path d="M 0 518.4 
L 921.6 518.4 
L 921.6 0 
L 0 0 
z
" style="fill: #ffffff"/>
  </g>
  <g id="axes_1">
   <g id="patch_2">
    <path d="M 115.2 461.376 
L 829.44 461.376 
L 829.44 62.208 
L 115.2 62.208 
z
" style="fill: #ffffff"/>
   </g>
   <g id="matplotlib.axis_1">
    <g id="xtick_1">
     <g id="line2d_1">
      <defs>
       <path id="mf84ac8d0d2" d="M 0 0 
L 0 3.5 
" style="stroke: #000000; stroke-width: 0.8"/>
      </defs>
      <g>
       <use xlink:href="#mf84ac8d0d2" x="115.2" y="461.376" style="stroke: #000000; stroke-width: 0.8"/>
      </g>
     </g>
     <g id="text_1">
      <!-- 0 -->
      <g transform="translate(110.45 481.958031) scale(0.19 -0.19)">
       <defs>
        <path id="SimSun-30" d="M 1600 4225 
Q 1250 4225 1012 3687 
Q 775 3150 775 2250 
Q 775 1300 1012 775 
Q 1250 250 1600 250 
Q 1975 250 2187 775 
Q 2400 1300 2400 2250 
Q 2400 3150 2200 3687 
Q 2000 4225 1600 4225 
z
M 1600 50 
Q 1050 50 675 625 
Q 300 1200 300 2250 
Q 300 3225 662 3825 
Q 1025 4425 1600 4425 
Q 2150 4425 2512 3850 
Q 2875 3275 2875 2250 
Q 2875 1225 2512 637 
Q 2150 50 1600 50 
z
" transform="scale(0.015625)"/>
       </defs>
       <use xlink:href="#SimSun-30"/>
      </g>
     </g>
    </g>
    <g id="xtick_2">
     <g id="line2d_2">
      <g>
       <use xlink:href="#mf84ac8d0d2" x="234.24" y="461.376" style="stroke: #000000; stroke-width: 0.8"/>
      </g>
     </g>
     <g id="text_2">
      <!-- 50 -->
      <g transform="translate(224.74 481.958031) scale(0.19 -0.19)">
       <defs>
        <path id="SimSun-35" d="M 1725 2850 
Q 2200 2850 2500 2487 
Q 2800 2125 2800 1525 
Q 2800 850 2487 450 
Q 2175 50 1525 50 
Q 1075 50 725 312 
Q 375 575 375 950 
Q 375 1100 462 1212 
Q 550 1325 700 1325 
Q 850 1325 900 1225 
Q 950 1125 950 1050 
Q 950 900 875 825 
Q 800 725 800 625 
Q 800 425 1037 325 
Q 1275 225 1550 225 
Q 1950 225 2162 550 
Q 2375 875 2375 1475 
Q 2375 1975 2187 2287 
Q 2000 2600 1625 2600 
Q 1350 2600 1150 2500 
Q 950 2400 775 2075 
L 550 2100 
L 675 4375 
L 2725 4375 
L 2650 4000 
L 850 4000 
L 750 2350 
Q 1000 2700 1237 2775 
Q 1475 2850 1725 2850 
z
" transform="scale(0.015625)"/>
       </defs>
       <use xlink:href="#SimSun-35"/>
       <use xlink:href="#SimSun-30" x="50"/>
      </g>
     </g>
    </g>
    <g id="xtick_3">
     <g id="line2d_3">
      <g>
       <use xlink:href="#mf84ac8d0d2" x="353.28" y="461.376" style="stroke: #000000; stroke-width: 0.8"/>
      </g>
     </g>
     <g id="text_3">
      <!-- 100 -->
      <g transform="translate(339.03 481.958031) scale(0.19 -0.19)">
       <defs>
        <path id="SimSun-31" d="M 1825 4450 
L 1825 650 
Q 1825 450 1950 350 
Q 2075 250 2300 250 
L 2550 250 
L 2550 100 
L 725 100 
L 725 250 
L 950 250 
Q 1200 250 1312 350 
Q 1425 450 1425 650 
L 1425 3675 
Q 1425 3775 1362 3837 
Q 1300 3900 1175 3900 
L 725 3900 
L 725 4050 
L 950 4050 
Q 1250 4050 1437 4150 
Q 1625 4250 1725 4450 
L 1825 4450 
z
" transform="scale(0.015625)"/>
       </defs>
       <use xlink:href="#SimSun-31"/>
       <use xlink:href="#SimSun-30" x="50"/>
       <use xlink:href="#SimSun-30" x="100"/>
      </g>
     </g>
    </g>
    <g id="xtick_4">
     <g id="line2d_4">
      <g>
       <use xlink:href="#mf84ac8d0d2" x="472.32" y="461.376" style="stroke: #000000; stroke-width: 0.8"/>
      </g>
     </g>
     <g id="text_4">
      <!-- 150 -->
      <g transform="translate(458.07 481.958031) scale(0.19 -0.19)">
       <use xlink:href="#SimSun-31"/>
       <use xlink:href="#SimSun-35" x="50"/>
       <use xlink:href="#SimSun-30" x="100"/>
      </g>
     </g>
    </g>
    <g id="xtick_5">
     <g id="line2d_5">
      <g>
       <use xlink:href="#mf84ac8d0d2" x="591.36" y="461.376" style="stroke: #000000; stroke-width: 0.8"/>
      </g>
     </g>
     <g id="text_5">
      <!-- 200 -->
      <g transform="translate(577.11 481.958031) scale(0.19 -0.19)">
       <defs>
        <path id="SimSun-32" d="M 2325 3325 
Q 2325 3775 2125 4012 
Q 1925 4250 1525 4250 
Q 1225 4250 1012 4087 
Q 800 3925 800 3675 
Q 800 3525 900 3425 
Q 975 3325 975 3225 
Q 975 3100 912 3037 
Q 850 2975 725 2975 
Q 575 2975 487 3062 
Q 400 3150 400 3350 
Q 400 3875 775 4150 
Q 1150 4425 1575 4425 
Q 2175 4425 2462 4125 
Q 2750 3825 2750 3375 
Q 2750 3075 2612 2775 
Q 2475 2475 2175 2200 
Q 1450 1500 1062 1062 
Q 675 625 600 475 
L 2075 475 
Q 2300 475 2450 650 
Q 2600 825 2650 1175 
L 2800 1175 
L 2650 100 
L 325 100 
L 325 425 
Q 450 650 737 1000 
Q 1025 1350 1500 1825 
Q 1925 2250 2125 2625 
Q 2325 3000 2325 3325 
z
" transform="scale(0.015625)"/>
       </defs>
       <use xlink:href="#SimSun-32"/>
       <use xlink:href="#SimSun-30" x="50"/>
       <use xlink:href="#SimSun-30" x="100"/>
      </g>
     </g>
    </g>
    <g id="xtick_6">
     <g id="line2d_6">
      <g>
       <use xlink:href="#mf84ac8d0d2" x="710.4" y="461.376" style="stroke: #000000; stroke-width: 0.8"/>
      </g>
     </g>
     <g id="text_6">
      <!-- 250 -->
      <g transform="translate(696.15 481.958031) scale(0.19 -0.19)">
       <use xlink:href="#SimSun-32"/>
       <use xlink:href="#SimSun-35" x="50"/>
       <use xlink:href="#SimSun-30" x="100"/>
      </g>
     </g>
    </g>
    <g id="xtick_7">
     <g id="line2d_7">
      <g>
       <use xlink:href="#mf84ac8d0d2" x="829.44" y="461.376" style="stroke: #000000; stroke-width: 0.8"/>
      </g>
     </g>
     <g id="text_7">
      <!-- 300 -->
      <g transform="translate(815.19 481.958031) scale(0.19 -0.19)">
       <defs>
        <path id="SimSun-33" d="M 2800 1250 
Q 2800 775 2450 412 
Q 2100 50 1475 50 
Q 1025 50 700 300 
Q 375 550 375 875 
Q 375 1025 475 1137 
Q 575 1250 675 1250 
Q 825 1250 887 1137 
Q 950 1025 950 950 
Q 950 825 900 750 
Q 850 650 850 575 
Q 850 425 1037 325 
Q 1225 225 1450 225 
Q 1900 225 2125 487 
Q 2350 750 2350 1300 
Q 2350 1750 2112 2025 
Q 1875 2300 1225 2300 
L 1225 2475 
Q 1725 2475 1962 2712 
Q 2200 2950 2200 3375 
Q 2200 3725 2012 3987 
Q 1825 4250 1425 4250 
Q 1250 4250 1050 4162 
Q 850 4075 850 3875 
Q 850 3675 900 3625 
Q 950 3575 950 3500 
Q 950 3375 900 3300 
Q 850 3225 725 3225 
Q 625 3225 537 3300 
Q 450 3375 450 3575 
Q 450 3950 775 4187 
Q 1100 4425 1525 4425 
Q 2025 4425 2325 4112 
Q 2625 3800 2625 3450 
Q 2625 3075 2437 2812 
Q 2250 2550 1850 2425 
Q 2400 2225 2600 1900 
Q 2800 1575 2800 1250 
z
" transform="scale(0.015625)"/>
       </defs>
       <use xlink:href="#SimSun-33"/>
       <use xlink:href="#SimSun-30" x="50"/>
       <use xlink:href="#SimSun-30" x="100"/>
      </g>
     </g>
    </g>
    <g id="text_8">
     <!-- 请求数 $\mathrm{(M)}$ -->
     <g transform="translate(424.25 504.17725) scale(0.19 -0.19)">
      <defs>
       <path id="SimSun-8bf7" d="M 3800 4400 
Q 3800 4925 3775 5250 
L 4350 5000 
L 4150 4825 
L 4150 4400 
L 5175 4400 
L 5525 4725 
L 5950 4250 
L 4150 4250 
L 4150 3725 
L 4875 3725 
L 5200 4025 
L 5600 3575 
L 4150 3575 
L 4150 2950 
L 5325 2950 
L 5675 3275 
L 6100 2800 
L 2650 2800 
Q 2450 2800 2175 2725 
L 1950 2950 
L 3800 2950 
L 3800 3575 
L 3225 3575 
Q 3025 3575 2750 3500 
L 2525 3725 
L 3800 3725 
L 3800 4250 
L 2850 4250 
Q 2650 4250 2375 4175 
L 2150 4400 
L 3800 4400 
z
M 3075 2150 
L 3075 1650 
L 4975 1650 
L 4975 2150 
L 3075 2150 
z
M 3075 1500 
L 3075 925 
L 4975 925 
L 4975 1500 
L 3075 1500 
z
M 2725 2500 
L 3050 2300 
L 4925 2300 
L 5075 2525 
L 5475 2225 
L 5300 2075 
L 5300 50 
Q 5325 -425 4750 -600 
Q 4750 -275 4075 -125 
L 4075 -25 
Q 4500 -50 4750 -62 
Q 5000 -75 4975 175 
L 4975 775 
L 3075 775 
L 3075 -450 
L 2725 -625 
Q 2750 125 2750 1000 
Q 2750 1875 2725 2500 
z
M 850 5000 
L 925 5050 
Q 1375 4750 1512 4562 
Q 1650 4375 1600 4200 
Q 1550 4025 1450 3950 
L 1325 3875 
Q 1225 3875 1200 4150 
Q 1150 4500 850 5000 
z
M 200 3075 
L 1100 3075 
L 1300 3325 
L 1725 3000 
L 1500 2825 
L 1500 600 
L 2400 1425 
L 2475 1350 
Q 1775 525 1400 -150 
L 1050 250 
Q 1150 400 1150 600 
L 1150 2925 
L 900 2925 
Q 700 2925 425 2850 
L 200 3075 
z
" transform="scale(0.015625)"/>
       <path id="SimSun-6c42" d="M 3950 5025 
Q 4500 4825 4737 4687 
Q 4975 4550 4975 4350 
Q 4975 4300 4912 4125 
Q 4850 3950 4800 3950 
Q 4725 3950 4625 4150 
Q 4425 4475 3900 4950 
L 3950 5025 
z
M 2900 5225 
L 3500 4900 
L 3300 4700 
L 3300 3775 
L 5050 3775 
L 5400 4150 
L 5900 3625 
L 3325 3625 
Q 3650 2575 4000 2000 
Q 4725 2575 5100 3125 
L 5525 2650 
Q 5250 2600 4950 2425 
Q 4650 2225 4050 1875 
Q 4900 650 6100 375 
L 6100 275 
Q 5675 225 5525 -75 
Q 3750 900 3300 3325 
L 3300 175 
Q 3325 -425 2675 -600 
Q 2650 -250 1925 -25 
L 1925 75 
Q 2475 25 2687 25 
Q 2900 25 2925 250 
L 2925 1700 
Q 1950 1075 1387 700 
Q 825 325 700 100 
L 300 600 
Q 575 650 1225 975 
Q 1875 1300 2925 1850 
L 2925 3625 
L 1275 3625 
Q 950 3625 675 3550 
L 450 3775 
L 2925 3775 
Q 2925 4850 2900 5225 
z
M 1050 3175 
Q 1775 2900 1975 2712 
Q 2175 2525 2175 2350 
Q 2175 2250 2075 2075 
Q 1975 1900 1925 1900 
Q 1850 1900 1750 2175 
Q 1575 2575 1000 3100 
L 1050 3175 
z
" transform="scale(0.015625)"/>
       <path id="SimSun-6570" d="M 1875 1525 
Q 1675 1200 1500 900 
Q 1825 825 2275 725 
Q 2500 975 2725 1525 
L 1875 1525 
z
M 850 4900 
Q 1325 4600 1425 4450 
Q 1525 4300 1525 4225 
Q 1525 4100 1437 3975 
Q 1350 3850 1300 3850 
Q 1225 3850 1150 4100 
Q 1050 4450 775 4850 
L 850 4900 
z
M 3000 4975 
L 3450 4675 
Q 3250 4625 3100 4425 
Q 2925 4225 2525 3825 
L 2450 3875 
Q 2925 4625 3000 4975 
z
M 1875 5250 
L 2425 5000 
L 2225 4825 
L 2225 3675 
L 2850 3675 
L 3125 3950 
L 3550 3525 
L 2225 3525 
L 2225 3300 
Q 2800 3175 2937 3062 
Q 3075 2950 3075 2775 
Q 3075 2700 3050 2587 
Q 3025 2475 2975 2475 
Q 2925 2475 2800 2650 
Q 2600 2925 2225 3175 
L 2225 2400 
L 1925 2200 
L 2275 2050 
Q 2150 2000 1950 1675 
L 2725 1675 
L 2900 1900 
L 3275 1575 
L 3050 1450 
Q 2800 875 2600 650 
Q 3000 550 3137 437 
Q 3275 325 3275 150 
Q 3275 -25 3200 -25 
Q 3125 -25 3025 75 
Q 2750 275 2400 425 
Q 1525 -275 325 -500 
L 300 -425 
Q 1450 -50 2100 550 
Q 1600 725 1125 800 
Q 1225 950 1525 1525 
L 1200 1525 
Q 875 1525 600 1450 
L 375 1675 
L 1575 1675 
Q 1675 1925 1775 2275 
L 1900 2225 
L 1900 3250 
Q 1225 2475 350 2050 
L 300 2125 
Q 1225 2775 1700 3525 
L 1250 3525 
Q 925 3525 650 3450 
L 425 3675 
L 1900 3675 
Q 1900 4575 1875 5250 
z
M 3925 3525 
Q 4050 2075 4525 1100 
Q 4925 1950 5025 3525 
L 3925 3525 
z
M 4050 5250 
L 4625 4925 
Q 4425 4850 4325 4625 
Q 4225 4400 3950 3675 
L 5375 3675 
L 5675 3975 
L 6125 3525 
L 5400 3525 
Q 5250 1675 4750 775 
Q 5325 75 6100 -100 
L 6100 -200 
Q 5625 -275 5600 -500 
Q 4950 -50 4525 525 
Q 3700 -275 2550 -650 
L 2500 -575 
Q 3650 -50 4325 800 
Q 3850 1975 3825 3375 
Q 3575 2725 3100 2150 
L 3025 2200 
Q 3625 3200 4050 5250 
z
" transform="scale(0.015625)"/>
       <path id="SimSun-20" d="M 0 0 
Q 0 0 0 0 
z
" transform="scale(0.015625)"/>
       <path id="STIXGeneral-Regular-28" d="M 1946 -1030 
L 1869 -1133 
Q 1126 -710 716 32 
Q 307 774 307 1613 
Q 307 3386 1888 4326 
L 1946 4224 
Q 1293 3667 1075 3126 
Q 858 2586 858 1632 
Q 858 685 1082 96 
Q 1306 -493 1946 -1030 
z
" transform="scale(0.015625)"/>
       <path id="STIXGeneral-Regular-4d" d="M 5530 0 
L 3738 0 
L 3738 122 
Q 4115 147 4214 265 
Q 4314 384 4314 787 
L 4314 3661 
L 2682 0 
L 2592 0 
L 979 3514 
L 979 966 
Q 979 448 1088 294 
Q 1197 141 1574 122 
L 1574 0 
L 77 0 
L 77 122 
Q 358 141 480 205 
Q 602 269 650 432 
Q 698 595 698 966 
L 698 3514 
Q 698 3878 589 3984 
Q 480 4090 90 4115 
L 90 4237 
L 1357 4237 
L 2835 1024 
L 4250 4237 
L 5523 4237 
L 5523 4115 
Q 5178 4109 5072 3993 
Q 4966 3878 4966 3520 
L 4966 717 
Q 4966 378 5072 262 
Q 5178 147 5530 122 
L 5530 0 
z
" transform="scale(0.015625)"/>
       <path id="STIXGeneral-Regular-29" d="M 186 4224 
L 262 4326 
Q 992 3891 1408 3148 
Q 1824 2406 1824 1581 
Q 1824 -166 243 -1133 
L 186 -1030 
Q 845 -486 1059 54 
Q 1274 595 1274 1562 
Q 1274 2534 1059 3120 
Q 845 3706 186 4224 
z
" transform="scale(0.015625)"/>
      </defs>
      <use xlink:href="#SimSun-8bf7" transform="translate(0 0.96875)"/>
      <use xlink:href="#SimSun-6c42" transform="translate(100 0.96875)"/>
      <use xlink:href="#SimSun-6570" transform="translate(200 0.96875)"/>
      <use xlink:href="#SimSun-20" transform="translate(300 0.96875)"/>
      <use xlink:href="#STIXGeneral-Regular-28" transform="translate(350 0.96875)"/>
      <use xlink:href="#STIXGeneral-Regular-4d" transform="translate(383.299988 0.96875)"/>
      <use xlink:href="#STIXGeneral-Regular-29" transform="translate(472.199982 0.96875)"/>
     </g>
    </g>
   </g>
   <g id="matplotlib.axis_2">
    <g id="ytick_1">
     <g id="line2d_8">
      <defs>
       <path id="mc770b7146a" d="M 0 0 
L -3.5 0 
" style="stroke: #000000; stroke-width: 0.8"/>
      </defs>
      <g>
       <use xlink:href="#mc770b7146a" x="115.2" y="461.376" style="stroke: #000000; stroke-width: 0.8"/>
      </g>
     </g>
     <g id="text_9">
      <!-- 0 -->
      <g transform="translate(98.7 468.167016) scale(0.19 -0.19)">
       <use xlink:href="#SimSun-30"/>
      </g>
     </g>
    </g>
    <g id="ytick_2">
     <g id="line2d_9">
      <g>
       <use xlink:href="#mc770b7146a" x="115.2" y="425.088" style="stroke: #000000; stroke-width: 0.8"/>
      </g>
     </g>
     <g id="text_10">
      <!-- 10 -->
      <g transform="translate(89.2 431.879016) scale(0.19 -0.19)">
       <use xlink:href="#SimSun-31"/>
       <use xlink:href="#SimSun-30" x="50"/>
      </g>
     </g>
    </g>
    <g id="ytick_3">
     <g id="line2d_10">
      <g>
       <use xlink:href="#mc770b7146a" x="115.2" y="388.8" style="stroke: #000000; stroke-width: 0.8"/>
      </g>
     </g>
     <g id="text_11">
      <!-- 20 -->
      <g transform="translate(89.2 395.591016) scale(0.19 -0.19)">
       <use xlink:href="#SimSun-32"/>
       <use xlink:href="#SimSun-30" x="50"/>
      </g>
     </g>
    </g>
    <g id="ytick_4">
     <g id="line2d_11">
      <g>
       <use xlink:href="#mc770b7146a" x="115.2" y="352.512" style="stroke: #000000; stroke-width: 0.8"/>
      </g>
     </g>
     <g id="text_12">
      <!-- 30 -->
      <g transform="translate(89.2 359.303016) scale(0.19 -0.19)">
       <use xlink:href="#SimSun-33"/>
       <use xlink:href="#SimSun-30" x="50"/>
      </g>
     </g>
    </g>
    <g id="ytick_5">
     <g id="line2d_12">
      <g>
       <use xlink:href="#mc770b7146a" x="115.2" y="316.224" style="stroke: #000000; stroke-width: 0.8"/>
      </g>
     </g>
     <g id="text_13">
      <!-- 40 -->
      <g transform="translate(89.2 323.015016) scale(0.19 -0.19)">
       <defs>
        <path id="SimSun-34" d="M 2300 575 
Q 2300 400 2400 325 
Q 2500 250 2675 250 
L 2900 250 
L 2900 100 
L 1250 100 
L 1250 250 
L 1525 250 
Q 1725 250 1812 325 
Q 1900 400 1900 575 
L 1900 1400 
L 225 1400 
L 225 1525 
L 2050 4425 
L 2300 4425 
L 2300 1550 
L 2975 1550 
L 2975 1400 
L 2300 1400 
L 2300 575 
z
M 1875 3800 
L 450 1550 
L 1900 1550 
L 1900 3800 
L 1875 3800 
z
" transform="scale(0.015625)"/>
       </defs>
       <use xlink:href="#SimSun-34"/>
       <use xlink:href="#SimSun-30" x="50"/>
      </g>
     </g>
    </g>
    <g id="ytick_6">
     <g id="line2d_13">
      <g>
       <use xlink:href="#mc770b7146a" x="115.2" y="279.936" style="stroke: #000000; stroke-width: 0.8"/>
      </g>
     </g>
     <g id="text_14">
      <!-- 50 -->
      <g transform="translate(89.2 286.727016) scale(0.19 -0.19)">
       <use xlink:href="#SimSun-35"/>
       <use xlink:href="#SimSun-30" x="50"/>
      </g>
     </g>
    </g>
    <g id="ytick_7">
     <g id="line2d_14">
      <g>
       <use xlink:href="#mc770b7146a" x="115.2" y="243.648" style="stroke: #000000; stroke-width: 0.8"/>
      </g>
     </g>
     <g id="text_15">
      <!-- 60 -->
      <g transform="translate(89.2 250.439016) scale(0.19 -0.19)">
       <defs>
        <path id="SimSun-36" d="M 775 1800 
Q 775 1050 1037 637 
Q 1300 225 1675 225 
Q 2050 225 2250 500 
Q 2450 775 2450 1525 
Q 2450 2025 2237 2300 
Q 2025 2575 1725 2575 
Q 1450 2575 1212 2412 
Q 975 2250 775 1800 
z
M 1750 2825 
Q 2350 2825 2612 2425 
Q 2875 2025 2875 1525 
Q 2875 775 2512 412 
Q 2150 50 1675 50 
Q 1000 50 650 562 
Q 300 1075 300 2050 
Q 300 3200 725 3812 
Q 1150 4425 1875 4425 
Q 2225 4425 2437 4225 
Q 2650 4025 2650 3875 
Q 2650 3725 2587 3650 
Q 2525 3575 2375 3575 
Q 2250 3575 2187 3637 
Q 2125 3700 2125 3825 
Q 2125 3875 2150 3925 
Q 2150 3975 2150 4025 
Q 2150 4125 2075 4187 
Q 2000 4250 1800 4250 
Q 1375 4250 1075 3862 
Q 775 3475 775 2175 
Q 925 2500 1187 2662 
Q 1450 2825 1750 2825 
z
" transform="scale(0.015625)"/>
       </defs>
       <use xlink:href="#SimSun-36"/>
       <use xlink:href="#SimSun-30" x="50"/>
      </g>
     </g>
    </g>
    <g id="ytick_8">
     <g id="line2d_15">
      <g>
       <use xlink:href="#mc770b7146a" x="115.2" y="207.36" style="stroke: #000000; stroke-width: 0.8"/>
      </g>
     </g>
     <g id="text_16">
      <!-- 70 -->
      <g transform="translate(89.2 214.151016) scale(0.19 -0.19)">
       <defs>
        <path id="SimSun-37" d="M 2825 4200 
Q 2300 3350 1987 2537 
Q 1675 1725 1675 1125 
Q 1675 1025 1700 850 
Q 1700 650 1700 400 
Q 1700 200 1637 125 
Q 1575 50 1425 50 
Q 1300 50 1212 137 
Q 1125 225 1125 450 
Q 1125 925 1337 1625 
Q 1550 2325 2475 4000 
L 1225 4000 
Q 950 4000 787 3825 
Q 625 3650 550 3300 
L 400 3325 
L 575 4375 
L 2825 4375 
L 2825 4200 
z
" transform="scale(0.015625)"/>
       </defs>
       <use xlink:href="#SimSun-37"/>
       <use xlink:href="#SimSun-30" x="50"/>
      </g>
     </g>
    </g>
    <g id="ytick_9">
     <g id="line2d_16">
      <g>
       <use xlink:href="#mc770b7146a" x="115.2" y="171.072" style="stroke: #000000; stroke-width: 0.8"/>
      </g>
     </g>
     <g id="text_17">
      <!-- 80 -->
      <g transform="translate(89.2 177.863016) scale(0.19 -0.19)">
       <defs>
        <path id="SimSun-38" d="M 625 1125 
Q 625 725 887 475 
Q 1150 225 1550 225 
Q 2025 225 2237 475 
Q 2450 725 2450 1100 
Q 2450 1425 2150 1725 
Q 1850 2025 1250 2275 
Q 950 2075 787 1775 
Q 625 1475 625 1125 
z
M 2825 1175 
Q 2825 700 2475 375 
Q 2125 50 1550 50 
Q 1025 50 650 375 
Q 275 700 275 1125 
Q 275 1550 487 1850 
Q 700 2150 1100 2375 
Q 750 2550 562 2812 
Q 375 3075 375 3400 
Q 375 3825 700 4125 
Q 1025 4425 1600 4425 
Q 2125 4425 2450 4125 
Q 2775 3825 2775 3400 
Q 2775 3100 2587 2837 
Q 2400 2575 2000 2375 
Q 2425 2125 2625 1825 
Q 2825 1525 2825 1175 
z
M 2425 3375 
Q 2425 3725 2225 3987 
Q 2025 4250 1600 4250 
Q 1125 4250 925 4000 
Q 725 3750 725 3475 
Q 725 3200 1012 2937 
Q 1300 2675 1825 2475 
Q 2125 2625 2275 2850 
Q 2425 3075 2425 3375 
z
" transform="scale(0.015625)"/>
       </defs>
       <use xlink:href="#SimSun-38"/>
       <use xlink:href="#SimSun-30" x="50"/>
      </g>
     </g>
    </g>
    <g id="ytick_10">
     <g id="line2d_17">
      <g>
       <use xlink:href="#mc770b7146a" x="115.2" y="134.784" style="stroke: #000000; stroke-width: 0.8"/>
      </g>
     </g>
     <g id="text_18">
      <!-- 90 -->
      <g transform="translate(89.2 141.575016) scale(0.19 -0.19)">
       <defs>
        <path id="SimSun-39" d="M 700 3050 
Q 700 2500 912 2212 
Q 1125 1925 1450 1925 
Q 1825 1925 2100 2275 
Q 2375 2625 2375 2925 
Q 2375 3525 2175 3887 
Q 1975 4250 1525 4250 
Q 1100 4250 900 3912 
Q 700 3575 700 3050 
z
M 1375 1700 
Q 875 1700 575 2012 
Q 275 2325 275 3025 
Q 275 3625 600 4025 
Q 925 4425 1525 4425 
Q 2150 4425 2500 3925 
Q 2850 3425 2850 2475 
Q 2850 1425 2437 737 
Q 2025 50 1300 50 
Q 975 50 737 200 
Q 500 350 500 600 
Q 500 700 562 800 
Q 625 900 775 900 
Q 925 900 975 787 
Q 1025 675 1025 525 
Q 1025 425 1050 362 
Q 1075 300 1100 275 
Q 1125 250 1187 237 
Q 1250 225 1325 225 
Q 1775 225 2050 725 
Q 2325 1225 2375 2400 
Q 2250 2100 2000 1900 
Q 1750 1700 1375 1700 
z
" transform="scale(0.015625)"/>
       </defs>
       <use xlink:href="#SimSun-39"/>
       <use xlink:href="#SimSun-30" x="50"/>
      </g>
     </g>
    </g>
    <g id="ytick_11">
     <g id="line2d_18">
      <g>
       <use xlink:href="#mc770b7146a" x="115.2" y="98.496" style="stroke: #000000; stroke-width: 0.8"/>
      </g>
     </g>
     <g id="text_19">
      <!-- 100 -->
      <g transform="translate(79.7 105.287016) scale(0.19 -0.19)">
       <use xlink:href="#SimSun-31"/>
       <use xlink:href="#SimSun-30" x="50"/>
       <use xlink:href="#SimSun-30" x="100"/>
      </g>
     </g>
    </g>
    <g id="ytick_12">
     <g id="line2d_19">
      <g>
       <use xlink:href="#mc770b7146a" x="115.2" y="62.208" style="stroke: #000000; stroke-width: 0.8"/>
      </g>
     </g>
     <g id="text_20">
      <!-- 110 -->
      <g transform="translate(79.7 68.999016) scale(0.19 -0.19)">
       <use xlink:href="#SimSun-31"/>
       <use xlink:href="#SimSun-31" x="50"/>
       <use xlink:href="#SimSun-30" x="100"/>
      </g>
     </g>
    </g>
    <g id="text_21">
     <!-- 读取命中率 $\mathrm{(\%)}$ -->
     <g transform="translate(72.28 327.532) rotate(-90) scale(0.19 -0.19)">
      <defs>
       <path id="SimSun-8bfb" d="M 1450 275 
L 2375 850 
L 2425 775 
Q 1600 50 1325 -325 
L 1025 50 
Q 1125 175 1125 400 
L 1125 2850 
L 1050 2850 
Q 725 2850 450 2775 
L 225 3000 
L 1125 3000 
L 1350 3225 
L 1675 2900 
L 1450 2725 
L 1450 275 
z
M 750 4925 
L 800 5000 
Q 1150 4800 1387 4600 
Q 1625 4400 1587 4200 
Q 1550 4000 1400 3925 
Q 1250 3850 1175 4200 
Q 1100 4525 750 4925 
z
M 5100 2700 
L 5425 3325 
L 2575 3325 
Q 2375 3325 2100 3250 
L 1875 3475 
L 3650 3475 
L 3650 4250 
L 3025 4250 
Q 2700 4250 2425 4175 
L 2200 4400 
L 3650 4400 
Q 3650 4825 3625 5250 
L 4175 5000 
L 3975 4825 
L 3975 4400 
L 4875 4400 
L 5150 4675 
L 5550 4250 
L 3975 4250 
L 3975 3475 
L 5375 3475 
L 5625 3750 
L 6075 3300 
Q 5725 3275 5200 2650 
L 5100 2700 
z
M 2750 2925 
L 2775 3000 
Q 3350 2825 3462 2687 
Q 3575 2550 3575 2450 
Q 3575 2350 3512 2250 
Q 3450 2150 3425 2150 
Q 3350 2150 3275 2350 
Q 3125 2625 2750 2925 
z
M 2375 2275 
Q 2975 2075 3100 1950 
Q 3225 1825 3225 1700 
Q 3225 1625 3162 1512 
Q 3100 1400 3075 1400 
Q 3000 1400 2900 1625 
Q 2725 1925 2350 2200 
L 2375 2275 
z
M 4475 2625 
Q 4425 1550 4350 1175 
L 5275 1175 
L 5600 1500 
L 6050 1025 
L 4325 1025 
Q 4250 825 4125 575 
Q 4850 350 5200 150 
Q 5550 -50 5600 -237 
Q 5650 -425 5587 -500 
Q 5525 -575 5475 -575 
Q 5350 -575 5175 -325 
Q 4925 25 4075 475 
Q 3425 -425 1975 -650 
L 1950 -550 
Q 3600 -100 3975 1025 
L 2700 1025 
Q 2500 1025 2225 950 
L 2000 1175 
L 4000 1175 
Q 4100 1800 4100 3075 
L 4675 2800 
L 4475 2625 
z
" transform="scale(0.015625)"/>
       <path id="SimSun-53d6" d="M 1300 2225 
L 1300 1125 
L 2425 1350 
L 2425 2225 
L 1300 2225 
z
M 2750 1225 
Q 2750 100 2775 -350 
L 2400 -575 
Q 2425 125 2425 1150 
Q 775 700 575 425 
L 325 925 
Q 625 975 975 1050 
L 975 4650 
L 775 4650 
L 525 4600 
L 325 4800 
L 2675 4800 
L 2975 5100 
L 3425 4650 
L 2750 4650 
L 2750 1425 
L 3500 1575 
L 3525 1475 
L 2750 1225 
z
M 1300 4650 
L 1300 3600 
L 2425 3600 
L 2425 4650 
L 1300 4650 
z
M 2425 3450 
L 1300 3450 
L 1300 2375 
L 2425 2375 
L 2425 3450 
z
M 2925 4175 
L 5050 4175 
L 5250 4425 
L 5700 4075 
L 5475 3925 
Q 5100 2350 4550 1275 
Q 5200 375 6100 125 
L 6100 25 
Q 5775 -25 5600 -275 
Q 4875 225 4375 975 
Q 3700 25 2825 -525 
L 2775 -450 
Q 3650 325 4175 1250 
Q 3650 2625 3525 4025 
L 3350 4025 
L 3125 3975 
L 2925 4175 
z
M 3650 4025 
Q 3900 2525 4350 1600 
Q 4825 2650 5075 4025 
L 3650 4025 
z
" transform="scale(0.015625)"/>
       <path id="SimSun-547d" d="M 1775 3150 
L 3650 3150 
L 3950 3450 
L 4400 3000 
L 2550 3000 
Q 2225 3000 2000 2925 
L 1775 3150 
z
M 1450 2125 
L 1450 575 
L 2400 575 
L 2400 2125 
L 1450 2125 
z
M 1100 -250 
Q 1125 525 1125 1125 
Q 1125 1725 1100 2500 
L 1450 2275 
L 2350 2275 
L 2525 2500 
L 2900 2200 
L 2725 2050 
Q 2725 550 2750 150 
L 2400 0 
L 2400 425 
L 1450 425 
L 1450 -100 
L 1100 -250 
z
M 3775 2175 
L 3775 -450 
L 3425 -625 
Q 3450 75 3450 1050 
Q 3450 2025 3425 2550 
L 3775 2325 
L 4825 2325 
L 5000 2575 
L 5400 2275 
L 5200 2100 
L 5200 525 
Q 5225 75 4700 -125 
Q 4700 150 4025 325 
L 4025 425 
Q 4550 375 4712 375 
Q 4875 375 4875 700 
L 4875 2175 
L 3775 2175 
z
M 2975 5275 
L 3475 4900 
L 3250 4725 
Q 3750 4025 4450 3625 
Q 5150 3225 6125 3075 
L 6125 2975 
Q 5700 2950 5550 2625 
Q 4650 3050 4112 3500 
Q 3575 3950 3150 4650 
Q 2600 3900 1962 3362 
Q 1325 2825 275 2425 
L 225 2525 
Q 1250 2975 1962 3750 
Q 2675 4525 2975 5275 
z
" transform="scale(0.015625)"/>
       <path id="SimSun-4e2d" d="M 3325 3625 
L 3325 1975 
L 5125 1975 
L 5125 3625 
L 3325 3625 
z
M 2950 3775 
Q 2950 4750 2925 5250 
L 3525 4975 
L 3325 4775 
L 3325 3775 
L 5075 3775 
L 5275 4075 
L 5700 3750 
L 5475 3550 
L 5475 2100 
Q 5475 1825 5500 1525 
L 5125 1375 
L 5125 1825 
L 3325 1825 
Q 3325 -75 3350 -400 
L 2925 -625 
Q 2950 -50 2950 1825 
L 1225 1825 
L 1225 1525 
L 850 1325 
Q 875 1775 875 2625 
Q 875 3475 850 4000 
L 1225 3775 
L 2950 3775 
z
M 1225 3625 
L 1225 1975 
L 2950 1975 
L 2950 3625 
L 1225 3625 
z
" transform="scale(0.015625)"/>
       <path id="SimSun-7387" d="M 875 3725 
L 925 3800 
Q 1375 3650 1550 3525 
Q 1725 3400 1725 3250 
Q 1725 3175 1662 3025 
Q 1600 2875 1550 2875 
Q 1500 2875 1425 3050 
Q 1275 3325 875 3725 
z
M 550 1850 
Q 875 1925 2000 2575 
L 2050 2500 
Q 1675 2225 1337 1937 
Q 1000 1650 875 1425 
L 550 1850 
z
M 5200 3450 
Q 4800 3150 4275 2800 
L 4225 2875 
Q 4775 3400 5050 3925 
L 5450 3525 
L 5200 3450 
z
M 4325 2500 
L 4350 2575 
Q 5225 2350 5375 2212 
Q 5525 2075 5525 1900 
Q 5525 1775 5487 1662 
Q 5450 1550 5400 1550 
Q 5325 1550 5200 1800 
Q 4975 2150 4325 2500 
z
M 3150 3900 
Q 2500 3300 2300 3150 
Q 2800 3150 3400 3175 
Q 3700 3500 3850 3825 
L 4250 3450 
Q 4050 3400 3450 2825 
Q 2850 2250 2475 1950 
Q 3150 1975 3850 2000 
Q 3750 2175 3550 2450 
L 3600 2500 
Q 4050 2250 4200 2100 
Q 4350 1950 4350 1850 
Q 4350 1775 4250 1625 
Q 4150 1475 4100 1475 
Q 4075 1475 4050 1550 
Q 4000 1700 3900 1900 
Q 3650 1875 3075 1800 
L 3500 1550 
L 3325 1425 
L 3325 975 
L 5325 975 
L 5650 1300 
L 6100 825 
L 3325 825 
Q 3325 -275 3350 -525 
L 2975 -650 
Q 3000 0 3000 825 
L 1125 825 
Q 800 825 525 750 
L 300 975 
L 3000 975 
L 3000 1775 
Q 2450 1700 2200 1525 
L 1950 1950 
Q 2275 1950 2675 2350 
Q 3075 2750 3325 3050 
Q 2400 2950 2150 2775 
L 1950 3175 
Q 2150 3150 2475 3575 
Q 2800 4000 2900 4225 
L 1450 4225 
Q 1125 4225 850 4150 
L 625 4375 
L 3100 4375 
Q 3050 4800 2675 5200 
L 2725 5250 
Q 3225 5050 3337 4912 
Q 3450 4775 3450 4700 
Q 3450 4550 3250 4375 
L 5025 4375 
L 5350 4675 
L 5775 4225 
L 3050 4225 
L 3375 3950 
L 3150 3900 
z
" transform="scale(0.015625)"/>
       <path id="STIXGeneral-Regular-25" d="M 4390 1363 
Q 4390 781 4070 329 
Q 3750 -122 3341 -122 
Q 3014 -122 2790 134 
Q 2566 390 2566 762 
Q 2566 1274 2940 1693 
Q 3315 2112 3776 2112 
Q 4070 2112 4230 1917 
Q 4390 1722 4390 1363 
z
M 4243 1376 
Q 4243 1626 4131 1779 
Q 4019 1933 3840 1933 
Q 3654 1933 3526 1786 
Q 3315 1562 3171 1187 
Q 3027 813 3027 486 
Q 3027 301 3129 176 
Q 3232 51 3386 51 
Q 3718 51 3980 457 
Q 4243 864 4243 1376 
z
M 3974 4518 
L 1222 -115 
L 922 -115 
L 3443 4096 
Q 3264 3891 3094 3811 
Q 2925 3731 2669 3731 
Q 2445 3731 2182 3821 
Q 2208 3674 2208 3539 
Q 2208 3206 2067 2873 
Q 1926 2541 1696 2323 
Q 1453 2086 1146 2086 
Q 826 2086 608 2339 
Q 390 2592 390 2963 
Q 390 3507 761 3916 
Q 1133 4326 1626 4326 
Q 1792 4326 2010 4147 
Q 2310 3898 2624 3898 
Q 2918 3898 3084 3994 
Q 3251 4090 3693 4518 
L 3974 4518 
z
M 2054 3642 
Q 2054 3782 2025 3833 
Q 1997 3885 1894 3936 
Q 1747 4006 1613 4154 
Q 1414 4058 1331 3984 
Q 1248 3910 1152 3750 
Q 845 3264 845 2707 
Q 845 2509 944 2384 
Q 1043 2259 1210 2259 
Q 1549 2259 1801 2675 
Q 2054 3091 2054 3642 
z
" transform="scale(0.015625)"/>
      </defs>
      <use xlink:href="#SimSun-8bfb" transform="translate(0 0.578125)"/>
      <use xlink:href="#SimSun-53d6" transform="translate(100 0.578125)"/>
      <use xlink:href="#SimSun-547d" transform="translate(200 0.578125)"/>
      <use xlink:href="#SimSun-4e2d" transform="translate(300 0.578125)"/>
      <use xlink:href="#SimSun-7387" transform="translate(400 0.578125)"/>
      <use xlink:href="#SimSun-20" transform="translate(500 0.578125)"/>
      <use xlink:href="#STIXGeneral-Regular-28" transform="translate(550 0.578125)"/>
      <use xlink:href="#STIXGeneral-Regular-25" transform="translate(583.299988 0.578125)"/>
      <use xlink:href="#STIXGeneral-Regular-29" transform="translate(657.999969 0.578125)"/>
     </g>
    </g>
   </g>
   <g id="line2d_20">
    <path d="M 118.101581 438.489158 
L 120.825088 402.721528 
L 123.566141 369.79924 
L 126.350924 340.951732 
L 129.187148 313.388819 
L 132.042498 286.895313 
L 137.861307 240.462639 
L 140.831712 219.956291 
L 143.83402 200.962426 
L 146.852912 187.035817 
L 149.926499 167.847811 
L 156.056866 139.237626 
L 159.138516 127.043044 
L 162.242239 112.638885 
L 165.342653 106.475731 
L 168.487249 97.81814 
L 171.562988 88.330643 
L 174.671979 86.741591 
L 177.771102 86.380163 
L 180.87412 90.717304 
L 184.0164 86.43024 
L 187.16197 86.704577 
L 190.257679 90.062306 
L 193.404226 86.767718 
L 199.684762 86.969843 
L 202.826839 86.558337 
L 205.987744 86.690788 
L 209.155439 87.331634 
L 212.316498 86.850455 
L 215.507456 87.152008 
L 218.694752 87.252526 
L 221.900204 87.586739 
L 225.104811 91.140422 
L 228.301052 87.059111 
L 231.531116 86.943715 
L 234.741337 87.120801 
L 237.951781 86.958593 
L 241.146198 82.93752 
L 244.348672 83.333785 
L 247.596614 87.347601 
L 250.831593 87.848375 
L 254.063755 87.055845 
L 257.316959 87.795032 
L 260.575772 88.059208 
L 267.080567 87.5138 
L 276.871317 88.224682 
L 280.144171 87.514525 
L 283.405694 88.138316 
L 286.653105 83.55369 
L 289.902202 88.186216 
L 293.184387 88.442047 
L 296.464015 92.168099 
L 299.738658 88.928669 
L 303.032211 88.664129 
L 306.34049 89.181233 
L 309.626494 89.097408 
L 312.929499 89.281025 
L 316.235007 93.09054 
L 319.53656 89.942918 
L 322.840658 89.899736 
L 326.184287 90.163549 
L 332.750669 89.635196 
L 336.060326 93.504948 
L 339.305771 89.891752 
L 345.938827 90.344627 
L 349.257724 90.367488 
L 352.565234 91.002165 
L 355.873444 90.909268 
L 359.177477 91.504754 
L 362.498955 91.881423 
L 369.147542 92.303453 
L 372.484071 92.719676 
L 375.802416 92.926155 
L 379.127615 93.549583 
L 385.760562 93.829726 
L 389.060712 93.400439 
L 392.346911 93.171462 
L 395.66379 94.025681 
L 398.965159 94.654552 
L 402.287425 95.022513 
L 405.598875 95.641949 
L 408.908911 95.528004 
L 412.216049 96.167399 
L 415.528825 96.687043 
L 418.789645 97.054278 
L 422.105121 101.677732 
L 425.396003 98.177391 
L 428.684829 98.822955 
L 432.001138 99.308488 
L 435.280883 100.183755 
L 438.580857 100.32673 
L 441.839339 99.553069 
L 445.101052 99.685884 
L 448.368942 100.320924 
L 451.61144 100.676909 
L 454.861398 101.629832 
L 458.089285 102.092867 
L 461.357454 102.850923 
L 464.597225 103.717843 
L 467.85576 108.113046 
L 471.128767 105.330845 
L 474.389172 105.946652 
L 477.639538 103.206182 
L 480.90961 107.616626 
L 484.174432 108.446895 
L 490.657505 110.455073 
L 493.908587 110.798721 
L 497.12407 109.333774 
L 500.326979 110.592605 
L 503.583761 111.111886 
L 506.807924 116.04778 
L 510.000786 113.186834 
L 513.207004 114.4199 
L 519.621896 116.57323 
L 522.769069 118.380735 
L 526.004847 122.967539 
L 529.207599 120.78409 
L 538.760771 125.779133 
L 541.927302 127.180938 
L 545.0878 129.095856 
L 548.217383 129.330639 
L 551.306978 123.81196 
L 554.385119 125.510602 
L 560.630619 135.879898 
L 563.693018 134.08219 
L 566.776602 135.876995 
L 569.855105 137.850699 
L 572.956852 139.078322 
L 576.062801 141.628643 
L 582.267991 144.682278 
L 585.345978 146.730372 
L 588.398035 148.908015 
L 591.461582 147.177441 
L 594.521424 152.557137 
L 600.634775 157.029633 
L 603.667217 154.996053 
L 606.704008 157.152649 
L 609.739662 155.923937 
L 612.719031 157.617498 
L 621.771694 163.781378 
L 624.778113 165.464052 
L 630.790224 169.205345 
L 633.81294 171.544107 
L 636.780062 170.067911 
L 639.757664 175.625781 
L 648.673389 181.489922 
L 651.659176 183.685709 
L 654.617704 185.679009 
L 657.575295 185.256253 
L 660.488752 180.777226 
L 663.473225 182.718271 
L 666.399635 184.768906 
L 669.318903 186.298445 
L 672.224698 188.56463 
L 675.150511 192.849517 
L 678.061675 191.523917 
L 680.976757 193.68777 
L 683.910584 195.315287 
L 686.849869 197.376083 
L 689.742498 201.920066 
L 692.681077 200.730182 
L 695.584144 203.019955 
L 698.498693 204.570179 
L 701.440469 206.389296 
L 704.321113 208.734589 
L 707.200581 210.628097 
L 710.072759 211.905435 
L 712.9251 202.788438 
L 715.793081 196.516783 
L 718.662588 194.778225 
L 721.509727 199.697426 
L 724.387545 201.218982 
L 727.256443 203.282317 
L 730.113362 205.068413 
L 732.952392 206.297487 
L 735.758222 204.939228 
L 738.614542 212.302426 
L 741.443594 211.544006 
L 744.278301 215.856472 
L 747.142994 214.862907 
L 749.964696 216.090893 
L 752.810247 217.723127 
L 755.660344 219.157229 
L 758.463483 221.257578 
L 761.295431 222.529836 
L 761.295431 222.529836 
" clip-path="url(#pd6ee506a94)" style="fill: none; stroke: #ff0000; stroke-width: 1.5; stroke-linecap: square"/>
   </g>
   <g id="line2d_21">
    <path d="M 116.269224 450.555644 
L 119.04647 425.735015 
L 124.557925 360.398471 
L 127.374533 331.300938 
L 133.055295 277.706102 
L 138.88786 234.818041 
L 141.859308 214.675661 
L 144.853888 196.189102 
L 147.899595 179.859865 
L 150.937855 164.302111 
L 154.007642 149.985406 
L 157.119153 136.611827 
L 160.230499 128.769264 
L 163.342426 114.291804 
L 166.450158 101.018379 
L 169.583614 96.00628 
L 172.665184 83.886088 
L 175.740823 88.029089 
L 178.863004 87.842932 
L 181.980692 88.06066 
L 185.084339 88.483778 
L 188.224552 88.147751 
L 191.391814 88.178596 
L 194.546724 87.94853 
L 197.695872 88.250809 
L 200.869817 87.838214 
L 203.990762 88.096948 
L 207.136587 88.166984 
L 210.314929 88.689168 
L 213.479714 87.944901 
L 216.694249 88.444224 
L 219.875024 88.677919 
L 223.066982 88.492487 
L 226.276453 88.67175 
L 229.447969 88.315764 
L 232.660742 88.345521 
L 235.8701 88.164444 
L 239.101708 88.436966 
L 242.333699 88.573409 
L 245.570253 88.86081 
L 248.819988 88.460916 
L 252.046598 92.316516 
L 255.283003 88.567603 
L 261.752675 88.935201 
L 265.001091 88.877503 
L 268.242257 85.422885 
L 271.521461 89.511091 
L 274.78731 89.248366 
L 278.046284 89.470812 
L 284.57569 88.869156 
L 287.856352 88.864439 
L 291.090471 89.35723 
L 294.395897 89.120995 
L 297.690239 89.326748 
L 304.271632 90.383818 
L 307.555072 90.074281 
L 310.870655 90.449499 
L 314.161035 90.224513 
L 317.470623 94.640763 
L 320.793744 94.628788 
L 324.103217 91.050791 
L 327.409956 91.058049 
L 330.69811 87.605971 
L 334.062323 91.121553 
L 337.381084 91.322951 
L 340.711035 91.119738 
L 344.00822 87.999333 
L 347.316198 91.125181 
L 350.618606 92.05234 
L 353.92812 92.205112 
L 357.231904 92.037825 
L 360.52641 92.373489 
L 367.196566 93.3275 
L 370.515454 93.619256 
L 373.827311 93.206661 
L 377.12255 93.961089 
L 380.418792 91.182516 
L 383.726394 94.939413 
L 387.047482 94.993845 
L 390.333993 98.193721 
L 393.620111 94.647295 
L 400.254796 95.528367 
L 406.892921 96.599226 
L 416.723244 97.635974 
L 420.023445 98.154167 
L 423.309746 98.871581 
L 429.891925 99.71818 
L 433.192123 100.208431 
L 436.475754 100.875767 
L 439.775647 101.40666 
L 443.034389 100.233107 
L 446.315022 100.338342 
L 449.582691 105.299637 
L 452.84918 101.990172 
L 456.11338 102.440506 
L 465.926083 104.539766 
L 469.170206 101.454198 
L 472.426043 109.536261 
L 475.687637 106.436177 
L 478.863022 107.249754 
L 482.150699 111.636611 
L 485.353542 108.866748 
L 488.594987 109.639682 
L 491.804915 106.773656 
L 495.017214 111.014271 
L 498.253078 109.272447 
L 501.448355 110.295406 
L 504.643026 110.656835 
L 507.843776 115.144934 
L 511.054049 112.325357 
L 517.432941 114.056294 
L 520.614102 114.999782 
L 523.818549 115.682723 
L 527.004802 116.660321 
L 530.221608 117.216616 
L 533.400019 118.185143 
L 536.553965 119.397525 
L 539.732542 120.23106 
L 542.899547 120.933233 
L 546.049117 122.092272 
L 549.186178 122.642398 
L 552.305073 120.928516 
L 555.417803 117.626308 
L 558.528335 122.535711 
L 561.608395 123.35074 
L 564.721322 123.867844 
L 567.84182 125.017085 
L 570.927339 129.699325 
L 574.00567 127.108362 
L 580.182565 128.996064 
L 583.248443 130.284288 
L 586.339345 130.979203 
L 592.493047 133.001533 
L 595.58412 134.152226 
L 598.698783 134.961448 
L 601.736317 132.808118 
L 604.774439 135.449159 
L 607.795793 134.221536 
L 610.820131 136.200684 
L 613.827619 136.311725 
L 616.862782 140.786761 
L 619.88655 138.481384 
L 622.88992 139.066347 
L 625.886443 140.584274 
L 628.89216 137.418146 
L 631.883894 142.758288 
L 637.898914 144.603533 
L 640.863715 145.629032 
L 643.827299 146.904555 
L 646.816915 147.825181 
L 649.775204 149.193965 
L 652.740379 146.766298 
L 655.702051 151.585344 
L 658.658083 150.521743 
L 661.556086 144.214888 
L 664.508921 144.564705 
L 667.473097 146.000621 
L 670.420823 146.867904 
L 673.363478 148.088269 
L 676.317008 145.471905 
L 679.213746 149.528177 
L 682.205531 150.924177 
L 688.058754 153.144276 
L 690.964199 154.35811 
L 693.896992 155.407922 
L 696.813155 159.948639 
L 699.706877 157.703864 
L 702.611422 158.453937 
L 705.481086 156.036793 
L 708.390836 161.012966 
L 711.287957 161.522087 
L 714.13133 158.078719 
L 717.00113 148.708068 
L 719.869572 152.970094 
L 722.733477 154.125141 
L 725.612579 154.93146 
L 728.492349 156.101748 
L 731.329863 153.199434 
L 734.229213 157.459645 
L 737.075145 158.388981 
L 739.94949 159.49758 
L 742.795669 161.252467 
L 745.661955 161.818197 
L 748.498992 162.793619 
L 751.337197 167.455538 
L 754.174084 165.11351 
L 757.027459 166.001115 
L 759.697707 166.473948 
L 761.987339 165.845076 
L 764.276085 166.689861 
L 766.578216 167.974819 
L 767.770466 168.463981 
L 767.770466 168.463981 
" clip-path="url(#pd6ee506a94)" style="fill: none; stroke: #0000ff; stroke-width: 1.5; stroke-linecap: square"/>
   </g>
   <g id="line2d_22">
    <path d="M 115.473782 456.599411 
L 116.918909 444.388499 
L 119.625557 418.381252 
L 122.333562 385.922724 
L 125.087196 356.290669 
L 127.907789 328.520915 
L 130.770725 301.641667 
L 136.581629 252.475782 
L 145.470422 196.047579 
L 148.46968 179.70673 
L 151.503353 164.491897 
L 154.523516 150.503236 
L 157.54534 134.795612 
L 160.592038 127.23029 
L 163.651142 116.835592 
L 166.693773 107.63985 
L 169.679425 101.224495 
L 172.717314 100.975922 
L 175.749108 100.170691 
L 178.773891 99.999775 
L 181.820993 96.181914 
L 184.90271 99.562504 
L 187.961976 99.07806 
L 191.035082 98.993508 
L 194.129824 98.538457 
L 197.225529 98.486928 
L 200.332123 97.861686 
L 203.45422 97.887087 
L 209.688617 97.527836 
L 212.83577 101.265137 
L 215.955394 97.181649 
L 219.106211 97.064076 
L 225.403608 93.1007 
L 228.564173 93.450516 
L 231.746288 93.195412 
L 241.259351 93.118481 
L 244.430679 93.379755 
L 247.576837 88.93266 
L 250.754522 93.447251 
L 253.939472 93.116304 
L 257.10637 97.082945 
L 260.297618 93.420397 
L 263.484202 92.864102 
L 266.685483 93.270165 
L 269.879433 93.193597 
L 273.09537 97.236081 
L 276.299944 93.06042 
L 279.489899 91.98303 
L 282.693918 91.982304 
L 285.908386 92.272971 
L 292.32917 92.007343 
L 295.560951 92.35607 
L 298.772872 91.967063 
L 301.992768 92.413043 
L 305.194068 95.707267 
L 308.397313 92.058872 
L 311.621659 96.024061 
L 314.822723 92.270794 
L 318.054419 92.376392 
L 321.268811 92.260996 
L 327.715329 92.325951 
L 330.927383 96.230177 
L 334.127457 91.783809 
L 337.319936 88.288186 
L 340.544608 91.906825 
L 343.766909 91.767116 
L 353.406347 92.016778 
L 359.838192 91.920252 
L 363.059586 92.246481 
L 366.273078 92.145963 
L 369.46364 88.141945 
L 372.659569 92.483441 
L 375.874709 92.112578 
L 379.063395 92.236683 
L 382.245494 92.215636 
L 385.461095 92.775923 
L 388.63733 91.974321 
L 391.790342 92.007343 
L 394.955104 92.251924 
L 398.146988 92.307444 
L 401.31154 92.050888 
L 404.485715 92.35353 
L 407.646251 92.371674 
L 410.824307 96.20151 
L 413.980893 92.150317 
L 417.091082 88.534218 
L 423.414418 96.238524 
L 426.56251 96.517215 
L 429.698176 95.496434 
L 432.830844 92.89531 
L 435.974955 92.856845 
L 439.106047 96.7774 
L 442.207644 88.98927 
L 445.326247 92.638754 
L 448.437036 92.897124 
L 457.772481 92.771931 
L 460.873537 96.818043 
L 463.971282 97.10617 
L 467.075938 93.02377 
L 470.173559 93.113764 
L 473.250133 92.926881 
L 476.33769 89.117366 
L 479.430904 93.3627 
L 485.592693 93.683848 
L 488.651721 94.071767 
L 491.721303 98.408183 
L 494.790559 94.702452 
L 497.900729 94.498877 
L 500.950453 95.148432 
L 503.983685 99.363283 
L 507.034692 95.438736 
L 510.055147 95.962009 
L 513.065699 100.082148 
L 516.089989 96.846348 
L 522.154272 98.063084 
L 525.154056 102.558804 
L 528.163235 99.674271 
L 534.189764 101.386702 
L 537.196879 106.350538 
L 540.174688 103.499389 
L 543.159909 108.566283 
L 546.140678 105.901655 
L 549.098445 110.549059 
L 552.078164 106.979772 
L 566.791456 112.859516 
L 569.740986 114.378895 
L 572.682107 115.530313 
L 575.604185 116.834141 
L 578.49155 114.39341 
L 581.391036 119.813748 
L 584.286415 121.497512 
L 587.216501 122.750173 
L 590.109366 124.362812 
L 592.984106 125.68297 
L 598.739966 129.067914 
L 601.593933 130.053496 
L 604.428423 130.487864 
L 607.258394 131.173344 
L 610.063265 132.856381 
L 615.687117 135.882075 
L 618.485321 137.649663 
L 621.303455 139.09828 
L 624.080734 140.65431 
L 626.892535 142.592815 
L 629.674791 143.457558 
L 632.443166 145.575325 
L 635.240418 150.583069 
L 638.018916 148.970068 
L 640.772173 150.282968 
L 643.544653 151.804886 
L 646.313121 153.836289 
L 649.091522 160.006337 
L 651.842672 157.597903 
L 654.572337 158.628482 
L 657.278493 149.983229 
L 659.98227 151.088561 
L 662.721211 152.454442 
L 665.448563 153.666098 
L 668.22054 159.119096 
L 670.917244 152.47694 
L 673.642257 158.05114 
L 676.35082 163.957738 
L 679.049545 161.365686 
L 681.769675 162.531619 
L 684.487411 164.013621 
L 687.213689 165.351197 
L 689.955744 167.043669 
L 692.673201 168.493375 
L 695.363074 166.510961 
L 698.035301 168.20924 
L 700.743392 172.655608 
L 706.116465 175.717227 
L 708.825225 175.462848 
L 711.459499 159.676116 
L 714.111234 168.024534 
L 716.788727 168.819241 
L 722.080743 171.839854 
L 724.747334 172.383085 
L 727.429581 173.883231 
L 730.062151 171.708492 
L 732.745953 173.186139 
L 735.406045 177.549045 
L 740.706689 180.027878 
L 743.390517 181.900702 
L 746.064486 182.905154 
L 748.762395 184.232206 
L 751.409066 185.666308 
L 754.080438 190.224806 
L 756.764909 188.116111 
L 756.764909 188.116111 
" clip-path="url(#pd6ee506a94)" style="fill: none; stroke: #9467bd; stroke-width: 1.5; stroke-linecap: square"/>
   </g>
   <g id="line2d_23">
    <path d="M 115.378072 456.804075 
L 115.948395 450.462384 
L 118.587988 430.21622 
L 121.292489 398.119484 
L 124.072015 367.205011 
L 129.734982 309.19066 
L 135.524347 262.039121 
L 138.476489 240.34434 
L 141.449177 220.553954 
L 144.434526 202.018769 
L 147.43437 184.600892 
L 150.429167 165.962287 
L 153.468755 155.547268 
L 156.510142 142.517336 
L 159.540814 130.794134 
L 162.625117 120.23106 
L 165.676438 110.411891 
L 168.680439 106.680758 
L 171.720694 101.612051 
L 180.828602 100.111905 
L 183.883975 99.913409 
L 186.955848 99.337156 
L 190.03616 99.081688 
L 193.125203 102.746051 
L 196.214648 98.515958 
L 205.538082 98.20751 
L 208.648169 97.817414 
L 211.776104 97.659562 
L 214.910432 97.651941 
L 218.046232 97.164593 
L 221.217872 96.261022 
L 224.351597 93.025221 
L 227.514995 93.182348 
L 230.661277 93.19396 
L 233.837109 93.082919 
L 236.963719 88.47144 
L 240.118095 93.079653 
L 243.284214 93.109409 
L 246.468448 92.850676 
L 249.629303 92.761407 
L 252.842419 93.013609 
L 256.033129 93.114127 
L 259.211061 93.043002 
L 262.385244 92.854305 
L 265.605209 93.122836 
L 268.810145 92.904745 
L 272.000264 93.096708 
L 275.167035 84.687327 
L 278.36289 95.899956 
L 281.548539 87.830594 
L 284.725443 91.788163 
L 287.924233 95.566833 
L 291.137149 91.983756 
L 294.334425 91.834975 
L 297.534677 91.904285 
L 300.736349 91.748246 
L 303.95615 95.516029 
L 307.157438 96.154335 
L 310.371099 91.984118 
L 313.619405 91.899204 
L 316.817334 91.676033 
L 320.046446 92.01714 
L 323.262724 91.646277 
L 326.483915 92.102417 
L 329.709711 91.990287 
L 332.892905 91.607449 
L 339.292317 91.337466 
L 345.72286 91.635754 
L 348.906956 91.525075 
L 352.109899 91.68438 
L 355.304463 91.532333 
L 358.484481 87.429974 
L 361.693397 91.822274 
L 364.911617 91.835338 
L 368.100842 91.402422 
L 371.273913 91.841869 
L 374.453233 91.657889 
L 377.663351 92.007343 
L 384.065501 92.072661 
L 393.581099 91.591482 
L 396.745808 91.603457 
L 403.114039 91.963071 
L 406.275215 91.840781 
L 409.428594 92.042179 
L 418.935136 92.099151 
L 422.05321 91.975772 
L 425.217115 92.348087 
L 428.379648 92.204749 
L 431.523709 92.358973 
L 434.679783 92.192774 
L 437.824141 93.080379 
L 440.977042 92.857208 
L 444.089445 92.333209 
L 447.210776 92.553114 
L 450.336531 92.251198 
L 453.455357 92.418486 
L 456.55908 88.309233 
L 459.631838 92.593394 
L 462.724609 92.47945 
L 465.81654 92.926155 
L 468.912651 92.896399 
L 471.994652 96.70555 
L 475.072217 93.123199 
L 478.149491 92.923615 
L 484.302455 93.282503 
L 487.39553 93.15114 
L 490.467379 93.39427 
L 493.544618 94.43755 
L 496.595982 93.477732 
L 499.616636 93.400802 
L 502.661748 93.580428 
L 505.718581 89.392429 
L 508.732619 93.66135 
L 523.912184 94.069953 
L 526.921012 98.440479 
L 529.907562 94.357354 
L 532.91811 94.352636 
L 535.888393 90.260801 
L 538.90046 94.73366 
L 541.910915 98.949237 
L 544.879868 95.089283 
L 547.798498 97.098549 
L 550.680858 96.257756 
L 553.571271 100.430513 
L 556.405894 96.29223 
L 559.247374 96.38041 
L 562.070068 100.712108 
L 564.886244 96.764337 
L 570.457078 96.952308 
L 573.236708 97.122136 
L 576.002742 101.997429 
L 578.727047 92.861199 
L 581.437771 97.656296 
L 584.162987 97.623274 
L 586.83963 93.634497 
L 589.499095 93.462854 
L 592.143693 93.510755 
L 594.838727 98.385684 
L 597.487122 100.188835 
L 600.086777 104.14967 
L 605.087052 103.575594 
L 607.515985 103.599544 
L 609.908182 103.771912 
L 612.224038 103.819087 
L 614.499436 104.077094 
L 616.700121 103.930491 
L 618.848124 104.245108 
L 620.950594 103.950812 
L 624.999195 104.563354 
L 626.942496 104.33111 
L 630.732975 104.7633 
L 632.58809 104.617786 
L 634.386846 104.597827 
L 636.121811 105.031832 
L 637.808063 104.945829 
L 639.458481 117.425272 
L 641.027304 120.792799 
L 644.182969 120.532614 
L 647.211032 120.779735 
L 648.716974 125.220298 
L 650.198627 120.66942 
L 651.670209 121.136083 
L 653.117678 121.218094 
L 654.531733 121.444168 
L 655.953287 121.027582 
L 657.339229 120.994197 
L 658.703256 121.383567 
L 660.028955 121.070039 
L 661.373205 121.117213 
L 662.662205 121.404252 
L 663.98169 121.342562 
L 665.280814 121.621617 
L 666.580574 121.444894 
L 667.813559 140.987796 
L 669.025227 143.935834 
L 670.213979 139.264842 
L 671.376633 143.470621 
L 673.720426 143.958332 
L 674.888568 144.009135 
L 676.049284 143.533037 
L 677.173348 143.574405 
L 678.302385 144.443503 
L 679.434227 143.38353 
L 680.562531 144.438422 
L 682.790286 144.024739 
L 683.888973 148.59485 
L 684.990693 144.157553 
L 686.031231 143.958332 
L 686.031231 143.958332 
" clip-path="url(#pd6ee506a94)" style="fill: none; stroke: #ff7f0e; stroke-width: 1.5; stroke-linecap: square"/>
   </g>
   <g id="patch_3">
    <path d="M 115.2 461.376 
L 115.2 62.208 
" style="fill: none; stroke: #000000; stroke-width: 0.8; stroke-linejoin: miter; stroke-linecap: square"/>
   </g>
   <g id="patch_4">
    <path d="M 829.44 461.376 
L 829.44 62.208 
" style="fill: none; stroke: #000000; stroke-width: 0.8; stroke-linejoin: miter; stroke-linecap: square"/>
   </g>
   <g id="patch_5">
    <path d="M 115.2 461.376 
L 829.44 461.376 
" style="fill: none; stroke: #000000; stroke-width: 0.8; stroke-linejoin: miter; stroke-linecap: square"/>
   </g>
   <g id="patch_6">
    <path d="M 115.2 62.208 
L 829.44 62.208 
" style="fill: none; stroke: #000000; stroke-width: 0.8; stroke-linejoin: miter; stroke-linecap: square"/>
   </g>
   <g id="text_22">
    <!-- $\mathrm{proto\ &amp;\ mica*}$的读取命中率随请求数的变化趋势 -->
    <g transform="translate(231.666 56.208) scale(0.228 -0.228)">
     <defs>
      <path id="STIXGeneral-Regular-70" d="M 1018 2931 
L 1018 2438 
Q 1421 2944 1939 2944 
Q 2406 2944 2707 2560 
Q 3008 2176 3008 1581 
Q 3008 883 2621 409 
Q 2234 -64 1664 -64 
Q 1466 -64 1328 -6 
Q 1190 51 1018 211 
L 1018 -794 
Q 1018 -1094 1120 -1180 
Q 1222 -1267 1581 -1274 
L 1581 -1389 
L 32 -1389 
L 32 -1280 
Q 314 -1254 397 -1171 
Q 480 -1088 480 -838 
L 480 2157 
Q 480 2381 429 2451 
Q 378 2522 218 2522 
Q 115 2522 58 2515 
L 58 2618 
Q 506 2752 979 2944 
L 1018 2931 
z
M 1018 2138 
L 1018 563 
Q 1018 422 1238 281 
Q 1459 141 1683 141 
Q 2029 141 2243 467 
Q 2458 794 2458 1325 
Q 2458 1888 2243 2224 
Q 2029 2560 1670 2560 
Q 1446 2560 1232 2419 
Q 1018 2278 1018 2138 
z
" transform="scale(0.015625)"/>
      <path id="STIXGeneral-Regular-72" d="M 1024 2931 
L 1024 2342 
Q 1267 2688 1430 2816 
Q 1594 2944 1792 2944 
Q 1958 2944 2051 2854 
Q 2144 2765 2144 2605 
Q 2144 2470 2077 2393 
Q 2010 2317 1894 2317 
Q 1773 2317 1638 2445 
Q 1536 2541 1472 2541 
Q 1338 2541 1181 2355 
Q 1024 2170 1024 2016 
L 1024 576 
Q 1024 301 1133 205 
Q 1242 109 1568 96 
L 1568 0 
L 32 0 
L 32 96 
Q 339 154 412 224 
Q 486 294 486 538 
L 486 2138 
Q 486 2349 438 2435 
Q 390 2522 269 2522 
Q 166 2522 45 2496 
L 45 2598 
Q 448 2726 992 2944 
L 1024 2931 
z
" transform="scale(0.015625)"/>
      <path id="STIXGeneral-Regular-6f" d="M 3008 1478 
Q 3008 806 2608 371 
Q 2208 -64 1568 -64 
Q 979 -64 582 368 
Q 186 800 186 1459 
Q 186 2125 582 2534 
Q 979 2944 1626 2944 
Q 2221 2944 2614 2537 
Q 3008 2131 3008 1478 
z
M 2432 1306 
Q 2432 2035 2112 2445 
Q 1856 2765 1504 2765 
Q 1171 2765 966 2493 
Q 762 2221 762 1747 
Q 762 928 1101 435 
Q 1318 115 1677 115 
Q 2029 115 2230 432 
Q 2432 749 2432 1306 
z
" transform="scale(0.015625)"/>
      <path id="STIXGeneral-Regular-74" d="M 1702 493 
L 1786 422 
Q 1478 -64 1011 -64 
Q 448 -64 448 749 
L 448 2675 
L 109 2675 
Q 83 2694 83 2720 
Q 83 2771 192 2842 
Q 435 2982 813 3526 
Q 826 3546 874 3606 
Q 922 3667 941 3706 
Q 986 3706 986 3622 
L 986 2880 
L 1632 2880 
L 1632 2675 
L 986 2675 
L 986 845 
Q 986 538 1062 403 
Q 1139 269 1318 269 
Q 1510 269 1702 493 
z
" transform="scale(0.015625)"/>
      <path id="STIXGeneral-Regular-26" d="M 4704 710 
L 4800 640 
Q 4659 294 4409 105 
Q 4160 -83 3834 -83 
Q 3309 -83 2746 499 
Q 2387 186 2070 51 
Q 1754 -83 1363 -83 
Q 838 -83 553 160 
Q 269 403 269 877 
Q 269 1267 528 1628 
Q 787 1990 1274 2272 
L 1517 2413 
Q 1293 2957 1293 3366 
Q 1293 3789 1571 4057 
Q 1850 4326 2266 4326 
Q 2656 4326 2899 4115 
Q 3142 3904 3142 3533 
Q 3142 3181 2921 2937 
Q 2701 2694 2150 2458 
Q 2509 1683 2995 1139 
Q 3315 1568 3449 1821 
Q 3584 2074 3584 2291 
Q 3584 2438 3494 2502 
Q 3405 2566 3168 2592 
L 3168 2726 
L 4550 2726 
L 4550 2592 
Q 4326 2592 4201 2509 
Q 4077 2426 3949 2214 
Q 3859 2074 3702 1814 
Q 3546 1555 3424 1363 
Q 3302 1171 3142 960 
Q 3379 659 3606 515 
Q 3834 371 4115 371 
Q 4301 371 4425 444 
Q 4550 518 4704 710 
z
M 2803 3558 
Q 2803 3795 2662 3958 
Q 2522 4122 2304 4122 
Q 2080 4122 1939 3974 
Q 1798 3827 1798 3590 
Q 1798 3334 1849 3139 
Q 1901 2944 2054 2662 
Q 2458 2848 2630 3059 
Q 2803 3270 2803 3558 
z
M 2586 666 
Q 2035 1312 1613 2195 
Q 1197 1926 1027 1686 
Q 858 1446 858 1114 
Q 858 717 1078 486 
Q 1299 256 1651 256 
Q 2061 256 2586 666 
z
" transform="scale(0.015625)"/>
      <path id="STIXGeneral-Regular-6d" d="M 4960 0 
L 3565 0 
L 3565 96 
Q 3834 122 3907 208 
Q 3981 294 3981 576 
L 3981 1894 
Q 3981 2278 3869 2444 
Q 3757 2611 3488 2611 
Q 3264 2611 3107 2521 
Q 2950 2432 2803 2221 
L 2803 608 
Q 2803 301 2896 201 
Q 2989 102 3264 96 
L 3264 0 
L 1830 0 
L 1830 96 
Q 2112 115 2189 188 
Q 2266 262 2266 550 
L 2266 1901 
Q 2266 2611 1850 2611 
Q 1670 2611 1468 2531 
Q 1267 2451 1171 2336 
Q 1088 2240 1088 2227 
L 1088 448 
Q 1088 243 1177 176 
Q 1267 109 1523 96 
L 1523 0 
L 102 0 
L 102 96 
Q 371 102 460 195 
Q 550 288 550 563 
L 550 2150 
Q 550 2387 499 2480 
Q 448 2573 326 2573 
Q 230 2573 122 2547 
L 122 2656 
Q 557 2778 1011 2944 
L 1062 2925 
L 1062 2451 
L 1075 2451 
Q 1363 2752 1584 2848 
Q 1805 2944 2054 2944 
Q 2560 2944 2733 2406 
Q 3232 2944 3776 2944 
Q 4518 2944 4518 1792 
L 4518 493 
Q 4518 282 4582 202 
Q 4646 122 4794 109 
L 4960 96 
L 4960 0 
z
" transform="scale(0.015625)"/>
      <path id="STIXGeneral-Regular-69" d="M 1152 4045 
Q 1152 3904 1056 3811 
Q 960 3718 819 3718 
Q 685 3718 592 3811 
Q 499 3904 499 4045 
Q 499 4179 595 4275 
Q 691 4371 826 4371 
Q 966 4371 1059 4275 
Q 1152 4179 1152 4045 
z
M 1619 0 
L 102 0 
L 102 96 
Q 435 115 521 211 
Q 608 307 608 666 
L 608 2118 
Q 608 2342 563 2432 
Q 518 2522 397 2522 
Q 243 2522 128 2490 
L 128 2592 
L 1120 2944 
L 1146 2918 
L 1146 672 
Q 1146 314 1226 218 
Q 1306 122 1619 96 
L 1619 0 
z
" transform="scale(0.015625)"/>
      <path id="STIXGeneral-Regular-63" d="M 2547 998 
L 2637 941 
Q 2362 403 2112 205 
Q 1786 -64 1376 -64 
Q 845 -64 502 336 
Q 160 736 160 1357 
Q 160 2170 698 2618 
Q 1094 2944 1562 2944 
Q 1965 2944 2256 2749 
Q 2547 2554 2547 2285 
Q 2547 2176 2457 2096 
Q 2368 2016 2246 2016 
Q 2022 2016 1939 2310 
L 1901 2451 
Q 1850 2630 1773 2694 
Q 1696 2758 1523 2758 
Q 1133 2758 893 2451 
Q 653 2144 653 1645 
Q 653 1094 928 745 
Q 1203 397 1645 397 
Q 1920 397 2118 528 
Q 2317 659 2547 998 
z
" transform="scale(0.015625)"/>
      <path id="STIXGeneral-Regular-61" d="M 2829 422 
L 2829 243 
Q 2586 -64 2253 -64 
Q 1888 -64 1843 403 
L 1837 403 
Q 1427 -64 909 -64 
Q 608 -64 422 112 
Q 237 288 237 602 
Q 237 1050 685 1350 
Q 992 1555 1837 1869 
L 1837 2214 
Q 1837 2502 1699 2646 
Q 1562 2790 1338 2790 
Q 1146 2790 1018 2697 
Q 890 2605 890 2477 
Q 890 2419 909 2348 
Q 928 2278 928 2208 
Q 928 2112 841 2029 
Q 755 1946 634 1946 
Q 525 1946 441 2029 
Q 358 2112 358 2240 
Q 358 2547 685 2752 
Q 986 2944 1421 2944 
Q 1939 2944 2176 2656 
Q 2291 2522 2323 2384 
Q 2355 2246 2355 1946 
L 2355 723 
Q 2355 301 2554 301 
Q 2682 301 2829 422 
z
M 1837 813 
L 1837 1715 
Q 1248 1510 1018 1293 
Q 800 1094 800 800 
Q 800 557 921 432 
Q 1043 307 1242 307 
Q 1453 307 1613 410 
Q 1747 506 1792 589 
Q 1837 672 1837 813 
z
" transform="scale(0.015625)"/>
      <path id="STIXGeneral-Regular-2a" d="M 1715 3014 
L 1773 2976 
Q 2010 2822 2387 2758 
Q 2605 2726 2688 2665 
Q 2771 2605 2771 2483 
Q 2771 2374 2707 2304 
Q 2643 2234 2541 2234 
Q 2381 2234 2157 2515 
Q 2010 2694 1715 2886 
L 1664 2918 
L 1664 2861 
Q 1664 2502 1792 2157 
Q 1850 1997 1850 1946 
Q 1850 1850 1770 1773 
Q 1690 1696 1594 1696 
Q 1504 1696 1433 1766 
Q 1363 1837 1363 1926 
Q 1363 2016 1440 2227 
Q 1542 2502 1542 2861 
L 1542 2918 
Q 1286 2758 1210 2688 
Q 1133 2611 947 2400 
Q 806 2240 672 2240 
Q 563 2240 499 2304 
Q 435 2368 435 2470 
Q 435 2592 528 2656 
Q 621 2720 838 2758 
Q 1062 2803 1180 2848 
Q 1299 2893 1498 3014 
Q 1222 3181 877 3251 
Q 640 3302 544 3366 
Q 448 3430 448 3546 
Q 448 3648 505 3715 
Q 563 3782 659 3782 
Q 787 3782 973 3578 
Q 1242 3277 1542 3110 
L 1542 3194 
Q 1542 3456 1446 3776 
Q 1376 3987 1376 4109 
Q 1376 4198 1443 4262 
Q 1510 4326 1606 4326 
Q 1702 4326 1772 4259 
Q 1843 4192 1843 4096 
Q 1843 3994 1773 3795 
Q 1664 3507 1664 3264 
L 1664 3110 
Q 1882 3238 2035 3379 
Q 2067 3411 2153 3504 
Q 2240 3597 2291 3648 
Q 2342 3699 2409 3747 
Q 2477 3795 2528 3795 
Q 2637 3795 2701 3728 
Q 2765 3661 2765 3552 
Q 2765 3424 2691 3363 
Q 2618 3302 2432 3277 
Q 2074 3219 1715 3014 
z
" transform="scale(0.015625)"/>
      <path id="SimSun-7684" d="M 1125 3775 
L 1125 2175 
L 2425 2175 
L 2425 3775 
L 1125 3775 
z
M 1125 2025 
L 1125 275 
L 2425 275 
L 2425 2025 
L 1125 2025 
z
M 2750 3625 
Q 2750 700 2775 -200 
L 2425 -400 
L 2425 125 
L 1125 125 
L 1125 -300 
L 775 -500 
Q 800 675 800 1837 
Q 800 3000 775 4150 
L 1150 3925 
L 1400 3925 
Q 1650 4775 1675 5225 
L 2225 4925 
Q 1975 4800 1550 3925 
L 2375 3925 
L 2625 4175 
L 3000 3800 
L 2750 3625 
z
M 3975 5200 
L 4525 4875 
Q 4325 4750 3900 3850 
L 5250 3850 
L 5525 4125 
L 5900 3750 
L 5675 3575 
Q 5625 650 5537 262 
Q 5450 -125 5287 -275 
Q 5125 -425 4775 -550 
Q 4650 -150 3950 50 
L 3950 175 
Q 4575 50 4850 50 
Q 5125 50 5187 475 
Q 5250 900 5300 3700 
L 3850 3700 
Q 3400 2975 2900 2475 
L 2825 2525 
Q 3350 3325 3600 3950 
Q 3850 4575 3975 5200 
z
M 3525 2750 
Q 4125 2300 4225 2087 
Q 4325 1875 4325 1775 
Q 4325 1600 4225 1475 
Q 4125 1350 4075 1350 
Q 3975 1350 3925 1700 
Q 3825 2200 3475 2675 
L 3525 2750 
z
" transform="scale(0.015625)"/>
      <path id="SimSun-968f" d="M 2175 4225 
L 2250 4275 
Q 2800 3825 2850 3625 
Q 2900 3425 2775 3300 
Q 2650 3175 2600 3175 
Q 2500 3175 2475 3425 
Q 2425 3800 2175 4225 
z
M 6050 0 
L 6050 -100 
Q 5650 -175 5625 -475 
Q 4975 -450 4487 -425 
Q 4000 -400 3650 -262 
Q 3300 -125 3050 150 
Q 2875 300 2750 300 
Q 2650 300 2487 162 
Q 2325 25 2125 -375 
L 1750 -100 
Q 2100 175 2575 450 
L 2575 2300 
Q 2525 2300 2250 2225 
L 2025 2450 
L 2550 2450 
L 2700 2650 
L 3075 2375 
L 2875 2225 
L 2875 475 
Q 3325 75 3762 0 
Q 4200 -75 4725 -62 
Q 5250 -50 6050 0 
z
M 600 4900 
L 950 4675 
L 1700 4675 
L 1900 4900 
L 2300 4625 
L 2075 4450 
L 1475 3000 
Q 1650 2775 1900 2475 
Q 2125 2175 2162 1975 
Q 2200 1775 2200 1650 
Q 2200 1400 2075 1150 
Q 1950 900 1400 800 
Q 1400 1075 950 1250 
L 950 -475 
L 600 -650 
Q 625 0 625 2175 
Q 625 4350 600 4900 
z
M 1300 3000 
L 1725 4525 
L 950 4525 
L 950 1350 
Q 1275 1275 1425 1275 
Q 1600 1275 1725 1350 
Q 1850 1425 1850 1675 
Q 1850 1825 1812 2100 
Q 1775 2375 1300 3000 
z
M 3900 3250 
L 3900 2600 
L 5150 2600 
L 5150 3250 
L 3900 3250 
z
M 3575 250 
Q 3600 725 3600 3200 
Q 3350 2875 3000 2625 
L 2950 2675 
Q 3525 3325 3850 4175 
L 3600 4175 
Q 3275 4175 3000 4100 
L 2775 4325 
L 3900 4325 
Q 4100 4925 4100 5150 
L 4600 4900 
Q 4425 4800 4225 4325 
L 5325 4325 
L 5625 4625 
L 6025 4175 
L 4175 4175 
Q 4025 3825 3825 3475 
L 3925 3400 
L 5100 3400 
L 5250 3625 
L 5650 3350 
L 5475 3200 
L 5475 875 
Q 5525 425 5025 275 
Q 5025 550 4525 650 
L 4525 750 
Q 4950 725 5050 725 
Q 5150 725 5150 900 
L 5150 1650 
L 3900 1650 
L 3900 400 
L 3575 250 
z
M 3900 2450 
L 3900 1800 
L 5150 1800 
L 5150 2450 
L 3900 2450 
z
" transform="scale(0.015625)"/>
      <path id="SimSun-53d8" d="M 2750 4225 
L 2750 2225 
L 3650 2225 
L 3650 4225 
L 2750 4225 
z
M 375 4375 
L 3100 4375 
Q 3050 4750 2650 5200 
L 2700 5275 
Q 3150 5075 3325 4925 
Q 3500 4775 3500 4700 
Q 3500 4550 3300 4375 
L 5125 4375 
L 5525 4775 
L 6075 4225 
L 4000 4225 
L 4000 2225 
L 4425 2225 
L 4675 2500 
L 5100 2100 
L 4825 1975 
Q 4300 1325 3525 650 
Q 4500 -50 6125 -175 
L 6125 -275 
Q 5750 -325 5625 -575 
Q 4175 -250 3300 450 
Q 2150 -300 350 -600 
L 325 -500 
Q 2050 -100 3075 675 
Q 2525 1250 2100 2075 
L 1650 2075 
L 1375 2025 
L 1175 2225 
L 2400 2225 
L 2400 4225 
L 1200 4225 
Q 875 4225 600 4150 
L 375 4375 
z
M 2275 2075 
Q 2725 1350 3300 850 
Q 3800 1300 4425 2075 
L 2275 2075 
z
M 1675 3850 
L 2125 3450 
L 1875 3350 
Q 1150 2575 325 1950 
L 250 2025 
Q 700 2425 1087 2937 
Q 1475 3450 1675 3850 
z
M 4350 3700 
Q 5675 3050 5812 2875 
Q 5950 2700 5950 2575 
Q 5950 2475 5900 2375 
Q 5850 2275 5800 2275 
Q 5700 2275 5500 2550 
Q 5200 2950 4275 3625 
L 4350 3700 
z
" transform="scale(0.015625)"/>
      <path id="SimSun-5316" d="M 1375 -600 
Q 1400 200 1400 925 
L 1400 3125 
Q 850 2300 350 1775 
L 275 1850 
Q 825 2625 1300 3650 
Q 1775 4675 1900 5200 
L 2450 4875 
L 2200 4725 
Q 1875 4000 1600 3475 
L 1950 3275 
L 1750 3075 
L 1750 350 
Q 1750 75 1775 -400 
L 1375 -600 
z
M 3450 2125 
L 3450 3925 
Q 3450 4475 3425 5200 
L 4000 4925 
L 3800 4725 
L 3800 2400 
Q 4150 2725 4562 3225 
Q 4975 3725 5150 4025 
L 5600 3600 
L 5325 3525 
Q 4600 2700 3800 2000 
L 3800 425 
Q 3800 0 4225 0 
L 5300 0 
Q 5500 0 5550 325 
Q 5600 650 5600 1325 
L 5725 1325 
Q 5775 650 5850 425 
Q 5925 200 6125 125 
Q 5900 -325 5400 -325 
L 4075 -325 
Q 3450 -325 3450 250 
L 3450 1775 
Q 2800 1275 1950 925 
L 1925 1025 
Q 2800 1525 3450 2125 
z
" transform="scale(0.015625)"/>
      <path id="SimSun-8d8b" d="M 3900 5225 
L 4425 4900 
L 4225 4825 
Q 4000 4475 3800 4150 
L 4750 4150 
L 4975 4425 
L 5400 4025 
Q 5100 4000 4475 3075 
L 5350 3075 
L 5500 3325 
L 5900 3050 
L 5725 2875 
Q 5725 1050 5750 525 
L 5400 375 
L 5400 800 
L 3725 800 
Q 3525 800 3250 725 
L 3025 950 
L 5400 950 
L 5400 1900 
L 4050 1900 
Q 3850 1900 3575 1825 
L 3350 2050 
L 5400 2050 
L 5400 2925 
L 3900 2925 
Q 3700 2925 3425 2850 
L 3200 3075 
L 4350 3075 
L 4775 4000 
L 3725 4000 
Q 3450 3625 3000 3200 
L 2950 3250 
Q 3650 4250 3900 5225 
z
M 300 -550 
L 225 -500 
Q 675 275 787 1112 
Q 900 1950 850 2425 
L 1400 2150 
Q 1250 2075 1212 1812 
Q 1175 1550 1125 1075 
Q 1500 750 1725 625 
L 1725 2825 
L 950 2825 
Q 750 2825 475 2750 
L 250 2975 
L 1600 2975 
L 1600 4025 
L 1225 4025 
Q 1025 4025 750 3950 
L 525 4175 
L 1600 4175 
Q 1600 4675 1575 5225 
L 2125 4975 
L 1925 4800 
L 1925 4175 
L 2400 4175 
L 2700 4475 
L 3100 4025 
L 1925 4025 
L 1925 2975 
L 2475 2975 
L 2800 3275 
L 3200 2825 
L 1750 2825 
L 2250 2600 
L 2050 2400 
L 2050 1800 
L 2625 1800 
L 2925 2100 
L 3300 1650 
L 2050 1650 
L 2050 425 
Q 2925 25 3737 0 
Q 4550 -25 4925 -25 
Q 5625 -25 6150 25 
L 6150 -50 
Q 5700 -250 5700 -475 
Q 4950 -500 4012 -412 
Q 3075 -325 2325 -12 
Q 1575 300 1100 900 
Q 775 -25 300 -550 
z
" transform="scale(0.015625)"/>
      <path id="SimSun-52bf" d="M 1650 4175 
Q 1650 4775 1625 5200 
L 2150 4950 
L 1975 4800 
L 1975 4175 
L 2200 4175 
L 2475 4450 
L 2900 4025 
L 1975 4025 
L 1975 3425 
Q 2400 3525 2800 3625 
L 2825 3525 
Q 2400 3375 1975 3225 
L 1975 2150 
Q 2000 1800 1475 1575 
Q 1450 1850 800 2025 
L 800 2150 
Q 1225 2100 1437 2087 
Q 1650 2075 1650 2325 
L 1650 3100 
Q 700 2750 700 2650 
L 400 3100 
Q 575 3100 1650 3350 
L 1650 4025 
L 1300 4025 
Q 975 4025 700 3950 
L 475 4175 
L 1650 4175 
z
M 3650 4175 
L 3650 4525 
Q 3650 4875 3625 5225 
L 4175 4975 
L 3975 4800 
L 3975 4200 
L 4700 4250 
L 4850 4475 
L 5200 4200 
L 5025 4050 
Q 5000 3900 5000 3575 
Q 5000 3225 5050 2812 
Q 5100 2400 5425 2175 
Q 5600 2650 5700 3050 
L 5800 3025 
Q 5725 2525 5725 2250 
Q 5725 1975 5825 1775 
Q 5900 1650 5775 1650 
Q 5725 1650 5475 1750 
Q 5225 1850 5012 2137 
Q 4800 2425 4737 2750 
Q 4675 3075 4675 3475 
Q 4675 3850 4700 4100 
L 3975 4050 
Q 3925 3450 3750 3050 
Q 4100 2900 4262 2787 
Q 4425 2675 4387 2475 
Q 4350 2275 4275 2275 
Q 4225 2275 4125 2400 
Q 3925 2625 3625 2825 
Q 3225 2225 2100 1800 
L 2050 1875 
Q 3075 2400 3375 2975 
Q 3225 3100 2850 3300 
L 2900 3375 
Q 3225 3275 3475 3175 
Q 3600 3500 3650 4025 
L 3300 4000 
L 3125 3925 
L 2875 4125 
L 3650 4175 
z
M 2600 1425 
Q 2675 1700 2700 2025 
L 3175 1775 
L 3000 1650 
L 2950 1425 
L 4725 1425 
L 4875 1675 
L 5325 1375 
L 5125 1225 
Q 5050 400 4987 112 
Q 4925 -175 4750 -350 
Q 4575 -525 4225 -600 
Q 4250 -350 3650 -50 
L 3675 50 
Q 4225 -100 4412 -87 
Q 4600 -75 4675 312 
Q 4750 700 4775 1275 
L 2925 1275 
Q 2800 775 2575 450 
Q 2350 125 1875 -162 
Q 1400 -450 450 -650 
L 400 -550 
Q 1500 -225 1950 200 
Q 2400 625 2575 1275 
L 1450 1275 
Q 1125 1275 850 1200 
L 625 1425 
L 2600 1425 
z
" transform="scale(0.015625)"/>
     </defs>
     <use xlink:href="#STIXGeneral-Regular-70" transform="translate(0 0.578125)"/>
     <use xlink:href="#STIXGeneral-Regular-72" transform="translate(49.999985 0.578125)"/>
     <use xlink:href="#STIXGeneral-Regular-6f" transform="translate(83.299973 0.578125)"/>
     <use xlink:href="#STIXGeneral-Regular-74" transform="translate(133.299957 0.578125)"/>
     <use xlink:href="#STIXGeneral-Regular-6f" transform="translate(161.099945 0.578125)"/>
     <use xlink:href="#STIXGeneral-Regular-26" transform="translate(235.16635 0.578125)"/>
     <use xlink:href="#STIXGeneral-Regular-6d" transform="translate(337.032757 0.578125)"/>
     <use xlink:href="#STIXGeneral-Regular-69" transform="translate(414.832745 0.578125)"/>
     <use xlink:href="#STIXGeneral-Regular-63" transform="translate(442.632733 0.578125)"/>
     <use xlink:href="#STIXGeneral-Regular-61" transform="translate(487.032727 0.578125)"/>
     <use xlink:href="#STIXGeneral-Regular-2a" transform="translate(545.872717 0.578125)"/>
     <use xlink:href="#SimSun-7684" transform="translate(610.312698 0.578125)"/>
     <use xlink:href="#SimSun-8bfb" transform="translate(710.312698 0.578125)"/>
     <use xlink:href="#SimSun-53d6" transform="translate(810.312698 0.578125)"/>
     <use xlink:href="#SimSun-547d" transform="translate(910.312698 0.578125)"/>
     <use xlink:href="#SimSun-4e2d" transform="translate(1010.312698 0.578125)"/>
     <use xlink:href="#SimSun-7387" transform="translate(1110.312698 0.578125)"/>
     <use xlink:href="#SimSun-968f" transform="translate(1210.312698 0.578125)"/>
     <use xlink:href="#SimSun-8bf7" transform="translate(1310.312698 0.578125)"/>
     <use xlink:href="#SimSun-6c42" transform="translate(1410.312698 0.578125)"/>
     <use xlink:href="#SimSun-6570" transform="translate(1510.312698 0.578125)"/>
     <use xlink:href="#SimSun-7684" transform="translate(1610.312698 0.578125)"/>
     <use xlink:href="#SimSun-53d8" transform="translate(1710.312698 0.578125)"/>
     <use xlink:href="#SimSun-5316" transform="translate(1810.312698 0.578125)"/>
     <use xlink:href="#SimSun-8d8b" transform="translate(1910.312698 0.578125)"/>
     <use xlink:href="#SimSun-52bf" transform="translate(2010.312698 0.578125)"/>
    </g>
   </g>
   <g id="legend_1">
    <g id="patch_7">
     <path d="M 689.914688 451.876 
L 816.14 451.876 
Q 819.94 451.876 819.94 448.076 
L 819.94 342.519125 
Q 819.94 338.719125 816.14 338.719125 
L 689.914688 338.719125 
Q 686.114688 338.719125 686.114688 342.519125 
L 686.114688 448.076 
Q 686.114688 451.876 689.914688 451.876 
z
" style="fill: #ffffff; opacity: 0.8; stroke: #cccccc; stroke-linejoin: miter"/>
    </g>
    <g id="line2d_24">
     <path d="M 693.714688 352.969125 
L 712.714688 352.969125 
L 731.714688 352.969125 
" style="fill: none; stroke: #ff0000; stroke-width: 1.5; stroke-linecap: square"/>
    </g>
    <g id="text_23">
     <!-- mica100 -->
     <g transform="translate(746.914688 359.619125) scale(0.19 -0.19)">
      <defs>
       <path id="TimesNewRomanPSMT-6d" d="M 1050 2338 
Q 1363 2650 1419 2697 
Q 1559 2816 1721 2881 
Q 1884 2947 2044 2947 
Q 2313 2947 2506 2790 
Q 2700 2634 2766 2338 
Q 3088 2713 3309 2830 
Q 3531 2947 3766 2947 
Q 3994 2947 4170 2830 
Q 4347 2713 4450 2447 
Q 4519 2266 4519 1878 
L 4519 647 
Q 4519 378 4559 278 
Q 4591 209 4675 161 
Q 4759 113 4950 113 
L 4950 0 
L 3538 0 
L 3538 113 
L 3597 113 
Q 3781 113 3884 184 
Q 3956 234 3988 344 
Q 4000 397 4000 647 
L 4000 1878 
Q 4000 2228 3916 2372 
Q 3794 2572 3525 2572 
Q 3359 2572 3192 2489 
Q 3025 2406 2788 2181 
L 2781 2147 
L 2788 2013 
L 2788 647 
Q 2788 353 2820 281 
Q 2853 209 2943 161 
Q 3034 113 3253 113 
L 3253 0 
L 1806 0 
L 1806 113 
Q 2044 113 2133 169 
Q 2222 225 2256 338 
Q 2272 391 2272 647 
L 2272 1878 
Q 2272 2228 2169 2381 
Q 2031 2581 1784 2581 
Q 1616 2581 1450 2491 
Q 1191 2353 1050 2181 
L 1050 647 
Q 1050 366 1089 281 
Q 1128 197 1204 155 
Q 1281 113 1516 113 
L 1516 0 
L 100 0 
L 100 113 
Q 297 113 375 155 
Q 453 197 493 289 
Q 534 381 534 647 
L 534 1741 
Q 534 2213 506 2350 
Q 484 2453 437 2492 
Q 391 2531 309 2531 
Q 222 2531 100 2484 
L 53 2597 
L 916 2947 
L 1050 2947 
L 1050 2338 
z
" transform="scale(0.015625)"/>
       <path id="TimesNewRomanPSMT-69" d="M 928 4444 
Q 1059 4444 1151 4351 
Q 1244 4259 1244 4128 
Q 1244 3997 1151 3903 
Q 1059 3809 928 3809 
Q 797 3809 703 3903 
Q 609 3997 609 4128 
Q 609 4259 701 4351 
Q 794 4444 928 4444 
z
M 1188 2947 
L 1188 647 
Q 1188 378 1227 289 
Q 1266 200 1342 156 
Q 1419 113 1622 113 
L 1622 0 
L 231 0 
L 231 113 
Q 441 113 512 153 
Q 584 194 626 287 
Q 669 381 669 647 
L 669 1750 
Q 669 2216 641 2353 
Q 619 2453 572 2492 
Q 525 2531 444 2531 
Q 356 2531 231 2484 
L 188 2597 
L 1050 2947 
L 1188 2947 
z
" transform="scale(0.015625)"/>
       <path id="TimesNewRomanPSMT-63" d="M 2631 1088 
Q 2516 522 2178 217 
Q 1841 -88 1431 -88 
Q 944 -88 581 321 
Q 219 731 219 1428 
Q 219 2103 620 2525 
Q 1022 2947 1584 2947 
Q 2006 2947 2278 2723 
Q 2550 2500 2550 2259 
Q 2550 2141 2473 2067 
Q 2397 1994 2259 1994 
Q 2075 1994 1981 2113 
Q 1928 2178 1911 2362 
Q 1894 2547 1784 2644 
Q 1675 2738 1481 2738 
Q 1169 2738 978 2506 
Q 725 2200 725 1697 
Q 725 1184 976 792 
Q 1228 400 1656 400 
Q 1963 400 2206 609 
Q 2378 753 2541 1131 
L 2631 1088 
z
" transform="scale(0.015625)"/>
       <path id="TimesNewRomanPSMT-61" d="M 1822 413 
Q 1381 72 1269 19 
Q 1100 -59 909 -59 
Q 613 -59 420 144 
Q 228 347 228 678 
Q 228 888 322 1041 
Q 450 1253 767 1440 
Q 1084 1628 1822 1897 
L 1822 2009 
Q 1822 2438 1686 2597 
Q 1550 2756 1291 2756 
Q 1094 2756 978 2650 
Q 859 2544 859 2406 
L 866 2225 
Q 866 2081 792 2003 
Q 719 1925 600 1925 
Q 484 1925 411 2006 
Q 338 2088 338 2228 
Q 338 2497 613 2722 
Q 888 2947 1384 2947 
Q 1766 2947 2009 2819 
Q 2194 2722 2281 2516 
Q 2338 2381 2338 1966 
L 2338 994 
Q 2338 584 2353 492 
Q 2369 400 2405 369 
Q 2441 338 2488 338 
Q 2538 338 2575 359 
Q 2641 400 2828 588 
L 2828 413 
Q 2478 -56 2159 -56 
Q 2006 -56 1915 50 
Q 1825 156 1822 413 
z
M 1822 616 
L 1822 1706 
Q 1350 1519 1213 1441 
Q 966 1303 859 1153 
Q 753 1003 753 825 
Q 753 600 887 451 
Q 1022 303 1197 303 
Q 1434 303 1822 616 
z
" transform="scale(0.015625)"/>
       <path id="TimesNewRomanPSMT-31" d="M 750 3822 
L 1781 4325 
L 1884 4325 
L 1884 747 
Q 1884 391 1914 303 
Q 1944 216 2037 169 
Q 2131 122 2419 116 
L 2419 0 
L 825 0 
L 825 116 
Q 1125 122 1212 167 
Q 1300 213 1334 289 
Q 1369 366 1369 747 
L 1369 3034 
Q 1369 3497 1338 3628 
Q 1316 3728 1258 3775 
Q 1200 3822 1119 3822 
Q 1003 3822 797 3725 
L 750 3822 
z
" transform="scale(0.015625)"/>
       <path id="TimesNewRomanPSMT-30" d="M 231 2094 
Q 231 2819 450 3342 
Q 669 3866 1031 4122 
Q 1313 4325 1613 4325 
Q 2100 4325 2488 3828 
Q 2972 3213 2972 2159 
Q 2972 1422 2759 906 
Q 2547 391 2217 158 
Q 1888 -75 1581 -75 
Q 975 -75 572 641 
Q 231 1244 231 2094 
z
M 844 2016 
Q 844 1141 1059 588 
Q 1238 122 1591 122 
Q 1759 122 1940 273 
Q 2122 425 2216 781 
Q 2359 1319 2359 2297 
Q 2359 3022 2209 3506 
Q 2097 3866 1919 4016 
Q 1791 4119 1609 4119 
Q 1397 4119 1231 3928 
Q 1006 3669 925 3112 
Q 844 2556 844 2016 
z
" transform="scale(0.015625)"/>
      </defs>
      <use xlink:href="#TimesNewRomanPSMT-6d"/>
      <use xlink:href="#TimesNewRomanPSMT-69" x="77.783203"/>
      <use xlink:href="#TimesNewRomanPSMT-63" x="105.566406"/>
      <use xlink:href="#TimesNewRomanPSMT-61" x="149.951172"/>
      <use xlink:href="#TimesNewRomanPSMT-31" x="194.335938"/>
      <use xlink:href="#TimesNewRomanPSMT-30" x="244.335938"/>
      <use xlink:href="#TimesNewRomanPSMT-30" x="294.335938"/>
     </g>
    </g>
    <g id="line2d_25">
     <path d="M 693.714688 379.833344 
L 712.714688 379.833344 
L 731.714688 379.833344 
" style="fill: none; stroke: #0000ff; stroke-width: 1.5; stroke-linecap: square"/>
    </g>
    <g id="text_24">
     <!-- muen90 -->
     <g transform="translate(746.914688 386.483344) scale(0.19 -0.19)">
      <defs>
       <path id="TimesNewRomanPSMT-75" d="M 2709 2863 
L 2709 1128 
Q 2709 631 2732 520 
Q 2756 409 2807 365 
Q 2859 322 2928 322 
Q 3025 322 3147 375 
L 3191 266 
L 2334 -88 
L 2194 -88 
L 2194 519 
Q 1825 119 1631 15 
Q 1438 -88 1222 -88 
Q 981 -88 804 51 
Q 628 191 559 409 
Q 491 628 491 1028 
L 491 2306 
Q 491 2509 447 2587 
Q 403 2666 317 2708 
Q 231 2750 6 2747 
L 6 2863 
L 1009 2863 
L 1009 947 
Q 1009 547 1148 422 
Q 1288 297 1484 297 
Q 1619 297 1789 381 
Q 1959 466 2194 703 
L 2194 2325 
Q 2194 2569 2105 2655 
Q 2016 2741 1734 2747 
L 1734 2863 
L 2709 2863 
z
" transform="scale(0.015625)"/>
       <path id="TimesNewRomanPSMT-65" d="M 681 1784 
Q 678 1147 991 784 
Q 1303 422 1725 422 
Q 2006 422 2214 576 
Q 2422 731 2563 1106 
L 2659 1044 
Q 2594 616 2278 264 
Q 1963 -88 1488 -88 
Q 972 -88 605 314 
Q 238 716 238 1394 
Q 238 2128 614 2539 
Q 991 2950 1559 2950 
Q 2041 2950 2350 2633 
Q 2659 2316 2659 1784 
L 681 1784 
z
M 681 1966 
L 2006 1966 
Q 1991 2241 1941 2353 
Q 1863 2528 1708 2628 
Q 1553 2728 1384 2728 
Q 1125 2728 920 2526 
Q 716 2325 681 1966 
z
" transform="scale(0.015625)"/>
       <path id="TimesNewRomanPSMT-6e" d="M 1034 2341 
Q 1538 2947 1994 2947 
Q 2228 2947 2397 2830 
Q 2566 2713 2666 2444 
Q 2734 2256 2734 1869 
L 2734 647 
Q 2734 375 2778 278 
Q 2813 200 2889 156 
Q 2966 113 3172 113 
L 3172 0 
L 1756 0 
L 1756 113 
L 1816 113 
Q 2016 113 2095 173 
Q 2175 234 2206 353 
Q 2219 400 2219 647 
L 2219 1819 
Q 2219 2209 2117 2386 
Q 2016 2563 1775 2563 
Q 1403 2563 1034 2156 
L 1034 647 
Q 1034 356 1069 288 
Q 1113 197 1189 155 
Q 1266 113 1500 113 
L 1500 0 
L 84 0 
L 84 113 
L 147 113 
Q 366 113 442 223 
Q 519 334 519 647 
L 519 1709 
Q 519 2225 495 2337 
Q 472 2450 423 2490 
Q 375 2531 294 2531 
Q 206 2531 84 2484 
L 38 2597 
L 900 2947 
L 1034 2947 
L 1034 2341 
z
" transform="scale(0.015625)"/>
       <path id="TimesNewRomanPSMT-39" d="M 338 -88 
L 338 28 
Q 744 34 1094 217 
Q 1444 400 1770 856 
Q 2097 1313 2225 1859 
Q 1734 1544 1338 1544 
Q 891 1544 572 1889 
Q 253 2234 253 2806 
Q 253 3363 572 3797 
Q 956 4325 1575 4325 
Q 2097 4325 2469 3894 
Q 2925 3359 2925 2575 
Q 2925 1869 2578 1258 
Q 2231 647 1613 244 
Q 1109 -88 516 -88 
L 338 -88 
z
M 2275 2091 
Q 2331 2497 2331 2741 
Q 2331 3044 2228 3395 
Q 2125 3747 1936 3934 
Q 1747 4122 1506 4122 
Q 1228 4122 1018 3872 
Q 809 3622 809 3128 
Q 809 2469 1088 2097 
Q 1291 1828 1588 1828 
Q 1731 1828 1928 1897 
Q 2125 1966 2275 2091 
z
" transform="scale(0.015625)"/>
      </defs>
      <use xlink:href="#TimesNewRomanPSMT-6d"/>
      <use xlink:href="#TimesNewRomanPSMT-75" x="77.783203"/>
      <use xlink:href="#TimesNewRomanPSMT-65" x="127.783203"/>
      <use xlink:href="#TimesNewRomanPSMT-6e" x="172.167969"/>
      <use xlink:href="#TimesNewRomanPSMT-39" x="222.167969"/>
      <use xlink:href="#TimesNewRomanPSMT-30" x="272.167969"/>
     </g>
    </g>
    <g id="line2d_26">
     <path d="M 693.714688 406.697563 
L 712.714688 406.697563 
L 731.714688 406.697563 
" style="fill: none; stroke: #9467bd; stroke-width: 1.5; stroke-linecap: square"/>
    </g>
    <g id="text_25">
     <!-- proto90 -->
     <g transform="translate(746.914688 413.347562) scale(0.19 -0.19)">
      <defs>
       <path id="TimesNewRomanPSMT-70" d="M -6 2578 
L 875 2934 
L 994 2934 
L 994 2266 
Q 1216 2644 1439 2795 
Q 1663 2947 1909 2947 
Q 2341 2947 2628 2609 
Q 2981 2197 2981 1534 
Q 2981 794 2556 309 
Q 2206 -88 1675 -88 
Q 1444 -88 1275 -22 
Q 1150 25 994 166 
L 994 -706 
Q 994 -1000 1030 -1079 
Q 1066 -1159 1155 -1206 
Q 1244 -1253 1478 -1253 
L 1478 -1369 
L -22 -1369 
L -22 -1253 
L 56 -1253 
Q 228 -1256 350 -1188 
Q 409 -1153 442 -1076 
Q 475 -1000 475 -688 
L 475 2019 
Q 475 2297 450 2372 
Q 425 2447 370 2484 
Q 316 2522 222 2522 
Q 147 2522 31 2478 
L -6 2578 
z
M 994 2081 
L 994 1013 
Q 994 666 1022 556 
Q 1066 375 1236 237 
Q 1406 100 1666 100 
Q 1978 100 2172 344 
Q 2425 663 2425 1241 
Q 2425 1897 2138 2250 
Q 1938 2494 1663 2494 
Q 1513 2494 1366 2419 
Q 1253 2363 994 2081 
z
" transform="scale(0.015625)"/>
       <path id="TimesNewRomanPSMT-72" d="M 1038 2947 
L 1038 2303 
Q 1397 2947 1775 2947 
Q 1947 2947 2059 2842 
Q 2172 2738 2172 2600 
Q 2172 2478 2090 2393 
Q 2009 2309 1897 2309 
Q 1788 2309 1652 2417 
Q 1516 2525 1450 2525 
Q 1394 2525 1328 2463 
Q 1188 2334 1038 2041 
L 1038 669 
Q 1038 431 1097 309 
Q 1138 225 1241 169 
Q 1344 113 1538 113 
L 1538 0 
L 72 0 
L 72 113 
Q 291 113 397 181 
Q 475 231 506 341 
Q 522 394 522 644 
L 522 1753 
Q 522 2253 501 2348 
Q 481 2444 426 2487 
Q 372 2531 291 2531 
Q 194 2531 72 2484 
L 41 2597 
L 906 2947 
L 1038 2947 
z
" transform="scale(0.015625)"/>
       <path id="TimesNewRomanPSMT-6f" d="M 1600 2947 
Q 2250 2947 2644 2453 
Q 2978 2031 2978 1484 
Q 2978 1100 2793 706 
Q 2609 313 2286 112 
Q 1963 -88 1566 -88 
Q 919 -88 538 428 
Q 216 863 216 1403 
Q 216 1797 411 2186 
Q 606 2575 925 2761 
Q 1244 2947 1600 2947 
z
M 1503 2744 
Q 1338 2744 1170 2645 
Q 1003 2547 900 2300 
Q 797 2053 797 1666 
Q 797 1041 1045 587 
Q 1294 134 1700 134 
Q 2003 134 2200 384 
Q 2397 634 2397 1244 
Q 2397 2006 2069 2444 
Q 1847 2744 1503 2744 
z
" transform="scale(0.015625)"/>
       <path id="TimesNewRomanPSMT-74" d="M 1031 3803 
L 1031 2863 
L 1700 2863 
L 1700 2644 
L 1031 2644 
L 1031 788 
Q 1031 509 1111 412 
Q 1191 316 1316 316 
Q 1419 316 1516 380 
Q 1613 444 1666 569 
L 1788 569 
Q 1678 263 1478 108 
Q 1278 -47 1066 -47 
Q 922 -47 784 33 
Q 647 113 581 261 
Q 516 409 516 719 
L 516 2644 
L 63 2644 
L 63 2747 
Q 234 2816 414 2980 
Q 594 3144 734 3369 
Q 806 3488 934 3803 
L 1031 3803 
z
" transform="scale(0.015625)"/>
      </defs>
      <use xlink:href="#TimesNewRomanPSMT-70"/>
      <use xlink:href="#TimesNewRomanPSMT-72" x="50"/>
      <use xlink:href="#TimesNewRomanPSMT-6f" x="83.300781"/>
      <use xlink:href="#TimesNewRomanPSMT-74" x="133.300781"/>
      <use xlink:href="#TimesNewRomanPSMT-6f" x="161.083984"/>
      <use xlink:href="#TimesNewRomanPSMT-39" x="211.083984"/>
      <use xlink:href="#TimesNewRomanPSMT-30" x="261.083984"/>
     </g>
    </g>
    <g id="line2d_27">
     <path d="M 693.714688 433.561781 
L 712.714688 433.561781 
L 731.714688 433.561781 
" style="fill: none; stroke: #ff7f0e; stroke-width: 1.5; stroke-linecap: square"/>
    </g>
    <g id="text_26">
     <!-- puen90 -->
     <g transform="translate(746.914688 440.211781) scale(0.19 -0.19)">
      <use xlink:href="#TimesNewRomanPSMT-70"/>
      <use xlink:href="#TimesNewRomanPSMT-75" x="50"/>
      <use xlink:href="#TimesNewRomanPSMT-65" x="100"/>
      <use xlink:href="#TimesNewRomanPSMT-6e" x="144.384766"/>
      <use xlink:href="#TimesNewRomanPSMT-39" x="194.384766"/>
      <use xlink:href="#TimesNewRomanPSMT-30" x="244.384766"/>
     </g>
    </g>
   </g>
  </g>
 </g>
 <defs>
  <clipPath id="pd6ee506a94">
   <rect x="115.2" y="62.208" width="714.24" height="399.168"/>
  </clipPath>
 </defs>
</svg>
